<svg id="Layer_1" data-name="Layer 1" xmlns="http://www.w3.org/2000/svg" viewBox="0 0 1860 1160"><defs><style>.cls-1{fill:#7b7b7b;}.cls-2{fill:#797979;}.cls-3{fill:#a6a8ab;}.cls-4{fill:#848484;}.cls-5{fill:#747474;}.cls-6{fill:#676767;}.cls-7{fill:#515151;}.cls-8{fill:#636363;}.cls-9{fill:#5b5b5b;}.cls-10{fill:#6f6f6f;}.cls-11{fill:#6e6e6e;}.cls-12{fill:#5f5f5f;}.cls-13{fill:#565656;}.cls-14{fill:#646464;}.cls-15{fill:#a6a6a6;}.cls-16{fill:#727272;}.cls-17{fill:#656565;}.cls-18{fill:#686868;}</style></defs><title>art09-shapeshift</title><g id="ShapeShift"><path class="cls-1" d="M456.31,487c.27.55.53,1.11.81,1.66,1,2,.27,3.22-1.52,4.3-6.09,3.69-12.12,7.48-18.17,11.22q-20.4,12.62-40.79,25.24c-1.26.78-2.66,1.43-3.45,2.79-4.91,6-11.9,9-18.3,12.75-8.52,4.92-15.18,11.64-21.51,18.93-3.67,4.24-7.72,8.17-11.47,12.36-1,1.08-2,2.33-3.68,2.33-3.7-.86-5.8-3.78-8.09-6.38-5.29-6-10.7-11.86-16.18-17.67-2-2.19-3.58-1.43-5.25.48-5.68,6.47-11.75,12.59-17.36,19.12a16.4,16.4,0,0,1-6.05,4.93,3,3,0,0,1-3-1.23c-6.28-7.14-13-13.85-19.26-21a38.14,38.14,0,0,0-9.25-8.16Q241,541.14,228.74,532.8c-7.58-4.22-15.14-8.47-21.93-13.94-2.09-4-.48-7.3,1.53-10.77q27.32-47.11,54.5-94.31,17.85-30.9,35.64-61.83c1.72-3,3.21-6.25,6.58-7.91,4.41.08,4.76.53,5.41,4.85,1.13,7.48.68,15,.77,22.51a51.34,51.34,0,0,0,.41,7.12c0,6.23-.18,12.45-.6,18.67-.26,3.85.63,7.72.61,11.63-.06,13.65-.18,27.29-.17,40.94q0,17.55.23,35.1c-.71-29,.48-58-.44-87a19.15,19.15,0,0,0,.75-6.69c0-13,0-26.07,0-39.1,0-7.13.67-7.81,7.49-9.35,17.35-3.93,34.76-7.62,52.13-11.45,5.76-1.26,10.78-4,15.84-6.74A22.7,22.7,0,0,1,393,322c17.48-9.87,35.29-19.13,53.68-27.25a5.38,5.38,0,0,0,2.67-2c2.32-1.51,5-2.29,7.49-3.32,1.72-.71,2.43-.15,2.05,1.67-.89,4.37-1.09,8.88-2.59,13.13-1.88,5.94-2.55,12.13-3.86,18.19-2.21,10.27-3.65,20.71-6.34,30.91-5.1,3.89-8.56,9.31-12.86,13.95-7.9,8.52-15.45,17.37-23.33,25.92a10.25,10.25,0,0,1-6.39,3.58c-4.47-1.9-7.59-5.61-11.3-8.53-7.33-5.77-14.1-12.22-19-16.35,11.6,10.12,25.23,22.29,38.33,35.07,4.43,2.89,7.65,7.15,11.74,10.45,3.39,2.74,6.23,6.15,9.74,8.78,4.9,3.68,6,9.36,7.83,14.61,4.93,14.45,9.83,28.91,14.33,43.5A5.62,5.62,0,0,0,456.31,487Z"/><path class="cls-2" d="M230.33,815.83c-6.37-1.4-12.44-3.78-18.67-5.68-5.51-1.68-11-3.55-16.48-5.2a8.23,8.23,0,0,1-4.88-3.73q-20.34-31.85-40.79-63.6-25.17-39.23-50.36-78.45A12.89,12.89,0,0,1,97,651.79q.1-32.89,0-65.8a8.3,8.3,0,0,1,3.15-7.07c20-17.43,39.91-35,59.84-52.55,1.32-1.15,2.72-2.21,4.07-3.31a9.56,9.56,0,0,1,5.12.65c19,6.46,37.95,13.25,57,19.54,4,1.3,7.31,3.64,10.76,5.84,4.49,9.94,7.91,20.29,11.77,30.47,7.37,19.43,14.61,38.91,21.89,58.38.7,1.86,1.61,3.7,1,5.79-1.94,3.35-4.9,2.58-7.63,1.61-8-2.87-16.19-5.36-24.18-8.31-9.06-3.35-18.24-6.33-27.36-9.48Q176,615,139.56,602.41c-1.37-.47-2.81-.79-3.45-1.4,22.6,12.47,45.79,25.17,68.89,38,9,5,18.29,9.36,26.75,15.25,8.06,4,15.95,8.23,23.8,12.59q13.93,7.73,27.85,15.51c1.63.92,3.83,1.64,3.58,4.27L234.6,750.55q-17.15,20.91-34.3,41.8c-2,2.42-1.92,2.73,1.08,3.74,8.42,2.85,16.87,5.63,25.3,8.45a12.82,12.82,0,0,1,3.8,1.54C231.52,809.35,232.18,812.61,230.33,815.83Z"/><path class="cls-3" d="M1309.22,581a97,97,0,0,1,35.88,5.2c13.9,4.92,24.57,13.83,32.44,26.19,1.66,2.61,1.64,2.74-1,4.38-4.45,2.82-9,5.53-13.41,8.35-1.38.88-2.34,1-3.44-.52-6.85-9.59-16.4-15.32-27.46-18.7-17-5.21-34.1-5.35-51,.73-8.07,2.91-15.28,7.28-19.39,15.19-4.35,8.37-4.76,16.85,1,24.86,2.91,4,7,6.8,11.46,8.93,8,3.79,16.54,5.8,25.16,7.49,11.07,2.17,22.29,3.49,33.29,6,10.67,2.45,21.14,5.45,30.56,11.28,13,8,19.82,19.73,21.07,34.94a59.59,59.59,0,0,1-1.4,19.36c-3.68,14.84-13,25.14-26.33,32.11-9.67,5.07-20.07,7.7-30.81,9.28a110.29,110.29,0,0,1-16.47,1.22c-19.14-.09-37.74-3-54.44-13.28a68,68,0,0,1-25.51-27.49c-1.5-3-1.42-3.23,1.23-4.81q7.1-4.25,14.29-8.34c2.48-1.41,2.56-1.37,4.17,1,15.11,22.63,37,31.11,63.31,30.52a73.88,73.88,0,0,0,28.53-6c7.66-3.39,14.16-8.23,17.52-16.2,5.15-12.18,3.47-26.41-10.34-34.7-8-4.79-16.73-7.4-25.73-9.19-10-2-20-3.49-30-5.33-10.51-1.93-20.85-4.52-30.56-9.1-10-4.71-18.3-11.32-23-21.74a40.6,40.6,0,0,1-3.3-12.68c-1.48-15,1.53-28.64,12.83-39.63a59.22,59.22,0,0,1,19.16-12.33A94.62,94.62,0,0,1,1303.2,581Z"/><path class="cls-4" d="M538.88,581.07a97.33,97.33,0,0,1,32.55,4,62.46,62.46,0,0,1,35.87,27.53c1.48,2.36,1.43,2.62-1,4.14-4.44,2.83-8.93,5.58-13.39,8.39-1.28.81-2.28,1.2-3.43-.4-8.4-11.64-20.4-17.48-34-20.54a78.62,78.62,0,0,0-43,1.88c-6.36,2.13-12.2,5.19-16.87,10.23-6.37,6.88-8.63,14.86-6.38,23.94,1.66,6.68,6.47,10.85,12.22,14.07,6.63,3.72,13.86,5.77,21.21,7.46,10.75,2.46,21.71,3.77,32.53,5.88,11.45,2.24,22.76,5,33.3,10.25,16.56,8.32,25,21.76,25.76,40.18.4,10.47-1.38,20.48-6.88,29.59A51.21,51.21,0,0,1,587.93,766c-10.36,5.73-21.59,8.59-33.22,10.24a110.1,110.1,0,0,1-15.33,1.1c-19.69,0-38.71-3.14-55.75-13.88a68.86,68.86,0,0,1-24.55-26.91c-1.58-3-1.56-3.07,1.48-4.88,4.85-2.87,9.75-5.69,14.59-8.58,1.44-.86,2.4-.85,3.36.75C488.23,740,503,749,520.9,753.12a82.77,82.77,0,0,0,46.64-2.85c7.71-2.69,14.43-7,18.93-14.16,6.36-10.07,7.39-27.32-7-37-7.32-4.91-15.53-7.48-24-9.54-11.08-2.72-22.45-3.88-33.63-6.09-10.48-2.06-20.82-4.58-30.52-9.18C480.08,669,470.8,661.42,467.28,649c-4.6-16.28-3.24-31.85,7.93-45.46,6.38-7.76,14.84-12.66,24.09-16.19A96.55,96.55,0,0,1,538.88,581.07Z"/><path class="cls-3" d="M1423.62,659.87c1.35-.21,1.72-1.25,2.32-2,9.56-11.84,22.25-17.41,37.11-18.94a64.1,64.1,0,0,1,28.83,3.47c13.85,5,22.86,15,28.11,28.53a76.57,76.57,0,0,1,4.86,27.25c.17,23.58.06,47.16.06,70.74,0,.63,0,1.26,0,1.88-.15,2.52-.37,2.83-2.88,2.87q-8.28.11-16.56,0c-2.51,0-2.73-.36-2.87-2.87-.06-1.13,0-2.26,0-3.39q0-34.24,0-68.48a49.52,49.52,0,0,0-3.1-17.68c-3.8-10.06-10.79-16.79-21.16-19.74-12-3.42-23.65-2.48-34.44,4-12.81,7.68-19.17,19.51-20.28,34.14-.77,10.14-.23,20.32-.27,30.47-.06,13.17,0,26.35,0,39.52,0,3.93-.11,4-4,4.05-5,0-10,0-15,0-3,0-3.18-.28-3.3-3.22,0-.75,0-1.5,0-2.25V590.6c0-6.16-.42-5.8,5.63-5.81h10.91c6.1,0,5.81-.46,5.81,5.63q0,26.16,0,52.31c0,4.64,0,9.28,0,13.92A7.18,7.18,0,0,0,1423.62,659.87Z"/><path class="cls-4" d="M653.05,660.18a4.52,4.52,0,0,0,2.41-2.09c9-11.4,21-17,35.11-19a65.16,65.16,0,0,1,23.13,1c19.61,4.31,31.85,16.53,37.54,35.53a76.65,76.65,0,0,1,3.13,22.25q-.06,35.55,0,71.11c0,5,.22,4.7-4.72,4.71s-9.78-.06-14.68,0c-1.92,0-2.77-.72-2.65-2.65.06-1,0-2,0-3,0-23.2,0-46.4,0-69.61a47.25,47.25,0,0,0-3.46-18c-4.08-9.94-11.23-16.49-21.64-19.2-10.79-2.81-21.32-2.16-31.39,3-11.71,6-18.55,15.72-21.57,28.33a41,41,0,0,0-1,9.7q.06,32.73,0,65.47c0,1,0,2,0,3-.12,2.65-.22,2.85-2.78,2.87-5.76.06-11.53,0-17.3,0-1.74,0-2.56-.67-2.47-2.44,0-1,0-2,0-3q0-89,0-178c0-6-.58-5.46,5.41-5.49,4.65,0,9.29,0,13.93,0,1.84,0,2.85.58,2.71,2.58-.07,1,0,2,0,3q0,32.74,0,65.47A13,13,0,0,0,653.05,660.18Z"/><path class="cls-5" d="M304.11,345.51c-2.49,5.49-5.81,10.52-8.78,15.74-8.16,14.38-16.46,28.69-24.74,43q-11.28,19.53-22.61,39-12.42,21.48-24.78,43c-4.88,8.47-9.66,17-14.67,25.38a5.36,5.36,0,0,0,0,6.26c-1.41,1.75-2.89.92-4.29.06-5.63-3.43-11.18-7-16.77-10.44a4.36,4.36,0,0,1-2.33-3.19c-2.92-2.71-6.57-4.32-9.82-6.54q-1.83-1.25-3.68-2.47c-.75-2.05.41-3.65,1.33-5.25,7-12.29,14.12-24.52,21.18-36.78,9.81-17,19.71-34,29.46-51.09a45,45,0,0,1,7.12-9.18c5.61-5.71,10.63-11.95,16.07-17.8,5.25-5.66,11.53-10.22,16.7-14.82-3.9,4.57-10.57,6.69-15.43,11.3-1.16,1.1-2.85,1.9-4.41.48s-.84-3,0-4.47c5.4-9.61,11-19.12,16.52-28.63,1.05-1.79,2.9-2.69,4.43-3.94,4.93.08,9.61,1.6,14.39,2.51a31.42,31.42,0,0,0,4.82.77,12.06,12.06,0,0,1,3.68.59c4.15,1.73,8.65,2.11,12.92,3.36C302,342.83,304.34,342.73,304.11,345.51Z"/><path class="cls-6" d="M270.25,643.61c-.45-3.8-2.25-7.16-3.55-10.67q-10.84-29.25-21.88-58.43c-3-8.09-6.14-16.16-9.21-24.24-4-4.23-5.58-9.7-7.55-14.95-.61-1.63-1.35-3.53,1.54-3.87,8.15,5.07,16.24,10.27,24.5,15.17a40.93,40.93,0,0,1,9.91,8.46q7.64,8.73,15.73,17c1.91,2,3.28,4.42,5.58,6,2-.27,3.23,1.1,4.45,2.33,7.1,7.18,13.54,15,20.61,22.18,1.48,1.52,1.58,3.61,2.2,5.49.39,15,.11,30,.16,45,.05,13.5.08,27-.05,40.51,0,2,.54,4.38-1.82,5.72-6.32-2.78-12.1-6.57-18.24-9.7-1.89-1-3.76-2-5.65-3q-20.7-11.52-41.39-23c-4.82-2.68-9.66-5.33-14.48-8-1-3,1-3.16,3-2.94A33.75,33.75,0,0,1,242,655c9.59,3.58,19.39,6.55,29,10.07,1.45.53,3.17,1.66,4.55.2,1.23-1.31.05-2.85-.4-4.22-1.09-3.32-2.35-6.58-3.66-9.82A14.54,14.54,0,0,1,270.25,643.61Z"/><path class="cls-7" d="M310.87,699.35q0-46.44.07-92.88c1.76-5.38,6.49-8.46,10-12.45,4.34-5,8.77-9.94,13.42-14.67a6.43,6.43,0,0,1,3.47-2,9.53,9.53,0,0,0,2.87-2.37q10.6-11.6,21.18-23.22a15.94,15.94,0,0,1,3.41-2.89q12.09-7.5,24.2-15a9,9,0,0,1,3.73-1.68c-3.87,10.44-7.72,20.89-11.63,31.32q-24.46,65.19-49,130.38c-1.5,4-3,8-4.52,11.94-.91,2.37-1.18,2.57-3.19,1.43C320.22,704.65,315.31,702.41,310.87,699.35Z"/><path class="cls-3" d="M1605.68,717.68q0-25.77,0-51.54c0-4.55,0-4.56-4.59-4.58-6,0-12,0-18.06,0-3.45,0-3.63-.21-3.67-3.59,0-3.89,0-7.78,0-11.67,0-4.23,0-4.26,4.13-4.28,5.65,0,11.29,0,16.93,0,.88,0,1.76,0,2.63,0,2,.08,2.67-.91,2.65-2.75,0-3.52-.08-7,0-10.54a61.6,61.6,0,0,1,2.57-16.27c5.86-19.28,20.87-28.37,39-29.11,2.38-.09,4.77,0,7.15.07,1.67,0,2.59.82,2.11,2.66-1.32,5-2.65,9.92-3.94,14.89-.39,1.49-1.45,1.93-2.8,2a30.34,30.34,0,0,0-5.19.75,19.76,19.76,0,0,0-14,12,30.65,30.65,0,0,0-2.57,12.43c0,3.51,0,7,0,10.53,0,3,.24,3.23,3.24,3.27,5.89.06,11.78,0,17.68,0,5.39,0,5.39,0,5.4,5.29v9.4c0,4.86,0,4.87-5.06,4.87h-16.17c-.88,0-1.76,0-2.64,0-1.75,0-2.49.84-2.45,2.54,0,1.25,0,2.5,0,3.76V768.32c0,5.62.24,5.39-5.29,5.39h-12.42c-4.61,0-4.63,0-4.64-4.5q0-12.6,0-25.2Z"/><path class="cls-5" d="M264.22,336.48c-4.13,5.4-7,11.59-10.48,17.36-2.87,4.71-5.55,9.53-8.3,14.31a5,5,0,0,0-1,3c1.76.16,2.85-1,3.85-1.92a31.64,31.64,0,0,1,7.7-5.33c3.39-1.72,6-4.52,9.11-6.63.86-.58,2-2,2.86-1,1.12,1.25-.56,2.17-1.34,3A201.84,201.84,0,0,1,251.72,373a21.31,21.31,0,0,0-3.53,3.37,64.51,64.51,0,0,1-9.79,10.36c-6.78,6-11.55,13.42-16,21.22-7.83,13.86-15.91,27.56-23.87,41.35-7.14,12.37-14.2,24.79-21.41,37.12-1.76,3-3.1,6.33-5.54,8.93-1.48-.37-2.59-1.41-3.85-2.18-2.37-1.46-2.63-1.95-1.91-4.44.88-3.08,1.9-6.12,2.86-9.18,2.72-2.84,2.88-6.77,4.06-10.2,3.73-10.82,7.14-21.75,10.94-32.56a21.68,21.68,0,0,1,5.31-8.5c12.72-12.44,26.06-24.21,39.14-36.26a19.68,19.68,0,0,0,3.59-3.86c-7.5,5.66-14.54,11.89-21.87,17.75-4.59,3.67-9,7.58-13.61,11.25-3.51,2.79-5.62,2.19-6.55-2.3-2.22-10.67-4.94-21.24-6.71-32,2.25-9.94,8.1-18.15,13-26.79,6.19-10.85,12.49-21.64,18.69-32.48,1.75-3.07,3.83-5.17,7.54-5.12,2-.14,3.59,1,5.22,1.88,10.28,5.77,20.6,11.37,32.56,13C261.79,333.5,264.38,333.44,264.22,336.48Z"/><path class="cls-3" d="M1713.84,699.94q0,15.62,0,31.23a33,33,0,0,0,2.58,13.56c2.76,6.2,7.74,9.33,14.31,10.13a30.56,30.56,0,0,0,6.76.09,2.4,2.4,0,0,1,2.93,2.16c1,4.9,2.2,9.78,3.36,14.65.42,1.76-.22,2.54-2,2.83-10.25,1.66-20.3,1.11-29.82-3.29-9.22-4.25-14.7-11.83-17.69-21.35a67.59,67.59,0,0,1-2.8-20c-.11-21.07,0-42.14,0-63.21,0-5.15,0-5.15-5.15-5.16-5.9,0-11.79,0-17.68,0-3.51,0-3.67-.19-3.72-3.56q-.07-6.19,0-12.41c0-3.38.19-3.53,3.71-3.56,5.76,0,11.53,0,17.3,0,.75,0,1.51,0,2.26,0,3-.13,3.23-.27,3.24-3.27,0-9.78,0-19.56,0-29.34,0-5.22,0-5.28,5.06-6,4.84-.65,9.69-1.19,14.55-1.71,2.44-.26,2.92.2,2.93,3,0,10.16,0,20.32,0,30.47,0,1.26,0,2.51,0,3.77.13,2.68.33,3,3.15,3,6.39.06,12.79,0,19.19,0,1,0,2,0,3,0,1.74,0,2.47.84,2.46,2.54,0,4.64.06,9.28,0,13.92,0,2.75-.29,3-3.06,3-5.52.07-11,0-16.55,0-1.63,0-3.27,0-4.9,0-3.35.09-3.48.2-3.51,3.76,0,5.52,0,11,0,16.55Z"/><path class="cls-3" d="M1542.45,708V647.84c0-1.13,0-2.26,0-3.39,0-1.76.87-2.45,2.55-2.44,5.77,0,11.53,0,17.3,0,1.76,0,2.48.86,2.45,2.55,0,1,0,2,0,3q0,60.35,0,120.69c0,5.84.21,5.45-5.6,5.46-4.26,0-8.52,0-12.78,0-3.86,0-4-.12-4-4.05q0-25.38,0-50.76Z"/><path class="cls-8" d="M222.07,319.93c-2.75.38-4.31,2.15-5.64,4.46Q203,347.85,189.35,371.23a30.45,30.45,0,0,0-4.17,11.93c-2.48.41-2.46-1.66-2.84-3.06-1.66-6.28-2.86-12.65-4-19-.33-1.83-.35-3.75-2.27-4.8-1.72-6.27-2.47-12.73-3.62-19.1-2.72-15-5.27-30-7.9-45.05-.17-1-.56-1.92-.09-2.86a1.89,1.89,0,0,1,1.82.09Q196.9,302.15,227.52,315a2.5,2.5,0,0,1,.59.45c.1,1.84-1.21,2.24-2.61,2.59S222.73,318.42,222.07,319.93Z"/><path class="cls-9" d="M222.07,319.93c-.8-1.69-.33-2.81,1.48-3.32,1.52-.42,3-.8,4.56-1.2,9.52,3.51,18.77,7.68,28.13,11.57a17.54,17.54,0,0,0,6.9,1.39q48.5-.06,97,0a17,17,0,0,0,6.55-1.28c6.49-2.65,12.82-5.67,19.47-7.91,1.73.07,3.39-.52,5.11-.53,3,0,3.91,1.23,3.19,4.3-2.75,1.49-5.59,2.84-8.23,4.51-7.61,4.83-16.34,6.16-24.87,8.06-14.29,3.19-28.62,6.24-42.93,9.35-3.73.81-4.45,1.65-4.47,5.71q-.07,20.1-.05,40.2a22.48,22.48,0,0,1-.75,6.69c-2.57,1-3.37-.25-3.38-2.58,0-4.2,0-8.4,0-12.6,0-1.21.32-2.48-.35-3.63,0-5.47-.07-10.94,0-16.41a109.13,109.13,0,0,0-.7-12.26c-.43-4.2-.28-4.21-4.58-4.47-3.67-1.72-7.74-1.91-11.58-3-1.92-.54-4-.55-5.77-1.53-.84-.83-2.1.07-2.95-.73-6.63-.74-13.06-2.51-19.59-3.8-3.55-1.67-7.45-2-11.2-2.86a47,47,0,0,1-13.64-4.89C233.8,325.47,227.86,322.83,222.07,319.93Z"/><path class="cls-10" d="M229.6,531.45c-.92,1.39-.09,2.58.4,3.85,1.9,5,3.75,10,5.61,15-3.15-2.84-7.08-4.18-11-5.52-12.65-4.35-25.32-8.62-38-12.94-6.15-2.1-12.28-4.26-18.42-6.39a10.82,10.82,0,0,1-4.22-2.36L179,509.73c2-1.81,4.1-3.6,6.15-5.4,4.53,1.81,8.3,4.9,12.47,7.32,2.67,1.56,5.24,3.29,7.85,5a9.25,9.25,0,0,0,3.07,1.29c1.62,2,4,2.91,6.11,4.26C219.55,525.36,224.6,528.36,229.6,531.45Z"/><path class="cls-11" d="M230.33,815.83c-1-3.26-1.3-6.52.15-9.75a72,72,0,0,1,10,3.11q25.47,8.53,50.91,17.23c2.41.84,4.3.27,6.39-.81q28.73-14.82,57.51-29.53c.44-.23.92-.4,1.37-.6.78-.16,1,.17.83.9q-21.24,13.5-42.46,27c-5.91,3.76-11.91,7.39-17.72,11.31a6.56,6.56,0,0,1-6.3.74c-11.31-3.67-22.64-7.27-34-10.88q-12.52-4-25-8A13.77,13.77,0,0,1,230.33,815.83Z"/><path class="cls-12" d="M176.06,356.26c.23-.77.26-2.18,1.46-.78a11.54,11.54,0,0,1,2.2,5.12q2.26,10,4.63,20.09a23.87,23.87,0,0,0,.83,2.47,20.32,20.32,0,0,0,.56,4.46c1.85,8.45,3.66,16.9,5.49,25.35a24.41,24.41,0,0,0,.6,2.56c.61,1.83,1.15,2,2.62.81,4.73-3.9,9.42-7.86,14.13-11.78q11.68-9.72,23.4-19.42a9,9,0,0,1,.93-.64c1.09-.71,2.24-1.43,3.31-.08.93,1.18.1,2.11-.7,2.94-1.67,1.7-3.3,3.45-5.05,5.05-7.76,7.09-15.69,14-23.3,21.23-5.9,5.61-12.15,10.84-17.73,16.79a15.63,15.63,0,0,0-3.34,5.38q-7.41,20.29-14.85,40.59c-.46,1.26-.27,3.24-2.52,3.12q8.66-29.13,17.32-58.27a11.45,11.45,0,0,0,.2-5.52q-4.71-26-9.26-52.06a23,23,0,0,1-.12-3c-.73-.91,0-2.14-.64-3.07Z"/><path class="cls-13" d="M444.83,353.05q4.92-22.77,9.82-45.54A10.2,10.2,0,0,1,455.7,304s.22,0,.31,0a1.07,1.07,0,0,1,.26.26c-.61,6.74-2.13,13.33-3.27,20-3.34,19.6-6.84,39.17-10.29,58.76-1.93,11-3.8,21.93-5.84,32.87a14.47,14.47,0,0,0,.75,7q8.83,29.88,17.66,59.77c.42,1.43.69,2.91,1,4.37-1.21-1-1.58-2.51-2.09-3.92-6-16.59-12.1-33.16-18.08-49.77-1-2.76-3.12-4.51-5.15-6.32-5.69-5.08-11.41-10.12-16.85-15.48-1.25-1.23-2.58-2.36-3.88-3.54-1.6-3.54,1-4.1,3.4-4.8,2.84.17,4.68,2.2,6.69,3.8,1.76,1.4,3.51,2.84,5.24,4.28,3,2.48,4.14,2.13,5.05-1.74,2.8-11.83,5.19-23.76,7.75-35.64,1.05-4.9,2.15-9.79,3.25-14.69A11.21,11.21,0,0,1,444.83,353.05Z"/><path class="cls-3" d="M1571.05,602.82a2.37,2.37,0,0,1-.82,1.88c-4.87,5.37-9.71,10.76-14.65,16-1.59,1.7-2,1.63-3.62-.16-4.81-5.25-9.55-10.56-14.37-15.81-1-1.1-1.29-1.94-.15-3.17,4.91-5.32,9.77-10.7,14.62-16.08,1.16-1.3,2.18-1.43,3.41-.08,3.44,3.79,6.93,7.55,10.4,11.31,1.35,1.47,2.74,2.91,4.07,4.41A14,14,0,0,1,1571.05,602.82Z"/><path class="cls-14" d="M394.44,322.94c-.26-2.19-1.93-2.62-3.67-2.87-1.56-.23-3.17-.19-4.63-.9,6.81-3.42,14-6,21-9,13.45-5.69,26.95-11.24,40.43-16.84.58-.24,1.19-.37,1.78-.56.33.21.66.5.37.87a7.87,7.87,0,0,1-2.77,1.88q-10.12,5.28-20.28,10.54Q410.53,314.51,394.44,322.94Z"/><path class="cls-15" d="M357.53,796.38l-.83-.9a31.11,31.11,0,0,1,8.8-4.38A34.28,34.28,0,0,1,357.53,796.38Z"/><path class="cls-8" d="M176.23,357.6a5.22,5.22,0,0,1,.64,3.07A4.71,4.71,0,0,1,176.23,357.6Z"/><path class="cls-3" d="M337.8,577.38c-1.06,3-3.61,4.72-5.57,6.93-6.27,7.07-12.75,14-19.13,20.94-.61.68-1.17,1.29-2.16,1.22-3.35-4.54-7.47-8.39-11.21-12.58-4.73-5.33-9.6-10.52-14.41-15.78l19.88-21.93c1.51-1.66,3-3.38,4.56-5,1.85-1.85,2-1.88,3.85.1,3.43,3.64,6.67,7.45,10.12,11.06C328.46,567.34,332.7,572.77,337.8,577.38Z"/><path class="cls-16" d="M444.83,353.05l-13.05,60.6c-.91,4.22-.95,4.27-4.41,1.5-4.49-3.58-8.91-7.26-13.36-10.9-4.92-.45-7.67-4.08-10.66-7.32a1.37,1.37,0,0,1,.13-1.73c1.78,0,3-1.1,4.16-2.26,4-4,7.61-8.27,11.23-12.57,2.1-2.49,4.51-4.67,6.62-7.15,5.19-6.08,10.63-12,16-17.88A6.52,6.52,0,0,1,444.83,353.05Z"/><path class="cls-17" d="M309.39,378.65a8,8,0,0,1,.74,4.35c0,3.48.05,7,0,10.44,0,2.15.76,3.61,3,4,0,14.3.58,28.63-.15,42.88-.85,16.43-.27,32.83-.62,49.24a22.59,22.59,0,0,1-.23,2.61c0,.16-.34.27-.57.43-1-.72-.66-1.8-.64-2.71.49-22.32-1.17-44.61-.82-66.92.09-5.52.46-11.08-.11-16.54C309,397.17,309.61,387.91,309.39,378.65Z"/><path class="cls-18" d="M403.48,395.2,414,404.25c-1.69.81-3.33,1.67-3.75,3.75-3.82-2.84-6.86-6.54-10.53-9.57-4.81-4-9.13-8.52-13.72-12.76-4.77-4.4-9.63-8.69-14.42-13.08-1.57-1.43-3-3-4.52-4.49-.35-.36-.65-.87-.33-1.35a1.13,1.13,0,0,1,1.67-.23c2,1.45,4,2.93,5.95,4.52Q388.94,383.1,403.48,395.2Z"/><path class="cls-11" d="M270.25,643.61a9.09,9.09,0,0,1,1.73,3.3c1.86,5.05,3.76,10.1,5.62,15.15a21.87,21.87,0,0,1,1,3.22c.62,3.11-.38,4.09-3.36,3.17-3.59-1.11-7.13-2.39-10.68-3.62q-13.68-4.74-27.35-9.48a32.44,32.44,0,0,0-3.65-.91,2,2,0,0,0-2.47,1.2c-13.13-7.3-26.25-14.64-39.4-21.9-13.37-7.38-26.84-14.6-40.16-22.08-5.89-3.3-12.13-6-17.52-10.19-1.07-.82-2.31-1.49-2.89-3.13a8.67,8.67,0,0,1,4.33.74q30.38,10.45,60.76,20.95l23.45,8.1q21.67,7.47,43.35,14.93C265.36,643.86,267.72,645.09,270.25,643.61Z"/><path class="cls-4" d="M1064.69,684a59.77,59.77,0,0,0-19.57-30.13c-15.13-12.46-32.64-17.16-51.95-14.85-17,2-30.73,10.1-40.77,24.15-.37.52-.55,1.5-1.74,1q-.42-10.06-.84-20.2c-.13-3.11-.15-3.21-3.17-3.24-4.27-.06-8.53,0-12.8,0-6.19,0-5.6-.59-5.6,5.72q0,92,0,184c0,.63,0,1.26,0,1.88,0,3.79,0,3.82,3.71,3.85,4.76,0,9.53,0,14.3,0,3.74,0,3.74,0,3.8-3.74,0-.63,0-1.26,0-1.88V751.66c1.47.2,1.7,1.16,2.18,1.83a51.84,51.84,0,0,0,23.4,18.23c13.87,5.61,28.16,5.95,42.48,2.71,21.89-5,37.19-18,45.06-39.15C1069.46,718.43,1069.7,701.22,1064.69,684Zm-24.44,47.4c-7.58,14.93-20.37,22.3-36.73,23.69-10.49.89-20.54-1-29.45-6.91-13.72-9.08-20.7-22-21.23-38.45,0-.75,0-1.5,0-2.25A46.58,46.58,0,0,1,962.77,677c6.65-8.61,15.56-13.69,26.1-15.79a50.49,50.49,0,0,1,31.57,3.46c13.26,6.09,20.94,16.71,23.89,30.83C1046.92,707.91,1046,720,1040.25,731.38Z"/><path class="cls-4" d="M910.92,768.51q0-61.72,0-123.44c0-.88,0-1.76,0-2.63.08-1.73-.66-2.49-2.44-2.48-5.64.06-11.29,0-16.93,0-1.77,0-2.47.76-2.44,2.49.06,2.64.06,5.27,0,7.91-.09,3.92-.25,7.85-.39,11.8-1.14-.13-1.34-.79-1.69-1.28a51.25,51.25,0,0,0-26.17-19.31c-15.15-5.08-30.41-4.69-45.45.22-17.72,5.79-30.61,17.3-38.08,34.5-6.93,16-7.61,32.63-3.94,49.4,3.62,16.55,12.21,30.12,26.53,39.59,14.14,9.36,29.79,12.7,46.58,10.93a55.77,55.77,0,0,0,32.72-14.57c3.16-2.9,5.69-6.3,8.92-10.27.12,1.54.2,2.26.23,3,.18,5.51.33,11,.52,16.52.1,2.7.12,2.77,2.75,2.8,4.64.05,9.28,0,13.93,0C911.28,773.66,910.92,774.28,910.92,768.51ZM881.67,733.4c-7.43,13.65-19.61,20.7-34.91,22.41a49.21,49.21,0,0,1-24.66-3.16c-15.31-6.34-24.49-17.89-27.79-34-2.37-11.59-1.38-23,3.93-33.72,7-14.18,18.69-22.15,34.15-24.86,3-.52,6-.52,9-.78,16.62.2,30.46,6.25,39.24,20.79C891.15,697.46,891.37,715.6,881.67,733.4Z"/><path class="cls-4" d="M1215.81,680.29c-5.63-18.53-17.34-31.32-35.44-38.2-13.84-5.27-28.18-6-42.59-3.57a63.39,63.39,0,0,0-41.94,25.57c-9.55,12.91-13.19,27.71-13.18,43.47a74.1,74.1,0,0,0,2,17.12c5.21,21.9,17.86,37.57,38.9,46a78.45,78.45,0,0,0,36.51,4.92,85.41,85.41,0,0,0,32.64-9.38,61.24,61.24,0,0,0,15.87-11.9c2-2.06,2-2.38,0-4.25-3.75-3.5-7.66-6.84-11.41-10.35-1.26-1.19-2.09-.9-3.08.21a30.14,30.14,0,0,1-7.9,6.32c-15.82,8.8-32.55,11.69-50,6.21-15.89-5-26.29-15.61-29.92-32.22-1-4.41-.91-4.45,3.51-4.45q26.16,0,52.31,0,26.34,0,52.69,0c3.59,0,3.84-.12,3.93-3.39C1219,701.55,1219,690.81,1215.81,680.29Zm-22.36,16.62q-21.06,0-42.13,0h-39.87c-.88,0-1.76,0-2.63,0-3.13-.09-3.32-.3-2.74-3.22a42.72,42.72,0,0,1,7.34-17.15c8.87-12.14,21.07-18.13,36-18.75,6.91-.28,13.75.1,20.43,2.25,16.09,5.17,25.08,17.1,27,33.61C1197.13,696.71,1196.9,696.91,1193.45,696.91Z"/><path class="cls-5" d="M283.81,340.28a4.77,4.77,0,0,1,2.95.73A5,5,0,0,1,283.81,340.28Z"/><polygon class="cls-3" points="364.31 789.79 325.9 705.82 285.77 682.6 232.67 745.33 196.49 795.7 295.28 829.8 364.95 791.37 364.31 789.79"/></g></svg>