<svg id="Layer_1" data-name="Layer 1" xmlns="http://www.w3.org/2000/svg" viewBox="0 0 1860 1160"><defs><style>.cls-1{fill:#848484;}</style></defs><title>art05-gd</title><g id="RzxtkA"><path class="cls-1" d="M1249.42,748.29h-40.63c-.09-2-.24-3.88-.24-5.72q0-45.63,0-91.24a16.12,16.12,0,0,0-.07-3.48,15.93,15.93,0,0,0-1.43-3.16c-.89.78-2.07,1.39-2.61,2.37-4.75,8.46-9.3,17-14.09,25.49s-9.9,16.64-14.62,25.09c-5,9-9.57,18.21-14.63,27.16-4.19,7.43-8.76,14.64-13.33,21.85a4.59,4.59,0,0,1-3.28,1.78c-12.37.13-24.74.16-37.1,0-1.25,0-2.92-1.37-3.63-2.56q-7.93-13.27-15.52-26.75c-3-5.25-5.55-10.7-8.45-16-5.36-9.77-10.88-19.46-16.23-29.24-5-9.05-9.74-18.2-14.71-27.26-.52-1-1.76-1.52-3.58-3V748.19h-41.43V613.51c1.78-.09,3.47-.26,5.16-.26,19.21,0,38.43.45,57.62-.26,6.76-.25,9.51,3,12.05,7.76,6,11.07,11.8,22.21,17.71,33.31,4.36,8.2,8.72,16.41,13.15,24.58q7.76,14.26,15.64,28.46c1.29,2.32,2.78,1.78,3.88-.21,3.35-6,6.63-12,9.91-18.09q5.21-9.6,10.35-19.21c3-5.56,5.89-11.15,8.89-16.69,4.91-9,9.89-18,14.81-27,1.85-3.39,3.41-7,5.57-10.15a6.36,6.36,0,0,1,4.51-2.37c21-.15,41.91-.07,62.86-.15,2.71,0,3.89.67,3.88,3.64q-.12,64.62-.08,129.22A18.81,18.81,0,0,1,1249.42,748.29Z"/><path class="cls-1" d="M310.74,411.82c0,9.59-.06,18.6,0,27.61,0,2.51-1.15,3.38-3.39,3.4H303.9q-53.7,0-107.38,0c-12.93,0-23.8,5.12-31.13,15.58-7.77,11.09-8.6,23.29-2.73,36,6.89,14.88,19.64,19.8,34.44,20.19,22.24.59,44.52.16,66.78.14a18.39,18.39,0,0,0,2.31-.38c0-7,.12-14.11-.18-21.17,0-.72-2.58-1.89-4-1.91-12.94-.15-25.89-.09-38.84-.09h-5.31V463.69h92.52v83.1h-4.66c-40.45,0-80.9.09-121.34-.06-11.21-.05-21.54-3.8-31.83-8.14-11.47-4.83-19.83-13.2-27-22.55a49.14,49.14,0,0,1-10-27.65c-.48-10.58-1.27-21.38,2.62-31.49a68.78,68.78,0,0,1,9-16.33c4.12-5.52,9.19-10.39,14.22-15.15a32.16,32.16,0,0,1,9-5.78c10.61-4.69,21.51-8.21,33.39-8.17,40.88.13,81.76,0,122.65.06C307.7,411.53,309,411.7,310.74,411.82Z"/><path class="cls-1" d="M115.22,748.51v-5c0-41.6.07-83.2-.1-124.8,0-4.45,1.2-5.57,5.59-5.56q63.27.25,126.55.05a71.49,71.49,0,0,1,38.44,11.23,64.28,64.28,0,0,1,24.78,27.46c7.83,16.26,7.69,32.8,3.32,49.41-1.79,6.81-6,13.3-10.19,19.12-10.3,14.14-24.42,22.69-41.74,25.55-7,1.16-14.18,2.4-21.28,2.44-39.85.23-79.71.11-119.56.11ZM159.58,716c1.24.12,2.08.27,2.93.27q35.33,0,70.65,0a71.44,71.44,0,0,0,8.24-.74,35.78,35.78,0,0,0,18.83-8.06c4.88-4.06,7.93-9.48,10.13-15.7,4.29-12.12,1.95-23.08-5.36-32.7-7.57-9.93-18.55-14.38-31-14.44-23.41-.12-46.81,0-70.22,0-1.37,0-2.75.13-4.16.21Z"/><path class="cls-1" d="M1666.94,613.24c22.55,0,45.1.09,67.65-.08,3.94,0,5.38,1,5.19,5.09-.32,6.68-.3,13.39,0,20.07.18,3.89-1.13,4.91-4.94,4.89q-48.22-.21-96.46-.05c-8.7,0-17.4.37-26.09.73-4.74.2-5.8,4-6.15,7.63-.38,3.91-.2,8.25,4.45,9.78a34,34,0,0,0,10.21,1.65c25.17.13,50.35.32,75.51-.06a57.77,57.77,0,0,1,26.28,5.74c7.18,3.47,12.75,9.31,16.82,16.49,6,10.58,6.91,21.79,3.55,33.06a38.19,38.19,0,0,1-14.43,20.64c-10.06,7.26-21.07,9.79-33.2,9.75q-62.86-.23-125.71,0c-4.06,0-5.69-.84-5.45-5.23.38-6.82.3-13.68,0-20.51-.15-3.7,1.14-4.64,4.71-4.63q58,.16,116.1,0a30.34,30.34,0,0,0,9.9-2c4.52-1.63,6.32-6,5.51-11.83-.46-3.33-4.11-6.71-8.05-7.2a80.12,80.12,0,0,0-9.53-.73c-26.19-.06-52.38-.28-78.56.1a42.32,42.32,0,0,1-24.74-7.59A38,38,0,0,1,1565.69,672c-3.51-8.35-5.67-16.81-3.19-25.59s6-16.85,13.57-23.13c9.12-7.58,19.06-10.35,30.64-10.14C1626.78,613.51,1646.86,613.24,1666.94,613.24Z"/><path class="cls-1" d="M930.45,411.51h6.09c41.6,0,83.21.07,124.81-.06,11.38,0,22.33,2.13,32,7.76,13.06,7.61,21.47,18.9,21.67,34.79a72.85,72.85,0,0,1-1.08,15.57A31.08,31.08,0,0,1,1099,490.72c-6.47,3.79-13.47,6.68-20.84,10.27l34,45.42h-49.47c-6.68-9.2-13.54-18.61-20.35-28.07-2.48-3.46-4.5-7.3-7.32-10.43-1.65-1.82-4.43-3.63-6.74-3.68-16.58-.3-33.16-.09-49.74-.22-3.11,0-4,1-3.94,4,.14,11.05.05,22.11.05,33.16v5.34H930.45Zm44.62,29.85c0,9.77.16,19.07-.08,28.36-.09,3.77,1,5,4.87,4.94,21.81-.18,43.62-.22,65.43,0a35.12,35.12,0,0,0,17.18-3.79c6.44-3.39,9.34-12.47,6.54-19.05-3.44-8.09-9.82-10.74-18-10.72-24,.06-48,0-72,0C977.87,441.13,976.73,441.26,975.07,441.36Z"/><path class="cls-1" d="M588.51,653.25v94.94H547c-.13-2.58-.37-5.15-.37-7.72,0-40.74,0-81.47-.08-122.2,0-4,1.11-5.17,5.12-5.13,17.46.21,34.92.18,52.37,0,3.53,0,6,.68,7.73,4,1.1,2,3.35,3.45,5,5.19,5.23,5.41,10.51,10.78,15.63,16.29,5.25,5.66,10.34,11.47,15.48,17.23,2.48,2.77,4.86,5.62,7.37,8.36q11.22,12.32,22.51,24.57,5.36,5.82,10.88,11.49a3.57,3.57,0,0,0,2.57.91c.45,0,1-1.25,1.13-2a20.17,20.17,0,0,0,.08-3.48c0-25.75.1-51.5-.09-77.25,0-4.22,1.15-5.48,5.37-5.35,9.59.3,19.2.08,28.8.1,1.57,0,3.13.14,4.94.22V748.25c-1.26.09-2.38.25-3.5.25-15.28,0-30.55.09-45.82-.09a7.75,7.75,0,0,1-4.88-2.39q-14.44-15-28.61-30.37c-6.8-7.33-13.46-14.79-20.2-22.17-2.11-2.31-4.3-4.57-6.45-6.86L602.41,665.8c-2.93-3.11-5.78-6.32-8.83-9.32C592.42,655.34,590.79,654.67,588.51,653.25Z"/><path class="cls-1" d="M527,411.76c1.9-.09,3.6-.23,5.3-.23,18.92,0,37.85.43,56.74-.24,7.07-.25,10.28,3.61,14,8,3.21,3.75,6.58,7.35,9.87,11,2.28,2.55,4.57,5.09,6.79,7.69,6.18,7.25,12.36,14.49,18.46,21.8,7,8.41,14,16.91,21,25.34,4,4.81,8.08,9.58,12.24,14.27.41.46,1.61.24,2.85.38v-87.7a27.63,27.63,0,0,1,3.62-.51c10.92,0,21.83.06,32.74-.08,3.11-.05,3.94,1.12,3.94,4.07q-.1,63.72-.06,127.46c0,1.12-.23,2.24-.4,3.79H697.82c-9.32,0-18.67-.55-27.92.19-6.28.5-9.78-2.33-13.35-6.59-6.88-8.19-14.15-16-21.06-24.21-5.18-6.11-9.93-12.59-15.07-18.74-2.72-3.24-5.91-6.08-8.81-9.18-2.32-2.48-4.64-5-6.77-7.63-5-6.23-9.78-12.66-14.93-18.77-5.57-6.62-11.43-13-17.28-19.4-.75-.82-2.17-1-4-1.86V546.51H527Z"/><path class="cls-1" d="M497.42,463.23v27.6c-1.83.12-3.65.34-5.47.34-33.76,0-67.52.1-101.28-.1-4.59,0-5.84,1.43-5.49,5.72.34,4,.07,8.14.08,12.21,0,5.76,0,5.76,5.6,5.76H497.27v32H492.7c-48.6,0-97.2-.06-145.81.09-4.25,0-5.3-1.24-5.29-5.38.15-41.61.09-83.23.09-124.85v-4.73h155.9c0,9.62.09,19.17-.17,28.71,0,.77-2.41,2.1-3.72,2.12-12.36.16-24.73.09-37.1.09H385.66v20.39Z"/><path class="cls-1" d="M900.94,411.5v31.19H789.66v20.52H900.82V490.9c-2,.1-4,.29-5.94.29-33.46,0-66.93.06-100.4-.11-4.26,0-5.53,1.3-5.29,5.46.33,5.79.08,11.61.08,18H900.85v32H746c-.1-1.61-.25-3-.25-4.42,0-41.76,0-83.52-.1-125.29,0-4.1.94-5.44,5.27-5.43,48.31.15,96.62.09,144.93.08Z"/><path class="cls-1" d="M1367.05,546.79c-17,0-33.39.07-49.83-.06-4.28,0-5.21-4.39-7.13-7-4.38-6-8-12.49-12.11-18.64-.53-.79-2.31-1-3.51-1-33.62-.06-67.24,0-100.86-.06-5.12,0-5.54,4.8-7.49,7.6-3.82,5.47-6.6,11.67-10.06,17.42a4.8,4.8,0,0,1-3.58,1.7c-15.42.11-30.84.07-47.53.07,2.41-3.64,4.36-6.57,6.31-9.5,5.42-8.17,10.92-16.29,16.25-24.51,4.87-7.51,9.49-15.18,14.36-22.69,5.35-8.24,10.85-16.39,16.32-24.56,5.71-8.51,11.55-16.92,17.17-25.49q6.9-10.51,13.4-21.31c3-5,6.48-7.64,13-7.4,16.72.6,33.49.65,50.2,0,6.89-.28,9.66,3.42,12.66,8.07,3.39,5.24,6.92,10.39,10.33,15.62,2.42,3.72,4.68,7.53,7.1,11.26,4.1,6.33,8.33,12.57,12.4,18.93,4.69,7.35,9.11,14.87,13.91,22.15,4.46,6.75,9.3,13.25,13.89,19.92,2.27,3.3,4.34,6.74,6.53,10.1,5.91,9.1,11.85,18.19,17.74,27.3A8.51,8.51,0,0,1,1367.05,546.79ZM1279.16,489a12.46,12.46,0,0,0-.85-2.58c-2.7-4-5.63-7.9-8.17-12C1265,466,1260,457.43,1254.91,449c-2.39-4-4.77-7.93-7.44-11.7-1.69-2.38-3.6-3.14-5.55.22-2.86,5-6.1,9.7-9.14,14.55-2.81,4.51-5.56,9.05-8.36,13.56-4.71,7.57-9.44,15.13-14.57,23.34Z"/><path class="cls-1" d="M987.48,748.51h-15.7c-9.89,0-19.82-.46-29.67.18-5.9.38-8.85-2-11.49-6.72-3.68-6.55-7.82-12.84-12-19.06-.63-.92-2.78-1.14-4.23-1.14q-42.35-.09-84.68,0c-4.36,0-8.75.27-13.09-.07s-6.81,1.19-8.87,5.13c-3.83,7.31-8.36,14.24-12.73,21.55H746.08c1.46-2.75,2.61-5.3,4.11-7.63,5.35-8.29,10.79-16.51,16.26-24.73,6.88-10.34,13.89-20.6,20.71-31,3.36-5.13,6.3-10.53,9.64-15.67,2.89-4.42,6.21-8.55,9.09-13,5-7.69,9.8-15.54,14.76-23.27,3.78-5.9,7.6-11.78,11.65-17.5a5.91,5.91,0,0,1,4.14-2.23q30.33-.21,60.67,0a5.3,5.3,0,0,1,3.87,1.93c6.94,10.67,13.57,21.53,20.54,32.18,4.52,6.88,9.55,13.43,14.18,20.24,2.82,4.16,5.21,8.6,8,12.81,5,7.6,10.15,15.09,15.15,22.69,3,4.57,5.71,9.31,8.72,13.87,4.75,7.2,9.71,14.27,14.42,21.5C983.86,741.47,985.37,744.67,987.48,748.51ZM900,690.6c-3.86-6.33-7.3-12.1-10.88-17.77-7.11-11.27-14.32-22.48-21.46-33.73-1.85-2.92-4.21-2.91-5.9,0-2.71,4.76-5.39,9.54-8.18,14.25-2.49,4.21-5,8.4-7.67,12.5-4.5,7-9.16,13.82-13.64,20.79-.65,1-.66,2.39-1,3.91Z"/><path class="cls-1" d="M1534.47,644.57h-5.75c-32.3,0-64.59.06-96.89,0a37.9,37.9,0,0,0-28.84,12.6c-8.25,9.16-10.62,21.05-7.21,33.29a32.88,32.88,0,0,0,14.08,19.15c8.23,5.49,17.09,6.81,26.38,6.86,30.84.14,61.68,0,92.53,0h5.4v32h-4.63q-54.78,0-109.55,0c-10.13,0-19.9-2.68-28.93-6.45a67.49,67.49,0,0,1-32.14-28,57.68,57.68,0,0,1-8.36-31.38c.21-8.87,1.24-18.11,4.09-26.44,3.75-10.94,10.91-20,20.41-27.25,13.54-10.32,28.48-15.78,45.5-15.76q54.12.07,108.24,0c5.66,0,5.67,0,5.67,5.72C1534.48,627.36,1534.47,635.74,1534.47,644.57Z"/><path class="cls-1" d="M313.61,613.24h30c6.69,0,13.39-.28,20.06.12,2.65.15,5.89,1.1,7.69,2.88,11.78,11.62,23.16,23.63,34.83,35.37,4.92,4.93,10.09,9.64,15.46,14.07.83.69,3.84,0,4.94-1.09,5.72-5.34,11.14-11,16.67-16.53l20.92-20.86c4.15-4.13,8.19-8.38,12.47-12.36a7,7,0,0,1,4.37-1.52c15.27-.1,30.55-.06,45.82,0a15.58,15.58,0,0,1,2.31.48c-3.34,3.64-6.17,7-9.26,10-7.5,7.47-15.14,14.82-22.7,22.24-4.88,4.8-9.75,9.6-14.57,14.46s-9.57,9.9-14.42,14.77-10,9.75-14.94,14.65a133.22,133.22,0,0,0-9.34,9.53,9.84,9.84,0,0,0-1.87,5.8c-.16,12.5-.07,25-.06,37.52v5.73H428.17c-8.44,0-16.88-.14-25.31.07-3.39.09-4.54-.87-4.49-4.4.2-12.94,0-25.89.12-38.84,0-3.79-1.36-6.18-4.35-8.74-5.19-4.44-9.5-9.89-14.29-14.81-5.07-5.2-10.28-10.28-15.42-15.41q-7-7-13.95-14c-5.23-5.23-10.48-10.45-15.66-15.73-4.9-5-9.59-10.19-14.65-15-2.47-2.34-5.59-4-8.41-6Z"/><path class="cls-1" d="M1538.34,514.76v31.69H1382.91V411.84c1.49-.11,3-.31,4.56-.31,11.34,0,22.69.17,34-.11,4.29-.1,5.7.95,5.67,5.51-.21,30.69-.11,61.38-.1,92.07,0,5.75,0,5.76,5.6,5.76h105.67Z"/><path class="cls-1" d="M1281.26,748.29c-.09-1.79-.23-3.35-.23-4.9q0-62.16,0-124.33c0-5.8,0-5.81,5.59-5.81h38v5.14c0,41.59,0,83.18.09,124.77,0,4-.82,5.59-5.22,5.47-11.18-.32-22.39-.1-33.58-.12C1284.45,748.5,1283,748.38,1281.26,748.29Z"/></g></svg>