<svg id="Layer_1" data-name="Layer 1" xmlns="http://www.w3.org/2000/svg" xmlns:xlink="http://www.w3.org/1999/xlink" viewBox="0 0 1860 1160"><defs><style>.cls-1{fill:none;}.cls-2{clip-path:url(#clip-path);}.cls-3{fill:#999;}.cls-4{fill:#898989;}.cls-5{fill:#7a7a7a;}.cls-6{fill:#848484;}</style><clipPath id="clip-path"><rect class="cls-1" x="279.85" y="217" width="1300.3" height="726"/></clipPath></defs><title>art16-rsk</title><g id="RSK"><g class="cls-2"><g class="cls-2"><path class="cls-3" d="M466.81,249h0c45.11,41.38,69.43,82,70.95,120.18q.27,53.27-57.59,103.27v-95.2a13.4,13.4,0,0,0-13.39-13.39Z"/><path class="cls-4" d="M466.82,363.83a13.39,13.39,0,0,0-13.37,13.39v95.2q-57.85-50-57.59-103.27c1.52-38.16,25.82-78.8,70.95-120.18Z"/><path class="cls-3" d="M715.64,590.05a12.51,12.51,0,0,0-7.89-5.63c-4.22-.89-7-.43-10.18,1.56l-11.42,7.14c14.06-40.52,53.07-30.31,69.2-26.5Z"/><path class="cls-4" d="M755.35,566.62c-4.46,16-14.38,55-56.64,47.78l11.77-6.57c3.31-1.87,5-4,6.29-8.16a11.32,11.32,0,0,0-1.13-9.62Z"/><path class="cls-5" d="M774.49,544.27s-49.42-18.65-82.46-.65c-19.23,10.49-33,32-37.06,66L638.74,619a43.84,43.84,0,0,0-58,.12h-.1l-71.12-41.07a44.8,44.8,0,0,0,1.1-9.83,43.93,43.93,0,0,0-30.49-41.82V507.52l6.46-4.83h0q81.15-64.11,78.48-134.15-.92-71.55-89.23-148.06a13.87,13.87,0,0,0-7.78-3.48h-2.57a13.79,13.79,0,0,0-7.76,3.48q-88.3,76.5-89.25,148.06-2.73,70.05,78.5,134.15l6.43,4.81v18.88a43.94,43.94,0,0,0-30.57,41.84,43.39,43.39,0,0,0,1.14,9.86l-71.13,41.07a43.91,43.91,0,1,0-42.3,74.76v81.37A43.9,43.9,0,1,0,354,849l70,40.38a44.45,44.45,0,0,0-1.07,9.65,43.91,43.91,0,1,0,86.75-9.62l70-40.39A43.9,43.9,0,1,0,623,775.29V693.91a43.9,43.9,0,0,0,29.55-52l15.15-8.84c32.4,13.52,58.4,12,77.16,0,31.73-20.23,39.28-72.51,39.28-72.51,1.6-6.48-3.91-14.84-9.65-16.35M567,642.1a43.85,43.85,0,0,0-1.13,9.92,44.39,44.39,0,0,0,.84,8.6l-70.32,40.59a43.83,43.83,0,0,0-16.2-9.39V610a43.84,43.84,0,0,0,15.71-9Zm-80.49,91.53a19.74,19.74,0,1,1-19.73-19.75,19.77,19.77,0,0,1,19.73,19.75M395.82,369.15c1.51-38.16,25.81-78.8,70.94-120.18h.05c45.11,41.38,69.43,82,70.94,120.18q.29,53.27-57.59,103.27v-95.2a13.38,13.38,0,1,0-26.75,0v95.2q-57.87-50-57.59-103.27m70.93,179.33A19.74,19.74,0,1,1,447,568.22a19.75,19.75,0,0,1,19.74-19.74m-29.1,52.6a43.73,43.73,0,0,0,15.76,9v81.74a43.79,43.79,0,0,0-16.26,9.42L366.81,660.6a42.61,42.61,0,0,0,.85-8.58,44.16,44.16,0,0,0-1.12-9.89ZM304,652a19.74,19.74,0,1,1,19.74,19.74A19.78,19.78,0,0,1,304,652M323.75,836.9a19.75,19.75,0,1,1,19.74-19.74,19.76,19.76,0,0,1-19.74,19.74m28.94-52.74a43.63,43.63,0,0,0-15.39-8.77V693.78A44,44,0,0,0,353.83,684l70,40.39a45.32,45.32,0,0,0-1,9.24,44.52,44.52,0,0,0,1,9.43Zm14.17,41.39a44.09,44.09,0,0,0-.37-18.45l70.82-40.9a43.77,43.77,0,0,0,16.1,9.25V857.2a43.73,43.73,0,0,0-15.94,9.13Zm99.89,93.23A19.75,19.75,0,1,1,486.48,899a19.77,19.77,0,0,1-19.73,19.74m99.9-93.2-70.59,40.76a44,44,0,0,0-15.9-9.12V775.43a43.92,43.92,0,0,0,16-9.25L567,807.05a44.33,44.33,0,0,0-1.17,10.11,43.24,43.24,0,0,0,.81,8.42m-57-82.55a44.28,44.28,0,0,0,0-18.62l70-40.41a43.58,43.58,0,0,0,16.57,9.8v81.57a43.89,43.89,0,0,0-15.44,8.77Zm119.84,74.13a19.74,19.74,0,1,1-19.74-19.75,19.76,19.76,0,0,1,19.74,19.75m-19.65-145.4A19.75,19.75,0,1,1,629.57,652a19.76,19.76,0,0,1-19.74,19.74m88.83-57.36,11.78-6.57c3.3-1.87,5-4,6.29-8.16,2.45-7.5-3.1-14-9-15.25-4.23-.89-7-.43-10.18,1.56l-11.43,7.13c14.06-40.51,53.08-30.3,69.2-26.48-4.45,16-14.38,55-56.64,47.77"/><path class="cls-6" d="M858.73,822.43v-279L916,536.37l8.85,43.73q28.11-45,81.46-45a129.53,129.53,0,0,1,18.22,1l-1,57a144.19,144.19,0,0,0-21.6-1.56q-37.74,0-56.35,20T926.92,667.3V822.43Z"/><path class="cls-6" d="M1155.16,827.63q-63.26,0-101.25-21.61l7-51.27q17.19,9.36,43.73,16.79t48.42,7.42q22.65,0,35.26-8.47t12.89-24.85q0-14.85-11.84-23.43t-45.17-21.34q-11.45-4.17-14.83-5.47-39.56-15.36-57-34.23T1054.94,610q0-39,28.25-59.87t78.73-20.82q54.66,0,96,20.55L1241.05,597q-40.87-19-77.83-19-20.57,0-32.15,6.9t-11.58,21q0,13.27,11.2,20.7t43.73,19.38q1,.27,6.77,2.35t8.85,3.38q39.3,14.33,57.78,34.23t18.48,51.92q-.25,42.95-29.15,66.38T1155.16,827.63Z"/><polygon class="cls-6" points="1456.26 659.51 1572.89 536.35 1491.67 536.35 1375.32 656.19 1375.32 443.07 1307.12 455.77 1307.14 822.41 1375.32 822.41 1375.33 822.41 1375.33 744.99 1412.95 705.26 1497.93 822.4 1580.44 822.4 1456.26 659.51"/></g></g></g></svg>