<svg id="Layer_1" data-name="Layer 1" xmlns="http://www.w3.org/2000/svg" xmlns:xlink="http://www.w3.org/1999/xlink" viewBox="0 0 1860 1160"><defs><style>.cls-1{fill:none;}.cls-2{clip-path:url(#clip-path);}.cls-3{fill:#848484;}.cls-4{fill:#a5a5a5;}</style><clipPath id="clip-path"><rect class="cls-1" x="238.31" y="157.03" width="1383.39" height="845.95"/></clipPath></defs><title>art14-provable</title><g id="Provable"><g class="cls-2"><g class="cls-2"><path class="cls-3" d="M925.51,689c-146.65,0-266-119.32-266-266a264.88,264.88,0,0,1,43.52-145.84,13.27,13.27,0,1,1,22.18,14.57A238.42,238.42,0,0,0,686.09,423c0,132,107.41,239.43,239.42,239.43a13.28,13.28,0,1,1,0,26.55"/><path class="cls-3" d="M1015,672.66a13.28,13.28,0,0,1-4.7-25.69c92.48-35,154.62-125,154.62-224a242.35,242.35,0,0,0-2.11-31.91,13.27,13.27,0,1,1,26.31-3.51,268.19,268.19,0,0,1,2.34,35.42,266,266,0,0,1-171.76,248.8,13.19,13.19,0,0,1-4.7.87"/><path class="cls-3" d="M1155.53,331.47a13.27,13.27,0,0,1-12.08-7.77A240.16,240.16,0,0,0,925.51,183.57a236.78,236.78,0,0,0-149.62,52.51,13.27,13.27,0,0,1-16.6-20.72,266.06,266.06,0,0,1,408.31,97.32,13.28,13.28,0,0,1-12.07,18.79"/><path class="cls-3" d="M925.51,619.77a196.91,196.91,0,0,1-94.78-24.3,13.27,13.27,0,1,1,12.8-23.25,170.36,170.36,0,0,0,82,21c93.86,0,170.23-76.36,170.23-170.23a170.19,170.19,0,0,0-89.36-149.82A13.27,13.27,0,1,1,1019,249.82,196.72,196.72,0,0,1,1122.29,423c0,108.5-88.28,196.78-196.78,196.78"/><path class="cls-3" d="M780.63,548.87a13.26,13.26,0,0,1-10.49-5.12A194.88,194.88,0,0,1,728.75,423c0-108.5,88.27-196.76,196.76-196.76a13.27,13.27,0,1,1,0,26.54c-93.86,0-170.22,76.36-170.22,170.22a168.58,168.58,0,0,0,35.8,104.46,13.27,13.27,0,0,1-10.46,21.42"/><path class="cls-4" d="M925.51,550.36A127.37,127.37,0,1,1,1052.87,423,127.51,127.51,0,0,1,925.51,550.36m0-225.2A97.84,97.84,0,1,0,1023.35,423a97.95,97.95,0,0,0-97.84-97.83"/><path class="cls-3" d="M788,231.92a26.07,26.07,0,1,1-26.07-26.07A26.07,26.07,0,0,1,788,231.92"/><path class="cls-3" d="M961.55,675.69a26.07,26.07,0,1,1-26.07-26.07,26.07,26.07,0,0,1,26.07,26.07"/><path class="cls-3" d="M1200.45,387.55a26.07,26.07,0,1,1-26.07-26.07,26.07,26.07,0,0,1,26.07,26.07"/><path class="cls-3" d="M1032.65,258a26.07,26.07,0,1,1-26.07-26.07A26.07,26.07,0,0,1,1032.65,258"/><path class="cls-3" d="M805.54,535.6a26.07,26.07,0,1,1-26.07-26.07,26.07,26.07,0,0,1,26.07,26.07"/><path class="cls-3" d="M1145.71,857.07c2.55-2.57,5-5.3,7.69-7.68,25.56-22.39,78.15-15.56,93.12,23.92,10.36,27.36,11,55.44-.48,82.79-11.11,26.47-32.68,39.4-60.22,43.54-22.11,3.32-43.73.43-65.17-5.22-4.81-1.26-6.67-3.19-6.66-8.56.22-68.74.15-137.48.15-206.22,0-6.89,0-6.67,7-7.16a133.08,133.08,0,0,1,18.41.22c3.77.26,5,1.54,5,5.45-.18,24.09-.09,48.17-.09,72.26v6.19Zm-.86,75.23c0,13.34.11,24.41-.06,35.48,0,3,1,4.29,3.88,5.09a70.94,70.94,0,0,0,32.86,1.19c15.39-2.95,27.84-10.8,34.09-25.41,9.46-22.12,8.85-44.79.19-67.15a25.76,25.76,0,0,0-9.31-11.87c-20.3-14.14-57-5.94-61,27C1144,909.27,1145.31,921.94,1144.85,932.3Z"/><path class="cls-3" d="M344.49,886.72c0-34.12.13-68.25-.13-102.37,0-5.48,1.1-7.29,7-7.81,20.52-1.81,41-3.77,61.58-1.78,12.85,1.25,25.38,4,36.59,10.81,17.55,10.61,26.74,26.75,28.71,46.71,1.65,16.72,1,33.44-7,48.91-9.85,19.08-26.55,28.83-46.59,34-14.51,3.72-29.29,3.42-44.05,2.74-3.94-.19-4.63.8-4.61,4.42.15,22.86,0,45.73.18,68.6,0,4.22-1.05,5.87-5.35,6.15a195.54,195.54,0,0,1-20.54.46c-4.11-.16-5.93-1.5-5.89-6.32C344.61,956.38,344.49,921.55,344.49,886.72Zm31.53-41c0,13.53.07,27.06,0,40.6,0,2.89.48,4.53,3.83,4.84,11.44,1.08,22.82,1,34.06-1.46,12.83-2.76,23.11-9.19,28.85-21.49,5.1-10.94,5.59-22.67,3.52-34.1-3-16.6-12.49-27.72-30-31.18-12.41-2.46-24.8-1.89-37.26-1.59-3.31.08-3,2.19-3,4.31Z"/><path class="cls-3" d="M1461.49,926.7c-16.18,0-32.36.12-48.54-.08-3.78,0-4.87,1.11-4.53,4.78.67,7,1.84,13.91,4.57,20.47,6.33,15.24,18.87,21.5,34.22,23.5a105,105,0,0,0,48.75-5.49c3.44-1.21,4.61-.36,5.68,2.78a100.52,100.52,0,0,1,3.82,15.85c.51,3-.22,4.83-3.43,5.88-26.49,8.66-53.26,9.68-79.78,1.21-22.14-7.07-36.36-22.69-42.43-45.25-6.69-24.85-6.1-49.53,4.36-73.21,11.32-25.63,32.09-38.13,59.64-40,16.82-1.13,32.57,1.94,46.24,12.45,16,12.3,22.65,29.49,24.93,48.78a119.23,119.23,0,0,1,.14,23.67c-.29,3.62-1.49,4.76-5.11,4.73C1493.84,926.61,1477.67,926.7,1461.49,926.7Zm-13.83-22.94c11.26,0,22.52,0,33.78,0,1.68,0,3.84.91,4.3-2.29,1.64-11.24-8.26-30.34-18.75-35.69-26.32-13.44-56.48,4.63-57.59,34.38-.12,3.39,1.29,3.7,4,3.68C1424.79,903.71,1436.23,903.76,1447.66,903.76Z"/><path class="cls-3" d="M760.89,917.6c-.39,19.12-2.76,36.28-12.34,51.54-12.65,20.14-31.44,29.93-54.81,31.48-22.93,1.53-43.08-4.64-59.18-21.77-11.48-12.21-16.25-27.32-18.5-43.37-2.59-18.54-1.5-37,5.11-54.54,9.81-26.08,29.14-40.63,56.75-43.84,20.45-2.37,39.5,1.28,56.05,14.52,17.46,14,24.09,33.1,26.32,54.37C760.75,910.35,760.75,914.76,760.89,917.6ZM729,919.72c-.1-6.49,0-13-1.27-19.41-2.13-11.19-5.15-22.12-14.18-29.83-19.75-16.88-51.86-9.16-60.85,15.17-8.35,22.63-8,45.89.34,68.56,5.84,15.78,17.31,22.61,35,22.57,17.43,0,29.29-7.73,35.48-23C727.93,942.86,729.23,931.41,729,919.72Z"/><path class="cls-3" d="M1069.23,937.41c0,16.88-.06,33.76,0,50.64,0,3.22-.48,5-4.25,5.76-20.89,4-41.76,8.08-63.21,6.67-11.69-.76-22.9-3.42-33.3-9-15.78-8.46-24.12-26.55-21.81-46.19,2.65-22.39,15.93-35.52,36.3-42.7,16.69-5.88,34-4.78,51.13-3.65,3.49.23,4.84.32,5-3.84.83-20.37-8.27-31-28.56-32.75a105.9,105.9,0,0,0-40.09,4.35c-4.22,1.27-6-.07-7.34-3.82A57.18,57.18,0,0,1,959.79,847c-.15-2.68.92-3.79,3.27-4.4,22.7-5.82,45.55-8.62,68.73-3,22.39,5.4,35.56,22,36.85,46.15C1069.56,902.94,1069.14,920.18,1069.23,937.41ZM1039,948.64c0-7,0-14.06,0-21.1,0-1.59.72-3.67-2.07-4-14.68-1.72-29.38-3.55-43.68,2.08C982,930.07,976,940.07,977.05,952.41s7.36,20.5,18.45,22.6c13.25,2.5,26.57,1.63,39.81-.69,3-.53,3.85-2.16,3.76-5.11C1038.86,962.36,1039,955.5,1039,948.64Z"/><path class="cls-3" d="M775.71,840.68a104.56,104.56,0,0,1,31-.44c2.95.39,2.9,2.63,3.53,4.51q14.14,42.46,28.25,84.93c4.31,13,8.6,26,13.25,40,6-18,11.73-34.88,17.39-51.81,8.13-24.3,16.3-48.59,24.28-72.94,1.07-3.28,2.54-4.59,6.12-5,8.3-1,16.46-.49,24.7.37,4.45.46,1.8,2.84,1.24,4.3q-9.81,25.56-19.82,51C893,928,880.31,960.35,867.81,992.78c-1.35,3.5-3.18,4.71-6.86,4.93-7,.43-14,.91-21-.1-2.25-.33-3.81-.76-4.76-3.21q-29.57-76.08-59.26-152.1A6.89,6.89,0,0,1,775.71,840.68Z"/><path class="cls-3" d="M1294.34,870.39c0-30.24.15-60.49-.14-90.73,0-5.39,1.69-7,6.73-7.3a143.62,143.62,0,0,1,17.36.12c4.44.24,5.81,1.8,5.79,6.41-.17,56.27-.11,112.54-.11,168.82,0,5.46.21,10.9,2,16.12,2.7,7.88,6.14,10.48,14.27,10.78,2.28.09,4.57,0,6.85-.08,8.72-.47,8.74-.5,10,8,.31,2.08.5,4.19.67,6.28.74,9.22.16,9.91-9,10.52a114.31,114.31,0,0,1-25.74-1.08c-16.73-2.68-28.14-16.94-28.66-36.55-.35-13.18-.11-26.37-.12-39.56Q1294.32,896.24,1294.34,870.39Z"/><path class="cls-3" d="M544.14,863.71c3.89-4.64,7.23-8.85,11.28-12.44,11-9.75,24-12.66,38.21-11.39,1.9.17,3.94.19,4.1,3,.41,7,.78,14-.37,21-.39,2.39-1,3.44-4,3A48.57,48.57,0,0,0,575,868.16c-16.84,4.18-27.3,17.48-28.95,37.14-2.16,25.79-.45,51.65-1,77.47,0,.71,0,1.41,0,2.11,0,12,0,11.94-12.36,12.63-5.15.29-10.15-.67-15.22-1-2.25-.14-3.19-1-3-3.22.08-1,0-2.11,0-3.16,0-47.83.09-95.65-.14-143.47,0-5.07,1.45-6.64,6.24-6.91a84.18,84.18,0,0,1,16.26.2c3.5.46,4.42,2.09,4.79,4.9C542.5,850.9,543.27,856.93,544.14,863.71Z"/></g></g></g></svg>