<svg id="Layer_1" data-name="Layer 1" xmlns="http://www.w3.org/2000/svg" viewBox="0 0 1860 1160"><defs><style>.cls-1{fill:#cdbdb2;}.cls-1,.cls-10,.cls-11,.cls-12,.cls-13,.cls-14,.cls-15,.cls-16,.cls-17,.cls-18,.cls-19,.cls-2,.cls-20,.cls-21,.cls-3,.cls-4,.cls-5,.cls-6,.cls-7,.cls-8,.cls-9{fill-rule:evenodd;}.cls-2{fill:#393939;}.cls-3{fill:#f89c35;}.cls-4{fill:#f89d35;}.cls-5{fill:#d87c30;}.cls-6{fill:#ea8d3a;}.cls-7{fill:#eb8f35;}.cls-8{fill:#ea8e3a;}.cls-9{fill:#e8821e;}.cls-10{fill:#dfcec3;}.cls-11{fill:#e88f35;}.cls-12{fill:#8e5a30;}.cls-13{fill:#c1c1c1;}.cls-14{fill:#afafaf;}.cls-15{fill:#bfbfbf;}.cls-16{fill:#939393;}.cls-17{fill:#a5a5a5;}.cls-18{fill:#aaa;}.cls-19{fill:#a0a0a0;}.cls-20{fill:#cecece;}.cls-21{fill:#666;}.cls-22{fill:#848484;}</style></defs><title>art19-metamask</title><path id="path-0" class="cls-1" d="M260.77,695l38.31,10.17v-13.3l3.12-3.13h21.89v26.6H300.64l-28.92-12.52Z"/><path id="path-1" class="cls-1" d="M385.85,695l-37.53,10.17v-13.3l-3.12-3.13H323.31v26.6h23.45l28.92-12.52Z"/><path id="path-2" class="cls-2" d="M302.2,666.05l-3.12,25.81,3.9-3.13h40.65l4.69,3.13-3.12-25.81-6.26-3.91-31.26.78Z"/><path id="path-3" class="cls-3" d="M281.1,491.63l18.76,43.8,8.6,127.49h30.48l9.38-127.49,17.2-43.8Z"/><path id="path-4" class="cls-4" d="M199,587.83l-21.89,63.36,54.72-3.13H267V620.69l-1.57-56.32-7.81,6.26Z"/><path id="path-5" class="cls-5" d="M240.45,594.87l64.1,1.57-7,32.85L267,621.47Z"/><path id="path-6" class="cls-6" d="M240.45,595.66l26.58,25v25Z"/><path id="path-7" class="cls-4" d="M267,621.47l31.26,7.82,10.17,33.63-7,3.91L267,646.5Z"/><path id="path-8" class="cls-7" d="M267,646.5,260.77,695l41.43-28.94Z"/><path id="path-9" class="cls-8" d="M304.55,596.44l3.91,66.48-11.73-34Z"/><path id="path-10" class="cls-5" d="M231.07,647.28l36-.78L260.77,695Z"/><path id="path-11" class="cls-5" d="M194.33,716.11,260.77,695l-29.7-47.71-53.94,3.91Z"/><path id="path-12" class="cls-9" d="M299.86,535.43l-33.62,28.16-25.79,31.28,64.1,2.35Z"/><path id="path-13" class="cls-10" d="M260.77,695l41.43-28.94-3.12,25v14.08l-28.14-5.48Z"/><path id="path-14" class="cls-10" d="M385.85,695,345.2,666.05l3.12,25v14.08l28.14-5.48Z"/><path id="path-15" class="cls-2" d="M287.35,610.52l8.6,18-30.49-7.82Z"/><path id="path-16" class="cls-11" d="M193.55,454.87l106.31,80.56-18-43.8Z"/><path id="path-17" class="cls-12" d="M193.55,454.87l-14.07,43,7.81,46.93-5.47,3.13,7.82,7-6.26,5.48,8.6,7.82L186.51,573,199,588.62l58.63-18s43-34.42,42.21-35.2S193.55,454.87,193.55,454.87Z"/><path id="path-30" class="cls-13" d="M238.77,702.59l51.07,13.58V698.41l4.17-4.18h29.18v35.52H291.92L253.36,713Z"/><path id="path-31" class="cls-13" d="M405.53,702.59l-50,13.58V698.41l-4.17-4.18H322.15v35.52h31.27L392,713Z"/><path id="path-32" class="cls-2" d="M294,663.93l-4.17,34.48,5.21-4.18h54.2l6.25,4.18-4.17-34.48L343,658.71l-41.69,1Z"/><path id="path-33" class="cls-14" d="M265.87,431l25,58.5,11.47,170.3H343l12.51-170.3L378.43,431Z"/><path id="path-34" class="cls-15" d="M156.43,559.46l-29.19,84.62,73-4.17h46.91V603.34L245,528.12l-10.42,8.36Z"/><path id="path-35" class="cls-16" d="M211.67,568.86,297.13,571l-9.38,43.88-40.64-10.44Z"/><path id="path-36" class="cls-17" d="M211.67,569.91l35.44,33.43v33.43Z"/><path id="path-37" class="cls-15" d="M247.11,604.39l41.69,10.44,13.55,44.93L293,665l-45.86-27.16Z"/><path id="path-38" class="cls-18" d="M247.11,637.82l-8.34,64.77L294,663.93Z"/><path id="path-39" class="cls-18" d="M297.13,571l5.22,88.81-15.64-45.45Z"/><path id="path-40" class="cls-16" d="M199.16,638.86l48-1-8.34,64.77Z"/><path id="path-41" class="cls-18" d="M150.17,730.8l88.6-28.21-39.61-63.73-71.92,5.22Z"/><path id="path-42" class="cls-19" d="M290.88,489.46l-44.82,37.61-34.39,41.79L297.13,572Z"/><path id="path-43" class="cls-20" d="M238.77,702.59,294,663.93l-4.17,33.44v18.8l-37.52-7.31Z"/><path id="path-44" class="cls-20" d="M405.53,702.59l-54.2-38.66,4.17,33.44v18.8L393,708.86Z"/><path id="path-45" class="cls-2" d="M274.2,589.76l11.47,24L245,603.34Z"/><path id="path-46" class="cls-19" d="M149.13,381.86l141.75,107.6-24-58.5Z"/><path id="path-47" class="cls-21" d="M149.13,381.86l-18.76,57.46L140.79,502l-7.29,4.18,10.42,9.4-8.34,7.32,11.47,10.44-7.3,6.27,16.68,20.9,78.17-24s57.32-46,56.28-47S149.13,381.86,149.13,381.86Z"/><path id="path-48" class="cls-15" d="M487.55,559.46l29.18,84.62-73-4.17h-46.9V603.34L399,528.12l10.43,8.36Z"/><path id="path-49" class="cls-16" d="M432.31,568.86,346.84,571l9.38,43.88,40.65-10.44Z"/><path id="path-50" class="cls-17" d="M432.31,569.91l-35.44,33.43v33.43Z"/><path id="path-51" class="cls-15" d="M396.87,604.39l-41.69,10.44-13.55,44.93L351,665l45.86-27.16Z"/><path id="path-52" class="cls-18" d="M396.87,637.82l8.34,64.77L351,665Z"/><path id="path-53" class="cls-18" d="M346.84,571l-5.21,88.81,15.63-45.45Z"/><path id="path-54" class="cls-16" d="M444.81,638.86l-47.94-1,8.34,64.77Z"/><path id="path-55" class="cls-18" d="M493.8,730.8l-88.59-28.21,39.6-63.73,71.92,5.22Z"/><path id="path-56" class="cls-19" d="M353.1,489.46l44.81,37.61,34.4,41.79L346.84,572Z"/><path id="path-57" class="cls-2" d="M369.77,589.76l-11.46,24L399,603.34Z"/><path id="path-58" class="cls-19" d="M494.84,381.86,353.1,489.46l24-58.5Z"/><path id="path-59" class="cls-21" d="M494.84,381.86l18.76,57.46L503.18,502l7.3,4.18-10.43,9.4,8.34,7.32-11.46,10.44,7.29,6.27-16.67,20.9-78.17-24s-57.33-46-56.28-47S494.84,381.86,494.84,381.86Z"/><path class="cls-22" d="M770.8,479.48h21.72V641.76H769.17V515.49l-49.89,62.73H715L664.5,515.49V641.76H641.27V479.48h22l53.92,66.65Z"/><path class="cls-22" d="M819.4,479.48h92v20.68H842.63v49.49h66.45v20.79H842.63v50.41h71v20.68H819.4Z"/><path class="cls-22" d="M916.44,479.25H1052v20.68H995.43V641.76H972.08V499.93H916.44Z"/><path class="cls-22" d="M1093.87,478.55h16.33L1183,641.76h-23.78l-16.39-36.44-5.23-11.65h-69.24l-4.58,10.86L1048,641.76h-23.87ZM1128,573l-26.19-58.77L1077.54,573Z"/><path class="cls-22" d="M1321.71,479.48h21.72V641.76h-23.35V515.49l-49.89,62.73h-4.3l-50.47-62.73V641.76h-23.24V479.48h22l53.92,66.65Z"/><path class="cls-22" d="M1422.12,478.55h16.33l72.77,163.21h-23.78l-21.63-48.09h-69.24l-20.27,48.09h-23.88ZM1456.26,573l-26.18-58.77L1405.8,573Z"/><path class="cls-22" d="M1561.1,573.77,1543.44,563q-16.62-10.14-23.64-20a37.77,37.77,0,0,1-7-22.59q0-19.17,13.3-31.13t34.56-12a65.39,65.39,0,0,1,37.29,11.41v26.37q-17.54-16.87-37.75-16.87-11.39,0-18.71,5.26T1534.15,517a20.74,20.74,0,0,0,5.39,13.66q5.39,6.36,17.33,13.36l17.75,10.5q29.69,17.75,29.69,45.15,0,19.51-13.07,31.72t-34,12.19a71.32,71.32,0,0,1-43.79-14.78V599.33q18.81,23.85,43.56,23.85,10.92,0,18.18-6.08a19,19,0,0,0,7.26-15.22Q1582.47,587.06,1561.1,573.77Z"/><path class="cls-22" d="M1713.55,479.48h29l-70.39,77,87.7,85.26h-31.71l-83-80.15v80.15H1622V479.48h23.23v74.23Z"/></svg>