<svg id="Layer_1" data-name="Layer 1" xmlns="http://www.w3.org/2000/svg" xmlns:xlink="http://www.w3.org/1999/xlink" viewBox="0 0 1860 1160"><defs><style>.cls-1{fill:none;}.cls-2{clip-path:url(#clip-path);}.cls-3{fill:#979796;}.cls-4{fill:#848484;}.cls-5{fill:#d3d3d3;}.cls-6{fill:#c4c4c4;}</style><clipPath id="clip-path"><rect class="cls-1" x="197.41" y="321.32" width="1465.19" height="517.36"/></clipPath></defs><title>art15-diligence</title><g id="Diligence"><g class="cls-2"><g class="cls-2"><path class="cls-3" d="M197.41,362.35c1.87-1.73,1.82-4.27,2.57-6.44,12.42-35.35,57.18-46,84-19.87a16.75,16.75,0,0,1,1.82,1.95c2.42,3.17,2.52,7.2.05,9.29-3,2.55-6.34,2.42-9.36,0a89.63,89.63,0,0,0-12.54-8.4c-21.32-11.67-49.93,3.18-53,29.51-2.84,24.45,15.2,43.62,39.64,42.86,10.08-.32,18.5-4.64,25.56-11.84,3-3.08,7.1-3.34,9.6-1.08s2.8,6.79.31,10.11a19.87,19.87,0,0,1-2.13,2.27c-26.26,25.51-71.46,14.92-83.68-19.62-1-2.75-1.87-5.53-2.8-8.29Z"/><path class="cls-4" d="M1153.57,600c1.8-.62,2-2.21,2.61-3.48,11.15-22,29.35-33.41,53.68-35.49,12.46-1.07,24.62.25,36,5.78,18.56,9.05,27.55,24.83,30.38,44.65a105.47,105.47,0,0,1,.83,15.09q-.08,63.45,0,126.91c0,3.55-.61,4.81-4.49,4.73q-19.59-.4-39.18,0c-3.67.07-4.3-1.13-4.29-4.47.11-38.59.06-77.19.08-115.78a63.33,63.33,0,0,0-1.26-14.15c-3.55-15.5-15.64-23.9-31.76-23-25.63,1.35-37.17,18.59-39.24,41.66-.23,2.51-.2,5-.2,7.56q0,52.1.06,104.19c0,3-.58,4.07-3.83,4-13.36-.19-26.72-.16-40.08,0-2.88,0-3.75-.69-3.74-3.67q.13-92.84,0-185.68c0-2.69.65-3.55,3.44-3.51,10.54.17,21.08.2,31.62,0,3.21-.07,4.29.86,4.71,4,1.34,10.21,3,20.38,4.64,30.67"/><path class="cls-4" d="M1429.73,686.68c13.1,3.51,25.8,7,38.55,10.27,2.5.64,3.33,1.32,2.74,4.11-6.48,30.56-29.35,51.85-60.35,56-15.33,2.05-30.53,1.53-45.38-3-24.11-7.29-41.88-22.43-51.4-45.67-14.64-35.72-14.56-71.9,2.16-106.89,13.23-27.71,36.87-41.76,67-44.87,18.29-1.88,36.15,0,52.74,8.76,20,10.52,31,27.36,34.61,49.34.44,2.66-.15,3.83-3.16,4.4q-17.24,3.29-34.33,7.32c-3.32.8-3.93-.11-4.33-3.15-2.76-21-17-32.75-38-31.1-15.28,1.19-25.25,10.06-31.5,23.48-7.47,16-8.55,33.14-7.59,50.47.59,10.7,2.4,21.19,6.78,31.09,9.31,21.07,30.77,30.65,50.34,22.38,11.75-5,17.27-14.76,20-26.56.46-2,.74-4.07,1.16-6.4"/><path class="cls-4" d="M536.83,619.37c0-44.69.07-89.38-.11-134.07,0-4.09,1.16-4.78,4.88-4.71,12.77.24,25.54.18,38.31,0,2.9,0,4.07.45,4.07,3.78q-.15,135,0,269.92c0,2.77-.51,3.85-3.59,3.8-13.36-.18-26.73-.24-40.08,0-3.75.07-3.48-1.74-3.48-4.27q.06-59.24,0-118.48Z"/><path class="cls-4" d="M630.22,661.21c0-30.42.1-60.85-.11-91.27,0-4.11,1.19-4.78,4.91-4.71,13.05.23,26.12.17,39.18,0,2.69,0,3.46.59,3.45,3.39q-.12,93.06,0,186.12c0,2.88-.89,3.37-3.51,3.35-13.2-.13-26.41-.18-39.62,0-3.39.06-4.41-.71-4.4-4.29.16-30.87.09-61.74.09-92.62"/><path class="cls-4" d="M443.14,661.71c0-30.72.07-61.45-.09-92.16,0-3.55,1-4.37,4.38-4.31,12.91.2,25.82.17,38.73,0,3.13,0,4.3.46,4.29,4q-.19,92.37,0,184.76c0,2.91-.41,4.14-3.77,4.09q-20-.3-40.06,0c-3.18,0-3.51-1.17-3.5-3.82q.12-46.29.05-92.6"/><path class="cls-3" d="M621.71,373q0-21.15,0-42.29c0-6.81,2.37-9.26,9-9.26,17.06,0,34.12,0,51.18,0,3.78,0,6.85,1,8,4.86,1.48,4.75-1.73,8.5-7.23,8.52-14.09.05-28.19.15-42.28-.07-3.8-.06-5.23.78-5,4.87.34,7.55.22,15.13,0,22.69-.07,3,1,3.8,3.83,3.76,9.64-.15,19.29-.14,28.93,0,5.61.07,8.65,3.49,7.67,8.43-.88,4.37-4.28,5.37-8.06,5.41-9.2.08-18.4.18-27.59-.05-3.63-.09-5,.88-4.8,4.68.28,7.4.26,14.83,0,22.24-.13,3.64.87,4.84,4.66,4.78,14.09-.23,28.18-.13,42.27-.07,4.95,0,7.73,2.46,7.83,6.58.1,3.91-2.18,6.69-6.1,6.7q-28,.15-56.08,0c-4.28,0-6.23-2.89-6.24-8.55-.05-14.39,0-28.78,0-43.17"/><path class="cls-3" d="M1039.82,424.9c-14.74-.57-26.68-6-33.88-19.65a29.22,29.22,0,0,1-2.82-11.11,7,7,0,0,1,5.72-7.39c3.51-.47,7.28,2,7.08,5.75-.66,12.59,14.58,20.85,27,19.46a29.73,29.73,0,0,0,12.93-4.42c10.7-6.85,11.23-18.8,1.14-26.51a37.06,37.06,0,0,0-18.88-7.12,45,45,0,0,1-21.45-7.89c-13.22-9.36-14.1-24.82-2-35.56,16.08-14.28,46.47-11.29,57.61,5.64a20,20,0,0,1,3.52,11.73,6.19,6.19,0,0,1-5.53,6.48c-3.59.65-6.53-1-7.19-4.38-.94-4.82-2.81-8.67-7.08-11.18a28.64,28.64,0,0,0-16.62-3.93,28.19,28.19,0,0,0-13.89,4.17c-7.77,5-7.69,12,.22,16.68,5.73,3.36,12,4.81,18.54,5.79,9.14,1.38,17.38,4.8,24.07,11.42,13.15,13,11.52,33.12-3.5,44a39.48,39.48,0,0,1-25,8"/><path class="cls-3" d="M562,424.88c-15.28-.47-27.59-6.05-34.57-20.55a23,23,0,0,1-2.23-11.67c.24-3.73,2.56-5.76,6-5.89s6.35,1.75,6.41,5.41c.14,10,7.94,17,17.12,19,11,2.4,21.06.29,28.53-8.79,4.42-5.39,3.5-13.08-1.67-18.68-5.74-6.22-13.22-8.73-21.37-9.72-9-1.09-17.39-3.81-24.24-10-10.76-9.76-10.75-23.14-.1-33,14.72-13.65,42.28-12.61,55.84,2.14,3.87,4.2,6.05,9.07,5.74,14.93-.2,3.66-2,5.84-5.61,6.33s-6.56-1-7-4.58c-1.07-8.32-6.66-11.86-13.73-13.79-8.67-2.38-17.23-1.8-24.61,3.73S539.89,351.35,548,356c5.8,3.3,12.18,4.4,18.63,5.5,9.73,1.68,18.62,5.42,25.23,12.95,12.68,14.44,8.2,35.49-9.38,45.22-6.35,3.51-13.06,5.61-20.47,5.21"/><path class="cls-3" d="M845.31,425c-17.69-.36-29.21-5.52-36.82-17.9a24.76,24.76,0,0,1-3.56-14.46c.2-3.76,2.6-5.69,6-5.9a5.92,5.92,0,0,1,6.46,5c3.79,16.61,16.86,24,33.25,18.89a27.44,27.44,0,0,0,8-3.86c8.6-6.19,9.52-16.17,2.12-23.73-5.68-5.79-12.94-8.08-20.76-9.07-9.46-1.2-18.22-4.05-25.2-10.93-9.52-9.37-9.43-22.1.17-31.49,14.52-14.22,42.85-13.47,56.52,1.52A20.3,20.3,0,0,1,877.24,348c-.15,3.62-2,5.85-5.59,6.34s-6.58-1-7-4.54c-1.09-8.3-6.62-11.92-13.71-13.83-8.83-2.37-17.5-1.78-25,4-6.95,5.39-6.24,11.34,1.42,15.8,5.74,3.35,12.07,4.74,18.56,5.69,9.34,1.38,17.71,5.07,24.47,11.7,13.88,13.6,10.31,35.56-7.43,46.06-6.48,3.84-13.5,6.1-17.64,5.81"/><path class="cls-5" d="M625.16,509.31c0-8.31.1-16.62-.06-24.93-.06-3,.64-4.19,3.89-4.16q24.93.21,49.85,0c2.93,0,3.83.91,3.8,3.82q-.17,24.92,0,49.85c0,2.78-.66,3.91-3.71,3.88q-25.15-.19-50.3,0c-2.74,0-3.58-.82-3.53-3.54.15-8.31.06-16.62.06-24.93"/><path class="cls-6" d="M435.17,508.94c0-18.36,13.13-31.58,31.3-31.58s31.95,13.64,32,31.74-13.78,31.55-32.12,31.49-31.15-13.12-31.14-31.65"/><path class="cls-3" d="M783.6,387.06c0,9.94,0,19.89,0,29.83,0,5.49-2.15,8-6.71,7.92-4.33,0-6.64-2.81-6.64-8.14,0-18.85,0-37.69,0-56.54,0-13.33-9.1-23.3-22.82-25.18-10.73-1.46-22.19,7-25.48,18.66a23.84,23.84,0,0,0-.69,6.6v54.32a38.09,38.09,0,0,1-.07,4c-.46,4.11-3.21,6.47-7.16,6.27s-6.18-2.42-6.18-6.66c0-20.92-.38-41.86.22-62.76.45-15.35,13.84-29.72,29.27-33,16.51-3.5,33.35,4,41.35,18.39a37,37,0,0,1,5,19.12c-.18,9,0,18.1,0,27.15"/><path class="cls-3" d="M428.14,386.79q0-14,0-28.05c.06-19.92,16.85-36.95,36.73-37.27,20.69-.33,38.56,15.88,38.94,36s.17,40.07.14,60.1c0,4.84-2.26,7.2-6.49,7.28s-6.9-2.57-6.92-7.45c-.08-19,0-38,0-57,0-14.22-10.91-25.48-24.72-25.54-13.28,0-24.25,11.49-24.27,25.58q0,28.27,0,56.54c0,3.88-1.31,6.76-5.21,7.72-4.62,1.14-8.12-1.77-8.16-6.73-.09-10.39,0-20.78,0-31.16"/><path class="cls-3" d="M934.27,402.38a7.5,7.5,0,0,1,0-1.34c2.15-12.12-2.87-21.37-10.61-30.37-10.24-11.9-19.35-24.77-29-37.2-2.16-2.78-3.41-5.63-1.25-8.94,2.76-4.23,8-4.08,11.54.42q14.12,18.06,28.13,36.2c.73.94,1.41,1.91,2.19,2.8,2,2.28,3.48,6.68,5.92,6.41,2.26-.25,4.19-4.18,6.12-6.6,10.16-12.77,20.24-25.6,30.42-38.35,3.45-4.33,6.86-5.05,10.25-2.46s3.58,6.43.07,10.88Q969.49,357.44,950.81,381a13.34,13.34,0,0,0-3.27,9.27c.27,9,.11,18.1.08,27.16,0,5-2,7.25-6.24,7.41s-7-2.49-7.09-7.29c-.11-5,0-10.09,0-15.14"/><path class="cls-4" d="M197.41,502.21c35.6.22,71.27-1.8,106.81,1.07,28.81,2.33,54.85,12.31,75.6,33.38,17,17.3,26.07,38.63,29.93,62.27,4.38,26.84,3.84,53.58-4.29,79.67-13,41.73-42.09,66.06-84.14,75.7a162,162,0,0,1-37.08,3.78c-28.94-.15-57.89-.13-86.83-.18Zm48.1,179.94q0,16,0,32.06c0,1.55-.53,3.27,2.23,3.18,17.18-.5,34.47,1.36,51.54-1.44,26.22-4.28,45.24-18.15,55.28-43.26,6.57-16.43,7.8-33.63,7-51.09-.65-14.79-3.32-29.18-10.38-42.34-12.79-23.86-34.05-34.27-60-35.92-13.75-.87-27.59-.13-41.39-.37-3.36-.05-4.42.67-4.4,4.27.17,27.6.09,55.21.09,82.81Z"/><path class="cls-4" d="M870.9,592.15c15.49-5,25.8-15.23,30.09-31.1.42-1.55,2.08-3.89-1.3-5-12.46-4.11-24.87-8.39-37.45-12.66-.42,2.46-.75,4.65-1.18,6.83-1.56,8.06-3.64,15.9-9.19,22.32-1.25,1.45-2.24,2.17-4.41,1-29.56-16.08-60.45-16.84-91.59-6.16-23.79,8.15-38,25.32-40.52,50.75-2.34,23.74,5.41,43.48,25.49,57.5,2.5,1.75,5.18,3.23,8.1,5-16.35,5.6-28.79,14.63-30,32.78-1.14,16.57,7.38,27.77,23.24,34.26a81.78,81.78,0,0,0-18.76,5.83c-28,13.17-27.19,41.16-15.27,57.23,6.57,8.85,15.64,14.38,25.7,18.37,21.37,8.48,43.75,10.24,66.42,9.34,20.41-.82,40.42-4,59.09-12.83,22-10.47,36.12-26.72,37.84-52.14,1.6-23.58-9.32-42.39-30.39-51.35-11.79-5-24.2-6.88-36.89-7-18.4-.14-36.81,0-55.22,0-4,0-8-.26-11.69-2.17-5.55-2.9-7.51-9.07-5.06-15.76,2.19-6,8.6-10,13.94-9.09,21.23,3.77,42.2,3.2,62.72-4,37.86-13.31,53.49-53.06,34.7-88.52-1.35-2.54-.42-2.75,1.62-3.42M757.42,758.89a43.18,43.18,0,0,1,13.14-1.9q27.13.06,54.29,0a53.27,53.27,0,0,1,16.2,2.31c17,5.33,16.65,23.39,8.08,32.48-7.61,8.06-17.62,11.15-28,13.32a145,145,0,0,1-29.74,2.7c-10.89-.06-23.12-1-34.54-6.27-9.24-4.27-15.52-10.85-15.55-21.74,0-9.92,6-17.76,16.12-20.92m54.07-101.08c-14,5.77-32.58,3.13-41.54-6.72-11.08-12.17-11.47-26.69-6.23-41.23,4.95-13.76,16.51-18.51,30.28-19a46,46,0,0,1,11.06.78C820,594.8,829,605.27,830,620.51c.11,1.63.23,3.25.35,4.88.09,15.78-6.68,27.4-18.87,32.42"/><path class="cls-4" d="M1012.93,665.39q-28.74,0-57.46,0c-1.59,0-3.64-.81-3.4,2.39,1.06,13.77,3.69,27,12.29,38.35,12.38,16.32,38.88,21,56.2,10,7.94-5,12.53-12.5,15-21.29.75-2.64,1.76-2.72,4-2,11.09,3.68,22.18,7.36,33.35,10.78,2.8.85,2.82,1.93,2,4.33-7,21.56-21.07,36.66-42.38,44.21-25,8.84-50.19,8.47-74.76-1.56-24-9.79-38.74-28.41-45.76-52.89-8.58-29.92-8.2-60,3.69-88.94,13.21-32.21,38.17-49.23,72.7-52.32,14.18-1.28,28.17-.18,41.57,5,26.15,10.15,40.2,30.23,45.68,56.91a98.53,98.53,0,0,1-.52,42.82c-.74,3.16-1.85,4.26-5.23,4.22-19-.18-38-.09-57-.09m8.48-26.13c11.53,0,11.73,0,11.14-11.46-.82-15.66-6.21-29.11-22-34.86s-30.67-2.68-42.85,9.6C958.24,612,954.93,624.26,953,637c-.44,2.92,1.56,2.22,3,2.23q18,0,36,0Z"/><path class="cls-4" d="M1598.08,665.39c-19,0-38,.09-57-.07-3.24,0-4.32.59-4,4.08,1.17,13.8,4,27,13.16,38,11.13,13.34,25.89,16.5,42.2,13.72,14.75-2.52,23.8-11.81,27.93-26,.77-2.64,1.69-3.06,4.28-2.18q16.15,5.52,32.48,10.58c2.87.88,3.58,1.82,2.56,4.89-7.24,21.7-21.53,36.67-43.05,44.09-24.87,8.56-49.92,8-74.3-2-22.16-9.1-36.74-26-44-48.45-10.64-33-10.3-66.13,4.4-97.93,13.61-29.43,37.85-44.57,69.85-47.6,14.33-1.36,28.5-.37,42,4.86,27.38,10.6,41.45,31.8,46.42,59.8a99.89,99.89,0,0,1-.82,39.31c-.76,3.46-2,5.05-6,5-18.69-.29-37.4-.13-56.09-.13m8.24-26.13c11.32,0,11.46,0,11.1-11.41-.34-11-3.49-21-11.86-28.72-14.21-13-39.16-11.45-53.07,3.26-8.81,9.31-12.51,20.86-14.41,33.23-.48,3.08.39,3.74,3.34,3.7,12-.14,24-.06,36-.06Z"/><path class="cls-3" d="M304.21,373.49c0-28.85,22.51-51.36,51.34-51.34,28.64,0,51.23,22.78,51.21,51.57a51.28,51.28,0,0,1-102.55-.23m13.38-.22a37.78,37.78,0,0,0,37.73,38.07,37.91,37.91,0,1,0,.21-75.82,37.53,37.53,0,0,0-37.94,37.75"/></g></g></g></svg>