<svg id="Layer_1" data-name="Layer 1" xmlns="http://www.w3.org/2000/svg" xmlns:xlink="http://www.w3.org/1999/xlink" viewBox="0 0 1860 1160"><defs><style>.cls-1{fill:none;}.cls-2{clip-path:url(#clip-path);}.cls-3{clip-path:url(#clip-path-2);}.cls-4{fill:#848484;}</style><clipPath id="clip-path"><rect class="cls-1" x="308.05" y="192.42" width="1280.7" height="737.73"/></clipPath><clipPath id="clip-path-2"><rect class="cls-1" x="308.05" y="192.42" width="1280.69" height="737.73"/></clipPath></defs><g id="Artwork_53" data-name="Artwork 53"><g class="cls-2"><g class="cls-3"><path class="cls-4" d="M1126.08,299.69H896.55c-27.56,0-49.14,24-49.14,53.94,0,29.36,21.58,53.93,49.14,53.93H993c12.59,0,22.77,7.79,22.77,20.38s-10.18,20.38-22.77,20.38H896.55c-52.73,0-93.49-41.35-93.49-94.09s41.36-94.09,93.49-94.09h201.37A202.06,202.06,0,0,0,744.93,395c0,33.56,8.39,64.72,22.78,92.89H996.64c27.56,0,50.94-22.17,50.94-52.14s-23.38-55.13-50.94-55.13H899.55c-12.59,0-22.77-7.79-22.77-20.38s10.18-20.38,22.77-20.38H996c52.73,0,95.29,41.36,95.29,93.49s-43.15,94.09-95.29,94.09H794.67l-16.78,67.12L848,571.17a198.81,198.81,0,0,0,99.48,26.37A202.31,202.31,0,0,0,1150.06,395c-.6-34.76-9-67.12-24-95.29"/><path class="cls-4" d="M472.25,724.59c-5.39-7.19-12.58-12.58-21.57-16.78a59.77,59.77,0,0,0-25.77-6,107.28,107.28,0,0,0-13.18,1.2,40.65,40.65,0,0,0-12,4.19,30.16,30.16,0,0,0-9,8.39c-2.4,3.6-3.6,7.79-3.6,13.19a21.27,21.27,0,0,0,3,11.38c1.8,3,4.79,5.4,8.39,7.79a54.16,54.16,0,0,0,13.19,6c4.79,1.79,10.78,3.59,16.78,6,9,3,18.57,6.59,28.16,10.19a116.59,116.59,0,0,1,27,14.38,72.57,72.57,0,0,1,19.78,22.77c5.39,9,7.79,20.38,7.79,33.56,0,15.59-3,28.77-8.39,40.16A73.34,73.34,0,0,1,480,908.57a99.51,99.51,0,0,1-33,16.19,138.08,138.08,0,0,1-38.35,5.39A161,161,0,0,1,353,920q-27-9.88-44.94-28.77l42.55-43.14a80.86,80.86,0,0,0,25.77,20.37c10.78,5.4,21.57,8.39,31.76,8.39a51,51,0,0,0,13.78-1.8c4.8-1.19,8.39-2.39,12-4.79s6-5.39,8.39-9a31.23,31.23,0,0,0,3-13.78c0-4.8-1.2-9.59-3.6-12.59-2.4-3.59-6-6.59-10.79-9.59a79.37,79.37,0,0,0-17.38-7.79c-7.19-2.4-15-4.79-23.37-7.79s-16.78-6-25.17-9.59a78.33,78.33,0,0,1-22.17-14.38c-6.6-6-11.39-13.18-15.59-21.58s-6-18.57-6-30.56c0-15,3-27.57,9-38.35a77.59,77.59,0,0,1,24-26.37,94.7,94.7,0,0,1,33.56-15,159.33,159.33,0,0,1,37.76-4.79c15,0,30.56,3,46.14,8.39A120.24,120.24,0,0,1,513,682Z"/><polyline class="cls-4" points="569.34 922.96 569.34 655.07 634.66 655.07 634.66 922.96 569.34 922.96"/><polyline class="cls-4" points="940.3 922.96 942.1 733.58 940.9 733.58 871.38 922.96 825.84 922.96 757.52 733.58 756.32 733.58 758.12 922.96 696.99 922.96 696.99 655.07 789.28 655.07 850.41 827.07 852.21 827.07 910.34 655.07 1003.83 655.07 1003.83 922.96 940.3 922.96"/><path class="cls-4" d="M1275.31,845.05c0,14.38-3,27-9,37.16a69.17,69.17,0,0,1-23.37,24c-9.59,6-20.38,10.19-33,13.18a191.4,191.4,0,0,1-37.75,4.2H1065.55V655.07h106.68a195.72,195.72,0,0,1,31.76,3c10.79,2.4,21,6,29.37,10.79,9,5.39,16.18,12,21.57,21s8.39,19.78,8.39,33.56c0,15-4.19,27-12,37.16-7.8,9.59-18.58,16.78-31.77,21v.6a65.43,65.43,0,0,1,21.58,7.2,63.5,63.5,0,0,1,17.38,13.18,65.92,65.92,0,0,1,12,18.58,61,61,0,0,1,4.8,24m-73.72-112.67c0-9-3.59-15.58-10.18-19.77-7.19-4.2-17.38-6-30.57-6h-31.76v55.14h34.76c12,0,21.57-2.4,28.17-7.19,6-5.4,9.58-12.59,9.58-22.18m9,106.68c0-11.39-4.19-18.58-12.58-23.38-8.39-4.19-19.18-6.59-33.56-6.59h-36v61.13H1165a147.37,147.37,0,0,0,15.58-1.2,44,44,0,0,0,15-4.79,32.93,32.93,0,0,0,10.79-9.59,28.32,28.32,0,0,0,4.19-15.58"/><path class="cls-4" d="M1516.22,923l-21-52.74H1391.57L1371.79,923h-70.11l112.66-267.89h62.93L1588.74,923h-72.52m-71.91-196.57-34.16,91.69h67.12Z"/></g></g></g></svg>