<svg id="Layer_1" data-name="Layer 1" xmlns="http://www.w3.org/2000/svg" viewBox="0 0 1860 1160"><defs><style>.cls-1{fill:#848484;}</style></defs><title>art22-security-innovations-gray</title><path class="cls-1" d="M401.76,309.36s18,2.38,26.68,5c42.49,12.73,73.05,39,90.56,80a122.23,122.23,0,0,1,9.12,38.18c1.35,16-.76,31.63-5.1,47-3.14,11.16-6.09,22.37-9.12,33.57,0,.17-.07.35-.12.53-.71,2.57-.72,2.59-3.31,1.89l-40.42-10.91c-.17,0-.34-.11-.51-.16-2.23-.65-2.24-.65-1.66-3q4.85-19.53,9.69-39c7-28.42.67-53.77-18.12-75.91-14.44-17-33.15-27-55.14-30-27.28-3.81-51.63,3.23-72.27,21.77-12.43,11.17-20.13,25.2-24.38,41.32-6.57,25-13.4,49.87-20.13,74.8-.86,3.2-.87,3.19,2.35,4.06l227.76,61.44c.26.07.52.16.79.21,1.24.23,1.54.81,1.17,2.1-1.3,4.52-2.43,9.1-3.68,13.64-12.48,45.43-23.86,91.14-35.77,136.72-2.93,11.22-5.36,22.58-8.91,33.62-11.66,36.18-34.23,63.72-66.79,83.1a155.32,155.32,0,0,1-57.86,20.28c-3.32.48-6.64.94-10,1.11a1.75,1.75,0,0,0-1.25.43H314.66a172.4,172.4,0,0,1-21.84-2.62C255.59,841.33,224,824,199,795.5c-22-25-34.81-54-37.93-87.27-.13-1.39-.08-2.88-1-4.12V686.69a9.43,9.43,0,0,0,1-4.42,136.43,136.43,0,0,1,4.2-24.07c3.13-11.73,6.32-23.44,9.48-35.17q7.17-26.64,14.33-53.28c.69-2.53.7-2.55,3.27-1.86l55.64,15c2.34.63,2.33.67,1.8,2.94,0,.18-.11.35-.16.52Q238.14,630.66,226.68,675c-3.34,13-4.42,26.09-2.2,39.35,3.56,21.32,14.06,38.61,30.79,52.21,22.18,18,58.38,28.21,88.38,22.43,15.68-3,29.6-9.61,41.4-20.44C398,756.7,406.39,742.05,411,725.26,421.8,685.67,432.42,646,443.11,606.4c1.13-4.17,1.09-3.41-2.64-4.42Q340.09,574.88,239.7,547.85q-19.81-5.34-39.62-10.71c-2-.54-2-.58-1.48-2.52q1.93-7.35,3.93-14.7Q207.92,500,213.31,480c.55-2,.59-2,2.55-1.51,3.33.87,6.65,1.78,10,2.67l15,4c.31-.93.59-1.69.8-2.46Q249.33,453.87,257,425c2.76-10.33,5.18-20.77,8.46-30.93,8.59-26.69,25.36-47.22,48.59-62.58a135.21,135.21,0,0,1,60.35-21.62c2.4-.27,20.28-.94,20.28-.94Z"/><path class="cls-1" d="M1434.66,480.46c.7-1.06,1.26-1.88,1.78-2.72q15.35-24.56,30.65-49.15a4.12,4.12,0,0,1,4.1-2.24c7.71.12,15.43,0,23.14.06a6.09,6.09,0,0,1,2.79.26,8.1,8.1,0,0,1-1.43,2.56q-23.89,36.38-47.84,72.71a9.09,9.09,0,0,0-1.59,5.29c0,17.15,0,34.29,0,51.44V560c0,2.68.36,2.65-2.64,2.65h-18.78c-3.36,0-2.94.23-2.94-2.87,0-17.51,0-35,0-52.52a9,9,0,0,0-1.59-5.29q-23.07-35-46-70c-.5-.75-1-1.49-1.51-2.23-1,.33-.6,1.09-.6,1.63,0,4.9,0,9.8,0,14.7,0,2.17,0,2.2-2.27,2.2h-36.2c-.63,0-1.27,0-1.9,0-1-.08-1.54.28-1.47,1.37,0,.72,0,1.45,0,2.17q0,53.89,0,107.77c0,3.34.46,3-3,3q-9.66,0-19.32,0c-1.94,0-2,0-2-1.92,0-2.72,0-5.44,0-8.16q0-50.49,0-101c0-3.82.44-3.3-3.33-3.31q-17.69,0-35.38,0c-.72,0-1.45,0-2.17,0a.91.91,0,0,1-1-1c0-.27,0-.55,0-.82,0-6.08.05-12.15,0-18.23,0-1.46.48-2,1.87-1.83a12.3,12.3,0,0,0,1.36,0q65.45,0,130.89-.06a4.75,4.75,0,0,1,4.7,2.66c10,16.32,20,32.58,30.1,48.85C1433.47,478.62,1434,479.37,1434.66,480.46Z"/><path class="cls-1" d="M1169.79,502.44c12.11,20.19,24,40,35.94,59.91a5.41,5.41,0,0,1-2.66.32c-8,0-16-.07-23.94.06a3.84,3.84,0,0,1-3.94-2.41c-9.57-17.7-19.26-35.32-28.83-53-1-1.84-2.06-2.57-4.19-2.47-4.16.19-8.34,0-12.51.06-2.3,0-2.32,0-2.32,2.4v46c0,2.54,0,5.08,0,7.62,0,1.2-.2,1.82-1.61,1.81-7.07-.06-14.15,0-21.22,0-1.16,0-1.68-.38-1.56-1.57,0-.54,0-1.09,0-1.63q0-64.89,0-129.78c0-3.73-.55-3.3,3.33-3.31H1152a75.48,75.48,0,0,1,25.12,3.89,41.85,41.85,0,0,1,8.33,4c8.9,5.52,13.82,13.63,15.34,23.88a44.44,44.44,0,0,1-1.28,19.92c-3.94,12.73-12.74,20.3-25.49,23.54-.61.15-1.23.3-1.85.42S1171,502.24,1169.79,502.44Zm-27.28-18.34V484c2.44,0,4.9.09,7.34,0,4.8-.21,9.6-.47,14.22-2,6.79-2.23,10.84-6.8,11.58-13.95,1-9.65-2.74-16.47-12.7-19.27a42.58,42.58,0,0,0-10.74-1.52c-7.62-.11-15.24-.08-22.86-.09-1.95,0-2,0-2,1.89,0,11.07,0,22.13,0,33.2,0,1.41.43,1.87,1.86,1.85C1133.62,484.05,1138.06,484.1,1142.51,484.1Z"/><path class="cls-1" d="M713.76,494.56V430.08a15,15,0,0,0,0-1.9c-.21-1.52.54-1.85,1.88-1.8,2.27.07,4.54,0,6.8,0h78.09a13.37,13.37,0,0,0,1.9,0c1.5-.2,1.81.52,1.8,1.87-.05,5.89,0,11.79,0,17.69,0,2.35,0,2.37-2.34,2.37H741.18c-.64,0-1.27,0-1.91,0s-1.16.35-1.14,1.14c0,.45,0,.9,0,1.36q0,14.15,0,28.29c0,2.63-.24,2.52,2.48,2.52h56.86c3.79,0,3.28-.39,3.3,3.37,0,5.44,0,10.88,0,16.32,0,2.36,0,2.38-2.37,2.38H741.81a15.21,15.21,0,0,1-1.91,0c-1.46-.18-1.81.49-1.8,1.86,0,11.06,0,22.13,0,33.19,0,2,0,2,2.18,2H805.6c2.13,0,2.15,0,2.15,2.32q0,8.7,0,17.41c0,2.15,0,2.18-2.28,2.18H716.78c-3.49,0-3,.26-3-3.08Q713.74,527.07,713.76,494.56Z"/><path class="cls-1" d="M1072.9,472.71c0,13.79.07,27.57,0,41.36a53.61,53.61,0,0,1-6.51,25.83A47.62,47.62,0,0,1,1041.1,562c-15.25,5.87-30.72,6.06-45.94.08-17.42-6.84-27.63-19.88-31.15-38.21a60.89,60.89,0,0,1-1-11.36q0-41.22,0-82.44c0-.55,0-1.09,0-1.64,0-2,.05-2,1.89-2,6.89,0,13.79,0,20.68,0,1.44,0,1.9.48,1.82,1.88-.1,2,0,4,0,6q0,38.08,0,76.18A41.35,41.35,0,0,0,989.07,523c3.69,11.72,12.92,19.05,25.2,19.91a38.49,38.49,0,0,0,14-1.22c10.2-3.08,16.22-10.14,19-20.2a41.72,41.72,0,0,0,1.24-11.31q0-40.41,0-80.81c0-3.3-.46-3,3.09-3h19c2.19,0,2.22,0,2.22,2.24Q1072.92,450.67,1072.9,472.71Z"/><path class="cls-1" d="M670.28,455.49c-9.34-10.37-20.64-12.29-33.26-9.37a20.2,20.2,0,0,0-6.61,3.1c-7.47,5-9.92,18.29-.07,25a53.58,53.58,0,0,0,13.29,6.12c5.92,2,11.93,3.74,17.75,6A58.77,58.77,0,0,1,675,493.63a32,32,0,0,1,13.15,22.3,46.22,46.22,0,0,1-2.42,23.28c-4.53,11.66-13.23,19-24.73,23.31a65.46,65.46,0,0,1-27.83,3.58,61.8,61.8,0,0,1-24.75-6.67,49.24,49.24,0,0,1-13.3-10.23c-.84-.92-1.21-1.57-.08-2.64,5.53-5.25,11-10.58,16.45-15.87a3.49,3.49,0,0,1,.67-.43c.95.5,1.34,1.47,2,2.23a32.37,32.37,0,0,0,35.42,10,23.53,23.53,0,0,0,7.76-4.4,16.17,16.17,0,0,0-.74-25.5A38.36,38.36,0,0,0,645.76,507c-5.81-2-11.67-3.95-17.49-6a74.59,74.59,0,0,1-12.39-5.53c-11.51-6.54-17.16-16.59-17.5-29.66-.45-17.44,7.46-29.86,23.1-37.32,10.39-5,21.45-6.4,32.87-5.53a58,58,0,0,1,23.86,6.79,48.61,48.61,0,0,1,8.66,6.09c.78.68.88,1.2.13,2C681.43,443.72,675.9,449.57,670.28,455.49Z"/><path class="cls-1" d="M927.29,527.65l20,14.28a53.69,53.69,0,0,1-11,11.52c-9.4,7.38-20.17,11.25-32,12.42A78.34,78.34,0,0,1,867,561c-22.56-9-36.14-25.75-41.1-49.37a79.33,79.33,0,0,1,2.81-43.7c8.31-23.17,24.9-37.31,48.7-43a75.71,75.71,0,0,1,36.37-.06c11.71,2.95,21.31,9.35,29.36,18.23.84.93,1,1.48-.13,2.32-5.52,4-11,8-16.45,12.07a1.46,1.46,0,0,1-2.3-.14c-1.25-1.31-2.61-2.52-4-3.7-8.82-7.64-19.12-9.87-30.46-8.36-23.15,3.06-37.41,21.18-39.63,41.75a57.88,57.88,0,0,0,4.87,31.28c8.33,17.9,25.81,27.52,45.69,25.66,8.24-.76,15.13-4.71,21.09-10.35A73.6,73.6,0,0,0,927.29,527.65Z"/><path class="cls-1" d="M906.53,726.63V611.55a17.37,17.37,0,0,0,0-1.91c-.17-1.47.53-1.85,1.9-1.82q4.62.12,9.25,0c1.31,0,1.83.45,1.69,1.74-.05.54,0,1.09,0,1.63q0,64.9,0,129.79c0,3.77.43,3.3-3.33,3.33-3.54,0-7.08-.11-10.61.05a4.09,4.09,0,0,1-4-2.08q-14.82-21.49-29.76-42.91l-49.79-71.71a7.35,7.35,0,0,0-2.22-2.24v3.09q0,56.19,0,112.38c0,3.94.43,3.38-3.51,3.42-2.54,0-5.09-.06-7.62,0-1.32,0-1.83-.45-1.7-1.73a14.94,14.94,0,0,0,0-1.64q0-64.89,0-129.79c0-3.76-.44-3.3,3.33-3.32,3.54,0,7.08.11,10.61-.05a4.1,4.1,0,0,1,4,2.08q14.65,21.29,29.44,42.47l50.27,72.38c.5.71,1,1.41,1.54,2.11Z"/><path class="cls-1" d="M669.63,625.08v3.16q0,56.34,0,112.66c0,4,.48,3.35-3.51,3.4-2.45,0-4.9-.08-7.35,0-1.5.07-1.94-.54-1.8-1.89,0-.54,0-1.09,0-1.63q0-64.77,0-129.54c0-4-.45-3.38,3.48-3.42,3.45,0,6.9.08,10.34-.05a4.07,4.07,0,0,1,4,2.05c10.07,14.64,20.24,29.22,30.38,43.82q24.66,35.52,49.35,71a6.71,6.71,0,0,0,1.81,2.19c.6-.93.3-1.93.3-2.85q0-56.32,0-112.66c0-4.14-.53-3.48,3.64-3.54,2.45,0,4.91.07,7.35,0,1.38-.06,1.78.51,1.67,1.75,0,.54,0,1.09,0,1.63q0,64.9,0,129.81c0,3.84.41,3.26-3.34,3.29-3.53,0-7.08-.09-10.61.05a3.85,3.85,0,0,1-3.77-1.94c-7.17-10.47-14.44-20.87-21.68-31.3l-58-83.54A6.62,6.62,0,0,0,669.63,625.08Z"/><path class="cls-1" d="M1761.51,727V610.22c0-2.35,0-2.36,2.38-2.37,2.9,0,5.81,0,8.71,0,1.16,0,1.68.37,1.58,1.55,0,.63,0,1.27,0,1.91v129.8c0,3.71.33,3.19-3.15,3.21s-7.27-.1-10.89.06a3.83,3.83,0,0,1-3.73-2q-25.07-36.24-50.24-72.4l-29.8-42.9a5,5,0,0,0-1.5-1.75c-.62.88-.33,1.87-.33,2.77q0,56.46,0,112.93c0,3.82.44,3.28-3.32,3.31-2.63,0-5.26,0-7.89,0-1,0-1.51-.35-1.45-1.41.05-.63,0-1.27,0-1.91q0-64.89,0-129.8c0-3.9-.44-3.31,3.28-3.34,3.54,0,7.09.11,10.62-.06a4.06,4.06,0,0,1,3.94,2.13q18.08,26.19,36.27,52.3,21.72,31.28,43.46,62.55A4.7,4.7,0,0,0,1761.51,727Z"/><path class="cls-1" d="M1089.14,675.67c-.09,13.27-2.57,25.62-8.8,37-10.35,18.88-26.4,30-47.43,33.86a76.2,76.2,0,0,1-40-2.89c-19.11-6.82-32.65-19.71-39.81-38.7-8-21.26-7.53-42.58,2.36-63.12,9.77-20.27,26.43-32.06,48.4-36.16,14.65-2.73,29.15-1.73,43,4,20.82,8.54,33.72,24.14,39.61,45.7A81,81,0,0,1,1089.14,675.67Zm-12.84-2.17A60.09,60.09,0,0,0,1074,658c-5.1-18.51-16.14-31.82-34.42-38.49a61.45,61.45,0,0,0-32.42-2.53c-19.73,3.53-33.78,14.47-41.45,33-6.81,16.41-7,33.26-1,49.92,5.94,16.5,17.35,27.82,34.13,33.34a62.82,62.82,0,0,0,31.15,2c16.35-2.94,29-11.33,37.6-25.65C1073.81,699.22,1076.28,687.91,1076.3,673.5Z"/><path class="cls-1" d="M1633.5,675.73c-.1,12.38-2.24,23.9-7.62,34.63-10.05,20-26.35,31.91-48.2,36.1a76,76,0,0,1-40.49-2.86c-19.1-6.86-32.61-19.78-39.74-38.78-8-21.16-7.48-42.4,2.35-62.86s26.63-32.33,48.85-36.36c14.48-2.62,28.8-1.63,42.49,4,21.76,8.91,34.79,25.34,40.29,48A81.65,81.65,0,0,1,1633.5,675.73ZM1505,678.88a60.84,60.84,0,0,0,2.35,15.59c4.8,17.23,14.9,30.08,31.59,37.14a61.29,61.29,0,0,0,35.21,3.59c18.84-3.34,32.76-13.53,40.55-31,8.52-19.15,8.28-38.64-.67-57.64-6.68-14.19-17.91-23.47-33-28a63.58,63.58,0,0,0-30.39-1.48c-15.16,2.85-27.26,10.51-35.76,23.51C1507.87,651.38,1505,663.4,1505,678.88Z"/><path class="cls-1" d="M393.33,408.79a39.56,39.56,0,1,1-39.39,39.84A39.54,39.54,0,0,1,393.33,408.79Z"/><path class="cls-1" d="M1333.58,744.31c-4.36,0-8.6,0-12.85,0-1.2,0-1.49-.73-1.84-1.6-1.77-4.37-3.58-8.72-5.37-13.08-2.68-6.53-5.4-13-8-19.61a2.69,2.69,0,0,0-2.92-2.06q-34,.09-68,0c-1.71,0-2.34.68-2.93,2.09-4.46,10.6-9,21.16-13.45,31.78-.76,1.84-1.64,2.66-3.75,2.53-3.4-.21-6.83-.06-10.19-.06-.38-1.23.29-2,.63-2.77q28.65-65.64,57.28-131.26c.82-1.89,1.74-2.64,3.78-2.48,2.44.19,4.9,0,7.34.06,3.74.06,2.86-.65,4.41,3q8.05,19,16.06,38l39,92.67A6.55,6.55,0,0,1,1333.58,744.31Zm-64.32-122.4c-10.68,25.11-21.13,49.65-31.65,74.39H1300Z"/><path class="cls-1" d="M1098.75,607.85c4,0,8.1,0,12.16,0a1.5,1.5,0,0,1,1.62,1.11c.24.68.49,1.36.74,2q20.79,56.61,41.6,113.22c.31.85.66,1.68,1,2.56,1-.67,1-1.73,1.35-2.61q21-56.67,42-113.35a6.52,6.52,0,0,0,.38-1c.31-1.47,1.07-2,2.66-2,3.71.12,7.43,0,11.24,0,.26,1.23-.41,2.16-.77,3.11q-22.62,59.56-45.28,119.1-2.27,6-4.56,11.93c-.88,2.31-.89,2.32-3.46,2.32s-5.26,0-7.89,0c-2.27,0-2.29,0-3.07-2.1q-4.31-11.44-8.57-22.9-20.28-54.34-40.55-108.69A4.48,4.48,0,0,1,1098.75,607.85Z"/><path class="cls-1" d="M1223.78,494.54v-64c0-.45,0-.91,0-1.36,0-2.93-.42-2.83,2.72-2.83h17.41c.91,0,1.82.05,2.72,0,1.21-.09,1.63.46,1.52,1.61-.05.54,0,1.08,0,1.63q0,64.9,0,129.8c0,3.56.54,3.23-3.13,3.24q-9.39,0-18.78,0c-2.44,0-2.45,0-2.45-2.55Z"/><path class="cls-1" d="M1383.28,681.88v58.77c0,.54,0,1.09,0,1.63,0,2,0,2-1.9,2-3,0-6-.07-9,0-1.52.06-1.91-.56-1.79-1.9.06-.63,0-1.27,0-1.91q0-58.9,0-117.81c0-3.4.49-3.24-3.18-3.24h-42.17c-.85,0-1.38-.23-1.37-1.21,0-3.09,0-6.17,0-9.26,0-.78.34-1.17,1.13-1.16h102c3.21,0,2.92-.32,2.93,2.91,0,2.35,0,4.71,0,7.07,0,1.12-.29,1.73-1.51,1.66-.63,0-1.26,0-1.9,0h-40c-.63,0-1.27,0-1.9,0-1,0-1.51.39-1.44,1.45,0,.63,0,1.27,0,1.9Z"/><path class="cls-1" d="M1450.82,676.08v-64.5c0-.46,0-.91,0-1.36,0-2.35,0-2.36,2.39-2.37,2.9,0,5.81,0,8.71,0,1.29,0,1.86.38,1.73,1.7a14.94,14.94,0,0,0,0,1.64V741c0,3.82.34,3.29-3.35,3.32-2.63,0-5.27,0-7.9,0-1.15,0-1.69-.37-1.58-1.57,0-.63,0-1.27,0-1.9Z"/><path class="cls-1" d="M619.54,676.08v64.78c0,.36,0,.72,0,1.09,0,2.33,0,2.34-2.38,2.35-2.9,0-5.81,0-8.71,0-1.18,0-1.67-.4-1.57-1.57,0-.54,0-1.09,0-1.63V610.21c0-2.34,0-2.35,2.38-2.36,2.9,0,5.8,0,8.71,0,1.17,0,1.67.39,1.57,1.57,0,.63,0,1.27,0,1.9Z"/><path class="cls-1" d="M339.78,754.12l-19.88-5.36-42.24-11.4c-.52-.15-1-.32-1.56-.45-.69-.18-.81-.64-.66-1.24.11-.44.23-.88.35-1.32q17.65-64.32,35.3-128.66c.72-2.62,1.38-5.26,2.16-7.86s.1-2.72,3.19-1.9c8.76,2.31,17.49,4.7,26.24,7.06l33.57,9.09a7.8,7.8,0,0,0,1.06.26c1.34.2,1.46.87,1.11,2.1-1.63,5.65-3.14,11.35-4.7,17q-16.46,60-32.94,120A6.89,6.89,0,0,1,339.78,754.12Z"/></svg>