<svg id="Layer_1" data-name="Layer 1" xmlns="http://www.w3.org/2000/svg" viewBox="0 0 1860 1160"><defs><style>.cls-1{fill:#848484;}</style></defs><title>art24-intel-gray</title><path class="cls-1" d="M898.53,904.79c-248.57,22.93-507.71-13.21-544-207.46C336.72,601.54,380.42,500,438.3,436.83V403.1C334,494.52,277.52,610.27,310.11,746.93,351.69,922.29,574,1021.58,913.49,988.61c134.36-13,310.11-56.28,432.38-123.4V769.87c-111,66.11-294.46,120.77-447.33,134.92Z"/><path class="cls-1" d="M1553.53,400.81c-59-287.94-618-306.19-978.36-86.83v24.25c360-185.09,870.54-183.9,917,81.27,15.59,87.75-33.83,179.17-122.14,231.82v68.8C1476.25,681.18,1585.18,555.16,1553.53,400.81Z"/><path class="cls-1" d="M535,729.43v-258H469.68l-.07,189.65C469.61,695.21,486.14,724.76,535,729.43Z"/><path class="cls-1" d="M802,726.83V547.75c0-36.27-19.31-76.26-76.1-76.26l-133.48-.08V726.8H657V523.59h53.48c19,0,26.86,9.35,26.86,24.56V726.83Z"/><rect class="cls-1" x="469.68" y="374.22" width="65.12" height="61.82"/><path class="cls-1" d="M1311.18,365.42H1246V655.71c0,34,16.44,63.62,65.17,68.36Z"/><path class="cls-1" d="M850.34,401.75V653.59c0,36.15,22.3,72.86,75,72.86h38.19V672.54H937.27c-15.39,0-22.37-8.17-22.37-22.94v-126h48.66V471.36H914.9V401.75Z"/><path class="cls-1" d="M1208.31,595.82c0-73.1-39.64-128.75-108.64-128.75-67.85,0-119.66,47.54-119.66,131.68,0,98.41,59.22,132.12,121.09,132.12,47.31,0,74.17-15.34,99.78-40.64l-40-38.08c-16.58,16.4-30.71,24.38-59.38,24.38-36.58,0-57.21-24.38-57.21-57.41h164Zm-164-20.76c.43-11.34,2-18.57,6.17-27.79,7.23-15.33,24.17-26.74,46.29-26.74,33.23,0,45.82,26.74,47.06,54.53Z"/></svg>