<svg id="Layer_1" data-name="Layer 1" xmlns="http://www.w3.org/2000/svg" viewBox="0 0 1860 1160"><defs><style>.cls-1{fill:#848484;}</style></defs><title>art22-quorum</title><g id="Logo_small" data-name="Logo small"><g id="Logo"><path id="Fill_62" data-name="Fill 62" class="cls-1" d="M906.31,681A74.09,74.09,0,0,1,893,631.11V556.68h29.45v79.08a41.39,41.39,0,0,0,8.32,29.2A37.19,37.19,0,0,0,959,677.67a55.37,55.37,0,0,0,40.92-20.77V556.68h29.45V702.44h-28.48V689.1a65.55,65.55,0,0,1-92.55-5.7c-.68-.77-1.35-1.55-2-2.35"/><path id="Fill_65" data-name="Fill 65" class="cls-1" d="M1317.07,553.58a53.35,53.35,0,0,0-43.7,19.84V556.68h-28.52V702.44h29.45V606a48.82,48.82,0,0,1,39.36-24.5,41.85,41.85,0,0,1,11.47,1.26V554c-2.82-.3-5.89-.45-8.06-.45"/><path id="Fill_67" data-name="Fill 67" class="cls-1" d="M1366.66,681a74.09,74.09,0,0,1-13.33-49.92V556.68h29.45v79.08a41.44,41.44,0,0,0,8.32,29.2,37.19,37.19,0,0,0,28.21,12.71,55.41,55.41,0,0,0,40.92-20.77V556.68h29.44V702.44h-28.48V689.1a65.55,65.55,0,0,1-92.55-5.7c-.68-.77-1.34-1.55-2-2.35"/><path id="Fill_70" data-name="Fill 70" class="cls-1" d="M1558,556.68v14a63.37,63.37,0,0,1,42.77-17.06,66,66,0,0,1,51.46,24.19,72.9,72.9,0,0,1,55.48-24.19,65.9,65.9,0,0,1,51.76,24.5A74.12,74.12,0,0,1,1772.84,628v74.44H1743.4V623.36a41.37,41.37,0,0,0-8.37-29.15,35.73,35.73,0,0,0-27.27-12.72,59.82,59.82,0,0,0-44.32,20.78A120.86,120.86,0,0,1,1666,628v74.44h-29.5V623.36a41.42,41.42,0,0,0-8.38-29.15,37.23,37.23,0,0,0-28.2-12.72A55.42,55.42,0,0,0,1559,602.27V702.44h-29.44V556.68Z"/><path id="Fill_72" data-name="Fill 72" class="cls-1" d="M750,705.54a111.6,111.6,0,1,1,83.8-38l31.48,35-39-.12L811.88,686.8A111,111,0,0,1,750,705.54Zm0-193.9a82.31,82.31,0,1,0,42,153.08l-38.4-42.67,21.72-19.54,38.73,43A82.25,82.25,0,0,0,750,511.69Z"/><path id="Fill_74" data-name="Fill 74" class="cls-1" d="M1137.11,705.55a76,76,0,1,1,75.94-76v0A76.06,76.06,0,0,1,1137.11,705.55Zm0-124.07a48.09,48.09,0,1,0,48.06,48.11v0A48.13,48.13,0,0,0,1137.11,581.48Z"/><g id="Group_26" data-name="Group 26"><path id="Fill_1" data-name="Fill 1" class="cls-1" d="M507.16,650.53a27.48,27.48,0,0,0-27.32,27.64v.06h0a27.33,27.33,0,1,0,27.39-27.7h-.07"/><path id="Fill_4" data-name="Fill 4" class="cls-1" d="M495.66,603a27.7,27.7,0,1,0-37.94-10.32l.16.25a27.62,27.62,0,0,0,37.74,10.09l0,0"/><path id="Fill_6" data-name="Fill 6" class="cls-1" d="M155.2,555.19a27.7,27.7,0,1,0,10.07,37.86h0V593a27.7,27.7,0,0,0-10.08-37.77"/><path id="Fill_8" data-name="Fill 8" class="cls-1" d="M211.79,536.3a27.68,27.68,0,1,0-13.6-51.81l-.05,0-.47.28a27.7,27.7,0,0,0,14.12,51.5"/><path id="Fill_10" data-name="Fill 10" class="cls-1" d="M310.74,454.05a27.7,27.7,0,0,0,0,55.4h0a27.7,27.7,0,0,0,0-55.4"/><path id="Fill_12" data-name="Fill 12" class="cls-1" d="M395.57,532.41l.35.21a26.66,26.66,0,1,0-.35-.21"/><path id="Fill_14" data-name="Fill 14" class="cls-1" d="M115,650.53a27.7,27.7,0,0,0-28.16,27.12v.56A27.63,27.63,0,1,0,115,650.53"/><path id="Fill_17" data-name="Fill 17" class="cls-1" d="M414.72,650.46a27.7,27.7,0,0,0-27.7,27.7h0a27.7,27.7,0,1,0,27.7-27.7"/><path id="Fill_19" data-name="Fill 19" class="cls-1" d="M272.52,611.43A27.7,27.7,0,0,0,245,563.49l-.16.1a27.7,27.7,0,1,0,27.7,47.84"/><path id="Fill_21" data-name="Fill 21" class="cls-1" d="M350.56,611.43a27.7,27.7,0,0,0,27.7-47.84l-.14-.09a27.7,27.7,0,0,0-27.56,47.93"/><path id="Fill_23" data-name="Fill 23" class="cls-1" d="M206.71,650.55a27.7,27.7,0,1,0,27.63,27.78v-.08h0a27.62,27.62,0,0,0-27.53-27.7h-.1"/></g></g></g></svg>