<svg id="Layer_1" data-name="Layer 1" xmlns="http://www.w3.org/2000/svg" xmlns:xlink="http://www.w3.org/1999/xlink" viewBox="0 0 1860 1160"><defs><style>.cls-1{fill:none;}.cls-2{clip-path:url(#clip-path);}.cls-3{clip-path:url(#clip-path-2);}.cls-4{fill:#848484;}</style><clipPath id="clip-path"><rect class="cls-1" x="177.13" y="427.04" width="1582.77" height="305.93"/></clipPath><clipPath id="clip-path-2"><rect class="cls-1" x="177.13" y="427.04" width="1582.77" height="305.93"/></clipPath></defs><g id="Artwork_56" data-name="Artwork 56"><g class="cls-2"><g class="cls-3"><path class="cls-4" d="M413.68,677.37q-1.41-15.69-3-36.31t-3.28-43.15q-1.64-22.53-3.24-45.34t-2.73-42.7q-6.06,18.61-12.26,37.41T377.36,583q-5.57,16.88-10.3,30.56t-7.66,22.08q-3.11,5.65-6.3,10.76a69.54,69.54,0,0,1-6.57,8.94,32.69,32.69,0,0,1-6.93,6.11,13.49,13.49,0,0,1-7.4,2.28,15.61,15.61,0,0,1-8.55-2.19,9.56,9.56,0,0,1-4.29-6.56,16.82,16.82,0,0,1-.24-1.74,5.76,5.76,0,0,1,.12-1.73q-6.14-25.9-11.8-52.27t-10.63-51.91l-2.34-12q-1.17-6-2.12-11.86-4.11,16.43-9.25,34.12T272,592.43q-6,17.25-12.71,33.21a289.26,289.26,0,0,1-14.07,29,142.3,142.3,0,0,1-15.1,22.26q-7.8,9.23-15.84,12.87a83.56,83.56,0,0,1-12.45,4.47,40.17,40.17,0,0,1-9.77,1.36q-6.57,0-10.28-2.64a10.32,10.32,0,0,1-4.45-6.48,13.44,13.44,0,0,1,2-9.49,18.87,18.87,0,0,1,9.27-7.66q7.76-3.29,15.52-14.5a185.68,185.68,0,0,0,15.23-27.28q7.47-16.06,14.4-35.77t13.13-39.95q6.19-20.26,11.36-39.69T267.29,477q3.88-15.69,6.32-26.18c1.62-7,2.63-11.34,3-13.05q1.46-5.66,5.52-8.21A16.25,16.25,0,0,1,291,427q6.57,0,9.81,3.55t5,12.68q3.69,11.5,6.66,21.62t5.78,20.81q2.79,10.67,5.47,23t5.78,28.37q2.24,11.49,4.47,25.36t5.57,31q14.18-39.78,25.15-70.16t19.48-50.9q8.52-20.53,15-31t11.65-10.49h1.28a5.46,5.46,0,0,0,1.07-.1,7.74,7.74,0,0,1,1.08-.09q4.38,0,8,5.48a39.45,39.45,0,0,1,5.32,14.23q1,8.94,2.13,22.26t2.31,29.28q1.2,16,2.44,33.67t2.44,35.12q1.2,17.43,2.47,33.85T442,634.31a31.43,31.43,0,0,0,.57,4.83c.32,1.65.64,3.32,1,5q.91,4.76,2,9.58c.74,3.22,1.43,6.42,2,9.58q1.06,5.48,1.6,11a23.16,23.16,0,0,1-1.06,10,14,14,0,0,1-6.34,7.3q-4.74,2.84-14.05,2.83a11.6,11.6,0,0,1-8.57-3.74q-3.65-3.74-5.52-13.41"/><path class="cls-4" d="M1759.23,630.11a15.75,15.75,0,0,0-5-7.66c-2.37-2-4.66-2.92-6.85-2.92a6.84,6.84,0,0,0-2.74.55,4,4,0,0,0-2,1.82q-2.88,4.76-8.08,11.77a119.88,119.88,0,0,1-11.65,13.5,73.43,73.43,0,0,1-14,11,28.94,28.94,0,0,1-15.17,4.56,18.79,18.79,0,0,1-6.82-1.09c-1.87-.73-3.23-2.43-4.06-5.11a18.77,18.77,0,0,1-.39-9.4,50.13,50.13,0,0,1,3-9.76,88.21,88.21,0,0,1,4.32-8.94q2.34-4.2,3.67-6.93a69.19,69.19,0,0,0,6.11-18.07,41.92,41.92,0,0,0-1.49-20.8,32.84,32.84,0,0,0-15.3-19.43,38.74,38.74,0,0,0-11.11-4.29,55.85,55.85,0,0,0-11.89-1.27,46.25,46.25,0,0,0-14.33,2,41.49,41.49,0,0,0-10.85,5.29,47.6,47.6,0,0,0-8.36,7.39,86.45,86.45,0,0,0-6.52,8.31,36,36,0,0,0-6-10.59,33.37,33.37,0,0,0-8.07-7.11,33.73,33.73,0,0,0-9.37-4,40.34,40.34,0,0,0-10.07-1.27,47.28,47.28,0,0,0-17.52,2.91,45.31,45.31,0,0,0-12.55,7.39,61.29,61.29,0,0,0-9.26,9.77q-4,5.29-7.5,9.85a27.7,27.7,0,0,0-1.07-10.4,18.43,18.43,0,0,0-6.61-9.76,15.54,15.54,0,0,0-9.18-3.38,13.64,13.64,0,0,0-9.47,3.83q-4.18,3.84-5,11.68-.74,6.39-2,15.42t-2.73,19.25c-.28,1.94-.56,3.91-.83,5.86q-7.83,11.67-15.19,20.78c-2.12,2.55-4.33,5.08-6.66,7.57a80.59,80.59,0,0,1-6.94,6.66,39.81,39.81,0,0,1-6.67,4.65,12.51,12.51,0,0,1-5.93,1.73,9.12,9.12,0,0,1-7.32-3.55,26.5,26.5,0,0,1-4.65-9,50.24,50.24,0,0,1-1.89-10.13q-.59-5.92-.69-12.68t.16-13.78c.17-4.68.38-9.18.6-13.5s.44-8.24.61-11.77.2-6.44.08-8.76a9.44,9.44,0,0,0-.44-2q-1.42-4.56-7-8.4a21.62,21.62,0,0,0-12.51-3.83,14.39,14.39,0,0,0-4.89,1,40.09,40.09,0,0,0-5,2.29c-1.89,1-3.69,2-5.42,3.1a78.63,78.63,0,0,0-10.39-6.39,80.92,80.92,0,0,0-11.59-4.38,50.87,50.87,0,0,0-14.67-2q-15.51,0-26.42,5.38a53.89,53.89,0,0,0-18,14.05,62.78,62.78,0,0,0-10.92,19.61,98.15,98.15,0,0,0-4.92,22.17,114.05,114.05,0,0,0-.52,16.32c-2,1.38-4.15,2.91-6.62,4.57q-6,4-13.49,8.49t-15.74,8.3a110.29,110.29,0,0,1-17,6.29,63.77,63.77,0,0,1-17.2,2.47,28.62,28.62,0,0,1-13.53-3,18.41,18.41,0,0,1-8.25-8.31q21.95-9.12,35.64-18.15t20.82-17.7q7.14-8.67,8.53-17.06a34.38,34.38,0,0,0-1-16.06q-4-12.94-13.82-20.25t-24.91-7.3a74,74,0,0,0-25.78,4.2A67.71,67.71,0,0,0,1203,572.82a65.86,65.86,0,0,0-14.07,16,76.81,76.81,0,0,0-8.52,18.52,69.4,69.4,0,0,0-3,18.89,58.1,58.1,0,0,0,.83,11.15l-.82.25a57.58,57.58,0,0,1-16,2.19,23,23,0,0,1-4.71-.45,7.9,7.9,0,0,1-4-2.47,55.83,55.83,0,0,0,2.68-12.68,125.2,125.2,0,0,0,.71-14,118,118,0,0,0-.66-12.31,47.54,47.54,0,0,0-1.19-7.3,42.48,42.48,0,0,0-7.44-14.14,52,52,0,0,0-23.74-16.7,38.51,38.51,0,0,0-12.18-2.19,52.12,52.12,0,0,0-15,2.1,66.15,66.15,0,0,0-13.07,5.47,77.15,77.15,0,0,0-11.28,7.67,114.74,114.74,0,0,0-9.64,8.85q5.34-26.1,9-52.82t9.06-52.64a48.19,48.19,0,0,0,1.53-7.94,19.23,19.23,0,0,0-.66-7.94,15.79,15.79,0,0,0-5.89-8q-4.41-3.27-12.8-3.28a18.85,18.85,0,0,0-6.16,1,17.38,17.38,0,0,0-5.07,2.74,16.27,16.27,0,0,0-3.61,3.92,11.47,11.47,0,0,0-1.76,4.56l-16.2,118.42c-.47,3.17-.82,5.75-1,7.76s-.4,3.77-.54,5.29-.25,3-.36,4.38-.23,3-.37,4.92-.34,4.17-.6,6.84-.61,6-1,10c-.34,3.43-.5,6.94-.5,10.5q-5.32,5.21-11.75,10.39a177.05,177.05,0,0,1-16.17,11.59,114.44,114.44,0,0,1-17.31,9.12,7.47,7.47,0,0,1-3.41,1.92,16.81,16.81,0,0,1-2.84.27,4.78,4.78,0,0,1-3.26-1.1,5.53,5.53,0,0,1-1.71-2.55,8.8,8.8,0,0,1,.26-6.75q.79-3.29,2.42-8.3t3.57-11q1.93-6,3.72-12.86a120,120,0,0,0,2.75-14,86,86,0,0,0,.74-14.23,50.63,50.63,0,0,0-2.28-13.69q-3.48-11.13-11.41-15.78a34.19,34.19,0,0,0-17.61-4.65,57.69,57.69,0,0,0-17.3,2.73,87.69,87.69,0,0,0-16.41,7,69.3,69.3,0,0,0-13.48,9.67,35.5,35.5,0,0,0-8.21,10.49,22.28,22.28,0,0,0,.18-5.84,27.17,27.17,0,0,0-1.06-5.11,17.58,17.58,0,0,0-6.4-9.4,15.26,15.26,0,0,0-8.85-3.19,14,14,0,0,0-9.57,3.83q-4.27,3.84-5.46,11.68c-.28,1.89-.6,4-1,6.22a2.78,2.78,0,0,0-1.48,1.08q-1.51,2.73-3.85,6.66t-5.33,8.3q-3,4.38-6.57,8.76a68.73,68.73,0,0,1-7.39,7.84,41.81,41.81,0,0,1-7.81,5.66,16.1,16.1,0,0,1-7.8,2.19,16.45,16.45,0,0,1-5.39-.91,15.54,15.54,0,0,1-5.17-3.1,86.14,86.14,0,0,0-.22-14.69,64.64,64.64,0,0,0-2.46-12.5,45.48,45.48,0,0,0-10-17.79,57.78,57.78,0,0,0-14.85-11.59A62.54,62.54,0,0,0,768,559.5a74.65,74.65,0,0,0-15.44-1.82q-16,0-27.56,5.2a55.87,55.87,0,0,0-19.07,13.68,61,61,0,0,0-11.61,19.16,95.52,95.52,0,0,0-5.48,21.53,98.54,98.54,0,0,0-.61,21.07,81.25,81.25,0,0,0,3.11,17.52,50.07,50.07,0,0,0,9.91,18.25,61.84,61.84,0,0,0,14.11,12.13,57.43,57.43,0,0,0,14.94,6.66,49.4,49.4,0,0,0,12.49,2,82.34,82.34,0,0,0,24.4-3.37,67,67,0,0,0,19.32-9.4,58.15,58.15,0,0,0,14.19-14.41,73.25,73.25,0,0,0,9.13-18.61,47.45,47.45,0,0,0,10.52,4.74,33.63,33.63,0,0,0,9.67,1.46,22.38,22.38,0,0,0,12.67-3.83,50.72,50.72,0,0,0,10.4-9.31l.18-.22q-1.05,6.81-1.83,13-1.17,9.12-1.55,16.05c-.25,4.63-.06,8,.59,10a20.32,20.32,0,0,0,6.74,9.85,17.28,17.28,0,0,0,11.29,4q6.19,0,9.08-3.92a27.19,27.19,0,0,0,4.3-9.85,118.81,118.81,0,0,0,2.3-12.77,82.73,82.73,0,0,1,2.63-12.87q3-8.94,7.16-20.25a129.36,129.36,0,0,1,10.08-21.44,64.37,64.37,0,0,1,14.27-17.06,30.21,30.21,0,0,1,20-6.93,7.66,7.66,0,0,1,5.25,1.91,10.32,10.32,0,0,1,3,4.66,17.72,17.72,0,0,1,.14,8q-.84,4.93-2.42,11.23t-3.58,13.32q-2,7-3.51,14.14a107.72,107.72,0,0,0-2.05,13.86,38.74,38.74,0,0,0,.88,12.41c.18,1,.37,1.86.55,2.65s.42,1.61.68,2.46q3,9.67,9.18,15t15.83,5.38a36.62,36.62,0,0,0,7-.72,63.86,63.86,0,0,0,8-2.19,133.88,133.88,0,0,0,21.46-8.67,128.47,128.47,0,0,0,16.2-10A160.18,160.18,0,0,0,1029,661.68l1-.92a71.31,71.31,0,0,0,5.77,12,51.31,51.31,0,0,0,10.84,12.77,49.88,49.88,0,0,0,15.12,8.67,57.27,57.27,0,0,0,19.8,3.19q20.25,0,35-8.67t24.39-27.28A33.25,33.25,0,0,0,1151,666.6a38.63,38.63,0,0,0,11.28,1.65,76.42,76.42,0,0,0,17.37-1.92c3.3-.77,6.51-1.71,9.65-2.78a77.22,77.22,0,0,0,13.78,15.83,67.77,67.77,0,0,0,18,11.31,52.1,52.1,0,0,0,20.75,4.19,91.91,91.91,0,0,0,24.85-3.37,135.36,135.36,0,0,0,22.61-8.48,151.32,151.32,0,0,0,19.48-11.23q6.59-4.5,11.85-8.66a44.39,44.39,0,0,0,7.42,12.22,57.2,57.2,0,0,0,13,11.31A53.46,53.46,0,0,0,1355,693a44.75,44.75,0,0,0,11.64,1.91,34.36,34.36,0,0,0,17-4.28,56.88,56.88,0,0,0,13.91-11,80.2,80.2,0,0,0,10.88-14.78,147.28,147.28,0,0,0,7.92-15.78,29.34,29.34,0,0,0,.38,7,56.53,56.53,0,0,0,1.82,7.57,57.16,57.16,0,0,0,5,11.41,47.63,47.63,0,0,0,7.59,9.94,38.06,38.06,0,0,0,9.8,7.12,25.83,25.83,0,0,0,11.8,2.73,32.07,32.07,0,0,0,14.09-3.37,73,73,0,0,0,13.62-8.67A108.38,108.38,0,0,0,1493,671.07c1.42-1.55,2.79-3.11,4.13-4.65-.07,1.46-.13,2.86-.17,4.2-.13,4.62.14,8,.83,10.22a20.85,20.85,0,0,0,7,10,18,18,0,0,0,11.72,4.2q6,0,8.75-4.11a29.52,29.52,0,0,0,4-10.12,94,94,0,0,0,1.82-13.14,84.13,84.13,0,0,1,1.91-13.14q1.82-5.84,4-12.95t4.91-14.33a118.85,118.85,0,0,1,6.4-13.95,58.82,58.82,0,0,1,8.39-12,40.41,40.41,0,0,1,10.69-8.39,27.82,27.82,0,0,1,13.41-3.19,8,8,0,0,1,5.35,1.91,10.33,10.33,0,0,1,3.15,4.84,13.35,13.35,0,0,1,.59,5.38,28.17,28.17,0,0,1-1.17,5.57q-3.14,10.39-7.13,20.34t-7,19.61a104.41,104.41,0,0,0-4.06,18.8,42.77,42.77,0,0,0,1.67,17.88,12.92,12.92,0,0,0,2.93,4.38,21.22,21.22,0,0,0,4.55,3.47,24.91,24.91,0,0,0,5.37,2.28,18.33,18.33,0,0,0,5,.82q6,0,8.75-4.11a29.52,29.52,0,0,0,4-10.12,94,94,0,0,0,1.82-13.14,85.33,85.33,0,0,1,1.91-13.14q1.82-5.84,4-12.95t4.91-14.33a118.85,118.85,0,0,1,6.4-13.95,58.82,58.82,0,0,1,8.39-12,40.41,40.41,0,0,1,10.69-8.39,27.85,27.85,0,0,1,13.41-3.19,8,8,0,0,1,5.35,1.91,10.26,10.26,0,0,1,3.15,4.84,13.17,13.17,0,0,1,.59,5.38,28.17,28.17,0,0,1-1.17,5.57,82.41,82.41,0,0,1-5.51,13.86,148.22,148.22,0,0,0-6.28,14.33,64.42,64.42,0,0,0-3.75,15.41,41,41,0,0,0,1.9,17.16q4.35,13.86,14.65,20.25a44.16,44.16,0,0,0,23.8,6.38,48.65,48.65,0,0,0,19.63-4,78.84,78.84,0,0,0,17.64-10.67,122.31,122.31,0,0,0,16-15.33q7.59-8.67,14.47-18.15a17.31,17.31,0,0,0,4.8-8.58,16.43,16.43,0,0,0-.33-8m-980.42.37a41.07,41.07,0,0,1-4.74,16.33,33.14,33.14,0,0,1-10.48,11.67A25.76,25.76,0,0,1,748.66,663a18.38,18.38,0,0,1-9.5-2.37,24.89,24.89,0,0,1-6.88-5.93A35.27,35.27,0,0,1,727.6,647a70,70,0,0,1-2.91-7.57,45.15,45.15,0,0,1-2-18.16,40.47,40.47,0,0,1,4.79-15.87A31.64,31.64,0,0,1,738,594.08a27.2,27.2,0,0,1,15.17-4.29,20.21,20.21,0,0,1,9.6,2.1,22.37,22.37,0,0,1,6.7,5.38,29,29,0,0,1,4.45,7.21,79.23,79.23,0,0,1,2.82,7.57,47.27,47.27,0,0,1,2.12,18.43m344.79-4.29a46.57,46.57,0,0,1-6.79,18.52,41.3,41.3,0,0,1-13.65,13.23,36.25,36.25,0,0,1-19,5,23.23,23.23,0,0,1-9.27-1.64,19.91,19.91,0,0,1-6.33-4.19,21.57,21.57,0,0,1-4-5.57,42.41,42.41,0,0,1-3.65-26.82,48.57,48.57,0,0,1,7.8-18.52A44.12,44.12,0,0,1,1083.28,593a38.28,38.28,0,0,1,19.23-5,16.56,16.56,0,0,1,7.84,1.74,19.3,19.3,0,0,1,5.53,4.28,23,23,0,0,1,3.69,5.66,51.75,51.75,0,0,1,2.29,5.84,46.09,46.09,0,0,1,1.74,20.71m90.45,6.84c0-2.31.17-5.17.51-8.57a76.76,76.76,0,0,1,1.85-10.68,94.58,94.58,0,0,1,3.52-11.22,36.58,36.58,0,0,1,5.77-10.13,28,28,0,0,1,8.78-7.2,25.39,25.39,0,0,1,12.1-2.74h1.64a9.56,9.56,0,0,1,1.7.18,10.69,10.69,0,0,1,4.55,2,8.31,8.31,0,0,1,3.1,4.38c.69,2.19.46,4.77-.67,7.75s-3.91,6.18-8.31,9.58q-1.48,1.1-5,4.2t-8.32,6.93q-4.83,3.84-10.36,8a132,132,0,0,1-10.88,7.48m190.34-19.7a88.57,88.57,0,0,1-3.52,11.49,125.71,125.71,0,0,1-5.77,13,93.4,93.4,0,0,1-7.39,12.22,49.29,49.29,0,0,1-8.27,9.12c-2.85,2.38-5.61,3.56-8.29,3.56a17,17,0,0,1-8.8-2.19,23.61,23.61,0,0,1-6.37-5.47,30.17,30.17,0,0,1-4.35-7.21,76.78,76.78,0,0,1-2.83-7.57,44.2,44.2,0,0,1-1.92-17.79,40.43,40.43,0,0,1,4.85-16,32.39,32.39,0,0,1,10.64-11.5,27.05,27.05,0,0,1,15.23-4.38,32.45,32.45,0,0,1,7.15,1,40.14,40.14,0,0,1,8.34,3,34.15,34.15,0,0,1,7.35,4.84,13.89,13.89,0,0,1,4.34,6.29c.5,1.59.37,4.08-.39,7.49"/><path class="cls-4" d="M587.13,555.53a65,65,0,0,0-65,65h0a.57.57,0,0,0,0,.13v.1a3.2,3.2,0,0,0,3.2,3H648.94a3.2,3.2,0,0,0,3.2-3,.34.34,0,0,1,0-.1v-.13h0a65,65,0,0,0-65-65"/><path class="cls-4" d="M479.08,693.14a4,4,0,1,1-4-4,4,4,0,0,1,4,4"/><path class="cls-4" d="M644.64,671.25H512a3.9,3.9,0,0,0-3.43,5.75l.06.12a3.9,3.9,0,0,0,3.43,2H644.58a3.9,3.9,0,0,0,3.43-2l.06-.12a3.9,3.9,0,0,0-3.43-5.75"/><path class="cls-4" d="M662.27,635.38H512a3.91,3.91,0,0,0-3.89,4.12s0,.08,0,.12a3.89,3.89,0,0,0,3.89,3.67H662.26a3.89,3.89,0,0,0,3.89-3.67.49.49,0,0,0,0-.12,3.9,3.9,0,0,0-3.89-4.12"/><path class="cls-4" d="M605.68,725.05H538a3.9,3.9,0,0,0-1.74,7.39l.25.12a3.89,3.89,0,0,0,1.74.4h67.22a3.86,3.86,0,0,0,1.74-.4l.25-.12a3.9,3.9,0,0,0-1.74-7.39"/><path class="cls-4" d="M647.06,707.12H579.34a3.9,3.9,0,0,0-1.74,7.38l.25.12a3.9,3.9,0,0,0,1.74.41h67.23a3.86,3.86,0,0,0,1.73-.41l.25-.12a3.89,3.89,0,0,0-1.74-7.38"/><path class="cls-4" d="M554.72,695.85l-.12-.12a3.9,3.9,0,0,1,2.86-6.55H667.38a3.89,3.89,0,0,1,2.85,6.55l-.11.12a3.91,3.91,0,0,1-2.86,1.24H557.57a3.91,3.91,0,0,1-2.85-1.24"/><path class="cls-4" d="M489.25,689.18h52.49a3.9,3.9,0,0,1,1.74,7.39l-.25.12a3.89,3.89,0,0,1-1.74.4h-52a3.89,3.89,0,0,1-1.74-.4l-.25-.12a3.9,3.9,0,0,1,1.74-7.39"/><path class="cls-4" d="M501.82,639.33a4,4,0,1,1-4-4,4,4,0,0,1,4,4"/><path class="cls-4" d="M595.09,658.34l0-.13a3.89,3.89,0,0,0-3.76-4.9H481.43a3.9,3.9,0,0,0-3.77,4.9l0,.13a3.92,3.92,0,0,0,3.77,2.88H591.32a3.9,3.9,0,0,0,3.77-2.88"/><path class="cls-4" d="M471.25,657.27a4,4,0,1,1-4-4,4,4,0,0,1,4,4"/><path class="cls-4" d="M501.82,675.2a4,4,0,1,1-4-4,4,4,0,0,1,4,4"/><path class="cls-4" d="M569.16,711.07a4,4,0,1,1-3.95-4,4,4,0,0,1,3.95,4"/><path class="cls-4" d="M527.78,729a4,4,0,1,1-3.95-4,4,4,0,0,1,3.95,4"/></g></g></g></svg>