<svg id="Layer_1" data-name="Layer 1" xmlns="http://www.w3.org/2000/svg" viewBox="0 0 1860 1160"><defs><style>.cls-1{fill:#898989;}.cls-2{fill:#c6c6c6;}.cls-3{fill:#848484;}</style></defs><title>art21-runtime</title><path class="cls-1" d="M109.82,590.24c8.39-50.78,23.56-98.88,54.67-140.72,18.27-24.57,40.57-44.36,71.1-51.93,39.12-9.7,71.37,4.39,99.42,31a143.09,143.09,0,0,1,19.26,22.59c-17.49,2.55-29.85,10.63-35,27.13a37,37,0,0,0,61.81,36.83c1.81-1.81,3.53-3.72,5.3-5.58a383.64,383.64,0,0,1,25.8,127.38c-1.54-.39-3.08-.82-4.64-1.18-22.35-5.1-41.83,6.38-46.82,27.58-4.77,20.24,8,39.36,29.74,44.57,1.73.42,3.92-.06,5.26,2.47-12.55,17.29-29.35,29.49-48.91,37.74-53,22.38-107.13,23.77-161.36,5.63-40.34-13.5-71.14-37.48-79.82-82.31a166,166,0,0,1-1.37-38.95C104.78,626.74,107.93,601.65,109.82,590.24Z"/><path class="cls-2" d="M412.17,636.93a383.64,383.64,0,0,0-25.8-127.38c9.92-23.62,4.75-43.45-14.34-53.33-4.78-2.48-10.26-3.58-16.13-5.56,10.5-16.05,25.22-27.52,42.2-35.17,64.45-29,129.4-29.58,192.89,2.05,37.25,18.55,56.91,49.23,55.7,92.69-1.91,68.5-15,133.65-53.23,191.76-18.24,27.74-41.53,50-74.37,60.13-6.61,2-8.45,3-24.17,3.39s-19-1-22.8-2c-32-7.81-54.71-28-74.59-53.95,8.77-2.34,16.22-4.12,22.55-9C438.94,686,440.65,651.8,412.17,636.93Z"/><path class="cls-3" d="M761.81,461.3l-.87,18.78c6.11-17,14-21.83,36.46-21.62v29.26a55.3,55.3,0,0,0-7.86-.43c-10.7,0-19.43,4.8-22.93,12.66-3.05,7-4.15,16.82-4.15,37.12v29.7h-31V461.3Z"/><path class="cls-3" d="M902.87,566.77H873.39V555.2c-7.42,10.48-15.07,14.41-27.95,14.41-10.92,0-21-3.93-28-10.92-7.21-7.2-10-16.16-10-31.22V461.3h31v59.4c0,10.26.44,12.88,3.28,16.59,2.84,3.93,7.86,6.12,13.54,6.12s10.48-2.19,13.32-6.12c2.84-3.71,3.27-6.11,3.27-16.59V461.3h31Z"/><path class="cls-3" d="M954.23,461.3v10.27c11.35-10.49,17.9-13.32,28.82-13.32,22.93,0,36.9,15.28,36.9,40.17v68.35H989V509.34c0-10.7-.66-14.85-3.28-18.78s-7.21-6.11-12.66-6.11a17.43,17.43,0,0,0-13.32,5.68c-3.5,3.93-4.59,8.29-4.59,17.47v59.17h-31V461.3Z"/><path class="cls-3" d="M1094.48,484.45h-19V525.5c0,16.6.66,17.91,7.86,17.91h11.14v23.36h-19c-13.54,0-20.31-2-24.89-7-4.81-5.25-6.12-10.92-6.12-27.3v-48h-14.84V462.61h14.84V429.2h31v33.41h19Z"/><path class="cls-3" d="M1141,446.67h-31V421.12h31Zm0,120.1h-31V461.3h31Z"/><path class="cls-3" d="M1192,461.3V474c9.82-12,16.37-15.51,29-15.51,13.54,0,23.14,5.46,29.26,17,11.35-12.89,19.21-17,32.75-17,10.92,0,20.09,3.5,26.21,9.83,5.89,6.33,8.3,14.85,8.3,28.39v70.09h-31V508.69c0-16.16-4.81-23.37-15.51-23.37-10.91,0-15.72,7.21-15.72,23.37v58.08h-31V508.69c0-16.16-4.8-23.37-15.72-23.37-10.7,0-15.72,7.21-15.72,23.37v58.08h-31V461.3Z"/><path class="cls-3" d="M1364.37,523.1c2,14.41,10.48,22.27,23.8,22.27,8.3,0,14.2-2.84,18.35-9.39H1438c-5.89,20.53-25.55,33.63-50.66,33.63-32.54,0-54.15-22.27-54.15-55.46,0-33,22-55.69,53.93-55.69,22.28,0,39.09,11.14,47,31,3.71,9.17,5.24,19,5.24,33.63Zm43-21.84c-1.31-12.44-8.52-19.21-20.53-19.21s-19.87,6.77-22.27,19.21Z"/><path class="cls-3" d="M756.13,747.74,718.35,642.27h32.54l11.79,40.4c2.19,7.43,4.81,17.47,8.3,30.35,2.4-11.79,5-24,6.55-30.35l10.7-40.4h33.19L785.61,747.74Z"/><path class="cls-3" d="M852.52,704.07c2,14.41,10.48,22.27,23.8,22.27,8.3,0,14.19-2.83,18.34-9.39h31.45c-5.9,20.53-25.55,33.63-50.67,33.63-32.53,0-54.15-22.27-54.15-55.46,0-33,22.06-55.68,53.94-55.68,22.27,0,39.08,11.13,46.94,31,3.72,9.17,5.25,19,5.25,33.63Zm43-21.84C894.22,669.79,887,663,875,663s-19.87,6.77-22.28,19.21Z"/><path class="cls-3" d="M973.55,642.27l-.87,18.78c6.11-17,14-21.83,36.47-21.61V668.7a54.05,54.05,0,0,0-7.86-.44c-10.7,0-19.44,4.8-22.93,12.66-3.06,7-4.15,16.82-4.15,37.13v29.69h-31V642.27Z"/><path class="cls-3" d="M1050.18,627.64h-31V602.1h31Zm0,120.1h-31V642.27h31Z"/><path class="cls-3" d="M1127.89,665.42H1107.8v82.32h-31V665.42h-14.63V643.58h14.63v-7.64c0-22.71,11.14-33.84,34.07-33.84h17v24.67h-9.17c-7.21,0-10.92,3.28-10.92,9.39v7.42h20.09Z"/><path class="cls-3" d="M1169.29,627.64h-31V602.1h31Zm0,120.1h-31V642.27h31Z"/><path class="cls-3" d="M1257.62,680.27c-1.75-10-8.74-15.72-19.22-15.72-14.19,0-21.83,10.7-21.83,29.91,0,20.31,7.64,31,22,31,11.14,0,17.25-5.68,19.65-18.12l30.14,1.53c-4.37,26.64-22.71,41.7-50.66,41.7-32.1,0-52.41-21.4-52.41-55.24,0-34.94,20.09-55.9,53.5-55.9,27.51,0,46.29,15.72,48.26,40.83Z"/><path class="cls-3" d="M1302.53,675.47c2-24.24,17-36,46.73-36,16,0,28.17,3.71,36.47,10.91,7.64,6.77,10.48,15.29,10.48,30.79v48.48c0,11.36.44,12.88,3.93,18.12h-31.66c-1.31-3.71-1.31-4.36-2.4-8.29-10.26,8.51-17.69,11.13-30.14,11.13-23.36,0-38.86-13.1-38.86-33s12.44-30.13,41.92-34.94l16.82-2.84c7-1.09,9.39-2.84,9.39-7.2,0-5.9-6.12-9.61-16.16-9.61-11.36,0-17.47,3.93-18.78,12.45Zm63.55,22a61.82,61.82,0,0,1-11.36,3.28l-11.13,2.4c-11.14,2.62-15.94,6.33-15.94,12.66,0,7,5.89,11.14,15.72,11.14,10.26,0,17.69-4.37,22.71-13.32Z"/><path class="cls-3" d="M1470.57,665.42h-19v41.05c0,16.6.65,17.91,7.86,17.91h11.14v23.36h-19c-13.54,0-20.31-2-24.9-7-4.8-5.24-6.11-10.92-6.11-27.3v-48h-14.85V643.58h14.85V610.17h31v33.41h19Z"/><path class="cls-3" d="M1517,627.64h-31V602.1h31Zm0,120.1h-31V642.27h31Z"/><path class="cls-3" d="M1644.75,695.77c0,31.89-23.58,54.81-56.12,54.81-32.75,0-55.9-22.92-55.9-55.68,0-32.54,23.15-55.46,55.9-55.46C1622,639.44,1644.75,662.15,1644.75,695.77ZM1564,694.9c0,19.87,9,31,24.89,31,15.51,0,24.68-11.14,24.68-30.35,0-20.31-8.74-31.45-24.9-31.45C1572.91,664.11,1564,675.25,1564,694.9Z"/><path class="cls-3" d="M1690.59,642.27v10.27c11.35-10.48,17.9-13.32,28.82-13.32,22.93,0,36.9,15.28,36.9,40.18v68.34h-31V690.31c0-10.7-.66-14.84-3.28-18.77s-7.21-6.12-12.66-6.12a17.46,17.46,0,0,0-13.32,5.68c-3.5,3.93-4.59,8.3-4.59,17.47v59.17h-31V642.27Z"/></svg>