<svg id="Layer_1" data-name="Layer 1" xmlns="http://www.w3.org/2000/svg" viewBox="0 0 500 150"><defs><style>.cls-1{fill:#8c8c8c;}.cls-2{fill:#464646;}</style></defs><title>Artboard 11x</title><polygon class="cls-1" points="203.65 103.72 178.53 103.72 178.53 85.58 172.16 85.58 172.16 128.17 178.53 128.17 178.53 109.68 203.65 109.68 203.65 128.17 210.02 128.17 210.02 85.58 203.65 85.58 203.65 103.72"/><path class="cls-1" d="M241.35,113.26c0,5.81-3.84,10-9.13,10-5.52,0-9.38-4.12-9.38-10s3.86-10,9.38-10c5.29,0,9.13,4.21,9.13,10m-.12-10.87c-1.17-1.65-4.17-4.76-10-4.76-7.23,0-14.56,5.37-14.56,15.63,0,9.2,6,15.62,14.56,15.62a11.71,11.71,0,0,0,10-4.95v4.24h6V98.35h-6Z"/><path class="cls-1" d="M271.31,110.34l-2.68-.29c-1.16-.13-2.21-.24-3.58-.41-4.2-.5-4.69-2.22-4.69-3.47,0-2.1,2.44-3.4,6.36-3.4,5.24,0,7.32,2.47,8,3.31l.1.11h6.32l-.14-.41c-.79-2.49-3.78-8.26-14.31-8.26-7.36,0-12.31,3.54-12.31,8.83,0,5.07,3.5,8.26,9.86,9l6.26.71c4.08.48,4.92,1.88,4.92,3.82,0,2.31-2.71,3.75-7.07,3.75-6,0-8.23-3.17-8.5-4l-.07-.22h-6.37l.09.4c.09.37,2.4,9.22,14.85,9.22,7.82,0,13.08-3.66,13.08-9.12,0-5.62-3.22-8.65-10.15-9.54"/><path class="cls-1" d="M303.77,97.69a11.44,11.44,0,0,0-9.61,5.15V84h-6v44.13h6V112.08c0-5.26,3.34-8.78,8.31-8.78s8,3.44,8,8.78v16.09h6.07v-17.1c0-7.87-5.26-13.38-12.79-13.38"/><path class="cls-1" d="M338.81,123.34c-5.53,0-9.55-4.21-9.55-10s3.93-10.08,9.55-10.08,9.43,4.14,9.43,10.08-4,10-9.43,10m9.31-20.91a12.46,12.46,0,0,0-10.31-4.8c-8.68,0-14.74,6.45-14.74,15.69s6.06,15.62,14.74,15.62A12.39,12.39,0,0,0,348.12,124v3.82c0,5.51-3.5,8.67-9.6,8.67-4.08,0-7.17-1.46-8.71-4.1l-.09-.16h-6.51l.11.4c.1.39,2.58,9.46,15.2,9.46,9.63,0,15.62-5.47,15.62-14.27V98.35h-6Z"/><path class="cls-1" d="M369.15,102.68V98.34h-6v29.83h6v-16.8c0-5.22,2.73-7.25,9.73-7.25h7.76v-6H379c-5.95,0-8.66,2.63-9.84,4.57"/><path class="cls-1" d="M414.3,113.26c0,5.81-3.84,10-9.13,10-5.52,0-9.37-4.12-9.37-10s3.85-10,9.37-10c5.29,0,9.13,4.21,9.13,10m-.11-10.87a11.83,11.83,0,0,0-10-4.76c-7.23,0-14.55,5.37-14.55,15.63,0,9.2,6,15.62,14.55,15.62a11.74,11.74,0,0,0,10-4.95v4.24h6V98.35h-6Z"/><path class="cls-1" d="M444.52,103.24c5.59,0,9.49,4.12,9.49,10s-3.9,10-9.49,10-9.49-4.12-9.49-10,3.91-10,9.49-10m1-5.61a12.51,12.51,0,0,0-10.32,4.9V98.34h-6v43.07h6V124.23a13.22,13.22,0,0,0,10.32,4.65c8.64,0,14.67-6.42,14.67-15.62s-6-15.63-14.67-15.63"/><path class="cls-1" d="M482.64,97.69a11.44,11.44,0,0,0-9.61,5.15V84h-6v44.13h6V112.08c0-5.26,3.34-8.78,8.3-8.78s8,3.44,8,8.78v16.09h6.07v-17.1c0-7.87-5.26-13.38-12.78-13.38"/><rect class="cls-2" x="49.57" y="70.1" width="31.68" height="7.89"/><path class="cls-2" d="M65.06,12.58a61.94,61.94,0,1,0,62,61.94A61.93,61.93,0,0,0,65.06,12.58ZM88.1,99H80.91V83.73H49.23V99H42V49.42h7.2V64.36H80.91V49.42H88.1Z"/><polygon class="cls-2" points="203.65 37.83 178.53 37.83 178.53 19.69 172.16 19.69 172.16 62.28 178.53 62.28 178.53 43.79 203.65 43.79 203.65 62.28 210.02 62.28 210.02 19.69 203.65 19.69 203.65 37.83"/><path class="cls-2" d="M232,37c4.17,0,7.09,2.15,8.48,6.22h-17.1A8.44,8.44,0,0,1,232,37m0-5.25c-8.64,0-15.15,6.72-15.15,15.63A15.31,15.31,0,0,0,232.57,63c10.27,0,13.87-6.89,14.32-9.3l.07-.38h-5.9l-.09.18c-.08.16-2,3.9-8.4,3.9a9.4,9.4,0,0,1-9.58-9h24.26V48c0-9.58-6.26-16.28-15.21-16.28"/><path class="cls-2" d="M267.67,57.39c-5.62,0-9.55-4.12-9.55-10s3.93-10,9.55-10,9.43,4.12,9.43,10-3.88,10-9.43,10M277,36.48a12.48,12.48,0,0,0-10.31-4.74c-8.68,0-14.74,6.43-14.74,15.63S258,63,266.67,63A12.41,12.41,0,0,0,277,58v4.26h6V18.15h-6Z"/><path class="cls-2" d="M305.25,37c4.17,0,7.1,2.15,8.48,6.22h-17.1A8.44,8.44,0,0,1,305.25,37m0-5.25c-8.64,0-15.15,6.72-15.15,15.63A15.31,15.31,0,0,0,305.78,63c10.28,0,13.87-6.89,14.32-9.3l.07-.38h-5.9l-.09.18c-.08.16-2,3.9-8.4,3.9a9.4,9.4,0,0,1-9.58-9h24.26V48c0-9.58-6.25-16.28-15.21-16.28"/><path class="cls-2" d="M333.28,36.79V32.45h-6V62.28h6V45.48c0-5.22,2.73-7.25,9.73-7.25h7.76v-6h-7.64c-6,0-8.66,2.63-9.85,4.57"/><path class="cls-2" d="M377.55,47.37c0,5.8-3.84,10-9.13,10-5.52,0-9.37-4.12-9.37-10s3.85-10,9.37-10c5.29,0,9.13,4.21,9.13,10m-.12-10.87c-1.17-1.65-4.17-4.76-10-4.76-7.23,0-14.56,5.37-14.56,15.63,0,9.2,6,15.62,14.56,15.62a11.71,11.71,0,0,0,10-5v4.24h6V32.45h-6Z"/><polygon class="cls-2" points="389.27 33.33 390.92 33.33 390.92 37.07 391.54 37.07 391.54 33.33 393.19 33.33 393.19 32.77 389.27 32.77 389.27 33.33"/><polygon class="cls-2" points="397.94 32.77 396.52 36.17 395.1 32.77 394.13 32.77 394.13 37.07 394.72 37.07 394.72 33.34 396.29 37.09 396.72 37.09 398.28 33.37 398.28 37.07 398.9 37.07 398.9 32.77 397.94 32.77"/></svg>