<svg xmlns="http://www.w3.org/2000/svg" xmlns:xlink="http://www.w3.org/1999/xlink" viewBox="0 0 201.82 198.84"><defs><style>.cls-1{fill:none;}.cls-2{clip-path:url(#clip-path);}.cls-3{fill:#5e464d;}.cls-4{fill:#fff;}.cls-5{fill:#3fe0c5;}</style><clipPath id="clip-path"><rect class="cls-1" width="201.82" height="198.84"/></clipPath></defs><title>truffle-icon1</title><g id="Layer_2" data-name="Layer 2"><g id="Layer_1-2" data-name="Layer 1"><g id="Artwork_4" data-name="Artwork 4"><g class="cls-2"><g class="cls-2"><path class="cls-3" d="M100.42,0c54.27,0,98.27,44.51,98.27,99.42s-44,99.42-98.27,99.42S2.15,154.33,2.15,99.42,46.14,0,100.42,0"/><path class="cls-4" d="M69.52,187.58c4,1.37,17.53,5.76,18.1,1.47.31-2.35-6.78-4.77-16.46-9.88a154.56,154.56,0,0,1-37.27-27.51A85.45,85.45,0,0,1,8.3,92.23c-.82-30.08,11-54.4,30.29-70.08A99.11,99.11,0,0,0,0,98.21C-.53,120,5.55,138.3,17,155a64.5,64.5,0,0,0,12.34,12.14c10.94,8.29,27,16,40.2,20.46"/><path class="cls-4" d="M200.51,76.53c-6.1-28.65-25-48.72-50.37-62.89,19.37,13.8,46.64,43.12,30.57,69-13.64,20.73-46.77,16.67-64.88,6.85-21.48-11.71-48.48-38-21.9-63.69,17.22-16.63,72.07,2,62.38,26.87-5.63,14.45-27.52,11.24-37.38,4.17-7.26-5.22-13.37-14.18-10.14-23.44,1-3,.89-7.57-3.3-4.18-3.12,2.53-4.7,6.7-5.25,10.57C95.66,72.2,153.35,97.31,170.52,66c8.89-16.27-5.52-39.88-23.65-49.58C133.21,9.08,119.05,4,101.67,5.2c-27.79,2-51.12,19.37-54,47.77-2.9,28.19,15.94,53.63,38.17,68.82,23.34,16,54.76,26.49,83.5,17,25.75-8.54,36.39-38.1,31.21-62.23"/><path class="cls-5" d="M163.8,54.68c2.76-18.57-14-31.32-29.53-37.11C116,10.73,91.84,13.73,78.53,28.87,68.76,40,69.43,56.14,74.44,69.18c7.59,19.74,24.74,34,44.69,40.16,14.18,4.37,31.32,6.28,45.7,1.66,20.95-6.74,27.77-28.6,23.44-48.62A57.73,57.73,0,0,0,184,49.84c-2.65-5.55-10.76-16.8.42-3.1a53.36,53.36,0,0,1,3.23,4.78,54,54,0,0,1,5.44,12.08c6.09,18.69,1.31,40.5-15.61,51.77-13,8.64-29.43,9.67-44.46,7.51-20.16-2.88-39.16-12.7-52.33-28.32C68.66,80.28,60.44,59.78,65.4,41,69,27.28,80.16,17.05,93.49,12.73c16.87-5.46,35.44-2.93,50.64,5.94,7.61,4.44,14.57,10.57,18.44,18.61a27.64,27.64,0,0,1,2.78,11.61,24.17,24.17,0,0,1-.38,4.88c-.11.58-1.34,2.23-1.17.87"/></g></g></g></g></g></svg>