<?xml version="1.0" encoding="utf-8"?>
<!-- Generator: Adobe Illustrator 23.0.3, SVG Export Plug-In . SVG Version: 6.00 Build 0)  -->
<svg version="1.1" id="Layer_1" xmlns="http://www.w3.org/2000/svg" xmlns:xlink="http://www.w3.org/1999/xlink" x="0px" y="0px"
	 viewBox="0 0 335 71.1" style="enable-background:new 0 0 335 71.1;" xml:space="preserve">
<style type="text/css">
	.st0{clip-path:url(#SVGID_2_);}
	.st1{fill:#FFFFFF;}
	.st2{fill:#5F484F;stroke:#FFFFFF;stroke-width:0.75;stroke-miterlimit:10;}
	.st3{fill:#6BC7B9;}
	.st4{enable-background:new    ;}
	.st5{fill:#65C5B7;}
</style>
<title>one-pager-title-graphic</title>
<g>
	<g id="Layer_1-2">
		<g id="Artwork_5">
			<g>
				<defs>
					<rect id="SVGID_1_" x="23.5" y="5.8" width="317.6" height="48.4"/>
				</defs>
				<clipPath id="SVGID_2_">
					<use xlink:href="#SVGID_1_"  style="overflow:visible;"/>
				</clipPath>
				<g class="st0">
					<path class="st1" d="M132,21.6h3.9c1.5,0.1,3-0.2,4.4-0.8c0.8-0.7,1.3-1.7,1.2-2.8c0.1-1.4-0.8-2.7-2.2-3.2
						c-1.2-0.3-2.4-0.4-3.7-0.4H132L132,21.6z M125.3,8h8.9c3.9,0,6.6,0.3,8.3,1c1.6,0.7,3,1.9,3.9,3.4c1,1.7,1.5,3.7,1.5,5.7
						c0.1,2-0.5,4-1.6,5.7c-1.3,1.7-3,2.9-5,3.5l8.3,15.5h-7.2l-7.8-14.7H132v14.7h-6.7L125.3,8z"/>
					<path class="st1" d="M166.4,8h6.6v22.5c-0.1,1.4,0.1,2.8,0.5,4.1c0.3,0.8,0.9,1.5,1.7,1.9c0.9,0.5,1.8,0.8,2.8,0.7
						c1.1,0,2.1-0.3,3-0.8c0.8-0.5,1.4-1.2,1.8-2c0.4-1.5,0.6-3.2,0.5-4.8V8h6.6v20.8c0.1,2.4-0.1,4.9-0.6,7.3
						c-0.5,1.5-1.2,2.8-2.2,3.9c-1.1,1.2-2.4,2.1-3.9,2.8c-1.6,0.6-3.3,0.9-5.1,0.9c-2.3,0.1-4.6-0.5-6.6-1.7c-1.7-1-3.1-2.5-4-4.4
						c-0.8-1.7-1.2-4.7-1.2-8.8L166.4,8z"/>
					<polygon class="st1" points="210,8 227.3,8 227.3,14.5 216.6,14.5 216.6,20.8 227.3,20.8 227.3,27.2 216.6,27.2 216.6,42.8 
						210,42.8 					"/>
					<polygon class="st1" points="245.6,8 262.9,8 262.9,14.5 252.2,14.5 252.2,20.8 262.9,20.8 262.9,27.2 252.2,27.2 252.2,42.8 
						245.6,42.8 					"/>
					<polygon class="st1" points="281.2,8 287.8,8 287.8,36.5 297.5,36.5 297.5,42.8 281.2,42.8 					"/>
					<polygon class="st1" points="314.2,8 333.2,8 333.2,14.5 320.8,14.5 320.8,20.8 333.2,20.8 333.2,27.2 320.8,27.2 320.8,36.3 
						333.2,36.3 333.2,42.8 314.2,42.8 					"/>
					<polygon class="st1" points="89.4,8 108.7,8 108.7,14.6 102.3,14.6 102.3,42.8 95.6,42.8 95.6,14.6 89.4,14.6 					"/>
				</g>
			</g>
			<path class="st2" d="M35.5,0.4c19.3,0.1,34.9,15.8,34.7,35.1c0,0,0,0,0,0c0.1,19.3-15.5,35-34.7,35.2
				C16.2,70.5,0.7,54.8,0.8,35.5C0.7,16.2,16.2,0.5,35.5,0.4"/>
			<path class="st1" d="M24.6,66.7c1.4,0.5,6.2,2,6.4,0.5c0.1-0.8-2.4-1.7-5.8-3.5c-4.8-2.6-9.3-5.8-13.2-9.7
				c-5.6-5.6-8.9-13.1-9-21C2.6,22.4,6.8,13.8,13.6,8.2C5.3,14.7,0.3,24.5,0,35.1c-0.2,7.2,1.9,14.2,6,20.1c1.3,1.6,2.7,3.1,4.4,4.3
				C14.7,62.6,19.5,65,24.6,66.7"/>
			<path class="st1" d="M70.9,27.4c-2.2-10.1-8.8-17.2-17.8-22.2c6.8,4.9,16.5,15.2,10.8,24.4C59.1,36.9,47.4,35.5,41,32
				c-7.6-4.1-17.2-13.4-7.8-22.5c6.1-5.9,25.5,0.7,22.1,9.5c-2,5.1-9.7,4-13.2,1.5c-2.6-1.8-4.7-5-3.6-8.3c0.4-1.1,0.3-2.7-1.2-1.5
				c-1.1,1-1.7,2.3-1.9,3.7c-1.6,11.5,18.8,20.3,24.9,9.3c3.2-5.8-2-14.1-8.4-17.5c-4.8-2.6-9.8-4.4-16-4C26.1,2.9,17.9,9,16.8,19.1
				s5.6,19,13.5,24.3c8.3,5.7,19.4,9.4,29.5,6C69,46.4,72.7,35.9,70.9,27.4"/>
			<path class="st3" d="M57.9,19.7c1-6.6-5-11.1-10.4-13.1c-6.5-2.4-15-1.4-19.7,4c-3.5,3.9-3.2,9.6-1.5,14.3
				C29.2,31.7,35,36.9,42.1,39c5,1.5,11.1,2.2,16.2,0.6c7.4-2.4,9.8-10.1,8.3-17.2c-0.3-1.5-0.8-3-1.5-4.4c-0.9-2-3.8-5.9,0.2-1.1
				c0.4,0.5,0.8,1.1,1.1,1.7c0.8,1.3,1.5,2.8,1.9,4.3c2.2,6.6,0.5,14.3-5.5,18.3c-4.6,3-10.4,3.4-15.7,2.7c-7.2-1-13.8-4.5-18.5-10
				c-4.3-5-7.2-12.3-5.4-18.9c1.4-4.8,5.1-8.6,9.9-10C39.1,3,45.6,3.8,51,7c2.8,1.5,5,3.8,6.5,6.6c0.6,1.3,1,2.7,1,4.1
				c0,0.6,0,1.2-0.1,1.7C58.4,19.6,57.9,20.2,57.9,19.7"/>
		</g>
		<g class="st4">
			<path class="st5" d="M99.2,57.6c0,0.8-0.3,1.5-0.9,1.9c-0.6,0.5-1.4,0.7-2.5,0.7c-1,0-1.9-0.2-2.6-0.5v-1.4
				c0.4,0.2,0.9,0.4,1.3,0.5c0.5,0.1,0.9,0.2,1.3,0.2c0.6,0,1-0.1,1.3-0.3c0.3-0.2,0.4-0.5,0.4-0.9c0-0.3-0.1-0.6-0.4-0.9
				c-0.3-0.2-0.8-0.5-1.6-0.9c-0.8-0.3-1.4-0.7-1.8-1.2c-0.3-0.4-0.5-1-0.5-1.6c0-0.8,0.3-1.4,0.8-1.8c0.5-0.4,1.3-0.7,2.2-0.7
				c0.9,0,1.8,0.2,2.6,0.6l-0.5,1.2C97.7,52.2,97,52,96.4,52c-0.5,0-0.9,0.1-1.1,0.3c-0.3,0.2-0.4,0.5-0.4,0.8
				c0,0.2,0.1,0.4,0.2,0.6c0.1,0.2,0.3,0.3,0.5,0.5c0.2,0.2,0.6,0.4,1.3,0.6c0.7,0.3,1.2,0.5,1.5,0.8s0.5,0.5,0.7,0.8
				C99.1,56.8,99.2,57.2,99.2,57.6z"/>
			<path class="st5" d="M105,60.1l-2.7-7.7h-0.1c0.1,1.1,0.1,2.2,0.1,3.2v4.5H101v-9.2h2.1l2.6,7.3h0l2.6-7.3h2.1v9.2H109v-4.6
				c0-0.5,0-1.1,0-1.8s0-1.2,0.1-1.3h-0.1l-2.8,7.7H105z"/>
			<path class="st5" d="M118.6,60.1l-0.9-2.6h-3.5l-0.9,2.6h-1.6l3.5-9.3h1.6l3.5,9.3H118.6z M117.3,56.3l-0.9-2.5
				c-0.1-0.2-0.2-0.4-0.3-0.8c-0.1-0.4-0.2-0.6-0.2-0.8c-0.1,0.5-0.3,1.1-0.5,1.7l-0.8,2.4H117.3z"/>
			<path class="st5" d="M123,56.4v3.7h-1.5v-9.2h2.6c1.2,0,2.1,0.2,2.6,0.7c0.6,0.4,0.9,1.1,0.9,2c0,1.2-0.6,2-1.8,2.5l2.6,4.1h-1.7
				l-2.2-3.7H123z M123,55.2h1c0.7,0,1.2-0.1,1.5-0.4c0.3-0.3,0.5-0.6,0.5-1.2c0-0.5-0.2-0.9-0.5-1.1s-0.9-0.3-1.5-0.3h-1V55.2z"/>
			<path class="st5" d="M132.9,60.1h-1.5v-7.9h-2.7v-1.3h6.9v1.3h-2.7V60.1z"/>
			<path class="st5" d="M143.6,60.1h-1.5v-7.9h-2.7v-1.3h6.9v1.3h-2.7V60.1z"/>
			<path class="st5" d="M155.9,55.5c0,1.5-0.4,2.7-1.1,3.5s-1.8,1.3-3.2,1.3c-1.4,0-2.5-0.4-3.2-1.2c-0.7-0.8-1.1-2-1.1-3.5
				c0-1.5,0.4-2.7,1.1-3.5c0.8-0.8,1.8-1.2,3.2-1.2c1.4,0,2.4,0.4,3.2,1.2C155.6,52.8,155.9,54,155.9,55.5z M148.9,55.5
				c0,1.1,0.2,2,0.7,2.6s1.1,0.9,2,0.9c0.9,0,1.6-0.3,2-0.9c0.5-0.6,0.7-1.4,0.7-2.6c0-1.1-0.2-2-0.7-2.6c-0.5-0.6-1.1-0.9-2-0.9
				c-0.9,0-1.6,0.3-2.1,0.9C149.1,53.5,148.9,54.4,148.9,55.5z"/>
			<path class="st5" d="M166.1,55.5c0,1.5-0.4,2.7-1.1,3.5s-1.8,1.3-3.2,1.3c-1.4,0-2.5-0.4-3.2-1.2c-0.7-0.8-1.1-2-1.1-3.5
				c0-1.5,0.4-2.7,1.1-3.5c0.8-0.8,1.8-1.2,3.2-1.2c1.4,0,2.4,0.4,3.2,1.2C165.8,52.8,166.1,54,166.1,55.5z M159.1,55.5
				c0,1.1,0.2,2,0.7,2.6s1.1,0.9,2,0.9c0.9,0,1.6-0.3,2-0.9c0.5-0.6,0.7-1.4,0.7-2.6c0-1.1-0.2-2-0.7-2.6c-0.5-0.6-1.1-0.9-2-0.9
				c-0.9,0-1.6,0.3-2.1,0.9C159.3,53.5,159.1,54.4,159.1,55.5z"/>
			<path class="st5" d="M168.1,60.1v-9.2h1.5v7.9h3.9v1.3H168.1z"/>
			<path class="st5" d="M180.4,57.6c0,0.8-0.3,1.5-0.9,1.9c-0.6,0.5-1.4,0.7-2.5,0.7c-1,0-1.9-0.2-2.6-0.5v-1.4
				c0.4,0.2,0.9,0.4,1.3,0.5c0.5,0.1,0.9,0.2,1.3,0.2c0.6,0,1-0.1,1.3-0.3c0.3-0.2,0.4-0.5,0.4-0.9c0-0.3-0.1-0.6-0.4-0.9
				c-0.3-0.2-0.8-0.5-1.6-0.9c-0.8-0.3-1.4-0.7-1.8-1.2c-0.3-0.4-0.5-1-0.5-1.6c0-0.8,0.3-1.4,0.8-1.8s1.3-0.7,2.2-0.7
				c0.9,0,1.8,0.2,2.6,0.6l-0.5,1.2c-0.8-0.3-1.6-0.5-2.2-0.5c-0.5,0-0.9,0.1-1.1,0.3c-0.3,0.2-0.4,0.5-0.4,0.8
				c0,0.2,0.1,0.4,0.2,0.6c0.1,0.2,0.3,0.3,0.5,0.5c0.2,0.2,0.6,0.4,1.3,0.6c0.7,0.3,1.2,0.5,1.5,0.8c0.3,0.2,0.5,0.5,0.7,0.8
				C180.4,56.8,180.4,57.2,180.4,57.6z"/>
			<path class="st5" d="M187.1,60.1h-1.5v-9.2h5.2v1.3h-3.7V55h3.5v1.3h-3.5V60.1z"/>
			<path class="st5" d="M200.7,55.5c0,1.5-0.4,2.7-1.1,3.5s-1.8,1.3-3.2,1.3c-1.4,0-2.5-0.4-3.2-1.2c-0.7-0.8-1.1-2-1.1-3.5
				c0-1.5,0.4-2.7,1.1-3.5s1.8-1.2,3.2-1.2c1.4,0,2.4,0.4,3.2,1.2C200.3,52.8,200.7,54,200.7,55.5z M193.6,55.5c0,1.1,0.2,2,0.7,2.6
				s1.1,0.9,2,0.9c0.9,0,1.6-0.3,2-0.9c0.5-0.6,0.7-1.4,0.7-2.6c0-1.1-0.2-2-0.7-2.6c-0.5-0.6-1.1-0.9-2-0.9c-0.9,0-1.6,0.3-2,0.9
				C193.9,53.5,193.6,54.4,193.6,55.5z"/>
			<path class="st5" d="M204.2,56.4v3.7h-1.5v-9.2h2.6c1.2,0,2.1,0.2,2.6,0.7c0.6,0.4,0.9,1.1,0.9,2c0,1.2-0.6,2-1.8,2.5l2.6,4.1
				h-1.7l-2.2-3.7H204.2z M204.2,55.2h1c0.7,0,1.2-0.1,1.5-0.4c0.3-0.3,0.5-0.6,0.5-1.2c0-0.5-0.2-0.9-0.5-1.1
				c-0.3-0.2-0.9-0.3-1.5-0.3h-1V55.2z"/>
			<path class="st5" d="M219.6,57.6c0,0.8-0.3,1.5-0.9,1.9s-1.4,0.7-2.5,0.7s-1.9-0.2-2.6-0.5v-1.4c0.4,0.2,0.9,0.4,1.3,0.5
				c0.5,0.1,0.9,0.2,1.3,0.2c0.6,0,1-0.1,1.3-0.3s0.4-0.5,0.4-0.9c0-0.3-0.1-0.6-0.4-0.9c-0.3-0.2-0.8-0.5-1.6-0.9
				c-0.8-0.3-1.4-0.7-1.8-1.2c-0.3-0.4-0.5-1-0.5-1.6c0-0.8,0.3-1.4,0.8-1.8c0.5-0.4,1.3-0.7,2.2-0.7c0.9,0,1.8,0.2,2.6,0.6
				l-0.5,1.2c-0.8-0.3-1.6-0.5-2.2-0.5c-0.5,0-0.9,0.1-1.1,0.3s-0.4,0.5-0.4,0.8c0,0.2,0,0.4,0.2,0.6c0.1,0.2,0.3,0.3,0.5,0.5
				c0.2,0.2,0.6,0.4,1.3,0.6c0.7,0.3,1.2,0.5,1.5,0.8c0.3,0.2,0.5,0.5,0.7,0.8C219.6,56.8,219.6,57.2,219.6,57.6z"/>
			<path class="st5" d="M225.4,60.1l-2.7-7.7h-0.1c0.1,1.1,0.1,2.2,0.1,3.2v4.5h-1.4v-9.2h2.1l2.6,7.3h0l2.6-7.3h2.1v9.2h-1.5v-4.6
				c0-0.5,0-1.1,0-1.8c0-0.7,0-1.2,0.1-1.3h-0.1l-2.8,7.7H225.4z"/>
			<path class="st5" d="M239.1,60.1l-0.9-2.6h-3.5l-0.9,2.6h-1.6l3.5-9.3h1.6l3.5,9.3H239.1z M237.8,56.3l-0.9-2.5
				c-0.1-0.2-0.2-0.4-0.3-0.8c-0.1-0.4-0.2-0.6-0.2-0.8c-0.1,0.5-0.3,1.1-0.5,1.7l-0.8,2.4H237.8z"/>
			<path class="st5" d="M243.4,56.4v3.7h-1.5v-9.2h2.6c1.2,0,2.1,0.2,2.6,0.7s0.9,1.1,0.9,2c0,1.2-0.6,2-1.8,2.5l2.6,4.1h-1.7
				l-2.2-3.7H243.4z M243.4,55.2h1c0.7,0,1.2-0.1,1.5-0.4c0.3-0.3,0.5-0.6,0.5-1.2c0-0.5-0.2-0.9-0.5-1.1c-0.3-0.2-0.9-0.3-1.5-0.3
				h-1V55.2z"/>
			<path class="st5" d="M253.4,60.1h-1.5v-7.9h-2.7v-1.3h6.9v1.3h-2.7V60.1z"/>
			<path class="st5" d="M264.8,52c-0.9,0-1.5,0.3-2,0.9s-0.7,1.5-0.7,2.5c0,1.1,0.2,2,0.7,2.6c0.5,0.6,1.2,0.9,2.1,0.9
				c0.4,0,0.8,0,1.1-0.1s0.7-0.2,1.1-0.3v1.3c-0.7,0.3-1.5,0.4-2.5,0.4c-1.4,0-2.4-0.4-3.1-1.2s-1.1-2-1.1-3.5c0-1,0.2-1.8,0.5-2.5
				c0.4-0.7,0.9-1.3,1.5-1.7c0.7-0.4,1.4-0.6,2.3-0.6c0.9,0,1.8,0.2,2.6,0.6l-0.5,1.3c-0.3-0.1-0.6-0.3-1-0.4S265.2,52,264.8,52z"/>
			<path class="st5" d="M277.3,55.5c0,1.5-0.4,2.7-1.1,3.5s-1.8,1.3-3.2,1.3c-1.4,0-2.5-0.4-3.2-1.2c-0.7-0.8-1.1-2-1.1-3.5
				c0-1.5,0.4-2.7,1.1-3.5s1.8-1.2,3.2-1.2c1.4,0,2.4,0.4,3.2,1.2C276.9,52.8,277.3,54,277.3,55.5z M270.2,55.5c0,1.1,0.2,2,0.7,2.6
				s1.1,0.9,2,0.9c0.9,0,1.6-0.3,2-0.9c0.5-0.6,0.7-1.4,0.7-2.6c0-1.1-0.2-2-0.7-2.6c-0.5-0.6-1.1-0.9-2-0.9c-0.9,0-1.6,0.3-2,0.9
				C270.5,53.5,270.2,54.4,270.2,55.5z"/>
			<path class="st5" d="M287,60.1h-1.9l-4.5-7.4h0l0,0.4c0.1,0.8,0.1,1.5,0.1,2.1v4.8h-1.4v-9.2h1.8l4.5,7.3h0c0-0.1,0-0.5-0.1-1.1
				s0-1.1,0-1.4v-4.8h1.4V60.1z"/>
			<path class="st5" d="M292.6,60.1h-1.5v-7.9h-2.7v-1.3h6.9v1.3h-2.7V60.1z"/>
			<path class="st5" d="M298.2,56.4v3.7h-1.5v-9.2h2.6c1.2,0,2.1,0.2,2.6,0.7s0.9,1.1,0.9,2c0,1.2-0.6,2-1.8,2.5l2.6,4.1h-1.7
				l-2.2-3.7H298.2z M298.2,55.2h1c0.7,0,1.2-0.1,1.5-0.4c0.3-0.3,0.5-0.6,0.5-1.2c0-0.5-0.2-0.9-0.5-1.1c-0.3-0.2-0.9-0.3-1.5-0.3
				h-1V55.2z"/>
			<path class="st5" d="M310.7,60.1l-0.9-2.6h-3.5l-0.9,2.6h-1.6l3.5-9.3h1.6l3.5,9.3H310.7z M309.4,56.3l-0.9-2.5
				c-0.1-0.2-0.2-0.4-0.3-0.8c-0.1-0.4-0.2-0.6-0.2-0.8c-0.1,0.5-0.3,1.1-0.5,1.7l-0.8,2.4H309.4z"/>
			<path class="st5" d="M317.5,52c-0.9,0-1.6,0.3-2,0.9c-0.5,0.6-0.7,1.5-0.7,2.5c0,1.1,0.2,2,0.7,2.6c0.5,0.6,1.2,0.9,2.1,0.9
				c0.4,0,0.8,0,1.1-0.1c0.4-0.1,0.7-0.2,1.1-0.3v1.3c-0.7,0.3-1.5,0.4-2.5,0.4c-1.4,0-2.4-0.4-3.1-1.2c-0.7-0.8-1.1-2-1.1-3.5
				c0-1,0.2-1.8,0.5-2.5c0.4-0.7,0.9-1.3,1.5-1.7c0.7-0.4,1.4-0.6,2.3-0.6c0.9,0,1.8,0.2,2.6,0.6l-0.5,1.3c-0.3-0.1-0.6-0.3-1-0.4
				S317.9,52,317.5,52z"/>
			<path class="st5" d="M324.9,60.1h-1.5v-7.9h-2.7v-1.3h6.9v1.3h-2.7V60.1z"/>
			<path class="st5" d="M334.4,57.6c0,0.8-0.3,1.5-0.9,1.9c-0.6,0.5-1.4,0.7-2.5,0.7c-1,0-1.9-0.2-2.6-0.5v-1.4
				c0.4,0.2,0.9,0.4,1.3,0.5c0.5,0.1,0.9,0.2,1.3,0.2c0.6,0,1-0.1,1.3-0.3c0.3-0.2,0.4-0.5,0.4-0.9c0-0.3-0.1-0.6-0.4-0.9
				c-0.3-0.2-0.8-0.5-1.6-0.9c-0.8-0.3-1.4-0.7-1.8-1.2c-0.3-0.4-0.5-1-0.5-1.6c0-0.8,0.3-1.4,0.8-1.8s1.3-0.7,2.2-0.7
				c0.9,0,1.8,0.2,2.6,0.6l-0.5,1.2c-0.8-0.3-1.6-0.5-2.2-0.5c-0.5,0-0.9,0.1-1.1,0.3c-0.3,0.2-0.4,0.5-0.4,0.8
				c0,0.2,0.1,0.4,0.2,0.6c0.1,0.2,0.3,0.3,0.5,0.5c0.2,0.2,0.6,0.4,1.3,0.6c0.7,0.3,1.2,0.5,1.5,0.8c0.3,0.2,0.5,0.5,0.7,0.8
				C334.3,56.8,334.4,57.2,334.4,57.6z"/>
		</g>
	</g>
</g>
</svg>
