<svg xmlns="http://www.w3.org/2000/svg" xmlns:xlink="http://www.w3.org/1999/xlink" viewBox="0 0 334.97 71.06"><defs><style>.cls-1{fill:none;}.cls-2{clip-path:url(#clip-path);}.cls-3{fill:#fff;}.cls-4{fill:#5f484f;stroke:#fff;stroke-miterlimit:10;stroke-width:0.75px;}.cls-5{fill:#6bc7b9;}.cls-6{font-size:12.94px;fill:#65c5b7;font-family:OpenSans-SemiBold, Open Sans;font-weight:600;}</style><clipPath id="clip-path"><rect class="cls-1" x="23.51" y="5.75" width="317.58" height="48.43"/></clipPath></defs><title>one-pager-title-graphic</title><g id="Layer_2" data-name="Layer 2"><g id="Layer_1-2" data-name="Layer 1"><g id="Artwork_5" data-name="Artwork 5"><g class="cls-2"><path class="cls-3" d="M132,21.63h3.94a8.19,8.19,0,0,0,4.36-.83,3.09,3.09,0,0,0,1.18-2.75,3.26,3.26,0,0,0-2.16-3.2,12,12,0,0,0-3.68-.37h-3.67ZM125.31,8h8.89q5.78,0,8.27,1a8.48,8.48,0,0,1,3.94,3.43,10.44,10.44,0,0,1,1.49,5.66,9.67,9.67,0,0,1-1.64,5.74,10,10,0,0,1-5,3.49l8.26,15.49h-7.24L134.48,28.1H132V42.85h-6.7Z"/><path class="cls-3" d="M166.35,8H173V30.54a11.5,11.5,0,0,0,.51,4.12,4,4,0,0,0,1.68,1.92,5.23,5.23,0,0,0,2.83.73,5.41,5.41,0,0,0,3-.81,4.22,4.22,0,0,0,1.76-2,15.21,15.21,0,0,0,.48-4.75V8h6.65V28.78a30.3,30.3,0,0,1-.58,7.3A10.53,10.53,0,0,1,187.09,40a10.66,10.66,0,0,1-3.85,2.76,13.12,13.12,0,0,1-5.07.91,12.25,12.25,0,0,1-6.6-1.74,10.12,10.12,0,0,1-4-4.36c-.8-1.74-1.21-4.69-1.21-8.84Z"/><polygon class="cls-3" points="210 8.02 227.28 8.02 227.28 14.48 216.58 14.48 216.58 20.8 227.28 20.8 227.28 27.18 216.58 27.18 216.58 42.85 210 42.85 210 8.02"/><polygon class="cls-3" points="245.64 8.02 262.92 8.02 262.92 14.48 252.21 14.48 252.21 20.8 262.92 20.8 262.92 27.18 252.21 27.18 252.21 42.85 245.64 42.85 245.64 8.02"/><polygon class="cls-3" points="281.2 8.02 287.84 8.02 287.84 36.53 297.49 36.53 297.49 42.85 281.2 42.85 281.2 8.02"/><polygon class="cls-3" points="314.18 8.02 333.19 8.02 333.19 14.51 320.76 14.51 320.76 20.8 333.19 20.8 333.19 27.18 320.76 27.18 320.76 36.34 333.19 36.34 333.19 42.85 314.18 42.85 314.18 8.02"/><polygon class="cls-3" points="89.41 8.02 108.66 8.02 108.66 14.56 102.31 14.56 102.31 42.85 95.59 42.85 95.59 14.56 89.41 14.56 89.41 8.02"/></g><path class="cls-4" d="M35.51.38A34.94,34.94,0,0,1,70.25,35.53,35,35,0,0,1,35.51,70.68,35,35,0,0,1,.76,35.53,35,35,0,0,1,35.51.38"/><path class="cls-3" d="M24.58,66.7c1.41.48,6.2,2,6.4.52.11-.83-2.4-1.69-5.82-3.49A54.72,54.72,0,0,1,12,54a30.25,30.25,0,0,1-9-21C2.64,22.35,6.82,13.75,13.64,8.21A35.06,35.06,0,0,0,0,35.1,32.8,32.8,0,0,0,6,55.18a22.48,22.48,0,0,0,4.37,4.29,54.73,54.73,0,0,0,14.21,7.24"/><path class="cls-3" d="M70.9,27.43C68.74,17.3,62.06,10.21,53.09,5.2c6.84,4.88,16.49,15.24,10.8,24.39C59.07,36.92,47.36,35.49,41,32,33.36,27.88,23.81,18.58,33.21,9.5c6.09-5.88,25.48.7,22.06,9.5-2,5.11-9.73,4-13.22,1.47-2.57-1.84-4.73-5-3.59-8.29.36-1.06.32-2.67-1.16-1.47a5.82,5.82,0,0,0-1.86,3.73C33.82,25.9,54.22,34.78,60.29,23.7c3.15-5.76-1.95-14.1-8.36-17.53-4.83-2.59-9.84-4.4-16-4-9.83.71-18.08,6.85-19.1,16.89s5.64,19,13.5,24.34c8.25,5.65,19.36,9.36,29.52,6,9.11-3,12.87-13.47,11-22"/><path class="cls-5" d="M57.92,19.71c1-6.57-5-11.08-10.44-13.12-6.47-2.42-15-1.36-19.71,4-3.46,3.94-3.22,9.65-1.45,14.26A24.39,24.39,0,0,0,42.12,39c5,1.54,11.08,2.22,16.16.58,7.41-2.38,9.82-10.11,8.29-17.19A20.29,20.29,0,0,0,65.07,18c-.94-2-3.81-5.94.15-1.1a19.22,19.22,0,0,1,1.14,1.69,18.62,18.62,0,0,1,1.92,4.27c2.16,6.61.47,14.32-5.52,18.31-4.59,3-10.4,3.42-15.72,2.65a29.67,29.67,0,0,1-18.5-10c-4.26-5.05-7.17-12.3-5.42-18.94a14.73,14.73,0,0,1,9.94-10A22.17,22.17,0,0,1,51,7a15.9,15.9,0,0,1,6.52,6.58,9.58,9.58,0,0,1,1,4.1,8.35,8.35,0,0,1-.13,1.73c0,.2-.47.79-.41.31"/></g><text class="cls-6" transform="translate(92.63 60.12)">SMART TOOLS FOR SMART CONTRACTS</text></g></g></svg>