<svg xmlns="http://www.w3.org/2000/svg" viewBox="0 0 545.46 225.6"><defs><style>.cls-1{fill:#f65314;}.cls-1,.cls-2,.cls-3,.cls-4,.cls-5{fill-rule:evenodd;}.cls-2{fill:#7fbb41;}.cls-3{fill:#787878;}.cls-4{fill:#00a1f1;}.cls-5{fill:#fb0;}.cls-6{fill:#002e53;}.cls-7{fill:#1bb7ee;}.cls-8{fill:#008ec6;}.cls-9{fill:#006393;}.cls-10{fill:#6ccef1;}</style></defs><title>msft-wb-logo</title><g id="Layer_2" data-name="Layer 2"><g id="Layer_1-2" data-name="Layer 1"><path class="cls-1" d="M97,0h35.37V35.37H97Z"/><path class="cls-2" d="M136,0h35.37V35.37H136Q136,17.68,136,0Z"/><path class="cls-3" d="M416,13.48a13.9,13.9,0,0,1,11.15-1.31c0,2.18,0,4.37,0,6.56a7.31,7.31,0,0,0-5.64-.52A4.49,4.49,0,0,0,419,21.78a49.78,49.78,0,0,0-.14,5.73H430c0-2.42,0-4.85,0-7.27,2.54-.72,5.05-1.53,7.57-2.29,0,3.19,0,6.39,0,9.58,2.52,0,5.05,0,7.57,0v6.21c-2.53-.1-5.07,0-7.6,0,0,3.57,0,7.14,0,10.71,0,2-.11,4,.12,5.94a3.87,3.87,0,0,0,1.65,3,5.69,5.69,0,0,0,5.82-.54v6.27a14.91,14.91,0,0,1-7,1.07,8.47,8.47,0,0,1-6-2.76c-1.7-2-2.13-4.75-2.16-7.3,0-5.49,0-11,0-16.45h-11.2V59.49h-7.65q0-12.9,0-25.8c-1.77,0-3.55,0-5.32,0,0-2,0-4.08,0-6.13,1.77,0,3.54,0,5.31,0,.13-2.71-.29-5.51.52-8.15A10.48,10.48,0,0,1,416,13.48Zm-163.8.44a4.7,4.7,0,0,1,4.23,1.5,4.36,4.36,0,0,1,.53,5,4.75,4.75,0,0,1-5.09,2.14,4.33,4.33,0,0,1-3.55-4.26,4.43,4.43,0,0,1,3.88-4.35Zm-58.64.95h11.13q5.19,13.2,10.42,26.37c.88,2.2,1.71,4.43,2.64,6.61,4.46-11,9-22,13.4-32.95,3.56-.06,7.13,0,10.7,0q0,22.31,0,44.61c-2.57,0-5.15,0-7.72,0,0-11,0-21.95,0-32.92,0-.49,0-1,0-1.48a4.58,4.58,0,0,0-.4.71c-4.43,11.24-8.93,22.44-13.33,33.68-1.83.07-3.66,0-5.5,0-4.56-11.23-9.06-22.49-13.6-33.73-.12-.23-.25-.46-.39-.68-.09,4.81,0,9.62,0,14.43,0,6.66,0,13.32,0,20h-7.29V14.87Zm79.69,12.61a20.91,20.91,0,0,1,11.37,0,8.83,8.83,0,0,1,2.18.91c-.05,2.43,0,4.87,0,7.31A12.13,12.13,0,0,0,278,33.06a8.93,8.93,0,0,0-6.35,3.53,12.29,12.29,0,0,0-2,8.85,9.59,9.59,0,0,0,3.09,6.36,9.71,9.71,0,0,0,7.16,2.13,14.53,14.53,0,0,0,6.86-2.82c0,2.31,0,4.62,0,6.93a18.69,18.69,0,0,1-10.46,2.17,15.51,15.51,0,0,1-10-4.16,15.93,15.93,0,0,1-4.63-10.7,19.36,19.36,0,0,1,3-11.87,15.41,15.41,0,0,1,8.49-6ZM356.82,27a20.15,20.15,0,0,1,10.59,1.1c0,2.34,0,4.69,0,7a13.45,13.45,0,0,0-8-2.37,4.12,4.12,0,0,0-3.66,2,3.3,3.3,0,0,0,1.11,3.91c2.17,1.45,4.76,2.07,7,3.37a10,10,0,0,1,4.38,4.17,9.32,9.32,0,0,1-2,10.76c-2.83,2.65-6.9,3.38-10.65,3.24a22.92,22.92,0,0,1-7.78-1.79c0-2.47,0-4.93,0-7.39a16.69,16.69,0,0,0,6.94,3,8.91,8.91,0,0,0,5.28-.48,3.05,3.05,0,0,0,.91-4.35A9.24,9.24,0,0,0,357.61,47a31.87,31.87,0,0,1-6.6-3.38,7.88,7.88,0,0,1-2.86-4.34,9.75,9.75,0,0,1,1.06-7.63A11.37,11.37,0,0,1,356.82,27ZM303.9,28a8.65,8.65,0,0,1,7.1-.6c0,2.56,0,5.11,0,7.66a8.12,8.12,0,0,0-5.17-1.22A6.37,6.37,0,0,0,301,37.67,14.13,14.13,0,0,0,300,44.2V59.49h-7.54c0-10.65,0-21.31,0-32,2.52,0,5,0,7.56,0,0,1.83,0,3.66,0,5.49a9.87,9.87,0,0,1,3.95-5ZM249,27.52c2.54,0,5.08,0,7.61,0,0,10.66,0,21.31,0,32H249q0-16,0-32Zm76.07-.59a20.3,20.3,0,0,1,11,1.29A13.57,13.57,0,0,1,342.72,35a21,21,0,0,1,1.52,10.08,17,17,0,0,1-3.36,9.31,14.78,14.78,0,0,1-8.79,5.42,21.94,21.94,0,0,1-8.95,0A14.46,14.46,0,0,1,314.3,54c-2.42-3.44-3.11-7.82-2.8-11.94A16.93,16.93,0,0,1,315,32.31a15.24,15.24,0,0,1,10.05-5.38ZM327.37,33a8.05,8.05,0,0,0-5,2,10.15,10.15,0,0,0-2.95,6.67,14.72,14.72,0,0,0,1.16,8,7.63,7.63,0,0,0,4.79,4,10.31,10.31,0,0,0,6.24-.27,7,7,0,0,0,3.76-3.7,16.88,16.88,0,0,0,1.08-7.81,10.33,10.33,0,0,0-2.65-6.67A8.22,8.22,0,0,0,327.37,33Zm58.69-6.08a19.86,19.86,0,0,1,11.36,1.54A13.67,13.67,0,0,1,404,35.9a20.46,20.46,0,0,1,1.19,7.64,17.51,17.51,0,0,1-3.46,10.89,15,15,0,0,1-9.41,5.5A20.56,20.56,0,0,1,381.54,59a14.22,14.22,0,0,1-7.78-7.55,21.21,21.21,0,0,1-1.2-11.1,15.67,15.67,0,0,1,5.05-9.82A15.81,15.81,0,0,1,386.06,26.92ZM388.13,33a7.84,7.84,0,0,0-5.59,2.68,11,11,0,0,0-2.31,6.37,15.26,15.26,0,0,0,.9,7,7.77,7.77,0,0,0,4,4.22,10.11,10.11,0,0,0,5.47.6,7.14,7.14,0,0,0,4.47-2.41,10,10,0,0,0,2-4.69,19.59,19.59,0,0,0-.06-6.83,8.78,8.78,0,0,0-2.77-5.09A8.39,8.39,0,0,0,388.13,33Z"/><path class="cls-4" d="M97,39h35.37q0,17.68,0,35.37H97Z"/><path class="cls-5" d="M136,39q17.69,0,35.37,0V74.36H136Q136,56.68,136,39Z"/><path class="cls-6" d="M85.84,216c-5.59,4.38-12.06,6.89-18.85,8.68-.63.16-1.51-.06-1.66.95H43.55c-.15-1-1-.78-1.67-1-22.28-6.25-36-20.58-41-43.22-.14-.6,0-1.34-.88-1.47V163.31c.77-.1.76-.71.86-1.27a53.21,53.21,0,0,1,11.23-24.53c3.14-3.86,6.51-7.5,10.86-10.07a1.86,1.86,0,0,1,.33,2.11,5.24,5.24,0,0,0,.22,3.64.31.31,0,0,1,0,.28l0,0a45.07,45.07,0,0,0-13.28,16.32c-1.14,2.27-2.39,4.52-2.57,7.14l-.25.26.19.14.1-.37,2.13-2.64c3.93-4.88,8.14-9.48,13.53-12.83.37,1.67,0,3.56,1.47,4.9-.47.42-.93.87-1.42,1.27-7.11,5.71-12.75,12.5-15.72,21.27A5.39,5.39,0,0,0,8,173.38c3.75,7.25,9.7,12.27,16.46,16.53,1.67,1.05,2.11.81,2.61-1.06,1.3-4.92,2.57-9.88,4.88-14.46.78.33,1.05,1.11,1.5,1.72.6.83.83,2,2.07,2.24-.16.61-.27,1.25-.49,1.84a113,113,0,0,0-3.54,11.54,1.75,1.75,0,0,0,1.17,2.45,84.34,84.34,0,0,0,11.85,4.12c4.31,1.23,8.77,1.64,13.13,2.55a1.65,1.65,0,0,0,.67,1.27c2.63,1.75,5.14,3.72,8.23,4.66A58.82,58.82,0,0,1,62,220.45l3.5-.69c5.63-1.18,10.68-3.74,15.66-6.5.45,1.25,1.72,1.06,2.64,1.47C84.54,215.05,85.52,215,85.84,216ZM29.49,205.63a19.87,19.87,0,0,0,0,2.56c.45,3.54.78,7,4.95,8.63A56.06,56.06,0,0,0,52.87,221a4.28,4.28,0,0,0,4.28-2.49,44.71,44.71,0,0,0,4-11c.32-1.29-.27-1.44-1.29-1.47a60.23,60.23,0,0,1-9.08-1.12A84,84,0,0,1,32,199.34c-1.64-.72-2.1-.3-2.14,1.41A46.68,46.68,0,0,0,29.49,205.63ZM6.59,180.8c-.33,8.61,9.31,24.65,17.93,29.68a47.21,47.21,0,0,1,.66-12.92c.22-1.24-.62-1.77-1.51-2.27A55.48,55.48,0,0,1,6.59,180.8Z"/><path class="cls-7" d="M72.66,133.3l-1.43.16,3.5,3.32a5.24,5.24,0,0,0-.26,3.45c.21,1.13.78,2.25.26,3.44-2.52-2.35-4.87-4.89-8-6.93a7.05,7.05,0,0,0-.08,1.83A102.4,102.4,0,0,1,69.5,158.8c.09,1.5.62,1.71,1.91,1.56a35,35,0,0,0,12.71-3.84c.33.25.65.53,1,.77,2.36,1.7,4.42,3.93,7.52,4.35a60.58,60.58,0,0,1,5.91,25.51c-1.69.27-3.31-.24-5-.42a61.2,61.2,0,0,0-6.1-24.4c-.43-.92-.72-1.53-2-.86a36.23,36.23,0,0,1-14.26,4c-1,.08-1.37.44-1.34,1.43.05,1.92,0,3.84,0,5.76-1,.13-1.58-.66-2.24-1.25-.86-.76-1.47-1.85-2.71-2.14-.41-1.44,1-3.88-2.14-3.8-.35-2-2.29-3.12-2.55-5.11.26.06.53.11.79.18,2.75.81,3.61.2,3.39-2.59a132.79,132.79,0,0,0-2.86-20.34c-.14-.59,0-1.51-.7-1.61s-1.1.72-1.55,1.25c-1.47,1.78-2.64,3.81-4.54,5.21-1.19-.25-1-1.35-1.28-2.15-.29-1,0-2.08-.54-3L55.46,134l-2.48.28c0-1.75-.06-3.5-.1-5.24a.25.25,0,0,1-.13-.17c.72-.51.68-1.36.89-2.08s.11-1.87,1.13-2.34a3.92,3.92,0,0,1,1.9.73c0-.12.41,0,.17-.28l-.17.33c.08-2-1.12-2.69-2.83-3l1.24-5h9.39c-.48,1.19.6.78,1,.86A49.57,49.57,0,0,1,78.11,122c-.46,1.59-.93,3.17-1.39,4.75-2.83-1-4.93-.55-6.32,1.34l3.16.33A10.88,10.88,0,0,0,72.66,133.3Zm-5.38-9.6a24.35,24.35,0,0,0-6.37-.85c1.51,1,1.45,3.27,2.67,3.32s2.34-1.34,3.52-2.11C67.15,124,67.16,123.94,67.28,123.7Z"/><path class="cls-8" d="M41,119c1.38-.32,2.76-.62,4.14-1,.38-.1,1.07-.09.53-.81h9.39c-.41,1.67-.82,3.35-1.24,5L50,122.5c1.3,1.46,3.42.73,4.77,1.92-1,.47-.87,1.49-1.13,2.34s-.17,1.57-.89,2.08a48.91,48.91,0,0,0-13-2.18Z"/><path class="cls-6" d="M248.14,150.53c-1.88,7.42-3.84,14.83-5.6,22.29-.47,2-1.3,2.58-3.31,2.53-5.77-.13-5.77,0-7.1-5.55-2.11-8.69-4.17-17.4-6.36-26.08-.46-1.8,0-2.22,1.75-2.22,5.24,0,5.26-.07,6.3,5,1.23,5.91,2.41,11.83,3.61,17.74.14.66.35,1.31.68,2.55l4.41-17c.53-2.07,1.1-4.12,1.55-6.2.32-1.48,1-2.29,2.63-2a12.33,12.33,0,0,0,1.49,0c5.62.15,4.39-1.09,5.84,4.87,1.54,6.35,2.94,12.73,4.42,19.09a6.32,6.32,0,0,0,.53,1c1.67-7.8,3.34-15.26,4.83-22.75.35-1.78,1.08-2.29,2.82-2.27,4.8.07,4.73,0,3.52,4.62q-3.5,13.39-6.82,26.84c-.43,1.77-1.15,2.42-3,2.39-5.76-.08-5.77,0-7.08-5.51q-2.16-9-4.29-18c-.09-.41-.25-.8-.37-1.19Z"/><path class="cls-6" d="M488.09,148.07v2.27c0,7.53,0,15.06,0,22.59,0,1.66-.33,2.46-2.22,2.4-5.46-.17-4.6.68-4.62-4.63,0-8.88,0-17.76,0-26.64,0-1.89.42-2.72,2.47-2.57,2.76.2,6-.71,8.17.44s2.71,4.62,3.94,7.08c2.7,5.4,5.3,10.85,7.95,16.28.3.62.64,1.21,1.25,2.35.07-1.25.13-1.91.13-2.58,0-7,.06-14.06,0-21.1,0-1.77.35-2.56,2.34-2.48,5.34.2,4.48-.65,4.51,4.52.05,8.88,0,17.76.06,26.64,0,2-.42,2.89-2.57,2.69-2.54-.24-5.52.85-7.54-.4s-2.5-4.31-3.61-6.6c-3.27-6.77-6.46-13.57-9.68-20.36Z"/><path class="cls-6" d="M435.63,157.77c3.74,1.38,6.32,3.44,6.88,7.39a7.36,7.36,0,0,1-2.88,7.32,12.7,12.7,0,0,1-7.49,2.75c-4.7.13-9.39,0-14.09.09-1.42,0-1.82-.59-1.82-1.92q0-15,0-30.07c0-1.42.57-1.83,1.91-1.82,4.48.06,9-.06,13.44.05,5.82.16,9.79,4.12,9.49,9.26C440.91,153.55,439.89,154.89,435.63,157.77Zm-12.11,7.33c0,4.63,0,4.63,4.57,4.62a12.19,12.19,0,0,0,4.41-.46,3.12,3.12,0,0,0,2.1-2.2c1-4-.65-6.2-4.75-6.31h-1.92C422.84,160.83,423.59,160,423.52,165.1Zm4.12-18c-4.62.05-4.08-.57-4.12,3.91,0,.92,0,1.84,0,2.76s.3,1.4,1.22,1.38c2-.05,4.1.22,6.14-.27a3.48,3.48,0,0,0,2.92-3.63,3.61,3.61,0,0,0-2.89-3.91A13.22,13.22,0,0,0,427.64,147.1Z"/><path class="cls-6" d="M368.92,158.42c0-5,0-9.94,0-14.91,0-.9-.18-2,1.26-2,5.11.14,10.24-.5,15.31.4,6.94,1.24,11.35,6,12,13.07.35,4,.37,8-1.25,11.74-2.45,5.69-7.13,8.11-13,8.45-4.1.25-8.24,0-12.36.11-1.5,0-2-.52-2-2C369,168.36,368.92,163.39,368.92,158.42Zm7.27-.19c0,3.26,0,6.52,0,9.79,0,.68-.09,1.38.88,1.67,5.73,1.69,11.66-1.67,12.47-7.6,1.4-10.31-1.49-15.52-11.48-15-1.53.07-1.94.61-1.9,2C376.24,152.13,376.19,155.18,376.19,158.23Z"/><path class="cls-6" d="M290,176.1c-9.69,0-15.9-6.22-16.26-16.46-.18-5.16.59-10.2,4.32-14.08,5.11-5.32,11.49-5.84,18.15-3.8,6.26,1.92,8.88,6.87,9.92,12.94a22.65,22.65,0,0,1-.19,8.45C304.24,171.66,298.73,176.11,290,176.1Zm8.47-17.57a20.82,20.82,0,0,0-.53-6.16c-.89-3.47-3.51-5.93-6.53-6.16-4.49-.33-7.23.93-8.54,4.42a20.94,20.94,0,0,0,.17,16c1.28,3.05,3.95,4.27,7,4.25s5.66-1.22,7.07-4.25A16.77,16.77,0,0,0,298.49,158.53Z"/><path class="cls-6" d="M331.29,158.56c3.42.74,4.46,3.12,4.91,6.1.48,3.15.63,6.37,1.66,9.42.29.86,0,1.2-.87,1.2h-5.33c-1.32,0-1.39-1.08-1.52-1.95q-.54-3.68-.93-7.38c-.34-3.14-1.53-4.28-4.63-4.3-6.06-.06-6.06-.06-6.06,5.93v5.54c0,.43.14,1-.08,1.26-1.69,1.91-3.93.57-5.91.87-1.22.18-1.28-.82-1.28-1.72v-9.16c0-6.89,0-13.79,0-20.68,0-1.66.48-2.27,2.18-2.19,5.53.28,11.1-.5,16.6.49,5.2.93,7.84,4.4,7.3,9.51C336.92,155.11,334.51,157.08,331.29,158.56Zm-12.77-7.08a23.89,23.89,0,0,1,0,2.54c-.16,1.6.51,2.16,2.08,2.06s3.26,0,4.88-.07a4.24,4.24,0,0,0,4.17-4.26c.13-2.52-.94-3.93-3.56-4.46a16.73,16.73,0,0,0-3.17-.19C318.52,147.08,318.52,147.09,318.52,151.48Z"/><path class="cls-6" d="M179.76,158.58c0,4.91,0,9.82,0,14.72,0,1.43-.4,2-1.93,2-5.36.11-5.36.16-5.36-5.18,0-2.71,0-5.41,0-8.11,0-1.17-.4-1.68-1.61-1.67-3.2,0-6.4,0-9.6,0-1.37,0-1.67.65-1.66,1.85,0,3.7,0,7.4,0,11.09,0,1.45-.43,2.05-1.94,2-6.47-.16-5.28.89-5.33-5.21-.07-8.68,0-17.35-.05-26,0-1.85.36-2.65,2.45-2.6,4.85.11,4.85,0,4.85,4.85,0,2.28,0,4.56,0,6.83,0,1.18.45,1.66,1.64,1.65,3.13,0,6.26-.06,9.39,0,1.44,0,1.84-.58,1.81-1.91,0-3.2,0-6.4,0-9.6,0-1.24.39-1.75,1.71-1.81,5.6-.27,5.6-.31,5.6,5.35Z"/><path class="cls-6" d="M525.21,158.42c0,5.11-.07,9.85,0,14.59,0,1.76-.5,2.34-2.29,2.33-5,0-5,0-5-4.89,0-8.88,0-17.76,0-26.64,0-1.73.47-2.34,2.27-2.32,5,0,5,0,5,5.07v9.27a24.54,24.54,0,0,0,3.68-4.32c2.27-2.82,4.46-5.71,6.61-8.62a2.86,2.86,0,0,1,2.65-1.38c2.05.08,4.11,0,6.18,0,.22,1.05-.51,1.52-1,2.08-3.08,3.81-6.1,7.67-9.34,11.35-1.24,1.41-1,2.31,0,3.63,3.56,4.79,7,9.64,10.52,14.48.39.55,1.19,1.11.87,1.81s-1.27.29-1.93.42c-4.73.93-7.76-.93-10-5.19-2.1-3.92-5-7.42-7.53-11.1A6.67,6.67,0,0,0,525.21,158.42Z"/><path class="cls-6" d="M461.57,141.53c5.15.1,4-.77,5.66,4q4.81,13.67,9.54,27.34c.82,2.34.78,2.41-1.67,2.38-6-.09-4.54.93-6.35-4.52-.62-1.89-1.5-2.58-3.49-2.47-3,.18-6,.12-8.94,0a2.28,2.28,0,0,0-2.64,1.86c-.07.28-.19.54-.28.81-1.59,4.53-1.59,4.48-6.34,4.33-1.69,0-1.92-.67-1.39-2.11,2.14-5.86,4.24-11.75,6.36-17.62,1.38-3.8,2.9-7.56,4.11-11.41.63-2,1.53-3.06,3.72-2.67A9.74,9.74,0,0,0,461.57,141.53Zm0,7.26-.55-.06q-2.12,6.32-4.25,12.64c-.32,1,.28,1.1,1,1.11,2.21,0,4.41,0,6.61,0,1.23,0,1.47-.47,1.11-1.56C464.14,156.89,462.85,152.84,461.54,148.79Z"/><path class="cls-6" d="M185.74,158.3c0-4.91,0-9.81,0-14.71,0-1.58.48-2.11,2.07-2.09,6.11.07,12.23.08,18.34,0,1.77,0,2.36.52,2.31,2.3-.08,3.31,0,3.31-3.38,3.31s-6.69.07-10,0c-1.62,0-2.16.54-2,2.1a35.61,35.61,0,0,1,0,4.26c-.07,1.3.48,1.76,1.75,1.74,3.48,0,7,.06,10.45,0,1.71-.05,2.41.42,2.36,2.25-.09,3.36,0,3.36-3.33,3.36-3.13,0-6.26.05-9.39,0-1.39,0-1.91.48-1.85,1.86.08,1.78.08,3.56,0,5.33-.06,1.4.5,1.86,1.87,1.84,4-.06,8,0,11.94-.05,1.58,0,2.11.51,2.1,2.09,0,3.52.05,3.52-3.42,3.52-5.83,0-11.66-.06-17.49,0-1.81,0-2.31-.6-2.28-2.34C185.8,168.1,185.74,163.2,185.74,158.3Z"/><path class="cls-6" d="M138.34,161.32c0,4-.06,8,0,12,0,1.62-.56,2-2.11,2.06-5.2,0-5.2.09-5.2-5.14,0-7,0-13.94,0-20.9,0-1.64-.41-2.33-2.15-2.22-2.06.13-4.13,0-6.19.05-1.33,0-2-.36-1.9-1.81a10.16,10.16,0,0,0,0-1.91c-.12-1.36.4-1.9,1.82-1.89q12.06.06,24.12,0c1.28,0,1.85.46,1.75,1.75a11.19,11.19,0,0,0,0,1.92c.16,1.51-.52,2-2,1.94-2.13-.09-4.27,0-6.4,0-1.42-.05-1.86.51-1.84,1.87C138.38,153.08,138.34,157.2,138.34,161.32Z"/><path class="cls-6" d="M342.91,158.23c0-4.82,0-9.66,0-14.48,0-1.59.36-2.27,2.13-2.27,5.17,0,5.17-.06,5.17,5.17,0,7,0,13.93,0,20.89,0,1.63.45,2.27,2.17,2.21,3.55-.11,7.11,0,10.66-.06,1.56,0,2.27.44,2.09,2.06a10.15,10.15,0,0,0,0,1.91c.07,1.18-.44,1.65-1.63,1.65-6.25,0-12.51,0-18.76,0-1.48,0-1.78-.67-1.77-2C342.94,168.32,342.91,163.28,342.91,158.23Z"/><path class="cls-9" d="M85.84,216c-.32-1-1.3-.92-2-1.24-.92-.41-2.19-.22-2.64-1.47a23.55,23.55,0,0,0,9.61-11.68,62.56,62.56,0,0,1-22.31,4.55c-.67,0-1.46-.1-1.92.65-3.09-.94-5.6-2.91-8.23-4.66a1.65,1.65,0,0,1-.67-1.27,25.56,25.56,0,0,1,2.77.06c1.67.21,2.39-.37,2.54-2.13.28-3.32.81-6.61,1.23-9.92,1.76.32,2.76,2.33,4.75,2.12.13,2.84-.69,5.56-1,8.34-.2,1.6.33,1.85,1.84,1.77a66.23,66.23,0,0,0,17.19-3.43c.57,1.74,2.22,1.52,3.51,1.87,3.11.84,6.42.67,9.48,1.8A49.18,49.18,0,0,1,85.84,216Z"/><path class="cls-10" d="M74.73,143.67c.52-1.19,0-2.31-.26-3.44a5.24,5.24,0,0,1,.26-3.45.61.61,0,0,1,.39.73.31.31,0,0,0,.22.22c2.58,1.37,4.11,3.83,6,5.88a46.81,46.81,0,0,1,6,8.22c.9,1.55,1.46,1.19,2.33.08a15.31,15.31,0,0,0,2.9-5.85c.51-2,1.74-2.92,3.31-2.38,1.73.59,2.06,1.91,1.68,3.6a18.34,18.34,0,0,1-5.42,9.33c-1.1,1-1.24,1.73-.5,2.9a13.55,13.55,0,0,1,.92,2.13c-3.1-.42-5.16-2.65-7.52-4.35-.34-.24-.66-.52-1-.77,0-.86-.6-1.41-1-2A75,75,0,0,0,74.73,143.67Z"/><path class="cls-10" d="M72.66,133.3a10.88,10.88,0,0,1,.9-4.87c2.18,0,4.3.87,6.78.69-1.19-1.25-2.56-1.57-3.62-2.36.46-1.58.93-3.16,1.39-4.75a39.1,39.1,0,0,1,15.83,12.48c.91,1.2,1.33,2.41.27,3.67s-2.39,1.05-3.67.35A49,49,0,0,0,72.66,133.3Z"/><path class="cls-8" d="M99.93,201.33c-3.06-1.13-6.37-1-9.48-1.8-1.29-.35-2.94-.13-3.51-1.87,1.09-.49,2.14-1.06,3.26-1.46a4.19,4.19,0,0,0,3.12-4.42c0-1.68.16-3.36.26-5.05,1.65.18,3.27.69,5,.42l.21,2.61,1.57-1.78c1.76,1,3.7.9,5.63.93a37.86,37.86,0,0,1-4.66,10.33C100.87,200,100.39,200.63,99.93,201.33Z"/><path class="cls-7" d="M106,188.91c-1.93,0-3.87.06-5.63-.93,3.83-6.74,3.62-14.11,3.27-21.49,0-.35-.06-.7-.08-1.05h4.93A48.18,48.18,0,0,1,106,188.91Z"/><path class="cls-10" d="M108.44,165.45h-4.93a55.21,55.21,0,0,0-3.26-12.31c-.86-2.17-.31-3.65,1.43-4.14,1.57-.44,2.7.63,3.44,2.66a79.31,79.31,0,0,1,2.72,9.06C108.22,162.28,107.81,163.92,108.44,165.45Z"/><path class="cls-7" d="M75.34,137.73a.31.31,0,0,1-.22-.22A.24.24,0,0,1,75.34,137.73Z"/><path class="cls-9" d="M32,174.39a102.55,102.55,0,0,1,6.27-14.14c.68-1.32.63-2-.73-2.82a34.24,34.24,0,0,1-10.84-10.32c-.44-.69-.85-1.36-1.82-.76-1.46-1.34-1.1-3.23-1.47-4.9.16-.3.5-.65.44-.9-.58-2.36-.13-4.75-.29-7.12l0,0,.17-.05-.15-.23a5.24,5.24,0,0,1-.22-3.64,1.86,1.86,0,0,0-.33-2.11A48,48,0,0,1,41,119c-.44,2.55-.87,5.11-1.31,7.66a7.17,7.17,0,0,1-1.43.31c-5.9.15-7.86,2.4-9.92,8.21-.28.79-.56,1.82.14,2.35s1.42-.32,2.1-.65c2.28-1.1,4.43-2.48,6.93-3.09.08,1.64,0,3.31.92,4.78-2.25,1.15-4.47,2.35-6.76,3.42-1.51.72-1.52,1.5-.6,2.76a33.48,33.48,0,0,0,9.92,9,10.51,10.51,0,0,0,2.59,7c-3,5.74-5.7,11.57-8.08,17.57-1.24-.24-1.47-1.41-2.07-2.24C33,175.5,32.73,174.72,32,174.39Z"/><path d="M7.7,156.92l-.1.37-.19-.14.25-.26Z"/><path d="M23.5,133.19l.15.23-.17.05A.31.31,0,0,0,23.5,133.19Z"/><path class="cls-8" d="M41,153.76c1.15.23,1.17-.85,1.52-1.42,3.17-5.24,6.33-10.48,10.42-15.08.54,1,.25,2.05.54,3,.24.8.09,1.9,1.28,2.15.06.89-.6,1.4-1.05,2A106.14,106.14,0,0,0,46.78,155c-.57,1-.34,1.44.66,1.86a58.74,58.74,0,0,0,10.73,3c.69.14,1.38.31,2.06.46.27,2,2.21,3.15,2.56,5.11-5.95-.07-11.53-1.77-17-3.87-.72-.28-1.45-.53-2.17-.8A10.51,10.51,0,0,1,41,153.76Z"/><path class="cls-8" d="M69.88,172.64A140.5,140.5,0,0,1,68.93,191c-2,.21-3-1.8-4.75-2.12.54-6.52.63-13.07.75-19.61,1.24.29,1.85,1.38,2.71,2.14C68.3,172,68.83,172.77,69.88,172.64Z"/><path class="cls-8" d="M37.53,133.79a64.71,64.71,0,0,1,13.1-4.19c.76-.18,1.5-.39,2.25-.59,0,1.74.07,3.49.1,5.24a107.76,107.76,0,0,0-14.53,4.32C37.52,137.1,37.61,135.43,37.53,133.79Z"/><path d="M56.67,125.2l.17-.33c.24.27-.14.16-.17.28Z"/></g></g></svg>