<svg xmlns="http://www.w3.org/2000/svg" viewBox="0 0 243.03 243.49"><defs><style>.cls-1{fill:#fff;}.cls-2{fill:#006341;}</style></defs><title>starbucks-logo</title><g id="Layer_2" data-name="Layer 2"><g id="Layer_1-2" data-name="Layer 1"><circle class="cls-1" cx="121.52" cy="121.52" r="121.52"/><path class="cls-2" d="M133.74,52.54a74.07,74.07,0,0,0-12.22-1.06,72.77,72.77,0,0,0-12.22,1.06c-.61.11-.85-.49-.38-.84l12.59-9.58,12.6,9.58C134.58,52.05,134.35,52.65,133.74,52.54Zm-21,60.17a1.4,1.4,0,0,0-.81.8c2.55,2,4.3,6.42,9.63,6.42s7.08-4.46,9.62-6.42a1.34,1.34,0,0,0-.81-.8,42.53,42.53,0,0,1-8.81.78A42.58,42.58,0,0,1,112.7,112.71Zm8.82-7.51c-1.48,0-1.81-.56-2.81-.55a5,5,0,0,0-3.23,1.47,1.6,1.6,0,0,0,.42,1c2.15.32,3.12,1.52,5.62,1.52s3.47-1.2,5.63-1.52a1.56,1.56,0,0,0,.41-1,5,5,0,0,0-3.23-1.47C123.32,104.64,123,105.2,121.52,105.2Zm121.33,23q-.24,4.35-.77,8.63c-13.76,2.28-18.67-10-32.76-9.36a89,89,0,0,1,2.05,9.14c11.62,0,16.3,10.86,29.23,9.26q-1,5-2.44,9.82c-10.23,1-13.83-9.15-25.66-8.87q.15,2.52.15,5.1c0,.95,0,1.9-.05,2.84,10.09-.12,13.37,9.21,23,8.77q-1.82,4.89-4,9.59c-6.9-.38-9.28-9.24-19.79-8.53q-.48,3.41-1.2,6.73c9.13-.64,11.09,7.76,17.63,8.44-1.66,3-3.46,6-5.37,8.87-3.87-2.07-7.22-8.33-14.57-8.71.76-2.33,1.42-4.68,2-7.08a30.42,30.42,0,0,1-20.2-8.23c2-11.53-15.87-23.26-15.87-31.7,0-9.17,4.64-14.25,4.64-26.61,0-9.17-4.46-19.13-11.17-25.93A22.53,22.53,0,0,0,163.46,77c6.17,7.64,10.91,16.7,10.91,27.19,0,11.64-5.41,17.78-5.41,28.53s15.71,20,15.71,31.11c0,4.36-1.39,8.62-6,17,7.05,7.05,16.24,10.89,22.17,10.89,1.93,0,3-.59,3.65-2.1.59-1.3,1.15-2.62,1.68-3.95,6.39.24,9.31,6,12.85,8.36-1.94,2.61-4,5.12-6.11,7.56-2.37-2.63-5.55-7-10.22-8.27q-1.25,2.43-2.64,4.79c4,1.09,6.76,5.14,8.88,7.81q-3.44,3.56-7.16,6.83c-1.55-2.41-4-5.47-6.67-7.12q-1.5,2-3.11,3.95a21.08,21.08,0,0,1,5.65,6.66q-4.31,3.45-8.9,6.52c-1.51-12.34-18.36-20.8-13.82-35.11-1.49,2.52-3.27,5.67-3.27,9.47,0,10.37,11,18.59,11.92,28.89q-3.43,2.06-7,3.88c-.4-11.32-12.09-23.71-12.09-33,0-10.37,13.59-20.79,13.59-33S162.4,143.1,162.4,132.34s6.67-16.93,6.67-30.71A36.76,36.76,0,0,0,156.86,74.8a20.17,20.17,0,0,0-4.15-2.89c7,8.38,11,16,11,27.52,0,13-7.64,20.15-7.64,32.84s15.38,19.74,15.38,31.57-14.32,21.79-14.32,33.94c0,11.06,12.62,22.09,12.81,35.2q-4.14,1.82-8.43,3.3c1.6-13.25-12.6-26.91-12.6-37.72,0-11.82,14.85-22,14.85-34.72s-15.1-18.68-15.1-31.76S158,111.76,158,97.3a35.25,35.25,0,0,0-13.69-27.67l-.51-.39c-.77-.56-1.4.12-.86.79,5.75,7.18,8.83,14.45,8.83,25.2,0,13.22-10.64,24-10.64,36.77,0,15.11,14.29,19.44,14.29,31.84s-15.33,22.32-15.33,35.48c0,12.21,14.5,25.75,12,39.85-2.91.75-5.86,1.41-8.85,1.94,2.72-17.55-11.51-30.15-11.51-41.62,0-12.43,15.87-23.51,15.87-35.65,0-11.46-11.39-15.2-12.89-26.92a2.74,2.74,0,0,0-3.26-2.49c-2.31.42-5.27,1.95-9.93,1.95s-7.62-1.53-9.94-1.95a2.76,2.76,0,0,0-3.26,2.49c-1.49,11.72-12.89,15.46-12.89,26.92,0,12.14,15.87,23.21,15.87,35.65,0,11.47-14.22,24.07-11.5,41.62q-4.49-.81-8.85-1.94c-2.49-14.1,12-27.64,12-39.85,0-13.16-15.32-23.08-15.32-35.48s14.29-16.73,14.29-31.84c0-12.81-10.64-23.55-10.64-36.77,0-10.75,3.07-18,8.83-25.2.54-.67-.09-1.35-.86-.79l-.51.39A35.18,35.18,0,0,0,85.06,97.29c0,14.45,9.27,21.69,9.27,34.77s-15.1,19-15.1,31.76,14.85,22.9,14.85,34.72c0,10.82-14.2,24.48-12.6,37.73q-4.29-1.5-8.43-3.3c.19-13.12,12.8-24.15,12.8-35.2,0-12.15-14.31-22.12-14.31-34s15.38-18.88,15.38-31.57-7.64-19.88-7.64-32.84c0-11.53,4-19.13,11-27.51a19.24,19.24,0,0,0-4.15,2.88A36.77,36.77,0,0,0,74,101.61c0,13.78,6.66,20,6.66,30.72S65,151.57,65,163.82s13.58,22.66,13.58,33c0,9.3-11.69,21.69-12.09,33-2.38-1.22-4.72-2.5-7-3.87.88-10.3,11.92-18.53,11.92-28.89,0-3.8-1.78-7-3.27-9.48,4.54,14.32-12.31,22.77-13.82,35.12q-4.6-3.07-8.9-6.53A21.15,21.15,0,0,1,51,209.55c-1.08-1.28-2.11-2.61-3.11-4a23.43,23.43,0,0,0-6.68,7.13q-3.7-3.28-7.15-6.84c2.12-2.66,4.87-6.71,8.88-7.81-.93-1.57-1.81-3.16-2.64-4.79-4.67,1.23-7.85,5.65-10.22,8.27Q26.9,197.89,24,194c3.54-2.32,6.46-8.13,12.84-8.37.54,1.33,1.1,2.65,1.69,4,.69,1.51,1.73,2.09,3.65,2.09,5.93,0,15.11-3.84,22.17-10.89-4.59-8.36-6-12.61-6-17,0-11.08,15.71-20.37,15.71-31.12s-5.41-16.89-5.41-28.53c0-10.49,4.74-19.54,10.91-27.18a22.53,22.53,0,0,0-4.17,3.35c-6.72,6.8-11.17,16.75-11.17,25.92,0,12.36,4.64,17.44,4.64,26.61,0,8.44-17.89,20.18-15.87,31.71a30.46,30.46,0,0,1-20.21,8.22q.85,3.6,2,7.08c-7.34.39-10.69,6.65-14.57,8.72q-2.86-4.32-5.37-8.88c6.54-.68,8.51-9.08,17.63-8.44-.47-2.21-.88-4.46-1.19-6.73-10.51-.7-12.89,8.16-19.8,8.54-1.46-3.14-2.81-6.33-4-9.6,9.61.44,12.89-8.88,23-8.76,0-.94-.05-1.9-.05-2.84,0-1.72.05-3.42.14-5.11-11.83-.27-15.43,9.88-25.65,8.88q-1.41-4.84-2.44-9.83c12.92,1.6,17.61-9.26,29.23-9.25a89.21,89.21,0,0,1,2.05-9.15c-14.09-.61-19,11.64-32.76,9.36-.36-2.84-.61-5.72-.77-8.63,16,1.79,22-11.35,36.54-9.75a85.2,85.2,0,0,1,4.77-10.08C23.24,105.12,17,120.38.05,118a121.51,121.51,0,0,1,242.93,0c-17,2.35-23.19-12.91-41.43-9.7a86,86,0,0,1,4.76,10.08c14.55-1.61,20.55,11.54,36.54,9.75Zm-173.57-51a31.64,31.64,0,0,0-29,3.13A31.77,31.77,0,0,0,27.5,59.47a1.09,1.09,0,0,0-1.79,1c1.41,18.18-9.23,34-22.3,47.86,13.48,4,25-13.31,42.42-7.25A91.61,91.61,0,0,1,69.28,77.21Zm52.24-11c-11.28,0-20.73,6.38-23.21,14.63-.19.63.07,1,.8.71A16.65,16.65,0,0,1,106,80.2c4.6,0,8.65,1.69,11.05,4.63,1.06,3.5,1.15,8.57-.05,11.46-1.9-.43-2.58-1.89-4.43-1.89s-3.28,1.3-6.42,1.3-3.5-1.49-5.57-1.49c-2.42,0-2.87,2.5-2.87,5.32,0,12.57,11.55,29.86,23.84,29.86s23.84-17.29,23.84-29.86c0-2.82-.58-5.23-3.12-5.56a7.64,7.64,0,0,1-5.31,1.73c-3.14,0-4-1.3-5.86-1.3-2.23,0-2,4.7-4.65,5A22.26,22.26,0,0,1,126,84.83c2.4-2.94,6.45-4.63,11-4.63a16.51,16.51,0,0,1,6.84,1.35c.74.33,1-.09.8-.71-2.47-8.25-11.91-14.63-23.19-14.63Zm18,18c-2.71,0-5.88.83-7.87,3a3,3,0,0,0,.08,2.1c4.91-1.68,9.23-1.75,11.32.59a3.74,3.74,0,0,0,1.47-3C144.48,85.38,142.82,84.25,139.48,84.25ZM100,90c2.37-2.37,7.35-2.27,12.53-.36.23-2.57-4.38-5.39-9-5.39-3.35,0-5,1.13-5,2.77A3.77,3.77,0,0,0,100,90Zm77.74-42.54a40.17,40.17,0,0,0-22.9,8.78,90,90,0,0,1,10.31-20.51c-11.34,1.21-20.82,5.35-27.74,12.44L132,34l12-10.62-16.1-1.14-6.42-15-6.43,15L99,23.35,111,34,105.6,48.16c-6.92-7.09-16.4-11.23-27.73-12.44a90.38,90.38,0,0,1,10.3,20.51,40.08,40.08,0,0,0-22.9-8.78A107.57,107.57,0,0,1,78.86,69.51a1.46,1.46,0,0,0,2.16.72,91.32,91.32,0,0,1,81,0,1.46,1.46,0,0,0,2.16-.72A107.57,107.57,0,0,1,177.76,47.45Zm19.45,53.68c17.47-6.06,28.94,11.29,42.42,7.24-13.08-13.88-23.7-29.67-22.3-47.85a1.09,1.09,0,0,0-1.79-1,31.72,31.72,0,0,0-12.75,20.87,31.63,31.63,0,0,0-29-3.13A91.62,91.62,0,0,1,197.21,101.13Z"/><path class="cls-2" d="M213,226.87h-6.18v16.62h-2.21V226.87h-6.17V224.8H213Z"/><path class="cls-2" d="M215.63,224.8h3.28l6.36,14.65h0l6.37-14.65h3.24v18.69h-2.24V227.82h-.05L226,243.49H224.6l-6.72-15.67h0v15.67h-2.21Z"/></g></g></svg>