<svg xmlns="http://www.w3.org/2000/svg" xmlns:xlink="http://www.w3.org/1999/xlink" viewBox="0 0 864 864"><defs><style>.cls-1{fill:#3fe0c5;}.cls-2{fill:#211e1f;}.cls-3{fill:url(#radial-gradient);}.cls-4{fill:#e9d0c0;}.cls-5{fill:#725e50;}.cls-11,.cls-6{fill:none;stroke-linecap:round;stroke-miterlimit:10;}.cls-6{stroke:#a88d7b;stroke-width:9px;}.cls-7{fill:#c1a8a4;}.cls-8{fill:#fff;}.cls-9{fill:#665142;}.cls-10{fill:#5d8c83;}.cls-11{stroke:#473b33;stroke-width:12px;}</style><radialGradient id="radial-gradient" cx="442.05" cy="685.2" fx="433.2341838331648" fy="447.2503070529832" r="243.9" gradientUnits="userSpaceOnUse"><stop offset="0" stop-color="#5f474e"/><stop offset="0.16" stop-color="#846b6c"/><stop offset="0.38" stop-color="#af9690"/><stop offset="0.58" stop-color="#ceb5aa"/><stop offset="0.75" stop-color="#e1c8b9"/><stop offset="0.87" stop-color="#e8cfbf"/></radialGradient></defs><title>scott-truffle-bg</title><g id="Truffle-light"><rect class="cls-1" width="864" height="864"/></g><g id="Scott"><path class="cls-2" d="M317.12,611.15c-51,28.19-59.59,52.69-83.94,59.06S30,753.9,0,778.24v92.18L864,864V819.77s-115.28-81.47-159.68-103-46.81-34.91-81.82-70.24-62.53-74.86-86-72.44S317.12,611.15,317.12,611.15Z"/><path class="cls-3" d="M289.17,561s-.94,184.07,0,204.73,13.15,41.32,27.23,52.58,55.41,31.23,63.86,45.67,93,0,93,0,29.11-38.15,42.26-40,37.56-23.48,44.13-31.93S583.1,764.81,584,744.15s10.33-54.47,11.27-64.8-17.84-128.66-16.9-169S289.17,561,289.17,561Z"/><path class="cls-4" d="M250.69,504c4.45.8,1.25,18.31,7.81,31.43s40.68,60.81,58.62,75.68,59.49,59.49,83.55,59.05,76.55,2.63,85.74-13.12,87.05-100.83,87.05-100.83l21-63.65s2.63-6.56,10.07,0,14-6.56,18.37-17.06,6.56-25.37,10.06-38.49,2.19-33.25,0-42,10.06-10.93,11.81-24.49-1.31-28.88-9.62-31.06-7-1.32-15.75,0S591,195.14,591,195.14L547.65,133.9,318.43,123.84,261.12,147,239.69,292.25s-3.94,62.12-11.81,64.31-17.5,0-21.87,3.06-12.25,13.12-8.32,31.93,12.69,24.06,13.56,38.06,13.13,38.62,13.57,50.81,3.73,36.53,15.31,32.74C244.46,511.75,247.85,511.11,250.69,504Z"/><path class="cls-5" d="M213.91,194s-2.32,47.25,0,72,4.65,92.18,11.62,103.8,13.7,86.75,13.7,86.75,10.46,35,7.21,72.06,66.24,106.53,66.24,106.53l38.9,44.46c6.49,7.41,39.49,27.79,80.42,23.62s56.28-19,66.2-28.25,36.79-40.72,59.95-68.29,35.48-40.09,37.19-56.76,3.6-55.58,3.12-65.31.45-76.88,3.69-94,13.17-31.84,17.24-51.12,3.14-54.48,2.68-86.44,4.63-59.28-14.82-83.83c-8.31-10.49-15.33-27.28-25.18-38.14-13.21-14.56-29.15-41.48-39.5-47.58-28.48-15.42-26.53-18.62-29.2-4.38-2-.85-4.08-11.32-6.18-12.19-3.45-1.42-7.55,9.12-11.17,7.71-2.79-1.09-5.07-14.16-7.92-15.22s-5.93,13.31-8.68,12.33c-2.56-.91-4.7-17.13-7.23-18-2.34-.78-4.91,18-7.2,17.27-3.25-1-6.19-21.52-9.27-22.39-3.49-1-6.68,26-9.86,25.28-.62-.15.63,2.87,0,0-.35-1.61,2.8-24.31,2.45-26.31s-6.09,11.63-6.44,9.54c-1.09-6.47-2.15-12.38-3.14-12.55-2.35-.42-11.77,17.48-13.79,17.28-2.58-.25-4.78-24.35-10.83-17.19-3.63,4.3,4,25.57.11,25.46C411,46.71,391,41.12,392.17,43.63c3.1,6.37-3.07,27.13-3.07,27.13s-12.83-17.66-7-26.19c3.53-5.18-11.12.55-17.32,25C360,71,364.28,57,369.68,45.74c1.77-3.7-9.46-3.45-14.5,21.76-3.14.45.17-20.76-14.68-22.41a81.55,81.55,0,0,1,.4,10c-.14,5.18-4.67-3.58-5.82-1.7s1.06,14.42-.65,11.66c-4.36-7.07-16.31-12.95-16.31-12.95s-.92,4.39-2.42,9.18c-.82,2.61-7-4.29-8.14-2.09s2.85,13.51,1.55,14c-5.17,1.91-11.33-13.58-12.48-12.85-3,1.92-7,17.18-7,17.18s-4.63-6.45-4.15-11.2c-7.12.71-16.24,20.21-24,28.72-5.43,6-17.83,26-25.08,41S213.91,194,213.91,194Z"/><path class="cls-4" d="M239.72,387.66s5.86-42.46,12.69-60.52,9.76-33.68,7.32-60S256,203.65,265.91,190s20.06-28.8,52.33-27.34S373,168.51,392.49,170s58.57-7.81,73.7-10.74,64.92-11.23,75.17,15.13S558.44,244.16,557,273s5.86,35.14,11.72,40.51,11.71,19,15.62,38.56,14.15,35.32,14.15,45-5.37,42.38-7.32,60.92-6.83,43.44-18.55,43.44-22,4.88-29.77,0-40.57-23.45-46.31-25.46-18.64-3.63-26.43,2.37-14,8.81-20.29,12.52c-12.43,7.38-28.45,17.24-36.4,17.16-20.49-.22-39.22-20.13-44.64-24.54s-26.53-10.84-38.25.87-21,26.36-41.75,22S257.29,512.12,252.9,495s-13.67-73.7-13.67-73.7Z"/><path class="cls-4" d="M333.63,537c-5.11-1.18-17-3.93-15.39,5.89s15,53.79,27.18,63.83,26.71,39.1,55,44.6,47.53,8.64,58.14,0,40.46-33.39,46-49.89,13.75-38.5,14.93-49.89,7.07-25.54,0-25.93S333.63,537,333.63,537Z"/><path class="cls-4" d="M239.72,387.66s5.86-42.46,12.69-60.52,9.76-33.68,7.32-60S256,203.65,265.91,190s20.06-28.8,52.33-27.34S373,168.51,392.49,170s58.57-7.81,73.7-10.74,64.92-11.23,75.17,15.13S558.44,244.16,557,273s5.86,35.14,11.72,40.51,11.71,19,15.62,38.56,14.15,35.32,14.15,45-5.37,42.38-7.32,60.92-6.83,43.44-18.55,43.44-22,4.88-29.77,0-40.57-23.45-46.31-25.46-18.64-3.63-26.43,2.37-14,8.81-20.29,12.52c-12.43,7.38-28.45,17.24-36.4,17.16-20.49-.22-39.22-20.13-44.64-24.54s-26.53-10.84-38.25.87-21,26.36-41.75,22S257.29,512.12,252.9,495s-13.67-73.7-13.67-73.7Z"/><path class="cls-6" d="M369.75,481.43s5,2,11.91,7.95c8.57,7.31,20.26,18.66,30.86,16.51,12.3-2.49,31-16.18,42.71-23,6.58-3.84,10.89-3,10.89-3"/><path class="cls-7" d="M324.41,536.87c8.27,12.88,21.3,27.31,32.92,40.13,7.89,8.71,12.81,17.33,24.1,21.65,27.92,10.7,63.57,9.51,75.45,3.57s30.89-37.43,47.52-51.68,26.73-24.36,14.85-29.71-63,3.57-72.47,5.35-44,2.38-58.81,1.19S319.06,528.56,324.41,536.87Z"/><path class="cls-2" d="M344.65,540.34c-5,3.45,6.45,11.7,20.33,16.86s106.43.37,113.87-3.6,15-11.73,16.85-15.37,5-6.44-.82-6.61-15.26,9.93-22.2,11.26-57.79,5.93-69.86,4.61-35.73-4.6-41.51-5.09S349,535.75,344.65,540.34Z"/><path class="cls-8" d="M359.6,542.91c2.54-2.36,39.77,1.9,45.07,3s28.78-.75,39.39-1.51,41.31-7.78,41.28-1.52c-1.14,3.79-6.06,15-14.77,20s-23.48,10.66-34.47,11-35.22-.38-42.79-2.27-26.14-10.11-30.3-14S357.06,545.28,359.6,542.91Z"/><path class="cls-9" d="M268.46,363.76c2.14,2.73,8-4.73,16.39-8s35.71-6.56,51-4,32.42,10.2,34.24,5.47-1.5-14.94-11.68-17.13-43.69-11.66-52.44-9.83-23-.73-28.41,5.1S266,349.79,265.91,354.29,266.32,361,268.46,363.76Z"/><path class="cls-9" d="M544.26,357.24c-2.13,2.73-8-4.74-16.39-8s-35.7-6.55-51-4-32.43,10.2-34.25,5.46,1.5-14.94,11.68-17.12,43.7-11.66,52.44-9.84,23-.73,28.42,5.1,11.6,14.44,11.65,18.95S546.4,354.51,544.26,357.24Z"/><path class="cls-10" d="M345,378.37a16.51,16.51,0,0,1-2.42,8.62c-5.06,3-22.5,6.21-25.46,3.43A16.54,16.54,0,1,1,345,378.37Z"/><path class="cls-10" d="M510.13,372.13a16.51,16.51,0,0,1-2.82,9.25c-6.19,2.73-17.53,2.45-26.53,1.22a16.55,16.55,0,0,1,1-22c3-3.09,18.47-4,21.11-2.19A16.52,16.52,0,0,1,510.13,372.13Z"/><path class="cls-11" d="M286.1,383.5s7.06-21.4,42.32-21.67c31.17-.24,42.16,20.76,42.16,20.76"/><path class="cls-11" d="M456.56,374.47s7.61-16.64,37-16.64,42.88,15.78,42.88,15.78"/></g></svg>