<svg id="Layer_1" data-name="Layer 1" xmlns="http://www.w3.org/2000/svg" xmlns:xlink="http://www.w3.org/1999/xlink" viewBox="0 0 1860 1160"><defs><style>.cls-1{fill:none;}.cls-2{clip-path:url(#clip-path);}.cls-3{fill:#848484;}</style><clipPath id="clip-path"><rect class="cls-1" x="416.77" y="76.34" width="1026.47" height="1007.33"/></clipPath></defs><title>art02-consensys</title><g id="ConsenSys"><g class="cls-2"><g class="cls-2"><path class="cls-3" d="M640.42,349A19.26,19.26,0,1,1,660,329.7,19.42,19.42,0,0,1,640.42,349m-25.57,29.93a17.66,17.66,0,1,1,17.95-17.65,17.8,17.8,0,0,1-17.95,17.65m-21.12,33a16.06,16.06,0,1,1,16.32-16.05,16.18,16.18,0,0,1-16.32,16.05m-16.31,35.4a14.44,14.44,0,1,1,14.68-14.45,14.57,14.57,0,0,1-14.68,14.45m-11.23,37.21a12.85,12.85,0,1,1,13-12.84,12.95,12.95,0,0,1-13,12.84m-6.14,38.29a11.24,11.24,0,1,1,11.42-11.25,11.33,11.33,0,0,1-11.42,11.25m-1.78,38.7a9.64,9.64,0,1,1,9.8-9.63,9.71,9.71,0,0,1-9.8,9.63m2.54,38.66a8,8,0,1,1,8.16-8,8.09,8.09,0,0,1-8.16,8m6.84,38.16a6.42,6.42,0,1,1,6.54-6.42,6.46,6.46,0,0,1-6.54,6.42m11.06,37.24a4.82,4.82,0,1,1,4.91-4.82,4.86,4.86,0,0,1-4.91,4.82m15.16,35.88a3.21,3.21,0,1,1,3.26-3.21,3.24,3.24,0,0,1-3.26,3.21m19.06,34.12a1.61,1.61,0,1,1,1.63-1.6,1.61,1.61,0,0,1-1.63,1.6m300-405.9Zm295.83,111.76a21,21,0,0,1-17,20.47,21.88,21.88,0,0,1-7,41.09,22.81,22.81,0,0,1,7.24,16.66,23.25,23.25,0,0,1-21.52,23,23.77,23.77,0,0,1,3.73,12.78,24,24,0,0,1-.74,5.79,18.5,18.5,0,1,1-2.34,8.8,17.85,17.85,0,0,1,.38-3.59,24.61,24.61,0,0,1-21.89,13.18h-.28a25.43,25.43,0,0,1,1.34,7.65,20.23,20.23,0,0,1,13.87-5.52,19.8,19.8,0,1,1,0,39.59,20.19,20.19,0,0,1-13.08-4.86,20.6,20.6,0,0,1,4.74,13,21.07,21.07,0,0,1-21.25,20.88,21.37,21.37,0,0,1-11.73-3.49,21.43,21.43,0,0,1,1,6.38,22.19,22.19,0,0,1-22.37,22,22.47,22.47,0,0,1-13.08-4.2c0,.17,0,.34,0,.51a23.27,23.27,0,0,1-23.46,23.09,23.59,23.59,0,0,1-15.17-5.48,24.12,24.12,0,0,1-11.24,15.23,18.45,18.45,0,1,1-5.21,2.35,25,25,0,0,1-7.47,1.14,24.67,24.67,0,0,1-17.58-7.3,25.37,25.37,0,0,1-4.56,6.35A19.77,19.77,0,1,1,983.57,738a21.22,21.22,0,0,1-41.81,2A22.45,22.45,0,0,1,900,733a23.57,23.57,0,0,1-16.94,7.14A23.32,23.32,0,0,1,859.68,719a24.75,24.75,0,0,1-18.88,2.94,18.55,18.55,0,0,1,10.05,16.38,19,19,0,1,1-19-18.68,19.33,19.33,0,0,1,3.66.36,24.11,24.11,0,0,1-13.4-21.52c0-.1,0-.18,0-.28a25.88,25.88,0,0,1-7.77,1.3,19.57,19.57,0,0,1,5.6,13.64,20.12,20.12,0,0,1-40.24,0,19.48,19.48,0,0,1,4.93-12.84,21.2,21.2,0,0,1-34.44-16.24,20.57,20.57,0,0,1,3.56-11.55,22.71,22.71,0,0,1-6.48.94,22.17,22.17,0,0,1-22.36-22,21.69,21.69,0,0,1,4.26-12.9l-.51,0A23.27,23.27,0,0,1,705.2,615.5a22.83,22.83,0,0,1,5.56-14.91,24.55,24.55,0,0,1-12.51-7.2c0,.5.16,1,.16,1.5a20.86,20.86,0,0,1-15,19.84,20.36,20.36,0,0,1,3.61-.36,20.26,20.26,0,1,1-6,1,21.49,21.49,0,0,1-3.86.38A21.05,21.05,0,0,1,656,594.88a20.75,20.75,0,0,1,11.66-18.54,22,22,0,0,1-5.18-41.22,23.12,23.12,0,0,1,1.17-41.83,24.34,24.34,0,0,1,7.8-41.77,25.35,25.35,0,0,1-5.13-15.26c0-.26,0-.51,0-.78a22.68,22.68,0,0,1-16.58,7.16c-.5,0-1,0-1.47-.08a20.66,20.66,0,0,1,6.31,14.82,21.19,21.19,0,1,1-21.19-20.85c.32,0,.63.1.94.11a22,22,0,0,1-7.18-16.25,22.41,22.41,0,0,1,22.59-22.23c.24,0,.46,0,.7,0a23.29,23.29,0,0,1-3.56-12.34,23.82,23.82,0,0,1,24-23.62c.5,0,1,0,1.49.07a24.59,24.59,0,0,1-1.32-7.95,25.22,25.22,0,0,1,25.41-25,25.65,25.65,0,0,1,2.94.18,26.73,26.73,0,0,1,31.63-29,27.58,27.58,0,0,1,9.05-18.31c-.44,0-.89.07-1.33.07a24.69,24.69,0,0,1-13.07-3.73,22.66,22.66,0,0,1-22.81,21.68,23,23,0,0,1-12.48-3.67,20.49,20.49,0,0,1,.74,5.17,21.22,21.22,0,1,1-21.22-20.87A21.29,21.29,0,0,1,681,284a22.36,22.36,0,0,1-.9-6.21,22.66,22.66,0,0,1,22.83-22.49,23,23,0,0,1,11.41,3s0-.1,0-.1a24.27,24.27,0,0,1,24.48-24.07,24.69,24.69,0,0,1,12.73,3.54,26,26,0,0,1,25.41-19.92,26.28,26.28,0,0,1,14.67,4.44,27.9,27.9,0,0,1,42.15-10,29.56,29.56,0,0,1,43.44-4.33,31.19,31.19,0,0,1,18-8.17,27.58,27.58,0,0,1-3.51-4.46,27.64,27.64,0,0,1-37.93-6.54,25.48,25.48,0,0,1-38.83-1.8,23.35,23.35,0,0,1-39.53,2.59,20.81,20.81,0,1,1-4-15.61,23,23,0,0,1,23-20.25A23.27,23.27,0,0,1,812,161.77a25.47,25.47,0,0,1,42.64-5.45,27.62,27.62,0,0,1,43.55,1.1,29.53,29.53,0,0,1,43.46,8,31.22,31.22,0,0,1,41.82,14.74,32.83,32.83,0,0,1,39.36,21.22c.61,0,1.23-.1,1.85-.1a34.37,34.37,0,0,1,33.93,27.84,35.83,35.83,0,0,1,30.69,34.55,37.42,37.42,0,0,1,23.74,34.67,35.26,35.26,0,0,1-.71,7,38.63,38.63,0,0,1,14.88,38.95,39.32,39.32,0,0,1,3,13.06c1,7,8.28,67.29-38,116.4-7.62,8.07-13.58,2.79-12.22-7.69,5.46-42-23.71-73.38-36.25-86.3a5.94,5.94,0,0,1-.52-.49,23.8,23.8,0,0,1-6.16-14.46c-.75-.83-1.43-1.7-2.1-2.6a25,25,0,0,1-17.61-2.3h0A24.23,24.23,0,0,1,1005,343.07a24.88,24.88,0,0,1-21.26,2.79,24.42,24.42,0,0,1-15.08-14,24.85,24.85,0,0,1-37.37-3.39,24.88,24.88,0,0,1-37.33,5,24.43,24.43,0,0,1-13.58,14.05,25.12,25.12,0,0,1-21-.89,24.12,24.12,0,0,1-10.49,17.73A24.88,24.88,0,0,1,829,368a23.82,23.82,0,0,1-6,19.78,24.65,24.65,0,0,1-19.6,8,24,24,0,0,1-1.93,20.35,24.65,24.65,0,0,1-15.84,11.41,23.78,23.78,0,0,1,3.78,19.81,24.54,24.54,0,0,1-12.92,15.83,24,24,0,0,1-1.24,37.49,24.26,24.26,0,0,1,12,17.17,24,24,0,0,1-4.81,18.6,24.49,24.49,0,0,1,15.19,12.06,23.77,23.77,0,0,1,.76,20.91,24.67,24.67,0,0,1,19.41,9.69,23.75,23.75,0,0,1,4.26,20,24.94,24.94,0,0,1,19.28,4.91,24,24,0,0,1,9.28,18.24,24.88,24.88,0,0,1,20.8.25,24.12,24.12,0,0,1,13.37,16.51A24.87,24.87,0,0,1,906,635.63a24.29,24.29,0,0,1,15.42,13.25,24.93,24.93,0,0,1,37.11,1.52,24.83,24.83,0,0,1,39.77-4.92,24.44,24.44,0,0,1,17.8-13.85,24.69,24.69,0,0,1,20,5,27.94,27.94,0,0,1,32.62-14.89,26.65,26.65,0,0,1,26.51-22.63,28.23,28.23,0,0,1,4,.33c0-.58-.08-1.18-.08-1.78a25.49,25.49,0,0,1,25.69-25.3c.36,0,.74,0,1.1.07a23.94,23.94,0,0,1-1.06-7,24.36,24.36,0,0,1,23.27-24.12,22.68,22.68,0,0,1-3.22-11.66,23.18,23.18,0,0,1,20.3-22.84,21.8,21.8,0,0,1-6.51-15.51,22.11,22.11,0,0,1,18.49-21.64,20.75,20.75,0,0,1-11-18.21,21,21,0,0,1,19.85-20.76,20,20,0,1,1,3.63.1,21,21,0,0,1,19,20.66M716.62,220.26a18.67,18.67,0,1,1,19-18.67,18.83,18.83,0,0,1-19,18.67m-35.69,17.82a16.59,16.59,0,1,1,16.87-16.6,16.73,16.73,0,0,1-16.87,16.6M648,260a14.52,14.52,0,1,1,14.75-14.52A14.66,14.66,0,0,1,648,260m-30.22,25.19a12.44,12.44,0,1,1,12.64-12.44,12.54,12.54,0,0,1-12.64,12.44M590.6,313.34A10.38,10.38,0,1,1,601.15,303a10.44,10.44,0,0,1-10.55,10.38m-23.74,30.8a8.3,8.3,0,1,1,8.43-8.29,8.36,8.36,0,0,1-8.43,8.29m-20.11,33.09a6.22,6.22,0,1,1,6.33-6.21,6.27,6.27,0,0,1-6.33,6.21m-16.22,35a4.15,4.15,0,1,1,4.21-4.15,4.17,4.17,0,0,1-4.21,4.15m-12.2,36.44a2.08,2.08,0,1,1,2.11-2.08,2.09,2.09,0,0,1-2.11,2.08m665.46-59a18.69,18.69,0,1,1,19-18.69,18.85,18.85,0,0,1-19,18.69m-9.87-40.23a17.59,17.59,0,1,1,17.88-17.59,17.74,17.74,0,0,1-17.88,17.59m-15-38.63a16.5,16.5,0,1,1,16.75-16.5,16.64,16.64,0,0,1-16.75,16.5M1139,274.4a15.39,15.39,0,1,1,15.64-15.4A15.52,15.52,0,0,1,1139,274.4m-24.37-33.52a14.3,14.3,0,1,1,14.53-14.3,14.42,14.42,0,0,1-14.53,14.3m-28.45-30.15a13.2,13.2,0,1,1,13.4-13.2,13.31,13.31,0,0,1-13.4,13.2m-32.07-26.24a12.09,12.09,0,1,1,12.3-12.09,12.19,12.19,0,0,1-12.3,12.09M1019,162.61a11,11,0,1,1,11.17-11,11.1,11.1,0,0,1-11.17,11m-37.65-17.14a9.9,9.9,0,1,1,10.07-9.91,10,10,0,0,1-10.07,9.91m-39.44-12.16a8.8,8.8,0,1,1,8.94-8.79,8.87,8.87,0,0,1-8.94,8.79m-40.54-7.14a7.7,7.7,0,1,1,7.81-7.69,7.76,7.76,0,0,1-7.81,7.69m-41-2.84a6.6,6.6,0,1,1,6.71-6.6,6.64,6.64,0,0,1-6.71,6.6m-40.92,1.41a5.51,5.51,0,1,1,5.59-5.51,5.55,5.55,0,0,1-5.59,5.51m-40.42,5.63a4.41,4.41,0,1,1,4.47-4.4,4.43,4.43,0,0,1-4.47,4.4m-39.5,9.78a3.3,3.3,0,1,1,3.36-3.31,3.33,3.33,0,0,1-3.36,3.31M701.47,154a2.19,2.19,0,1,1,2.24-2.2,2.21,2.21,0,0,1-2.24,2.2m-36.31,17.66a1.1,1.1,0,1,1,1.13-1.11,1.11,1.11,0,0,1-1.13,1.11M1211.22,563a17.59,17.59,0,1,1,17.88-17.6,17.75,17.75,0,0,1-17.88,17.6m16.34-38.08a16.5,16.5,0,1,1,16.78-16.5,16.63,16.63,0,0,1-16.78,16.5m11.32-39.89a15.39,15.39,0,1,1,15.64-15.38,15.52,15.52,0,0,1-15.64,15.38m6.08-41a14.3,14.3,0,1,1,14.55-14.29A14.42,14.42,0,0,1,1245,444.09m.76-41.42a13.2,13.2,0,1,1,13.41-13.21,13.31,13.31,0,0,1-13.41,13.21m-4.6-41.2a12.1,12.1,0,1,1,12.3-12.1,12.2,12.2,0,0,1-12.3,12.1m-9.89-40.23a11,11,0,1,1,11.17-11,11.11,11.11,0,0,1-11.17,11m-15.09-38.62a9.9,9.9,0,1,1,10.06-9.91,10,10,0,0,1-10.06,9.91m-20-36.36a8.8,8.8,0,1,1,8.93-8.8,8.85,8.85,0,0,1-8.93,8.8m-24.33-33.58a7.7,7.7,0,1,1,7.82-7.69,7.76,7.76,0,0,1-7.82,7.69m-27.74-30.83a6.6,6.6,0,1,1,6.72-6.61,6.66,6.66,0,0,1-6.72,6.61M1113.4,154a5.5,5.5,0,1,1,5.59-5.49,5.53,5.53,0,0,1-5.59,5.49M1080,129.59a4.41,4.41,0,1,1,4.47-4.4,4.44,4.44,0,0,1-4.47,4.4m-35.74-20.87a3.31,3.31,0,1,1,3.35-3.31,3.33,3.33,0,0,1-3.35,3.31m-37.67-17.07a2.2,2.2,0,1,1,2.23-2.2,2.21,2.21,0,0,1-2.23,2.2M967.42,78.54a1.1,1.1,0,1,1,1.13-1.1,1.11,1.11,0,0,1-1.13,1.1M1084.05,740a17.6,17.6,0,1,1,17.89-17.6,17.74,17.74,0,0,1-17.89,17.6m38.16-15.88a16.5,16.5,0,1,1,16.76-16.5,16.64,16.64,0,0,1-16.76,16.5m35.86-20.65a15.39,15.39,0,1,1,15.64-15.4,15.5,15.5,0,0,1-15.64,15.4m33-25.07a14.29,14.29,0,1,1,14.53-14.29A14.41,14.41,0,0,1,1191,678.41m29.54-29.07a13.2,13.2,0,1,1,13.4-13.19,13.3,13.3,0,0,1-13.4,13.19m25.55-32.64a12.1,12.1,0,1,1,12.3-12.11,12.2,12.2,0,0,1-12.3,12.11m21.13-35.7a11,11,0,1,1,11.16-11,11.07,11.07,0,0,1-11.16,11m16.3-38.1A9.9,9.9,0,1,1,1293.6,533a10,10,0,0,1-10.06,9.89m11.24-39.9a8.8,8.8,0,1,1,9-8.81,8.88,8.88,0,0,1-9,8.81m6.14-41a7.71,7.71,0,1,1,7.83-7.71,7.77,7.77,0,0,1-7.83,7.71m1.78-41.42a6.61,6.61,0,1,1,6.7-6.61,6.66,6.66,0,0,1-6.7,6.61m-2.55-41.37a5.5,5.5,0,1,1,5.59-5.49,5.53,5.53,0,0,1-5.59,5.49m-6.84-40.85a4.4,4.4,0,1,1,4.47-4.4,4.43,4.43,0,0,1-4.47,4.4m-11.06-39.95a3.3,3.3,0,1,1,3.34-3.31,3.33,3.33,0,0,1-3.34,3.31m-15.15-38.58a2.2,2.2,0,1,1,2.23-2.2,2.22,2.22,0,0,1-2.23,2.2M1248,223a1.1,1.1,0,1,1,0-2.19,1.1,1.1,0,1,1,0,2.19M866.94,776.68a17.6,17.6,0,1,1,17.89-17.6,17.74,17.74,0,0,1-17.89,17.6m37.59,15a16.5,16.5,0,1,1,16.78-16.5,16.64,16.64,0,0,1-16.78,16.5m39.41,10a15.4,15.4,0,1,1,15.65-15.4,15.53,15.53,0,0,1-15.65,15.4m40.55,4.89A14.31,14.31,0,1,1,999,792.3a14.42,14.42,0,0,1-14.53,14.31m41-.36a13.2,13.2,0,1,1,13.41-13.2,13.31,13.31,0,0,1-13.41,13.2m40.73-5.64a12.1,12.1,0,1,1,12.31-12.09,12.2,12.2,0,0,1-12.31,12.09M1106,789.76a11,11,0,1,1,11.19-11,11.08,11.08,0,0,1-11.19,11m38.16-15.92a9.89,9.89,0,1,1,10-9.89,10,10,0,0,1-10,9.89M1180,753.11a8.8,8.8,0,1,1,8.94-8.79,8.87,8.87,0,0,1-8.94,8.79m33-25a7.7,7.7,0,1,1,7.83-7.69,7.75,7.75,0,0,1-7.83,7.69m30.23-28.38a6.6,6.6,0,1,1,6.7-6.59,6.65,6.65,0,0,1-6.7,6.59m27.14-31.33a5.5,5.5,0,1,1,5.59-5.49,5.53,5.53,0,0,1-5.59,5.49m23.74-34a4.4,4.4,0,1,1,4.48-4.4,4.42,4.42,0,0,1-4.48,4.4m20.09-36.28a3.3,3.3,0,1,1,3.36-3.3,3.32,3.32,0,0,1-3.36,3.3M1330.42,560a2.2,2.2,0,1,1,2.25-2.2,2.22,2.22,0,0,1-2.25,2.2m12.22-39.62a1.12,1.12,0,0,1-1.12-1.1,1.12,1.12,0,0,1,2.24,0,1.13,1.13,0,0,1-1.12,1.1M702.05,690a18.42,18.42,0,1,1,18.72-18.42A18.58,18.58,0,0,1,702.05,690m19.89,34a17.19,17.19,0,1,1,17.47-17.19A17.32,17.32,0,0,1,721.94,724m24.35,31.21a16,16,0,1,1,16.22-16,16.1,16.1,0,0,1-16.22,16M774.74,783a14.74,14.74,0,1,1,15-14.73,14.85,14.85,0,0,1-15,14.73m32.06,23.91a13.5,13.5,0,1,1,13.72-13.5,13.62,13.62,0,0,1-13.72,13.5M842,826.49a12.28,12.28,0,1,1,12.47-12.28A12.38,12.38,0,0,1,842,826.49m37.61,14.82a11.05,11.05,0,1,1,11.23-11,11.13,11.13,0,0,1-11.23,11M919,851.13a9.82,9.82,0,1,1,10-9.82,9.9,9.9,0,0,1-10,9.82m40.55,4.81a8.59,8.59,0,1,1,8.74-8.58,8.66,8.66,0,0,1-8.74,8.58m41,.52a7.37,7.37,0,1,1,7.48-7.36,7.42,7.42,0,0,1-7.48,7.36m40.92-3.72a6.14,6.14,0,1,1,6.24-6.15,6.2,6.2,0,0,1-6.24,6.15m40.4-8a4.91,4.91,0,1,1,5-4.92,5,5,0,0,1-5,4.92m39.49-12.12a3.68,3.68,0,1,1,3.75-3.68,3.71,3.71,0,0,1-3.75,3.68m38.12-16.13a2.46,2.46,0,1,1,2.5-2.46,2.49,2.49,0,0,1-2.5,2.46m36.32-20a1.23,1.23,0,1,1,0-2.45,1.23,1.23,0,1,1,0,2.45M622.08,515.62a19.46,19.46,0,1,1,19.77-19.47,19.63,19.63,0,0,1-19.77,19.47M616,554.1A18.07,18.07,0,1,1,634.36,536,18.22,18.22,0,0,1,616,554.1M615.23,593a16.68,16.68,0,1,1,17-16.66,16.81,16.81,0,0,1-17,16.66m4.61,38.7a15.29,15.29,0,1,1,15.54-15.28,15.42,15.42,0,0,1-15.54,15.28m9.92,37.76a13.9,13.9,0,1,1,14.13-13.91,14,14,0,0,1-14.13,13.91m15.06,36.12a12.51,12.51,0,1,1,12.72-12.51,12.62,12.62,0,0,1-12.72,12.51m19.95,33.86a11.11,11.11,0,1,1,11.3-11.11,11.21,11.21,0,0,1-11.3,11.11m24.33,31.09a9.72,9.72,0,1,1,9.89-9.72,9.8,9.8,0,0,1-9.89,9.72m27.74,28.36a8.34,8.34,0,1,1,8.47-8.35,8.43,8.43,0,0,1-8.47,8.35m30.72,25.31a6.95,6.95,0,1,1,7.06-7,7,7,0,0,1-7.06,7m33.42,22a5.56,5.56,0,1,1,5.66-5.56,5.59,5.59,0,0,1-5.66,5.56m35.75,18.39a4.17,4.17,0,1,1,4.24-4.17,4.21,4.21,0,0,1-4.24,4.17m37.66,14.58a2.79,2.79,0,1,1,2.83-2.78,2.81,2.81,0,0,1-2.83,2.78m39.15,10.61a1.39,1.39,0,1,1,1.42-1.39,1.4,1.4,0,0,1-1.42,1.39"/><path class="cls-3" d="M1435.4,1002.48a5.63,5.63,0,0,1-4.38-1.92,6.76,6.76,0,0,1-2-4.75h0a11.06,11.06,0,0,0-2.15-5.8,22.52,22.52,0,0,0-5.67-5.15,31.28,31.28,0,0,0-8.45-3.54,40.77,40.77,0,0,0-10.22-1.23,44.2,44.2,0,0,0-10.5,1.23,29.87,29.87,0,0,0-8.47,3.55,17.77,17.77,0,0,0-5.62,5.39,11.1,11.1,0,0,0-2,6.34,8.68,8.68,0,0,0,2.52,6.11,24.6,24.6,0,0,0,6.64,4.89,53.84,53.84,0,0,0,8.71,3.6,46.73,46.73,0,0,0,8.69,1.93,57.65,57.65,0,0,1,15.86,3.82,48,48,0,0,1,13,7.53,34.83,34.83,0,0,1,8.72,10.72,29.33,29.33,0,0,1,3.21,13.2,30,30,0,0,1-3.21,13.75,35.27,35.27,0,0,1-9,11.14,44.82,44.82,0,0,1-13.31,7.55,48.81,48.81,0,0,1-32.39.13,41.78,41.78,0,0,1-13.31-7.55,36.94,36.94,0,0,1-9-11.27,29.87,29.87,0,0,1-3.21-13.75,5.66,5.66,0,0,1,1.77-4.13,5.93,5.93,0,0,1,8.41,0,5.66,5.66,0,0,1,1.77,4.13,20.47,20.47,0,0,0,2.22,9.08,22.79,22.79,0,0,0,6.2,7.31,32.54,32.54,0,0,0,9.47,4.93,37.26,37.26,0,0,0,33.23-4.94,22.05,22.05,0,0,0,6.48-7.32,15.83,15.83,0,0,0,1.92-9,20.32,20.32,0,0,0-2.75-8.39,27.65,27.65,0,0,0-6.38-6.94,37.47,37.47,0,0,0-8.94-5.08,46.59,46.59,0,0,0-10.66-2.9,63.91,63.91,0,0,1-14.78-2.82,45.61,45.61,0,0,1-12.43-6.12,30.65,30.65,0,0,1-8.59-8.72,19.9,19.9,0,0,1-3.24-11.17A21.82,21.82,0,0,1,1366.6,985a31.1,31.1,0,0,1,8.44-9.16,41.83,41.83,0,0,1,12.47-6.13,51.79,51.79,0,0,1,30.33,0,45.9,45.9,0,0,1,12.43,6.12,28.26,28.26,0,0,1,8.46,9.18,21.84,21.84,0,0,1,3.08,11.26,6.27,6.27,0,0,1-6.41,6.17m-94.68-24.77L1292,1038.42v39.08a6.41,6.41,0,0,1-1.74,4.39,6,6,0,0,1-4.52,1.77,6.6,6.6,0,0,1-4.46-1.71,5.8,5.8,0,0,1-1.81-4.45v-38.91l-48-60.88a5.83,5.83,0,0,1-1.42-4.56,5.39,5.39,0,0,1,2.26-4.12,6.29,6.29,0,0,1,8.8.78l44.46,56.31,45.42-56.28a6.11,6.11,0,0,1,4.19-2.22,6.33,6.33,0,0,1,4.64,1.41,6.22,6.22,0,0,1,2.26,4.12,6.11,6.11,0,0,1-1.43,4.56m-137.38,24.77a5.65,5.65,0,0,1-4.38-1.92,6.76,6.76,0,0,1-2-4.75h0a10.16,10.16,0,0,0-2.27-5.77,22.66,22.66,0,0,0-5.69-5.18,31.41,31.41,0,0,0-8.45-3.54,40.77,40.77,0,0,0-10.22-1.23,44.13,44.13,0,0,0-10.5,1.23,29.87,29.87,0,0,0-8.47,3.55,17.66,17.66,0,0,0-5.62,5.39,11.1,11.1,0,0,0-2,6.34,8.68,8.68,0,0,0,2.52,6.11,24.66,24.66,0,0,0,6.64,4.89,53.84,53.84,0,0,0,8.71,3.6,46.73,46.73,0,0,0,8.69,1.93,57.57,57.57,0,0,1,15.85,3.82,52.67,52.67,0,0,1,13,7.53,34.87,34.87,0,0,1,8.73,10.72,29.43,29.43,0,0,1,3.21,13.2,29.87,29.87,0,0,1-3.21,13.75,33.16,33.16,0,0,1-9,11.15,44.83,44.83,0,0,1-13.3,7.54,48.81,48.81,0,0,1-32.39.13,43.79,43.79,0,0,1-13.31-7.54,37.25,37.25,0,0,1-9-11.28,30,30,0,0,1-3.2-13.75,5.66,5.66,0,0,1,1.77-4.13,5.93,5.93,0,0,1,8.41,0,5.68,5.68,0,0,1,1.77,4.13,17.56,17.56,0,0,0,2.33,9,23,23,0,0,0,6.23,7.36,32.54,32.54,0,0,0,9.47,4.93,39.72,39.72,0,0,0,23.45,0,33.08,33.08,0,0,0,9.62-4.93,22.07,22.07,0,0,0,6.5-7.34,15.78,15.78,0,0,0,1.92-9,20.19,20.19,0,0,0-2.76-8.39,27.59,27.59,0,0,0-6.37-6.94,37.54,37.54,0,0,0-9-5.08,46.74,46.74,0,0,0-10.65-2.9,63.91,63.91,0,0,1-14.78-2.82,45.61,45.61,0,0,1-12.43-6.12,30.65,30.65,0,0,1-8.59-8.72,19.9,19.9,0,0,1-3.24-11.17A21.82,21.82,0,0,1,1134.4,985a31.19,31.19,0,0,1,8.43-9.16,42.12,42.12,0,0,1,12.48-6.13,51.76,51.76,0,0,1,30.32,0,46,46,0,0,1,12.44,6.12,28.26,28.26,0,0,1,8.46,9.18,21.84,21.84,0,0,1,3.08,11.26,6.35,6.35,0,0,1-1.74,4.38,6,6,0,0,1-4.53,1.79m-105.55,79.44a6,6,0,0,1-4.5,1.74,6.61,6.61,0,0,1-4.45-1.71,6,6,0,0,1-1.95-4.45v-68.17h.41a28.61,28.61,0,0,0-2.35-10.78,32,32,0,0,0-6.54-9.44,29.11,29.11,0,0,0-9.73-6.43,30.75,30.75,0,0,0-11.69-2.33,30.32,30.32,0,0,0-11.68,2.33,32.68,32.68,0,0,0-9.6,6.43,32.24,32.24,0,0,0-6.55,9.46,26.82,26.82,0,0,0-2.35,11.46v67.47a6.25,6.25,0,0,1-6.4,6.16A6.6,6.6,0,0,1,1016,1082a6,6,0,0,1-2-4.45V1010a42.69,42.69,0,0,1,3.32-16.5,39.55,39.55,0,0,1,9.14-13.4A44.35,44.35,0,0,1,1040,971a41.53,41.53,0,0,1,16.67-3.41,40.9,40.9,0,0,1,16.65,3.41,42.74,42.74,0,0,1,13.61,9.12,43.29,43.29,0,0,1,9.25,13.36,39.79,39.79,0,0,1,3.48,16.52v67.47a5.94,5.94,0,0,1-1.91,4.42M984.38,980.08H926.44V1019h41.43a6.15,6.15,0,0,1,4.49,1.89,5.8,5.8,0,0,1,1.77,4.41,6.34,6.34,0,0,1-1.74,4.38,6,6,0,0,1-4.52,1.78H926.44v39.61h57.94a6.63,6.63,0,0,1,4.46,1.72,6,6,0,0,1,0,8.86,6,6,0,0,1-4.49,1.75H920a6.58,6.58,0,0,1-4.45-1.72,5.8,5.8,0,0,1-1.81-4.44V974.61h-.14v-.69a6.41,6.41,0,0,1,1.74-4.39,6.17,6.17,0,0,1,4.52-1.91h64.49a6.11,6.11,0,0,1,4.49,1.88,6,6,0,0,1,0,8.83,6,6,0,0,1-4.49,1.75m-108.2,22.4a5.65,5.65,0,0,1-4.38-1.92,6.33,6.33,0,0,1-2.16-4.75h0a10.23,10.23,0,0,0-2.27-5.77,22.86,22.86,0,0,0-5.69-5.19,30,30,0,0,0-8.46-3.53A40.63,40.63,0,0,0,843,980.08a44.2,44.2,0,0,0-10.5,1.23,29.87,29.87,0,0,0-8.47,3.55,17.66,17.66,0,0,0-5.62,5.39,11.1,11.1,0,0,0-2,6.34,8.71,8.71,0,0,0,2.51,6.11,24.81,24.81,0,0,0,6.65,4.89,53.84,53.84,0,0,0,8.71,3.6,44.87,44.87,0,0,0,8.82,1.93,57.63,57.63,0,0,1,15.87,3.82,52.6,52.6,0,0,1,13,7.53,34.72,34.72,0,0,1,8.73,10.72,29.47,29.47,0,0,1,3.22,13.2,29.87,29.87,0,0,1-3.22,13.75,33.16,33.16,0,0,1-9,11.15,44.83,44.83,0,0,1-13.3,7.54A48.78,48.78,0,0,1,826,1081a41.78,41.78,0,0,1-13.33-7.55,37.05,37.05,0,0,1-9-11.27,29.87,29.87,0,0,1-3.21-13.75,5.66,5.66,0,0,1,1.77-4.13,5.93,5.93,0,0,1,8.41,0,5.66,5.66,0,0,1,1.77,4.13,18.87,18.87,0,0,0,2.34,9,23,23,0,0,0,6.22,7.34,32.48,32.48,0,0,0,9.48,4.93,36.6,36.6,0,0,0,33.07-4.94,22.16,22.16,0,0,0,6.5-7.33,15.86,15.86,0,0,0,1.91-9,20,20,0,0,0-2.76-8.39,27.42,27.42,0,0,0-6.37-6.94,37.67,37.67,0,0,0-8.94-5.08,47.11,47.11,0,0,0-10.66-2.9,63.91,63.91,0,0,1-14.78-2.82A45.61,45.61,0,0,1,816,1016.2a30.65,30.65,0,0,1-8.59-8.72,19.9,19.9,0,0,1-3.24-11.17A21.82,21.82,0,0,1,807.24,985a31.1,31.1,0,0,1,8.44-9.16,41.78,41.78,0,0,1,12.46-6.13,51.79,51.79,0,0,1,30.33,0,45.61,45.61,0,0,1,12.43,6.12,28.18,28.18,0,0,1,8.47,9.18,21.83,21.83,0,0,1,3.07,11.26,6.34,6.34,0,0,1-1.73,4.38,6,6,0,0,1-4.53,1.79m-105.41,79.44a6,6,0,0,1-4.49,1.74,6.62,6.62,0,0,1-4.46-1.71,6,6,0,0,1-2-4.45v-68.17H760a28.61,28.61,0,0,0-2.35-10.78,32,32,0,0,0-6.54-9.44,29.21,29.21,0,0,0-9.73-6.43,30.62,30.62,0,0,0-23.37,0,32.55,32.55,0,0,0-9.6,6.43,32,32,0,0,0-6.55,9.46,29.19,29.19,0,0,0-2.35,11.46v67.47a6.25,6.25,0,0,1-6.41,6.16,6.64,6.64,0,0,1-4.46-1.71,5.83,5.83,0,0,1-1.8-4.45V1010a42.52,42.52,0,0,1,3.33-16.5,39.53,39.53,0,0,1,9.13-13.4,44.28,44.28,0,0,1,13.59-9.1,41.45,41.45,0,0,1,16.66-3.41,42.34,42.34,0,0,1,16.8,3.41A43,43,0,0,1,760,980.15a43.64,43.64,0,0,1,9.25,13.36,39.94,39.94,0,0,1,3.47,16.52v67.47a5.94,5.94,0,0,1-1.91,4.42M642.9,1008.21a44.93,44.93,0,0,0-9.81-14.49,46.71,46.71,0,0,0-65.19,0,47.41,47.41,0,0,0-9.82,14.49,46.2,46.2,0,0,0,0,35.28,43,43,0,0,0,9.81,14.33,46.86,46.86,0,0,0,65.2,0,43.08,43.08,0,0,0,9.81-14.34,44.45,44.45,0,0,0,0-35.28m11.56,40a58.16,58.16,0,0,1-12.53,18.27,60,60,0,0,1-18.73,12.32,59.36,59.36,0,0,1-45.56,0,58.34,58.34,0,0,1-31.12-30.6,53.57,53.57,0,0,1-4.61-22.39,55.72,55.72,0,0,1,4.61-22.4,59.74,59.74,0,0,1,12.53-18.41,59.27,59.27,0,0,1,64.14-12.34A60.86,60.86,0,0,1,641.92,985a56.59,56.59,0,0,1,12.55,18.43,56.65,56.65,0,0,1,0,44.79m-140.4-51.94a6.4,6.4,0,0,1-5.43-2,80.75,80.75,0,0,0-15-9.78,40.77,40.77,0,0,0-18.47-4.4,46.27,46.27,0,0,0-17.95,3.58,44.14,44.14,0,0,0-14.57,9.79,47.24,47.24,0,0,0-9.82,14.48,48.16,48.16,0,0,0-3.51,17.78,41.94,41.94,0,0,0,3.65,17.63,43,43,0,0,0,9.81,14.35,46.29,46.29,0,0,0,14.6,9.8,46.23,46.23,0,0,0,51.58-10.62,6.89,6.89,0,0,1,4.09-2.31,5.46,5.46,0,0,1,4.65.8,6.28,6.28,0,0,1,2.31,4.93,8,8,0,0,1-1.71,5,57.39,57.39,0,0,1-19.21,13.5,60.31,60.31,0,0,1-46.56.29,59.43,59.43,0,0,1-18.58-12.47,56.31,56.31,0,0,1-12.54-18.42,57.49,57.49,0,0,1,12.54-63.48,58.83,58.83,0,0,1,18.58-12.47,56.1,56.1,0,0,1,22.78-4.67,57,57,0,0,1,23.06,4.67,59.34,59.34,0,0,1,18.88,12.9,8.81,8.81,0,0,1,2.31,3.79,5.31,5.31,0,0,1-.66,4.64,6.28,6.28,0,0,1-4.81,2.69"/></g></g></g></svg>