<svg id="Layer_1" data-name="Layer 1" xmlns="http://www.w3.org/2000/svg" viewBox="0 0 1860 1160"><defs><style>.cls-1{fill:#848484;}</style></defs><title>art07-jpmorgan</title><g id="JP_Morgan" data-name="JP Morgan"><path id="path33" class="cls-1" d="M166.77,410.51v8.37H198V581.54c0,48.88-13.56,62.64-43.79,62.64-19,0-22.14-14.45-22.14-21.92,0-17.78-1-28.66-17.18-28.66s-18.2,16.45-18.2,21.48c0,22.39,10,39.54,54.47,39.54,53.05,0,81.4-17.92,81.4-77.39V418.83l32.24.05v-8.37h-98m97.54,211.84A18.42,18.42,0,0,0,258.66,636a17.41,17.41,0,0,0,5.7,13.37,18.67,18.67,0,0,0,13.6,5.54,19.08,19.08,0,0,0,13.79-5.54A17.69,17.69,0,0,0,297.37,636,19,19,0,0,0,278,616.86a18.16,18.16,0,0,0-13.65,5.49m217.67,0A18.51,18.51,0,0,0,476.45,636,17.62,17.62,0,0,0,482,649.38a19.86,19.86,0,0,0,27.52,0A17.52,17.52,0,0,0,515.16,636a18.23,18.23,0,0,0-5.64-13.66,18.85,18.85,0,0,0-13.89-5.49A18.34,18.34,0,0,0,482,622.35M331.35,410.53v8.34h28.2V604.43c0,14.58-.9,18.37-2.53,22.6-1.74,4.71-5.68,8.43-11.51,10.85-4.34,1.84-10.92,2.8-19.69,3v7.66H429.14V641c-8.76-.22-15.44-1.22-19.82-2.78-6.16-2.44-10.16-6-12.11-10.87-1.71-4.18-2.59-7.86-2.59-15.18V548.62l25.56-.11c74.26,0,95.13-29.29,95.13-69.28,0-40.4-12.81-68.72-88-68.72l-96,0m63.27,9.41,17.76-.24c57.26,0,69.76,23.55,69.76,61.73,0,38.41-22.51,58-67.93,58H394.62V419.94m388.72-8.88c-.86,2.21-72.76,181.37-72.76,181.37l-1.64,1.07-1.72-1.07S630.6,413.27,629.71,411.06H562.1v7.67h29.34V603l-.63,16.78a24.85,24.85,0,0,1-4,11.52c-2.29,3.44-6,6-10.84,7.74a50.66,50.66,0,0,1-13.86,1.89v7.66h67.1V641a35.73,35.73,0,0,1-11.52-1.92c-4.93-1.62-8.63-4.06-11.07-7.56a25.83,25.83,0,0,1-4.09-11.77L601.78,603V443.84h3.94s86.76,202.53,87.66,204.75h7.25l82.12-202.5h2.06V610.2c0,7-.71,12.44-2.06,16.64-1.62,4.91-5.12,8.62-10.2,11.12-3.76,1.69-9.5,2.67-17.07,3v7.66H849.1v-7.66c-7.47-.37-13.26-1.38-17.18-3.14-5.45-2.64-9-6.49-10.52-11.39-1.36-4.28-2-9.51-2-16.2V418.88l24.89-.24v-7.58H783.34M866,565.2c0,84.78,66,90.37,80.2,90.37,28.2,0,81.64-17.57,81.64-92,0-57.88-34.18-89.38-80.51-89.38-50,0-81.33,33.12-81.33,91m37.31.94c0-46.5,2.89-81.38,43.35-81.38,43.72,0,43.92,36.1,43.92,78.45,0,60.86-10.4,81.85-43.92,81.85-37.56,0-43.35-18.77-43.35-78.92m207.8-53.69-2.34-.08c-.25.08-4.3-26.15-5.83-33.88-11.66,0-57.85-.11-57.85-.11v8.87h31.3s-.17,26.58-.17,36.15v81.4c0,11.65-1.29,19.78-3.8,24.7-3.21,5.81-10.39,8.72-22.27,8.72h-5.06v10.37h96.94V638.22h-5.22c-12.72,0-18.21-2.76-21.62-8.27-3.09-4.86-4.47-13.09-4.47-25.15v-61c0-20.59,15.5-44,34.07-44,19.42,0,19,29.91,41,17.88,12-6.55,9.94-40.82-27.19-40.82-29.89,0-39.21,17.66-47.46,35.65m302.66-25.12c-11.07,8.43-15.38,16.21-15.38,27.36,0,5.18,1.4,8.83,4.31,11.28a15.06,15.06,0,0,0,10.55,3.79c9.63,0,15-4.9,17-17.57,1.48-9.4,3.53-14.76,8.16-19.66q7.43-7.8,23.14-7.79c12.15,0,20.75,3.27,25.58,9.82,4.42,6.15,6.76,14.52,6.76,24.85V548c-31.06,2.8-104.39,8.69-101.13,64.55,1.22,21.86,20.5,41,45.4,41,27.53,0,45-15.68,56.78-28.22,1.9,11.89,12.94,26.08,33,26.08,22.57,0,36-11.06,37.62-38.72h-5.8c-1.53,12-9,18.51-15.08,18.51-10.38,0-13.67-5.77-14.44-15.39l-.61-21.78V522.72c0-15.39-2.49-25.74-11.56-34.8s-26.23-13.71-51.21-13.71c-24,0-41.81,4.43-53.14,13.12m13,118.63c0-31.69,43.41-47.54,67.2-47.54v54.76l-.58,1.35-.73.69c-16.61,15.07-29.29,20.44-38.57,20.44-23.76,0-27.32-19.79-27.32-29.7m207.1-96.74-3.11-.12-6.08-30.92-52.69-.1V487c9.9.42,26.39.6,26.39.6V604.6c0,9.09-.71,15.64-2.05,20a16,16,0,0,1-9.74,10.88c-3.19,1.38-8.21,2.14-14.6,2.42v10.71h83.78V637.8c-8.43-.68-14.1-3-17.14-7.27-3.27-4.6-4.76-12.5-4.76-24.06v-45c0-18.81-.11-37,6.31-48.21,6.92-12.25,19.6-19,33.78-19,12.76,0,19.48,4.09,23.69,12.19,3.43,6.58,5.66,26.19,5.66,39.68l-.41,55.71c0,9.28,1.17,16.15.41,20.54-.94,5.13-3.27,9.13-7.3,11.78-2.93,2-7.53,3.07-13.44,3.51v10.88h80.75V637.88c-10.21-.66-16.89-3.14-19.82-7.92-3.32-4.87-6.06-13.06-6.06-25.28l.46-77.12c0-11.15-1.5-20.68-5.69-28.51a41.65,41.65,0,0,0-17.58-17.19,56.35,56.35,0,0,0-25.58-5.64c-34.06,0-47.73,20.8-55.18,33m-269.74-41.88c-5,1.6-8.31,6-10.07,13.55-1.31,6.92-3.93,10.93-7.44,12.05s-7.42.73-12.08-.84c-8.68-8.08-25.34-17.88-54.66-17.88-47.2,0-68,33.62-68,64.3,0,35.91,13.79,53.29,44.15,59.69,1.85.38,1.85,2.41.25,2.78-25.9,5.25-48.85,12.83-48.85,37.44,0,14.83,8.52,23,19.41,27.4,12,4.89,29,7.43,50.18,7.8,18.56.21,31.71.87,40.28,1.89,9.26,1.06,16.59,3.7,22,7.65,5.58,4.31,8.53,10.67,8.53,19,0,11.39-6.09,20.55-18.22,27.34-11.31,6.31-26.74,9.61-46,9.61-16.47,0-30-1.8-42.12-9.38-9-5.58-10.77-16.55-8.88-24.45,1.69-8-1.18-16.42-10.44-18a15.38,15.38,0,0,0-14.47,6.54c-2.78,4.3-3.77,9.43-3.77,15.54,0,20.24,15.65,29.73,27.6,33.22,18.22,5.55,30.32,6.89,47.08,6.89,22.22,0,40.27-3.39,53.17-9.93s21.91-14.48,26.7-23.64a57.46,57.46,0,0,0,7.49-27.71c0-12.24-2.69-22.22-7.92-29.56-16.86-23.2-40.81-20.22-94.66-22.8-25.9,0-30.89-4.67-30.89-12.64,0-11.67,9.6-16.27,47.1-22,36.9-5.74,71.3-19.29,71.3-64.36a76.26,76.26,0,0,0-6.7-31.88c7.63,1.7,14.75,1.7,21.25-.45,7.45-2.3,12.28-6,15.08-11.26s3.43-10.18,1.89-15c-2.47-7.89-6.7-11.83-12.8-11.83a19,19,0,0,0-5.56.93m-118,71.18c0-31.65,11-55.2,34.67-55.2,27.49,0,35.52,21.45,35.52,54.54,0,47.33-14.89,53.52-35.52,53.52-22,0-34.67-8-34.67-52.86"/></g></svg>