<svg id="Layer_1" data-name="Layer 1" xmlns="http://www.w3.org/2000/svg" xmlns:xlink="http://www.w3.org/1999/xlink" viewBox="0 0 1860 1160"><defs><style>.cls-1{fill:none;}.cls-2{clip-path:url(#clip-path);}.cls-3{fill:#848484;}</style><clipPath id="clip-path"><rect class="cls-1" x="121.14" y="331.5" width="1617.71" height="497.01"/></clipPath></defs><g id="Layer_2" data-name="Layer 2"><g class="cls-2"><g class="cls-2"><path class="cls-3" d="M676.5,576.8a87.61,87.61,0,0,1,84-91.09l.73,0h3.59c44.68,0,71.05,26.28,78.85,57L815.89,552a48.89,48.89,0,0,0-51.08-38.37c-28.91,0-57.91,21.11-57.91,63.69s28.3,62.9,58.26,62.9a52.57,52.57,0,0,0,52.13-38.63l27.25,8.76a78.86,78.86,0,0,1-79.73,58.08,86.8,86.8,0,0,1-88.39-85.15c-.09-2.11,0-4.3.08-6.49"/><path class="cls-3" d="M898.59,664.41H869.86V485.16h28.73v70.09a42.52,42.52,0,0,1,34.16-15.07c29.71,0,43.81,21.29,43.81,47.84v76.39H948.88V593.1a23.41,23.41,0,0,0-19.62-26.29,26.27,26.27,0,0,0-5.17,0A25.07,25.07,0,0,0,899,591.87a20,20,0,0,0,0,2.19Z"/><path class="cls-3" d="M1041.05,595.38l30.82-4.82c7-.88,8.77-4.48,8.77-8.76,0-10.17-6.83-18.31-22.77-18.31a23,23,0,0,0-24.71,20.76v1.31l-26.28-5.87c2.19-20.85,21.11-39.42,50.72-39.42,37.15,0,51.25,21,51.25,45.56v59.83a119.67,119.67,0,0,0,1.49,19.37h-26.28a70.65,70.65,0,0,1-1.14-15.43,41.88,41.88,0,0,1-37.14,19A37.85,37.85,0,0,1,1005,634.1v-1.75c-.44-22.18,15.42-34.08,36.1-37m39.77,19.36v-5.52L1049.37,614a16.54,16.54,0,0,0-16,16.38A15.92,15.92,0,0,0,1049.53,646h1.59a27.33,27.33,0,0,0,30-24.33,1.36,1.36,0,0,1,0-.2,28.19,28.19,0,0,0-.44-6.74Z"/><path class="cls-3" d="M1157.75,482.71a18.76,18.76,0,0,1,19,18.48v.09a18.76,18.76,0,1,1-19-18.74Zm-14,182.22V543.87h28.74V664.41Z"/><path class="cls-3" d="M1237.9,664.41h-28.65V543.86h28v16a39.9,39.9,0,0,1,35.66-19.53c29.44,0,43.8,21.29,43.8,47.83v76.22H1288V593.1c0-14.81-6.75-26.81-24.79-26.81A25.39,25.39,0,0,0,1238,591.87v2.89Z"/><rect class="cls-3" x="1351.36" y="485.16" width="28.74" height="179.25"/><path class="cls-3" d="M1431.34,482.71a18.66,18.66,0,1,1-18.57,18.74v-.17a18.74,18.74,0,0,1,18.57-18.57m-14.1,182.22V543.87h28.48V664.41Z"/><path class="cls-3" d="M1511.6,664.41h-28.74V543.86h28v16a39.94,39.94,0,0,1,35.65-19.53c29.44,0,43.81,21.29,43.81,47.83v76.22h-28.74V593.1a23.4,23.4,0,0,0-19.62-26.29,27.19,27.19,0,0,0-5.26,0,25.41,25.41,0,0,0-25.14,25.41,15.75,15.75,0,0,0,0,3.07Z"/><polygon class="cls-3" points="1688.3 594.76 1738.86 664.85 1703.82 664.85 1668.78 615.17 1653.96 630.77 1653.96 664.41 1625.49 664.41 1625.49 485.16 1653.96 485.16 1653.96 592.57 1700.22 543.86 1738.33 543.86 1688.3 594.76"/><path class="cls-3" d="M336.31,436.63l124.24,71.31V651.27L336.67,723,212.52,651.88V508.64Zm0-105.13-45.55,26.28-124.06,72-45.55,26.29V704.62l45.55,26.29,124.23,71.31,45.56,26.28,45.56-26.28,123.79-71.84L551.4,704.1V455.2l-45.56-26.28L381.7,357.78,336.14,331.5Z"/></g></g></g></svg>