<svg xmlns="http://www.w3.org/2000/svg" viewBox="0 0 132 53"><defs><style>.cls-1{fill:none;stroke:#777;stroke-miterlimit:10;stroke-width:2px;}.cls-2{font-size:24px;fill:#777;font-family:GrandHotel-Regular, Grand Hotel;}.cls-3{fill:#e4a663;}.cls-4{fill:#5e464d;}.cls-5{fill:#fff;}</style></defs><title>ganache-button</title><g id="Layer_2" data-name="Layer 2"><g id="Layer_1-2" data-name="Layer 1"><rect class="cls-1" x="1" y="1" width="130" height="51" rx="4" ry="4"/><text class="cls-2" transform="translate(50.48 33.34) scale(1.1 1)">Ganache</text><path class="cls-3" d="M35.45,33.84a.54.54,0,0,0,.57-.33,1.46,1.46,0,0,0,.08-.79c0-.25-.1-.53-.11-.67s0-.63,0-.85c.19-3.54,1.71-4.38,2.15-4.48a1.18,1.18,0,0,1,.84.06V21.37h0V19.85a2.75,2.75,0,0,0-1.23-2.14l-11.1-6.42a2.73,2.73,0,0,0-2.46,0l-11.08,6.4a2.73,2.73,0,0,0-1.24,2.14V23.3l.19.11c.21.14.43.22.64.37a10.15,10.15,0,0,1,1.71,1.32c.1.1.43.53.51.63a8.21,8.21,0,0,0,.83.94,3.26,3.26,0,0,0,.55.39,1.55,1.55,0,0,0,1.14,0c2.11-.91,3.44-.45,4.05-.09a4.48,4.48,0,0,1,2.18,3.72,5,5,0,0,1,0,.6c0,.37,0,1,.37,1.06.55.14.69-.45.77-.85a1.63,1.63,0,0,1,2.24-1c.6.31.84.48,1.43.22a3.48,3.48,0,0,0,1.38-1.6,2.68,2.68,0,0,1,1.07-1,2.8,2.8,0,0,1,4.16,2.66c0,.18,0,.62,0,.89s0,.6,0,.92,0,.43-.07.64C35,33.21,34.93,33.84,35.45,33.84Z"/><path class="cls-4" d="M11.89,32.64a2.75,2.75,0,0,0,1.24,2.14l11.09,6.41a2.67,2.67,0,0,0,2.46,0L37.76,34.8A2.75,2.75,0,0,0,39,32.66V26.78a1.14,1.14,0,0,0-.84-.06c-.44.1-2,.94-2.15,4.48,0,.22,0,.76,0,.85s.09.42.11.67a1.46,1.46,0,0,1-.08.79.54.54,0,0,1-.57.33c-.52,0-.41-.63-.41-.63,0-.21.06-.43.07-.64s0-.61,0-.92,0-.71,0-.89A2.8,2.8,0,0,0,31,28.1a2.68,2.68,0,0,0-1.07,1,3.48,3.48,0,0,1-1.38,1.6c-.59.26-.83.09-1.43-.22a1.63,1.63,0,0,0-2.24,1c-.08.4-.22,1-.77.85-.39-.1-.37-.69-.37-1.06a5,5,0,0,0,0-.6A4.48,4.48,0,0,0,21.51,27c-.61-.36-1.94-.82-4.05.09a1.55,1.55,0,0,1-1.14,0,3.26,3.26,0,0,1-.55-.39,8.21,8.21,0,0,1-.83-.94c-.08-.1-.41-.53-.51-.63a10.15,10.15,0,0,0-1.71-1.32c-.21-.15-.43-.23-.64-.37l-.19-.11"/><path class="cls-5" d="M26.85,25.21a3.11,3.11,0,0,1-2.79,0l-11.34-6a1.57,1.57,0,0,0,.41.32L24.22,26a2.73,2.73,0,0,0,2.46,0l11.08-6.4a2,2,0,0,0,.41-.31Z"/><path class="cls-5" d="M24,12.15a3.11,3.11,0,0,1,2.79,0l1.37.58a1.71,1.71,0,0,0-.4-.32l-1.13-.72a2.69,2.69,0,0,0-2.47,0l-2,1.12a2.51,2.51,0,0,0-.41.32Z"/></g></g></svg>