<?xml version="1.0" standalone="no"?>
<!DOCTYPE svg PUBLIC "-//W3C//DTD SVG 20010904//EN"
 "http://www.w3.org/TR/2001/REC-SVG-20010904/DTD/svg10.dtd">
<svg version="1.0" xmlns="http://www.w3.org/2000/svg"
 width="16.000000pt" height="16.000000pt" viewBox="0 0 16.000000 16.000000"
 preserveAspectRatio="xMidYMid meet">
<metadata>
Created by potrace 1.11, written by Peter Selinger 2001-2013
</metadata>
<g transform="translate(0.000000,16.000000) scale(0.015534,-0.015534)"
fill="#000000" stroke="none">
<path d="M353 990 c-188 -61 -303 -219 -303 -415 0 -194 114 -350 338 -461
103 -51 94 -71 -19 -38 -63 19 -161 66 -206 100 -44 33 -52 30 -17 -7 147
-155 397 -194 593 -94 106 53 201 164 241 280 30 88 26 106 -12 49 -43 -63
-105 -95 -197 -102 -88 -6 -155 10 -259 60 -303 148 -360 483 -103 602 36 16
65 21 136 21 85 0 94 -2 170 -40 88 -44 136 -96 155 -167 15 -53 6 -84 -34
-124 -40 -40 -93 -52 -155 -35 -122 33 -197 135 -161 221 18 44 39 39 33 -8
-15 -115 194 -185 238 -80 26 64 -47 136 -162 159 -75 15 -129 0 -168 -47 -44
-54 -48 -95 -16 -160 49 -100 177 -174 300 -174 78 0 122 16 158 59 37 44 44
92 22 160 -25 79 -143 197 -230 231 -86 34 -254 38 -342 10z"/>
</g>
</svg>
