<svg id="Layer_1" data-name="Layer 1" xmlns="http://www.w3.org/2000/svg" xmlns:xlink="http://www.w3.org/1999/xlink" viewBox="0 0 300 100"><defs><style>.cls-1{fill:none;}.cls-2{clip-path:url(#clip-path);}.cls-3{clip-path:url(#clip-path-2);}.cls-4{fill:url(#radial-gradient);}.cls-5{fill:#fff;}.cls-6{fill:#e911bd;}.cls-7{fill:#5e464d;}</style><clipPath id="clip-path"><rect class="cls-1" x="11.16" y="13.11" width="277.68" height="73.77"/></clipPath><clipPath id="clip-path-2"><path class="cls-1" d="M12.26,54.5s-1.1,20.12-1.1,20.12C11.39,81.13,33,86.89,54.73,86.89c21.88,0,43.57-5.8,43.57-12.27,0,0-1.27-20-1.27-20.19,0-21.88-20.52-39.71-42.39-39.71S12.26,32.61,12.26,54.5"/></clipPath><radialGradient id="radial-gradient" cx="323.89" cy="100.81" r="0.87" gradientTransform="translate(-14814.01 -4576.95) scale(45.91)" gradientUnits="userSpaceOnUse"><stop offset="0" stop-color="#5e464d"/><stop offset="1" stop-color="#5e464d"/></radialGradient></defs><g id="Layer_2" data-name="Layer 2"><g class="cls-2"><g class="cls-3"><rect class="cls-4" x="11.16" y="14.72" width="87.14" height="72.17"/></g><g class="cls-2"><path class="cls-5" d="M31.14,58.19a49,49,0,0,0-.95-7.14,50,50,0,0,0-1.85-6.7c-.4-1.06-.79-2.11-1.25-3.12s-1.63-4-1.8-4.51a14.77,14.77,0,0,0-.63-1.47c-.44-1-.95-1.9-1.47-2.82l-.07-.1a3.85,3.85,0,0,1,4.48-5.58l.47.14.39.13.76.27q.74.27,1.47.57c1,.38,1.91.8,2.84,1.23A59.48,59.48,0,0,1,39,32a54.23,54.23,0,0,1,9.82,7.57,46.34,46.34,0,0,1,7.73,9.9A44.32,44.32,0,0,1,61.2,61.21l-7.4-.47.18-.53.19-.62c.13-.43.25-.88.36-1.31.23-.87.43-1.8.59-2.7a44.66,44.66,0,0,0,.68-5.53,42.87,42.87,0,0,0-.69-11,39.11,39.11,0,0,0-3.59-10.35,41.24,41.24,0,0,0-6.31-9l-.06-.06a3.84,3.84,0,0,1,3.36-6.45h.59l.52.08,1,.2c.65.13,1.29.27,1.92.44,1.26.31,2.5.69,3.72,1.1a54.39,54.39,0,0,1,7.1,3A55.56,55.56,0,0,1,76,26.67a56.42,56.42,0,0,1,9.71,11.85,65.58,65.58,0,0,1,6.37,13.79l-7.2-.43.13-.3.16-.43c.11-.29.21-.59.3-.87a17.39,17.39,0,0,0,.47-1.89c.1-.65.15-1.29.23-1.94s.22-1.27.33-1.91a19.65,19.65,0,0,0-.27-7.9,20.51,20.51,0,0,0-1.4-3.89,23.12,23.12,0,0,0-2.19-3.59,29.42,29.42,0,0,0-2.89-3.41,43.39,43.39,0,0,0-3.41-3.09,34.11,34.11,0,0,1,4.27,1.94,27.94,27.94,0,0,1,4,2.61,24.74,24.74,0,0,1,3.57,3.37,22.89,22.89,0,0,1,2.91,4.19,25,25,0,0,1,2.94,10,14.33,14.33,0,0,1,0,2.62,21.08,21.08,0,0,1-.5,2.61c-.2.87-.4,1.75-.67,2.56-.12.43-.26.86-.41,1.29l-.25.64-.14.34-.18.42A3.85,3.85,0,0,1,84.72,55v-.11a58.3,58.3,0,0,0-5.6-12.2,48.7,48.7,0,0,0-8.38-10.22,47.44,47.44,0,0,0-17-10c-1-.36-2.09-.68-3.13-.94-.53-.14-1-.26-1.57-.36L48.27,21l-.36-.06h-.29l3.3-6.48a49.52,49.52,0,0,1,7.51,10.71,46.93,46.93,0,0,1,4.29,12.39,51.11,51.11,0,0,1,.83,13A56,56,0,0,1,62.76,57c-.21,1.07-.44,2.13-.71,3.19-.13.54-.28,1.07-.44,1.6l-.25.82-.14.41-.17.49a3.86,3.86,0,0,1-7.37-.35v-.12a35.85,35.85,0,0,0-3.84-9.66,38.56,38.56,0,0,0-6.44-8.27A45.37,45.37,0,0,0,35,38.63a48.63,48.63,0,0,0-4.72-2.54c-.8-.37-1.62-.73-2.44-1.06l-1.22-.47L26,34.34l-.52-.17,4.43-5.7A39.4,39.4,0,0,1,31.74,32c.29.6.53,1.22.8,1.83s.55,1.2.78,1.83c.1.3.21.61.3.94a8,8,0,0,1,.16,1c.1.66.15,1.32.22,2,.1,1.32.17,2.62.14,3.91a42.05,42.05,0,0,1-.79,7.6,37.07,37.07,0,0,1-.87,3.64,26.74,26.74,0,0,1-1.34,3.49"/><path class="cls-6" d="M31.14,58.19a44.79,44.79,0,0,0,0-7.14,48.44,48.44,0,0,0-1-7c-.26-1.14-.56-2.26-.91-3.36s-.78-2.18-1.14-3.26c-.18-.55-.37-1.09-.57-1.63a15.66,15.66,0,0,0-.68-1.58,32.28,32.28,0,0,0-1.58-3v0a1.51,1.51,0,0,1,.55-2.05A1.54,1.54,0,0,1,27,29c1,.31,1.92.65,2.86,1s1.83.76,2.72,1.19A53.59,53.59,0,0,1,37.77,34a51.57,51.57,0,0,1,9.4,7.25,43.83,43.83,0,0,1,7.3,9.4A41.77,41.77,0,0,1,58.9,61.77L56,61.59c.14-.39.3-.87.43-1.33s.26-.93.38-1.4c.24-.94.44-1.89.63-2.85a51.59,51.59,0,0,0,.76-5.81,45.83,45.83,0,0,0-.74-11.63,41.74,41.74,0,0,0-3.8-11A43.62,43.62,0,0,0,47,18.06,1.5,1.5,0,0,1,47,15.94a1.48,1.48,0,0,1,1.21-.38c.69.09,1.27.2,1.89.32s1.21.27,1.81.42c1.2.31,2.38.66,3.55,1.06A53,53,0,0,1,74.36,28.57,54,54,0,0,1,83.68,39.9a63.17,63.17,0,0,1,6.1,13.29L87,53c.12-.25.25-.62.37-.94s.23-.67.34-1A21.46,21.46,0,0,0,88.2,49c.26-1.41.41-2.84.54-4.28a21.28,21.28,0,0,0-1.08-8.56,23.28,23.28,0,0,0-4.5-7.59,34.49,34.49,0,0,0-6.92-5.89,32.85,32.85,0,0,1,7.68,5.14,23.08,23.08,0,0,1,7.76,17,18,18,0,0,1-.1,2.43,28.69,28.69,0,0,1-1,4.75c-.11.39-.24.78-.38,1.17s-.28.74-.48,1.19a1.51,1.51,0,0,1-2,.76,1.53,1.53,0,0,1-.81-.9,59.22,59.22,0,0,0-5.84-12.65,50.35,50.35,0,0,0-8.76-10.75A49.91,49.91,0,0,0,54.52,20.2a30.09,30.09,0,0,0-3.28-.94q-.83-.21-1.68-.39c-.56-.11-1.14-.22-1.63-.28l1.29-2.52a47.17,47.17,0,0,1,7.1,10.16A44.51,44.51,0,0,1,60.39,38a49.21,49.21,0,0,1,.8,12.41,51.23,51.23,0,0,1-.77,6.17c-.19,1-.41,2-.66,3l-.42,1.52c-.16.51-.3,1-.51,1.54A1.49,1.49,0,0,1,56,62.5a38.35,38.35,0,0,0-4.12-10.31A40.55,40.55,0,0,0,45,43.47a48.77,48.77,0,0,0-8.85-6.82,52,52,0,0,0-5-2.7c-.84-.4-1.69-.78-2.56-1.13l-1.26-.49c-.43-.16-.87-.32-1.28-.43l1.74-2.22A41.21,41.21,0,0,1,31,36.45a21.47,21.47,0,0,1,.88,3.62c.21,1.21.37,2.44.47,3.66a42.6,42.6,0,0,1,0,7.32,36.28,36.28,0,0,1-.43,3.61,30.42,30.42,0,0,1-.77,3.53"/><path class="cls-7" d="M137.84,65.74a13.55,13.55,0,0,1-5.08-5.22,15.92,15.92,0,0,1-1.95-8,15.93,15.93,0,0,1,1.95-8,13.51,13.51,0,0,1,5.08-5.23,13.26,13.26,0,0,1,6.64-1.74,13,13,0,0,1,9.67,4.35V28a2.45,2.45,0,0,1,.76-1.86,2.61,2.61,0,0,1,1.83-.74,2.42,2.42,0,0,1,1.81.76,2.62,2.62,0,0,1,.74,1.84V64.7a2.51,2.51,0,0,1-.74,1.81,2.42,2.42,0,0,1-1.81.73,2.56,2.56,0,0,1-1.83-.73,2.4,2.4,0,0,1-.76-1.81V63.24a13,13,0,0,1-9.67,4.28,13.24,13.24,0,0,1-6.64-1.78m12.26-4.17a14.1,14.1,0,0,0,4.05-3.1V46.63a13.86,13.86,0,0,0-4.05-3.08,10.63,10.63,0,0,0-4.88-1.16A8.85,8.85,0,0,0,138.5,45c-1.69,1.74-2.55,4.27-2.55,7.52s.87,5.74,2.55,7.51a8.88,8.88,0,0,0,6.72,2.61,10.71,10.71,0,0,0,4.88-1.08"/><path class="cls-7" d="M168.94,66.51a2.5,2.5,0,0,1-.73-1.81V40.47a2.53,2.53,0,0,1,.73-1.83,2.41,2.41,0,0,1,1.82-.77,2.61,2.61,0,0,1,2.61,2.61v2.43q3.93-5.35,8.85-5.35h.28a2.33,2.33,0,0,1,1.74.73,2.47,2.47,0,0,1,.71,1.8,2.24,2.24,0,0,1-.73,1.74,2.58,2.58,0,0,1-1.87.68h-.28a9.77,9.77,0,0,0-5,1.33,11.47,11.47,0,0,0-3.78,3.65V64.66a2.44,2.44,0,0,1-.77,1.81,2.56,2.56,0,0,1-1.83.73,2.47,2.47,0,0,1-1.78-.69"/><path class="cls-7" d="M190.24,31.46a2.76,2.76,0,0,1-.87-2V29.2a2.89,2.89,0,0,1,2.87-2.89h.34a2.89,2.89,0,0,1,2.89,2.89v.23a2.89,2.89,0,0,1-2.89,2.87h-.34a2.78,2.78,0,0,1-2-.84m.34,35.08a2.47,2.47,0,0,1-.73-1.81V40.47a2.53,2.53,0,0,1,.73-1.83,2.37,2.37,0,0,1,1.8-.77,2.5,2.5,0,0,1,1.87.73,2.56,2.56,0,0,1,.74,1.87V64.7a2.43,2.43,0,0,1-.77,1.81,2.53,2.53,0,0,1-1.84.73,2.44,2.44,0,0,1-1.8-.73Z"/><path class="cls-7" d="M243.33,72.5a1.91,1.91,0,0,0-1.74,0l-14.5,6L243,53.44a4.85,4.85,0,0,0,.79-2.61,2.08,2.08,0,0,0-.87-1.95,2.64,2.64,0,0,0-2.37.08l-17.59,7.3-14.52,6,15.82-25.08a5,5,0,0,0,.79-2.61,2.08,2.08,0,0,0-.87-1.95,2.64,2.64,0,0,0-2.37.08l-17.15,7.12a3.76,3.76,0,0,0-1.74,1.41,3.45,3.45,0,0,0-.68,2,1.48,1.48,0,0,0,.68,1.41,1.89,1.89,0,0,0,1.7,0l14.29-5.92L202.61,64.15a5,5,0,0,0-.87,2.68,1.68,1.68,0,0,0,1,1.75,3.61,3.61,0,0,0,2.54-.26l18-7.48L237.6,55,221.33,80.4a4.89,4.89,0,0,0-.87,2.69,1.67,1.67,0,0,0,1,1.75,3.57,3.57,0,0,0,2.53-.26l17.63-7.31a4.09,4.09,0,0,0,1.75-1.38,3.35,3.35,0,0,0,.7-2,1.5,1.5,0,0,0-.76-1.39"/><path class="cls-7" d="M250.31,66.51a2.5,2.5,0,0,1-.73-1.81V28a2.63,2.63,0,0,1,.73-1.84,2.44,2.44,0,0,1,1.82-.76,2.5,2.5,0,0,1,2.61,2.39V64.7a2.34,2.34,0,0,1-.77,1.81,2.49,2.49,0,0,1-1.83.73,2.43,2.43,0,0,1-1.83-.73"/><path class="cls-7" d="M265.76,63.6q-3.87-3.91-3.87-11a18.51,18.51,0,0,1,1.48-7.41,12.47,12.47,0,0,1,4.51-5.47,13,13,0,0,1,7.51-2.09,13.15,13.15,0,0,1,7.23,1.94,12.67,12.67,0,0,1,4.64,5.23,16.1,16.1,0,0,1,1.58,7.09,2.46,2.46,0,0,1-2.38,2.54H267.05A9.31,9.31,0,0,0,270,60.55c1.65,1.47,4,2.2,7,2.2a16.56,16.56,0,0,0,4.15-.46A16.74,16.74,0,0,0,284.6,61a2.15,2.15,0,0,1,1-.23,2.21,2.21,0,0,1,1.58.63,2,2,0,0,1,.68,1.57,2.46,2.46,0,0,1-1.46,2.1,17.73,17.73,0,0,1-9.9,2.48q-6.87,0-10.76-3.95m18-13.42a9,9,0,0,0-1.45-4.62,7.71,7.71,0,0,0-3.13-2.78,8.67,8.67,0,0,0-7.57,0,7.58,7.58,0,0,0-3.11,2.75,9.27,9.27,0,0,0-1.41,4.63Z"/></g></g></g></svg>