<svg id="Layer_1" data-name="Layer 1" xmlns="http://www.w3.org/2000/svg" xmlns:xlink="http://www.w3.org/1999/xlink" viewBox="0 0 300 100"><defs><style>.cls-1{fill:none;}.cls-2{clip-path:url(#clip-path);}.cls-3{fill:#5e464d;}.cls-4{fill:#e4a663;}.cls-5{fill:#fff;}</style><clipPath id="clip-path"><rect class="cls-1" x="25.45" y="7.67" width="249.11" height="84.66"/></clipPath></defs><g id="Layer_2" data-name="Layer 2"><g class="cls-2"><g class="cls-2"><path class="cls-3" d="M147.15,59.56a14.18,14.18,0,0,1-4,3.71,9.05,9.05,0,0,1-4.76,1.31,9.45,9.45,0,0,1-4.66-1.13,10,10,0,0,1-3.43-3.24,16.1,16.1,0,0,1-2.13-5,27.71,27.71,0,0,1-.74-6.55,25,25,0,0,1,.58-5.24,26.18,26.18,0,0,1,1.7-5.18,27,27,0,0,1,2.71-4.76,20.1,20.1,0,0,1,3.63-3.91,17.39,17.39,0,0,1,4.5-2.64,14.11,14.11,0,0,1,5.26-1,9.16,9.16,0,0,1,2.84.44A6.45,6.45,0,0,1,151,27.63a5.89,5.89,0,0,1,1.49,2,6.06,6.06,0,0,1,.55,2.65,7.38,7.38,0,0,1-.52,2.71,10.51,10.51,0,0,1-1.42,2.45A12.79,12.79,0,0,1,149,39.55a15.89,15.89,0,0,1-2.48,1.64,12.65,12.65,0,0,1-2.65,1.06,9.44,9.44,0,0,1-2.59.38,2.76,2.76,0,0,1-1.75-.59,2.23,2.23,0,0,1-.74-1.86,3.28,3.28,0,0,1,0-.61A4.25,4.25,0,0,1,139,39a2.62,2.62,0,0,1,.19-.46.34.34,0,0,1,.28-.19.54.54,0,0,1,.27.09,1.41,1.41,0,0,0,.32.17,2.9,2.9,0,0,0,.57.18,4.1,4.1,0,0,0,1,.09,5.9,5.9,0,0,0,2.3-.53,9.14,9.14,0,0,0,2.27-1.4,8,8,0,0,0,1.74-2,4.61,4.61,0,0,0,.69-2.37,3,3,0,0,0-.18-.94,2.69,2.69,0,0,0-.58-.94,3.27,3.27,0,0,0-1.06-.74,4.11,4.11,0,0,0-1.62-.29,7.93,7.93,0,0,0-3.42.78,11.34,11.34,0,0,0-3.08,2.14,17.63,17.63,0,0,0-2.64,3.2,22.24,22.24,0,0,0-2.05,3.93,24.86,24.86,0,0,0-1.33,4.38,22.85,22.85,0,0,0-.46,4.51,23.35,23.35,0,0,0,.48,5A14.11,14.11,0,0,0,134,57.33a7.12,7.12,0,0,0,2,2.4,4.23,4.23,0,0,0,2.52.83,6.31,6.31,0,0,0,2.64-.54,7.58,7.58,0,0,0,2.18-1.44A9.69,9.69,0,0,0,145,56.5a16.51,16.51,0,0,0,1.2-2.42,16.69,16.69,0,0,0,.74-2.5,11.79,11.79,0,0,0,.24-2.29,9.08,9.08,0,0,0,0-.91,7.16,7.16,0,0,1-.05-.8.84.84,0,0,1,.15-.57.92.92,0,0,1,.4-.3,1.88,1.88,0,0,1,.58-.13h.68a3.39,3.39,0,0,1,.89.15,4.23,4.23,0,0,1,.95.42,2.91,2.91,0,0,1,.74.61,1.14,1.14,0,0,1,.32.74c-.15,1.39-.24,2.71-.28,4s-.06,2.51-.06,3.8v8.06c.52-.08,1-.14,1.56-.17l1.48-.1c.66,0,1.09.15,1.28.56a2,2,0,0,1,.09,1.39,3.67,3.67,0,0,1-.71,1.44,1.78,1.78,0,0,1-1.32.67h-1.2l-1.17.08c0,1-.14,1.95-.25,3a19.89,19.89,0,0,1-.54,2.87,13.3,13.3,0,0,1-1,2.6,8.24,8.24,0,0,1-1.48,2.12,6.61,6.61,0,0,1-2.12,1.43,7.2,7.2,0,0,1-2.9.52,7,7,0,0,1-2.6-.46,5.71,5.71,0,0,1-2-1.28A5.45,5.45,0,0,1,137.38,77a6.34,6.34,0,0,1-.44-2.4,6.73,6.73,0,0,1,.88-3.48,9.35,9.35,0,0,1,2.29-2.68,14.23,14.23,0,0,1,3.32-2,32.85,32.85,0,0,1,3.83-1.35v-.5c0-1.11,0-2.08-.06-3s0-1.52,0-2.12m-3.84,17.16a2.33,2.33,0,0,0,1.62-.63,4.6,4.6,0,0,0,1.11-1.7,11.77,11.77,0,0,0,.69-2.47,26.75,26.75,0,0,0,.36-3,10.41,10.41,0,0,0-4.31,2.23,4.47,4.47,0,0,0-1.49,3.33,1.93,1.93,0,0,0,1.61,2.2,2.07,2.07,0,0,0,.43,0Z"/><path class="cls-3" d="M172.44,60.56a2.11,2.11,0,0,0,1.49-.55A5.28,5.28,0,0,0,175,58.64a9.09,9.09,0,0,0,.74-1.8c.19-.64.35-1.24.48-1.81a2.34,2.34,0,0,1,.57-1.17,1.09,1.09,0,0,1,.81-.36,1.47,1.47,0,0,1,.68.18,2.68,2.68,0,0,1,1.09,1.17,1.73,1.73,0,0,1,.19.74v.12a.86.86,0,0,1-.06.23,20,20,0,0,1-1,2.68,11.17,11.17,0,0,1-1.58,2.58,8.25,8.25,0,0,1-2.33,1.95,6.31,6.31,0,0,1-3.18.74,5.59,5.59,0,0,1-2.6-.58,4.61,4.61,0,0,1-1.73-1.52,7.88,7.88,0,0,1-2,1.48,6,6,0,0,1-2.8.61,6.67,6.67,0,0,1-2.91-.6,6,6,0,0,1-2.1-1.64A6.74,6.74,0,0,1,156,59.18a10.07,10.07,0,0,1-.43-3,13.89,13.89,0,0,1,1.12-5.69,13.16,13.16,0,0,1,7.29-7.1,13.58,13.58,0,0,1,5-1,2.87,2.87,0,0,1,1.87.58,1.86,1.86,0,0,1,.74,1.57,1.92,1.92,0,0,1-.15.92.59.59,0,0,1-.57.26,7.31,7.31,0,0,1-.8,0,7.92,7.92,0,0,0-.85,0,9.08,9.08,0,0,0-3.25.64,8.62,8.62,0,0,0-3,1.95,10.17,10.17,0,0,0-2.22,3.34,12.07,12.07,0,0,0-.86,4.79,4.93,4.93,0,0,0,.86,3.12,2.77,2.77,0,0,0,2.34,1.09,2.61,2.61,0,0,0,1.93-.79,6.09,6.09,0,0,0,1.23-1.86V50q0-.32,0-.63t-.09-.42c0-.12,0-.22-.07-.31a1.22,1.22,0,0,1,0-.27.75.75,0,0,1,.43-.64,2,2,0,0,1,1-.23,3.45,3.45,0,0,1,2.22.66,2,2,0,0,1,.83,1.59v8.47a3.32,3.32,0,0,0,.11.83,2.36,2.36,0,0,0,.33.74,1.71,1.71,0,0,0,1.48.75Z"/><path class="cls-3" d="M176.47,45.43a2.89,2.89,0,0,0-.13-1,2,2,0,0,1-.12-.6.73.73,0,0,1,.44-.61,2.11,2.11,0,0,1,1.05-.24,3.41,3.41,0,0,1,2.22.66,2,2,0,0,1,.81,1.59v2.31a17.29,17.29,0,0,1,1.25-2,10.82,10.82,0,0,1,1.48-1.62,6.8,6.8,0,0,1,1.69-1.07,5.44,5.44,0,0,1,4.26.09,3.86,3.86,0,0,1,1.43,1.23,4.48,4.48,0,0,1,.74,1.67,7.83,7.83,0,0,1,.21,1.8V58.77a3,3,0,0,0,.16.79,2,2,0,0,0,.43.7,1.13,1.13,0,0,0,.84.3,2.11,2.11,0,0,0,1.48-.55,5.11,5.11,0,0,0,1.08-1.37,10.82,10.82,0,0,0,.74-1.8c.18-.64.35-1.24.48-1.81a2.13,2.13,0,0,1,.55-1.17,1.15,1.15,0,0,1,.8-.36,1.51,1.51,0,0,1,.69.18,2.79,2.79,0,0,1,.64.49,2.66,2.66,0,0,1,.47.68,1.87,1.87,0,0,1,.18.74v.13a1.74,1.74,0,0,1-.05.22,21.49,21.49,0,0,1-1,2.68,11.24,11.24,0,0,1-1.6,2.58,8.39,8.39,0,0,1-2.33,1.95,6.23,6.23,0,0,1-3.17.74,5.12,5.12,0,0,1-2-.38,4.7,4.7,0,0,1-1.48-1,4.3,4.3,0,0,1-.94-1.47,5.64,5.64,0,0,1-.32-1.86V47.58a4.13,4.13,0,0,0-.16-.92A1.44,1.44,0,0,0,187,46a.92.92,0,0,0-.65-.24,2.62,2.62,0,0,0-1.48.74,10.39,10.39,0,0,0-1.73,2,14.09,14.09,0,0,0-1.49,2.72,10.68,10.68,0,0,0-.81,3v8.24a1.89,1.89,0,0,1-.17.7,1.41,1.41,0,0,1-.47.53,1.66,1.66,0,0,1-.93.21,4.48,4.48,0,0,1-.89-.09,2.52,2.52,0,0,1-.88-.32,2,2,0,0,1-.66-.68,2.22,2.22,0,0,1-.26-1.16Z"/><path class="cls-3" d="M212.78,60.56a2.11,2.11,0,0,0,1.49-.55,5.07,5.07,0,0,0,1.07-1.37,9.09,9.09,0,0,0,.74-1.8c.2-.64.35-1.24.48-1.81a2.34,2.34,0,0,1,.57-1.17,1.09,1.09,0,0,1,.81-.36,1.47,1.47,0,0,1,.68.18,2.76,2.76,0,0,1,1.1,1.17,1.72,1.72,0,0,1,.18.74v.12a.86.86,0,0,1-.06.23,20,20,0,0,1-1,2.68,11.17,11.17,0,0,1-1.58,2.58A8.25,8.25,0,0,1,215,63.15a6.31,6.31,0,0,1-3.18.74,5.52,5.52,0,0,1-2.59-.58,4.56,4.56,0,0,1-1.74-1.52,7.88,7.88,0,0,1-2.05,1.48,6,6,0,0,1-2.8.61,6.59,6.59,0,0,1-2.9-.6,5.94,5.94,0,0,1-2.11-1.64,6.74,6.74,0,0,1-1.28-2.46,10.07,10.07,0,0,1-.43-3A13.86,13.86,0,0,1,197,50.39a12.93,12.93,0,0,1,7.25-7.1,13.76,13.76,0,0,1,5-.89,2.88,2.88,0,0,1,1.88.58,1.86,1.86,0,0,1,.74,1.57,1.92,1.92,0,0,1-.15.92.6.6,0,0,1-.57.26,7.16,7.16,0,0,1-.8,0,8.08,8.08,0,0,0-.85,0,9.08,9.08,0,0,0-3.25.64,8.62,8.62,0,0,0-3,1.95,10.19,10.19,0,0,0-2.19,3.34,12.07,12.07,0,0,0-.86,4.79,4.93,4.93,0,0,0,.86,3.12,2.78,2.78,0,0,0,2.34,1.09,2.58,2.58,0,0,0,1.93-.79,6.31,6.31,0,0,0,1.24-1.86V50a4.44,4.44,0,0,0,0-.63q0-.24-.09-.42a2.37,2.37,0,0,1-.06-.31,1.22,1.22,0,0,1,0-.27.74.74,0,0,1,.43-.64,2,2,0,0,1,1-.23,3.46,3.46,0,0,1,2.22.66,2,2,0,0,1,.83,1.59v8.47a3.32,3.32,0,0,0,.11.83,2.36,2.36,0,0,0,.33.74,1.71,1.71,0,0,0,1.48.75Z"/><path class="cls-3" d="M225.82,63.94a10.75,10.75,0,0,1-3.64-.62,9.49,9.49,0,0,1-3.13-1.86,9.07,9.07,0,0,1-2.17-3,10,10,0,0,1-.81-4.18,13.86,13.86,0,0,1,.69-4.33,13.25,13.25,0,0,1,1.89-3.8,10.26,10.26,0,0,1,2.91-2.7,7.12,7.12,0,0,1,3.71-1,5.17,5.17,0,0,1,4.13,1.84,5,5,0,0,1,.92,1.65,4.78,4.78,0,0,1,.29,1.55,1.41,1.41,0,0,1-.29.9,2.75,2.75,0,0,1-.69.67,3.07,3.07,0,0,1-.92.42,2.87,2.87,0,0,1-.88.11,1,1,0,0,1-.62-.25.7.7,0,0,1-.15-.68c-.08-.26-.15-.53-.21-.8a3.38,3.38,0,0,0-.33-.92,2.3,2.3,0,0,0-.65-.74,1.85,1.85,0,0,0-1.12-.31,2.23,2.23,0,0,0-1.48.66,5.84,5.84,0,0,0-1.3,1.82,12.45,12.45,0,0,0-.91,2.68,14.83,14.83,0,0,0-.34,3.25,7.81,7.81,0,0,0,.43,2.71,5.38,5.38,0,0,0,1.2,2,5,5,0,0,0,1.83,1.22,6.2,6.2,0,0,0,2.3.41,7,7,0,0,0,2.88-.56,6.52,6.52,0,0,0,2.07-1.49,7.47,7.47,0,0,0,1.38-2.08,11.12,11.12,0,0,0,.75-2.33,1.55,1.55,0,0,1,.78-1.14,1.72,1.72,0,0,1,1.22-.13,2.12,2.12,0,0,1,1.07.64,1.35,1.35,0,0,1,.37,1.16,12.05,12.05,0,0,1-.4,1.78,10.5,10.5,0,0,1-.84,2,11.76,11.76,0,0,1-1.39,2,9.32,9.32,0,0,1-2.05,1.76,10.85,10.85,0,0,1-2.83,1.25,12.62,12.62,0,0,1-3.67.46"/><path class="cls-3" d="M233.56,30.9a3.29,3.29,0,0,0-.09-.88,2.45,2.45,0,0,0-.2-.51,1.37,1.37,0,0,0-.19-.3A.4.4,0,0,1,233,29a.32.32,0,0,1,.17-.25,2.35,2.35,0,0,1,.44-.17,3.06,3.06,0,0,1,.59-.11,4.44,4.44,0,0,1,.63,0,3.41,3.41,0,0,1,2.22.66,2,2,0,0,1,.8,1.59V47.49a18.77,18.77,0,0,1,1.25-2,10,10,0,0,1,1.49-1.62,6.51,6.51,0,0,1,1.67-1.07,5.44,5.44,0,0,1,4.26.09,4,4,0,0,1,1.44,1.23,4.83,4.83,0,0,1,.74,1.67,8.41,8.41,0,0,1,.2,1.8V58.77a3,3,0,0,0,.17.79,2,2,0,0,0,.43.7,1.12,1.12,0,0,0,.84.3A2.14,2.14,0,0,0,251.8,60a5.07,5.07,0,0,0,1.07-1.37,9.35,9.35,0,0,0,.74-1.8c.19-.64.35-1.24.49-1.81a2.15,2.15,0,0,1,.5-1.13,1.17,1.17,0,0,1,.74-.39,1.43,1.43,0,0,1,.81.19,2.44,2.44,0,0,1,.74.58,2.63,2.63,0,0,1,.45.82,1.45,1.45,0,0,1,.05.85,23.54,23.54,0,0,1-1,2.69,11.28,11.28,0,0,1-1.59,2.58,8.19,8.19,0,0,1-2.31,2,6.33,6.33,0,0,1-3.17.74,5,5,0,0,1-2-.39,4.67,4.67,0,0,1-1.48-1,4.38,4.38,0,0,1-1-1.49,5.39,5.39,0,0,1-.32-1.86V47.58a4.13,4.13,0,0,0-.16-.92A1.44,1.44,0,0,0,244,46a.92.92,0,0,0-.65-.24,2.62,2.62,0,0,0-1.48.74,10.81,10.81,0,0,0-1.74,2,14.6,14.6,0,0,0-1.48,2.72,10.68,10.68,0,0,0-.81,3v8.24a1.72,1.72,0,0,1-.17.7,1.31,1.31,0,0,1-.46.53,1.7,1.7,0,0,1-.93.21,4.41,4.41,0,0,1-.89-.09,2.52,2.52,0,0,1-.88-.32,1.87,1.87,0,0,1-.66-.68,2.14,2.14,0,0,1-.27-1.16Z"/><path class="cls-3" d="M267.32,47.58a8.58,8.58,0,0,1-.54,3,9.92,9.92,0,0,1-1.59,2.84,11.72,11.72,0,0,1-6.24,4,5.36,5.36,0,0,0,.74,1.24,5,5,0,0,0,1.09,1,5.81,5.81,0,0,0,1.48.67,6.78,6.78,0,0,0,1.95.25,6.64,6.64,0,0,0,2.84-.56,6.43,6.43,0,0,0,2-1.48,8.26,8.26,0,0,0,1.31-2.09,11.82,11.82,0,0,0,.74-2.32,1.56,1.56,0,0,1,.79-1.15,1.75,1.75,0,0,1,1.21-.13,2.1,2.1,0,0,1,1.08.64,1.42,1.42,0,0,1,.37,1.16,17.55,17.55,0,0,1-.37,1.78,10,10,0,0,1-.79,2,10.9,10.9,0,0,1-1.34,2,8.94,8.94,0,0,1-2,1.76,10.46,10.46,0,0,1-2.79,1.25,12.91,12.91,0,0,1-3.66.47,10.25,10.25,0,0,1-3.71-.69,9.71,9.71,0,0,1-3.19-2,9.42,9.42,0,0,1-2.22-3.18,10.36,10.36,0,0,1-.84-4.29,13.45,13.45,0,0,1,.74-4.53,12.54,12.54,0,0,1,2-3.61,9.39,9.39,0,0,1,2.69-2.41,6.55,6.55,0,0,1,3.17-.86,5.93,5.93,0,0,1,2.13.37A4.54,4.54,0,0,1,266,43.83a4.6,4.6,0,0,1,1,1.65,6,6,0,0,1,.35,2.1m-9.11,6.05a3.38,3.38,0,0,0,0,.45v.48a8,8,0,0,0,1.9-1.15,7.31,7.31,0,0,0,1.48-1.61,7.22,7.22,0,0,0,.94-2,7.62,7.62,0,0,0,.33-2.23,2.44,2.44,0,0,0-.32-1.32,1,1,0,0,0-.87-.48,2,2,0,0,0-1.22.42,3.9,3.9,0,0,0-.94,1.12,7.3,7.3,0,0,0-.66,1.55,15.63,15.63,0,0,0-.65,3.41,11.63,11.63,0,0,0,0,1.32"/><path class="cls-4" d="M90.91,71.13a1.54,1.54,0,0,0,1.61-.92,4,4,0,0,0,.2-2.23,14.52,14.52,0,0,0-.31-1.86V63.76c.54-9.83,4.75-12.17,5.93-12.43a3.39,3.39,0,0,1,2.35.15V32.25a7.6,7.6,0,0,0-3.42-5.93L66.51,8.49a7.58,7.58,0,0,0-6.85,0L28.87,26.28a7.57,7.57,0,0,0-3.42,5.93v9.64a6,6,0,0,1,.53.31c.59.37,1.19.61,1.79,1a26.8,26.8,0,0,1,4.73,3.7c.28.28,1.21,1.49,1.48,1.73a19,19,0,0,0,2.28,2.62,8.44,8.44,0,0,0,1.54,1.1,4.34,4.34,0,0,0,3.17,0c5.87-2.55,9.55-1.27,11.24-.25,4.21,2.52,5.61,6,6,10.33a11.61,11.61,0,0,1,.06,1.67c0,1,0,2.66,1,3,1.53.39,1.91-1.26,2.14-2.35a4.53,4.53,0,0,1,6.22-2.85c1.66.86,2.34,1.34,4,.62,2.06-.91,3.12-3.21,3.84-4.44a7.37,7.37,0,0,1,3-2.82c3.21-2,11.26-1.48,11.56,7.41v5c0,.59-.14,1.19-.2,1.79-.07-.06-.37,1.69,1,1.69"/><path class="cls-3" d="M100.77,51.51a3.4,3.4,0,0,0-2.35-.15C97.2,51.62,93,54,92.49,63.79c0,.61,0,2.13,0,2.36,0,.39.26,1.17.3,1.86a3.78,3.78,0,0,1-.2,2.23,1.52,1.52,0,0,1-1.61.92c-1.41,0-1.12-1.75-1.12-1.75.06-.59.17-1.2.2-1.78.06-.88,0-1.71,0-2.55V62.61c-.3-8.9-8.35-9.4-11.56-7.41a7.5,7.5,0,0,0-3,2.81c-.74,1.23-1.77,3.53-3.83,4.45-1.64.74-2.32.24-4-.62a4.52,4.52,0,0,0-6.22,2.85c-.23,1.09-.61,2.74-2.14,2.34-1.07-.27-1-1.91-1-3a11.8,11.8,0,0,0-.06-1.68c-.44-4.27-1.84-7.8-6-10.32-1.69-1-5.37-2.3-11.24.24a4.24,4.24,0,0,1-3.17,0,7.94,7.94,0,0,1-1.54-1.09A19,19,0,0,1,34,48.6a21.53,21.53,0,0,0-1.48-1.73,27.33,27.33,0,0,0-4.73-3.71c-.6-.41-1.2-.65-1.79-1l-.53-.29V67.79a7.57,7.57,0,0,0,3.42,5.93L59.69,91.51a7.58,7.58,0,0,0,6.85,0L97.35,73.79a7.61,7.61,0,0,0,3.43-5.93Z"/><path class="cls-5" d="M67,47.15a8.6,8.6,0,0,1-7.75,0L27.76,30.52c.36.35,32,18.72,32,18.72a7.58,7.58,0,0,0,6.85,0S98.13,30.93,98.49,30.58Z"/><path class="cls-5" d="M59.22,10.87a8.61,8.61,0,0,1,7.74,0l3.82,1.6c-.35-.36-4.27-2.89-4.27-2.89a7.58,7.58,0,0,0-6.85,0s-6.23,3.67-6.59,4Z"/></g></g></g></svg>