<svg id="Layer_1" data-name="Layer 1" xmlns="http://www.w3.org/2000/svg" xmlns:xlink="http://www.w3.org/1999/xlink" viewBox="0 0 800.45 130.88"><defs><style>.cls-1{fill:none;}.cls-2{clip-path:url(#clip-path);}.cls-3{fill:#5e464d;}.cls-4{clip-path:url(#clip-path-2);}.cls-5{fill:#e3a663;}.cls-6{fill:#dae7a2;}.cls-7{fill:#3fe0c5;}.cls-8{fill:#e86591;}.cls-9{fill:#e13dc2;}</style><clipPath id="clip-path"><rect class="cls-1" x="158.9" y="26.97" width="482.64" height="76.94"/></clipPath><clipPath id="clip-path-2"><rect class="cls-1" x="158.9" y="26.97" width="482.64" height="76.94"/></clipPath></defs><g id="truffle-teams-logo-dark"><g class="cls-2"><path class="cls-3" d="M311.23,82.16,306.1,69.68h-4V82.16h-6.18V48.72h10.65c3.34,0,5.95.88,7.76,2.59S317,55.5,317,58.69c0,4.37-1.6,7.47-4.76,9.2l-.29.16,6,14.11Zm-9.16-17.51h4.28a4,4,0,0,0,3.38-1.51,6.39,6.39,0,0,0,1.11-3.89c0-3.65-1.47-5.5-4.38-5.5h-4.39Z"/><path class="cls-3" d="M337.92,82.63c-3.55,0-6.28-.93-8.14-2.76s-2.79-4.53-2.79-8V48.72h6.23V71.87a7.29,7.29,0,0,0,1,4.37c.69.92,1.93,1.39,3.69,1.39s3-.47,3.66-1.38a7.17,7.17,0,0,0,1-4.26V48.72h6.18V72c0,3.43-1,6.09-2.82,7.89s-4.55,2.73-8,2.73"/><polygon class="cls-3" points="359.53 82.16 359.53 48.73 377.71 48.73 377.71 53.75 365.7 53.75 365.7 63.22 376.42 63.22 376.42 68.22 365.7 68.22 365.7 82.16 359.53 82.16"/><polygon class="cls-3" points="387.18 82.16 387.18 48.73 405.36 48.73 405.36 53.75 393.35 53.75 393.35 63.22 404.07 63.22 404.07 68.22 393.35 68.22 393.35 82.16 387.18 82.16"/><polygon class="cls-3" points="414.83 82.16 414.83 48.73 421.01 48.73 421.01 77.16 433.11 77.16 433.11 82.16 414.83 82.16"/><polygon class="cls-3" points="442.62 82.16 442.62 48.73 461.47 48.73 461.47 53.75 448.8 53.75 448.8 62.54 459.54 62.54 459.54 67.38 448.8 67.38 448.8 77.16 461.51 77.16 461.51 82.16 442.62 82.16"/><polygon class="cls-3" points="493.63 82.16 493.63 53.75 485.33 53.75 485.33 48.73 508.28 48.73 508.28 53.75 499.83 53.75 499.83 82.16 493.63 82.16"/><polygon class="cls-3" points="517.77 82.16 517.77 48.73 536.61 48.73 536.61 53.75 523.95 53.75 523.95 62.54 534.69 62.54 534.69 67.38 523.95 67.38 523.95 77.16 536.66 77.16 536.66 82.16 517.77 82.16"/><path class="cls-3" d="M564.2,82.16l-1.83-7h-10l-1.83,7h-6.53L554.5,48.72h5.78L570.8,82.16Zm-10.48-12H561l-3.65-14Z"/><polygon class="cls-3" points="603.62 82.16 603.62 73.28 604.25 59.05 603.54 58.94 596.79 82.16 592.64 82.16 585.89 58.94 585.18 59.05 585.82 73.29 585.82 82.16 579.64 82.16 579.64 48.73 588.01 48.73 594.74 74.49 601.45 48.73 609.82 48.73 609.82 82.16 603.62 82.16"/><path class="cls-3" d="M631.33,82.63a13.11,13.11,0,0,1-5.87-1.32,10,10,0,0,1-4.11-3.76,10.86,10.86,0,0,1-1.48-5.44h6.2a6.61,6.61,0,0,0,1.23,4.17,5.07,5.07,0,0,0,4,1.46c2.6,0,4-1.44,4-4.18a4.62,4.62,0,0,0-1.17-3.41,12.45,12.45,0,0,0-4-2.3c-3.36-1.27-5.8-2.77-7.25-4.46a8.85,8.85,0,0,1-2.17-6,8.34,8.34,0,0,1,2.94-6.65,11.23,11.23,0,0,1,7.54-2.53,11.41,11.41,0,0,1,5.44,1.28,8.83,8.83,0,0,1,3.64,3.6,10.63,10.63,0,0,1,1.27,5h-6.15a5.8,5.8,0,0,0-1.09-3.51,4,4,0,0,0-3.23-1.39A4,4,0,0,0,628,54.37a4.36,4.36,0,0,0-1.11,3.12,3.9,3.9,0,0,0,1.23,2.8,13.11,13.11,0,0,0,4.1,2.43,17,17,0,0,1,7.13,4.34,9.61,9.61,0,0,1,2.18,6.45,8.53,8.53,0,0,1-2.72,6.7,11,11,0,0,1-7.48,2.42"/><polygon class="cls-3" points="271.74 82.16 271.74 53.75 263.43 53.75 263.43 48.73 286.38 48.73 286.38 53.75 277.94 53.75 277.94 82.16 271.74 82.16"/><g class="cls-4"><path class="cls-5" d="M176,88.18A32.77,32.77,0,0,1,173,86.66a20.63,20.63,0,0,0,1.24,2.49c.56.42,1.14.82,1.73,1.2a31.73,31.73,0,0,0,3.1,1.77c-.92-1.05-1.8-2.13-2.62-3.23-.18-.23-.34-.47-.51-.71"/><path class="cls-5" d="M230.43,58.35a33.06,33.06,0,0,1,2.14,5.11,21.62,21.62,0,0,0,0-3.22,17.33,17.33,0,0,0-3.86-9.7c.11.75.19,1.5.26,2.26a19.82,19.82,0,0,1,1.43,5.55"/><path class="cls-5" d="M228.37,69.07c-.21.4-.43.79-.65,1.18,0,1.22,0,2.45-.15,3.67-.08,1-.19,1.93-.34,2.9A31,31,0,0,0,230,72.44a28.76,28.76,0,0,0-.86-5c-.22.53-.45,1.06-.72,1.59"/><path class="cls-5" d="M220.13,86.18c-.55.34-1.12.65-1.69,1-.4.48-.8,1-1.21,1.42.9-.56,1.78-1.17,2.64-1.79l.16-.34a2.6,2.6,0,0,1,.1-.25"/><path class="cls-5" d="M192.28,95.94c.75,0,1.49,0,2.23,0-1.41-.34-2.8-.75-4.17-1.21.63.45,1.28.87,1.94,1.26"/><path class="cls-5" d="M197.78,90.61l-.48.09a48.17,48.17,0,0,0,9.89.91c.39-.29.77-.6,1.15-.91a24.9,24.9,0,0,1-10.56-.09"/><path class="cls-5" d="M201.18,89.83A29.46,29.46,0,0,0,211,88.3a39.29,39.29,0,0,0,4.49-5.38,57.64,57.64,0,0,1-5.82,3.54,42.34,42.34,0,0,1-8.48,3.37"/><path class="cls-5" d="M229,52.8c-.07-.76-.15-1.51-.26-2.26-.08-.09-.15-.19-.22-.28.1.67.19,1.33.25,2l.23.54"/><path class="cls-6" d="M227.89,63.84c-.13.54-.27,1.08-.43,1.62.11,1,.17,2,.21,3,.28-1.1.51-2.21.7-3.32-.11-.32-.22-.63-.34-.94,0-.12-.09-.23-.14-.35"/><path class="cls-6" d="M222.51,47.8c.69.71,1.37,1.44,2,2.21s1.15,1.4,1.69,2.13a29.36,29.36,0,0,0-1.39-5.5,28.81,28.81,0,0,0-3.45-2.36c.22.52.43,1.06.61,1.62s.37,1.26.53,1.9"/><path class="cls-6" d="M198.07,96.6a28.69,28.69,0,0,1-2.77.86,18.28,18.28,0,0,0,2.91,1c.47-.08.93-.16,1.39-.26a35.53,35.53,0,0,0,3.5-1c-1.36-.1-2.7-.23-4-.42l-1-.17"/><path class="cls-6" d="M221.05,71.43a42.35,42.35,0,0,1-3.33,7.87,30.37,30.37,0,0,0,5.33-7.67,39.66,39.66,0,0,0-.53-6.06,55.14,55.14,0,0,1-1.47,5.86"/><path class="cls-6" d="M220.43,39a21.2,21.2,0,0,0-2.11-2.13,17.17,17.17,0,0,0-9.16-4.07c.41.31.82.63,1.22,1a20.14,20.14,0,0,1,5.93,3.5l.3.27a39.34,39.34,0,0,1,4,1.7c-.07-.07-.13-.15-.2-.23"/><path class="cls-6" d="M215.69,82.61l-.21.31A39.29,39.29,0,0,1,211,88.3a38.45,38.45,0,0,0,4.06-1.58,30.75,30.75,0,0,0,6.34-3.9,35.81,35.81,0,0,0,1.34-6c.07-.51.12-1,.17-1.55a25.42,25.42,0,0,1-7.21,7.36"/><path class="cls-6" d="M210.7,90.17c-.78.2-1.56.38-2.36.53-.38.31-.76.62-1.15.91a36.29,36.29,0,0,0,5.43-.48c.91-.15,1.82-.34,2.7-.57.66-.65,1.3-1.31,1.91-2,.41-.46.81-.94,1.21-1.42a36.6,36.6,0,0,1-7.74,3"/><path class="cls-7" d="M202.3,35c1.16,0,2.32,0,3.49.14.9.08,1.81.18,2.72.32a29.67,29.67,0,0,0-4.67-2.81,28,28,0,0,0-4.63.8c.55.22,1.09.46,1.63.74s1,.53,1.46.81"/><path class="cls-7" d="M220.85,46.18c-.69-1.14-1.42-2.24-2.19-3.31l-.37-.17-.33-.15c.42.7.81,1.41,1.19,2.13.58.48,1.14,1,1.7,1.5"/><path class="cls-7" d="M221.68,61.67a29.16,29.16,0,0,0-1.44-9.54,38.2,38.2,0,0,0-5.1-4.39,56.85,56.85,0,0,1,3.09,5.17,42.44,42.44,0,0,1,3.45,8.76"/><path class="cls-7" d="M223.49,83.9a34.79,34.79,0,0,1-3.36,2.28,2.6,2.6,0,0,0-.1.25l-.16.34c-.43.93-.91,1.86-1.43,2.76A19.54,19.54,0,0,0,221.39,88q.42-.59.81-1.2a31.41,31.41,0,0,0,1.92-3.39l-.63.49"/><path class="cls-7" d="M195.09,30.23a23.1,23.1,0,0,0-3,0A17.35,17.35,0,0,0,182.52,34c.5-.07,1-.13,1.52-.18a20,20,0,0,1,6.55-1.71l.35,0a37,37,0,0,1,4.54-1.8l-.39,0"/><path class="cls-7" d="M223.46,55.91c-.27-.38-.56-.75-.85-1.11a24.65,24.65,0,0,1-.17,10.3c0,.16.05.31.08.47a39.66,39.66,0,0,1,.53,6.06A38.44,38.44,0,0,0,224.64,68a30.61,30.61,0,0,0,1.74-7.43,34.17,34.17,0,0,0-2.92-4.64"/><path class="cls-7" d="M227.67,68.45c0-1-.1-2-.21-3a36.75,36.75,0,0,1-3.46,8c-.35.59-.72,1.18-1.1,1.76-.05.52-.1,1-.17,1.55a35.81,35.81,0,0,1-1.34,6l.34-.27a33.35,33.35,0,0,0,4.32-4.25c.84-3.08,1.51-6.59,1-1.28l.15-.2c.15-1,.26-1.94.34-2.9.11-1.22.15-2.45.15-3.67,0-.6,0-1.2-.05-1.8"/><path class="cls-5" d="M179.12,40.37c-.67.66-1.33,1.34-2,2a47.8,47.8,0,0,1,4.69-2.61,27.73,27.73,0,0,0-2.74.57"/><path class="cls-5" d="M228.77,52.26c-.06-.67-.15-1.33-.25-2a23.78,23.78,0,0,0-2.4-2.52c-.42-.38-.85-.75-1.3-1.1a29.36,29.36,0,0,1,1.39,5.5c.31.42.61.83.9,1.26l.68.83c.41.51.77,1.05,1.13,1.6a35.52,35.52,0,0,0-.15-3.57"/><path class="cls-5" d="M226.83,61.43l-.45-.88A30.61,30.61,0,0,1,224.64,68a38.44,38.44,0,0,1-1.59,3.65,30.37,30.37,0,0,1-5.33,7.67c-.63,1.14-1.31,2.24-2,3.31a25.42,25.42,0,0,0,7.21-7.36c.38-.58.75-1.17,1.1-1.76a36.75,36.75,0,0,0,3.46-8c.16-.54.3-1.08.43-1.62-.32-.82-.68-1.62-1.06-2.41"/><path class="cls-5" d="M171.87,54a34.92,34.92,0,0,0-4.17,5.13c-.3.94-.57,1.9-.82,2.86-.34,1.31-.62,2.64-.85,4,.09.27.19.55.3.81s.11.3.17.44c.43,1.06.9,2.09,1.41,3.08l.12.22A36.85,36.85,0,0,0,171,75.13,48.76,48.76,0,0,1,172,65c.38-1.87.84-3.7,1.38-5.44a41.68,41.68,0,0,1,3.33-7.87c.63-1.14,1.31-2.24,2-3.31.07-.1.13-.2.2-.29A48.12,48.12,0,0,0,171.87,54"/><path class="cls-5" d="M218.66,33a21.08,21.08,0,0,0-7.13-3.45,25.35,25.35,0,0,0-6.81-.82c-.81,0-1.63.06-2.44.14l-.16,0a33.2,33.2,0,0,0-6.64,1.43,37,37,0,0,0-4.54,1.8c-1,.45-1.91.94-2.84,1.47l-.19.11h0c1.13,0,2.25,0,3.38.12,1.34.09,2.67.23,4,.42l1,.17c.94-.34,1.9-.65,2.88-.9a28,28,0,0,1,4.63-.8,22.82,22.82,0,0,1,2.33-.1,21.51,21.51,0,0,1,2.78.18l.21,0a17.17,17.17,0,0,1,9.16,4.07A21.2,21.2,0,0,1,220.43,39l.2.24a32.72,32.72,0,0,1,4.57,2.71c.41.29.81.58,1.21.89A24.34,24.34,0,0,0,218.66,33"/><path class="cls-5" d="M206.49,97.3c-1.13,0-2.26,0-3.39-.11a35.53,35.53,0,0,1-3.5,1c-.46.1-.92.18-1.39.26a29.64,29.64,0,0,1-6.36.39,25.26,25.26,0,0,1-3.6-.41,24.2,24.2,0,0,1-3.63-1l-.29-.1a20.27,20.27,0,0,1-6.22-3.61A35,35,0,0,1,174,92l-.36-.18A28.43,28.43,0,0,1,169.23,89c-.44-.33-.86-.68-1.28-1l-.28-.24.06.14A25.46,25.46,0,0,0,170,92.14,21.87,21.87,0,0,0,175.76,98a25,25,0,0,0,13.94,4.27c.89,0,1.8,0,2.7-.1l.17,0a28.87,28.87,0,0,0,6.35-1.29l.44-.15a33.51,33.51,0,0,0,4.44-1.84,21.34,21.34,0,0,0,1.87-1.05l.64-.41.18-.11Z"/><path class="cls-5" d="M173,86.66c-.22-.52-.42-1-.6-1.61s-.36-1.2-.51-1.81c-.72-.74-1.43-1.5-2.1-2.29s-1.09-1.34-1.61-2c-.33-.44-.66-.9-1-1.36-.61-.89-1.2-1.81-1.74-2.75l-.24-.41v.46c0,1.09.06,2.18.15,3.26.07.18.15.35.22.53a24,24,0,0,0,2.68,4.57c.5.68,1,1.33,1.6,2a30,30,0,0,0,4.36,4A20.63,20.63,0,0,1,173,86.66"/><path class="cls-6" d="M227.72,70.25a37.1,37.1,0,0,1-.95,5.26h0c-.2.77-.45,1.8-.72,2.79.25-.3.49-.61.73-.92l0,.64s-.16,1.41.49-1.2a35.36,35.36,0,0,0,.49-6.57"/><path class="cls-8" d="M229.94,72.44a30.05,30.05,0,0,1-2.71,4.38l-.15.2c-.33.43-.68.86-1,1.28a33.35,33.35,0,0,1-4.32,4.25l-.34.27a30.75,30.75,0,0,1-6.34,3.9A38.45,38.45,0,0,1,211,88.3a29.46,29.46,0,0,1-9.81,1.53c-1.12.31-2.26.57-3.4.78a24.9,24.9,0,0,0,10.56.09c.8-.15,1.58-.33,2.36-.53a36.6,36.6,0,0,0,7.74-3c.57-.31,1.13-.62,1.69-1a34.79,34.79,0,0,0,3.36-2.28l.63-.49q1.08-.87,2.1-1.83l.25-.23a33.22,33.22,0,0,0,2.43-2.61c.1-.24.19-.48.28-.72a24.78,24.78,0,0,0,.84-3,25.18,25.18,0,0,0-.08-2.6"/><path class="cls-8" d="M233,50.24A26.26,26.26,0,0,0,226.68,43l-.27-.22c-.4-.31-.8-.6-1.21-.89a32.72,32.72,0,0,0-4.57-2.71,37.29,37.29,0,0,0-4-1.71c-1.09-.39-2.19-.73-3.3-1l-.09,0c-.5-.14-1-.26-1.5-.38q-1.6-.36-3.21-.6c-.91-.14-1.82-.24-2.72-.32-1.17-.1-2.33-.14-3.49-.14-.82,0-1.63,0-2.45.06,1.56.37,3.1.83,4.61,1.35a48,48,0,0,1,10,4.86l.06,0a33.07,33.07,0,0,1,3.4,1.25l.33.15.37.17a30.12,30.12,0,0,1,6.16,3.77c.45.35.88.72,1.3,1.1a23.78,23.78,0,0,1,2.4,2.52c.07.09.14.19.22.28a17.33,17.33,0,0,1,3.86,9.7,21.62,21.62,0,0,1,0,3.22l.06.19a28.13,28.13,0,0,1,1.28,6.2l.06.64a23,23,0,0,0-1-20.25"/><path class="cls-8" d="M187.23,39.34a35.48,35.48,0,0,0-5.37.46,47.8,47.8,0,0,0-4.69,2.61c-.82.52-1.61,1.06-2.4,1.62l-.84.61c-1,.76-2,1.57-3,2.41l-.42.37c-.75.66-1.49,1.35-2.2,2.07l-.25.25a42.85,42.85,0,0,0-2.95,3.37,21.85,21.85,0,0,0-.78,2.8,22.63,22.63,0,0,0,.08,2.73,28.69,28.69,0,0,0,.88,5c.23-.57.48-1.14.77-1.71s.51-1,.79-1.43.55-.9.84-1.34A34.92,34.92,0,0,1,171.87,54a48.12,48.12,0,0,1,7.06-5.93,55.42,55.42,0,0,1,5.85-3.56,41.64,41.64,0,0,1,8.47-3.36c1.12-.31,2.26-.58,3.4-.79l.44-.08a48.59,48.59,0,0,0-9.86-.92"/><path class="cls-8" d="M184.4,94.17c-.64-.18-1.25-.36-1.76-.54a33,33,0,0,1-3.37-1.43l-.16-.08a31.73,31.73,0,0,1-3.1-1.77c-.59-.38-1.17-.78-1.73-1.2a30,30,0,0,1-4.36-4,24.6,24.6,0,0,1-1.6-2,24,24,0,0,1-2.68-4.57c-.07-.18-.15-.35-.22-.53a19.88,19.88,0,0,1-1.4-5.33c0-.32-.06-.63-.08-1a37.6,37.6,0,0,1-2-5,33,33,0,0,1-1.29-6c-.07.17-.13.34-.19.51a25.68,25.68,0,0,0-1.13,3.9c-1.74,8.69,2,17,8.34,22.59L168,88c.42.35.84.7,1.28,1a28.43,28.43,0,0,0,4.39,2.76L174,92a35,35,0,0,0,4.13,1.75,23.13,23.13,0,0,0,2.43.69l.83.19.1,0,1.24.26c.33.06.66.11,1,.14l2,.2c5.49.5,1.81-.2-1.31-1"/><path class="cls-9" d="M220,94.7l.33-.16-.33.16h0"/><path class="cls-9" d="M220,94.72l0,0h0l0,0"/><path class="cls-9" d="M179.61,83.49l0,0-.12-.18a1.4,1.4,0,0,1,.1.16"/><path class="cls-9" d="M219.3,95l-1.07.41L219.3,95"/><path class="cls-9" d="M203.71,39.68a37.07,37.07,0,0,0-4-1.75,30.39,30.39,0,0,0-7.53-1.75l-.12,0a32.71,32.71,0,0,0-6-.06c-.55,0-1.09.11-1.63.18l-.71.1a29.74,29.74,0,0,0-4.94,1.23c-.43.14-.86.3-1.28.47a24.24,24.24,0,0,0-6.2,3.59c-.2.15-.39.31-.57.47a20.3,20.3,0,0,0-2.14,2.11,17.3,17.3,0,0,0-4.08,9.2l-.06.51c-.07.64-.12,1.29-.13,1.95a21.85,21.85,0,0,1,.78-2.8c.08-.24.17-.49.26-.73a20.17,20.17,0,0,1,3.58-6c.18-.2.36-.41.55-.6a18.18,18.18,0,0,1,3.85-3.07,20.43,20.43,0,0,1,2.85-1.41q.64-.25,1.32-.48c.53-.16,1.06-.32,1.59-.45a27.73,27.73,0,0,1,2.74-.57,35.48,35.48,0,0,1,5.37-.46,48.59,48.59,0,0,1,9.86.92,57.22,57.22,0,0,1,6,1.49,42.18,42.18,0,0,1,8.7,3.8,29.21,29.21,0,0,0-8-5.87"/><path class="cls-9" d="M187.92,33.66h0"/><path class="cls-9" d="M230.14,64.1c-.06-.38-.14-.76-.22-1.13-.24-1.1-.54-2.19-.89-3.27-.09-.28-.19-.55-.29-.83A29.57,29.57,0,0,0,227.55,56c-.29-.61-.7-1.34-1.12-2.07-1.51-2.6-3.19-5.11-.18-1.53,0-.07,0-.14,0-.22-.54-.73-1.11-1.45-1.69-2.14s-1.32-1.49-2-2.2c-.54-.56-1.1-1.1-1.66-1.62s-1.12-1-1.7-1.5a44.64,44.64,0,0,0-4.55-3.34l-.1-.06a48,48,0,0,0-10-4.86c-1.51-.52-3.05-1-4.61-1.35-1.16-.28-2.34-.52-3.52-.71l-1-.17c-1.31-.19-2.64-.33-4-.42-1.13-.08-2.25-.12-3.38-.12h0c1,0,2.08.09,3.11.2a36.07,36.07,0,0,1,4.51.8c.71.17,1.41.36,2.1.58a35.81,35.81,0,0,1,7.62,3.33c.68.4,1.35.82,2,1.27a24.83,24.83,0,0,1,7.48,7.62l.39.28a38.2,38.2,0,0,1,5.1,4.39,35.31,35.31,0,0,1,2.37,2.67c.29.36.58.73.85,1.11a34.17,34.17,0,0,1,2.92,4.64l.45.88c.38.79.74,1.59,1.06,2.41.05.12.1.23.14.35.12.31.23.62.34.94.27.77.51,1.55.72,2.35a27.81,27.81,0,0,1,.85,5A25.18,25.18,0,0,1,230,75a27.94,27.94,0,0,0,.54-3.9,29.83,29.83,0,0,0-.42-7"/><path class="cls-7" d="M234,70.49l-.06-.64a28.13,28.13,0,0,0-1.28-6.2l-.06-.19a33.06,33.06,0,0,0-2.14-5.11c-.26-.5-.54-1-.84-1.46-.15-.23-.3-.46-.44-.69l-.23-.37c-.36-.55-.72-1.09-1.13-1.6l-.41-.51c-.39-1-4.91-6.07-4.4-5.43s1.71,2.62,1.71,2.62c.29.56,1,1.76,1.74,3,.42.73.83,1.46,1.12,2.07a29.57,29.57,0,0,1,1.19,2.91c.1.28.2.55.29.83.35,1.08.65,2.17.89,3.27.08.37.16.75.22,1.13a29.83,29.83,0,0,1,.42,7A27.94,27.94,0,0,1,230,75a24.78,24.78,0,0,1-.84,3c-.09.24-.18.48-.28.72a20.24,20.24,0,0,1-3.14,5.4l-.54.63A18.79,18.79,0,0,1,221.39,88a19.54,19.54,0,0,1-2.95,1.53c-.53.21-1.06.42-1.62.6s-1,.3-1.5.43c-.88.23-1.79.42-2.7.57a36.29,36.29,0,0,1-5.43.48,48.17,48.17,0,0,1-9.89-.91,58,58,0,0,1-6-1.5,42.65,42.65,0,0,1-8.7-3.8c-1-.59-2-1.22-3-1.89l0,0a39.83,39.83,0,0,1-5.18-4.34c-.84-.85-1.64-1.73-2.4-2.65-.37-.45-.73-.91-1.08-1.37A36.85,36.85,0,0,1,168,70.5l-.12-.22c-.51-1-1-2-1.41-3.08-.06-.14-.12-.29-.17-.43s-.21-.55-.3-.82c-.28-.77-.52-1.56-.73-2.36a28.69,28.69,0,0,1-.88-5,22.63,22.63,0,0,1-.08-2.73c0-.66.06-1.31.13-1.95l.06-.51a17.3,17.3,0,0,1,4.08-9.2,20.3,20.3,0,0,1,2.14-2.11c.18-.16.37-.32.57-.47a24.24,24.24,0,0,1,6.2-3.59c.42-.17.85-.33,1.28-.47a29.74,29.74,0,0,1,4.94-1.23l.71-.1c.54-.07,1.08-.13,1.63-.18a32.71,32.71,0,0,1,6,.06l.12,0a30.39,30.39,0,0,1,7.53,1.75,37.07,37.07,0,0,1,4,1.75,29.21,29.21,0,0,1,8,5.87c1,.6,2,1.23,3,1.91a24.83,24.83,0,0,0-7.48-7.62c-.66-.45-1.33-.87-2-1.27a35.81,35.81,0,0,0-7.62-3.33c-.69-.22-1.39-.41-2.1-.58a36.07,36.07,0,0,0-4.51-.8c-1-.11-2.07-.18-3.11-.2h-.8c-1,0-2.06,0-3.08.14-.51.05-1,.11-1.52.18a32.06,32.06,0,0,0-4.72,1l-.14,0c-.23.06-.46.12-.69.2l-.69.24-.15.06-1.08.41L175,36l-.29.12-.3.12-.38.18a24.36,24.36,0,0,0-8.49,6.46A21.13,21.13,0,0,0,161.27,51c-.21.79-.37,1.59-.5,2.39a27.15,27.15,0,0,0-.19,6.74c0,.2,0,.39.07.59a33,33,0,0,0,1.29,6,39,39,0,0,0,2,5c.41.87.86,1.73,1.33,2.56l.24.41c.54.94,1.13,1.86,1.74,2.75.31.46.64.92,1,1.36.52.7,1.06,1.38,1.61,2s1.38,1.55,2.1,2.29,1.36,1.35,2.06,2c.53.47,1.06.93,1.61,1.38a42.64,42.64,0,0,0,4.18,3l.42.27a47.27,47.27,0,0,0,10.14,4.79c1.37.46,2.76.87,4.17,1.21,1.18.28,2.37.51,3.56.71l1,.17c1.33.19,2.67.33,4,.42,1.13.07,2.26.11,3.39.11h.75c1.16,0,2.33-.1,3.48-.22q.72-.07,1.44-.18a32.82,32.82,0,0,0,4.4-1l.13,0c.47-.14.93-.29,1.39-.45l.15-.06L219.3,95l.37-.15.28-.12a.05.05,0,0,1,0,0l.33-.16a24.4,24.4,0,0,0,8.5-6.46,23.76,23.76,0,0,0,4.76-10.56,27.54,27.54,0,0,0,.39-7"/><path class="cls-6" d="M166.88,62c.25-1,.52-1.92.82-2.86-.29.44-.57.88-.84,1.34,0,.51,0,1,0,1.52"/><path class="cls-6" d="M174.77,44q.64-1.38,1.44-2.73a20.43,20.43,0,0,0-2.85,1.41,18.18,18.18,0,0,0-3.85,3.07c-.42,1.12-.79,2.27-1.11,3.42l-.08.29c.71-.72,1.45-1.41,2.2-2.07l.42-.37c1-.84,2-1.65,3-2.41l.84-.61"/><path class="cls-6" d="M179.61,83.49a1.4,1.4,0,0,0-.1-.16A57.32,57.32,0,0,1,176.34,78a42.4,42.4,0,0,1-3.44-8.76c-.31-1.13-.56-2.28-.77-3.43,0-.3-.1-.6-.14-.89a48.76,48.76,0,0,0-1,10.17c.35.46.71.92,1.08,1.37.76.92,1.56,1.8,2.4,2.65a39.83,39.83,0,0,0,5.18,4.34"/><path class="cls-6" d="M219.67,94.84l-.37.15-1.07.41-.15.06c-.46.16-.92.31-1.39.45l-.13,0a32.82,32.82,0,0,1-4.4,1q-.72.1-1.44.18l-.1.05a20,20,0,0,1-6.82,1.75,33.51,33.51,0,0,1-4.44,1.84l-.44.15a28.87,28.87,0,0,1-6.35,1.29,25.7,25.7,0,0,0,4.45,1.34,23.27,23.27,0,0,0,19.77-5.56A28.72,28.72,0,0,0,220,94.7l0,0-.28.12"/><path class="cls-6" d="M198.21,98.41a18.28,18.28,0,0,1-2.91-1c-.52-.21-1-.44-1.57-.71s-1-.53-1.45-.81c-.66-.39-1.31-.81-1.94-1.26a47.27,47.27,0,0,1-10.14-4.79l-.43-.27a43.74,43.74,0,0,1-4.17-3c-.55-.45-1.08-.91-1.61-1.38.63,1,1.3,2,2,3,.17.24.33.48.51.71.82,1.1,1.7,2.18,2.62,3.23l.16.08a33,33,0,0,0,3.37,1.43c.51.18,1.12.36,1.76.54,3.12.85,6.8,1.55,1.31,1l-2-.2c-.33,0-.66-.08-1-.14l-1.24-.26a40,40,0,0,0,3.15,2.81,24.2,24.2,0,0,0,3.63,1,25.26,25.26,0,0,0,3.6.41,29.64,29.64,0,0,0,6.36-.39"/><path class="cls-6" d="M176.13,35.55l.15-.06.69-.24c.23-.08.46-.14.69-.2l.14,0a32.06,32.06,0,0,1,4.72-1,17.35,17.35,0,0,1,9.57-3.77,23.1,23.1,0,0,1,3,0l.39,0a33.2,33.2,0,0,1,6.64-1.43l.16,0-.13-.05a23,23,0,0,0-20.06,1.06,24.58,24.58,0,0,0-4.3,3.19A27.91,27.91,0,0,0,175,36h0l.05,0,1.08-.41"/><path class="cls-6" d="M221.68,61.67c.3,1.13.56,2.28.76,3.43a24.65,24.65,0,0,0,.17-10.3,35.31,35.31,0,0,0-2.37-2.67,29.16,29.16,0,0,1,1.44,9.54"/><path class="cls-6" d="M224.12,83.41a31.41,31.41,0,0,1-1.92,3.39q-.39.61-.81,1.2a18.47,18.47,0,0,0,3.83-3.23l.54-.63c.19-.62.36-1.24.5-1.86l.21-.93-.25.23q-1,1-2.1,1.83"/><path class="cls-6" d="M211.72,36.07c.5.12,1,.24,1.5.38l.09,0-.07-.08a34.35,34.35,0,0,0-2.86-2.66c-.4-.33-.81-.65-1.22-1l-.21,0a21.51,21.51,0,0,0-2.78-.18,22.82,22.82,0,0,0-2.33.1,29.67,29.67,0,0,1,4.67,2.81q1.61.24,3.21.6"/><path class="cls-6" d="M219.15,44.68c-.38-.72-.77-1.43-1.19-2.13a33.07,33.07,0,0,0-3.4-1.25l-.06,0,.1.06a44.64,44.64,0,0,1,4.55,3.34"/></g></g></g></svg>