<svg id="Layer_1" data-name="Layer 1" xmlns="http://www.w3.org/2000/svg" xmlns:xlink="http://www.w3.org/1999/xlink" viewBox="0 0 300 100"><defs><style>.cls-1{fill:none;}.cls-2{clip-path:url(#clip-path);}.cls-3{fill:#5e464d;}.cls-4{clip-path:url(#clip-path-3);}.cls-5{fill:#fff;}.cls-6{fill:#3fe0c5;}</style><clipPath id="clip-path"><rect class="cls-1" x="9.38" y="13.62" width="281.25" height="72.76"/></clipPath><clipPath id="clip-path-3"><rect class="cls-1" x="9.38" y="13.62" width="73.85" height="72.76"/></clipPath></defs><g id="Artwork_5" data-name="Artwork 5"><g class="cls-2"><polygon class="cls-3" points="108.37 36.74 122.76 36.74 122.76 41.62 118.02 41.62 118.02 62.77 112.99 62.77 112.99 41.62 108.37 41.62 108.37 36.74"/><g class="cls-2"><path class="cls-3" d="M140.17,46.91h3a6.13,6.13,0,0,0,3.26-.62,2.31,2.31,0,0,0,.88-2.06,2.47,2.47,0,0,0-1.62-2.39,9,9,0,0,0-2.74-.28h-2.75Zm-5-10.17h6.65a17.79,17.79,0,0,1,6.18.76,6.34,6.34,0,0,1,3,2.56,7.86,7.86,0,0,1,1.11,4.23,7.24,7.24,0,0,1-1.23,4.29,7.47,7.47,0,0,1-3.71,2.61l6.18,11.58h-5.42l-5.85-11h-1.85v11h-5Z"/><path class="cls-3" d="M165.9,36.74h5V53.57a8.67,8.67,0,0,0,.38,3.08,3.15,3.15,0,0,0,1.26,1.44,3.91,3.91,0,0,0,2.11.54,4.17,4.17,0,0,0,2.26-.6,3.21,3.21,0,0,0,1.31-1.53,11.18,11.18,0,0,0,.36-3.55V36.74h5V52.26a23.16,23.16,0,0,1-.44,5.45,8.16,8.16,0,0,1-4.57,5,9.87,9.87,0,0,1-3.79.69,9.16,9.16,0,0,1-4.93-1.31,7.54,7.54,0,0,1-3-3.25c-.6-1.31-.9-3.51-.9-6.62Z"/><polygon class="cls-3" points="198.52 36.74 211.45 36.74 211.45 41.56 203.45 41.56 203.45 46.29 211.45 46.29 211.45 51.05 203.45 51.05 203.45 62.77 198.52 62.77 198.52 36.74"/><polygon class="cls-3" points="225.17 36.74 238.09 36.74 238.09 41.56 230.09 41.56 230.09 46.29 238.09 46.29 238.09 51.05 230.09 51.05 230.09 62.77 225.17 62.77 225.17 36.74"/><polygon class="cls-3" points="251.76 36.74 256.72 36.74 256.72 58.05 263.94 58.05 263.94 62.77 251.76 62.77 251.76 36.74"/><polygon class="cls-3" points="276.42 36.74 290.63 36.74 290.63 41.59 281.33 41.59 281.33 46.29 290.63 46.29 290.63 51.05 281.33 51.05 281.33 57.9 290.63 57.9 290.63 62.77 276.42 62.77 276.42 36.74"/></g><g class="cls-4"><path class="cls-3" d="M46.12,13.62A36.38,36.38,0,1,1,10.16,50a36.17,36.17,0,0,1,36-36.38"/><path class="cls-5" d="M34.81,82.26c1.47.5,6.42,2.11,6.63.54.11-.86-2.48-1.75-6-3.62A56.52,56.52,0,0,1,21.78,69.12a31.25,31.25,0,0,1-9.37-21.75c-.3-11,4-19.91,11.08-25.64A36.28,36.28,0,0,0,9.39,49.56a33.89,33.89,0,0,0,6.2,20.78,23.71,23.71,0,0,0,4.51,4.44,56.68,56.68,0,0,0,14.71,7.49"/><path class="cls-5" d="M82.74,41.62c-2.23-10.48-9.14-17.82-18.43-23C71.4,23.66,81.38,34.39,75.5,43.86c-5,7.58-17.11,6.1-23.74,2.5-7.86-4.28-17.74-13.9-8-23.3,6.31-6.09,26.38.73,22.83,9.83C64.51,38.18,56.5,37,52.89,34.42c-2.65-1.91-4.89-5.19-3.71-8.58.37-1.1.33-2.77-1.21-1.53a6.07,6.07,0,0,0-1.92,3.87c-1.67,11.86,19.44,21,25.72,9.57,3.25-5.95-2-14.59-8.65-18.14-5-2.67-10.18-4.55-16.54-4.09C36.41,16.25,27.87,22.61,26.82,33s5.83,19.63,14,25.18c8.54,5.86,20,9.7,30.56,6.23,9.42-3.13,13.32-13.95,11.42-22.78"/><path class="cls-6" d="M69.31,33.63c1-6.8-5.12-11.46-10.8-13.58-6.69-2.5-15.53-1.41-20.4,4.13-3.58,4.07-3.33,10-1.5,14.75A25.24,25.24,0,0,0,53,53.63c5.19,1.6,11.46,2.3,16.72.61,7.66-2.47,10.16-10.47,8.58-17.79a20.54,20.54,0,0,0-1.56-4.59c-1-2-3.93-6.15.16-1.14a18.48,18.48,0,0,1,1.18,1.75,19.51,19.51,0,0,1,2,4.42c2.23,6.84.48,14.82-5.71,19C69.57,59,63.56,59.38,58.06,58.58A30.67,30.67,0,0,1,38.91,48.22c-4.41-5.22-7.42-12.73-5.6-19.6A15.25,15.25,0,0,1,43.58,18.28a23,23,0,0,1,18.54,2.17,16.5,16.5,0,0,1,6.74,6.81,10,10,0,0,1,1,4.25,9,9,0,0,1-.14,1.79c0,.21-.49.81-.43.31"/></g></g></g></svg>