<svg xmlns="http://www.w3.org/2000/svg" viewBox="0 0 368.23 133.01"><defs><style>.cls-1,.cls-2{fill:#ea1944;}.cls-1{fill-rule:evenodd;}</style></defs><title>dish-logo</title><g id="Layer_2" data-name="Layer 2"><g id="Layer_1-2" data-name="Layer 1"><path class="cls-1" d="M199.37,64.79c0-4,5.64-6.93,14.29-6.93,9.86,0,19.12,3.5,24.88,8.42a2.25,2.25,0,0,0,3.41-.6l7-14a2.16,2.16,0,0,0-.58-2.8c-8.69-6.53-20.39-11.22-34.94-11.22-23.87,0-37.21,13.34-37.21,28.56,0,35.54,53.93,23.24,53.93,38.86,0,4.28-4.88,7.9-15.22,7.9s-22.4-4-29.45-9.65a2.25,2.25,0,0,0-3.31.59l-8,13.37a2.14,2.14,0,0,0,.45,2.77c9.62,8.09,24.15,12.87,39.19,12.87,25.18,0,39.27-12.41,39.27-29.13C253.11,68,199.37,79.06,199.37,64.79Z"/><path class="cls-1" d="M90.64,4.2h-21a1.54,1.54,0,0,0-1.53,1.53V50c-7-7.68-16.47-12.36-27.09-12.36C18.37,37.68,0,59,0,85.31s18.37,47.63,41,47.63c10.62,0,20.06-4.68,27.08-12.37v8.58a1.54,1.54,0,0,0,1.53,1.53h21a1.53,1.53,0,0,0,1.53-1.53V5.73A1.53,1.53,0,0,0,90.64,4.2ZM46.07,112.93c-12.18,0-22-12.37-22-27.64s9.87-27.63,22.05-27.63,22,12.26,22,27.43v.41C68,100.67,58.2,112.93,46.07,112.93Z"/><path class="cls-1" d="M315.1,37.67c-11.1,0-19.63,4.66-25.23,12.27V5.73a1.53,1.53,0,0,0-1.53-1.53h-21a1.53,1.53,0,0,0-1.53,1.53V129.15a1.53,1.53,0,0,0,1.53,1.53h21a1.53,1.53,0,0,0,1.53-1.53V76.37c0-12,8.55-18.61,18.86-18.61s18.42,6.35,18.42,21.92l0,49.47a1.53,1.53,0,0,0,1.53,1.53h21a1.52,1.52,0,0,0,1.53-1.53V78.21C351.23,50.21,335.15,37.67,315.1,37.67Z"/><path class="cls-2" d="M119.45,14.21a14.21,14.21,0,1,1,14.21,14.22A14.33,14.33,0,0,1,119.45,14.21Zm41.42,93.38a55.18,55.18,0,0,1-54,0c-1.57-.88-2.41.65-2.09,2,3.27,13.4,15,23.33,29,23.42H134a30.28,30.28,0,0,0,29-23.42C163.28,108.24,162.44,106.7,160.87,107.59Zm-5.68-33.85a43.54,43.54,0,0,1-42.65,0c-1.24-.69-1.9.52-1.64,1.58a23.9,23.9,0,0,0,22.9,18.49h.13a23.9,23.9,0,0,0,22.9-18.49C157.09,74.26,156.43,73.05,155.19,73.74ZM149.13,44.9a31.13,31.13,0,0,1-30.53,0c-.9-.5-1.37.38-1.18,1.13a17.1,17.1,0,0,0,16.4,13.24h.09A17.1,17.1,0,0,0,150.31,46C150.5,45.28,150,44.41,149.13,44.9Z"/><path class="cls-2" d="M361.37,125.18v.89h-1.71v4.47h-1.07v-4.47h-1.71v-.89Zm5.8,5.36-.2-3.15c0-.42,0-.93,0-1.5h-.06c-.14.47-.29,1.11-.45,1.6l-1,3h-1.1l-1-3.05c-.09-.41-.25-1-.37-1.52H363c0,.5,0,1,0,1.5l-.2,3.15h-1l.39-5.36h1.59l.93,2.62c.12.41.22.81.36,1.36h0c.14-.49.26-.94.38-1.34l.92-2.64h1.54l.41,5.36Z"/></g></g></svg>