<svg id="Layer_1" data-name="Layer 1" xmlns="http://www.w3.org/2000/svg" viewBox="0 0 1860 1160"><defs><style>.cls-1{fill:#848484;}</style></defs><title>art04-airbus</title><g id="AirBus"><path class="cls-1" d="M863.7,530.22c0-57.35-37.63-100.94-115.16-100.94h-156V730.72h73.4V494.42h83c30.74,0,41.74,17.44,41.74,37.63,0,20.65-11.47,37.62-42.19,37.62H677.42L778.36,730.72h83.5S793,622.43,793.5,622.43c42.66-10.08,70.2-39.91,70.2-92.21"/><rect class="cls-1" x="469.58" y="429.28" width="73.42" height="301.43"/><polygon class="cls-1" points="235.14 429.28 81.44 730.72 164.02 730.72 188.92 680.24 312.67 680.24 281.93 616.93 220.16 616.93 265.87 524.25 266.79 524.25 369.56 730.72 453.98 730.72 300.28 429.28 235.14 429.28"/><path class="cls-1" d="M1131.64,574.26c23.41-12.84,35.8-33.49,35.8-63.77,0-48.64-36.25-81.21-97.27-81.21H898.56V730.72h178.49c62.39,0,103.22-33.5,103.22-84.43,0-35.32-19.72-61.93-48.63-72M972,493.05h98.19c14.68,0,26.15,11.47,26.15,26.61s-11.47,26.62-26.61,26.62H972Zm100,174.34H972V605.91h100c17.9,0,31.66,12.85,31.66,30.29,0,17.89-13.76,31.19-31.66,31.19"/><path class="cls-1" d="M1412,597.66c0,45.76-21.11,71.11-62.85,71.11-41.29,0-62.39-25.35-62.39-71.11V429.28h-75.25V592.16c0,93.14,49.09,145,137.64,145s138.09-51.84,138.09-145V429.28H1412Z"/><path class="cls-1" d="M1683.12,549c-69.69-17-84.88-18.59-84.88-38.54,0-15.44,17.44-22.94,46.81-22.94,39,0,80.52,9.78,104.14,24.31l23.4-61.48c-30.27-16.05-74.78-27.52-126.62-27.52-77.55,0-121.13,38.54-121.13,90.38,0,55.78,32.55,78.45,107.36,94.52,58.24,12.83,70.66,20.84,70.66,37.16,0,17.72-16.07,25.69-47.72,25.69-45.88,0-87.41-11.14-120.66-29.36L1512,705.48c36.24,19.27,90.39,31.66,145,31.66,76.17,0,121.59-35.34,121.59-94.52,0-47.48-30.73-78-95.44-93.59"/></g></svg>