<svg id="Layer_1" data-name="Layer 1" xmlns="http://www.w3.org/2000/svg" xmlns:xlink="http://www.w3.org/1999/xlink" viewBox="0 0 1860 1160"><defs><style>.cls-1{fill:none;}.cls-2{clip-path:url(#clip-path);}.cls-3{clip-path:url(#clip-path-2);}.cls-4{fill:#848484;}</style><clipPath id="clip-path"><rect class="cls-1" x="368.25" y="192.42" width="994.07" height="796.99"/></clipPath><clipPath id="clip-path-2"><rect class="cls-1" x="368.25" y="192.42" width="994.08" height="796.99"/></clipPath></defs><g id="Artwork_55" data-name="Artwork 55"><g class="cls-2"><g class="cls-3"><path class="cls-4" d="M1270.87,805.83q0-27.39,0-54.79c0-.91,0-1.81,0-2.72s.49-1.4,1.45-1.35c.68,0,1.37,0,2,0h83.38c4,0,3.68-.5,3.69,3.58q0,10,0,20.08c0,4,.33,3.54-3.73,3.54h-50.37a15.42,15.42,0,0,1-2,0c-1.84-.26-2.3.58-2.26,2.3.11,4,0,7.94,0,11.91,0,2.31.06,2.35,2.51,2.36q21.78,0,43.56,0c4.15,0,3.83-.54,3.83,3.82q0,9.69,0,19.39c0,2.78,0,2.82-2.78,2.82h-42.89c-.79,0-1.59.06-2.38,0-1.55-.15-1.89.62-1.87,2,0,5.45.09,10.89,0,16.33,0,1.95.85,2.2,2.45,2.19,9.08,0,18.15,0,27.23,0h26.55c3,0,3,0,3,2.87q0,11.24,0,22.46c0,2.58,0,2.63-2.62,2.63h-86.11c-2.67,0-2.71,0-2.71-2.92q0-28.25,0-56.49"/><path class="cls-4" d="M1146.53,788.74q0,17.35,0,34.71a52.6,52.6,0,0,1-2,14.76c-3.59,12.46-11.57,20.95-23.72,25.14a72.26,72.26,0,0,1-48.32,0c-14.7-5.1-22.51-16.06-24.79-31.23a68.41,68.41,0,0,1-.61-10.51q0-35.21,0-70.43c0-.79.05-1.59,0-2.38-.1-1.27.35-1.82,1.71-1.81q14.48.06,28.93,0c1.23,0,1.57.55,1.51,1.65,0,.79,0,1.58,0,2.38q0,35.73,0,71.45a35.4,35.4,0,0,0,.53,6.43c1,5.22,3.9,8.88,9,10.55a25,25,0,0,0,14.09.5c7.14-1.77,11-6.92,11.52-14.93.07-1.13,0-2.27,0-3.41V751.14c0-.79,0-1.59,0-2.38-.08-1.24.28-1.82,1.7-1.82,9.53,0,19.05.08,28.58,0,2.28,0,1.86,1.39,1.86,2.69v39.12"/><path class="cls-4" d="M794.13,747.34c-.56,1-1.09,1.91-1.67,2.84C782,766.89,771.55,783.61,761,800.26c-1.29,2-1.25,3.41,0,5.42q17.67,27.83,35.14,55.79c.65,1,1.54,2,1.71,3.24-.58.9-1.46.51-2.18.51-10.89,0-21.78,0-32.67.07a3.86,3.86,0,0,1-4-2.33c-5.66-10.46-11.45-20.85-17.21-31.26-.53-1-1.14-1.9-1.82-3a10.25,10.25,0,0,0-2.13,3.13c-5.89,10.2-11.81,20.39-17.57,30.66a4.66,4.66,0,0,1-4.74,2.81c-11-.13-22-.06-33-.06-.48-1.31.49-2,1-2.8q17.77-28.17,35.64-56.29c1.33-2.07,1.48-3.46.06-5.65-11-17-21.89-34.15-32.8-51.26-.35-.55-.89-1-.9-1.79.4-.84,1.18-.46,1.77-.46,10.78,0,21.56,0,32.34-.08a3.65,3.65,0,0,1,3.67,2.23c4.83,8.45,9.75,16.86,14.64,25.28.73,1.25,1.51,2.47,2.27,3.71a7.36,7.36,0,0,0,2.05-2.82q7.71-13,15.38-26c.75-1.27,1.34-2.38,3.27-2.36,10.78.12,21.55.06,32.33.08.19,0,.38.15.82.35"/><path class="cls-4" d="M1208.25,747h46.28c3.32,0,3.2-.43,3.2,3,0,7.49,0,15,0,22.46,0,2.37-.06,2.41-2.44,2.42-9.19,0-18.37,0-27.56,0-3.89,0-3.51-.35-3.51,3.41q0,41.18,0,82.34c0,.68,0,1.36,0,2-.06,2.54-.06,2.58-2.68,2.59q-13.27,0-26.54,0c-2.88,0-2.91,0-2.91-3q0-41.69,0-83.36c0-4.57.65-4-3.92-4-9,0-17.93,0-26.89,0-2.41,0-2.45-.05-2.46-2.39q0-11.57,0-23.13c0-2.31,0-2.35,2.48-2.36h47"/><path class="cls-4" d="M481.93,806.19V751.08c0-.79.06-1.59,0-2.38-.11-1.34.47-1.86,1.77-1.74.56,0,1.13,0,1.7,0,8.39,0,16.79,0,25.18,0,3.86,0,3.49-.51,3.49,3.38q0,33.69,0,67.36c0,5.22,0,10.44,0,15.65,0,4.1-.59,3.92,3.75,3.92h25.86c6.35,0,12.7,0,19.05,0,2.74,0,2.77,0,2.78,2.84,0,7.48,0,15,0,22.45,0,2.6,0,2.65-2.62,2.66H484.62c-2.65,0-2.68,0-2.68-2.91q0-28.07,0-56.14"/><path class="cls-4" d="M1042.31,467.8c1.85-6.17,4.22-12.18,5.83-18.43a183.11,183.11,0,0,0,5.22-30.41c1-11.44.35-22.88.56-34.32,0-1.36.08-2.73,0-4.08-.12-1.73.52-2.49,2.31-2.44q4.42.12,8.84,0c1.74-.05,2.41.61,2.37,2.38-.28,11.9.3,23.79-.45,35.69a188.27,188.27,0,0,1-5.58,35.5,182.33,182.33,0,0,1-16.43,41.6,10.35,10.35,0,0,1-2,3.13c-1.27-1.27-1-2.92-1-4.45-.06-6-.14-11.89,0-17.84a9.73,9.73,0,0,0-.45-4.31,2.57,2.57,0,0,1,.79-2Z"/><path class="cls-4" d="M995.22,441.84c.95-3.83,2-7.64,2.84-11.49A118.6,118.6,0,0,0,995.94,371c-.31-1.08-.55-2.18-.82-3.28.52-.14.8-.25.77-1q-.54-11.85-.08-23.72c0-1.2-.2-2.53,1-3.42,4.38,6.67,7.39,14,10,21.48a130.06,130.06,0,0,1,7.41,48.08,132,132,0,0,1-16.9,60.6,5.06,5.06,0,0,1-.65.75c-1.58-3.05-1-6.39-1-9.58,0-5-.36-10.07.13-15.1a6.26,6.26,0,0,0-.56-4"/><path class="cls-4" d="M1064,484.78c1.69-4.44,3.44-8.86,5-13.34a192.82,192.82,0,0,0,10.16-43.9,196.7,196.7,0,0,0,1.29-20c0-2.4.08-2.44,2.48-2.47,3-.05,5.9,0,8.84,0,1.61,0,2.16.55,2.18,2.18.06,5.22-.36,10.43-.79,15.61A210.65,210.65,0,0,1,1068,506.46a18.07,18.07,0,0,1-1.16,1.64c-.66-.33-1.21-1-1.11-1.58,1-5.82-2-11.53-.4-17.34.5-1.76-1-2.9-1.37-4.4"/><path class="cls-4" d="M725,281.26c-3.73,5.39-7.74,10.59-11.28,16.13a196.63,196.63,0,0,0-29,75.9c-.39,2.46-.84,4.91-1.27,7.36-1.45-.1-1.53-1.28-1.52-2.24.18-16.07-.86-32.16.58-48.22a2.38,2.38,0,0,1,.27-.62,150.54,150.54,0,0,1,9.51-21.7,209.27,209.27,0,0,1,25.82-39c.79-.95,1.68-1.81,2.52-2.72.89-.33,1.06-1.3,1.67-1.88l.06-.07c.19-.23.38-.45.59-.67l0,0c1.8,1.3,3.64,2.57,1.75,5.15a2.11,2.11,0,0,0-.33,2.25c1,1.83.56,3.71.44,5.59a2.68,2.68,0,0,1-.28.84c-1,1.42,1.1,2.5.46,3.89"/><path class="cls-4" d="M992,989.4A26.06,26.06,0,0,1,975,984a18.18,18.18,0,0,1-5.13-6.26c-1-1.88-.67-3.32.71-4.19a3.48,3.48,0,0,1,4.6.7,4,4,0,0,1,.55.85c4.24,8.08,17,10,24.51,6.54a10.74,10.74,0,0,0,6.69-9.5,11.65,11.65,0,0,0-5.73-11.2,21.45,21.45,0,0,0-9.29-3,30.41,30.41,0,0,1-13.64-4.79A15.5,15.5,0,0,1,980,926.31c7.38-3.67,20-4.41,27.94,3.44a18.92,18.92,0,0,1,3.53,4.55,3.12,3.12,0,0,1-.71,4,3.28,3.28,0,0,1-4.34-.41,14,14,0,0,1-1.2-1.63c-5.08-6.58-15.61-8.47-22.74-4.09a9.58,9.58,0,0,0-.73,16c3.08,2.3,6.73,3.15,10.45,3.72a43.6,43.6,0,0,1,9.24,2.18c8.85,3.47,12.37,9.59,12,17.73-.37,8.62-5.64,14.65-14.23,16.84a27.51,27.51,0,0,1-7.24.72"/><path class="cls-4" d="M707.36,956.58V930.06a16.43,16.43,0,0,1,.07-2.72,3.12,3.12,0,0,1,3.3-2.77,3,3,0,0,1,3.24,2.82,19,19,0,0,1,0,2.72q0,24.15,0,48.29c0,.79.05,1.59,0,2.38-.12,1.32.44,1.79,1.76,1.74,2-.08,4.08,0,6.12,0h22.44a11.09,11.09,0,0,1,2.71.13,2.86,2.86,0,0,1,2.16,3.08,2.81,2.81,0,0,1-2.11,2.78,8.41,8.41,0,0,1-2.36.14H712.09c-3.85,0-4.72-.89-4.72-4.85q0-13.6,0-27.21"/><path class="cls-4" d="M917,614.17c-4.38,1.22-8.91,1.54-13.4,2a290.68,290.68,0,0,1-31.92,1.25q-96.78,0-193.54,0c-1.14,0-2.48.68-3.45-.55a3.42,3.42,0,0,1,2.37-.82,8.85,8.85,0,0,1,1,0c.85,0,1.71,0,2.56,0,.36,0,.71,0,1.06,0,.92,0,1.83,0,2.75,0l1.17-.07c6.93,0,13.85-.07,20.77,0,.39,0,.78.06,1.17.07.94,0,1.89,0,2.84,0h1.12c1,0,1.89,0,2.84,0l1.19-.07c6.93,0,13.87-.07,20.8,0,.38,0,.77.06,1.16.07.93,0,1.87,0,2.81,0h1.1c.91,0,1.82,0,2.73,0l1.11,0c2.63,0,5.25,0,7.87,0l1.68,0c.74,0,1.49,0,2.23,0l1.68,0c2.63-.06,5.26,0,7.89,0l1.12,0c.93,0,1.86,0,2.8,0l1.15,0c1-.09,2,0,3-.06,6.82-.1,13.64-.15,20.46,0,10.33-.17,20.66-.11,31-.06.4,0,.8.08,1.2.09,1,0,1.93,0,2.89,0,.38,0,.75,0,1.13,0,.93,0,1.87,0,2.81,0l1.16-.06c3.76,0,7.52-.08,11.27,0h1.7c.57,0,1.14,0,1.7,0,1.95-.25,4.6,1,5.67-1,1.18-2.28.54-5.12.27-7.7-.14-1.3-1.28-1.44-2.33-1.5-1.59-.08-3.18,0-4.77,0-.53,0-1.05,0-1.58-.07a20.9,20.9,0,0,1-2.09-.11,3.33,3.33,0,0,1-1.47-.46l-.34-.39.15-.49c6.55-.05,13.11-.11,19.66-.13,7.81,0,15.62.06,23.42-.06a178.49,178.49,0,0,0,26.31-2.43c1.11-.18,2.25-.21,3.37-.31a1.06,1.06,0,0,1,1.29.82c.67,4.08,1.41,8.19-.53,12.17"/><path class="cls-4" d="M703.19,457.6c-2.3-6.17-3.5-12.61-4.74-19a185.6,185.6,0,0,1-2.65-46.29A180.61,180.61,0,0,1,702.72,353a4.46,4.46,0,0,1,.47-.89c1.07-.05,1.28.75,1.47,1.53a14.7,14.7,0,0,1,.18,3.38q0,47.86,0,95.71c0,1.69,1,4-1.61,4.92"/><path class="cls-4" d="M748.15,514.81c1.6,1.75,3.22,3.48,4.81,5.24a171.78,171.78,0,0,0,29.45,26.13,11.84,11.84,0,0,1,1.23,1.13c1.51,5.15,1.88,10.29-.18,15.39a111.67,111.67,0,0,1-14.6-9.88,151.34,151.34,0,0,1-21.65-19.53c-.27-4.91-.12-9.82-.11-14.73,0-1.32-.05-2.71,1-3.75"/><path class="cls-4" d="M783.63,262.39c-4.71,3.7-9.53,7.28-14.12,11.12a164.56,164.56,0,0,0-19.26,19.18c-.66.76-1.4,1.46-2.1,2.18-1.1-1-1-2.43-1-3.76,0-4.91-.17-9.83.12-14.75a162.09,162.09,0,0,1,25.88-22.64,60.54,60.54,0,0,1,9-5.88c1.35-.61,2,.27,2.14,1.31.38,4.43,1.23,8.91-.64,13.24"/><path class="cls-4" d="M1028.07,343.09c2.14,3.63,3.3,7.66,4.64,11.61a161.41,161.41,0,0,1,8.11,45.63c0,.57,0,1.14,0,1.7,0,3,0,3-3,3-2.83,0-5.66,0-8.5,0-1.16,0-2-.23-2-1.65.22-4.88-.72-9.71-.68-14.58.32-13.42.18-26.84.24-40.26,0-1.87-.42-3.89,1.13-5.46"/><path class="cls-4" d="M919.49,263.64c-5-.86-9.9-2.22-14.94-3a157.94,157.94,0,0,0-20.25-1.86c-2.8-.06-2.82-.09-2.84-2.72s0-5.43,0-8.15c0-2.35.07-2.39,2.5-2.38a141,141,0,0,1,23.3,2c4.67.81,9.37,1.49,13.86,3.1,1.92,3.84,1.14,7.85.65,11.81-.14,1.14-1,1.69-2.28,1.17"/><path class="cls-4" d="M838,448.72c-3.51,1.13-7.11.34-10.66.4-1.09,0-.92-1.09-.92-1.84q0-9.84.09-19.66c.63-3.94.29-7.9.22-11.84,0-2.34.79-2.85,2.93-2.81,6.79.1,13.59,0,20.37,0,.87,0,1.35.46,1,1.24a12.51,12.51,0,0,0,.06,8.28,1,1,0,0,1-1,1.36c-2.94,0-5.87.14-8.79,0-2.34-.15-3.12.59-3.06,3,.15,6.64.05,13.29,0,19.94a2.8,2.8,0,0,1-.34,1.94"/><path class="cls-4" d="M838,373.16c-3.41,1.08-6.9.24-10.34.47-.84.05-1.2-.48-1.23-1.26,0-.46,0-.91,0-1.36q0-15.12,0-30.24a13.58,13.58,0,0,1,.2-1.67c7.81-.7,15.64-.1,23.46-.31.88,0,1.27.52,1,1.28a11.56,11.56,0,0,0,0,7.91c.25.73.29,1.63-.93,1.69-2.93,0-5.87.13-8.79,0-2.33-.15-3.13.58-3.06,3,.16,6.19.05,12.39,0,18.59a2.84,2.84,0,0,1-.34,2"/><path class="cls-4" d="M1022.59,367.05c-2.05-6.24-4-12.5-6.53-18.58-3-7.23-6.87-14-10.63-20.87-.53-5.73-.24-11.48-.26-17.22,0-1.44-.13-3,1.14-4.08,4.84,5.25,8.55,11.3,12.21,17.38a64.18,64.18,0,0,1,5.5,10.44c1.58,5,.9,10.1,1,15.17.09,4.86,0,9.73,0,14.59a7.19,7.19,0,0,1-.55,3.65c-1.12,2-1.4.27-1.87-.48"/><path class="cls-4" d="M925.74,571.88c4.48-1.47,9-2.93,13.45-4.42,6.43-2.13,12.5-5.12,18.72-7.76,3.55-.74,3.69-.65,3.33,2.71a14.85,14.85,0,0,0,.86,6,2.17,2.17,0,0,1,0,.88c-.42,1-.36,2.24-.89,3.26a147.56,147.56,0,0,1-25.83,10.23,38,38,0,0,1-8.2,2.08c-.78-2.5-.17-5.06-.26-7.59a10.37,10.37,0,0,0-1.23-5.42"/><path class="cls-4" d="M1062.08,192.68c6.11-.06,12.21-.13,18.31-.16q8.33,0,16.63,0c2.39,0,2.43.08,2.46,2.51,0,2.94,0,5.88,0,8.82,0,.63.22,1.4-.68,1.69a.46.46,0,0,0-.63,0h-.74a58.34,58.34,0,0,0-12.18,0h-.76a11.6,11.6,0,0,0-5.37,0,18.67,18.67,0,0,1-4.84,0,3,3,0,0,0-2.66,0,7.28,7.28,0,0,1-2.79,0c-1.93-.62-3.94,0-5.89-.32-1.38-.75-1.62-2.08-1.65-3.43a46.25,46.25,0,0,1,.79-9.17"/><path class="cls-4" d="M755,616.76h-1.41c-1.69-2.34-.91-5-.94-7.57s-1-3.59-3.63-3.57-3.23,1.25-3.29,3.57c-.07,2.53.74,5.22-1,7.57H744c-1.94-3-.33-6.45-1.29-10-1.19,3.46.63,7-1.39,10h-.73c-1.94-3-.32-6.45-1.28-10-1.2,3.46.62,7-1.4,10h-.74c-1.66-2.21-.85-4.78-1-7.2-.2-3.52-.38-3.8-4-3.84-4.29-.05-8.57.06-12.85,0-2.59-.06-3.62.93-3.65,3.55s.75,5.21-1,7.54h-.75c-1.92-3-.31-6.45-1.27-10-1.19,3.46.62,7-1.38,10h-.75c-1.92-3-.31-6.45-1.28-10-1.18,3.46.62,7-1.38,10h-.75c-1.7-2.33-.88-5-1-7.54-.07-2.31-.73-3.59-3.3-3.54q-6.93.12-13.87,0c-2.57,0-3.23,1.23-3.3,3.54-.08,2.52.73,5.21-1,7.54h-.75c-1.92-3-.31-6.45-1.27-10-1.19,3.46.62,7-1.38,10h-.75c-1.92-3-.31-6.45-1.28-10-1.18,3.46.62,7-1.38,10h-.75c-1.59-2.12-.78-4.57-.93-6.87-.12-1.92,0-3.87-1.7-5.24.76-1.34,2-.64,3-.64q29.39-.07,58.76,0,21.73,0,43.47,0c1.25,0,2.49.08,3.73.12,3.92.47,7.85.09,11.76.21a2.37,2.37,0,0,1,1,.15c-1.21,2.4,1.76,5.06-.46,7.41,0,0,.25.35.42.51a1.44,1.44,0,0,1,.39.8c0,1.43,0,2.87-1.61,3.58l-21.12,0c-2-3-.32-6.45-1.29-10-1.19,3.44.63,7-1.39,10h-.73c-1.94-3-.32-6.45-1.28-10-1.2,3.45.62,7-1.39,10h-.73c-1.69-2.35-.91-5-.94-7.57s-1-3.58-3.64-3.56-3.22,1.27-3.28,3.57c-.08,2.54.74,5.23-1,7.57H757c-1.83-2.89-.47-6.13-1-8.88-.5,2.75.83,6-1,8.88"/><path class="cls-4" d="M798.58,223.47a32.11,32.11,0,0,1-6.85,3.32c-.86-.73-1.29-2.28-.34-2.34,2.06-.11,1.09-1.81,1.83-2.48a4.61,4.61,0,0,1,2.27,1,.71.71,0,0,0,.47.41,1.06,1.06,0,0,1-.46-.43c-.42-.71-1.33-.49-1.86-1-1.13-1.4-.69-3.12-.95-4.7,0-.29.53-.35.37-.59s-.54.14-.82-.06c-1-.8-1.11-1.63-.07-2.48a2.19,2.19,0,0,0,.89-2.37c6.35-3.44,13.14-5.79,19.93-8.14a69.13,69.13,0,0,1,12-3.49,1.33,1.33,0,0,1,1.55,1.37c.39,4,1.12,7.95-.61,11.81l0,0c-.47.2-1,.14-1.46.52-8.74,2.85-17.28,6.22-25.81,9.64-.62-.62-.18-1.67-.86-2.21,0,0,0,.08.06.11.55.63.18,1.55.78,2.12"/><path class="cls-4" d="M768.57,335a104.79,104.79,0,0,1,18.95-23.9c1.27-.09,1.61.92,1.63,1.75.12,5.59,1.2,11.24-.81,16.72-4.54,6.3-9.06,12.59-12.69,19.49-2.3,4.38-4,9-6.28,13.42-1.06-.79-1.06-2-1-3.08.07-8.14-.32-16.27.25-24.4"/><path class="cls-4" d="M977,594.45c-6.24,3.67-13,6.28-19.66,8.9a59.37,59.37,0,0,1-10.23,3.42c-1.57-1.8-1.18-4-1.13-6.08a28.86,28.86,0,0,0-.45-7l12.47-5c6.26-2.52,12.21-5.69,18.3-8.56a.84.84,0,0,1,1.14.83c.21,4.51,1.15,9-.44,13.5"/><path class="cls-4" d="M725,281.26c-1.33-.54-.72-2.41-2.07-3.06-.19-.09.88-.68,1.38-1a.7.7,0,0,1,.34.34,2,2,0,0,1,.06-.23l-.23.06-.17-.17c.07-1-1.11-2.09,0-3.14.37-.34.21-.75,0-1.21-1.32-3.45-1.3-3.45.91-6.41-2.39.23-1.44-2-2.33-2.87,5.9-7.28,12.81-13.56,19.83-19.72a15.44,15.44,0,0,1,3.43-2.69,1.07,1.07,0,0,1,1.18,1c.44,5.32,1.41,10.66-.64,15.88A313,313,0,0,0,725,281.26"/><path class="cls-4" d="M1036.83,549.4a116,116,0,0,1-13,13.09c-3,2.7-5.86,5.56-9.32,7.7-1.19-1-1-2.44-1-3.76a78.41,78.41,0,0,0,0-9.45c-.18-1.69.64-3,1.51-4.37q11.07-10.64,21.11-22.23c1.31-.13,1.53.91,1.56,1.73.24,5.27.1,10.54-.08,15.8a2.64,2.64,0,0,1-.74,1.49"/><path class="cls-4" d="M974.21,192.66h.69a2.25,2.25,0,0,1,1.55,3.13,3.43,3.43,0,0,0,1.14,3.89c1.39,1.07,1.35,1.83-.19,2.32-1.09.34-.33,1-.55,1.38-.49.79-.33,2.43-2.05,2-11,0-22,.07-33-.05-2.26-4.16-1.54-8.38-.27-12.61,4.72-.43,9.44-.17,14.15-.17,6,0,11.91-.24,17.86.16.23.43.45.43.67,0"/><path class="cls-4" d="M876.85,205.59c-8.2.35-16.35,1.18-24.51,2-.67-3.24-.29-6.52-.17-9.77a3.64,3.64,0,0,0-1.27-3.14c4.16-1.19,8.48-1.26,12.74-1.64a112.19,112.19,0,0,1,18-.42c2.08.06,3.23,1.82,4.87,2.69.5.27.95,1.12.5,1.38-3.29,1.91-1.51,4.77-1.5,7.3a1.15,1.15,0,0,1-.84,1.28c-1.2,0-2.39,0-3.59,0-1.39.13-2.82-.28-4.19.26"/><path class="cls-4" d="M788.34,329.61c0-5.13,0-10.26,0-15.39,0-1.07.33-2.27-.79-3.08a103,103,0,0,1,23-18.45,1.27,1.27,0,0,1,1.61,1.31c.16,4.6,1.15,9.25-.69,13.74-6.25,5.06-12.47,10.14-17.87,16.14-1.73,1.93-3.5,3.82-5.25,5.73"/><path class="cls-4" d="M1034.24,510.31c-3.75,6.22-8.42,11.74-13.16,17.19-1.47,1.7-2.77,3.58-4.67,4.88a2.42,2.42,0,0,1-1-2.08c.21-5.64-.25-11.28.26-16.91,5.17-7.06,10.42-14.06,14.77-21.68.94-1.65,2-3.25,3-4.87,1.22,0,1.56,1,1.57,1.8.07,7.23,1.22,14.51-.75,21.67"/><path class="cls-4" d="M783.46,562.7l.18-15.39c5.38,3.11,10.49,6.69,16,9.55l10.51,5.46c1.84,4.12,1,8.39.61,12.61a1.2,1.2,0,0,1-1.4,1.16c-6.93-2.39-13.3-5.93-19.67-9.48a35.06,35.06,0,0,1-6.26-3.91"/><path class="cls-4" d="M996,551a129.79,129.79,0,0,1-24.54,16.29,78.72,78.72,0,0,1,0-15c5.2-3.76,10.72-7.08,15.73-11.13,2.72-2.19,5.45-4.36,8.18-6.54,1.43-.85,1.62.18,1.82,1.2a4.87,4.87,0,0,1-.15.93c0,2,.42,4-.1,6a2.79,2.79,0,0,0,.34.72,5.28,5.28,0,0,1,.94,1.35,1.84,1.84,0,0,1-.12.87c-.22,2-.22,4-2.09,5.38"/><path class="cls-4" d="M746.76,258c0-4.65,0-9.29,0-13.94,0-1,.29-2.06-.55-2.9a147.37,147.37,0,0,1,23.79-17,1.21,1.21,0,0,1,1.32,1.22c.36,4.63,1.18,9.29-.67,13.81-4.69,3.53-9.42,7-14,10.62-3.38,2.64-6.59,5.48-9.87,8.24"/><path class="cls-4" d="M800.49,237.62a123.11,123.11,0,0,1,25.86-10.22,1.43,1.43,0,0,1,2.17,1.28c.43,4,1.2,8-.66,11.81-4.28,1.67-8.61,3.23-12.83,5-4.85,2.08-9.61,4.38-14.41,6.59-.79-4.83-.42-9.66-.13-14.49"/><path class="cls-4" d="M927.85,397.58c1.65-3.31,3.37-6.59,4.12-10.27a32.35,32.35,0,0,0-2.61-21.65,7,7,0,0,1,1.52-3.06.4.4,0,0,1,.58-.13c-.38-.43-.62.29-1,.12-1.78-1.77.07-3.93-.62-5.9-.34-1,0-2.29-.62-3.2-1.45-2.11-.18-3,1.49-3.73a18.66,18.66,0,0,1,6,5.73c-.41,1.32,1.08,1.23,1.47,2l0,0c.39.94.71,1.87-.56,2.42-.39,0-.73,0-.87-.47a.46.46,0,0,0,.4.48c1.52,1.59,2,5.91,1,8.19-.31.1-.59-.39-.77-.2s.4.26.36.57c1.81,4.28.38,8.58.15,12.86,0,.3-.52.45-.38.73s.46-.25.72,0,.73.52.65.72c-1.31,3.33.38,6.78-.44,10.1a1.21,1.21,0,0,1-.53.93.46.46,0,0,1-.5.32l.22.22a.43.43,0,0,1,.32-.53.78.78,0,0,1,1-.08c.25.23.6.66.45.82-1.61,1.8-.79,3.88-.73,5.87a27.75,27.75,0,0,1-9.33,9.72c-2.66-2.41-1.41-5.6-1.69-8.49-.13-1.34.12-2.67.09-4"/><path class="cls-4" d="M809.39,576.09c1.05-.85.69-2,.71-3.11.06-3.55.06-7.11.08-10.66,5.24,2,10.46,4,15.73,5.95,3.58,1.29,7.23,2.38,10.85,3.55,1.77,3.83,1,7.82.65,11.76-.07.76-.48,1.52-1.53,1.39-6.69-1.18-13-3.56-19.38-5.85a33,33,0,0,1-7.11-3"/><path class="cls-4" d="M850.9,194.72c1.23.44,2.39.71,2.17,2.62a55.39,55.39,0,0,0-.05,7.06,5.59,5.59,0,0,1-.68,3.23c-8.89,1.54-17.68,3.59-26.45,5.68,0-3.36-.06-6.73-.13-10.09,0-1.08.31-2.28-.81-3.09a128.34,128.34,0,0,1,25.95-5.41"/><path class="cls-4" d="M998.05,544.74a2.34,2.34,0,0,1-1.36-1.36l.55-.55a2.15,2.15,0,0,0,.4-.45l.28,0-.3.06c-.14.17-.29.32-.44.48l-.49.49-.86-.36a6.54,6.54,0,0,0,0-6.08l.85-.37.24.15.15.22s.15-.23.14-.24a1.45,1.45,0,0,0-.3,0l-.23-.18c0-1,.06-1.94-1.29-2a2.61,2.61,0,0,1,1.72-1.47l.06,0c4.94-5.26,10.31-10.08,14.93-15.64a21.38,21.38,0,0,1,3.59-4c1.11.59.43,1.64.49,2.42a69,69,0,0,1,0,12.28c-.15,1.48.3,2.85.23,4.29-4.37,5.33-9.61,9.77-14.79,14.25A27.63,27.63,0,0,1,996,551c0-.56,0-1.19.5-1.52.88-.58,1.17-1,.28-1.94-1.37-1.53.71-1.87,1.23-2.76"/><path class="cls-4" d="M1036.83,549.4c0-5.29,0-10.58,0-15.87,0-1.09.35-2.31-.76-3.15,3.84-5.4,8-10.52,11.61-16.11,1.63-2.55,3.3-5.08,5-7.62a1.49,1.49,0,0,1,1.38,1.64c.12,7,1.21,14.12-.72,21.09a132.93,132.93,0,0,1-16.48,20"/><path class="cls-4" d="M979.74,279.75a107.77,107.77,0,0,1,19.07,17.7c1.88,5.87,1,11.85.68,17.8A1.35,1.35,0,0,1,998,316.7c-2.18-2.56-4.37-5.1-6.53-7.68-3.83-4.56-8.25-8.56-12.37-12.83-.89-4.78-.4-9.59-.3-14.39a2.51,2.51,0,0,1,1-2.05"/><path class="cls-4" d="M827.87,240.49,827.81,230c0-1.14.13-2.35-1.46-2.58a118.33,118.33,0,0,1,26.6-6.11,1.66,1.66,0,0,1,2,1.4c.53,3.85,1.32,7.75-.59,11.49-8.94,1.65-17.74,3.9-26.49,6.31"/><path class="cls-4" d="M1053.31,529.38c0-6.39,0-12.78-.12-19.18,0-1.19.41-2.48-.54-3.55,4-7.15,7.7-14.51,11.35-21.87,1.72.59,1.93,2.34,2.69,3.63a1.23,1.23,0,0,1-.59,1.73l-.6.29c1.87,1.89-1,4.19-.09,5.32,2.64,3.25.88,6.48.86,9.73a10.81,10.81,0,0,0,.61,2.62c-2.51,5.57-6,10.53-9.37,15.6a31.48,31.48,0,0,1-4.2,5.68"/><path class="cls-4" d="M770.66,239.11c0-3.94,0-7.88-.06-11.82,0-1.09.36-2.28-.6-3.21a129,129,0,0,1,21.61-11.66c.44-.31,1.09-.14,1.44-.65h0c1.36,1.05,1.31,1.83-.21,3.09-.81.68-.81.68.24,1.72.69.94-.34,2.55,1.31,3.18.51.19.34.65-.33.73-1.67.17-.25,1-.3,1.54h0c-.77.54-.53,1.08,0,1.63.26.28,1,.38.71.88a1.48,1.48,0,0,1-1.41.68c-1.56-.07-1.56-.08-1.34,1.58l-21.07,12.32"/><path class="cls-4" d="M920.24,518.05c4.47-2.1,9.21-3.57,13.57-5.91,3.17-1.7,6.37-3.33,9.56-5a1.17,1.17,0,0,1,1.47,1c.33,4.5,1.21,9-.58,13.45a93.11,93.11,0,0,1-24.51,10.21c.72-4.57.07-9.19.49-13.77"/><path class="cls-4" d="M759.69,352a63.06,63.06,0,0,1,6.82-13.55c1.59.17,1.61,1.47,1.59,2.52-.2,9.21.88,18.46-.81,27.63-1.12,4.93-2.63,9.76-3.52,14.75-1.09,6.11-1.56,12.27-2.06,18.44-.79.82.46,3-1.45,2.82-1.65-.16-1.56-2-1.58-3.31-.15-10.38-.12-20.77,0-31.15.05-6.06-.7-12.18,1.05-18.15"/><path class="cls-4" d="M945.61,432.43a28.26,28.26,0,0,1,7.92,16.83c1.43,10.77-.36,20.94-6.88,29.94a7,7,0,0,1-1,.92,2.56,2.56,0,0,1-1.74-2.64c-.31-4.7-.46-9.4-.39-14.12.09-6.65-.13-13.32.26-19.94.21-3.65-.59-7.63,1.79-11"/><path class="cls-4" d="M919.49,263.64c1.53-.18,1.63-1.26,1.62-2.47,0-3.5,0-7,0-10.51A99.28,99.28,0,0,1,943,258a4.06,4.06,0,0,1,1.88,4.66c-.46,2,.09,4,.19,6.06.08,1.37.8,3.27-1.56,3.71-6.38-2.49-12.64-5.28-19.22-7.24-1.6-.48-3.3-.67-4.76-1.58"/><path class="cls-4" d="M919.11,277.66a91.42,91.42,0,0,1,22.46,9c.46.34,1,.71,1.11,1.25.72,4.66,1.54,9.34-.52,13.9-4.5-2.11-8.76-4.71-13.38-6.59l-9.07-3.74c.45-4.64,1-9.28-.6-13.83"/><path class="cls-4" d="M908,288.14c-3-.48-6-1-8.94-1.43-4-.53-8-.94-12-1.4a16.84,16.84,0,0,1,0-12.91,79,79,0,0,1,21.79,2.71c1,.45,2,.83,2,2.25,0,3.21.38,6.44-.53,9.6a3.62,3.62,0,0,1-.58.77c-.54.34-1.07.73-1.76.41"/><path class="cls-4" d="M842.82,291.5c-5.54,2.43-11.25,4.47-16.58,7.38-1.48.8-3,1.49-4.51,2.23-1.38-1.34-1.11-3.1-1.07-4.74.09-3.22-.46-6.47.37-9.67a85.92,85.92,0,0,1,20.11-8.28c1.2-.43,2-.09,2.08,1.24.17,3.95.71,7.93-.4,11.84"/><path class="cls-4" d="M842.82,291.5c-.6-3.3,0-6.63-.21-9.94-.09-1.18.64-2.86-1.47-3.14a82.32,82.32,0,0,1,20.54-4.75c2-.58,2.91.52,3.3,2.24a34.14,34.14,0,0,0,.53,3.61,2.84,2.84,0,0,1,0,.92,2.79,2.79,0,0,0-.11,1c1.1,3.91.76,4.54-2.92,5.24-6.64,1.32-13.18,3.07-19.71,4.84"/><path class="cls-4" d="M1062.08,192.68c1.44,2.29,0,4.68.08,7a23,23,0,0,0,.58,5.31c-7.8.74-15.62.15-23.42.3a1.63,1.63,0,0,1-1.82-1.64c-.09-3.68-1.06-7.44.73-11q11.93-.41,23.85,0"/><path class="cls-4" d="M975.67,311.65a80,80,0,0,1,12.9,15.13,14.49,14.49,0,0,1,1,6.64c0,4.41.08,8.82-.06,13.23,0,1.45.47,3.3-1.61,4a178.09,178.09,0,0,0-13.1-20.36c-.81-5.29-.16-10.61-.22-15.91a3.07,3.07,0,0,1,1-2.74"/><path class="cls-4" d="M995.22,441.84c.62,0,1.51-.43,1.44.71-.14,2.22.56,4.53-.47,6.67-.59,1.2.72,1.92.56,3.1a48.62,48.62,0,0,0-.3,6.72c0,3.81.14,7.63.23,11.44a77.14,77.14,0,0,1-10.14,15.2,3.63,3.63,0,0,1-1.09-3.08c.06-6.52-.48-13.05.4-19.55,2.92-5.81,5.6-11.73,8.12-17.72.44-.43.35-1.06.6-1.56a.42.42,0,0,1,.13-.49c.37-.41.29-1,.55-1.44Z"/><path class="cls-4" d="M945.61,432.43c-1,1.87.09,3.91-.56,5.89-.34,1,.3,2.4-.62,3.48a1,1,0,0,0-.12,1c1.72,2.23-.7,4.76.53,7-1,3.07-.64,6.26-.24,9.31.33,2.56-.87,5.09.18,7.63.24.58-.38,1.49-.54,2.25s-.79,1.37-.21,1.91c1.73,1.63.55,3.68.72,5.46a8.84,8.84,0,0,0,.94,3.79v0a1.27,1.27,0,0,0-.68.88,19,19,0,0,1-6.14,6,2.39,2.39,0,0,1-.8-2.42c.45-4.67-.39-9.34,0-14a35.33,35.33,0,0,0,3.56-16.29,42.73,42.73,0,0,0-2.27-10.82h0a12,12,0,0,1-2-3.48c1.37-3.48,1.11-7,.32-10.56-.28-1.27-1-2.53-.24-3.88a21.81,21.81,0,0,1,7.46,6.23c.2.24.41.48.62.71Z"/><path class="cls-4" d="M720.89,498.45a83.79,83.79,0,0,1-7.51-14.24,17.74,17.74,0,0,1-.91-6c0-8.72-.06-17.45,0-26.17,0-1.41-.67-3.31,1.54-4,2.26,7.72,4.88,15.32,7.65,22.88,1.68,8.39.6,16.87.75,25.3,0,.95-.1,2.13-1.55,2.19"/><path class="cls-4" d="M721.69,338.69c-2.19,6.57-4.87,13-6.63,19.7-.28,1.07-.67,2.12-1,3.19-1.27-.05-1.46-1.08-1.47-1.93,0-10.75-.55-21.5.27-32.25a4.43,4.43,0,0,1,.54-1.95,81.34,81.34,0,0,1,7.51-14.24c1.45.07,1.56,1.25,1.54,2.2-.15,8.43.93,16.9-.75,25.28"/><path class="cls-4" d="M870.72,577.35l21.79,0c.87,4.32,1.27,8.65,0,13a90.63,90.63,0,0,1-20.43,0c-1.22-2.34-1-5.22-2.67-7.39-.27-.34-.27-1.18,0-1.23,3.18-.65.86-2.94,1.35-4.36"/><path class="cls-4" d="M800.49,237.62c.15.15.43.3.45.47.37,4.69.86,9.37-.32,14l-17,10.28q0-6-.08-12c0-1.11.15-2.31-1.42-2.54a100,100,0,0,1,18.36-10.23"/><path class="cls-4" d="M885,205c-.92-2-.48-4.21-.86-6.3-.24-1.34.81-2.28,2.4-2-.15-1.18-.86-1.26-1.52-1.24-1.06,0-1.47,0-1.13-1.4.25-1-1.91-.25-2.3-1.44,8.4-.33,16.8-.31,25.2,0,1.26.91,1.38,2.27,1.37,3.64,0,.91-.09,2-1.23,2.11s-1.07-1.12-1.34-1.89a2.25,2.25,0,0,0,.92,2c1.68,1.13,2.07,5.12.76,6.68-.18.22-.64.14-1,.13-7.1-.21-14.2.41-21.28-.33"/><path class="cls-4" d="M907.48,205c.23-1.53-1.45-3-.1-4.62.38-.46-.29-1.08-.92-1.52-2.09-1.44-2.08-1.6-.94-4.31,1.67.66.39,2.45,1.46,3.56,1.06-1.94,0-3.69-.18-5.44q10.56-.48,21.13,0a16.84,16.84,0,0,1,.11,12.39,141.09,141.09,0,0,1-20.56-.07"/><path class="cls-4" d="M976.26,205l-.69-.73c.73-.64-.05-1.45.19-2a2.35,2.35,0,0,1,2.29-1.27c-.59-1.09-1.67-.48-2.31-.81-.17-2.54.76-5.14-.84-7.48,7.27-.3,14.53-.28,21.8,0,1.93,3.5,1,7.22.78,10.87a1.83,1.83,0,0,1-2.06,1.78c-6.39-.17-12.79.41-19.16-.33"/><path class="cls-4" d="M850.92,413.43c-7,0-14-.08-21-.07-2.74,0-2.77.07-2.81,2.9s0,5.65,0,8.47c0,1,.28,2.06-.58,2.89,0-4.3-.07-8.6-.17-12.9,0-1.43.46-2.11,1.94-2,.79.06,1.59,0,2.38,0,18.91,0,37.82,0,56.72.07a122.65,122.65,0,0,0,16.59-.9c2.4-.81,3.24.36,3.23,2.58a28.79,28.79,0,0,1-.07,2.94c.08.3-.5.36-.31.55s.47-.28.79-.18c2.13,2.11-.17,3.82-.63,5.61-.36,1.38-1.8,1.37-3.06.88-20-.43-40.09-.09-60.14-.17h-2c-3.48,0-3.32-.26-3.32,3.31,0,6,0,12,0,18,0,1.1.38,2.27-.4,3.28,0-7.42-.07-14.86-.06-22.29,0-2.85.09-2.89,3.15-2.94,3.26,0,6.53-.06,9.79-.09,2.85-1.63,5.94-.69,8.93-.85,4.69-.1,9.39-.14,14.08,0,3.59-.06,7.18-.1,10.76.05,3.15.14,6.3.11,9.44-.06.1-2.86.13-5.68.24-8.52-3.27.36-6.76,0-10.24.3-3.17,0-6.33.1-9.49,0-4.69,0-9.39.2-14.08,0-3.21-.24-6.55.91-9.61-.91"/><path class="cls-4" d="M1034.24,510.31c0-6.66,0-13.32-.12-20,0-1.19.44-2.52-.7-3.49l8.1-17c.5,0,1.21-.53,1.38.3a14.16,14.16,0,0,1,.09,2.69q0,11.81,0,23.61a73.71,73.71,0,0,1-8.76,13.89"/><path class="cls-4" d="M706,466.42a13.39,13.39,0,0,1-1.51-4.6c-.83-2.32-.26-4.7-.26-7.05q0-49.93,0-99.87c0-2.35-.6-4.73.26-7a13,13,0,0,1,1.51-4.62c1.05.05,1.23.86,1.39,1.64a16.72,16.72,0,0,1,.16,3.39q0,56.57-.05,113.13c0,1.72.91,3.94-1.51,5"/><path class="cls-4" d="M712.81,366.53c-.71,4.11-1.45,8.21-2.13,12.32-1.21,7.35-1.57,14.79-2.11,22.21-2.12-.66-1.23-2.45-1.24-3.73-.06-16.89,0-33.78-.05-50.67,0-2.82-.2-5.64.62-8.4a49.62,49.62,0,0,1,4.16-10c.75-.06,1,.39,1,1-.17,12.42.43,24.84-.23,37.26"/><path class="cls-4" d="M985.85,463.05c1,1,.59,2.33.6,3.51.07,6.37.07,12.75.09,19.12a81,81,0,0,1-12.35,14c.9-6.74-.09-13.54.71-20.28q5.77-8,11-16.33"/><path class="cls-4" d="M712.06,481.42a46.93,46.93,0,0,1-4.16-10.05c-.79-2.64-.63-5.34-.62-8.05,0-17,0-34,.05-51,0-1.28-.87-3.07,1.24-3.74.58,7.41.87,14.85,2.11,22.2.69,4.11,1.42,8.21,2.13,12.31.86,5.17.1,10.37.22,15.55.15,6.68.07,13.36,0,20,0,.92.85,2.36-1,2.73"/><path class="cls-4" d="M925.74,571.88c.84.18,2.09,0,2.07,1.25-.09,3.93.79,7.9-.58,11.76a80.35,80.35,0,0,1-17,3.46,17.55,17.55,0,0,1-.05-13.08l15.58-3.39"/><path class="cls-4" d="M682.18,394.53a25.14,25.14,0,0,1-.15,5.88c-.64,8.65-.12,17.31-.29,26,0,1,0,2,0,3,0,2-.92,2.34-2.57,1.62-1-1.29-.75-2.81-.75-4.26q0-39.93,0-79.85a49.78,49.78,0,0,1,.86-7.4,27.76,27.76,0,0,1,2.2-6.51c1.83.57.91,2.1.91,3.12.08,13.71,0,27.43.1,41.14,0,5.76.06,11.51-.29,17.26"/><path class="cls-4" d="M835.88,585c1.11-.82.75-2,.77-3.1.07-3.35.08-6.7.11-10l17,3.62a3,3,0,0,1,1.62,2.74,42.13,42.13,0,0,1-.05,8c-.15,1.29-.34,2.89-2.43,2.18a78.58,78.58,0,0,1-17-3.41"/><path class="cls-4" d="M910.16,575.27q0,6.54.05,13.08a83.78,83.78,0,0,1-17.71,1.95c0-4.32-.41-8.65,0-13,2.59-.89,5.33-.49,8-.93,3.2-.53,6.44-.77,9.67-1.13"/><path class="cls-4" d="M826.61,499.07a45.51,45.51,0,0,1,.08-10.17c7.83-.74,15.68-.11,23.51-.32.8,1.28.35,9.53-.61,10.87-6.57,0-13.12,0-19.68,0-1.1,0-2.27.34-3.3-.37"/><path class="cls-4" d="M988,350.66c.91-1,.54-2.14.55-3.23,0-6.88,0-13.77.07-20.65a60.8,60.8,0,0,1,8.23,12.79c-.52,9.6-.11,19.22-.21,28.83-.68.15-.91-.61-1.47-.66-2.25-5.75-4.58-11.47-7.17-17.08"/><path class="cls-4" d="M852.85,588.38c.68-.16,1.45-.36,1.42-1.18-.11-3.93.76-7.9-.56-11.76l17,1.91c1.92,1.51,1.28,3.58,1.31,5.49-1.18.52-1.11-1-1.9-1a.46.46,0,0,0-.16.77c2.12,2.2,2.4,4.88,2.1,7.72a84.47,84.47,0,0,1-19.22-2"/><path class="cls-4" d="M675.89,351.19a31.46,31.46,0,0,1,2.19-8c1.31.07.92,1.09.92,1.78,0,28.62.16,57.25-.09,85.88a2.84,2.84,0,0,1-3.17.09c-1-1.3-.73-2.81-.73-4.26q0-33.41,0-66.8a59.66,59.66,0,0,1,.89-8.73"/><path class="cls-4" d="M748.94,404.48c-.74-3.14-.25-6.3-.05-9.44a129,129,0,0,1,6.29-31.88,4.82,4.82,0,0,1,.51-.87c2,.53,1.66,2.26,1.67,3.59.11,11.74.14,23.47,0,35.21,0,3.39-.56,3.75-4.09,3.7-1.44,0-2.93.37-4.33-.31"/><path class="cls-4" d="M970.11,288.75,955,278.58c.68-3.57.44-7.18.46-10.78,0-1.22-.35-2.48.37-3.63a80.35,80.35,0,0,1,14.94,9c2,4.72,1,9.6.68,14.43a1.21,1.21,0,0,1-1.38,1.15"/><path class="cls-4" d="M937.45,382c-1-2.62.67-5.11.37-7.7-.17-1.46.87-3-.59-4.39-.41-.4-.25-1.5.22-2.21.29-.13.85-.3.83-.38a30.14,30.14,0,0,1-.62-6.84c0-.3-.58-.63-.89-.95,1.43-.06,1.33-1.18,1.44-2.14,3.72,4.23,5.49,9.32,6.28,14.74,1.4,9.57.14,18.72-4.88,27.16a9,9,0,0,1-.83,1,6.77,6.77,0,0,0-.77-1.49c-1.21-1.39-1-2.65.4-3.66,1.18-.85.45-1.19-.28-1.61-.42-1-1.16-2.08.26-2.95-1-1.33-.52-3-.93-4.39a1.74,1.74,0,0,1,.63-2.27c1.21-1,.09-1.47-.64-2"/><path class="cls-4" d="M1006.9,576a87.6,87.6,0,0,1-14.28,9.63c-.91-5,.16-10-.64-15l14.07-10.32a1.32,1.32,0,0,1,1.58,1.37c.32,4.81,1.28,9.67-.73,14.36"/><path class="cls-4" d="M917,614.17c0-3.28,0-6.56,0-9.84,0-1.09.33-2.3-.76-3.15q7.72-2,15.58-3.42A1.44,1.44,0,0,1,934,599c.44,3.94,1.28,7.94-.68,11.76A83,83,0,0,1,917,614.17"/><path class="cls-4" d="M826.61,499.07l23.61-.1c3.07-1.7,6.39-.64,9.6-.84,5.14-.13,10.28-.14,15.42,0,4.1-.11,8.21-.05,12.31,0,.38,0,.76.05,1.14.05h1.07c1.23,0,2.48.07,3.72.07,5.65,0,6.63-1.38,4.93-6.85-.45-1.46-1.51-1.52-2.65-1.53-2.71,0-5.42-.08-8.14.09-4.74.08-9.48,0-14.22,0s-9.47.06-14.2,0c-2.79-.13-5.69.71-8.32-.87l-24.19-.16c1.07-1,2.37-.46,3.55-.46,20.81,0,41.62,0,62.43,0,4.63,0,9.27-.2,13.9-.31,4.69-.52,5.09-.18,5.14,4.4a14.32,14.32,0,0,0,.15,2.36,2.53,2.53,0,0,1-.05.91,5.65,5.65,0,0,1-2.29,2.66,46.81,46.81,0,0,1-12.13,1.16q-33.84.13-67.68.05c-1,0-2.27.6-3.1-.6"/><path class="cls-4" d="M897.94,536.48c-4.76,1.12-9.66.8-14.48,1.29-1.39.14-2.1-.37-2.07-1.89.05-3.27,0-6.55,0-9.83,0-1.32.57-1.79,1.84-1.74,4.64.19,9.22-.77,13.86-.8a1.16,1.16,0,0,1,1.48,1c.51,4,1.32,8.05-.63,11.94"/><path class="cls-4" d="M730.43,320.69q-3.72,7.53-7.45,15.05c-.73.06-1-.35-1-1,.13-8.57-.38-17.14.25-25.7a64.38,64.38,0,0,1,7.53-11.46c1.25,0,1.55,1,1.56,1.85,0,7.1,1.21,14.25-.87,21.26"/><path class="cls-4" d="M729.7,512.09a68,68,0,0,1-7.5-11.47c-.61-8.56-.11-17.14-.24-25.71,0-.65.29-1.06,1-1l7.45,15c2.08,7,.93,14.22.85,21.34,0,.83-.33,1.83-1.58,1.79"/><path class="cls-4" d="M962.06,316.63l-11.73-9.49c1.36-2.93,1.09-6.07,1.18-9.17,0-1.73-.46-3.6.92-5.1A62.22,62.22,0,0,1,964,301.1a7.67,7.67,0,0,1,1.91,4.52c.54,3.25-.46,6.49.16,9.72a2.29,2.29,0,0,1-1.17,2.61c-1.36.63-1.89-.86-2.83-1.32"/><path class="cls-4" d="M976.26,205c5.85,0,11.71,0,17.56,0,2.78,0,2.82-.08,2.86-2.86,0-3.15,0-6.3,0-9.46a62.52,62.52,0,0,1,10.24,0,3.82,3.82,0,0,1,1.07,1.84,3.39,3.39,0,0,1-.07,1.1c-.61,3.31.86,6.83-1.05,10-4,0-7.92.12-11.88.12l-110.73,0c-1.13,0-2.26-.1-3.39-.15-.19-.14-.25-.28-.17-.41s.14-.18.22-.18h47a18.93,18.93,0,0,1,13.62,0h34.73"/><path class="cls-4" d="M730.43,320.69c0-6.65,0-13.3,0-19.95,0-1.08.36-2.29-.69-3.16A71.6,71.6,0,0,1,738.61,286c1.23,0,1.53,1,1.54,1.84.08,6.23,1.15,12.51-.83,18.65l-8.89,14.19"/><path class="cls-4" d="M729.7,512.09c1.17-1,.71-2.3.72-3.49,0-6.54,0-13.09,0-19.64l8.88,14.22c2,6.13.91,12.4.84,18.63,0,.82-.31,1.83-1.54,1.83a74.51,74.51,0,0,1-8.91-11.55"/><path class="cls-4" d="M965.42,507.43a65.74,65.74,0,0,1-13,9.43c-1.19-1.15-1.07-2.67-1.05-4.1.05-3.69-.28-7.38.14-11.06l9.84-8a1.24,1.24,0,0,1,.73-.4,2,2,0,0,1,.82.15,4.5,4.5,0,0,0,2,.64,1.57,1.57,0,0,1,.74.47,2.32,2.32,0,0,1,.48,1.93c-1.27,3.6-.11,7.32-.68,10.95"/><path class="cls-4" d="M962.64,493.68h-1.27a6.58,6.58,0,0,1,2.5-2.3c.63.26.84.09.58-.57l10.45-11.44c1.43,2,.33,4.3.59,6.44.35,2.87,0,5.83.14,8.73.12,1.94-1.09,3.38-1.44,5.11a49.51,49.51,0,0,1-8.77,7.77c-.51-3.07-1.58-6.06-.2-9.26a3.35,3.35,0,0,0-.54-3.81v-.22l-.19.1.18.12c-1.16,1.21-1.52.05-2-.68Z"/><path class="cls-4" d="M962.06,316.63a8.59,8.59,0,0,1,1.52.65c1,.68,1.43.14,1.71-.74a3,3,0,0,0,.06-.67c.13-2-.8-3.86-.13-6,.56-1.8-.22-4-.18-6,0-1.15-1.22-1.66-1-2.76a70,70,0,0,1,11.68,10.55c0,5.06,0,10.11-.11,15.17,0,1.18.47,2.52-.71,3.48l-12.79-13.67"/><path class="cls-4" d="M903.93,424.29c1.45-.15,3-.07,2.59-2.39-.13-.67.93-1,1-1.6.15-.76,1.08-2-.76-2.2h0c-.86-1.08-.41-2.32-.3-3.45.21-2-.56-2.87-2.53-2.74a69.42,69.42,0,0,0,14.34-5.44c1.9.43,2,.86.6,2.54a.64.64,0,0,1-.7.05c.22.41.76,0,1,.37a25.46,25.46,0,0,1-.14,6.64h0c-1,2.08.62,3.81.82,5.74.3,2.93-1.21,4.67-4.32,4.5l-11.63-2"/><path class="cls-4" d="M672.46,366.74a45.61,45.61,0,0,1,2.17-10.59c1.31,0,1,1,1,1.73,0,24.19,0,48.38,0,72.58a2.39,2.39,0,0,1-.21.64c-2.84,1-3.71-.49-3.74-3q-.07-6.1,0-12.22c.15-14.13-.38-28.27.31-42.4a63.15,63.15,0,0,1,.55-6.73"/><path class="cls-4" d="M838,373.16c0-7-.07-14-.06-20.94,0-2.8.11-2.88,2.81-2.93,3.38-.07,6.76-.07,10.13-.11,2.85-1.62,5.94-.67,8.92-.84,4.47-.11,8.94-.13,13.41,0,3.4-.11,6.79-.06,10.18,0,2.9.2,5.8.17,8.71.11,3.4-.06,4-.7,4.23-4.17.1-1.66-.13-3.36.66-4.93l.35-.35a38.28,38.28,0,0,1,12.18,1.54c1.16,3,.91,6.14,1.13,9.24.07,1.12-.21,2.4-2,1.66-9.29-2-18.72-1.55-28.12-1.56l-37.77,0a17.34,17.34,0,0,1-2,0c-1.74-.19-2.39.48-2.37,2.28.09,5.78.06,11.57,0,17.35,0,1.21.41,2.5-.4,3.63"/><path class="cls-4" d="M933.36,610.75c0-3.49,0-7,0-10.46,0-1.17,0-2.32-1.53-2.53,4.51-1.51,9-3,13.65-4.08,1.53.21,1.51,1.35,1.5,2.5,0,3.53-.24,7.06.08,10.59h0c-.43.28-1,.2-1.41.53a63.06,63.06,0,0,1-12.27,3.46"/><path class="cls-4" d="M955.87,264.17c.94,1.77.61,3.69.64,5.56,0,2.23,0,4.45,0,6.67,0,1.1-.16,2-1.48,2.18l-11.57-6.12c1.36-1.47.85-3.16.44-4.76a8.32,8.32,0,0,1-.09-5c.71-1.89.09-3.26-.86-4.69a61.86,61.86,0,0,1,12.91,6.14"/><path class="cls-4" d="M708.57,408.59c-1.06,1.17-.58,2.6-.58,3.91q0,27.39,0,54.79c0,1.36,0,2.72-.07,4.08a15.91,15.91,0,0,1-1.89-4.95c.94-.94.58-2.14.58-3.23q0-58.35,0-116.72c0-1.09.36-2.29-.57-3.23a15.81,15.81,0,0,1,1.88-5q0,29.44.09,58.89c0,1.31-.48,2.74.58,3.91v7.53"/><path class="cls-4" d="M739.32,306.5c0-5.77,0-11.54,0-17.31,0-1.08.36-2.29-.67-3.18a65.72,65.72,0,0,1,8.61-9.65c1.31.85.9,2.19.91,3.37,0,5,0,10.1,0,15.14l-8.83,11.63"/><path class="cls-4" d="M738.61,523.64c1-.88.66-2.09.67-3.18,0-5.76,0-11.52,0-17.28q4.43,5.81,8.84,11.63c0,5,0,10.08,0,15.13,0,1.17.41,2.52-.92,3.35a61.58,61.58,0,0,1-8.6-9.65"/><path class="cls-4" d="M1022.59,367.05l1.43,1V334.12a35.19,35.19,0,0,1,4,9c0,12,0,23.9-.1,35.85a35.9,35.9,0,0,1-1.27,9.87l-.09-1.24c-.67-1.08.09-2.4-.56-3.49q-1.38-7.15-2.78-14.32a.38.38,0,0,0-.14-.65,2.55,2.55,0,0,1-.54-2.06"/><path class="cls-4" d="M748.94,404.48c1.7,0,3.39-.06,5.08,0,1.5,0,2.31-.41,2.31-2.09q0-19.29,0-38.59a1.91,1.91,0,0,0-.62-1.51,41.6,41.6,0,0,1,4-10.31c0,17.35,0,34.7.06,52.32,1.76-.51,1-2.12,2-2.53,0,3.18,0,3.19-2.88,3.2-2.69,0-5.38,0-8.08,0-.63,0-1.36.24-1.81-.5"/><path class="cls-4" d="M971.49,552.21a34.84,34.84,0,0,1,0,15,48.39,48.39,0,0,1-10.24,5.33c-.36-1.24-.78-2.48.7-3.33a3.64,3.64,0,0,0,.45.43l.19.25.22.23a1.87,1.87,0,0,0-.42-.47,6.09,6.09,0,0,0-.44-.44c-1.68-1.44-.77-3.76-1.83-5.4,1.79-.44-1.25-2.73,1.25-3-.88-1.41-2.24-1.1-3.47-1.19a4.7,4.7,0,0,1,2.67-1.33l0,0a1.39,1.39,0,0,1,1.31-.67l0,0a86,86,0,0,1,9.51-5.45"/><path class="cls-4" d="M941.53,205H927.91q0-6.17,0-12.32a99.56,99.56,0,0,1,13.6,0V205"/><path class="cls-4" d="M897.94,536.48c0-3.29,0-6.58,0-9.86,0-1.1.31-2.31-.85-3.11l11-2c1.18-.48,2.45-.44,2.72.93.72,3.72,1,7.5-.26,11.19-.13.39-.62.62-1,.86a47.44,47.44,0,0,1-11.59,2"/><path class="cls-4" d="M998,316.7c1.2-.93.73-2.26.75-3.44.07-5.27.07-10.54.1-15.81a44.37,44.37,0,0,1,7.49,8.85c0,5.95,0,11.91-.1,17.86,0,1.18.45,2.52-.77,3.44L998,316.7"/><path class="cls-4" d="M862.53,286.66c.06-.65.27-1,1.05-.81,1.89.54,1-2,2.3-2.16.06,0-.09-.57-.46-.71-2.4-.91-.56-2-.15-3.09.83-1.52,0-3.2.26-4-.17.84.44,2.5-.26,4-1.18-.75-.93-1.88-.89-3a2.76,2.76,0,0,0-2.7-3.21,56,56,0,0,1,15.17-1.29,18.65,18.65,0,0,1,0,12.88l-14.31,1.4"/><path class="cls-4" d="M952.43,292.87c-.12,4,.13,8.08-.21,12.12-.13,1.5-.6,2-1.89,2.15a80,80,0,0,1-8.17-5.32c0-3.95,0-7.91.06-11.87a7,7,0,0,0-.65-3.28,49.7,49.7,0,0,1,10.86,6.2"/><path class="cls-4" d="M854.36,234.18c0-3.26,0-6.51,0-9.77,0-1.28,0-2.49-1.43-3.12a43.57,43.57,0,0,1,11.42-1.4c1.64-.61,2.43.34,2.51,1.71.19,3.1,0,6.22,0,9.33,0,1-.84,1.49-1.65,1.91l-10.91,1.34"/><path class="cls-4" d="M908,288.14l1.53-.76h0c1-3.43.36-7,.62-10.43.07-.92-1-1.15-1.29-1.84a38.51,38.51,0,0,1,10.25,2.55,4.15,4.15,0,0,1,2,4.42,26.54,26.54,0,0,0-.07,6.3c.18,1.25,0,2.49-1.37,3.11L908,288.14"/><path class="cls-4" d="M909.53,534.51c1.37-3.85.48-7.82.58-11.73,0-1.26-1.19-1.11-2-1.25l12.17-3.48c1.72,1.66.43,3.78.73,5.66.26,1.55,0,3.29.16,4.92a3.6,3.6,0,0,1-1.38,3.19,37.71,37.71,0,0,1-10.22,2.69"/><path class="cls-4" d="M970.11,288.75c1-.86.68-2.06.69-3.14,0-4.14,0-8.29,0-12.44a46.35,46.35,0,0,1,8.93,6.58c0,4.41,0,8.82-.09,13.23,0,1.09.37,2.28-.59,3.21l-8.95-7.44"/><path class="cls-4" d="M865.27,232.84c.43-.86,1.05-1.48.92-2.72a55.38,55.38,0,0,1,0-7.94,1.9,1.9,0,0,0-1.83-2.29c5.15-1.07,10.37-.67,15.57-.85,1.16,0,1.57.6,1.56,1.7q0,4.94,0,9.87c0,1.16-.48,1.63-1.62,1.62-2.6,0-5.2,0-7.81,0-1.38-1.64-.85-3.63-1-5.5a21.86,21.86,0,0,0-.24-4.35,1.24,1.24,0,0,0-1.14-1,1,1,0,0,0-1.19.92c-.07,3.47-1.42,7.18,1.71,10.11-1.6.71-3.3.45-5,.47"/><path class="cls-4" d="M821,286.7c1,.91.63,2.11.64,3.2.06,3.74.05,7.48.06,11.21l-10.27,6.63c0-4,0-8,0-12,0-1.08.27-2.28-.92-3a3.53,3.53,0,0,1,2.19-1.31c.26,3.35,0,6.71.13,10.06-.11-3.36.11-6.72-.11-10.08A33.77,33.77,0,0,1,821,286.7"/><path class="cls-4" d="M669.27,431a3.48,3.48,0,0,1-.31-2c.08-12.34-.29-24.68.26-37a112.27,112.27,0,0,1,2-18.18c1.59.29.95,1.57.95,2.41,0,17.49,0,35,.06,52.49,0,2.3-.66,3.24-3,2.27"/><path class="cls-4" d="M992,570.62c.58.11,1.22.35,1.21,1-.05,4.48.57,9-.33,13.44a4.8,4.8,0,0,1-.24.63,27.84,27.84,0,0,1-6.8,4c-1.4.67-2-.32-2.11-1.33-.35-4.34-1.24-8.73.73-12.94a51.75,51.75,0,0,1,7.54-4.81"/><path class="cls-4" d="M937.5,425.46a29.13,29.13,0,0,1,1.93,9c.12,1.6.62,4.4-2,5.46a41.08,41.08,0,0,0-10.95-9.44c1.69-3.33,1.4-6.81.79-10.31a31.55,31.55,0,0,1,10.24,5.31"/><path class="cls-4" d="M930,492.5a32.16,32.16,0,0,1-10.29,3.88c-.82-2.29,0-4.62-.07-6.94a7.83,7.83,0,0,0-1.29-4A88,88,0,0,0,929.28,480c2.6.47,2.46,2.65,2.37,4.38-.11,2-1,3.85-.25,5.93.38,1-1.1,1.3-1.38,2.15"/><path class="cls-4" d="M930,492.5c-.16-1.21,1.48-2.29.09-3.69-.5-.5-.27-1.73.24-2.58,1.41-2.35.51-4.33-1.07-6.19a65.24,65.24,0,0,0,7-6.83,2.28,2.28,0,0,1,.5-.62l0,0c.23-.24.51-.43.59-.78l0,.05c.57-.25.42-.94.79-1.31v0c.53.26,1.1.58,1,1.21-.73,5.07.25,10.16-.25,15.22v0a2.71,2.71,0,0,0-.75.64h0c-.71.42-1.73.41-2,1.43A18.66,18.66,0,0,1,930,492.5"/><path class="cls-4" d="M1006.89,205.59c0-2.67,0-5.34,0-8,0-1-.28-2,.66-2.79,1.88,2.34.39,5.23,1.33,8,1.18-3.47-.66-7.1,1.43-10.15a.51.51,0,0,1,.62,0c1.49,1.75.85,3.86,1,5.84.11,1.29-.26,2.63.4,4.11,1-3.38-.7-6.94,1.36-10a.52.52,0,0,1,.63,0c1.48,1.75.85,3.87,1,5.84.11,1.3-.27,2.64.39,4.11,1.05-3.38-.7-6.94,1.36-10a.54.54,0,0,1,.64,0c1.47,1.75.84,3.87,1,5.84.11,1.3-.26,2.64.4,4.11,1-3.38-.69-6.93,1.35-10a.56.56,0,0,1,.65,0c1.46,1.75.87,3.86,1,5.84a23.23,23.23,0,0,0,.3,4.45c1.15-3.72-.59-7.27,1.45-10.29h.65c2,3,.31,6.57,1.38,10,1.07-3.47-.66-7,1.37-10h.66c2,3,.31,6.57,1.37,10,1.07-3.47-.66-7,1.38-10h.65c2,3,.31,6.57,1.38,10,1.07-3.47-.66-7,1.37-10h.66c2,3,.37,6.56,1.35,10.13,1.09-3.56-.64-7.11,1.4-10.13h.67c0,3.16,0,6.31,0,9.47,0,2.78.07,2.85,2.85,2.86,7.21,0,14.43,0,21.65,0,2,.26,4.16-.58,6.09.6-11.4,0-22.79.12-34.19.12-9.25,0-18.5-.09-27.75-.13"/><path class="cls-4" d="M876.84,285.26V272.38a43.67,43.67,0,0,1,10.22,0l0,12.91-10.21-.05"/><path class="cls-4" d="M919.07,416.07c-.49-2-1.59-4-.23-6,.07-.11-.3-.51-.46-.78h0c.38-.93,2-1.9-.06-2.78l7.37-6.15c.56-.16.45-.86.9-1.12l.11-.15a2,2,0,0,1,.53-.65l0,0c.2-.25.53-.41.6-.76h0c1.22,1.09.66,2.54.73,3.84.15,2.9-.47,5.87.87,8.65l0,0c-.42.05-.61.37-.8.68a29.39,29.39,0,0,1-9.56,5.36"/><path class="cls-4" d="M951.53,501.7c1.16.77.88,2,.89,3.05,0,4,0,8.07,0,12.11a33.11,33.11,0,0,1-8.18,4.75c0-3.8,0-7.61,0-11.41,0-1.08.27-2.28-.88-3.05a3.55,3.55,0,0,1,2.17-1.31,1,1,0,0,1,.13,1.36c-.47,3.07.28,6.15-.06,8.55-.17-2.13.32-5-.29-7.75.11-.72,1.11-1.35.23-2.17a33.16,33.16,0,0,1,6-4.13"/><path class="cls-4" d="M918.37,485.47c1.89.5,2.67,1.36,2.08,3.59-.47,1.79.28,3.83-.19,5.75-.14.53-.35,1.05-.53,1.57a29.8,29.8,0,0,1-10.21,2.08c.57-1,.82-2.24,2.05-2.74h0c-1.25-1.41-.3-3.34-1.14-4.85,1.51-.65.5-1.1,0-1.78-1.08-1.3-2.55-.64-3.81-1l9.71-2c.41-.3,1-.2,1.37-.47l.72-.18"/><path class="cls-4" d="M908.7,351.44c2.36-.67,1.2-2.56,1.11-3.84-.15-2.35-.7-4.68-.28-7.06a20.88,20.88,0,0,1,7.51,2,2,2,0,0,0,1.37.52l.69.21c.37.33.95.19,1.31.56l0,0c.22,1.38-1.21,1.53-1.73,2.34s.89.17.74.8c.88,2.06.35,4.25.59,6.36.21,1.84-.92,2.06-2.38,1.42h0c-.35-.48-1-.33-1.42-.69l-7.56-2.69"/><path class="cls-4" d="M927.26,420.15c1.16,1.55,2.14,3,1,5.16a4.93,4.93,0,0,0,0,3c.36,1.66-.7,1.9-1.84,2.18h0c-.32-.58-1-.4-1.46-.73l-9.5-3.42c1.52.11,1.91-1.08,2.81-1.92,1.21-1.15.76-1.62.53-2.74a33.27,33.27,0,0,0-.85-4.06c-.33-1-.07-1.51,1-1.52-.23.87.27,1.13,1,1.38,2.43.82,5,1.33,7.2,2.7"/><path class="cls-4" d="M984.44,575.43c0,3.9,0,7.8,0,11.7,0,1.08-.24,2.33,1.38,2.57a20.49,20.49,0,0,1-5.39,2.95c-2-2.74-.63-5.9-1.13-8.82-.22-.43.5-.79.08-1.23l-.6.07c-.22.11-.24.28-.21.54,0,.45-.44.33,0,.34-.45,3.4.42,6.83-.3,10.2a1.48,1.48,0,0,1-1.34.7c0-3-.15-5.93-.06-8.9a15.31,15.31,0,0,0-.64-5.43,4.88,4.88,0,0,1,2.61-1.42c.35.29-.16,0,.26.2.12.06.06,0-.23-.22a23.41,23.41,0,0,1,5.55-3.25"/><path class="cls-4" d="M917.67,354.82c.69-.16,2.18,0,1.73-.88-1-1.9,0-3.72-.32-5.54-.12-.66-.08-1.34-.7-1.79h0c-.31-.66-.44-1.21.45-1.59a3,3,0,0,0,1.62-1.13,14,14,0,0,1,5.46,2.68c.42.52,0,.87-.25,1.25s.52.21.45.58c.66,2.71-.47,5.45.31,8.23.51,1.78-.95,2.48-2.68,2.28l-6.07-4.09"/><path class="cls-4" d="M923.74,358.91c1.32-.82,3.11-1.46,1.39-3.5.78-1.08-.79-2.36.37-3.49.67-.66.19-1.37-.37-2.06-.39-.48,1.29-1.18.06-1.88l.72-1.41a12.75,12.75,0,0,1,4.83,3.19c-.08.68-.17,1.28-1.12,1.3-.47,0-.87.56-.34.91,1.76,1.18,1.49,3,1.24,4.55s1.64,3.24-.16,4.87c-.47.42.41.8,1,.88-.52,1.21-.24,2.88-2,3.39a61.5,61.5,0,0,0-5.62-6.75"/><path class="cls-4" d="M704.51,347.86q0,20.58,0,41.16,0,35,0,70.08c0,.91,0,1.81-.06,2.72a8.93,8.93,0,0,1-1.31-4.22c1-.77.68-1.86.68-2.84q0-49.93,0-99.86c0-1,.29-2.08-.68-2.84a9.29,9.29,0,0,1,1.32-4.2"/><path class="cls-4" d="M669.27,431c2.57-.38,2.6-.38,2.6-3.11q0-21.36,0-42.73c0-2.82,0-5.65,0-8.48,0-1,.29-2.06-.64-2.85a22.38,22.38,0,0,1,1.23-7.12c0,5,.09,10,.1,14.95q0,23.13,0,46.25c0,2.76,0,2.76,2.63,3a.58.58,0,0,1,.85,0h2.55a.58.58,0,0,1,.85,0c1.51.21,2-.53,2-1.94,0-2.48,0-5,0-7.45,0-6,0-12,0-17.93,0-1.08-.37-2.28.6-3.2q.06,14.58.13,29.17c0,1.12-.11,2-1.59,2-3.62-.06-7.24-.05-10.85-.1-.16,0-.3-.29-.45-.44"/><path class="cls-4" d="M1015,552.61c-1,5.84-.27,11.72-.51,17.58a13,13,0,0,1-4.13,3.24,3.77,3.77,0,0,1-1.05-3.1c0-4.27-.26-8.54.08-12.81a37.46,37.46,0,0,1,5.61-4.91"/><path class="cls-4" d="M796.48,604.68c-3.33,0-6.66,0-10,0-1,0-2,.3-2.84-.53,1.58-.05,3.16-.14,4.75-.14q25.85,0,51.7,0c1.13,0,2.26.08,3.4.13a4.53,4.53,0,0,0,0,.52c-1,1.13-2.44,1-3.76,1-4,.21-3.93.21-4.07,4.33-.08,2.29.62,4.72-1,6.81h-.75c-1.89-3-.34-6.46-1.27-10-1.18,3.48.61,7-1.39,10h-.75c-1.91-3-.32-6.46-1.27-10-1.18,3.48.61,7-1.38,10l-.78,0c-1.56-2-.91-4.35-1-6.55-.14-4.21-.3-4.47-4.41-4.5-6.78,0-13.57,0-20.36,0-1.66,0-3.43.3-4.83-1"/><path class="cls-4" d="M679.45,430.93h-.84c0-5,.07-9.95.07-14.93q0-34.44,0-68.87c0-1.3.48-2.73-.59-3.9a8.31,8.31,0,0,1,1.18-3.71c0,1.36.1,2.72.11,4.07v83.26c0,1.36,0,2.72.08,4.08"/><path class="cls-4" d="M804.65,427.57c-5,.36-3.94.09-4-3.64-.06-2.23,0-4.47,0-6.7,0-2.75,0-2.76,2.77-2.75a9.91,9.91,0,0,1,1.32.16c2,1.95,1.76,4.51,1.71,6.94,0,1.63-.83,3.18-.32,4.92.25.85-1,.65-1.44,1.07"/><path class="cls-4" d="M870.24,232.37c-2.89-.48-2.9-.48-2.93-3.29,0-2.38.05-4.76,0-7.14,0-1.79,1.05-2,2.44-2s2.38.36,2.35,2.08c-.07,3.4,0,6.8,0,10.2a2.57,2.57,0,0,1-1.83.13"/><path class="cls-4" d="M1009.37,557.52c1.2.74.92,2,.93,3.05,0,4.29,0,8.57,0,12.86a9.46,9.46,0,0,1-3.44,2.6c0-4.23,0-8.46,0-12.69,0-1.07.3-2.27-.84-3a11.25,11.25,0,0,1,3.32-2.78"/><path class="cls-4" d="M833.34,386.93c4.92-.3,4.92-.3,4.92,4.65,0,2.14,0,4.28,0,6.42,0,1.09-.47,1.67-1.6,1.67-3.16,0-6.31,0-9.46,0-.42,0-.52-.33-.65-.63a3.89,3.89,0,0,1,3-.89c.5,0,1,0,1.51,0,1.68.23,2.47-.35,2.41-2.2-.1-3,0-6-.07-9"/><path class="cls-4" d="M676.05,430.93h-.85q0-19.51.08-39,0-16.11,0-32.23c0-1.19.45-2.51-.63-3.53a12.17,12.17,0,0,1,1.26-4.95q0,19.67.07,39.35l.09,40.38"/><path class="cls-4" d="M752.89,427.56a5,5,0,0,1-.66.11c-3.77.07-3.34.13-3.35-3.2,0-2.49,0-5,0-7.47s.06-2.54,2.71-2.52a8.67,8.67,0,0,1,1.33.18,17.33,17.33,0,0,1,0,12.9"/><path class="cls-4" d="M779.43,427.56c-4.84.28-4.84.28-4.84-4.63,0-1.92,0-3.85,0-5.78,0-2.7,0-2.7,2.88-2.66a12.27,12.27,0,0,1,1.34.17c1.59,4.23,1.08,8.57.61,12.9"/><path class="cls-4" d="M850.92,339.22l-24.29-.12c.28-.68.9-.58,1.43-.58q33.5.06,67,.15a4,4,0,0,1,2.31.33l-.14.26a2.37,2.37,0,0,1-1.82,2.11,1.26,1.26,0,0,1-.89-.25C894,340,893,340,892,340c-2.57.07-5.14,0-7.72.13-3.21.05-6.41.1-9.61,0-4.93,0-9.85.18-14.78,0-3-.16-6.11.83-9-.9"/><path class="cls-4" d="M759,427.58a10.77,10.77,0,0,1-3.4,0,3.33,3.33,0,0,1-1.06-3.37c.62-3.17-.34-6.4.45-9.54a15.2,15.2,0,0,1,4.76,0c.9,3.87.27,7.78.27,11.67,0,.62-.5,1-1,1.23"/><path class="cls-4" d="M682.18,394.53c0-2.71-.08-5.42-.08-8.13q0-24.93,0-49.85c0-1.19.44-2.51-.61-3.54a7.77,7.77,0,0,1,1.3-3.44q0,23.78,0,47.55c0,1.19-.45,2.51.64,3.53-.33,4.63-.53,9.28-1.25,13.88"/><path class="cls-4" d="M669.14,457.6c-.47-3.57,0-7.16-.24-10.74-.11-1.85.72-2.39,2.37-2.17.45.06.89.08,1.34.12a5.57,5.57,0,0,1,.65.73c.82,3.56.28,7.16.25,10.74a1.57,1.57,0,0,1-1.42,1.63c-1-.09-2,.28-3-.31"/><path class="cls-4" d="M669.14,484.16c-.47-3.58,0-7.17-.24-10.75-.11-1.85.72-2.38,2.37-2.17.45.06.89.09,1.34.13a4.92,4.92,0,0,1,.65.72c.82,3.56.28,7.16.25,10.74a1.55,1.55,0,0,1-1.42,1.63c-1-.09-2,.28-3-.3"/><path class="cls-4" d="M669.14,457.6l3.42-.12a6.46,6.46,0,0,1,2.57-.78c.69,0,1.37-.09,2.06-.12,1.49-.23,1.2-1.42,1.23-2.37a55.7,55.7,0,0,0-.33-9.4c.11,0,.22-.06.33-.07,3.71-.11,3.71-.11,3.72,3.51,0,2.7,0,5.39,0,8.09,0,1-.24,1.79-1.46,1.78-3.71,0-7.42,0-11.12,0-.14,0-.28-.32-.42-.49"/><path class="cls-4" d="M669.14,484.16l3.42-.13a6.29,6.29,0,0,1,2.57-.77c.69,0,1.37-.1,2.06-.13,1.49-.23,1.2-1.41,1.23-2.37a55.7,55.7,0,0,0-.33-9.4,1.91,1.91,0,0,1,.33-.06c3.71-.12,3.71-.12,3.72,3.5,0,2.7,0,5.4,0,8.1,0,1-.24,1.78-1.46,1.78-3.71,0-7.42,0-11.12,0-.14,0-.28-.31-.42-.48"/><path class="cls-4" d="M1087.25,391.46c-2.12.1-4.69,1-6.21-.31s-.5-3.83-.52-5.82c0-2.24-.32-4.5.22-6.73a.82.82,0,0,1,.85.47c.86,2.53.31,5.15.47,7.73.08,1.39.08,2.79,1.9,3.08s2.13-.92,2.06-2.27c-.1-2.13.1-4.25.08-6.38,0-1-.47-2.29.9-2.94.85.06,1.73-.2,2.53.31,1.15,3.27,1,6.62.75,10-.13,2-1.3,2.67-3,2.87"/><path class="cls-4" d="M672.54,512a5,5,0,0,1-.66.1c-2.92,0-2.94,0-3-2.87,0-2.58,0-5.17,0-7.75S669,499,671.58,499a6.87,6.87,0,0,1,1,.14c1.42,4.31,1.84,8.6,0,12.9"/><path class="cls-4" d="M807.42,414.67a8.26,8.26,0,0,1,3.43,0,17.08,17.08,0,0,1-.1,12.93,10.42,10.42,0,0,1-3.39,0,20.8,20.8,0,0,1,.06-12.89"/><path class="cls-4" d="M810.75,427.58q0-6.46.1-12.93c3.19-.08,3.2-.08,3.23,3,0,2.38,0,4.76,0,7.14,0,2.94,0,2.94-3.33,2.83"/><path class="cls-4" d="M1054.15,352.06c1.15-1.08,2.56-.49,3.85-.53,2.37-.08,4.74.07,7.11,0,1.79,0,2.37.74,2.32,2.45-.08,2.93,0,5.87,0,8.81,0,2.08-.08,2.08-2.64,2.11-1.69-2.44-.61-5.21-.94-7.81-.17-1.36.56-3-1.08-3.93a19.7,19.7,0,0,0-2-.19c-.86,0-1.73,0-2.59,0a12.63,12.63,0,0,1-3.13-.28,2,2,0,0,1-.85-.62"/><path class="cls-4" d="M1054.15,325.51c1.15-1.08,2.56-.49,3.85-.54,2.37-.08,4.74.08,7.11,0,1.79-.05,2.37.74,2.32,2.45-.08,2.93,0,5.87,0,8.81,0,2.08-.08,2.08-2.64,2.11-1.69-2.44-.61-5.21-.94-7.82-.17-1.35.56-3-1.08-3.92a17.24,17.24,0,0,0-2-.19c-.86,0-1.73,0-2.59,0a11.74,11.74,0,0,1-3.13-.28,1.92,1.92,0,0,1-.85-.61"/><path class="cls-4" d="M829.85,399l-3.31.07c0-3.22-.12-6.43-.12-9.65,0-2.54,0-2.54,2.8-2.47a2,2,0,0,1,.92.62c.07.17.14.35.22.52.32,3.66,1.22,7.34-.51,10.91"/><path class="cls-4" d="M768.57,335c1.11,1,.65,2.32.66,3.5.08,8,.1,16,.14,24a4.07,4.07,0,0,1-.85,2.46c-.53,0-.92-.21-.91-.73.08-9.32-.39-18.66.22-28a1.43,1.43,0,0,1,.74-1.23"/><path class="cls-4" d="M1081.15,378.76a1,1,0,0,1-.41-.16c.55-.84,1.42-.54,2.16-.54,2.94,0,5.88.07,8.81,0,1.5,0,2.32.44,2.28,2.12-.07,3.28,0,6.55,0,9.83,0,1.47-.78,1.69-2,1.42-1.38-2.35-1.16-4.94-1.19-7.51,0-1.87.37-3.9-1.53-5.23h-2.69a3.06,3.06,0,0,1-2.13.78,4.67,4.67,0,0,1-3.31-.74"/><path class="cls-4" d="M759,427.58c.86-2.05.24-4.19.39-6.29s-.2-4.43.36-6.61c2.49.06,2.54.06,2.58,2.15,0,2.56,0,5.12,0,7.68,0,3.2,0,3.2-3.34,3.07"/><path class="cls-4" d="M779.43,427.56c-1.12-4.26-.49-8.6-.61-12.9a7.7,7.7,0,0,1,3.41,0,40.11,40.11,0,0,1-.08,12.89h-2.72"/><path class="cls-4" d="M833.34,386.93c.32.78.92,1.31.84,2.41-.24,3.08-.09,6.19-.09,9.35-.9.58-1.92.25-2.89.3-1.15-1.63-.5-3.48-.65-5.23-.19-2.1.42-4.28-.68-6.27l0-.05q-.21-.19-.12-.36c0-.1.11-.16.16-.16a10.05,10.05,0,0,1,3.46,0"/><path class="cls-4" d="M832.66,462.49l2,0a2.85,2.85,0,0,1,3,3.23c0,2.12.05,4.24,0,6.35-.06,1.58-.56,2.85-2.34,3.17h-5.45a.66.66,0,0,1,.16-.9,4.94,4.94,0,0,1,1.89-.68c1.56-.47,1.05-1.82,1.1-2.83a43.71,43.71,0,0,0-.33-8.32"/><path class="cls-4" d="M782.15,427.56c-.4-4.3-.75-8.6.08-12.89a3.36,3.36,0,0,1,2.08,0,10.23,10.23,0,0,1,1,9.52,4.9,4.9,0,0,1,0,.94,3.35,3.35,0,0,1-1.11,2.47Z"/><path class="cls-4" d="M784.2,427.58a5.09,5.09,0,0,1,.71-2.67h0c-1.08-1-.77-2,0-3a2.55,2.55,0,0,0,.09-3.4c-1-1.2-.69-2.55-.65-3.88.66,0,1.33-.08,2-.1,1,0,1.41.46,1.41,1.43,0,3.47,0,6.94,0,10.41,0,1.59-1.15,1.3-2.15,1.16-.2-.29-.4-.27-.59,0Z"/><path class="cls-4" d="M826.55,474.61c0-3.55-.07-7.1-.15-10.64,0-1.69.91-1.76,2.16-1.47a7.82,7.82,0,0,0,1.28.36,1.52,1.52,0,0,1,.38.82c.07,2.67-.07,5.34-.05,8,0,1.25,0,2.47-1.27,3.22-.79,0-1.63.28-2.35-.3"/><path class="cls-4" d="M679.4,499.13c2.67,0,2.7,0,2.73,2.39q0,4.1,0,8.17c0,2.31-.06,2.31-2.79,2.34a18.2,18.2,0,0,1,.06-12.9"/><path class="cls-4" d="M1010.34,192.67l0,8.44c0,.67,0,1.35,0,2,0,1-.21,1.84-1.48,1.77-1-.07-1.22-.83-1.22-1.68,0-2.81,0-5.62,0-8.43v-.69a1,1,0,0,1,0-1.43,5.46,5.46,0,0,1,2.78,0"/><path class="cls-4" d="M1013.74,192.67l0,8.8c0,.68,0,1.36,0,2,0,.95-.51,1.48-1.5,1.4-.83-.07-1.14-.65-1.16-1.39,0-1.58,0-3.16,0-4.74l0-6.1a5.46,5.46,0,0,1,2.78,0"/><path class="cls-4" d="M1017.14,192.67c0,2.94,0,5.87,0,8.8,0,.68,0,1.36,0,2-.05.95-.52,1.48-1.5,1.39s-1.15-.64-1.16-1.38c0-1.58,0-3.16,0-4.74,0-2,0-4.07,0-6.1a5.42,5.42,0,0,1,2.77,0"/><path class="cls-4" d="M1020.54,192.67c0,2.94,0,5.87,0,8.8,0,.68,0,1.36,0,2,0,.95-.51,1.48-1.5,1.39a1.23,1.23,0,0,1-1.16-1.39c0-3.61,0-7.22-.05-10.83a5.38,5.38,0,0,1,2.76,0"/><path class="cls-4" d="M1023.94,192.67c0,2.94,0,5.87,0,8.8,0,.68,0,1.36,0,2,0,.95-.51,1.48-1.49,1.39a1.22,1.22,0,0,1-1.16-1.39c0-3.61,0-7.22,0-10.83a5.34,5.34,0,0,1,2.75,0"/><path class="cls-4" d="M1027.34,192.67c0,2.93,0,5.87,0,8.8,0,.68,0,1.36,0,2,0,.95-.51,1.47-1.5,1.39-.83-.07-1.14-.65-1.16-1.39,0-1.58,0-3.16,0-4.74,0-2,0-4.06,0-6.09a5.34,5.34,0,0,1,2.75,0"/><path class="cls-4" d="M1030.75,192.67c0,2.93,0,5.87,0,8.8,0,.68,0,1.36,0,2,0,.94-.51,1.47-1.49,1.39a1.22,1.22,0,0,1-1.16-1.39c0-1.58,0-3.16,0-4.74,0-2,0-4.06,0-6.09a5.34,5.34,0,0,1,2.75,0"/><path class="cls-4" d="M1034.15,192.67c0,2.93,0,5.87,0,8.8,0,.68,0,1.36,0,2,0,.94-.51,1.47-1.5,1.39-.84-.07-1.14-.65-1.16-1.39,0-1.58,0-3.16,0-4.74,0-2,0-4.06,0-6.09a5.34,5.34,0,0,1,2.75,0"/><path class="cls-4" d="M1037.56,192.67c0,2.93,0,5.87,0,8.8,0,.68,0,1.36,0,2,0,.94-.51,1.47-1.5,1.39-.83-.07-1.14-.65-1.15-1.39,0-1.58,0-3.16,0-4.74,0-2,0-4.06,0-6.09a5.34,5.34,0,0,1,2.75,0"/><path class="cls-4" d="M674.66,604.65c2.59.34,2.63.34,2.66,2.68,0,3.14,0,6.29,0,9.43l-2.59.12a80.53,80.53,0,0,1,0-12.23"/><path class="cls-4" d="M672.54,512q0-6.45,0-12.9a5.45,5.45,0,0,1,2.72,0,26,26,0,0,1,0,12.87,6.24,6.24,0,0,1-2.72,0"/><path class="cls-4" d="M755,414.65c0,.59.63.72.64,1.57.06,3.78-.52,7.56,0,11.34a6.87,6.87,0,0,1-2.71,0c.19-4.3.26-8.6,0-12.9a3.23,3.23,0,0,1,2.06,0"/><path class="cls-4" d="M675.26,512c-.74-3,.21-5.95-.07-9-.11-1.2-.69-2.65.11-3.91a3.58,3.58,0,0,1,2.05,0,17.38,17.38,0,0,1,0,12.9,3.89,3.89,0,0,1-2.06,0"/><path class="cls-4" d="M1089.28,378.73c2-.4,2.41,1,2.32,2.39-.22,3.47.28,6.9.4,10.35a19.36,19.36,0,0,1-4.75,0c2.62-1,2.37-3.33,2.33-5.47,0-2.42-.2-4.84-.3-7.26"/><path class="cls-4" d="M712.81,366.53c0-11.6,0-23.19-.09-34.79,0-1.18.45-2.5-.66-3.5a4.72,4.72,0,0,1,1.33-2.79c0,10.86,0,21.72,0,32.58,0,1.19-.44,2.51.62,3.55a13.88,13.88,0,0,1-1.24,4.95"/><path class="cls-4" d="M712.06,481.42c1.11-1,.65-2.32.66-3.51.06-11.6.07-23.2.09-34.81a14.52,14.52,0,0,1,1.23,5c-1,1-.6,2.35-.61,3.54q-.06,16.31,0,32.59a4.47,4.47,0,0,1-1.32-2.79"/><path class="cls-4" d="M677.29,457.49l-2,0c-1.92-2.43-.6-5.22-.87-7.82-.18-1.63.27-3.47-1.77-4.32a1.82,1.82,0,0,1,0-.52,9.2,9.2,0,0,1,3.43,0c.84.26,2.07.37,2.07,1.37,0,3.78,1.21,7.67-.82,11.3"/><path class="cls-4" d="M677.29,484.05l-2,0c-1.92-2.42-.6-5.21-.87-7.82-.18-1.63.27-3.46-1.77-4.31a1.81,1.81,0,0,1,0-.52,9,9,0,0,1,3.43,0c.84.26,2.07.37,2.07,1.37,0,3.78,1.21,7.67-.82,11.31"/><path class="cls-4" d="M979.67,582.19c.94,1.51.63,3.2.67,4.84,0,1.87.06,3.75.09,5.62a3.29,3.29,0,0,1-2.14,1.1,21.91,21.91,0,0,1,0-11.56Z"/><path class="cls-4" d="M835.29,475.22a3.23,3.23,0,0,0,1.41-2.81,52.54,52.54,0,0,1,0-6.64,3,3,0,0,0-2-3.3l2-.13c1.31-.06,1.78.66,1.78,1.87,0,2.7,0,5.4,0,8.09,0,3,0,3-3.2,2.92"/><path class="cls-4" d="M807.42,414.67l-.06,12.89a6.69,6.69,0,0,1-2.71,0c.24-.24.73-.58.68-.7-1.18-2.87.55-5.6.37-8.43-.09-1.39-1.57-2.32-1-3.8a5,5,0,0,1,2.72,0"/><path class="cls-4" d="M1062.74,352.18c1.47-.23,2.07.4,2,1.87,0,3.62,0,7.24,0,10.86l-.32.07-.33-.06a.49.49,0,0,0-.7,0,10.27,10.27,0,0,1-3.41,0,.69.69,0,0,1,.06-.84,4,4,0,0,1,.76-.53c1.76-1.32,1.09-3.29,1.26-5,.22-2.12-.37-4.32.66-6.36"/><path class="cls-4" d="M1062.74,325.63c1.47-.23,2.07.4,2,1.87,0,3.62,0,7.24,0,10.86l-.32.07-.33-.06a.51.51,0,0,0-.7,0,10,10,0,0,1-3.41,0,.69.69,0,0,1,.06-.84,4,4,0,0,1,.76-.54c1.76-1.32,1.09-3.28,1.26-5,.22-2.12-.37-4.32.66-6.36"/><path class="cls-4" d="M832.66,462.49c.36.55,1.2.79,1.21,1.53,0,3.12.06,6.24,0,9.36,0,1.26-1.09,1.18-2,1.2-1.4-1.74-.84-3.81-1-5.76s.31-4-1-5.76l0,0c-.21-.14-.27-.27-.19-.38a.33.33,0,0,1,.25-.15,6.63,6.63,0,0,1,2.77,0"/><path class="cls-4" d="M677.29,457.49c.51-3.57,0-7.18.33-10.76.12-1.24-1.15-1.2-1.58-1.91h2.05a3,3,0,0,1,1.31,2.52c-.09,2.79-.06,5.58,0,8.37,0,1.52-.73,2-2.09,1.79"/><path class="cls-4" d="M677.29,484.05c.51-3.58,0-7.19.33-10.77.12-1.24-1.15-1.2-1.58-1.91h2.05a3,3,0,0,1,1.31,2.53c-.09,2.78-.06,5.57,0,8.36,0,1.52-.73,2-2.09,1.8"/><path class="cls-4" d="M677.32,512c.64-2.85.21-5.75.24-8.6,0-1.39.45-2.91-.21-4.3a3.86,3.86,0,0,1,2,0l-.06,12.9h-2"/><path class="cls-4" d="M767.83,336.27c0,8.39,0,16.77.08,25.16,0,1.19-.44,2.51.61,3.55a8.87,8.87,0,0,1-1.23,3.6c0-8.89,0-17.77-.1-26.66,0-1.18.45-2.51-.68-3.49a3.49,3.49,0,0,1,1.32-2.16"/><path class="cls-4" d="M723,473.92c-1.14,1-.68,2.3-.69,3.47-.06,7.75-.06,15.49-.09,23.23a3.84,3.84,0,0,1-1.31-2.17c1.13-1,.67-2.31.68-3.49.07-8,.09-16,.12-24a5.33,5.33,0,0,1,1.29,3"/><path class="cls-4" d="M722.21,309c0,7.74,0,15.48.08,23.22,0,1.18-.45,2.5.69,3.48a5.24,5.24,0,0,1-1.29,2.95c0-8-.05-16-.12-24,0-1.19.45-2.51-.67-3.5a3.39,3.39,0,0,1,1.31-2.17"/><path class="cls-4" d="M1060,337.77c0,.19,0,.39,0,.59-6.07.36-6.1.35-6.06-5.79a37.87,37.87,0,0,1,.21-7.06,1.76,1.76,0,0,0,.44.15c1.65,2.34.74,5,.93,7.53.13,1.76.1,3.48,2.48,3.65a2.88,2.88,0,0,1,2,.93"/><path class="cls-4" d="M1060,364.32c0,.2,0,.39,0,.59-6.07.36-6.1.36-6.06-5.79a37.87,37.87,0,0,1,.21-7.06,2.32,2.32,0,0,0,.44.16c1.65,2.34.74,5,.93,7.53.13,1.76.1,3.47,2.48,3.64a2.88,2.88,0,0,1,2,.93"/><path class="cls-4" d="M1085.25,205.59c3.15-1.22,6.43-.33,9.64-.57a2.77,2.77,0,0,1,2.54.57,115.08,115.08,0,0,1-12.18,0"/><path class="cls-4" d="M1079.12,205.59a5.47,5.47,0,0,1,5.37,0,23,23,0,0,1-5.37,0"/><path class="cls-4" d="M880.94,205c0,.2,0,.4-.05.59h-4c1.24-1.09,2.72-.4,4.09-.59"/><path class="cls-4" d="M938.24,357.45c-.78-.44-2.3-.32-1.47-2a2.91,2.91,0,0,1,1.47,2"/><path class="cls-4" d="M1026.05,384.08c1,1,.48,2.31.56,3.49a5.68,5.68,0,0,1-.56-3.49"/><path class="cls-4" d="M826.55,474.61h2.62a.46.46,0,0,1,.72,0c0,.19,0,.38,0,.57-1.12-.08-2.4.71-3.29-.61"/><path class="cls-4" d="M722.28,264.3a1.77,1.77,0,0,1-1.67,1.88,3.92,3.92,0,0,1,1.67-1.88"/><path class="cls-4" d="M936.11,489c0-1.41,1-1.45,2-1.43a3.34,3.34,0,0,1-2,1.43"/><path class="cls-4" d="M1071.62,205.6a1.71,1.71,0,0,1,2.66,0h-2.66"/><path class="cls-4" d="M964.45,490.82c.4.2.73.49.31.9s-.69.07-.89-.33a.67.67,0,0,1,.58-.57"/><path class="cls-4" d="M918.41,343.1c-.87.93-1,0-1.37-.52a1.29,1.29,0,0,1,1.37.52"/><path class="cls-4" d="M829.89,462.49c0,.18,0,.35,0,.53a1.34,1.34,0,0,1-1.29-.52h1.34"/><path class="cls-4" d="M925.06,429.73c.63-.05,1.19,0,1.46.73a1.73,1.73,0,0,1-1.46-.73"/><path class="cls-4" d="M785,427.56l.29-.83c.34.19.29.51.3.82l-.3.08Z"/><path class="cls-4" d="M824.41,213.81a1.25,1.25,0,0,1,1.46-.52,1.36,1.36,0,0,1-1.46.52"/><path class="cls-4" d="M994.57,443.77a1.4,1.4,0,0,1-.6,1.56,1.75,1.75,0,0,1,.6-1.56"/><path class="cls-4" d="M793.05,211.77c-.29.63-.84.7-1.44.65a1.56,1.56,0,0,1,1.44-.65"/><path class="cls-4" d="M995.25,441.84a1.33,1.33,0,0,1-.55,1.44,1.41,1.41,0,0,1,.55-1.44"/><path class="cls-4" d="M917.65,485.65a1.32,1.32,0,0,1-1.37.47,1.37,1.37,0,0,1,1.37-.47"/><path class="cls-4" d="M920.41,343.87a1.31,1.31,0,0,1-1.31-.56,1.29,1.29,0,0,1,1.31.56"/><path class="cls-4" d="M926.59,399.2c-.07.56-.27,1-.9,1.13a1.55,1.55,0,0,1,.9-1.13"/><path class="cls-4" d="M916.26,354.13a1.34,1.34,0,0,1,1.42.69,1.58,1.58,0,0,1-1.42-.69"/><path class="cls-4" d="M938.11,470.52a1.18,1.18,0,0,1-.79,1.31,1.58,1.58,0,0,1,.79-1.31"/><path class="cls-4" d="M945.63,607.29a1.35,1.35,0,0,1,1.41-.53,1.34,1.34,0,0,1-1.41.53"/><path class="cls-4" d="M938.13,487.54l.75-.64a.8.8,0,0,1-.75.64"/><path class="cls-4" d="M945.58,432.4l-.62-.71a.76.76,0,0,1,.62.71"/><path class="cls-4" d="M945,481a1,1,0,0,1,.68-.88,1.11,1.11,0,0,1-.68.88"/><path class="cls-4" d="M936.76,472.59l-.5.62a.57.57,0,0,1,.5-.62"/><path class="cls-4" d="M928.63,410.71a.9.9,0,0,1,.8-.68.88.88,0,0,1-.8.68"/><path class="cls-4" d="M1098.17,205.59c.19-.33.4-.36.63,0l-.31.11Z"/><path class="cls-4" d="M722.93,263.56l-.59.67a.63.63,0,0,1,.59-.67"/><path class="cls-4" d="M927.23,398.4l-.53.65a.62.62,0,0,1,.53-.65"/><path class="cls-4" d="M937.37,471.78a.94.94,0,0,1-.59.78.79.79,0,0,1,.59-.78"/><path class="cls-4" d="M927.86,397.59a.91.91,0,0,1-.6.76.81.81,0,0,1,.6-.76"/><path class="cls-4" d="M829.88,386.92c0,.17,0,.34,0,.52l-.62-.51h.66"/><path class="cls-4" d="M1063.41,338.36c.24-.34.47-.34.7,0h-.7"/><path class="cls-4" d="M1023.13,369.11c.45.13.64.31.14.65a.72.72,0,0,1-.14-.65"/><path class="cls-4" d="M1063.41,364.92c.24-.35.47-.35.7,0h-.7"/><path class="cls-4" d="M468.31,827c-.68-10.56-5.35-18.78-14.52-24.3-.86-.52-1.74-1-2.76-1.61,1.32-.92,2.54-1.71,3.7-2.58a20.72,20.72,0,0,0,8-11.14c3.69-13.07-.12-28.23-14.86-35.72A44.7,44.7,0,0,0,427.51,747c-18.83-.11-37.65-.06-56.48-.07-2.74,0-2.77,0-2.77,2.75q0,56.29,0,112.58c0,2.91,0,2.94,3,2.94,18.38,0,36.75.08,55.12,0,7.26-.05,14.45-.85,21.26-3.77,9.95-4.28,16.83-11.27,19.64-21.92a38.83,38.83,0,0,0,1-12.48M400.1,775.48c-.06-2,.84-2.2,2.42-2.17,3.39.07,6.79,0,10.19,0,2.94,0,5.89,0,8.83,0a21,21,0,0,1,3.72.27c4.85.93,7.53,3.94,7.68,8.51.16,5-2.07,8.11-7,9.44a17.8,17.8,0,0,1-4.36.57c-6.46.06-12.91,0-19.37.06-1.61,0-2.16-.46-2.13-2.12.1-4.87.14-9.74,0-14.6m25.44,62.85c-4,.26-7.93,0-11.9,0v.09c-3.86,0-7.72-.05-11.57,0-1.47,0-2-.48-1.95-2,.07-6.46,0-12.93,0-19.39,0-1.2.25-1.94,1.67-1.91,8.27.22,16.56-.53,24.81.43,5.76.67,9.2,4.26,9.75,9.62.78,7.57-3.22,12.53-10.83,13"/><path class="cls-4" d="M912,863.2,887.9,822.92C886,819.8,886,819.8,889,818a34.18,34.18,0,0,0,14.6-16.53,39.82,39.82,0,0,0,2.59-18c-.72-12-6-21.45-15.59-28.54-7.89-5.84-17-7.8-26.6-7.89-17.82-.16-35.63-.07-53.45-.08-2.92,0-2.92,0-3,3v111.3c0,.69,0,1.37,0,2-.1,1.45.52,2,2,2,2-.08,4.09,0,6.13,0,7.38,0,14.75,0,22.13,0,2.38,0,2.4-.06,2.45-2.48,0-1.7,0-3.41,0-5.11,0-10.1,0-20.2,0-30.29,0-2.65.06-2.67,2.58-2.7s5.24.15,7.83,0c2.14-.17,3.22.72,4.22,2.49,6.75,11.93,13.64,23.78,20.37,35.73a4.17,4.17,0,0,0,4.24,2.47c8.51-.11,17,0,25.54,0h8c-.59-1.07-.84-1.56-1.12-2m-48.18-65a22.07,22.07,0,0,1-3.71.42c-5.78.05-11.56,0-17.34.05-1.67,0-2.47-.3-2.44-2.21q.13-9.86,0-19.72c0-1.74.73-2.08,2.25-2,3.4.08,6.8,0,10.2,0v.09c3.29,0,6.59-.19,9.86,0,4.22.31,8,1.66,10,5.84,3.78,7.83-.34,15.95-8.86,17.51"/><path class="cls-4" d="M680.51,776.47c-7-15.68-19.49-25.58-36.22-29.84a66.89,66.89,0,0,0-26.66-1c-14.18,2.14-25.84,8.7-34.62,20.11-9.21,12-12.87,25.77-13,40.66a70.42,70.42,0,0,0,4.18,24.32c6.34,16.86,17.53,28.92,35,34.4a64.34,64.34,0,0,0,30.91,1.75c17.77-3.18,31.3-12.56,39.39-28.67,10.17-20.23,10.27-41.14,1-61.69m-29.77,49.32c-5.7,13.77-21.45,19.41-34.14,12.11-6.23-3.59-9.8-9.36-11.75-16.06a54.53,54.53,0,0,1,.17-31.48,39.41,39.41,0,0,1,3.12-7.14c8.33-15.66,32.14-15.67,40.69-.25A45,45,0,0,1,654.21,804c0,9.12-.92,15.58-3.47,21.75"/><path class="cls-4" d="M1032.72,790.24C1028.55,772,1018.66,758,1001.37,750c-11.31-5.24-23.31-6.18-35.57-4.45-19.2,2.71-33.24,12.91-41.49,30.29-9.47,19.94-9.43,40.4-.3,60.46,6.5,14.27,17.41,24.18,32.61,28.81a64.82,64.82,0,0,0,36.21.59,52.6,52.6,0,0,0,32-23.63c6.83-10.87,9.55-22.87,9.5-36.86a64.16,64.16,0,0,0-1.6-14.94M998,826.14c-3.41,7.53-8.83,12.72-17.27,14.37a23.26,23.26,0,0,1-24.86-10.69,36.35,36.35,0,0,1-5.18-15.32c-1.17-10.39-.58-20.55,4.26-30.15,6.56-13,20.43-15,30.39-11.1,5.21,2.06,8.81,5.84,11.41,10.67,3.81,7.09,5,14.74,4.81,22.92a43.94,43.94,0,0,1-3.56,19.3"/><path class="cls-4" d="M1042.31,467.8c.09.05.27.12.27.15,0,.23-.15.18-.27-.14h0"/><path class="cls-4" d="M927.08,969c-.27-6.59-3.36-11.38-9.33-14.24a5,5,0,0,1-2.08-1.22c.45-.33.9-.67,1.37-1,8.91-6,7.91-18.5.49-24.19a16.61,16.61,0,0,0-10-3.77c-6.8-.08-13.6-.1-20.4-.1-3.78,0-4.58.81-4.62,4.59,0,4.2,0,8.39,0,12.58q0,21.09,0,42.16c0,3.92.87,4.76,4.81,4.77,7.14,0,14.28.11,21.42,0A18.62,18.62,0,0,0,927.08,969m-36.24-38.28c5.44.06,10.9-.2,16.32.12,7.67.45,11.82,7,9.1,14a9.61,9.61,0,0,1-9,6.27c-5.54.32-11.1.08-16.66.13-1.22,0-1.54-.53-1.52-1.65,0-2.83,0-5.67,0-8.5s0-5.67,0-8.5c0-1.27.36-1.84,1.72-1.82m19.94,51.18a12.59,12.59,0,0,1-2.34.4c-2.94,0-5.88,0-8.82,0v0c-2.83,0-5.66,0-8.48,0-1.41,0-2-.38-2-1.91.06-7.13,0-14.25,0-21.38,0-1,.25-1.75,1.49-1.72,6.55.21,13.13-.55,19.65.48,6.2,1,10,5.3,10.21,11.23.19,6.65-3.47,11.48-9.7,12.82"/><path class="cls-4" d="M840.53,984.47a13.26,13.26,0,0,0-.77-1.88L819.3,934.12c-1.06-2.5-2.1-5-3.18-7.5a3.37,3.37,0,0,0-6.15-.17c-.19.4-.37.82-.55,1.23Q797.89,955,786.36,982.41a6,6,0,0,0-.85,2.84,3.15,3.15,0,0,0,3.76,3.37,3.19,3.19,0,0,0,2.63-2.33c1.45-3.56,3-7.08,4.4-10.67.55-1.43,1.16-2.18,2.89-2.16q13.77.13,27.56,0a2.74,2.74,0,0,1,3,2.09c1.16,3.06,2.43,6.09,3.67,9.12a16.22,16.22,0,0,0,1.17,2.45,3.3,3.3,0,0,0,6-2.65m-40.85-16.9L813,935.33l13.35,32.24Z"/><path class="cls-4" d="M796.48,604.68q13.59,0,27.19,0c3.43,0,3.45,0,3.46,3.3,0,2.94,0,5.89-.06,8.83l-32,0c-.09-.83,1.44-1.35.33-2.49-.42-.43.82-.85,1-1.46-2.11-.52-2-.54-.74-2.28.56-.76,1.14-1.87-.16-2.83-1.45-1.08-1.38-1.15.3-2.24.26-.16.4-.52.59-.79"/><path class="cls-4" d="M714.81,616.76c0-3.16-.06-6.32,0-9.48,0-2.46.13-2.59,2.42-2.61q8.81-.07,17.6,0c2.3,0,2.39.15,2.43,2.61,0,3.15,0,6.31,0,9.47h-22.4"/><path class="cls-4" d="M684.85,616.76c0-3.16-.06-6.32,0-9.48,0-2.46.13-2.59,2.42-2.61q8.81-.07,17.61,0c2.29,0,2.38.15,2.41,2.61.05,3.16,0,6.32,0,9.48h-22.4"/><path class="cls-4" d="M834.66,616.8c0-3.27,0-6.55-.06-9.82,0-1.78.72-2.4,2.42-2.34,2.14.07,4.29,0,6.44,0l0,0a.86.86,0,0,0,1.32,0h2a16.58,16.58,0,0,1,0,12.12H834.66"/><path class="cls-4" d="M848.24,604.68c2.27,0,4.54,0,6.8,0,1.42,0,2.08.56,2.06,2q-.06,4.08,0,8.16c0,1.43-.56,2.09-2,2-2.27-.06-4.54-.06-6.81-.08-1-4-1.64-8.08,0-12.12"/><path class="cls-4" d="M864.58,610.52c.12-6.73-1-5.77,5.95-5.86a10.48,10.48,0,0,1,2,.08,1.2,1.2,0,0,1,1.12,1.38,53.16,53.16,0,0,0,0,9,1.56,1.56,0,0,1-1.66,1.74h-.34c-6.91.8-7.12.61-7.12-6.36"/><path class="cls-4" d="M887,611.05c-.1,6.67,1.08,5.78-5.95,5.82-2.8,0-2.82,0-2.87-2.83,0-2.36,0-4.73,0-7.09,0-1.51.43-2.36,2.1-2.3s3.38,0,5.07,0a1.47,1.47,0,0,1,1.67,1.64v4.73"/><path class="cls-4" d="M758.38,616.76c0-3.26,0-6.52,0-9.79-.05-1.77.71-2.36,2.41-2.33,7.8.12,6.3-.84,6.45,6,0,2,0,4.05,0,6.08h-8.81"/><path class="cls-4" d="M744.76,616.76c0-3.15,0-6.31,0-9.46,0-2.54.1-2.64,2.73-2.63,7.29,0,6-.86,6.11,6,0,2,0,4.06,0,6.08h-8.81"/><path class="cls-4" d="M738,616.76c0-3.37,0-6.74,0-10.11,0-.93.07-1.88,1.35-1.88s1.35,1,1.35,1.88c0,3.37,0,6.74,0,10.11H738"/><path class="cls-4" d="M771.32,616.74c0-3.36,0-6.73,0-10.09,0-.93.07-1.88,1.35-1.88s1.35.94,1.35,1.87c0,3.37,0,6.73,0,10.1h-2.68"/><path class="cls-4" d="M741.36,616.76c0-3.37,0-6.74,0-10.11,0-.93.07-1.88,1.35-1.88s1.35,1,1.35,1.88c0,3.37,0,6.74,0,10.11h-2.68"/><path class="cls-4" d="M767.92,616.75q0-5.06,0-10.1c0-.93.08-1.88,1.35-1.88s1.35,1,1.35,1.88c0,3.36,0,6.73,0,10.1h-2.67"/><path class="cls-4" d="M827.85,616.81c0-3.39,0-6.77,0-10.15,0-.94.07-1.9,1.36-1.9s1.35,1,1.35,1.9c0,3.38,0,6.76,0,10.14h-2.65"/><path class="cls-4" d="M831.25,616.81q0-5.09,0-10.15c0-.94.07-1.89,1.35-1.9s1.35,1,1.35,1.89c0,3.39,0,6.77,0,10.15h-2.66"/><path class="cls-4" d="M863.88,611c0,1.46,0,2.92,0,4.38,0,.94-.49,1.47-1.48,1.4a1.2,1.2,0,0,1-1.17-1.36c0-3.15,0-6.29,0-9.44a1.18,1.18,0,0,1,1.3-1.23,1.16,1.16,0,0,1,1.31,1.2c0,1.68,0,3.37,0,5h0"/><path class="cls-4" d="M857.8,610.54c0-1.46,0-2.93,0-4.39a1.25,1.25,0,0,1,1.48-1.39,1.21,1.21,0,0,1,1.17,1.37q0,4.71,0,9.44a1.17,1.17,0,0,1-1.3,1.22,1.16,1.16,0,0,1-1.31-1.2c-.05-1.68,0-3.37,0-5.05Z"/><path class="cls-4" d="M678,616.76q0-5.06,0-10.11c0-.94.07-1.89,1.35-1.89s1.35,1,1.35,1.89q0,5.05,0,10.11H678"/><path class="cls-4" d="M681.45,616.76c0-3.37,0-6.74,0-10.11,0-.94.08-1.89,1.36-1.89s1.34,1,1.35,1.89c0,3.37,0,6.74,0,10.11h-2.65"/><path class="cls-4" d="M708,616.76q0-5.06,0-10.11c0-.94.07-1.89,1.35-1.89s1.35,1,1.35,1.89q0,5.05,0,10.11H708"/><path class="cls-4" d="M711.41,616.76c0-3.37,0-6.74,0-10.11,0-.94.08-1.89,1.36-1.89s1.35,1,1.35,1.89c0,3.37,0,6.74,0,10.11h-2.65"/><path class="cls-4" d="M876.75,610.84c0,1.68,0,3.36,0,5a.85.85,0,0,1-.89.82.84.84,0,0,1-.92-.78c0-3.36-.06-6.72,0-10.08a.89.89,0,0,1,1.08-1,.87.87,0,0,1,.8.92c0,1.68,0,3.36,0,5h0"/><path class="cls-4" d="M755,616.76q0-4.54,0-9.09a16.81,16.81,0,0,1,.11-2,.87.87,0,0,1,.91-.81.86.86,0,0,1,.9.81c.07,1.68.1,3.36.11,5,0,2,0,4,0,6.06h-2"/><path class="cls-4" d="M848.24,604.68c-.24.62-.75,1.17-.59,1.89.79,3.38.28,6.83.63,10.23h-1.43l0-12.12h1.36"/><path class="cls-4" d="M844.83,604.68c-.44.65-.88.69-1.32,0h1.32"/><path class="cls-4" d="M859.8,423.4h-8.91c-1.81-3.33-2.52-6.66,0-10h9.54c0,3.34,1.6,6.78-.66,10"/><path class="cls-4" d="M850.92,339.22h8.89c1.45,3.32,1.74,6.65,0,10h-8.9c-1.81-3.32-2.52-6.65,0-10"/><path class="cls-4" d="M797.17,220.66c2.24,0,1.51,1.58,1.43,2.79l0,0a4,4,0,0,1-1.41-2.81"/><path class="cls-4" d="M793.77,222c1,0,2,0,2,1.36-.71-.4-1.57-.59-2-1.36Z"/><path class="cls-4" d="M796.55,220.9c-.27.12-.51,0-.52-.22a.64.64,0,0,1,.35-.49c.38-.11.62.16.79.47l-.62.24"/><polygon class="cls-4" points="795.81 223.38 796.09 223.54 795.97 223.66 795.81 223.38"/><polygon class="cls-4" points="793.09 216.57 793.24 216.29 793.37 216.42 793.09 216.57"/><path class="cls-4" d="M726.12,272.14l-.3.47a8,8,0,0,1-.69-.6c-.26-.28-.18-.4.18-.26s.54.26.81.39"/><path class="cls-4" d="M724.31,277.17a1.39,1.39,0,0,1,1.36.68,1.39,1.39,0,0,1-1.36-.68"/><polygon class="cls-4" points="724.99 271.72 724.71 271.57 724.84 271.44 724.99 271.72"/><polygon class="cls-4" points="725.67 277.85 725.96 278 725.83 278.13 725.67 277.85"/><path class="cls-4" d="M936.77,359.55c-.1-.05-.28-.12-.27-.15,0-.23.15-.17.27.15"/><polygon class="cls-4" points="931.32 362.27 931.47 361.99 931.6 362.12 931.32 362.27"/><polygon class="cls-4" points="936.77 394.95 936.61 395.24 936.48 395.11 936.77 394.95"/><path class="cls-4" d="M937.45,394.27l-.68.68.68-.68"/><path class="cls-4" d="M938.13,393.59l-.68.68.68-.68"/><polygon class="cls-4" points="937.45 382.02 937.29 382.3 937.17 382.17 937.45 382.02"/><path class="cls-4" d="M937.45,367.72c-.1-.05-.28-.12-.27-.15C937.23,367.34,937.33,367.4,937.45,367.72Z"/><path class="cls-4" d="M997.18,533a3.7,3.7,0,0,1,.89.28c.16.09,0,.36-.2.28a3.06,3.06,0,0,1-.74-.53l0,0"/><path class="cls-4" d="M997.83,537.64c.13.27.06.44-.21.48,0,0-.15-.15-.18-.25a6.18,6.18,0,0,1-.07-.62l.46.39"/><path class="cls-4" d="M997.76,536.1c.27-.12.44-.05.48.22,0,0-.15.15-.25.17a4.2,4.2,0,0,1-.62.08l.39-.47"/><path class="cls-4" d="M998.3,541.14c.09.05.25.13.24.16a1.34,1.34,0,0,1-.23.55c-.25.29-.36.22-.24-.15.06-.19.15-.37.23-.56"/><path class="cls-4" d="M996.69,536.57h.68v.68l-.68-.68"/><path class="cls-4" d="M998.05,542l-.68.68Z"/><path class="cls-4" d="M996.69,543.38c.23-.23.45-.46.68-.68-.23.22-.45.45-.68.68"/><polygon class="cls-4" points="998.05 544.74 998.21 544.46 998.33 544.58 998.05 544.74"/><path class="cls-4" d="M939.4,443.38l.31-.3-.31.31h0"/><path class="cls-4" d="M859.8,423.4c.11-2,1.21-4-.14-6,1.2-1.13.28-2.69.8-4h14.27c-.41,2.41.24,4.81,0,7.21-.09,1,.24,2-.67,2.77H859.8"/><path class="cls-4" d="M874.08,423.41c-.56-2.84.68-5.83-.92-8.64-.46-.82,1.31-.54,1.57-1.34H885c2,2.49.13,5.13.28,7.68-.07.24-.41.33-.38.64a.51.51,0,0,1,.73-.25,1.19,1.19,0,0,1,0,1.93l-11.57,0"/><path class="cls-4" d="M885,421.51c-.65-2.07-.07-4.13.15-6.17a3,3,0,0,0-.14-1.91c3.05,0,6.1-.07,9.15-.07,1.17,0,2.26.12.56,1.35,1.81,2.75-.87,5.8.62,8.66-3.26-.06-6.47.39-9.69.06,0-.72.12-1.47-.65-1.92Z"/><path class="cls-4" d="M906.8,418.1c0,.1-.12.28-.15.27-.22-.05-.17-.15.16-.27Z"/><path class="cls-4" d="M859.78,499h-9.56c-1.31-2.73-.62-5.59-.54-8.41,0-.73.84-1,1.2-1.5h8.29a1.68,1.68,0,0,1,1.22,1.78c-.1,2.71.07,5.46-.61,8.13"/><path class="cls-4" d="M859.78,499c-1.11-2.43-.28-5-.18-7.41a4.41,4.41,0,0,0-.43-2.5h14.29c2.8,1,2.87,3.6,2.88,5.81a7,7,0,0,1-.91,4.13Z"/><path class="cls-4" d="M875.43,499a13.5,13.5,0,0,1,.06-4,6.47,6.47,0,0,0-2-5.93h15a2.58,2.58,0,0,1,1.59,2.08,2.89,2.89,0,0,1,.08.88c-.16.82-.41,1.63-.52,2.47a4.49,4.49,0,0,1-.29.8c-.16,1.28.42,2.75-.92,3.74l-12.94,0"/><path class="cls-4" d="M889.1,495a3.13,3.13,0,0,1,.68-3.41h0c-.92-.62-.67-1.84-1.35-2.59,2.94,0,5.88-.13,8.81-.09,2.2,0,2.22.13,2.13,2.27-.12,2.55.49,5,.7,7.78H889.69l-.25-.17-.25.17h-.82c.06-1.25.52-2.42-.32-3.76-.45-.72.65-.19,1.05-.21Z"/><path class="cls-4" d="M889.19,499c.17-.31.33-.31.5,0l-.25,0Z"/><path class="cls-4" d="M962.64,493.68c.05-.1.13-.28.15-.27.23,0,.18.15-.15.27Z"/><polygon class="cls-4" points="964.68 493.68 964.84 493.39 964.97 493.52 964.68 493.68"/><path class="cls-4" d="M964.68,493.68v.68c-.46-.23-.46-.46,0-.68"/><path class="cls-4" d="M918.38,409.25c0,.1-.12.28-.15.27-.23,0-.17-.16.15-.27Z"/><path class="cls-4" d="M917.7,422.87c-.05.09-.12.27-.15.27-.23-.05-.17-.16.15-.27Z"/><path class="cls-4" d="M917.7,422.87c0-.09.12-.27.15-.27.23,0,.17.16-.15.27Z"/><path class="cls-4" d="M859.79,349.19c-.49-1.86,1.43-3.89-.39-5.69a1,1,0,0,1,.16-.91c1.23-1.06.46-2.23.25-3.37h14.92a12.64,12.64,0,0,0,0,4.63,6.58,6.58,0,0,1-1.42,5.35H859.79"/><path class="cls-4" d="M885,339.23h10.13c.46.6-1.07,1.37.11,1.94v.21l.19-.1-.18-.11,2-1.91c.57,2.49,0,5,0,7.46,0,1.4-1.63,2.55-3.41,2.57-3.16,0-6.31-.05-9.47-.08-1.48-3.45-1.63-6.8.7-10"/><path class="cls-4" d="M885,339.23c-1,3.28-.54,6.65-.7,10H873.36c0-2.17,1.4-4.23.47-6.47-.12-.28.17-.84,0-1-1.76-1.6.14-1.86.89-2.54H885"/><path class="cls-4" d="M962,557.66c.09.06.26.14.26.18-.06.21-.18.16-.3-.16l0,0"/><path class="cls-4" d="M960.63,558.35c.08.06.26.14.25.17-.06.22-.18.16-.3-.15l0,0"/><polygon class="cls-4" points="962.64 563.12 962.8 562.84 962.92 562.97 962.64 563.12"/><polygon class="cls-4" points="962.64 563.12 962.49 563.4 962.36 563.28 962.64 563.12"/><path class="cls-4" d="M962,569.25l.68.68Z"/><path class="cls-4" d="M962.64,569.93c.46.23.46.45,0,.68Z"/><polygon class="cls-4" points="962.64 570.61 962.49 570.89 962.36 570.77 962.64 570.61"/><path class="cls-4" d="M865.27,279.89V274c.9,3.11.88,3.66,0,5.94Z"/><path class="cls-4" d="M909.53,287.38c.09.05.27.12.27.15,0,.23-.16.17-.27-.15Z"/><path class="cls-4" d="M812.75,291.36c.2.27.58.53.58.8,0,4.37,0,8.75,0,13.46-1.44-1.89-1.66-10.44-.62-14.24l0,0"/><path class="cls-4" d="M878.88,284.24c-1.81-1.21-.77-2.7-1.11-3.89,0-.12.42-.52.67-.55.47,0,.42.44.43.74,0,1.11,0,2.22,0,3.7"/><path class="cls-4" d="M877.54,272.93c1.88,1.23,1,2.42,1.23,3.38-.9-.8-.72-1.84-1.23-3.38"/><path class="cls-4" d="M945.62,507.29c.89,3.44,1,9.72.11,12.45-.18-.08-.52-.14-.53-.24a68.76,68.76,0,0,1-.13-11.39C945.08,507.83,945.43,507.56,945.62,507.29Z"/><path class="cls-4" d="M945.62,507.29c0-.48-.06-1-.08-1.44v0C946.19,506.29,946.39,506.77,945.62,507.29Z"/><path class="cls-4" d="M911.57,495.72c.1,0,.28.12.27.15-.05.23-.16.17-.27-.15Z"/><path class="cls-4" d="M918.38,346.61c-.08.3-.17.59-.25.88-.62-.49,0-.63.25-.88Z"/><path class="cls-4" d="M978.89,578.68a5.74,5.74,0,0,1,.91.31c.42.23.65.77.35,1-.54.49-.56-.29-.79-.52a4.49,4.49,0,0,1-.5-.82l0,0"/><polygon class="cls-4" points="978.3 582.19 978.02 582.03 978.15 581.9 978.3 582.19"/><polygon class="cls-4" points="979.66 582.19 979.82 581.9 979.95 582.03 979.66 582.19"/><polygon class="cls-4" points="925.19 347.98 925.03 348.26 924.91 348.13 925.19 347.98"/><path class="cls-4" d="M829.87,387.49c1.43.14,1.35,1.2,1.35,2.21,0,3.1,0,6.19,0,9.29h-1.35q0-5.75,0-11.49"/><path class="cls-4" d="M672.6,445.33c2.61.33,2.65.33,2.67,2.7,0,3.15,0,6.29,0,9.44h-2.68a58.05,58.05,0,0,0,0-12.15"/><path class="cls-4" d="M672.6,471.89c2.61.33,2.65.33,2.67,2.7,0,3.14,0,6.29,0,9.43h-2.68a58,58,0,0,0,0-12.14"/><path class="cls-4" d="M1081.15,378.76a10.42,10.42,0,0,1,3.39,0,15.91,15.91,0,0,1,0,12.14c-3.36-.1-3.37-.1-3.39-3.3,0-2.93,0-5.87,0-8.8"/><path class="cls-4" d="M1084.52,390.86a117,117,0,0,0,0-12.14h2c.73,3.34.08,6.72.27,10.08.09,1.64-.84,2.17-2.33,2.06"/><path class="cls-4" d="M1058,364.3c-3.36-.09-3.38-.09-3.39-3.29,0-2.93,0-5.87,0-8.8a10.71,10.71,0,0,1,3.39,0c1.38,4.05,1.89,8.09,0,12.13"/><path class="cls-4" d="M1058,364.3c.43-4-.11-8.09,0-12.13l2.65,0c1.27,4,.67,8.07.06,12.12H1060l-2,0"/><path class="cls-4" d="M1060.69,364.31c-.51-4-.14-8.08-.06-12.12h2.11c.43,3.52.07,7,0,10.56,0,1.44-1,1.6-2,1.57"/><path class="cls-4" d="M1058,337.75c-3.36-.09-3.38-.09-3.39-3.3,0-2.93,0-5.86,0-8.79a10.42,10.42,0,0,1,3.39,0c1.38,4,1.89,8.09,0,12.13"/><path class="cls-4" d="M1058,337.75c.43-4-.11-8.09,0-12.13l2.65,0c1.27,4,.67,8.07.06,12.11l-.67,0-2,0"/><path class="cls-4" d="M1060.69,337.75c-.51-4-.14-8.07-.06-12.11h2.11c.43,3.52.07,7,0,10.56,0,1.43-1,1.59-2,1.56"/><path class="cls-4" d="M829.89,474.65l-.72,0c.47-3.2.1-6.42.21-9.63a5.38,5.38,0,0,1,.49-1.91c1.67-.16,2.07.75,2,2.22-.06,3.1,0,6.2,0,9.3l-2,.07"/><path class="cls-4" d="M784.92,424.92a3.32,3.32,0,0,1,0-.63,8.24,8.24,0,0,1,.24-.85c.53.27.35.68.17,1-.08.17-.29.29-.44.43Z"/><path class="cls-4" d="M785.18,416.55c.08,0,.23.06.23.09a.81.81,0,0,1-.09.29c-.08,0-.23-.06-.23-.09a1.08,1.08,0,0,1,.09-.29"/><polygon class="cls-4" points="796.49 612.82 796.65 612.54 796.77 612.67 796.49 612.82"/><path class="cls-4" d="M885,421.51c-.08.29-.16.58-.25.88-.62-.5,0-.64.25-.88Z"/><path class="cls-4" d="M890,493.85c0-.1-.06-.19-.08-.29s.22-.09.24-.06c.19.25.12.38-.16.35"/><path class="cls-4" d="M889.1,495l.88.25c-.5.62-.64,0-.88-.25Z"/><path class="cls-4" d="M889.78,491.63c.05-.09.12-.27.15-.26.23.05.17.15-.15.26Z"/><path class="cls-4" d="M895.23,341.85v-.68h0c.27.09.37.26.26.48s-.17.13-.26.2Z"/><path class="cls-4" d="M895.23,341.85c-.05.09-.12.27-.15.27-.23-.05-.17-.16.15-.27Z"/></g></g></g></svg>