<svg id="Layer_1" data-name="Layer 1" xmlns="http://www.w3.org/2000/svg" xmlns:xlink="http://www.w3.org/1999/xlink" viewBox="0 0 1860 1160"><defs><style>.cls-1{fill:none;}.cls-2{clip-path:url(#clip-path);}.cls-3{clip-path:url(#clip-path-2);}.cls-4{fill:#a0a0a0;}.cls-5{fill:#848484;}</style><clipPath id="clip-path"><rect class="cls-1" x="149.49" y="437.45" width="1561.01" height="285.11"/></clipPath><clipPath id="clip-path-2"><rect class="cls-1" x="149.49" y="437.45" width="1561.01" height="285.11"/></clipPath></defs><title>art21-axoni</title><g id="TX0zFg.tif"><g class="cls-2"><g class="cls-3"><path class="cls-4" d="M471,437.45c-9.39,22.13-18.79,44.26-28.75,67.72-9.58-18.14-18.5-34.79-27.18-51.56-2.75-5.31-6.41-10.2-7.81-16.16Z"/><path class="cls-5" d="M1430.85,513.41c0,18.86,0,36.11,0,53.35q.06,50.07.2,100.14c0,3.17-.58,4.47-4.21,4.58-14.06.43-14.06.59-14.06-13.54,0-56.14.09-112.28-.13-168.42,0-5.39,1.31-6.46,6.64-6.81,8.45-.55,13.62,2.5,18.87,9.05,38.06,47.5,76.56,94.65,114.93,141.91,1.89,2.33,3.8,4.65,6.9,8.44V634c-.07-48.12-.06-96.24-.34-144.36,0-5.26,1-7,6.58-6.77,11.74.48,11.74.13,11.76,11.87.06,56.57,0,113.14.35,169.72,0,5.68-1.36,6.88-7,7.25-8.33.56-13.27-2.58-18.36-8.86-40.09-49.48-80.55-98.66-122.09-149.39"/><path class="cls-4" d="M857.9,671c16.09-19,31-36.73,46-54.41,9.8-11.58,19.43-23.3,29.52-34.62,3.4-3.82,3.54-6.2.17-10.16-24.2-28.35-48.15-56.9-72.18-85.39-.69-.81-1.34-1.66-2.48-3.08,6.82-1.2,13.17-.54,19.47-.45,2.46,0,3.36,2.55,4.72,4.14,20.63,24.26,41.29,48.51,61.75,72.91,2.83,3.37,4.14,3.56,7.09,0,19.72-23.62,39.85-46.89,59.47-70.59,4.14-5,8.32-7.54,14.78-6.73,3.59.45,7.28.08,12.34.08-7.8,9.26-14.82,17.63-21.87,26-17.8,21-35.52,42-53.51,62.88-3.36,3.89-3.28,6.28.07,10.18,24.27,28.28,48.29,56.78,72.37,85.22.81,1,1.52,2,3,4-7.19,0-13.38.1-19.56,0-3-.07-4.14-2.85-5.78-4.78-20.45-24.14-40.94-48.24-61.23-72.52-3-3.56-4.35-3.74-7.46,0-20,24-40.4,47.56-60.32,71.57-3.74,4.51-7.56,6.46-13.22,5.9-3.81-.37-7.68-.07-13.18-.07"/><path class="cls-5" d="M440.33,651.92c-16.52-35.83-33.7-71.37-49.64-107.45-10.7-24.25-21.83-48.29-32.85-72.39-2.87-6.28-5.47-12.68-8.2-19-1.47-5.42-5.21-10-6.11-15.61h-65a50.5,50.5,0,0,0,1.58,4.88q33.29,77,66.65,153.91c15.27,35.15,30.72,70.23,46.09,105.34.4,1,.8,2,1.22,3,8,18.74,8,18.74,28.83,17.57h49.42C461.43,698.25,451,675,440.33,651.92"/><path class="cls-5" d="M1710.51,483.08q-.09,94.14-.17,188.27c-5.59-.13-13,1.85-16.32-1-3.91-3.3-1.28-11-1.29-16.71-.11-54.56,0-109.13-.19-163.69,0-5.48.93-8,6.94-7.11,3.6.54,7.35.16,11,.2"/><path class="cls-5" d="M274.58,577.9c-9.91-22-19.35-44.14-29.26-66.9a54.82,54.82,0,0,0-5.68,12.32Q225.18,555,210.73,586.7c-4,8.74-7.7,17.57-11.54,26.37Q183.47,647.51,167.75,682c-6,13.27-12,26.59-18.26,40.38,20.36,0,39.86-.13,59.34.11,4,0,5.93-1.12,7.65-4.87Q245.09,655.16,274.24,593c2.52-5.35,2.8-9.66.34-15.1"/><path class="cls-4" d="M307.87,655c10,23,19.44,44.78,29.15,67.13H272.46L307.87,655"/><path class="cls-5" d="M1302.84,530.85c-20.23-37.48-53.92-52.68-95.75-50.66-62.79,3-105.81,61.91-89.85,122.72,11.34,43.21,49.57,71.5,96.62,71.49a106.29,106.29,0,0,0,18.75-1.31c69.06-11.79,101-85.2,70.23-142.24M1214.3,658.58c-47-.14-82.62-35.51-82.49-81.94.14-45.63,35.59-79.48,83.11-79.36,46.6.12,81.66,35.76,81.43,82.76-.23,44.45-36,78.68-82,78.54"/><path class="cls-5" d="M775.12,664.65c-11.35-26-22.42-52.15-33.59-78.24Q723.28,543.8,705,501.19c-1.93-4.79-4.07-9.51-5.73-14.39-1.09-3.2-2.84-4.5-6.19-4.15a27,27,0,0,1-7.13,0c-5.53-.91-7.7,1.75-9.71,6.65q-35.14,86-70.75,171.82c-4.06,9.85-4,9.42,6.49,10,6,.33,8.68-1.74,10.8-7.23,6.35-16.51,13.43-32.73,20-49.17,1.57-3.94,3.47-5.53,8-5.48,26,.26,52,.13,77.94.14,2.13,0,4.35-.41,6.21,1.13A133.73,133.73,0,0,0,744,631.32a310.36,310.36,0,0,0,13.16,31.13c2.57,8.58,2.58,8.29,13.73,8.63,5.88.18,6.41-1.34,4.19-6.43M652.83,590.81c4.06-9.81,8-19.24,11.86-28.68,7-16.92,13.9-33.86,21-50.74.79-1.89.44-5,3.87-5,3.86,12.63,10,24.35,15.06,36.48,6.75,16.1,14,32,21,48Zm78.69-6.17c0-.17,0-.33,0-.51.09.18.19.34.28.52a1,1,0,0,0-.29,0"/></g></g></g></svg>