<svg xmlns="http://www.w3.org/2000/svg" viewBox="0 0 444.45 438.98"><defs><style>.cls-1{fill:#e911bd;}.cls-2{fill:#e4a663;}.cls-3{fill:#3fe0c5;}</style></defs><title>truffle-logomark-groovy</title><g id="Layer_2" data-name="Layer 2"><g id="Layer_8" data-name="Layer 8"><ellipse class="cls-1" cx="221.69" cy="219.49" rx="216.94" ry="219.49"/><path id="Fill-6" class="cls-2" d="M153.46,414.1c8.89,3,38.71,12.73,40,3.25.68-5.2-15-10.54-36.33-21.82a341.66,341.66,0,0,1-82.2-60.71C47.79,307.75,20,265.12,18.33,203.6,16.52,137.21,42.49,83.51,85.18,48.89A218.91,218.91,0,0,0,.08,216.81c-1.26,48,12.17,88.5,37.39,125.32A142.43,142.43,0,0,0,64.71,369c24.16,18.29,59.51,35.2,88.75,45.15"/><path id="Fill-8" class="cls-2" d="M441.64,169.17C428.17,105.91,386.35,61.62,330.43,30.34c42.76,30.45,103,95.19,67.48,152.26-30.1,45.77-103.25,36.79-143.23,15.11C207.15,171.93,147.6,113.9,206.34,57.18c38-36.71,159.09,4.44,137.71,59.32-12.43,31.89-60.76,24.81-82.51,9.2C245.5,114.19,232,94.4,239.16,74c2.29-6.55,2-16.72-7.29-9.24-6.91,5.59-10.38,14.79-11.59,23.34-10.12,71.54,117.33,127,155.13,57.78,19.63-35.93-12.17-88.05-52.2-109.46C293.06,20.26,261.81,9,223.43,11.69c-61.35,4.38-112.86,42.77-119.31,105.47-6.39,62.23,35.2,118.39,84.27,151.93,51.52,35.24,120.9,58.48,184.33,37.46,56.86-18.85,80.35-84.11,68.92-137.38"/><path id="Fill-10" class="cls-3" d="M361.61,120.72c6.09-41-31-69.14-65.19-81.94-40.37-15.1-93.67-8.47-123.06,25-21.57,24.53-20.1,60.2-9,89,16.76,43.56,54.6,75.05,98.65,88.64C294.3,251,332.14,255.25,363.87,245c46.26-14.87,61.32-63.13,51.76-107.33A127.48,127.48,0,0,0,406.26,110c-5.84-12.27-23.74-37.1.93-6.86a109.54,109.54,0,0,1,7.13,10.55c5.21,8.19,9,17.47,12,26.67,13.45,41.27,2.89,89.4-34.46,114.3-28.61,19.07-65,21.33-98.15,16.57-44.47-6.37-86.41-28-115.53-62.51C151.57,177.24,133.43,132,144.37,90.6c8-30.28,32.6-52.88,62-62.41,37.24-12.06,78.24-6.46,111.8,13.12,16.79,9.79,32.16,23.34,40.7,41.07A60.87,60.87,0,0,1,365,108a52.44,52.44,0,0,1-.84,10.76c-.23,1.28-2.95,4.92-2.57,1.93"/></g></g></svg>