<svg xmlns="http://www.w3.org/2000/svg" width="120" height="98" viewBox="0 0 120 98">
  <g fill="none" fill-rule="evenodd">
    <rect width="120" height="97.412" fill="#E8E6E2" rx="4"/>
    <path stroke="#BD8041" stroke-width="2.4" d="M60.5,23 C43.957598,23 29.700236,33.1480873 23.1508609,47.7924807 C22.949713,48.2362502 22.949713,48.7553768 23.1508609,49.2075193 C29.700236,63.8519127 43.957598,74 60.5,74 C77.042402,74 91.299764,63.8519127 97.8491391,49.2075193 C98.050287,48.7637498 98.050287,48.2446232 97.8491391,47.7924807 C91.299764,33.1480873 77.042402,23 60.5,23 M60.5,60.7777778 C66.7132034,60.7777778 71.75,55.7036716 71.75,49.4444444 C71.75,43.1852173 66.7132034,38.1111111 60.5,38.1111111 C54.2867966,38.1111111 49.25,43.1852173 49.25,49.4444444 C49.25,55.7036716 54.2867966,60.7777778 60.5,60.7777778 Z"/>
  </g>
</svg>
