
<svg width="80px" height="62px" viewBox="0 0 80 62" version="1.1" xmlns="http://www.w3.org/2000/svg" xmlns:xlink="http://www.w3.org/1999/xlink">
    <g id="Ganache-Landing-Page" stroke="none" stroke-width="1" fill="none" fill-rule="evenodd">
        <g id="Desktop-HD" transform="translate(-994.000000, -2278.000000)">
            <g id="Group-8" transform="translate(994.000000, 2278.000000)">
                <path d="M10.2906697,10.988806 C10.2906697,13.7478026 9.88812565,15.8105929 9.08302553,17.1772388 C8.27792542,18.5438847 7.01462239,19.2271973 5.29307853,19.2271973 C3.62292404,19.2271973 2.37675054,18.5717313 1.55452064,17.2607794 C0.732290734,15.9498276 0.304052417,13.9791453 0.269792838,11.3486733 L0.269792838,8.13557214 C0.269792838,5.40228042 0.674478047,3.36305261 1.48386061,2.01782753 C2.29324317,0.67260245 3.55440501,0 5.26738397,0 C6.95466825,0 8.20298295,0.638329714 9.01236551,1.91500829 C9.82174806,3.19168687 10.2478452,5.12381238 10.2906697,7.71144279 L10.2906697,10.988806 Z M8.01670146,7.7371476 C8.01670146,5.75786738 7.79829992,4.29913404 7.36149028,3.36090381 C6.92468065,2.42267358 6.22665219,1.95356551 5.26738397,1.95356551 C4.33381044,1.95356551 3.64862913,2.4141054 3.2118195,3.335199 C2.77500986,4.25629261 2.54804355,5.64648048 2.53091376,7.50580431 L2.53091376,11.3615257 C2.53091376,13.3322376 2.75788007,14.8123914 3.2118195,15.8020315 C3.66575892,16.7916716 4.35950499,17.2864842 5.29307853,17.2864842 C6.21808717,17.2864842 6.89898609,16.8195182 7.33579573,15.8855721 C7.77260536,14.9516261 7.99957167,13.5250234 8.01670146,11.6057214 L8.01670146,7.7371476 Z M19.0525132,7.42868988 L22.5726674,0.257048093 L25.3348322,0.257048093 L20.4657138,9.53648425 L25.4376104,18.9701493 L22.6497511,18.9701493 L19.0525132,11.6699834 L15.4424281,18.9701493 L12.6545688,18.9701493 L17.6521599,9.53648425 L12.757347,0.257048093 L15.5066645,0.257048093 L19.0525132,7.42868988 Z M30.6792998,8.45688226 L32.1310422,8.45688226 C33.0646158,8.45688226 33.7840561,8.16984809 34.2893849,7.59577114 C34.7947137,7.0216942 35.0473743,6.23770536 35.0473743,5.24378109 C35.0473743,3.05029307 34.1994625,1.95356551 32.5036133,1.95356551 C31.6899483,1.95356551 31.0518732,2.24916786 30.5893689,2.84038143 C30.1268646,3.431595 29.8956159,4.20701566 29.8956159,5.16666667 L27.6344949,5.16666667 C27.6344949,3.66721196 28.0905687,2.43125141 29.00273,1.45874793 C29.9148913,0.486244447 31.0818408,0 32.5036133,0 C33.9767752,0 35.1458658,0.460539894 36.0109202,1.3816335 C36.8759746,2.3027271 37.3084953,3.60723313 37.3084953,5.29519071 C37.3084953,6.16059029 37.0836701,6.96814164 36.6340132,7.71786899 C36.1843562,8.46759634 35.5998109,9.01810217 34.8803597,9.36940299 C36.6447281,10.0205947 37.526899,11.4814701 37.526899,13.752073 C37.526899,15.4228939 37.0622604,16.7531045 36.1329693,17.7427446 C35.2036782,18.7323847 33.9896226,19.2271973 32.490766,19.2271973 C31.0090392,19.2271973 29.8121131,18.7580893 28.8999518,17.819859 C27.9877905,16.8816288 27.5317167,15.6199637 27.5317167,14.0348259 L29.8056849,14.0348259 C29.8056849,15.0287501 30.0454984,15.8191651 30.5251325,16.4060945 C31.0047666,16.9930239 31.6599712,17.2864842 32.490766,17.2864842 C33.3386906,17.2864842 34.013166,16.9994501 34.5142123,16.4253731 C35.0152586,15.8512962 35.2657781,14.9773414 35.2657781,13.8034826 C35.2657781,11.5328797 34.1908999,10.3975954 32.0411113,10.3975954 L30.6792998,10.3975954 L30.6792998,8.45688226 Z M41.2783042,18.9701493 L41.2783042,0.257048093 L46.6099245,0.257048093 C48.3143386,0.257048093 49.5969123,0.672605021 50.4576843,1.50373134 C51.3184562,2.33485767 51.7488357,3.58152845 51.7488357,5.24378109 C51.7488357,6.11774898 51.5304342,6.88888555 51.0936245,7.55721393 C50.6568149,8.22554231 50.065846,8.74391745 49.3207002,9.11235489 C50.1771897,9.36940427 50.8559474,9.89634759 51.3569937,10.6932007 C51.8580401,11.4900537 52.1085595,12.4496904 52.1085595,13.5721393 C52.1085595,15.2515286 51.6482033,16.5710289 50.7274771,17.5306799 C49.8067509,18.4903309 48.4942005,18.9701493 46.7897864,18.9701493 L41.2783042,18.9701493 Z M43.629356,10.2176617 L43.629356,16.9523217 L46.8411755,16.9523217 C47.7319246,16.9523217 48.4385178,16.6588614 48.9609764,16.071932 C49.483435,15.4850026 49.7446604,14.6603149 49.7446604,13.5978441 C49.7446604,11.3443779 48.7939713,10.2176617 46.8925646,10.2176617 L43.629356,10.2176617 Z M43.629356,8.23839138 L46.6484664,8.23839138 C47.4621314,8.23839138 48.1194772,7.96420949 48.6205235,7.41583748 C49.1215699,6.86746547 49.3720893,6.13916983 49.3720893,5.23092869 C49.3720893,4.20273118 49.145123,3.45515712 48.6911836,2.98818408 C48.2372441,2.52121104 47.5434981,2.28772803 46.6099245,2.28772803 L43.629356,2.28772803 L43.629356,8.23839138 Z M64.3006263,10.7060531 L57.9797655,10.7060531 L57.9797655,18.9701493 L55.6287137,18.9701493 L55.6287137,0.257048093 L65.3669504,0.257048093 L65.3669504,2.28772803 L57.9797655,2.28772803 L57.9797655,8.68822554 L64.3006263,8.68822554 L64.3006263,10.7060531 Z M80,13.0323383 C79.8972213,15.0373235 79.3340879,16.5710284 78.3105829,17.6334992 C77.287078,18.6959699 75.8417737,19.2271973 73.9746266,19.2271973 C72.0989147,19.2271973 70.6086453,18.513896 69.5037739,17.087272 C68.3989025,15.6606479 67.846475,13.7263804 67.846475,11.2844113 L67.846475,7.89137645 C67.846475,5.45797567 68.4138908,3.53441835 69.5487394,2.12064677 C70.6835879,0.706875187 72.2316694,0 74.1930304,0 C76.0002232,0 77.3984213,0.541937643 78.3876666,1.62582919 C79.376912,2.70972073 79.9143511,4.25842 80,6.27197347 L77.6232536,6.27197347 C77.5204748,4.74681382 77.1992961,3.65865444 76.6597077,3.00746269 C76.1201194,2.35627093 75.2979018,2.03067993 74.1930304,2.03067993 C72.916861,2.03067993 71.9361953,2.52977666 71.2510037,3.52798507 C70.5658121,4.52619349 70.2232215,5.98921092 70.2232215,7.91708126 L70.2232215,11.3486733 C70.2232215,13.2422704 70.542259,14.6945776 71.1803437,15.7056385 C71.8184283,16.7166994 72.7498467,17.2222222 73.9746266,17.2222222 C75.1994066,17.2222222 76.0815775,16.9180517 76.6211659,16.3097015 C77.1607543,15.7013513 77.4947802,14.6089078 77.6232536,13.0323383 L80,13.0323383 Z M9.48129115,32.0924544 L3.16043038,32.0924544 L3.16043038,40.3565506 L0.809378513,40.3565506 L0.809378513,21.6434494 L10.5476152,21.6434494 L10.5476152,23.6741294 L3.16043038,23.6741294 L3.16043038,30.0746269 L9.48129115,30.0746269 L9.48129115,32.0924544 Z M22.4185001,31.7068823 L15.8021519,31.7068823 L15.8021519,38.3387231 L23.5105187,38.3387231 L23.5105187,40.3565506 L13.4511,40.3565506 L13.4511,21.6434494 L23.3820459,21.6434494 L23.3820459,23.6741294 L15.8021519,23.6741294 L15.8021519,29.6890547 L22.4185001,29.6890547 L22.4185001,31.7068823 Z M38.2463466,34.4187396 C38.1435678,36.4237248 37.5804344,37.9574297 36.5569295,39.0199005 C35.5334246,40.0823713 34.0881203,40.6135987 32.2209732,40.6135987 C30.3452612,40.6135987 28.8549919,39.9002973 27.7501204,38.4736733 C26.645249,37.0470493 26.0928216,35.1127817 26.0928216,32.6708126 L26.0928216,29.2777778 C26.0928216,26.844377 26.6602374,24.9208197 27.7950859,23.5070481 C28.9299345,22.0932765 30.478016,21.3864013 32.4393769,21.3864013 C34.2465697,21.3864013 35.6447678,21.928339 36.6340132,23.0122305 C37.6232585,24.0961221 38.1606976,25.6448213 38.2463466,27.6583748 L35.8696001,27.6583748 C35.7668214,26.1332151 35.4456427,25.0450558 34.9060543,24.393864 C34.3664659,23.7426723 33.5442483,23.4170813 32.4393769,23.4170813 C31.1632076,23.4170813 30.1825418,23.916178 29.4973502,24.9143864 C28.8121587,25.9125948 28.469568,27.3756123 28.469568,29.3034826 L28.469568,32.7350746 C28.469568,34.6286717 28.7886056,36.0809789 29.4266902,37.0920398 C30.0647749,38.1031007 30.9961932,38.6086235 32.2209732,38.6086235 C33.4457531,38.6086235 34.3279241,38.304453 34.8675124,37.6961028 C35.4071008,37.0877526 35.7411267,35.9953092 35.8696001,34.4187396 L38.2463466,34.4187396 Z M43.8220652,29.8432836 L45.2738076,29.8432836 C46.2073811,29.8432836 46.9268215,29.5562494 47.4321503,28.9821725 C47.9374791,28.4080955 48.1901397,27.6241067 48.1901397,26.6301824 C48.1901397,24.4366944 47.3422278,23.3399668 45.6463787,23.3399668 C44.8327137,23.3399668 44.1946386,23.6355692 43.7321343,24.2267828 C43.2696299,24.8179963 43.0383812,25.593417 43.0383812,26.553068 L40.7772603,26.553068 C40.7772603,25.0536133 41.2333341,23.8176527 42.1454954,22.8451493 C43.0576567,21.8726458 44.2246061,21.3864013 45.6463787,21.3864013 C47.1195406,21.3864013 48.2886312,21.8469412 49.1536856,22.7680348 C50.0187399,23.6891284 50.4512606,24.9936345 50.4512606,26.681592 C50.4512606,27.5469916 50.2264355,28.354543 49.7767785,29.1042703 C49.3271216,29.8539977 48.7425763,30.4045035 48.0231251,30.7558043 C49.7874934,31.4069961 50.6696644,32.8678715 50.6696644,35.1384743 C50.6696644,36.8092953 50.2050258,38.1395058 49.2757347,39.1291459 C48.3464436,40.118786 47.132388,40.6135987 45.6335314,40.6135987 C44.1518046,40.6135987 42.9548785,40.1444906 42.0427172,39.2062604 C41.1305559,38.2680301 40.6744821,37.006365 40.6744821,35.4212272 L42.9484503,35.4212272 C42.9484503,36.4151515 43.1882638,37.2055664 43.6678979,37.7924959 C44.147532,38.3794253 44.8027366,38.6728856 45.6335314,38.6728856 C46.481456,38.6728856 47.1559313,38.3858514 47.6569777,37.8117745 C48.158024,37.2376975 48.4085434,36.3637427 48.4085434,35.1898839 C48.4085434,32.9192811 47.3336653,31.7839967 45.1838767,31.7839967 L43.8220652,31.7839967 L43.8220652,29.8432836 Z M64.3648627,40.3565506 L53.9071784,40.3565506 L53.9071784,38.6471808 L59.2387988,31.5783582 C60.0438989,30.4901825 60.6027499,29.5969493 60.9153686,28.8986318 C61.2279872,28.2003144 61.3842942,27.4613085 61.3842942,26.681592 C61.3842942,25.6876678 61.1530455,24.8822585 60.6905412,24.26534 C60.2280369,23.6484215 59.6199385,23.3399668 58.8662277,23.3399668 C57.9155244,23.3399668 57.1810957,23.6676999 56.6629195,24.3231758 C56.1447434,24.9786517 55.8856592,25.923294 55.8856592,27.157131 L53.611691,27.157131 C53.611691,25.4349002 54.0827532,24.0425703 55.0248916,22.9800995 C55.96703,21.9176287 57.2474626,21.3864013 58.8662277,21.3864013 C60.3565194,21.3864013 61.5298924,21.8426571 62.3863819,22.7551824 C63.2428714,23.6677077 63.6711097,24.8822478 63.6711097,26.3988391 C63.6711097,28.2495947 62.7075735,30.4387657 60.7804721,32.9664179 L56.6179541,38.4158375 L64.3648627,38.4158375 L64.3648627,40.3565506 Z M76.3770676,31.7068823 L69.7607194,31.7068823 L69.7607194,38.3387231 L77.4690862,38.3387231 L77.4690862,40.3565506 L67.4096676,40.3565506 L67.4096676,21.6434494 L77.3406135,21.6434494 L77.3406135,23.6741294 L69.7607194,23.6741294 L69.7607194,29.6890547 L76.3770676,29.6890547 L76.3770676,31.7068823 Z M10.7531717,61.7429519 L0.295487394,61.7429519 L0.295487394,60.0335821 L5.62710776,52.9647595 C6.43220787,51.8765838 6.99105887,50.9833506 7.30367753,50.2850332 C7.61629619,49.5867157 7.77260318,48.8477098 7.77260318,48.0679934 C7.77260318,47.0740691 7.54135449,46.2686598 7.07885017,45.6517413 C6.61634585,45.0348228 6.00824744,44.7263682 5.2545367,44.7263682 C4.30383337,44.7263682 3.56940466,45.0541012 3.05122852,45.7095771 C2.53305238,46.365053 2.2739682,47.3096953 2.2739682,48.5435323 L0,48.5435323 C0,46.8213015 0.471062149,45.4289716 1.41320058,44.3665008 C2.35533901,43.3040301 3.63577158,42.7728027 5.2545367,42.7728027 C6.74482839,42.7728027 7.91820138,43.2290585 8.77469086,44.1415837 C9.63118034,45.054109 10.0594187,46.2686491 10.0594187,47.7852405 C10.0594187,49.635996 9.09588245,51.825167 7.16878111,54.3528192 L3.00626305,59.8022388 L10.7531717,59.8022388 L10.7531717,61.7429519 Z M22.4698892,53.4788557 L16.1490284,53.4788557 L16.1490284,61.7429519 L13.7979766,61.7429519 L13.7979766,43.0298507 L23.5362133,43.0298507 L23.5362133,45.0605307 L16.1490284,45.0605307 L16.1490284,51.4610282 L22.4698892,51.4610282 L22.4698892,53.4788557 Z M38.1692629,55.805141 C38.0664841,57.8101261 37.5033508,59.3438311 36.4798458,60.4063018 C35.4563409,61.4687726 34.0110366,62 32.1438895,62 C30.2681775,62 28.7779082,61.2866987 27.6730368,59.8600746 C26.5681653,58.4334506 26.0157379,56.499183 26.0157379,54.0572139 L26.0157379,50.6641791 C26.0157379,48.2307783 26.5831537,46.307221 27.7180022,44.8934494 C28.8528508,43.4796778 30.4009323,42.7728027 32.3622932,42.7728027 C34.169486,42.7728027 35.5676841,43.3147403 36.5569295,44.3986318 C37.5461749,45.4825234 38.0836139,47.0312227 38.1692629,49.0447761 L35.7925165,49.0447761 C35.6897377,47.5196165 35.368559,46.4314571 34.8289706,45.7802653 C34.2893822,45.1290736 33.4671647,44.8034826 32.3622932,44.8034826 C31.0861239,44.8034826 30.1054582,45.3025793 29.4202666,46.3007877 C28.735075,47.2989961 28.3924843,48.7620136 28.3924843,50.6898839 L28.3924843,54.121476 C28.3924843,56.015073 28.7115219,57.4673802 29.3496066,58.4784411 C29.9876912,59.489502 30.9191096,59.9950249 32.1438895,59.9950249 C33.3686695,59.9950249 34.2508404,59.6908543 34.7904288,59.0825041 C35.3300172,58.474154 35.664043,57.3817105 35.7925165,55.805141 L38.1692629,55.805141 Z M43.7449815,51.2296849 L45.1967239,51.2296849 C46.1302975,51.2296849 46.8497379,50.9426507 47.3550666,50.3685738 C47.8603954,49.7944969 48.113056,49.010508 48.113056,48.0165837 C48.113056,45.8230957 47.2651442,44.7263682 45.569295,44.7263682 C44.75563,44.7263682 44.1175549,45.0219705 43.6550506,45.6131841 C43.1925463,46.2043976 42.9612976,46.9798183 42.9612976,47.9394693 L40.7001767,47.9394693 C40.7001767,46.4400146 41.1562505,45.2040541 42.0684118,44.2315506 C42.9805731,43.2590471 44.1475225,42.7728027 45.569295,42.7728027 C47.0424569,42.7728027 48.2115475,43.2333425 49.0766019,44.1544362 C49.9416563,45.0755298 50.374177,46.3800358 50.374177,48.0679934 C50.374177,48.9333929 50.1493519,49.7409443 49.6996949,50.4906716 C49.2500379,51.240399 48.6654926,51.7909048 47.9460414,52.1422056 C49.7104098,52.7933974 50.5925807,54.2542728 50.5925807,56.5248756 C50.5925807,58.1956966 50.1279421,59.5259072 49.198651,60.5155473 C48.2693599,61.5051874 47.0553043,62 45.5564477,62 C44.0747209,62 42.8777948,61.5308919 41.9656335,60.5926617 C41.0534722,59.6544315 40.5973984,58.3927664 40.5973984,56.8076285 L42.8713666,56.8076285 C42.8713666,57.8015528 43.1111801,58.5919678 43.5908142,59.1788972 C44.0704483,59.7658266 44.7256529,60.0592869 45.5564477,60.0592869 C46.4043723,60.0592869 47.0788477,59.7722527 47.579894,59.1981758 C48.0809404,58.6240988 48.3314598,57.7501441 48.3314598,56.5762852 C48.3314598,54.3056824 47.2565816,53.170398 45.106793,53.170398 L43.7449815,53.170398 L43.7449815,51.2296849 Z M63.452706,47.9137645 C63.452706,48.8477106 63.2450104,49.6788244 62.829613,50.407131 C62.4142156,51.1354376 61.8553646,51.7052218 61.1530432,52.1165008 C61.983838,52.5449165 62.6347602,53.1596837 63.1058295,53.9608209 C63.5768987,54.7619581 63.8124297,55.6723277 63.8124297,56.6919569 C63.8124297,58.3027997 63.3563559,59.5901693 62.4441946,60.5541045 C61.5320333,61.5180396 60.3222601,62 58.8148386,62 C57.3074171,62 56.0976439,61.5180396 55.1854826,60.5541045 C54.2733213,59.5901693 53.8172475,58.3027997 53.8172475,56.6919569 C53.8172475,55.6637594 54.0506374,54.7448216 54.5174241,53.9351161 C54.9842109,53.1254105 55.6201448,52.5149274 56.4252449,52.1036484 C55.7229235,51.6923694 55.1704961,51.1247272 54.767946,50.4007048 C54.365396,49.6766824 54.164124,48.8477106 54.164124,47.9137645 C54.164124,46.337195 54.5902211,45.0862401 55.4424281,44.1608624 C56.2946352,43.2354846 57.4187608,42.7728027 58.8148386,42.7728027 C60.2023516,42.7728027 61.3221948,43.2312005 62.1744018,44.14801 C63.0266088,45.0648194 63.452706,46.3200584 63.452706,47.9137645 Z M61.5384615,56.6405473 C61.5384615,55.5695082 61.2858009,54.7105477 60.7804721,54.0636401 C60.2751433,53.4167325 59.611374,53.0932836 58.7891441,53.0932836 C57.9497844,53.0932836 57.2881562,53.4188746 56.8042396,54.0700663 C56.320323,54.7212581 56.0783684,55.5780765 56.0783684,56.6405473 C56.0783684,57.7201547 56.3160407,58.5598367 56.7913923,59.1596186 C57.266744,59.7594005 57.9412193,60.0592869 58.8148386,60.0592869 C59.6884579,60.0592869 60.360792,59.7594005 60.8318612,59.1596186 C61.3029305,58.5598367 61.5384615,57.7201547 61.5384615,56.6405473 Z M61.191585,47.9523217 C61.191585,47.001239 60.9689011,46.2258184 60.5235266,45.6260365 C60.078152,45.0262546 59.5085951,44.7263682 58.8148386,44.7263682 C58.0868225,44.7263682 57.5087008,45.0219705 57.0804561,45.6131841 C56.6522113,46.2043976 56.4380922,46.9841024 56.4380922,47.9523217 C56.4380922,48.9291094 56.6564937,49.70453 57.0933034,50.278607 C57.530113,50.8526839 58.1039523,51.1397181 58.8148386,51.1397181 C59.5428547,51.1397181 60.1209764,50.8483998 60.5492211,50.2657546 C60.9774659,49.6831093 61.191585,48.9119727 61.191585,47.9523217 Z M67.3325839,61.7429519 L67.3325839,43.0298507 L71.7905894,43.0298507 C73.9746375,43.0298507 75.6704613,43.7131634 76.8781115,45.0798093 C78.0857616,46.4464551 78.6895776,48.3678704 78.6895776,50.8441128 L78.6895776,53.9800995 C78.6895776,56.4563418 78.0771969,58.3691889 76.8524169,59.7186982 C75.6276369,61.0682074 73.8504479,61.7429519 71.5207965,61.7429519 L67.3325839,61.7429519 Z M69.6836358,45.0605307 L69.6836358,59.7251244 L71.5721856,59.7251244 C73.2252103,59.7251244 74.4328424,59.2517322 75.195118,58.3049337 C75.9573937,57.3581351 76.3470905,55.955095 76.3642203,54.0957711 L76.3642203,50.7798507 C76.3642203,48.8091388 75.9852294,47.3632578 75.2272362,46.4421642 C74.469243,45.5210706 73.3237055,45.0605307 71.7905894,45.0605307 L69.6836358,45.0605307 Z" id="0X3BFC-FEC32E-2FC38D" fill="#826146"></path>
                <path d="M40,8 C54.5573137,8 67.1037923,16.9541947 72.8672424,29.8757183 C73.0442525,30.2746675 73.0442525,30.7327204 72.8672424,31.1242817 C67.1037923,44.0458053 54.5573137,53 40,53 C25.4426863,53 12.8962077,44.0458053 7.1327576,31.1242817 C6.95574747,30.7253325 6.95574747,30.2672796 7.1327576,29.8757183 C12.8962077,16.9541947 25.4426863,8 40,8 Z M40,41.3333333 C34.532381,41.3333333 30.1,36.8561808 30.1,31.3333333 C30.1,25.8104858 34.532381,21.3333333 40,21.3333333 C45.467619,21.3333333 49.9,25.8104858 49.9,31.3333333 C49.9,36.8561808 45.467619,41.3333333 40,41.3333333 Z M40,46.0257757 C48.2132704,46.0257757 54.875932,39.0737153 54.875932,30.503694 C54.875932,21.9336726 48.2203508,14.9816122 40,14.9816122 C31.7867296,14.9816122 25.124068,21.9262847 25.124068,30.503694 C25.124068,39.0737153 31.7796492,46.0257757 40,46.0257757 Z" id="Shape" stroke="#2A2825" stroke-width="2" fill="#B7B7B7" fill-rule="nonzero"></path>
            </g>
        </g>
    </g>
</svg>
