
<svg width="81px" height="62px" viewBox="0 0 81 62" version="1.1" xmlns="http://www.w3.org/2000/svg" xmlns:xlink="http://www.w3.org/1999/xlink">
    <!-- Generator: Sketch 43.1 (39012) - http://www.bohemiancoding.com/sketch -->
    <desc>Created with Sketch.</desc>
    <defs>
        <path d="M48.8817627,41.7425539 L47.9069675,40.8373869 L49.7173015,38.8877965 L50.6920967,39.7929635 L63.9945511,52.1452426 L64.9693463,53.0504096 L63.1590124,55 L62.1842172,54.094833 L48.8817627,41.7425539 Z M34.5714286,44.1428571 C24.3147118,44.1428571 16,35.8281454 16,25.5714286 C16,15.3147118 24.3147118,7 34.5714286,7 C44.8281454,7 53.1428571,15.3147118 53.1428571,25.5714286 C53.1428571,35.8281454 44.8281454,44.1428571 34.5714286,44.1428571 Z" id="BEXPpath-1"></path>
    </defs>
    <g id="Ganache-Landing-Page" stroke="none" stroke-width="1" fill="none" fill-rule="evenodd">
        <g id="Desktop-HD" transform="translate(-1000.000000, -2828.000000)">
            <g id="Group-11" transform="translate(1000.000000, 2828.000000)">
                <rect id="Rectangle-4" fill="#826146" x="0" y="0" width="81" height="62"></rect>
                <g id="Group-14" transform="translate(6.000000, 10.000000)" stroke="#979797" stroke-linecap="square">
                    <path d="M0.5,1.5 L25.5,1.5" id="Line"></path>
                    <path d="M0.5,11.5 L38.5525952,11.5" id="Line"></path>
                    <path d="M0.5,21.5 L31.5161248,21.5" id="Line"></path>
                    <path d="M0.5,31.5 L34.5,31.5" id="Line"></path>
                    <path d="M0.5,41.5 L17.5293864,41.5" id="Line"></path>
                </g>
                <g id="Combined-Shape" stroke-linecap="square">
                    <use stroke="#2A2825" stroke-width="7" fill-opacity="0.222741168" fill="#D8D8D8" fill-rule="evenodd" xlink:href="#BEXPpath-1"></use>
                    <use stroke="#979797" stroke-width="4" xlink:href="#path-1"></use>
                </g>
            </g>
        </g>
    </g>
</svg>
