
<svg width="auto" height="100%" viewBox="0 0 592 400" version="1.1" xmlns="http://www.w3.org/2000/svg" xmlns:xlink="http://www.w3.org/1999/xlink">
    <g id="Ganache-Landing-Page" stroke="none" stroke-width="1" fill="none" fill-rule="evenodd">
        <g id="Desktop-HD" transform="translate(-405.000000, -3950.000000)" fill="#5C4A37">
            <g id="Group" transform="translate(405.000000, 3950.000000)">
                <g id="Flourish">
                    <path d="M586.992642,101.114169 L591.140433,101.114169 L591.140433,183.643177 L591.140433,216.730489 L591.140433,299.256289 L586.992642,299.256289 C584.711838,299.262705 531.130589,300.055081 531.130589,355.120401 L531.130589,359.274761 L488.889202,359.274761 C484.144745,368.664577 465.067472,400.000321 421.950333,400.000321 L307.441785,400.000321 L283.697044,400.000321 L169.19812,400.000321 C126.077773,400.000321 107.003708,368.664577 102.265667,359.274761 L60.0210719,359.274761 L60.0210719,355.120401 C60.0210719,300.055081 6.43019901,299.262705 4.15260296,299.256289 L0.00160394089,299.256289 L0.00160394089,216.730489 L0.00160394089,183.643177 L0.00160394089,101.114169 L4.15260296,101.114169 C6.43019901,101.107753 60.0210719,100.315377 60.0210719,45.2500568 L60.0210719,41.0989048 L102.265667,41.0989048 C107.003708,31.6994648 126.077773,0.3733448 169.19812,0.3733448 L283.697044,0.3733448 L307.441785,0.3733448 L421.950333,0.3733448 C465.067472,0.3733448 484.144745,31.6994648 488.889202,41.0989048 L531.130589,41.0989048 L531.130589,45.2500568 C531.130589,100.315377 584.711838,101.107753 586.992642,101.114169 Z M582.844851,216.730489 L582.844851,183.643177 L582.844851,109.153417 C569.006049,107.806057 525.208839,99.5647048 522.915204,49.4012088 L483.439011,49.3947928 L482.399657,46.7802728 C481.770912,45.2211848 466.652166,8.6788568 421.950333,8.6788568 L307.441785,8.6788568 L283.697044,8.6788568 L169.19812,8.6788568 C124.496288,8.6788568 109.374333,45.2211848 108.752004,46.7802728 L107.71265,49.3947928 L68.2236256,49.4012088 C65.9396138,99.5647048 22.1456118,107.806057 8.31001773,109.153417 L8.31001773,183.643177 L8.31001773,216.730489 L8.31001773,291.213833 C22.1456118,292.564401 65.9396138,300.799337 68.2236256,350.972457 L107.71265,350.978873 L108.752004,353.586977 C109.374333,355.142857 124.496288,391.691601 169.19812,391.691601 L283.697044,391.691601 L307.441785,391.691601 L421.950333,391.691601 C466.652166,391.691601 481.770912,355.142857 482.399657,353.586977 L483.439011,350.978873 L522.915204,350.972457 C525.208839,300.799337 569.006049,292.564401 582.844851,291.213833 L582.844851,216.730489 Z M515.977082,61.1502904 C515.977082,101.347804 574.370041,116.432292 574.954003,116.576564 L576,116.836255 L576,183.390744 L576,218.599637 L576,285.150921 L574.954003,285.413818 C574.370041,285.564502 515.977082,300.636165 515.977082,340.846504 L515.977082,342.225107 L479.091238,342.225107 C476.533999,348.432029 460.227993,384 422.402035,384 L306.8065,384 L285.1935,384 L169.594756,384 C131.772007,384 115.469209,348.432029 112.91197,342.225107 L76.0293356,342.225107 L76.0293356,340.846504 C76.0293356,300.636165 17.6363761,285.564502 17.0363716,285.413818 L16,285.150921 L16,218.599637 L16,183.390744 L16,116.836255 L17.0363716,116.576564 C17.6363761,116.432292 76.0293356,101.347804 76.0293356,61.1502904 L76.0293356,59.7620687 L112.91197,59.7620687 C115.469209,53.5615589 131.772007,18 169.594756,18 L285.1935,18 L306.8065,18 L422.402035,18 C460.227993,18 476.533999,53.5615589 479.091238,59.7620687 L515.977082,59.7620687 L515.977082,61.1502904 Z M573.230995,218.599637 L573.230995,183.390744 L573.230995,118.977899 C565.241629,116.714425 514.436963,100.793157 513.233745,62.535306 L477.175716,62.535306 L476.842023,61.6119623 C476.69122,61.2047933 461.665437,20.7604131 422.402035,20.7604131 L306.8065,20.7604131 L285.1935,20.7604131 L169.594756,20.7604131 C130.337772,20.7604131 115.299154,61.2047933 115.154768,61.6119623 L114.827493,62.535306 L78.7726721,62.535306 C77.5694543,100.793157 26.758371,116.714425 18.7625879,118.977899 L18.7625879,183.390744 L18.7625879,218.599637 L18.7625879,283.022101 C26.758371,285.282369 77.5694543,301.197225 78.7726721,339.458282 L114.827493,339.458282 L115.154768,340.372007 C115.299154,340.788795 130.337772,381.233175 169.594756,381.233175 L285.1935,381.233175 L306.8065,381.233175 L422.402035,381.233175 C461.665437,381.233175 476.69122,340.788795 476.842023,340.372007 L477.175716,339.458282 L513.233745,339.458282 C514.436963,301.197225 565.241629,285.282369 573.230995,283.022101 L573.230995,218.599637 Z M491.821947,310.791886 C491.82658,310.801314 491.831198,310.810746 491.8358,310.820183 C492.516509,311.98095 492.928769,313.310321 492.992685,314.840718 C493.222783,320.521344 487.991236,326.895836 482.005477,325.443256 C480.164688,324.99581 478.221634,323.990676 477.173407,322.31113 C475.757661,320.028504 476.157138,316.581868 478.448536,314.980139 C480.362829,313.654011 482.603094,313.722101 484.258526,315.382193 C485.214074,316.354903 485.789321,317.927451 484.945626,319.156307 C484.303267,320.067412 482.753298,320.586191 481.810533,319.778842 C481.554867,319.555119 481.356727,319.250336 481.305594,318.896918 C482.424129,320.702916 484.72831,318.267899 482.999375,316.692109 C481.941561,315.725884 480.014485,316.484597 479.458414,317.700485 C478.605131,319.555119 479.490372,322.038771 481.810533,322.223586 C482.628661,322.288434 483.446789,322.149012 484.201001,321.821533 C487.249808,320.469466 490.282635,316.954741 490.205935,313.427046 C489.995012,304.118211 477.723087,306.238719 471.836398,307.811267 C465.706827,309.442177 460.10137,312.451093 454.898585,316.082544 C448.369537,320.6251 442.182442,326.221424 439.791973,334.129556 C438.638284,337.900429 438.174891,341.882055 438.430556,345.831257 C438.660655,349.41083 439.597029,352.961221 438.673438,356.531067 C437.558099,360.846657 434.087446,365.580512 429.156305,364.941766 C425.998841,364.53647 423.077867,362.364084 421.403261,359.659951 C419.798962,357.053088 419.092687,353.266004 421.927374,351.190889 C424.886698,349.028231 429.699593,350.552143 430.540092,354.361924 C430.971527,356.313828 429.830622,358.427851 427.9387,359.050386 C427.021501,359.283836 426.011624,359.254655 425.193496,358.829905 C424.269906,358.350035 423.426211,357.7275 423.151371,356.657519 C423.007559,356.086863 423.157763,355.623204 423.531673,355.185485 C423.531673,355.321664 423.550848,355.448117 423.570022,355.564842 C424.017436,358.450548 427.9387,356.018773 426.267289,354.105777 C424.867523,352.50729 422.259739,353.700481 422.246956,355.775596 C422.221389,358.427851 424.592683,359.822069 426.963977,359.880432 C428.120861,360.023096 429.319291,359.74101 430.453805,358.859086 C432.674896,357.134147 433.937242,354.316531 433.975592,351.492429 C434.010746,348.499725 433.349213,345.565383 433.467458,342.572679 C433.588899,339.586459 434.023529,336.720207 435.161239,333.938257 C437.190581,329.291945 440.616493,325.112535 444.186217,321.604294 C447.912536,317.94042 452.102248,314.762901 456.662674,312.246824 C463.936346,308.223047 472.437211,304.218725 480.950859,304.941772 C483.402048,305.142799 486.051377,305.895028 488.227727,307.243853 C486.943009,305.895028 485.450564,304.818562 483.938944,304.196028 C476.738776,301.29411 468.678934,303.304377 461.801543,306.216022 C448.155418,311.997162 431.16008,322.943392 427.925917,338.83423 C428.063337,338.166303 428.21354,337.50486 428.382918,336.859629 C431.502032,324.892054 439.996505,317.058496 450.715265,310.635368 C456.911947,306.913131 463.824493,303.502162 471.008682,302.367333 C477.669326,301.305071 485.06629,302.395078 489.678335,307.642083 C486.468286,301.362248 488.250689,293.992178 491.762151,288.137822 C495.503926,281.895219 501.218927,276.755945 506.94672,272.377808 C516.854427,264.824002 527.209867,259.844631 539.31147,261.392489 C539.976674,261.472441 540.62269,261.57158 541.291092,261.696304 C525.556451,258.811659 509.153407,270.51654 498.740401,281.02215 C493.492322,286.318129 488.621619,293.059629 488.57045,300.814912 C488.57045,302.439524 489.002193,304.22084 489.744152,305.919007 C489.334795,303.395742 489.645011,300.661405 490.377375,298.307637 C492.919863,290.149399 499.776585,283.759685 506.198365,278.498885 C510.20878,275.198492 514.686116,272.492938 519.435292,270.391816 C523.986185,268.383437 529.103141,266.746033 534.108164,266.58613 C537.060009,266.566942 539.851948,267.232137 542.627897,268.223534 C545.41344,269.224526 547.840796,270.922693 550.591161,272.000437 C553.18162,273.020617 556.235803,272.8831 558.653565,271.456768 C559.878437,270.734007 560.591612,269.729818 560.892234,268.597707 C561.726937,266.387851 561.346363,263.663108 558.915809,262.703692 C557.006545,261.948951 554.937375,263.925349 555.88721,265.821795 C556.993752,268.079622 560.69715,265.345285 558.22502,263.854991 C558.129077,263.794228 558.017144,263.733465 557.892418,263.685494 C558.436094,263.500007 558.915809,263.535186 559.379533,263.87418 C560.252614,264.526583 560.502066,265.553159 560.598009,266.573338 C560.677961,267.494378 560.335765,268.434606 559.766503,269.202139 C558.480868,270.718017 556.130266,270.99305 554.502434,269.880127 C551.339515,267.689459 551.758466,262.658919 554.851027,260.714502 C557.806069,258.866026 561.004167,260.909583 562.782309,263.368887 C564.621216,265.920935 565.513485,269.438795 564.694772,272.52172 C563.431523,277.318802 557.793277,278.78671 553.427873,278.220654 C549.817221,277.753738 546.929339,275.575863 543.737637,274.028004 C540.23572,272.333035 536.410795,271.284073 532.531502,270.951475 C524.39874,270.244705 516.959964,273.909676 510.35909,278.275021 C505.085427,281.770495 500.227516,285.851213 496.42178,290.929724 C492.775948,295.80356 486.229442,306.398716 494.65643,310.038102 C497.848132,311.419662 502.207139,309.906982 504.586524,307.578798 C505.168577,307.006346 505.609915,306.296378 505.856168,305.516052 C506.553354,303.296602 504.624901,301.550464 502.613297,301.649604 C501.282889,301.726357 499.866131,303.223047 500.345846,304.569428 C501.138974,306.750502 504.231535,305.516052 503.000267,303.821083 C503.313681,303.99058 503.505567,304.287999 503.6175,304.617399 C504.00447,305.775095 502.942701,307.028732 501.86814,307.271785 C500.432195,307.617174 499.213719,306.497855 498.682835,305.247416 C497.771377,303.104719 498.558109,301.000399 500.496157,299.717979 C502.824372,298.176516 506.124809,299.09116 507.679084,301.253045 C508.814409,302.836082 509.009493,305.017156 508.72806,306.888018 C507.797414,312.973916 500.006848,315.465201 494.899485,313.140215 C493.627625,312.561019 492.612187,311.750488 491.821947,310.791886 Z M489.706781,94.3319209 C489.664838,94.3798619 489.622663,94.4274573 489.580258,94.4747086 C488.939002,96.0489337 488.57045,97.6836022 488.57045,99.1845115 C488.621619,106.945619 493.492322,113.686622 498.740401,118.972618 C509.153407,129.48385 525.556451,141.191067 541.291092,138.306634 C540.62269,138.418557 539.976674,138.524085 539.31147,138.610426 C527.209867,140.151775 516.854427,135.172771 506.94672,127.619521 C501.218927,123.248102 495.503926,118.102811 491.762151,111.860667 C488.837285,106.982156 487.112045,101.056011 488.472351,95.5865823 C483.841488,99.7716619 477.115594,100.605061 471.008682,99.6338831 C463.824493,98.4990801 456.911947,95.094671 450.715265,91.3660325 C439.996505,84.9462897 431.502032,77.1161489 428.382918,65.1488404 C428.21354,64.4971393 428.063337,63.8421958 427.925917,63.1677986 C431.16008,79.0615255 448.155418,90.0075112 461.801543,95.7917643 C468.678934,98.7001023 476.738776,100.713567 483.938944,97.7987445 C485.450564,97.1924354 486.943009,96.1127514 488.227727,94.763957 C486.051377,96.1030245 483.402048,96.8552368 480.950859,97.065986 C472.437211,97.7857753 463.936346,93.7815418 456.662674,89.7513699 C452.102248,87.2385918 447.912536,84.0611433 444.186217,80.400593 C440.616493,76.885946 437.190581,72.7066285 435.161239,68.0604207 C434.023529,65.2882591 433.588899,62.4155863 433.467458,59.4359178 C433.349213,56.4335532 434.010746,53.5025191 433.975592,50.5098815 C433.937242,47.6826008 432.674896,44.8747739 430.453805,43.1401464 C429.319291,42.2614847 428.120861,41.9761627 426.963977,42.122066 C424.592683,42.1869119 422.221389,43.5746139 422.246956,46.2332952 C422.259739,48.3083636 424.867523,49.4982856 426.267289,47.8965922 C427.9387,45.9901231 424.017436,43.5519178 423.570022,46.4343175 C423.550848,46.5510401 423.531673,46.6774895 423.531673,46.8169082 C423.157763,46.3824408 423.007559,45.9155504 423.151371,45.3481489 C423.426211,44.2717071 424.269906,43.6491866 425.193496,43.179054 C426.011624,42.7510711 427.021501,42.7186482 427.9387,42.9618202 C429.830622,43.5810984 430.971527,45.6950744 430.540092,47.6469356 C429.699593,51.4533891 424.886698,52.983752 421.927374,50.8081725 C419.092687,48.7298619 419.798962,44.952589 421.403261,42.3490266 C423.077867,39.6417108 425.998841,37.462889 429.156305,37.0576022 C434.087446,36.4221125 437.558099,41.1623469 438.673438,45.4778406 C439.597029,49.0411221 438.660655,52.5881921 438.430556,56.1709274 C438.174891,60.1200419 438.638284,64.1080639 439.791973,67.8788523 C442.182442,75.7868082 448.369537,81.3830082 454.898585,85.9254626 C460.10137,89.5471054 465.706827,92.5591968 471.836398,94.1933132 C477.723087,95.7690682 489.995012,97.8830441 490.205935,88.5776594 C490.282635,85.0435585 487.249808,81.535396 484.201001,80.180117 C483.446789,79.8526453 482.628661,79.7197112 481.810533,79.7845571 C479.490372,79.9628833 478.605131,82.4464808 479.458414,84.2945885 C480.014485,85.5136912 481.941561,86.2756304 482.999375,85.3094267 C484.72831,83.7304293 482.424129,81.2954663 481.305594,83.1079088 C481.356727,82.7447718 481.554867,82.4464808 481.810533,82.2195201 C482.753298,81.4089466 484.303267,81.9341982 484.945626,82.8517675 C485.789321,84.0741125 485.214074,85.6531099 484.258526,86.6160713 C482.603094,88.2858529 480.362829,88.353941 478.448536,87.0181158 C476.157138,85.4261493 475.757661,81.9698635 477.173407,79.6905306 C478.221634,78.0077798 480.164688,77.0026686 482.005477,76.5649588 C487.991236,75.1124109 493.222783,81.480277 492.992685,87.164019 C492.97902,87.4905139 492.949432,87.8081166 492.904702,88.1170488 C493.48417,87.6296518 494.146942,87.2059912 494.899485,86.8633134 C500.006848,84.5321031 507.797414,87.0232044 508.72806,93.1150503 C509.009493,94.9889725 508.814409,97.1602918 507.679084,98.7432124 C506.124809,100.908136 502.824372,101.82591 500.496157,100.284561 C498.558109,99.0054336 497.771377,96.891675 498.682835,94.749136 C499.213719,93.5051843 500.432195,92.3891453 501.86814,92.7249163 C502.942701,92.9743463 504.00447,94.2246936 503.6175,95.3855021 C503.505567,95.7116796 503.313681,96.0090768 503.000267,96.1817591 C504.231535,94.483717 501.138974,93.2429631 500.345846,95.4302715 C499.866131,96.7765535 501.282889,98.2795286 502.613297,98.3466828 C504.624901,98.4554087 506.553354,96.7093993 505.856168,94.483717 C505.609915,93.7034491 505.168577,92.9903354 504.586524,92.4211235 C502.207139,90.0995066 497.848132,88.5805424 494.65643,89.9620004 C486.229442,93.6043167 492.775948,104.20189 496.42178,109.075367 C500.227516,114.153504 505.085427,118.233921 510.35909,121.722742 C516.959964,126.087766 524.39874,129.758862 532.531502,129.048947 C536.410795,128.709978 540.23572,127.661093 543.737637,125.969446 C546.929339,124.428098 549.817221,122.243987 553.427873,121.77071 C557.793277,121.207893 563.431523,122.675693 564.694772,127.482015 C565.513485,130.558317 564.621216,134.079116 562.782309,136.624581 C561.004167,139.093297 557.806069,141.133506 554.851027,139.285166 C551.758466,137.34409 551.339515,132.31392 554.502434,130.120216 C556.130266,129.000979 558.480868,129.27919 559.766503,130.801352 C560.335765,131.562433 560.677961,132.508987 560.598009,133.426761 C560.502066,134.446866 560.252614,135.476563 559.379533,136.119325 C558.915809,136.471085 558.436094,136.499866 557.892418,136.31759 C558.017144,136.263227 558.129077,136.208864 558.22502,136.148106 C560.69715,134.657922 556.993752,131.917391 555.88721,134.171853 C554.937375,136.077754 557.006545,138.044412 558.915809,137.289727 C561.346363,136.333579 561.726937,133.61863 560.892234,131.396146 C560.591612,130.267316 559.878437,129.2632 558.653565,128.537295 C556.235803,127.114266 553.18162,126.983155 550.591161,127.996864 C547.840796,129.071331 545.41344,130.778967 542.627897,131.779884 C539.851948,132.771208 537.060009,133.433157 534.108164,133.410772 C529.103141,133.247683 523.986185,131.6104 519.435292,129.598971 C514.686116,127.510795 510.20878,124.795847 506.198365,121.505291 C499.776585,116.244878 492.919863,109.855635 490.377375,101.688404 C489.66863,99.4138091 489.355244,96.7858183 489.706781,94.3319209 Z M98.4167153,89.5079532 C98.1853714,88.7828181 98.0443841,88.0027601 98.007521,87.164019 C97.7742066,81.480277 103.003005,75.1124109 108.992471,76.5649588 C110.836613,77.0026686 112.779834,78.0077798 113.821758,79.6905306 C115.237624,81.9698635 114.84131,85.4261493 112.546519,87.0181158 C110.638456,88.353941 108.382018,88.2858529 106.742426,86.6160713 C105.780404,85.6531099 105.205108,84.0741125 106.052071,82.8517675 C106.688092,81.9341982 108.247783,81.4089466 109.184236,82.2195201 C109.443119,82.4464808 109.638081,82.7447718 109.689218,83.1079088 C108.57698,81.2954663 106.269405,83.7304293 107.998488,85.3094267 C109.059589,86.2756304 110.980437,85.5136912 111.542948,84.2945885 C112.389911,82.4464808 111.501399,79.9628833 109.184236,79.7845571 C108.369234,79.7197112 107.551036,79.8526453 106.796759,80.180117 C103.744497,81.535396 100.708214,85.0435585 100.791313,88.5776594 C100.999058,97.8830441 113.268835,95.7690682 119.156027,94.1933132 C125.289317,92.5591968 130.898449,89.5471054 136.098482,85.9254626 C142.624892,81.3830082 148.818908,75.7868082 151.215973,67.8788523 C152.360172,64.1080639 152.823604,60.1200419 152.571113,56.1709274 C152.340995,52.5881921 151.401346,49.0411221 152.328211,45.4778406 C153.437253,41.1623469 156.920987,36.4221125 161.836569,37.0576022 C164.994303,37.462889 167.921918,39.6417108 169.593471,42.3490266 C171.207495,44.952589 171.901046,48.7298619 169.075705,50.8081725 C166.106541,52.983752 161.29643,51.4533891 160.462252,47.6469356 C160.03078,45.6950744 161.171783,43.5810984 163.063866,42.9618202 C163.977947,42.7186482 164.991106,42.7510711 165.809305,43.179054 C166.720189,43.6491866 167.583133,44.2717071 167.851604,45.3481489 C167.995428,45.9155504 167.845212,46.3824408 167.468074,46.8169082 C167.468074,46.6774895 167.452093,46.5510401 167.436113,46.4343175 C166.988661,43.5519178 163.063866,45.9901231 164.732223,47.8965922 C166.138502,49.4982856 168.740116,48.3083636 168.7529,46.2332952 C168.775273,43.5746139 166.413365,42.1869119 164.041869,42.122066 C162.878493,41.9761627 161.683157,42.2614847 160.551742,43.1401464 C158.330462,44.8747739 157.055223,47.6826008 157.023262,50.5098815 C156.988105,53.5025191 157.656087,56.4335532 157.53144,59.4359178 C157.409989,62.4155863 156.975321,65.2882591 155.843906,68.0604207 C153.814391,72.7066285 150.388186,76.885946 146.808569,80.400593 C143.088324,84.0611433 138.895058,87.2385918 134.334243,89.7513699 C127.059949,93.7815418 118.567947,97.7857753 110.053572,97.065986 C107.595781,96.8552368 104.949421,96.1030245 102.763298,94.763957 C104.051321,96.1127514 105.543893,97.1924354 107.052446,97.7987445 C114.256426,100.713567 122.323349,98.7001023 129.191739,95.7917643 C142.845422,90.0075112 159.842211,79.0615255 163.079847,63.1677986 C162.942415,63.8421958 162.789003,64.4971393 162.613218,65.1488404 C159.497033,77.1161489 151.005031,84.9462897 140.285356,91.3660325 C134.084948,95.094671 127.175008,98.4990801 119.990205,99.6338831 C113.208954,100.712688 105.661024,99.5647838 101.061384,94.0696093 C103.201386,99.9416491 101.437256,106.527224 98.2370812,111.860667 C94.4923076,118.102811 88.7808084,123.248102 83.0533195,127.619521 C73.1493367,135.172771 62.7944461,140.151775 50.6838931,138.610426 C50.02512,138.524085 49.3727427,138.418557 48.7043758,138.306634 C64.441379,141.191067 80.8467492,129.48385 91.2560046,118.972618 C96.5038043,113.686622 101.377446,106.945619 101.425415,99.1845115 C101.431811,97.5600192 101.003289,95.7788338 100.251776,94.0871874 C100.657913,96.6102669 100.357307,99.3380068 99.621784,101.688404 C97.0762334,109.855635 90.2262718,116.244878 83.8048325,121.505291 C79.791433,124.795847 75.3143339,127.510795 70.5718068,129.598971 C66.0115616,131.6104 60.9012728,133.247683 55.8965156,133.410772 C52.9416302,133.433157 50.1466413,132.771208 47.3676419,131.779884 C44.5854446,130.778967 42.1550194,129.071331 39.4111972,127.996864 C36.8176777,126.983155 33.7668545,127.114266 31.349221,128.537295 C30.1244146,129.2632 29.4080787,130.267316 29.1074735,131.396146 C28.2696164,133.61863 28.6565657,136.333579 31.080595,137.289727 C32.989758,138.044412 35.0620153,136.077754 34.1218245,134.171853 C33.0057476,131.917391 29.308943,134.657922 31.7745454,136.148106 C31.8704832,136.208864 31.9856086,136.263227 32.1071299,136.31759 C31.5634822,136.499866 31.080595,136.471085 30.6232913,136.119325 C29.7438612,135.476563 29.4976207,134.446866 29.4048808,133.426761 C29.3249326,132.508987 29.6703088,131.562433 30.2331441,130.801352 C31.5123153,129.27919 33.875584,129.000979 35.5001314,130.120216 C38.66608,132.31392 38.2503494,137.34409 35.1547552,139.285166 C32.193474,141.133506 28.995546,139.093297 27.220696,136.624581 C25.3786896,134.079116 24.4896656,130.558317 25.3019393,127.482015 C26.5715167,122.675693 32.2126615,121.207893 36.5714373,121.77071 C40.1786999,122.243987 43.0728247,124.428098 46.2611588,125.969446 C49.7692858,127.661093 53.5908096,128.709978 57.4698962,129.048947 C65.5990289,129.758862 73.0374092,126.087766 79.6347345,121.722742 C84.9177114,118.233921 89.772166,114.153504 93.5808982,109.075367 C97.223338,104.20189 103.769496,93.6043167 95.3429564,89.9620004 C92.1450285,88.5805424 87.7958466,90.0995066 85.4101923,92.4211235 C84.8313674,92.9903354 84.3932513,93.7034491 84.1470108,94.483717 C83.4434667,96.7093993 85.381411,98.4554087 87.3897097,98.3466828 C88.7168498,98.2795286 90.1335319,96.7765535 89.6506447,95.4302715 C88.8575586,93.2429631 85.7683603,94.483717 86.9963646,96.1817591 C86.6861656,96.0090768 86.487894,95.7116796 86.3855604,95.3855021 C85.9954131,94.2246936 87.0571252,92.9743463 88.131629,92.7249163 C89.5643007,92.3891453 90.7859092,93.5051843 91.3167652,94.749136 C92.2249767,96.891675 91.4350885,99.0054336 89.506738,100.284561 C87.1786465,101.82591 83.8751869,100.908136 82.3241919,98.7432124 C81.1825316,97.1602918 80.9938539,94.9889725 81.2720736,93.1150503 C82.2026706,87.0232044 89.992823,84.5321031 95.0999139,86.8633134 C96.4654291,87.4836904 97.5335371,88.3694864 98.3394149,89.4183711 C98.3652861,89.4480673 98.3910535,89.4779296 98.4167153,89.5079532 Z M57.709316,109.241174 C57.2290932,108.061233 57.1663189,106.750551 57.0187995,105.485629 C56.8775575,104.253391 56.5574089,103.109404 56.1839023,101.936001 C56.7457316,103.390498 58.5316584,104.684838 59.8530559,105.286248 C60.5561272,105.596759 61.080292,105.97264 61.4192729,106.636153 C61.4443825,106.377938 61.4757697,106.113187 61.5385439,105.868047 C61.7456988,104.972469 62.134899,104.230512 62.7751962,103.58661 C63.7952774,102.563559 65.3081363,102.351104 66.6044241,102.815236 C67.5774246,103.164969 68.4185992,103.87751 68.8894059,104.831922 C69.5422579,106.15241 69.856129,108.479606 67.9477925,108.835876 C67.2823857,108.96008 66.551066,108.38155 66.6577821,107.64613 C66.7205564,107.214683 67.0030404,107.002228 67.4079342,106.949932 C66.7582209,107.038182 66.8649371,108.221392 67.5428988,108.162558 C68.2710798,108.110261 68.6257542,106.740746 68.2459701,106.21778 C67.2384438,104.848264 65.3897427,106.910709 65.0884265,107.865121 C64.5768165,109.502657 66.2277787,111.476851 67.3357438,112.467217 C68.1361152,113.183026 69.149919,113.588324 70.1762776,113.817122 C73.5880569,114.581959 77.3984525,113.026137 80.4335864,111.496463 C83.8798915,109.76414 87.1315965,107.482703 89.8246108,104.652152 C92.5144865,101.831408 94.2627487,98.0202969 93.6130355,94 C94.2878584,98.1346956 94.2219455,101.337859 92.2602509,105.063988 C90.5716242,108.280225 88.1014583,111.048674 85.3739181,113.346453 C82.2917035,115.958012 78.6602145,118.000845 74.7839059,118.968332 C73.0168114,119.409584 71.1994975,119.559936 69.3978772,119.35075 C67.3796858,119.108878 65.8009139,118.219837 64.0965937,117.101999 C63.1330093,116.533274 62.1474539,116.167198 61.0708759,116.605181 C60.3552497,116.889544 59.9409398,117.468074 59.9440785,118.25906 C59.9534946,119.108878 60.7821144,120.837933 61.8429989,120.478394 C62.385996,120.282282 62.7751962,119.409584 62.2635862,118.99448 C61.8429989,118.657821 61.0457662,118.886618 61.2905857,119.543594 C61.0175178,118.801636 61.3941632,118.12505 62.2541701,118.187152 C63.4280481,118.285208 63.4217707,119.899864 63.0231544,120.720266 C62.527238,121.746585 60.9202177,122.178032 59.9126914,121.932892 C58.7733392,121.645261 57.6998999,120.792174 57.0470479,119.782196 C56.4977734,118.919304 56.3220056,117.850493 56.4538314,116.837247 C56.5448541,116.098559 56.8493091,114.630987 57.524132,114.219152 C57.0187995,114.519857 56.0897409,114.232226 55.6440439,113.862881 C54.903308,113.222249 54.5894369,111.757945 54.109214,110.891784 C53.5568008,109.904687 52.9667231,108.852219 52,108.250808 C53.3559233,108.466532 54.6396563,108.084113 55.9610538,108.250808 C56.7268993,108.355401 57.2290932,108.7607 57.709316,109.241174 Z M63.233448,107.881464 C62.8630801,109.123507 61.5981794,110.649912 60.2171464,110.623764 C59.6929816,110.617227 59.2786717,110.280568 58.8047263,110.107336 C59.8436397,110.49956 60.0570721,112.199198 59.6584558,113.13073 C59.3351685,113.895567 59.0558232,114.75846 58.6289584,115.474269 C59.1060426,114.686552 59.7683107,114.255105 60.4996304,113.761557 C61.2748921,113.222249 62.4581863,113.428166 63.3087771,113.683112 C64.2535292,113.957669 65.1292297,114.51332 65.9735431,115.010137 C68.8737124,116.6967 70.3646003,116.997405 73.6665247,116.458097 C70.0287582,117.052971 67.6182278,115.134341 64.7902489,112.970572 C63.396661,111.888687 62.7375316,109.643204 63.233448,107.881464 Z M98.4167153,89.5079532 C98.6065861,90.1030931 98.8573208,90.6612371 99.1613083,91.184464 C99.4713287,91.8134691 99.8420747,92.4262627 100.25437,93.0163603 C100.511871,93.3838988 100.781156,93.734822 101.061384,94.0696093 C100.692926,93.0585818 100.20873,92.0687069 99.5962006,91.1100176 C99.2373279,90.546094 98.8414843,90.0049211 98.4167153,89.5079532 Z M128.252283,57.6297734 C129.331997,58.2124065 130.487926,58.7358417 131.367575,59.6082336 C131.129403,58.9850965 130.942041,58.3775379 131.145281,57.6453518 C131.500952,56.3648052 132.332967,55.3210506 132.65053,54 C132.822014,55.0967212 133.546057,56.0220798 134.222466,56.8757775 C134.819485,57.6391204 136.019873,58.4460829 136.312031,59.3558631 C136.489866,59.8979923 136.391421,60.8638547 135.924604,61.2128115 C136.55973,60.7392273 137.985587,60.9853665 138.687401,61.1691919 C139.649617,61.4184467 140.54832,61.9543446 141.107231,62.7768855 C141.777289,63.7334009 142.136135,65.0170633 141.951949,66.1823296 C141.793167,67.1949273 140.799195,68.5222092 139.681373,68.6032171 C138.795373,68.6779935 137.337759,68.1109388 137.709307,66.9924078 C137.972885,66.1760982 138.719158,66.0701649 139.28442,66.5936 C138.78267,66.1293629 138.277745,66.7805412 138.423824,67.2852822 C138.608011,67.9084192 139.535294,67.8585683 139.919546,67.4223723 C140.643589,66.5936 139.401918,65.2040044 138.633416,64.8924359 C137.92525,64.5995614 137.248841,64.7802712 136.724862,65.3255161 C135.921428,66.1760982 135.876969,67.2011587 136.019873,68.2978799 C136.378719,70.257646 136.581959,72.0335866 136.026224,73.9777742 C135.530826,75.7100953 134.708338,77.3302516 133.63815,78.8008551 C131.29136,82.0131267 128.074447,84.6209553 124.55585,86.533986 C121.450084,88.2102247 118.014053,89.48454 114.473226,89.8926948 C110.376664,90.3600476 107.464612,89.2726734 104,87.1789329 C107.382045,89.2165911 111.469081,88.9611049 115.028961,87.5060799 C118.601545,86.0417078 121.904199,83.8700751 124.768617,81.3214445 C127.290067,79.0812668 130.148134,76.1275971 130.751503,72.7096903 C130.932514,71.6846298 130.957919,70.6159498 130.614951,69.6189305 C130.141782,68.2449133 128.989029,66.0171983 127.328175,65.8988022 C126.350081,65.8396042 123.793699,66.802351 124.644768,68.2106407 C124.975033,68.75277 126.334203,68.9179013 126.667644,68.2667231 C126.969328,67.6591644 125.946776,67.1419607 125.626037,67.7121311 C125.819751,67.3507116 126.111908,67.1668861 126.531092,67.2665881 C127.239257,67.4286037 127.48378,68.3103426 127.115407,68.871166 C126.06745,70.5162478 124.092208,69.3790227 123.149046,68.3134583 C122.472637,67.5407684 122.142372,66.5032452 122.205884,65.4875318 C122.278924,64.129093 123.041075,62.8049267 124.346258,62.237872 C125.178273,61.8795682 125.991235,61.7985603 126.880411,61.9169564 C127.124934,61.9512289 127.378985,62.0073113 127.617157,62.0820877 C127.137637,61.5368428 127.00426,60.9199371 126.991558,60.1534785 C126.969328,58.7296103 126.467579,56.6265227 125.375162,55.5858838 C126.292919,56.346111 127.191622,57.0502559 128.252283,57.6297734 Z M131.666084,62.4030033 C131.164335,63.6866656 129.306592,64.306687 128.042691,64.2007537 C129.821044,64.3690007 131.599396,65.7804062 132.031282,67.4566449 C132.914107,70.8402791 133.717541,73.7316351 131.805812,76.8691302 C133.542882,74.0276252 133.841391,72.5476747 133.428559,69.2699737 C133.307885,68.3134583 133.133225,67.316439 133.238021,66.3505766 C133.339641,65.465722 133.603219,64.306687 134.378072,63.7832519 C135.105291,63.297205 135.743593,62.8391992 136.63912,62.6865307 C135.829335,62.8267365 134.94651,62.7675385 134.124022,62.7893483 C133.139577,62.8205051 131.688314,62.0228897 131.735948,60.9199371 C131.713719,61.4246781 131.853447,61.9231878 131.666084,62.4030033 Z M144.79533,61.2038981 C144.204757,57.9399983 142.801753,54.7916348 142.351792,51.5148977 C141.779967,47.41336 143.53294,43.5075921 145.95148,40.3784846 C148.504383,37.0664448 151.904088,34.8134874 155.994358,34.0913857 C158.22229,33.6998461 161.262651,34.5984616 163,36.174248 C162.684402,35.882198 162.259439,35.6575441 161.853225,35.4970771 C161.634494,35.4040062 161.409513,35.3237727 161.181408,35.2595858 C159.600295,34.8070688 157.841073,34.8295341 156.234962,35.185771 C155.850621,35.2660045 155.466279,35.3751221 155.097561,35.5195424 C153.210225,36.2673189 151.407256,37.3937976 150.257356,39.1525164 C148.098169,42.4485096 148.132541,46.5500473 148.398143,50.359535 C148.707491,54.2235815 149.451176,58.1261401 149.329312,62.0094426 C149.223071,65.3439479 148.245031,68.5597075 146.545178,71.4031836 C144.595348,74.6799207 141.9737,77.6132583 139.045829,80.2513366 C135.289905,83.6307726 131.034025,86.5255981 127,89 C130.45595,86.872207 133.546307,83.784821 136.477302,80.9606009 C137.411596,80.0587761 138.317768,79.1248579 139.189567,78.1492183 C140.464456,76.5541758 141.573735,74.8564344 142.37679,72.6034771 C143.779793,68.6752438 143.65168,64.2977027 142.258051,60.3823068 C139.983248,53.9507875 136.796025,49.3453833 140.789428,43.0261909 C137.245986,48.6361189 142.573648,57.4489691 143.829789,62.7796845 C144.429737,65.2829704 144.601597,68.1681679 144.082892,70.8319209 C145.417151,67.7670003 145.398403,64.4838445 144.79533,61.2038981 Z M532.987038,105.485629 C532.839505,106.750551 532.776726,108.061233 532.293322,109.241174 C532.776726,108.7607 533.272686,108.355401 534.038598,108.250808 C535.369529,108.087382 536.647097,108.466532 538,108.250808 C537.03947,108.852219 536.443062,109.904687 535.890601,110.891784 C535.407197,111.757945 535.105854,113.222249 534.358775,113.862881 C533.9099,114.232226 532.987038,114.519857 532.475383,114.22242 C533.156543,114.634255 533.457886,116.098559 533.548916,116.837247 C533.677615,117.850493 533.50811,118.919304 532.955648,119.782196 C532.2996,120.792174 531.232344,121.645261 530.092892,121.932892 C529.085277,122.178032 527.474977,121.746585 526.975878,120.720266 C526.580365,119.899864 526.574087,118.285208 527.751207,118.187152 C528.608151,118.12505 528.975412,118.801636 528.711737,119.543594 C528.956578,118.886618 528.159276,118.657821 527.738651,118.997748 C527.230136,119.409584 527.616231,120.282282 528.159276,120.478394 C529.220253,120.837933 530.048946,119.108878 530.061502,118.25906 C530.061502,117.468074 529.644017,116.889544 528.934605,116.605181 C527.848516,116.167198 526.866013,116.536542 525.905483,117.101999 C524.201013,118.219837 522.618964,119.108878 520.600595,119.35075 C518.798816,119.559936 516.984482,119.409584 515.22351,118.968332 C511.343722,118.000845 507.708775,115.958012 504.623151,113.346453 C501.901649,111.048674 499.431266,108.280225 497.733074,105.063988 C495.777486,101.337859 495.711567,98.1346956 496.389588,94 C495.73354,98.0235654 497.488233,101.834676 500.178345,104.652152 C502.871596,107.482703 506.120448,109.76414 509.560778,111.499731 C512.593039,113.026137 516.413186,114.581959 519.822126,113.82039 C520.845436,113.588324 521.859329,113.183026 522.656631,112.467217 C523.77725,111.476851 525.41894,109.502657 524.910424,107.865121 C524.61222,106.910709 522.760218,104.848264 521.758881,106.21778 C521.372786,106.744014 521.73063,108.110261 522.465153,108.162558 C523.133757,108.221392 523.243622,107.038182 522.587574,106.949932 C522.998781,107.005497 523.28129,107.214683 523.340931,107.64613 C523.450795,108.38155 522.716272,108.96008 522.060224,108.835876 C520.142303,108.479606 520.459341,106.15241 521.109111,104.83519 C521.57682,103.880778 522.421207,103.164969 523.397432,102.815236 C524.690695,102.351104 526.209965,102.563559 527.230136,103.58661 C527.86735,104.230512 528.253445,104.972469 528.466896,105.868047 C528.523398,106.113187 528.557927,106.377938 528.583039,106.636153 C528.92205,105.97264 529.449399,105.596759 530.152532,105.286248 C531.470907,104.688106 533.26013,103.390498 533.812591,101.936001 C533.44533,103.109404 533.118875,104.253391 532.987038,105.485629 Z M529.785271,110.623764 C528.400978,110.649912 527.135966,109.123507 526.774982,107.881464 C527.264664,109.643204 526.602338,111.888687 525.211767,112.970572 C522.380401,115.134341 519.975937,117.052971 516.328434,116.458097 C519.633787,116.997405 521.121667,116.6967 524.028369,115.010137 C524.869617,114.51332 525.745395,113.960937 526.69023,113.686381 C527.547173,113.428166 528.724293,113.222249 529.502762,113.761557 C530.234146,114.255105 530.896472,114.686552 531.36732,115.474269 C530.943557,114.75846 530.667326,113.895567 530.344011,113.133998 C529.945359,112.199198 530.152532,110.49956 531.194676,110.107336 C530.723828,110.283837 530.312621,110.617227 529.785271,110.623764 Z M489.706781,94.3319209 C490.067758,93.9193231 490.411545,93.4811261 490.73644,93.0163603 C491.155092,92.4262627 491.529002,91.8134691 491.8358,91.184464 C492.370975,90.2718865 492.740217,89.2530912 492.904702,88.1170488 C492.435113,88.5120256 492.020231,88.9488591 491.656614,89.4183711 C491.205682,89.9396157 490.78993,90.5120253 490.396564,91.1100176 C489.482639,92.5436508 488.855256,94.0470229 488.472351,95.5865823 C488.856594,95.2393278 489.226413,94.8689979 489.580258,94.4747086 C489.633058,94.345089 489.687707,94.2158791 489.744152,94.0871874 C489.73095,94.1685589 489.718496,94.2501432 489.706781,94.3319209 Z M459.622054,59.6051179 C460.508082,58.7358417 461.664047,58.2124065 462.750146,57.6297734 C463.807663,57.0502559 464.703218,56.346111 465.627355,55.5858838 C464.534904,56.6265227 464.039491,58.7296103 464.007734,60.1534785 C463.988679,60.9199371 463.858474,61.5368428 463.382115,62.0820877 C463.623471,62.0073113 463.877529,61.9512289 464.118884,61.9169564 C465.004912,61.7985603 465.817898,61.8795682 466.649939,62.237872 C467.951987,62.8049267 468.720513,64.129093 468.796731,65.4875318 C468.857069,66.5032452 468.523618,67.5407684 467.847188,68.3134583 C466.910349,69.3790227 464.93187,70.5162478 463.88388,68.871166 C463.518672,68.3103426 463.760027,67.4286037 464.468214,67.2634724 C464.881059,67.1668861 465.179577,67.3507116 465.379648,67.7121311 C465.049372,67.138845 464.026788,67.6591644 464.334834,68.2667231 C464.658758,68.9179013 466.024321,68.75277 466.357772,68.2106407 C467.202515,66.802351 464.646055,65.8364885 463.661579,65.8988022 C462.010201,66.0171983 460.857412,68.2449133 460.377877,69.6189305 C460.044426,70.6159498 460.069832,71.6846298 460.254024,72.7065746 C460.844709,76.1275971 463.702864,79.0781511 466.227567,81.3214445 C469.095249,83.8669594 472.401181,86.0417078 475.973874,87.5029642 C479.533865,88.9611049 483.621026,89.2165911 487,87.1789329 C483.532106,89.2726734 480.623139,90.3600476 476.523275,89.8926948 C472.982339,89.48454 469.546202,88.2102247 466.446692,86.533986 C462.921635,84.6209553 459.707799,82.0131267 457.357761,78.8008551 C456.284365,77.3302516 455.468203,75.7100953 454.975965,73.9777742 C454.417037,72.0335866 454.617108,70.2545303 454.982316,68.2947642 C455.118873,67.2011587 455.074413,66.1760982 454.270954,65.3255161 C453.750134,64.7802712 453.073704,64.5995614 452.365517,64.8924359 C451.596991,65.2040044 450.355282,66.5936 451.082523,67.4223723 C451.466786,67.8585683 452.397274,67.9053036 452.575115,67.2852822 C452.718023,66.7805412 452.216258,66.1293629 451.714493,66.5936 C452.286124,66.0701649 453.022893,66.1760982 453.289654,66.9924078 C453.661214,68.1109388 452.203555,68.6779935 451.323878,68.6032171 C450.19332,68.5222092 449.202493,67.1949273 449.046882,66.1823296 C448.865865,65.0170633 449.221547,63.7334009 449.897977,62.7768855 C450.447378,61.9543446 451.349284,61.415331 452.308354,61.1660762 C453.01019,60.9853665 454.442443,60.7392273 455.074413,61.2128115 C454.610756,60.8638547 454.512309,59.8979923 454.69015,59.3558631 C454.982316,58.4460829 456.179566,57.6391204 456.770251,56.8726619 C457.453032,56.0220798 458.177098,55.0967212 458.345412,54 C458.659809,55.3179349 459.498201,56.3616895 459.850707,57.6453518 C460.057129,58.3775379 459.869761,58.9850965 459.622054,59.6051179 Z M462.947041,64.2007537 C461.692628,64.306687 459.834828,63.6866656 459.329887,62.4030033 C459.145695,61.9231878 459.294954,61.4215624 459.263197,60.9199371 C459.307657,62.0228897 457.859525,62.8205051 456.868699,62.7893483 C456.049361,62.7675385 455.169684,62.8267365 454.36305,62.6865307 C455.255429,62.8391992 455.89375,63.297205 456.620992,63.7832519 C457.402221,64.306687 457.656279,65.465722 457.761078,66.3474609 C457.865877,67.316439 457.694388,68.3134583 457.570534,69.2699737 C457.160865,72.5476747 457.456208,74.0276252 459.193331,76.8660145 C457.278367,73.7316351 458.085002,70.8402791 458.964679,67.4566449 C459.399753,65.7804062 461.178161,64.3690007 462.947041,64.2007537 Z M445.20158,61.2038981 C444.604653,64.4838445 444.585902,67.7670003 445.911017,70.8319209 C445.401597,68.1681679 445.573487,65.2829704 446.167289,62.7796845 C447.423648,57.4489691 452.758486,48.6361189 449.211303,43.0261909 C453.2054,49.3453833 450.023874,53.9507875 447.7393,60.3823068 C446.354805,64.2977027 446.220418,68.6752438 447.623665,72.6034771 C448.429985,74.8564344 449.536331,76.5541758 450.817693,78.1492183 C451.677142,79.1248579 452.592847,80.0587761 453.527303,80.9606009 C456.458807,83.784821 459.552826,86.872207 463,89 C458.971525,86.5255981 454.711781,83.6307726 450.95833,80.2513366 C448.026825,77.6132583 445.407848,74.6799207 443.454553,71.4031836 C441.75128,68.5597075 440.782446,65.3439479 440.673062,62.0094426 C440.557427,58.1261401 441.294991,54.2235815 441.601267,50.359535 C441.86379,46.5500473 441.898168,42.4485096 439.744856,39.1525164 C438.597882,37.3937976 436.791475,36.2673189 434.897561,35.5195424 C434.538154,35.3751221 434.153746,35.2660045 433.769338,35.185771 C432.156698,34.8295341 430.400295,34.8070688 428.825158,35.2595858 C428.587638,35.3237727 428.359493,35.4040062 428.146975,35.4970771 C427.737564,35.6575441 427.315652,35.882198 427,36.174248 C428.737651,34.5984616 431.77854,33.6998461 434.000608,34.0913857 C438.097838,34.8134874 441.501259,37.0664448 444.048355,40.3784846 C446.47044,43.5075921 448.229968,47.41336 447.654918,51.5148977 C447.198628,54.7916348 445.798507,57.9399983 445.20158,61.2038981 Z M81.2720736,306.888018 C80.9938539,305.017156 81.1825316,302.836082 82.3241919,301.253045 C83.8751869,299.09116 87.1786465,298.176516 89.506738,299.717979 C91.4350885,301.000399 92.2249767,303.104719 91.3167652,305.247416 C90.7859092,306.497855 89.5643007,307.617174 88.131629,307.271785 C87.0571252,307.028732 85.9954131,305.775095 86.3855604,304.617399 C86.487894,304.287999 86.6861656,303.99058 86.9963646,303.821083 C85.7683603,305.516052 88.8575586,306.750502 89.6506447,304.569428 C90.1335319,303.223047 88.7168498,301.726357 87.3897097,301.649604 C85.381411,301.550464 83.4434667,303.296602 84.1470108,305.516052 C84.3932513,306.296378 84.8313674,307.006346 85.4101923,307.578798 C87.7958466,309.906982 92.1450285,311.419662 95.3429564,310.038102 C103.769496,306.398716 97.223338,295.80356 93.5808982,290.929724 C89.772166,285.851213 84.9177114,281.770495 79.6347345,278.275021 C73.0374092,273.909676 65.5990289,270.244705 57.4698962,270.951475 C53.5908096,271.284073 49.7692858,272.333035 46.2611588,274.028004 C43.0728247,275.575863 40.1786999,277.753738 36.5714373,278.220654 C32.2126615,278.78671 26.5715167,277.318802 25.3019393,272.52172 C24.4896656,269.438795 25.3786896,265.920935 27.220696,263.368887 C28.995546,260.909583 32.193474,258.866026 35.1547552,260.714502 C38.2503494,262.658919 38.66608,267.689459 35.5001314,269.880127 C33.875584,270.99305 31.5123153,270.718017 30.2331441,269.202139 C29.6703088,268.434606 29.3249326,267.494378 29.4048808,266.573338 C29.4976207,265.553159 29.7438612,264.526583 30.6232913,263.87418 C31.080595,263.535186 31.5634822,263.500007 32.1071299,263.685494 C31.9856086,263.733465 31.8704832,263.794228 31.7745454,263.854991 C29.308943,265.345285 33.0057476,268.079622 34.1218245,265.821795 C35.0620153,263.925349 32.989758,261.948951 31.080595,262.703692 C28.6565657,263.663108 28.2696164,266.387851 29.1074735,268.597707 C29.4080787,269.729818 30.1244146,270.734007 31.349221,271.456768 C33.7668545,272.8831 36.8176777,273.020617 39.4111972,272.000437 C42.1550194,270.922693 44.5854446,269.224526 47.3676419,268.223534 C50.1466413,267.232137 52.9416302,266.566942 55.8965156,266.58613 C60.9012728,266.746033 66.0115616,268.383437 70.5718068,270.391816 C75.3143339,272.492938 79.791433,275.198492 83.8048325,278.498885 C90.2262718,283.759685 97.0762334,290.149399 99.621784,298.307637 C100.357307,300.661405 100.657913,303.395742 100.251776,305.919007 C101.003289,304.22084 101.431811,302.439524 101.425415,300.814912 C101.377446,293.059629 96.5038043,286.318129 91.2560046,281.02215 C80.8467492,270.51654 64.441379,258.811659 48.7043758,261.696304 C49.3727427,261.57158 50.02512,261.472441 50.6838931,261.392489 C62.7944461,259.844631 73.1493367,264.824002 83.0533195,272.377808 C88.7808084,276.755945 94.4923076,281.895219 98.2370812,288.137822 C101.988251,294.386821 103.766299,302.36277 99.5962006,308.896396 C99.2156471,309.494433 98.7935207,310.066885 98.3394149,310.584969 C97.5335371,311.633931 96.4654291,312.519793 95.0999139,313.140215 C89.992823,315.465201 82.2026706,312.973916 81.2720736,306.888018 Z M57.0158268,295.505778 C57.1664899,294.250794 57.2292662,292.94025 57.709505,291.750629 C57.2292662,292.231053 56.7270558,292.642844 55.9611849,292.744158 C54.6397436,292.901031 53.3528294,292.52519 52,292.744158 C52.9667551,292.142812 53.5568524,291.093723 54.1092839,290.109998 C54.5895226,289.234123 54.9034041,287.779779 55.6441645,287.139214 C56.0898763,286.760104 57.0158268,286.472503 57.5243149,286.773177 C56.8494696,286.364653 56.5450045,284.903772 56.4539789,284.165161 C56.3221486,283.142218 56.4947835,282.080057 57.0472149,281.213987 C57.7000885,280.200848 58.7735633,279.357655 59.9129533,279.070054 C60.920513,278.818404 62.5275864,279.249805 63.0235192,280.282553 C63.4221487,281.096332 63.4284264,282.714085 62.2513707,282.805595 C61.3944741,282.870959 61.0178163,282.197712 61.2908932,281.459101 C61.0460656,282.10947 61.8433247,282.34478 62.2639259,282.00162 C62.772414,281.58656 62.3863397,280.717222 61.8433247,280.517862 C60.7824051,280.158361 59.9537579,281.887234 59.9443414,282.736963 C59.9412026,283.527865 60.3555262,284.106334 61.0680373,284.393935 C62.1477897,284.822068 63.1333777,284.465835 64.096994,283.89717 C65.8013707,282.782717 67.3801948,281.887234 69.398453,281.648656 C71.200133,281.436223 73.017507,281.58656 74.78466,282.024497 C78.6610969,283.001686 82.2927061,285.037768 85.3750227,287.649051 C88.1026532,289.946588 90.5729008,292.721281 92.2615834,295.933911 C94.2233429,299.656379 94.2861192,302.862472 93.6144128,307 C94.2641475,302.970323 92.5158274,299.169418 89.8258628,296.348971 C87.1327593,293.518719 83.8809466,291.22445 80.4345275,289.49231 C77.3992931,287.972602 73.5887714,286.413676 70.1768792,287.178432 C69.1504866,287.410473 68.1366493,287.809193 67.3362514,288.537999 C66.2282496,289.524992 64.5772328,291.498978 65.0888597,293.126536 C65.3870471,294.087384 67.2389481,296.15288 68.2465078,294.783508 C68.6263045,294.250794 68.2716183,292.891227 67.5434132,292.832399 C66.8654291,292.77684 66.7587094,293.953388 67.4084441,294.044898 C67.003537,293.995875 66.7210436,293.786711 66.6582673,293.35531 C66.5515476,292.610163 67.2828915,292.041498 67.9483204,292.159152 C69.85672,292.512117 69.5428385,294.842336 68.8899649,296.159416 C68.4191426,297.113727 67.5779402,297.829461 66.6049074,298.185694 C65.3085767,298.639972 63.7956678,298.434076 62.772414,297.407864 C62.1352345,296.770568 61.7460214,296.02542 61.5388596,295.120132 C61.4760833,294.878286 61.4446951,294.620099 61.4195846,294.361912 C61.0805926,295.025354 60.5564104,295.39466 59.8533158,295.714942 C58.5318746,296.303216 56.7458887,297.607224 56.1840407,299.061568 C56.5575598,297.878484 56.8777189,296.741154 57.0158268,295.505778 Z M60.2174184,290.377989 C61.5984971,290.345307 62.8634396,291.87482 63.2338198,293.113464 C62.737887,291.358446 63.3970382,289.103395 64.7906722,288.024893 C67.6187448,285.858084 70.0293549,283.949461 73.6672418,284.541003 C70.3652081,284.001752 68.8742709,284.305694 65.9740056,285.988811 C65.1265254,286.482308 64.2539348,287.041168 63.3091514,287.315696 C62.4585325,287.567347 61.2751991,287.779779 60.4999117,287.240528 C59.7685678,286.737226 59.1062778,286.318898 58.6291778,285.518192 C59.0560567,286.230657 59.3354113,287.099995 59.6587092,287.86802 C60.0573388,288.796186 59.8438993,290.50218 58.8049515,290.884559 C59.2789126,290.708076 59.6932362,290.384526 60.2174184,290.377989 Z M108.992471,325.443256 C103.003005,326.895836 97.7742066,320.521344 98.007521,314.840718 C98.0746388,313.310321 98.486934,311.98095 99.1613083,310.820183 C99.4713287,310.191164 99.8420747,309.581599 100.25437,308.991488 C104.73848,302.584572 112.795814,301.219536 119.990205,302.367333 C127.175008,303.502162 134.084948,306.913131 140.285356,310.635368 C151.005031,317.058496 159.497033,324.892054 162.613218,336.859629 C162.789003,337.50486 162.942415,338.166303 163.079847,338.83423 C159.842211,322.943392 142.845422,311.997162 129.191739,306.216022 C122.323349,303.304377 114.256426,301.29411 107.052446,304.196028 C105.543893,304.818562 104.051321,305.895028 102.763298,307.243853 C104.949421,305.895028 107.595781,305.142799 110.053572,304.941772 C118.567947,304.218725 127.059949,308.223047 134.334243,312.246824 C138.895058,314.762901 143.088324,317.94042 146.808569,321.604294 C150.388186,325.112535 153.814391,329.291945 155.843906,333.938257 C156.975321,336.720207 157.409989,339.586459 157.53144,342.572679 C157.656087,345.565383 156.988105,348.499725 157.023262,351.492429 C157.055223,354.316531 158.330462,357.134147 160.551742,358.859086 C161.683157,359.74101 162.878493,360.023096 164.041869,359.880432 C166.413365,359.822069 168.775273,358.427851 168.7529,355.775596 C168.740116,353.700481 166.138502,352.50729 164.732223,354.105777 C163.063866,356.018773 166.988661,358.450548 167.436113,355.564842 C167.452093,355.448117 167.468074,355.321664 167.468074,355.185485 C167.845212,355.623204 167.995428,356.086863 167.851604,356.657519 C167.583133,357.7275 166.720189,358.350035 165.809305,358.829905 C164.991106,359.254655 163.977947,359.283836 163.063866,359.050386 C161.171783,358.427851 160.03078,356.313828 160.462252,354.361924 C161.29643,350.552143 166.106541,349.028231 169.075705,351.190889 C171.901046,353.266004 171.207495,357.053088 169.593471,359.659951 C167.921918,362.364084 164.994303,364.53647 161.836569,364.941766 C156.920987,365.580512 153.437253,360.846657 152.328211,356.531067 C151.401346,352.961221 152.340995,349.41083 152.571113,345.831257 C152.823604,341.882055 152.360172,337.900429 151.215973,334.129556 C148.818908,326.221424 142.624892,320.6251 136.098482,316.082544 C130.898449,312.451093 125.289317,309.442177 119.156027,307.811267 C113.268835,306.238719 100.999058,304.118211 100.791313,313.427046 C100.708214,316.954741 103.744497,320.469466 106.796759,321.821533 C107.551036,322.149012 108.369234,322.288434 109.184236,322.223586 C111.501399,322.038771 112.389911,319.555119 111.542948,317.700485 C110.980437,316.484597 109.059589,315.725884 107.998488,316.692109 C106.269405,318.267899 108.57698,320.702916 109.689218,318.896918 C109.638081,319.250336 109.443119,319.555119 109.184236,319.778842 C108.247783,320.586191 106.688092,320.067412 106.052071,319.156307 C105.205108,317.927451 105.780404,316.354903 106.742426,315.382193 C108.382018,313.722101 110.638456,313.654011 112.546519,314.980139 C114.84131,316.581868 115.237624,320.028504 113.821758,322.31113 C112.779834,323.990676 110.836613,324.99581 108.992471,325.443256 Z M131.368579,340.403421 C130.488897,341.263474 129.32975,341.793217 128.249996,342.369702 C127.189297,342.958652 126.290561,343.656666 125.37277,344.423236 C126.468403,343.37933 126.966995,341.279055 126.992401,339.848749 C127.005104,339.079064 127.138485,338.471417 127.614847,337.916745 C127.379842,337.991532 127.125782,338.056971 126.88125,338.085016 C125.992041,338.209662 125.17905,338.125526 124.347005,337.767171 C123.041773,337.196918 122.279594,335.878793 122.203376,334.517042 C122.143037,333.498065 122.473314,332.466625 123.149748,331.690707 C124.092945,330.618756 126.068259,329.490715 127.116255,331.132919 C127.481466,331.690707 127.240109,332.578806 126.528742,332.743961 C126.112719,332.834329 125.820551,332.64736 125.623654,332.295237 C125.94758,332.868606 126.970171,332.348211 126.665299,331.740565 C126.335021,331.089293 124.972626,331.248216 124.645525,331.796656 C123.791249,333.205149 126.3509,334.171151 127.325854,334.102596 C128.989945,333.990415 130.139565,331.75303 130.615927,330.385046 C130.958908,329.390999 130.930326,328.312816 130.752484,327.296956 C130.149092,323.872324 127.290921,320.92446 124.769379,318.67461 C121.90168,316.131844 118.598904,313.956781 115.02619,312.492198 C111.466179,311.033846 107.378994,310.781439 104,312.822508 C107.464739,310.728465 110.376898,309.637818 114.47361,310.108354 C118.014567,310.513452 121.450724,311.787951 124.553428,313.470664 C128.07533,315.374623 131.289185,317.982828 133.639237,321.204912 C134.709464,322.663263 135.528806,324.293002 136.027398,326.019341 C136.579978,327.973158 136.379906,329.746239 136.021047,331.706288 C135.878138,332.796935 135.919423,333.82526 136.722887,334.672848 C137.246885,335.22752 137.923319,335.395792 138.634686,335.11534 C139.40004,334.80061 140.644933,333.41393 139.917687,332.578806 C139.533422,332.142547 138.606104,332.102037 138.425086,332.712799 C138.279002,333.226962 138.783946,333.878234 139.285714,333.41393 C138.717255,333.931208 137.974131,333.831492 137.710544,333.015064 C137.338981,331.893256 138.796649,331.326119 139.682682,331.400906 C140.800544,331.485042 141.794553,332.803167 141.95334,333.82526 C142.134358,334.981346 141.775498,336.262077 141.105416,337.224963 C140.549661,338.050739 139.647749,338.592947 138.688673,338.842237 C137.986833,339.013625 136.560924,339.266032 135.922599,338.789263 C136.392609,339.132038 136.487881,340.110504 136.313215,340.652712 C136.021047,341.562623 134.820615,342.36347 134.220399,343.126923 C133.543965,343.986977 132.823071,344.90312 132.648405,346 C132.334006,344.684991 131.50196,343.641086 131.146277,342.36347 C130.943029,341.62183 131.130398,341.0173 131.368579,340.403421 Z M128.043573,335.807122 C129.304344,335.704289 131.162155,336.321284 131.667099,337.605132 C131.851292,338.085016 131.711559,338.580482 131.736965,339.079064 C131.686153,337.979068 133.137469,337.181337 134.125126,337.209382 C134.947645,337.240544 135.827326,337.181337 136.640317,337.321563 C135.744757,337.168873 135.106432,336.701452 134.379186,336.218451 C133.604304,335.694941 133.340717,334.532622 133.239093,333.650756 C133.134294,332.690986 133.305784,331.690707 133.426462,330.730937 C133.839309,327.458995 133.540789,325.972599 131.806832,323.1338 C133.718631,326.268632 132.911991,329.163521 132.03231,332.541412 C131.600408,334.221009 129.821991,335.629502 128.043573,335.807122 Z M144.79533,340.793061 C145.398403,337.516683 145.417151,334.237095 144.082892,331.17251 C144.601597,333.829553 144.429737,336.717644 143.829789,339.223865 C142.573648,344.54758 137.245986,353.365884 140.789428,358.962362 C136.796025,352.653488 139.983248,348.045378 142.258051,341.611354 C143.65168,337.699595 143.779793,333.328951 142.37679,329.39152 C141.573735,327.148436 140.464456,325.450881 139.189567,323.856013 C138.317768,322.870853 137.411596,321.946664 136.477302,321.044938 C133.546307,318.217818 130.45595,315.133978 127,313 C131.034025,315.480549 135.289905,318.371849 139.045829,321.754124 C141.9737,324.385496 144.595348,327.324931 146.545178,330.588474 C148.245031,333.444475 149.223071,336.653464 149.329312,339.984396 C149.451176,343.876901 148.707491,347.769405 148.398143,351.639447 C148.132541,355.4421 148.098169,359.556025 150.257356,362.848449 C151.407256,364.603766 153.210225,365.730122 155.097561,366.471398 C155.466279,366.619012 155.850621,366.724909 156.234962,366.811551 C157.841073,367.167749 159.600295,367.183794 161.181408,366.734536 C161.409513,366.667147 161.634494,366.596549 161.853225,366.503488 C162.259439,366.333412 162.684402,366.111992 163,365.826391 C161.262651,367.395587 158.22229,368.300523 155.994358,367.909026 C151.904088,367.174167 148.504383,364.927874 145.95148,361.622615 C143.53294,358.487432 141.779967,354.5853 142.351792,350.477793 C142.801753,347.204623 144.204757,344.059813 144.79533,340.793061 Z M532.293322,291.750629 C532.776726,292.94025 532.839505,294.250794 532.987038,295.505778 C533.118875,296.741154 533.44533,297.878484 533.812591,299.061568 C533.26013,297.607224 531.470907,296.306485 530.152532,295.714942 C529.449399,295.39466 528.92205,295.025354 528.583039,294.361912 C528.557927,294.620099 528.523398,294.878286 528.466896,295.120132 C528.253445,296.02542 527.86735,296.770568 527.230136,297.407864 C526.209965,298.434076 524.690695,298.639972 523.397432,298.185694 C522.421207,297.829461 521.57682,297.113727 521.109111,296.159416 C520.459341,294.842336 520.142303,292.512117 522.060224,292.159152 C522.716272,292.041498 523.450795,292.610163 523.340931,293.35531 C523.28129,293.786711 522.998781,293.999143 522.587574,294.044898 C523.243622,293.953388 523.133757,292.77684 522.465153,292.832399 C521.73063,292.891227 521.372786,294.250794 521.758881,294.783508 C522.760218,296.15288 524.61222,294.087384 524.910424,293.126536 C525.41894,291.498978 523.77725,289.524992 522.656631,288.537999 C521.859329,287.809193 520.845436,287.410473 519.822126,287.1817 C516.413186,286.413676 512.593039,287.972602 509.560778,289.495578 C506.120448,291.22445 502.871596,293.518719 500.178345,296.348971 C497.488233,299.172687 495.73354,302.970323 496.389588,307 C495.711567,302.862472 495.777486,299.656379 497.733074,295.933911 C499.431266,292.721281 501.901649,289.946588 504.623151,287.649051 C507.708775,285.037768 511.343722,283.001686 515.22351,282.024497 C516.984482,281.58656 518.798816,281.436223 520.600595,281.648656 C522.618964,281.887234 524.201013,282.782717 525.905483,283.89717 C526.866013,284.465835 527.848516,284.822068 528.931466,284.393935 C529.644017,284.106334 530.061502,283.527865 530.061502,282.736963 C530.048946,281.887234 529.220253,280.158361 528.159276,280.517862 C527.616231,280.717222 527.230136,281.58656 527.738651,282.00162 C528.159276,282.34478 528.956578,282.10947 528.711737,281.459101 C528.975412,282.197712 528.608151,282.870959 527.751207,282.805595 C526.574087,282.714085 526.580365,281.096332 526.975878,280.282553 C527.474977,279.249805 529.085277,278.818404 530.092892,279.070054 C531.232344,279.357655 532.2996,280.200848 532.955648,281.213987 C533.50811,282.080057 533.677615,283.142218 533.548916,284.165161 C533.457886,284.903772 533.156543,286.367921 532.475383,286.776445 C532.987038,286.472503 533.9099,286.760104 534.358775,287.139214 C535.105854,287.779779 535.407197,289.234123 535.890601,290.109998 C536.443062,291.093723 537.03947,292.142812 538,292.744158 C536.647097,292.52519 535.369529,292.9043 534.038598,292.744158 C533.272686,292.642844 532.776726,292.231053 532.293322,291.750629 Z M526.774982,293.113464 C527.135966,291.87482 528.400978,290.345307 529.785271,290.377989 C530.312621,290.384526 530.723828,290.708076 531.194676,290.884559 C530.152532,290.50218 529.945359,288.796186 530.344011,287.871288 C530.667326,287.099995 530.943557,286.233925 531.36732,285.518192 C530.893333,286.318898 530.234146,286.737226 529.502762,287.240528 C528.724293,287.779779 527.547173,287.567347 526.69023,287.315696 C525.745395,287.041168 524.869617,286.482308 524.028369,285.988811 C521.121667,284.305694 519.633787,284.001752 516.328434,284.541003 C519.975937,283.949461 522.380401,285.858084 525.211767,288.024893 C526.602338,289.103395 527.264664,291.358446 526.774982,293.113464 Z M491.821947,310.791886 C491.517773,310.172878 491.148811,309.572746 490.73644,308.991488 C490.403021,308.514036 490.049707,308.064583 489.678335,307.642083 C489.894725,308.065408 490.133801,308.483778 490.396564,308.896396 C490.78993,309.494433 491.205682,310.066885 491.656614,310.584969 C491.710592,310.654672 491.765699,310.723654 491.821947,310.791886 Z M462.747135,342.369807 C461.661043,341.793338 460.508262,341.263611 459.62224,340.400466 C459.869945,341.017443 460.057312,341.621956 459.850891,342.360459 C459.498388,343.641153 458.660001,344.681913 458.342431,346 C458.177294,344.903152 457.450058,343.987035 456.767281,343.12389 C456.179775,342.360459 454.982534,341.562751 454.690369,340.652866 C454.509354,340.110674 454.610977,339.132235 455.07463,338.78947 C454.442664,339.266225 453.010421,339.013826 452.30859,338.839327 C451.346351,338.590044 450.447626,338.050968 449.895053,337.225216 C449.218628,336.262357 448.866125,334.981663 449.04714,333.82561 C449.20275,332.803547 450.19357,331.48546 451.324121,331.401326 C452.203792,331.323425 453.661441,331.893662 453.289883,333.012322 C453.023124,333.831842 452.283184,333.931555 451.714733,333.414292 C452.216494,333.878583 452.718256,333.227329 452.575349,332.713182 C452.394334,332.099321 451.463852,332.142945 451.079592,332.579192 C450.355531,333.414292 451.594056,334.800932 452.365753,335.115653 C453.070759,335.396097 453.747185,335.22783 454.268,334.673174 C455.07463,333.82561 455.11909,332.797315 454.982534,331.703583 C454.617328,329.746706 454.417259,327.973676 454.976183,326.019916 C455.465241,324.293626 456.284574,322.663934 457.357962,321.205625 C459.707984,317.983634 462.921799,315.375504 466.443656,313.4716 C469.546321,311.788935 472.982435,310.514473 476.523347,310.109387 C480.623183,309.635748 483.532129,310.72948 487,312.823462 C483.617873,310.782453 479.53074,311.034852 475.970774,312.490046 C472.398105,313.957703 469.092195,316.129587 466.227708,318.675396 C463.703022,320.922065 460.844887,323.87296 460.254206,327.294378 C460.066839,328.313325 460.044609,329.391477 460.378058,330.385495 C460.854414,331.753439 462.010371,333.99076 463.658562,334.102938 C464.646207,334.168375 467.20265,333.205517 466.357912,331.797064 C466.021288,331.24864 464.65891,331.089722 464.334988,331.740975 C464.026944,332.348604 465.049522,332.865868 465.376619,332.295631 C465.179725,332.647745 464.881209,332.834707 464.465192,332.741226 C463.760185,332.579192 463.515656,331.691119 463.884038,331.133346 C464.93202,329.49119 466.910485,330.619199 467.847318,331.691119 C468.523744,332.467014 468.857193,333.498425 468.793679,334.517372 C468.720637,335.879084 467.952117,337.197171 466.650077,337.767408 C465.818042,338.125753 465.005062,338.209886 464.11904,338.085244 C463.877686,338.0572 463.62363,337.991763 463.3791,337.916978 C463.858632,338.471634 463.988836,339.079263 464.00789,339.848926 C464.036471,341.279191 464.535057,343.379406 465.624324,344.423281 C464.700194,343.653618 463.807821,342.958739 462.747135,342.369807 Z M459.330075,337.605373 C459.831837,336.321562 461.692801,335.704585 462.947204,335.807415 C461.178336,335.6298 459.396765,334.221348 458.964869,332.541799 C458.082023,329.164006 457.278569,326.269199 459.19352,323.131341 C457.456409,325.973175 457.157893,327.459529 457.567559,330.731377 C457.691411,331.691119 457.866075,332.691369 457.761277,333.647995 C457.656478,334.532952 457.402422,335.695237 456.618023,336.218733 C455.893962,336.70172 455.255645,337.166011 454.363272,337.321813 C455.166725,337.181591 456.049571,337.240796 456.868903,337.209635 C457.859724,337.181591 459.30467,337.979299 459.263386,339.079263 C459.291967,338.577579 459.142709,338.085244 459.330075,337.605373 Z M445.20158,340.793061 C445.798507,344.059813 447.198628,347.204623 447.654918,350.477793 C448.229968,354.5853 446.47044,358.487432 444.048355,361.622615 C441.501259,364.927874 438.097838,367.174167 434.000608,367.909026 C431.77854,368.300523 428.737651,367.395587 427,365.826391 C427.315652,366.111992 427.737564,366.333412 428.146975,366.503488 C428.359493,366.596549 428.587638,366.667147 428.825158,366.734536 C430.400295,367.183794 432.156698,367.167749 433.769338,366.811551 C434.153746,366.724909 434.538154,366.619012 434.897561,366.471398 C436.791475,365.730122 438.597882,364.603766 439.744856,362.848449 C441.898168,359.556025 441.86379,355.4421 441.601267,351.639447 C441.294991,347.769405 440.557427,343.876901 440.673062,339.984396 C440.782446,336.653464 441.75128,333.444475 443.454553,330.588474 C445.407848,327.324931 448.026825,324.385496 450.95833,321.754124 C454.711781,318.371849 458.971525,315.480549 463,313 C459.552826,315.133978 456.458807,318.217818 453.527303,321.044938 C452.592847,321.946664 451.677142,322.870853 450.817693,323.856013 C449.536331,325.450881 448.429985,327.148436 447.623665,329.39152 C446.220418,333.328951 446.354805,337.699595 447.7393,341.611354 C450.023874,348.045378 453.2054,352.653488 449.211303,358.962362 C452.758486,353.365884 447.423648,344.54758 446.167289,339.223865 C445.573487,336.717644 445.401597,333.829553 445.911017,331.17251 C444.585902,334.237095 444.604653,337.516683 445.20158,340.793061 Z" id="Combined-Shape"></path>
                </g>
            </g>
        </g>
    </g>
</svg>
