<svg xmlns="http://www.w3.org/2000/svg" viewBox="0 0 159.95 256.92"><defs><style>.cls-1{fill:#fff;}.cls-2{fill:#e5a663;}.cls-3{fill:#5f474e;}</style></defs><title>ganache-logo</title><g id="Layer_2" data-name="Layer 2"><g id="Mask"><path class="cls-1" d="M24.57,234.82a14.67,14.67,0,0,1-4.14,3.89,9.43,9.43,0,0,1-5,1.37,9.74,9.74,0,0,1-4.87-1.19A10.38,10.38,0,0,1,7,235.52a16.67,16.67,0,0,1-2.21-5.27A28.34,28.34,0,0,1,4,223.41a26.12,26.12,0,0,1,.61-5.47,27.36,27.36,0,0,1,1.77-5.43,27.85,27.85,0,0,1,2.84-5,20.84,20.84,0,0,1,3.8-4.08,17.71,17.71,0,0,1,4.69-2.76,14.73,14.73,0,0,1,5.5-1,9.53,9.53,0,0,1,3,.45,6.85,6.85,0,0,1,2.37,1.33,6.16,6.16,0,0,1,1.57,2.09,6.36,6.36,0,0,1,.58,2.77,7.62,7.62,0,0,1-.55,2.83,10.7,10.7,0,0,1-1.48,2.57,13.73,13.73,0,0,1-2.18,2.2,16.56,16.56,0,0,1-2.59,1.71,13.51,13.51,0,0,1-2.76,1.11,9.83,9.83,0,0,1-2.71.4,2.83,2.83,0,0,1-1.83-.62,2.35,2.35,0,0,1-.76-1.95,4.84,4.84,0,0,1,0-.63,4.13,4.13,0,0,1,.13-.63,2.78,2.78,0,0,1,.2-.48.35.35,0,0,1,.29-.2.39.39,0,0,1,.27.1,2.25,2.25,0,0,0,.35.18,3.89,3.89,0,0,0,.59.18,4.7,4.7,0,0,0,1,.09,6,6,0,0,0,2.4-.55,9.3,9.3,0,0,0,2.38-1.46,8.45,8.45,0,0,0,1.81-2.11,4.71,4.71,0,0,0,.72-2.47,2.85,2.85,0,0,0-.19-1,2.7,2.7,0,0,0-.6-1,3.42,3.42,0,0,0-1.11-.74,4.28,4.28,0,0,0-1.7-.3,8.31,8.31,0,0,0-3.57.81,11.84,11.84,0,0,0-3.22,2.24A18.62,18.62,0,0,0,12.93,210a24.27,24.27,0,0,0-2.15,4.11,26.33,26.33,0,0,0-1.38,4.58,23.14,23.14,0,0,0-.49,4.72,25.14,25.14,0,0,0,.5,5.22,14.62,14.62,0,0,0,1.4,3.94,7.35,7.35,0,0,0,2.12,2.5,4.45,4.45,0,0,0,2.63.88,6.7,6.7,0,0,0,2.77-.57,8,8,0,0,0,2.27-1.5,10.19,10.19,0,0,0,1.76-2.18,16.06,16.06,0,0,0,1.25-2.53,16.66,16.66,0,0,0,.76-2.61,11.69,11.69,0,0,0,.26-2.39,8.8,8.8,0,0,0-.06-1c0-.36-.05-.63-.05-.82a1,1,0,0,1,.15-.61,1,1,0,0,1,.42-.31,2.19,2.19,0,0,1,.61-.13q.35,0,.72,0a3.07,3.07,0,0,1,.92.16,4.57,4.57,0,0,1,1,.43,3.27,3.27,0,0,1,.81.64,1.2,1.2,0,0,1,.33.81c-.15,1.45-.25,2.83-.29,4.13s-.06,2.62-.06,4,0,2.57,0,3.93,0,2.86,0,4.5c.56-.08,1.1-.15,1.63-.18l1.51-.11c.69,0,1.14.17,1.34.59a2.12,2.12,0,0,1,.09,1.46,3.69,3.69,0,0,1-.83,1.49,1.91,1.91,0,0,1-1.38.71c-.44,0-.86,0-1.25,0s-.8,0-1.22.08c-.06,1-.15,2-.26,3.06a22.39,22.39,0,0,1-.56,3,15.13,15.13,0,0,1-1,2.72,8.47,8.47,0,0,1-1.54,2.21,6.9,6.9,0,0,1-2.22,1.5,7.79,7.79,0,0,1-3,.55,7.25,7.25,0,0,1-2.73-.49,6.19,6.19,0,0,1-2.08-1.33,5.83,5.83,0,0,1-1.33-2,6.79,6.79,0,0,1-.46-2.51,7.09,7.09,0,0,1,.92-3.62,9.94,9.94,0,0,1,2.44-2.79,14.23,14.23,0,0,1,3.47-2,33.35,33.35,0,0,1,4-1.42v-.52q0-1.73-.06-3.06T24.57,234.82Zm-4,18a2.43,2.43,0,0,0,1.69-.65,5,5,0,0,0,1.16-1.78,12.34,12.34,0,0,0,.72-2.58c.17-1,.3-2,.38-3.08A10.91,10.91,0,0,0,20,247a4.57,4.57,0,0,0-1.57,3.48,2,2,0,0,0,2.13,2.3Z"/><path class="cls-1" d="M51,235.9a2.27,2.27,0,0,0,1.54-.58,5.13,5.13,0,0,0,1.12-1.44,9.44,9.44,0,0,0,.78-1.87c.2-.67.37-1.31.5-1.9a2.67,2.67,0,0,1,.59-1.22,1.22,1.22,0,0,1,.85-.38,1.5,1.5,0,0,1,.71.2,2.76,2.76,0,0,1,1.15,1.22,1.72,1.72,0,0,1,.19.78v.13a.75.75,0,0,1-.06.24,21.4,21.4,0,0,1-1,2.8,11.67,11.67,0,0,1-1.66,2.7,8.58,8.58,0,0,1-2.43,2,6.62,6.62,0,0,1-3.33.81,5.75,5.75,0,0,1-2.7-.6,4.81,4.81,0,0,1-1.82-1.6,8.2,8.2,0,0,1-2.14,1.56,6.33,6.33,0,0,1-2.93.64,6.89,6.89,0,0,1-3-.63,6.45,6.45,0,0,1-2.21-1.71,7.49,7.49,0,0,1-1.34-2.57,11.16,11.16,0,0,1-.44-3.18,14.7,14.7,0,0,1,1.18-6,14.06,14.06,0,0,1,3.14-4.54,13.58,13.58,0,0,1,4.48-2.87,14.11,14.11,0,0,1,5.22-1,3,3,0,0,1,2,.6,2,2,0,0,1,.75,1.65,2,2,0,0,1-.16,1,.61.61,0,0,1-.59.28,8.21,8.21,0,0,1-.84-.05,6.33,6.33,0,0,0-.89-.06,9.56,9.56,0,0,0-3.4.67,9.26,9.26,0,0,0-3.12,2,10.81,10.81,0,0,0-2.29,3.48,12.94,12.94,0,0,0-.89,5,5.23,5.23,0,0,0,.89,3.26,3,3,0,0,0,2.45,1.14,2.69,2.69,0,0,0,2-.83,6.46,6.46,0,0,0,1.3-1.95v-8.27a4.16,4.16,0,0,0,0-.66c0-.17-.06-.32-.09-.44s0-.23-.07-.33a1.31,1.31,0,0,1,0-.27.75.75,0,0,1,.45-.67,2.11,2.11,0,0,1,1.08-.25,3.65,3.65,0,0,1,2.33.69,2.1,2.1,0,0,1,.86,1.67v8.85a3.26,3.26,0,0,0,.12.87,2.66,2.66,0,0,0,.34.79,1.81,1.81,0,0,0,1.53.8Z"/><path class="cls-1" d="M55.21,220.08a3.3,3.3,0,0,0-.13-1.1,1.86,1.86,0,0,1-.13-.62.73.73,0,0,1,.46-.64,2.26,2.26,0,0,1,1.1-.25,3.58,3.58,0,0,1,2.32.69,2.1,2.1,0,0,1,.85,1.66v2.41A17.24,17.24,0,0,1,61,220.14a10.42,10.42,0,0,1,1.52-1.69,6.67,6.67,0,0,1,1.76-1.13,5,5,0,0,1,2-.4,5.24,5.24,0,0,1,2.42.49,4.22,4.22,0,0,1,1.5,1.29,5.09,5.09,0,0,1,.76,1.75,8.9,8.9,0,0,1,.21,1.89v11.1c0,.12,0,.31,0,.58a3.17,3.17,0,0,0,.18.83,1.88,1.88,0,0,0,.44.73,1.17,1.17,0,0,0,.88.32,2.25,2.25,0,0,0,1.54-.58,5.13,5.13,0,0,0,1.12-1.44,9.44,9.44,0,0,0,.78-1.87c.2-.67.37-1.31.51-1.9a2.25,2.25,0,0,1,.57-1.22,1.24,1.24,0,0,1,.84-.38,1.57,1.57,0,0,1,.72.2,2.53,2.53,0,0,1,.67.51,2.44,2.44,0,0,1,.49.71,1.72,1.72,0,0,1,.19.78v.13a.75.75,0,0,1-.06.24,21.4,21.4,0,0,1-1,2.8,11.38,11.38,0,0,1-1.67,2.7,8.86,8.86,0,0,1-2.43,2,6.55,6.55,0,0,1-3.31.81,5.06,5.06,0,0,1-2.09-.41A4.84,4.84,0,0,1,68,237.94a4.61,4.61,0,0,1-1-1.6,5.69,5.69,0,0,1-.33-1.94V223.51q0-.63,0-1.17a4.39,4.39,0,0,0-.15-1,1.73,1.73,0,0,0-.38-.67.89.89,0,0,0-.68-.25,2.61,2.61,0,0,0-1.55.79,10.56,10.56,0,0,0-1.81,2,14.8,14.8,0,0,0-1.57,2.84,10.58,10.58,0,0,0-.85,3.18v7.83c0,.26,0,.52,0,.79a1.92,1.92,0,0,1-.17.74,1.43,1.43,0,0,1-.49.55,1.71,1.71,0,0,1-1,.22,5.32,5.32,0,0,1-.94-.09,2.82,2.82,0,0,1-.92-.34,2,2,0,0,1-.69-.71,2.27,2.27,0,0,1-.28-1.22Z"/><path class="cls-1" d="M93.17,235.9a2.29,2.29,0,0,0,1.54-.58,5.32,5.32,0,0,0,1.12-1.44,9.44,9.44,0,0,0,.78-1.87c.2-.67.37-1.31.5-1.9a2.57,2.57,0,0,1,.59-1.22,1.21,1.21,0,0,1,.85-.38,1.5,1.5,0,0,1,.71.2,2.66,2.66,0,0,1,.66.51,2.9,2.9,0,0,1,.49.71,1.86,1.86,0,0,1,.19.78v.13a.75.75,0,0,1-.06.24,21.4,21.4,0,0,1-1,2.8,12,12,0,0,1-1.66,2.7,8.58,8.58,0,0,1-2.43,2,6.62,6.62,0,0,1-3.33.81,5.79,5.79,0,0,1-2.71-.6,4.86,4.86,0,0,1-1.81-1.6,8.25,8.25,0,0,1-2.15,1.56,6.28,6.28,0,0,1-2.92.64,7,7,0,0,1-3-.63,6.5,6.5,0,0,1-2.2-1.71,7.49,7.49,0,0,1-1.34-2.57,10.82,10.82,0,0,1-.44-3.18,14.7,14.7,0,0,1,1.18-6,14,14,0,0,1,3.13-4.54,13.68,13.68,0,0,1,4.48-2.87,14.17,14.17,0,0,1,5.23-1,3,3,0,0,1,2,.6,2,2,0,0,1,.75,1.65,2.1,2.1,0,0,1-.16,1,.62.62,0,0,1-.59.28,8.21,8.21,0,0,1-.84-.05,6.44,6.44,0,0,0-.89-.06,9.51,9.51,0,0,0-3.4.67,9.26,9.26,0,0,0-3.12,2,10.65,10.65,0,0,0-2.29,3.48,12.76,12.76,0,0,0-.89,5,5.16,5.16,0,0,0,.89,3.26,2.93,2.93,0,0,0,2.45,1.14,2.71,2.71,0,0,0,2-.83,6.46,6.46,0,0,0,1.3-1.95v-8.27a4,4,0,0,0,0-.66c0-.17,0-.32-.08-.44a2.46,2.46,0,0,1-.07-.33,1.31,1.31,0,0,1,0-.27.74.74,0,0,1,.44-.67,2.16,2.16,0,0,1,1.08-.25,3.66,3.66,0,0,1,2.34.69,2.1,2.1,0,0,1,.86,1.67v8.85a3.7,3.7,0,0,0,.11.87,3,3,0,0,0,.35.79,1.71,1.71,0,0,0,.62.57A1.78,1.78,0,0,0,93.17,235.9Z"/><path class="cls-1" d="M106.79,239.43a11.37,11.37,0,0,1-3.8-.65,9.82,9.82,0,0,1-3.27-1.94,9.47,9.47,0,0,1-2.28-3.17,10.65,10.65,0,0,1-.85-4.37,14.6,14.6,0,0,1,.72-4.53,14.08,14.08,0,0,1,2-4,10.42,10.42,0,0,1,3-2.81,7.28,7.28,0,0,1,3.87-1.07,5.42,5.42,0,0,1,2.59.56,5.71,5.71,0,0,1,1.73,1.36,5.15,5.15,0,0,1,1,1.72,5,5,0,0,1,.31,1.62,1.52,1.52,0,0,1-.31.94,2.74,2.74,0,0,1-.73.71,3.42,3.42,0,0,1-1,.43,2.65,2.65,0,0,1-.92.12,1,1,0,0,1-.65-.26.75.75,0,0,1-.16-.71,7.32,7.32,0,0,1-.21-.84,3.62,3.62,0,0,0-.35-.95,2.33,2.33,0,0,0-.68-.79,1.88,1.88,0,0,0-1.18-.33,2.32,2.32,0,0,0-1.57.7,6.12,6.12,0,0,0-1.35,1.89,13,13,0,0,0-.95,2.81,15.35,15.35,0,0,0-.36,3.4,8.24,8.24,0,0,0,.45,2.83,5.53,5.53,0,0,0,1.25,2.06,5.25,5.25,0,0,0,1.91,1.27,6.54,6.54,0,0,0,2.41.44,7.22,7.22,0,0,0,3-.59,6.78,6.78,0,0,0,2.17-1.56,8,8,0,0,0,1.44-2.17,12,12,0,0,0,.81-2.44,1.62,1.62,0,0,1,.82-1.19,1.81,1.81,0,0,1,1.27-.14,2.19,2.19,0,0,1,1.12.66,1.44,1.44,0,0,1,.39,1.22,14.75,14.75,0,0,1-.42,1.86,10.26,10.26,0,0,1-.88,2.12,12,12,0,0,1-1.45,2.11,9.48,9.48,0,0,1-2.15,1.84,11.4,11.4,0,0,1-3,1.31A13.59,13.59,0,0,1,106.79,239.43Z"/><path class="cls-1" d="M114.88,204.9a3.73,3.73,0,0,0-.1-.92,4.71,4.71,0,0,0-.2-.53,1.77,1.77,0,0,0-.21-.32.39.39,0,0,1-.1-.24.31.31,0,0,1,.18-.27,1.57,1.57,0,0,1,.46-.18,5.25,5.25,0,0,1,.62-.12c.22,0,.43,0,.64,0a3.51,3.51,0,0,1,2.32.7,2.06,2.06,0,0,1,.85,1.66v17.59a17.24,17.24,0,0,1,1.31-2.09,10,10,0,0,1,1.53-1.69,6.62,6.62,0,0,1,1.75-1.13,5.07,5.07,0,0,1,2-.4,5.21,5.21,0,0,1,2.42.49,4.05,4.05,0,0,1,1.5,1.29,4.74,4.74,0,0,1,.76,1.75,8.32,8.32,0,0,1,.22,1.89v11.1c0,.12,0,.31,0,.58a3.15,3.15,0,0,0,.17.83,2,2,0,0,0,.45.73,1.16,1.16,0,0,0,.88.32,2.29,2.29,0,0,0,1.54-.58,5.32,5.32,0,0,0,1.12-1.44,9.44,9.44,0,0,0,.78-1.87c.2-.67.37-1.31.5-1.9a2.45,2.45,0,0,1,.53-1.18,1.23,1.23,0,0,1,.78-.4,1.49,1.49,0,0,1,.85.19,2.65,2.65,0,0,1,.75.62,2.44,2.44,0,0,1,.47.85,1.52,1.52,0,0,1,0,.89,25.21,25.21,0,0,1-1,2.8,12,12,0,0,1-1.66,2.7,8.68,8.68,0,0,1-2.42,2,6.52,6.52,0,0,1-3.31.81,5.09,5.09,0,0,1-2.09-.41,4.9,4.9,0,0,1-1.55-1.08,4.61,4.61,0,0,1-1-1.6,5.69,5.69,0,0,1-.33-1.94V223.51q0-.63,0-1.17a3.85,3.85,0,0,0-.16-1,1.72,1.72,0,0,0-.37-.67.91.91,0,0,0-.68-.25,2.66,2.66,0,0,0-1.56.79,10.91,10.91,0,0,0-1.81,2,14.8,14.8,0,0,0-1.57,2.84,11.21,11.21,0,0,0-.85,3.18v7.83c0,.26,0,.52,0,.79a1.76,1.76,0,0,1-.18.74,1.28,1.28,0,0,1-.49.55,1.71,1.71,0,0,1-1,.22,5.41,5.41,0,0,1-.94-.09,2.91,2.91,0,0,1-.92-.34,2,2,0,0,1-.69-.71,2.37,2.37,0,0,1-.27-1.22Z"/><path class="cls-1" d="M150.15,222.34a9,9,0,0,1-.56,3.06,10.22,10.22,0,0,1-1.67,3,12.45,12.45,0,0,1-2.73,2.51,12.3,12.3,0,0,1-3.76,1.69,5.52,5.52,0,0,0,.76,1.3,5,5,0,0,0,1.14,1.06,5.59,5.59,0,0,0,1.54.7,7.74,7.74,0,0,0,5-.32,6.33,6.33,0,0,0,2.09-1.56,8.3,8.3,0,0,0,1.37-2.17,13.29,13.29,0,0,0,.78-2.44,1.62,1.62,0,0,1,.82-1.19,1.81,1.81,0,0,1,1.27-.14,2.19,2.19,0,0,1,1.12.66,1.47,1.47,0,0,1,.39,1.22,18.43,18.43,0,0,1-.39,1.86,10.51,10.51,0,0,1-.82,2.12,11.69,11.69,0,0,1-1.4,2.11,9.14,9.14,0,0,1-2.09,1.84,10.9,10.9,0,0,1-2.9,1.31,13.57,13.57,0,0,1-3.83.5,10.88,10.88,0,0,1-3.91-.72,10.3,10.3,0,0,1-3.34-2.07,10.13,10.13,0,0,1-2.33-3.32,10.9,10.9,0,0,1-.88-4.49,14,14,0,0,1,.78-4.73,13.25,13.25,0,0,1,2-3.78,10,10,0,0,1,2.88-2.5,6.74,6.74,0,0,1,3.32-.9,6.1,6.1,0,0,1,2.23.39,4.65,4.65,0,0,1,1.68,1.11,4.77,4.77,0,0,1,1,1.72A6.39,6.39,0,0,1,150.15,222.34Zm-9.5,6.33a3.71,3.71,0,0,0,0,.47,4.07,4.07,0,0,1,0,.5,8.57,8.57,0,0,0,2-1.2,7.61,7.61,0,0,0,1.53-1.68,7.89,7.89,0,0,0,1.33-4.37,2.48,2.48,0,0,0-.34-1.39,1,1,0,0,0-.9-.5A2,2,0,0,0,143,221a3.87,3.87,0,0,0-1,1.16,7.33,7.33,0,0,0-.69,1.63,14.22,14.22,0,0,0-.45,1.82,14.37,14.37,0,0,0-.23,1.74A11.07,11.07,0,0,0,140.65,228.67Z"/><path class="cls-2" d="M139,134.74c1.88,0,2.49-.44,3.41-2s.47-4,.43-4.66c-.08-1.48-.58-3.13-.64-4,0-.51,0-3.73.08-5C143.4,98.28,152.35,93.31,155,92.75a7.17,7.17,0,0,1,5,.34l0-31.93h0l0-.46V52.19a16.21,16.21,0,0,0-7.28-12.61L87.19,1.74a16.11,16.11,0,0,0-14.55,0L7.27,39.47A16.14,16.14,0,0,0,0,52.07v8.26a.71.71,0,0,0,0,.14V72.56c.38.21.76.43,1.14.67,1.26.8,2.52,1.3,3.79,2.18A57.26,57.26,0,0,1,15,83.2c.6.58,2.58,3.09,3.06,3.67a40.19,40.19,0,0,0,4.85,5.55,17.36,17.36,0,0,0,3.25,2.33,9.16,9.16,0,0,0,6.75.07c12.46-5.4,20.27-2.69,23.88-.53,8.92,5.36,11.89,12.85,12.84,21.94a25,25,0,0,1,.12,3.55c0,2.16-.08,5.63,2.2,6.21,3.27.83,4.06-2.66,4.55-5,1.1-5.25,8.09-8.7,13.21-6.05,3.53,1.82,5,2.86,8.46,1.32,4.37-1.93,6.61-6.82,8.14-9.42a15.9,15.9,0,0,1,6.29-6c6.81-4.25,23.91-3.14,24.54,15.71,0,1,0,3.65,0,5.25,0,1.8.05,3.56-.06,5.42-.08,1.23-.3,2.53-.42,3.78C136.62,131,136,134.73,139,134.74Z"/><path class="cls-3" d="M159.93,93.08a7.22,7.22,0,0,0-5-.33c-2.6.56-11.55,5.53-12.67,26.41-.07,1.28-.12,4.5-.08,5,.06.82.56,2.47.64,4,0,.67.52,3.11-.43,4.66s-1.53,2-3.41,2c-3,0-2.38-3.71-2.38-3.71.12-1.25.34-2.55.42-3.78.11-1.86.05-3.62.06-5.42,0-1.6,0-4.22,0-5.25-.63-18.85-17.73-20-24.54-15.71a15.9,15.9,0,0,0-6.29,6c-1.53,2.6-3.77,7.49-8.14,9.42-3.49,1.54-4.93.5-8.46-1.32-5.12-2.65-12.11.8-13.21,6.05-.49,2.32-1.28,5.81-4.55,5-2.28-.58-2.2-4-2.2-6.21a25,25,0,0,0-.12-3.55c-1-9.09-3.92-16.58-12.85-21.94-3.6-2.16-11.41-4.87-23.87.53a9.16,9.16,0,0,1-6.75-.07,17.36,17.36,0,0,1-3.25-2.33,40.19,40.19,0,0,1-4.85-5.55c-.48-.58-2.46-3.09-3.06-3.67a57.26,57.26,0,0,0-10-7.79C3.67,74.53,2.41,74,1.15,73.23.77,73,.39,72.77,0,72.56l0,55.11a16.19,16.19,0,0,0,7.28,12.61l65.44,37.85a16.14,16.14,0,0,0,14.55,0l65.37-37.74a16.14,16.14,0,0,0,7.27-12.6Z"/><path class="cls-1" d="M88.27,83.82c-4.52,2.62-11.93,2.62-16.45,0L4.91,48.51A11.79,11.79,0,0,0,7.32,50.4L72.76,88.25a16.14,16.14,0,0,0,14.55,0l65.37-37.74a11.89,11.89,0,0,0,2.4-1.87Z"/><path class="cls-1" d="M71.71,6.79c4.53-2.61,11.93-2.61,16.46,0l8.11,3.38A12.06,12.06,0,0,0,93.86,8.3L87.22,4.05A16.12,16.12,0,0,0,72.68,4L61.07,10.7a12,12,0,0,0-2.4,1.87Z"/></g></g></svg>