<svg xmlns="http://www.w3.org/2000/svg" viewBox="0 0 159.96 179.86"><defs><style>.cls-1{fill:#e5a663;}.cls-2{fill:none;}</style></defs><title>ganache-feature-6-icon</title><g id="Layer_2" data-name="Layer 2"><g id="Mask"><path class="cls-1" d="M79.91,2h0a12.86,12.86,0,0,1,6.27,1.47l65.45,37.85a14.13,14.13,0,0,1,6.28,10.87l.05,75.6a14.06,14.06,0,0,1-6.26,10.87L86.32,176.4a14.19,14.19,0,0,1-12.54,0L8.33,138.55a14.13,14.13,0,0,1-6.27-10.88L2,52.07A14.11,14.11,0,0,1,8.27,41.2L73.64,3.46A13,13,0,0,1,79.91,2m0-2a14.91,14.91,0,0,0-7.27,1.73L7.27,39.47A16.14,16.14,0,0,0,0,52.07l.06,75.6a16.16,16.16,0,0,0,7.27,12.61l65.45,37.85a16.14,16.14,0,0,0,14.54,0l65.38-37.74a16.1,16.1,0,0,0,7.26-12.6l-.05-75.6a16.21,16.21,0,0,0-7.28-12.61L87.19,1.74A14.85,14.85,0,0,0,79.91,0Z"/><path class="cls-2" d="M55.26,105.64v-7.2c-3.1.29-6.29.63-9.44,1v7.18C48.77,106.32,52,106,55.26,105.64Z"/><path class="cls-2" d="M53.44,117.44h53.07a56.64,56.64,0,0,0-53.07,0Z"/><path class="cls-2" d="M102.68,107.47v0c-8.39-.82-17-1.5-22.71-1.5s-14.31.68-22.71,1.5v0h-.14c-11,1.08-21.54,2.4-24.57,2.79v15.67h7.5v-8.49h9.28a58.88,58.88,0,0,1,61.28,0h9.29v8.49h7.49V110.26c-3-.39-13.58-1.71-24.56-2.79Z"/><path class="cls-2" d="M33.63,101.41c-2.63.54-5.05,1.13-7.15,1.79v5.18h5l2.14-.27Z"/><path class="cls-2" d="M83.57,130.29V126a3.6,3.6,0,1,0-7.19,0v4.27a3.16,3.16,0,0,0,.17,1.05c.2,0,.41,0,.61-.06h.08l1.23-.11c.5,0,1,0,1.5,0h0c.5,0,1,0,1.5,0l1.25.11h0c.21,0,.42,0,.62.06A3.12,3.12,0,0,0,83.57,130.29Z"/><rect class="cls-2" x="104.15" y="131.07" width="9.98" height="5.94"/><path class="cls-2" d="M114.13,128.12a5,5,0,1,0-10,0v.95h10Z"/><path class="cls-2" d="M117.9,119.44H42.05v8.49h-9.5v14.95h9.27V137h2v-8.9a7,7,0,1,1,14,0V137H64a26.11,26.11,0,0,1,10.59-5.28,5.51,5.51,0,0,1-.2-1.45V126a5.6,5.6,0,1,1,11.19,0v4.27a5.51,5.51,0,0,1-.2,1.45A26.11,26.11,0,0,1,96,137h6.19v-8.9a7,7,0,1,1,14,0V137h2v5.86h9.26V127.93H117.9Z"/><rect class="cls-2" x="45.82" y="131.07" width="9.98" height="5.94"/><path class="cls-2" d="M67.21,104.57V97.51c-3,.19-6.41.44-9.95.75v7.18C60.61,105.12,64,104.81,67.21,104.57Z"/><path class="cls-2" d="M55.8,128.12a5,5,0,1,0-10,0v.95h10Z"/><path class="cls-2" d="M35.63,107.86c2.14-.27,5-.61,8.19-1V99.73c-2.74.37-5.41.78-7.93,1.25l-.26.1Z"/><path class="cls-2" d="M79,104v-7c-1.62.06-5.16.2-9.76.48v7C72.84,104.16,76.2,104,79,104Z"/><path class="cls-2" d="M54.38,159l0,.3c-.05.42-.08.83-.11,1.25,0,.17,0,.35,0,.53s0,.29,0,.44h51.54c0-.15,0-.29,0-.44l0-.53c0-.42-.06-.83-.1-1.25l0-.3A30.84,30.84,0,0,0,95,138.78l-.45-.38a23.91,23.91,0,0,0-11.81-5.11l-.33,0-.8-.07a24.56,24.56,0,0,0-3.21,0l-.8.07-.34,0a23.84,23.84,0,0,0-11.8,5.11l-.46.38A30.88,30.88,0,0,0,54.38,159Z"/><path class="cls-2" d="M99.15,140l.14.15a33.09,33.09,0,0,1,8,16.52,1.29,1.29,0,0,1,0,.19c.07.43.13.86.19,1.29,0,.15,0,.3.05.45,0,.35.08.7.11,1s0,.44,0,.66,0,.58,0,.87a2.64,2.64,0,0,0,0,.28h8.37V139H98.19l.09.09C98.58,139.41,98.87,139.71,99.15,140Z"/><polygon class="cls-2" points="129.39 110.38 129.39 142.88 139.54 142.88 139.54 141.24 139.54 124.05 139.54 110.38 129.39 110.38"/><path class="cls-2" d="M90.74,104.42v-7c-4.57-.28-8.11-.42-9.77-.48v7C83.75,104,87.1,104.16,90.74,104.42Z"/><path class="cls-2" d="M102.68,105.44V98.26c-3.53-.31-6.92-.56-9.94-.75v7.06C96,104.81,99.34,105.12,102.68,105.44Z"/><path class="cls-2" d="M114.13,106.65V99.47c-3.15-.4-6.34-.74-9.45-1v7.2C108,106,111.18,106.32,114.13,106.65Z"/><path class="cls-2" d="M124.32,107.86v-6.78l-.26-.1c-2.53-.47-5.2-.88-7.93-1.25v7.15C119.36,107.25,122.18,107.59,124.32,107.86Z"/><path class="cls-2" d="M126.32,101.41v6.7l2.14.27h5V103.2C131.37,102.54,129,102,126.32,101.41Z"/><path class="cls-2" d="M80,71.73c-2,0-3.59,1.28-3.59,2.85a2.69,2.69,0,0,0,0,.4c.34,0,.67,0,1,0l1.8,0H80c1.2,0,2.39,0,3.56.1a2,2,0,0,0,0-.42C83.57,73,82,71.73,80,71.73Z"/><path class="cls-2" d="M80,91.86c-1.1,0-2.2,0-3.31.07a120.63,120.63,0,0,0-31,5.52c16.08-2,33.22-2.55,34.28-2.58s18.24.55,34.32,2.58a120.48,120.48,0,0,0-31-5.52C82.18,91.9,81.08,91.86,80,91.86Z"/><path class="cls-2" d="M84.82,77.09v0l-.67,0c-1.47-.11-2.86-.16-4.23-.17C61.4,76.92,46,85,43.78,95.66a113.89,113.89,0,0,1,32.94-5.74c1.09,0,2.18-.06,3.25-.06s2.16,0,3.26.06a114,114,0,0,1,32.94,5.74C114.13,86,101.14,78.36,84.82,77.09Z"/><polygon class="cls-2" points="20.41 142.88 30.55 142.88 30.55 110.38 20.41 110.38 20.41 124.05 20.41 141.24 20.41 142.88"/><path class="cls-1" d="M50.81,121.13a7,7,0,0,0-7,7V137h2v-6h-1v-2h1v-.95a5,5,0,1,1,10,0v.95h1v2h-1v6h2v-8.9A7,7,0,0,0,50.81,121.13Z"/><polygon class="cls-1" points="56.8 131.07 56.8 129.07 55.8 129.07 45.82 129.07 44.82 129.07 44.82 131.07 45.82 131.07 55.8 131.07 56.8 131.07"/><path class="cls-1" d="M109.14,121.13a7,7,0,0,0-7,7V137h2v-6h-1v-2h1v-.95a5,5,0,1,1,10,0v.95h1v2h-1v6h2v-8.9A7,7,0,0,0,109.14,121.13Z"/><polygon class="cls-1" points="115.13 131.07 115.13 129.07 114.13 129.07 104.15 129.07 103.15 129.07 103.15 131.07 104.15 131.07 114.13 131.07 115.13 131.07"/><path class="cls-1" d="M82.73,131.27l-1.25-.11Z"/><path class="cls-1" d="M78.47,131.16l-1.23.11C77.64,131.22,78.06,131.19,78.47,131.16Z"/><path class="cls-1" d="M85.57,126a5.6,5.6,0,1,0-11.19,0v4.27a5.51,5.51,0,0,0,.2,1.45,22.47,22.47,0,0,1,2.58-.46c-.2,0-.41,0-.61.06a3.16,3.16,0,0,1-.17-1.05V126a3.6,3.6,0,1,1,7.19,0v4.27a3.12,3.12,0,0,1-.17,1.05c-.2,0-.41,0-.62-.06a22.64,22.64,0,0,1,2.59.46,5.51,5.51,0,0,0,.2-1.45Z"/><polygon class="cls-1" points="79.97 131.11 79.98 131.11 79.97 131.11 79.97 131.11"/><path class="cls-1" d="M82.38,133.25l.33,0Z"/><path class="cls-1" d="M81.58,133.18c-.53,0-1.07-.07-1.61-.07s-1.07,0-1.6.07A24.56,24.56,0,0,1,81.58,133.18Z"/><path class="cls-1" d="M77.23,133.29l.34,0Z"/><path class="cls-1" d="M81,69.81V60.52H79v9.29a6.63,6.63,0,0,1,1-.08A6.43,6.43,0,0,1,81,69.81Z"/><path class="cls-1" d="M76.41,75a2.69,2.69,0,0,1,0-.4C76.38,73,78,71.73,80,71.73s3.6,1.28,3.6,2.85a2,2,0,0,1,0,.42c.67,0,1.34.08,2,.14a3.52,3.52,0,0,0,0-.56A5.11,5.11,0,0,0,81,69.81a6.43,6.43,0,0,0-1-.08,6.63,6.63,0,0,0-1,.08,5.1,5.1,0,0,0-4.59,4.77,5.32,5.32,0,0,0,.06.56c1-.09,2-.15,3-.19C77.08,75,76.75,75,76.41,75Z"/><path class="cls-1" d="M79.21,74.91h0Z"/><path class="cls-1" d="M84.81,77.11v0c-1.59-.13-3.2-.19-4.85-.19h-.06c1.37,0,2.76.06,4.23.17Z"/><path class="cls-1" d="M76.66,91.93c1.11,0,2.21-.07,3.31-.07C78.88,91.86,77.78,91.89,76.66,91.93Z"/><path class="cls-1" d="M80,91.86c1.11,0,2.21,0,3.31.07C82.17,91.89,81.06,91.86,80,91.86Z"/><path class="cls-1" d="M43.78,95.66C46,85,61.4,76.92,79.91,76.9H80c1.65,0,3.26.06,4.85.19,16.32,1.27,29.31,8.87,31.35,18.57a114,114,0,0,0-32.94-5.74,124.16,124.16,0,0,1,35.11,6.77c-1.24-11.11-15.12-20-32.81-21.55-.66-.06-1.33-.1-2-.14-1.17-.07-2.36-.1-3.56-.1h-.76l-1.8,0c-1,0-2,.1-3,.19C56.74,76.69,42.85,85.58,41.6,96.69a124.22,124.22,0,0,1,35.12-6.77A113.89,113.89,0,0,0,43.78,95.66Z"/><path class="cls-1" d="M35.89,101l-.26,0v.06Z"/><path class="cls-1" d="M124.32,101l-.26,0,.26.1Z"/><path class="cls-1" d="M45.67,97.45a120.63,120.63,0,0,1,31-5.52c1.12,0,2.22-.07,3.31-.07s2.2,0,3.31.07a120.48,120.48,0,0,1,31,5.52c3.56.45,7,1,10.32,1.58-2-.83-4.14-1.61-6.25-2.34a124.16,124.16,0,0,0-35.11-6.77c-1.1,0-2.18-.06-3.26-.06s-2.16,0-3.25.06A124.22,124.22,0,0,0,41.6,96.69Q38.44,97.79,35.36,99C38.62,98.42,42.12,97.9,45.67,97.45Z"/><path class="cls-1" d="M26.48,103.2c2.1-.66,4.52-1.25,7.15-1.79v-1h2V101l.26,0c2.52-.47,5.19-.88,7.93-1.25v-.56h2v.3c3.15-.4,6.34-.74,9.44-1v-1h2v.87c3.54-.31,6.92-.56,9.95-.75V95.87h2v1.52c4.6-.28,8.14-.42,9.76-.48v-1h2v1c1.66.06,5.2.2,9.77.48V95.87h2v1.64c3,.19,6.41.44,9.94.75v-.87h2v1c3.11.29,6.3.63,9.45,1v-.3h2v.56c2.73.37,5.4.78,7.93,1.25l.26,0v-.61h2v1c2.63.54,5.05,1.13,7.15,1.79v5.18h2v-6.62l-.69-.23A78,78,0,0,0,124.59,99c-3.27-.61-6.76-1.13-10.32-1.58C98.19,95.42,81,94.9,80,94.87s-18.2.55-34.28,2.58c-3.55.45-7.05,1-10.31,1.58a78.59,78.59,0,0,0-10.2,2.5l-.68.23v6.62h2Z"/><path class="cls-1" d="M80,110.84a56.85,56.85,0,0,1,26.54,6.6h4.1a58.88,58.88,0,0,0-61.28,0h4.11A56.81,56.81,0,0,1,80,110.84Z"/><path class="cls-1" d="M139.54,142.88H129.39v-32.5h10.15v13.67h2v-7.73h-1v-2h1v-5.94h-13l-.26,2-.87-.11v15.67h0v2h0v16.95h14.15v-3.64h-2Z"/><path class="cls-1" d="M32.55,127.93V110.26l-.87.11-.26-2h-13v5.94h1v2h-1v7.73h2V110.38H30.55v32.5H20.41v-1.64h-2v3.64H32.55V127.93Z"/><path class="cls-1" d="M20.41,124.05H0v2H18.41v13.19H5.84a11,11,0,0,0,1.48,1l1.66,1H20.41Z"/><path class="cls-1" d="M139.54,124.05v17.19h11.68l1.47-.85a11.36,11.36,0,0,0,1.61-1.15H141.54V126.05H160v-2H139.54Z"/><polygon class="cls-1" points="154.55 116.32 152.91 116.32 152.91 120.92 159.95 120.92 159.95 118.92 154.91 118.92 154.91 111.72 159.94 111.72 159.94 109.72 153.91 109.72 153.91 111.72 152.91 111.72 152.91 114.32 154.55 114.32 154.55 116.32"/><polygon class="cls-1" points="153.91 105.95 159.94 105.95 159.94 103.95 154.91 103.95 154.91 94.4 159.93 94.4 159.93 92.4 155.16 92.4 154.88 93.62 152.93 93.18 153.11 92.4 152.91 92.4 152.91 103.95 153.91 103.95 153.91 105.95"/><polygon class="cls-1" points="153.91 109.72 152.91 109.72 151.56 109.72 151.56 105.95 152.91 105.95 153.91 105.95 153.91 103.95 152.91 103.95 149.56 103.95 149.56 111.72 152.91 111.72 153.91 111.72 153.91 109.72"/><polygon class="cls-1" points="154.88 93.62 155.16 92.4 158.25 78.75 159.93 89.66 159.92 76.45 158.62 68.04 153.11 92.4 152.93 93.18 154.88 93.62"/><polygon class="cls-1" points="140.54 116.32 141.54 116.32 152.91 116.32 154.55 116.32 154.55 114.32 152.91 114.32 141.54 114.32 140.54 114.32 140.54 116.32"/><polygon class="cls-1" points="5.4 114.32 7.04 114.32 7.04 111.72 6.04 111.72 6.04 109.72 0.03 109.72 0.04 111.72 5.04 111.72 5.04 118.92 0.04 118.92 0.04 120.92 7.04 120.92 7.04 116.32 5.4 116.32 5.4 114.32"/><polygon class="cls-1" points="7.04 103.95 7.04 92.4 6.84 92.4 7.01 93.18 5.06 93.62 4.79 92.4 0.02 92.4 0.02 94.4 5.04 94.4 5.04 103.95 0.03 103.95 0.03 105.95 6.04 105.95 6.04 103.95 7.04 103.95"/><polygon class="cls-1" points="7.04 111.72 10.39 111.72 10.39 103.95 7.04 103.95 6.04 103.95 6.04 105.95 7.04 105.95 8.39 105.95 8.39 109.72 7.04 109.72 6.04 109.72 6.04 111.72 7.04 111.72"/><polygon class="cls-1" points="7.01 93.18 6.84 92.4 1.33 68.04 0.01 76.59 0.02 89.66 1.7 78.75 4.79 92.4 5.06 93.62 7.01 93.18"/><polygon class="cls-1" points="19.41 114.32 18.41 114.32 7.04 114.32 5.4 114.32 5.4 116.32 7.04 116.32 18.41 116.32 19.41 116.32 19.41 114.32"/><rect class="cls-1" x="32.55" y="142.88" width="9.27" height="2"/><rect class="cls-1" x="118.13" y="142.88" width="9.27" height="2"/><path class="cls-1" d="M126.32,109.49h-2v-1.63c-2.14-.27-5-.61-8.19-1v1.37h-2v-1.6c-2.95-.33-6.16-.68-9.45-1v1.83h-1.85c11,1.08,21.53,2.4,24.56,2.79l.87.11.26-2h-.06l-2.14-.27Z"/><path class="cls-1" d="M92.74,104.57V105h-2v-.53c-3.64-.26-7-.43-9.77-.46v1H79v-1c-2.77,0-6.13.2-9.76.46V105h-2v-.38c-3.22.24-6.6.55-9.95.87v2c8.4-.82,17-1.5,22.71-1.5s14.32.68,22.71,1.5v-2C99.34,105.12,96,104.81,92.74,104.57Z"/><path class="cls-1" d="M55.26,107.47v-1.83c-3.28.33-6.49.68-9.44,1v1.6h-2v-1.37c-3.23.37-6,.71-8.19,1v1.63h-2v-1.38l-2.14.27h-.07l.26,2,.87-.11c3-.39,13.58-1.71,24.57-2.79Z"/><polygon class="cls-1" points="42.05 119.44 79.97 119.44 79.97 117.44 53.44 117.44 49.33 117.44 40.05 117.44 40.05 125.93 32.55 125.93 32.55 127.93 42.05 127.93 42.05 119.44"/><polygon class="cls-1" points="119.9 117.44 110.61 117.44 106.51 117.44 79.97 117.44 79.97 119.44 117.9 119.44 117.9 127.93 127.39 127.93 127.39 127.93 127.39 125.93 127.39 125.93 119.9 125.93 119.9 117.44"/><polygon class="cls-1" points="78.97 104.95 80.97 104.95 80.97 103.96 80.97 96.91 80.97 95.88 78.97 95.88 78.97 96.91 78.97 103.96 78.97 104.95"/><polygon class="cls-1" points="90.74 104.95 92.74 104.95 92.74 104.57 92.74 97.51 92.74 95.88 90.74 95.88 90.74 97.39 90.74 104.42 90.74 104.95"/><polygon class="cls-1" points="102.68 107.45 102.68 107.47 102.83 107.47 104.68 107.47 104.68 105.64 104.68 98.44 104.68 97.39 102.68 97.39 102.68 98.26 102.68 105.44 102.68 107.45"/><polygon class="cls-1" points="114.13 108.25 116.13 108.25 116.13 106.88 116.13 99.73 116.13 99.17 114.13 99.17 114.13 99.47 114.13 106.65 114.13 108.25"/><polygon class="cls-1" points="124.32 107.86 124.32 109.49 126.32 109.49 126.32 108.11 126.32 101.41 126.32 100.41 124.32 100.41 124.32 101.02 124.32 101.08 124.32 107.86"/><path class="cls-1" d="M54.19,161.48h0c0-.15,0-.29,0-.44Z"/><path class="cls-1" d="M65,138.78l.46-.38A30.63,30.63,0,0,0,54.38,159,30.88,30.88,0,0,1,65,138.78Z"/><path class="cls-1" d="M52.21,161.2a2.64,2.64,0,0,0,0,.28H44l3.46,2h4.73v-1C52.18,162.05,52.19,161.63,52.21,161.2Z"/><path class="cls-1" d="M54.24,160.51c0-.42.06-.83.11-1.25C54.3,159.68,54.27,160.09,54.24,160.51Z"/><path class="cls-1" d="M52.65,156.88l0-.19Z"/><path class="cls-1" d="M57.8,137h-16v23.21l2,1.16V139H61.75l-.09.09A28.73,28.73,0,0,1,64,137Z"/><path class="cls-1" d="M60.65,140.17l.15-.15Z"/><path class="cls-1" d="M52.25,160.33c0-.22,0-.44,0-.66C52.28,159.89,52.27,160.11,52.25,160.33Z"/><path class="cls-1" d="M52.41,158.62c0-.15,0-.3.05-.45C52.44,158.32,52.42,158.47,52.41,158.62Z"/><path class="cls-1" d="M105.57,159a30.67,30.67,0,0,0-11-20.56l.45.38A30.84,30.84,0,0,1,105.57,159Z"/><path class="cls-1" d="M107.69,160.33c0-.22,0-.44,0-.66C107.67,159.89,107.68,160.11,107.69,160.33Z"/><path class="cls-1" d="M99.29,140.17l-.14-.15Z"/><path class="cls-1" d="M107.3,156.88a1.29,1.29,0,0,0,0-.19A1.29,1.29,0,0,1,107.3,156.88Z"/><path class="cls-1" d="M105.6,159.26c0,.42.08.83.1,1.25C105.68,160.09,105.64,159.68,105.6,159.26Z"/><path class="cls-1" d="M105.75,161.48c0-.15,0-.29,0-.44,0,.15,0,.29,0,.44Z"/><path class="cls-1" d="M107.54,158.62c0-.15,0-.3-.05-.45C107.51,158.32,107.52,158.47,107.54,158.62Z"/><path class="cls-1" d="M118.13,137H96a28.6,28.6,0,0,1,2.32,2.09l-.09-.09h17.94v22.46h-8.37a2.64,2.64,0,0,1,0-.28c0,.43,0,.85,0,1.28v1h4.92l5.44-3.13V137Z"/><path class="cls-1" d="M107.74,161.2c0-.29,0-.58,0-.87s0-.44,0-.66-.07-.7-.11-1c0-.15,0-.3-.05-.45-.06-.43-.12-.86-.19-1.29a1.29,1.29,0,0,0,0-.19,33.09,33.09,0,0,0-8-16.52l-.14-.15c-.28-.31-.57-.61-.87-.91A28.6,28.6,0,0,0,96,137a26.11,26.11,0,0,0-10.59-5.28,22.64,22.64,0,0,0-2.59-.46h0l-1.25-.11c-.5,0-1,0-1.5,0h0c-.5,0-1,0-1.5,0s-.83.06-1.23.11h-.08a22.47,22.47,0,0,0-2.58.46A26.11,26.11,0,0,0,64,137a28.73,28.73,0,0,0-2.33,2.09c-.29.3-.58.6-.86.91l-.15.15a33.18,33.18,0,0,0-8,16.52l0,.19c-.07.43-.14.86-.19,1.29,0,.15,0,.3-.05.45,0,.35-.08.7-.11,1s0,.44,0,.66,0,.58,0,.87,0,.85,0,1.28v1h55.59v-1C107.77,162.05,107.76,161.63,107.74,161.2ZM65.43,138.4a23.84,23.84,0,0,1,11.8-5.11l.34,0,.8-.07c.53,0,1.06-.07,1.6-.07s1.08,0,1.61.07l.8.07.33,0a23.91,23.91,0,0,1,11.81,5.11,30.67,30.67,0,0,1,11,20.56l0,.3c0,.42.08.83.1,1.25l0,.53c0,.15,0,.29,0,.44H54.19l0-.44c0-.18,0-.36,0-.53,0-.42.06-.83.11-1.25l0-.3A30.63,30.63,0,0,1,65.43,138.4Z"/><polygon class="cls-1" points="67.21 104.95 69.21 104.95 69.21 104.42 69.21 97.39 69.21 95.88 67.21 95.88 67.21 97.51 67.21 104.57 67.21 104.95"/><polygon class="cls-1" points="55.26 107.47 57.12 107.47 57.26 107.47 57.26 107.45 57.26 105.44 57.26 98.26 57.26 97.39 55.26 97.39 55.26 98.44 55.26 105.64 55.26 107.47"/><polygon class="cls-1" points="43.82 108.25 45.82 108.25 45.82 106.65 45.82 99.47 45.82 99.17 43.82 99.17 43.82 99.73 43.82 106.88 43.82 108.25"/><polygon class="cls-1" points="33.63 109.49 35.63 109.49 35.63 107.86 35.63 101.08 35.63 101.02 35.63 100.41 33.63 100.41 33.63 101.41 33.63 108.11 33.63 109.49"/></g></g></svg>