<svg xmlns="http://www.w3.org/2000/svg" viewBox="0 0 161.06 260.29"><defs><style>.cls-1{font-size:53.61px;font-family:GrandHotel-Regular, Grand Hotel;}.cls-1,.cls-4{fill:#fff;}.cls-2{fill:#5f474e;}.cls-3{fill:#e5a663;}</style></defs><title>ganache-logo</title><g id="Layer_2" data-name="Layer 2"><g id="Mask"><text class="cls-1" transform="translate(2.55 238.2) scale(1.1 1)">Ganache</text><path class="cls-2" d="M87.4,178.39a16.14,16.14,0,0,1-14.56,0L7.34,140.5A16.19,16.19,0,0,1,.06,127.88L0,52.21A16.14,16.14,0,0,1,7.28,39.6L72.71,1.82a16.12,16.12,0,0,1,14.55,0l65.51,37.89a16.19,16.19,0,0,1,7.28,12.62l.06,75.68a16.12,16.12,0,0,1-7.27,12.6Z"/><path class="cls-3" d="M139.11,134.93c1.88,0,2.49-.44,3.41-2s.46-4,.43-4.66c-.08-1.48-.58-3.12-.64-3.95,0-.51,0-3.73.08-5,1.13-20.89,10.08-25.85,12.68-26.42a7.23,7.23,0,0,1,5,.34V61.34h.32l.68-.46V52.54a16.29,16.29,0,0,0-7.33-12.69L87.83,1.75a16.23,16.23,0,0,0-14.64,0l-65.82,38A16.24,16.24,0,0,0,.06,52.43v8.06s0,.1,0,.15V72.73c.38.21.76.43,1.14.67,1.26.8,2.52,1.3,3.8,2.18a57.4,57.4,0,0,1,10.05,7.8c.59.58,2.58,3.08,3.06,3.67A40.57,40.57,0,0,0,23,92.6a18,18,0,0,0,3.25,2.33A9.17,9.17,0,0,0,33,95c12.46-5.4,20.28-2.69,23.89-.52,8.92,5.35,11.9,12.85,12.85,21.94a25,25,0,0,1,.12,3.55c0,2.16-.08,5.64,2.2,6.22,3.27.83,4.06-2.66,4.55-5,1.11-5.25,8.1-8.7,13.22-6.05,3.53,1.82,5,2.86,8.46,1.32,4.37-1.93,6.62-6.82,8.14-9.43a16,16,0,0,1,6.29-6c6.81-4.25,23.93-3.15,24.55,15.72,0,1,0,3.65,0,5.25,0,1.79.06,3.55-.06,5.42-.08,1.24-.3,2.53-.42,3.78C136.73,131.22,136.09,134.92,139.11,134.93Z"/><path class="cls-4" d="M88.71,84c-4.53,2.61-11.93,2.61-16.45,0L5.34,48.69a12.09,12.09,0,0,0,2.41,1.88L73.2,88.42a16.12,16.12,0,0,0,14.55,0l65.37-37.74a12,12,0,0,0,2.4-1.87Z"/><path class="cls-4" d="M72.15,7C76.68,4.35,84.08,4.36,88.6,7l8.11,3.39A12.12,12.12,0,0,0,94.3,8.47L87.66,4.22a16.13,16.13,0,0,0-14.55,0L61.5,10.88a12.08,12.08,0,0,0-2.4,1.87Z"/></g></g></svg>