<svg xmlns="http://www.w3.org/2000/svg" viewBox="0 0 159.95 179.87"><defs><style>.cls-1{fill:#e5a663;}.cls-2{fill:#5f474e;}.cls-3{fill:#fff;}</style></defs><title>ganache-logomark</title><g id="Layer_2" data-name="Layer 2"><g id="Mask"><path class="cls-1" d="M139,134.74c1.88,0,2.49-.44,3.41-2s.47-4,.43-4.66c-.08-1.48-.58-3.13-.64-4,0-.51,0-3.73.08-5C143.4,98.28,152.35,93.31,155,92.75a7.17,7.17,0,0,1,5,.34l0-31.93h0l0-.46V52.19a16.21,16.21,0,0,0-7.28-12.61L87.19,1.74a16.11,16.11,0,0,0-14.55,0L7.27,39.47A16.14,16.14,0,0,0,0,52.07v8.26a.71.71,0,0,0,0,.14V72.56c.38.21.76.43,1.14.67,1.26.8,2.52,1.3,3.79,2.18A57.26,57.26,0,0,1,15,83.2c.6.58,2.58,3.09,3.06,3.67a40.19,40.19,0,0,0,4.85,5.55,17.36,17.36,0,0,0,3.25,2.33,9.16,9.16,0,0,0,6.75.07c12.46-5.4,20.27-2.69,23.88-.53,8.92,5.36,11.89,12.85,12.84,21.94a25,25,0,0,1,.12,3.55c0,2.16-.08,5.63,2.2,6.21,3.27.83,4.06-2.66,4.55-5,1.1-5.25,8.09-8.7,13.21-6.05,3.53,1.82,5,2.86,8.46,1.32,4.37-1.93,6.61-6.82,8.14-9.42a15.9,15.9,0,0,1,6.29-6c6.81-4.25,23.91-3.14,24.54,15.71,0,1,0,3.65,0,5.25,0,1.8.05,3.56-.06,5.42-.08,1.23-.3,2.53-.42,3.78C136.62,131,136,134.73,139,134.74Z"/><path class="cls-2" d="M159.93,93.08a7.22,7.22,0,0,0-5-.33c-2.6.56-11.55,5.53-12.67,26.41-.07,1.28-.12,4.5-.08,5,.06.82.56,2.47.64,4,0,.67.52,3.11-.43,4.66s-1.53,2-3.41,2c-3,0-2.38-3.71-2.38-3.71.12-1.25.34-2.55.42-3.78.11-1.86.05-3.62.06-5.42,0-1.6,0-4.22,0-5.25-.63-18.85-17.73-20-24.54-15.71a15.9,15.9,0,0,0-6.29,6c-1.53,2.6-3.77,7.49-8.14,9.42-3.49,1.54-4.93.5-8.46-1.32-5.12-2.65-12.11.8-13.21,6.05-.49,2.32-1.28,5.81-4.55,5-2.28-.58-2.2-4-2.2-6.21a25,25,0,0,0-.12-3.55c-1-9.09-3.92-16.58-12.85-21.94-3.6-2.16-11.41-4.87-23.87.53a9.16,9.16,0,0,1-6.75-.07,17.36,17.36,0,0,1-3.25-2.33,40.19,40.19,0,0,1-4.85-5.55c-.48-.58-2.46-3.09-3.06-3.67a57.26,57.26,0,0,0-10-7.79C3.67,74.53,2.41,74,1.15,73.23.77,73,.39,72.77,0,72.56l0,55.11a16.19,16.19,0,0,0,7.28,12.61l65.44,37.85a16.14,16.14,0,0,0,14.55,0l65.37-37.74a16.14,16.14,0,0,0,7.27-12.6Z"/><path class="cls-3" d="M88.27,83.82c-4.52,2.62-11.93,2.62-16.45,0L4.91,48.51A11.79,11.79,0,0,0,7.32,50.4L72.76,88.25a16.14,16.14,0,0,0,14.55,0l65.37-37.74a11.89,11.89,0,0,0,2.4-1.87Z"/><path class="cls-3" d="M71.71,6.79c4.53-2.61,11.93-2.61,16.46,0l8.11,3.38A12.06,12.06,0,0,0,93.86,8.3L87.22,4.05A16.12,16.12,0,0,0,72.68,4L61.07,10.7a12,12,0,0,0-2.4,1.87Z"/></g></g></svg>