<svg xmlns="http://www.w3.org/2000/svg" viewBox="0 0 159.96 179.87"><defs><style>.cls-1{fill:#e5a663;}.cls-2,.cls-3{fill:none;stroke:#e5a663;stroke-miterlimit:10;stroke-width:2px;}.cls-2{fill-rule:evenodd;}</style></defs><title>ganache-feature-1-icon</title><g id="Layer_2" data-name="Layer 2"><g id="Mask"><path class="cls-1" d="M79.91,2h0a13,13,0,0,1,6.28,1.47l65.44,37.85a14.14,14.14,0,0,1,6.28,10.88l.06,75.6a14.09,14.09,0,0,1-6.27,10.87L86.32,176.4a14.16,14.16,0,0,1-12.55,0L8.33,138.55a14.14,14.14,0,0,1-6.28-10.88L2,52.07A14.09,14.09,0,0,1,8.27,41.2L73.64,3.46A13,13,0,0,1,79.91,2m0-2a14.87,14.87,0,0,0-7.27,1.73L7.27,39.47A16.13,16.13,0,0,0,0,52.07l.06,75.6a16.17,16.17,0,0,0,7.28,12.61l65.45,37.85a16.12,16.12,0,0,0,14.55,0l65.37-37.74a16.13,16.13,0,0,0,7.27-12.6l-.06-75.6a16.17,16.17,0,0,0-7.28-12.61L87.19,1.74A14.87,14.87,0,0,0,79.91,0Z"/><path class="cls-1" d="M80,35.25l33.16,55.09L80,110,46.81,90.39,80,35.25m0-3.88L44.06,91.08,80,112.29,115.91,91,80,31.37Z"/><path class="cls-1" d="M51.13,104.47,79,120.88l1,.6,1-.6,27.83-16.4L80,145,51.13,104.47M115.91,98,80,119.15,44.06,98,80,148.5,115.91,98Z"/><path class="cls-2" d="M80,74.67"/><polyline class="cls-2" points="46.46 89.93 80 74.67 113.5 89.93"/><line class="cls-3" x1="79.98" y1="34.85" x2="80" y2="112.29"/><line class="cls-3" x1="80.01" y1="119.21" x2="80.01" y2="145.88"/></g></g></svg>