<svg xmlns="http://www.w3.org/2000/svg" viewBox="0 0 160.11 180.03"><defs><style>.cls-1{fill:#5f474e;}.cls-2{fill:#e5a663;}.cls-3{fill:#fff;}</style></defs><title>ganache-logomark</title><g id="Layer_2" data-name="Layer 2"><g id="Mask"><path class="cls-1" d="M87.4,178.3a16.14,16.14,0,0,1-14.56,0L7.34,140.41A16.19,16.19,0,0,1,.06,127.79L0,52.12A16.14,16.14,0,0,1,7.28,39.51L72.71,1.73a16.12,16.12,0,0,1,14.55,0l65.51,37.89a16.19,16.19,0,0,1,7.28,12.62l.06,75.68a16.12,16.12,0,0,1-7.27,12.6Z"/><path class="cls-2" d="M138.24,134.61c1.87,0,2.47-.44,3.39-2s.46-4,.42-4.64c-.08-1.47-.58-3.1-.64-3.92,0-.5,0-3.71.08-5,1.12-20.76,10-25.69,12.6-26.25a7.19,7.19,0,0,1,5,.34v-32H160l.09-.46V52.29a16.19,16.19,0,0,0-7.28-12.61L87.29,1.81a16.13,16.13,0,0,0-14.55,0L7.33,39.57A16.14,16.14,0,0,0,.06,52.17v8.46s0,.1,0,.14v12c.38.21.76.42,1.13.66,1.26.8,2.51,1.29,3.77,2.17a57,57,0,0,1,10,7.75c.59.57,2.57,3.06,3,3.65a40.31,40.31,0,0,0,4.82,5.52,17.86,17.86,0,0,0,3.23,2.32,9.11,9.11,0,0,0,6.7.06c12.39-5.37,20.15-2.67,23.74-.52,8.87,5.32,11.82,12.77,12.77,21.81a24.81,24.81,0,0,1,.12,3.53c0,2.15-.08,5.6,2.19,6.18,3.25.83,4-2.64,4.52-5,1.1-5.22,8-8.65,13.14-6,3.51,1.81,4.94,2.84,8.41,1.31,4.34-1.92,6.58-6.78,8.09-9.37a15.87,15.87,0,0,1,6.25-5.95c6.77-4.22,23.78-3.13,24.4,15.62,0,1,0,3.63,0,5.22,0,1.78.06,3.53-.06,5.38-.08,1.23-.29,2.52-.41,3.76C135.88,130.92,135.24,134.59,138.24,134.61Z"/><path class="cls-3" d="M88.3,83.91c-4.53,2.61-11.93,2.61-16.45,0L4.93,48.6a12.09,12.09,0,0,0,2.41,1.88L72.79,88.33a16.12,16.12,0,0,0,14.55,0L152.71,50.6a12,12,0,0,0,2.4-1.87Z"/><path class="cls-3" d="M71.74,6.88c4.53-2.61,11.93-2.61,16.45,0l8.11,3.39a12.12,12.12,0,0,0-2.41-1.89L87.25,4.13a16.13,16.13,0,0,0-14.55,0L61.09,10.79a12.08,12.08,0,0,0-2.4,1.87Z"/></g></g></svg>