<svg xmlns="http://www.w3.org/2000/svg" viewBox="0 0 1600 420.35"><defs><style>.cls-1{fill:none;}.cls-2{fill:#5f474e;}</style></defs><title>ganache-goop</title><g id="Layer_2" data-name="Layer 2"><g id="Mask"><path class="cls-1" d="M195.78,230h0C195.69,229.91,195.7,229.92,195.78,230Z"/><path class="cls-1" d="M133,130.7l-.14-.08.14.08Z"/><path class="cls-1" d="M219.25,211.9h0c.09,0,.21.13.27.11S219.34,211.94,219.25,211.9Z"/><path class="cls-1" d="M1586.87,15.51c-21.94,4.64-34.65,17.16-51.66,30.3-14.19,11-30,18.41-46,26.12-30.33,14.59-61.7,23.65-92.43,36.54-19.41,8.14-29,28.22-48.08,36.42-15.66,6.72-33.49,3.51-49.32-1.32-31.27-9.55-77.21-15.25-107,1.43-12.89,7.22-25.71,19.77-42,15.09-16-4.59-24.3-23.84-36.14-34.44-29.79-26.68-53.85-23.12-88.72-11.17-10.69,3.67-23.91,8.55-36.28,9.47-19.11,1.43-70.16-11.29-96.24-11.25-12.76,0-20.37-11.34-29-18.46a86.83,86.83,0,0,0-32.1-16.75c-7.07-1.76-17.94-3.33-21.8-3.81-6.72-.83-15.18-4.58-21.36-5.43C772.3,66,762.06,71.79,754,86c-5.65,9.94-22.56,28-34.59,33.11-28.24,12-46.49-31-64.85-39.19-40.83-18.28-68.69,16.19-90.91,44.17-9.33,11.76-55.42,116.19-59.49,121.43-3.6,4.63-8.08,7.69-12.46,8.07-18.72,1.62-18.85-22.57-35.23-26.22-15.53-3.47-28.9,14.81-46.48,4-19.57-12-29.65-24.32-54.91-17.31-15.82,4.39-29.6,14.54-37.69,28.67-10.26,17.92-9.38,39.11-8.55,59.66.8,20,0,40.18,1,60.18.6,12.73,5.37,28,3.44,40.71-1.83,12-10.91,23.09-24.09,13.1-10.91-8.27-5.56-26.47-4.75-37.46,2.32-31.36,4.44-74.63-20.64-98-10.92-10.19-26-16.11-37.45-25.61L195.78,230C173.19,218.32,152,232.57,144,255.47h0c-.32,10.77-6.95,22.68-8.92,33.53a163.5,163.5,0,0,0-1.88,48.11c1.27,10.94,5.55,29.21-9.68,32.32-6.85,1.39-12-3-15.07-9.64-5.28-11.36,1.46-38.18,1.54-51.28.13-21.18,1.37-42.26,2.33-63.4,1.19-26.3-4.31-41.88-17.6-62.59C79.66,159,62.08,134.16,34.63,123.26c-11.89-4.72-23.28-6.44-34.63-4.65V420.35H1600V13.55A113.12,113.12,0,0,0,1586.87,15.51Z"/><path class="cls-2" d="M34.63,123.26c27.45,10.9,45,35.77,60.1,59.25,13.29,20.71,18.79,36.3,17.6,62.59-1,21.14-2.2,42.21-2.33,63.4-.08,13.09-6.82,39.91-1.54,51.28,3.06,6.59,8.22,11,15.07,9.64,15.23-3.1,10.95-21.37,9.68-32.32A163.5,163.5,0,0,1,135.09,289c2-10.84,8.6-22.75,8.92-33.53h0c8-22.89,29.19-37.15,51.78-25.48-.08-.07-.09-.07,0,0h0l30.52,25.37c11.44,9.5,26.53,15.42,37.45,25.61,25.09,23.4,23,66.67,20.64,98-.81,11-6.16,29.19,4.75,37.46,13.19,10,22.26-1.11,24.09-13.1,1.93-12.67-2.84-28-3.44-40.71-.95-20-.19-40.19-1-60.18-.82-20.55-1.7-41.74,8.55-59.66,8.09-14.14,21.86-24.29,37.69-28.67,25.26-7,35.33,5.32,54.91,17.31,17.58,10.77,31-7.51,46.48-4,16.38,3.66,16.51,27.84,35.23,26.22,4.39-.38,8.87-3.44,12.46-8.07,4.07-5.24,50.16-109.68,59.49-121.43,22.22-28,50.08-62.45,90.91-44.17,18.35,8.22,36.61,51.22,64.85,39.19C731.4,114,748.31,96,754,86c8.1-14.26,18.34-20.07,34.74-17.8,6.18.86,14.64,4.61,21.36,5.43,3.86.47,14.72,2,21.8,3.81A86.83,86.83,0,0,1,864,94.23c8.67,7.12,16.28,18.48,29,18.46,26.08,0,77.13,12.68,96.24,11.25,12.37-.92,25.59-5.81,36.28-9.47,34.87-12,58.93-15.52,88.72,11.17,11.84,10.61,20.17,29.86,36.14,34.44,16.28,4.68,29.1-7.87,42-15.09,29.77-16.68,75.71-11,107-1.43,15.83,4.84,33.66,8,49.32,1.32,19.12-8.2,28.67-28.27,48.08-36.42,30.73-12.89,62.1-21.95,92.43-36.54,16-7.71,31.82-15.15,46-26.12,17-13.15,29.73-25.66,51.66-30.3a113.12,113.12,0,0,1,13.13-2V0H0V118.61C11.34,116.82,22.73,118.54,34.63,123.26ZM219.25,211.9c.09,0,.21.14.27.11s-.18-.07-.27-.11ZM133,130.7h0l-.14-.08Z"/></g></g></svg>