<svg xmlns="http://www.w3.org/2000/svg" viewBox="0 0 360 240"><defs><style>.cls-1{opacity:0.5;}.cls-2{fill:#27aae1;}</style></defs><title>ganache-pattern</title><g id="Layer_2" data-name="Layer 2"><g id="Mask"><g class="cls-1"><path class="cls-2" d="M260,82.08a16.19,16.19,0,0,0-7.28-12.62L187.21,31.58a16.12,16.12,0,0,0-14.55,0L107.22,69.35A16.14,16.14,0,0,0,99.94,82l.06,75.67a16.19,16.19,0,0,0,7.28,12.62l65.51,37.88a16.14,16.14,0,0,0,14.56,0l65.44-37.78a16.12,16.12,0,0,0,7.27-12.6ZM107.72,70.22l65.44-37.78a15.14,15.14,0,0,1,13.55,0l65.51,37.89A15.27,15.27,0,0,1,259,82.08l0,40.39,0,0c-.64-.42-1.54-.81-4.09-.26-4.07.89-12,7.64-13.07,26.88-.07,1.25-.12,4.52-.08,5.08a12.41,12.41,0,0,0,.25,1.43,17.47,17.47,0,0,1,.39,2.51c0,.11,0,.27,0,.47.1.89.31,2.75-.4,3.91-.84,1.38-1.26,1.72-3,1.72a1.74,1.74,0,0,1-1.41-.57,3.75,3.75,0,0,1-.47-2.6c0-.51.11-1,.18-1.54.09-.75.19-1.52.24-2.27.08-1.38.07-2.72.06-4,0-.47,0-.95,0-1.42,0-1.6,0-4.22,0-5.27-.33-9.76-4.92-14.22-8.73-16.25-5.74-3.06-12.83-2.22-16.65.17l-.26.15a16,16,0,0,0-6.15,6c-.2.34-.41.71-.63,1.12-1.53,2.74-3.62,6.5-7.28,8.11-3,1.32-4.33.63-7.25-.9l-.79-.41a9.76,9.76,0,0,0-8.6.07,9.41,9.41,0,0,0-5.34,6.32c-.3,1.45-.76,3.63-2,4.41a2.37,2.37,0,0,1-1.92.19c-1.83-.47-1.83-3.51-1.82-5.53v-.57a23.44,23.44,0,0,0-.13-3.24c-1.13-10.82-5-17.49-13.09-22.32-3.63-2.18-11.63-5-24.34.49a8.64,8.64,0,0,1-6.32,0,17.39,17.39,0,0,1-3.16-2.27,27.68,27.68,0,0,1-3.71-4.14c-.36-.45-.71-.91-1.08-1.35l-.4-.5c-1.06-1.32-2.23-2.76-2.7-3.21a51.67,51.67,0,0,0-8.83-7c-.48-.31-.9-.59-1.29-.85a20.85,20.85,0,0,0-2.15-1.26c-.57-.3-1.11-.59-1.66-.93a.49.49,0,0,0-.46,0l0-20.73A15.23,15.23,0,0,1,107.72,70.22ZM252.29,169.5l-65.44,37.78a15.15,15.15,0,0,1-13.56,0l-65.5-37.88A15.27,15.27,0,0,1,101,157.64l0-54c.55.35,1.11.64,1.65.93a19.77,19.77,0,0,1,2.05,1.2c.39.27.83.56,1.32.87a50.82,50.82,0,0,1,8.67,6.88c.46.45,1.92,2.26,2.62,3.12l.41.5c.36.44.71.89,1.06,1.34a28.8,28.8,0,0,0,3.85,4.28,18.26,18.26,0,0,0,3.34,2.39,9.67,9.67,0,0,0,7.18.08c12.3-5.33,20-2.64,23.43-.55,7.74,4.65,11.51,11.1,12.61,21.57a22.25,22.25,0,0,1,.12,3.11v.59c0,2.33,0,5.84,2.58,6.5a3.36,3.36,0,0,0,2.69-.31c1.62-1,2.13-3.44,2.47-5.05a8.41,8.41,0,0,1,4.79-5.62,8.75,8.75,0,0,1,7.71-.09l.78.41c3,1.58,4.67,2.44,8.11.93,4-1.75,6.24-5.83,7.75-8.54.22-.4.43-.77.62-1.1a15,15,0,0,1,5.77-5.6,3.28,3.28,0,0,0,.38-.23c3.53-2.18,10.17-2.95,15.56-.07,3.57,1.9,7.89,6.12,8.2,15.38,0,1,0,3.65,0,5.26,0,.48,0,1,0,1.43,0,1.28,0,2.6-.06,4,0,.71-.14,1.47-.23,2.2-.07.52-.13,1-.18,1.53a4.66,4.66,0,0,0,.69,3.37,2.71,2.71,0,0,0,2.18.93h0a3.69,3.69,0,0,0,3.79-2.2c.89-1.45.65-3.54.54-4.54,0-.17,0-.31,0-.41a18.49,18.49,0,0,0-.41-2.66,12.18,12.18,0,0,1-.23-1.3c0-.48,0-3.67.08-5,1.26-23.29,12.17-25.93,12.28-26,2.36-.51,3-.12,3.33.12a1.49,1.49,0,0,0,.42.21.47.47,0,0,0,.17,0l0,34.26A15.21,15.21,0,0,1,252.29,169.5Z"/><path class="cls-2" d="M140.79,98.27l31,16.34a19.23,19.23,0,0,0,17.42,0L220,98.41l-32.74,18.9a15.14,15.14,0,0,1-13.55,0l-32.92-19M105.36,78.44a12.1,12.1,0,0,0,2.41,1.89l65.44,37.85a16.12,16.12,0,0,0,14.55,0l65.37-37.74a12,12,0,0,0,2.4-1.87l-66.81,35.18a18.24,18.24,0,0,1-16.45,0L105.36,78.44Z"/><path class="cls-2" d="M180.39,33.24a13.78,13.78,0,0,1,6.74,1.58l.43.28a20,20,0,0,0-14.47,0l.53-.3a13.78,13.78,0,0,1,6.77-1.6m0-1A14.87,14.87,0,0,0,173.13,34l-11.61,6.66a12.07,12.07,0,0,0-2.4,1.87l13-5.78a18.24,18.24,0,0,1,16.45,0l8.11,3.39a12.12,12.12,0,0,0-2.42-1.89L187.67,34a14.88,14.88,0,0,0-7.28-1.74Z"/><rect class="cls-2" x="280.06" y="194.59" width="2" height="2" transform="matrix(0.54, -0.84, 0.84, 0.54, -35.99, 324.93)"/><path class="cls-2" d="M276.44,193.79l-3.23-2.1L274.3,190l3.23,2.1ZM270,189.6l-3.23-2.1,1.09-1.68,3.23,2.1Zm-6.46-4.19-3.23-2.1,1.09-1.68,3.23,2.1Zm-6.46-4.19-3.23-2.1,1.09-1.68,3.23,2.1ZM250.59,177l-3.23-2.1,1.09-1.68,3.23,2.1Zm-6.46-4.19-3.23-2.1L242,169l3.23,2.1Zm-6.46-4.19-3.23-2.1,1.09-1.68,3.23,2.1Zm-6.46-4.19-3.23-2.1,1.09-1.68,3.23,2.1Zm-6.46-4.19-3.23-2.1,1.09-1.68,3.23,2.1ZM218.28,156l-3.23-2.1,1.09-1.68,3.23,2.1Z"/><rect class="cls-2" x="210.52" y="149.47" width="2" height="2" transform="translate(-29.85 245.99) rotate(-57.02)"/><rect class="cls-2" x="325.47" y="36.93" width="2" height="2" transform="translate(33.96 187.78) rotate(-33.75)"/><path class="cls-2" d="M265.91,79.6l-1.11-1.66,3.35-2.24,1.11,1.66Zm6.7-4.48-1.11-1.66,3.35-2.24L276,72.89Zm6.7-4.48L278.2,69l3.35-2.24,1.11,1.66Zm6.7-4.48-1.11-1.66,3.35-2.24,1.11,1.66Zm6.7-4.48L291.59,60l3.35-2.24,1.11,1.66Zm6.7-4.48-1.11-1.66,3.35-2.24L302.75,55Zm6.7-4.48L305,51.08l3.35-2.24,1.11,1.66Zm6.7-4.48-1.11-1.66L315,44.37,316.15,46Zm6.7-4.48-1.11-1.66,3.35-2.24,1.11,1.66Z"/><rect class="cls-2" x="260.18" y="80.56" width="2" height="2" transform="translate(-1.3 158.83) rotate(-33.75)"/><rect class="cls-2" x="77.95" y="193.26" width="2" height="2" transform="translate(-93 74.26) rotate(-32.97)"/><path class="cls-2" d="M83.8,192.3l-1.09-1.68,3.46-2.25,1.09,1.68Zm6.93-4.49-1.09-1.68,3.46-2.25,1.09,1.68Zm6.93-4.49-1.09-1.68,3.46-2.25,1.09,1.68Zm6.93-4.49-1.09-1.68L107,174.9l1.09,1.68Zm6.93-4.49-1.09-1.68,3.46-2.25,1.09,1.68Zm6.93-4.49-1.09-1.68,3.46-2.25,1.09,1.68Zm6.93-4.49-1.09-1.68,3.46-2.25,1.09,1.68Zm6.93-4.49-1.09-1.68,3.46-2.25,1.09,1.68Zm6.93-4.49-1.09-1.68,3.46-2.25,1.09,1.68Z"/><rect class="cls-2" x="145.43" y="149.47" width="2" height="2" transform="translate(-58.32 103.97) rotate(-32.98)"/><rect class="cls-2" x="30.49" y="36.91" width="2" height="2" transform="translate(-17.41 44.02) rotate(-57.41)"/><path class="cls-2" d="M94.72,79.53l-3.5-2.24,1.08-1.68,3.5,2.24Zm-7-4.47-3.5-2.24,1.08-1.68,3.5,2.24Zm-7-4.47-3.5-2.24,1.08-1.68,3.5,2.24Zm-7-4.47-3.5-2.24,1.08-1.68,3.5,2.24Zm-7-4.47-3.5-2.24,1.08-1.68L67.83,60Zm-7-4.47-3.5-2.24,1.08-1.68,3.5,2.24Zm-7-4.47-3.5-2.24,1.08-1.68L53.85,51Zm-7-4.47L42.28,46l1.08-1.68,3.5,2.24Zm-7-4.47-3.5-2.24,1.08-1.68,3.5,2.24Z"/><rect class="cls-2" x="98.59" y="80.46" width="2" height="2" transform="translate(-22.69 121.47) rotate(-57.4)"/><path class="cls-2" d="M360,88.87a13.75,13.75,0,0,1-6.71-1.6l-65.5-37.88A15.27,15.27,0,0,1,281,37.64L281,0h-1l0,37.64a16.19,16.19,0,0,0,7.28,12.62l65.51,37.88A14.85,14.85,0,0,0,360,89.87Z"/><path class="cls-2" d="M349.27,29.92c0,2.33,0,5.84,2.58,6.5a3.36,3.36,0,0,0,2.69-.31c1.62-1,2.13-3.44,2.47-5.05a7.87,7.87,0,0,1,3-4.52V25.31a9.06,9.06,0,0,0-4,5.53c-.3,1.45-.76,3.63-2,4.41a2.37,2.37,0,0,1-1.92.19c-1.83-.47-1.83-3.51-1.82-5.53v-.57a23.44,23.44,0,0,0-.13-3.24c-1.13-10.82-5-17.49-13.09-22.32-3.63-2.18-11.63-5-24.34.49a8.64,8.64,0,0,1-6.32,0A17.39,17.39,0,0,1,303.23,2a18.36,18.36,0,0,1-2-2H300a21.53,21.53,0,0,0,2.61,2.73,18.26,18.26,0,0,0,3.34,2.39,9.67,9.67,0,0,0,7.18.08c12.3-5.33,20-2.64,23.43-.55,7.74,4.65,11.51,11.1,12.61,21.57a22.25,22.25,0,0,1,.12,3.11Z"/><path class="cls-2" d="M360,153.78a18.68,18.68,0,0,0-6.9,1.36l.53-.3a13.57,13.57,0,0,1,6.37-1.59v-1a14.67,14.67,0,0,0-6.87,1.72l-11.61,6.66a12.07,12.07,0,0,0-2.4,1.87l13-5.78a16.62,16.62,0,0,1,7.84-1.95Z"/><path class="cls-2" d="M281,223.61c.55.35,1.11.64,1.65.93a19.77,19.77,0,0,1,2.05,1.2c.39.27.83.56,1.32.87a50.82,50.82,0,0,1,8.67,6.88c.46.45,1.92,2.26,2.62,3.12l.41.5c.36.44.71.89,1.06,1.34s.82,1,1.24,1.55h1.3c-.6-.69-1.17-1.42-1.76-2.17-.36-.45-.71-.91-1.08-1.35l-.4-.5c-1.06-1.32-2.23-2.76-2.7-3.21a51.67,51.67,0,0,0-8.83-7c-.48-.31-.9-.59-1.29-.85a20.85,20.85,0,0,0-2.15-1.26c-.57-.3-1.11-.59-1.66-.93a.49.49,0,0,0-.46,0l0-20.73a15.23,15.23,0,0,1,6.78-11.74l65.44-37.78a13.77,13.77,0,0,1,6.77-1.6H360v-1h-.07a14.87,14.87,0,0,0-7.27,1.73l-65.44,37.78A16.14,16.14,0,0,0,279.94,202l0,38h1Z"/><path class="cls-2" d="M360,238.9a13.51,13.51,0,0,1-6.28-1.59l-32.92-19,31,16.34A17.49,17.49,0,0,0,360,236.7v-1a16.56,16.56,0,0,1-7.73-2l-66.91-35.31a12.1,12.1,0,0,0,2.41,1.89l65.44,37.85A14.62,14.62,0,0,0,360,239.9Z"/><path class="cls-2" d="M.5,235.71H0v1H.5a17.7,17.7,0,0,0,8.69-2.07L40,218.41,7.26,237.31a13.77,13.77,0,0,1-6.77,1.6H0v1H.49a14.87,14.87,0,0,0,7.27-1.73l65.37-37.74a12,12,0,0,0,2.4-1.87L8.72,233.75A16.82,16.82,0,0,1,.5,235.71Z"/><path class="cls-2" d="M7.67,154a14.88,14.88,0,0,0-7.28-1.74H0v1H.39a13.78,13.78,0,0,1,6.74,1.58l.43.28a18.91,18.91,0,0,0-7.18-1.34l-.38,0v1H.38a16.82,16.82,0,0,1,8.23,2l8.11,3.39a12.12,12.12,0,0,0-2.42-1.89Z"/><path class="cls-2" d="M80,202.08a16.19,16.19,0,0,0-7.28-12.62L7.21,151.58A14.84,14.84,0,0,0,0,149.85v1a13.75,13.75,0,0,1,6.7,1.6l65.51,37.89A15.27,15.27,0,0,1,79,202.08L79,240h1Z"/><path class="cls-2" d="M79,2.47l0,0c-.64-.42-1.54-.81-4.09-.26-4.07.89-12,7.64-13.07,26.88-.07,1.25-.12,4.52-.08,5.08A12.41,12.41,0,0,0,62,35.58a17.47,17.47,0,0,1,.39,2.51c0,.11,0,.27,0,.47.1.89.31,2.75-.4,3.91-.84,1.38-1.26,1.72-3,1.72a1.74,1.74,0,0,1-1.41-.57,3.75,3.75,0,0,1-.47-2.6c0-.51.11-1,.18-1.54.09-.75.19-1.52.24-2.27.08-1.38.07-2.72.06-4,0-.47,0-.95,0-1.42,0-1.6,0-4.22,0-5.27-.33-9.76-4.92-14.22-8.73-16.25C43.22,7.19,36.13,8,32.31,10.42l-.26.15a16,16,0,0,0-6.15,6c-.2.34-.41.71-.63,1.12-1.53,2.74-3.62,6.5-7.28,8.11-3,1.32-4.33.63-7.25-.9L10,24.45a9.76,9.76,0,0,0-8.6.07A10.91,10.91,0,0,0,0,25.31v1.22a9.89,9.89,0,0,1,1.8-1.1,8.75,8.75,0,0,1,7.71-.09l.78.41c3,1.58,4.67,2.44,8.11.93,4-1.75,6.24-5.83,7.75-8.54.22-.4.43-.77.62-1.1a15,15,0,0,1,5.77-5.6,3.28,3.28,0,0,0,.38-.23C36.46,9,43.1,8.26,48.49,11.13c3.57,1.9,7.89,6.12,8.2,15.38,0,1,0,3.65,0,5.26,0,.48,0,1,0,1.43,0,1.28,0,2.6-.06,4,0,.71-.14,1.47-.23,2.2-.07.52-.13,1-.18,1.53a4.66,4.66,0,0,0,.69,3.37,2.71,2.71,0,0,0,2.18.93h0A3.69,3.69,0,0,0,62.9,43c.89-1.45.65-3.54.54-4.54,0-.17,0-.31,0-.41A18.49,18.49,0,0,0,63,35.37a12.18,12.18,0,0,1-.23-1.3c0-.48,0-3.67.08-5C64.09,5.83,75,3.19,75.11,3.16c2.36-.51,3-.12,3.33.12a1.49,1.49,0,0,0,.42.21.47.47,0,0,0,.17,0l0,34.26A15.21,15.21,0,0,1,72.29,49.5L6.85,87.28a13.79,13.79,0,0,1-6.77,1.6H0v1H.08a14.89,14.89,0,0,0,7.27-1.73L72.79,50.36a16.12,16.12,0,0,0,7.27-12.6L80,0H79Z"/></g></g></g></svg>