
<svg width="121px" height="119px" viewBox="0 0 121 119" version="1.1" xmlns="http://www.w3.org/2000/svg" xmlns:xlink="http://www.w3.org/1999/xlink">
    <!-- Generator: Sketch 43.1 (39012) - http://www.bohemiancoding.com/sketch -->
    <desc>Created with Sketch.</desc>
    <defs></defs>
    <g id="Ganache-Landing-Page" stroke="none" stroke-width="1" fill="none" fill-rule="evenodd">
        <g id="Desktop-HD" transform="translate(-641.000000, -3509.000000)" fill="#5C4A37">
            <g id="LIKE-THE-TASTE?" transform="translate(222.000000, 3216.000000)">
                <g id="Group-3" transform="translate(419.000000, 293.793000)">
                    <path d="M60.388,0 C27.041,0 0,27.035 0,60.388 C0,87.068 17.303,109.704 41.297,117.689 C44.315,118.248 45.423,116.379 45.423,114.784 C45.423,113.345 45.367,108.587 45.341,103.541 C28.541,107.194 24.996,96.416 24.996,96.416 C22.249,89.437 18.291,87.58 18.291,87.58 C12.812,83.832 18.704,83.909 18.704,83.909 C24.768,84.335 27.961,90.133 27.961,90.133 C33.347,99.364 42.088,96.695 45.534,95.152 C46.076,91.25 47.641,88.585 49.368,87.077 C35.955,85.551 21.855,80.372 21.855,57.233 C21.855,50.641 24.214,45.253 28.077,41.024 C27.45,39.503 25.383,33.361 28.662,25.043 C28.662,25.043 33.734,23.421 45.273,31.234 C50.09,29.896 55.256,29.225 60.388,29.201 C65.52,29.225 70.69,29.896 75.516,31.234 C87.042,23.421 92.106,25.043 92.106,25.043 C95.393,33.361 93.326,39.503 92.699,41.024 C96.571,45.253 98.913,50.641 98.913,57.233 C98.913,80.428 84.786,85.534 71.339,87.029 C73.505,88.903 75.435,92.578 75.435,98.212 C75.435,106.292 75.366,112.795 75.366,114.784 C75.366,116.392 76.452,118.274 79.513,117.682 C103.494,109.688 120.776,87.06 120.776,60.388 C120.776,27.035 93.739,0 60.388,0" id="Fill-1"></path>
                </g>
            </g>
        </g>
    </g>
</svg>
