
<svg width="100%" height="auto" viewBox="0 0 293 48" version="1.1" xmlns="http://www.w3.org/2000/svg" xmlns:xlink="http://www.w3.org/1999/xlink">
    <g id="Ganache-Landing-Page" stroke="none" stroke-width="1" fill="none" fill-rule="evenodd" fill-opacity="0.309584466">
        <g id="Desktop-HD" transform="translate(-553.000000, -1704.000000)" fill-rule="nonzero" fill="#CE9961">
            <g id="THE-SWEET-FEATURES" transform="translate(470.000000, 1704.000000)">
                <g id="Group-3">
                    <path d="M375.080035,15.0887772 C375.886406,16.1956582 376.096763,17.3571319 375.896423,18.6092596 C375.701091,19.8613874 375.095061,21.2041692 374.143444,22.3511182 C373.196835,23.4975664 371.904639,24.4491835 370.412103,25.1759185 C368.924575,25.8966432 367.236707,26.4030037 365.153166,26.5482505 C363.070127,26.6879879 360.590914,26.4776305 357.970962,25.7819483 C355.347003,25.0807567 352.576795,23.8932388 349.321263,21.9203863 C348.775335,21.584816 348.214382,21.2342203 347.642911,20.8585819 C346.276088,21.9203863 344.88823,23.0422928 343.556467,24.1441652 C340.841854,26.3979952 338.362641,28.5867145 335.883428,30.7754338 C334.380875,29.0930749 332.878321,27.4052067 331.190453,25.9121696 C330.769738,25.5415398 330.333998,25.180927 329.858189,24.8158065 C329.032286,25.7719313 328.220406,26.6939982 327.43407,27.5754961 C323.993223,31.4120155 320.963074,34.4171222 317.692516,36.8161989 C314.422459,39.2152757 310.916501,41.0083227 307.435586,42.3400858 C303.954671,43.6723497 300.498298,44.5438306 296.717373,44.8844094 C292.930938,45.225489 288.818951,45.0446817 284.005772,44.2934051 C279.192593,43.5421284 273.68323,42.2198815 268.464362,40.7573963 C263.240485,39.2944102 258.31211,37.6866782 252.82779,35.6687491 C251.78602,35.2876014 250.729224,34.891929 249.662411,34.481732 C249.206637,34.8523618 248.765888,35.2179831 248.340165,35.5886129 C246.121394,37.5118811 244.303305,39.4652004 242.485215,41.4185197 C239.329853,39.8157962 236.174491,38.2180812 232.81378,36.5702811 C231.611738,37.5068726 230.464789,38.4484727 229.38295,39.3850643 C227.489733,41.0328644 225.801865,42.6706475 224.113997,44.3029212 C221.529605,42.4046956 218.945213,40.5069707 215.885013,38.7034059 C214.652919,37.9721633 213.345698,37.2609547 211.988391,36.5647717 C211.222089,36.9253845 210.440762,37.2854964 209.644408,37.6461092 C204.014842,40.1759081 197.498769,42.6546203 192.440173,44.2773778 C187.376568,45.9001354 183.760423,46.6669384 180.069151,46.9819738 C176.377878,47.2970091 172.606469,47.1672887 168.825043,46.8061751 C165.043618,46.4505708 161.242158,45.8750929 156.564208,44.4777183 C151.881251,43.0803437 146.321803,40.8615733 141.839186,38.672854 C137.356569,36.4841347 133.95579,34.3249656 131.120972,32.0165428 C129.092525,30.3637342 127.349564,28.6408064 125.872053,27.0280658 C125.771883,27.1227267 125.671712,27.2233978 125.566534,27.323568 C122.406163,30.3937853 120.347665,32.5023684 118.289167,34.6109515 C116.971929,32.7432778 115.65469,30.8695938 114.127094,28.8361383 C113.260622,27.6891893 112.329039,26.4921552 111.397456,25.3652402 C110.671222,25.8410487 109.980047,26.2817977 109.338958,26.6874871 C106.454056,28.4955596 104.500736,29.4972618 102.286974,30.2390223 C100.068204,30.9752734 97.5939995,31.4510819 95.3652121,31.3959883 C93.1364247,31.3459032 91.1580628,30.7649159 89.3650159,29.8132988 C87.5719689,28.8666902 85.9642369,27.5494518 84.9074411,26.3223666 C83.8556538,25.0952814 83.3548027,23.9633579 83.1294197,22.7457889 C82.9040367,21.5337292 82.9591303,20.2415334 83.4048878,18.8842269 C83.8556538,17.5269204 84.6970836,16.1045033 86.1996369,14.7827572 C87.7021902,13.4655188 89.865867,12.2534591 92.6756417,11.7671327 C95.4804079,11.2767995 98.9362805,11.5167072 102.377128,12.6491315 C105.817975,13.781055 109.248805,15.8140096 112.489311,18.3738596 C113.370809,19.0650341 114.232273,19.7962768 115.088729,20.5575704 C115.11878,20.5375364 115.148831,20.511993 115.178882,20.4919589 C117.422695,18.924295 119.796729,17.2364268 121.930355,15.574102 C124.06398,13.915784 125.962206,12.2785017 127.860432,10.6457271 C129.0775,12.173323 130.28956,13.7054265 132.423185,15.6687628 C132.788807,16.0043331 133.17947,16.3499203 133.590168,16.7055246 C135.638649,15.0276734 137.852411,13.3047456 140.026105,11.7771497 C144.58385,8.5767112 148.99134,6.22771952 153.814536,4.59494493 C158.637732,2.95666097 163.886652,2.03559579 168.965282,1.81021279 C174.038903,1.58983831 178.942236,2.06063835 184.416538,3.24765546 C189.885832,4.43467257 195.926097,6.33289826 200.814403,8.27119202 C205.236919,10.0241709 208.722842,11.8072008 212.589413,13.6152733 C214.237213,12.5384434 215.729749,11.4916646 216.991894,10.5650901 C218.945213,9.12764741 220.342588,7.96567285 221.739962,6.8087068 C224.083946,8.19105585 226.427929,9.5784134 228.77692,10.9056688 C228.821997,10.8656007 228.872082,10.831042 228.917159,10.7909739 C231.832112,8.40642182 234.070917,6.31787272 236.31523,4.2398415 C239.796146,6.34842464 243.27656,8.45700778 246.597203,10.2750973 C247.84933,10.9612633 249.081424,11.6073612 250.293985,12.2083825 C251.270144,11.6123697 252.186701,11.066442 253.078717,10.5500645 C256.148934,8.78706866 258.918641,7.43977919 262.99056,5.95225142 C267.067488,4.45971513 272.446629,2.82694053 277.400046,1.77014471 C282.358472,0.718357389 286.896183,0.242548841 290.94306,0.0722594655 C294.989937,-0.0980299095 298.550988,0.0321913773 302.242762,0.467931837 C305.934535,0.903672297 309.755529,1.63992342 313.647142,2.80189798 C317.534247,3.95886403 321.49047,5.54155351 324.851181,7.24444726 C328.211892,8.9423325 330.981598,10.7649297 334.131952,13.0943881 C334.517607,13.3848818 334.908271,13.6753754 335.303943,13.9758861 C336.956752,12.0876774 338.399203,10.2796049 339.842155,8.47153247 C340.473228,8.9423325 341.108808,9.4186419 342.651429,10.605659 C344.19405,11.7926761 346.643212,13.6909018 349.257655,15.4689232 C349.602741,15.7088309 349.953838,15.9447318 350.309442,16.1751233 C351.19645,15.4984734 352.13254,14.8178168 353.159285,14.1261414 C354.897238,12.9541498 356.900643,11.7370817 359.089362,11.0909837 C361.278082,10.4448858 363.651615,10.3697581 365.750682,10.5901326 C367.844239,10.8155156 369.662329,11.3414093 371.27507,12.132754 C372.881299,12.9245996 374.278674,13.9813955 375.080035,15.0887772 L375.080035,15.0887772 Z M373.116699,19.6460214 C373.85295,18.8697022 373.933086,18.0983915 373.747771,17.3571319 C373.567966,16.6163731 373.116699,15.9051645 371.839529,15.193956 C370.556849,14.4822466 368.448266,13.771038 366.104784,13.5206124 C363.756293,13.2701869 361.1714,13.4805443 358.812392,14.1772282 C356.623672,14.8283347 354.625276,15.8951475 352.315852,17.4477859 C353.958643,18.4494881 355.611452,19.3359946 357.179116,20.0221606 C359.72344,21.1290415 362.04238,21.6799778 364.071328,21.9203863 C366.104784,22.1557863 367.842236,22.0756501 369.4099,21.6449182 C370.983073,21.2086769 372.380448,20.4223406 373.116699,19.6460214 L373.116699,19.6460214 Z M344.347812,21.1285407 C344.883221,20.6627492 345.424141,20.1969576 345.960552,19.7361746 C343.596535,18.1189264 341.087271,16.2607688 338.572998,14.4026112 C338.222403,14.8283347 337.871807,15.2535573 337.52071,15.6797815 C339.724956,17.3972 342.038888,19.2653746 344.347812,21.1285407 L344.347812,21.1285407 Z M324.278708,13.8611912 C324.539151,13.7560125 324.569202,13.545655 323.923104,12.9541498 C323.277006,12.3586379 320.857895,10.8906433 318.929618,10.0341879 C317.005849,9.17773252 309.0323,6.61888424 304.880244,5.6717748 C298.26951,4.15920447 292.094016,3.4029193 285.191787,3.78356614 C280.659085,4.03399169 274.48359,5.00514198 269.990455,6.1275493 C265.493313,7.24945577 260.599497,9.37807296 255.731224,11.8327442 C254.76959,12.3185698 253.767888,12.8394549 252.746152,13.3853826 C253.903619,13.9112763 255.045058,14.4021104 256.18199,14.8528764 C257.389041,15.3286849 258.586076,15.7599177 259.823178,16.1701148 C262.422595,14.7527062 264.902309,13.555672 267.360987,12.4888592 C270.776791,11.0163569 274.153029,9.79928874 277.312898,8.94283335 C280.478277,8.08637797 283.4338,7.58552686 286.914214,7.33510131 C290.395129,7.08467576 294.401938,7.08467576 297.96349,7.33510131 C301.519533,7.58552686 304.634827,8.08637797 308.005555,8.85268016 C311.381291,9.61848149 315.022479,10.6457271 317.566802,11.5422506 C320.111126,12.4387741 321.563594,13.2045754 322.535245,13.5857231 C323.512406,13.9663699 324.013257,13.9663699 324.278708,13.8611912 L324.278708,13.8611912 Z M326.487461,22.6561366 C325.656048,22.1953535 324.699423,21.699511 323.572508,21.1535832 C319.510605,19.1752214 313.259984,16.5106935 307.369975,14.8128083 C301.474456,13.1104154 295.940553,12.3736634 290.491293,12.173323 C285.047041,11.9774902 279.692442,12.3185698 275.435208,13.0047358 C271.177973,13.6909018 268.013095,14.7176466 264.942878,16.0243671 C264.171567,16.3499203 263.409773,16.6960084 262.653988,17.0516127 C263.755861,17.3766651 264.917835,17.7027191 266.159946,18.042797 C270.01099,19.0845673 274.679423,20.2415334 279.347355,21.4035079 C277.053457,21.954945 274.759559,22.5103889 272.545798,23.1815294 C270.327027,23.8581792 268.193401,24.6440146 265.408669,25.7809466 C265.012997,25.9412189 264.602299,26.1115083 264.176576,26.2868062 C265.272939,26.6874871 266.325227,27.0631254 267.316912,27.4037042 C272.390534,29.1416575 275.821364,29.9580448 279.473069,30.7739312 C283.124274,31.5958279 287.000861,32.4122152 290.561913,32.8174037 C294.118456,33.2281016 297.363471,33.2281016 300.779275,32.8975399 C304.190071,32.5669782 307.776165,31.9108632 311.061247,30.9592461 C314.342323,30.0126376 317.321886,28.7705268 320.091593,27.1778203 C322.350431,25.8766092 324.469031,24.3389963 326.487461,22.6561366 L326.487461,22.6561366 Z M314.291737,35.0371758 C314.897767,34.6019362 314.872724,34.4662056 314.436984,34.5218 C314.001243,34.5763928 313.154805,34.8122937 310.214809,35.3131448 C307.274813,35.8139959 302.241259,36.5797972 297.768659,36.8006726 C293.300566,37.0260556 289.398936,36.7105194 284.561215,35.864081 C279.722994,35.0226511 273.948181,33.6503191 268.699261,32.1477658 C265.073099,31.111004 261.70187,30.0086308 258.481899,28.8671911 C257.700571,29.2573541 256.92926,29.6635443 256.182992,30.0792508 C255.877473,30.2495401 255.581971,30.4198295 255.286469,30.5951274 C255.861946,30.8104934 256.423401,31.0208508 256.96432,31.2261998 C261.446937,32.914068 264.612817,34.1010851 268.3692,35.2876014 C272.130592,36.4746185 276.477479,37.6616356 280.484288,38.4129123 C284.496606,39.1641889 288.157326,39.4797251 291.563114,39.6104473 C294.963893,39.7456771 298.099221,39.6900826 301.32971,39.2147749 C304.5602,38.7389663 307.880843,37.8424429 310.165225,37.0260556 C312.443596,36.2096683 313.685707,35.4729163 314.291737,35.0371758 L314.291737,35.0371758 Z M261.286665,25.210978 C262.759167,24.524812 264.241686,23.8536715 265.719698,23.1820302 C262.854329,22.1753195 259.989961,21.1686088 256.959812,20.0517108 C256.66431,20.222501 256.373816,20.3872811 256.083323,20.5580713 C255.181791,21.0889735 254.295284,21.6248841 253.438829,22.160294 C256.027728,23.1875396 258.717299,24.238826 261.286665,25.210978 L261.286665,25.210978 Z M255.832396,27.9050561 C255.301494,27.7047157 254.7756,27.5093837 254.249707,27.3090433 C252.396558,26.6083526 250.583477,25.8916347 248.790931,25.1754176 C248.665718,25.2605623 248.545514,25.3406985 248.425309,25.4258432 C247.568854,26.0013211 246.782518,26.5527581 246.011207,27.0886688 C248.280062,27.9501327 250.589487,28.8216136 252.767688,29.6430094 C253.763881,29.0369796 254.790626,28.4559923 255.832396,27.9050561 Z M251.284668,21.2988301 C252.406575,20.5781053 253.528481,19.8714044 254.635362,19.1902469 C253.397759,18.7244554 252.125597,18.2386298 250.808359,17.7227532 C249.686953,17.2870127 248.534495,16.8312382 247.357495,16.3554297 C246.220062,16.9965191 245.078622,17.6581434 243.94169,18.318766 C245.809865,19.1005946 247.77821,19.8919393 249.897311,20.7428853 C250.353085,20.9282003 250.818877,21.1135152 251.284668,21.2988301 Z M245.174285,25.3056389 C245.665119,24.9805865 246.161462,24.6495239 246.662313,24.3189622 C244.854241,23.5877196 243.056185,22.8614855 241.252621,22.1397591 C240.496335,21.8392484 239.74005,21.5442471 238.984266,21.2432356 C237.897419,21.8948429 236.830105,22.5354314 235.778819,23.1720132 C237.662019,23.9032558 239.600313,24.6440146 241.674337,25.4358602 C242.360002,25.7013113 243.061695,25.9672632 243.767895,26.2377228 C244.232685,25.9317028 244.698476,25.6211751 245.174285,25.3056389 L245.174285,25.3056389 Z M244.758578,35.6832738 C245.595,34.9720652 246.43693,34.2658651 247.288377,33.5696821 C245.05959,32.7037105 242.800751,31.8016777 240.586489,30.9051542 C239.825195,31.4365572 239.049377,31.9819841 238.26254,32.5384297 C240.396165,33.5596651 242.579876,34.6219703 244.758578,35.6832738 L244.758578,35.6832738 Z M241.853642,17.4322596 C243.011109,16.721051 244.082429,16.0599275 245.084132,15.4338637 C241.167476,13.8411571 237.030446,12.1032038 232.893416,10.370259 C232.187216,10.9166876 231.486024,11.4671229 230.769807,12.0235685 C232.267352,12.8449643 233.764897,13.6408167 235.26745,14.3875857 C237.42111,15.4689232 239.574769,16.4505914 241.853642,17.4322596 Z M238.22748,29.9385116 C237.441645,29.6134592 236.665325,29.2874052 235.899023,28.971869 C233.920661,28.1454646 232.027444,27.3441029 230.179304,26.5527581 C229.453069,26.9884986 228.731844,27.4242391 228.015627,27.8499625 C228.857057,28.2155838 229.723529,28.5912221 230.610035,28.981886 C232.342479,29.7531967 234.151053,30.589618 236.004202,31.4661075 C236.71491,30.9707657 237.461178,30.4593967 238.22748,29.9385116 L238.22748,29.9385116 Z M233.669735,22.3556259 C234.76159,21.7145365 235.843429,21.0634301 236.905233,20.4268483 C234.115492,19.3304852 231.380845,18.2531545 228.861564,17.1768255 C227.819794,16.7305672 226.808075,16.2898182 225.826407,15.8445616 C225.04007,16.4505914 224.208658,17.0816638 223.332168,17.7528043 C223.19193,17.857983 223.046683,17.9686711 222.901436,18.0783575 C224.564262,18.7545065 226.222079,19.4206384 227.829811,20.0567193 C229.81819,20.8485649 231.73645,21.6043492 233.669735,22.3556259 L233.669735,22.3556259 Z M227.689573,37.6215675 C228.621156,36.9053504 229.552739,36.1841249 230.52439,35.4528822 C228.661224,34.5513503 226.72293,33.6297842 224.684466,32.6881842 C223.772917,32.2674692 222.841334,31.8417458 221.894725,31.4110138 C220.792853,32.0315684 219.685972,32.6431076 218.559057,33.2491374 C221.443959,34.6064439 224.56927,36.1140057 227.689573,37.6215675 L227.689573,37.6215675 Z M225.81639,26.923388 C226.537615,26.5126901 227.283883,26.0869666 228.055194,25.6407083 C225.611041,24.588921 223.221981,23.5571677 220.80287,22.5103889 C220.001508,22.1653025 219.190129,21.8142059 218.383759,21.4686186 C217.727644,21.9494357 217.066521,22.4357621 216.39538,22.9210868 C217.256844,23.3067421 218.138342,23.7024145 219.074934,24.1081039 C221.083347,24.9700687 223.347194,25.8866262 225.81639,26.923388 Z M220.677657,17.1668085 C221.679359,16.4155318 222.701096,15.6442211 223.717823,14.8729104 C221.884708,14.016455 220.116704,13.1599996 218.353708,12.3035443 C217.311938,13.0898805 216.265159,13.8762167 214.952929,14.702621 C216.791053,15.5240168 218.724338,16.3504212 220.677657,17.1668085 L220.677657,17.1668085 Z M216.114904,32.1122054 C217.201751,31.5813032 218.333674,31.0053244 219.555751,30.3647359 C216.786044,29.1271328 213.90615,27.8800136 211.011231,26.6629454 C210.750788,26.8282262 210.495354,26.9985156 210.23992,27.1637965 C209.473618,27.6646476 208.707316,28.1504732 207.951031,28.6162647 C209.39849,29.1717086 210.996205,29.8283244 212.834329,30.6341938 C213.861074,31.0804521 214.962946,31.5813032 216.114904,32.1122054 Z M214.241721,21.9399195 C214.872793,21.4791365 215.518891,21.0033279 216.169997,20.5225109 C213.916167,19.5608767 211.667346,18.6137673 209.483635,17.7227532 C209.46861,17.7277617 209.453584,17.7372779 209.443567,17.7477957 C208.712324,18.1234341 207.991099,18.4990724 207.234814,18.8847278 C208.166397,19.2658754 209.06292,19.6415138 209.914367,20.0066342 C211.472014,20.6777747 212.86438,21.3138556 214.241721,21.9399195 L214.241721,21.9399195 Z M209.248235,35.2124737 C208.096278,34.6610367 206.919277,34.1206183 205.747286,33.5997332 C204.515192,33.0482961 203.283098,32.5178948 202.045996,32.0065258 C200.45329,32.8529642 198.900651,33.6242749 197.398098,34.3254664 C193.42134,36.183624 189.780153,37.5509475 186.073855,38.437454 C182.372565,39.3194528 178.601156,39.7151251 174.38399,39.4541817 C170.161815,39.1887306 165.493883,38.2671646 161.542168,37.2754794 C157.585444,36.2883019 154.339929,35.2320069 151.229643,34.0449898 C148.119358,32.8579727 145.139294,31.5407343 142.620013,30.2084703 C140.10574,28.8762064 138.047242,27.5339255 136.870242,26.872802 C135.698251,26.2166871 135.407757,26.2417296 135.317604,26.4270445 C135.222442,26.6123594 135.332629,26.9529382 136.028812,27.6941978 C136.730004,28.4304489 138.0222,29.5618716 140.10574,31.0243568 C142.184272,32.4923514 145.059158,34.2848975 149.251281,36.1430551 C153.443405,38.0017135 158.957776,39.9249817 163.465436,41.1415491 C167.973096,42.3536087 171.479053,42.8544598 175.345624,42.934596 C179.207186,43.0097237 183.424352,42.6691449 188.117327,41.7325534 C192.810302,40.7959618 197.979085,39.2683659 202.226303,37.8309233 C204.840745,36.9454185 207.104592,36.0939717 209.248235,35.2124737 L209.248235,35.2124737 Z M207.289907,16.8362467 C206.924286,16.6909999 206.563673,16.5457531 206.208069,16.4060156 C201.59523,14.5879261 197.428149,13.1104154 192.785259,11.8432621 C188.147378,10.5811173 183.02868,9.52432148 178.706335,8.82813845 C174.38399,8.12694691 170.847981,7.78636816 168.569108,7.73127454 C166.285227,7.68118943 165.258483,7.91658944 164.983015,8.10190435 C164.702538,8.28721926 165.178347,8.41744055 166.655857,8.58772992 C168.133368,8.7580193 170.612581,8.97338527 174.038403,9.57941511 C177.464224,10.1854449 181.841663,11.1871471 186.063838,12.2138919 C190.281004,13.2406367 194.342906,14.2974325 198.414826,15.6291956 C200.683681,16.3704552 202.957545,17.1973604 205.101188,18.0337817 C205.842448,17.642617 206.57369,17.2419361 207.289907,16.8362467 L207.289907,16.8362467 Z M205.612056,27.7497923 C206.693894,27.1036944 207.755699,26.4275454 208.797469,25.7363708 C206.829124,24.9199835 204.865788,24.1231294 202.932503,23.3573281 C202.030971,22.9962145 201.134447,22.6461195 200.242932,22.3005323 C198.750396,23.0067323 197.162698,23.747992 195.575,24.4892516 C197.974077,25.2255027 200.373154,25.9667624 203.052707,26.8632858 C203.869094,27.1387539 204.715533,27.4242391 205.612056,27.7497923 L205.612056,27.7497923 Z M190.761821,33.4294438 C194.052413,32.8689914 196.817111,32.0220522 199.37646,30.9507317 C197.929,30.3992946 196.476532,29.8889273 195.014047,29.4331528 C191.387885,28.3012293 187.696612,27.4798335 184.005339,26.6634462 C186.509595,25.8220164 189.013851,24.975578 191.8086,23.9338077 C193.771936,23.2025651 195.875511,22.3766616 198.024162,21.4445777 C192.564885,19.3660457 187.451195,17.5579732 182.878425,16.0353858 C176.958364,14.0720495 171.949853,12.5945387 167.377083,11.793177 C162.799304,10.9868067 158.662274,10.8565854 154.981018,11.0919854 C151.304771,11.332394 148.084298,11.9384238 145.214422,12.8499728 C142.339536,13.7570142 139.80523,14.968573 136.404451,17.5935336 C136.118966,17.8184158 135.823463,18.0488073 135.522953,18.2897166 C137.150719,19.576904 139.003868,20.8991509 140.952179,22.1162191 C144.287847,24.1997597 147.903992,25.9677641 151.500103,27.5204025 C155.101222,29.0780494 158.687316,30.4203304 161.23164,31.3569219 C163.775963,32.2935135 165.278517,32.8194071 167.637525,33.2952157 C169.996534,33.7710242 173.217007,34.1917392 177.354037,34.2864 C181.496075,34.3760524 186.55968,34.1406524 190.761821,33.4294438 Z M121.849718,27.0986858 C122.530875,26.4475794 123.207024,25.796473 124.083514,24.9901027 C122.38062,22.9816898 121.128492,21.3088471 119.871356,19.6360044 C118.759466,20.3977989 117.652585,21.1585918 116.56073,21.9003522 C118.348768,23.5676856 120.096739,25.3361908 121.849718,27.0986858 L121.849718,27.0986858 Z M110.159853,23.9182813 C109.864351,23.5827111 109.573857,23.2616655 109.288372,22.9616557 C107.715699,21.2988301 106.318325,20.1618981 104.540303,19.3199674 C102.762282,18.4785375 100.598605,17.9225928 98.0943498,17.7372779 C95.5900943,17.5524638 92.7402515,17.7372779 90.6316683,18.1880439 C88.5230852,18.6338013 87.1507532,19.3455108 86.3343659,20.0562185 C85.5129701,20.7724356 85.2525275,21.4836441 85.2124594,22.2349208 C85.1723913,22.9861974 85.3577062,23.7775422 86.0288467,24.7241508 C86.6999872,25.6757679 87.8619617,26.7826488 89.2342938,27.6145625 C90.6016173,28.4459753 92.1843068,28.9969115 93.8070643,29.2623626 C95.4298219,29.5228052 97.0926476,29.4977626 98.7504647,29.197252 C100.41329,28.8917328 102.076116,28.3102447 103.733933,27.558968 C105.396759,26.8076914 107.059585,25.8861253 108.942785,24.6991082 C109.338457,24.4491835 109.744146,24.1892418 110.159853,23.9182813 Z" id="path4"></path>
                </g>
            </g>
        </g>
    </g>
</svg>
