<?xml version="1.0" encoding="utf-8"?>
<!-- Generator: Adobe Illustrator 21.1.0, SVG Export Plug-In . SVG Version: 6.00 Build 0)  -->
<svg version="1.1" id="Layer_1" xmlns="http://www.w3.org/2000/svg" xmlns:xlink="http://www.w3.org/1999/xlink" x="0px" y="0px"
	 viewBox="0 0 1944.8 2279.5" style="enable-background:new 0 0 1944.8 2279.5;" xml:space="preserve">
<style type="text/css">
	.st0{fill:#5E464D;}
</style>
<title>linux-tux-logo</title>
<g id="Layer_2">
	<g id="Layer_1-2">
		<path class="st0" d="M636.3,376.6C628.5,118,729.4,3.9,938.9,0.1c209.2-4,340.4,106.3,367.3,251.1
			c26.6,144.5,11.3,334.9,64.7,433.7c53.2,99.1,87.3,175.1,178.9,289.2c91.3,114.1,148.2,230.3,174.8,371.3
			c26.8,140.7,41.9,207.2-26.6,279.7c-68.5,72.2-190.1,190.1-281.4,56.9c-45.9-66.7-50.8-149.7,26.6-167.3
			c49.4-11.6,84.9-7.8,121.6,11.3c37,19.1,45.7,10.1,1.4-22.8c-44.5-32.9-53.4-2.6-38.1-55.8s35.3-148.8-6.4-254
			c-19.3-48.5-84.9-181.5-146.5-214.1c-5.5-3.2-21.7-9.8-10.7,3.8c16.5,20.5,105.2,151.1,130.3,228.8
			c26.9,83.5,30.6,163.3,16.8,213.8c-13.8,50.8-38.1,71.1-67.3,71.1s-55.8,13.9-55.8-53.2c0-67.3,6.9-168.8-29.2-254.6
			c-36.1-85.5-80-144.5-89.6-180.6c-9.3-36.1-30.3-133.2-74-188.4c-43.9-55.2-63-91.3-40.2-154.3c22.8-62.7,5.8-79.8-39.9-93
			s-106.6-32.4-121.6-63c-15.3-30.3-5.8-91.3,28.3-106.3c34.4-15.3,91.3,5.5,93.3,49.4c2,43.6-19.1,66.5-13.3,76s36.1,24.8,51.4,7.8
			c15-17.3,19.1-70.5,3.8-119.9s-22.8-83.8-78-95.1c-55.2-11.6-80-7.8-106.6,26.6c-26.6,34.1-38.1,89.3-30.3,129.4
			c7.5,39.9-7.8,17-34.4,15c-26.6-1.7-19.1-3.7-45.7-1.7c-26.6,1.7-17-15.3-19.1-43.9c-1.7-28.6-5.5-87.5-45.7-110.4
			c-39.9-22.8-108.3,3.8-106.6,99.1c2,95.1,34.4,140.7,53.5,106.3c19.1-34.1,9.5-17-9.5-32.4c-19.1-15-32.4-78-11.6-96.8
			c21.1-19.1,45.7-19.1,59.2-7.8c13.3,11.6,34.1,49.7,30.3,74.3c-3.8,24.9-5.8,26.6-30.3,43.9c-24.8,17-34.4,32.4-63,51.1
			c-28.6,19.1-39.9,63-17,74.3c22.8,11.6,24.8,9.5,43.6,38.1c19.1,28.6,51.4,41.9,131.5,28.6c79.8-13.3,112.7-32.4,173.1-53.5
			c43.9-15,28.6-13.3,43.9-30.3c15-17,39.9,7.5,17,22.8s-74.3,30.3-112.4,43.6c-37.9,13.6-81.8,51.4-161.5,47.7
			c-80-3.8-24.8-2-49.7-3.8c-24.6-2-36.1,1.7-9.5,20.8c26.9,19.1,24.8,24.8,47.7,32.4c22.8,7.8,53.2,7.8,89.6-5.5
			c36.1-13.6,127.4-53.5,156-72.5c28.3-19.1,51.1,5.8,22.8,24.8c-28.6,19.1-36.4,13.3-63,30.3c-26.6,17.3-76,45.7-108.3,76.3
			c-32.4,30.3-39.9,32.4-80,34.1c-39.9,2-64.7-39.9-81.8-58.9s-15.3-30.3-36.1-53.2s-22.8-17.3-26.6,7.5s-32.4,87.5-57.2,129.5
			c-24.5,41.9-26.6,93.3-22.8,129.5s-5.8,39.9-34.1,81.8c-28.6,41.9-76.3,165.6-83.8,205.4s-17,121.9-13.3,169.3
			c3.8,47.7-9.5,57.2-43.9,24.8c-34.1-32.4-45.7-68.5-43.6-116.2c1.7-40.7,7.2-69.3,12.4-84.4s0.3-25.4-10.7-7
			c-23.4,40.4-24.6,110.4-18.8,135.2c5.5,24.6,7.5,68.5,70.2,127.4c63,58.9,154.3,140.7,230.3,195.9
			c76.3,55.2,102.9,123.7-9.5,173.1c70.5,95.3,108.6,144.8,78,207.5c63-36.1,38.7-121.3,8.4-144.2c-30.6-22.8-12.1-40.4,14.5-23.1
			c26.6,17,36.1,51.1,141,49.4c104.6-2,217.3-12.4,280.3-104c62.7-91.3,74.8-14.4,59.5,39c-15,53.2-52.6,173.4,6.4,162.1
			c7.5-70.5,24.8-131.5,24.8-207.5c0-76.3,7.5-113,1.8-223.3c-5.8-106.3,40.2-113.6,87.6-113.6c47.7,0,32.3,30.6,2,28.6
			c-30.6-2-62.7,9.6-64.7,87.6s0,70.5,13.3,140.7c13.3,70.5,15.3,91.3,3.8,169.3c-11.3,78-20.8,119.9,30.6,167.6
			c51.1,47.7,129.1,34.1,169.3,3.8c39.9-30.3,115.9-100.8,184.3-123.7c68.8-22.8,141-39.9,179.1-78c37.9-38.1,28.3-64.7-11.6-85.5
			c-39.9-21.1-78-11.6-108.3-45.7c-30.7-34.4-45.7-110.4-34.4-150.5c11.6-39.9,24.8-22.8,24.8,5.8s1.8,55.2,30.3,91.3
			s55.2,53.5,100.8,81.8c45.7,28.6,74.3,74.3,17,114.4c-56.9,39.9-89.3,62.7-137,81.8c-47.4,19.1-125.4,64.7-173.1,112.1
			c-47.7,47.7-74.3,89.6-167.6,89.6c-93,0-135.8-22.5-163.5-78c-19.1-38.1-28.6-32.4-72.2-34.4c-43.9-1.7-190.4-3.8-304.5-1.7
			c-114.1,1.7-152.3,20.8-203.7,62.7c-51.1,41.9-70.2,74.3-167.3,41.9s-148.5-68.5-293-97.1c-144.8-28.6-66.7-15.3-154.3-34.4
			c-87.6-18.8-81.8-60.7-70.2-95.1c11.3-34.1,39.9-87.6,15-157.8c-24.6-70.5-15-142.8,51.4-142.8c66.7,0,129.4,13.3,156-74.3
			s34.4-19.1,26.6,3.8c-7.5,22.8-11.3,85.5-70.2,95.1s-72.2-3.8-108.7-3.8c-36.1,0-51.1,24.8-32.4,66.7
			c19.1,41.9,40.2,85.5,36.4,121.6c-4,36.1-7.8,49.4-34.4,83.8c-26.6,34.1-22.8,51.4,24.9,62.7c47.4,11.6,133.2,34.4,213,53.5
			c80,18.8,85.8,18.8,224.5,55.2C647.6,2239.7,685.8,2175,697,2097c11.6-78-41.9-152.3-91.3-226.5s-102.6-159.8-167.3-237.8
			s-102.9-83.8-135.2-66.7c-32.4,17.3-38.1,13.6-39.9-30.3c-2-43.6-5.8-72.2,30.3-137s68.5-135.3,106.7-243.6s72.2-129.4,137-222.8
			c64.7-93,36.1-56.9,81.8-119.6c45.7-63,32.4-51.4,28.6-150.5C643.9,563.2,640.1,506.1,636.3,376.6L636.3,376.6z M454.6,1150.4
			c9.8,11.8,23.7-16.2,38.1-26.9c12.7-11.4,18.6-28.6,15.6-45.4c-1.4-8.9-15.9-6.1-18.8-2.9c-9,8.9-6.9,23.4-13.3,35.8
			C469,1126.1,444.8,1138.3,454.6,1150.4L454.6,1150.4z M1272.6,752.8c20.5,17.3,33.2,32.4,44.5,6.7c11.6-25.7,11.6-36.1-16.2-46.5
			c-27.5-10.7-39.9-22-52.3-36.1c-12.4-14.5-16.7,10.1-6.6,34.1C1254.4,740.4,1261.6,743.8,1272.6,752.8L1272.6,752.8z M843.8,516.7
			c-14.2-2.9-31.2-1.7-40.8,9.5c-3.8,3.8-2,14.5,4.6,17.3c8.7,3.8,14.5-4.9,16.2-11.6c0.9-2.9,2-6.6,4.9-7.5c3.8-2,9.3-0.3,13.3-2
			C846.7,520.8,845,516.8,843.8,516.7L843.8,516.7z M911.1,519.3c5.8,8.7,16.2,8.7,24.9,12.4c4.6,2,14.2,4.9,17-1.7
			c6.7-21.1-22-14.5-35.3-14.5C914.9,515.6,908.2,514.7,911.1,519.3L911.1,519.3z M1049.8,427.2c13,0.6,30.6,23.7,32.3,50.6
			c0.3,4,11.3,3.8,13.6-0.3c6.1-10.7,1.8-22.5-1.1-35.3c-2.3-10.4-14.8-21.1-25.2-25.7c-6.9-3.5-14.2-4.6-23.4-3.5
			C1043.8,414.2,1035.7,426.3,1049.8,427.2L1049.8,427.2z M766.4,420.5c-11.8,0.9-7.5,10.1-6.9,17.6c16.5,9.3,17.9,30,21.4,46.5
			c0.3,6.4,9.8,3.5,10.7,1.5c7.2-13.3-1.7-28.3-4.9-43.9c-2.9-8.1-8.4-17.3-15.9-22.8C769.5,418.2,767.5,420.5,766.4,420.5
			L766.4,420.5z M1129.8,129c-11.8-9.5-30.3-13.3-35.8,2.3c-5.8,13.3-3.5,26.9-6.7,41.3c0,4.6-5.8,5.8-8.9,10.1
			c-4.6,5.5-3.5,12.4-1.2,14.4c11,11.3,31.2-11,46-18.8c11-6.9,26.8,2,39-5.8c3.4-2.3,4.6-7.8,1.1-12.1
			C1155.6,146.9,1142,139.1,1129.8,129z"/>
	</g>
</g>
</svg>
