
<svg width="81px" height="64px" viewBox="0 0 81 64" version="1.1" xmlns="http://www.w3.org/2000/svg" xmlns:xlink="http://www.w3.org/1999/xlink">
    <g id="Ganache-Landing-Page" stroke="none" stroke-width="1" fill="none" fill-rule="evenodd">
        <g id="Desktop-HD" transform="translate(-1002.000000, -2475.000000)">
            <g id="Group-11" transform="translate(1002.000000, 2475.000000)">
                <path d="M75,16 L80.5714286,16 L80.5714286,28 L68.5714286,28 L68.5714286,22.6428571 L63.4285714,22.6428571 L63.4285714,28 L51.4285714,28 L51.4285714,22.6428571 L46.2857143,22.6428571 L46.2857143,29 L33.2857143,29 L33.2857143,22.6428571 L29.9285714,22.6428571 L29.9285714,29 L16.9285714,29 L16.9285714,22.6428571 L12,22.6428571 L12,28 L5.5,28 L5.5,32 L12,32 L12,37.3571429 L17.1428571,37.3571429 L17.1428571,31.1428571 L30,31.1428571 L30,37.3571429 L33.2857143,37.3571429 L33.2857143,31 L46.2857143,31 L46.2857143,37.3571429 L51.4285714,37.3571429 L51.4285714,32 L63.4285714,32 L63.4285714,37.3571429 L68.5714286,37.3571429 L68.5714286,32 L80.5714286,32 L80.5714286,44 L75.5,44 L75.5,47 L80.5714286,47 L80.5714286,59 L68.5714286,59 L68.5714286,54.0714286 L63.4285714,54.0714286 L63.4285714,59 L51.4285714,59 L51.4285714,54.0714286 L46.2857143,54.0714286 L46.2857143,59 L34.2857143,59 L34.2857143,54.0714286 L29.1428571,54.0714286 L29.1428571,59 L17.1428571,59 L17.1428571,54.0714286 L12,54.0714286 L12,59 L0,59 L0,47 L12,47 L12,53.0714286 L17.1428571,53.0714286 L17.1428571,47 L29.1428571,47 L29.1428571,53.0714286 L34.2857143,53.0714286 L34.2857143,47 L46.2857143,47 L46.2857143,53.0714286 L51.4285714,53.0714286 L51.4285714,47 L63.4285714,47 L63.4285714,53.0714286 L68.5714286,53.0714286 L68.5714286,47 L74.5,47 L74.5,44 L68.5714286,44 L68.5714286,38.3571429 L63.4285714,38.3571429 L63.4285714,44 L51.4285714,44 L51.4285714,38.3571429 L46.2857143,38.3571429 L46.2857143,44 L33.2857143,44 L33.2857143,38.3571429 L30,38.3571429 L30,44 L17.1428571,44 L17.1428571,38.3571429 L12,38.3571429 L12,44 L0,44 L0,32 L4.5,32 L4.5,28 L0,28 L0,16 L12,16 L12,21.6428571 L16.9285714,21.6428571 L16.9285714,16 L29.9285714,16 L29.9285714,21.6428571 L33.2857143,21.6428571 L33.2857143,16 L46.2857143,16 L46.2857143,21.6428571 L51.4285714,21.6428571 L51.4285714,16 L63.4285714,16 L63.4285714,21.6428571 L68.5714286,21.6428571 L68.5714286,16 L75,16 L75,12 L80.5714286,12 L80.5714286,0 L68.5714286,0 L68.5714286,5.92857143 L63.4285714,5.92857143 L63.4285714,0 L51.4285714,0 L51.4285714,5.92857143 L46.2857143,5.92857143 L46.2857143,0 L34.2857143,0 L34.2857143,5.92857143 L29.1428571,5.92857143 L29.1428571,0 L17.1428571,0 L17.1428571,5.92857143 L12,5.92857143 L12,0 L0,0 L0,12 L12,12 L12,6.92857143 L17.1428571,6.92857143 L17.1428571,12 L29.1428571,12 L29.1428571,6.92857143 L34.2857143,6.92857143 L34.2857143,12 L46.2857143,12 L46.2857143,6.92857143 L51.4285714,6.92857143 L51.4285714,12 L63.4285714,12 L63.4285714,6.92857143 L68.5714286,6.92857143 L68.5714286,12 L75,12 L75,16 Z" id="Combined-Shape" fill="#826146"></path>
                <path d="M48.5960485,46.1711253 L47.6212533,45.2659584 L49.4315872,43.316368 L50.4063824,44.2215349 L63.7088368,56.573814 L64.683632,57.478981 L62.8732981,59.4285714 L61.8985029,58.5234045 L48.5960485,46.1711253 Z M34.2857143,48.5714286 C24.0289975,48.5714286 15.7142857,40.2567168 15.7142857,30 C15.7142857,19.7432832 24.0289975,11.4285714 34.2857143,11.4285714 C44.5424311,11.4285714 52.8571429,19.7432832 52.8571429,30 C52.8571429,40.2567168 44.5424311,48.5714286 34.2857143,48.5714286 Z" id="Combined-Shape" stroke="#979797" stroke-width="6" fill-opacity="0.222741168" fill="#D8D8D8" stroke-linecap="square"></path>
            </g>
        </g>
    </g>
</svg>
