<svg xmlns="http://www.w3.org/2000/svg" xmlns:xlink="http://www.w3.org/1999/xlink" viewBox="0 0 869.93 493.77"><defs><style>.cls-1{mask:url(#mask);filter:url(#luminosity-noclip-23);}.cls-10,.cls-12,.cls-14,.cls-16,.cls-18,.cls-2,.cls-20,.cls-22,.cls-24,.cls-26,.cls-28,.cls-30,.cls-32,.cls-34,.cls-36,.cls-38,.cls-4,.cls-40,.cls-42,.cls-44,.cls-48,.cls-50,.cls-53,.cls-6,.cls-62,.cls-64,.cls-72,.cls-74,.cls-8,.cls-82,.cls-84{mix-blend-mode:multiply;}.cls-2{fill:url(#linear-gradient);}.cls-3{mask:url(#mask-2);filter:url(#luminosity-noclip-28);}.cls-4{fill:url(#radial-gradient);}.cls-5{mask:url(#mask-3);filter:url(#luminosity-noclip-29);}.cls-6{fill:url(#linear-gradient-2);}.cls-7{mask:url(#mask-4);filter:url(#luminosity-noclip-30);}.cls-8{fill:url(#radial-gradient-2);}.cls-9{mask:url(#mask-5);filter:url(#luminosity-noclip-31);}.cls-10{fill:url(#radial-gradient-3);}.cls-11{mask:url(#mask-6);filter:url(#luminosity-noclip-32);}.cls-12{fill:url(#radial-gradient-4);}.cls-13{mask:url(#mask-7);filter:url(#luminosity-noclip-24);}.cls-14{fill:url(#linear-gradient-3);}.cls-15{mask:url(#mask-8);filter:url(#luminosity-noclip-33);}.cls-16{fill:url(#radial-gradient-5);}.cls-17{mask:url(#mask-9);filter:url(#luminosity-noclip-34);}.cls-18{fill:url(#linear-gradient-4);}.cls-19{mask:url(#mask-10);filter:url(#luminosity-noclip-35);}.cls-20{fill:url(#radial-gradient-6);}.cls-21{mask:url(#mask-11);filter:url(#luminosity-noclip-36);}.cls-22{fill:url(#radial-gradient-7);}.cls-23{mask:url(#mask-12);filter:url(#luminosity-noclip-37);}.cls-24{fill:url(#radial-gradient-8);}.cls-25{mask:url(#mask-13);filter:url(#luminosity-noclip-38);}.cls-26{fill:url(#radial-gradient-9);}.cls-27{mask:url(#mask-14);filter:url(#luminosity-noclip-39);}.cls-28{fill:url(#linear-gradient-5);}.cls-29{mask:url(#mask-15);filter:url(#luminosity-noclip-40);}.cls-30{fill:url(#radial-gradient-10);}.cls-31{mask:url(#mask-16);filter:url(#luminosity-noclip-41);}.cls-32{fill:url(#radial-gradient-11);}.cls-33{mask:url(#mask-17);filter:url(#luminosity-noclip-42);}.cls-34{fill:url(#radial-gradient-12);}.cls-35{mask:url(#mask-18);filter:url(#luminosity-noclip-25);}.cls-36{fill:url(#radial-gradient-13);}.cls-37{mask:url(#mask-19);filter:url(#luminosity-noclip-43);}.cls-38{fill:url(#radial-gradient-14);}.cls-39{mask:url(#mask-20);filter:url(#luminosity-noclip-44);}.cls-40{fill:url(#radial-gradient-15);}.cls-41{mask:url(#mask-21);filter:url(#luminosity-noclip-26);}.cls-42{fill:url(#radial-gradient-16);}.cls-43{mask:url(#mask-22);filter:url(#luminosity-noclip-27);}.cls-44{fill:url(#radial-gradient-17);}.cls-45,.cls-91{fill:none;}.cls-46{isolation:isolate;}.cls-47{mask:url(#mask-23);}.cls-48{fill:url(#linear-gradient-6);}.cls-49{mask:url(#mask-24);}.cls-50{fill:url(#linear-gradient-7);}.cls-51,.cls-84,.cls-88,.cls-92,.cls-93,.cls-97,.cls-98{fill:#fff;}.cls-52{mask:url(#mask-25);}.cls-53{fill:url(#radial-gradient-18);}.cls-54{mask:url(#mask-26);}.cls-55{fill:url(#radial-gradient-19);}.cls-56{mask:url(#mask-27);}.cls-57,.cls-68,.cls-78,.cls-88{mix-blend-mode:screen;}.cls-57{fill:url(#radial-gradient-20);}.cls-58{mask:url(#mask-28);}.cls-59{fill:url(#radial-gradient-21);}.cls-100,.cls-60{fill:#ff2601;}.cls-61{mask:url(#mask-29);}.cls-62{fill:url(#linear-gradient-8);}.cls-63{mask:url(#mask-30);}.cls-64{fill:url(#radial-gradient-22);}.cls-65{mask:url(#mask-31);}.cls-66{fill:url(#radial-gradient-23);}.cls-67{mask:url(#mask-32);}.cls-68{fill:url(#radial-gradient-24);}.cls-69{mask:url(#mask-33);}.cls-70{fill:url(#radial-gradient-25);}.cls-71{mask:url(#mask-34);}.cls-72{fill:url(#linear-gradient-9);}.cls-73{mask:url(#mask-35);}.cls-74{fill:url(#radial-gradient-26);}.cls-75{mask:url(#mask-36);}.cls-76{fill:url(#radial-gradient-27);}.cls-77{mask:url(#mask-37);}.cls-78{fill:url(#radial-gradient-28);}.cls-79{mask:url(#mask-38);}.cls-80{fill:url(#radial-gradient-29);}.cls-81{mask:url(#mask-39);}.cls-82{fill:url(#linear-gradient-10);}.cls-83{mask:url(#mask-40);}.cls-85{mask:url(#mask-41);}.cls-86{mask:url(#mask-42);}.cls-87{mask:url(#mask-43);}.cls-89{mask:url(#mask-44);}.cls-90{fill:url(#radial-gradient-30);}.cls-91,.cls-92,.cls-97{stroke:#5e464d;}.cls-91,.cls-97{stroke-miterlimit:10;}.cls-91,.cls-92{stroke-width:30px;}.cls-92,.cls-93{font-size:268.75px;}.cls-92{stroke-linejoin:round;}.cls-100,.cls-92,.cls-93,.cls-97,.cls-98,.cls-99{font-family:PagesGrotesqueBlackDemo, Pages Grotesque Black Demo;}.cls-94{clip-path:url(#clip-path);}.cls-95{fill:#5e464d;}.cls-96{fill:#3fe0c5;}.cls-97,.cls-98{font-size:130.24px;letter-spacing:-0.03em;}.cls-97{stroke-width:20px;}.cls-100,.cls-99{font-size:38.8px;letter-spacing:-0.03em;}.cls-101{filter:url(#luminosity-noclip-22);}.cls-102{filter:url(#luminosity-noclip-21);}.cls-103{filter:url(#luminosity-noclip-20);}.cls-104{filter:url(#luminosity-noclip-19);}.cls-105{filter:url(#luminosity-noclip-18);}.cls-106{filter:url(#luminosity-noclip-17);}.cls-107{filter:url(#luminosity-noclip-16);}.cls-108{filter:url(#luminosity-noclip-15);}.cls-109{filter:url(#luminosity-noclip-14);}.cls-110{filter:url(#luminosity-noclip-13);}.cls-111{filter:url(#luminosity-noclip-12);}.cls-112{filter:url(#luminosity-noclip-11);}.cls-113{filter:url(#luminosity-noclip-10);}.cls-114{filter:url(#luminosity-noclip-9);}.cls-115{filter:url(#luminosity-noclip-8);}.cls-116{filter:url(#luminosity-noclip-7);}.cls-117{filter:url(#luminosity-noclip-6);}.cls-118{filter:url(#luminosity-noclip-5);}.cls-119{filter:url(#luminosity-noclip-4);}.cls-120{filter:url(#luminosity-noclip-3);}.cls-121{filter:url(#luminosity-noclip-2);}.cls-122{filter:url(#luminosity-noclip);}</style><filter id="luminosity-noclip" x="47.17" y="-8049.82" width="351.49" height="32766" filterUnits="userSpaceOnUse" color-interpolation-filters="sRGB"><feFlood flood-color="#fff" result="bg"/><feBlend in="SourceGraphic" in2="bg"/></filter><mask id="mask" x="47.17" y="-8049.82" width="351.49" height="32766" maskUnits="userSpaceOnUse"><g class="cls-122"/></mask><linearGradient id="linear-gradient" x1="344.03" y1="227.13" x2="99.3" y2="207.26" gradientTransform="matrix(0.99, 0.14, -0.14, 0.99, 5.43, -72.61)" gradientUnits="userSpaceOnUse"><stop offset="0.1"/><stop offset="1" stop-color="#fff"/></linearGradient><filter id="luminosity-noclip-2" x="61.79" y="-8049.82" width="184.1" height="32766" filterUnits="userSpaceOnUse" color-interpolation-filters="sRGB"><feFlood flood-color="#fff" result="bg"/><feBlend in="SourceGraphic" in2="bg"/></filter><mask id="mask-2" x="61.79" y="-8049.82" width="184.1" height="32766" maskUnits="userSpaceOnUse"><g class="cls-121"/></mask><radialGradient id="radial-gradient" cx="2601.68" cy="-3502.82" r="341.21" gradientTransform="matrix(-0.69, 0.72, 0.72, 0.69, 4529.84, 532.91)" xlink:href="#linear-gradient"/><filter id="luminosity-noclip-3" x="95.36" y="-8049.82" width="330.79" height="32766" filterUnits="userSpaceOnUse" color-interpolation-filters="sRGB"><feFlood flood-color="#fff" result="bg"/><feBlend in="SourceGraphic" in2="bg"/></filter><mask id="mask-3" x="95.36" y="-8049.82" width="330.79" height="32766" maskUnits="userSpaceOnUse"><g class="cls-120"/></mask><linearGradient id="linear-gradient-2" x1="309.05" y1="210.05" x2="130.52" y2="218.59" xlink:href="#linear-gradient"/><filter id="luminosity-noclip-4" x="181.44" y="-8049.82" width="247.29" height="32766" filterUnits="userSpaceOnUse" color-interpolation-filters="sRGB"><feFlood flood-color="#fff" result="bg"/><feBlend in="SourceGraphic" in2="bg"/></filter><mask id="mask-4" x="181.44" y="-8049.82" width="247.29" height="32766" maskUnits="userSpaceOnUse"><g class="cls-119"/></mask><radialGradient id="radial-gradient-2" cx="-1587.93" cy="-1435.32" r="426.96" gradientTransform="translate(2238.79 316.08) rotate(-32.86)" gradientUnits="userSpaceOnUse"><stop offset="0.62"/><stop offset="0.75" stop-color="#020202"/><stop offset="0.8" stop-color="#090909"/><stop offset="0.84" stop-color="#151515"/><stop offset="0.87" stop-color="#262626"/><stop offset="0.9" stop-color="#3c3c3c"/><stop offset="0.92" stop-color="#585858"/><stop offset="0.94" stop-color="#797979"/><stop offset="0.96" stop-color="#9f9f9f"/><stop offset="0.98" stop-color="#cbcbcb"/><stop offset="1" stop-color="#f9f9f9"/><stop offset="1" stop-color="#fff"/></radialGradient><filter id="luminosity-noclip-5" x="257.55" y="-8049.82" width="171.18" height="32766" filterUnits="userSpaceOnUse" color-interpolation-filters="sRGB"><feFlood flood-color="#fff" result="bg"/><feBlend in="SourceGraphic" in2="bg"/></filter><mask id="mask-5" x="257.55" y="-8049.82" width="171.18" height="32766" maskUnits="userSpaceOnUse"><g class="cls-118"/></mask><radialGradient id="radial-gradient-3" cx="-1699.14" cy="-1334.79" r="339.71" gradientTransform="translate(2238.79 316.08) rotate(-32.86)" xlink:href="#linear-gradient"/><filter id="luminosity-noclip-6" x="98.53" y="-8049.82" width="171.18" height="32766" filterUnits="userSpaceOnUse" color-interpolation-filters="sRGB"><feFlood flood-color="#fff" result="bg"/><feBlend in="SourceGraphic" in2="bg"/></filter><mask id="mask-6" x="98.53" y="-8049.82" width="171.18" height="32766" maskUnits="userSpaceOnUse"><g class="cls-117"/></mask><radialGradient id="radial-gradient-4" cx="-1632.51" cy="-1248.74" r="289.34" gradientTransform="translate(2238.79 316.08) rotate(-32.86)" gradientUnits="userSpaceOnUse"><stop offset="0"/><stop offset="0.01" stop-color="#090909"/><stop offset="0.05" stop-color="#373737"/><stop offset="0.09" stop-color="#626262"/><stop offset="0.14" stop-color="#888"/><stop offset="0.2" stop-color="#a8a8a8"/><stop offset="0.25" stop-color="#c4c4c4"/><stop offset="0.32" stop-color="#dadada"/><stop offset="0.4" stop-color="#ebebeb"/><stop offset="0.49" stop-color="#f6f6f6"/><stop offset="0.63" stop-color="#fdfdfd"/><stop offset="1" stop-color="#fff"/></radialGradient><filter id="luminosity-noclip-7" x="48.9" y="-8049.82" width="442.84" height="32766" filterUnits="userSpaceOnUse" color-interpolation-filters="sRGB"><feFlood flood-color="#fff" result="bg"/><feBlend in="SourceGraphic" in2="bg"/></filter><mask id="mask-7" x="48.9" y="-8049.82" width="442.84" height="32766" maskUnits="userSpaceOnUse"><g class="cls-116"/></mask><linearGradient id="linear-gradient-3" x1="406.88" y1="18.61" x2="268.5" y2="370.97" xlink:href="#linear-gradient"/><filter id="luminosity-noclip-8" x="106.51" y="-8049.82" width="138.14" height="32766" filterUnits="userSpaceOnUse" color-interpolation-filters="sRGB"><feFlood flood-color="#fff" result="bg"/><feBlend in="SourceGraphic" in2="bg"/></filter><mask id="mask-8" x="106.51" y="-8049.82" width="138.14" height="32766" maskUnits="userSpaceOnUse"><g class="cls-115"/></mask><radialGradient id="radial-gradient-5" cx="2823.62" cy="-1335.28" r="342.19" gradientTransform="matrix(-0.84, 0.54, 0.54, 0.84, 3379.33, -420.15)" xlink:href="#linear-gradient"/><filter id="luminosity-noclip-9" x="150.8" y="-8049.82" width="295.04" height="32766" filterUnits="userSpaceOnUse" color-interpolation-filters="sRGB"><feFlood flood-color="#fff" result="bg"/><feBlend in="SourceGraphic" in2="bg"/></filter><mask id="mask-9" x="150.8" y="-8049.82" width="295.04" height="32766" maskUnits="userSpaceOnUse"><g class="cls-114"/></mask><linearGradient id="linear-gradient-4" x1="355.46" y1="223.03" x2="181.2" y2="148.71" xlink:href="#linear-gradient"/><filter id="luminosity-noclip-10" x="208.05" y="-8049.82" width="242.78" height="32766" filterUnits="userSpaceOnUse" color-interpolation-filters="sRGB"><feFlood flood-color="#fff" result="bg"/><feBlend in="SourceGraphic" in2="bg"/></filter><mask id="mask-10" x="208.05" y="-8049.82" width="242.78" height="32766" maskUnits="userSpaceOnUse"><g class="cls-113"/></mask><radialGradient id="radial-gradient-6" cx="-1124.44" cy="-922.07" r="426.95" gradientTransform="translate(1590.68 409.64) rotate(-21.06)" xlink:href="#radial-gradient-2"/><filter id="luminosity-noclip-11" x="259.93" y="-8049.82" width="190.91" height="32766" filterUnits="userSpaceOnUse" color-interpolation-filters="sRGB"><feFlood flood-color="#fff" result="bg"/><feBlend in="SourceGraphic" in2="bg"/></filter><mask id="mask-11" x="259.93" y="-8049.82" width="190.91" height="32766" maskUnits="userSpaceOnUse"><g class="cls-112"/></mask><radialGradient id="radial-gradient-7" cx="-1235.65" cy="-821.55" r="339.69" gradientTransform="translate(1590.68 409.64) rotate(-21.06)" xlink:href="#linear-gradient"/><filter id="luminosity-noclip-12" x="153.62" y="-8049.82" width="190.91" height="32766" filterUnits="userSpaceOnUse" color-interpolation-filters="sRGB"><feFlood flood-color="#fff" result="bg"/><feBlend in="SourceGraphic" in2="bg"/></filter><mask id="mask-12" x="153.62" y="-8049.82" width="190.91" height="32766" maskUnits="userSpaceOnUse"><g class="cls-111"/></mask><radialGradient id="radial-gradient-8" cx="-1169.02" cy="-735.49" r="289.33" gradientTransform="translate(1590.68 409.64) rotate(-21.06)" xlink:href="#radial-gradient-4"/><filter id="luminosity-noclip-13" x="158.43" y="-8049.82" width="91.49" height="32766" filterUnits="userSpaceOnUse" color-interpolation-filters="sRGB"><feFlood flood-color="#fff" result="bg"/><feBlend in="SourceGraphic" in2="bg"/></filter><mask id="mask-13" x="158.43" y="-8049.82" width="91.49" height="32766" maskUnits="userSpaceOnUse"><g class="cls-110"/></mask><radialGradient id="radial-gradient-9" cx="2362.76" cy="-821.41" r="340.16" gradientTransform="matrix(-0.93, 0.36, 0.36, 0.93, 2856.86, -78.1)" xlink:href="#linear-gradient"/><filter id="luminosity-noclip-14" x="212.42" y="-8049.82" width="247.2" height="32766" filterUnits="userSpaceOnUse" color-interpolation-filters="sRGB"><feFlood flood-color="#fff" result="bg"/><feBlend in="SourceGraphic" in2="bg"/></filter><mask id="mask-14" x="212.42" y="-8049.82" width="247.2" height="32766" maskUnits="userSpaceOnUse"><g class="cls-109"/></mask><linearGradient id="linear-gradient-5" x1="367.71" y1="220.3" x2="225.91" y2="113.52" xlink:href="#linear-gradient"/><filter id="luminosity-noclip-15" x="234.99" y="-8049.82" width="226.18" height="32766" filterUnits="userSpaceOnUse" color-interpolation-filters="sRGB"><feFlood flood-color="#fff" result="bg"/><feBlend in="SourceGraphic" in2="bg"/></filter><mask id="mask-15" x="234.99" y="-8049.82" width="226.18" height="32766" maskUnits="userSpaceOnUse"><g class="cls-108"/></mask><radialGradient id="radial-gradient-10" cx="-476.45" cy="-409.7" r="426.96" gradientTransform="translate(828.64 293.57) rotate(-7.87)" xlink:href="#radial-gradient-2"/><filter id="luminosity-noclip-16" x="214.49" y="-8049.82" width="227.76" height="32766" filterUnits="userSpaceOnUse" color-interpolation-filters="sRGB"><feFlood flood-color="#fff" result="bg"/><feBlend in="SourceGraphic" in2="bg"/></filter><mask id="mask-16" x="214.49" y="-8049.82" width="227.76" height="32766" maskUnits="userSpaceOnUse"><g class="cls-107"/></mask><radialGradient id="radial-gradient-11" cx="-472.22" cy="-36.56" r="305.95" gradientTransform="translate(828.64 293.57) rotate(-7.87)" gradientUnits="userSpaceOnUse"><stop offset="0.62"/><stop offset="0.71" stop-color="#020202"/><stop offset="0.76" stop-color="#0a0a0a"/><stop offset="0.8" stop-color="#181818"/><stop offset="0.84" stop-color="#2c2c2c"/><stop offset="0.88" stop-color="#464646"/><stop offset="0.91" stop-color="#656565"/><stop offset="0.94" stop-color="#8a8a8a"/><stop offset="0.96" stop-color="#b6b6b6"/><stop offset="0.99" stop-color="#e5e5e5"/><stop offset="1" stop-color="#fff"/></radialGradient><filter id="luminosity-noclip-17" x="257.21" y="-8049.82" width="203.96" height="32766" filterUnits="userSpaceOnUse" color-interpolation-filters="sRGB"><feFlood flood-color="#fff" result="bg"/><feBlend in="SourceGraphic" in2="bg"/></filter><mask id="mask-17" x="257.21" y="-8049.82" width="203.96" height="32766" maskUnits="userSpaceOnUse"><g class="cls-106"/></mask><radialGradient id="radial-gradient-12" cx="-587.66" cy="-309.17" r="339.71" gradientTransform="translate(828.64 293.57) rotate(-7.87)" xlink:href="#linear-gradient"/><filter id="luminosity-noclip-18" x="161.63" y="-8049.82" width="240.15" height="32766" filterUnits="userSpaceOnUse" color-interpolation-filters="sRGB"><feFlood flood-color="#fff" result="bg"/><feBlend in="SourceGraphic" in2="bg"/></filter><mask id="mask-18" x="161.63" y="-8049.82" width="240.15" height="32766" maskUnits="userSpaceOnUse"><g class="cls-105"/></mask><radialGradient id="radial-gradient-13" cx="-1364.39" cy="-3603.04" r="426.96" gradientTransform="matrix(0.69, -0.72, 0.72, 0.69, 3591.97, 1514.34)" xlink:href="#radial-gradient-2"/><filter id="luminosity-noclip-19" x="214.49" y="-8049.82" width="203.96" height="32766" filterUnits="userSpaceOnUse" color-interpolation-filters="sRGB"><feFlood flood-color="#fff" result="bg"/><feBlend in="SourceGraphic" in2="bg"/></filter><mask id="mask-19" x="214.49" y="-8049.82" width="203.96" height="32766" maskUnits="userSpaceOnUse"><g class="cls-104"/></mask><radialGradient id="radial-gradient-14" cx="-521.03" cy="-223.11" r="289.34" gradientTransform="translate(828.64 293.57) rotate(-7.87)" xlink:href="#radial-gradient-4"/><filter id="luminosity-noclip-20" x="216.08" y="-8049.82" width="35.06" height="32766" filterUnits="userSpaceOnUse" color-interpolation-filters="sRGB"><feFlood flood-color="#fff" result="bg"/><feBlend in="SourceGraphic" in2="bg"/></filter><mask id="mask-20" x="216.08" y="-8049.82" width="35.06" height="32766" maskUnits="userSpaceOnUse"><g class="cls-103"/></mask><radialGradient id="radial-gradient-15" cx="1715.7" cy="-309.25" r="340.13" gradientTransform="matrix(-0.99, 0.14, 0.14, 0.99, 2173.53, 107.79)" xlink:href="#linear-gradient"/><filter id="luminosity-noclip-21" x="186.1" y="-8049.82" width="215.67" height="32766" filterUnits="userSpaceOnUse" color-interpolation-filters="sRGB"><feFlood flood-color="#fff" result="bg"/><feBlend in="SourceGraphic" in2="bg"/></filter><mask id="mask-21" x="186.1" y="-8049.82" width="215.67" height="32766" maskUnits="userSpaceOnUse"><g class="cls-102"/></mask><radialGradient id="radial-gradient-16" cx="-1475.6" cy="-3502.51" r="339.71" gradientTransform="matrix(0.69, -0.72, 0.72, 0.69, 3591.97, 1514.34)" xlink:href="#linear-gradient"/><filter id="luminosity-noclip-22" x="50.14" y="-8049.82" width="215.67" height="32766" filterUnits="userSpaceOnUse" color-interpolation-filters="sRGB"><feFlood flood-color="#fff" result="bg"/><feBlend in="SourceGraphic" in2="bg"/></filter><mask id="mask-22" x="50.14" y="-8049.82" width="215.67" height="32766" maskUnits="userSpaceOnUse"><g class="cls-101"/></mask><radialGradient id="radial-gradient-17" cx="-1408.97" cy="-3416.45" r="289.34" gradientTransform="matrix(0.69, -0.72, 0.72, 0.69, 3591.97, 1514.34)" xlink:href="#radial-gradient-4"/><filter id="luminosity-noclip-23" x="47.17" y="6.48" width="351.49" height="349.06" filterUnits="userSpaceOnUse" color-interpolation-filters="sRGB"><feFlood flood-color="#fff" result="bg"/><feBlend in="SourceGraphic" in2="bg"/></filter><mask id="mask-23" x="47.17" y="6.48" width="351.49" height="349.06" maskUnits="userSpaceOnUse"><g class="cls-1"><path class="cls-2" d="M398.65,208.2c.11-2.34-.76-5.34-4.17-8.61l-53.11-51L250.56,61.35l-53.12-51c-7.79-7.48-13.6-1.75-13.6-1.75l-.31.32h0l-134.49,140s-5.49,6,2.3,13.53l7.48,7.18,0,0L242.39,345.94v0l6,5.77c7.79,7.49,13.61,1.75,13.61,1.75l.3-.31,0,0,64.36-67,5.5-5.72,64.64-67.3A8.41,8.41,0,0,0,398.65,208.2Z"/></g></mask><linearGradient id="linear-gradient-6" x1="344.03" y1="227.13" x2="99.3" y2="207.26" gradientTransform="matrix(0.99, 0.14, -0.14, 0.99, 5.43, -72.61)" gradientUnits="userSpaceOnUse"><stop offset="0.1" stop-color="#fff"/><stop offset="1" stop-color="#ababab"/></linearGradient><filter id="luminosity-noclip-24" x="48.9" y="0.04" width="442.84" height="375.45" filterUnits="userSpaceOnUse" color-interpolation-filters="sRGB"><feFlood flood-color="#fff" result="bg"/><feBlend in="SourceGraphic" in2="bg"/></filter><mask id="mask-24" x="48.9" y="0.04" width="442.84" height="375.45" maskUnits="userSpaceOnUse"><g class="cls-13"><path class="cls-14" d="M466.34,372a1.34,1.34,0,0,1,.11-.14,13.52,13.52,0,0,0,2.15-6.71l6.22-73.72,10.63-126,6.22-73.72c.44-5.24-1.24-8.15-3.09-9.76h0a8.22,8.22,0,0,0-1.7-1.15.23.23,0,0,0-.07-.07h0a8.47,8.47,0,0,0-4.15-2l-.43,0h0l-53.7-4.53L425,48.24c-.71-5.2-3-7.67-5.16-8.84h0l-.51-.25a8.43,8.43,0,0,0-1.31-.89h0a8.41,8.41,0,0,0-2.86-.94,7.85,7.85,0,0,0-1.52-.08h-.09l-.43.06h0L363,44.17l-9.65-25.06c-2.48-6.43-6.49-7.67-9.1-7.72a8.41,8.41,0,0,0-4.63,0l-.23.09L293.71,29.1,278.35,5.94C275.16,1.12,271.69.1,269.15.2a8.46,8.46,0,0,0-5.69.89l-.36.24h0L220.6,29.51,201.22,11c-4.65-4.43-8.59-4.22-11-3.3a8.45,8.45,0,0,0-4.58,2.06l-.3.32,0,0L121,77.66l-4.27,4.48L50.77,151.29s-5.5,6.09,2.36,13.57l7.54,7.2-.05-.05L245.74,348.46v0l6.06,5.78a14,14,0,0,0,5.44,3.42,8.82,8.82,0,0,0,2,.84h0l.45.11h0a9,9,0,0,0,1.69.21l.36.08h0a8.48,8.48,0,0,0,2.74.12l.2,0,93.41,7.88,7.95.67,93.41,7.88a8.43,8.43,0,0,0,6.58-3.16Z"/></g></mask><linearGradient id="linear-gradient-7" x1="406.88" y1="18.61" x2="268.5" y2="370.97" xlink:href="#linear-gradient-6"/><filter id="luminosity-noclip-25" x="161.63" y="113.28" width="240.15" height="242.6" filterUnits="userSpaceOnUse" color-interpolation-filters="sRGB"><feFlood flood-color="#fff" result="bg"/><feBlend in="SourceGraphic" in2="bg"/></filter><mask id="mask-25" x="161.63" y="113.28" width="240.15" height="242.6" maskUnits="userSpaceOnUse"><g class="cls-35"><path class="cls-36" d="M247.49,175.87l-85.86,89.95,90.27,86.23c7.81,7.46,13.62,1.71,13.62,1.71l134.39-140.7s5.48-6.05-2.33-13.52l-90.31-86.26Z"/></g></mask><radialGradient id="radial-gradient-18" cx="-1364.39" cy="-3603.04" r="426.96" gradientTransform="matrix(0.69, -0.72, 0.72, 0.69, 3591.97, 1514.34)" gradientUnits="userSpaceOnUse"><stop offset="0.62" stop-color="#fff"/><stop offset="0.79" stop-color="#fdfdfd"/><stop offset="0.85" stop-color="#f6f6f6"/><stop offset="0.9" stop-color="#eaeaea"/><stop offset="0.94" stop-color="#d9d9d9"/><stop offset="0.97" stop-color="#c3c3c3"/><stop offset="1" stop-color="#ababab"/></radialGradient><filter id="luminosity-noclip-26" x="186.1" y="7" width="215.67" height="348.74" filterUnits="userSpaceOnUse" color-interpolation-filters="sRGB"><feFlood flood-color="#fff" result="bg"/><feBlend in="SourceGraphic" in2="bg"/></filter><mask id="mask-26" x="186.1" y="7" width="215.67" height="348.74" maskUnits="userSpaceOnUse"><g class="cls-41"><path class="cls-42" d="M199.71,11.13l53.18,50.8,90.92,86.84L397,199.57c7.81,7.45,2.32,13.51,2.32,13.51l-64.52,67.55-5.49,5.75-64.52,67.54a8.32,8.32,0,0,1-3.37,1.83,8.35,8.35,0,0,0,4.11-2L330,286.28l5.49-5.74,64.45-67.48s5.48-6.06-2.33-13.52l-53.26-50.87-91-87L200,10.83c-7.82-7.46-13.61-1.71-13.61-1.71l-.31.31S191.91,3.68,199.71,11.13Z"/></g></mask><radialGradient id="radial-gradient-19" cx="-1475.6" cy="-3502.51" r="339.71" gradientTransform="matrix(0.69, -0.72, 0.72, 0.69, 3591.97, 1514.34)" xlink:href="#linear-gradient-6"/><filter id="luminosity-noclip-27" x="50.14" y="7.13" width="215.67" height="348.74" filterUnits="userSpaceOnUse" color-interpolation-filters="sRGB"><feFlood flood-color="#fff" result="bg"/><feBlend in="SourceGraphic" in2="bg"/></filter><mask id="mask-27" x="50.14" y="7.13" width="215.67" height="348.74" maskUnits="userSpaceOnUse"><g class="cls-43"><path class="cls-44" d="M252.21,351.75,199,301l-90.92-86.84-53.18-50.8c-7.8-7.45-2.31-13.51-2.31-13.51l64.52-67.55,5.49-5.75L187.15,9a8.38,8.38,0,0,1,3.37-1.82,8.35,8.35,0,0,0-4.11,2L122,76.6l-5.49,5.74L52,149.82s-5.48,6.05,2.33,13.52l53.26,50.87,91.05,87,53.25,50.87c7.81,7.46,13.62,1.71,13.62,1.71l.29-.31S260,359.2,252.21,351.75Z"/></g></mask><radialGradient id="radial-gradient-20" cx="-1408.97" cy="-3416.45" r="289.34" gradientTransform="matrix(0.69, -0.72, 0.72, 0.69, 3591.97, 1514.34)" gradientUnits="userSpaceOnUse"><stop offset="0" stop-color="#fff"/><stop offset="0.14" stop-color="#fff"/><stop offset="1" stop-color="#fff"/></radialGradient><filter id="luminosity-noclip-28" x="61.79" y="170.46" width="184.1" height="175.85" filterUnits="userSpaceOnUse" color-interpolation-filters="sRGB"><feFlood flood-color="#fff" result="bg"/><feBlend in="SourceGraphic" in2="bg"/></filter><mask id="mask-28" x="61.79" y="170.46" width="184.1" height="175.85" maskUnits="userSpaceOnUse"><g class="cls-3"><path class="cls-4" d="M61.79,170.46l184.1,175.86-.82-1.38-46.35-44.28L65.42,173.34Z"/></g></mask><radialGradient id="radial-gradient-21" cx="2601.68" cy="-3502.82" r="341.21" gradientTransform="matrix(-0.69, 0.72, 0.72, 0.69, 4529.84, 532.91)" xlink:href="#linear-gradient-6"/><filter id="luminosity-noclip-29" x="95.36" y="0" width="330.79" height="355.62" filterUnits="userSpaceOnUse" color-interpolation-filters="sRGB"><feFlood flood-color="#fff" result="bg"/><feBlend in="SourceGraphic" in2="bg"/></filter><mask id="mask-29" x="95.36" y="0" width="330.79" height="355.62" maskUnits="userSpaceOnUse"><g class="cls-5"><path class="cls-6" d="M425.86,239.29a15.19,15.19,0,0,0-2.14-4.71l-40.25-61.67L314.67,67.46,274.42,5.78C268.51-3.27,261.55,1,261.55,1l-.36.24h0L183.41,52l-4.47,2.91L98.6,107.34S91.89,112,97.79,121l5.67,8.69,0,0L242.56,342.89v0l4.55,7c5.91,9.05,12.86,4.78,12.86,4.78l78.15-51,6.65-4.34,78.15-51A8.51,8.51,0,0,0,425.86,239.29Z"/></g></mask><linearGradient id="linear-gradient-8" x1="309.05" y1="210.05" x2="130.52" y2="218.59" xlink:href="#linear-gradient-6"/><filter id="luminosity-noclip-30" x="181.44" y="131.53" width="247.29" height="225.17" filterUnits="userSpaceOnUse" color-interpolation-filters="sRGB"><feFlood flood-color="#fff" result="bg"/><feBlend in="SourceGraphic" in2="bg"/></filter><mask id="mask-30" x="181.44" y="131.53" width="247.29" height="225.17" maskUnits="userSpaceOnUse"><g class="cls-7"><path class="cls-8" d="M285.87,178.5Q233.64,212.25,181.44,246l67.73,104.86C255,359.94,262,355.7,262,355.7L425.45,250.12s6.74-4.61.88-13.69l-67.77-104.9Z"/></g></mask><radialGradient id="radial-gradient-22" cx="-1587.93" cy="-1435.32" r="426.96" gradientTransform="translate(2238.79 316.08) rotate(-32.86)" xlink:href="#radial-gradient-18"/><filter id="luminosity-noclip-31" x="257.55" y="1.12" width="171.18" height="355.57" filterUnits="userSpaceOnUse" color-interpolation-filters="sRGB"><feFlood flood-color="#fff" result="bg"/><feBlend in="SourceGraphic" in2="bg"/></filter><mask id="mask-31" x="257.55" y="1.12" width="171.18" height="355.57" maskUnits="userSpaceOnUse"><g class="cls-9"><path class="cls-10" d="M277.71,7.16l39.91,61.77,68.22,105.61,39.91,61.78c5.85,9.06-.89,13.68-.89,13.68l-78.47,50.68L339.71,305l-78.46,50.69a8.3,8.3,0,0,1-3.7,1,8.32,8.32,0,0,0,4.46-1l78.39-50.63,6.67-4.31,78.38-50.64s6.74-4.61.88-13.69l-40-61.86L318,68.8l-40-61.86c-5.86-9.08-12.84-4.83-12.84-4.83l-.37.23S271.86-1.9,277.71,7.16Z"/></g></mask><radialGradient id="radial-gradient-23" cx="-1699.14" cy="-1334.79" r="339.71" gradientTransform="translate(2238.79 316.08) rotate(-32.86)" xlink:href="#linear-gradient-6"/><filter id="luminosity-noclip-32" x="98.53" y="1.12" width="171.18" height="355.57" filterUnits="userSpaceOnUse" color-interpolation-filters="sRGB"><feFlood flood-color="#fff" result="bg"/><feBlend in="SourceGraphic" in2="bg"/></filter><mask id="mask-32" x="98.53" y="1.12" width="171.18" height="355.57" maskUnits="userSpaceOnUse"><g class="cls-11"><path class="cls-12" d="M249.54,350.65l-39.91-61.77L141.41,183.27l-39.9-61.78c-5.86-9.06.89-13.68.89-13.68l78.46-50.69,6.68-4.31L266,2.12a8.25,8.25,0,0,1,3.7-1,8.34,8.34,0,0,0-4.47,1L186.86,52.74l-6.67,4.31L101.8,107.69s-6.74,4.61-.87,13.69l40,61.86L209.21,289l40,61.87C255,359.94,262,355.7,262,355.7l.37-.23S255.39,359.71,249.54,350.65Z"/></g></mask><radialGradient id="radial-gradient-24" cx="-1632.51" cy="-1248.74" r="289.34" gradientTransform="translate(2238.79 316.08) rotate(-32.86)" xlink:href="#radial-gradient-20"/><filter id="luminosity-noclip-33" x="106.51" y="130.04" width="138.14" height="213.85" filterUnits="userSpaceOnUse" color-interpolation-filters="sRGB"><feFlood flood-color="#fff" result="bg"/><feBlend in="SourceGraphic" in2="bg"/></filter><mask id="mask-33" x="106.51" y="130.04" width="138.14" height="213.85" maskUnits="userSpaceOnUse"><g class="cls-15"><path class="cls-16" d="M106.51,130,244.66,343.89l-.48-1.53L209.4,288.52l-100-154.84Z"/></g></mask><radialGradient id="radial-gradient-25" cx="2823.62" cy="-1335.28" r="342.19" gradientTransform="matrix(-0.84, 0.54, 0.54, 0.84, 3379.33, -420.15)" xlink:href="#linear-gradient-6"/><filter id="luminosity-noclip-34" x="150.8" y="10.41" width="295.04" height="345.2" filterUnits="userSpaceOnUse" color-interpolation-filters="sRGB"><feFlood flood-color="#fff" result="bg"/><feBlend in="SourceGraphic" in2="bg"/></filter><mask id="mask-34" x="150.8" y="10.41" width="295.04" height="345.2" maskUnits="userSpaceOnUse"><g class="cls-17"><path class="cls-18" d="M444.78,274.26l-25.68-69-43.9-118-25.69-69C345.75,8.08,338,10.72,338,10.72l-.41.15h0l-182,67.7s-7.57,3.05-3.8,13.18l3.62,9.72,0-.06L244.22,340v0l2.91,7.81c3.77,10.12,11.5,7.49,11.5,7.49l.4-.15h0l93.94-35,.56-.2L441,287.45a8.38,8.38,0,0,0,3-2.43C445.59,283,446.79,279.64,444.78,274.26Z"/></g></mask><linearGradient id="linear-gradient-9" x1="355.46" y1="223.03" x2="181.2" y2="148.71" xlink:href="#linear-gradient-6"/><filter id="luminosity-noclip-35" x="208.05" y="156.81" width="242.78" height="200.03" filterUnits="userSpaceOnUse" color-interpolation-filters="sRGB"><feFlood flood-color="#fff" result="bg"/><feBlend in="SourceGraphic" in2="bg"/></filter><mask id="mask-35" x="208.05" y="156.81" width="242.78" height="200.03" maskUnits="userSpaceOnUse"><g class="cls-19"><path class="cls-20" d="M324.08,187.92q-58,22.35-116,44.73l44.87,116.5c3.88,10.08,11.58,7.35,11.58,7.35l181.57-69.92s7.54-3.14,3.66-13.23L404.85,156.81Z"/></g></mask><radialGradient id="radial-gradient-26" cx="-1124.44" cy="-922.07" r="426.95" gradientTransform="translate(1590.68 409.64) rotate(-21.06)" xlink:href="#radial-gradient-18"/><filter id="luminosity-noclip-36" x="259.93" y="10.7" width="190.91" height="346.13" filterUnits="userSpaceOnUse" color-interpolation-filters="sRGB"><feFlood flood-color="#fff" result="bg"/><feBlend in="SourceGraphic" in2="bg"/></filter><mask id="mask-36" x="259.93" y="10.7" width="190.91" height="346.13" maskUnits="userSpaceOnUse"><g class="cls-21"><path class="cls-22" d="M351.14,18.53l26.43,68.63,45.18,117.33,26.43,68.63c3.88,10.07-3.67,13.21-3.67,13.21L358.34,319.9l-7.42,2.86-87.17,33.57a8.21,8.21,0,0,1-3.82.21,8.43,8.43,0,0,0,4.57,0L351.58,323l7.41-2.86,87.08-33.53s7.54-3.14,3.66-13.23l-26.47-68.73L378,87.13,351.54,18.4C347.66,8.31,340,11,340,11l-.4.16S347.26,8.47,351.14,18.53Z"/></g></mask><radialGradient id="radial-gradient-27" cx="-1235.65" cy="-821.55" r="339.69" gradientTransform="translate(1590.68 409.64) rotate(-21.06)" xlink:href="#linear-gradient-6"/><filter id="luminosity-noclip-37" x="153.62" y="10.71" width="190.91" height="346.13" filterUnits="userSpaceOnUse" color-interpolation-filters="sRGB"><feFlood flood-color="#fff" result="bg"/><feBlend in="SourceGraphic" in2="bg"/></filter><mask id="mask-37" x="153.62" y="10.71" width="190.91" height="346.13" maskUnits="userSpaceOnUse"><g class="cls-23"><path class="cls-24" d="M253.32,349l-26.43-68.63L181.71,163.05,155.28,94.42C151.4,84.35,159,81.21,159,81.21l87.17-33.57,7.42-2.86,87.17-33.57a8.37,8.37,0,0,1,3.82-.21A8.43,8.43,0,0,0,340,11L252.88,44.58l-7.41,2.85L158.39,81s-7.54,3.14-3.66,13.22l26.47,68.73,45.25,117.5,26.47,68.73c3.88,10.08,11.58,7.35,11.58,7.35l.4-.15S257.2,359.08,253.32,349Z"/></g></mask><radialGradient id="radial-gradient-28" cx="-1169.02" cy="-735.49" r="289.33" gradientTransform="translate(1590.68 409.64) rotate(-21.06)" xlink:href="#radial-gradient-20"/><filter id="luminosity-noclip-38" x="158.43" y="103.81" width="91.49" height="237.58" filterUnits="userSpaceOnUse" color-interpolation-filters="sRGB"><feFlood flood-color="#fff" result="bg"/><feBlend in="SourceGraphic" in2="bg"/></filter><mask id="mask-38" x="158.43" y="103.81" width="91.49" height="237.58" maskUnits="userSpaceOnUse"><g class="cls-25"><path class="cls-26" d="M158.43,103.81,249.92,341.4l-.15-1.6-23-59.82L160.49,108Q159.46,105.89,158.43,103.81Z"/></g></mask><radialGradient id="radial-gradient-29" cx="2362.76" cy="-821.41" r="340.16" gradientTransform="matrix(-0.93, 0.36, 0.36, 0.93, 2856.86, -78.1)" xlink:href="#linear-gradient-6"/><filter id="luminosity-noclip-39" x="212.42" y="37.08" width="247.2" height="319.48" filterUnits="userSpaceOnUse" color-interpolation-filters="sRGB"><feFlood flood-color="#fff" result="bg"/><feBlend in="SourceGraphic" in2="bg"/></filter><mask id="mask-39" x="212.42" y="37.08" width="247.2" height="319.48" maskUnits="userSpaceOnUse"><g class="cls-27"><path class="cls-28" d="M459.43,317.44l-10.24-72.93L431.7,119.82,421.46,46.89c-1.5-10.7-9.62-9.79-9.62-9.79l-.33,0L319.43,50.07l-5.89.83L219.16,64.14S211.1,65.5,212.6,76.2l1.45,10.27,0-.06,35.38,252.12v0l1.15,8.26c1.51,10.69,9.62,9.78,9.62,9.78l92.41-13,3.93-.55,96.35-13.52a8.4,8.4,0,0,0,5.69-4.52A12.82,12.82,0,0,0,459.43,317.44Z"/></g></mask><linearGradient id="linear-gradient-10" x1="367.71" y1="220.3" x2="225.91" y2="113.52" xlink:href="#linear-gradient-6"/><filter id="luminosity-noclip-40" x="234.99" y="195.63" width="226.18" height="162.41" filterUnits="userSpaceOnUse" color-interpolation-filters="sRGB"><feFlood flood-color="#fff" result="bg"/><feBlend in="SourceGraphic" in2="bg"/></filter><mask id="mask-40" x="234.99" y="195.63" width="226.18" height="162.41" maskUnits="userSpaceOnUse"><g class="cls-29"><path class="cls-30" d="M358.16,207.49,235,224.55l17.08,123.66c1.48,10.7,9.6,9.81,9.6,9.81l192.74-26.64s8.06-1.34,6.58-12l-17.1-123.71Z"/></g></mask><filter id="luminosity-noclip-41" x="214.49" y="38.88" width="227.76" height="173.7" filterUnits="userSpaceOnUse" color-interpolation-filters="sRGB"><feFlood flood-color="#fff" result="bg"/><feBlend in="SourceGraphic" in2="bg"/></filter><mask id="mask-41" x="214.49" y="38.88" width="227.76" height="173.7" maskUnits="userSpaceOnUse"><g class="cls-31"><path class="cls-32" d="M233.33,212.58l52.75-7.25,152-21,4.17-.58L423.59,48.71C422.11,38,414,38.9,414,38.9L221.25,65.54s-8.06,1.33-6.58,12l10.09,73Z"/></g></mask><filter id="luminosity-noclip-42" x="257.21" y="38.88" width="203.96" height="319.15" filterUnits="userSpaceOnUse" color-interpolation-filters="sRGB"><feFlood flood-color="#fff" result="bg"/><feBlend in="SourceGraphic" in2="bg"/></filter><mask id="mask-42" x="257.21" y="38.88" width="203.96" height="319.15" maskUnits="userSpaceOnUse"><g class="cls-33"><path class="cls-34" d="M423.17,48.75l10.06,72.85,17.21,124.54L460.51,319c1.48,10.69-6.59,12-6.59,12L361.39,343.8l-7.87,1.09L261,357.68a8.3,8.3,0,0,1-3.77-.67,8.43,8.43,0,0,0,4.46,1l92.44-12.78,7.87-1.09,92.43-12.77s8.06-1.34,6.58-12l-10.08-73L433.67,121.66l-10.08-73c-1.48-10.7-9.6-9.8-9.6-9.8l-.43.06S421.69,38.06,423.17,48.75Z"/></g></mask><filter id="luminosity-noclip-43" x="214.49" y="38.88" width="203.96" height="319.15" filterUnits="userSpaceOnUse" color-interpolation-filters="sRGB"><feFlood flood-color="#fff" result="bg"/><feBlend in="SourceGraphic" in2="bg"/></filter><mask id="mask-43" x="214.49" y="38.88" width="203.96" height="319.15" maskUnits="userSpaceOnUse"><g class="cls-37"><path class="cls-38" d="M252.5,348.17l-10.07-72.85L225.22,150.78,215.15,77.92c-1.47-10.68,6.59-12,6.59-12l92.53-12.79L322.15,52l92.53-12.78a8.14,8.14,0,0,1,3.77.67,8.3,8.3,0,0,0-4.46-1L321.56,51.67l-7.87,1.09L221.25,65.54s-8.06,1.33-6.58,12l10.09,73L242,275.26l10.08,72.95c1.48,10.7,9.6,9.81,9.6,9.81l.43-.06S254,358.86,252.5,348.17Z"/></g></mask><filter id="luminosity-noclip-44" x="216.08" y="87.79" width="35.06" height="252.2" filterUnits="userSpaceOnUse" color-interpolation-filters="sRGB"><feFlood flood-color="#fff" result="bg"/><feBlend in="SourceGraphic" in2="bg"/></filter><mask id="mask-44" x="216.08" y="87.79" width="35.06" height="252.2" maskUnits="userSpaceOnUse"><g class="cls-39"><path class="cls-40" d="M216.08,87.79,250.93,340l.21-1.59-8.77-63.49L217.13,92.3Z"/></g></mask><radialGradient id="radial-gradient-30" cx="1715.7" cy="-309.25" r="340.13" gradientTransform="matrix(-0.99, 0.14, 0.14, 0.99, 2173.53, 107.79)" xlink:href="#linear-gradient-6"/><clipPath id="clip-path"><rect class="cls-45" x="139.76" y="198.28" width="251.33" height="247.61"/></clipPath></defs><g class="cls-46"><g id="Layer_2" data-name="Layer 2"><g id="Twitter"><g class="cls-47"><path class="cls-48" d="M398.65,208.2c.11-2.34-.76-5.34-4.17-8.61l-53.11-51L250.56,61.35l-53.12-51c-7.79-7.48-13.6-1.75-13.6-1.75l-.31.32h0l-134.49,140s-5.49,6,2.3,13.53l7.48,7.18,0,0L242.39,345.94v0l6,5.77c7.79,7.49,13.61,1.75,13.61,1.75l.3-.31,0,0,64.36-67,5.5-5.72,64.64-67.3A8.41,8.41,0,0,0,398.65,208.2Z"/></g><g class="cls-49"><path class="cls-50" d="M466.34,372a1.34,1.34,0,0,1,.11-.14,13.52,13.52,0,0,0,2.15-6.71l6.22-73.72,10.63-126,6.22-73.72c.44-5.24-1.24-8.15-3.09-9.76h0a8.22,8.22,0,0,0-1.7-1.15.23.23,0,0,0-.07-.07h0a8.47,8.47,0,0,0-4.15-2l-.43,0h0l-53.7-4.53L425,48.24c-.71-5.2-3-7.67-5.16-8.84h0l-.51-.25a8.43,8.43,0,0,0-1.31-.89h0a8.41,8.41,0,0,0-2.86-.94,7.85,7.85,0,0,0-1.52-.08h-.09l-.43.06h0L363,44.17l-9.65-25.06c-2.48-6.43-6.49-7.67-9.1-7.72a8.41,8.41,0,0,0-4.63,0l-.23.09L293.71,29.1,278.35,5.94C275.16,1.12,271.69.1,269.15.2a8.46,8.46,0,0,0-5.69.89l-.36.24h0L220.6,29.51,201.22,11c-4.65-4.43-8.59-4.22-11-3.3a8.45,8.45,0,0,0-4.58,2.06l-.3.32,0,0L121,77.66l-4.27,4.48L50.77,151.29s-5.5,6.09,2.36,13.57l7.54,7.2-.05-.05L245.74,348.46v0l6.06,5.78a14,14,0,0,0,5.44,3.42,8.82,8.82,0,0,0,2,.84h0l.45.11h0a9,9,0,0,0,1.69.21l.36.08h0a8.48,8.48,0,0,0,2.74.12l.2,0,93.41,7.88,7.95.67,93.41,7.88a8.43,8.43,0,0,0,6.58-3.16Z"/></g><path class="cls-51" d="M186.41,9.12,122,76.6l-5.49,5.74L52,149.82s-5.48,6.05,2.33,13.52l53.26,50.87,91.05,87,53.25,50.87c7.81,7.46,13.62,1.71,13.62,1.71L330,286.28l5.49-5.74,64.45-67.48s5.48-6.05-2.33-13.52l-53.26-50.87-91-87L200,10.83C192.2,3.37,186.41,9.12,186.41,9.12Z"/><g class="cls-52"><path class="cls-53" d="M247.49,175.87l-85.86,89.95,90.27,86.23c7.81,7.46,13.62,1.71,13.62,1.71l134.39-140.7s5.48-6.05-2.33-13.52l-90.31-86.26Z"/></g><g class="cls-54"><path class="cls-55" d="M199.71,11.13l53.18,50.8,90.92,86.84L397,199.57c7.81,7.45,2.32,13.51,2.32,13.51l-64.52,67.55-5.49,5.75-64.52,67.54a8.32,8.32,0,0,1-3.37,1.83,8.35,8.35,0,0,0,4.11-2L330,286.28l5.49-5.74,64.45-67.48s5.48-6.06-2.33-13.52l-53.26-50.87-91-87L200,10.83c-7.82-7.46-13.61-1.71-13.61-1.71l-.31.31S191.91,3.68,199.71,11.13Z"/></g><g class="cls-56"><path class="cls-57" d="M252.21,351.75,199,301l-90.92-86.84-53.18-50.8c-7.8-7.45-2.31-13.51-2.31-13.51l64.52-67.55,5.49-5.75L187.15,9a8.38,8.38,0,0,1,3.37-1.82,8.35,8.35,0,0,0-4.11,2L122,76.6l-5.49,5.74L52,149.82s-5.48,6.05,2.33,13.52l53.26,50.87,91.05,87,53.25,50.87c7.81,7.46,13.62,1.71,13.62,1.71l.29-.31S260,359.2,252.21,351.75Z"/></g><g class="cls-58"><path class="cls-59" d="M61.79,170.46l184.1,175.86-.82-1.38-46.35-44.28L65.42,173.34Z"/></g><path class="cls-60" d="M103.75,178.2a28.35,28.35,0,0,0,.26,9.42h0a28.07,28.07,0,0,0-9.42.17c-5.45,1-9.1-1.12-10.22-4.4s2.19-8.93,8.37-6.54c-2.67-6.06,2.82-9.64,6.15-8.66S104.47,172.71,103.75,178.2Z"/><path class="cls-60" d="M347.41,184.76a28.18,28.18,0,0,0-.25-9.42h0a27.91,27.91,0,0,0,9.42-.18c5.45-1,9.1,1.12,10.22,4.4s-2.2,8.93-8.37,6.55c2.67,6.06-2.82,9.63-6.15,8.66S346.7,190.24,347.41,184.76Z"/><path class="cls-60" d="M363.34,195l.66.63a6,6,0,0,0-.66,1.29,1.53,1.53,0,0,0,0,.92,2.21,2.21,0,0,0,.62.91,6.58,6.58,0,0,0,1.1.83,15,15,0,0,0,1.49.83l2.21,1.17,6-6.29-.88-1.72a18.68,18.68,0,0,0-1.07-1.9,5.7,5.7,0,0,0-.83-1,2.14,2.14,0,0,0-1.58-.73,3.26,3.26,0,0,0-1.7.79l-.66-.63,5.5-5.76.66.63a2.8,2.8,0,0,0-.38,2.15,12.45,12.45,0,0,0,1.12,3.15l9.55,19.88-2,2.13L363,202.55a23.08,23.08,0,0,0-2.15-1,3.52,3.52,0,0,0-1.44-.22,3,3,0,0,0-1.37.52l-.66-.63Zm12.23,1.78-5.39,5.63,11.15,5.75Z"/><path class="cls-60" d="M239.63,176.34a56,56,0,0,0,.51,18.7h0a55.79,55.79,0,0,0-18.7.35c-10.81,1.91-18.06-2.23-20.29-8.74s4.36-17.72,16.62-13c-5.3-12,5.6-19.13,12.21-17.2S241.05,165.46,239.63,176.34Z"/><g class="cls-61"><path class="cls-62" d="M425.86,239.29a15.19,15.19,0,0,0-2.14-4.71l-40.25-61.67L314.67,67.46,274.42,5.78C268.51-3.27,261.55,1,261.55,1l-.36.24h0L183.41,52l-4.47,2.91L98.6,107.34S91.89,112,97.79,121l5.67,8.69,0,0L242.56,342.89v0l4.55,7c5.91,9.05,12.86,4.78,12.86,4.78l78.15-51,6.65-4.34,78.15-51A8.51,8.51,0,0,0,425.86,239.29Z"/></g><path class="cls-51" d="M265.24,2.11,186.86,52.74l-6.67,4.31L101.8,107.69s-6.74,4.61-.87,13.69l40,61.86L209.21,289l40,61.87C255,359.94,262,355.7,262,355.7l78.39-50.63,6.67-4.31,78.38-50.64s6.74-4.61.88-13.69l-40-61.86L318,68.81l-40-61.87C272.22-2.13,265.24,2.11,265.24,2.11Z"/><g class="cls-63"><path class="cls-64" d="M285.87,178.5Q233.64,212.25,181.44,246l67.73,104.86C255,359.94,262,355.7,262,355.7L425.45,250.12s6.74-4.61.88-13.69l-67.77-104.9Z"/></g><g class="cls-65"><path class="cls-66" d="M277.71,7.16l39.91,61.77,68.22,105.61,39.91,61.78c5.85,9.06-.89,13.68-.89,13.68l-78.47,50.68L339.71,305l-78.46,50.69a8.3,8.3,0,0,1-3.7,1,8.32,8.32,0,0,0,4.46-1l78.39-50.63,6.67-4.31,78.38-50.64s6.74-4.61.88-13.69l-40-61.86L318,68.8l-40-61.86c-5.86-9.08-12.84-4.83-12.84-4.83l-.37.23S271.86-1.9,277.71,7.16Z"/></g><g class="cls-67"><path class="cls-68" d="M249.54,350.65l-39.91-61.77L141.41,183.27l-39.9-61.78c-5.86-9.06.89-13.68.89-13.68l78.46-50.69,6.68-4.31L266,2.12a8.25,8.25,0,0,1,3.7-1,8.34,8.34,0,0,0-4.47,1L186.86,52.74l-6.67,4.31L101.8,107.69s-6.74,4.61-.87,13.69l40,61.86L209.21,289l40,61.87C255,359.94,262,355.7,262,355.7l.37-.23S255.39,359.71,249.54,350.65Z"/></g><g class="cls-69"><path class="cls-70" d="M106.51,130,244.66,343.89l-.48-1.53L209.4,288.52l-100-154.84Z"/></g><path d="M139.78,150.65a18.73,18.73,0,0,1,2.07,9.77l3-1.93,3-1.93A18.74,18.74,0,0,1,139.78,150.65Z"/><path d="M140.94,140.22a27.22,27.22,0,0,1-9-1.7h0a27,27,0,0,1-2.15,8.9c-2.07,5-.84,8.79,2.07,10.36s9-.71,8-6.92c5.26,3.46,9.85-1.19,9.62-4.49S146.35,140.39,140.94,140.22Z"/><path d="M386.71,207a18.73,18.73,0,0,1-2.07-9.77l-3,1.93-3,1.93A18.74,18.74,0,0,1,386.71,207Z"/><path d="M385.56,217.47a27.28,27.28,0,0,1,9,1.7h0a26.93,26.93,0,0,1,2.15-8.9c2.07-5,.84-8.79-2.07-10.36s-9,.7-8.05,6.92c-5.26-3.46-9.85,1.19-9.62,4.49S380.14,217.3,385.56,217.47Z"/><path d="M394.06,224.06l.49.77a5.93,5.93,0,0,0-.94,1.09,1.48,1.48,0,0,0-.23.9,2.26,2.26,0,0,0,.39,1,7.3,7.3,0,0,0,.87,1.07,16.84,16.84,0,0,0,1.26,1.15l1.88,1.65,7.3-4.72-.46-1.87a19.39,19.39,0,0,0-.6-2.1,7.38,7.38,0,0,0-.57-1.16,2.13,2.13,0,0,0-1.37-1.07,3.18,3.18,0,0,0-1.84.36l-.5-.76,6.69-4.32.5.76a2.77,2.77,0,0,0-.87,2,12.4,12.4,0,0,0,.35,3.32l4.67,21.55-2.47,1.6-16.61-14a18.91,18.91,0,0,0-1.87-1.43,3.44,3.44,0,0,0-1.34-.56,3.13,3.13,0,0,0-1.46.19l-.49-.77Zm11.47,4.57L399,232.86l9.5,8.18Z"/><path d="M304.1,149.33a4.93,4.93,0,0,0-1.21.55,5.08,5.08,0,0,0-5.67-7.67,5,5,0,0,0-2.89,2.22,5.08,5.08,0,0,0-6-7.16,5,5,0,0,0-3.14,2.68,5.08,5.08,0,0,0-7.65-5.61,5,5,0,0,0-1.78,2,5.07,5.07,0,0,0-7.77-5,4.94,4.94,0,0,0-1.58,1.64,5.15,5.15,0,0,0-.81-2.88,5.08,5.08,0,0,0-8.7.28,5.08,5.08,0,0,0-7.81-4.72,5.16,5.16,0,0,0-1.13,1,5,5,0,0,0-.81-2.89,5.07,5.07,0,0,0-7-1.51,5,5,0,0,0-1.78,2,5.07,5.07,0,0,0-6.91-5.47c-2-1.49-4.87-2.43-6.94-.72a5,5,0,0,0-1.53,6.16,5.07,5.07,0,0,0,2,8.68,5,5,0,0,0-2.54.8,5.08,5.08,0,0,0,.79,9,5,5,0,0,0-1.37.62,5.07,5.07,0,0,0,1.09,9.06,5.07,5.07,0,0,0-1.54,9.73,5.07,5.07,0,0,0-3.66,7.79,5,5,0,0,0,2.9,2.13,5.07,5.07,0,0,0-.58,10.08,5.07,5.07,0,1,0,.34,10.14,5,5,0,0,0-3.21,1.73,5.07,5.07,0,0,0,4.66,8.31,5.18,5.18,0,0,0-1,.89,5.07,5.07,0,0,0,7.06,7.23l.14.16a5.07,5.07,0,1,0,7.65,6.43,5,5,0,0,0,1.07,3.72,5.07,5.07,0,0,0,9-3.71,5.07,5.07,0,1,0,9.89-2.27,5.07,5.07,0,0,0,7.56-6.72,5.07,5.07,0,0,0,4.24-9.05,4.33,4.33,0,0,0,1.77-7.6,3.5,3.5,0,0,0,1.35-2.47,3.47,3.47,0,0,0,2.8-.21,4.3,4.3,0,0,0,2.51,2.9,4.34,4.34,0,0,0,5.15-1.38,5,5,0,0,0,2,3.13,5.08,5.08,0,0,0,7.1-1.09,5,5,0,0,0,.91-2.2,5.07,5.07,0,0,0,9.23-4.12,5.08,5.08,0,0,0,8.14-4.56,5,5,0,0,0-2-3.5h0a5.07,5.07,0,1,0,4.11-9.21,5.07,5.07,0,1,0-2.63-9.67l-.09-.19a5.08,5.08,0,0,0-3.78-9.37Zm-7.31-4.71a4,4,0,0,1,4.93,2.71,3.87,3.87,0,0,1-.2,2.71l-1-.88a2.91,2.91,0,0,0-.1-.59,3.15,3.15,0,0,0-3.81-2.17c-.46-.29-.92-.56-1.4-.83A3.9,3.9,0,0,1,296.79,144.62Zm-26.35,39.45a.74.74,0,0,1,.22-1,.73.73,0,0,1,1,.22.73.73,0,1,1-1.23.8Zm-49.57,8.05.24-.05v.06Zm.14-10,.21,0a.15.15,0,0,0,0,.07Zm1.24-10,.12,0s0,0,0,.06Zm2.82-19.58a4.63,4.63,0,0,0,.52-.07,2.36,2.36,0,0,0,0,.28Zm1.52-9.74a2,2,0,0,0,.26-.09c0,.07,0,.14,0,.21Zm1.12-9.28a5.29,5.29,0,0,0-1.12-.49,4.8,4.8,0,0,0,1.17-.21C227.74,133.06,227.73,133.29,227.71,133.53Zm9.58-6.89a4.72,4.72,0,0,0,.62-.91,4.74,4.74,0,0,0,0,1.13Zm9.39,3.25.13-.14c0,.06,0,.12,0,.18Zm9.4,2.85c.08-.12.17-.24.24-.37,0,.14,0,.29,0,.44Zm15.95,9a1.47,1.47,0,1,1,2,.44A1.47,1.47,0,0,1,272,141.78Zm10.36,3.3a1.48,1.48,0,1,1,2,.44A1.48,1.48,0,0,1,282.39,145.08ZM288,182.45a1.47,1.47,0,1,1-2-.44A1.48,1.48,0,0,1,288,182.45ZM279,183.92a1.07,1.07,0,1,1-1.79,1.16,1.07,1.07,0,0,1,1.79-1.16Zm-14.43,9.32a1.06,1.06,0,1,1-1.47-.31A1.06,1.06,0,0,1,264.6,193.24Zm-4.32,7.1a1.47,1.47,0,1,1-2-.44A1.47,1.47,0,0,1,260.28,200.34Zm-36.73-17.25a1.47,1.47,0,1,1,2,.44A1.46,1.46,0,0,1,223.55,183.09Zm1.26-10.8a1.47,1.47,0,1,1,2,.44A1.48,1.48,0,0,1,224.81,172.29Zm3.29-20.9a1.47,1.47,0,1,1,2,.44A1.47,1.47,0,0,1,228.1,151.39Zm1.35-10.15a1.47,1.47,0,1,1,2,.44A1.47,1.47,0,0,1,229.45,141.24Zm-.27-16.71h0v0Zm0,0h0Zm2,3.06.09-.07a1.47,1.47,0,1,1,1.6,2.47l-.1.06-.1.07a1.47,1.47,0,0,1-1.59-2.47A.53.53,0,0,1,231.15,127.59Zm10.67,5.66a1.47,1.47,0,1,1,2,.44A1.47,1.47,0,0,1,241.82,133.25Zm9.8,2.94a1.47,1.47,0,1,1,2,.44A1.47,1.47,0,0,1,251.62,136.19Zm37,35.27a2.44,2.44,0,0,0-.93-.05l-.12,0a3,3,0,0,0-2.44,1.19,1.8,1.8,0,0,0,.64,2.46,1.91,1.91,0,0,0,1.47.23,1,1,0,0,0,.37-.26s.26-.43.09-.18a.32.32,0,0,0,0-.35.31.31,0,0,0,0-.1c0-.06-.08-.1-.13-.08h0c-.25-.35-.69-.48-.5-1.06a1.67,1.67,0,0,1,.34-.56c1.31,0,2.87.86,2.05,2.56a7.21,7.21,0,0,1-1.49,2c-1.17,1.2-2.48,2.14-4.24,1.95-2.42-.25-3.94-3.17-3.2-5.36a6.55,6.55,0,0,1,1.73-2.44,9.58,9.58,0,0,0,2.49-3.15c3.09-5.5-2.11-11.52-7.41-12.73l-.76-.14.42-.19c1.54-.83,3.2-2.39,3.15-4.32a5,5,0,0,0-7.67-4c-1.63,1.06-3.09,4.17-1.86,5.68a2.83,2.83,0,0,0,3.73,1.1c1.71-.93,2.21-3.49,0-4.14-.87-.26-2.11.08-2,1.18a1.23,1.23,0,0,0,1.26,1.1,1,1,0,0,1-.22.24,1.86,1.86,0,0,1-1.63.38c-.44-.16-.52-.46-.74-.87a.23.23,0,0,0-.09-.08,2.09,2.09,0,0,1,.22-1.17,5.3,5.3,0,0,1,1.54-1.48c1.31-.76,3.37-1.42,4.6-.2a3.55,3.55,0,0,1,.31,4.93,4.86,4.86,0,0,1-2.21,1.72c-4.46-.27-9.44,1.77-11.34,6a8.52,8.52,0,0,0-1,.94c.43-1.22.93-2.45,1.48-3.72,1-2.43,2.69-5.63,2.14-8.36-.76-3.76-3.83-7.76-8.07-6.4-1.76.56-2.5,2.85-2.06,4.66a6.59,6.59,0,0,0-5.3-1.12,5.34,5.34,0,0,0,1.19-3.61c-.37-4-3.86-4.15-6.61-6,0,0-.06,0,0,0,2,1.9,6,3.58,4.24,7.29a15.9,15.9,0,0,1-1.46,2.29,4.06,4.06,0,0,0,.31-1.14,7.19,7.19,0,0,0-1.44-4.68c-2-3-6.4-2.83-9.33-4.7a10.5,10.5,0,0,1-2.19-1.31,8.21,8.21,0,0,1,.59,3.49c0,3.15-1.37,6.55.37,9.34a7.29,7.29,0,0,0,3.67,3.24,4.69,4.69,0,0,0,1.17.19A16.92,16.92,0,0,1,239,152c-4.11.11-4-4.23-4.9-6.86,0,0,0,0,0,0,.59,3.29-.73,6.52,2.79,8.51a5.4,5.4,0,0,0,3.78.4,6.57,6.57,0,0,0-1.16,5.29c-1.47-1.14-3.86-1.41-5.1,0-3,3.3-.59,7.75,2.52,10,2.26,1.62,5.86,1.42,8.5,1.47,1.38,0,2.71.08,4,.19a7.87,7.87,0,0,0-1.25.48c-4.6,0-8.51,3.72-10.1,7.9a5,5,0,0,1-2.47,1.31,3.56,3.56,0,0,1-4.37-2.32c-.6-1.62.85-3.23,2.07-4.11a5.25,5.25,0,0,1,2-.8,2.15,2.15,0,0,1,1.15.28s0,.09,0,.12c.28.37.53.57.49,1a1.85,1.85,0,0,1-1,1.32.71.71,0,0,1-.31.1,1.22,1.22,0,0,0-.48-1.59c-1-.53-1.8.45-1.92,1.36-.31,2.29,2.22,2.89,3.78,1.71a2.85,2.85,0,0,0,.53-3.86c-.87-1.74-4.31-1.69-5.95-.63a5,5,0,0,0,.51,8.64c1.74.84,3.84,0,5.23-1.1l.35-.31c-.07.25-.13.5-.19.76-1.07,5.33,2.27,12.54,8.56,12a9.49,9.49,0,0,0,3.9-1,6.59,6.59,0,0,1,2.93-.57c2.3.22,4.34,2.81,3.57,5.12-.55,1.68-1.95,2.48-3.52,3.06a7.11,7.11,0,0,1-2.41.55c-1.89,0-2-1.7-1.49-2.92a1.45,1.45,0,0,1,.65-.08c.6.06.55.52.76.89a0,0,0,0,1,0,0,.11.11,0,0,0,0,.16l.1,0a.32.32,0,0,0,.31.14c-.29.05.16,0,.21,0a.93.93,0,0,0,.38-.23,1.88,1.88,0,0,0,.4-1.43,1.8,1.8,0,0,0-2-1.6,3,3,0,0,0-2.08,1.74.53.53,0,0,0,0,.12,2.22,2.22,0,0,0-.34.86,4,4,0,0,0,1.69,3.37,3.91,3.91,0,0,0,1.76.52c-4.38,2.08-9.16,2.27-13.3-.47-9.95-6.6-10.24-18.16-6.73-36.64,4.06-21.41,3.74-31.5,3.74-31.86h0v0c.32.15,9.39,4.59,30.57,9.69,18.29,4.4,28.72,9.41,30.64,21.2.79,4.9-1.35,9.18-5,12.32a3.56,3.56,0,0,0-2.13-4.75Zm-8.11,7.36a6.08,6.08,0,0,0,2,1.39,37.13,37.13,0,0,1-6.61-.13,18.12,18.12,0,0,1-11.36-4.85c-3.13-3.2-3.53-10,.7-12.63,2.92-1.81,8.15-3.3,9.47,1.79a4.51,4.51,0,0,1-1.89,4.65c-1.16,1.15-2.1.66-2.82-1.49.08,0,.19,0,.11-.1-1.11-.89-3.91-1-3.63,1.28.35,2.87,3.21,3.81,5.75,3a6.17,6.17,0,0,0,3.85-3.35A4.06,4.06,0,0,0,280,172a3,3,0,0,0,.6,0A4.91,4.91,0,0,0,280.53,178.82Zm-21.71-28.21c2.13.45,2.88-1.86.77-3.07,0,0,0,0,0,0-4.5-3.41,1.75-5.49,3.78-1.68a13.61,13.61,0,0,1,1.5,5.46,14.18,14.18,0,0,1-1.59,7.83,24.11,24.11,0,0,0-1.87,5.65,11.27,11.27,0,0,0-.73,5.29,14.57,14.57,0,0,1-.55-5.69c.34-3.46,1.47-7.76.13-11.15A12.66,12.66,0,0,0,258.82,150.61Zm21.87,17.06.43-.11a.89.89,0,0,0,.59-.82c.06-3-3.53-2.77-5-.76a6.74,6.74,0,0,0-.48-2.86c-1.28-3.15-4.94-4.25-8-3.79a8.68,8.68,0,0,0-3.58,1.38c3.25-4.26,10.64-5.79,15.1-3.07,2.65,1.62,5.91,5.79,4.54,9.2-.62,1.55-2.7,4.15-4.88,3.26q-4.59-2.58,0-4C278.21,166.75,279.85,167.9,280.69,167.67Zm-35.78-26c1.45,2.25,1.81,4.82,1.6,7.91a6,6,0,0,0,.3,2.31,6,6,0,0,0-2-1.22c-2.9-1.08-5.1-2.46-6.56-4.71a7.76,7.76,0,0,1-.25-1c-.42-2.68.47-5.24-.52-7.46,1.61,1.82,4.31,2.05,6.59,3.54A7.08,7.08,0,0,1,244.91,141.7Zm6.3,49.29a3.1,3.1,0,0,0,.26-.55,4.06,4.06,0,0,0-1.69-5,6.19,6.19,0,0,0,4.64-2.13c1.76-2,2.08-5-.39-6.48-2-1.21-3,1.4-2.67,2.78,0,.1.15,0,.14-.06q2.49,2.31.21,3.18a4.53,4.53,0,0,1-5-.19c-4.1-3.3-.6-7.45,2.26-9.36,4.13-2.78,10.17.38,11.8,4.55a18.14,18.14,0,0,1-.25,12.35,37.05,37.05,0,0,1-2.6,6.08,6.07,6.07,0,0,0-.44-2.4A4.92,4.92,0,0,0,251.21,191Zm-6.29-7.66a6.93,6.93,0,0,0,2.41,1.62c-2.44.52-4.14,3.7-1.36,4.88a.86.86,0,0,0,1-.2l.28-.34c.56-.68.18-2.64-.93-1.87q3.21-3.57,3.68,1.68c-.09,2.35-3.31,3.18-5,3.11-3.68-.16-6.15-4.84-6.53-7.93-.65-5.18,3.79-11.28,9-12.5a8.66,8.66,0,0,0-2.73,2.7C243.08,177.08,242.57,180.87,244.92,183.33Zm7.65-12.81a24.05,24.05,0,0,0-5.93-.62,14.17,14.17,0,0,1-7.79-1.77,13.58,13.58,0,0,1-4.36-3.61c-2.63-3.41,1.84-8.26,3.09-2.75a0,0,0,1,0,0,0c.24,2.42,2.65,2.69,3.12.57a12.9,12.9,0,0,0,1.84,2.38c2.53,2.62,6.93,3.36,10.22,4.47a14.79,14.79,0,0,1,5,2.83A11.29,11.29,0,0,0,252.57,170.52Zm-18.84-38.86h0Zm0,0v0h0Zm-5.34,31.07a1.47,1.47,0,1,1,.44-2A1.47,1.47,0,0,1,228.38,162.73Zm14,46.17a1.82,1.82,0,1,1-.54,2.52A1.81,1.81,0,0,1,242.39,208.9Zm18.14-15.63.75-1.7A19.78,19.78,0,0,0,262.53,178a9.38,9.38,0,0,0-1.24-2.66,11.69,11.69,0,0,0-4.94-5.47c-2.85-1.5-6-2.23-8.81-3.76a19.69,19.69,0,0,1-4-3,11.47,11.47,0,0,1-1.68-1.93l-1-1.75c-1-3.39,2.94-7,4.85-3.72-1.36.88-2,4,1,4.06,2.38,0,3.16-1.81,2.83-3.73,1.62,1.09,3.62,1.14,4.57-1.05,1.18-2.77-1.94-3.44-3.3-2.56-2.23-3.1,2.71-5.21,5.39-2.89l1.17,1.65a11.62,11.62,0,0,1,1.07,2.32,20.53,20.53,0,0,1,1.07,4.9c.23,3.21-.39,6.37-.19,9.58a11.59,11.59,0,0,0,2.95,6.75,9.4,9.4,0,0,0,1.91,2.22A19.69,19.69,0,0,0,277,181.41l1.85,0a25.12,25.12,0,0,1-14-1.64A25.17,25.17,0,0,1,260.53,193.27Zm40.11-22a1.83,1.83,0,1,1-.54,2.53A1.82,1.82,0,0,1,300.64,171.26Zm-36.32-31.75a1.47,1.47,0,1,1,.43-2A1.46,1.46,0,0,1,264.32,139.51Zm-36-16.55-.25-.12,0,0h0l0,0h0v0h0v0s0,.15,0,.34a5,5,0,0,0-2.44-.24,2.9,2.9,0,0,1,1.77-1.69,2.7,2.7,0,0,1,1.38,0A4.75,4.75,0,0,0,228.35,123Zm8.24,83.75a2,2,0,1,1-2.75-.59A2,2,0,0,1,236.59,206.71Zm-10.66-13.62a1.48,1.48,0,1,1,.43-2A1.48,1.48,0,0,1,225.93,193.09Zm1.3,5.94a1.84,1.84,0,1,1-.55,2.55A1.84,1.84,0,0,1,227.23,199Zm23.39,9.74a1.47,1.47,0,1,1,2,.44A1.47,1.47,0,0,1,250.62,208.77Zm14.62-21.35a.74.74,0,1,1,1,.22A.74.74,0,0,1,265.24,187.42Zm29.43-7.1a1.48,1.48,0,1,1,2,.44A1.48,1.48,0,0,1,294.67,180.32Zm7-18a2,2,0,1,1-.59,2.74A2,2,0,0,1,301.63,162.34Zm-10.66-13a1.47,1.47,0,1,1,2,.44A1.47,1.47,0,0,1,291,149.32Zm8.92,7.17a1.85,1.85,0,1,1-2-3.1,1.85,1.85,0,0,1,2,3.1ZM275.3,137.88l0,0v0Zm9.54,3,.06-.11s0,.08,0,.12Zm9.18,4a1.47,1.47,0,0,0,.1-.13.94.94,0,0,0-.06.15Zm-6.09-5.24a4,4,0,0,1,4.94,2.7,4,4,0,0,1,0,2l-1.37-.67a.11.11,0,0,0,0-.05,3.16,3.16,0,0,0-3.92-2.15,3.2,3.2,0,0,0-.6.26l-1.22-.47A3.89,3.89,0,0,1,287.93,139.69Zm-10.08-2.91a4,4,0,0,1,5.5,1.18,3.92,3.92,0,0,1,.59,2.63l-1.21-.41a2.73,2.73,0,0,0-.3-.65,3.17,3.17,0,0,0-4.38-.94l-.09.07-1.43-.42A3.84,3.84,0,0,1,277.85,136.78Zm-19-5.78a4,4,0,0,1,6,4.17l-1-.27a3,3,0,0,0-.44-1.15,3.16,3.16,0,0,0-4.37-.94,2.82,2.82,0,0,0-.68.6l-1.12-.32A3.87,3.87,0,0,1,258.89,131Zm-9.49-2.94a4,4,0,0,1,5.5,1.19,3.92,3.92,0,0,1,.45,3.28l-.9-.26a3,3,0,0,0-.47-1.45,3.17,3.17,0,0,0-4.38-.95,3,3,0,0,0-.75.71l-1.07-.34A3.89,3.89,0,0,1,249.4,128.06Zm-9-3.4a4,4,0,0,1,5.5,1.18,3.92,3.92,0,0,1,.21,3.87l-.67-.21a3.09,3.09,0,0,0-.47-2.09,3.15,3.15,0,0,0-4.37-.94,3.07,3.07,0,0,0-1,1l-.92-.34A3.93,3.93,0,0,1,240.44,124.66Zm-4.05-1.85a3.91,3.91,0,0,1,.34,3.62c-.27-.09-.52-.19-.78-.29a3,3,0,0,0-.49-1.76,3.15,3.15,0,0,0-4.37-.94,2.79,2.79,0,0,0-.58.5l-1.11-.49a3.87,3.87,0,0,1,1.49-1.82A4,4,0,0,1,236.39,122.81Zm-10.72-3.74c1.65-1.12,3.49-.79,5.13,0l-.18.11a4.87,4.87,0,0,0-1,.79,4,4,0,0,0-3.43.42,3.26,3.26,0,0,0-1.22,2.69,4.72,4.72,0,0,0-1.4.62l-.19.13A4.86,4.86,0,0,1,225.67,119.07Zm.07,5.89a3.78,3.78,0,0,1,2.35-.6c0,.33,0,.72,0,1.17a3,3,0,0,0-.78.35,3.18,3.18,0,0,0-.94,4.38,3.08,3.08,0,0,0,1.49,1.19c0,.27,0,.53,0,.81a4,4,0,0,1-2.06-7.3Zm-1.17,10a3.92,3.92,0,0,1,3.07-.51c0,.31,0,.63-.07.95a3.2,3.2,0,0,0-1.43.48,3.17,3.17,0,0,0-.94,4.38,3.12,3.12,0,0,0,1.78,1.31c0,.22,0,.45-.07.67a3.92,3.92,0,0,1-3.52-1.78A4,4,0,0,1,224.57,134.91Zm-.58,9.57a3.92,3.92,0,0,1,2.72-.58l-.12,1.09a3.07,3.07,0,0,0-1,.42,3.15,3.15,0,0,0-.94,4.37,3.1,3.1,0,0,0,1.2,1.08c0,.29-.08.59-.13.89a3.92,3.92,0,0,1-2.88-1.77A4,4,0,0,1,224,144.48Zm-1.23,9.85a3.87,3.87,0,0,1,2.64-.58c-.05.37-.11.74-.17,1.11a3.27,3.27,0,0,0-.9.4,3.15,3.15,0,0,0,0,5.3c0,.33-.11.67-.17,1a3.88,3.88,0,0,1-2.57-1.73A4,4,0,0,1,222.76,154.33ZM221.4,164a3.94,3.94,0,0,1,2.43-.6c-.07.4-.14.81-.22,1.22a3.13,3.13,0,0,0-1.58,4.68,2.9,2.9,0,0,0,.66.73l-.18,1.13a3.87,3.87,0,0,1-2.29-1.66A4,4,0,0,1,221.4,164Zm-1.16,10a3.84,3.84,0,0,1,1.95-.6c-.07.48-.14,1-.2,1.43l-.18.1a3.18,3.18,0,0,0-.95,4.38,3.12,3.12,0,0,0,.54.6c0,.42-.07.83-.11,1.23a3.85,3.85,0,0,1-2.23-1.63A4,4,0,0,1,220.24,174Zm-1.49,10.39a3.85,3.85,0,0,1,2.4-1.31c0,.42-.06.84-.08,1.26a3.23,3.23,0,0,0-.56.49,3.18,3.18,0,0,0,.35,4.47l.12.08c0,.5,0,1,.05,1.48a3.88,3.88,0,0,1-1.85-.86A4,4,0,0,1,218.75,184.38ZM220,200.09a4,4,0,0,1-.44-5.61,3.87,3.87,0,0,1,1.61-1.1c0,.52.11,1,.17,1.53h0a3.16,3.16,0,0,0,.35,4.46,3,3,0,0,0,.61.41c.12.42.24.83.37,1.23A3.87,3.87,0,0,1,220,200.09Zm4.39,5.19a3.15,3.15,0,0,0,.95,3.31,3.08,3.08,0,0,0,1.69.7q.27.36.57.69a3.91,3.91,0,0,1-3.93-.69,4,4,0,0,1-.44-5.61l.29-.29Q224,204.37,224.43,205.28Zm8.23,11.85a4,4,0,0,1-4.24-3.69,3.85,3.85,0,0,1,.47-2.13c.35.34.72.69,1.1,1,0,.06,0,.12,0,.18a3.17,3.17,0,0,0,3.38,2.94,3.69,3.69,0,0,0,.75-.15c.38.21.77.39,1.16.57A3.89,3.89,0,0,1,232.66,217.13Zm10.78,1.93a4,4,0,0,1-5.59-.65,3.89,3.89,0,0,1-.8-1.83,17.29,17.29,0,0,0,1.85.47,3.16,3.16,0,0,0,4.11.26,17.1,17.1,0,0,0,1.74-.18A4,4,0,0,1,243.44,219.06Zm10.38-2.75a4,4,0,0,1-5.44,1.43,4.07,4.07,0,0,1-1.25-1.15c.55-.16,1.09-.34,1.64-.55a3.13,3.13,0,0,0,4-1.25,2.76,2.76,0,0,0,.34-.93l1-.66A3.89,3.89,0,0,1,253.82,216.31Zm8.39-6.12a4,4,0,0,1-4.37,3.55,3.86,3.86,0,0,1-2.55-1.34c.29-.22.57-.44.86-.68a3.06,3.06,0,0,0,1.05.32,3.16,3.16,0,0,0,3.47-2.82,3,3,0,0,0-.29-1.64c.19-.22.38-.45.56-.68A3.9,3.9,0,0,1,262.21,210.19Zm5-8.83a4,4,0,0,1-3.07,4.72,3.87,3.87,0,0,1-2.34-.25c.28-.38.56-.76.83-1.15a2.43,2.43,0,0,0,.38,0,3.16,3.16,0,0,0,2.44-3.75,3,3,0,0,0-.21-.62c.19-.39.37-.79.55-1.18A3.88,3.88,0,0,1,267.19,201.36Zm1.86-7.59a3.38,3.38,0,0,1-2.36,3.13,33.72,33.72,0,0,0,1.44-5l.3-.1A3.33,3.33,0,0,1,269.05,193.77Zm-.08-6.25a2.68,2.68,0,0,1-.45,2c.1-.81.15-1.62.19-2.43A2.51,2.51,0,0,0,269,187.52Zm1.18-.76a4,4,0,0,0-.43-.56c.84.34,1.69.66,2.55.93A2.68,2.68,0,0,1,270.15,186.76Zm5.66,2.64a3.36,3.36,0,0,1-1.58-1.39q.13-.13.27-.3a31.4,31.4,0,0,0,5.19.77A3.37,3.37,0,0,1,275.81,189.4Zm13.24.57a4,4,0,0,1-5.56.86,3.85,3.85,0,0,1-1.49-2.28c.42,0,.85,0,1.27,0a3.13,3.13,0,0,0,5-.19,3.47,3.47,0,0,0,.21-.37l1.36-.28A3.78,3.78,0,0,1,289.05,190Zm9.57-2.57a4,4,0,0,1-5,2.52,3.89,3.89,0,0,1-2.49-2.54l.84-.23a3.08,3.08,0,0,0,1.39,1,3.16,3.16,0,0,0,4-2,3,3,0,0,0,.15-1.11c.33-.16.65-.33,1-.5A3.89,3.89,0,0,1,298.62,187.4Zm7.54-7a4,4,0,0,1-3.54,4.38,3.91,3.91,0,0,1-3-1c.35-.21.69-.43,1-.65a3,3,0,0,0,1,.07,3.14,3.14,0,0,0,2.81-3.15c.42-.41.81-.83,1.18-1.27A4.05,4.05,0,0,1,306.16,180.41Zm4.94-9.32a4,4,0,0,1-1.71,5.36,3.81,3.81,0,0,1-2.25.41,16.5,16.5,0,0,0,.92-1.57,3.15,3.15,0,0,0,1.4-3.7,15.3,15.3,0,0,0,.37-1.93A3.91,3.91,0,0,1,311.1,171.09Zm-.66-10.64a4,4,0,0,1,1.62,5.39,3.92,3.92,0,0,1-2.13,1.83c0-.45,0-.9-.06-1.36a2.73,2.73,0,0,0,.37-.52A3.17,3.17,0,0,0,309,161.5l-.06,0c-.15-.5-.32-1-.49-1.47A3.78,3.78,0,0,1,310.44,160.45Zm-1.84-6a4,4,0,0,1-.91,3.8c-.14-.3-.28-.58-.43-.87a3.07,3.07,0,0,0-2.48-3.9c-.44-.56-.91-1.09-1.4-1.62l.29-.11A4,4,0,0,1,308.6,154.45Z"/><polygon points="234.59 133.01 234.58 132.99 234.58 133 234.59 133.01"/><polygon points="234.59 132.99 234.58 132.99 234.59 133 234.59 132.99"/><path d="M232,188.35a0,0,0,0,0,0,0c.46,2.21.64,3.59,2.51,5.11,1.7,1.37,4.38,2.55,6.36,1.18a.59.59,0,0,0,0-1c-1.51-.95-3.27-1.12-4.87-1.9A11.22,11.22,0,0,1,232,188.35Z"/><path d="M239.78,196.09a5,5,0,0,0-1.5,4.12c.17,1.5,2.16,1,1.91-.41s1-2.4,1.63-3.34a21.33,21.33,0,0,0,1.73-2.14s0-.07,0,0a6.34,6.34,0,0,1-2,.75A4.49,4.49,0,0,0,239.78,196.09Z"/><path d="M256.31,186.62a3.62,3.62,0,0,0-2.38,2.28c-.16.39-.06.81-.2,1.19,0,0,0,.14.08.12.39-.1.67-.43,1.05-.55.6-.18,1.14-.47,1.73-.66C257.81,188.63,257.72,186.49,256.31,186.62Z"/><path d="M253.27,188.33a.8.8,0,0,0,.13-.19c.07-.14-.1.18.1-.13a1.64,1.64,0,0,0,.17-1,.65.65,0,0,0-.73-.63.79.79,0,0,0-.55.9,1.49,1.49,0,0,0,.2.58c0,.08,0,.08,0,0h0c0,.06.2.51.14.56a.12.12,0,0,0,0,.21C253,188.77,253.15,188.46,253.27,188.33Z"/><path d="M258.36,185.44a1.08,1.08,0,0,0,.25-1.12c-.12-.31-.47-.65-.83-.53a1.52,1.52,0,0,0-.8.65,1,1,0,0,0-.22.53,2.3,2.3,0,0,1,0,.37.14.14,0,0,0,.1.2C257.41,185.62,257.85,185.92,258.36,185.44Z"/><path d="M237.06,197.36a.64.64,0,0,0-.2-.9c-.78-.36-1.64-.27-2.43-.6a7.71,7.71,0,0,1-2.36-1.72s-.07,0-.07.06a4.19,4.19,0,0,0,1.66,3.27C234.73,198.24,236.19,198.52,237.06,197.36Z"/><path d="M237.86,191.09c.44,0,.55-.57.29-.85a6.29,6.29,0,0,0-1.36-1,2.93,2.93,0,0,1-.91-.69,8.79,8.79,0,0,1-.49-1s0,0,0,0a5.57,5.57,0,0,0,.47,2.32A2.34,2.34,0,0,0,237.86,191.09Z"/><path d="M288.24,164c2.06-1.24,2.09-4.17,1.53-6.28-.61-2.33-1.8-3.06-3.62-4.4,0,0,0,0,0,0a11.22,11.22,0,0,1,1.48,5c.06,1.78-.52,3.45-.27,5.22A.6.6,0,0,0,288.24,164Z"/><path d="M289.45,165.69c1.13-.22,2.68-.82,3.71-.11s2.47-.8,1.17-1.58a5,5,0,0,0-4.38-.32,4.49,4.49,0,0,0-1.69,1.16,6.39,6.39,0,0,1-1.49,1.49s0,0,0,0A20.43,20.43,0,0,0,289.45,165.69Z"/><path d="M277.59,173.62a3,3,0,0,0-1.11.07,3.06,3.06,0,0,0-2,1.16c-.7,1.23,1.21,2.2,2.06,1.24.41-.46.9-.84,1.3-1.31.27-.3.69-.41.94-.73,0-.06,0-.12-.08-.12C278.35,173.9,278,173.64,277.59,173.62Z"/><path d="M277.69,172.4c-.06,0-.41-.31-.45-.35h0s0,0,0-.07a1.6,1.6,0,0,0-.44-.42.82.82,0,0,0-1,.13.66.66,0,0,0,.27.93,1.62,1.62,0,0,0,1,.24c.37-.05,0,0,.16,0a.93.93,0,0,0,.23,0c.16-.05.5,0,.54-.27A.13.13,0,0,0,277.69,172.4Z"/><path d="M272.84,174.58a1,1,0,0,0-.58,0,1.52,1.52,0,0,0-.91.47.74.74,0,0,0,.13,1,1.12,1.12,0,0,0,1.13.24c.65-.27.56-.8.72-1.35,0-.09-.06-.17-.15-.18A1.09,1.09,0,0,1,272.84,174.58Z"/><path d="M291.49,161.17a.64.64,0,0,0,.74.55c1.42-.31,1.76-1.76,1.5-3.05a4.18,4.18,0,0,0-2.3-2.86s-.1,0-.08,0a7.78,7.78,0,0,1,.6,2.85C291.92,159.56,291.48,160.31,291.49,161.17Z"/><path d="M286.19,159.87a2.33,2.33,0,0,0-.25-2.36,5.48,5.48,0,0,0-1.92-1.38s-.08,0,0,0a7.67,7.67,0,0,1,.68.85,3,3,0,0,1,.26,1.11,5.91,5.91,0,0,0,.39,1.66C285.44,160.14,286,160.28,286.19,159.87Z"/><path d="M240.46,146.46a11.6,11.6,0,0,0,4.65,3,11.54,11.54,0,0,0-.78-5.45c-1.13-2.33-5.1-3.65-5.1-3.65S238.8,144.48,240.46,146.46Z"/><path d="M250.36,157.54s-.6,5.8,1.71,8.58,6.5,4.13,6.5,4.13.48-4.37-1.1-7.62S250.36,157.54,250.36,157.54Z"/><path d="M258.84,157.35c-.46-1.89-3.16-3.49-3.16-3.49s-1,3-.08,4.71a8.69,8.69,0,0,0,3,2.92A8.76,8.76,0,0,0,258.84,157.35Z"/><path d="M244.88,160.83s.35,3.13,1.88,4.33a8.7,8.7,0,0,0,3.9,1.43,8.78,8.78,0,0,0-1.45-3.89C248,161.17,244.88,160.83,244.88,160.83Z"/><path d="M302.12,190.71h0c-9,5.8-19.3,6.72-28.32,2.53a.33.33,0,0,0-.43.28c.11,9.95-5,19-13.94,24.77-10.46,6.76-23.52,7.17-32.51,1-16-10.91-16.29-29.58-11.46-58.15,4.66-27.56,5-43.38,5-48.91v-1.19l1.08.5c5,2.33,19.57,8.49,46.63,15.58,28,7.34,44.91,15.32,48.29,34.35C318.32,172.22,312.58,184,302.12,190.71ZM272.7,192a1.78,1.78,0,0,1,1.73-.12c8.55,4,18.34,3.08,26.87-2.43l.41.63-.4-.63c9.95-6.43,15.43-17.56,13.63-27.69-3.24-18.24-19.76-26-47.2-33.16-25.45-6.66-39.93-12.54-45.8-15.18,0,6.45-.61,22.07-5,48-4.73,28-4.47,46.2,10.83,56.65,8.49,5.81,20.89,5.39,30.84-1,8.53-5.51,13.37-14.07,13.26-23.49A1.79,1.79,0,0,1,272.7,192Z"/><path d="M269.58,123.32c-32.88-8.74-48.5-16.14-51.35-17.57h0a1.11,1.11,0,0,0-.72-.18,1.15,1.15,0,0,0-.37.12h0l-.09.06h0s0,0,0,0a1,1,0,0,0-.22.19h0l-.11.15,0,.09,0,0a1.07,1.07,0,0,0-.08.58h0c.12,3.13.46,20.4-5.1,54.07-5.18,31.31-4.7,51.83,13.11,64.06,10.14,7,24.81,6.59,36.5-1a33.34,33.34,0,0,0,14.37-18.92h.18c15.81,33.59,15.61,63.68,15.61,63.68l44-28.41s-27.55-12.2-51.68-40.47a.31.31,0,0,0,.05-.1,33.32,33.32,0,0,0,23.23-5.31h0c11.68-7.54,18.07-20.76,15.88-32.87C318.76,140.35,300.25,131.47,269.58,123.32ZM301.07,240.7a10.92,10.92,0,0,1,4.27,3.52s0,.09,0,.06c-2.8-3.22-7.57-1.21-10.38-4.16a7.46,7.46,0,0,1-2.07-6.52c0-.17.23-.14.23,0C293.06,239.07,297.61,239,301.07,240.7Zm-7.61-14.17c1.21,5,2.92,8.41,7.12,11.44a.18.18,0,0,1-.15.32c-3.4-1.06-6.68-3.08-7.73-6.74-1.48-5.2-1.65-10.17-4.34-15h0s0,0,0,0h0s0,0,0,0h0c3.31,4.43,7.76,6.63,11.89,10.12,2.91,2.46,3.4,6.28,3,9.82,0,.18-.32.18-.35,0-1-5.07-3.47-8-7.5-11.2a22.7,22.7,0,0,1-3.85-3.79A23.43,23.43,0,0,1,293.46,226.53Zm8.38,1.43c-.15-.07-.1-.27.07-.22a7.49,7.49,0,0,1,5.1,4.57c1.52,3.77-2.27,7.3-.48,11.18,0,0,0,0-.07,0a10.7,10.7,0,0,1-1.46-5.34C304.83,234.29,306.81,230.19,301.84,228Zm3.84-1c4.63,2.39,9.19,3.81,12.09,8.41a10,10,0,0,1,.28,10.69c-3.58,6.26-14.76.34-10.3-6a2,2,0,0,1,1.23-.75c.89-.54,2-.67,2.93-1.27a2.79,2.79,0,0,0,1-3.63,2,2,0,0,0-2.49-1.1,1.43,1.43,0,0,0-.91,1,1.08,1.08,0,0,0,.47.91c0-.2.23-.22.38-.15l.05,0a.27.27,0,0,1,.14.29c-.21,1.26-2.53.47-2.41-.73.17-1.74,2.13-2.46,3.63-1.89s1.89,2.88,1.44,4.27a3.44,3.44,0,0,1-1,1.46,5.71,5.71,0,0,1,2.58.69,3.29,3.29,0,0,1,.7,5.22c-.05.06-.18,0-.13-.08.87-1.51-.76-3.26-2.1-3.71a3.71,3.71,0,0,0-.95-.17c1.14,1.77,0,4.82-1.68,3.61-.45-.32-.14-.86.38-.72.93-1.55-3.76-4.55-3.93-.45-.17,4.27,4.61,4.65,7.28,3.9,5.34-1.51,4.62-7.43,2.43-11.06-2.92-4.82-10.22-7-14.8-9.9a78.63,78.63,0,0,1-17.34-14.73,78.18,78.18,0,0,1,6.3,21.85c.75,5.37-.25,12.93,2.94,17.56,2.41,3.5,7.51,6.6,11.08,2.34,1.79-2.12,3.4-6.64-.56-8.24s-3,4-1.2,3.77c.08-.53.7-.59.81,0,.4,2-2.83,1.8-4,0a4.19,4.19,0,0,0-.24.94c-.14,1.4.79,3.62,2.52,3.44.09,0,.09.13,0,.16a3.3,3.3,0,0,1-4.47-2.78,5.62,5.62,0,0,1,.43-2.64,3.45,3.45,0,0,1-1.73.29c-1.45-.16-3.4-1.39-3.3-3.07s1.55-3.09,3.21-2.53c1.14.38.91,2.83-.32,2.49a.27.27,0,0,1-.21-.24v-.06c0-.16.1-.36.29-.29a1.11,1.11,0,0,0-.64-.8,1.46,1.46,0,0,0-1.26.43,2,2,0,0,0,0,2.73,2.8,2.8,0,0,0,3.73.54c.92-.57,1.51-1.56,2.36-2.15a2,2,0,0,1,1.19-.81c7.58-1.48,8.38,11.15,1.2,11.84a10.08,10.08,0,0,1-9.63-4.65c-3-4.54-2.43-9.28-2.7-14.48a76.9,76.9,0,0,0-6.67-26.35l-.12-.39h0l-.21-.66c.47.45.95.9,1.43,1.33A76.47,76.47,0,0,0,305.68,226.92Zm12.75-65.77c1.88,10.85-4,22.78-14.74,29.7h0c-9.18,5.93-19.7,6.92-28.86,2.71a1.14,1.14,0,0,0-1.06.08,1.1,1.1,0,0,0-.51.94c.06,10.08-5.16,19.26-14.34,25.19-10.71,6.92-24,7.42-33.14,1.24-16.29-11-16.5-30.26-11.37-59.72,5-28.91,5.49-45.47,5.46-51.09,5.1,2.34,20.38,8.75,48.81,16C297.63,133.67,315.06,141.76,318.43,161.15Z"/><g class="cls-71"><path class="cls-72" d="M444.78,274.26l-25.68-69-43.9-118-25.69-69C345.75,8.08,338,10.72,338,10.72l-.41.15h0l-182,67.7s-7.57,3.05-3.8,13.18l3.62,9.72,0-.06L244.22,340v0l2.91,7.81c3.77,10.12,11.5,7.49,11.5,7.49l.4-.15h0l93.94-35,.56-.2L441,287.45a8.38,8.38,0,0,0,3-2.43C445.59,283,446.79,279.64,444.78,274.26Z"/></g><path class="cls-51" d="M340,11,252.88,44.58l-7.41,2.85L158.39,81s-7.54,3.14-3.66,13.22l26.47,68.73,45.25,117.5,26.47,68.73c3.88,10.08,11.58,7.35,11.58,7.35L351.58,323l7.41-2.86,87.08-33.53s7.54-3.14,3.66-13.23l-26.47-68.73L378,87.13,351.54,18.4C347.66,8.31,340,11,340,11Z"/><g class="cls-73"><path class="cls-74" d="M324.08,187.92q-58,22.35-116,44.73l44.87,116.5c3.88,10.08,11.58,7.35,11.58,7.35l181.57-69.92s7.54-3.14,3.66-13.23L404.85,156.81Z"/></g><g class="cls-75"><path class="cls-76" d="M351.14,18.53l26.43,68.63,45.18,117.33,26.43,68.63c3.88,10.07-3.67,13.21-3.67,13.21L358.34,319.9l-7.42,2.86-87.17,33.57a8.21,8.21,0,0,1-3.82.21,8.43,8.43,0,0,0,4.57,0L351.58,323l7.41-2.86,87.08-33.53s7.54-3.14,3.66-13.23l-26.47-68.73L378,87.13,351.54,18.4C347.66,8.31,340,11,340,11l-.4.16S347.26,8.47,351.14,18.53Z"/></g><g class="cls-77"><path class="cls-78" d="M253.32,349l-26.43-68.63L181.71,163.05,155.28,94.42C151.4,84.35,159,81.21,159,81.21l87.17-33.57,7.42-2.86,87.17-33.57a8.37,8.37,0,0,1,3.82-.21A8.43,8.43,0,0,0,340,11L252.88,44.58l-7.41,2.85L158.39,81s-7.54,3.14-3.66,13.22l26.47,68.73,45.25,117.5,26.47,68.73c3.88,10.08,11.58,7.35,11.58,7.35l.4-.15S257.2,359.08,253.32,349Z"/></g><g class="cls-79"><path class="cls-80" d="M158.43,103.81,249.92,341.4l-.15-1.6-23-59.82L160.49,108Q159.46,105.89,158.43,103.81Z"/></g><path class="cls-60" d="M195.34,125.9h0c-6-.84-13.26-7.67-13.49-7.89h0c0,.32-.79,10.22-4.71,14.9h0c6,.85,13.25,7.68,13.48,7.9h0c0-.32.8-10.22,4.71-14.9h0Z"/><path class="cls-60" d="M408.35,241.25h0c6,.85,13.26,7.68,13.49,7.9h0c0-.32.79-10.22,4.71-14.9h0c-6.05-.84-13.26-7.68-13.49-7.89h0c0,.31-.79,10.22-4.71,14.9Z"/><path class="cls-60" d="M420.63,254.55l.33.85a6.51,6.51,0,0,0-1.15.89,1.53,1.53,0,0,0-.41.82,2.23,2.23,0,0,0,.18,1.08,6.52,6.52,0,0,0,.63,1.23c.27.42.6.88,1,1.39l1.51,2,8.11-3.12-.06-1.93a20.23,20.23,0,0,0-.16-2.18,6.1,6.1,0,0,0-.33-1.25,2.1,2.1,0,0,0-1.12-1.33,3.16,3.16,0,0,0-1.87,0l-.33-.85,7.43-2.86.33.85a2.8,2.8,0,0,0-1.26,1.79,12.54,12.54,0,0,0-.33,3.32l.16,22-2.75,1.06-13.39-17.12a19.56,19.56,0,0,0-1.53-1.79,3.53,3.53,0,0,0-1.2-.81,3.15,3.15,0,0,0-1.47-.12l-.33-.85Zm10.3,6.82-7.27,2.8,7.63,9.95Z"/><path class="cls-60" d="M320.26,176.83h0c-12-1.68-26.31-15.24-26.77-15.68h0c-.05.63-1.57,20.29-9.34,29.58h0c12,1.68,26.31,15.24,26.76,15.67v0h0c0-.63,1.57-20.29,9.34-29.58Z"/><g class="cls-81"><path class="cls-82" d="M459.43,317.44l-10.24-72.93L431.7,119.82,421.46,46.89c-1.5-10.7-9.62-9.79-9.62-9.79l-.33,0L319.43,50.07l-5.89.83L219.16,64.14S211.1,65.5,212.6,76.2l1.45,10.27,0-.06,35.38,252.12v0l1.15,8.26c1.51,10.69,9.62,9.78,9.62,9.78l92.41-13,3.93-.55,96.35-13.52a8.4,8.4,0,0,0,5.69-4.52A12.82,12.82,0,0,0,459.43,317.44Z"/></g><path class="cls-51" d="M414,38.9,321.56,51.67l-7.87,1.09L221.25,65.54s-8.06,1.33-6.58,12l10.09,73L242,275.26l10.08,72.95c1.48,10.7,9.6,9.81,9.6,9.81l92.44-12.78,7.86-1.08,92.44-12.78s8.06-1.34,6.58-12l-10.08-72.95L433.67,121.66,423.59,48.71C422.11,38,414,38.9,414,38.9Z"/><g class="cls-83"><path class="cls-84" d="M358.16,207.49,235,224.55l17.08,123.66c1.48,10.7,9.6,9.81,9.6,9.81l192.74-26.64s8.06-1.34,6.58-12l-17.1-123.71Z"/></g><g class="cls-85"><path class="cls-84" d="M233.33,212.58l52.75-7.25,152-21,4.17-.58L423.59,48.71C422.11,38,414,38.9,414,38.9L221.25,65.54s-8.06,1.33-6.58,12l10.09,73Z"/></g><g class="cls-86"><path class="cls-51" d="M423.17,48.75l10.06,72.85,17.21,124.54L460.51,319c1.48,10.69-6.59,12-6.59,12L361.39,343.8l-7.87,1.09L261,357.68a8.3,8.3,0,0,1-3.77-.67,8.43,8.43,0,0,0,4.46,1l92.44-12.78,7.87-1.09,92.43-12.77s8.06-1.34,6.58-12l-10.08-73L433.67,121.66l-10.08-73c-1.48-10.7-9.6-9.8-9.6-9.8l-.43.06S421.69,38.06,423.17,48.75Z"/></g><g class="cls-87"><path class="cls-88" d="M252.5,348.17l-10.07-72.85L225.22,150.78,215.15,77.92c-1.47-10.68,6.59-12,6.59-12l92.53-12.79L322.15,52l92.53-12.78a8.14,8.14,0,0,1,3.77.67,8.3,8.3,0,0,0-4.46-1L321.56,51.67l-7.87,1.09L221.25,65.54s-8.06,1.33-6.58,12l10.09,73L242,275.26l10.08,72.95c1.48,10.7,9.6,9.81,9.6,9.81l.43-.06S254,358.86,252.5,348.17Z"/></g><g class="cls-89"><path class="cls-90" d="M216.08,87.79,250.93,340l.21-1.59-8.77-63.49L217.13,92.3Z"/></g><path d="M237.79,122.49a18.84,18.84,0,0,1-2.24,9.73l3.52-.49,3.52-.48A18.73,18.73,0,0,1,237.79,122.49Z"/><path d="M242,115.63a5.17,5.17,0,0,0-1.92.67l-.05,0a5.14,5.14,0,1,0-5.87,1,5.15,5.15,0,1,0,3.47,4.39h0a5.15,5.15,0,1,0,4.36-6Z"/><g id="Artwork_4" data-name="Artwork 4"><path class="cls-91" d="M264.81,198.28c67.59,0,122.38,55.43,122.38,123.81s-54.79,123.8-122.38,123.8-122.37-55.43-122.37-123.8,54.79-123.81,122.37-123.81"/></g><text class="cls-92" transform="translate(16.88 414.47)"><tspan xml:space="preserve">P   KER</tspan></text><text class="cls-93" transform="translate(16.88 414.47)"><tspan xml:space="preserve">P   KER</tspan></text><g id="Artwork_4-2" data-name="Artwork 4"><g class="cls-94"><g class="cls-94"><path class="cls-95" d="M264.81,198.28c67.59,0,122.38,55.43,122.38,123.81s-54.79,123.8-122.38,123.8-122.37-55.43-122.37-123.8,54.79-123.81,122.37-123.81"/><path class="cls-51" d="M226.33,431.87c5,1.71,21.83,7.17,22.54,1.83.39-2.92-8.44-5.94-20.5-12.3A193,193,0,0,1,182,387.14a106.46,106.46,0,0,1-31.87-74c-1-37.46,13.7-67.74,37.72-87.27a123.48,123.48,0,0,0-48,94.72c-.71,27.13,6.86,49.92,21.09,70.72a80.34,80.34,0,0,0,15.37,15.12c13.62,10.32,33.56,19.86,50.06,25.48"/><path class="cls-51" d="M389.45,293.58c-7.6-35.68-31.13-60.67-62.72-78.32,24.12,17.19,58.08,53.7,38.06,85.93-17,25.81-58.24,20.75-80.79,8.53-26.75-14.59-60.37-47.33-27.27-79.32,21.44-20.71,89.75,2.49,77.68,33.46-7,18-34.27,14-46.55,5.2-9-6.5-16.65-17.66-12.63-29.19,1.25-3.74,1.11-9.43-4.11-5.21-3.88,3.15-5.85,8.35-6.54,13.16-5.7,40.36,66.14,71.63,87.52,32.59,11.07-20.26-6.87-49.66-29.45-61.74-17-9.09-34.64-15.48-56.28-13.92-34.61,2.49-63.66,24.12-67.25,59.49-3.61,35.1,19.85,66.78,47.53,85.7,29.07,19.92,68.2,33,104,21.17,32.07-10.64,45.32-47.45,38.87-77.5"/><path class="cls-96" d="M343.74,266.37c3.44-23.12-17.44-39-36.78-46.21-22.76-8.52-52.83-4.78-69.41,14.07-12.16,13.85-11.33,34-5.09,50.2,9.45,24.58,30.81,42.34,55.65,50,17.66,5.44,39,7.82,56.91,2.07,26.09-8.4,34.58-35.62,29.19-60.55a72.15,72.15,0,0,0-5.28-15.61c-3.3-6.92-13.4-20.93.52-3.87a62.9,62.9,0,0,1,4,6,66.26,66.26,0,0,1,6.77,15c7.58,23.27,1.63,50.43-19.44,64.47-16.19,10.76-36.65,12-55.36,9.35-25.11-3.59-48.77-15.81-65.17-35.27-15-17.78-25.26-43.31-19.08-66.69,4.51-17.09,18.38-29.83,35-35.21,21-6.8,44.13-3.65,63.06,7.4,9.48,5.53,18.15,13.16,23,23.17a34.24,34.24,0,0,1,3.46,14.46,30.23,30.23,0,0,1-.47,6.08c-.14.72-1.67,2.78-1.46,1.08"/></g></g></g><text class="cls-97" transform="translate(333.14 205.96)">CHARITY</text><text class="cls-98" transform="translate(333.14 205.96)">CHARITY</text><text class="cls-99" transform="translate(121.44 143.59) rotate(-32.5)">A</text><text class="cls-99" transform="translate(226.07 105.57) rotate(-5.99)">A</text><text class="cls-100" transform="translate(171.01 119.59) rotate(-20.41)">A</text><text class="cls-100" transform="translate(79.28 182.49) rotate(-46.71)">A</text></g></g></g></svg>