<svg xmlns="http://www.w3.org/2000/svg" xmlns:xlink="http://www.w3.org/1999/xlink" viewBox="0 0 1451.6 1408.18"><defs><style>.cls-1{fill:none;}.cls-2{clip-path:url(#clip-path);}.cls-3{clip-path:url(#clip-path-3);}.cls-4{opacity:0.1;}.cls-5{clip-path:url(#clip-path-4);}.cls-6{clip-path:url(#clip-path-5);}.cls-7{fill:#3fe0c5;}.cls-8{clip-path:url(#clip-path-6);}.cls-9{clip-path:url(#clip-path-7);}</style><clipPath id="clip-path" transform="translate(218.74 211.16)"><rect class="cls-1" width="1000" height="1000.66"/></clipPath><clipPath id="clip-path-3" transform="translate(218.74 211.16)"><rect class="cls-1" width="1000" height="1000.66"/></clipPath><clipPath id="clip-path-4" transform="translate(218.74 211.16)"><rect class="cls-1" x="-935.52" y="-932.56" width="2871.04" height="2866.44"/></clipPath><clipPath id="clip-path-5" transform="translate(218.74 211.16)"><rect class="cls-1" x="-935.52" y="-932.56" width="2871.03" height="2866.44"/></clipPath><clipPath id="clip-path-6" transform="translate(218.74 211.16)"><rect class="cls-1" y="0.66" width="1000" height="1000"/></clipPath><clipPath id="clip-path-7" transform="translate(218.74 211.16)"><rect class="cls-1" x="-218.74" y="-211.16" width="1451.6" height="1408.19"/></clipPath></defs><g id="Layer_2" data-name="Layer 2"><g id="Layer_1-2" data-name="Layer 1"><g id="Artwork_117" data-name="Artwork 117"><g class="cls-2"><g class="cls-2"><rect class="cls-7" x="218.74" y="211.82" width="1000" height="1000"/><g class="cls-8"><g class="cls-4"><g class="cls-9"><path d="M310.91,1171.89c-21-5.86-42.42-11.68-62.72-19.76-24.9-63.61-38.15-131.29-40.37-200-2.25-83.73,13.09-164.74,53.2-242.37,2.66-5,4.92-9.48,7.58-14.46,29.09-52.11,62.3-93,109.58-130.79,3.33-2.45,5.83-4.4,8.72-6.81,2.49-2,4.58-3.42,7.08-5.37.84-.51,1.28-.55,2.13-1a341.33,341.33,0,0,1,35.28-23c.4-.47,1.24-1,1.64-1.44,13.54-7.67,72.76-33.14,72.76-33.14S476.36,512.32,465,521c-14.59,11.16-27.45,21-40.53,33.77-3.26,3.3-6.11,6.14-9.41,9-.4.47-.77,1.36-1.17,1.83-9.89,8.63-16.58,18.27-25.51,27.69-.81.93-1.53,2.72-2.34,3.65-2.05,1.91-3.58,4.63-5.59,7-.41.46-1.25,1-1.65,1.44-1.94,3.18-4.35,6-6.29,9.17-.4.47-1.24,1-1.65,1.44C363,627.47,355.89,637.57,349,649.81c-2.22,4.94-5,9.06-7.66,13.6-.37.9-.33,1.32-.69,2.22-37,67.46-51.69,136.35-53.5,209.69.17,11.6.29,22.78.89,34.35.32,13.31,2,26.51,3.16,39.75,1,5.93,1.49,11.48,2.47,17.42,2,11.88,4.34,23.28,6.74,35.12a229.74,229.74,0,0,0,6.06,22.7c3.33,12.18,6.1,23.12,10.31,35.23l7.16,20c2.82,6.63,5.21,13.3,8,19.93,12.53,30.3,28,58.61,44.31,86.41-21.72-4.07-43.92-8.53-65.36-14.36m-183.47-76.05c-38.1-22.84-74.63-48-108-77.25,2.35-91.89,21.45-180.55,66.63-266,2.71-4.55,4.56-8.59,7.26-13.13,8.87-15,16.58-28.18,26.45-42,6-7.85,11-15.62,17.47-23.09a9,9,0,0,0,1.13-2.25,561.16,561.16,0,0,1,43.26-47.79c6.56-6.19,12.75-11.48,19.31-17.66,10.29-9.11,19.9-16,30.67-24.71.85-.51,1.29-.55,2.13-1,37.91-28.37,76.63-47.78,120.58-63.35a411.12,411.12,0,0,1,53.82-14.73,447,447,0,0,1,63.75-8.31c16.15-.73,33.91-.87,33.91-.87-73.34,12.43-140.32,44-187.9,78.41-.85.5-1.29.54-2.13,1-8.72,6.81-16.2,12.64-24.89,19.88-5.35,4.79-9.89,8.64-15.24,13.42-8.2,7.63-15.56,14.74-22.85,22.71-3.22,3.74-6.07,6.58-9.29,10.31-4.8,6-9.63,11.62-14.86,17.69-6.84,7.93-11.88,16.13-18.24,24.45l-2.3,4.08c-45.61,66.08-70.86,135.92-83.38,213.66-1.43,8.74-2.46,17-3.45,25.71A569,569,0,0,0,118,996.83l.5,5.55c-.76,11.25.65,21.89,1.18,32.6a564,564,0,0,0,7.74,60.86M510.24,1197c-2.6-4.07-6-7.21-9.43-10.78-.52-.81-1-1.62-1.55-2.44-98.28-112.55-151.58-244.2-142-389.25L357,792a448.08,448.08,0,0,1,12.44-78.6c.69-2.21,1.42-4,2.11-6.21C378,680.78,387.86,656.65,399,632c.77-1.36,1.57-2.29,2.34-3.65.36-.9.32-1.32.69-2.22.76-1.36,1.57-2.29,2.33-3.65.37-.89.33-1.32.69-2.21.77-1.36,1.57-2.3,2.34-3.66.36-.89.32-1.32.69-2.21,1.93-3.19,3.91-6,5.36-9.52,5.77-10,11.21-18.66,17.5-27.83,3.58-4.63,6.68-9.64,10.27-14.27a22.34,22.34,0,0,0,4-5.09c.41-.47,1.25-1,1.65-1.44,10.72-14.3,22.47-27,34.7-39.27,2.85-3.13,12.47-12.86,24.3-23.11-1.66,2.44-14.26,18.49-19.95,27s-33.66,55.54-45.55,86.31c-15.53,39.7-23.48,79.58-26.74,122.06-.27,6.91-.57,13.39-.83,20.3s.36,13.74.09,20.65c.26,7.73.92,15,1.17,22.71a396.32,396.32,0,0,0,6.35,45.48l.42,4.7a18.18,18.18,0,0,0,1.31,4.62c17.09,85.41,54.13,160.42,112.52,230.49,1,1.63,2,2.83,3.08,4.46,13.9,16,25.77,29.11,40.43,43.72a74.14,74.14,0,0,0,6.28,5.46c3.4,3.14,6.4,6.74,9.79,9.88,8.2,7,15.44,13.25,23.19,20.3,6.24,5,11.56,9.72,17.76,14.33,2.36,1.51,4.32,3.48,7.12,5a4.37,4.37,0,0,1,2,2c-44.14,8.7-89.14,12.74-134,13.76M-71.45,923.46c-27.55-34.11-50.89-70.75-71.25-109,11.1-24.67,21.4-48.41,36.56-72.59l1.09-2.68c1.94-3.18,3.47-5.9,5.85-9.13l1.09-2.68c25.71-40.19,51.45-75.21,84.88-108.78.84-.5,1.24-1,2.09-1.48a511.88,511.88,0,0,1,45.2-41.07c35.66-28.6,70.18-50.21,110.3-68.88,1.72-.59,3-1.13,4.73-1.72,99.92-46,215.07-56.33,320.7-24.5,1.37.3,34.64,11.21,36,12.68-1.71-.26-36.93-5.65-38.64-5.87-25.41-3.32-51.24-3.32-76.95-1.81a462.17,462.17,0,0,0-125.67,26.78c-52.07,19.31-96,44.78-140.4,80.19-.85.51-.77,1.36-1.61,1.87C41.28,660.67-10.14,741.05-45,832.84c-2.47,7.11-5,13.79-7.44,20.9-.73,1.79-.58,3.5-1.3,5.28-7.85,21.37-12.57,42.88-17.74,64.44M773,1146.31c-12.64-7-24.73-12.84-37.46-20.74l-2.76-1c-16-10.18-31.14-19.59-46.78-30.23-2.88-2.33-5.72-4.22-9-6.51-2.36-1.51-3.88-3.52-6.24-5-1.44-1.17-3.28-1.86-4.72-3-9.64-8.18-19.6-15-28.87-24.1-1-.77-1.4-.73-2.36-1.51-20.87-19.21-40.26-36.84-58.31-59.32-.52-.81-1.4-.74-1.92-1.55-13.06-16.47-24.6-30.93-36.37-48-6.67-9.73-12.41-19.12-18.19-28.93-7.38-12.68-13.43-25.48-19.93-38.24-.59-1.67-1.15-2.91-1.75-4.57C459,789.28,446.12,695.75,465.82,604c.33-1.32.17-3,.5-4.35,1.34-4.85,2.24-9.67,3.57-14.52,1.63-6.6,3.77-12.39,5.4-19a348.38,348.38,0,0,1,16.18-42.35c2.43-5.17,13.91-29.26,14.34-30s-6,24.13-7.89,32.4a88.5,88.5,0,0,0-2.16,10.52C480.24,610.91,486,684,511.64,756.15,537.9,830,580,891.62,637.77,945.39c2.44,2.37,4.84,4.3,7.28,6.67,31,28.2,61.9,50,99,71.59,2.84,1.9,5.68,3.8,9,5.65,21.49,11.42,40.19,21.36,61.85,29.74.92.35,1.44,1.16,2.36,1.51,20.75,8,40.57,15.73,61.6,22l5.53,2.09c2.72.62,5.52,2.09,8.21,2.27-11,6.59-22,12.74-32.94,19.32l-3.86,1.64A788.61,788.61,0,0,1,773,1146.31M-191.83,694.53c-7.43-23-12.64-46.21-17.46-69.88-.11-1.28.17-3-.39-4.27-.63-2.1-.79-3.81-1.42-5.9-2.76-15.68-5.07-31.4-6.5-47.19,13.8-14.59,28.2-27.5,43.4-41.35l2.53-1.52c6.59-5.76,12.35-11,19.46-15.95,1.69-1,2.45-2.37,4.1-3.81a26.88,26.88,0,0,1,4.62-3c17-14,33.36-24.52,51.45-36,3.41-1.6,6.3-4,9.28-5.57A35.62,35.62,0,0,0-76,456a24.75,24.75,0,0,0,4.66-2.57c.84-.51,1.72-.59,2.57-1.09a291.12,291.12,0,0,1,30.56-16.09c.85-.51,1.25-1,2.09-1.48,55-26,112.94-44.58,173.64-52.19a537.84,537.84,0,0,1,90.87-3.43c16.55,1.1,32.27,2.7,48.94,5.08,8.58,1.38,16.31,3.26,24.89,4.65,6.81,1.54,13.18,3.12,20,4.66,5.93,1.62,11.42,3.27,17.38,5.32,51.64,15.16,99.64,39.26,140.91,72.57,4.94,3.62,11.93,7.95,25.39,22.27C497.2,486,471.78,473.5,469,472c-60.93-29.39-123.68-44.41-190.44-44.87-1.32.12-3.16-.58-4.49-.46-8.42.33-16.84.65-25.3.55-5.33.05-11,1-16.32,1.47-16.41.61-32.61,3.36-49.26,6.15-1.33.11-3,1.13-4.34,1.25-21,3.61-40.09,9.19-60.88,15.37-6.46,2.3-12.08,4.09-18.54,6.4a77.51,77.51,0,0,0-9,3.82c-2.16.62-4.73,1.71-6.9,2.34-9.44,3.86-18.39,8.11-27.35,12.36-11.52,5.34-22.61,10.64-33.61,16.79a572.91,572.91,0,0,0-92.12,63.37,27.46,27.46,0,0,1-3.66,3.77A427.59,427.59,0,0,0-109,592.82c-4.47,4.71-9,9-13.44,13.69-.8.93-.76,1.36-1.57,2.3a640.54,640.54,0,0,0-67.84,85.72M999.25,1007.61c-9.5-1.73-19.28-1.71-28.82-3.86-2.69-.19-5.41-.81-8.54-1a652,652,0,0,1-111-27c-8.29-3.12-16.58-6.25-25.31-9.34-1.4-.74-3.24-1.43-4.65-2.17-.92-.35-1.8-.27-2.72-.61-76.21-31-141.35-72.53-197.61-133.76-4.43-4.77-7.94-9.19-12.38-14-18.49-22.44-34.18-43.42-47.5-67.62a17.6,17.6,0,0,1-2.55-3.64c-8-14.35-15.06-28.78-21.79-44.1-1.15-2.91-1.83-5.43-3-8.34a397.53,397.53,0,0,1-20.71-66.57,407.73,407.73,0,0,1-8.46-98.24c0-2,1.21-31.47,1.68-33.59.33.09,4.17,31.12,4.53,33.46,7.7,50.53,25.42,98.87,51.74,143.85.48.39,1,1.2,1.48,1.59,7.45,13.53,16.59,26,25.77,39,1,1.2,2,2,3,3.18,3.59,5.27,7.51,9.22,11.5,14,.52.82.56,1.24,1.08,2.06a473.67,473.67,0,0,0,48.48,49,12,12,0,0,1,3.8,2.67c15.51,14.11,32.07,25.1,49.2,37.34l4.2,2.2c10.92,7.63,21.69,13.55,33.41,20.24a385.78,385.78,0,0,0,40,19.22c4.16,1.78,7.89,3.6,12,5.37,7.81,2.75,15.66,5.91,23.51,9.08,13.78,4.79,27.55,9.58,42.1,13,.92.35,1.4.73,2.32,1.08,53.8,14.54,108.72,21.65,164.81,22.21,6.66-.17,13.35.09,20-.08l5.73-.51c11.59.25,23.06-.78,34.53-1.81-26.58,35.53-57,68-89.89,97.6M-218.74,437A688.91,688.91,0,0,1-195.15,309.6c27-11.89,53.53-22.89,82.47-32.38,1.73-.58,3.93-.78,5.66-1.36C-45.65,256.14,15,247.68,78,246.75c1.77-.16,3.17.57,4.93.41,121-.1,239.3,39.2,329,121.09.48.39,1.4.74,1.88,1.13,20,18.21,54.73,63.73,75.45,94.29,11.35,16.76,17.06,30.83,16.6,30a318.67,318.67,0,0,0-22.29-27.85c-11.33-12.45-25.8-26.14-26-26.34-30.26-29.56-62.47-51.2-101.18-71-.92-.35-1.36-.31-2.28-.65-14.05-7.78-27.38-12.61-41.68-18.21-.48-.39-1.4-.74-1.88-1.12a503.56,503.56,0,0,0-179.78-30.34l-4.85.44c-91.07,1.29-179.13,26-259.46,67.21-1.68,1-3.45,1.17-5.13,2.19-9.32,5.14-18.24,9.81-27.12,14.91-7.15,4.52-14.34,8.61-21.94,13.17-1.68,1-2.89,2.41-4.58,3.42-9.28,5.57-17.64,11.48-26.44,17.44m1377.82,361.3c-99.45,26.58-205.32,31.36-306.65,7.75-.92-.35-1.77.16-2.69-.19-71-17.3-136.3-46.29-194.18-91a467.35,467.35,0,0,1-63.72-60.13c-.51-.81-.55-1.24-1.07-2a379.62,379.62,0,0,1-57.7-86.93c-6.09-13.23-12.14-26-16.51-39.84-3.4-9.92-9.83-30.31-10.5-32.14,1.63,2.11,16.52,29.88,16.52,29.88,6.38,11.48,13.53,21.6,21.19,32.53,5,6.43,9.14,12.52,15,18.45.51.81.55,1.24,1.07,2.06,8.39,9.14,15.34,17.13,23.7,25.84,3.39,3.14,6.31,5.89,9.27,9.07,13.07,11.74,24.74,22.74,39.43,32.61.48.39,1,1.21,1.48,1.59,3.8,2.67,7.16,5.39,11.36,7.59.48.39,1,1.2,1.48,1.59a457.56,457.56,0,0,0,42.82,25.85c5.08,2.13,9.32,4.76,14.45,7.31.92.35,1.36.31,2.28.66,31.27,16.13,62.35,25.39,95.2,34.49,1.81.26,3.17.57,5,.84,135.1,33.06,277.49,9.07,400.78-48.92a656.18,656.18,0,0,1-28.22,81.3c-3,6.3-5.53,12.55-8.48,19.27-1.17,1.83-1.9,3.62-3.06,5.45-.77,1.36-.65,2.64-1.42,4-1.17,1.82-1.9,3.61-3.07,5.44-.4.46-.28,1.74-.69,2.21-1.16,1.83-1.85,4-3.06,5.44M496.93,461.35s-4.1-10.83-5.93-16.26c-5.17-12.88-11.58-24.79-17.6-37.16-2.67-4.93-5.78-9.81-8.89-14.7-1.56-2.44-5.27-9-5.75-9.38-6.89-12.29-15.4-22.72-23.58-34.47l-4.44-4.76c-.52-.82-.55-1.24-1.07-2.06-13.9-16-25.89-30.39-41.36-44.06-13.51-11.7-26.07-22.62-40.39-33.39A511.88,511.88,0,0,0,282,224.55c-6-2.9-11.21-5.88-17.17-7.92-4.17-1.78-7.05-4.11-11.13-5-2.29-.66-4.21-2.21-6.53-3.29-74.88-31.15-153-43.93-233.39-42.73-17.76.3-35,1.42-52.22,3-12.31,1.53-24.22,2.6-36.5,4.57-25,4.39-49.47,8.75-73.31,15.62,5.21-11.23,10.94-21.64,17.47-33,7.34-12.28,13.47-23.16,21.29-35,10.63-15.16,20-29.78,31.18-43.69,38.86-3.07,76.19-3.41,116.56.28a663.29,663.29,0,0,1,111.69,20.1c9.13,2.62,18.26,5.25,27.43,8.3,8.26,2.7,16.11,5.87,24.36,8.57,7.85,3.17,15.29,6.8,23.54,9.5,2.33,1.09,4.21,2.21,6.53,3.29,28.75,12.91,54,26.57,79.61,44.07.92.35,1.4.73,2.32,1.08,14.32,10.77,28.08,20.29,41.16,32,1.92,1.55,3.8,2.67,5.72,4.22,38.22,34,70.09,71.61,94.09,115.51.48.39,1,1.2,1.48,1.59,8,14.77,15.14,29.63,21.9,45.38a467.7,467.7,0,0,1,17.31,53.54c7.77,27.39,10.82,68.27,10.7,69.25-.25-1.08-9.13-32.37-9.13-32.38Zm31.56,58.71c-5.22-6.43-21-24.69-22.42-26.34,1.54.76,21.47,17.59,26.92,22.06,7.24,6.23,14.8,11.15,22.89,16.88,4.28,3.06,8.48,5.26,12.76,8.32,5.2,3.41,9.88,6,15.05,9,.92.35,1.36.31,2.28.66,35.18,20.08,69.7,32.9,107.52,42.85a369.65,369.65,0,0,0,44.84,8.88c11.71,1.53,22.53,3.14,34.59,3.78l2.65-.24c116.86,8.44,226.91-23.83,323.75-84.18.84-.5,1.72-.58,2.56-1.09a649.8,649.8,0,0,0,127.17-103.53c4.39,43.51,5.25,87.33,1.18,130.74-7.11,4.94-13.79,9.85-21.38,14.4-.84.51-1.21,1.4-2,1.91-111.31,72.41-237.55,112.59-373.28,102-2.69-.19-4.93-.42-7.62-.61-12.14-1.49-23.37-2.63-35.55-4.55l-23.08-4.38C753.64,653.49,740,650,726.72,646a18,18,0,0,0-4.16-1.78,218.18,218.18,0,0,1-28-10c-1.4-.74-3.16-.58-4.56-1.32-15.3-6.8-30-12.36-44.64-21.38-.93-.35-1.37-.31-2.29-.66-11.69-6.26-21.57-12.26-32.45-19.46-.48-.39-1-1.2-1.48-1.59-31.17-20-56.44-43.57-80.61-69.8M508.8,459.84c2.44-61.34-9.79-122.65-35.42-179.74-.56-1.24-1.56-2.45-2.12-3.69-8.51-20.32-19.52-38.7-31.44-57.43-21.67-32.92-46.11-62.14-76.1-88.72-.52-.81-1-1.2-1.52-2a530,530,0,0,0-94.28-68.58c-7.05-4.1-13.57-7.39-20.58-11.06-10.29-5.54-20-9.83-30.26-14.93-9.25-3.91-17.58-7.46-26.83-11.36-.92-.35-1.81-.27-2.73-.62C155.65,8.64,124.16-.15,90.58-7.47,82.85-9.36,76-10.9,68.34-12.36c-.92-.35-2.2.2-3.12-.15L57-14.36c-15.75-2-30.66-4.56-45.89-5.77A488.8,488.8,0,0,1,49.59-52.42a18.29,18.29,0,0,1,2.86-2.84c3.33-2.45,6.23-4.87,9.56-7.32,10.85-7.86,20.46-14.75,31.35-22.18,8-5,15.51-10.44,23.55-15,3.16.57,5.93,1.62,8.65,2.23l5.53,2.09c22.83,6.56,44.5,14.94,66.68,24.14,14.82,6.41,27.79,12.14,42.32,20.3,1.84.7,3.24,1.43,5.09,2.13,46.31,25.1,85.08,50.46,122.46,85,2.95,3.18,6.27,5.46,9.23,8.64.52.81,1,1.2,1.52,2,10.11,8.56,18.14,18.6,27.89,28.06,1,1.2,2,2.83,3,4,4.87,4.73,8.43,9.57,12.46,14.8,1,1.21,2.44,2.37,3.44,3.57s1.59,2.87,2.59,4.07C511.55,205.65,544.29,336.14,515.57,461c-4.77,17.17-9.5,32.44-9.5,32.59s2.34-18.28,2.73-33.71m27.78,51.31c-3-1.72-28.51-16.56-30.52-17.43,3.87,1.67,28.18,10,33.1,11.6a442.46,442.46,0,0,0,240.14,4.25l2.64-.23c72.56-19,132.93-49.82,192.23-97.33.84-.51.76-1.36,1.61-1.87,57.69-45.64,97.26-94.82,134.87-155.88l1.1-2.68c17.09-27.36,28.88-54.24,41.48-82.06,20,38.67,36.92,78.46,49.57,119.94-20.31,31.09-42.58,60.21-69,88-.81.94-.77,1.36-1.57,2.3-56.41,59.73-120.68,106.39-196.09,138.13-2.13,1.06-4.7,2.15-6.83,3.2-.84.5-1.76.16-2.61.66a489.71,489.71,0,0,1-106.19,30.64,444,444,0,0,1-58.17,6.08A452.7,452.7,0,0,1,597.16,536.7c-4.12-1.35-8.29-3.13-12.41-4.48C570.93,527,558,521.28,544.51,515.17c-2.81-1.47-5.39-2.67-7.93-4M522,463.39c6.18-15.19,12.33-30.81,17.11-46.73l4-14.57c3.9-15.84,6.56-30.71,9.1-46.87,1.35-9.59,1.86-18.67,2.77-28.23a397.55,397.55,0,0,0-5.93-99.75l-.42-4.7c-.91-5.08-2.25-10.13-3.2-15.64-2.81-11.36-5.1-21.92-8.79-33.21a34.87,34.87,0,0,0-2.35-6.24c-4.92-15.06-9.77-29.26-16.41-43.72-.52-.82-.16-1.71-.68-2.53L514,115c-.51-.82-.15-1.71-.67-2.52C506.85,99.76,500.79,87,493.42,74.28c-3.63-5.7-6.78-11-10-16.76C471.56,39.22,459.82,22.63,445.77,5c-5-6-9.51-11.62-14.94-17.59-4.92-5.16-8.91-10-13.83-15.12-4.43-4.76-8.35-8.71-12.74-13a601.56,601.56,0,0,0-67-57.26c-19-13.78-37.45-25.47-58.18-38.24l-2.76-1-7.08-4.53c-11.69-6.27-22-12.23-33.15-17.26,7.67-3.7,16.34-6.2,24.49-9.51,6.47-2.31,13-3.75,19.43-6.48,13.81-4.69,26.85-8,40.74-11.84,14.81-3.48,29.17-6.93,43.58-9.94,13.84,10.38,27.2,20.37,39.87,32.57,1,.78,1.4.74,2.36,1.51,6.8,6.28,13.55,12.13,20.39,18.83,16.58,16.16,30.89,31.66,46.75,49.6,1,1.63,2,2.83,3.07,4.46,2.48,2.79,4.48,5.19,6.95,8a542.07,542.07,0,0,1,48.21,70.57C534.62-6,537.29-1.12,540.44,4.2c6,11.94,11.91,23.46,17.49,35.87,4.49,10.36,8.55,20.75,12.64,31.58,29.53,80.42,37.52,163.63,19.73,247a437.24,437.24,0,0,1-20.15,67.24c-2.95,6.72-5.46,13.4-8.41,20.12-9.61,21.52-21.18,41.07-34.12,60.31-4.78,6.06-19,24.47-21.53,27.28.38-.48,12.21-22.57,15.93-30.22m19.27,35.29c-10-1.39-35.38-4.95-35.22-5s24.52-.34,35.56-1.1,52.42-5.57,79-12.25c13.48-3.37,25.6-7,38.53-11.64A498,498,0,0,0,719,442.68a18,18,0,0,0,3.78-2.49A445.21,445.21,0,0,0,832,358.93c1.61-1.86,3.74-2.91,5.35-4.78C852.4,339,864.8,323.7,877.53,307.06a390,390,0,0,0,39.05-59.89c.77-1.36,2-2.76,2.74-4.12,11-21.22,20.78-40.61,29.07-62,6.07-16.47,11.78-32,16.92-48.87C981.25,77.37,989.13,22,990.24-34.49c9.71,9,19.39,17.63,29.54,26.62,1,.77,1.52,2,2.52,3.21,3.92,4,7.75,7.05,11.67,11,6.84,6.7,12.31,13.1,19.18,20.23,6.47,7.59,12.35,13.52,18.38,21.16,3.51,4.42,6.55,8.45,10,12.44-12.94,58.41-31.08,113.41-61.22,168.63-38.81,72.35-86.55,129.59-153.2,179.48-2.09,1.48-3.77,2.49-5.86,4-93.86,68.69-207.11,100-320,86.42M566.67,431a77.43,77.43,0,0,1,5.16-6.92,95.61,95.61,0,0,0,7.45-11c.77-1.36,2.05-1.9,2.82-3.26,5.48-8.24,10.16-15.55,15.16-24.18,1.45-3.57,3.87-6.37,5.36-9.52a24.32,24.32,0,0,1,3-5.87c.36-.89.32-1.32.69-2.21.76-1.36,1.57-2.29,2.33-3.65.37-.9.33-1.32.69-2.22,17.8-34.31,28.53-68,36.75-104.88,1.23-6.14,2-11.8,3.27-17.94,7.94-49.78,7.58-98,.48-146.82-.94-5.51-1.93-11.45-2.87-17-.16-1.7-1.16-2.91-1.31-4.61a41.06,41.06,0,0,0-1.54-7.18,392.8,392.8,0,0,0-9.26-38.34c-3.13-10-5.75-19.28-9.29-28.86A618.57,618.57,0,0,0,591-81.26c-3.15-5.31-5.9-11.09-9.05-16.41-5.22-8.57-10-16.75-15.63-25.28-3.59-5.27-6.3-10.62-10.34-15.86-11.17-15.35-21.31-29.07-33.37-44.34-1.48-1.59-2.88-2.33-3.92-4-4.59-6.47-9.91-11.16-14.9-17.17a38.74,38.74,0,0,0-5.47-6.39,217.65,217.65,0,0,1,23.1-.35l10.7.33c1.32-.12,3.17.57,4.49.45,32.52.53,64,4.58,95.6,9.49,11,18.38,22,36.76,31.34,56.16,3.34,7.44,7.12,14.85,10.51,22.72,3.5,9.16,7.84,17.81,11.38,27.39,1.9,6.28,4.17,11.68,6.47,17.5.6,1.66.76,3.37,1.35,5,8.71,22.46,13.85,44.81,19.07,68,1,5.94,2.36,11.41,3.35,17.35l.46,5.12A487.75,487.75,0,0,1,698,260.35a17.27,17.27,0,0,1-1.86,4c-7,20.86-15.93,40.17-26.58,60.06-.36.9-.32,1.32-.69,2.22-2.7,4.54-5,8.62-7.66,13.6-10,17.25-20.68,32-32.6,47.69-12,14.42-23.26,27.92-37.22,40.79-.4.47-.77,1.36-1.17,1.83A507.68,507.68,0,0,1,536,475.05c-3.59,2.39-26.66,16.75-29.89,18.61,1.54-2,20.95-18,25.9-23.42s23.5-25.35,34.69-39.27M541,486.65c-6,1.22-31.61,6.52-35,7.07,2.19-1.1,28.56-10.44,33.14-12.5,9.36-4.72,18.8-8.58,27.67-13.68,4.66-2.57,8.88-5.1,13.54-7.67.4-.47,1.25-1,1.65-1.44a305.69,305.69,0,0,0,33.15-21.92c.85-.51,1.29-.55,2.13-1.05,2.49-1.95,4.59-3.43,7.08-5.37l4.94-4.32c1.25-1,2.53-1.52,3.78-2.49,6.59-5.76,12.38-10.58,18.58-15.87,7.4-6.7,13.91-13.31,20.83-20.39,2-2.33,4.07-4.23,6.08-6.57.4-.46.77-1.36,1.17-1.82,34-36.63,59.31-76.78,80.11-122.12,1.86-4,3.24-8.47,5.54-12.55.76-1.36.61-3.07,1.38-4.43,13.46-33.06,22-66.11,28.6-101.57.28-1.75.13-3.45.41-5.2,16.82-103.95,1.44-205-35.22-300.28,2.76,1,5.52,2.08,7.81,2.74,40.05,14.91,76.84,33.12,113.34,53.09,25.28,141.49,5.83,290-80.23,415.25Q737.3,397.13,638.23,449.94c-1.29.54-3,1.13-4.3,1.67a416.72,416.72,0,0,1-92.9,35" transform="translate(218.74 211.16)"/></g></g></g></g></g></g></g></g></svg>