<svg xmlns="http://www.w3.org/2000/svg" xmlns:xlink="http://www.w3.org/1999/xlink" viewBox="0 0 1290.81 1054.6"><defs><style>.cls-1{isolation:isolate;}.cls-2{clip-path:url(#clip-path);}.cls-3{fill:none;}.cls-4{clip-path:url(#clip-path-2);}.cls-5{mask:url(#mask);}.cls-10,.cls-14,.cls-18,.cls-22,.cls-25,.cls-29,.cls-33,.cls-37,.cls-41,.cls-45,.cls-48,.cls-52,.cls-56,.cls-6,.cls-60,.cls-64,.cls-68,.cls-72,.cls-75,.cls-79,.cls-82,.cls-88{mix-blend-mode:multiply;}.cls-6{fill:url(#linear-gradient);}.cls-7{clip-path:url(#clip-path-3);}.cls-8{clip-path:url(#clip-path-4);}.cls-9{mask:url(#mask-2);}.cls-10{fill:url(#linear-gradient-2);}.cls-11{clip-path:url(#clip-path-5);}.cls-12{clip-path:url(#clip-path-6);}.cls-13{mask:url(#mask-3);}.cls-14{fill:url(#radial-gradient);}.cls-15{clip-path:url(#clip-path-7);}.cls-16{clip-path:url(#clip-path-8);}.cls-17{mask:url(#mask-4);}.cls-18{fill:url(#radial-gradient-2);}.cls-19{clip-path:url(#clip-path-9);}.cls-20{clip-path:url(#clip-path-10);}.cls-21{mask:url(#mask-5);}.cls-22{fill:url(#radial-gradient-3);}.cls-23{clip-path:url(#clip-path-11);}.cls-24{mask:url(#mask-6);}.cls-25{fill:url(#radial-gradient-4);}.cls-26{clip-path:url(#clip-path-12);}.cls-27{clip-path:url(#clip-path-13);}.cls-28{mask:url(#mask-7);}.cls-29{fill:url(#radial-gradient-5);}.cls-30{clip-path:url(#clip-path-14);}.cls-31{clip-path:url(#clip-path-15);}.cls-32{mask:url(#mask-8);}.cls-33{fill:url(#linear-gradient-3);}.cls-34{clip-path:url(#clip-path-16);}.cls-35{clip-path:url(#clip-path-17);}.cls-36{mask:url(#mask-9);}.cls-37{fill:url(#radial-gradient-6);}.cls-38{clip-path:url(#clip-path-18);}.cls-39{clip-path:url(#clip-path-19);}.cls-40{mask:url(#mask-10);}.cls-41{fill:url(#radial-gradient-7);}.cls-42{clip-path:url(#clip-path-20);}.cls-43{clip-path:url(#clip-path-21);}.cls-44{mask:url(#mask-11);}.cls-45{fill:url(#radial-gradient-8);}.cls-46{clip-path:url(#clip-path-22);}.cls-47{mask:url(#mask-12);}.cls-48{fill:url(#radial-gradient-9);}.cls-49{clip-path:url(#clip-path-23);}.cls-50{clip-path:url(#clip-path-24);}.cls-51{mask:url(#mask-13);}.cls-52{fill:url(#linear-gradient-4);}.cls-53{clip-path:url(#clip-path-25);}.cls-54{clip-path:url(#clip-path-26);}.cls-55{mask:url(#mask-14);}.cls-56{fill:url(#radial-gradient-10);}.cls-57{clip-path:url(#clip-path-27);}.cls-58{clip-path:url(#clip-path-28);}.cls-59{mask:url(#mask-15);}.cls-60{fill:url(#radial-gradient-11);}.cls-61{clip-path:url(#clip-path-29);}.cls-62{clip-path:url(#clip-path-30);}.cls-63{mask:url(#mask-16);}.cls-64{fill:url(#radial-gradient-12);}.cls-65{clip-path:url(#clip-path-31);}.cls-66{clip-path:url(#clip-path-32);}.cls-67{mask:url(#mask-17);}.cls-68{fill:url(#radial-gradient-13);}.cls-69{clip-path:url(#clip-path-33);}.cls-70{clip-path:url(#clip-path-34);}.cls-71{mask:url(#mask-18);}.cls-72{fill:url(#radial-gradient-14);}.cls-73{clip-path:url(#clip-path-35);}.cls-74{mask:url(#mask-19);}.cls-75{fill:url(#radial-gradient-15);}.cls-76{clip-path:url(#clip-path-36);}.cls-77{clip-path:url(#clip-path-37);}.cls-78{mask:url(#mask-20);}.cls-79{fill:url(#radial-gradient-16);}.cls-80{clip-path:url(#clip-path-38);}.cls-81{mask:url(#mask-21);}.cls-82{fill:url(#radial-gradient-17);}.cls-83{clip-path:url(#clip-path-39);}.cls-84{fill:#5e464d;}.cls-85{clip-path:url(#clip-path-41);}.cls-86{fill:#fff;}.cls-87{mask:url(#mask-22);}.cls-89{clip-path:url(#clip-path-42);}.cls-90{clip-path:url(#clip-path-43);}.cls-91{fill:url(#linear-gradient-5);}.cls-92{mask:url(#mask-23);}.cls-93{clip-path:url(#clip-path-44);}.cls-94{clip-path:url(#clip-path-45);}.cls-95{fill:url(#radial-gradient-18);}.cls-96{mask:url(#mask-24);}.cls-97{clip-path:url(#clip-path-46);}.cls-98{clip-path:url(#clip-path-47);}.cls-99{fill:url(#radial-gradient-19);}.cls-100{mask:url(#mask-25);}.cls-101{mix-blend-mode:screen;}.cls-102{clip-path:url(#clip-path-48);}.cls-103{clip-path:url(#clip-path-49);}.cls-104{fill:url(#radial-gradient-20);}.cls-105{mask:url(#mask-26);}.cls-106{clip-path:url(#clip-path-50);}.cls-107{clip-path:url(#clip-path-51);}.cls-108{fill:url(#radial-gradient-21);}.cls-109{fill:#ff2601;}.cls-110{mask:url(#mask-27);}.cls-111{clip-path:url(#clip-path-52);}.cls-112{clip-path:url(#clip-path-53);}.cls-113{fill:url(#linear-gradient-6);}.cls-114{mask:url(#mask-28);}.cls-115{clip-path:url(#clip-path-54);}.cls-116{clip-path:url(#clip-path-55);}.cls-117{fill:url(#radial-gradient-22);}.cls-118{mask:url(#mask-29);}.cls-119{clip-path:url(#clip-path-56);}.cls-120{clip-path:url(#clip-path-57);}.cls-121{fill:url(#radial-gradient-23);}.cls-122{mask:url(#mask-30);}.cls-123{clip-path:url(#clip-path-58);}.cls-124{clip-path:url(#clip-path-59);}.cls-125{fill:url(#radial-gradient-24);}.cls-126{mask:url(#mask-31);}.cls-127{clip-path:url(#clip-path-60);}.cls-128{clip-path:url(#clip-path-61);}.cls-129{fill:url(#radial-gradient-25);}.cls-130{mask:url(#mask-32);}.cls-131{clip-path:url(#clip-path-62);}.cls-132{clip-path:url(#clip-path-63);}.cls-133{fill:url(#linear-gradient-7);}.cls-134{mask:url(#mask-33);}.cls-135{clip-path:url(#clip-path-64);}.cls-136{clip-path:url(#clip-path-65);}.cls-137{fill:url(#radial-gradient-26);}.cls-138{mask:url(#mask-34);}.cls-139{clip-path:url(#clip-path-66);}.cls-140{clip-path:url(#clip-path-67);}.cls-141{fill:url(#radial-gradient-27);}.cls-142{mask:url(#mask-35);}.cls-143{clip-path:url(#clip-path-68);}.cls-144{clip-path:url(#clip-path-69);}.cls-145{fill:url(#radial-gradient-28);}.cls-146{mask:url(#mask-36);}.cls-147{clip-path:url(#clip-path-70);}.cls-148{clip-path:url(#clip-path-71);}.cls-149{fill:url(#radial-gradient-29);}.cls-150{mask:url(#mask-37);}.cls-151{clip-path:url(#clip-path-72);}.cls-152{clip-path:url(#clip-path-73);}.cls-153{fill:url(#linear-gradient-8);}.cls-154{mask:url(#mask-38);}.cls-155{clip-path:url(#clip-path-74);}.cls-156{clip-path:url(#clip-path-75);}.cls-157{mask:url(#mask-39);}.cls-158{clip-path:url(#clip-path-76);}.cls-159{clip-path:url(#clip-path-77);}.cls-160{mask:url(#mask-40);}.cls-161{clip-path:url(#clip-path-78);}.cls-162{clip-path:url(#clip-path-79);}.cls-163{mask:url(#mask-41);}.cls-164{clip-path:url(#clip-path-80);}.cls-165{clip-path:url(#clip-path-81);}.cls-166{mask:url(#mask-42);}.cls-167{clip-path:url(#clip-path-82);}.cls-168{clip-path:url(#clip-path-83);}.cls-169{fill:url(#radial-gradient-30);}.cls-170{clip-path:url(#clip-path-84);}.cls-171{clip-path:url(#clip-path-85);}.cls-172{fill:#3fe0c5;}.cls-173{filter:url(#luminosity-noclip-42);}.cls-174{filter:url(#luminosity-noclip-41);}.cls-175{filter:url(#luminosity-noclip-40);}.cls-176{filter:url(#luminosity-noclip-39);}.cls-177{filter:url(#luminosity-noclip-38);}.cls-178{filter:url(#luminosity-noclip-37);}.cls-179{filter:url(#luminosity-noclip-36);}.cls-180{filter:url(#luminosity-noclip-35);}.cls-181{filter:url(#luminosity-noclip-34);}.cls-182{filter:url(#luminosity-noclip-33);}.cls-183{filter:url(#luminosity-noclip-32);}.cls-184{filter:url(#luminosity-noclip-31);}.cls-185{filter:url(#luminosity-noclip-30);}.cls-186{filter:url(#luminosity-noclip-29);}.cls-187{filter:url(#luminosity-noclip-28);}.cls-188{filter:url(#luminosity-noclip-27);}.cls-189{filter:url(#luminosity-noclip-26);}.cls-190{filter:url(#luminosity-noclip-25);}.cls-191{filter:url(#luminosity-noclip-24);}.cls-192{filter:url(#luminosity-noclip-23);}.cls-193{filter:url(#luminosity-noclip-22);}.cls-194{filter:url(#luminosity-noclip-21);}.cls-195{filter:url(#luminosity-noclip-20);}.cls-196{filter:url(#luminosity-noclip-19);}.cls-197{filter:url(#luminosity-noclip-18);}.cls-198{filter:url(#luminosity-noclip-17);}.cls-199{filter:url(#luminosity-noclip-16);}.cls-200{filter:url(#luminosity-noclip-15);}.cls-201{filter:url(#luminosity-noclip-14);}.cls-202{filter:url(#luminosity-noclip-13);}.cls-203{filter:url(#luminosity-noclip-12);}.cls-204{filter:url(#luminosity-noclip-11);}.cls-205{filter:url(#luminosity-noclip-10);}.cls-206{filter:url(#luminosity-noclip-9);}.cls-207{filter:url(#luminosity-noclip-8);}.cls-208{filter:url(#luminosity-noclip-7);}.cls-209{filter:url(#luminosity-noclip-6);}.cls-210{filter:url(#luminosity-noclip-5);}.cls-211{filter:url(#luminosity-noclip-4);}.cls-212{filter:url(#luminosity-noclip-3);}.cls-213{filter:url(#luminosity-noclip-2);}.cls-214{filter:url(#luminosity-noclip);}</style><clipPath id="clip-path"><rect class="cls-3" x="230.3" y="127.35" width="605.43" height="601.24"/></clipPath><clipPath id="clip-path-2"><path class="cls-3" d="M465.7,131l-.52.54h0L233.54,372.68s-9.47,10.41,4,23.3l12.88,12.38-.09-.07L566.56,712.06l0,0,10.35,10c13.42,12.89,23.44,3,23.44,3l.52-.54,0,0L711.67,609.06l9.48-9.87L832.49,483.27a14.51,14.51,0,0,0,3.23-8.47c.18-4-1.31-9.19-7.19-14.83L737,372.09,580.63,221.86,489.14,134c-5.3-5.09-10.07-6.63-13.9-6.63A14.49,14.49,0,0,0,465.7,131"/></clipPath><filter id="luminosity-noclip" x="91.64" y="-8512" width="876.7" height="32766" filterUnits="userSpaceOnUse" color-interpolation-filters="sRGB"><feFlood flood-color="#fff" result="bg"/><feBlend in="SourceGraphic" in2="bg"/></filter><mask id="mask" x="91.64" y="-8512" width="876.7" height="32766" maskUnits="userSpaceOnUse"><g class="cls-214"/></mask><linearGradient id="linear-gradient" x1="2094.38" y1="17" x2="2095.38" y2="17" gradientTransform="translate(-6661.25 886371.85) rotate(-90) scale(422.93)" gradientUnits="userSpaceOnUse"><stop offset="0" stop-color="#231f20"/><stop offset="0.1" stop-color="#231f20"/><stop offset="1" stop-color="#fff"/></linearGradient><clipPath id="clip-path-3"><rect class="cls-3" x="313.31" y="116.19" width="569.77" height="612.55"/></clipPath><clipPath id="clip-path-4"><path class="cls-3" d="M599.57,117.93l-.63.41h0L465,205.77l-7.69,5-138.38,90.3s-11.56,8-1.39,23.6l9.76,14.95-.07-.08L566.84,706.8s0,0,0,0l7.84,12c10.17,15.58,22.16,8.22,22.16,8.22l134.6-87.84,11.46-7.48L877.5,543.84a14.64,14.64,0,0,0,5.07-15.49,26.37,26.37,0,0,0-3.67-8.1L809.57,414,691.05,232.39,621.72,126.15c-5.23-8-10.94-10-15.25-10a14.29,14.29,0,0,0-6.9,1.74"/></clipPath><filter id="luminosity-noclip-2" x="247.87" y="-8512" width="696.66" height="32766" filterUnits="userSpaceOnUse" color-interpolation-filters="sRGB"><feFlood flood-color="#fff" result="bg"/><feBlend in="SourceGraphic" in2="bg"/></filter><mask id="mask-2" x="247.87" y="-8512" width="696.66" height="32766" maskUnits="userSpaceOnUse"><g class="cls-213"/></mask><linearGradient id="linear-gradient-2" x1="2096.5" y1="16.69" x2="2097.5" y2="16.69" gradientTransform="translate(-4542.65 645903.74) rotate(-90) scale(307.87)" xlink:href="#linear-gradient"/><clipPath id="clip-path-5"><rect class="cls-3" x="461.57" y="342.74" width="425.94" height="387.84"/></clipPath><clipPath id="clip-path-6"><path class="cls-3" d="M641.44,423.64Q551.5,481.78,461.57,539.93L578.24,720.54c10.1,15.64,22.12,8.33,22.12,8.33L881.88,547s11.6-8,1.5-23.57L766.65,342.74l-125.21,80.9"/></clipPath><filter id="luminosity-noclip-3" x="282.24" y="-8512" width="790.57" height="32766" filterUnits="userSpaceOnUse" color-interpolation-filters="sRGB"><feFlood flood-color="#fff" result="bg"/><feBlend in="SourceGraphic" in2="bg"/></filter><mask id="mask-3" x="282.24" y="-8512" width="790.57" height="32766" maskUnits="userSpaceOnUse"><g class="cls-212"/></mask><radialGradient id="radial-gradient" cx="2087.01" cy="19.39" r="1" gradientTransform="matrix(735.58, 0, 0, 735.58, -1534486.02, -14289.61)" gradientUnits="userSpaceOnUse"><stop offset="0" stop-color="#231f20"/><stop offset="0.62" stop-color="#231f20"/><stop offset="0.76" stop-color="#252122"/><stop offset="0.81" stop-color="#2c2829"/><stop offset="0.85" stop-color="#383435"/><stop offset="0.88" stop-color="#484546"/><stop offset="0.91" stop-color="#5e5b5c"/><stop offset="0.93" stop-color="#7a7778"/><stop offset="0.95" stop-color="#9a9899"/><stop offset="0.97" stop-color="#c0bebf"/><stop offset="0.99" stop-color="#e9e8e8"/><stop offset="1" stop-color="#fff"/></radialGradient><clipPath id="clip-path-7"><rect class="cls-3" x="592.66" y="118.11" width="294.85" height="612.46"/></clipPath><clipPath id="clip-path-8"><path class="cls-3" d="M605.92,119.82l-.63.41s12-7.32,22.11,8.29l68.74,106.4,117.5,181.91,68.74,106.4c10.08,15.61-1.54,23.57-1.54,23.57L745.7,634.1l-11.5,7.43L599,728.84a14.15,14.15,0,0,1-6.38,1.7,14.45,14.45,0,0,0,7.7-1.67l135-87.22,11.49-7.42,135-87.22s11.6-8,1.5-23.58L814.55,416.87,696.87,234.7,628,128.14c-5.21-8.08-10.95-10-15.27-10a14.23,14.23,0,0,0-6.84,1.71"/></clipPath><filter id="luminosity-noclip-4" x="311.03" y="-8512" width="864.09" height="32766" filterUnits="userSpaceOnUse" color-interpolation-filters="sRGB"><feFlood flood-color="#fff" result="bg"/><feBlend in="SourceGraphic" in2="bg"/></filter><mask id="mask-4" x="311.03" y="-8512" width="864.09" height="32766" maskUnits="userSpaceOnUse"><g class="cls-211"/></mask><radialGradient id="radial-gradient-2" cx="2086.24" cy="19.24" r="1" gradientTransform="matrix(585.13, 0, 0, 585.13, -1220298.36, -11161.9)" xlink:href="#linear-gradient"/><clipPath id="clip-path-9"><rect class="cls-3" x="318.76" y="118.12" width="294.85" height="612.46"/></clipPath><clipPath id="clip-path-10"><path class="cls-3" d="M605.92,119.82,470.9,207l-11.49,7.43-135,87.21s-11.6,7.95-1.51,23.59l68.84,106.55L509.4,614l68.84,106.56c10.1,15.64,22.12,8.33,22.12,8.33l.63-.41s-12,7.32-22.11-8.29L510.14,613.76,392.63,431.86,323.9,325.45c-10.09-15.61,1.53-23.56,1.53-23.56l135.15-87.31,11.5-7.43,135.15-87.31a14.36,14.36,0,0,1,6.38-1.7l-.84,0a14.36,14.36,0,0,0-6.85,1.7"/></clipPath><filter id="luminosity-noclip-5" x="31.09" y="-8512" width="864.23" height="32766" filterUnits="userSpaceOnUse" color-interpolation-filters="sRGB"><feFlood flood-color="#fff" result="bg"/><feBlend in="SourceGraphic" in2="bg"/></filter><mask id="mask-5" x="31.09" y="-8512" width="864.23" height="32766" maskUnits="userSpaceOnUse"><g class="cls-210"/></mask><radialGradient id="radial-gradient-3" cx="2085.59" cy="19.1" r="1" gradientTransform="matrix(498.37, 0, 0, 498.37, -1038902.27, -9125.69)" gradientUnits="userSpaceOnUse"><stop offset="0" stop-color="#231f20"/><stop offset="0.02" stop-color="#3d393a"/><stop offset="0.07" stop-color="#656263"/><stop offset="0.12" stop-color="#8a8888"/><stop offset="0.17" stop-color="#aaa8a9"/><stop offset="0.23" stop-color="#c5c4c4"/><stop offset="0.3" stop-color="#dadada"/><stop offset="0.38" stop-color="#ebebeb"/><stop offset="0.48" stop-color="#f6f6f6"/><stop offset="0.62" stop-color="#fdfdfd"/><stop offset="1" stop-color="#fff"/></radialGradient><clipPath id="clip-path-11"><path class="cls-3" d="M570.47,708.53h0c-.28-.88-.56-1.76-.83-2.63l-59.91-92.75L337.45,346.46l-4.93-6.28Z"/></clipPath><filter id="luminosity-noclip-6" x="164.62" y="-8512" width="573.74" height="32766" filterUnits="userSpaceOnUse" color-interpolation-filters="sRGB"><feFlood flood-color="#fff" result="bg"/><feBlend in="SourceGraphic" in2="bg"/></filter><mask id="mask-6" x="164.62" y="-8512" width="573.74" height="32766" maskUnits="userSpaceOnUse"><g class="cls-209"/></mask><radialGradient id="radial-gradient-4" cx="2093.73" cy="19.24" r="1" gradientTransform="matrix(-589.41, 0, 0, 589.41, 1234893.24, -11072.5)" xlink:href="#linear-gradient"/><clipPath id="clip-path-12"><rect class="cls-3" x="427.45" y="311.31" width="413.64" height="417.87"/></clipPath><clipPath id="clip-path-13"><path class="cls-3" d="M575.35,419.12q-74,77.46-147.9,154.93L582.94,722.58c13.46,12.85,23.45,2.95,23.45,2.95l231.5-242.35s9.43-10.43-4-23.29L678.3,311.31q-51.48,53.9-102.95,107.81"/></clipPath><filter id="luminosity-noclip-7" x="215.61" y="-8512" width="843.54" height="32766" filterUnits="userSpaceOnUse" color-interpolation-filters="sRGB"><feFlood flood-color="#fff" result="bg"/><feBlend in="SourceGraphic" in2="bg"/></filter><mask id="mask-7" x="215.61" y="-8512" width="843.54" height="32766" maskUnits="userSpaceOnUse"><g class="cls-208"/></mask><radialGradient id="radial-gradient-5" cx="2087.23" cy="18.71" r="1" gradientTransform="translate(-1534356.08 -13803.06) scale(735.42)" xlink:href="#radial-gradient"/><clipPath id="clip-path-14"><rect class="cls-3" x="408.79" y="134.12" width="508.19" height="594.59"/></clipPath><clipPath id="clip-path-15"><path class="cls-3" d="M731.27,134.65l-.7.26h0L417.16,251.52s-13.05,5.26-6.56,22.7L416.83,291l0-.1,152.91,411v0l5,13.46c6.49,17.44,19.8,12.89,19.8,12.89l.71-.26h0L757,667.71l1-.36L908.61,611.3a14.17,14.17,0,0,0,5.25-4.18c2.69-3.43,4.76-9.26,1.31-18.52L870.93,469.7,795.31,266.44l-44.24-118.9c-4.26-11.46-11.48-13.42-15.92-13.42a13.21,13.21,0,0,0-3.88.53"/></clipPath><filter id="luminosity-noclip-8" x="138" y="-8512" width="1046.74" height="32766" filterUnits="userSpaceOnUse" color-interpolation-filters="sRGB"><feFlood flood-color="#fff" result="bg"/><feBlend in="SourceGraphic" in2="bg"/></filter><mask id="mask-8" x="138" y="-8512" width="1046.74" height="32766" maskUnits="userSpaceOnUse"><g class="cls-207"/></mask><linearGradient id="linear-gradient-3" x1="2094.16" y1="14.52" x2="2095.16" y2="14.52" gradientTransform="matrix(0, -326.31, 326.31, 0, -4076.91, 683843.58)" xlink:href="#linear-gradient"/><clipPath id="clip-path-16"><rect class="cls-3" x="507.41" y="386.28" width="418.19" height="344.55"/></clipPath><clipPath id="clip-path-17"><path class="cls-3" d="M707.27,439.87l-199.86,77,77.28,200.66c6.69,17.36,19.94,12.67,19.94,12.67L917.39,609.8s13-5.41,6.3-22.77L846.38,386.28,707.27,439.87"/></clipPath><filter id="luminosity-noclip-9" x="390.49" y="-8512" width="656.82" height="32766" filterUnits="userSpaceOnUse" color-interpolation-filters="sRGB"><feFlood flood-color="#fff" result="bg"/><feBlend in="SourceGraphic" in2="bg"/></filter><mask id="mask-9" x="390.49" y="-8512" width="656.82" height="32766" maskUnits="userSpaceOnUse"><g class="cls-206"/></mask><radialGradient id="radial-gradient-6" cx="2086.95" cy="20.02" r="1" gradientTransform="translate(-1534075.43 -14724.6) scale(735.42)" xlink:href="#radial-gradient"/><clipPath id="clip-path-18"><rect class="cls-3" x="596.76" y="134.63" width="328.84" height="596.2"/></clipPath><clipPath id="clip-path-19"><path class="cls-3" d="M734.62,135.2l-.69.28s13.26-4.71,19.94,12.63L799.4,266.33l77.82,202.09,45.53,118.21c6.67,17.34-6.32,22.76-6.32,22.76L766.28,667.21l-12.78,4.92L603.35,730a14.27,14.27,0,0,1-6.59.36,14.44,14.44,0,0,0,7.87-.06l150-57.77,12.77-4.91,150-57.77s13-5.41,6.3-22.77L878.1,468.64,800.16,266.26,754.57,147.88c-4.34-11.28-11.45-13.25-15.91-13.25a13.48,13.48,0,0,0-4,.57"/></clipPath><filter id="luminosity-noclip-10" x="395.3" y="-8512" width="736.53" height="32766" filterUnits="userSpaceOnUse" color-interpolation-filters="sRGB"><feFlood flood-color="#fff" result="bg"/><feBlend in="SourceGraphic" in2="bg"/></filter><mask id="mask-10" x="395.3" y="-8512" width="736.53" height="32766" maskUnits="userSpaceOnUse"><g class="cls-205"/></mask><radialGradient id="radial-gradient-7" cx="2086.16" cy="20.02" r="1" gradientTransform="matrix(585.12, 0, 0, 585.12, -1220186.74, -11570.11)" xlink:href="#linear-gradient"/><clipPath id="clip-path-20"><rect class="cls-3" x="413.65" y="134.63" width="328.84" height="596.19"/></clipPath><clipPath id="clip-path-21"><path class="cls-3" d="M734.62,135.2,584.63,193l-12.77,4.91-150,57.77s-13,5.41-6.29,22.78l45.59,118.38L539.1,599.19l45.59,118.39c6.69,17.36,19.94,12.67,19.94,12.67l.7-.27s-13.27,4.7-20-12.64L539.86,599.13,462,397,416.51,278.82c-6.68-17.34,6.32-22.75,6.32-22.75L573,198.24l12.77-4.92L735.91,135.5a14.24,14.24,0,0,1,6.59-.36,14.69,14.69,0,0,0-3.85-.51,13.37,13.37,0,0,0-4,.57"/></clipPath><filter id="luminosity-noclip-11" x="207.51" y="-8512" width="736.35" height="32766" filterUnits="userSpaceOnUse" color-interpolation-filters="sRGB"><feFlood flood-color="#fff" result="bg"/><feBlend in="SourceGraphic" in2="bg"/></filter><mask id="mask-11" x="207.51" y="-8512" width="736.35" height="32766" maskUnits="userSpaceOnUse"><g class="cls-204"/></mask><radialGradient id="radial-gradient-8" cx="2085.5" cy="20.02" gradientTransform="translate(-1038765.83 -9618.89) scale(498.37)" xlink:href="#radial-gradient-3"/><clipPath id="clip-path-22"><path class="cls-3" d="M421.94,295,579.53,704.23l-.27-2.75-39.67-103L425.48,302.15Z"/></clipPath><filter id="luminosity-noclip-12" x="284.7" y="-8512" width="432.07" height="32766" filterUnits="userSpaceOnUse" color-interpolation-filters="sRGB"><feFlood flood-color="#fff" result="bg"/><feBlend in="SourceGraphic" in2="bg"/></filter><mask id="mask-12" x="284.7" y="-8512" width="432.07" height="32766" maskUnits="userSpaceOnUse"><g class="cls-203"/></mask><radialGradient id="radial-gradient-9" cx="2093.83" cy="20.02" r="1" gradientTransform="matrix(-585.94, 0, 0, 585.94, 1227729.99, -11487.39)" xlink:href="#linear-gradient"/><clipPath id="clip-path-23"><rect class="cls-3" x="514.93" y="180.06" width="425.79" height="550.28"/></clipPath><clipPath id="clip-path-24"><path class="cls-3" d="M858.44,180.09l-.58.09-158.6,22.25-10.15,1.43L526.54,226.67s-13.87,2.33-11.29,20.77l2.49,17.69,0-.11,60.94,434.27a.09.09,0,0,0,0,0l2,14.22c2.59,18.43,16.57,16.85,16.57,16.85L756.39,708l6.77-1,166-23.28a14.53,14.53,0,0,0,9.82-7.78c1.48-3,2.28-7.23,1.47-13L922.77,537.35,892.63,322.58,875,197c-2.21-15.74-12.73-16.89-15.75-16.89-.52,0-.81,0-.81,0"/></clipPath><filter id="luminosity-noclip-13" x="236.77" y="-8512" width="980.34" height="32766" filterUnits="userSpaceOnUse" color-interpolation-filters="sRGB"><feFlood flood-color="#fff" result="bg"/><feBlend in="SourceGraphic" in2="bg"/></filter><mask id="mask-13" x="236.77" y="-8512" width="980.34" height="32766" maskUnits="userSpaceOnUse"><g class="cls-202"/></mask><linearGradient id="linear-gradient-4" x1="2092.91" y1="13.26" x2="2093.91" y2="13.26" gradientTransform="translate(-3327.38 640367.5) rotate(-90) scale(305.75)" xlink:href="#linear-gradient"/><clipPath id="clip-path-25"><rect class="cls-3" x="553.8" y="453.15" width="389.59" height="279.74"/></clipPath><clipPath id="clip-path-26"><path class="cls-3" d="M766,473.57Q659.88,488.26,553.8,503l29.44,213c2.54,18.43,16.52,16.89,16.52,16.89l332-45.88s13.87-2.31,11.32-20.74L913.64,453.15,766,473.57"/></clipPath><filter id="luminosity-noclip-14" x="515.66" y="-8512" width="468.11" height="32766" filterUnits="userSpaceOnUse" color-interpolation-filters="sRGB"><feFlood flood-color="#fff" result="bg"/><feBlend in="SourceGraphic" in2="bg"/></filter><mask id="mask-14" x="515.66" y="-8512" width="468.11" height="32766" maskUnits="userSpaceOnUse"><g class="cls-201"/></mask><radialGradient id="radial-gradient-10" cx="2087.03" cy="20.71" r="1" gradientTransform="matrix(735.41, 0, 0, 735.41, -1534087.1, -15203.02)" xlink:href="#radial-gradient"/><clipPath id="clip-path-27"><rect class="cls-3" x="518.51" y="183.16" width="392.31" height="299.18"/></clipPath><clipPath id="clip-path-28"><path class="cls-3" d="M862.14,183.19l-332,45.88s-13.88,2.3-11.33,20.74l17.36,125.66L551,482.34l90.86-12.49q130.92-18,261.83-36.11l7.18-1L878.67,200.08c-2.18-15.78-12.75-16.92-15.74-16.92-.5,0-.79,0-.79,0"/></clipPath><filter id="luminosity-noclip-15" x="475.7" y="-8512" width="475.69" height="32766" filterUnits="userSpaceOnUse" color-interpolation-filters="sRGB"><feFlood flood-color="#fff" result="bg"/><feBlend in="SourceGraphic" in2="bg"/></filter><mask id="mask-15" x="475.7" y="-8512" width="475.69" height="32766" maskUnits="userSpaceOnUse"><g class="cls-200"/></mask><radialGradient id="radial-gradient-11" cx="2085.86" cy="20.99" r="1" gradientTransform="translate(-1098477.26 -10388.97) scale(526.97)" gradientUnits="userSpaceOnUse"><stop offset="0" stop-color="#231f20"/><stop offset="0.62" stop-color="#231f20"/><stop offset="0.71" stop-color="#252122"/><stop offset="0.77" stop-color="#2d292a"/><stop offset="0.81" stop-color="#3b3738"/><stop offset="0.85" stop-color="#4e4b4c"/><stop offset="0.89" stop-color="#676565"/><stop offset="0.92" stop-color="#868484"/><stop offset="0.95" stop-color="#aba9aa"/><stop offset="0.98" stop-color="#d4d3d3"/><stop offset="1" stop-color="#fff"/></radialGradient><clipPath id="clip-path-29"><rect class="cls-3" x="592.08" y="183.16" width="351.31" height="549.73"/></clipPath><clipPath id="clip-path-30"><path class="cls-3" d="M862.14,183.19l-.74.1s14-1.55,16.53,16.86l17.35,125.49,29.64,214.52,17.34,125.48c2.55,18.41-11.34,20.71-11.34,20.71l-159.39,22L758,710.25l-159.38,22a14.28,14.28,0,0,1-6.51-1.16,14.47,14.47,0,0,0,7.68,1.74l159.23-22L772.54,709l159.22-22s13.87-2.31,11.33-20.74L925.72,540.57,896,325.74,878.67,200.08c-2.18-15.79-12.75-16.92-15.74-16.92-.5,0-.79,0-.79,0"/></clipPath><filter id="luminosity-noclip-16" x="517.3" y="-8512" width="503.13" height="32766" filterUnits="userSpaceOnUse" color-interpolation-filters="sRGB"><feFlood flood-color="#fff" result="bg"/><feBlend in="SourceGraphic" in2="bg"/></filter><mask id="mask-16" x="517.3" y="-8512" width="503.13" height="32766" maskUnits="userSpaceOnUse"><g class="cls-199"/></mask><radialGradient id="radial-gradient-12" cx="2086.27" cy="20.9" r="1" gradientTransform="matrix(585.12, 0, 0, 585.12, -1220192.07, -12028.03)" xlink:href="#linear-gradient"/><clipPath id="clip-path-31"><rect class="cls-3" x="518.51" y="183.16" width="351.31" height="549.73"/></clipPath><clipPath id="clip-path-32"><path class="cls-3" d="M862.14,183.19l-159.22,22-13.55,1.87-159.22,22s-13.88,2.3-11.33,20.74l17.36,125.66L565.87,590.3,583.24,716c2.54,18.43,16.53,16.89,16.53,16.89l.74-.11s-14,1.55-16.54-16.86L566.63,590.41,537,375.89,519.64,250.41C517.1,232,531,229.7,531,229.7l159.38-22,13.57-1.87,159.38-22a14.31,14.31,0,0,1,6.5,1.15,14.82,14.82,0,0,0-6.91-1.76c-.49,0-.77,0-.77,0"/></clipPath><filter id="luminosity-noclip-17" x="441.52" y="-8512" width="503.05" height="32766" filterUnits="userSpaceOnUse" color-interpolation-filters="sRGB"><feFlood flood-color="#fff" result="bg"/><feBlend in="SourceGraphic" in2="bg"/></filter><mask id="mask-17" x="441.52" y="-8512" width="503.05" height="32766" maskUnits="userSpaceOnUse"><g class="cls-198"/></mask><radialGradient id="radial-gradient-13" cx="2085.62" cy="21.05" gradientTransform="translate(-1038760.67 -10134.2) scale(498.37)" xlink:href="#radial-gradient-3"/><clipPath id="clip-path-33"><rect class="cls-3" x="469.61" y="128.25" width="371.49" height="600.7"/></clipPath><clipPath id="clip-path-34"><path class="cls-3" d="M470.13,131.89l-.52.54s10-9.91,23.43,2.92l91.61,87.5L741.24,372.44l91.6,87.49c13.44,12.84,4,23.28,4,23.28L725.7,599.56l-9.46,9.9L605.1,725.81a14.29,14.29,0,0,1-5.8,3.14,14.5,14.5,0,0,0,7.09-3.42l111-116.23,9.45-9.89,111-116.23s9.43-10.43-4-23.29l-91.73-87.62L585.3,222.47l-91.73-87.63c-5.29-5.06-10.05-6.59-13.87-6.59a14.48,14.48,0,0,0-9.57,3.64"/></clipPath><filter id="luminosity-noclip-18" x="166.71" y="-8512" width="983.5" height="32766" filterUnits="userSpaceOnUse" color-interpolation-filters="sRGB"><feFlood flood-color="#fff" result="bg"/><feBlend in="SourceGraphic" in2="bg"/></filter><mask id="mask-18" x="166.71" y="-8512" width="983.5" height="32766" maskUnits="userSpaceOnUse"><g class="cls-197"/></mask><radialGradient id="radial-gradient-14" cx="2086.52" cy="18.38" r="1" gradientTransform="translate(-1220504.64 -10669.65) scale(585.13)" xlink:href="#linear-gradient"/><clipPath id="clip-path-35"><path class="cls-3" d="M581.27,701.8l.36-2.74L566.52,589.68,523.06,275.17c-.62-2.59-1.22-5.18-1.82-7.77Z"/></clipPath><filter id="luminosity-noclip-19" x="462.33" y="-8512" width="178.21" height="32766" filterUnits="userSpaceOnUse" color-interpolation-filters="sRGB"><feFlood flood-color="#fff" result="bg"/><feBlend in="SourceGraphic" in2="bg"/></filter><mask id="mask-19" x="462.33" y="-8512" width="178.21" height="32766" maskUnits="userSpaceOnUse"><g class="cls-196"/></mask><radialGradient id="radial-gradient-15" cx="2093.72" cy="20.89" r="1" gradientTransform="matrix(-585.85, 0, 0, 585.85, 1227539.26, -12012.15)" xlink:href="#linear-gradient"/><clipPath id="clip-path-36"><rect class="cls-3" x="235.42" y="128.47" width="371.49" height="600.7"/></clipPath><clipPath id="clip-path-37"><path class="cls-3" d="M470.13,131.89l-111,116.23L349.65,258l-111,116.23s-9.44,10.43,4,23.29l91.74,87.62L491.21,635l91.73,87.63c13.46,12.85,23.45,2.95,23.45,2.95l.52-.54s-10,9.91-23.44-2.93l-91.6-87.49L335.27,485l-91.6-87.49c-13.44-12.84-4-23.28-4-23.28L350.82,257.86l9.45-9.9L471.41,131.61a14.38,14.38,0,0,1,5.81-3.14,14.44,14.44,0,0,0-7.09,3.42"/></clipPath><filter id="luminosity-noclip-20" x="-73.97" y="-8512" width="984.03" height="32766" filterUnits="userSpaceOnUse" color-interpolation-filters="sRGB"><feFlood flood-color="#fff" result="bg"/><feBlend in="SourceGraphic" in2="bg"/></filter><mask id="mask-20" x="-73.97" y="-8512" width="984.03" height="32766" maskUnits="userSpaceOnUse"><g class="cls-195"/></mask><radialGradient id="radial-gradient-16" cx="2085.92" cy="18.1" gradientTransform="matrix(498.37, 0, 0, 498.37, -1039139.67, -8610.47)" xlink:href="#radial-gradient-3"/><clipPath id="clip-path-38"><path class="cls-3" d="M572.59,712.7h0c-.48-.79-1-1.58-1.42-2.37l-79.84-76.26L261.74,414.76l-6.26-5Z"/></clipPath><filter id="luminosity-noclip-21" x="104.19" y="-8512" width="619.69" height="32766" filterUnits="userSpaceOnUse" color-interpolation-filters="sRGB"><feFlood flood-color="#fff" result="bg"/><feBlend in="SourceGraphic" in2="bg"/></filter><mask id="mask-21" x="104.19" y="-8512" width="619.69" height="32766" maskUnits="userSpaceOnUse"><g class="cls-194"/></mask><radialGradient id="radial-gradient-17" cx="2093.46" cy="18.39" r="1" gradientTransform="matrix(-587.71, 0, 0, 587.71, 1231137.16, -10502.41)" xlink:href="#linear-gradient"/><clipPath id="clip-path-39" transform="translate(73.7 93.89)"><rect class="cls-3" width="1129.19" height="837.56"/></clipPath><clipPath id="clip-path-41" transform="translate(73.7 93.89)"><rect class="cls-3" width="1129.19" height="837.56"/></clipPath><filter id="luminosity-noclip-22" x="90.27" y="-12.28" width="879.42" height="880.52" filterUnits="userSpaceOnUse" color-interpolation-filters="sRGB"><feFlood flood-color="#fff" result="bg"/><feBlend in="SourceGraphic" in2="bg"/></filter><mask id="mask-22" x="163.98" y="81.6" width="879.42" height="880.52" maskUnits="userSpaceOnUse"><g class="cls-193"><g transform="translate(73.7 93.89)"><g class="cls-1"><g class="cls-2"><g class="cls-1"><g class="cls-4"><g class="cls-5"><rect class="cls-6" x="165.51" y="65" width="728.96" height="732.2" transform="translate(-8.74 851.24) rotate(-77.08)"/></g></g></g></g></g></g></g></mask><clipPath id="clip-path-42" transform="translate(73.7 93.89)"><rect class="cls-3" x="90.27" y="-12.28" width="879.42" height="880.52"/></clipPath><clipPath id="clip-path-43" transform="translate(73.7 93.89)"><path class="cls-3" d="M465.7,131l-.52.54h0L233.54,372.68s-9.46,10.41,4,23.3l12.88,12.38-.09-.07L566.56,712.06l0,0,10.35,10c13.42,12.89,23.44,3,23.44,3l.52-.54,0,0L711.67,609.06l9.48-9.87L832.49,483.27a14.51,14.51,0,0,0,3.23-8.47c.18-4-1.31-9.19-7.19-14.83L737,372.09,580.63,221.86,489.14,134c-5.3-5.09-10.07-6.63-13.9-6.63A14.49,14.49,0,0,0,465.7,131"/></clipPath><linearGradient id="linear-gradient-5" x1="2094.38" y1="17" x2="2095.38" y2="17" gradientTransform="matrix(0, -422.93, 422.93, 0, -6661.29, 886371.85)" gradientUnits="userSpaceOnUse"><stop offset="0" stop-color="#fff"/><stop offset="0.1" stop-color="#fff"/><stop offset="1" stop-color="#b6b8ba"/></linearGradient><filter id="luminosity-noclip-23" x="215.61" y="101.6" width="843.55" height="843.55" filterUnits="userSpaceOnUse" color-interpolation-filters="sRGB"><feFlood flood-color="#fff" result="bg"/><feBlend in="SourceGraphic" in2="bg"/></filter><mask id="mask-23" x="289.31" y="195.48" width="843.55" height="843.55" maskUnits="userSpaceOnUse"><g class="cls-192"><g transform="translate(73.7 93.89)"><g class="cls-1"><g class="cls-26"><g class="cls-1"><g class="cls-27"><g class="cls-28"><rect class="cls-29" x="339.04" y="225.09" width="596.7" height="596.56" transform="translate(-181.33 622.78) rotate(-46.31)"/></g></g></g></g></g></g></g></mask><clipPath id="clip-path-44" transform="translate(73.7 93.89)"><rect class="cls-3" x="215.61" y="101.6" width="843.55" height="843.55"/></clipPath><clipPath id="clip-path-45" transform="translate(73.7 93.89)"><path class="cls-3" d="M575.35,419.12q-74,77.46-147.9,154.93L582.94,722.58c5.22,5,9.92,6.55,13.72,6.59H597a14.47,14.47,0,0,0,9.41-3.64l231.5-242.35s9.43-10.43-4-23.29L678.31,311.31q-51.48,53.9-103,107.81"/></clipPath><radialGradient id="radial-gradient-18" cx="2087.23" cy="18.71" r="1" gradientTransform="translate(-1534358.34 -13804.2) scale(735.42)" gradientUnits="userSpaceOnUse"><stop offset="0" stop-color="#fff"/><stop offset="0.62" stop-color="#fff"/><stop offset="0.79" stop-color="#fdfdfd"/><stop offset="0.86" stop-color="#f6f6f7"/><stop offset="0.91" stop-color="#eaebeb"/><stop offset="0.95" stop-color="#d9dadb"/><stop offset="0.98" stop-color="#c3c4c6"/><stop offset="1" stop-color="#b6b8ba"/></radialGradient><filter id="luminosity-noclip-24" x="166.45" y="-66.67" width="984.03" height="984.28" filterUnits="userSpaceOnUse" color-interpolation-filters="sRGB"><feFlood flood-color="#fff" result="bg"/><feBlend in="SourceGraphic" in2="bg"/></filter><mask id="mask-24" x="240.15" y="27.21" width="984.03" height="984.28" maskUnits="userSpaceOnUse"><g class="cls-191"><g transform="translate(73.7 93.89)"><g class="cls-1"><g class="cls-69"><g class="cls-1"><g class="cls-70"><g class="cls-71"><rect class="cls-72" x="308.76" y="79.73" width="699.42" height="692" transform="translate(-104.21 607.83) rotate(-46.31)"/></g></g></g></g></g></g></g></mask><clipPath id="clip-path-46" transform="translate(73.7 93.89)"><rect class="cls-3" x="166.45" y="-66.67" width="984.03" height="984.28"/></clipPath><clipPath id="clip-path-47" transform="translate(73.7 93.89)"><path class="cls-3" d="M479.56,128.25a14.43,14.43,0,0,0-9.43,3.64l-.52.54s10-9.91,23.43,2.92l91.6,87.5,156.6,149.59,91.6,87.49c13.44,12.84,4,23.28,4,23.28L725.7,599.56l-9.46,9.9L605.1,725.81a14.28,14.28,0,0,1-5.81,3.14,14.51,14.51,0,0,0,7.1-3.42l111-116.23,9.45-9.89,111-116.23a14.51,14.51,0,0,0,3.21-8.93V474c0-3.91-1.7-8.78-7.24-14.07l-91.73-87.62L585.3,222.46l-91.73-87.62c-5.23-5-9.94-6.56-13.74-6.59Z"/></clipPath><radialGradient id="radial-gradient-19" cx="2086.52" cy="18.38" r="1" gradientTransform="translate(-1220504.8 -10669.3) scale(585.13)" xlink:href="#linear-gradient-5"/><filter id="luminosity-noclip-25" x="-73.97" y="-60.18" width="984.03" height="984.28" filterUnits="userSpaceOnUse" color-interpolation-filters="sRGB"><feFlood flood-color="#fff" result="bg"/><feBlend in="SourceGraphic" in2="bg"/></filter><mask id="mask-25" x="-0.27" y="33.7" width="984.03" height="984.28" maskUnits="userSpaceOnUse"><g class="cls-190"><g transform="translate(73.7 93.89)"><g class="cls-1"><g class="cls-76"><g class="cls-1"><g class="cls-77"><g class="cls-78"><rect class="cls-79" x="68.15" y="85.77" width="699.8" height="692.37" transform="translate(-183.06 435.9) rotate(-46.31)"/></g></g></g></g></g></g></g></mask><clipPath id="clip-path-48" transform="translate(73.7 93.89)"><rect class="cls-3" x="-73.97" y="-60.18" width="984.03" height="984.27"/></clipPath><clipPath id="clip-path-49" transform="translate(73.7 93.89)"><path class="cls-3" d="M470.13,131.89l-111,116.23L349.65,258l-111,116.23s-9.43,10.43,4,23.29l91.74,87.62L491.21,635l91.73,87.63c5.22,5,9.92,6.55,13.72,6.59H597a14.47,14.47,0,0,0,9.41-3.64l.51-.54s-10,9.91-23.43-2.93l-91.6-87.49L335.27,485l-91.6-87.49c-13.44-12.84-4-23.28-4-23.28L350.82,257.86l9.45-9.9L471.41,131.61a14.38,14.38,0,0,1,5.81-3.14,14.44,14.44,0,0,0-7.09,3.42"/></clipPath><radialGradient id="radial-gradient-20" cx="2085.92" cy="18.1" r="1" gradientTransform="translate(-1039139.86 -8610.51) scale(498.37)" gradientUnits="userSpaceOnUse"><stop offset="0" stop-color="#fff"/><stop offset="1" stop-color="#fff"/></radialGradient><filter id="luminosity-noclip-26" x="104.19" y="251.41" width="619.69" height="619.67" filterUnits="userSpaceOnUse" color-interpolation-filters="sRGB"><feFlood flood-color="#fff" result="bg"/><feBlend in="SourceGraphic" in2="bg"/></filter><mask id="mask-26" x="177.89" y="345.3" width="619.69" height="619.67" maskUnits="userSpaceOnUse"><g class="cls-189"><g transform="translate(73.7 93.89)"><g class="cls-1"><g class="cls-1"><g class="cls-80"><g class="cls-81"><rect class="cls-82" x="195" y="341.99" width="438.07" height="438.53" transform="translate(-277.8 472.99) rotate(-46.31)"/></g></g></g></g></g></g></mask><clipPath id="clip-path-50" transform="translate(73.7 93.89)"><rect class="cls-3" x="104.19" y="251.41" width="619.69" height="619.67"/></clipPath><clipPath id="clip-path-51" transform="translate(73.7 93.89)"><path class="cls-3" d="M255.48,409.8,572.59,712.7l-1.42-2.37-79.84-76.27L261.74,414.76Z"/></clipPath><radialGradient id="radial-gradient-21" cx="2093.46" cy="18.39" r="1" gradientTransform="matrix(-587.71, 0, 0, 587.71, 1231137.16, -10502.47)" xlink:href="#linear-gradient-5"/><filter id="luminosity-noclip-27" x="247.32" y="54.99" width="697.74" height="734.94" filterUnits="userSpaceOnUse" color-interpolation-filters="sRGB"><feFlood flood-color="#fff" result="bg"/><feBlend in="SourceGraphic" in2="bg"/></filter><mask id="mask-27" x="321.03" y="148.88" width="697.74" height="734.94" maskUnits="userSpaceOnUse"><g class="cls-188"><g transform="translate(73.7 93.89)"><g class="cls-1"><g class="cls-7"><g class="cls-1"><g class="cls-8"><g class="cls-9"><rect class="cls-10" x="260.64" y="107.89" width="671.11" height="634.78" transform="translate(115.3 977.58) rotate(-84.45)"/></g></g></g></g></g></g></g></mask><clipPath id="clip-path-52" transform="translate(73.7 93.89)"><rect class="cls-3" x="247.32" y="54.99" width="697.74" height="734.94"/></clipPath><clipPath id="clip-path-53" transform="translate(73.7 93.89)"><path class="cls-3" d="M599.57,117.93l-.63.41h0L465,205.77l-7.69,5-138.38,90.3s-11.56,8-1.4,23.6l9.77,14.95-.07-.08L566.84,706.8v0l7.84,12c5.17,7.92,10.8,9.91,15.1,10h.3a14.32,14.32,0,0,0,6.75-1.74l134.61-87.84,11.46-7.48L877.5,543.84a14.64,14.64,0,0,0,5.07-15.49,26.37,26.37,0,0,0-3.67-8.1L809.57,414,691.05,232.39,621.72,126.15c-5.23-8-10.94-10-15.25-10a14.29,14.29,0,0,0-6.9,1.74"/></clipPath><linearGradient id="linear-gradient-6" x1="2096.5" y1="16.7" x2="2097.5" y2="16.7" gradientTransform="translate(-4545.41 645901.2) rotate(-90) scale(307.87)" xlink:href="#linear-gradient-5"/><filter id="luminosity-noclip-28" x="282.24" y="145.87" width="790.57" height="787.17" filterUnits="userSpaceOnUse" color-interpolation-filters="sRGB"><feFlood flood-color="#fff" result="bg"/><feBlend in="SourceGraphic" in2="bg"/></filter><mask id="mask-28" x="355.94" y="239.76" width="790.57" height="787.17" maskUnits="userSpaceOnUse"><g class="cls-187"><g transform="translate(73.7 93.89)"><g class="cls-1"><g class="cls-11"><g class="cls-1"><g class="cls-12"><g class="cls-13"><rect class="cls-14" x="389.38" y="257.03" width="576.29" height="564.85" transform="translate(-184.3 453.98) rotate(-32.86)"/></g></g></g></g></g></g></g></mask><clipPath id="clip-path-54" transform="translate(73.7 93.89)"><rect class="cls-3" x="282.24" y="145.87" width="790.57" height="787.17"/></clipPath><clipPath id="clip-path-55" transform="translate(73.7 93.89)"><path class="cls-3" d="M641.44,423.64Q551.5,481.78,461.57,539.93h0L578.24,720.54c10.1,15.64,22.12,8.33,22.12,8.33L881.88,547a14.48,14.48,0,0,0,5.63-11.48v0c0-3.31-1.08-7.34-4.13-12.06L766.65,342.74l-125.21,80.9"/></clipPath><radialGradient id="radial-gradient-22" cx="2087.01" cy="19.39" r="1" gradientTransform="matrix(735.58, 0, 0, 735.58, -1534487.87, -14288.08)" xlink:href="#radial-gradient-18"/><filter id="luminosity-noclip-29" x="310.84" y="-24.6" width="864.46" height="892.52" filterUnits="userSpaceOnUse" color-interpolation-filters="sRGB"><feFlood flood-color="#fff" result="bg"/><feBlend in="SourceGraphic" in2="bg"/></filter><mask id="mask-29" x="384.54" y="69.28" width="864.46" height="892.52" maskUnits="userSpaceOnUse"><g class="cls-186"><g transform="translate(73.7 93.89)"><g class="cls-1"><g class="cls-15"><g class="cls-1"><g class="cls-16"><g class="cls-17"><rect class="cls-18" x="449.09" y="80.73" width="587.97" height="682.25" transform="translate(-110 470.73) rotate(-32.86)"/></g></g></g></g></g></g></g></mask><clipPath id="clip-path-56" transform="translate(73.7 93.89)"><rect class="cls-3" x="310.84" y="-24.6" width="864.46" height="892.52"/></clipPath><clipPath id="clip-path-57" transform="translate(73.7 93.89)"><path class="cls-3" d="M612.71,118.11a14.32,14.32,0,0,0-6.79,1.71l-.63.41s12-7.32,22.11,8.29l68.74,106.4,117.5,181.91,68.74,106.4c10.08,15.61-1.53,23.57-1.53,23.57L745.7,634.1l-11.51,7.43L599,728.84a14.15,14.15,0,0,1-6.38,1.7l.62,0h.46a14.4,14.4,0,0,0,6.62-1.7l135-87.22,11.49-7.42,135-87.22a14.5,14.5,0,0,0,5.63-11.37v-.23c0-3.3-1.1-7.29-4.13-12L814.55,416.87,696.87,234.7,628,128.14c-5.19-8-10.9-10-15.21-10Z"/></clipPath><radialGradient id="radial-gradient-23" cx="2086.24" cy="19.24" r="1" gradientTransform="translate(-1220298.51 -11161.6) scale(585.13)" xlink:href="#linear-gradient-5"/><filter id="luminosity-noclip-30" x="30.98" y="-19.23" width="864.45" height="892.52" filterUnits="userSpaceOnUse" color-interpolation-filters="sRGB"><feFlood flood-color="#fff" result="bg"/><feBlend in="SourceGraphic" in2="bg"/></filter><mask id="mask-30" x="104.68" y="74.65" width="864.45" height="892.52" maskUnits="userSpaceOnUse"><g class="cls-185"><g transform="translate(73.7 93.89)"><g class="cls-1"><g class="cls-19"><g class="cls-1"><g class="cls-20"><g class="cls-21"><rect class="cls-22" x="169.18" y="85.96" width="588.06" height="682.38" transform="translate(-157.66 319.71) rotate(-32.86)"/></g></g></g></g></g></g></g></mask><clipPath id="clip-path-58" transform="translate(73.7 93.89)"><rect class="cls-3" x="30.98" y="-19.23" width="864.45" height="892.52"/></clipPath><clipPath id="clip-path-59" transform="translate(73.7 93.89)"><path class="cls-3" d="M605.92,119.82,470.9,207l-11.49,7.43-135,87.21s-11.61,7.95-1.51,23.59l68.84,106.55L509.4,614l68.84,106.55c10.1,15.64,22.12,8.33,22.12,8.33l.63-.41s-12,7.32-22.12-8.29L510.14,613.76,392.63,431.86,323.9,325.45c-10.09-15.61,1.53-23.56,1.53-23.56l135.15-87.31,11.5-7.43,135.15-87.3a14.29,14.29,0,0,1,6.38-1.71l-.85,0a14.29,14.29,0,0,0-6.84,1.7"/></clipPath><radialGradient id="radial-gradient-24" cx="2085.59" cy="19.1" r="1" gradientTransform="translate(-1038902.27 -9125.67) scale(498.37)" xlink:href="#radial-gradient-20"/><filter id="luminosity-noclip-31" x="164.62" y="231.72" width="573.74" height="585.27" filterUnits="userSpaceOnUse" color-interpolation-filters="sRGB"><feFlood flood-color="#fff" result="bg"/><feBlend in="SourceGraphic" in2="bg"/></filter><mask id="mask-31" x="238.32" y="325.61" width="573.74" height="585.27" maskUnits="userSpaceOnUse"><g class="cls-184"><g transform="translate(73.7 93.89)"><g class="cls-1"><g class="cls-1"><g class="cls-23"><g class="cls-24"><rect class="cls-25" x="251.62" y="305.09" width="399.75" height="438.52" transform="translate(-212.28 328.91) rotate(-32.86)"/></g></g></g></g></g></g></mask><clipPath id="clip-path-60" transform="translate(73.7 93.89)"><rect class="cls-3" x="164.62" y="231.72" width="573.74" height="585.27"/></clipPath><clipPath id="clip-path-61" transform="translate(73.7 93.89)"><path class="cls-3" d="M332.52,340.18l238,368.35c-.28-.88-.56-1.76-.83-2.64l-59.91-92.74L337.45,346.46Z"/></clipPath><radialGradient id="radial-gradient-25" cx="2093.73" cy="19.24" r="1" gradientTransform="matrix(-589.41, 0, 0, 589.41, 1234893.24, -11072.53)" xlink:href="#linear-gradient-5"/><filter id="luminosity-noclip-32" x="136.22" y="-98.63" width="1050.3" height="1060.07" filterUnits="userSpaceOnUse" color-interpolation-filters="sRGB"><feFlood flood-color="#fff" result="bg"/><feBlend in="SourceGraphic" in2="bg"/></filter><mask id="mask-32" x="209.92" y="-4.74" width="1050.3" height="1060.07" maskUnits="userSpaceOnUse"><g class="cls-183"><g transform="translate(73.7 93.89)"><g class="cls-1"><g class="cls-30"><g class="cls-1"><g class="cls-31"><g class="cls-32"><rect class="cls-33" x="271.89" y="57.94" width="778.96" height="750.96" transform="translate(-53.05 772.34) rotate(-58.62)"/></g></g></g></g></g></g></g></mask><clipPath id="clip-path-62" transform="translate(73.7 93.89)"><rect class="cls-3" x="136.22" y="-98.63" width="1050.3" height="1060.07"/></clipPath><clipPath id="clip-path-63" transform="translate(73.7 93.89)"><path class="cls-3" d="M735,134.12a13.07,13.07,0,0,0-3.68.53l-.69.25h0L417.16,251.52s-13.05,5.26-6.56,22.7L416.84,291l0-.1,152.91,411v0l5,13.45c6.48,17.45,19.79,12.9,19.79,12.9l.71-.26h0L757,667.71l1-.36L908.62,611.3a14.19,14.19,0,0,0,5.24-4.18,14.88,14.88,0,0,0,3.12-9.3v-.39a26,26,0,0,0-1.81-8.83L870.93,469.7,795.31,266.44l-44.24-118.9c-4.2-11.29-11.26-13.36-15.72-13.42Z"/></clipPath><linearGradient id="linear-gradient-7" x1="2094.16" y1="14.52" x2="2095.16" y2="14.52" gradientTransform="translate(-4077.31 683844.28) rotate(-90) scale(326.31)" xlink:href="#linear-gradient-5"/><filter id="luminosity-noclip-33" x="390.49" y="244.44" width="656.82" height="632.35" filterUnits="userSpaceOnUse" color-interpolation-filters="sRGB"><feFlood flood-color="#fff" result="bg"/><feBlend in="SourceGraphic" in2="bg"/></filter><mask id="mask-33" x="464.19" y="338.32" width="656.82" height="632.35" maskUnits="userSpaceOnUse"><g class="cls-182"><g transform="translate(73.7 93.89)"><g class="cls-1"><g class="cls-34"><g class="cls-1"><g class="cls-35"><g class="cls-36"><rect class="cls-37" x="458.89" y="321.93" width="520" height="477.37" transform="translate(-153.44 295.8) rotate(-21.06)"/></g></g></g></g></g></g></g></mask><clipPath id="clip-path-64" transform="translate(73.7 93.89)"><rect class="cls-3" x="390.49" y="244.44" width="656.81" height="632.35"/></clipPath><clipPath id="clip-path-65" transform="translate(73.7 93.89)"><path class="cls-3" d="M707.27,439.87q-99.93,38.5-199.86,77l77.28,200.66c4.31,11.2,11.36,13.22,15.82,13.25h.15a13.51,13.51,0,0,0,4-.58L917.39,609.81a14.62,14.62,0,0,0,8.21-13.51v-.11a25.85,25.85,0,0,0-1.92-9.16l-77.3-200.75L707.27,439.87"/></clipPath><radialGradient id="radial-gradient-26" cx="2086.95" cy="20.02" r="1" gradientTransform="matrix(735.42, 0, 0, 735.42, -1534076.33, -14723.81)" xlink:href="#radial-gradient-18"/><filter id="luminosity-noclip-34" x="395.22" y="18.63" width="736.7" height="824.75" filterUnits="userSpaceOnUse" color-interpolation-filters="sRGB"><feFlood flood-color="#fff" result="bg"/><feBlend in="SourceGraphic" in2="bg"/></filter><mask id="mask-34" x="468.92" y="112.51" width="736.7" height="824.75" maskUnits="userSpaceOnUse"><g class="cls-181"><g transform="translate(73.7 93.89)"><g class="cls-1"><g class="cls-38"><g class="cls-1"><g class="cls-39"><g class="cls-40"><rect class="cls-41" x="499.96" y="90.89" width="527.21" height="680.48" transform="translate(-103.93 303.2) rotate(-21.06)"/></g></g></g></g></g></g></g></mask><clipPath id="clip-path-66" transform="translate(73.7 93.89)"><rect class="cls-3" x="395.22" y="18.63" width="736.7" height="824.74"/></clipPath><clipPath id="clip-path-67" transform="translate(73.7 93.89)"><path class="cls-3" d="M738.62,134.63a13,13,0,0,0-4,.57l-.7.27s13.27-4.7,19.94,12.64L799.4,266.33l77.82,202.09,45.53,118.21c6.67,17.34-6.32,22.75-6.32,22.75L766.28,667.21l-12.78,4.92L603.35,730a14.27,14.27,0,0,1-6.59.36,14.44,14.44,0,0,0,7.87-.06l150-57.77,12.77-4.91,150-57.77a14.59,14.59,0,0,0,8.21-13.41v-.28a26,26,0,0,0-1.91-9.08L878.1,468.64,800.16,266.26,754.57,147.88c-4.32-11.23-11.4-13.24-15.85-13.25Z"/></clipPath><radialGradient id="radial-gradient-27" cx="2086.16" cy="20.02" r="1" gradientTransform="translate(-1220186.77 -11569.95) scale(585.12)" xlink:href="#linear-gradient-5"/><filter id="luminosity-noclip-35" x="207.34" y="22.08" width="736.7" height="824.74" filterUnits="userSpaceOnUse" color-interpolation-filters="sRGB"><feFlood flood-color="#fff" result="bg"/><feBlend in="SourceGraphic" in2="bg"/></filter><mask id="mask-35" x="281.04" y="115.97" width="736.7" height="824.74" maskUnits="userSpaceOnUse"><g class="cls-180"><g transform="translate(73.7 93.89)"><g class="cls-1"><g class="cls-42"><g class="cls-1"><g class="cls-43"><g class="cls-44"><rect class="cls-45" x="312.13" y="94.6" width="527.11" height="680.23" transform="translate(-117.76 235.92) rotate(-21.06)"/></g></g></g></g></g></g></g></mask><clipPath id="clip-path-68" transform="translate(73.7 93.89)"><rect class="cls-3" x="207.34" y="22.08" width="736.7" height="824.74"/></clipPath><clipPath id="clip-path-69" transform="translate(73.7 93.89)"><path class="cls-3" d="M734.63,135.2,584.63,193l-12.77,4.92-150,57.76s-13,5.41-6.29,22.78l45.59,118.38L539.1,599.19l45.59,118.39c4.31,11.2,11.36,13.22,15.82,13.25h.15a13.51,13.51,0,0,0,4-.58l.7-.27s-13.27,4.7-20-12.64L539.86,599.13,462,397,416.51,278.82c-6.68-17.34,6.32-22.75,6.32-22.75L573,198.24l12.77-4.92L735.91,135.5a14.24,14.24,0,0,1,6.59-.36,14.67,14.67,0,0,0-3.84-.51,13.29,13.29,0,0,0-4,.57"/></clipPath><radialGradient id="radial-gradient-28" cx="2085.5" cy="20.02" r="1" gradientTransform="matrix(498.37, 0, 0, 498.37, -1038765.88, -9618.96)" xlink:href="#radial-gradient-20"/><filter id="luminosity-noclip-36" x="284.7" y="242.15" width="432.07" height="514.93" filterUnits="userSpaceOnUse" color-interpolation-filters="sRGB"><feFlood flood-color="#fff" result="bg"/><feBlend in="SourceGraphic" in2="bg"/></filter><mask id="mask-36" x="358.4" y="336.03" width="432.07" height="514.93" maskUnits="userSpaceOnUse"><g class="cls-179"><g transform="translate(73.7 93.89)"><g class="cls-1"><g class="cls-1"><g class="cls-46"><g class="cls-47"><rect class="cls-48" x="353.67" y="280.35" width="294.13" height="438.53" transform="translate(-146.09 213.32) rotate(-21.06)"/></g></g></g></g></g></g></mask><clipPath id="clip-path-70" transform="translate(73.7 93.89)"><rect class="cls-3" x="284.7" y="242.15" width="432.07" height="514.93"/></clipPath><clipPath id="clip-path-71" transform="translate(73.7 93.89)"><path class="cls-3" d="M579.53,704.23h0l-.27-2.75-39.67-103L425.48,302.15,421.94,295Z"/></clipPath><radialGradient id="radial-gradient-29" cx="2093.83" cy="20.02" r="1" gradientTransform="matrix(-585.94, 0, 0, 585.94, 1227729.99, -11487.08)" xlink:href="#linear-gradient-5"/><filter id="luminosity-noclip-37" x="236" y="-35.74" width="981.88" height="981.89" filterUnits="userSpaceOnUse" color-interpolation-filters="sRGB"><feFlood flood-color="#fff" result="bg"/><feBlend in="SourceGraphic" in2="bg"/></filter><mask id="mask-37" x="309.7" y="58.15" width="981.88" height="981.89" maskUnits="userSpaceOnUse"><g class="cls-178"><g transform="translate(73.7 93.89)"><g class="cls-1"><g class="cls-49"><g class="cls-1"><g class="cls-50"><g class="cls-51"><rect class="cls-52" x="380.53" y="109.17" width="692.81" height="693.62" transform="translate(-110.38 643.7) rotate(-44.73)"/></g></g></g></g></g></g></g></mask><clipPath id="clip-path-72" transform="translate(73.7 93.89)"><rect class="cls-3" x="236" y="-35.74" width="981.88" height="981.89"/></clipPath><clipPath id="clip-path-73" transform="translate(73.7 93.89)"><path class="cls-3" d="M859.2,180.06c-.49,0-.76,0-.76,0l-.58.09-158.6,22.25-10.15,1.43L526.54,226.67s-13.87,2.34-11.29,20.77l2.49,17.69,0-.11,60.94,434.27a.07.07,0,0,0,0,0l2,14.22c2.59,18.43,16.57,16.85,16.57,16.85L756.39,708l6.77-1,166-23.29a14.53,14.53,0,0,0,9.82-7.78c1.48-3,2.28-7.23,1.47-13L922.77,537.35,892.63,322.58,875,197c-2.19-15.62-12.57-16.87-15.68-16.89Z"/></clipPath><linearGradient id="linear-gradient-8" x1="2092.91" y1="13.26" x2="2093.91" y2="13.26" gradientTransform="translate(-3327.42 640367.5) rotate(-90) scale(305.75)" xlink:href="#linear-gradient-5"/><filter id="luminosity-noclip-38" x="515.66" y="400.01" width="468.11" height="387.52" filterUnits="userSpaceOnUse" color-interpolation-filters="sRGB"><feFlood flood-color="#fff" result="bg"/><feBlend in="SourceGraphic" in2="bg"/></filter><mask id="mask-38" x="589.36" y="493.9" width="468.11" height="387.52" maskUnits="userSpaceOnUse"><g class="cls-177"><g transform="translate(73.7 93.89)"><g class="cls-1"><g class="cls-53"><g class="cls-1"><g class="cls-54"><g class="cls-55"><rect class="cls-56" x="536.4" y="427.65" width="426.64" height="332.25" transform="translate(-74.23 108.22) rotate(-7.87)"/></g></g></g></g></g></g></g></mask><clipPath id="clip-path-74" transform="translate(73.7 93.89)"><rect class="cls-3" x="553.8" y="453.15" width="389.6" height="279.74"/></clipPath><clipPath id="clip-path-75" transform="translate(73.7 93.89)"><rect class="cls-3" x="553.8" y="453.15" width="389.59" height="279.74"/></clipPath><filter id="luminosity-noclip-39" x="475.7" y="129.66" width="475.69" height="406.19" filterUnits="userSpaceOnUse" color-interpolation-filters="sRGB"><feFlood flood-color="#fff" result="bg"/><feBlend in="SourceGraphic" in2="bg"/></filter><mask id="mask-39" x="549.4" y="223.54" width="475.69" height="406.19" maskUnits="userSpaceOnUse"><g class="cls-176"><g transform="translate(73.7 93.89)"><g class="cls-1"><g class="cls-57"><g class="cls-1"><g class="cls-58"><g class="cls-59"><rect class="cls-60" x="497.65" y="157.56" width="431.79" height="350.38" transform="translate(-38.83 100.81) rotate(-7.87)"/></g></g></g></g></g></g></g></mask><clipPath id="clip-path-76" transform="translate(73.7 93.89)"><rect class="cls-3" x="518.51" y="183.16" width="392.31" height="299.18"/></clipPath><clipPath id="clip-path-77" transform="translate(73.7 93.89)"><rect class="cls-3" x="518.51" y="183.16" width="392.31" height="299.18"/></clipPath><filter id="luminosity-noclip-40" x="517.3" y="133.8" width="503.13" height="647.4" filterUnits="userSpaceOnUse" color-interpolation-filters="sRGB"><feFlood flood-color="#fff" result="bg"/><feBlend in="SourceGraphic" in2="bg"/></filter><mask id="mask-40" x="591" y="227.69" width="503.13" height="647.4" maskUnits="userSpaceOnUse"><g class="cls-175"><g transform="translate(73.7 93.89)"><g class="cls-1"><g class="cls-61"><g class="cls-1"><g class="cls-62"><g class="cls-63"><rect class="cls-64" x="556" y="160.14" width="425.72" height="594.72" transform="translate(-55.39 109.56) rotate(-7.87)"/></g></g></g></g></g></g></g></mask><clipPath id="clip-path-78" transform="translate(73.7 93.89)"><rect class="cls-3" x="592.08" y="183.16" width="351.32" height="549.73"/></clipPath><clipPath id="clip-path-79" transform="translate(73.7 93.89)"><rect class="cls-3" x="592.08" y="183.16" width="351.31" height="549.73"/></clipPath><filter id="luminosity-noclip-41" x="441.52" y="135.22" width="503.05" height="647.13" filterUnits="userSpaceOnUse" color-interpolation-filters="sRGB"><feFlood flood-color="#fff" result="bg"/><feBlend in="SourceGraphic" in2="bg"/></filter><mask id="mask-41" x="515.22" y="229.1" width="503.05" height="647.13" maskUnits="userSpaceOnUse"><g class="cls-174"><g transform="translate(73.7 93.89)"><g class="cls-1"><g class="cls-65"><g class="cls-1"><g class="cls-66"><g class="cls-67"><rect class="cls-68" x="480.2" y="161.56" width="425.68" height="594.45" transform="translate(-56.28 99.19) rotate(-7.87)"/></g></g></g></g></g></g></g></mask><clipPath id="clip-path-80" transform="translate(73.7 93.89)"><rect class="cls-3" x="518.51" y="183.16" width="351.32" height="549.73"/></clipPath><clipPath id="clip-path-81" transform="translate(73.7 93.89)"><rect class="cls-3" x="518.51" y="183.16" width="351.31" height="549.73"/></clipPath><filter id="luminosity-noclip-42" x="462.33" y="259.21" width="178.21" height="450.78" filterUnits="userSpaceOnUse" color-interpolation-filters="sRGB"><feFlood flood-color="#fff" result="bg"/><feBlend in="SourceGraphic" in2="bg"/></filter><mask id="mask-42" x="536.03" y="353.09" width="178.21" height="450.78" maskUnits="userSpaceOnUse"><g class="cls-173"><g transform="translate(73.7 93.89)"><g class="cls-1"><g class="cls-1"><g class="cls-73"><g class="cls-74"><rect class="cls-75" x="491.79" y="265.31" width="119.29" height="438.58" transform="matrix(0.99, -0.14, 0.14, 0.99, -61.15, 80.05)"/></g></g></g></g></g></g></mask><clipPath id="clip-path-82" transform="translate(73.7 93.89)"><rect class="cls-3" x="462.33" y="259.21" width="178.21" height="450.78"/></clipPath><clipPath id="clip-path-83" transform="translate(73.7 93.89)"><path class="cls-3" d="M581.27,701.8l.36-2.74L566.52,589.68,523.06,275.17c-.62-2.59-1.22-5.18-1.82-7.77Z"/></clipPath><radialGradient id="radial-gradient-30" cx="2093.72" cy="20.89" r="1" gradientTransform="matrix(-585.85, 0, 0, 585.85, 1227539.26, -12012.42)" xlink:href="#linear-gradient-5"/><clipPath id="clip-path-84" transform="translate(73.7 93.89)"><rect class="cls-3" y="163.6" width="1129.19" height="673.96"/></clipPath><clipPath id="clip-path-85" transform="translate(73.7 93.89)"><rect class="cls-3" x="223" y="504.66" width="304.07" height="299.58"/></clipPath></defs><g class="cls-1"><g id="Layer_2" data-name="Layer 2"><g id="Layer_1-2" data-name="Layer 1"><g id="Artwork_116" data-name="Artwork 116"><g class="cls-83"><g class="cls-83"><polygon class="cls-84" points="144.34 392.97 216.14 439.26 199.73 464.72 127.92 418.44 114.46 439.32 89.68 423.34 133.01 356.11 157.79 372.09 144.34 392.97"/><g class="cls-85"><path class="cls-86" d="M126,374.33a3.56,3.56,0,0,1-1.9-.55L55.27,329.39,43.71,347.33a3.5,3.5,0,0,1-4.84,1l-24.79-16A3.5,3.5,0,0,1,13,327.56l43.33-67.23a3.5,3.5,0,0,1,2.21-1.52,3.44,3.44,0,0,1,2.63.48l24.79,16A3.49,3.49,0,0,1,87,280.1L75.47,298l68.87,44.39a3.5,3.5,0,0,1,1,4.84L129,372.73a3.45,3.45,0,0,1-2.2,1.52,3.11,3.11,0,0,1-.74.08m-71.8-53.28a3.47,3.47,0,0,1,1.89.56L125,366l12.62-19.58L68.74,302a3.49,3.49,0,0,1-1-4.84l11.57-17.94L60.35,267.07,20.81,328.41l18.91,12.18,11.56-17.94a3.52,3.52,0,0,1,2.95-1.6" transform="translate(73.7 93.89)"/><path class="cls-84" d="M166,252l46.32,8.47L189.13,286.9l-46.32-8.46,30.35,26.65-19.94,22.7L66.87,252l31.51-35.89A36.63,36.63,0,0,1,127,203q16.23,0,29.49,11.6,9.93,8.73,11.34,24.25A38.76,38.76,0,0,1,166,252m-37,14.33,6.71-7.65A16.68,16.68,0,0,0,139.92,248a14.6,14.6,0,0,0-4.84-10.76,12.86,12.86,0,0,0-10.71-3.11,14.85,14.85,0,0,0-10.16,5.38l-6.87,7.82Z" transform="translate(73.7 93.89)"/><path class="cls-86" d="M153.22,331.29a3.45,3.45,0,0,1-2.3-.87L64.56,254.6a3.51,3.51,0,0,1-.32-4.94l31.51-35.89A40.15,40.15,0,0,1,127,199.53h.09c11.62,0,22.29,4.19,31.72,12.47,7.28,6.4,11.5,15.34,12.51,26.57,0,.06,0,.13,0,.2a42.47,42.47,0,0,1-1,10.47L213,257a3.5,3.5,0,0,1,2,5.76l-23.21,26.43a3.49,3.49,0,0,1-3.26,1.14l-33.88-6.19,20.85,18.3a3.51,3.51,0,0,1,.32,4.94l-19.94,22.7a3.48,3.48,0,0,1-2.4,1.19h-.23M71.81,251.65l81.09,71.2,15.32-17.44L140.5,281.07a3.5,3.5,0,0,1,2.94-6.07l44.37,8.1,17.82-20.3-40.24-7.35A3.55,3.55,0,0,1,163,253.8a3.48,3.48,0,0,1-.33-2.87,35.31,35.31,0,0,0,1.65-11.84c-.87-9.46-4.2-16.6-10.15-21.83C145.94,210,137,206.51,127,206.53c-10.51,0-19,3.9-26,11.86ZM129,269.83a3.5,3.5,0,0,1-2.31-.87l-21.68-19a3.5,3.5,0,0,1-.32-4.93l6.87-7.83a18.33,18.33,0,0,1,12.4-6.55,16.28,16.28,0,0,1,13.41,4,18.06,18.06,0,0,1,6,13.22V248a20.19,20.19,0,0,1-5,12.95l-.09.09-6.71,7.65a3.48,3.48,0,0,1-2.63,1.19M112.28,247l16.42,14.42,4.36-5a13.19,13.19,0,0,0,3.36-8.37,11.14,11.14,0,0,0-3.65-8.22,9.32,9.32,0,0,0-7.92-2.27l-.19,0a11.41,11.41,0,0,0-7.82,4.2Z" transform="translate(73.7 93.89)"/><path class="cls-84" d="M135.43,175.58l23.46-19.05,43.54,53.63q5.06,6.22,11.48,6.89t12.7-4.32q6.21-5.05,6.89-11.48t-4.44-12.71l-43.54-53.63,23.39-19,43.54,53.63q13,16,11,34.92-2,18.76-17.87,31.65t-34.81,11Q192,245.2,179,229.21Z" transform="translate(73.7 93.89)"/><path class="cls-86" d="M215.56,250.89c-1.69,0-3.4-.09-5.12-.26-13.46-1.4-25-7.86-34.18-19.22l-43.54-53.63a3.5,3.5,0,0,1,.51-4.92l23.45-19.05a3.52,3.52,0,0,1,4.93.51L205.15,208c2.78,3.43,5.77,5.27,9.12,5.62s6.71-.78,10.13-3.56,5.27-5.77,5.62-9.12-.86-6.67-3.68-10.15L182.8,137.12a3.51,3.51,0,0,1,.51-4.93l23.39-19a3.5,3.5,0,0,1,4.93.51l43.54,53.63c9.22,11.35,13.19,24,11.78,37.5s-7.87,24.84-19.14,34c-9.87,8-20.7,12-32.25,12m-75.2-74.8L181.7,227c8.12,10,17.75,15.45,29.45,16.67s22.28-2.18,32.25-10.27,15.35-17.64,16.59-29.3-2.13-22.35-10.25-32.35L208.4,120.84l-18,14.58,41.34,50.91c4,4.92,5.74,10.06,5.2,15.28s-3.29,9.87-8.17,13.83-10,5.68-15.29,5.09-9.85-3.29-13.8-8.16l-41.34-50.92Z" transform="translate(73.7 93.89)"/><polygon class="cls-84" points="338.29 211.12 345.5 223.43 375.44 205.9 390.39 231.42 360.44 248.95 381.46 284.85 355.38 300.11 297.32 200.94 359.63 164.45 369.48 192.86 338.29 211.12"/><path class="cls-86" d="M281.68,209.73a3.33,3.33,0,0,1-.88-.12,3.46,3.46,0,0,1-2.14-1.62L220.6,108.82a3.5,3.5,0,0,1,1.25-4.79l62.31-36.48a3.51,3.51,0,0,1,3-.27,3.56,3.56,0,0,1,2.1,2.14l9.85,28.41a3.49,3.49,0,0,1-1.54,4.16l-28.17,16.5,3.67,6.27L300,109a3.52,3.52,0,0,1,4.79,1.25l14.94,25.52a3.51,3.51,0,0,1-1.26,4.79l-26.92,15.77,19.25,32.87a3.51,3.51,0,0,1-1.26,4.79l-26.07,15.27a3.56,3.56,0,0,1-1.77.48M228.41,108.3l54.53,93.14,20-11.73-19.25-32.88a3.48,3.48,0,0,1,1.25-4.78l26.93-15.77L300.49,116.8l-26.92,15.77a3.53,3.53,0,0,1-2.66.36,3.49,3.49,0,0,1-2.13-1.61L261.57,119a3.49,3.49,0,0,1,1.25-4.78l28.71-16.81L284,75.74Z" transform="translate(73.7 93.89)"/><polygon class="cls-84" points="409.27 175.2 414.8 188.35 446.78 174.89 458.25 202.15 426.27 215.6 442.4 253.94 414.56 265.66 369.98 159.74 436.53 131.73 442.58 161.18 409.27 175.2"/><path class="cls-86" d="M340.85,175.28a3.61,3.61,0,0,1-1.32-.26,3.49,3.49,0,0,1-1.9-1.89L293.05,67.21a3.52,3.52,0,0,1,1.87-4.59l66.56-28a3.5,3.5,0,0,1,4.78,2.52l6.05,29.45a3.5,3.5,0,0,1-2.07,3.93L340.15,83.18l2.82,6.7,28.76-12.1a3.48,3.48,0,0,1,2.67,0,3.52,3.52,0,0,1,1.91,1.88l11.47,27.26a3.52,3.52,0,0,1-1.87,4.59l-28.76,12.1,14.78,35.11a3.5,3.5,0,0,1-1.87,4.58L342.21,175a3.52,3.52,0,0,1-1.36.28m-40-107.56,41.86,99.47,21.4-9-14.78-35.11a3.52,3.52,0,0,1,1.87-4.59L380,106.39l-8.76-20.8-28.75,12.1a3.52,3.52,0,0,1-4.59-1.87l-5.53-13.15a3.5,3.5,0,0,1,1.87-4.58l30.66-12.91-4.61-22.46Z" transform="translate(73.7 93.89)"/><polygon class="cls-84" points="499.09 202.85 535.98 192.83 549.44 219.74 477.67 239.24 447.54 128.33 476.7 120.41 499.09 202.85"/><path class="cls-86" d="M404,148.85a3.54,3.54,0,0,1-1.74-.46,3.49,3.49,0,0,1-1.64-2.12L370.46,35.37a3.51,3.51,0,0,1,2.46-4.3l29.16-7.92a3.5,3.5,0,0,1,4.29,2.46l21.48,79.06,33.51-9.1a3.51,3.51,0,0,1,4.05,1.81l13.46,26.91a3.5,3.5,0,0,1-2.22,4.94l-71.77,19.5a3.56,3.56,0,0,1-.91.12M378.13,36.91l28.3,104.14,64.26-17.45-10.26-20.52-34.12,9.27a3.5,3.5,0,0,1-4.3-2.46L400.53,30.82Z" transform="translate(73.7 93.89)"/><polygon class="cls-84" points="563.92 132.44 565.85 147.31 603.2 142.44 606.84 170.34 569.48 175.2 571.14 187.91 609.92 182.87 619.61 211.35 544.99 221.06 530.15 107.1 604.77 97.39 602.78 127.39 563.92 132.44"/><path class="cls-86" d="M471.28,130.67a3.5,3.5,0,0,1-3.47-3L453,13.67a3.51,3.51,0,0,1,3-3.93L530.62,0a3.48,3.48,0,0,1,2.85.92,3.52,3.52,0,0,1,1.1,2.78l-2,30a3.5,3.5,0,0,1-3,3.24l-35.39,4.61,1,7.92,33.88-4.41a3.5,3.5,0,0,1,3.93,3L536.61,76a3.5,3.5,0,0,1-3,3.92l-33.88,4.41.75,5.78,35.31-4.6a3.49,3.49,0,0,1,3.76,2.34l9.69,28.48a3.5,3.5,0,0,1-2.86,4.6l-74.62,9.71-.46,0M460.37,16.23l13.93,107,66.92-8.71-7.39-21.72L497.89,97.5a3.5,3.5,0,0,1-3.92-3l-1.66-12.71a3.51,3.51,0,0,1,3-3.93l33.88-4.41-2.72-21L492.6,56.89a3.51,3.51,0,0,1-3.92-3L486.75,39a3.49,3.49,0,0,1,3-3.92l36-4.69L527.3,7.52Z" transform="translate(73.7 93.89)"/><path class="cls-84" d="M616.68,78.62c-1.67-1.4-5.25-3.23-10.72-5.52q-14.78-6.18-21-11.25-11.73-9.91-10.72-25.35.9-13.66,9.13-21.73Q595.6,2.88,614.4,4q16.8,1,32.18,11.5l-6.75,24.62q-4.41-3.82-13.41-6.18a50.38,50.38,0,0,0-15.06-1.79q-6.78.45-7.8,3.91-1.3,3.78,5.17,6.92.69.38,15.4,6.39a55.7,55.7,0,0,1,15.09,8.77,31.53,31.53,0,0,1,9.22,12.49,33.39,33.39,0,0,1,2.1,14.67,37.87,37.87,0,0,1-3.2,13.29,36.19,36.19,0,0,1-11.1,13.81q-12.51,9.63-32.07,7.79-17.88-1.74-36.68-15.08L576,80.94q6.78,5.82,21.91,10.19,17.42,5,20.84-1.94,3.13-6.21-2-10.57" transform="translate(73.7 93.89)"/><path class="cls-86" d="M610.21,124c-2.06,0-4.19-.1-6.37-.31-12.48-1.21-25.39-6.49-38.38-15.71a3.49,3.49,0,0,1-1.27-4l8.48-24.19a3.5,3.5,0,0,1,5.59-1.49c4.1,3.53,11,6.72,20.59,9.47,9.28,2.66,15.38,2.62,16.74-.12s1-4.49-1.15-6.34c-.8-.66-3.13-2.17-9.83-5-10.26-4.29-17.4-8.14-21.82-11.77-8.71-7.37-12.73-16.88-12-28.29.65-10,4.07-18,10.17-24C589.79,3.66,601.11-.29,614.61.53c11.79.71,23.2,4.78,33.94,12.09a3.51,3.51,0,0,1,1.4,3.82l-6.74,24.62a3.51,3.51,0,0,1-5.67,1.72c-2.52-2.18-6.56-4-12-5.44a47.36,47.36,0,0,0-14-1.67c-3.53.23-4.55,1.09-4.64,1.41,0,0,0,.09,0,.14a.3.3,0,0,0,0,.1s.32,1,3.42,2.54l.1,0c.4.19,3.4,1.46,15.09,6.24a58.9,58.9,0,0,1,16,9.35,35,35,0,0,1,10.21,13.86A37,37,0,0,1,654,85.55a41.5,41.5,0,0,1-3.5,14.5,39.71,39.71,0,0,1-12.14,15.13c-7.62,5.87-17.08,8.82-28.18,8.82m-38.54-20.23c11.23,7.57,22.27,11.93,32.84,13,12.06,1.14,22-1.24,29.6-7.07a32.88,32.88,0,0,0,10-12.48A34.56,34.56,0,0,0,647,85.1,30,30,0,0,0,645.19,72,28.15,28.15,0,0,0,637,60.84a52.07,52.07,0,0,0-14.15-8.21c-14.09-5.77-15.3-6.31-15.67-6.5-7.92-3.88-7.76-8.6-6.92-11.11,1.17-3.81,4.84-5.94,10.91-6.34a53.91,53.91,0,0,1,16.16,1.89,46.92,46.92,0,0,1,10.46,3.93L642.53,17a59.52,59.52,0,0,0-28.34-9.53c-11.61-.7-20.88,2.49-28.32,9.77-4.9,4.78-7.54,11.15-8.08,19.45-.6,9.2,2.5,16.55,9.48,22.45,3.79,3.11,10.55,6.72,20,10.69,5.93,2.48,9.62,4.4,11.61,6.06h0c4.71,4,5.74,9.22,2.92,14.83-4.71,9.52-19.93,5.15-24.94,3.72-8.11-2.34-14.45-5-19.19-7.95Z" transform="translate(73.7 93.89)"/><polygon class="cls-84" points="764.85 152.91 790.66 158.7 800.33 115.61 829.88 122.25 804.73 234.38 775.17 227.75 784.2 187.48 758.4 181.69 749.36 221.96 719.88 215.34 745.04 103.21 774.52 109.83 764.85 152.91"/><path class="cls-86" d="M731,144a3.27,3.27,0,0,1-.76-.08l-29.56-6.63a3.51,3.51,0,0,1-2.65-4.19l8.27-36.85-19-4.26-8.27,36.86a3.51,3.51,0,0,1-4.18,2.65l-29.48-6.62a3.48,3.48,0,0,1-2.65-4.18L667.93,8.56a3.43,3.43,0,0,1,1.54-2.19,3.5,3.5,0,0,1,2.64-.46l29.48,6.61a3.52,3.52,0,0,1,2.65,4.19l-8.91,39.67,19,4.25L723.21,21a3.5,3.5,0,0,1,4.18-2.65L757,25a3.5,3.5,0,0,1,2.65,4.18L734.44,141.26A3.49,3.49,0,0,1,731,144m-25.37-12.78,22.73,5.1L752,31l-22.73-5.1-8.9,39.67a3.5,3.5,0,0,1-4.18,2.65l-25.8-5.79a3.47,3.47,0,0,1-2.19-1.54,3.51,3.51,0,0,1-.46-2.64l8.9-39.67L674,13.51l-23.63,105.3L673,123.89,681.28,87a3.48,3.48,0,0,1,4.18-2.64l25.81,5.79a3.5,3.5,0,0,1,2.65,4.18Z" transform="translate(73.7 93.89)"/><path class="cls-84" d="M774.41,33.79l27.9,11.59-26.5,63.8q-3.07,7.39-.61,13.37t9.84,9.12q7.4,3.08,13.37.61t9.07-9.94L834,58.54,861.81,70.1l-26.5,63.8q-7.9,19-25.5,26.29t-36.33-.69q-18.94-7.87-26.25-25.4t.68-36.51Z" transform="translate(73.7 93.89)"/><path class="cls-86" d="M792.83,167.09a53.68,53.68,0,0,1-20.7-4.36C758.68,157.14,749.21,148,744,135.45s-4.94-25.69.68-39.2l26.5-63.8a3.5,3.5,0,0,1,4.57-1.89l27.9,11.59a3.49,3.49,0,0,1,1.89,4.58L779,110.52c-1.69,4.08-1.89,7.58-.6,10.7s3.87,5.53,7.94,7.22,7.58,1.89,10.69.61,5.47-3.92,7.18-8.05l26.5-63.8a3.51,3.51,0,0,1,4.58-1.89l27.83,11.56a3.51,3.51,0,0,1,1.89,4.58l-26.51,63.79c-5.61,13.51-14.82,23-27.39,28.18a47.89,47.89,0,0,1-18.32,3.67M776.3,38.37,751.14,98.93c-4.94,11.9-5.16,23-.67,33.84s12.5,18.57,24.35,23.5,22.81,5.12,33.67.68,18.65-12.5,23.59-24.39L857.24,72l-21.36-8.87-25.16,60.56c-2.43,5.85-6.12,9.83-11,11.84s-10.26,1.79-16.06-.62-9.76-6.12-11.74-11-1.78-10.22.63-16l25.16-60.57Z" transform="translate(73.7 93.89)"/><polygon class="cls-84" points="960.87 213.71 953.46 225.89 983.09 243.94 967.71 269.19 938.08 251.15 916.44 286.67 890.64 270.96 950.41 172.8 1012.08 210.35 991.74 232.5 960.87 213.71"/><path class="cls-86" d="M842.74,196.29a3.56,3.56,0,0,1-1.82-.51l-25.8-15.72a3.5,3.5,0,0,1-1.17-4.81L873.72,77.1a3.49,3.49,0,0,1,4.81-1.17l61.67,37.55a3.51,3.51,0,0,1,.76,5.36L920.62,141a3.51,3.51,0,0,1-4.4.63l-27.88-17-3.78,6.21,26.65,16.22a3.5,3.5,0,0,1,1.17,4.81L897,177.13a3.51,3.51,0,0,1-4.81,1.17l-26.65-16.23-19.81,32.54a3.5,3.5,0,0,1-3,1.68m-21-20.38L841.57,188l19.82-32.54a3.48,3.48,0,0,1,4.8-1.17l26.65,16.23,11.74-19.28L877.93,135a3.49,3.49,0,0,1-1.16-4.81L884.18,118a3.5,3.5,0,0,1,4.81-1.17l28.42,17.3,15.51-16.89-55-33.51Z" transform="translate(73.7 93.89)"/><polygon class="cls-84" points="1026.11 259.08 1017.17 270.19 1044.2 291.95 1025.67 314.99 998.63 293.24 972.56 325.64 949.02 306.71 1021.05 217.16 1077.31 262.42 1054.27 281.74 1026.11 259.08"/><path class="cls-86" d="M898.85,235.26a3.49,3.49,0,0,1-2.19-.77l-23.54-18.94a3.51,3.51,0,0,1-.53-4.92l72-89.54a3.5,3.5,0,0,1,4.92-.54l56.27,45.26a3.51,3.51,0,0,1,.05,5.41l-23,19.31a3.5,3.5,0,0,1-4.45.05l-25.43-20.46-4.55,5.66,24.31,19.56a3.5,3.5,0,0,1,.53,4.92l-18.54,23a3.5,3.5,0,0,1-4.92.53l-24.31-19.56L901.58,234a3.49,3.49,0,0,1-2.73,1.31m-18.61-23,18.08,14.55,23.88-29.68a3.5,3.5,0,0,1,4.92-.54l24.31,19.56,14.15-17.58L941.27,179a3.5,3.5,0,0,1-.53-4.92L949.68,163a3.51,3.51,0,0,1,2.35-1.28,3.46,3.46,0,0,1,2.57.75l25.92,20.85L998.1,168.6l-50.22-40.4Z" transform="translate(73.7 93.89)"/><polygon class="cls-84" points="1044.49 351.23 1070.88 378.89 1053.63 403.54 1002.29 349.73 1085.44 270.4 1106.3 292.26 1044.49 351.23"/><path class="cls-86" d="M979.93,313.15a3.51,3.51,0,0,1-2.53-1.08l-51.34-53.81a3.5,3.5,0,0,1,.11-4.95L1009.32,174a3.5,3.5,0,0,1,4.95.12L1035.13,196a3.5,3.5,0,0,1-.12,5l-59.28,56.56,24,25.13A3.49,3.49,0,0,1,1000,287L982.8,311.66a3.5,3.5,0,0,1-2.61,1.48h-.26M933.54,256l46,48.18,13.15-18.8-24.41-25.58a3.46,3.46,0,0,1-1-2.5,3.51,3.51,0,0,1,1.08-2.45l59.28-56.56-16-16.79Z" transform="translate(73.7 93.89)"/><polygon class="cls-84" points="1137.29 374.6 1125.15 383.39 1147.26 413.89 1124.49 430.4 1102.38 399.9 1092 407.43 1114.95 439.09 1094.56 461.2 1050.39 400.28 1143.43 332.82 1187.6 393.75 1160.29 406.32 1137.29 374.6"/><path class="cls-86" d="M1020.86,370.82h-.21a3.48,3.48,0,0,1-2.62-1.44l-44.18-60.92a3.5,3.5,0,0,1-.62-2.6,3.54,3.54,0,0,1,1.4-2.29l93-67.45a3.5,3.5,0,0,1,4.89.77l44.17,60.93a3.45,3.45,0,0,1,.55,2.94,3.49,3.49,0,0,1-1.92,2.29l-27.31,12.58a3.51,3.51,0,0,1-4.3-1.13l-20.94-28.89-6.47,4.69L1076.4,318a3.51,3.51,0,0,1-.78,4.89l-22.78,16.51a3.5,3.5,0,0,1-2.6.62,3.54,3.54,0,0,1-2.29-1.4l-20-27.66-4.71,3.41,20.9,28.83a3.5,3.5,0,0,1-.26,4.43l-20.4,22.11a3.5,3.5,0,0,1-2.57,1.13m-39.29-63.64,39.61,54.63,15.56-16.87-21.28-29.34a3.51,3.51,0,0,1,.78-4.89l10.38-7.52a3.5,3.5,0,0,1,4.89.77l20.06,27.67,17.1-12.41-20.05-27.66a3.49,3.49,0,0,1,.78-4.89l12.13-8.79a3.48,3.48,0,0,1,4.89.78l21.31,29.4,20.83-9.6L1069,243.83Z" transform="translate(73.7 93.89)"/><g class="cls-87"><g class="cls-88"><g class="cls-89"><g class="cls-90"><rect class="cls-91" x="165.51" y="65" width="728.96" height="732.2" transform="translate(64.96 945.13) rotate(-77.08)"/></g></g></g></g><path class="cls-86" d="M470.13,131.89l-111,116.23L349.65,258l-111,116.23s-9.44,10.43,4,23.29l91.73,87.62L491.21,635l91.73,87.63c13.46,12.85,23.45,2.95,23.45,2.95l111-116.23,9.45-9.89,111-116.23s9.43-10.43-4-23.28l-91.73-87.63L585.3,222.47l-91.73-87.62c-13.46-12.86-23.44-3-23.44-3" transform="translate(73.7 93.89)"/><g class="cls-92"><g class="cls-88"><g class="cls-93"><g class="cls-94"><rect class="cls-95" x="341.3" y="224.12" width="592.17" height="592.24" transform="translate(-105.36 715.7) rotate(-46.31)"/></g></g></g></g><g class="cls-96"><g class="cls-97"><g class="cls-98"><rect class="cls-99" x="308.59" y="80.11" width="698.7" height="691.25" transform="translate(-30.67 701.33) rotate(-46.31)"/></g></g></g><g class="cls-100"><g class="cls-101"><g class="cls-102"><g class="cls-103"><rect class="cls-104" x="68.34" y="85.69" width="699.41" height="692" transform="translate(-109.17 529.7) rotate(-46.31)"/></g></g></g></g><g class="cls-105"><g class="cls-106"><g class="cls-107"><rect class="cls-108" x="195" y="341.99" width="438.07" height="438.53" transform="translate(-204.1 566.87) rotate(-46.31)"/></g></g></g><path class="cls-109" d="M327.76,423.13a48.11,48.11,0,0,0,.45,16.22h0a48.28,48.28,0,0,0-16.22.29c-9.39,1.67-15.67-1.92-17.61-7.58s3.78-15.38,14.42-11.26c-4.6-10.44,4.86-16.6,10.59-14.93s9.61,7.8,8.38,17.25" transform="translate(73.7 93.89)"/><g class="cls-110"><g class="cls-88"><g class="cls-111"><g class="cls-112"><rect class="cls-113" x="263.44" y="105.35" width="665.51" height="634.23" transform="translate(191.8 1068.93) rotate(-84.45)"/></g></g></g></g><path class="cls-86" d="M605.92,119.82,470.9,207l-11.49,7.42-135,87.21s-11.61,7.95-1.5,23.59l68.83,106.56L509.4,614l68.84,106.56c10.1,15.63,22.12,8.32,22.12,8.32l135-87.22,11.49-7.42,135-87.22s11.6-8,1.5-23.58L814.55,416.87,696.87,234.7,628,128.15c-10.09-15.64-22.11-8.33-22.11-8.33" transform="translate(73.7 93.89)"/><g class="cls-114"><g class="cls-88"><g class="cls-115"><g class="cls-116"><rect class="cls-117" x="388.9" y="258.65" width="571.27" height="561.61" transform="translate(-111.08 546.24) rotate(-32.86)"/></g></g></g></g><g class="cls-118"><g class="cls-119"><g class="cls-120"><rect class="cls-121" x="449.07" y="80.99" width="586.99" height="681.5" transform="translate(-36.32 564.32) rotate(-32.86)"/></g></g></g><g class="cls-122"><g class="cls-101"><g class="cls-123"><g class="cls-124"><rect class="cls-125" x="169.17" y="85.96" width="588.05" height="682.38" transform="translate(-83.96 413.59) rotate(-32.86)"/></g></g></g></g><g class="cls-126"><g class="cls-127"><g class="cls-128"><rect class="cls-129" x="251.62" y="305.09" width="399.75" height="438.52" transform="translate(-138.58 422.79) rotate(-32.86)"/></g></g></g><path d="M389.81,375.68a32.35,32.35,0,0,1,3.58,16.82l5.14-3.32,5.14-3.32a32.29,32.29,0,0,1-13.86-10.18" transform="translate(73.7 93.89)"/><path d="M391.81,357.71a47.17,47.17,0,0,1-15.49-2.92h0a46.74,46.74,0,0,1-3.7,15.32c-3.57,8.63-1.45,15.14,3.57,17.84S391.75,386.74,390,376c9.06,6,17-2,16.56-7.73s-5.46-10.3-14.79-10.59" transform="translate(73.7 93.89)"/><g class="cls-130"><g class="cls-88"><g class="cls-131"><g class="cls-132"><rect class="cls-133" x="271.5" y="58.64" width="778.11" height="749.56" transform="translate(20.26 865.53) rotate(-58.62)"/></g></g></g></g><path class="cls-86" d="M734.62,135.2,584.63,193l-12.77,4.92-150,57.76s-13,5.41-6.29,22.78l45.59,118.38L539.1,599.19l45.59,118.39c6.69,17.36,19.94,12.67,19.94,12.67l150-57.77,12.76-4.91,150-57.76s13-5.41,6.3-22.78L878.1,468.64,800.16,266.26,754.57,147.88c-6.69-17.37-20-12.68-20-12.68" transform="translate(73.7 93.89)"/><g class="cls-134"><g class="cls-88"><g class="cls-135"><g class="cls-136"><rect class="cls-137" x="459.47" y="322.65" width="514.07" height="471.81" transform="translate(-79.16 388.69) rotate(-21.06)"/></g></g></g></g><g class="cls-138"><g class="cls-139"><g class="cls-140"><rect class="cls-141" x="499.93" y="91.06" width="526.32" height="680.14" transform="translate(-30.26 396.91) rotate(-21.06)"/></g></g></g><g class="cls-142"><g class="cls-101"><g class="cls-143"><g class="cls-144"><rect class="cls-145" x="312.18" y="94.59" width="527.01" height="679.99" transform="translate(-44.02 329.8) rotate(-21.06)"/></g></g></g></g><g class="cls-146"><g class="cls-147"><g class="cls-148"><rect class="cls-149" x="353.67" y="280.35" width="294.13" height="438.53" transform="translate(-72.39 307.21) rotate(-21.06)"/></g></g></g><path class="cls-109" d="M485.52,333.05h0c-10.41-1.45-22.84-13.22-23.23-13.6h0c0,.55-1.36,17.61-8.11,25.67h0c10.4,1.45,22.83,13.22,23.23,13.6h0c0-.55,1.36-17.61,8.11-25.67h0" transform="translate(73.7 93.89)"/><g class="cls-150"><g class="cls-88"><g class="cls-151"><g class="cls-152"><rect class="cls-153" x="380.53" y="109.17" width="692.81" height="693.62" transform="translate(-36.68 737.59) rotate(-44.73)"/></g></g></g></g><path class="cls-86" d="M862.14,183.19l-159.22,22-13.55,1.88-159.22,22s-13.88,2.3-11.33,20.74l17.36,125.66L565.87,590.3,583.24,716c2.54,18.43,16.52,16.89,16.52,16.89l159.22-22L772.54,709l159.22-22s13.87-2.3,11.32-20.74L925.72,540.58,896,325.75,878.67,200.08c-2.55-18.43-16.53-16.89-16.53-16.89" transform="translate(73.7 93.89)"/><g class="cls-154"><g class="cls-88"><g class="cls-155"><g class="cls-156"><path class="cls-86" d="M766,473.57Q659.88,488.26,553.8,503l29.44,213c2.54,18.43,16.52,16.89,16.52,16.89l332-45.88s13.87-2.3,11.33-20.74L913.64,453.15,766,473.57" transform="translate(73.7 93.89)"/></g></g></g></g><g class="cls-157"><g class="cls-88"><g class="cls-158"><g class="cls-159"><path class="cls-86" d="M551,482.34l90.86-12.49q130.92-18,261.83-36.11l7.18-1L878.67,200.08c-2.55-18.43-16.53-16.89-16.53-16.89l-332,45.88s-13.88,2.3-11.33,20.74l17.36,125.66Z" transform="translate(73.7 93.89)"/></g></g></g></g><g class="cls-160"><g class="cls-161"><g class="cls-162"><path class="cls-86" d="M877.93,200.15l17.34,125.49,29.65,214.52,17.34,125.48c2.55,18.41-11.34,20.71-11.34,20.71l-159.38,22L758,710.25l-159.39,22a14.31,14.31,0,0,1-6.5-1.15,14.51,14.51,0,0,0,7.68,1.73l159.23-22L772.54,709l159.22-22s13.87-2.3,11.33-20.74L925.72,540.58,896,325.74,878.67,200.08c-2.55-18.44-16.53-16.89-16.53-16.89l-.74.11s14-1.56,16.53,16.85" transform="translate(73.7 93.89)"/></g></g></g><g class="cls-163"><g class="cls-101"><g class="cls-164"><g class="cls-165"><path class="cls-86" d="M584,715.9,566.63,590.41,537,375.89,519.64,250.41C517.1,232,531,229.7,531,229.7l159.38-22,13.56-1.87,159.39-22a14.31,14.31,0,0,1,6.5,1.15,14.51,14.51,0,0,0-7.68-1.73l-159.22,22-13.55,1.87-159.22,22s-13.88,2.3-11.33,20.74l17.36,125.66L565.87,590.3,583.24,716c2.54,18.43,16.52,16.89,16.52,16.89l.75-.1s-14,1.55-16.54-16.86" transform="translate(73.7 93.89)"/></g></g></g></g><g class="cls-166"><g class="cls-167"><g class="cls-168"><rect class="cls-169" x="491.79" y="265.31" width="119.29" height="438.58" transform="translate(12.55 173.94) rotate(-7.87)"/></g></g></g><path d="M558.63,327.17a32.29,32.29,0,0,1-3.86,16.76l6.06-.84,6.07-.83a32.32,32.32,0,0,1-8.27-15.09" transform="translate(73.7 93.89)"/><path d="M566,315.36a8.78,8.78,0,0,0-3.3,1.16l-.09-.07a8.87,8.87,0,1,0-10.12,1.72,8.75,8.75,0,0,0-4.06-.38,8.87,8.87,0,1,0,10,7.95h0a8.87,8.87,0,1,0,7.5-10.39" transform="translate(73.7 93.89)"/><path d="M367.94,352.71l.84,4.06-10.35,6.6-8.91-52.75,44,30.37-10.35,6.6-3.29-2.51Zm3.56-14-7.8-5.86,2.05,9.53Z" transform="translate(73.7 93.89)"/><path d="M552.06,292.6l-1.06,4-12.2,1.28,15.57-51.18,25.84,46.83L568,294.83l-1.83-3.71Zm9.42-10.9L557.12,273l-2.42,9.44Z" transform="translate(73.7 93.89)"/><path class="cls-109" d="M455.39,313.65l0,4.14-11.5,4.29,2.33-53.44,36.7,38.92-11.5,4.27-2.7-3.13Zm6.41-12.9-6.4-7.37v9.75Z" transform="translate(73.7 93.89)"/><path class="cls-109" d="M292.36,417.58l1.82,3.73-8.42,8.93-21.59-48.93,50.14,18.63-8.41,8.93-3.81-1.62Zm0-14.4-9-3.77,4.32,8.73Z" transform="translate(73.7 93.89)"/></g><g class="cls-170"><path class="cls-86" d="M523.6,484.43h15.11l5.46,29.36H523.6q-24.93,0-41.05-15.11l-.16-.15q-16.2-16.21-16.2-40.59t16.2-40.66l.16-.08q16.13-15.1,41.05-15.11h20.57l-5.38,29.37H523.6q-13.25,0-20.56,6.85-7.49,7.41-7.48,19.63t7.4,19.63q7.47,6.85,20.64,6.86" transform="translate(73.7 93.89)"/><path class="cls-84" d="M558.9,526H523.6c-19.75,0-36.38-6.19-49.43-18.42l-.44-.43c-13.13-13.13-19.79-29.7-19.79-49.25s6.65-36.12,19.77-49.3l1.4-1.4.43-.22c12.83-11.4,29-17.18,48.06-17.18h35.26L549,443.71H523.6c-5.49,0-9.55,1.15-12.08,3.43-1.63,1.66-3.71,4.59-3.71,10.8s2,9.08,3.64,10.79c2.67,2.32,6.65,3.45,12.15,3.45h25.3Zm-67.84-36.17c8.45,7.86,19.1,11.68,32.54,11.68h5.83l-.9-4.87H523.6c-11.9,0-21.63-3.39-28.92-10.08l-.43-.41c-7.26-7.34-10.94-16.84-10.94-28.25s3.74-21,11.11-28.33l.24-.24c7.21-6.74,16.94-10.16,28.94-10.16h5l.89-4.87H523.6c-13.51,0-24.2,3.86-32.68,11.8l-.68.64c-7.94,8.38-11.8,18.59-11.8,31.16,0,13,4.13,23.44,12.61,31.92Z" transform="translate(73.7 93.89)"/><polygon class="cls-86" points="653.35 538.9 679.06 538.9 679.06 495.97 708.51 495.97 708.51 607.68 679.06 607.68 679.06 567.56 653.35 567.56 653.35 607.68 623.99 607.68 623.99 495.97 653.35 495.97 653.35 538.9"/><path class="cls-84" d="M647.05,526H593.11V485.92H591.9V526H538V389.84H591.9v42.92h1.21V389.84h53.94Zm-29.44-24.5h4.95v-87.2h-4.95v42.92H567.4V414.34h-4.87v87.2h4.87V461.43h50.21Z" transform="translate(73.7 93.89)"/><path class="cls-86" d="M671.38,504.52l-3.5,9.27H638.59l49.69-117.62L738,513.79H708.69l-3.42-9.27ZM696.47,481l-8.19-21.81L680.18,481Z" transform="translate(73.7 93.89)"/><path class="cls-84" d="M756.46,526h-56.3l-3.42-9.27H679.85L676.34,526H620.11L688.29,364.7Zm-39.23-24.5h2.28L699.42,454l14.38,38.28Zm-60.17,0h2.35l3.52-9.27,14.2-38.22Z" transform="translate(73.7 93.89)"/><path class="cls-86" d="M805.33,474.53l23.53,39.26h-34.2l-23.53-39.26v39.26H741.77V402.09h46.42a35.59,35.59,0,0,1,27.89,12.54q10.44,11.85,10.44,29,0,12.86-10.44,23.83a37.24,37.24,0,0,1-10.75,7.09m-34.2-17.83H781a16.21,16.21,0,0,0,10.51-3.82,14.18,14.18,0,0,0,4.76-10.44,12.47,12.47,0,0,0-4.6-9.81,14.44,14.44,0,0,0-10.44-4H771.13Z" transform="translate(73.7 93.89)"/><path class="cls-84" d="M850.48,526H787.72l-4.34-7.23V526H729.52V389.84h58.67a47.55,47.55,0,0,1,37.08,16.69c9,10.16,13.5,22.64,13.5,37.08,0,11.77-4.65,22.63-13.81,32.27l-.51.51c-.79.74-1.61,1.46-2.44,2.14ZM801.6,501.55h5.64l-19.59-32.69,12.8-5.56a25,25,0,0,0,7-4.56c4.59-4.92,6.82-9.87,6.82-15.13,0-8.42-2.41-15.25-7.38-20.88a23.38,23.38,0,0,0-18.7-8.39H754v87.21h4.87V416.4h22.38A26.75,26.75,0,0,1,800,423.57a24.58,24.58,0,0,1,8.59,18.87,26.38,26.38,0,0,1-8.48,19.24l-.4.37A28,28,0,0,1,782,468.91Zm-18.22-59.93v2.09c.67-.73.67-1.09.67-1.27s0-.16,0-.2-.15-.17-.35-.35Z" transform="translate(73.7 93.89)"/><rect class="cls-86" x="908.76" y="495.97" width="29.37" height="111.71"/><path class="cls-84" d="M876.67,526H822.81V389.84h53.86Zm-29.37-24.5h4.87v-87.2H847.3Z" transform="translate(73.7 93.89)"/><polygon class="cls-86" points="997.05 524.64 997.05 607.68 967.61 607.68 967.61 524.64 943.46 524.64 943.46 495.98 1021.2 495.98 1021.2 524.64 997.05 524.64"/><path class="cls-84" d="M935.6,526H881.66V443H857.51V389.84H959.75V443H935.6Zm-29.44-24.5h5v-83h24.14v-4.17H882v4.17h24.15Z" transform="translate(73.7 93.89)"/><polygon class="cls-86" points="1091.05 607.68 1061.76 607.68 1061.76 572.94 1018.75 495.98 1051.94 495.98 1076.32 539.67 1100.86 495.98 1134.04 495.98 1091.05 572.94 1091.05 607.68"/><path class="cls-84" d="M1029.59,526H975.81v-43.8l-51.63-92.4h61.25l17.22,30.87L1020,389.84h61.23l-51.63,92.4Zm-29.29-24.5h4.8V475.86l34.37-61.52h-5.14l-31.75,56.53-31.53-56.53h-5.12l34.37,61.52Z" transform="translate(73.7 93.89)"/><path class="cls-86" d="M523.6,484.43h15.11l5.46,29.36H523.6q-24.93,0-41.05-15.11l-.16-.15q-16.2-16.21-16.2-40.59t16.2-40.66l.16-.08q16.13-15.1,41.05-15.11h20.57l-5.38,29.37H523.6q-13.25,0-20.56,6.85-7.49,7.41-7.48,19.63t7.4,19.63q7.47,6.85,20.64,6.86" transform="translate(73.7 93.89)"/><polygon class="cls-86" points="653.35 538.9 679.06 538.9 679.06 495.97 708.51 495.97 708.51 607.68 679.06 607.68 679.06 567.56 653.35 567.56 653.35 607.68 623.99 607.68 623.99 495.97 653.35 495.97 653.35 538.9"/><path class="cls-86" d="M671.38,504.52l-3.5,9.27H638.59l49.69-117.62L738,513.79H708.69l-3.42-9.27ZM696.47,481l-8.19-21.81L680.18,481Z" transform="translate(73.7 93.89)"/><path class="cls-86" d="M805.33,474.53l23.53,39.26h-34.2l-23.53-39.26v39.26H741.77V402.09h46.42a35.59,35.59,0,0,1,27.89,12.54q10.44,11.85,10.44,29,0,12.86-10.44,23.83a37.24,37.24,0,0,1-10.75,7.09m-34.2-17.83H781a16.21,16.21,0,0,0,10.51-3.82,14.18,14.18,0,0,0,4.76-10.44,12.47,12.47,0,0,0-4.6-9.81,14.44,14.44,0,0,0-10.44-4H771.13Z" transform="translate(73.7 93.89)"/><rect class="cls-86" x="908.76" y="495.97" width="29.37" height="111.71"/><polygon class="cls-86" points="997.05 524.64 997.05 607.68 967.61 607.68 967.61 524.64 943.46 524.64 943.46 495.98 1021.2 495.98 1021.2 524.64 997.05 524.64"/><polygon class="cls-86" points="1091.05 607.68 1061.76 607.68 1061.76 572.94 1018.75 495.98 1051.94 495.98 1076.32 539.67 1100.86 495.98 1134.04 495.98 1091.05 572.94 1091.05 607.68"/><path class="cls-84" d="M374.29,822.39a164.24,164.24,0,0,1-117.6-49.27,169.17,169.17,0,0,1,0-237.35,165,165,0,0,1,235.2,0,169.17,169.17,0,0,1,0,237.35,164.24,164.24,0,0,1-117.6,49.27m0-299.58c-71.63,0-129.91,59.05-129.91,131.64s58.28,131.64,129.91,131.64S504.2,727,504.2,654.45,445.92,522.81,374.29,522.81" transform="translate(73.7 93.89)"/><path class="cls-86" d="M150.05,708v58.26H90.2V538.55h87.32q34.29,0,56.68,25.56,21.27,24.14,21.27,59.06T234.2,682.4Q211.81,708,177.52,708Zm0-58.11h14.13q13.33-.48,21.59-7.78,9.69-9.37,9.69-21.28t-9.37-20q-8.42-8.1-21.43-8.1H150.05Z" transform="translate(73.7 93.89)"/><path class="cls-84" d="M150.05,784.37H90.2a18.14,18.14,0,0,1-18.15-18.15V538.55A18.15,18.15,0,0,1,90.2,520.4h87.32c28.22,0,51.88,10.69,70.33,31.76,17.09,19.38,25.77,43.29,25.77,71s-8.67,51.65-25.77,71.17c-18.45,21.07-42.11,31.75-70.33,31.75H168.2v40.12a18.14,18.14,0,0,1-18.15,18.15m-41.71-36.29H131.9V708a18.15,18.15,0,0,1,18.15-18.15h27.47c17.54,0,31.61-6.34,43-19.37s16.78-28.35,16.78-47.26-5.48-34.29-16.75-47.07C209.13,563,195.06,556.7,177.52,556.7H108.34ZM164.18,668H150.05a18.16,18.16,0,0,1-18.15-18.15V592.69a18.16,18.16,0,0,1,18.15-18.15h14.61c13.12,0,24.75,4.44,33.66,12.83a43.49,43.49,0,0,1,15.29,33.42c0,12.83-5.26,24.69-15.22,34.32-.19.19-.39.37-.59.55-8.71,7.71-19.8,11.85-33,12.33h-.65m4-56.84v20a11.82,11.82,0,0,0,5.25-2.41c3.4-3.39,3.86-5.91,3.86-7.94,0-2.22-.51-4-3.09-6.27l-.71-.65a10,10,0,0,0-5.31-2.71" transform="translate(73.7 93.89)"/><polygon class="cls-86" points="657.03 748.18 657.03 860.11 597.17 860.11 597.17 632.44 657.03 632.44 657.03 747.54 713.08 632.44 779.76 632.44 721.97 747.54 780.39 860.11 713.23 860.11 657.03 748.18"/><path class="cls-84" d="M706.69,784.37H639.53a18.16,18.16,0,0,1-16.22-10l-21.83-43.49v35.35a18.15,18.15,0,0,1-18.15,18.14H523.47a18.14,18.14,0,0,1-18.14-18.14V538.55a18.15,18.15,0,0,1,18.14-18.15h59.86a18.16,18.16,0,0,1,18.15,18.15v36.38l21.58-44.32a18.15,18.15,0,0,1,16.31-10.21h66.69a18.15,18.15,0,0,1,16.22,26.29L668.64,653.52,722.8,757.86a18.15,18.15,0,0,1-16.11,26.51m-56-36.29h26.1L632.16,662a18.15,18.15,0,0,1-.11-16.5l44.59-88.82H650.72l-47.3,97.16Zm-109.11,0h23.56V556.7H541.62Z" transform="translate(73.7 93.89)"/><polygon class="cls-86" points="857.24 690.86 857.24 720.55 931.86 720.55 931.86 776.28 857.24 776.28 857.24 801.68 934.72 801.68 946.46 860.11 797.38 860.11 797.38 632.44 946.46 632.44 934.88 690.86 857.24 690.86"/><path class="cls-84" d="M872.76,784.37H723.68a18.15,18.15,0,0,1-18.15-18.14V538.55a18.16,18.16,0,0,1,18.15-18.15H872.76a18.15,18.15,0,0,1,17.8,21.68L879,600.51a18.15,18.15,0,0,1-9,12.36,18.09,18.09,0,0,1,6.37,13.8V682.4a18.1,18.1,0,0,1-3.92,11.26,18.15,18.15,0,0,1,6.42,10.56l11.75,58.43a18.15,18.15,0,0,1-17.8,21.72M741.83,748.08H850.6L846.15,726H783.54a18.15,18.15,0,0,1-18.15-18.15V682.4a18.14,18.14,0,0,1,18.15-18.15H840V644.82H783.54a18.15,18.15,0,0,1-18.15-18.15V597a18.15,18.15,0,0,1,18.15-18.15h62.73l4.39-22.13H741.83Z" transform="translate(73.7 93.89)"/><path class="cls-86" d="M1022.16,686.21l47.95,80h-69.7l-47.95-80v80H892.61V538.55h94.62q34.31,0,56.84,25.56,21.29,24.14,21.28,59.06,0,26.21-21.28,48.59a76.49,76.49,0,0,1-21.91,14.45m-69.7-36.36h20.17q13.17-.48,21.43-7.78,9.69-9.37,9.69-21.28t-9.37-20q-8.42-8.1-21.28-8.1H952.46Z" transform="translate(73.7 93.89)"/><path class="cls-84" d="M1070.11,784.37h-69.7a18.15,18.15,0,0,1-15.56-8.82L970.61,751.8v14.42a18.14,18.14,0,0,1-18.15,18.15H892.61a18.15,18.15,0,0,1-18.15-18.15V538.55a18.16,18.16,0,0,1,18.15-18.15h94.63c28.19,0,51.89,10.67,70.44,31.71,17.13,19.43,25.82,43.34,25.82,71.07,0,22.19-8.84,42.74-26.27,61.08-.25.26-.5.51-.76.75a99,99,0,0,1-9.27,7.67l38.48,64.22a18.15,18.15,0,0,1-15.57,27.47m-59.41-36.29h27.38l-31.48-52.54a18.14,18.14,0,0,1,8.33-26,58.5,58.5,0,0,0,16.36-10.7c10.71-11.4,15.91-23.08,15.91-35.68,0-18.89-5.48-34.29-16.74-47.07-11.52-13.06-25.66-19.41-43.22-19.41H910.76V748.08h23.56V686.21A18.15,18.15,0,0,1,968,676.88ZM972.63,668H952.46a18.15,18.15,0,0,1-18.14-18.15V592.69a18.15,18.15,0,0,1,18.14-18.15h20.65c13,0,24.59,4.44,33.5,12.83a43.49,43.49,0,0,1,15.29,33.42c0,12.83-5.27,24.69-15.22,34.32-.19.19-.39.37-.59.55-8.71,7.71-19.75,11.85-32.81,12.33h-.65m-2-36.3h1.65c5.83-.27,8.42-2.08,9.48-3,3.39-3.39,3.86-5.91,3.86-7.94,0-2.22-.52-4-3.09-6.27l-.71-.65c-1.56-1.5-3.81-3-8.69-3h-2.5Z" transform="translate(73.7 93.89)"/><path class="cls-86" d="M150.05,708v58.26H90.2V538.55h87.32q34.29,0,56.68,25.56,21.27,24.14,21.27,59.06T234.2,682.4Q211.81,708,177.52,708Zm0-58.11h14.13q13.33-.48,21.59-7.78,9.69-9.37,9.69-21.28t-9.37-20q-8.42-8.1-21.43-8.1H150.05Z" transform="translate(73.7 93.89)"/><polygon class="cls-86" points="657.03 748.18 657.03 860.11 597.17 860.11 597.17 632.44 657.03 632.44 657.03 747.54 713.08 632.44 779.76 632.44 721.97 747.54 780.39 860.11 713.23 860.11 657.03 748.18"/><polygon class="cls-86" points="857.24 690.86 857.24 720.55 931.86 720.55 931.86 776.28 857.24 776.28 857.24 801.68 934.72 801.68 946.46 860.11 797.38 860.11 797.38 632.44 946.46 632.44 934.88 690.86 857.24 690.86"/><path class="cls-86" d="M1022.16,686.21l47.95,80h-69.7l-47.95-80v80H892.61V538.55h94.62q34.31,0,56.84,25.56,21.29,24.14,21.28,59.06,0,26.21-21.28,48.59a76.49,76.49,0,0,1-21.91,14.45m-69.7-36.36h20.17q13.17-.48,21.43-7.78,9.69-9.37,9.69-21.28t-9.37-20q-8.42-8.1-21.28-8.1H952.46Z" transform="translate(73.7 93.89)"/></g><g class="cls-171"><path class="cls-84" d="M374.29,504.66c81.77,0,148.06,67.06,148.06,149.79S456.06,804.24,374.29,804.24,226.23,737.18,226.23,654.45s66.29-149.79,148.06-149.79" transform="translate(73.7 93.89)"/><path class="cls-86" d="M327.73,787.28c6,2.06,26.42,8.67,27.27,2.21.47-3.54-10.21-7.19-24.8-14.89a233.22,233.22,0,0,1-56.15-41.44,128.79,128.79,0,0,1-38.55-89.54c-1.24-45.32,16.57-82,45.63-105.59a149.36,149.36,0,0,0-58.08,114.6c-.86,32.83,8.3,60.4,25.52,85.56a97.06,97.06,0,0,0,18.6,18.29c16.48,12.49,40.6,24,60.56,30.83" transform="translate(73.7 93.89)"/><path class="cls-86" d="M525.09,620c-9.19-43.16-37.67-73.4-75.89-94.75,29.18,20.79,70.27,65,46.06,104-20.55,31.23-70.47,25.12-97.76,10.32-32.36-17.64-73-57.25-33-96,25.95-25,108.58,3,94,40.49-8.48,21.77-41.46,16.93-56.32,6.28C391.24,582.42,382,568.92,386.9,555c1.5-4.52,1.34-11.4-5-6.3-4.7,3.82-7.09,10.1-7.91,15.93-6.91,48.83,80,86.66,105.88,39.43,13.4-24.51-8.31-60.09-35.63-74.7-20.58-11-41.91-18.73-68.1-16.85-41.87,3-77,29.19-81.36,72-4.37,42.47,24,80.8,57.51,103.69,35.16,24.1,82.51,39.91,125.81,25.61,38.79-12.87,54.82-57.41,47-93.76" transform="translate(73.7 93.89)"/><path class="cls-172" d="M469.78,587c4.16-28-21.09-47.19-44.49-55.91-27.54-10.31-63.93-5.79-84,17-14.72,16.76-13.71,41.09-6.16,60.74,11.43,29.74,37.27,51.22,67.33,60.5,21.36,6.59,47.19,9.47,68.85,2.51,31.57-10.16,41.84-43.09,35.32-73.26a86.89,86.89,0,0,0-6.39-18.89c-4-8.36-16.21-25.31.63-4.67a74.49,74.49,0,0,1,4.87,7.2,80.52,80.52,0,0,1,8.2,18.2c9.17,28.16,2,61-23.52,78-19.59,13-44.34,14.57-67,11.31-30.37-4.33-59-19.13-78.84-42.66-18.17-21.52-30.56-52.4-23.08-80.7,5.45-20.67,22.24-36.08,42.32-42.59,25.42-8.23,53.39-4.42,76.3,8.95,11.46,6.69,22,15.92,27.78,28a41.43,41.43,0,0,1,4.19,17.49,36.27,36.27,0,0,1-.58,7.35c-.16.87-2,3.36-1.76,1.31" transform="translate(73.7 93.89)"/></g></g></g></g></g></g></g></svg>