<svg xmlns="http://www.w3.org/2000/svg" xmlns:xlink="http://www.w3.org/1999/xlink" viewBox="0 0 839.93 460.89"><defs><style>.cls-1{mask:url(#mask);filter:url(#luminosity-noclip-23);}.cls-10,.cls-12,.cls-14,.cls-16,.cls-18,.cls-2,.cls-20,.cls-22,.cls-24,.cls-26,.cls-28,.cls-30,.cls-32,.cls-34,.cls-36,.cls-38,.cls-4,.cls-40,.cls-42,.cls-44,.cls-48,.cls-50,.cls-53,.cls-6,.cls-63,.cls-72,.cls-8,.cls-81{mix-blend-mode:multiply;}.cls-2{fill:url(#linear-gradient);}.cls-3{mask:url(#mask-2);filter:url(#luminosity-noclip-28);}.cls-4{fill:url(#radial-gradient);}.cls-5{mask:url(#mask-3);filter:url(#luminosity-noclip-29);}.cls-6{fill:url(#linear-gradient-2);}.cls-7{mask:url(#mask-4);filter:url(#luminosity-noclip-30);}.cls-8{fill:url(#radial-gradient-2);}.cls-9{mask:url(#mask-5);filter:url(#luminosity-noclip-31);}.cls-10{fill:url(#radial-gradient-3);}.cls-11{mask:url(#mask-6);filter:url(#luminosity-noclip-32);}.cls-12{fill:url(#radial-gradient-4);}.cls-13{mask:url(#mask-7);filter:url(#luminosity-noclip-24);}.cls-14{fill:url(#linear-gradient-3);}.cls-15{mask:url(#mask-8);filter:url(#luminosity-noclip-33);}.cls-16{fill:url(#radial-gradient-5);}.cls-17{mask:url(#mask-9);filter:url(#luminosity-noclip-34);}.cls-18{fill:url(#linear-gradient-4);}.cls-19{mask:url(#mask-10);filter:url(#luminosity-noclip-35);}.cls-20{fill:url(#radial-gradient-6);}.cls-21{mask:url(#mask-11);filter:url(#luminosity-noclip-36);}.cls-22{fill:url(#radial-gradient-7);}.cls-23{mask:url(#mask-12);filter:url(#luminosity-noclip-37);}.cls-24{fill:url(#radial-gradient-8);}.cls-25{mask:url(#mask-13);filter:url(#luminosity-noclip-38);}.cls-26{fill:url(#radial-gradient-9);}.cls-27{mask:url(#mask-14);filter:url(#luminosity-noclip-39);}.cls-28{fill:url(#linear-gradient-5);}.cls-29{mask:url(#mask-15);filter:url(#luminosity-noclip-40);}.cls-30{fill:url(#radial-gradient-10);}.cls-31{mask:url(#mask-16);filter:url(#luminosity-noclip-41);}.cls-32{fill:url(#radial-gradient-11);}.cls-33{mask:url(#mask-17);filter:url(#luminosity-noclip-42);}.cls-34{fill:url(#radial-gradient-12);}.cls-35{mask:url(#mask-18);filter:url(#luminosity-noclip-25);}.cls-36{fill:url(#radial-gradient-13);}.cls-37{mask:url(#mask-19);filter:url(#luminosity-noclip-43);}.cls-38{fill:url(#radial-gradient-14);}.cls-39{mask:url(#mask-20);filter:url(#luminosity-noclip-44);}.cls-40{fill:url(#radial-gradient-15);}.cls-41{mask:url(#mask-21);filter:url(#luminosity-noclip-26);}.cls-42{fill:url(#radial-gradient-16);}.cls-43{mask:url(#mask-22);filter:url(#luminosity-noclip-27);}.cls-44{fill:url(#radial-gradient-17);}.cls-45,.cls-88{fill:none;}.cls-46{isolation:isolate;}.cls-47{mask:url(#mask-23);}.cls-48{fill:url(#linear-gradient-6);}.cls-49{mask:url(#mask-24);}.cls-50{fill:#ababab;}.cls-51,.cls-81,.cls-85,.cls-89,.cls-93{fill:#fff;}.cls-52{mask:url(#mask-25);}.cls-53{fill:url(#radial-gradient-18);}.cls-54{mask:url(#mask-26);}.cls-55{fill:url(#radial-gradient-19);}.cls-56{mask:url(#mask-27);}.cls-57,.cls-67,.cls-76,.cls-85{mix-blend-mode:screen;}.cls-57{fill:url(#radial-gradient-20);}.cls-58{mask:url(#mask-28);}.cls-59{fill:url(#radial-gradient-21);}.cls-60{fill:#ff2601;}.cls-61{mask:url(#mask-29);}.cls-62{mask:url(#mask-30);}.cls-63{fill:url(#radial-gradient-22);}.cls-64{mask:url(#mask-31);}.cls-65{fill:url(#radial-gradient-23);}.cls-66{mask:url(#mask-32);}.cls-67{fill:url(#radial-gradient-24);}.cls-68{mask:url(#mask-33);}.cls-69{fill:url(#radial-gradient-25);}.cls-70{mask:url(#mask-34);}.cls-71{mask:url(#mask-35);}.cls-72{fill:url(#radial-gradient-26);}.cls-73{mask:url(#mask-36);}.cls-74{fill:url(#radial-gradient-27);}.cls-75{mask:url(#mask-37);}.cls-76{fill:url(#radial-gradient-28);}.cls-77{mask:url(#mask-38);}.cls-78{fill:url(#radial-gradient-29);}.cls-79{mask:url(#mask-39);}.cls-80{mask:url(#mask-40);}.cls-82{mask:url(#mask-41);}.cls-83{mask:url(#mask-42);}.cls-84{mask:url(#mask-43);}.cls-86{mask:url(#mask-44);}.cls-87{fill:url(#radial-gradient-30);}.cls-88,.cls-89,.cls-93{stroke:#5e464d;}.cls-88,.cls-93{stroke-miterlimit:10;}.cls-88,.cls-89{stroke-width:30px;}.cls-89{stroke-linejoin:round;}.cls-90{clip-path:url(#clip-path);}.cls-91{fill:#5e464d;}.cls-92{fill:#3fe0c5;}.cls-93{stroke-width:20px;}.cls-94{filter:url(#luminosity-noclip-22);}.cls-95{filter:url(#luminosity-noclip-21);}.cls-96{filter:url(#luminosity-noclip-20);}.cls-97{filter:url(#luminosity-noclip-19);}.cls-98{filter:url(#luminosity-noclip-18);}.cls-99{filter:url(#luminosity-noclip-17);}.cls-100{filter:url(#luminosity-noclip-16);}.cls-101{filter:url(#luminosity-noclip-15);}.cls-102{filter:url(#luminosity-noclip-14);}.cls-103{filter:url(#luminosity-noclip-13);}.cls-104{filter:url(#luminosity-noclip-12);}.cls-105{filter:url(#luminosity-noclip-11);}.cls-106{filter:url(#luminosity-noclip-10);}.cls-107{filter:url(#luminosity-noclip-9);}.cls-108{filter:url(#luminosity-noclip-8);}.cls-109{filter:url(#luminosity-noclip-7);}.cls-110{filter:url(#luminosity-noclip-6);}.cls-111{filter:url(#luminosity-noclip-5);}.cls-112{filter:url(#luminosity-noclip-4);}.cls-113{filter:url(#luminosity-noclip-3);}.cls-114{filter:url(#luminosity-noclip-2);}.cls-115{filter:url(#luminosity-noclip);}</style><filter id="luminosity-noclip" x="32.17" y="-8049.82" width="351.49" height="32766" filterUnits="userSpaceOnUse" color-interpolation-filters="sRGB"><feFlood flood-color="#fff" result="bg"/><feBlend in="SourceGraphic" in2="bg"/></filter><mask id="mask" x="32.17" y="-8049.82" width="351.49" height="32766" maskUnits="userSpaceOnUse"><g class="cls-115"/></mask><linearGradient id="linear-gradient" x1="329.03" y1="227.13" x2="84.3" y2="207.26" gradientTransform="matrix(0.99, 0.14, -0.14, 0.99, 5.28, -70.45)" gradientUnits="userSpaceOnUse"><stop offset="0.1"/><stop offset="1" stop-color="#fff"/></linearGradient><filter id="luminosity-noclip-2" x="46.79" y="-8049.82" width="184.1" height="32766" filterUnits="userSpaceOnUse" color-interpolation-filters="sRGB"><feFlood flood-color="#fff" result="bg"/><feBlend in="SourceGraphic" in2="bg"/></filter><mask id="mask-2" x="46.79" y="-8049.82" width="184.1" height="32766" maskUnits="userSpaceOnUse"><g class="cls-114"/></mask><radialGradient id="radial-gradient" cx="2586.68" cy="-3502.82" r="341.21" gradientTransform="matrix(-0.69, 0.72, 0.72, 0.69, 4504.48, 543.75)" xlink:href="#linear-gradient"/><filter id="luminosity-noclip-3" x="80.36" y="-8049.82" width="330.79" height="32766" filterUnits="userSpaceOnUse" color-interpolation-filters="sRGB"><feFlood flood-color="#fff" result="bg"/><feBlend in="SourceGraphic" in2="bg"/></filter><mask id="mask-3" x="80.36" y="-8049.82" width="330.79" height="32766" maskUnits="userSpaceOnUse"><g class="cls-113"/></mask><linearGradient id="linear-gradient-2" x1="294.05" y1="210.05" x2="115.52" y2="218.59" xlink:href="#linear-gradient"/><filter id="luminosity-noclip-4" x="166.44" y="-8049.82" width="247.29" height="32766" filterUnits="userSpaceOnUse" color-interpolation-filters="sRGB"><feFlood flood-color="#fff" result="bg"/><feBlend in="SourceGraphic" in2="bg"/></filter><mask id="mask-4" x="166.44" y="-8049.82" width="247.29" height="32766" maskUnits="userSpaceOnUse"><g class="cls-112"/></mask><radialGradient id="radial-gradient-2" cx="-1602.93" cy="-1435.32" r="426.96" gradientTransform="translate(2236.39 307.94) rotate(-32.86)" gradientUnits="userSpaceOnUse"><stop offset="0.62"/><stop offset="0.75" stop-color="#020202"/><stop offset="0.8" stop-color="#090909"/><stop offset="0.84" stop-color="#151515"/><stop offset="0.87" stop-color="#262626"/><stop offset="0.9" stop-color="#3c3c3c"/><stop offset="0.92" stop-color="#585858"/><stop offset="0.94" stop-color="#797979"/><stop offset="0.96" stop-color="#9f9f9f"/><stop offset="0.98" stop-color="#cbcbcb"/><stop offset="1" stop-color="#f9f9f9"/><stop offset="1" stop-color="#fff"/></radialGradient><filter id="luminosity-noclip-5" x="242.55" y="-8049.82" width="171.18" height="32766" filterUnits="userSpaceOnUse" color-interpolation-filters="sRGB"><feFlood flood-color="#fff" result="bg"/><feBlend in="SourceGraphic" in2="bg"/></filter><mask id="mask-5" x="242.55" y="-8049.82" width="171.18" height="32766" maskUnits="userSpaceOnUse"><g class="cls-111"/></mask><radialGradient id="radial-gradient-3" cx="-1714.14" cy="-1334.79" r="339.71" gradientTransform="translate(2236.39 307.94) rotate(-32.86)" xlink:href="#linear-gradient"/><filter id="luminosity-noclip-6" x="83.53" y="-8049.82" width="171.18" height="32766" filterUnits="userSpaceOnUse" color-interpolation-filters="sRGB"><feFlood flood-color="#fff" result="bg"/><feBlend in="SourceGraphic" in2="bg"/></filter><mask id="mask-6" x="83.53" y="-8049.82" width="171.18" height="32766" maskUnits="userSpaceOnUse"><g class="cls-110"/></mask><radialGradient id="radial-gradient-4" cx="-1647.51" cy="-1248.74" r="289.34" gradientTransform="translate(2236.39 307.94) rotate(-32.86)" gradientUnits="userSpaceOnUse"><stop offset="0"/><stop offset="0.01" stop-color="#090909"/><stop offset="0.05" stop-color="#373737"/><stop offset="0.09" stop-color="#626262"/><stop offset="0.14" stop-color="#888"/><stop offset="0.2" stop-color="#a8a8a8"/><stop offset="0.25" stop-color="#c4c4c4"/><stop offset="0.32" stop-color="#dadada"/><stop offset="0.4" stop-color="#ebebeb"/><stop offset="0.49" stop-color="#f6f6f6"/><stop offset="0.63" stop-color="#fdfdfd"/><stop offset="1" stop-color="#fff"/></radialGradient><filter id="luminosity-noclip-7" x="33.9" y="-8049.82" width="442.84" height="32766" filterUnits="userSpaceOnUse" color-interpolation-filters="sRGB"><feFlood flood-color="#fff" result="bg"/><feBlend in="SourceGraphic" in2="bg"/></filter><mask id="mask-7" x="33.9" y="-8049.82" width="442.84" height="32766" maskUnits="userSpaceOnUse"><g class="cls-109"/></mask><linearGradient id="linear-gradient-3" x1="391.88" y1="18.61" x2="253.5" y2="370.97" xlink:href="#linear-gradient"/><filter id="luminosity-noclip-8" x="91.51" y="-8049.82" width="138.14" height="32766" filterUnits="userSpaceOnUse" color-interpolation-filters="sRGB"><feFlood flood-color="#fff" result="bg"/><feBlend in="SourceGraphic" in2="bg"/></filter><mask id="mask-8" x="91.51" y="-8049.82" width="138.14" height="32766" maskUnits="userSpaceOnUse"><g class="cls-108"/></mask><radialGradient id="radial-gradient-5" cx="2808.62" cy="-1335.28" r="342.19" gradientTransform="matrix(-0.84, 0.54, 0.54, 0.84, 3351.73, -412.02)" xlink:href="#linear-gradient"/><filter id="luminosity-noclip-9" x="135.8" y="-8049.82" width="295.04" height="32766" filterUnits="userSpaceOnUse" color-interpolation-filters="sRGB"><feFlood flood-color="#fff" result="bg"/><feBlend in="SourceGraphic" in2="bg"/></filter><mask id="mask-9" x="135.8" y="-8049.82" width="295.04" height="32766" maskUnits="userSpaceOnUse"><g class="cls-107"/></mask><linearGradient id="linear-gradient-4" x1="340.46" y1="223.03" x2="166.2" y2="148.71" xlink:href="#linear-gradient"/><filter id="luminosity-noclip-10" x="193.05" y="-8049.82" width="242.78" height="32766" filterUnits="userSpaceOnUse" color-interpolation-filters="sRGB"><feFlood flood-color="#fff" result="bg"/><feBlend in="SourceGraphic" in2="bg"/></filter><mask id="mask-10" x="193.05" y="-8049.82" width="242.78" height="32766" maskUnits="userSpaceOnUse"><g class="cls-106"/></mask><radialGradient id="radial-gradient-6" cx="-1139.44" cy="-922.07" r="426.95" gradientTransform="translate(1589.68 404.25) rotate(-21.06)" xlink:href="#radial-gradient-2"/><filter id="luminosity-noclip-11" x="244.93" y="-8049.82" width="190.91" height="32766" filterUnits="userSpaceOnUse" color-interpolation-filters="sRGB"><feFlood flood-color="#fff" result="bg"/><feBlend in="SourceGraphic" in2="bg"/></filter><mask id="mask-11" x="244.93" y="-8049.82" width="190.91" height="32766" maskUnits="userSpaceOnUse"><g class="cls-105"/></mask><radialGradient id="radial-gradient-7" cx="-1250.65" cy="-821.55" r="339.69" gradientTransform="translate(1589.68 404.25) rotate(-21.06)" xlink:href="#linear-gradient"/><filter id="luminosity-noclip-12" x="138.62" y="-8049.82" width="190.91" height="32766" filterUnits="userSpaceOnUse" color-interpolation-filters="sRGB"><feFlood flood-color="#fff" result="bg"/><feBlend in="SourceGraphic" in2="bg"/></filter><mask id="mask-12" x="138.62" y="-8049.82" width="190.91" height="32766" maskUnits="userSpaceOnUse"><g class="cls-104"/></mask><radialGradient id="radial-gradient-8" cx="-1184.02" cy="-735.49" r="289.33" gradientTransform="translate(1589.68 404.25) rotate(-21.06)" xlink:href="#radial-gradient-4"/><filter id="luminosity-noclip-13" x="143.43" y="-8049.82" width="91.49" height="32766" filterUnits="userSpaceOnUse" color-interpolation-filters="sRGB"><feFlood flood-color="#fff" result="bg"/><feBlend in="SourceGraphic" in2="bg"/></filter><mask id="mask-13" x="143.43" y="-8049.82" width="91.49" height="32766" maskUnits="userSpaceOnUse"><g class="cls-103"/></mask><radialGradient id="radial-gradient-9" cx="2347.76" cy="-821.41" r="340.16" gradientTransform="matrix(-0.93, 0.36, 0.36, 0.93, 2827.86, -72.71)" xlink:href="#linear-gradient"/><filter id="luminosity-noclip-14" x="197.42" y="-8049.82" width="247.2" height="32766" filterUnits="userSpaceOnUse" color-interpolation-filters="sRGB"><feFlood flood-color="#fff" result="bg"/><feBlend in="SourceGraphic" in2="bg"/></filter><mask id="mask-14" x="197.42" y="-8049.82" width="247.2" height="32766" maskUnits="userSpaceOnUse"><g class="cls-102"/></mask><linearGradient id="linear-gradient-5" x1="352.71" y1="220.3" x2="210.91" y2="113.52" xlink:href="#linear-gradient"/><filter id="luminosity-noclip-15" x="219.99" y="-8049.82" width="226.18" height="32766" filterUnits="userSpaceOnUse" color-interpolation-filters="sRGB"><feFlood flood-color="#fff" result="bg"/><feBlend in="SourceGraphic" in2="bg"/></filter><mask id="mask-15" x="219.99" y="-8049.82" width="226.18" height="32766" maskUnits="userSpaceOnUse"><g class="cls-101"/></mask><radialGradient id="radial-gradient-10" cx="-491.45" cy="-409.7" r="426.96" gradientTransform="translate(828.5 291.51) rotate(-7.87)" xlink:href="#radial-gradient-2"/><filter id="luminosity-noclip-16" x="199.49" y="-8049.82" width="227.76" height="32766" filterUnits="userSpaceOnUse" color-interpolation-filters="sRGB"><feFlood flood-color="#fff" result="bg"/><feBlend in="SourceGraphic" in2="bg"/></filter><mask id="mask-16" x="199.49" y="-8049.82" width="227.76" height="32766" maskUnits="userSpaceOnUse"><g class="cls-100"/></mask><radialGradient id="radial-gradient-11" cx="-487.22" cy="-36.56" r="305.95" gradientTransform="translate(828.5 291.51) rotate(-7.87)" gradientUnits="userSpaceOnUse"><stop offset="0.62"/><stop offset="0.71" stop-color="#020202"/><stop offset="0.76" stop-color="#0a0a0a"/><stop offset="0.8" stop-color="#181818"/><stop offset="0.84" stop-color="#2c2c2c"/><stop offset="0.88" stop-color="#464646"/><stop offset="0.91" stop-color="#656565"/><stop offset="0.94" stop-color="#8a8a8a"/><stop offset="0.96" stop-color="#b6b6b6"/><stop offset="0.99" stop-color="#e5e5e5"/><stop offset="1" stop-color="#fff"/></radialGradient><filter id="luminosity-noclip-17" x="242.21" y="-8049.82" width="203.96" height="32766" filterUnits="userSpaceOnUse" color-interpolation-filters="sRGB"><feFlood flood-color="#fff" result="bg"/><feBlend in="SourceGraphic" in2="bg"/></filter><mask id="mask-17" x="242.21" y="-8049.82" width="203.96" height="32766" maskUnits="userSpaceOnUse"><g class="cls-99"/></mask><radialGradient id="radial-gradient-12" cx="-602.66" cy="-309.17" r="339.71" gradientTransform="translate(828.5 291.51) rotate(-7.87)" xlink:href="#linear-gradient"/><filter id="luminosity-noclip-18" x="146.63" y="-8049.82" width="240.15" height="32766" filterUnits="userSpaceOnUse" color-interpolation-filters="sRGB"><feFlood flood-color="#fff" result="bg"/><feBlend in="SourceGraphic" in2="bg"/></filter><mask id="mask-18" x="146.63" y="-8049.82" width="240.15" height="32766" maskUnits="userSpaceOnUse"><g class="cls-98"/></mask><radialGradient id="radial-gradient-13" cx="-1379.39" cy="-3603.04" r="426.96" gradientTransform="matrix(0.69, -0.72, 0.72, 0.69, 3587.33, 1503.5)" xlink:href="#radial-gradient-2"/><filter id="luminosity-noclip-19" x="199.49" y="-8049.82" width="203.96" height="32766" filterUnits="userSpaceOnUse" color-interpolation-filters="sRGB"><feFlood flood-color="#fff" result="bg"/><feBlend in="SourceGraphic" in2="bg"/></filter><mask id="mask-19" x="199.49" y="-8049.82" width="203.96" height="32766" maskUnits="userSpaceOnUse"><g class="cls-97"/></mask><radialGradient id="radial-gradient-14" cx="-536.03" cy="-223.11" r="289.34" gradientTransform="translate(828.5 291.51) rotate(-7.87)" xlink:href="#radial-gradient-4"/><filter id="luminosity-noclip-20" x="201.08" y="-8049.82" width="35.06" height="32766" filterUnits="userSpaceOnUse" color-interpolation-filters="sRGB"><feFlood flood-color="#fff" result="bg"/><feBlend in="SourceGraphic" in2="bg"/></filter><mask id="mask-20" x="201.08" y="-8049.82" width="35.06" height="32766" maskUnits="userSpaceOnUse"><g class="cls-96"/></mask><radialGradient id="radial-gradient-15" cx="1700.7" cy="-309.25" r="340.13" gradientTransform="matrix(-0.99, 0.14, 0.14, 0.99, 2143.67, 109.84)" xlink:href="#linear-gradient"/><filter id="luminosity-noclip-21" x="171.1" y="-8049.82" width="215.67" height="32766" filterUnits="userSpaceOnUse" color-interpolation-filters="sRGB"><feFlood flood-color="#fff" result="bg"/><feBlend in="SourceGraphic" in2="bg"/></filter><mask id="mask-21" x="171.1" y="-8049.82" width="215.67" height="32766" maskUnits="userSpaceOnUse"><g class="cls-95"/></mask><radialGradient id="radial-gradient-16" cx="-1490.6" cy="-3502.51" r="339.71" gradientTransform="matrix(0.69, -0.72, 0.72, 0.69, 3587.33, 1503.5)" xlink:href="#linear-gradient"/><filter id="luminosity-noclip-22" x="35.14" y="-8049.82" width="215.67" height="32766" filterUnits="userSpaceOnUse" color-interpolation-filters="sRGB"><feFlood flood-color="#fff" result="bg"/><feBlend in="SourceGraphic" in2="bg"/></filter><mask id="mask-22" x="35.14" y="-8049.82" width="215.67" height="32766" maskUnits="userSpaceOnUse"><g class="cls-94"/></mask><radialGradient id="radial-gradient-17" cx="-1423.97" cy="-3416.45" r="289.34" gradientTransform="matrix(0.69, -0.72, 0.72, 0.69, 3587.33, 1503.5)" xlink:href="#radial-gradient-4"/><filter id="luminosity-noclip-23" x="32.17" y="6.48" width="351.49" height="349.06" filterUnits="userSpaceOnUse" color-interpolation-filters="sRGB"><feFlood flood-color="#fff" result="bg"/><feBlend in="SourceGraphic" in2="bg"/></filter><mask id="mask-23" x="32.17" y="6.48" width="351.49" height="349.06" maskUnits="userSpaceOnUse"><g class="cls-1"><path class="cls-2" d="M383.65,208.2c.11-2.34-.76-5.34-4.17-8.61l-53.11-51L235.56,61.35l-53.12-51c-7.79-7.48-13.6-1.75-13.6-1.75l-.31.32h0l-134.49,140s-5.49,6,2.3,13.53l7.48,7.18,0,0L227.39,345.94v0l6,5.77c7.79,7.49,13.61,1.75,13.61,1.75l.3-.31,0,0,64.36-67,5.5-5.72,64.64-67.3A8.41,8.41,0,0,0,383.65,208.2Z"/></g></mask><linearGradient id="linear-gradient-6" x1="329.03" y1="227.13" x2="84.3" y2="207.26" gradientTransform="matrix(0.99, 0.14, -0.14, 0.99, 5.28, -70.45)" gradientUnits="userSpaceOnUse"><stop offset="0.1" stop-color="#fff"/><stop offset="1" stop-color="#ababab"/></linearGradient><filter id="luminosity-noclip-24" x="33.9" y="0.04" width="442.84" height="375.45" filterUnits="userSpaceOnUse" color-interpolation-filters="sRGB"><feFlood flood-color="#fff" result="bg"/><feBlend in="SourceGraphic" in2="bg"/></filter><mask id="mask-24" x="33.9" y="0.04" width="442.84" height="375.45" maskUnits="userSpaceOnUse"><g class="cls-13"><path class="cls-14" d="M451.34,372a1.34,1.34,0,0,1,.11-.14,13.52,13.52,0,0,0,2.15-6.71l6.22-73.72,10.63-126,6.22-73.72c.44-5.24-1.24-8.15-3.09-9.76h0a8.22,8.22,0,0,0-1.7-1.15.23.23,0,0,0-.07-.07h0a8.47,8.47,0,0,0-4.15-2l-.43,0h0l-53.7-4.53L410,48.24c-.71-5.2-3-7.67-5.16-8.84h0l-.51-.25a8.43,8.43,0,0,0-1.31-.89h0a8.41,8.41,0,0,0-2.86-.94,7.85,7.85,0,0,0-1.52-.08h-.09l-.43.06h0L348,44.17l-9.65-25.06c-2.48-6.43-6.49-7.67-9.1-7.72a8.41,8.41,0,0,0-4.63,0l-.23.09L278.71,29.1,263.35,5.94C260.16,1.12,256.69.1,254.15.2a8.46,8.46,0,0,0-5.69.89l-.36.24h0L205.6,29.51,186.22,11c-4.65-4.43-8.59-4.22-11-3.3a8.45,8.45,0,0,0-4.58,2.06l-.3.32,0,0L106,77.66l-4.27,4.48L35.77,151.29s-5.5,6.09,2.36,13.57l7.54,7.2-.05-.05L230.74,348.46v0l6.06,5.78a14,14,0,0,0,5.44,3.42,8.82,8.82,0,0,0,2,.84h0l.45.11h0a9,9,0,0,0,1.69.21l.36.08h0a8.48,8.48,0,0,0,2.74.12l.2,0,93.41,7.88,7.95.67,93.41,7.88a8.43,8.43,0,0,0,6.58-3.16Z"/></g></mask><filter id="luminosity-noclip-25" x="146.63" y="113.28" width="240.15" height="242.6" filterUnits="userSpaceOnUse" color-interpolation-filters="sRGB"><feFlood flood-color="#fff" result="bg"/><feBlend in="SourceGraphic" in2="bg"/></filter><mask id="mask-25" x="146.63" y="113.28" width="240.15" height="242.6" maskUnits="userSpaceOnUse"><g class="cls-35"><path class="cls-36" d="M232.49,175.87l-85.86,89.95,90.27,86.23c7.81,7.46,13.62,1.71,13.62,1.71l134.39-140.7s5.48-6.05-2.33-13.52l-90.31-86.26Z"/></g></mask><radialGradient id="radial-gradient-18" cx="-1379.39" cy="-3603.04" r="426.96" gradientTransform="matrix(0.69, -0.72, 0.72, 0.69, 3587.33, 1503.5)" gradientUnits="userSpaceOnUse"><stop offset="0.62" stop-color="#fff"/><stop offset="0.79" stop-color="#fdfdfd"/><stop offset="0.85" stop-color="#f6f6f6"/><stop offset="0.9" stop-color="#eaeaea"/><stop offset="0.94" stop-color="#d9d9d9"/><stop offset="0.97" stop-color="#c3c3c3"/><stop offset="1" stop-color="#ababab"/></radialGradient><filter id="luminosity-noclip-26" x="171.1" y="7" width="215.67" height="348.74" filterUnits="userSpaceOnUse" color-interpolation-filters="sRGB"><feFlood flood-color="#fff" result="bg"/><feBlend in="SourceGraphic" in2="bg"/></filter><mask id="mask-26" x="171.1" y="7" width="215.67" height="348.74" maskUnits="userSpaceOnUse"><g class="cls-41"><path class="cls-42" d="M184.71,11.13l53.18,50.8,90.92,86.84L382,199.57c7.81,7.45,2.32,13.51,2.32,13.51l-64.52,67.55-5.49,5.75-64.52,67.54a8.32,8.32,0,0,1-3.37,1.83,8.35,8.35,0,0,0,4.11-2L315,286.28l5.49-5.74,64.45-67.48s5.48-6.06-2.33-13.52l-53.26-50.87-91-87L185,10.83c-7.82-7.46-13.61-1.71-13.61-1.71l-.31.31S176.91,3.68,184.71,11.13Z"/></g></mask><radialGradient id="radial-gradient-19" cx="-1490.6" cy="-3502.51" r="339.71" gradientTransform="matrix(0.69, -0.72, 0.72, 0.69, 3587.33, 1503.5)" xlink:href="#linear-gradient-6"/><filter id="luminosity-noclip-27" x="35.14" y="7.13" width="215.67" height="348.74" filterUnits="userSpaceOnUse" color-interpolation-filters="sRGB"><feFlood flood-color="#fff" result="bg"/><feBlend in="SourceGraphic" in2="bg"/></filter><mask id="mask-27" x="35.14" y="7.13" width="215.67" height="348.74" maskUnits="userSpaceOnUse"><g class="cls-43"><path class="cls-44" d="M237.21,351.75,184,301,93.11,214.11l-53.18-50.8c-7.8-7.45-2.31-13.51-2.31-13.51l64.52-67.55,5.49-5.75L172.15,9a8.38,8.38,0,0,1,3.37-1.82,8.35,8.35,0,0,0-4.11,2L107,76.6l-5.49,5.74L37,149.82s-5.48,6.05,2.33,13.52L92.6,214.21l91.05,87,53.25,50.87c7.81,7.46,13.62,1.71,13.62,1.71l.29-.31S245,359.2,237.21,351.75Z"/></g></mask><radialGradient id="radial-gradient-20" cx="-1423.97" cy="-3416.45" r="289.34" gradientTransform="matrix(0.69, -0.72, 0.72, 0.69, 3587.33, 1503.5)" gradientUnits="userSpaceOnUse"><stop offset="0" stop-color="#fff"/><stop offset="0.14" stop-color="#fff"/><stop offset="1" stop-color="#fff"/></radialGradient><filter id="luminosity-noclip-28" x="46.79" y="170.46" width="184.1" height="175.85" filterUnits="userSpaceOnUse" color-interpolation-filters="sRGB"><feFlood flood-color="#fff" result="bg"/><feBlend in="SourceGraphic" in2="bg"/></filter><mask id="mask-28" x="46.79" y="170.46" width="184.1" height="175.85" maskUnits="userSpaceOnUse"><g class="cls-3"><path class="cls-4" d="M46.79,170.46l184.1,175.86-.82-1.38-46.35-44.28L50.42,173.34Z"/></g></mask><radialGradient id="radial-gradient-21" cx="2586.68" cy="-3502.82" r="341.21" gradientTransform="matrix(-0.69, 0.72, 0.72, 0.69, 4504.48, 543.75)" xlink:href="#linear-gradient-6"/><filter id="luminosity-noclip-29" x="80.36" y="0" width="330.79" height="355.62" filterUnits="userSpaceOnUse" color-interpolation-filters="sRGB"><feFlood flood-color="#fff" result="bg"/><feBlend in="SourceGraphic" in2="bg"/></filter><mask id="mask-29" x="80.36" y="0" width="330.79" height="355.62" maskUnits="userSpaceOnUse"><g class="cls-5"><path class="cls-6" d="M410.86,239.29a15.19,15.19,0,0,0-2.14-4.71l-40.25-61.67L299.67,67.46,259.42,5.78C253.51-3.27,246.55,1,246.55,1l-.36.24h0L168.41,52l-4.47,2.91L83.6,107.34S76.89,112,82.79,121l5.67,8.69,0,0L227.56,342.89v0l4.55,7c5.91,9.05,12.86,4.78,12.86,4.78l78.15-51,6.65-4.34,78.15-51A8.51,8.51,0,0,0,410.86,239.29Z"/></g></mask><filter id="luminosity-noclip-30" x="166.44" y="131.53" width="247.29" height="225.17" filterUnits="userSpaceOnUse" color-interpolation-filters="sRGB"><feFlood flood-color="#fff" result="bg"/><feBlend in="SourceGraphic" in2="bg"/></filter><mask id="mask-30" x="166.44" y="131.53" width="247.29" height="225.17" maskUnits="userSpaceOnUse"><g class="cls-7"><path class="cls-8" d="M270.87,178.5Q218.64,212.25,166.44,246l67.73,104.86C240,359.94,247,355.7,247,355.7L410.45,250.12s6.74-4.61.88-13.69l-67.77-104.9Z"/></g></mask><radialGradient id="radial-gradient-22" cx="-1602.93" cy="-1435.32" r="426.96" gradientTransform="translate(2236.39 307.94) rotate(-32.86)" xlink:href="#radial-gradient-18"/><filter id="luminosity-noclip-31" x="242.55" y="1.12" width="171.18" height="355.57" filterUnits="userSpaceOnUse" color-interpolation-filters="sRGB"><feFlood flood-color="#fff" result="bg"/><feBlend in="SourceGraphic" in2="bg"/></filter><mask id="mask-31" x="242.55" y="1.12" width="171.18" height="355.57" maskUnits="userSpaceOnUse"><g class="cls-9"><path class="cls-10" d="M262.71,7.16l39.91,61.77,68.22,105.61,39.91,61.78c5.85,9.06-.89,13.68-.89,13.68l-78.47,50.68L324.71,305l-78.46,50.69a8.3,8.3,0,0,1-3.7,1,8.32,8.32,0,0,0,4.46-1l78.39-50.63,6.67-4.31,78.38-50.64s6.74-4.61.88-13.69l-40-61.86L303,68.8l-40-61.86c-5.86-9.08-12.84-4.83-12.84-4.83l-.37.23S256.86-1.9,262.71,7.16Z"/></g></mask><radialGradient id="radial-gradient-23" cx="-1714.14" cy="-1334.79" r="339.71" gradientTransform="translate(2236.39 307.94) rotate(-32.86)" xlink:href="#linear-gradient-6"/><filter id="luminosity-noclip-32" x="83.53" y="1.12" width="171.18" height="355.57" filterUnits="userSpaceOnUse" color-interpolation-filters="sRGB"><feFlood flood-color="#fff" result="bg"/><feBlend in="SourceGraphic" in2="bg"/></filter><mask id="mask-32" x="83.53" y="1.12" width="171.18" height="355.57" maskUnits="userSpaceOnUse"><g class="cls-11"><path class="cls-12" d="M234.54,350.65l-39.91-61.77L126.41,183.27l-39.9-61.78c-5.86-9.06.89-13.68.89-13.68l78.46-50.69,6.68-4.31L251,2.12a8.25,8.25,0,0,1,3.7-1,8.34,8.34,0,0,0-4.47,1L171.86,52.74l-6.67,4.31L86.8,107.69s-6.74,4.61-.87,13.69l40,61.86L194.21,289l40,61.87C240,359.94,247,355.7,247,355.7l.37-.23S240.39,359.71,234.54,350.65Z"/></g></mask><radialGradient id="radial-gradient-24" cx="-1647.51" cy="-1248.74" r="289.34" gradientTransform="translate(2236.39 307.94) rotate(-32.86)" xlink:href="#radial-gradient-20"/><filter id="luminosity-noclip-33" x="91.51" y="130.04" width="138.14" height="213.85" filterUnits="userSpaceOnUse" color-interpolation-filters="sRGB"><feFlood flood-color="#fff" result="bg"/><feBlend in="SourceGraphic" in2="bg"/></filter><mask id="mask-33" x="91.51" y="130.04" width="138.14" height="213.85" maskUnits="userSpaceOnUse"><g class="cls-15"><path class="cls-16" d="M91.51,130,229.66,343.89l-.48-1.53L194.4,288.52l-100-154.84Z"/></g></mask><radialGradient id="radial-gradient-25" cx="2808.62" cy="-1335.28" r="342.19" gradientTransform="matrix(-0.84, 0.54, 0.54, 0.84, 3351.73, -412.02)" xlink:href="#linear-gradient-6"/><filter id="luminosity-noclip-34" x="135.8" y="10.41" width="295.04" height="345.2" filterUnits="userSpaceOnUse" color-interpolation-filters="sRGB"><feFlood flood-color="#fff" result="bg"/><feBlend in="SourceGraphic" in2="bg"/></filter><mask id="mask-34" x="135.8" y="10.41" width="295.04" height="345.2" maskUnits="userSpaceOnUse"><g class="cls-17"><path class="cls-18" d="M429.78,274.26l-25.68-69-43.9-118-25.69-69C330.75,8.08,323,10.72,323,10.72l-.41.15h0l-182,67.7s-7.57,3.05-3.8,13.18l3.62,9.72,0-.06L229.22,340v0l2.91,7.81c3.77,10.12,11.5,7.49,11.5,7.49l.4-.15h0l93.94-35,.56-.2L426,287.45a8.38,8.38,0,0,0,3-2.43C430.59,283,431.79,279.64,429.78,274.26Z"/></g></mask><filter id="luminosity-noclip-35" x="193.05" y="156.81" width="242.78" height="200.03" filterUnits="userSpaceOnUse" color-interpolation-filters="sRGB"><feFlood flood-color="#fff" result="bg"/><feBlend in="SourceGraphic" in2="bg"/></filter><mask id="mask-35" x="193.05" y="156.81" width="242.78" height="200.03" maskUnits="userSpaceOnUse"><g class="cls-19"><path class="cls-20" d="M309.08,187.92q-58,22.35-116,44.73l44.87,116.5c3.88,10.08,11.58,7.35,11.58,7.35l181.57-69.92s7.54-3.14,3.66-13.23L389.85,156.81Z"/></g></mask><radialGradient id="radial-gradient-26" cx="-1139.44" cy="-922.07" r="426.95" gradientTransform="translate(1589.68 404.25) rotate(-21.06)" xlink:href="#radial-gradient-18"/><filter id="luminosity-noclip-36" x="244.93" y="10.7" width="190.91" height="346.13" filterUnits="userSpaceOnUse" color-interpolation-filters="sRGB"><feFlood flood-color="#fff" result="bg"/><feBlend in="SourceGraphic" in2="bg"/></filter><mask id="mask-36" x="244.93" y="10.7" width="190.91" height="346.13" maskUnits="userSpaceOnUse"><g class="cls-21"><path class="cls-22" d="M336.14,18.53l26.43,68.63,45.18,117.33,26.43,68.63c3.88,10.07-3.67,13.21-3.67,13.21L343.34,319.9l-7.42,2.86-87.17,33.57a8.21,8.21,0,0,1-3.82.21,8.43,8.43,0,0,0,4.57,0L336.58,323l7.41-2.86,87.08-33.53s7.54-3.14,3.66-13.23l-26.47-68.73L363,87.13,336.54,18.4C332.66,8.31,325,11,325,11l-.4.16S332.26,8.47,336.14,18.53Z"/></g></mask><radialGradient id="radial-gradient-27" cx="-1250.65" cy="-821.55" r="339.69" gradientTransform="translate(1589.68 404.25) rotate(-21.06)" xlink:href="#linear-gradient-6"/><filter id="luminosity-noclip-37" x="138.62" y="10.71" width="190.91" height="346.13" filterUnits="userSpaceOnUse" color-interpolation-filters="sRGB"><feFlood flood-color="#fff" result="bg"/><feBlend in="SourceGraphic" in2="bg"/></filter><mask id="mask-37" x="138.62" y="10.71" width="190.91" height="346.13" maskUnits="userSpaceOnUse"><g class="cls-23"><path class="cls-24" d="M238.32,349l-26.43-68.63L166.71,163.05,140.28,94.42C136.4,84.35,144,81.21,144,81.21l87.17-33.57,7.42-2.86,87.17-33.57a8.37,8.37,0,0,1,3.82-.21A8.43,8.43,0,0,0,325,11L237.88,44.58l-7.41,2.85L143.39,81s-7.54,3.14-3.66,13.22l26.47,68.73,45.25,117.5,26.47,68.73c3.88,10.08,11.58,7.35,11.58,7.35l.4-.15S242.2,359.08,238.32,349Z"/></g></mask><radialGradient id="radial-gradient-28" cx="-1184.02" cy="-735.49" r="289.33" gradientTransform="translate(1589.68 404.25) rotate(-21.06)" xlink:href="#radial-gradient-20"/><filter id="luminosity-noclip-38" x="143.43" y="103.81" width="91.49" height="237.58" filterUnits="userSpaceOnUse" color-interpolation-filters="sRGB"><feFlood flood-color="#fff" result="bg"/><feBlend in="SourceGraphic" in2="bg"/></filter><mask id="mask-38" x="143.43" y="103.81" width="91.49" height="237.58" maskUnits="userSpaceOnUse"><g class="cls-25"><path class="cls-26" d="M143.43,103.81,234.92,341.4l-.15-1.6-23-59.82L145.49,108Q144.46,105.89,143.43,103.81Z"/></g></mask><radialGradient id="radial-gradient-29" cx="2347.76" cy="-821.41" r="340.16" gradientTransform="matrix(-0.93, 0.36, 0.36, 0.93, 2827.86, -72.71)" xlink:href="#linear-gradient-6"/><filter id="luminosity-noclip-39" x="197.42" y="37.08" width="247.2" height="319.48" filterUnits="userSpaceOnUse" color-interpolation-filters="sRGB"><feFlood flood-color="#fff" result="bg"/><feBlend in="SourceGraphic" in2="bg"/></filter><mask id="mask-39" x="197.42" y="37.08" width="247.2" height="319.48" maskUnits="userSpaceOnUse"><g class="cls-27"><path class="cls-28" d="M444.43,317.44l-10.24-72.93L416.7,119.82,406.46,46.89c-1.5-10.7-9.62-9.79-9.62-9.79l-.33,0L304.43,50.07l-5.89.83L204.16,64.14S196.1,65.5,197.6,76.2l1.45,10.27,0-.06,35.38,252.12v0l1.15,8.26c1.51,10.69,9.62,9.78,9.62,9.78l92.41-13,3.93-.55,96.35-13.52a8.4,8.4,0,0,0,5.69-4.52A12.82,12.82,0,0,0,444.43,317.44Z"/></g></mask><filter id="luminosity-noclip-40" x="219.99" y="195.63" width="226.18" height="162.41" filterUnits="userSpaceOnUse" color-interpolation-filters="sRGB"><feFlood flood-color="#fff" result="bg"/><feBlend in="SourceGraphic" in2="bg"/></filter><mask id="mask-40" x="219.99" y="195.63" width="226.18" height="162.41" maskUnits="userSpaceOnUse"><g class="cls-29"><path class="cls-30" d="M343.16,207.49,220,224.55l17.08,123.66c1.48,10.7,9.6,9.81,9.6,9.81l192.74-26.64s8.06-1.34,6.58-12l-17.1-123.71Z"/></g></mask><filter id="luminosity-noclip-41" x="199.49" y="38.88" width="227.76" height="173.7" filterUnits="userSpaceOnUse" color-interpolation-filters="sRGB"><feFlood flood-color="#fff" result="bg"/><feBlend in="SourceGraphic" in2="bg"/></filter><mask id="mask-41" x="199.49" y="38.88" width="227.76" height="173.7" maskUnits="userSpaceOnUse"><g class="cls-31"><path class="cls-32" d="M218.33,212.58l52.75-7.25,152-21,4.17-.58L408.59,48.71C407.11,38,399,38.9,399,38.9L206.25,65.54s-8.06,1.33-6.58,12l10.09,73Z"/></g></mask><filter id="luminosity-noclip-42" x="242.21" y="38.88" width="203.96" height="319.15" filterUnits="userSpaceOnUse" color-interpolation-filters="sRGB"><feFlood flood-color="#fff" result="bg"/><feBlend in="SourceGraphic" in2="bg"/></filter><mask id="mask-42" x="242.21" y="38.88" width="203.96" height="319.15" maskUnits="userSpaceOnUse"><g class="cls-33"><path class="cls-34" d="M408.17,48.75l10.06,72.85,17.21,124.54L445.51,319c1.48,10.69-6.59,12-6.59,12L346.39,343.8l-7.87,1.09L246,357.68a8.3,8.3,0,0,1-3.77-.67,8.43,8.43,0,0,0,4.46,1l92.44-12.78,7.87-1.09,92.43-12.77s8.06-1.34,6.58-12l-10.08-73L418.67,121.66l-10.08-73c-1.48-10.7-9.6-9.8-9.6-9.8l-.43.06S406.69,38.06,408.17,48.75Z"/></g></mask><filter id="luminosity-noclip-43" x="199.49" y="38.88" width="203.96" height="319.15" filterUnits="userSpaceOnUse" color-interpolation-filters="sRGB"><feFlood flood-color="#fff" result="bg"/><feBlend in="SourceGraphic" in2="bg"/></filter><mask id="mask-43" x="199.49" y="38.88" width="203.96" height="319.15" maskUnits="userSpaceOnUse"><g class="cls-37"><path class="cls-38" d="M237.5,348.17l-10.07-72.85L210.22,150.78,200.15,77.92c-1.47-10.68,6.59-12,6.59-12l92.53-12.79L307.15,52l92.53-12.78a8.14,8.14,0,0,1,3.77.67,8.3,8.3,0,0,0-4.46-1L306.56,51.67l-7.87,1.09L206.25,65.54s-8.06,1.33-6.58,12l10.09,73L227,275.26l10.08,72.95c1.48,10.7,9.6,9.81,9.6,9.81l.43-.06S239,358.86,237.5,348.17Z"/></g></mask><filter id="luminosity-noclip-44" x="201.08" y="87.79" width="35.06" height="252.2" filterUnits="userSpaceOnUse" color-interpolation-filters="sRGB"><feFlood flood-color="#fff" result="bg"/><feBlend in="SourceGraphic" in2="bg"/></filter><mask id="mask-44" x="201.08" y="87.79" width="35.06" height="252.2" maskUnits="userSpaceOnUse"><g class="cls-39"><path class="cls-40" d="M201.08,87.79,235.93,340l.21-1.59-8.77-63.49L202.13,92.3Z"/></g></mask><radialGradient id="radial-gradient-30" cx="1700.7" cy="-309.25" r="340.13" gradientTransform="matrix(-0.99, 0.14, 0.14, 0.99, 2143.67, 109.84)" xlink:href="#linear-gradient-6"/><clipPath id="clip-path"><rect class="cls-45" x="124.76" y="198.28" width="251.33" height="247.61"/></clipPath></defs><g class="cls-46"><g id="Layer_2" data-name="Layer 2"><g id="Twitter"><g class="cls-47"><path class="cls-48" d="M383.65,208.2c.11-2.34-.76-5.34-4.17-8.61l-53.11-51L235.56,61.35l-53.12-51c-7.79-7.48-13.6-1.75-13.6-1.75l-.31.32h0l-134.49,140s-5.49,6,2.3,13.53l7.48,7.18,0,0L227.39,345.94v0l6,5.77c7.79,7.49,13.61,1.75,13.61,1.75l.3-.31,0,0,64.36-67,5.5-5.72,64.64-67.3A8.41,8.41,0,0,0,383.65,208.2Z"/></g><g class="cls-49"><path class="cls-50" d="M451.34,372a1.34,1.34,0,0,1,.11-.14,13.52,13.52,0,0,0,2.15-6.71l6.22-73.72-51.1-56.84-1.4-20.69c.44-5.24,7.85-16.42,6-18l-10.87,1c-59.85,116.55,13.84-12.43,13.84-12.43-.57-.5,4-13.83,3.42-14.11,0,0-16.23,7.55-16.26,7.53l16.26-7.53-6.39,2.92c-2-1.72,4.74-16.39,4.74-16.39l-4.34-1.28s7.87-24.19,7.88-24.19l-8.05-57.18L410,48.24c-.71-5.2-3-7.67-5.16-8.84h0l-.51-.25a8.43,8.43,0,0,0-1.31-.89h0a8.41,8.41,0,0,0-2.86-.94,7.85,7.85,0,0,0-1.52-.08h-.09l-.43.06h0L348,44.17l-9.65-25.06c-2.48-6.43-6.49-7.67-9.1-7.72a8.41,8.41,0,0,0-4.63,0l-.23.09L278.71,29.1,263.35,5.94C260.16,1.12,256.69.1,254.15.2a8.46,8.46,0,0,0-5.69.89l-.36.24h0L205.6,29.51,186.22,11c-4.65-4.43-8.59-4.22-11-3.3a8.45,8.45,0,0,0-4.58,2.06l-.3.32,0,0L106,77.66l-4.27,4.48L35.77,151.29s-5.5,6.09,2.36,13.57l7.54,7.2-.05-.05L230.74,348.46v0l6.06,5.78a14,14,0,0,0,5.44,3.42,8.82,8.82,0,0,0,2,.84h0l.45.11h0a9,9,0,0,0,1.69.21l.36.08h0a8.48,8.48,0,0,0,2.74.12l.2,0,93.41,7.88,7.95.67,93.41,7.88a8.43,8.43,0,0,0,6.58-3.16Z"/></g><path class="cls-51" d="M171.41,9.12,107,76.6l-5.49,5.74L37,149.82s-5.48,6.05,2.33,13.52L92.6,214.21l91.05,87,53.25,50.87c7.81,7.46,13.62,1.71,13.62,1.71L315,286.28l5.49-5.74,64.45-67.48s5.48-6.05-2.33-13.52l-53.26-50.87-91-87L185,10.83C177.2,3.37,171.41,9.12,171.41,9.12Z"/><g class="cls-52"><path class="cls-53" d="M232.49,175.87l-85.86,89.95,90.27,86.23c7.81,7.46,13.62,1.71,13.62,1.71l134.39-140.7s5.48-6.05-2.33-13.52l-90.31-86.26Z"/></g><g class="cls-54"><path class="cls-55" d="M184.71,11.13l53.18,50.8,90.92,86.84L382,199.57c7.81,7.45,2.32,13.51,2.32,13.51l-64.52,67.55-5.49,5.75-64.52,67.54a8.32,8.32,0,0,1-3.37,1.83,8.35,8.35,0,0,0,4.11-2L315,286.28l5.49-5.74,64.45-67.48s5.48-6.06-2.33-13.52l-53.26-50.87-91-87L185,10.83c-7.82-7.46-13.61-1.71-13.61-1.71l-.31.31S176.91,3.68,184.71,11.13Z"/></g><g class="cls-56"><path class="cls-57" d="M237.21,351.75,184,301,93.11,214.11l-53.18-50.8c-7.8-7.45-2.31-13.51-2.31-13.51l64.52-67.55,5.49-5.75L172.15,9a8.38,8.38,0,0,1,3.37-1.82,8.35,8.35,0,0,0-4.11,2L107,76.6l-5.49,5.74L37,149.82s-5.48,6.05,2.33,13.52L92.6,214.21l91.05,87,53.25,50.87c7.81,7.46,13.62,1.71,13.62,1.71l.29-.31S245,359.2,237.21,351.75Z"/></g><g class="cls-58"><path class="cls-59" d="M46.79,170.46l184.1,175.86-.82-1.38-46.35-44.28L50.42,173.34Z"/></g><path class="cls-60" d="M88.75,178.2a28.35,28.35,0,0,0,.26,9.42h0a28.07,28.07,0,0,0-9.42.17c-5.45,1-9.1-1.12-10.22-4.4s2.19-8.93,8.37-6.54c-2.67-6.06,2.82-9.64,6.15-8.66S89.47,172.71,88.75,178.2Z"/><path class="cls-60" d="M332.41,184.76a28.18,28.18,0,0,0-.25-9.42h0a27.91,27.91,0,0,0,9.42-.18c5.45-1,9.1,1.12,10.22,4.4s-2.2,8.93-8.37,6.55c2.67,6.06-2.82,9.63-6.15,8.66S331.7,190.24,332.41,184.76Z"/><path class="cls-60" d="M348.34,195l.66.63a6,6,0,0,0-.66,1.29,1.53,1.53,0,0,0,0,.92,2.21,2.21,0,0,0,.62.91,6.58,6.58,0,0,0,1.1.83,15,15,0,0,0,1.49.83l2.21,1.17,6-6.29-.88-1.72a18.68,18.68,0,0,0-1.07-1.9,5.7,5.7,0,0,0-.83-1,2.14,2.14,0,0,0-1.58-.73,3.26,3.26,0,0,0-1.7.79l-.66-.63,5.5-5.76.66.63a2.8,2.8,0,0,0-.38,2.15,12.45,12.45,0,0,0,1.12,3.15l9.55,19.88-2,2.13L348,202.55a23.08,23.08,0,0,0-2.15-1,3.52,3.52,0,0,0-1.44-.22,3,3,0,0,0-1.37.52l-.66-.63Zm12.23,1.78-5.39,5.63,11.15,5.75Z"/><path class="cls-60" d="M224.63,176.34a56,56,0,0,0,.51,18.7h0a55.79,55.79,0,0,0-18.7.35c-10.81,1.91-18.06-2.23-20.29-8.74s4.36-17.72,16.62-13c-5.3-12,5.6-19.13,12.21-17.2S226.05,165.46,224.63,176.34Z"/><g class="cls-61"><path class="cls-50" d="M410.86,239.29a15.19,15.19,0,0,0-2.14-4.71l-40.25-61.67L299.67,67.46,259.42,5.78C253.51-3.27,246.55,1,246.55,1l-.36.24h0L168.41,52l-4.47,2.91L83.6,107.34S76.89,112,82.79,121l5.67,8.69,0,0L227.56,342.89v0l4.55,7c5.91,9.05,12.86,4.78,12.86,4.78l78.15-51,6.65-4.34,78.15-51A8.51,8.51,0,0,0,410.86,239.29Z"/></g><path class="cls-51" d="M250.24,2.11,171.86,52.74l-6.67,4.31L86.8,107.69s-6.74,4.61-.87,13.69l40,61.86L194.21,289l40,61.87C240,359.94,247,355.7,247,355.7l78.39-50.63,6.67-4.31,78.38-50.64s6.74-4.61.88-13.69l-40-61.86L303,68.81l-40-61.87C257.22-2.13,250.24,2.11,250.24,2.11Z"/><g class="cls-62"><path class="cls-63" d="M270.87,178.5Q218.64,212.25,166.44,246l67.73,104.86C240,359.94,247,355.7,247,355.7L410.45,250.12s6.74-4.61.88-13.69l-67.77-104.9Z"/></g><g class="cls-64"><path class="cls-65" d="M262.71,7.16l39.91,61.77,68.22,105.61,39.91,61.78c5.85,9.06-.89,13.68-.89,13.68l-78.47,50.68L324.71,305l-78.46,50.69a8.3,8.3,0,0,1-3.7,1,8.32,8.32,0,0,0,4.46-1l78.39-50.63,6.67-4.31,78.38-50.64s6.74-4.61.88-13.69l-40-61.86L303,68.8l-40-61.86c-5.86-9.08-12.84-4.83-12.84-4.83l-.37.23S256.86-1.9,262.71,7.16Z"/></g><g class="cls-66"><path class="cls-67" d="M234.54,350.65l-39.91-61.77L126.41,183.27l-39.9-61.78c-5.86-9.06.89-13.68.89-13.68l78.46-50.69,6.68-4.31L251,2.12a8.25,8.25,0,0,1,3.7-1,8.34,8.34,0,0,0-4.47,1L171.86,52.74l-6.67,4.31L86.8,107.69s-6.74,4.61-.87,13.69l40,61.86L194.21,289l40,61.87C240,359.94,247,355.7,247,355.7l.37-.23S240.39,359.71,234.54,350.65Z"/></g><g class="cls-68"><path class="cls-69" d="M91.51,130,229.66,343.89l-.48-1.53L194.4,288.52l-100-154.84Z"/></g><path d="M124.78,150.65a18.73,18.73,0,0,1,2.07,9.77l3-1.93,3-1.93A18.74,18.74,0,0,1,124.78,150.65Z"/><path d="M125.94,140.22a27.22,27.22,0,0,1-9-1.7h0a27,27,0,0,1-2.15,8.9c-2.07,5-.84,8.79,2.07,10.36s9-.71,8-6.92c5.26,3.46,9.85-1.19,9.62-4.49S131.35,140.39,125.94,140.22Z"/><path d="M371.71,207a18.73,18.73,0,0,1-2.07-9.77l-3,1.93-3,1.93A18.74,18.74,0,0,1,371.71,207Z"/><path d="M370.56,217.47a27.28,27.28,0,0,1,9,1.7h0a26.93,26.93,0,0,1,2.15-8.9c2.07-5,.84-8.79-2.07-10.36s-9,.7-8.05,6.92c-5.26-3.46-9.85,1.19-9.62,4.49S365.14,217.3,370.56,217.47Z"/><path d="M379.06,224.06l.49.77a5.93,5.93,0,0,0-.94,1.09,1.48,1.48,0,0,0-.23.9,2.26,2.26,0,0,0,.39,1,7.3,7.3,0,0,0,.87,1.07,16.84,16.84,0,0,0,1.26,1.15l1.88,1.65,7.3-4.72-.46-1.87a19.39,19.39,0,0,0-.6-2.1,7.38,7.38,0,0,0-.57-1.16,2.13,2.13,0,0,0-1.37-1.07,3.18,3.18,0,0,0-1.84.36l-.5-.76,6.69-4.32.5.76a2.77,2.77,0,0,0-.87,2,12.4,12.4,0,0,0,.35,3.32l4.67,21.55-2.47,1.6-16.61-14a18.91,18.91,0,0,0-1.87-1.43,3.44,3.44,0,0,0-1.34-.56,3.13,3.13,0,0,0-1.46.19l-.49-.77Zm11.47,4.57L384,232.86l9.5,8.18Z"/><g class="cls-70"><path class="cls-50" d="M429.78,274.26l-25.68-69-43.9-118-25.69-69C330.75,8.08,323,10.72,323,10.72l-.41.15h0l-182,67.7s-7.57,3.05-3.8,13.18l3.62,9.72,0-.06L229.22,340v0l2.91,7.81c3.77,10.12,11.5,7.49,11.5,7.49l.4-.15h0l93.94-35,.56-.2L426,287.45a8.38,8.38,0,0,0,3-2.43C430.59,283,431.79,279.64,429.78,274.26Z"/></g><path class="cls-51" d="M325,11,237.88,44.58l-7.41,2.85L143.39,81s-7.54,3.14-3.66,13.22l26.47,68.73,45.25,117.5,26.47,68.73c3.88,10.08,11.58,7.35,11.58,7.35L336.58,323l7.41-2.86,87.08-33.53s7.54-3.14,3.66-13.23l-26.47-68.73L363,87.13,336.54,18.4C332.66,8.31,325,11,325,11Z"/><g class="cls-71"><path class="cls-72" d="M309.08,187.92q-58,22.35-116,44.73l44.87,116.5c3.88,10.08,11.58,7.35,11.58,7.35l181.57-69.92s7.54-3.14,3.66-13.23L389.85,156.81Z"/></g><g class="cls-73"><path class="cls-74" d="M336.14,18.53l26.43,68.63,45.18,117.33,26.43,68.63c3.88,10.07-3.67,13.21-3.67,13.21L343.34,319.9l-7.42,2.86-87.17,33.57a8.21,8.21,0,0,1-3.82.21,8.43,8.43,0,0,0,4.57,0L336.58,323l7.41-2.86,87.08-33.53s7.54-3.14,3.66-13.23l-26.47-68.73L363,87.13,336.54,18.4C332.66,8.31,325,11,325,11l-.4.16S332.26,8.47,336.14,18.53Z"/></g><g class="cls-75"><path class="cls-76" d="M238.32,349l-26.43-68.63L166.71,163.05,140.28,94.42C136.4,84.35,144,81.21,144,81.21l87.17-33.57,7.42-2.86,87.17-33.57a8.37,8.37,0,0,1,3.82-.21A8.43,8.43,0,0,0,325,11L237.88,44.58l-7.41,2.85L143.39,81s-7.54,3.14-3.66,13.22l26.47,68.73,45.25,117.5,26.47,68.73c3.88,10.08,11.58,7.35,11.58,7.35l.4-.15S242.2,359.08,238.32,349Z"/></g><g class="cls-77"><path class="cls-78" d="M143.43,103.81,234.92,341.4l-.15-1.6-23-59.82L145.49,108Q144.46,105.89,143.43,103.81Z"/></g><path class="cls-60" d="M180.34,125.9h0c-6-.84-13.26-7.67-13.49-7.89h0c0,.32-.79,10.22-4.71,14.9h0c6,.85,13.25,7.68,13.48,7.9h0c0-.32.8-10.22,4.71-14.9h0Z"/><path class="cls-60" d="M393.35,241.25h0c6,.85,13.26,7.68,13.49,7.9h0c0-.32.79-10.22,4.71-14.9h0c-6.05-.84-13.26-7.68-13.49-7.89h0c0,.31-.79,10.22-4.71,14.9Z"/><path class="cls-60" d="M405.63,254.55l.33.85a6.51,6.51,0,0,0-1.15.89,1.53,1.53,0,0,0-.41.82,2.23,2.23,0,0,0,.18,1.08,6.52,6.52,0,0,0,.63,1.23c.27.42.6.88,1,1.39l1.51,2,8.11-3.12-.06-1.93a20.23,20.23,0,0,0-.16-2.18,6.1,6.1,0,0,0-.33-1.25,2.1,2.1,0,0,0-1.12-1.33,3.16,3.16,0,0,0-1.87,0l-.33-.85,7.43-2.86.33.85a2.8,2.8,0,0,0-1.26,1.79,12.54,12.54,0,0,0-.33,3.32l.16,22-2.75,1.06-13.39-17.12a19.56,19.56,0,0,0-1.53-1.79,3.53,3.53,0,0,0-1.2-.81,3.15,3.15,0,0,0-1.47-.12l-.33-.85Zm10.3,6.82-7.27,2.8,7.63,9.95Z"/><path class="cls-60" d="M305.26,176.83h0c-12-1.68-26.31-15.24-26.77-15.68h0c-.05.63-1.57,20.29-9.34,29.58h0c12,1.68,26.31,15.24,26.76,15.67v0h0c0-.63,1.57-20.29,9.34-29.58Z"/><g class="cls-79"><path class="cls-50" d="M444.43,317.44l-10.24-72.93L416.7,119.82,406.46,46.89c-1.5-10.7-9.62-9.79-9.62-9.79l-.33,0L304.43,50.07l-5.89.83L204.16,64.14S196.1,65.5,197.6,76.2l1.45,10.27,0-.06,35.38,252.12v0l1.15,8.26c1.51,10.69,9.62,9.78,9.62,9.78l92.41-13,3.93-.55,96.35-13.52a8.4,8.4,0,0,0,5.69-4.52A12.82,12.82,0,0,0,444.43,317.44Z"/></g><path class="cls-51" d="M399,38.9,306.56,51.67l-7.87,1.09L206.25,65.54s-8.06,1.33-6.58,12l10.09,73L227,275.26l10.08,72.95c1.48,10.7,9.6,9.81,9.6,9.81l92.44-12.78,7.86-1.08,92.44-12.78s8.06-1.34,6.58-12l-10.08-72.95L418.67,121.66,408.59,48.71C407.11,38,399,38.9,399,38.9Z"/><g class="cls-80"><path class="cls-81" d="M343.16,207.49,220,224.55l17.08,123.66c1.48,10.7,9.6,9.81,9.6,9.81l192.74-26.64s8.06-1.34,6.58-12l-17.1-123.71Z"/></g><g class="cls-82"><path class="cls-81" d="M218.33,212.58l52.75-7.25,152-21,4.17-.58L408.59,48.71C407.11,38,399,38.9,399,38.9L206.25,65.54s-8.06,1.33-6.58,12l10.09,73Z"/></g><g class="cls-83"><path class="cls-51" d="M408.17,48.75l10.06,72.85,17.21,124.54L445.51,319c1.48,10.69-6.59,12-6.59,12L346.39,343.8l-7.87,1.09L246,357.68a8.3,8.3,0,0,1-3.77-.67,8.43,8.43,0,0,0,4.46,1l92.44-12.78,7.87-1.09,92.43-12.77s8.06-1.34,6.58-12l-10.08-73L418.67,121.66l-10.08-73c-1.48-10.7-9.6-9.8-9.6-9.8l-.43.06S406.69,38.06,408.17,48.75Z"/></g><g class="cls-84"><path class="cls-85" d="M237.5,348.17l-10.07-72.85L210.22,150.78,200.15,77.92c-1.47-10.68,6.59-12,6.59-12l92.53-12.79L307.15,52l92.53-12.78a8.14,8.14,0,0,1,3.77.67,8.3,8.3,0,0,0-4.46-1L306.56,51.67l-7.87,1.09L206.25,65.54s-8.06,1.33-6.58,12l10.09,73L227,275.26l10.08,72.95c1.48,10.7,9.6,9.81,9.6,9.81l.43-.06S239,358.86,237.5,348.17Z"/></g><g class="cls-86"><path class="cls-87" d="M201.08,87.79,235.93,340l.21-1.59-8.77-63.49L202.13,92.3Z"/></g><path d="M222.79,122.49a18.84,18.84,0,0,1-2.24,9.73l3.52-.49,3.52-.48A18.73,18.73,0,0,1,222.79,122.49Z"/><path d="M227,115.63a5.17,5.17,0,0,0-1.92.67l-.05,0a5.14,5.14,0,1,0-5.87,1,5.15,5.15,0,1,0,3.47,4.39h0a5.15,5.15,0,1,0,4.36-6Z"/><g id="Artwork_4" data-name="Artwork 4"><path class="cls-88" d="M249.81,198.28c67.59,0,122.38,55.43,122.38,123.81s-54.79,123.8-122.38,123.8-122.37-55.43-122.37-123.8,54.79-123.81,122.37-123.81"/></g><path class="cls-89" d="M64.47,366.31v48.16H15V226.29H87.17q28.35,0,46.85,21.13,17.58,20,17.59,48.82T134,345.19q-18.5,21.12-46.85,21.12Zm0-48H76.15q11-.39,17.85-6.43,8-7.74,8-17.58a21,21,0,0,0-7.74-16.54Q87.3,271,76.55,271H64.47Z"/><path class="cls-89" d="M422.59,322v92.51H373.12V226.29h49.47v95.14l46.32-95.14H524l-47.77,95.14,48.29,93H469Z"/><path class="cls-89" d="M588.07,274.59v24.54h61.67v46.06H588.07v21h64l9.71,48.29H538.59V226.29H661.81l-9.57,48.3Z"/><path class="cls-89" d="M785.3,348.34l39.63,66.13H767.32l-39.63-66.13v66.13H678.22V226.29h78.21q28.35,0,47,21.13,17.58,20,17.58,48.82,0,21.64-17.58,40.15A63.24,63.24,0,0,1,785.3,348.34Zm-57.61-30.06h16.67q10.89-.39,17.71-6.43,8-7.74,8-17.58a21,21,0,0,0-7.75-16.54Q755.39,271,744.75,271H727.69Z"/><path class="cls-51" d="M64.47,366.31v48.16H15V226.29H87.17q28.35,0,46.85,21.13,17.58,20,17.59,48.82T134,345.19q-18.5,21.12-46.85,21.12Zm0-48H76.15q11-.39,17.85-6.43,8-7.74,8-17.58a21,21,0,0,0-7.74-16.54Q87.3,271,76.55,271H64.47Z"/><path class="cls-51" d="M422.59,322v92.51H373.12V226.29h49.47v95.14l46.32-95.14H524l-47.77,95.14,48.29,93H469Z"/><path class="cls-51" d="M588.07,274.59v24.54h61.67v46.06H588.07v21h64l9.71,48.29H538.59V226.29H661.81l-9.57,48.3Z"/><path class="cls-51" d="M785.3,348.34l39.63,66.13H767.32l-39.63-66.13v66.13H678.22V226.29h78.21q28.35,0,47,21.13,17.58,20,17.58,48.82,0,21.64-17.58,40.15A63.24,63.24,0,0,1,785.3,348.34Zm-57.61-30.06h16.67q10.89-.39,17.71-6.43,8-7.74,8-17.58a21,21,0,0,0-7.75-16.54Q755.39,271,744.75,271H727.69Z"/><g id="Artwork_4-2" data-name="Artwork 4"><g class="cls-90"><g class="cls-90"><path class="cls-91" d="M249.81,198.28c67.59,0,122.38,55.43,122.38,123.81s-54.79,123.8-122.38,123.8-122.37-55.43-122.37-123.8,54.79-123.81,122.37-123.81"/><path class="cls-51" d="M211.33,431.87c5,1.71,21.83,7.17,22.54,1.83.39-2.92-8.44-5.94-20.5-12.3A193,193,0,0,1,167,387.14a106.46,106.46,0,0,1-31.87-74c-1-37.46,13.7-67.74,37.72-87.27a123.48,123.48,0,0,0-48,94.72c-.71,27.13,6.86,49.92,21.09,70.72a80.34,80.34,0,0,0,15.37,15.12c13.62,10.32,33.56,19.86,50.06,25.48"/><path class="cls-51" d="M374.45,293.58c-7.6-35.68-31.13-60.67-62.72-78.32,24.12,17.19,58.08,53.7,38.06,85.93-17,25.81-58.24,20.75-80.79,8.53-26.75-14.59-60.37-47.33-27.27-79.32,21.44-20.71,89.75,2.49,77.68,33.46-7,18-34.27,14-46.55,5.2-9-6.5-16.65-17.66-12.63-29.19,1.25-3.74,1.11-9.43-4.11-5.21-3.88,3.15-5.85,8.35-6.54,13.16-5.7,40.36,66.14,71.63,87.52,32.59,11.07-20.26-6.87-49.66-29.45-61.74-17-9.09-34.64-15.48-56.28-13.92-34.61,2.49-63.66,24.12-67.25,59.49-3.61,35.1,19.85,66.78,47.53,85.7,29.07,19.92,68.2,33,104,21.17,32.07-10.64,45.32-47.45,38.87-77.5"/><path class="cls-92" d="M328.74,266.37c3.44-23.12-17.44-39-36.78-46.21-22.76-8.52-52.83-4.78-69.41,14.07-12.16,13.85-11.33,34-5.09,50.2,9.45,24.58,30.81,42.34,55.65,50,17.66,5.44,39,7.82,56.91,2.07,26.09-8.4,34.58-35.62,29.19-60.55a72.15,72.15,0,0,0-5.28-15.61c-3.3-6.92-13.4-20.93.52-3.87a62.9,62.9,0,0,1,4,6,66.26,66.26,0,0,1,6.77,15c7.58,23.27,1.63,50.43-19.44,64.47-16.19,10.76-36.65,12-55.36,9.35-25.11-3.59-48.77-15.81-65.17-35.27-15-17.78-25.26-43.31-19.08-66.69,4.51-17.09,18.38-29.83,35-35.21,21-6.8,44.13-3.65,63.06,7.4,9.48,5.53,18.15,13.16,23,23.17a34.24,34.24,0,0,1,3.46,14.46,30.23,30.23,0,0,1-.47,6.08c-.14.72-1.67,2.78-1.46,1.08"/></g></g></g><path class="cls-93" d="M367.56,182H379.9l4.45,24H367.56q-20.35,0-33.52-12.34l-.12-.13q-13.23-13.23-13.23-33.13t13.23-33.2l.12-.06q13.17-12.34,33.52-12.34h16.79l-4.39,24h-12.4q-10.81,0-16.79,5.6-6.11,6-6.11,16t6,16Q356.8,182,367.56,182Z"/><path class="cls-93" d="M413.32,149.8h21v-35h24V206h-24V173.2h-21V206h-24v-91.2h24Z"/><path class="cls-93" d="M488.21,198.39,485.34,206H461.43l40.58-96,40.57,96H518.67l-2.8-7.57Zm20.47-19.21L502,161.37l-6.62,17.81Z"/><path class="cls-93" d="M597.56,173.9,616.77,206H588.85L569.64,173.9V206h-24v-91.2h37.9A29.05,29.05,0,0,1,606.34,125q8.52,9.66,8.52,23.66,0,10.49-8.52,19.46A30.67,30.67,0,0,1,597.56,173.9Zm-27.92-14.56h8.08a13.28,13.28,0,0,0,8.59-3.12,11.59,11.59,0,0,0,3.88-8.52,10.15,10.15,0,0,0-3.76-8,11.78,11.78,0,0,0-8.52-3.24h-8.27Z"/><path class="cls-93" d="M621.83,114.76h24V206h-24Z"/><path class="cls-93" d="M693.92,138.16V206h-24v-67.8H650.16v-23.4h63.47v23.4Z"/><path class="cls-93" d="M770.65,206H746.74V177.59l-35.11-62.83h27.1l19.9,35.68,20-35.68h27.1l-35.11,62.83Z"/><path class="cls-51" d="M367.56,182H379.9l4.45,24H367.56q-20.35,0-33.52-12.34l-.12-.13q-13.23-13.23-13.23-33.13t13.23-33.2l.12-.06q13.17-12.34,33.52-12.34h16.79l-4.39,24h-12.4q-10.81,0-16.79,5.6-6.11,6-6.11,16t6,16Q356.8,182,367.56,182Z"/><path class="cls-51" d="M413.32,149.8h21v-35h24V206h-24V173.2h-21V206h-24v-91.2h24Z"/><path class="cls-51" d="M488.21,198.39,485.34,206H461.43l40.58-96,40.57,96H518.67l-2.8-7.57Zm20.47-19.21L502,161.37l-6.62,17.81Z"/><path class="cls-51" d="M597.56,173.9,616.77,206H588.85L569.64,173.9V206h-24v-91.2h37.9A29.05,29.05,0,0,1,606.34,125q8.52,9.66,8.52,23.66,0,10.49-8.52,19.46A30.67,30.67,0,0,1,597.56,173.9Zm-27.92-14.56h8.08a13.28,13.28,0,0,0,8.59-3.12,11.59,11.59,0,0,0,3.88-8.52,10.15,10.15,0,0,0-3.76-8,11.78,11.78,0,0,0-8.52-3.24h-8.27Z"/><path class="cls-51" d="M621.83,114.76h24V206h-24Z"/><path class="cls-51" d="M693.92,138.16V206h-24v-67.8H650.16v-23.4h63.47v23.4Z"/><path class="cls-51" d="M770.65,206H746.74V177.59l-35.11-62.83h27.1l19.9,35.68,20-35.68h27.1l-35.11,62.83Z"/><path d="M112.08,137.32l.49,2.36-6,3.82-5.18-30.62L127,130.51l-6,3.83L119,132.89Zm2.07-8.11-4.53-3.4,1.19,5.53Z"/><path d="M219,102.42l-.61,2.33-7.08.74,9-29.71,15,27.19-7.09.75-1.06-2.16Zm5.47-6.33L221.91,91l-1.41,5.49Z"/><path class="cls-60" d="M162.85,114.64l0,2.41-6.67,2.48,1.35-31,21.3,22.59-6.67,2.49-1.57-1.83Zm3.72-7.49-3.71-4.28v5.66Z"/><path class="cls-60" d="M68.2,175l1.06,2.17-4.89,5.18L51.84,153.92,81,164.74l-4.89,5.18L73.85,169Zm0-8.36L63,164.43l2.51,5.07Z"/></g></g></g></svg>
