<?xml version="1.0" encoding="utf-8"?>
<!-- Generator: Adobe Illustrator 24.1.2, SVG Export Plug-In . SVG Version: 6.00 Build 0)  -->
<svg version="1.1" id="Layer_1" xmlns="http://www.w3.org/2000/svg" xmlns:xlink="http://www.w3.org/1999/xlink" x="0px" y="0px"
	 viewBox="0 0 600 600" style="enable-background:new 0 0 600 600;" xml:space="preserve">
<style type="text/css">
	.st0{fill:#8731E8;}
	.st1{fill:#792CD1;}
	.st2{display:none;clip-path:url(#SVGID_2_);}
	.st3{display:inline;}
	.st4{display:inline;clip-path:url(#SVGID_4_);fill:#FFFFFF;}
	.st5{clip-path:url(#SVGID_2_);}
	.st6{clip-path:url(#SVGID_6_);fill:#AFAFAF;}
	.st7{clip-path:url(#SVGID_6_);fill:#792CD1;}
</style>
<rect class="st0" width="601.3" height="601.3"/>
<path class="st1" d="M149.6,699.6c-12-4.7-24.2-9.4-35.7-15.4c-11.2-39.8-15.4-81.5-13-123.1c3.1-50.8,16.4-98.9,44-143.7
	c1.8-2.9,3.4-5.5,5.2-8.3c19.8-29.9,41.4-52.8,71.1-73.1c2.1-1.3,3.6-2.3,5.5-3.6c1.6-1,2.9-1.8,4.4-2.9c0.5-0.3,0.8-0.3,1.3-0.5
	c7.3-4.7,14.3-8.3,21.9-12c0.3-0.3,0.8-0.5,1-0.8c8.3-3.9,16.7-7.3,25.2-10.4c0.3,1.6,1.3,2.6,1.6,3.9c-2.1,1.6-4.4,2.3-6.5,4.2
	c-0.3,0.3-0.8,0.3-1.3,0.5c-9.1,6-17.2,11.2-25.5,18.2c-2.1,1.8-3.9,3.4-6,4.9c-0.3,0.3-0.5,0.8-0.8,1c-6.2,4.7-10.7,10.2-16.4,15.4
	c-0.5,0.5-1,1.6-1.6,2.1c-1.3,1-2.3,2.6-3.6,3.9c-0.3,0.3-0.8,0.5-1,0.8c-1.3,1.8-2.9,3.4-4.2,5.2c-0.3,0.3-0.8,0.5-1,0.8
	c-5.2,6.5-9.9,12.2-14.6,19.3c-1.6,2.9-3.4,5.2-5.2,7.8c-0.3,0.5-0.3,0.8-0.5,1.3c-25.2,38.8-37.5,79.7-42.4,123.9
	c-0.5,7-1,13.8-1.3,20.8c-0.5,8.1-0.3,16.1-0.3,24.2c0.3,3.6,0.3,7,0.5,10.7c0.5,7.3,1.3,14.3,2.1,21.6c0.5,4.7,1.3,9.1,2.3,14.1
	c1.3,7.5,2.3,14.3,4.2,21.9l3.1,12.5c1.3,4.2,2.3,8.3,3.6,12.5c5.7,19,13.3,37,21.3,54.7C174.6,708.2,161.8,704.3,149.6,699.6
	 M46.2,643.6C25.1,627.7,5.1,610.5-12.9,591c6.2-55.4,22.1-108,53.1-157.2c1.8-2.6,3.1-4.9,4.9-7.5c6-8.6,11.2-16.1,17.7-23.9
	c3.9-4.4,7.3-8.9,11.5-13c0.3-0.3,0.5-0.8,0.8-1.3c9.1-9.6,17.7-18,27.9-26.6c4.2-3.4,8.1-6.2,12.2-9.6c6.5-4.9,12.5-8.6,19.3-13.3
	c0.5-0.3,0.8-0.3,1.3-0.5c23.7-15.1,47.4-24.7,73.9-31.8c10.9-2.9,21.3-4.7,32.3-6c12.8-1.6,25.2-1.8,37.7-1.6v3.6
	c-33.3,4.7-64.6,16.7-94.2,34.9c-0.5,0.3-0.8,0.3-1.3,0.5c-5.5,3.6-10.2,6.8-15.6,10.7c-3.4,2.6-6.2,4.7-9.6,7.3
	c-5.2,4.2-9.9,8.1-14.6,12.5c-2.1,2.1-3.9,3.6-6,5.7c-3.1,3.4-6.2,6.5-9.6,9.9c-4.4,4.4-7.8,9.1-12,13.8l-1.6,2.3
	C85,437.4,66.5,478.3,55.1,524.6c-1.3,5.2-2.3,10.2-3.4,15.4c-2.9,14.8-4.7,28.6-5.7,43.2v3.4c-1,6.8-0.8,13.3-1,19.8
	C44.7,618.9,45.2,631.1,46.2,643.6 M264.9,725.6c-1.3-2.6-3.1-4.7-4.9-7c-0.3-0.5-0.5-1-0.8-1.6c-51.5-73.4-75.7-155.9-62.5-243.1
	v-1.6c2.6-16.4,6.2-31.5,11.5-46.9c0.5-1.3,1-2.3,1.6-3.6c5.2-15.6,12.2-29.7,20-44c0.5-0.8,1-1.3,1.6-2.1c0.3-0.5,0.3-0.8,0.5-1.3
	c0.5-0.8,1-1.3,1.6-2.1c0.3-0.5,0.3-0.8,0.5-1.3c0.5-0.8,1-1.3,1.6-2.1c0.3-0.5,0.3-0.8,0.5-1.3c1.3-1.8,2.6-3.4,3.6-5.5
	c3.9-5.7,7.5-10.7,11.7-15.9c2.3-2.6,4.4-5.5,6.8-8.1c1-0.8,1.8-1.8,2.6-2.9c0.3-0.3,0.8-0.5,1-0.8c7-8.1,14.6-15.1,22.4-21.9
	c0.5,1,1.6,1.8,2.3,2.6c-12.2,15.4-22.6,31.8-31.2,49.7c-11.2,23.2-18,46.9-22.1,72.4c-0.5,4.2-1,8.1-1.6,12.2s-0.5,8.3-1,12.5
	c-0.3,4.7-0.3,9.1-0.5,13.8c0,9.4,0.3,18.5,1.3,27.9v2.9c0,1,0.3,1.8,0.5,2.9c5.5,52.6,23.2,100,53.6,145.5c0.5,1,1,1.8,1.6,2.9
	c7.3,10.4,13.5,19,21.3,28.6c1,1.3,2.1,2.3,3.4,3.6c1.8,2.1,3.4,4.4,5.2,6.5c4.4,4.7,8.3,8.9,12.5,13.5c3.4,3.4,6.2,6.5,9.6,9.6
	c1.3,1,2.3,2.3,3.9,3.4c0.5,0.3,0.8,0.8,1,1.3C317.7,727.4,291.2,727.4,264.9,725.6 M-61,528.6c-14.3-22.1-26-45.6-35.9-69.8
	c7.8-14.3,15.1-28.1,25.2-41.9l0.8-1.6c1.3-1.8,2.3-3.4,3.9-5.2l0.8-1.6c17.2-22.9,34.1-42.7,55.4-61.2c0.5-0.3,0.8-0.5,1.3-0.8
	c9.4-8.3,18.2-15.1,28.6-22.4c22.4-15.4,43.7-26.6,68.2-35.7c1-0.3,1.8-0.5,2.9-0.8c60.9-22.4,128.9-22.4,189,2.6
	c0.8,0.3,1.8,0.3,2.6,0.8c-0.5,1.3-1.3,2.6-1.6,3.9c-15.6-3.9-31.8-5.5-47.9-6c-25.2-0.5-50,2.6-75,9.4
	c-31.5,8.9-58.6,21.9-86.4,40.9c-0.5,0.3-0.5,0.8-1,1c-51,35.4-85.4,81.2-110.6,134.8c-1.8,4.2-3.6,8.1-5.5,12.2
	c-0.5,1-0.5,2.1-1,3.1C-52.9,503-56.8,515.8-61,528.6 M421.3,709.2c-7-4.9-13.8-9.1-20.8-14.6l-1.6-0.8c-8.9-7-17.2-13.5-25.8-20.8
	c-1.6-1.6-3.1-2.9-4.9-4.4c-1.3-1-2.1-2.3-3.4-3.4c-0.8-0.8-1.8-1.3-2.6-2.1c-5.2-5.5-10.7-10.2-15.6-16.1c-0.5-0.5-0.8-0.5-1.3-1
	c-11.2-12.8-21.6-24.5-31-39c-0.3-0.5-0.8-0.5-1-1c-6.8-10.7-12.8-20-18.7-31c-3.4-6.2-6.2-12.2-9.1-18.5
	c-3.6-8.1-6.5-16.1-9.6-24.2c-0.3-1-0.5-1.8-0.8-2.9c-18.5-53.1-21.1-110.4-4.7-164.8c0.3-0.8,0.3-1.8,0.5-2.6
	c1-2.9,1.8-5.7,2.9-8.6c1.3-3.9,2.9-7.3,4.2-11.2c3.4-8.6,7.3-16.7,11.7-24.7c1,0.8,2.3,1.6,3.6,1.8c-0.8,2.1-1.3,4.2-1.8,6.2
	c-13,44-13.5,88.5-2.3,133.5c11.5,46.1,32.8,85.6,63.8,121.3c1.3,1.6,2.6,2.9,3.9,4.4c16.7,18.7,33.6,33.6,54.1,48.7
	c1.6,1.3,3.1,2.6,4.9,3.9c12,8.1,22.4,15.1,34.6,21.3c0.5,0.3,0.8,0.8,1.3,1c11.7,6,22.9,11.7,34.9,16.7l3.1,1.6
	c1.6,0.5,3.1,1.6,4.7,1.8c-6.8,3.4-13.5,6.5-20.3,9.9l-2.3,0.8C455.2,697.8,438.5,704,421.3,709.2 M-119.3,383.6
	c-3.1-14.3-4.9-28.6-6.5-43.2c0-0.8,0.3-1.8,0-2.6c-0.3-1.3-0.3-2.3-0.5-3.6c-0.8-9.6-1.3-19.3-1.3-28.9c8.9-8.1,18-15.1,27.6-22.6
	l1.6-0.8c4.2-3.1,7.8-6,12.2-8.6c1-0.5,1.6-1.3,2.6-2.1c1-0.8,1.8-1,2.9-1.6c10.7-7.5,20.8-13,32-19c2.1-0.8,3.9-2.1,5.7-2.9
	c1.6-0.5,2.9-1.3,4.2-2.1c1-0.3,1.8-0.8,2.9-1.3c0.5-0.3,1-0.3,1.6-0.5c6.2-3.1,12.2-5.7,18.7-8.1c0.5-0.3,0.8-0.5,1.3-0.8
	C19.2,222.2,54,214.1,90,212.8c18-0.5,35.4,0.3,53.4,2.9c9.6,1.6,18.7,3.4,28.4,5.7c4.9,1.3,9.4,2.9,14.3,4.2
	c3.9,1.3,7.5,2.6,11.5,3.9c3.4,1.3,6.5,2.6,9.9,4.2c29.4,12,56.2,29.2,78.6,51.5c-1,0.8-1.3,1.8-2.3,2.6c-1.6-0.5-2.9-1.8-4.4-2.9
	c-34.1-21.1-70-33.6-109.1-37.5c-0.8,0-1.8-0.5-2.6-0.5c-4.9-0.3-9.9-0.5-14.8-1c-3.1-0.3-6.5,0-9.6,0c-9.6-0.5-19.3,0.3-29.2,1
	c-0.8,0-1.8,0.5-2.6,0.5c-12.5,1-23.9,3.4-36.4,6c-3.9,1-7.3,1.8-11.2,2.9c-1.8,0.5-3.6,1-5.5,1.8c-1.3,0.3-2.9,0.8-4.2,1
	c-5.7,1.8-11.2,3.9-16.7,6c-7,2.6-13.8,5.2-20.6,8.3c-20.3,9.4-38.5,19.8-57.3,33.3c-0.8,0.8-1.6,1.6-2.3,2.1
	c-8.3,5.7-15.1,11.2-22.6,17.7c-2.9,2.6-5.7,4.9-8.6,7.5c-0.5,0.5-0.5,0.8-1,1.3C-91.5,350.5-106,366.4-119.3,383.6 M561.1,637.6
	c-5.5-1.6-11.2-2.1-16.7-3.9c-1.6-0.3-3.1-0.8-4.9-1c-22.4-5.7-43-13-63.5-22.4c-4.7-2.3-9.4-4.7-14.3-7c-0.8-0.5-1.8-1-2.6-1.6
	c-0.5-0.3-1-0.3-1.6-0.5c-43-22.9-78.9-51.5-108.5-91.6c-2.3-3.1-4.2-6-6.5-9.1c-9.6-14.6-17.7-28.1-24.2-43.5
	c-0.5-0.8-1-1.6-1.3-2.3c-3.9-9.1-7.3-18.2-10.4-27.9c-0.5-1.8-0.8-3.4-1.3-5.2c-4.2-13.8-6.8-27.1-8.6-41.4
	c-2.3-20.3-2.1-40.1,0.3-59.9c1.3-0.3,2.3,0.5,3.6,0.3c1.8,31,9.6,61.2,22.6,89.8c0.3,0.3,0.5,0.8,0.8,1c3.6,8.6,8.3,16.7,13,25
	c0.5,0.8,1,1.3,1.6,2.1c1.8,3.4,3.9,6,6,9.1c0.3,0.5,0.3,0.8,0.5,1.3c8.3,12,16.1,21.9,25.8,32.3c0.8,0.5,1.6,1,2.1,1.8
	c8.3,9.4,17.4,16.9,26.8,25.2l2.3,1.6c6,5.2,12,9.4,18.5,14.1c7.5,5.2,14.6,9.6,22.4,13.8c2.3,1.3,4.4,2.6,6.8,3.9
	c4.4,2.1,8.9,4.4,13.3,6.8c7.8,3.6,15.6,7.3,23.9,10.2c0.5,0.3,0.8,0.5,1.3,0.8c30.7,11.7,62.5,19,95.3,22.4c3.9,0.3,7.8,0.8,11.7,1
	h3.4c6.8,0.8,13.5,0.8,20.3,0.8C601.5,603.5,581.9,621.5,561.1,637.6 M-121.4,226.3c4.4-25.8,11.5-51,20.6-75.7
	c16.4-5.7,32.5-10.9,50-15.1c1-0.3,2.3-0.3,3.4-0.5c37-8.6,72.9-10.4,109.8-7.5c1,0,1.8,0.5,2.9,0.5c70.8,6.5,138,36.7,186.1,91.1
	c0.3,0.3,0.8,0.5,1,0.8c16.7,18.7,29.7,39.3,40.1,61.4c-1.3,0.3-2.6,1-3.6,1.8c-4.2-6.2-8.9-11.7-13.5-17.7c-0.3-0.3-0.8-0.5-1-0.8
	c-16.1-19.5-33.8-34.4-55.4-48.4c-0.5-0.3-0.8-0.3-1.3-0.5c-7.8-5.5-15.4-9.1-23.4-13.3c-0.3-0.3-0.8-0.5-1-0.8
	c-32.8-15.9-67.4-25.2-103.6-28.1h-2.9c-53.4-4.2-106.2,6-155.4,26.6c-1,0.5-2.1,0.5-3.1,1c-5.7,2.6-11.2,4.9-16.7,7.5
	c-4.4,2.3-8.9,4.4-13.5,6.8c-1,0.5-1.8,1.3-2.9,1.8C-110.7,220.1-115.9,223.2-121.4,226.3 M665.8,519.7
	c-59.6,10.7-121.8,7.8-179.9-12c-0.5-0.3-1,0-1.6-0.3c-40.6-14.3-77.3-35.4-108.8-65.6c-12.8-12.5-23.4-24.7-34.1-39.8
	c-0.3-0.5-0.3-0.8-0.5-1.3c-12.8-18-21.9-35.9-29.2-55.7c-2.9-8.3-5.7-16.4-7.5-25c1.3-0.5,2.6-0.8,3.9-1h-0.3
	c3.1,7.3,6.8,13.8,10.7,20.8c2.6,4.2,4.7,8.1,7.8,12c0.3,0.5,0.3,0.8,0.5,1.3c4.4,6,8.1,11.2,12.5,16.9c1.8,2.1,3.4,3.9,4.9,6
	c7,7.8,13.3,15.1,21.3,21.9c0.3,0.3,0.5,0.8,0.8,1c2.1,1.8,3.9,3.6,6.2,5.2c0.3,0.3,0.5,0.8,0.8,1c7.8,6.5,15.1,12.2,23.7,18
	c2.9,1.6,5.2,3.4,8.1,5.2c0.5,0.3,0.8,0.3,1.3,0.5c17.4,11.5,35.1,18.7,53.9,26c1,0.3,1.8,0.5,2.9,0.8
	c77.3,27.3,161.9,20.6,237.1-7.8c-6,16.4-12.8,32-20.8,47.6c-2.1,3.6-3.9,7.3-6,11.2c-0.8,1-1.3,2.1-2.1,3.1c-0.5,0.8-0.5,1.6-1,2.3
	c-0.8,1-1.3,2.1-2.1,3.1c-0.3,0.3-0.3,1-0.5,1.3C667.1,517.6,666.5,518.9,665.8,519.7 M296.1,280c-0.5-3.4-1.8-6.8-2.6-10.2
	c-2.3-8.1-5.5-15.6-8.3-23.4c-1.3-3.1-2.9-6.2-4.4-9.4c-0.8-1.6-1.3-3.4-2.1-4.9c-0.3-0.3-0.5-0.8-0.8-1c-3.4-7.8-7.8-14.6-12-22.1
	l-2.3-3.1c-0.3-0.5-0.3-0.8-0.5-1.3c-7.3-10.4-13.5-19.8-21.9-28.9c-7.3-7.8-14.1-15.1-21.9-22.4c-11.7-10.4-22.9-19.3-36.4-28.1
	c-3.4-2.1-6.2-4.2-9.6-5.7c-2.3-1.3-3.9-2.9-6.2-3.6c-1.3-0.5-2.3-1.6-3.6-2.3C121.2,90.5,76.2,78.5,29.1,74.8
	c-10.4-0.8-20.6-1-30.7-1C-9,74.1-16,74.1-23.3,74.6C-38.1,75.9-52.7,77.2-67,80c3.6-6.5,7.5-12.5,12-19c4.9-7,9.1-13.3,14.3-20
	c7-8.6,13.3-16.9,20.6-24.7c22.9,0.3,44.8,2.1,68.2,6.5c22.6,4.4,43.2,10.2,64.3,18.2c5.2,2.1,10.4,4.2,15.6,6.5
	c4.7,2.1,9.1,4.4,13.8,6.5c4.4,2.3,8.6,4.9,13.3,7c1.3,0.8,2.3,1.6,3.6,2.3c16.1,9.4,30.2,19,44.3,31c0.5,0.3,0.8,0.5,1.3,0.8
	c7.8,7.3,15.4,13.8,22.4,21.6c1,1,2.1,1.8,3.1,2.9c20.6,22.6,37.2,47.1,48.9,75c0.3,0.3,0.5,0.8,0.8,1c3.9,9.4,7.3,18.7,10.4,28.6
	c3.1,11.2,5.5,21.9,7.3,33.3c1.3,7.5,1.8,14.6,2.6,21.9C298.5,280,297.4,279.4,296.1,280 M311.5,317.2c1-0.5,1.8-1.8,2.9-2.3
	c3.9,4.2,8.1,7.5,12.5,11.5c2.3,2.1,4.7,3.6,7,5.7c2.9,2.3,5.5,4.2,8.3,6.2c0.5,0.3,0.8,0.3,1.3,0.5c19.5,14.1,39,23.7,60.7,31.8
	c8.6,3.1,16.7,5.7,25.8,7.8c6.8,1.6,13,3.1,20,4.2h1.6c67.9,11.5,134.1-2.1,193.9-33.3c0.5-0.3,1-0.3,1.6-0.5
	c29.4-15.4,55.7-33.8,79.9-55.7c0.3,26.6-1.6,53.1-6.2,79.1c-4.4,2.6-8.6,5.2-13.3,7.5c-0.5,0.3-0.8,0.8-1.3,1
	c-69,37.7-145,55.2-223.9,41.4c-1.6-0.3-2.9-0.5-4.4-0.8c-7-1.6-13.5-2.9-20.6-4.7l-13.3-3.9c-7.8-2.6-15.6-5.5-23.2-8.6
	c-0.8-0.5-1.6-1-2.3-1.3c-5.5-2.1-10.7-4.7-15.9-7.5c-0.8-0.5-1.8-0.5-2.6-1c-8.6-4.9-16.9-9.1-25-15.4c-0.5-0.3-0.8-0.3-1.3-0.5
	c-6.5-4.4-12-8.6-18-13.5c-0.3-0.3-0.5-0.8-0.8-1C337.8,350,324.2,334.4,311.5,317.2 M303.2,279.7c4.7-37,0.8-74.7-11.2-110.6
	c-0.3-0.8-0.8-1.6-1-2.3c-3.9-12.8-9.4-24.5-15.4-36.4c-10.9-21.1-23.7-40.1-39.8-57.8c-0.3-0.5-0.5-0.8-0.8-1.3
	c-15.9-17.7-31.8-32.3-51.5-46.6c-3.9-2.9-7.5-5.2-11.5-7.8c-5.7-3.9-11.2-7-16.9-10.7c-5.2-2.9-9.9-5.5-15.1-8.3
	c-0.5-0.3-1-0.3-1.6-0.5c-18-9.6-35.9-16.7-55.2-22.9c-4.4-1.6-8.3-2.9-12.8-4.2c-0.5-0.3-1.3,0-1.8-0.3l-4.7-1.6
	c-9.1-2.1-17.7-4.4-26.6-6c7.8-6.2,15.4-11.7,24.2-17.4c0.5-0.5,1-1,1.8-1.6c2.1-1.3,3.9-2.6,6-3.9c6.8-4.2,12.8-7.8,19.5-11.7
	c4.9-2.6,9.6-5.5,14.6-7.8c1.8,0.5,3.4,1.3,4.9,1.8l3.1,1.6c13,5.2,25.2,11.5,37.7,18.2c8.3,4.7,15.6,8.9,23.7,14.6
	c1,0.5,1.8,1,2.9,1.6c25.8,17.7,47.1,35.1,67.2,58c1.6,2.1,3.4,3.6,4.9,5.7c0.3,0.5,0.5,0.8,0.8,1.3c5.5,5.7,9.6,12.2,14.8,18.5
	c0.5,0.8,1,1.8,1.6,2.6c2.6,3.1,4.4,6.2,6.5,9.6c0.5,0.8,1.3,1.6,1.8,2.3c0.5,0.8,0.8,1.8,1.3,2.6c43.5,67.7,55.7,148.4,32.3,222.3
	C305.8,280.5,304.5,280,303.2,279.7 M316.7,312.2c0.8-1,1.3-2.1,1.8-3.4c44,18.2,91.9,23.9,140.3,15.6h1.6
	c43.5-7.5,80.4-22.9,117.7-48.4c0.5-0.3,0.5-0.8,1-1c36.2-24.5,62-52.1,87.2-86.9l0.8-1.6c11.5-15.6,19.8-31.2,28.6-47.4
	c9.6,24.5,17.4,49.5,22.6,75.2c-13.5,17.7-28.1,34.1-45,49.5c-0.5,0.5-0.5,0.8-1,1.3c-36.2,33.1-76.3,57.8-122.1,72.9
	c-1.3,0.5-2.9,1-4.2,1.6c-0.5,0.3-1,0-1.6,0.3c-20.8,6.8-41.9,10.9-63.8,12.8c-11.5,1-22.9,1-34.4,0.5c-33.1-1.3-65.1-8.6-95.5-22.1
	c-2.3-1-4.7-2.3-7-3.4c-7.8-3.9-15.1-8.1-22.6-12.5C319.6,314.1,318.3,312.8,316.7,312.2 M310.7,282.6c4.4-8.9,8.9-18,12.5-27.3
	l3.1-8.6c3.1-9.4,5.5-18.2,7.8-27.9c1.3-5.7,2.1-11.2,3.1-16.9c3.1-20.6,3.6-40.3,1.8-60.7v-2.9c-0.3-3.1-0.8-6.2-1-9.6
	c-1-7-1.8-13.5-3.4-20.6c-0.3-1.3-0.5-2.6-1-3.9c-2.1-9.4-4.2-18.2-7.3-27.3c-0.3-0.5,0-1-0.3-1.6l-1.6-3.9c-0.3-0.5,0-1-0.3-1.6
	c-3.1-8.1-6-16.1-9.6-24.2c-1.8-3.6-3.4-7-4.9-10.7c-6-11.7-12-22.4-19.3-33.8c-2.6-3.9-4.9-7.5-7.8-11.5c-2.6-3.4-4.7-6.5-7.3-9.9
	c-2.3-3.1-4.4-5.7-6.8-8.6c-11.5-14.1-22.9-26-36.2-38.3c-10.4-9.4-20.6-17.4-32-26.3l-1.6-0.8l-3.9-3.1
	c-6.5-4.4-12.2-8.6-18.5-12.2c4.7-1.8,9.9-2.9,14.8-4.4c3.9-1,7.8-1.6,11.7-2.9c8.3-2.1,16.1-3.4,24.5-4.9c8.9-1.3,17.4-2.6,26-3.6
	c7.5,7,14.8,13.8,21.6,21.9c0.5,0.5,0.8,0.5,1.3,1c3.6,4.2,7.3,8.1,10.9,12.5c8.9,10.7,16.4,20.8,24.7,32.5c0.5,1,1,1.8,1.6,2.9
	c1.3,1.8,2.3,3.4,3.6,5.2c9.6,15.1,17.4,29.4,24.5,45.3c1.3,3.4,2.6,6.5,4.2,9.9c2.9,7.5,5.7,14.8,8.3,22.6c2.1,6.5,3.9,13,5.7,19.8
	c13,50.2,13.3,101-1.6,150.5c-4.2,13.8-9.1,26.6-15.4,39.6c-2.1,3.9-3.9,7.8-6,11.7c-6.8,12.5-14.6,23.7-23.2,34.6
	C312.8,283.9,312,283.1,310.7,282.6 M320.1,304.9c0.3-1.3,0.8-2.3,0.5-3.6c15.6,0.3,31-0.5,46.9-3.1c8.1-1.3,15.4-2.9,23.2-4.9
	c12.8-3.4,24.5-7.5,36.4-12.5c0.8-0.3,1.6-0.8,2.3-1.3c25-10.9,47.4-25,68.2-43.2c1-1,2.3-1.6,3.4-2.6c9.6-8.3,17.7-16.9,26-26.3
	c9.9-10.9,18.2-21.6,26-34.1c0.5-0.8,1.3-1.6,1.8-2.3c7.5-12.2,14.3-23.4,20.3-35.9c4.4-9.6,8.6-18.7,12.5-28.6
	c12.2-32.3,19.8-65.3,23.4-99.4c5.2,6,10.4,11.7,15.9,17.7c0.5,0.5,0.8,1.3,1.3,2.1c2.1,2.6,4.2,4.7,6.2,7.3
	c3.6,4.4,6.5,8.6,10.2,13.3c3.4,4.9,6.5,8.9,9.6,13.8c1.8,2.9,3.4,5.5,5.2,8.1c-10.7,34.6-24.2,66.9-44.8,98.7
	c-26.6,41.6-57.5,73.7-99.2,100.2c-1.3,0.8-2.3,1.3-3.6,2.1C453.4,306.5,385.4,319.3,320.1,304.9 M316.2,287.2
	c7.8-6.8,15.1-14.1,22.4-21.9c1-1.3,2.1-2.6,3.4-3.9c1.8-2.1,3.4-3.9,4.9-6.2c0.5-0.8,1.3-1,1.8-1.8c3.6-4.7,6.8-8.9,10.2-13.8
	c1-2.1,2.6-3.6,3.6-5.5c0.5-1.3,1.3-2.3,2.1-3.4c0.3-0.5,0.3-0.8,0.5-1.3c0.5-0.8,1-1.3,1.6-2.1c0.3-0.5,0.3-0.8,0.5-1.3
	c12.2-19.8,20.3-39.6,27.1-61.4c1-3.6,1.8-7,2.9-10.7c7.3-29.7,9.6-58.8,8.1-88.8c-0.3-3.4-0.5-7-0.8-10.4c0-1-0.5-1.8-0.5-2.9
	c0-1.6-0.3-2.9-0.5-4.4c-0.8-8.1-1.8-15.6-3.4-23.7c-1.3-6.2-2.3-12-3.9-18c-4.4-17.2-9.6-32.8-16.1-48.9c-1.6-3.4-2.9-7-4.4-10.4
	c-2.6-5.5-4.9-10.7-7.8-16.1c-1.8-3.4-3.1-6.8-5.2-10.2c-5.7-9.9-10.9-18.7-17.2-28.6c-0.8-1-1.6-1.6-2.1-2.6
	c-2.3-4.2-5.2-7.3-7.8-11.2c-0.8-1.6-1.8-2.9-2.9-4.2c4.4,0,8.9,0.5,13.5,1l6.2,0.8c0.8,0,1.8,0.5,2.6,0.5
	c19,2.1,37.2,6.2,55.4,10.9c5.5,11.7,10.9,23.4,15.4,35.7c1.6,4.7,3.4,9.4,4.9,14.3c1.6,5.7,3.6,11.2,5.2,17.2
	c0.8,3.9,1.8,7.3,2.9,10.9c0.3,1,0.3,2.1,0.5,3.1c3.9,14.1,5.7,27.9,7.5,42.2c0.3,3.6,0.8,7,1,10.7v3.1
	c4.2,49.7-3.9,99.4-23.4,145.3c-0.3,0.8-0.8,1.6-1.3,2.3c-5.2,12.2-11.5,23.4-18.7,34.9c-0.3,0.5-0.3,0.8-0.5,1.3
	c-1.8,2.6-3.4,4.9-5.2,7.8c-6.8,9.9-13.8,18.2-21.6,27.1c-7.8,8.1-15.1,15.6-23.9,22.6c-0.3,0.3-0.5,0.8-0.8,1
	c-11.2,9.1-22.1,16.7-34.1,23.9C317.5,289.6,317,288,316.2,287.2 M320.6,297.7c-0.3-1-0.5-2.3-0.8-3.4c5.7-2.3,11.5-4.2,16.9-6.8
	c2.9-1.3,5.5-2.6,8.3-3.9c0.3-0.3,0.8-0.5,1-0.8c7-3.4,13.8-7,20.6-11.5c0.5-0.3,0.8-0.3,1.3-0.5c1.6-1,2.9-1.8,4.4-2.9l3.1-2.3
	c0.8-0.5,1.6-0.8,2.3-1.3c4.2-3.1,7.8-5.7,11.7-8.6c4.7-3.6,8.9-7.3,13.3-11.2c1.3-1.3,2.6-2.3,3.9-3.6c0.3-0.3,0.5-0.8,0.8-1
	c21.9-20.3,38.8-43.2,53.4-69.5c1.3-2.3,2.3-4.9,3.9-7.3c0.5-0.8,0.5-1.8,1-2.6c9.6-19.3,16.4-38.8,22.1-59.9c0.3-1,0.3-2.1,0.5-3.1
	c15.4-62,11.7-123.9-4.7-183.5c1.6,0.8,3.1,1.6,4.4,2.1c22.6,11.2,43.2,24.2,63.5,38.3c7.3,86.9-12,175.7-69,246.8
	c-28.4,35.4-62.7,62-103.3,79.7c-0.8,0.3-1.8,0.5-2.6,0.8C358.6,289.3,339.9,294.5,320.6,297.7"/>
<g id="Artwork_102_1_">
	<g>
		<defs>
			<rect id="SVGID_1_" x="280.8" y="280.8" width="38.3" height="38.3"/>
		</defs>
		<clipPath id="SVGID_2_">
			<use xlink:href="#SVGID_1_"  style="overflow:visible;"/>
		</clipPath>
		<g class="st2">
			<defs>
				<rect id="SVGID_3_" x="280.8" y="280.8" width="38.3" height="38.3"/>
			</defs>
			<clipPath id="SVGID_4_" class="st3">
				<use xlink:href="#SVGID_3_"  style="overflow:visible;"/>
			</clipPath>
			<path class="st4" d="M319.2,300c0,10.6-8.6,19.2-19.2,19.2c-10.6,0-19.2-8.6-19.2-19.2s8.6-19.2,19.2-19.2
				C310.6,280.8,319.2,289.4,319.2,300"/>
		</g>
		<g class="st5">
			<defs>
				<rect id="SVGID_5_" x="282.8" y="282.8" width="35" height="34.5"/>
			</defs>
			<clipPath id="SVGID_6_">
				<use xlink:href="#SVGID_5_"  style="overflow:visible;"/>
			</clipPath>
			<path class="st6" d="M289.2,286.8c0.1-0.1,0.1-0.1,0.2-0.2C289.3,286.7,289.3,286.8,289.2,286.8z"/>
			<path class="st7" d="M312.1,306.8c-5,1.6-10.4-0.2-14.5-2.9c-3.9-2.6-7.1-7-6.6-11.9c0.5-4.9,4.5-7.9,9.4-8.3
				c3-0.2,5.5,0.7,7.8,1.9c3.1,1.7,5.6,5.8,4.1,8.6c-3,5.4-13,1.1-12.2-4.5c0.1-0.7,0.4-1.4,0.9-1.8c0.7-0.6,0.7,0.2,0.6,0.7
				c-0.6,1.6,0.5,3.2,1.8,4.1c1.7,1.2,5.5,1.8,6.5-0.7c1.7-4.3-7.8-7.5-10.8-4.7c-4.6,4.5,0.1,9,3.8,11c3.1,1.7,8.9,2.4,11.2-1.2
				c2.7-4.4-1.8-9.4-5.1-11.8c-2.6-1.6-5.6-2.5-8.8-2.5c-4.1,0-7.8,1.5-10.8,3.9c-3.3,2.7-5.4,6.9-5.2,12.1
				c0.1,3.9,1.7,7.6,4.4,10.3c1.9,1.9,4.1,3.5,6.5,4.8c1.7,0.9,2.9,1.3,2.9,1.7c-0.1,0.7-2.4,0-3.1-0.3v0c-2.3-0.8-5.1-2.1-7-3.5
				c-0.2-0.1-0.4-0.3-0.5-0.5c3.1,3.6,7.7,6,12.9,6c8.8,0,16.1-6.8,16.9-15.5C316.3,304,314.6,306,312.1,306.8z"/>
			<path class="st7" d="M311.2,292.2c0.5-3.2-2.4-5.4-5.1-6.4c-3.2-1.2-7.4-0.7-9.7,2c-1.7,1.9-1.6,4.7-0.7,7c1.3,3.4,4.3,5.9,7.7,7
				c2.5,0.8,5.4,1.1,7.9,0.3c3.6-1.2,4.8-5,4.1-8.4c-0.2-0.7-0.4-1.5-0.7-2.2c-0.5-1-1.9-2.9,0.1-0.5c0.2,0.3,0.4,0.5,0.6,0.8
				c0.4,0.7,0.7,1.4,0.9,2.1c1.1,3.2,0.2,7-2.7,9c-2.3,1.5-5.1,1.7-7.7,1.3c-3.5-0.5-6.8-2.2-9.1-4.9c-2.1-2.5-3.5-6-2.7-9.3
				c0.6-2.4,2.6-4.2,4.9-4.9c2.9-0.9,6.1-0.5,8.8,1c1.3,0.8,2.5,1.8,3.2,3.2c0.3,0.6,0.5,1.3,0.5,2c0,0.3,0,0.6-0.1,0.8
				C311.3,292.2,311.1,292.5,311.2,292.2"/>
		</g>
	</g>
</g>
</svg>
