<svg id="Layer_1" data-name="Layer 1" xmlns="http://www.w3.org/2000/svg" viewBox="0 0 600 600"><defs><style>.cls-1{fill:#8731e8;}.cls-2{fill:#792cd1;}</style></defs><rect class="cls-1" width="601.32" height="601.32"/><path class="cls-2" d="M149.58,698.57c-12-4.68-24.21-9.37-35.67-15.36a376.93,376.93,0,0,1-13-123.12c3.12-50.76,16.4-98.92,44-143.69,1.82-2.86,3.38-5.47,5.21-8.33,19.78-29.94,41.39-52.84,71.06-73.15,2.08-1.3,3.64-2.34,5.47-3.64,1.56-1,2.86-1.82,4.42-2.86.52-.26.78-.26,1.3-.52a200.05,200.05,0,0,1,21.87-12c.26-.26.78-.52,1-.78,8.33-3.9,16.66-7.29,25.25-10.41.26,1.56,1.3,2.6,1.56,3.9-2.08,1.56-4.42,2.35-6.51,4.17-.26.26-.78.26-1.3.52-9.11,6-17.18,11.19-25.51,18.22-2.08,1.82-3.9,3.38-6,4.95-.26.26-.53.78-.79,1-6.24,4.68-10.67,10.15-16.39,15.36-.53.52-1.05,1.56-1.57,2.08-1.3,1-2.34,2.6-3.64,3.9-.26.26-.78.52-1,.78-1.3,1.83-2.87,3.39-4.17,5.21-.26.26-.78.52-1,.78-5.2,6.51-9.89,12.23-14.58,19.26a80.23,80.23,0,0,1-5.2,7.81c-.26.52-.26.78-.52,1.3-25.25,38.79-37.49,79.66-42.43,123.91-.52,7-1,13.8-1.3,20.82-.52,8.07-.26,16.14-.26,24.21.26,3.65.26,7,.52,10.68.52,7.28,1.3,14.31,2.08,21.6.52,4.69,1.3,9.11,2.34,14.06,1.3,7.55,2.34,14.31,4.17,21.86l3.12,12.5c1.3,4.16,2.34,8.33,3.64,12.49,5.73,19,13.28,37,21.35,54.67-12.49-3.65-25.25-7.55-37.48-12.24m-103.35-56C25.15,626.73,5.11,609.55-12.86,590-6.61,534.58,9.27,482,40.25,432.8c1.82-2.6,3.12-4.95,4.94-7.55,6-8.59,11.2-16.14,17.7-23.95,3.91-4.42,7.29-8.85,11.46-13a5.68,5.68,0,0,0,.78-1.3A334.39,334.39,0,0,1,103,360.43c4.17-3.38,8.07-6.24,12.24-9.63,6.5-4.94,12.49-8.59,19.26-13.27.52-.26.78-.26,1.3-.52,23.69-15.1,47.38-24.73,73.93-31.76a234.39,234.39,0,0,1,32.27-6,263.55,263.55,0,0,1,37.75-1.56v3.64C246.41,306,215.17,318,185.5,336.23c-.52.26-.78.26-1.3.52-5.47,3.64-10.16,6.76-15.62,10.67-3.39,2.6-6.25,4.68-9.63,7.29-5.21,4.16-9.89,8.07-14.58,12.49-2.08,2.08-3.91,3.65-6,5.73-3.12,3.38-6.24,6.51-9.63,9.89-4.42,4.43-7.81,9.11-12,13.8L115.22,399C85,436.44,66.54,477.31,55.08,523.65c-1.3,5.2-2.34,10.15-3.38,15.35A358.26,358.26,0,0,0,46,582.22v3.38c-1,6.77-.78,13.28-1,19.78a356.3,356.3,0,0,0,1.3,37.23m218.66,82a42.83,42.83,0,0,0-4.94-7l-.79-1.57c-51.54-73.4-75.74-155.92-62.47-243.12v-1.57a280.4,280.4,0,0,1,11.45-46.85c.53-1.3,1.05-2.34,1.57-3.64,5.2-15.62,12.23-29.68,20-44,.52-.78,1-1.3,1.56-2.08.26-.52.26-.78.52-1.3.52-.78,1-1.3,1.56-2.08.26-.52.26-.78.53-1.3.52-.79,1-1.31,1.56-2.09.26-.52.26-.78.52-1.3a39.38,39.38,0,0,0,3.64-5.47c3.91-5.72,7.55-10.67,11.72-15.87,2.34-2.61,4.42-5.47,6.76-8.07a13.73,13.73,0,0,0,2.61-2.87c.26-.26.78-.52,1-.78a221.42,221.42,0,0,1,22.38-21.86,11.45,11.45,0,0,0,2.35,2.6,257.74,257.74,0,0,0-31.24,49.72c-11.19,23.17-18,46.85-22.13,72.36-.52,4.17-1,8.07-1.56,12.24s-.52,8.33-1,12.49c-.26,4.69-.26,9.11-.52,13.8a249.6,249.6,0,0,0,1.3,27.85v2.87a11.06,11.06,0,0,0,.52,2.86c5.47,52.58,23.17,100,53.63,145.51.52,1,1,1.82,1.56,2.86,7.29,10.42,13.53,19,21.34,28.64a43.35,43.35,0,0,0,3.39,3.64c1.82,2.08,3.38,4.43,5.2,6.51,4.43,4.69,8.33,8.85,12.5,13.54,3.38,3.38,6.25,6.5,9.63,9.63,1.3,1,2.34,2.34,3.9,3.38a2.67,2.67,0,0,1,1,1.3,445.2,445.2,0,0,1-79.14,1M-61,527.55a421,421,0,0,1-35.93-69.76c7.81-14.32,15.1-28.11,25.25-41.91l.79-1.56c1.3-1.82,2.34-3.39,3.9-5.21l.78-1.56c17.18-22.91,34.1-42.69,55.45-61.17.52-.26.78-.52,1.3-.78a301.89,301.89,0,0,1,28.63-22.39,304.81,304.81,0,0,1,68.2-35.66c1-.26,1.82-.52,2.87-.78,60.91-22.39,128.85-22.39,189,2.6a9.91,9.91,0,0,1,2.6.78,24.13,24.13,0,0,0-1.56,3.91c-15.62-3.91-31.76-5.47-47.9-6a263.23,263.23,0,0,0-75,9.37c-31.49,8.85-58.56,21.87-86.42,40.87-.52.26-.52.78-1,1-51,35.4-85.38,81.21-110.63,134.84-1.82,4.16-3.64,8.07-5.47,12.23-.52,1-.52,2.09-1,3.13-5.72,12.49-9.63,25.25-13.79,38M421.34,708.2c-7-4.94-13.8-9.11-20.83-14.57l-1.56-.78c-8.85-7-17.18-13.54-25.77-20.83-1.56-1.56-3.12-2.86-4.95-4.42-1.3-1-2.08-2.35-3.38-3.39-.78-.78-1.82-1.3-2.6-2.08C357,656.66,351.57,652,346.63,646c-.52-.52-.78-.52-1.3-1-11.2-12.76-21.61-24.47-31-39.05-.26-.52-.78-.52-1-1-6.77-10.67-12.76-20-18.74-31-3.39-6.25-6.25-12.24-9.11-18.49-3.65-8.07-6.51-16.14-9.64-24.2-.26-1.05-.52-1.83-.78-2.87C256.56,475.23,254,418,270.36,363.56c.26-.78.26-1.82.52-2.61,1-2.86,1.82-5.72,2.86-8.59,1.3-3.9,2.87-7.28,4.17-11.19a214.9,214.9,0,0,1,11.71-24.73,9.57,9.57,0,0,0,3.65,1.82,55.2,55.2,0,0,0-1.83,6.25c-13,44-13.53,88.51-2.34,133.54,11.45,46.07,32.8,85.64,63.78,121.3,1.3,1.56,2.6,2.87,3.9,4.43,16.66,18.74,33.58,33.58,54.14,48.67,1.57,1.31,3.13,2.61,4.95,3.91,12,8.07,22.39,15.1,34.62,21.34.52.27.78.79,1.3,1,11.72,6,22.91,11.71,34.88,16.66L489.8,677c1.56.52,3.12,1.56,4.68,1.82-6.77,3.38-13.53,6.51-20.3,9.89l-2.34.78a452.26,452.26,0,0,1-50.5,18.74M-119.32,382.56a400.3,400.3,0,0,1-6.51-43.21,8.72,8.72,0,0,0,0-2.6c-.26-1.31-.26-2.35-.52-3.65-.78-9.63-1.3-19.26-1.3-28.89,8.85-8.07,18-15.1,27.59-22.65l1.56-.78a129.73,129.73,0,0,1,12.24-8.59,18.22,18.22,0,0,0,2.6-2.08,15.53,15.53,0,0,1,2.86-1.56c10.68-7.55,20.83-13,32-19,2.08-.78,3.91-2.08,5.73-2.86a20.73,20.73,0,0,0,4.16-2.08A14,14,0,0,0-36,243.3c.52-.26,1-.26,1.56-.52a167.67,167.67,0,0,1,18.74-8.07c.52-.26.78-.52,1.3-.79C19.16,221.17,54,213.1,90,211.8a306.09,306.09,0,0,1,53.36,2.86c9.63,1.56,18.74,3.39,28.37,5.73,5,1.3,9.37,2.86,14.32,4.16,3.9,1.31,7.55,2.61,11.45,3.91,3.39,1.3,6.51,2.6,9.89,4.16,29.42,12,56.23,29.16,78.62,51.54-1,.78-1.3,1.83-2.35,2.61-1.56-.52-2.86-1.83-4.42-2.87-34.1-21.08-70-33.58-109.07-37.48-.78,0-1.82-.52-2.6-.52-4.95-.26-9.89-.52-14.84-1-3.12-.26-6.51,0-9.63,0-9.63-.52-19.26.26-29.16,1-.78,0-1.82.52-2.6.52-12.49,1-24,3.38-36.44,6-3.91,1-7.29,1.82-11.2,2.86a44.8,44.8,0,0,0-5.46,1.82c-1.3.26-2.87.78-4.17,1-5.72,1.83-11.19,3.91-16.66,6-7,2.6-13.79,5.21-20.56,8.33a334.23,334.23,0,0,0-57.27,33.32,16.82,16.82,0,0,1-2.34,2.08,253.59,253.59,0,0,0-22.65,17.7c-2.86,2.61-5.72,4.95-8.59,7.55-.52.52-.52.78-1,1.3a384.78,384.78,0,0,0-44.25,48.16M561.12,636.62c-5.47-1.56-11.19-2.08-16.66-3.9-1.56-.27-3.12-.79-4.94-1.05A374,374,0,0,1,476,609.29c-4.68-2.35-9.37-4.69-14.32-7-.78-.52-1.82-1-2.6-1.56-.52-.26-1-.26-1.56-.52-42.95-22.91-78.87-51.54-108.55-91.63-2.34-3.12-4.16-6-6.51-9.11-9.63-14.58-17.7-28.12-24.21-43.47a10.6,10.6,0,0,1-1.3-2.35c-3.9-9.11-7.29-18.22-10.41-27.85-.52-1.82-.78-3.38-1.3-5.21a247.84,247.84,0,0,1-8.59-41.38,256,256,0,0,1,.26-59.87c1.3-.26,2.34.52,3.64.26a252.65,252.65,0,0,0,22.65,89.8c.26.26.52.78.78,1,3.65,8.59,8.33,16.66,13,25,.52.78,1,1.3,1.56,2.08a107.79,107.79,0,0,0,6,9.12c.26.52.26.78.52,1.3a287.14,287.14,0,0,0,25.77,32.28,7,7,0,0,1,2.08,1.82c8.33,9.37,17.44,16.92,26.81,25.25l2.34,1.56c6,5.21,12,9.37,18.49,14.06a224.45,224.45,0,0,0,22.38,13.79c2.34,1.3,4.43,2.6,6.77,3.91,4.42,2.08,8.85,4.42,13.28,6.76a243.88,243.88,0,0,0,23.94,10.16c.52.26.78.52,1.31.78a373.37,373.37,0,0,0,95.27,22.38c3.9.26,7.81.78,11.71,1.05h3.39a176.56,176.56,0,0,0,20.3.78,405.76,405.76,0,0,1-57.79,54.14M-121.4,225.33a428.51,428.51,0,0,1,20.56-75.74,504.09,504.09,0,0,1,50-15.1c1-.26,2.34-.26,3.38-.52,37-8.59,72.89-10.42,109.85-7.55,1,0,1.82.52,2.87.52,70.8,6.51,138,36.7,186.12,91.11.26.26.78.52,1,.78a254.38,254.38,0,0,1,40.08,61.43,9.6,9.6,0,0,0-3.64,1.82c-4.16-6.25-8.85-11.71-13.54-17.7-.26-.26-.78-.52-1-.78-16.14-19.52-33.84-34.36-55.44-48.42-.52-.26-.78-.26-1.3-.52-7.81-5.46-15.36-9.11-23.43-13.27-.26-.26-.78-.52-1-.78A288.3,288.3,0,0,0,89.44,172.49H86.58c-53.36-4.16-106.2,6-155.4,26.55-1,.52-2.08.52-3.13,1-5.72,2.61-11.19,4.95-16.66,7.55-4.42,2.35-8.85,4.43-13.53,6.77-1,.52-1.82,1.3-2.86,1.82-5.73,2.87-10.94,6-16.4,9.11M665.76,518.7c-59.61,10.67-121.82,7.81-179.87-12-.52-.26-1,0-1.56-.26-40.61-14.32-77.31-35.41-108.81-65.6A280.76,280.76,0,0,1,341.42,401c-.26-.52-.26-.78-.52-1.3A232.79,232.79,0,0,1,311.75,344c-2.87-8.33-5.73-16.39-7.55-25a20.9,20.9,0,0,1,3.9-1.05h-.26a227.28,227.28,0,0,0,10.67,20.83c2.61,4.16,4.69,8.07,7.81,12,.26.52.26.78.52,1.3,4.43,6,8.07,11.2,12.5,16.92,1.82,2.09,3.38,3.91,5,6,7,7.81,13.27,15.1,21.34,21.87.26.26.52.78.78,1a60.24,60.24,0,0,0,6.25,5.2c.26.26.52.79.78,1.05a271.76,271.76,0,0,0,23.69,18c2.86,1.56,5.2,3.38,8.07,5.2.52.26.78.26,1.3.52,17.44,11.46,35.14,18.75,53.88,26,1,.26,1.82.52,2.87.79,77.31,27.33,161.91,20.56,237.14-7.81a406.51,406.51,0,0,1-20.83,47.63c-2.08,3.65-3.9,7.29-6,11.2-.78,1-1.3,2.08-2.08,3.12-.52.78-.52,1.56-1,2.34-.78,1-1.3,2.08-2.08,3.13-.26.26-.26,1-.52,1.3a30.7,30.7,0,0,1-2.09,3.12M296.13,279c-.52-3.39-1.82-6.77-2.6-10.15-2.35-8.07-5.47-15.62-8.33-23.43-1.31-3.13-2.87-6.25-4.43-9.37-.78-1.56-1.3-3.39-2.08-4.95-.26-.26-.52-.78-.78-1-3.39-7.81-7.81-14.58-12-22.13l-2.34-3.12c-.26-.52-.26-.78-.52-1.3-7.29-10.41-13.54-19.78-21.87-28.9-7.28-7.8-14-15.09-21.86-22.38a301.37,301.37,0,0,0-36.45-28.11c-3.38-2.09-6.24-4.17-9.63-5.73-2.34-1.3-3.9-2.86-6.24-3.65a28,28,0,0,1-3.65-2.34C121.2,89.45,76.17,77.48,29.05,73.84c-10.41-.79-20.56-1-30.71-1-7.29.26-14.32.26-21.61.79C-38.11,74.88-52.68,76.18-67,79c3.64-6.51,7.55-12.49,12-19,5-7,9.12-13.28,14.32-20,7-8.59,13.28-16.92,20.57-24.73a383.16,383.16,0,0,1,68.2,6.5A379.72,379.72,0,0,1,112.35,40c5.21,2.08,10.41,4.16,15.62,6.5,4.69,2.09,9.11,4.43,13.8,6.51,4.42,2.34,8.59,5,13.27,7,1.3.78,2.34,1.56,3.65,2.34a292.61,292.61,0,0,1,44.25,31c.52.26.78.52,1.3.78,7.81,7.29,15.36,13.8,22.39,21.61,1,1,2.08,1.82,3.12,2.86,20.56,22.65,37.22,47.11,48.94,75,.26.26.52.78.78,1,3.9,9.37,7.29,18.74,10.41,28.63a293.27,293.27,0,0,1,7.29,33.32c1.3,7.55,1.82,14.58,2.6,21.87-1.3.52-2.34,0-3.64.52m15.36,37.22c1-.52,1.82-1.82,2.86-2.34,3.9,4.16,8.07,7.55,12.49,11.45,2.35,2.09,4.69,3.65,7,5.73,2.87,2.34,5.47,4.16,8.33,6.25.52.26.78.26,1.3.52,19.53,14,39.05,23.69,60.66,31.75a209.35,209.35,0,0,0,25.77,7.81c6.76,1.57,13,3.13,20,4.17h1.56c67.94,11.45,134.06-2.08,193.93-33.32.52-.26,1-.26,1.56-.52A381.8,381.8,0,0,0,726.94,292a424,424,0,0,1-6.25,79.14c-4.43,2.6-8.59,5.2-13.28,7.55-.52.26-.78.78-1.3,1-69,37.74-145,55.18-223.86,41.39-1.56-.26-2.87-.53-4.43-.79-7-1.56-13.53-2.86-20.56-4.68L444,411.71c-7.81-2.6-15.62-5.46-23.16-8.59a10.82,10.82,0,0,0-2.35-1.3,125.71,125.71,0,0,1-15.88-7.55c-.78-.52-1.82-.52-2.6-1-8.59-4.94-16.92-9.11-25-15.36-.52-.26-.78-.26-1.3-.52-6.51-4.42-12-8.59-18-13.53-.26-.26-.52-.78-.78-1-17.18-13.8-30.72-29.42-43.47-46.6m-8.33-37.48A250.2,250.2,0,0,0,292,168.07c-.26-.78-.78-1.56-1-2.35-3.9-12.75-9.37-24.46-15.36-36.44a265.63,265.63,0,0,0-39.82-57.79c-.26-.52-.52-.78-.78-1.3A314.59,314.59,0,0,0,183.42,23.6c-3.91-2.87-7.55-5.21-11.46-7.81-5.72-3.91-11.19-7-16.92-10.68-5.2-2.86-9.89-5.46-15.1-8.32-.52-.27-1-.27-1.56-.53-18-9.63-35.92-16.66-55.18-22.9-4.43-1.56-8.33-2.87-12.76-4.17-.52-.26-1.3,0-1.82-.26l-4.69-1.56c-9.11-2.08-17.7-4.42-26.55-6A290.6,290.6,0,0,1,61.59-56.06a11.31,11.31,0,0,1,1.82-1.56c2.09-1.3,3.91-2.6,6-3.9,6.77-4.17,12.76-7.81,19.52-11.72,5-2.6,9.64-5.46,14.58-7.81,1.82.52,3.39,1.3,5,1.83l3.12,1.56a357.43,357.43,0,0,1,37.75,18.22A250.33,250.33,0,0,1,173-44.86c1,.52,1.83,1,2.87,1.56C201.64-25.6,223-8.16,243,14.75c1.56,2.08,3.38,3.64,4.94,5.72.26.52.52.78.78,1.3,5.47,5.73,9.63,12.24,14.84,18.49.52.78,1,1.82,1.56,2.6a77.14,77.14,0,0,1,6.51,9.63c.52.78,1.3,1.56,1.82,2.34s.78,1.83,1.3,2.61c43.47,67.68,55.71,148.37,32.28,222.3-1.3-.26-2.6-.78-3.9-1m13.53,32.54a14.27,14.27,0,0,0,1.82-3.39,252.22,252.22,0,0,0,140.31,15.62h1.56c43.47-7.55,80.44-22.91,117.66-48.42.52-.26.52-.78,1-1,36.19-24.47,62-52.06,87.21-86.94l.78-1.56c11.45-15.62,19.78-31.24,28.63-47.38a447.46,447.46,0,0,1,22.65,75.23,366.83,366.83,0,0,1-45,49.46c-.52.52-.52.78-1,1.3C636.09,297.18,596,321.91,550.19,337c-1.3.52-2.87,1-4.17,1.56-.52.26-1,0-1.56.26a279.67,279.67,0,0,1-63.77,12.75,252.67,252.67,0,0,1-34.36.52A258.78,258.78,0,0,1,350.79,330c-2.34-1-4.68-2.34-7-3.39-7.8-3.9-15.09-8.07-22.64-12.49-1.56-1-2.87-2.34-4.43-2.86m-6-29.68c4.42-8.85,8.85-18,12.49-27.33l3.12-8.59c3.13-9.37,5.47-18.22,7.81-27.85,1.3-5.73,2.09-11.2,3.13-16.92a249.94,249.94,0,0,0,1.82-60.66v-2.86c-.26-3.12-.78-6.25-1-9.63-1-7-1.82-13.54-3.39-20.56a21.54,21.54,0,0,0-1-3.91,246.79,246.79,0,0,0-7.29-27.33c-.26-.52,0-1-.26-1.56l-1.56-3.91c-.26-.52,0-1-.26-1.56-3.12-8.07-6-16.14-9.63-24.21-1.82-3.64-3.38-7-4.95-10.67-6-11.71-12-22.39-19.26-33.84-2.6-3.91-4.94-7.55-7.81-11.45-2.6-3.39-4.68-6.51-7.29-9.9-2.34-3.12-4.42-5.72-6.76-8.59A359.81,359.81,0,0,0,232.35-68c-10.41-9.37-20.56-17.44-32-26.29l-1.57-.78-3.9-3.13c-6.51-4.42-12.24-8.59-18.48-12.23,4.68-1.82,9.89-2.86,14.83-4.43,3.91-1,7.81-1.56,11.72-2.86,8.33-2.08,16.14-3.38,24.47-5,8.85-1.3,17.44-2.6,26-3.64,7.55,7,14.84,13.8,21.6,21.87.52.52.78.52,1.31,1,3.64,4.16,7.28,8.07,10.93,12.49,8.85,10.67,16.4,20.83,24.73,32.54.52,1,1,1.82,1.56,2.86,1.3,1.83,2.34,3.39,3.64,5.21A332.77,332.77,0,0,1,341.68-5c1.3,3.39,2.61,6.51,4.17,9.89,2.86,7.55,5.72,14.84,8.33,22.65,2.08,6.51,3.9,13,5.72,19.78,13,50.24,13.28,101-1.56,150.46A269.66,269.66,0,0,1,343,237.31c-2.08,3.9-3.9,7.81-6,11.71a242.91,242.91,0,0,1-23.17,34.62,13.06,13.06,0,0,0-3.12-2.08M320.08,304c.26-1.3.78-2.35.52-3.65a259.61,259.61,0,0,0,46.85-3.12,226.44,226.44,0,0,0,23.17-4.95,285.92,285.92,0,0,0,36.44-12.49,10.82,10.82,0,0,0,2.35-1.3,261,261,0,0,0,68.2-43.21c1-1,2.34-1.57,3.38-2.61a275.89,275.89,0,0,0,26-26.29,235.89,235.89,0,0,0,26-34.1c.52-.78,1.3-1.56,1.82-2.34,7.55-12.24,14.32-23.43,20.31-35.92,4.42-9.63,8.59-18.75,12.49-28.64A397.46,397.46,0,0,0,611.1,5.9c5.21,6,10.41,11.71,15.88,17.7a14.51,14.51,0,0,1,1.3,2.08c2.08,2.6,4.17,4.68,6.25,7.29,3.64,4.42,6.51,8.59,10.15,13.27,3.38,4.95,6.51,8.85,9.63,13.8,1.82,2.86,3.39,5.47,5.21,8.07-10.68,34.62-24.21,66.9-44.78,98.66-26.55,41.64-57.52,73.66-99.17,100.21-1.3.78-2.35,1.31-3.65,2.09C453.35,305.51,385.41,318.26,320.08,304m-3.91-17.7a295.07,295.07,0,0,0,22.39-21.87,45.2,45.2,0,0,1,3.38-3.9,59.08,59.08,0,0,0,4.95-6.25c.52-.78,1.3-1,1.82-1.82,3.64-4.69,6.77-8.85,10.15-13.8,1-2.08,2.61-3.64,3.65-5.47a14.74,14.74,0,0,1,2.08-3.38c.26-.52.26-.78.52-1.3.52-.78,1-1.3,1.56-2.08.26-.52.26-.79.52-1.31,12.24-19.78,20.31-39.56,27.07-61.43,1.05-3.64,1.83-7,2.87-10.67A301.34,301.34,0,0,0,405.2,64.2c-.26-3.38-.52-7-.78-10.41,0-1-.52-1.82-.52-2.86a25.85,25.85,0,0,0-.52-4.43c-.79-8.07-1.83-15.61-3.39-23.68-1.3-6.25-2.34-12-3.9-18A385,385,0,0,0,380-44.08c-1.56-3.39-2.87-7-4.43-10.42-2.6-5.46-4.94-10.67-7.81-16.13-1.82-3.39-3.12-6.77-5.2-10.16-5.73-9.89-10.94-18.74-17.18-28.63a18.32,18.32,0,0,1-2.09-2.6c-2.34-4.17-5.2-7.29-7.81-11.2a23.56,23.56,0,0,0-2.86-4.16,123.36,123.36,0,0,1,13.54,1l6.24.78c.79,0,1.83.52,2.61.52,19,2.08,37.22,6.25,55.44,10.93,5.47,11.72,10.94,23.43,15.36,35.67,1.56,4.68,3.39,9.37,4.95,14.31,1.56,5.73,3.64,11.2,5.2,17.18.78,3.91,1.83,7.29,2.87,10.94.26,1,.26,2.08.52,3.12C443.2-18.83,445-5,446.85,9.28c.26,3.64.78,7,1,10.67v3.13a305.18,305.18,0,0,1-23.43,145.25,10.54,10.54,0,0,1-1.3,2.34,238.75,238.75,0,0,1-18.74,34.88c-.26.52-.26.78-.52,1.3-1.83,2.61-3.39,5-5.21,7.81a273.89,273.89,0,0,1-21.61,27.07c-7.81,8.07-15.09,15.62-23.94,22.65-.26.26-.52.78-.79,1a298.18,298.18,0,0,1-34.1,23.95c-.78-.78-1.3-2.34-2.08-3.12m4.43,10.41c-.26-1-.52-2.34-.78-3.39,5.72-2.34,11.45-4.16,16.92-6.76,2.86-1.3,5.46-2.61,8.33-3.91.26-.26.78-.52,1-.78a178.52,178.52,0,0,0,20.56-11.45c.52-.26.78-.26,1.3-.52,1.57-1,2.87-1.82,4.43-2.87l3.12-2.34c.78-.52,1.56-.78,2.34-1.3,4.17-3.12,7.81-5.73,11.72-8.59,4.68-3.64,8.85-7.29,13.27-11.19,1.31-1.31,2.61-2.35,3.91-3.65.26-.26.52-.78.78-1,21.87-20.3,38.79-43.21,53.36-69.5,1.3-2.34,2.35-5,3.91-7.29.52-.78.52-1.82,1-2.6,9.63-19.27,16.4-38.79,22.12-59.87.27-1,.27-2.09.53-3.13C503.85,34.53,500.21-27.42,483.81-87c1.56.78,3.12,1.56,4.43,2.08,22.64,11.19,43.21,24.21,63.51,38.26,7.29,86.95-12,175.71-69,246.77q-42.56,53.11-103.34,79.66c-.78.26-1.83.52-2.61.78a238.73,238.73,0,0,1-56.22,16.14"/></svg>