
<svg width="100%" height="100%" viewBox="543 227 121 118" version="1.1" xmlns="http://www.w3.org/2000/svg" xmlns:xlink="http://www.w3.org/1999/xlink">
    <!-- Generator: Sketch 39.1 (31720) - http://www.bohemiancoding.com/sketch -->
    <desc>Created with Sketch.</desc>
    <defs></defs>
    <g id="Group" stroke="none" stroke-width="1" fill="none" fill-rule="evenodd" transform="translate(543.000000, 227.000000)">
        <path d="M60.388,0 C27.041,0 0,27.036 0,60.388 C0,87.069 17.303,109.705 41.297,117.69 C44.315,118.249 45.423,116.38 45.423,114.785 C45.423,113.345 45.367,108.588 45.341,103.542 C28.541,107.195 24.996,96.417 24.996,96.417 C22.249,89.437 18.291,87.581 18.291,87.581 C12.812,83.833 18.704,83.91 18.704,83.91 C24.768,84.336 27.961,90.133 27.961,90.133 C33.347,99.365 42.088,96.696 45.534,95.153 C46.076,91.25 47.641,88.586 49.368,87.078 C35.955,85.551 21.855,80.373 21.855,57.234 C21.855,50.641 24.214,45.254 28.077,41.025 C27.45,39.504 25.383,33.362 28.662,25.044 C28.662,25.044 33.733,23.421 45.273,31.234 C50.09,29.896 55.256,29.225 60.388,29.202 C65.52,29.225 70.69,29.896 75.516,31.234 C87.042,23.421 92.106,25.044 92.106,25.044 C95.393,33.362 93.325,39.504 92.698,41.025 C96.57,45.254 98.913,50.641 98.913,57.234 C98.913,80.428 84.786,85.535 71.339,87.03 C73.505,88.904 75.435,92.579 75.435,98.213 C75.435,106.293 75.365,112.796 75.365,114.785 C75.365,116.392 76.452,118.275 79.513,117.682 C103.494,109.688 120.775,87.06 120.775,60.388 C120.775,27.036 93.738,0 60.388,0" id="Fill-4" fill="#151513"></path>
        <path d="M23.6172697,86.0239808 C23.4842697,86.3239808 23.0122697,86.4139808 22.5822697,86.2079808 C22.1442697,86.0109808 21.8982697,85.6019808 22.0402697,85.3009808 C22.1702697,84.9919808 22.6432697,84.9059808 23.0802697,85.1129808 C23.5192697,85.3099808 23.7692697,85.7229808 23.6172697,86.0239808" id="Fill-5" fill="#151513"></path>
        <path d="M25.5876883,88.6744458 C25.2996883,88.9414458 24.7366883,88.8174458 24.3546883,88.3954458 C23.9596883,87.9744458 23.8856883,87.4114458 24.1776883,87.1404458 C24.4746883,86.8734458 25.0206883,86.9984458 25.4166883,87.4194458 C25.8116883,87.8454458 25.8886883,88.4044458 25.5876883,88.6744458" id="Fill-6" fill="#151513"></path>
        <path d="M27.625508,93.0656252 C27.255508,93.3226252 26.650508,93.0816252 26.276508,92.5446252 C25.906508,92.0076252 25.906508,91.3636252 26.284508,91.1056252 C26.659508,90.8476252 27.255508,91.0796252 27.634508,91.6126252 C28.003508,92.1586252 28.003508,92.8026252 27.625508,93.0656252" id="Fill-7" fill="#151513"></path>
        <path d="M31.0718971,95.9930904 C30.7408971,96.3580904 30.0358971,96.2600904 29.5198971,95.7620904 C28.9918971,95.2750904 28.8448971,94.5840904 29.1768971,94.2190904 C29.5118971,93.8530904 30.2208971,93.9560904 30.7408971,94.4500904 C31.2648971,94.9360904 31.4248971,95.6320904 31.0718971,95.9930904" id="Fill-8" fill="#151513"></path>
        <path d="M35.5260206,98.3189583 C35.3800206,98.7919583 34.7010206,99.0069583 34.0170206,98.8059583 C33.3340206,98.5989583 32.8870206,98.0449583 33.0250206,97.5669583 C33.1670206,97.0909583 33.8490206,96.8669583 34.5380206,97.0819583 C35.2200206,97.2879583 35.6680206,97.8379583 35.5260206,98.3189583" id="Fill-9" fill="#151513"></path>
        <path d="M40.595,97.8813566 C40.612,98.3793566 40.032,98.7923566 39.314,98.8013566 C38.592,98.8173566 38.008,98.4143566 38,97.9243566 C38,97.4213566 38.567,97.0123566 39.289,97.0003566 C40.007,96.9863566 40.595,97.3863566 40.595,97.8813566" id="Fill-10" fill="#151513"></path>
        <path d="M45.5747044,97.6904738 C45.6607044,98.1764738 45.1617044,98.6754738 44.4487044,98.8084738 C43.7477044,98.9364738 43.0987044,98.6364738 43.0097044,98.1544738 C42.9227044,97.6564738 43.4307044,97.1574738 44.1307044,97.0284738 C44.8447044,96.9044738 45.4837044,97.1964738 45.5747044,97.6904738" id="Fill-11" fill="#151513"></path>
    </g>
</svg>
