<svg id="Layer_1" xmlns="http://www.w3.org/2000/svg" viewBox="0 0 764.7 764.7" width="2500" height="2500"><style>.st0{fill:#a6e000}</style><path class="st0" d="M382.3 764.7c211 0 382.3-171.3 382.3-382.3S593.4 0 382.3 0 0 171.3 0 382.3s171.3 382.4 382.3 382.4"/><path d="M438.5 663.9c-40.2 0-69.5-9.4-87.9-28.8-18.4-19.4-27.3-39.7-27.3-62.1 0-7.9 1.5-14.9 5-20.4 3-5.5 7.4-9.9 12.9-12.9s12.4-5 20.4-5 14.9 1.5 20.4 5c5.5 3 9.9 7.4 12.9 12.9s5 12.4 5 20.4c0 9.9-2.5 17.9-7 23.8-4.5 6-10.4 10.4-16.9 12.4 5.5 7.4 14.4 12.9 26.3 16.4 11.9 3.5 23.8 5 35.8 5 16.9 0 31.8-4.5 45.2-13.4 13.4-8.9 23.3-22.3 29.8-39.7 6.5-17.4 9.4-37.2 9.4-59.6 0-24.3-3.5-44.7-10.4-61.6-7-17.4-16.9-30.3-30.3-38.2-13.4-8.4-27.8-12.4-43.7-12.4-10.4 0-22.8 4.5-38.2 12.9l-28 13.4v-13.9l126.6-168.8H323.3v175.3c0 14.4 3 26.3 9.4 35.8 6.5 9.4 16.4 13.9 29.3 13.9 10.4 0 19.9-3.5 29.3-10.4 9.4-7 17.4-15.4 24.3-24.8 1-2 2-3.5 3-4 1.5-1 2.5-1.5 4-1.5 2.5 0 5 1 8.4 3.5 3 3.5 4.5 7.4 4.5 11.9 0 2-1 5-1.5 8.9-7 16.4-16.9 28.8-29.8 37.2-12.9 8.4-26.8 12.9-42.2 12.9-38.2 0-64.1-7.4-79-22.3-14.4-14.9-21.8-35.3-21.8-60.6V249.3h-89.4v-32.8h89.9V142l-20.4-20.4v-16.9h59.6l22.3 11.4V216l231.9-.5 22.8 22.8L436 380.9c8.4-3.5 17.4-5.5 26.8-6.5 15.4 0 32.8 5 51.6 14.9 19.4 9.4 34.3 22.8 44.7 39.7 10.4 16.9 17.4 32.8 20.4 48.2 3 15.4 5 28.8 5 41.2 0 27.3-6 52.6-17.4 76-11.4 23.3-28.8 41.2-52.6 52.6-23.4 11.4-48.7 16.9-76 16.9z"/></svg>