<svg xmlns="http://www.w3.org/2000/svg" xmlns:xlink="http://www.w3.org/1999/xlink" viewBox="0 0 182.38 154.29"><defs><style>.cls-1{fill:url(#radial-gradient);}.cls-2{fill:#fff;}.cls-3{fill:#e911bd;}</style><radialGradient id="radial-gradient" cx="91.19" cy="78.78" r="83.72" gradientUnits="userSpaceOnUse"><stop offset="0" stop-color="#5e464d"/><stop offset="1" stop-color="#5e464d"/></radialGradient></defs><title>drizzle-logomark</title><g id="Layer_2" data-name="Layer 2"><g id="Layer_2-2" data-name="Layer 2"><path class="cls-1" d="M179.7,88.25c0-.47.16-1.39.16-1.86,0-45.79-42.9-83.13-88.69-83.13S2.47,40.72,2.47,86.51c0,.09,0,.62,0,.62h-.2L0,128.63c.48,13.53,45.69,25.66,91.18,25.66,45.79,0,91.2-12.13,91.2-25.66Z"/><path class="cls-2" d="M42,94.24A102.35,102.35,0,0,0,40,79.3a102.3,102.3,0,0,0-3.87-14c-.82-2.24-1.66-4.43-2.61-6.54a60.22,60.22,0,0,1-2.81-6.24c-.31-1.07-.61-2.15-1-3.21s-.84-2.07-1.32-3.07a64.75,64.75,0,0,0-3.08-5.9l-.15-.26a8.06,8.06,0,0,1,9.4-11.68l1,.3.83.27,1.59.56C39,29.9,40,30.3,41,30.7q3,1.23,5.95,2.61a122.33,122.33,0,0,1,11.4,6.12A113.49,113.49,0,0,1,78.94,55.31,96.8,96.8,0,0,1,95.1,76a92.38,92.38,0,0,1,9.78,24.53l-15.48-1,.37-1.1.41-1.32c.26-.9.52-1.81.75-2.74.47-1.85.88-3.75,1.24-5.65a97.31,97.31,0,0,0,1.42-11.56,90,90,0,0,0-1.46-23.08,81.53,81.53,0,0,0-7.5-21.65A86.72,86.72,0,0,0,71.41,13.62l-.1-.11a8.07,8.07,0,0,1,.5-11.4,8.17,8.17,0,0,1,6.5-2l.7.1.56.08,1.08.18c.7.12,1.39.26,2.07.4,1.36.28,2.69.59,4,.92q4,1,7.78,2.31a115.84,115.84,0,0,1,41.27,24.52,117.74,117.74,0,0,1,20.34,24.8,136.86,136.86,0,0,1,13.33,28.86l-15.06-.9.27-.65.33-.88c.22-.61.43-1.24.62-1.89a34.36,34.36,0,0,0,1-3.94c.22-1.35.31-2.71.49-4s.45-2.67.68-4a41,41,0,0,0-.56-16.51,43.33,43.33,0,0,0-2.93-8.16,51.08,51.08,0,0,0-4.64-7.75,66.29,66.29,0,0,0-6.06-7.13,88.29,88.29,0,0,0-7.14-6.46,70.61,70.61,0,0,1,8.93,4.05,60.23,60.23,0,0,1,8.43,5.45,52.31,52.31,0,0,1,7.52,7.09,48.37,48.37,0,0,1,6.11,8.75,52.44,52.44,0,0,1,6.14,21,28,28,0,0,1,0,5.57,43.35,43.35,0,0,1-1,5.43c-.42,1.79-.85,3.58-1.39,5.36-.27.89-.56,1.78-.88,2.67l-.52,1.36-.29.71-.37.86a8,8,0,0,1-15-.66l-.08-.24A120.38,120.38,0,0,0,142.3,61.9a101.31,101.31,0,0,0-17.54-21.4A99.34,99.34,0,0,0,89.31,19.44c-2.18-.74-4.38-1.4-6.58-2-1.1-.28-2.2-.53-3.28-.76l-1.61-.31-.77-.12-.6-.09L83.38,2.64a103.12,103.12,0,0,1,15.7,22.42,98.06,98.06,0,0,1,9,25.94,106.91,106.91,0,0,1,1.74,27.22,111.51,111.51,0,0,1-1.67,13.51q-.61,3.36-1.46,6.7c-.29,1.11-.59,2.22-.92,3.35l-.53,1.7-.29.87-.36,1a8.06,8.06,0,0,1-15.42-.75l-.06-.23A75.66,75.66,0,0,0,81,84.16,80.2,80.2,0,0,0,67.57,66.9,96.41,96.41,0,0,0,50,53.31,105.38,105.38,0,0,0,40.07,48c-1.69-.8-3.4-1.54-5.11-2.23-.86-.35-1.71-.68-2.56-1l-1.26-.44L30,44,39.29,32a81.33,81.33,0,0,1,3.87,7.4c.61,1.25,1.1,2.55,1.67,3.81s1.15,2.53,1.63,3.83c.23.65.45,1.31.62,2s.26,1.36.35,2c.2,1.38.32,2.76.45,4.13.23,2.75.35,5.47.31,8.18a88.83,88.83,0,0,1-1.66,15.9,75.07,75.07,0,0,1-1.9,7.62A59.34,59.34,0,0,1,42,94.24Z"/><path class="cls-3" d="M42,94.24A94.34,94.34,0,0,0,42,79.3a102.66,102.66,0,0,0-2.18-14.59c-.55-2.38-1.17-4.73-1.91-7s-1.64-4.54-2.39-6.82c-.37-1.14-.76-2.27-1.18-3.39s-.9-2.23-1.42-3.3c-1-2.19-2.14-4.29-3.32-6.36l-.05-.09a3.14,3.14,0,0,1,3.64-4.56c2.16.67,4,1.38,6,2.15s3.83,1.61,5.7,2.5a116.08,116.08,0,0,1,10.94,5.87A108.43,108.43,0,0,1,75.46,58.85,91.52,91.52,0,0,1,90.8,78.52a87,87,0,0,1,9.25,23.21l-6-.38c.3-.81.63-1.83.91-2.78s.55-1.94.8-2.93c.5-2,.93-4,1.31-6a103.53,103.53,0,0,0,1.5-12.16A95.87,95.87,0,0,0,97,53.18a87.15,87.15,0,0,0-8-23,91.91,91.91,0,0,0-14-19.94l0,0A3.15,3.15,0,0,1,77.75,5c1.46.19,2.67.42,4,.69s2.54.55,3.79.87c2.51.64,5,1.38,7.41,2.2a110.67,110.67,0,0,1,39.49,23.47A112.63,112.63,0,0,1,151.9,56a131.77,131.77,0,0,1,12.84,27.81l-5.86-.35c.24-.53.54-1.29.78-2s.48-1.41.7-2.13c.43-1.43.81-2.9,1.1-4.38.54-3,.86-6,1.13-9a44.28,44.28,0,0,0-2.26-17.91,48,48,0,0,0-9.43-15.88,71.3,71.3,0,0,0-14.47-12.34,69.45,69.45,0,0,1,16.08,10.76,48.24,48.24,0,0,1,16.22,35.51,37.61,37.61,0,0,1-.19,5.09c-.19,1.69-.52,3.35-.87,5s-.77,3.3-1.27,4.93c-.24.81-.51,1.62-.8,2.43s-.58,1.57-1,2.5a3.13,3.13,0,0,1-5.83-.29l0-.06a125.71,125.71,0,0,0-12.21-26.48,106.77,106.77,0,0,0-18.4-22.43A104.16,104.16,0,0,0,90.9,14.74q-3.44-1.17-7-2.07c-1.16-.29-2.33-.57-3.5-.81s-2.4-.46-3.42-.59L79.72,6A97.81,97.81,0,0,1,94.66,27.32,93.31,93.31,0,0,1,103.2,52a101.9,101.9,0,0,1,1.65,26,107.85,107.85,0,0,1-1.59,12.91c-.4,2.13-.86,4.26-1.4,6.37-.27,1.06-.56,2.11-.87,3.17s-.63,2.06-1.06,3.23a3.14,3.14,0,0,1-6-.32l0-.07a81,81,0,0,0-8.58-21.53A85.21,85.21,0,0,0,71,63.36,101.67,101.67,0,0,0,52.53,49.07a113.11,113.11,0,0,0-10.35-5.56c-1.77-.83-3.56-1.62-5.37-2.35-.9-.36-1.81-.71-2.72-1s-1.85-.66-2.66-.9L35,34.57a87.31,87.31,0,0,1,6.62,14.17,45.91,45.91,0,0,1,1.84,7.57c.45,2.56.77,5.12,1,7.68a91.15,91.15,0,0,1,0,15.32c-.2,2.53-.49,5-.92,7.55A65.53,65.53,0,0,1,42,94.24Z"/></g></g></svg>