<svg xmlns="http://www.w3.org/2000/svg" xmlns:xlink="http://www.w3.org/1999/xlink" viewBox="0 0 182.38 256.85"><defs><style>.cls-1{fill:url(#radial-gradient);}.cls-2{fill:#fff;}.cls-3{fill:#e911bd;}.cls-4{fill:url(#radial-gradient-2);}.cls-5{fill:url(#radial-gradient-3);}.cls-6{fill:url(#radial-gradient-4);}.cls-7{fill:url(#radial-gradient-5);}.cls-8{fill:url(#radial-gradient-6);}.cls-9{fill:url(#radial-gradient-7);}</style><radialGradient id="radial-gradient" cx="91.19" cy="78.78" r="83.72" gradientUnits="userSpaceOnUse"><stop offset="0" stop-color="#5e464d"/><stop offset="1" stop-color="#5e464d"/></radialGradient><radialGradient id="radial-gradient-2" cx="16.69" cy="212.64" r="20.62" xlink:href="#radial-gradient"/><radialGradient id="radial-gradient-3" cx="52.89" cy="219.45" r="13.82" xlink:href="#radial-gradient"/><radialGradient id="radial-gradient-4" cx="71.08" cy="212.97" r="16.8" xlink:href="#radial-gradient"/><radialGradient id="radial-gradient-5" cx="105.99" cy="226.68" r="27.39" xlink:href="#radial-gradient"/><radialGradient id="radial-gradient-6" cx="139.6" cy="212.48" r="17.09" xlink:href="#radial-gradient"/><radialGradient id="radial-gradient-7" cx="166.24" cy="219.61" r="16.34" xlink:href="#radial-gradient"/></defs><title>Asset 11</title><g id="Layer_2" data-name="Layer 2"><g id="Layer_8" data-name="Layer 8"><path class="cls-1" d="M179.7,86.39C179.7,40.6,136.79,3.26,91,3.26S2.3,40.72,2.3,86.51c0,.09-2.3,42.12-2.3,42.12.48,13.53,45.69,25.66,91.18,25.66,45.79,0,91.2-12.13,91.2-25.66C182.38,128.63,179.7,86.86,179.7,86.39Z"/><path class="cls-2" d="M41.82,94.24a103.74,103.74,0,0,0-2-14.94,105.24,105.24,0,0,0-3.87-14c-.83-2.24-1.66-4.43-2.62-6.54a62.3,62.3,0,0,1-2.8-6.24c-.32-1.07-.61-2.15-1-3.21s-.83-2.07-1.31-3.07c-.91-2-2-4-3.08-5.9L25,40.07a8.05,8.05,0,0,1,9.39-11.68l1,.3.82.27,1.59.56c1,.38,2.07.78,3.08,1.18,2,.82,4,1.69,6,2.61a122.33,122.33,0,0,1,11.4,6.12A113.43,113.43,0,0,1,78.77,55.31,96.8,96.8,0,0,1,94.93,76a92,92,0,0,1,9.78,24.53l-15.48-1,.38-1.1.4-1.32c.27-.9.52-1.81.76-2.74.47-1.85.88-3.75,1.23-5.65a95.29,95.29,0,0,0,1.43-11.56A90.92,90.92,0,0,0,92,54.13a82.24,82.24,0,0,0-7.5-21.65A86.77,86.77,0,0,0,71.24,13.62l-.1-.11a8.07,8.07,0,0,1,.51-11.4,8.17,8.17,0,0,1,6.5-2l.69.1.57.08,1.07.18c.71.12,1.39.26,2.07.4,1.36.28,2.7.59,4,.92q4,1,7.78,2.31a116.07,116.07,0,0,1,41.27,24.52A117.74,117.74,0,0,1,156,53.37a136.83,136.83,0,0,1,13.32,28.86l-15.06-.9.27-.65.33-.88q.33-.92.63-1.89a34.33,34.33,0,0,0,1-3.94c.23-1.35.31-2.71.49-4s.46-2.67.69-4A41,41,0,0,0,157,49.39a43.33,43.33,0,0,0-2.93-8.16,50.27,50.27,0,0,0-4.64-7.75,66.29,66.29,0,0,0-6.06-7.13,88.29,88.29,0,0,0-7.14-6.46,69.36,69.36,0,0,1,8.93,4.05,60.23,60.23,0,0,1,8.43,5.45,52.38,52.38,0,0,1,7.53,7.09,48.83,48.83,0,0,1,6.1,8.75,52.28,52.28,0,0,1,6.14,21,28,28,0,0,1,0,5.57,47.29,47.29,0,0,1-1,5.43c-.42,1.79-.85,3.58-1.39,5.36-.27.89-.57,1.78-.89,2.67l-.51,1.36-.29.71-.38.86a8,8,0,0,1-15-.66l-.08-.24A120.34,120.34,0,0,0,142.14,61.9,101.62,101.62,0,0,0,124.6,40.5,99.23,99.23,0,0,0,89.14,19.44c-2.17-.74-4.37-1.4-6.57-2-1.1-.28-2.2-.53-3.29-.76l-1.61-.31-.77-.12-.59-.09,6.9-13.56a103.12,103.12,0,0,1,15.7,22.42,98.45,98.45,0,0,1,9,25.94,106.45,106.45,0,0,1,1.73,27.22A111.49,111.49,0,0,1,108,91.73c-.42,2.24-.9,4.47-1.47,6.7-.28,1.11-.59,2.22-.92,3.35l-.52,1.7-.29.87-.36,1A8.07,8.07,0,0,1,89,104.61l0-.23a76.33,76.33,0,0,0-8.06-20.22A80.25,80.25,0,0,0,67.4,66.9,96.68,96.68,0,0,0,49.79,53.31,106.65,106.65,0,0,0,39.91,48c-1.69-.8-3.4-1.54-5.11-2.23-.86-.35-1.72-.68-2.57-1L31,44.34,29.88,44,39.12,32A81.42,81.42,0,0,1,43,39.44c.61,1.25,1.09,2.55,1.66,3.81s1.16,2.53,1.63,3.83a19.73,19.73,0,0,1,.62,2,20.41,20.41,0,0,1,.35,2c.2,1.38.32,2.76.46,4.13.22,2.75.34,5.47.3,8.18a87.93,87.93,0,0,1-1.66,15.9,75.07,75.07,0,0,1-1.9,7.62A57.7,57.7,0,0,1,41.82,94.24Z"/><path class="cls-3" d="M41.82,94.24a94.33,94.33,0,0,0,0-14.94,104.09,104.09,0,0,0-2.17-14.59c-.55-2.38-1.18-4.73-1.92-7s-1.63-4.54-2.38-6.82c-.37-1.14-.77-2.27-1.19-3.39s-.9-2.23-1.42-3.3a68.52,68.52,0,0,0-3.32-6.36l-.05-.09A3.14,3.14,0,0,1,33,33.15c2.15.67,4,1.38,6,2.15s3.82,1.61,5.7,2.5a117.17,117.17,0,0,1,10.93,5.87A108.5,108.5,0,0,1,75.3,58.85,92.15,92.15,0,0,1,90.64,78.52a87.72,87.72,0,0,1,9.25,23.21l-6-.38c.3-.81.62-1.83.9-2.78s.55-1.94.8-2.93c.51-2,.94-4,1.31-6a101.45,101.45,0,0,0,1.5-12.16,95,95,0,0,0-1.55-24.34,86.44,86.44,0,0,0-8-23,91.91,91.91,0,0,0-14-19.94l0,0a3.14,3.14,0,0,1,.19-4.44A3.19,3.19,0,0,1,77.59,5c1.45.19,2.66.42,4,.69s2.54.55,3.79.87c2.51.64,5,1.38,7.42,2.2a110.9,110.9,0,0,1,39.49,23.47A112.28,112.28,0,0,1,151.73,56a131.27,131.27,0,0,1,12.84,27.81l-5.86-.35c.24-.53.54-1.29.78-2s.49-1.41.71-2.13A43.11,43.11,0,0,0,161.29,75c.55-3,.86-6,1.14-9a44.11,44.11,0,0,0-2.27-17.91,48,48,0,0,0-9.42-15.88,71.63,71.63,0,0,0-14.48-12.34,69.3,69.3,0,0,1,16.09,10.76,49.76,49.76,0,0,1,11.77,15.86,49.22,49.22,0,0,1,4.45,19.65,37.61,37.61,0,0,1-.2,5.09c-.19,1.69-.51,3.35-.86,5s-.78,3.3-1.27,4.93q-.37,1.22-.81,2.43c-.3.83-.58,1.57-1,2.5a3.13,3.13,0,0,1-4.15,1.57,3.08,3.08,0,0,1-1.68-1.86l0-.06a124.72,124.72,0,0,0-12.21-26.48A106.15,106.15,0,0,0,128,36.86a104.51,104.51,0,0,0-23.83-16.51,103.34,103.34,0,0,0-13.4-5.61c-2.29-.78-4.61-1.47-6.94-2.07-1.17-.29-2.34-.57-3.51-.81s-2.39-.46-3.41-.59L79.55,6a97.85,97.85,0,0,1,15,21.32A93.29,93.29,0,0,1,103,52a101.9,101.9,0,0,1,1.65,26,107.85,107.85,0,0,1-1.59,12.91c-.4,2.13-.86,4.26-1.4,6.37-.27,1.06-.55,2.11-.86,3.17s-.63,2.06-1.06,3.23a3.15,3.15,0,0,1-6-.32v-.07a81,81,0,0,0-8.58-21.53A85.53,85.53,0,0,0,70.88,63.36,101.4,101.4,0,0,0,52.36,49.07,111.65,111.65,0,0,0,42,43.51c-1.77-.83-3.56-1.62-5.37-2.35-.91-.36-1.81-.71-2.72-1s-1.86-.66-2.67-.9l3.6-4.65a87.26,87.26,0,0,1,6.61,14.17,47,47,0,0,1,1.85,7.57q.66,3.84,1,7.68a92.22,92.22,0,0,1,0,15.32c-.2,2.53-.5,5-.93,7.55A65.5,65.5,0,0,1,41.82,94.24Z"/><path class="cls-4" d="M8.42,234.75a15.48,15.48,0,0,1-5.83-6,19.91,19.91,0,0,1,0-18.35,15.48,15.48,0,0,1,5.83-6,15.13,15.13,0,0,1,7.62-2,14.91,14.91,0,0,1,11.08,4.93V191.48a2.85,2.85,0,0,1,.88-2.14,2.92,2.92,0,0,1,2.11-.84,2.76,2.76,0,0,1,2.07.87,3,3,0,0,1,.84,2.11v42.07a2.81,2.81,0,0,1-.84,2.07,2.78,2.78,0,0,1-2.07.85,2.89,2.89,0,0,1-2.11-.85,2.77,2.77,0,0,1-.88-2.07v-1.68A14.9,14.9,0,0,1,16,236.79,15.22,15.22,0,0,1,8.42,234.75ZM22.49,230a15.88,15.88,0,0,0,4.63-3.53V212.81a16.09,16.09,0,0,0-4.63-3.54,12.33,12.33,0,0,0-5.61-1.33A10.17,10.17,0,0,0,9.17,211c-1.95,2-2.92,4.91-2.92,8.62s1,6.59,2.92,8.62a10.14,10.14,0,0,0,7.71,3.05A12.2,12.2,0,0,0,22.49,230Z"/><path class="cls-5" d="M44.11,235.62a2.77,2.77,0,0,1-.84-2.07V205.74a2.91,2.91,0,0,1,.84-2.11,2.76,2.76,0,0,1,2.07-.87,3,3,0,0,1,3,3v2.79q4.55-6.1,10.18-6.1h.33a2.72,2.72,0,0,1,2,.85,2.87,2.87,0,0,1,.81,2.07,2.62,2.62,0,0,1-.84,2,3,3,0,0,1-2.14.78h-.33a11.11,11.11,0,0,0-5.7,1.52,13.23,13.23,0,0,0-4.35,4.18v19.71a2.76,2.76,0,0,1-.87,2.07,2.92,2.92,0,0,1-2.11.85A2.78,2.78,0,0,1,44.11,235.62Z"/><path class="cls-6" d="M68.55,195.37a3.2,3.2,0,0,1-1-2.34v-.26a3.33,3.33,0,0,1,3.31-3.3h.39a3.15,3.15,0,0,1,2.33,1,3.19,3.19,0,0,1,1,2.33V193a3.2,3.2,0,0,1-1,2.34,3.15,3.15,0,0,1-2.33,1h-.39A3.16,3.16,0,0,1,68.55,195.37Zm.39,40.25a2.78,2.78,0,0,1-.85-2.07V205.74a2.92,2.92,0,0,1,.85-2.11,2.76,2.76,0,0,1,2.07-.87,2.87,2.87,0,0,1,3,3v27.81a2.76,2.76,0,0,1-.87,2.07,2.92,2.92,0,0,1-2.11.85A2.78,2.78,0,0,1,68.94,235.62Z"/><path class="cls-7" d="M129.47,242.5a2.13,2.13,0,0,0-2,0l-16.67,6.9L129,220.63a5.66,5.66,0,0,0,.9-3,2.37,2.37,0,0,0-1-2.23,3.06,3.06,0,0,0-2.73.09L106,223.86l-16.66,6.9L107.51,202a5.7,5.7,0,0,0,.91-3,2.37,2.37,0,0,0-1-2.23,3,3,0,0,0-2.72.09L85,205a4.35,4.35,0,0,0-1.94,1.61,4,4,0,0,0-.78,2.3,1.71,1.71,0,0,0,.78,1.62,2.1,2.1,0,0,0,1.94,0l16.4-6.8L82.74,232.91a5.71,5.71,0,0,0-1,3.09,1.93,1.93,0,0,0,1.16,2.05,4.09,4.09,0,0,0,2.92-.3l20.7-8.58,16.4-6.8-18.67,29.2a5.67,5.67,0,0,0-1,3.08,1.93,1.93,0,0,0,1.17,2,4.09,4.09,0,0,0,2.92-.3L127.5,248a4.57,4.57,0,0,0,2-1.6,3.83,3.83,0,0,0,.81-2.28A1.74,1.74,0,0,0,129.47,242.5Z"/><path class="cls-8" d="M137.49,235.62a2.81,2.81,0,0,1-.84-2.07V191.48a3,3,0,0,1,.84-2.11,2.76,2.76,0,0,1,2.07-.87,2.89,2.89,0,0,1,3,3v42.07a2.77,2.77,0,0,1-.88,2.07,2.91,2.91,0,0,1-2.11.85A2.78,2.78,0,0,1,137.49,235.62Z"/><path class="cls-9" d="M155.22,232.29q-4.44-4.51-4.44-12.68a21.2,21.2,0,0,1,1.68-8.49,14.54,14.54,0,0,1,5.19-6.29,14.88,14.88,0,0,1,8.62-2.4,15.11,15.11,0,0,1,8.3,2.24,14.58,14.58,0,0,1,5.32,6,18.5,18.5,0,0,1,1.81,8.14,2.84,2.84,0,0,1-3,2.92h-22a10.67,10.67,0,0,0,3.37,7.06q2.85,2.53,8,2.53a19.26,19.26,0,0,0,4.76-.52,19.47,19.47,0,0,0,4-1.49A2.57,2.57,0,0,1,178,229a2.6,2.6,0,0,1,1.82.72,2.34,2.34,0,0,1,.78,1.81,2.8,2.8,0,0,1-1.69,2.4,20.19,20.19,0,0,1-11.34,2.85Q159.65,236.79,155.22,232.29Zm20.64-15.4a10.34,10.34,0,0,0-1.65-5.32,8.93,8.93,0,0,0-3.6-3.14,9.92,9.92,0,0,0-8.68,0,8.72,8.72,0,0,0-3.57,3.14,10.61,10.61,0,0,0-1.62,5.32Z"/></g></g></svg>