<svg xmlns="http://www.w3.org/2000/svg" viewBox="0 0 368.23 111.24"><defs><style>.cls-1{fill:#107c10;}</style></defs><title>xbox-logo</title><g id="Layer_2" data-name="Layer 2"><g id="Layer_1-2" data-name="Layer 1"><path class="cls-1" d="M50,111a55.22,55.22,0,0,1-24.65-8.76c-6.24-4.07-7.65-5.74-7.65-9.09,0-6.71,7.38-18.46,20-31.86C44.83,53.7,54.8,44.78,55.87,45,58,45.48,74.74,61.86,81,69.56c9.93,12.2,14.5,22.18,12.18,26.63-1.77,3.38-12.7,10-20.73,12.52A60.61,60.61,0,0,1,50,111ZM284,23.28c-18.6,0-31.54,14-31.54,34.1S265.43,91.49,284,91.49s31.44-14,31.44-34.11S302.53,23.28,284,23.28Zm54.42,26.83,18.88-25.34H366l-23.2,31.06,25.39,34.22v0h-8.71L338.45,61.77l-21,28.33h-8.71l25.34-34.21L310.92,24.77h8.66Zm-172.94,0,18.87-25.34H193L169.89,55.83l25.34,34.22v0h-8.71l-21-28.33L144.45,90.1h-8.72l25.4-34.21L137.92,24.77h8.72ZM225.6,24.77c19.89,0,21.44,13.58,21.44,17.75a14.81,14.81,0,0,1-7.92,13,17.26,17.26,0,0,1,4.33,2.72A15.69,15.69,0,0,1,249.17,71c0,11.76-9,19.09-23.57,19.09H198.81V59.47H185.08c1-1.45,3.63-5,4.81-6.52h8.92V24.77ZM9.28,86.2c-5.18-8-7.8-15.8-9.07-27.13-.42-3.74-.27-5.88,1-13.56,1.52-9.58,7-20.65,13.5-27.46,2.8-2.91,3-3,6.44-1.83,4.13,1.39,8.52,4.43,15.36,10.62l4,3.61-2.17,2.68c-10.12,12.43-20.78,30-24.79,40.94C11.29,80,10.42,85.94,11.35,88.41,12,90.07,11.4,89.46,9.28,86.2Zm90.91,1.34c.51-2.49-.13-7.09-1.65-11.72-3.27-10-14.26-28.71-24.34-41.39l-3.17-4,3.43-3.17a72.42,72.42,0,0,1,11-8.68c2.66-1.66,6.44-3.11,8.07-3.11,1,0,4.53,3.67,7.38,7.68a58,58,0,0,1,9.32,21.57c1.06,5.06,1.15,15.9.17,20.94a66.65,66.65,0,0,1-4.16,13.16,71,71,0,0,1-5.7,9.76C99.81,89.46,99.81,89.46,100.19,87.54ZM284,84.6C269.86,84.6,260,73.42,260,57.38S269.86,30.17,284,30.17s24,11.18,24,27.21S298.14,84.6,284,84.6Zm-58.38-1.39c6,0,16.15-1.61,16.15-12.41,0-9.35-8.77-11.33-16.15-11.33h-19.4V83.21Zm0-30.32c8.93,0,14.06-4.11,14.06-11,0-9.08-8.82-10.37-14.06-10.37h-19.4V52.89ZM50.91,13.57A69.39,69.39,0,0,0,35.11,8a29.53,29.53,0,0,0-5.28-.3c-3.27.16-3.12,0,2.13-2.48A54.08,54.08,0,0,1,44.9.89a66.11,66.11,0,0,1,21.47,0A60.1,60.1,0,0,1,83.15,7.11l1.16.72-2.67-.14c-5.31-.27-13,1.88-21.36,5.93a41.94,41.94,0,0,1-4.84,2.17C55.29,15.76,53.24,14.76,50.91,13.57Z"/></g></g></svg>