<svg id="Layer_1" data-name="Layer 1" xmlns="http://www.w3.org/2000/svg" viewBox="0 0 158.83 80.2"><defs><style>.cls-1{fill:#e4a663;}.cls-2,.cls-5{fill:#5f474e;}.cls-2,.cls-3{stroke:#fff;stroke-miterlimit:10;stroke-width:3px;}.cls-3,.cls-4{fill:#e4a563;}.cls-6{fill:#fff;}</style></defs><title>ganache-1-left</title><rect class="cls-1" x="-0.53" width="94.81" height="80.2"/><path class="cls-2" d="M34.19,48.17c.36-.11-4.94-4.86-2.44-4.31,2,.44,9.12,4.36,10,20.84.05,1,.08,3.55.05,4-.05.66-.44,1.95-.51,3.11,0,.54-.4,2.46.34,3.69A2.52,2.52,0,0,0,44.34,77c2.38,0,1.87-2.92,1.87-2.92-.09-1-.26-2-.32-3-.1-1.46,0-2.85,0-4.27V62.69c.49-14.88,14-15.75,19.37-12.4a12.65,12.65,0,0,1,5,4.72c1.2,2.06,3,5.93,6.42,7.45,2.75,1.21,3.89.39,6.68-1.05,4-2.09,9.56.63,10.43,4.78.38,1.83,1,4.58,3.59,3.93,1.79-.46,1.73-3.2,1.73-4.91a20,20,0,0,1,.1-2.79c.75-7.18,3.09-13.09,10.13-17.32,2.85-1.71,9-3.84,18.84.42a7.22,7.22,0,0,0,5.31-.05A13.72,13.72,0,0,0,136,43.62a31.3,31.3,0,0,0,3.84-4.37c.37-.47,1.94-2.44,2.41-2.89a45.65,45.65,0,0,1,8-6.16c1-.66,2-1.09,3-1.72.3-.19.6-.36.9-.53V71.44a12.74,12.74,0,0,1-5.75,10L96.67,111.24a12.69,12.69,0,0,1-11.48,0L61.74,90.34C58.58,88.51,35,74.25,35,70.6Z"/><path class="cls-3" d="M44.38,77a2.52,2.52,0,0,1-2.69-1.55c-.71-1.2-.37-3.15-.34-3.68.07-1.17.46-2.47.51-3.12,0-.39,0-2.94-.06-4-.89-16.47-8-20.39-10-20.84-1.31-.38,3.51-7.42,2.27-6.87l1.14-15.44-.49-3.41,3-5.47c0-3.64,9.66-2.29,12.82-4.12L85.25-27.94a12.73,12.73,0,0,1,11.5,0L148.34,1.85a12.73,12.73,0,0,1,5.73,10v6.51a.24.24,0,0,1,0,.12v9.51l-.89.52c-1,.67-2,1-3,1.73a45.59,45.59,0,0,0-8,6.15c-.47.45-2,2.43-2.41,2.89A31.38,31.38,0,0,1,136,43.61a14.06,14.06,0,0,1-2.55,1.85,7.17,7.17,0,0,1-5.31,0c-9.83-4.26-16-2.12-18.84-.41-7,4.23-9.39,10.14-10.14,17.31A20.16,20.16,0,0,0,99,65.2c0,1.71.06,4.44-1.74,4.9-2.58.67-3.2-2.09-3.58-3.92-.87-4.15-6.39-6.87-10.43-4.78-2.79,1.44-3.93,2.26-6.68,1-3.44-1.52-5.22-5.38-6.42-7.44a12.58,12.58,0,0,0-5-4.72c-5.38-3.35-18.88-2.48-19.37,12.4v4.14c0,1.42,0,2.81,0,4.27.06,1,.23,2,.32,3,0,0,.53,2.91-1.85,2.93"/><path class="cls-2" d="M147.22,48.12c-.37-.11,4.93-4.86,2.43-4.31-2.05.44-9.11,4.36-10,20.84-.06,1-.09,3.55-.06,4,0,.66.44,2,.51,3.12,0,.53.4,2.45-.34,3.68A2.5,2.5,0,0,1,137.07,77c-2.38,0-1.88-2.92-1.88-2.92.09-1,.27-2,.33-3,.09-1.47,0-2.86,0-4.28V62.64c-.49-14.88-14-15.75-19.37-12.4a12.72,12.72,0,0,0-5,4.72c-1.2,2.06-3,5.93-6.42,7.45-2.75,1.21-3.89.39-6.68-1-4-2.08-9.56.63-10.42,4.78-.39,1.83-1,4.58-3.59,3.93-1.8-.46-1.74-3.2-1.74-4.9a18.68,18.68,0,0,0-.09-2.8c-.75-7.18-3.1-13.09-10.14-17.32-2.84-1.71-9-3.84-18.84.42a7.22,7.22,0,0,1-5.31,0,14,14,0,0,1-2.55-1.84,32.65,32.65,0,0,1-3.84-4.38c-.37-.47-1.94-2.44-2.41-2.89a45.65,45.65,0,0,0-8-6.16c-1-.66-2-1.09-3-1.72-.3-.19-.59-.36-.89-.53V71.39a12.73,12.73,0,0,0,5.74,10l51.64,29.85a12.71,12.71,0,0,0,11.49,0l23.44-20.9c3.16-1.83,26.75-16.09,26.74-19.74Z"/><path class="cls-3" d="M137,77a2.54,2.54,0,0,0,2.7-1.55c.7-1.2.36-3.15.33-3.68-.06-1.17-.45-2.47-.51-3.12,0-.39,0-2.93.06-4,.89-16.47,8-20.39,10-20.84,1.31-.38-3.51-7.42-2.27-6.87L146.2,21.48l.48-3.41-3-5.47c0-3.64-9.66-2.29-12.81-4.12L96.16-28a12.75,12.75,0,0,0-11.51,0L33.06,1.8a12.73,12.73,0,0,0-5.73,10v6.51a.24.24,0,0,0,0,.12v9.51c.3.16.6.34.89.52,1,.67,2,1,3,1.73a45.22,45.22,0,0,1,8,6.15c.47.45,2,2.43,2.42,2.89a31.31,31.31,0,0,0,3.83,4.38A14.06,14.06,0,0,0,48,45.41a7.17,7.17,0,0,0,5.31,0c9.83-4.26,16-2.12,18.84-.41,7,4.23,9.39,10.14,10.14,17.31a18.72,18.72,0,0,1,.09,2.8c0,1.71-.06,4.45,1.74,4.9,2.58.67,3.2-2.09,3.59-3.92.87-4.15,6.38-6.87,10.42-4.78,2.79,1.44,3.93,2.26,6.68,1C108.24,60.87,110,57,111.21,55a12.64,12.64,0,0,1,5-4.72c5.38-3.35,18.88-2.48,19.37,12.4v4.14c0,1.42.05,2.81,0,4.27-.06,1-.24,2-.33,3,0,0-.53,2.91,1.85,2.93"/><path class="cls-4" d="M137.05,77a2.52,2.52,0,0,0,2.69-1.55c.7-1.2.36-3.15.34-3.68-.07-1.17-.46-2.47-.51-3.12,0-.39,0-2.93.06-4,.88-16.47,8-20.39,10-20.84a5.7,5.7,0,0,1,3.94.27V11.81a12.77,12.77,0,0,0-5.75-10L96.18-28a12.75,12.75,0,0,0-11.51,0L33.08,1.8a12.76,12.76,0,0,0-5.73,10V27.89c.3.16.6.34.9.52,1,.67,2,1,3,1.73a45.59,45.59,0,0,1,8,6.15c.47.45,2,2.43,2.41,2.89a31.31,31.31,0,0,0,3.83,4.38A14.13,14.13,0,0,0,48,45.41a7.14,7.14,0,0,0,5.3,0c9.83-4.26,16-2.12,18.85-.41,7,4.23,9.38,10.14,10.13,17.31a20.17,20.17,0,0,1,.1,2.8c0,1.71-.06,4.45,1.73,4.9,2.58.67,3.21-2.09,3.59-3.92.87-4.15,6.39-6.87,10.43-4.78,2.78,1.44,3.92,2.26,6.68,1C108.26,60.87,110,57,111.24,55a12.51,12.51,0,0,1,5-4.72c5.37-3.35,18.88-2.48,19.37,12.4v4.14c0,1.42,0,2.81,0,4.27-.06,1-.23,2-.32,3,0,0-.54,2.91,1.85,2.93"/><path class="cls-5" d="M153.55,44.09a5.58,5.58,0,0,0-3.92-.27c-2,.45-9.12,4.37-10,20.84-.06,1-.09,3.56-.06,4,.05.66.44,2,.51,3.12,0,.53.4,2.45-.34,3.68A2.49,2.49,0,0,1,137.05,77c-2.38,0-1.88-2.92-1.88-2.92.09-1,.26-2,.32-3,.1-1.47,0-2.85,0-4.27V62.66c-.49-14.89-14-15.76-19.37-12.41a12.6,12.6,0,0,0-5,4.73c-1.2,2.05-3,5.92-6.42,7.44-2.75,1.21-3.89.4-6.68-1-4-2.09-9.56.63-10.43,4.77-.38,1.83-1,4.59-3.58,3.93-1.8-.46-1.74-3.2-1.74-4.9a21.78,21.78,0,0,0-.09-2.8c-.75-7.18-3.1-13.09-10.14-17.31-2.84-1.71-9-3.85-18.84.41a7.22,7.22,0,0,1-5.31,0,13.55,13.55,0,0,1-2.55-1.84,32,32,0,0,1-3.84-4.38c-.37-.46-1.94-2.44-2.41-2.89a45.55,45.55,0,0,0-7.93-6.18c-1-.67-3.6-2.09-3.9-2.25l0,43.52a12.76,12.76,0,0,0,5.74,10L84.71,111.2a12.71,12.71,0,0,0,11.49,0l51.64-29.8a12.72,12.72,0,0,0,5.73-10Z"/><path class="cls-6" d="M97,36.78a14.4,14.4,0,0,1-13,0L31.22,8.92c.6.59,53.55,31.35,53.55,31.35a12.69,12.69,0,0,0,11.48,0S149.14,9.6,149.73,9Z"/></svg>