<svg xmlns="http://www.w3.org/2000/svg" xmlns:xlink="http://www.w3.org/1999/xlink" viewBox="0 0 864 864"><defs><style>.cls-1{fill:#3fe0c5;}.cls-2{fill:url(#radial-gradient);}.cls-3{fill:#211e1f;}.cls-4{fill:#c6a691;}.cls-5,.cls-6,.cls-7{fill:none;stroke-linecap:round;stroke-miterlimit:10;}.cls-5{stroke:#5f474e;opacity:0.78;}.cls-5,.cls-6{stroke-width:10px;}.cls-6{stroke:#474141;opacity:0.14;}.cls-7{stroke:#211e1f;stroke-width:14px;}.cls-8{fill:#a8847b;}.cls-9{fill:#fff;}</style><radialGradient id="radial-gradient" cx="389.5" cy="701.45" fx="453.8770057641249" fy="584.7809251682042" r="244.72" gradientUnits="userSpaceOnUse"><stop offset="0.15" stop-color="#322320"/><stop offset="0.29" stop-color="#6a5347"/><stop offset="0.42" stop-color="#987b68"/><stop offset="0.52" stop-color="#b4937c"/><stop offset="0.58" stop-color="#bf9c83"/></radialGradient></defs><title>adrian-truffle-bg</title><g id="Truffle-light"><rect class="cls-1" width="864" height="864"/></g><g id="Adrian"><path class="cls-2" d="M270.06,559.91s9.36,65.51,4.37,78.61-23.08,52.4-33.06,60.51-5,91.71-5,91.71l187.17,33.69,144.11-38-32.27-86.44L352.42,568Z"/><path class="cls-3" d="M256,677.75S118,706.64,0,790.82C-2.45,837-1.09,864-1.09,864H798.59s-11.22-63.33-30-92-54.62-77-81.49-84.18-94-20.62-113.73-23.28-32.38-3-32.38-3-2.83,12.92-8.68,33.48c-4.8,16.89-11.23,43.06-23.75,52.78-27.75,21.54-64.48,16.17-151.17,1.84S256,677.75,256,677.75Z"/><path class="cls-4" d="M263.4,551c1.14,7.51-3.06,32.13,24.81,65.08,23,31.83,87.35,75.51,102.9,84.39s52.56,37,64.4,39.23,29.61,7.41,43.68-3.7,36.27-31.83,42.93-47.37,17-41.46,28.13-58.48,36.28-71.07,38.5-90.32,9.62-45.15,9.62-59.22-5.18-54.78-6.66-67.36,3.7-52.56,0-68.11S593.2,243,593.2,243l-29.61-88.83L491.05,129,359.28,153.42,239.36,251.13,232,363.65l-8.14,34.79s-14.06-9.62-20.73-5.18-12.58,12.59-12.58,21.47,0,25.91,6.66,37,17.77,40.72,25.91,49.6S241.58,528,247.5,531,258.94,523.52,263.4,551Z"/><path class="cls-5" d="M441.72,545.72s5.7-10.08,17.12-10c15,.17,20.88,11.18,34.55,11.06,9.75-.09,20-11.72,26.94-14.69s12.61,2.77,12.61,2.77"/><path class="cls-6" d="M240,474s-14,.55-17.14-13S229.48,441,229.48,441"/><path class="cls-3" d="M299.39,381.84c0-4.34,24.95-25.59,39.3-29.49s65.21.32,77.56,2.7c9.22,1.78,12.9,8.43,9.78,15.67S410.44,378,410.44,378s-26.41-7.23-43.3-3.34-23.3,9.67-37.64,12.45S299.39,386.19,299.39,381.84Z"/><path class="cls-3" d="M508.71,361.28c-5.93,9.12,14.09,13.94,19.06,13.54S546,366.09,558,368.07s18.23,11.13,29,9.53,17.81-5.57,15.33-11.14-14.51-18.71-24.45-19.11-23.61-.17-34,1.7S512.85,354.91,508.71,361.28Z"/><circle class="cls-3" cx="376.03" cy="406.01" r="16.67"/><circle class="cls-3" cx="537.81" cy="396.69" r="16.18"/><path class="cls-7" d="M330.39,410.93s16.18-21.55,49-20.59,44.12,26.47,44.12,26.47"/><path class="cls-7" d="M507.62,411.91s3.13-24.55,29.11-28.47,45.17,14.25,45.17,14.25"/><path class="cls-3" d="M253,490.16s-2.44-86-2.47-95.41-4-34.58,17.3-44,24.22-50.43,28.67-67.73,34.6-69.21,94.41-78.1,63.27,0,103.81-6.92,55.21,0,60.47,18.78,15.65,40,26,58.82,17.8,45,24.22,56.85,5.93,18.3,5.93,18.3,4.47-57.35,0-97.88-2.48-62.29-19.28-95.9-39.55-72.17-63.28-94.42S475.48,33.9,454.72,30.94s-49.93,0-58.83,3.46,19.28-6.43,40.54,5.93c11.23,7.64-59.63-.06-78.1,8.4-4.61,2.23-24.95,10.54-26.14,13.06,13.64-3.15,21,.17,32,5.42-10.65,6.71-42.32-3.47-75.12,22.53-21.09,14.82-34.51,33.67-41.83,43.7,21.41-20,29.76-12.79,24.19-12-6.61.9-28.6,24.57-32.24,31.62-16.32,31.64-23.73,58.83-29.66,79.59a114.09,114.09,0,0,0-4.36,31.28c3.17-15.53,7-23.37,7.1-20.61-10.25,45.75-.37,97,4.67,119.2C224.86,397.22,253,490.16,253,490.16Z"/><path class="cls-8" d="M381.74,580c25.68,2.76,52.16,1.18,76.66,2.76s35.18,1,51-3.73,23.56-1.93,31.6-6.54c8.85-5.07,11-10.27,11-10.27s-9.82,24.89-11.8,48.6-30.43,40.3-46.23,40.7-37.54,2.37-57.3-13.83S397.15,587.86,381.74,580Z"/><path class="cls-3" d="M390.78,582.27s17.15,9.11,31.56,10.59,12.07,16.52,12.07,16.52S400.31,593.49,390.78,582.27Z"/><path class="cls-3" d="M527.81,583.12c.84,1.69,2.33,7.62,0,12.7s7.2-8.68,9.31-15Z"/><path class="cls-9" d="M429.33,593.17c14.26,1.05,43.36,4.49,58,2.64s36.83-11.36,40.53-12.68a15.26,15.26,0,0,1,0,13.22c-4,4.74-11.85,14.23-20.25,18.41s-20.71,6.93-30.75,6.93-28.85-7.16-33.8-9.24-11.47-4.75-15.7-8.72-8.6-8.18-6.75-10.3S429.33,593.17,429.33,593.17Z"/></g></svg>