<svg xmlns="http://www.w3.org/2000/svg" viewBox="0 0 864 864"><defs><style>.cls-1{fill:#3fe0c5;}.cls-2{fill:#8e6e61;}.cls-3{fill:#3f3331;}.cls-4{fill:#a88271;}.cls-5{fill:#c1a8a4;opacity:0.49;}.cls-6{fill:#211e1f;}.cls-7{fill:#fff;}.cls-8,.cls-9{fill:none;stroke-linecap:round;stroke-miterlimit:10;}.cls-8{stroke:#211e1f;stroke-width:14px;}.cls-9{stroke:#5f474e;stroke-width:10px;opacity:0.42;}</style></defs><title>amal-truffle-bg</title><g id="Truffle-light"><rect class="cls-1" width="864" height="864"/></g><g id="Amal"><path class="cls-2" d="M204.5,649l55.81-23.61.77-86.66,299,14.09s-3.32,70.54,1.7,79.83S601,693.18,601,693.18l-11.21,111.6L420.5,841.63,266.18,812.79l-78-82.76Z"/><path class="cls-3" d="M0,748.31S135.75,687.84,158.8,672c25.25-17.31,80.23-38.26,81.71-38.3-.89,2.15-34.73,3.45.12,58s60.62,112.14,157.61,119.72,144-44,160.64-88.65,8.51-63.53,2.91-90.18C589.87,661.3,768.32,730.55,864,771.47c17,7.29,0,92.53,0,92.53H0Z"/><path class="cls-4" d="M238.9,472.48s4.92,103.64,78.78,140c63.05,31,103,29.87,157.17,14.83s97.47-91,105.25-110.22S592,472.48,592,472.48s14.52,6.74,20.74-9.85-5.6-13,.62-31.63,9-12.65,8.29-31.83c-.54-16,3.34-14,3.34-35.76s.8-22.44-1.79-30.21c-9-8.88-17.72-1.76-17.72-1.76L591,243.29,577.5,147.88,530.84,99.14,471.72,74.25l-55-4.67h-58.6l-57,31.63L268.46,138,238.9,207l-6.22,59.12,2.65,61.42s-4.73-4.38-9.39-3.87-10.37,4.67-10.89,9.34,2.44,18.05,3,25.83-1.65,13.18-.81,29.86c.54,10.85-1.63,16.28,1.62,26.32s7.87,14.66,7.87,14.66,1.63,14,.28,18.81,0,12.67,1.62,14.84S238.9,472.48,238.9,472.48Z"/><path class="cls-5" d="M315.07,471.6c.62-1.93,60.43-19.08,72.36-18.29s9.92,4.19,21.68,4.19c10.87,0,14.12-2.32,22.24-2.51s57.42,14.11,70.57,12.95-10.25,29.2-22.62,42.34-38.48,24-63.23,23.59-48.53-7.92-59.16-14.5-31.13-32.67-35-37.7S314.45,473.53,315.07,471.6Z"/><path class="cls-6" d="M322.23,472.35c-4.11,2.23,22.44,26.79,57.92,31.49s63.41,1.71,81.88-5.17,18.75-4.24,24.18-13.29,8.33-14.48,0-15.2-57.24-.37-67.73,2.53-27-5.63-51-4.7C342.42,469,326.34,470.12,322.23,472.35Z"/><path class="cls-7" d="M338.44,469.85s1,18.91,5.85,22.35,39.53,15.81,64.62,15.12,51.56-2.06,68.06-13.74c3.78-5.5,5.32-12.92,2.75-23.38-4.47-.35-39.87-2.06-48.12-.35s-30.25,1.41-44-.84S343.26,468.14,338.44,469.85Z"/><path class="cls-6" d="M241.27,319.61c-2.17,16.94-3.47,52.55-3.47,52.55s-5.21-32.57-11.29-49.94-12.6-49.94,3.91-115.51S297.29,96.85,297.29,96.85s65.57-44.73,98.57-45.6,79,4.78,96,16.07,66.43,40.38,84.24,68.61S611.24,192,613,252.74s2.17,55.58-2.17,68.61S596,336.11,595.17,352.18s-4.34,43-4.34,43,5.65-49.94-7-75.56,3.77-4.23-9.11-73c-9.12-48.63,10.85-36,1.3-69.48s-26.44-69.45-63.4-76.86C485.61,94.9,471.9,96,444.49,95.55s-40.81-3.48-67.3-9.56-37.35-3.47-57.76,10-27.79,22.58-50.8,52.54-5.65,56-13.9,81.21S241.27,319.61,241.27,319.61Z"/><path class="cls-6" d="M605.65,311.4c.32-6.37-9.23-20.37-14-23.31s-6-.57-10.82-2.16-9.87-8.28-20.7-14.64-35.34-5.42-67.18-6.05-52.21,8.27-64.63,16.23S403.8,285,397.75,285s-18.47-13.38-29.61-17.2-50.63-6.68-68.46-7.64S265.93,263,258,266.19s-11.79,9.87-16.56,9.87a13.39,13.39,0,0,0-10.51,5.1c-1.91,2.54-3.07,23.43-4,34.89,0,0,8.49.16,13.66-1.83,2.16,4,2.94,4.62,4.66,8.65,4.83,17.82,13.73,24.51,23.92,28s36.93,7,71.32,6.37,37.25-14.33,37.25-14.33l22.3-37.4s3.85-7.85,10.16-7.41A22,22,0,0,1,420,300.9s4.26,6.85,5.29,11.84,8.73,32.88,25.92,44.19c8,4.78,35.66,5.41,53.8,4.78s22.61-1,37.25-2.87,19.74-6.37,24.52-12.1c4.62-5.54,6.05-15.28,11.14-21.65s2.87-12.73,6.37-7.64,19.74,18.47,21.34,12.1S605.34,317.77,605.65,311.4ZM386.54,305c-.67,9.79-3.12,14.91-9.8,27.83s-12.23,13.8-22,16.47c-7.31,1.2-50.31.45-57.44,0A87.06,87.06,0,0,1,270.1,344c-11.35-4.23-15.81-12-19.81-22.26s-.67-17.59,0-28.5,3.11-15.36,10.24-20.26,6.68-3.34,27.16-5.34,34.73.66,44.08.89,27.83,4,34.51,5.34,15.14,6.9,18.25,10.91S387.21,295.21,386.54,305Zm183.63,24.07c-4.41,10.19-9.18,17.9-20.8,21.76s-20.4,4.23-27.61,4.43-50.65-.59-58-2c-9.8-3.05-15.38-4.15-21.66-17.42s-8.57-18.54-8.9-28.45S432.67,290.9,436,287s12-9.25,18.82-10.36,25.58-4.27,35-4.16,23.93-2.08,44.53.67,20.22,1.17,27.23,6.37,9.33,9.78,9.62,20.82S574.58,318.88,570.17,329.08Z"/><path class="cls-8" d="M279.34,311.67A78.48,78.48,0,0,1,319,287c25.28-6.32,43.09,15.51,43.09,15.51"/><path class="cls-8" d="M463.2,301.91s11.78-19.82,42.09-14.08,42.08,23.84,42.08,23.84"/><circle class="cls-6" cx="500.26" cy="300.47" r="14.36"/><circle class="cls-6" cx="322.15" cy="297.02" r="14.94"/><path class="cls-6" d="M261,272c-21,19.16,15.93-24.86,35.13-27.29,48-6.09,54.73-3.09,67.84,8.92s-24,4.54-34.53,4.9S273.42,260.69,261,272Z"/><path class="cls-6" d="M459.38,256.26c0-3.74,23.83-22.32,39-21.56S530.88,237,541.85,243s14.76,12.11,18.92,17.78-24.38-8.6-36.32-11-26.07-.65-38.56,5S459.38,260,459.38,256.26Z"/><path class="cls-9" d="M358.37,413.07s6.27-1.34,19.72-1.34,18.1,16.94,28.67,16.94,16.07-14.48,32-13.52,24.33,3.3,24.33,3.3"/></g></svg>