<svg xmlns="http://www.w3.org/2000/svg" xmlns:xlink="http://www.w3.org/1999/xlink" viewBox="0 0 864 864"><defs><style>.cls-1{fill:#3fe0c5;}.cls-2{fill:#211e1f;}.cls-3{fill:url(#radial-gradient);}.cls-4{fill:#d6b5a7;}.cls-5{fill:#766362;opacity:0.65;}.cls-10,.cls-6{fill:#32363d;}.cls-6{opacity:0.7;}.cls-7{fill:#c1a8a4;}.cls-8{fill:#fff;}.cls-9{fill:none;stroke:#211e1f;stroke-linecap:round;stroke-miterlimit:10;stroke-width:14px;}</style><radialGradient id="radial-gradient" cx="448.54" cy="651.73" fx="440.62164412050646" fy="437.82216265751094" r="219.26" gradientUnits="userSpaceOnUse"><stop offset="0.23" stop-color="#32363d"/><stop offset="0.28" stop-color="#3d3f44"/><stop offset="0.38" stop-color="#5c5658"/><stop offset="0.49" stop-color="#8d7c77"/><stop offset="0.64" stop-color="#d0b0a3"/><stop offset="0.65" stop-color="#d6b5a7"/></radialGradient></defs><title>cruz-truffle-bg</title><g id="Truffle-light"><rect class="cls-1" width="864" height="864"/></g><g id="Cruz"><path class="cls-2" d="M340.45,598c-44.14,24.39-51.57,45.6-72.64,51.11S129.22,705.61,92,721.54,0,752.61,0,767.37V864H865.91L864,783.89s-10-20.81-22.1-31.76c-34.49-29.27-113.39-46.77-151.81-65.42S623.16,676,592.86,645.39,539,607.81,518.71,609.91,340.45,598,340.45,598Z"/><path class="cls-3" d="M328.24,551s-2.23,28.88-2.32,50.25c0,9.74-1.5,16.53-9.93,22.17-.13,45.49-.18,98.54.27,108.42.81,17.88,11.38,35.76,23.57,45.51s47.94,27,55.26,39.52,80.45,0,80.45,0,25.19-33,36.57-34.64,32.51-20.32,38.2-27.63S570.62,731,571.43,713.1,580.37,666,581.19,657c.2-2.24-8.93-12.49-10.33-23.89-4.19-34.21-4.91-96.18-4.3-122.39.59-25.59-225.06-57.16-235.75,13.44C328.93,536.59,328.24,551,328.24,551Z"/><path class="cls-4" d="M293.53,447.62s-2.86,5-6,1.67c-7.69-8.14-28.09-62-24.82-53.91,1.74,4.33-1.81-1.44-3.79-7.79a25.74,25.74,0,0,1-.42-11.53,84.69,84.69,0,0,0,3.73-17.61c.59-7.29,3.92-20.22,9.74-18.35,7.14,2.3,20.35-48.5,20.35-48.5l3.34-77.49,13.66-53.24s38.78-47,65.79-52.13c58-10.93,192.52,7.15,206,41.25,11.51,29.13,45.71,114,32.05,160.6-.1,14.31,4.79,28.53,6.88,32.59,1,1.88,9,2.15,13.87,8.72,7.63,10.4,4.9,45.35,4.9,45.35S629.92,434.43,623,440c-3.1,2.48-5.87,12-7.91,15a6,6,0,0,1-6.49,2.61s-9.11,56.31-27.36,84.1-65.8,75.84-84.34,86.53-69.33,10.18-85.72,4S365.51,603.71,352,586.6s-36.35-59.15-44.19-82.67S293.53,447.62,293.53,447.62Z"/><path class="cls-5" d="M440.35,424.81c-6.88-.8-7.77-2.63-12.52-4.65-4.76-1.52-6.59-1.55-10.42-.2a48.17,48.17,0,0,0-11.81-1.16,5,5,0,0,1-.75-10c.47,0,11.55-.82,20.48,3.41a28.08,28.08,0,0,1,6.79,4.6c2.3,2,3.45,3,8.23,3,8.06,0,11.2-1.72,15.17-3.9a41,41,0,0,1,11.54-4.64c13.27-3,19.37,1.37,20.45,2.29a4.28,4.28,0,0,1,0,5.72c-2.47,3.15-6.43,1.93-6.43,1.93a1.5,1.5,0,0,0,.19.15s-2.88-1.36-8-1c-1.33.1-2.1-2.05-8.75-1.11C457.36,420.39,451,424.81,440.35,424.81Z"/><path class="cls-6" d="M293.53,447.62s42.05,77.69,47.75,78.4-13.54-37.06-2.85-57.73,20-31.36,36.35-31.36,28.51-9.26,39.91-15.68,16.39,2.85,25.66,3.56,18.53-5.92,27.8-5.81,26.37,21.49,40.62,20.78,39.91,22,38.49,32.74-2.85,24.28-5.7,31.41-1.32,22.09,5.75,14.25,19-23.41,27.53-29.79,20.88-15.82,26.59-34.35,7.12-29.23,7.12-29.23V457.6s-9.11,56.31-27.36,84.1-65.8,75.84-84.34,86.53-69.33,10.18-85.72,4S365.51,603.71,352,586.6s-36.35-59.15-44.19-82.67S293.53,447.62,293.53,447.62Z"/><path class="cls-7" d="M367.43,475.73c10.42-2.16,37-13.91,47.24-14.28s9.89,4.76,20.14,3.66,14.65-6.22,26-5.86,37.35,21,56,21.84-9.52,18.81-15,22.48-30.39,24.53-63,22.7S380.25,498.53,377,492.81,360.27,477.22,367.43,475.73Z"/><path class="cls-8" d="M390.31,478.28a113.69,113.69,0,0,1,26.19-1.08c14.29,1.1,20.88,2.56,39.19,2.2s21.65,3.1,28.61,4.93,1.29,8.48-5.91,11.91c-3.92,1.87-7.55.57-11.38,1.44a78,78,0,0,1-9,1.72c-8.28,1.09-13.91.07-20.61-.52-4.74-.42-12-.83-16.59-2.46-7.4-2.65-16.31-3.92-22.66-6.69C387.94,485.26,384.45,481.57,390.31,478.28Z"/><path class="cls-2" d="M383.17,300.73a15.78,15.78,0,0,1-4.63,11.19c-2.86,2.86-19.51,2.86-22.37,0a15.82,15.82,0,1,1,27-11.19Z"/><path class="cls-2" d="M544.12,302.78A15.83,15.83,0,0,1,535,317.14c-2,.94-11.63.86-13.76-.22a15.82,15.82,0,1,1,22.93-14.14Z"/><path class="cls-9" d="M324.46,305.93s11.45-24.42,46-19c26,4.1,31.48,17.81,31.48,17.81"/><path class="cls-9" d="M493.7,307.68s8.48-16.62,34.6-16.49c30.44.17,41.44,19.4,41.44,19.4"/><path class="cls-10" d="M286.1,376.23s-1.8-46.23,4.5-58.44,7.65-28,7.2-41,9.45-20.25,8.55-33.75-6.3-27,6.3-55.8,22.86-43.2,38.88-55.35,43.92-16.2,74.52-6.3,64.81,26.55,78.76,24.3,33.17-6.75,39.31-1.35,7.94,12.15,7.94,2.7,2.7-11.25,9.9-.9,18.9,25.65,22.95,46.8,11.25,48.15,12.6,67.95,2.7,41.08,7.2,52.72,9.45,29.19,7.65,41.79-4,34.65-3.81,40.95,6.51-13.5,7.41-23.85,5.4-22.95,9.45-39.15,11.71-51.31,11.71-63.91-12.61-61.2-16.66-77.4-25.65-58.05-38.25-71.55S547,76.57,531.72,70.72,514.19,46.57,484.3,40.27c-26.43-5.56-66.6-.76-82.35,7.34s-55,31.86-66.26,46.26S300.05,144,293.75,159.32s-14.4,64.8-18.9,91.35-7.2,39-5.4,55.26,2.7,34.3,6.75,39.7c2.16,2.88,3.72,18.39,5.75,25.71C283.71,377.74,286.1,376.23,286.1,376.23Z"/><path class="cls-10" d="M303.84,276.93c13.55-8.67,24.12-9.73,36.81-13.54s26.23-.42,36.81,2.54,27.49,14.81,34.69,8.89,2.11-15.66-3.39-19.89-18.61-15.65-30.46-16.08-30,0-38.08,3-17.34,3.38-24.11,8.88-15.65,17.35-14.81,19.46S298.88,280.1,303.84,276.93Z"/><path class="cls-10" d="M482,260.45c8.06-9.29,17.35-16.52,27.5-16.94s37.66.84,51.2,0,29.61,15.23,30.88,19,8,13,9.31,18.55,5.5,26.29,0,17.62-28.35-22.21-40.62-24.33-33-6.24-44.84-2.27-24.51,4.91-31.08,0C481.23,269.82,478.93,263.93,482,260.45Z"/><path class="cls-2" d="M369.83,476.89c-1.67-3.64,24.23,1.17,22.16,1.12-1,0-2.8,4.54-1.25,7.81C388.66,486.06,372.07,481.77,369.83,476.89Z"/><path class="cls-2" d="M483.53,484.12c1.37.63.54,8.48-.84,9.56s17.63-3.8,19.82-6.28-12.57-1.71-13.79-2.14S483.53,484.12,483.53,484.12Z"/></g></svg>