<svg xmlns="http://www.w3.org/2000/svg" viewBox="0 0 864 864"><defs><style>.cls-1{fill:#5f474e;}.cls-2{fill:#fff;}.cls-3{fill:#3fdfc4;}.cls-4{fill:#444;}.cls-5{fill:#d6b5a7;}.cls-6{fill:#c99795;}.cls-7{fill:#211e1f;}.cls-8{fill:#635049;}.cls-9{fill:#999;}.cls-10{fill:#34514d;}.cls-11{fill:none;stroke:#211e1f;stroke-linecap:round;stroke-miterlimit:10;stroke-width:9px;}</style></defs><g id="Chocolate_BG" data-name="Chocolate BG"><rect class="cls-1" x="-1.49" y="0.19" width="864" height="864"/></g><g id="White"><rect class="cls-2" x="-1.49" y="0.19" width="864" height="864"/></g><g id="Truffle-light"><rect class="cls-3" width="864" height="864"/></g><g id="Layer_54" data-name="Layer 54"><path class="cls-4" d="M303.5,595s-14.55,4.79-71.4,24-106,33.64-152.73,43.79-65.84,42.5-80.86,61.68c.09,19.09,0,139.75,0,139.75h864S864,758,864,716.49c0-36.69-145-65-207.24-86.93-23.5-8.28-85-35.76-102.25-34.56S303.5,595,303.5,595Z"/><path class="cls-5" d="M309.55,578.9s-15.46,82-.31,106.5,44,43.63,90.91,44.18,111.11-2.33,130.59-16.76,29.85-26.7,33.32-49.06,0-67,0-67Z"/><path class="cls-5" d="M256,278.64c-2,29.87-5.51,27.44-9.51,25.44s-12,.5-13,11.5-2.5,20.51,0,28.51.5,7.5,4,20,12.5,24,14.5,33.51,16.5,63,17,73.52,47,123.52,47,123.52l59,56h99l75-65.52,50.51-71s15-98.39,19.5-104.21,17-25.32,21.51-34.82,8-31,4-39-11-15.51-17.51-12-7-61.52-7-67.52a246.78,246.78,0,0,0-6.85-53.86C600,146.86,520.29,64.12,448.51,64s-151,64-173.34,124.61A339.13,339.13,0,0,0,256,278.64Z"/><path class="cls-6" d="M363.85,478.38s1.29,12.81,8.95,19.36,19.88,22.63,41.95,26.09c13.14,2.06,40.43,4,60.55-2.49,18.79-6.08,38-31,38.9-34.52s-15.3-13.42-36.72-11.52S377.84,467.75,363.85,478.38Z"/><path class="cls-7" d="M370.77,481.7s3.67,8.14,21.31,14.42c31.2,11.12,63.72,7.07,82.89,3.4,14.76-2.82,26.22-6.54,28.8-14.34S370.77,481.7,370.77,481.7Z"/><path class="cls-2" d="M372.8,479.42s3.34,8.34,15.44,12.51,28,10.85,45.72,10.85a148.83,148.83,0,0,0,45.25-6.67c13.77-4.18,20-6.91,22.53-13.68S372.8,479.42,372.8,479.42Z"/><path class="cls-8" d="M616.39,369.47s-2.15,22.29-5.48,50.95-24.66,88-40,95.31-22-9.33-24-20-28.66-46-40.66-54-30.81-17.06-38.43-9.56c-12.91,12.69-34.14,13.89-44.44,6.53-24.42-17.45-31.76-7.64-45.09-2.19s-41.33,20.55-48,38.77,1.33,40.43-10.66,40.43-32-27.33-44-50.66-12-70.64-15.33-107.74c0,0-16.66,57.09-16.66,74.86S249,493.73,253,511.06s26,61.32,36.65,82,50.66,68.65,80,90,94.64,16.66,114,8.66,63.32-52.65,82-74.65,35.32-66.65,42.66-82.64,16-75.31,16-97S616.39,369.47,616.39,369.47ZM505.12,551.35C494.53,556.64,486,537.5,480.68,533s-19.95,1.63-41.48,2-52.19-7.33-56.26-.41-15.48,16.7-22,5.7-9.23-49.44,3.66-57c6.92-4.07,65.16,6.93,74.59,6.93s41.48-4.48,52.48-6.93,22.4,8.15,26.06,22S515.71,546.05,505.12,551.35Z"/><path class="cls-8" d="M489.66,279.26c13.5-8.37,34.83-17.69,67.95-3.26,38,16.59,42,24.77,29.07,18.65-19.75-9.39-61.65-14.5-80.73-11S489.66,279.26,489.66,279.26Z"/><path class="cls-8" d="M382,282.48c17.5,3.94,26.14-3.69,10.36-10.29S361.82,263,331.24,275s-41.42,22-27.61,17.51S346,274.39,382,282.48Z"/><path class="cls-7" d="M641.47,290.22a239,239,0,0,0-46-10.73c-21.44-2.61-52-3.92-64.59-3.66s-40.8,4.45-53.35,6.8S455,285.25,441.15,285s-51.26-10.46-57.53-11.25-49.43-4.18-64.33-4.71-39.23,2.1-48.91,3.66-22.49,4.71-22.49,4.71c-1.83,3.14-1.83,18.31,0,20.66s7.85,3.4,8.37,9.68,10.46,50.21,16.48,58.05,12.09,16.4,31.9,20.14c9.29,1.75,42,6.29,59.63,3.92,14-1.89,26-4.52,35.47-14.47,8.55-9,14.74-18.74,18.14-28.42s9.42-37.39,14.12-40.27,20.92-2.09,23.27.52,7.85,29,11.25,39,6.62,24.9,19.61,36.35,38.45,14,48.64,14.38c16.83.71,38.18-.26,49.16-3.92s24.33-8.37,29.29-21.71,13.34-46.28,15.69-50.47,8.63-8.37,10.46-9.41S645.65,291.78,641.47,290.22ZM415.12,336c-3.95,14.22-10.07,28.48-21,37.64-7.12,5.94-26.41,13.33-45.24,12.29s-49.69-5.49-56.75-9.15S274.31,363.44,270.38,342s-7.32-35-3.66-45.24a30.67,30.67,0,0,1,12.56-15.16c12.55-5,23.27-7.59,38.44-7.06s36.61,1,46.55,2.35,27.72,3.4,38.18,8.89,15.95,12,15.95,16.21S419.91,318.74,415.12,336Zm206.57-18.73c-.67,11-5,36.82-14.73,52.22s-23.43,18.74-30.8,20.08-34.14,4.69-52.55,1.67-31.3-8.86-39.16-18.74-13.73-32.29-15.07-42.26-2.68-23,0-29.38c0,0,6.36-9.37,13.73-11.38s29.79-7,43.18-7,44.18-.67,59.58,2.35,27.45,8.36,29.46,11.71S622.36,306.22,621.69,317.27Z"/><path class="cls-9" d="M349.64,556.43c8.3,27.69,22.7,25.47,30.45,42.09s9.58,39.35,14.92,52.77c6.78,17.05,72.57,27.44,79-.63,8.59-37.43-.08-44.17,23.06-58.37,31.38-19.25,23.12-33.09,28.1-35.86s18.36,11.46,23.86,28.71,8.9,36.12,0,50.22-34.68,40.13-47.27,49-53.56,21-76.82,18.28S364,689.34,331.36,654.45,349.64,556.43,349.64,556.43Z"/><circle class="cls-9" cx="257.25" cy="283.66" r="2.76"/><circle class="cls-9" cx="257.25" cy="293.06" r="2.76"/><circle class="cls-9" cx="626.04" cy="299.51" r="2.95"/><circle class="cls-9" cx="632.5" cy="304.45" r="2.82"/><circle class="cls-9" cx="633.44" cy="295.4" r="2.82"/><path class="cls-10" d="M378.3,318a14.76,14.76,0,0,1-2.53,8.29c-2.67,3.94-22.6,3.54-25.16-.92A14.83,14.83,0,1,1,378.3,318Z"/><path class="cls-10" d="M541.42,319.08a14.61,14.61,0,0,1-4.06,10.14c-1.6,1.16-20.34.07-23.89-3.74-1.46-1.58-1.46-4.11-1.46-6.4a14.71,14.71,0,1,1,29.41,0Z"/><path class="cls-11" d="M318.59,321.55s18.17-18.5,45.17-17.1,36.92,14.65,36.92,14.65"/><path class="cls-11" d="M495.8,321.55s5-16.46,34-14.45S568,325.48,568,325.48"/></g></svg> 