<svg xmlns="http://www.w3.org/2000/svg" xmlns:xlink="http://www.w3.org/1999/xlink" viewBox="0 0 864 864"><defs><style>.cls-1{fill:#3fe0c5;}.cls-2{fill:url(#radial-gradient);}.cls-3{fill:#e9d0c0;}.cls-4{fill:#4d686d;}.cls-5{fill:#c1a897;}.cls-6{fill:#d6b5a7;}.cls-14,.cls-7{fill:none;stroke-linecap:round;stroke-miterlimit:10;}.cls-7{stroke:#494544;stroke-width:13px;}.cls-8{fill:#c69f95;}.cls-9{fill:#fff;}.cls-10{fill:#89715f;}.cls-11{fill:#003d5f;}.cls-12{fill:#a08672;}.cls-13{fill:#967a63;}.cls-14{stroke:#766362;stroke-width:10px;opacity:0.42;}</style><radialGradient id="radial-gradient" cx="409.89" cy="605.31" fy="511.16158412744227" r="166.07" gradientUnits="userSpaceOnUse"><stop offset="0.19" stop-color="#5f4536"/><stop offset="0.42" stop-color="#866d5d"/><stop offset="0.95" stop-color="#e9d0c0"/></radialGradient></defs><title>david-truffle-bg</title><g id="Truffle-light"><rect class="cls-1" width="864" height="864"/></g><g id="David"><path class="cls-2" d="M218.3,756.16c45.38-44.58,79.6-88.36,75.62-130.55S282,543.62,282,533.28s286.57-38.21,282.59-11.15S548.38,649.05,555,677.35,598,741,598,741L536.71,864h-234Z"/><path class="cls-3" d="M252.6,466.67c.75,15.86,17,80.85,54.77,118.62s91,67.2,124.63,64.94,93.29-51.37,108.4-68.74,37-42.3,40.79-66.48,3-68,5.29-74,6.19,15.64,20.55,1.29,16.73-33.19,16.18-46.9-1.37-36.76,1.37-48.55,0-29.08-5.21-29.63-16.18,10.15-17.28,17-5.49-90-5.49-90l-25-76.53-79.55-49.93L291,141.92,244.67,354s-12.34-19.75-22.49-25.51-22.22-3.29-24.41,7.68-3.57,39.22,1.64,55.41-.82,26.06,9.05,40.46,21.95,25.92,30.73,23.72,9.32-5.76,10.42-3.84S252.6,466.67,252.6,466.67Z"/><path class="cls-4" d="M367.27,352a14.09,14.09,0,0,1-4.07,9.94c-4.61.24-15.33.49-20.14.09a14.18,14.18,0,1,1,24.21-10Z"/><path class="cls-4" d="M519.48,352c0,2.94-.87,6.91-2.39,9.18-7.55.1-15.52.07-22.72-.14-2.57-2.57-3.25-5.12-3.25-9a14.18,14.18,0,0,1,28.36,0Z"/><path class="cls-5" d="M249,382.09l3.61,84.58s6,73.6,62.86,126.36,101.1,57.62,113.64,57.31S496,635.4,552.2,567.68c35.85-42,32.19-68.25,32.88-113.29a424.66,424.66,0,0,1,10.43-84.53l-5.41-.94s-8.21,68-28.74,119.21c-6.84,17.08-11,24.93-29.17,42s-16.42-25.66-22.43-46.84-65.66-8.29-78.1-8.72c-56.55-2-61.94-4.16-82.45,5.45s6.53,80.74-33.86,36.3c-8.33-9.18-15.16-17.34-19.49-23.68-25.3-37.07-30.77-61.46-32.76-76.34S249,375.52,249,375.52Z"/><path class="cls-6" d="M357.66,531.73c1.16,25.45,29.55,59.52,71.44,58.9s71.67-31.63,71.45-58.9,0-28.31,0-28.31l-142.46-1S356.82,513.24,357.66,531.73Z"/><path class="cls-7" d="M318.46,356.59s9.41-17.23,36.32-17.23,38.54,17.23,38.54,17.23"/><path class="cls-7" d="M470.81,354s2.07-16.15,34.49-16.15S541.71,354,541.71,354"/><path class="cls-8" d="M357.86,504.47c-2.87-5.74,24.84-13.8,74.14-11.19,11.48.61,21.81-1.14,30.34-.5,28.1,2.09,40,7,38,11.69-2.69,6.18-17.9,37.67-34.68,44.75s-48.48,8.95-67.5-2.24S360.47,509.69,357.86,504.47Z"/><path class="cls-9" d="M378,503.81c3.19-2.32,12-3,23.74-2.13,17.74,1.31,39.16.95,52-.36s22.48.62,26.33,3.19c2.36,4,1.55,10.49-.86,14.34-4.06,3.42-26.21,13.69-47.18,12.83s-45.7-8.4-52.33-14.72A38.87,38.87,0,0,1,378,503.81Z"/><path class="cls-10" d="M254.07,390.64c6.8,0-9.85-67.3,9.85-92.74s27-33.24,22.76-45.55c-14.77-27.91-8.74-36.37,8.17-51.14s52.78-24,103.67-24,136.22-.38,160.06,16.81-3.83,30,1.57,56.27c1.85,9,24,12,25.22,21,4.92,35.29-2.11,107.79,4.64,108.75s3.08-8.07,13.5-54c3.38-14.89,9.24-74.15,7.59-93s-1.64-41-14-67.3c-3.39-7.24-7.78-15.66-13-24.44-3.1-5.2-13.82-11-17.63-9.62,1.14-3.81.8-15.63-2.84-20.17C553.38,98.65,541.63,87.06,529,79.57c-21.33-12.68-60.8-35.43-108.32-39.06,16,3.83,31.22,11.91,26.29,11.27-25.63-10-46-7.13-53-6.65-56.15,3.76-102,22.44-111.7,37C294,72,308.75,67.73,323.69,70.87,309.42,73.28,294.86,78,271.3,95.16S210.2,152.49,205,191.81c5.18-14.07,11-20.1,17-21.9C215,184.84,204.26,199,208.1,224c4.93,32,12.2,94,27.79,116.1C245.84,359.46,247.26,390.64,254.07,390.64Z"/><path class="cls-11" d="M0,864c68.69-32,176.21-103.3,185.87-109.34s42.28-14.5,61.61,0S448,864,467.34,864s73.69-53.77,80.94-82.76,8.45-93,21.74-78.53S739.89,812.65,807.17,823.52c25,4,49.36,13.8,57.42,20.53,13.62,11.39-.59,20-.59,20Z"/><path class="cls-12" d="M345.19,102.93c13.13.16,56.63-35.78,166.61,5.37-71.12-18.24-112.48-3.3-107.88-3,45.15,3.41,92.26,11.29,107,29.19,21.68,26.3,25,50,25,50l30.62-52.82s-39.2-47.59-104.75-54S375.84,88.55,345.19,102.93Z"/><path class="cls-12" d="M506,180.64S484.62,132.73,413.42,124s-123.71,26.86-115.37,23.93c32.23-11.32,78-19.32,115.37-4.6s47.5,34.57,47.5,34.57Z"/><path class="cls-13" d="M301.83,344.78c10.84-3.77,21-16.24,38.56-15.56s44,0,54.11,5.07,5.75-3,0-8.79-31.45-6.77-39.57-6.09-34.5-1-42.62,3.38-13.53,13.87-13.86,17.59S298.35,346,301.83,344.78Z"/><path class="cls-13" d="M561.55,342.58c-10.85-3.76-21-16.24-38.56-15.56s-44,0-54.12,5.07-5.75-3,0-8.79,31.46-6.76,39.57-6.09,34.5-1,42.62,3.38,13.53,13.87,13.87,17.59S565,343.79,561.55,342.58Z"/><path class="cls-14" d="M398.78,452.12s3.1,2.47,12,2.39,5.49,13,21.26,13,12-12.86,22.49-12.69c8.47.14,10-1.63,10-1.63"/></g></svg>