<svg xmlns="http://www.w3.org/2000/svg" xmlns:xlink="http://www.w3.org/1999/xlink" viewBox="0 0 863.24 863.24"><defs><style>.cls-1{fill:#fff;}.cls-2{fill:#3fe0c5;}.cls-3{fill:url(#radial-gradient);}.cls-4{fill:#878787;}.cls-5{fill:#ccaf9b;}.cls-6{fill:#c19a91;}.cls-7,.cls-9{fill:#473939;}.cls-10,.cls-8{fill:none;stroke-linecap:round;stroke-miterlimit:10;}.cls-8{stroke:#634d4c;stroke-width:10px;opacity:0.42;}.cls-9{opacity:0.85;}.cls-10{stroke:#493e3e;stroke-width:12px;}</style><radialGradient id="radial-gradient" cx="427.03" cy="622.6" fx="468.5287526810218" fy="501.5250308995255" r="263.02" gradientUnits="userSpaceOnUse"><stop offset="0.03" stop-color="#5f4536"/><stop offset="0.37" stop-color="#876c5b"/><stop offset="0.9" stop-color="#ccaf9b"/></radialGradient></defs><title>dc-white</title><g id="White"><rect class="cls-1" width="864" height="864"/></g><g id="Truffle-light"><rect class="cls-2" width="864" height="864"/></g><g id="DC"><path class="cls-3" d="M266.51,718.94c36-18,49.9-13.31,48.37-36.14-1.88-28-6.74-87.13-8.15-104.74s106.53,15.19,106.53,15.19l173-49.89s14.33,112.51,34.5,136.93-54.14,129.49-54.14,129.49L445.37,846.4,270,831l-13.8-51Z"/><path class="cls-1" d="M266.8,751.28c9.38,36.62,28.93,74.13,121.16,71.79s156.33-39.86,179-62.53,37-59,46.66-92.14c-3.34-6.95-10.76-31.77-11.94-39.26-1.83-7.86-5.71-17.46-5.32-24.41,1.52-26.68,24-17.71,51.89,21.35,7.2,10,56.28,97.74,56.28,97.74L688.12,876.48H249.61Z"/><path class="cls-4" d="M-10.06,750.31c57.61-31.23,202.54-65,215-75s79.17-36.76,85-38.73,16.53-4.08,21.05-5.55c1,6.61,3.1,21.26,2.94,27.84-.24,10.17,4.56,34.32-2.26,38.66-8.11,8.65-23.71,11.48-28,13.64-9.56,26.09-18.21,53-17.48,77.84,1.25,42.49,0,87.44,0,87.44H-10.06Z"/><path class="cls-4" d="M588.47,560.64c29.71,6.25,58.7,28.81,107.46,65.44,43,21.29,168.07,62,168.07,62v181l-190-2.61s24.23-69.2,15.63-119.23-62.45-124-81.29-132.1c-7.15-5.64-10.09-8.74-12-10.42-2.06-7-9.9-56.61-9.9-56.61Z"/><path class="cls-5" d="M217.65,356.11c-6,23.43-1.34,71,6,91.05s16,29.45,25.73,25.43,10.42-12,9.75,10.05-3.34,73,16.74,89.7,54.89,48,64.93,63.59,29.46,38.16,46.19,38.83,48.32,7,62.93,0c26.92-12.85,46.22-38.79,68.85-56.23s38.93-30.79,53-42.84,30.39-27.23,27.71-62c-.56-7.25-1.15-50.32-4.84-59.14,3,3.4,26.34,3.54,31.28-11.6,3.79-11.59.25-28.4-9.1-35.88s-18.79,2-18.6-3.9c.67-20.75-2.69-44.39,1.33-71.84s-10.37-149.9-10.37-149.9l-64.93-40.16L353.54,119.14l-75,50.87Z"/><path class="cls-6" d="M341.05,520.55c0,12.63,30.52,46.83,50,52.62s56.25,5.79,67.86,0,33.71-20.31,39-34.62,14.73-28-8.42-26.95-43.05,3.29-68.83,2.24-76.41-9.09-79.57.39C339.1,520.08,341.05,520.55,341.05,520.55Z"/><path class="cls-7" d="M343.73,246.73c-16.7,41.1-66.91,107.81-94.12,115.65s-27,53.21-29.76,69.24c-4.75.38-9,1.95-14.22,3.86-4.08,1.51-9.25.25-16.13-5.5-18.81-13.22-22.31-36.91-30.68-58.39s-15-60.95-13.66-65.51c.66.87,2.08,3.61,4,3.77-7.88-3.32-2.54-33.9-1.63-37.66,1.89,2.16,2.49,2.81,3.38,2.34-8.3-9.1.86-26,3.25-31.55.23,2.82,1,4.46,4.84,10.28-1.24-3.53-5.91-12.95.46-26.78,9.44-20.52,32-42.1,40.33-59.9,14-29.77,67.19-49.87,89.59-76.49C324.79,47.16,390.14,38.6,414.16,54.35c29.58-35.46,59.08-19.1,85.91-15.51,39.17,5.22,78.6,28.25,101.25,54.38S660.48,130,674,183.68s27.82,61.13,30.67,74.37c.58,2.71,1.79,3.34,3.65,5.12,8.26,12.42-.22,43-4.2,58.32-1.29,5,1.4,1.58,3.16-1.49,2.74,11,.08,33.92-2.6,44.3-.36,3.62,1.34,5,2-.19-.06,20.16-14.16,37.55-22.55,49.53s-5.35,27.52-18.41,36.23-34,16.17-39.66,8.33c-2.82-3.92-30.52-10.67-33.52-24.39s3.94-50.29-6.15-65.33c-13.73-20.47,1.23-37.11-12.05-69.76-7.22-17.76-4.74-63.56-11.48-90.43-6.82-16.86-14.79-14.58-35.17-29.06s-81.51-9.36-104.59-7.61c-18.66,1.41-20.78-2.46-32.53-3.47-3-.08-19.52-1-22.16-.72C333.64,170.91,360.66,205.08,343.73,246.73Z"/><path class="cls-1" d="M357.28,518.92c-2.22,2.26,5,28.31,22,29.73s62.36,7.08,79.67,0,26.52-10.62,27.93-19.11-.41-8.5-9.76-7.79-45.65.7-58.39.7S359.51,516.66,357.28,518.92Z"/><path class="cls-8" d="M384.25,479.17a26.08,26.08,0,0,1,14,2.42c7.66,3.5,15.66,8.48,22.36,8.48,6.18,0,14.38-4.52,19.58-7s15.69-2,15.69-2"/><path class="cls-9" d="M298.12,344c12.17-4.32,24.74-13,40.45-11s33.78,10.21,43.2,7.46-.78-14.92-7.46-14.92-28.67-6.68-40.06-4.72-25.53,7.89-28.67,11.41S298.12,344,298.12,344Z"/><path class="cls-9" d="M463.86,329.81c.39,8.24,6.28,7.46,18.46,5.5s36.52-2.51,43.59,1.29,14.53,3.42,20,7.35,3.14-8.64-9.42-14.14-24.75-9.76-34.57-9.4-29.11,1.33-33.05,2.16S463.86,329.81,463.86,329.81Z"/><path class="cls-7" d="M360.45,360.21a13.42,13.42,0,0,1-5.17,10.6c-2.28,1.78-14.85,1.55-17.23-.57a13.45,13.45,0,1,1,22.4-10Z"/><path class="cls-7" d="M512.9,360.21a13.65,13.65,0,0,1-3.93,9.6c-2.49,2.54-17.51,2.34-20-.48a13.71,13.71,0,1,1,23.95-9.12Z"/><path class="cls-10" d="M308.44,363.3s19.07-17.72,38.57-16.54S385.58,366,385.58,366"/><path class="cls-10" d="M461.5,363.3s20.16-17.72,39.66-16.54S538.65,366,538.65,366"/></g></svg>