<svg xmlns="http://www.w3.org/2000/svg" viewBox="0 0 864 864"><defs><style>.cls-1{fill:#5f474e;}.cls-2{fill:#fff;}.cls-3{fill:#3fdfc4;}.cls-4{fill:#001847;}.cls-5{fill:#ce9785;}.cls-6{fill:#d8a58f;}.cls-7{fill:#211e1f;}.cls-12,.cls-8{fill:none;stroke-miterlimit:10;}.cls-8{stroke:#211e1f;stroke-width:3px;}.cls-9{fill:#845e55;}.cls-10{fill:#9a6458;}.cls-11{fill:#231f20;}.cls-12{stroke:#231f20;stroke-linecap:round;stroke-width:8px;}.cls-13{fill:#7f645d;}</style></defs><g id="Chocolate_BG" data-name="Chocolate BG"><rect class="cls-1" x="-1.57" y="-0.77" width="864" height="864"/></g><g id="White"><rect class="cls-2" x="3.69" y="-0.77" width="864" height="864"/></g><g id="Truffle-light"><rect class="cls-3" x="-2.5" y="-1.39" width="869" height="866.77"/></g><g id="Dongming_Hwang" data-name="Dongming Hwang"><path class="cls-4" d="M-14.06,872.57s15.91-47.75,46.52-83.26,56.33-53.87,162.85-91.83,122.44-44.07,121.21-52.65,4.9-44.07,14.69-52.64,229-35.51,238.76-29.39,27.59,38.13,35.7,75c33.06,9.79,107.55,31.52,144.28,43.77s133.95,60,142.28,73.46,0,141.47,0,141.47H-20.85Z"/><path class="cls-5" d="M328.78,522.2s2.93,66.44,7.81,93.8,8.8,44,8.8,44,21.51,23.52,22.48,32.74-1.45,27.67,7.28,30.1,19.42,7.28,31.07,16.5S429.62,747.56,432,768s17.42,53.88,19.85,57.28,10.68-26.7,10.68-37.86,38.83-17.48,49.51-25.73,25.25-7.28,30.59-24.76,28.15-37.37,35.92-45.14,13.59-7.77,13.59-21.84-18.45-51.46-19.42-73.3-10.19-99.52-4.85-137.86S328.78,522.2,328.78,522.2Z"/><path class="cls-6" d="M260.89,340.55c-10,5.52-13.55,13.05-10.54,26.6s4,26.09,4.75,32.61,1.78,23.47,8.8,31.31,5,17.68,10.49,30,8.09,14.69,10.08,8.92c1.76,15.24,18.14,52.74,21.49,56.29s19.34,22.82,54,39.92,56.59,26.46,86.71,24S545.14,556.46,558.17,539s28.72-39.08,34.31-60.66,8.84-33.83,8.84-38.49,4.48.22,7.33-8.73,10.18-21.58,10.58-32.16,3.26-22,5.3-30.94-1.23-33.79-5.7-39.09-9.77-3.66-11.4-13.43-19.14-120.91-25.65-129-34.2-59-57-63.1-112.77-7.74-131.5,0-107.47,12.62-113.58,93.22S260.89,340.55,260.89,340.55Z"/><path class="cls-7" d="M241.35,205.6c-2.48,14.41-7.53,51.92,0,80.86s12.46,59.05,13.93,57.86,7.08-4.29,11,0,8.33,7.55,5.16,10.5-6.35,8.09-6,17.21,4.56,23,7,27.35-.7-7.93,2.08-23,8.32-21,7.92-32.5-1.19-68.17,5.95-91.16S310.71,200.45,329,185s33.29-34.09,61-35.67,55.09-4,78.08-2,58.66,10.3,68.57,31.31,25.76,42.81,27,63.81,5.15,38.84,9.91,46.38,7.53,25.36,10.3,31.7,4.76,17,6.34,20.61,7.54,34.88,7.54,45.19,3.17,23.38,4.75,17,1.19-46,0-52.32-7-15-4.6-19.39,9.63-3.78,12.21-6.36,7.91-18.91,9.28-23.9,11-75.26-3.46-105.57-25-49.64-34.7-58.86c-2.67-2.56-6.79-2.17-8.63-4.81-2.29-3.28-2.15-9.58-4.12-12.61a35.69,35.69,0,0,0-7.67-8.94c-3-2.35-15-11-21.55-12.16,4,4.42.9,7.11,0,6.27-3.4-1.74-.74-6.64-13.37-14.75-8.27-5.31-38.66-25.92-56.23-29.43,6.59,8.34,5.37,13,.88,7-3.79-5-33.08-12.19-52.45-7-3.32.88,14.47,1.66,12.41,3.69-17.32-1.42-46.85,5.46-72,14.32-61.06,21.52-72,44.8-84.78,60.61S243.39,193.79,241.35,205.6Z"/><path class="cls-8" d="M298.14,336.28c4-11.41,21.82-22.22,55.49-24.73,20.84-1.55,37.29,3.36,39.91,4.48s14.16,6.08,16,14.92,2.61,22-4.1,33.19S386.82,385,376.75,387.27s-28.72,4.48-42.52,3-21.51-6.44-27.6-11.19S292.88,351.46,298.14,336.28Z"/><path class="cls-8" d="M454.09,328.79q-24.72-9.66-44.52,2.16"/><path class="cls-8" d="M566,325.69s-3.1-22.44-58.95-19.1-53.47,20.53-54.18,27.93,2.14,36.75,28.64,46.3,70.41-1.43,77.09-9.55S569.85,352.9,566,325.69Z"/><path class="cls-7" d="M287.7,335.3l-19.31,9.85s3.78,4.59,3.71,5.85c7-3.47,6.48-8.32,15.6-8.75s8.65,1.69,10.44-6A72.86,72.86,0,0,1,287.7,335.3Z"/><path class="cls-7" d="M577.28,324.44l20.28,3.25L596,334.35s-14.75-1.32-17.39-2.11-11.17,1.06-11.17,1.06L566,325.69Z"/><path class="cls-9" d="M390,416.21c10.94-4.72,17.24,3.44,31.22,9.51,13.05,5.65,27.09-1.19,32.9-6,6.37-5.29,29.29-6.6,22.72,0s-36.37,9.05-44.81,9.94S373.88,423.13,390,416.21Z"/><path class="cls-10" d="M365,472.82s28.09-17.65,45.89-18,22,1.43,26.67,1.43,13-3.6,22.92-3.18,50.13,7,49.65,10.72-20.05,43.59-67.62,42.06S364.21,480.49,365,472.82Z"/><path class="cls-7" d="M392.55,469.42s-18.45.17-21.79,4.45,15.59,3.66,15.59,3.66,86.47,5,110-2.58a13.42,13.42,0,0,0,4.72-3c3.69-4.87-4.72-5-4.72-5Z"/><path class="cls-2" d="M378.3,470.58v4.23a2.85,2.85,0,0,0,2.28,2.8c9,1.87,42.42,8.53,57,7.91,14.13-.61,45.73-7.59,55.71-9.86a4,4,0,0,0,3.07-3.86v-4.86s-41.79-1.8-58.78-1.82C403.07,465.08,378.3,470.58,378.3,470.58Z"/><path class="cls-11" d="M511.1,325.68a11.4,11.4,0,0,1-1.22,5.15c-5.52,2.11-13.88,1.48-19.6,1.47a11.46,11.46,0,1,1,20.82-6.62Z"/><path class="cls-11" d="M376,333.58a13.42,13.42,0,0,1-2.16,7.33c-4.18,0-16.34,0-22.51.21a13.5,13.5,0,0,1,1.27-16.68c2.47-2.67,16.62-3,19-.81A13.41,13.41,0,0,1,376,333.58Z"/><path class="cls-12" d="M335.41,338s3-7.66,22.74-12.27c19.24-4.5,29.37,4,31.13,9.62"/><path class="cls-12" d="M532.56,331.65c-2.31-1.79-14.45-11.49-29.34-13.11-29.36-3.19-33,12.41-33,12.41"/><path class="cls-13" d="M323.47,306.25s27.39-16.89,37-19.74c6-1.78,25.15-3.25,34.77-2,5.77.74,7.24,5.39,16,14,3.94,3.89-12,1.86-20.65.92C357.28,295.85,312.29,313.64,323.47,306.25Z"/><path class="cls-13" d="M454.67,293.33c-5.61,4.95-.09,5.9,11.11,5.9s36.05-4.21,60.22,0c24.61,4.29,12.89,1.08-7.47-8.86-17.41-8.49-28.6-8.47-51.12-8.07C465.11,282.34,460.27,288.38,454.67,293.33Z"/></g></svg>