<svg xmlns="http://www.w3.org/2000/svg" xmlns:xlink="http://www.w3.org/1999/xlink" viewBox="0 0 864 864"><defs><style>.cls-1{fill:#3fe0c5;}.cls-2{fill:#79b858;}.cls-3{fill:url(#radial-gradient);}.cls-4{fill:#e9d0c0;}.cls-5{fill:#3a241e;}.cls-6,.cls-9{fill:none;stroke-linecap:round;stroke-miterlimit:10;}.cls-6{stroke:#261e1b;stroke-width:12px;}.cls-7{fill:#4c2e24;}.cls-8{fill:#5e3e32;}.cls-9{stroke:#5f474e;stroke-width:10px;opacity:0.42;}.cls-10{fill:#c49d99;}.cls-11{fill:#211e1f;}.cls-12{fill:#fff;}</style><radialGradient id="radial-gradient" cx="438.44" cy="648.22" fx="385.5158121810284" fy="471.4220556838254" r="184.55" gradientUnits="userSpaceOnUse"><stop offset="0" stop-color="#5f474e"/><stop offset="0.17" stop-color="#876e6f"/><stop offset="0.55" stop-color="#e8cfbf"/></radialGradient></defs><title>erin-truffle-bg</title><g id="Truffle-light"><rect class="cls-1" width="864" height="864"/></g><g id="Erin"><path class="cls-2" d="M215.62,648.22s-114-6.51-161.07,52.72S0,771.14,0,771.14V864H864V663.86s-4.42-27.26-56.06-42.17S651.49,583.13,628.7,585.51,530,571.84,530,571.84L253,634.11Z"/><path class="cls-3" d="M312,561.67s-17.16,77.78,3.86,126.83,56.75,107.2,72.87,124.72S414.8,849.66,424.52,849s73.48-43.45,92.4-64.47,45.54-47.64,54.65-70.07,33.64-134.53,33.64-134.53L536.54,459.15l-44.15-11.69L271.67,505.62Z"/><path class="cls-4" d="M306,133.55l-90.39,77.77,20.32,254.36s36.1,42.84,73.5,77.75c22.72,21.21,45.91,39.49,61.78,43.47,42,10.51,105.87-75.28,120.59-86.5s62.24-83.77,62.24-83.77L522.52,208.52,385.41,122.34Z"/><path class="cls-5" d="M322.49,303.18c12.27-2.61,16.6-8.51-5.05-14.36s-53.3-4.37-57.39,0-7.08,8.05,1.48,7.38,39.55,7,50.26,7Z"/><path class="cls-5" d="M391.23,292.82c3.46,7.1,17.12,4.36,34.58,0s36.2-5.79,45.26-6.33S448,274.35,434.53,276,384.52,279.05,391.23,292.82Z"/><path class="cls-5" d="M312,326.07c0,2.48-2.92,7.27-4.67,7.71-1.92,0-14.24,0-16.18,0-1.13-.66-3.32-5.21-3.32-7.71a12.09,12.09,0,0,1,24.17,0Z"/><path class="cls-5" d="M448.69,319.36a10.68,10.68,0,0,1-3.22,8.21c-3.1.61-13.05,1-15.44,1.21-2.58-1.15-5.51-4.73-5.51-9.42a12.09,12.09,0,1,1,24.17,0Z"/><path class="cls-6" d="M268.38,326.21S271.09,312,300,312s32.89,15.77,32.89,15.77"/><path class="cls-6" d="M403.63,322.86s-.28-9.79,23.89-15.24,37.33,7,37.33,7"/><path class="cls-7" d="M348.16,151.33c47.54.77,98.38,67.23,114.94,88.57,5.63,7.25,32.35,42.92,41,72.09,9.23,31,21.77,69.21,21.69,97.49-.06,23.43-8,45.65-12.23,56.71-14.18,37-54.83,76-50.5,99.64s-23.22,70.86,0,105.1a15.67,15.67,0,0,0,8.71,6.44c12.33,4.79-5.31,52.1,10.33,47.81,8.17-28.59,1.69,30.42,13.34,38.16s48.45-17.16,62.13,4.72,15.3-4.11,44.77-10.45S584.05,740.14,627.75,739,646,710.3,649.61,694.54s-23-19.16-10-46.32,33.28-17.44,21.47-44.6-23.62,3.54-11.81-53.14,6-103-16.52-212.32c-26.45-128.5-30.72-146.68-63.79-201S453.26,1.35,393,39.14c-17.75,9.73-45.48-8.93-70.88,8.09s-56.22,20.31-94.77,112S179,319.65,192,402.81,237.6,619,211.57,634.91s-55.68,48.45-41.22,65.8c7.23,8.68-9.29,34.21,18,31.83s16.59,33.39,33.18,26.7c30.82-12.42,51.1,18.56,64.24,17.43,34.45-3,29.93-80.3,31.37-96.21s28.72-44.27,22.42-81.7c-11.57-68.69-75.2-88.94-93.28-195.95-7.84-21.6,5.79-71.59.73-103.4s.08-67.39,18-98S294.36,160.28,348.16,151.33Z"/><path class="cls-8" d="M332.69,153.3c.16-20.16,12.22-112.61,39.7-111.53,3.31.25,4.71.32,8.9.31C363.85,83.08,343.85,136,354,151.75c34-34.91,101.51,39.59,124.06,65.47,10.46,12,42.6,57.4,59.08,126.28,19,79.53,19.78,188.12-15.2,276.26,100.91-217.57,10.86-385.69-25.49-441.47,41.12,39,90.29,150.61,96.76,247.66,4.63,69.46-10.8,107-15.65,168.58-5.64,71.55,16.42,126.25,25.71,126,5-.13,7,35.12,17.84,31.25s16.12-17.75,32.21-5.95-5-27.81-6.45-46.08c0-13-37.69-17-24.7-44.17s60.16-31.09,48.35-58.25-18.32-29.81-19.15-40.52,7.37-109.35-18.56-218.65c-30.29-127.65-30.72-146.68-63.79-201S445.06,2.91,384.84,40.7c-15,5.83-37.28-10.49-62.68,6.53s-56.22,20.31-94.77,112S179,319.65,192,402.81,237.6,619,211.57,634.91s-55.68,48.45-41.22,65.8c2.14,2.56-14.72,18.29,7.54,30.22s20.33,3,31.37,8.08c6.11,2.81,24.36-19.45,55.19-98.11S210,480.4,215.62,362.49,244.52,224.4,253,204C268.38,167.09,300.21,156.05,332.69,153.3Z"/><path class="cls-9" d="M336.06,423.29A61.18,61.18,0,0,0,363,429.52c7.78,0,16.81-7.14,25.57-7.14h17.83"/><path class="cls-10" d="M312,461c-.91,4.86,9.5,14.6,20.83,24.09,9.09,7.63,17.05,15.57,33.13,17.11,32.57,3.12,54.2-3,63.29-13.41s22.48-24.42,24.16-30.15-39.8-3-52.95,0-37.11,1-50.26.67S318,458,312,461Z"/><path class="cls-11" d="M317.37,462.57c-3.65.29,10.06,12.75,19.21,15.19s-4.45-13.22-4.45-13.22S320.68,462.31,317.37,462.57Z"/><path class="cls-11" d="M430.6,459.9c1.86-.16,9.31-2.63,14.61-1.3S436.55,471,432,473.09,430.6,459.9,430.6,459.9Z"/><path class="cls-12" d="M329.7,463.93s-.35,10.92,3.15,12.35c26.93,11.07,59.92,15.94,99.15-3.19,2.32-6.1,2.24-13.94,2.24-13.94s-33.45,7.2-50.85,7.2S338.13,466.68,329.7,463.93Z"/></g></svg>