<svg xmlns="http://www.w3.org/2000/svg" xmlns:xlink="http://www.w3.org/1999/xlink" viewBox="0 0 864 864"><defs><style>.cls-1{fill:#3fe0c5;}.cls-2{fill:#b963ce;}.cls-3{fill:#331909;}.cls-4{fill:url(#radial-gradient);}.cls-5{fill:#d6b5a7;}.cls-6{fill:#c99795;}.cls-7{fill:#211e1f;}.cls-8{fill:#54382e;}.cls-10,.cls-11,.cls-9{fill:none;stroke-linecap:round;stroke-miterlimit:10;}.cls-9{stroke:#352b24;stroke-width:11px;}.cls-10,.cls-11{stroke:#5f474e;}.cls-10{stroke-width:10px;opacity:0.34;}.cls-11{stroke-width:4px;opacity:0.22;}.cls-12{fill:#453625;}</style><radialGradient id="radial-gradient" cx="489.84" cy="585.97" fx="473.3773799384035" fy="506.3282509961301" r="154.74" gradientUnits="userSpaceOnUse"><stop offset="0" stop-color="#5f4536"/><stop offset="0.32" stop-color="#876a5c"/><stop offset="0.9" stop-color="#d6b5a7"/></radialGradient></defs><title>faina-truffle-bg</title><g id="Truffle-light"><rect class="cls-1" width="864" height="864"/></g><g id="Faina"><path class="cls-2" d="M0,693.3c26-44.48,52.44-82.22,112.14-85.73S238,601.92,286.2,594c39,4.69,311,16.31,377.73,28S853.37,678.11,864,689.29c-.1,20.5,0,174.71,0,174.71H0Z"/><path class="cls-3" d="M294,498.78s-32,4.46-58.75-23-49.82-60.23-40.15-143.51S205.52,196.14,239,141.12,328.21,43,408.52,39.25,520.8,51.14,563.92,99.48s95.93,110.05,118.23,142.76c10.56,15.48,18.19,39.83,20.85,51.62s16.14,97.92-41.75,175.26c35-54.41,35.63-121,29.08-122.78-1.89,4.17,2,51.51-29.51,109,12.91-42,11.6-57,11.6-57s-16.64,17.09-25,22.36c-18.81,11.9-232.22,174-232.22,174S461,812.3,458.07,828c-2.32,12.23-2.57,26.22-12.73,36s-120.1,27.39-136.46,5.83-32-26-31.23-48.34-24.54-16.36-32.72-36.43-65.44-53.54-1.49-145,133.1-97.41,133.1-97.41Z"/><path class="cls-4" d="M376.51,579.54c-4.46,24.07,2.67,72.2,27.63,108.74s60,98.8,51.09,155.68c-.84,4.53-2.32,9.31-3.81,11.73,11,2,40.15.23,65-3.42,47.46-6.95,87-37.52,116.52-83.51,18.8-29.26,36.43-69.78,14.47-115.44-12.85-26.74-17.06-25.86-21.76-39.9-7.45-22.23-18-91.34-18-91.34Z"/><path class="cls-5" d="M349.89,141.33c-37.63,12.51-67,27.2-83.55,116.58s-13.6,73.83-4.85,108.8S278,474.55,282.86,492c3.74,13.46,16.33,43.42,35.84,67.62C337.48,583,355,587,366.44,594.15c35.29,18.61,60.69,36.13,92,40,42.62,5.24,53.88-3.61,81.17-30.32s66.76-53.41,77.79-70.24,33.09-52.83,29.6-88.82-10.45-53.41-6.38-72.57,7.12-23.8,6.75-45.86-14-39.51-14-39.51l-17.74,9.32s-17.42-14.51-23.23-30.77-20.89-43-45.28-66.76-49.25-58.92-99.27-67.34c-15.91-2.68-34.3-2.22-22.64-28.45C411.57,125.31,399.91,124.7,349.89,141.33Z"/><path class="cls-6" d="M450.93,504.59c20.62-2.75,27.56-18.76,49.46-21.62s36.59-6.29,41.36-5.14,2.24,12.1-3.59,16.91-35.86,43.71-72.71,50.7-60.63-10-72.91-15.75-19.82-12.59-15.69-15.45,28.56-13.43,43.17-13.43S439,506.17,450.93,504.59Z"/><path class="cls-7" d="M631.27,283.14c-7.64,0-26.87-3.41-51.69,2.45a775.44,775.44,0,0,0-78.72,24c-28.42,10.53-54.17,23.22-59.32,28.81-10.83,11.73-33.39,14.88-40.61,15.33s-26.61-7.21-65-6.31-118.59,22.82-119.6,28c-2.05,10,.5,12.16,1.85,19.83s5.79,6.71,13.91,8.52,15.08,33.85,22.3,43.36,18.78,17.28,38.18,20.89,63.21-1.94,79.45-9.58,27.5-17.36,29.32-28.39c1.27-7.69,2.71-38.86,5-48.79s26-9,30.22-5.86S452.9,397.59,463.19,411s31.58,19.85,47.37,18.95,61.36-14.89,75.34-22.56,19.94-20.07,23-30.68,4.51-42.4,4.51-51,24.9-22.25,27.6-25.86S633.52,287.2,631.27,283.14ZM390.63,424.87c-1.34,15.52-8.58,20.52-17.33,26.29s-35,11.14-51.89,12.25c-9.57.63-21.18.65-41-5-23.11-6.57-33.7-53.38-35.41-66.65-2.06-16.09,25.18-28.81,57.39-33.89s56.43-3.9,65.43-2.18,20.72,10,23.4,18.26S392,409.35,390.63,424.87Zm197.93-29.08c-13,8.9-20.73,12.43-34.67,16.54s-42.18,9.61-49.56,9.42-22-1.36-30.11-14.88-26.46-38.94-27.59-47.64,5.77-17,13.39-22.65,46.46-21.9,69-28.89,68.82-14,74,1.54C607.27,322.09,608.39,380.9,588.56,395.79Z"/><path class="cls-8" d="M357.8,372.12a15.3,15.3,0,0,1-1,5.43,78.65,78.65,0,0,1-12.45,3.61,97.36,97.36,0,0,1-12,2.21,15.15,15.15,0,0,1-5-11.25c0-8.39,7.94-10.91,16.34-10.91S357.8,363.73,357.8,372.12Z"/><path class="cls-8" d="M489.43,333.14c-.55,4.12,1.39,11.23,4.69,10.48,3.95-.89,22.27-3.82,26-5.43s3.48-9.37,0-13.12S491,330.69,491,330.69Z"/><path class="cls-9" d="M312,381.16s2.84-14.79,28-20.34,33.12,8.37,33.12,8.37"/><path class="cls-9" d="M471.6,346.23s5.42-19.56,31-23.18,39.14,5.72,39.14,5.72"/><path class="cls-10" d="M403.07,462.88c.07.12,12.69,18.81,34,17.81,10.55,0,19-16,28.56-24.64a29.65,29.65,0,0,1,13.06-7.42"/><path class="cls-11" d="M378,516.09s36.66,7.53,86.18-4.6,77.53-30.8,77.53-30.8"/><path class="cls-12" d="M298.64,321.78c13.5-3.39,56.11-11.74,72.91.44s25.4,19,25.77,24-39.78-14.73-54.72-15-43.5-1-56.94,7.23-7.47,9.33-11.58,10.46,1.49-12.31,5.2-16.6C282.15,329,290.22,323.89,298.64,321.78Z"/><path class="cls-12" d="M441.49,320.05a55.1,55.1,0,0,1,30.94-33.68c15.65-6.6,42.77-11.51,53.6-11.69s26.2,2.26,36.31,7.47,4.63,4.14,3.13,4.36-22.73-3.31-37-2.8A104.44,104.44,0,0,0,488.28,294c-10.09,5.16-30.32,19.57-34.19,22.58S439.81,325.17,441.49,320.05Z"/></g></svg>