<svg xmlns="http://www.w3.org/2000/svg" xmlns:xlink="http://www.w3.org/1999/xlink" viewBox="0 0 864 864"><defs><style>.cls-1{fill:#fff;}.cls-2{fill:#3fe0c5;}.cls-3{fill:url(#radial-gradient);}.cls-4{fill:#284873;}.cls-5{fill:#4f6b95;}.cls-6{fill:#293a4f;}.cls-7{fill:#e9d0c0;}.cls-8{fill:#382b2a;}.cls-11,.cls-9{fill:none;stroke-linecap:round;stroke-miterlimit:10;}.cls-9{stroke:#5f474e;stroke-width:10px;}.cls-10{fill:#473d36;}.cls-11{stroke:#3f342c;stroke-width:14px;}.cls-12{fill:#c1a8a4;}.cls-13{fill:#211e1f;}.cls-14{fill:#c6ff2a;}.cls-15{opacity:0.91;}</style><radialGradient id="radial-gradient" cx="439.84" cy="615.14" r="319.84" gradientUnits="userSpaceOnUse"><stop offset="0" stop-color="#473d36"/><stop offset="0.03" stop-color="#534840"/><stop offset="0.24" stop-color="#938277"/><stop offset="0.41" stop-color="#c1ac9e"/><stop offset="0.54" stop-color="#dec6b7"/><stop offset="0.62" stop-color="#e9d0c0"/></radialGradient></defs><title>gnidan-white</title><g id="White"><rect class="cls-1" width="864" height="864"/></g><g id="Truffle-light"><rect class="cls-2" width="864" height="864"/></g><g id="Gnidan"><path class="cls-3" d="M294.66,811.67l8.51-82.23s3.31-155-8.51-193.78S599,503.52,587.69,530s-2.84,140.84,8.51,158.8-19.85,139.9-19.85,139.9l-57,37.72H417.09Z"/><path class="cls-4" d="M16.76,838.14c41.59-14.18,197.55-86,225-96.41s40.38-8.81,52-40.65c8.58-23.56,10.14-30.2,9.87-19.35-.32,13.14,3.36,105.37,14.7,112.93s80.35,35,79.4,43.48S420,866,432,866s42.26,3.34,53.6-9,47.27-18,57.66-31.2,10.4-28.94,18.91-55.59,24.58-74,24.58-96.15-5.13-51.52,2.43-44.9,30.65,76.6,61.84,86S773,744.56,797.54,756.85,864,780.48,864,780.48V866H0V845.7Z"/><path class="cls-5" d="M648,851.64h0Z"/><path class="cls-6" d="M649.9,849.5c-4.82,10.34,24.18-26.91,27.91-41.8s-8.19-55.83-26.79-92.44c-31.19-9.45-54.28-79.43-61.84-86s-2.43,22.72-2.43,44.9S573.49,734.86,565,761.5c-3,9.38-7.29,24.61-9,31.13C626.75,807.52,654.72,839.15,649.9,849.5Z"/><path class="cls-6" d="M229.87,850.26c5.34-4.86,54.17-30.17,88.42-55.6-11.34-7.56-15-99.79-14.7-112.93.27-10.85-6.87-5.55-9.87,19.35-7.55,16.93-16,20.34-33.56,46.73-11.42,17.12-18.61,24.16-32,48-11.75,20.89-12.63,54.37-12.67,62.3C215.48,858.09,224.53,855.11,229.87,850.26Z"/><path class="cls-7" d="M270.69,496.75c1.32,4.11,3.59-6.83,7.84,3.16,1.44,37.6,40.08,101.61,69.3,121.33,38.56,26,51,54.65,102,53.41s65.93-27.37,74.64-37.32S594,579.17,598.1,474.56c3.15,8.81,29.85,19.88,43.83-37.4,10.49-43,15.65-37,15.2-55.52-.57-22.85-4.09-38-19.87-39.15s-31.56-59-31.56-59l-52-121-183.5-19.29L262.67,161.92l-26.3,171.81s-7.6,31.55-18.12,30.38S203.06,376.07,206,409s20.38,52.51,24.71,60.5S260,509.58,270.69,496.75Z"/><path class="cls-8" d="M257.89,379.74c1.75,28.87,24.71,80.81-3.59,36S218.53,377.12,218.53,294s6.12-102.35,29.74-133.84,66.48-62.1,100.59-72.6S463.45,64.84,481,76.21,570.17,113.82,585,142.69s40.24,49.92,46.36,110.25,17.49,72.59-2.62,109.31-14.88,51.6-21.87,54.67c-3.4,1.48-8.23-46.16-8.23-91.48-18.81-6.64-32.07-79.59-32.07-79.59s4.06-1.76-51.94,7.09S442.76,235.67,406,222.86s-90-43.58-106.73-10.91c-8.49,16.54,0,30.52-25.08,37.76-19.72,5.75,8.35,54.94-5.53,79S257.89,379.74,257.89,379.74Z"/><path class="cls-9" d="M401.91,473.75a84.19,84.19,0,0,1,18,2.69c3.75,1.09,7,10.85,20.1,10.87s19-12.84,21.62-13.95c1.73-.73,14-.32,14-.32"/><path class="cls-8" d="M296.76,368c4.94,3.89,6.62-4.42,16.56-10.67s20.24-8.47,42.32-6.26,30.92,9.91,43.43,8.27c8.67-2.46,8.88-13.57-7.62-19.78-16.45-7.22-25.14-5.42-49.79-6.15s-40.27,5.6-43.58,14.8S291.61,364,296.76,368Z"/><path class="cls-8" d="M471.57,342.25c.93,7.29,7.73,9.94,30.18,5.52s42.32,5.15,54.46,6.62,15.46.37,11-9.2-9.94-14.72-23.93-14.72-50.05-2.57-40.85-1.84S469.4,325.2,471.57,342.25Z"/><circle class="cls-10" cx="356.4" cy="376.32" r="14.7"/><circle class="cls-10" cx="505.59" cy="372.14" r="14.11"/><path class="cls-11" d="M321.41,381.61s9.11-16.39,35-16.39,34.4,11.39,34.4,11.39"/><path class="cls-11" d="M474.76,374.32s5.2-12.62,32.92-12.71,38.38,15.54,38.38,15.54"/><path class="cls-12" d="M359.93,530.75c15.95-1.91,50.75-15.33,63.52-16.43s17.57,4.72,25.62,4,5.9-6.18,17.22-6.18,41.13,15.7,55.74,14.24-35.48,56.79-76.52,53.83C389.8,576.19,350.76,531.85,359.93,530.75Z"/><path class="cls-13" d="M369.65,535.15s14.37,10,23.75,13.67-1.61-16.16-4.16-15.9S375.39,534.1,369.65,535.15Z"/><path class="cls-13" d="M494.18,527s14.34,1.56,21.46,1.56-19.13,16.89-25.88,17.59S494.18,527,494.18,527Z"/><path class="cls-1" d="M386.71,533.15c-.93,5.6-.45,10.13,3.09,13.86s29.79,6.58,43.48,6.58,32-.44,36.47-1.86S489.91,549,493,543.06a30.75,30.75,0,0,0,3.62-15.94C494.29,526.83,402.91,525.18,386.71,533.15Z"/><path class="cls-14" d="M460,312.56l.53,19.21-57.65,1.58-.52-19.22-183.19,5,.64,23.33.33,12.11,13.65-.37,3.44,78.53,15.8-.43-.39,17.1,17.14,1.67.37,13.66,103.38-1.54.11-11.54,17.9-1.77-.19-22.64,17.06-.9.2-39.74,10.24-.71-.45-16.23,28.21-.77.55,20,10.42-.53.58,39.24,19.64-.14.46,21.5,18.89-.27,1.12,13.23L602,457.39l-.39-14.09,17.94-.49L619,421l13.24-.36,0-76.49,11.1-.31-1-34.59ZM397.34,398.9l-12.3.34.73,26.6-17.3.48.53,19.6-97.64,2.67L270.82,429l-16.15.06L252.2,338.7l143.39-3.91ZM611,419.31l-13.82,1.14.52,19.22-96.49,2.64-.53-19.61-18.45.51-.73-26.61-13.07.36-1.75-64.12L608.56,329Z"/><g class="cls-15"><polygon class="cls-13" points="466.71 332.84 468.46 396.96 481.53 396.6 482.26 423.21 500.71 422.7 501.24 442.31 597.73 439.67 597.21 420.45 611.03 419.31 608.56 328.97 466.71 332.84"/><polygon class="cls-13" points="254.67 429.04 270.82 428.98 271.36 448.59 369 445.92 368.47 426.32 385.77 425.84 385.04 399.24 397.34 398.9 395.59 334.79 252.2 338.7 254.67 429.04"/></g></g></svg>