<svg xmlns="http://www.w3.org/2000/svg" xmlns:xlink="http://www.w3.org/1999/xlink" viewBox="0 0 864 864"><defs><style>.cls-1{fill:#3fe0c5;}.cls-2{fill:url(#radial-gradient);}.cls-3{fill:#284873;}.cls-4{fill:#4f6b95;}.cls-5{fill:#293a4f;}.cls-6{fill:#e9d0c0;}.cls-7{fill:#382b2a;}.cls-10,.cls-8{fill:none;stroke-linecap:round;stroke-miterlimit:10;}.cls-8{stroke:#5f474e;stroke-width:10px;}.cls-9{fill:#473d36;}.cls-10{stroke:#3f342c;stroke-width:14px;}.cls-11{fill:#c1a8a4;}.cls-12,.cls-14{fill:#211e1f;}.cls-13{fill:#fff;}.cls-14{opacity:0.91;}.cls-15{fill:#c6ff2a;}</style><radialGradient id="radial-gradient" cx="439.84" cy="615.14" r="319.84" gradientUnits="userSpaceOnUse"><stop offset="0" stop-color="#473d36"/><stop offset="0.03" stop-color="#534840"/><stop offset="0.24" stop-color="#938277"/><stop offset="0.41" stop-color="#c1ac9e"/><stop offset="0.54" stop-color="#dec6b7"/><stop offset="0.62" stop-color="#e9d0c0"/></radialGradient></defs><title>gnidan-truffle-bg</title><g id="Truffle-light"><rect class="cls-1" width="864" height="864"/></g><g id="Gnidan"><path class="cls-2" d="M294.66,811.67l8.51-82.23s3.31-155-8.51-193.78S599,503.52,587.69,530s-2.84,140.84,8.51,158.8-19.85,139.9-19.85,139.9l-57,37.72H417.09Z"/><path class="cls-3" d="M16.76,838.14c41.59-14.18,197.55-86,225-96.41s40.38-8.81,52-40.65c8.58-23.56,10.14-30.2,9.87-19.35-.32,13.14,3.36,105.37,14.7,112.93s80.35,35,79.4,43.48S420,866,432,866s42.26,3.34,53.6-9,47.27-18,57.66-31.2,10.4-28.94,18.91-55.59,24.58-74,24.58-96.15-5.13-51.52,2.43-44.9,30.65,76.6,61.84,86S773,744.56,797.54,756.85,864,780.48,864,780.48V866H0V845.7Z"/><path class="cls-4" d="M648,851.64h0Z"/><path class="cls-5" d="M649.9,849.5c-4.82,10.34,24.18-26.91,27.91-41.8s-8.19-55.83-26.79-92.44c-31.19-9.45-54.28-79.43-61.84-86s-2.43,22.72-2.43,44.9S573.49,734.86,565,761.5c-3,9.38-7.29,24.61-9,31.13C626.75,807.52,654.72,839.15,649.9,849.5Z"/><path class="cls-5" d="M229.87,850.26c5.34-4.86,54.17-30.17,88.42-55.6-11.34-7.56-15-99.79-14.7-112.93.27-10.85-6.87-5.55-9.87,19.35-7.55,16.93-16,20.34-33.56,46.73-11.42,17.12-18.61,24.16-32,48-11.75,20.89-12.63,54.37-12.67,62.3C215.48,858.09,224.53,855.11,229.87,850.26Z"/><path class="cls-6" d="M270.69,496.75c1.32,4.11,3.59-6.83,7.84,3.16,1.44,37.6,40.08,101.61,69.3,121.33,38.56,26,51,54.65,102,53.41s65.93-27.37,74.64-37.32S594,579.17,598.1,474.56c3.15,8.81,29.85,19.88,43.83-37.4,10.49-43,15.65-37,15.2-55.52-.57-22.85-4.09-38-19.87-39.15s-31.56-59-31.56-59l-52-121-183.5-19.29L262.67,161.92l-26.3,171.81s-7.6,31.55-18.12,30.38S203.06,376.07,206,409s20.38,52.51,24.71,60.5S260,509.58,270.69,496.75Z"/><path class="cls-7" d="M257.89,379.74c1.75,28.87,24.71,80.81-3.59,36S218.53,377.12,218.53,294s6.12-102.35,29.74-133.84,66.48-62.1,100.59-72.6S463.45,64.84,481,76.21,570.17,113.82,585,142.69s40.24,49.92,46.36,110.25,17.49,72.59-2.62,109.31-14.88,51.6-21.87,54.67c-3.4,1.48-8.23-46.16-8.23-91.48-18.81-6.64-32.07-79.59-32.07-79.59s4.06-1.76-51.94,7.09S442.76,235.67,406,222.86s-90-43.58-106.73-10.91c-8.49,16.54,0,30.52-25.08,37.76-19.72,5.75,8.35,54.94-5.53,79S257.89,379.74,257.89,379.74Z"/><path class="cls-8" d="M404.91,473.75a84.19,84.19,0,0,1,18,2.69c3.75,1.09,7,10.85,20.1,10.87s19-12.84,21.62-13.95c1.73-.73,14-.32,14-.32"/><path class="cls-7" d="M296.76,368c4.94,3.89,6.62-4.42,16.56-10.67s20.24-8.47,42.32-6.26,30.92,9.91,43.43,8.27c8.67-2.46,8.88-13.57-7.62-19.78-16.45-7.22-25.14-5.42-49.79-6.15s-40.27,5.6-43.58,14.8S291.61,364,296.76,368Z"/><path class="cls-7" d="M471.57,342.25c.93,7.29,7.73,9.94,30.18,5.52s42.32,5.15,54.46,6.62,15.46.37,11-9.2-9.94-14.72-23.93-14.72-50.05-2.57-40.85-1.84S469.4,325.2,471.57,342.25Z"/><circle class="cls-9" cx="356.4" cy="376.32" r="14.7"/><circle class="cls-9" cx="505.59" cy="372.14" r="14.11"/><path class="cls-10" d="M321.41,381.61s9.11-16.39,35-16.39,34.4,11.39,34.4,11.39"/><path class="cls-10" d="M474.76,374.32s5.2-12.62,32.92-12.71,38.38,15.54,38.38,15.54"/><path class="cls-11" d="M360.93,530.75c15.95-1.91,50.75-15.33,63.52-16.43s17.57,4.72,25.62,4,5.9-6.18,17.22-6.18,41.13,15.7,55.74,14.24-35.48,56.79-76.52,53.83C390.8,576.19,351.76,531.85,360.93,530.75Z"/><path class="cls-12" d="M370.65,535.15s14.37,10,23.75,13.67-1.61-16.16-4.16-15.9S376.39,534.1,370.65,535.15Z"/><path class="cls-12" d="M495.18,527s14.34,1.56,21.46,1.56-19.13,16.89-25.88,17.59S495.18,527,495.18,527Z"/><path class="cls-13" d="M387.71,533.15c-.93,5.6-.45,10.13,3.09,13.86s29.79,6.58,43.48,6.58,32-.44,36.47-1.86S490.91,549,494,543.06a30.75,30.75,0,0,0,3.62-15.94C495.29,526.83,403.91,525.18,387.71,533.15Z"/><polyline class="cls-14" points="238.48 335.46 317.88 314.21 421.01 346.34 484.63 330.57 542.16 317.84 626.45 332.99 612.12 385.3 604.91 425.52 581.21 449.82 526.58 454.11 487.04 448.49 463.31 408.88 447.13 364.34 421.01 355.71 412.19 390.87 402 420.74 390.8 440.91 329.56 456.11 287.17 451.44 258.92 426.5 248.74 390.87 240.2 352.07 238.48 335.46 238.48 335.46"/><rect class="cls-15" x="242.87" y="367.3" width="15.82" height="17.81"/><rect class="cls-15" x="248.87" y="385.11" width="15.82" height="17.81"/><rect class="cls-15" x="255.87" y="402.92" width="15.82" height="17.81"/><rect class="cls-15" x="262.2" y="420.74" width="15.82" height="17.81"/><rect class="cls-15" x="273.79" y="431.81" width="15.82" height="17.81"/><rect class="cls-15" x="288.87" y="438.55" width="15.82" height="17.81"/><rect class="cls-15" x="304.69" y="445.01" width="15.82" height="17.81"/><rect class="cls-15" x="320.51" y="447.46" width="15.82" height="17.81"/><rect class="cls-15" x="336.32" y="445.01" width="15.82" height="17.81"/><rect class="cls-15" x="352.14" y="440.72" width="15.82" height="17.81"/><rect class="cls-15" x="367.96" y="436.1" width="15.82" height="17.81"/><rect class="cls-15" x="383.78" y="430.49" width="15.82" height="17.81"/><rect class="cls-15" x="391.68" y="417.59" width="15.82" height="17.81"/><rect class="cls-15" x="399.59" y="399.78" width="15.82" height="17.81"/><rect class="cls-15" x="404.28" y="381.97" width="15.82" height="17.81"/><rect class="cls-15" x="409.91" y="364.15" width="15.82" height="17.81"/><rect class="cls-15" x="412.19" y="346.34" width="15.82" height="17.81"/><rect class="cls-15" x="425.72" y="346.34" width="15.82" height="17.81"/><rect class="cls-15" x="423.68" y="335.46" width="32.45" height="28.69"/><rect class="cls-15" x="409.91" y="331.92" width="15.82" height="17.81"/><rect class="cls-15" x="394.09" y="325.4" width="15.82" height="17.81"/><rect class="cls-15" x="378.27" y="321.47" width="15.82" height="17.81"/><rect class="cls-15" x="368.19" y="317.64" width="15.82" height="17.81"/><rect class="cls-15" x="352.37" y="312.56" width="15.82" height="17.81"/><rect class="cls-15" x="336.56" y="309.98" width="15.82" height="17.81"/><rect class="cls-15" x="320.74" y="308.74" width="15.82" height="17.81"/><rect class="cls-15" x="304.92" y="309.98" width="15.82" height="17.81"/><rect class="cls-15" x="289.1" y="311.95" width="15.82" height="17.81"/><rect class="cls-15" x="273.29" y="314.99" width="15.82" height="17.81"/><rect class="cls-15" x="257.47" y="319.69" width="15.82" height="17.81"/><rect class="cls-15" x="245.48" y="322.51" width="15.82" height="17.81"/><rect class="cls-15" x="236.46" y="337.32" width="15.82" height="17.81"/><polygon class="cls-15" points="222.66 358.52 241.34 358.52 241.34 340.7 220.03 340.7 222.66 358.52"/><rect class="cls-15" x="236.46" y="350.62" width="15.82" height="15.97"/><rect class="cls-15" x="242.87" y="335.46" width="15.82" height="17.81"/><rect class="cls-15" x="242.87" y="351.49" width="15.82" height="17.81"/><rect class="cls-15" x="612.12" y="367.49" width="15.82" height="17.81" transform="translate(1240.06 752.79) rotate(-180)"/><rect class="cls-15" x="606.12" y="385.3" width="15.82" height="17.81" transform="translate(1228.06 788.42) rotate(-180)"/><rect class="cls-15" x="599.12" y="403.12" width="15.82" height="17.81" transform="translate(1214.06 824.05) rotate(-180)"/><rect class="cls-15" x="592.79" y="420.93" width="15.82" height="17.81" transform="translate(1201.4 859.67) rotate(-180)"/><rect class="cls-15" x="581.21" y="432" width="15.82" height="17.81" transform="translate(1178.23 881.82) rotate(-180)"/><rect class="cls-15" x="566.12" y="438.74" width="15.82" height="17.81" transform="translate(1148.06 895.3) rotate(-180)"/><rect class="cls-15" x="550.31" y="445.2" width="15.82" height="17.81" transform="translate(1116.43 908.21) rotate(-180)"/><rect class="cls-15" x="534.49" y="447.65" width="15.82" height="17.81" transform="translate(1084.79 913.12) rotate(-180)"/><rect class="cls-15" x="518.67" y="445.2" width="15.82" height="17.81" transform="translate(1053.16 908.21) rotate(-180)"/><rect class="cls-15" x="502.85" y="440.91" width="15.82" height="17.81" transform="translate(1021.52 899.64) rotate(-180)"/><rect class="cls-15" x="487.04" y="436.29" width="15.82" height="17.81" transform="translate(989.89 890.4) rotate(-180)"/><rect class="cls-15" x="471.22" y="430.68" width="15.82" height="17.81" transform="translate(958.25 879.17) rotate(-180)"/><rect class="cls-15" x="463.31" y="417.79" width="15.82" height="17.81" transform="translate(942.44 853.38) rotate(-180)"/><rect class="cls-15" x="455.4" y="399.97" width="15.82" height="17.81" transform="translate(926.62 817.76) rotate(-180)"/><rect class="cls-15" x="450.71" y="382.16" width="15.82" height="17.81" transform="translate(917.24 782.13) rotate(-180)"/><rect class="cls-15" x="445.09" y="364.34" width="15.82" height="17.81" transform="translate(905.99 746.5) rotate(-180)"/><rect class="cls-15" x="442.8" y="346.53" width="15.82" height="17.81" transform="translate(901.42 710.87) rotate(-180)"/><rect class="cls-15" x="429.27" y="346.53" width="15.82" height="17.81" transform="translate(874.36 710.87) rotate(-180)"/><rect class="cls-15" x="414.68" y="335.65" width="32.45" height="28.69" transform="translate(861.81 699.99) rotate(-180)"/><rect class="cls-15" x="445.09" y="332.11" width="15.82" height="17.81" transform="translate(905.99 682.03) rotate(-180)"/><rect class="cls-15" x="460.91" y="325.59" width="15.82" height="17.81" transform="translate(937.63 668.99) rotate(-180)"/><rect class="cls-15" x="476.72" y="321.66" width="15.82" height="17.81" transform="translate(969.26 661.13) rotate(-180)"/><rect class="cls-15" x="486.8" y="317.84" width="15.82" height="17.81" transform="translate(989.42 653.49) rotate(-180)"/><rect class="cls-15" x="502.62" y="312.75" width="15.82" height="17.81" transform="translate(1021.06 643.32) rotate(-180)"/><rect class="cls-15" x="518.44" y="310.17" width="15.82" height="17.81" transform="translate(1052.69 638.16) rotate(-180)"/><rect class="cls-15" x="534.26" y="308.93" width="15.82" height="17.81" transform="translate(1084.33 635.67) rotate(-180)"/><rect class="cls-15" x="550.07" y="310.17" width="15.82" height="17.81" transform="translate(1115.96 638.16) rotate(-180)"/><rect class="cls-15" x="565.89" y="312.15" width="15.82" height="17.81" transform="translate(1147.6 642.11) rotate(-180)"/><rect class="cls-15" x="581.71" y="315.18" width="15.82" height="17.81" transform="translate(1179.23 648.17) rotate(-180)"/><rect class="cls-15" x="597.53" y="319.88" width="15.82" height="17.81" transform="translate(1210.87 657.58) rotate(-180)"/><rect class="cls-15" x="609.51" y="322.7" width="15.82" height="17.81" transform="translate(1234.84 663.21) rotate(-180)"/><rect class="cls-15" x="618.54" y="325.13" width="15.82" height="17.81" transform="translate(1252.89 668.07) rotate(-180)"/><rect class="cls-15" x="623.47" y="325.13" width="15.82" height="17.81" transform="translate(1262.75 668.07) rotate(-180)"/><rect class="cls-15" x="618.54" y="332.99" width="15.82" height="17.81" transform="translate(1252.89 683.8) rotate(-180)"/><rect class="cls-15" x="612.12" y="335.65" width="15.82" height="17.81" transform="translate(1240.06 689.11) rotate(-180)"/><rect class="cls-15" x="612.12" y="351.68" width="15.82" height="17.81" transform="translate(1240.06 721.17) rotate(-180)"/></g></svg>