<svg xmlns="http://www.w3.org/2000/svg" xmlns:xlink="http://www.w3.org/1999/xlink" viewBox="0 0 864 864"><defs><style>.cls-1{fill:#3fe0c5;}.cls-2{fill:url(#radial-gradient);}.cls-3{fill:#e9d0c0;}.cls-4{fill:#fff;}.cls-5{fill:#727272;}.cls-6{fill:#33281b;}.cls-10,.cls-7,.cls-8{fill:none;stroke-linecap:round;stroke-miterlimit:10;}.cls-7{stroke:#211e1f;stroke-width:14px;}.cls-10,.cls-8{stroke:#766362;stroke-width:10px;}.cls-8{opacity:0.65;}.cls-9{fill:#c69f95;}</style><radialGradient id="radial-gradient" cx="439.94" cy="634.36" fx="403.41863509803846" fy="402.8096637515511" r="249.09" gradientUnits="userSpaceOnUse"><stop offset="0.19" stop-color="#5f4536"/><stop offset="0.2" stop-color="#654b3c"/><stop offset="0.33" stop-color="#947b6b"/><stop offset="0.45" stop-color="#b9a090"/><stop offset="0.56" stop-color="#d3baaa"/><stop offset="0.66" stop-color="#e3caba"/><stop offset="0.74" stop-color="#e9d0c0"/></radialGradient></defs><title>harry-truffle-bg</title><g id="Truffle-light"><rect class="cls-1" width="864" height="864"/></g><g id="Harry"><g id="Full"><path class="cls-2" d="M217.94,679,321,614l3.14-73.3,111.68,35.13L560.7,512.44s.08,80.85,15.76,101.56,37.93,32.72,37.93,32.72l29.13,72.78-75.29,92.86L412,840.59,233.81,727Z"/><path class="cls-3" d="M242,215.25l14.7,194.6s9.1,68.61,18.2,85.41,46.91,62.3,63,75.6,39.2,33.6,48.3,35.7,37.1,7,58.8,3.5,52.92-16.8,62.51-25.9,38.29-37.1,50.2-50.4,24.5-38.5,28-55.3,5.6-36.4,8.4-52.51,6.3-95.55,6.3-95.55V242.55l-31.5-105-112.49-30.8-148.62,7-48.31,52.5Z"/><path class="cls-4" d="M301.79,626.07c-.72,1.36-51.34,54.33-29.55,82.48s61,75,127.21,81,98.18,3.72,130.16-14.13,83.68-37.2,84.78-90c.63-29.59-.89-37.24-6.45-42.63s86,64.94,86,64.94L531.1,854.22,308.72,835.63l-78.09-122,17.85-58.76S302.52,624.71,301.79,626.07Z"/><path class="cls-5" d="M321.21,609.41s-118.1,61.11-141.16,75.24S81.14,717.38,67,724.81s-71.39,55-72.88,68.43S0,864,0,864H864V768s-86.73-49.83-97.88-59.5-20.83-3-30.5-8.18-90-55.78-99.66-61S584.65,617,576.46,614c-3-1.08,56.69,47.32,54.46,52.31s-15.56,31.93-26.3,49-31.54,35.58-58.39,59.4c-34.23,32.56-67.69,53.79-70.14,53.7-7.3-.27-37.22-4.75-50-9.09S358,785.16,358,785.16s-34.23-16.45-50-35.58-40.61-45-47-55.7-13-23.36-2.83-39,55.6-34.07,62.09-37.23C322.07,610.66,321.21,609.41,321.21,609.41Z"/><path class="cls-6" d="M260.23,443.49c5.86-2.44-1.46-55.15-3.9-90.77s-9.76-80-2.93-109.8,6.35-46.36,19.52-63.92,36.6-33.68,50.75-13.18,22.94,52.21,30.26,52.7,17.08-2,13.17-7.81-24.88-41-23.91-45.38,40.73,64,42.63,65.07c2.14,1.19,11.92-1.23,12.48-1.25,3-.1,5.88-.48,8.65.37-19-65.56,1.82-.26,11.88-2.21s13.66-24.4,5.37-42-7.92-36-3-31.8S440.3,221,451.53,220.47c3.5-.15,7-2,10.52-2.33,1.05-3-1.49-14.8,0-14.9,1.73-.1,7.7,17.38,8.73,16.55,1.35-1.09,2-3,1.73-6.15-1-11.22-3.42-27.81,4.39-18.54s19,27.81,25.87,10.73.48-60,6.83-59.53,25.37,62,35.13,63.93-20-54.17-10.25-57.1,17.08,56.61,24.4,59.05-12.2-39.53-5.85-51.73,22,34.16,21.47,54.17,7.81,35.62,8.78,52.21,8.3,65.88,6.84,82-8.79,58.55-4.88,68.8S584.75,441,594,432s16.18-9.32,16.18-26.4,11.63-51.9,6.76-67.52-5.43-18.28-2-19.26,0,3.16,12.25-3.68-11.46,4.65-13.41-8c-.85-5.56-.15-7.9-.15-7.9s1.12,2.15,4.73,2,9-.18,14.88-5.31-17.76,5.08-16.78-11,3.41-53.68,1.46-76.13-1-59-19-77.59S589.14,120,600.36,120s8.79-3.42-17.56-14.64-38.56-22.94-52.22-30.74-22.45-7.81-37.09-22.94-26.35-3.42-33.67-9.76-23.91-1.46-16.1-8.3,7.81-7.32-2.44-6.83-15.62,2.93-26.84,3.91S397.85,25.77,389.55,37s-8.78-3.9-16.1-2.93-14.15,10.25-28.79,9.76S322.21,46.26,315.38,56,310,70.17,296.83,72.61s-19-6.34-19.52.49,1,17.08-8.78,23.91S243.64,133.12,231,144.84s-21.47,28.79-16.1,24.4,21.47-22.45,16.1-11.72-14.63,54-13.17,77.52c.78,12.49,6.3,49.22,5.89,55.85s-10.16,7-15.29,1.11c.87,5.7,8.41,15.69,19.65,15,4.84,10.07,2.29,21.19,2.31,32.3s.46,20.58.46,34.25,5.33,26,7.28,41.59,17.27,20.56,19.71,24.46Z"/><path class="cls-6" d="M348.33,340.6a14.93,14.93,0,0,1-3.57,9.7c-4,1.55-16,1-21.43,1.41a14.9,14.9,0,0,1-4.94-11.11c0-4,0-9.41,15-9.42S348.33,336.33,348.33,340.6Z"/><path class="cls-6" d="M507.47,337.19a14.89,14.89,0,0,1-2,7.47c-8.27.23-17.48.23-25.87.14a15,15,0,0,1,2.31-18.19c2.71-2.71,17.46-3.13,20-1A14.94,14.94,0,0,1,507.47,337.19Z"/><path class="cls-7" d="M288.86,347.87s6.17-16.13,38.92-19,38.91,11.39,38.91,11.39"/><path class="cls-7" d="M456.38,338.38s0-13.29,35.11-15.66,41.76,17.56,41.76,17.56"/><path class="cls-6" d="M267.34,327.51c-14.66-2.58,40.05-29.61,66-31.12s42.2-3,33.33,9.1-18,9.6-28.59,11.11-38.33.12-49.24,5.62S271.89,328.31,267.34,327.51Z"/><path class="cls-6" d="M450.31,295.38c-3.54,13.14,2,15.16,18.19,12.63s36.9-6.7,57.12.94,25.27,16.75,27.79,8.16-3-21.23-11.12-21.73-27.29-4.55-38.41-5.56-27.36-4.77-37-3.76S450.31,295.38,450.31,295.38Z"/><path class="cls-8" d="M366.69,453.21a39.78,39.78,0,0,1,18,3.7c7.58,3.69,14.05,12.4,24.15,12.4,9.71,0,14.36-10.44,26.77-13.71a64.57,64.57,0,0,1,18.1-2.39"/><path class="cls-9" d="M352.89,499.2c8.51-3.59,15.67-5.38,25.08-5.38s26.42,3.58,37.17,2.69,17.47-4.93,32.25-5.38,25.84-.56,32.11,3,17.86-3.24,5.06,20.27c-10.15,11.78-35.51,28.22-55.6,27.77s-41.59,2.24-48.75-1.79-27.32-26.87-27.32-34Z"/><path class="cls-10" d="M338.5,497.54s18.33,12.36,55.91,17.51c16.47,2.25,46.7-2.68,66.92-9.27,25.94-8.46,36-19.46,36-19.46"/></g></g></svg>