<svg xmlns="http://www.w3.org/2000/svg" xmlns:xlink="http://www.w3.org/1999/xlink" viewBox="0 0 864 864"><defs><style>.cls-1{fill:#3fe0c5;}.cls-2{fill:#2b2726;}.cls-3{fill:url(#radial-gradient);}.cls-4{fill:#c6a691;}.cls-5{fill:#3a2a26;}.cls-6{fill:#211e1f;}.cls-7,.cls-8{fill:none;stroke-linecap:round;stroke-miterlimit:10;}.cls-7{stroke:#2b2726;stroke-width:14px;}.cls-8{stroke:#694946;stroke-width:10px;opacity:0.49;}.cls-9{fill:#a8847b;}.cls-10{fill:#fff;}.cls-11{fill:#3a3431;}</style><radialGradient id="radial-gradient" cx="443.55" cy="708.6" fx="457.54404071370703" fy="561.8253425527207" r="200.46" gradientUnits="userSpaceOnUse"><stop offset="0" stop-color="#322320"/><stop offset="0.72" stop-color="#bf9c83"/></radialGradient></defs><title>heyse-truffle-bg</title><g id="Truffle-light"><rect class="cls-1" width="864" height="864"/></g><g id="Heyse"><path class="cls-2" d="M-1.47,815.53C108,761.35,299.78,725.35,299.78,725.35s187.59-18.52,301.91-17.64c115,.89,262.31,67.12,262.31,67.12V864H0Z"/><path class="cls-3" d="M310.64,608.22s21.05,87.34,14.73,93.66S293.8,724,293.8,739.76s59.73,75.77,154.57,75.77,126.4-40.44,134.82-63.14,13.22-30.94,6.9-63.58,3.2-87.14,3.2-87.14Z"/><path class="cls-4" d="M342.21,662.94C360.1,681.88,404.3,729.69,453.76,725c56.82-1,54.83,1.37,87.4-30.89s51.5-61.72,69.39-85.92,22.1-62.76,30.52-101.89,17.89-27.55,16.84-57-4-57.88.08-91.56S679,308.3,668.43,261s-41-102.08-67.35-118.91S490.59,89.42,465.33,87.31,348.52,99.94,321.16,128.36s-69.45,123.12-74.71,167.32-7.37,44.19-16.84,54.72-2.11,7.36,0,43.14-6.31,50.52,12.63,83.14,23.15,35.78,28.41,64.19,13.68,56.83,33.67,80S342.21,662.94,342.21,662.94Z"/><path class="cls-5" d="M554.54,366.5c-2.1,6.81.86,13.75,3,18.59s19.38,5.2,28,2.37c3.92-5.24,6-10,3.4-16.77s-13.09-8.38-13.09-8.38Z"/><circle class="cls-6" cx="378.32" cy="363.64" r="18.55"/><circle class="cls-6" cx="571.96" cy="375.78" r="18.14"/><path class="cls-7" d="M311.61,363.64S332.24,345,369.92,345s48.66,28.44,48.66,28.44"/><path class="cls-7" d="M530.64,380.52s7.68-24.36,43.32-21.28,42.7,19.88,42.7,19.88"/><path class="cls-8" d="M414.41,502.28s2.34,2.88,9.76,3,4.93-6.52,18.22-6.47,17.65,15.1,37.15,15.1,19.17-12.17,35.25-13.42c7.07,0,10.07,4.43,14.38,5.27s12-2.87,12-2.87"/><path class="cls-9" d="M371.65,571.39c20.27-18,61.2-24.16,76.72-22.57s9.95,7.95,22.67,7.95,14.31-9.12,24.64-8.14,58.43,10.34,68.57,22.76c-10.43,21.16-44,64.44-51.15,73.19s-68.3,17.14-86.59,1.24S372.23,592,371.65,571.39Z"/><path class="cls-6" d="M402.3,574.37s-4.92-4-10.42-4.51-9.15-3.22-16.2.36c.83,7.52,40.41,38.51,56.32,42.85s23.83,9.41,39.75,8,42-4.7,53.89-14.11a159.37,159.37,0,0,0,23.51-22.78c4.7-5.43,9.79-9.34,0-7.6s-37.26,2.89-37.26,2.89l-89.7-1.08Z"/><path class="cls-10" d="M391.88,569.8s-.87,8.59,1.46,12S427.77,595.27,432,596.7s13.3,7.49,32.17,7.49,25,.23,33.1-2.72,31.35-4.91,36-8.35,5.78-12.8,6.1-15.41c-3.68-.07-62.13-1-72.58-2-9.25-.87-53.1-5.52-69.75-5.41C394.86,570.3,393,569.57,391.88,569.8Z"/><path class="cls-11" d="M314.5,322.28c19.85-6.76,37.14-11.11,55.88-3.13s33.57,9,48.2,6.94,24.69-3.12,20.88-9.37-41.31-28.11-59-31.24-41.3-9.37-51,0-20.83,20.83-22.22,27.08S309.62,323.94,314.5,322.28Z"/><path class="cls-11" d="M530.64,318.46c-8.94,14.66-11.91,26.72,0,21.52s40-11.11,57.37-7.29,36.1,10.41,44.78,10.41,22.56-1.73,9-12.32-26.72-26.21-36.1-29-26,.69-36.44,5.55S534.53,312.08,530.64,318.46Z"/><path class="cls-6" d="M249.7,442.61c5.67,24.6,7.76-52.22,7.76-66.83s-10.35-42.41,0-64.39,26.5-32.32,23.91-65.29,5.85-71.75,25.55-76.93,55.47-32.32,89.95-33,88.13-7.76,107.52,0,61.93,23.27,80.74,43.95,51.13,56.89,53.07,70.46,2.39,8.76,9.27,29.92,12.47,51.21,10.52,77.22-5.85,69.47-3,84.85,2.92,1.31,6.16-18.09,12.59-56.25,14.53-75,5.82-77.57,0-108-9.58-55.86-23.51-82.64-12.88-38.42-40-64S586.31,34.53,565,30.65s-99.5-18.89-168.11-4.54S337,57.34,294.3,92.25s-53,66.58-60.12,88.56-21.33,94.68-17.45,123,12.28,34.76,16.16,62.55S245.82,425.8,249.7,442.61Z"/></g></svg>