<svg xmlns="http://www.w3.org/2000/svg" xmlns:xlink="http://www.w3.org/1999/xlink" viewBox="0 0 864 864"><defs><style>.cls-1{fill:#3fe0c5;}.cls-2{fill:url(#radial-gradient);}.cls-3{fill:#e9d0c0;}.cls-4{fill:#423c3b;}.cls-5,.cls-6,.cls-7{fill:none;stroke:#474141;stroke-linecap:round;stroke-miterlimit:10;}.cls-5,.cls-6{stroke-width:10px;}.cls-6{opacity:0.16;}.cls-7{stroke-width:18px;}.cls-8{fill:#474141;}.cls-9{fill:#cca7a3;}.cls-10{fill:#fff;}.cls-11{fill:#79b858;}</style><radialGradient id="radial-gradient" cx="443.01" cy="683.63" fx="384.42992580197625" fy="448.18588545034595" r="286.15" gradientUnits="userSpaceOnUse"><stop offset="0" stop-color="#5f474e"/><stop offset="0.63" stop-color="#e8cfbf"/></radialGradient></defs><title>josh-truffle-bg</title><g id="Truffle-light"><rect class="cls-1" width="864" height="864"/></g><g id="Josh"><path class="cls-2" d="M273.44,597.57a642.63,642.63,0,0,0,12.09,68.29c7.76,32.84,25,127.18,60.36,168.36s69.24,56.93,69.24,56.93,173.21-87.21,162.31-119.91,35.13-53.3,35.13-53.3L601.88,476.12Z"/><path class="cls-3" d="M250.44,554.8c16.86,38.64,43.57,74.48,57.62,85s28.11,29.51,40.05,37.24,35.84,21.79,53.4,21.79,37.24-3.52,56.22-16.17,42.86-30.91,68.86-47.78S573.67,604,582.8,583.61s22.49-45,24.6-76.59c.92-13.84-.36-17.42,5.07-16.81,6.53,10.11,20.92,8.37,20.92,8.37s7.78,2.11,20.81-32.09c7.36-32.85,11.75-45.37,14.8-54.67,3.72-11.36,5.6-20.41,7.71-33.06s.25-37.57-4-43.19-11.94-7-22.48-2.81-26,37.24-26,37.24l-6.32-95.57L584.21,147.25,521.67,90.33,407.13,104.39,275,122l-52.7,85V346.11l-17.56,1.4s-9.84,4.22-6.33,24.59,16.87,52.7,14.76,78.7,5.62,51.3,14.05,54.11,15.46,13.35,15.46,13.35Z"/><path class="cls-4" d="M583.68,240.14c-4.06,51.47,3.39,65.69,8.81,79.24S606,362,604,418.25s-4.74,74.5,3.38,84,8.81-9.48,8.81-9.48,1.35-63,4.06-87.36,8.81-44.7,19.64-58.92S665,330.89,665,330.89s-2-82.62-10.16-133.41-37.25-96.17-81.94-126.64S482.81,15.3,432,10.56s-96.86,13.55-96.86,13.55-51.47,10.16-93.46,49.44S203.76,209,203.76,209s-11.51,94.13,6.09,135.45,11.52,47.4,11.52,47.4.17,39.79,7.45,79.24c3,16.11,0,20.88,4.06,33.8s6.16-7,6.16-7-8.87-70.19-10.22-116.24-.68-37.24,6.77-96.16,1.35-63.66,14.9-85.33,35.21-19.64,35.21-19.64,36.87-16.18,113.1-19C422,160.74,470,127.35,492.26,125c30.94-3.26,46.28,15,53.5,21.67C573.52,172.42,583.68,240.14,583.68,240.14Z"/><path class="cls-4" d="M239.18,367.81s-1.48-20.19,5.12-28.56,19.19-19,32-19.88,37-6,56.32,4.55,17.94,13.59,19.7,17.74-10.56,4.58-10.56,4.58-33-7.48-50.61-7.48-21.56-.88-33.89,11.88S239.18,367.81,239.18,367.81Z"/><path class="cls-4" d="M432,329.08c-4.59,5.69,0,9.24,0,9.24,4.34,4.4,17.55-.44,33.39,0s36.09.44,50.17,5.28,27.29,7.92,34.77,15,17.6,4.84,17.6,4.84,5.28-9.17-7-21.75-25.53-20.94-39.61-23.14-38.29-6.12-55-1.79S439.1,320.28,432,329.08Z"/><path class="cls-5" d="M345.89,477.77s14.78.05,18.61,6.83,5.88,17.3,25.36,17.3c13.71,0,18.4-13.12,27.1-18.46a69.12,69.12,0,0,1,15.71-7.32"/><path class="cls-6" d="M322.28,485.53s-12.91,12.13-18.5,22.2-5.59,29-5.59,29"/><path class="cls-6" d="M473.76,476.12s45.62,28.34,45.62,39.1-10.76,31.41-10.76,31.41"/><path class="cls-7" d="M273.44,373.32s10.16-12.9,24.75-17c10.39-2.89,25.24-4.72,36.05.34S352.46,374,352.46,374"/><path class="cls-7" d="M438.26,370.55a50.24,50.24,0,0,1,30.05-18.24c9.26-1.85,22.12.8,35.8,6.75a145.41,145.41,0,0,1,27.35,15.54"/><circle class="cls-8" cx="320.06" cy="369.53" r="16.89"/><circle class="cls-8" cx="484.86" cy="365.14" r="16.89"/><path class="cls-9" d="M322.28,535.17s28.73-12.58,71.35-7.24c25.49-4.19,77-12.29,97.23-10-20.24,7.86-34.29,46.9-84.29,52.79C345.89,577.83,322.28,535.17,322.28,535.17Z"/><path class="cls-6" d="M633.39,392.33S652,399.1,648.86,418.4s-19.3,22.71-19.3,22.71"/><path class="cls-10" d="M342.25,540.79s63.13,9.38,116.58-11.82c-6.73,5.86-29,20.86-54.64,23.58C359,557.35,342.25,540.79,342.25,540.79Z"/><path class="cls-11" d="M0,807,236.25,704.29l29.72-119,19.58,29.79s-10.36,21.95,0,50.06,40.71,38.9,56.7,80.57S382.78,856.25,406.57,864s35.49-66.81,52.26-87.59S514.71,738,514.71,738s83.47-67.34,90.29-80.6c5.54-10.75,1.39-61.13,1.39-61.13s17.1-8.92,33,17.14,9.83,60,9.83,60,20.73,17,26.85,34.2c26.29,5.61,91,44.16,189.92,100.49,99.54,56.71,0,81.9,0,81.9L-34.14,871.75Z"/><path class="cls-10" d="M581.91,319.94c-10.51-1.15-20.65-4.3-31-6.44a189.5,189.5,0,0,0-44.29-3.39c-27,.85-55,1.9-79.44,13.44-3.73,1.75-7.39,3.76-11.4,4.72-7.11,1.72-14.56,1.17-21.86,1.17s-14.76.55-21.87-1.17c-4-1-7.66-3-11.39-4.72C336.21,312,308.29,311,281.25,310.11A189.5,189.5,0,0,0,237,313.5c-10.32,2.14-20.46,5.29-31,6.44-2.42.26-11.05-1.17-11.05,1.2,0,3.61.3,11.11.41,16.64a2.87,2.87,0,0,0,3,2.79,18.48,18.48,0,0,1,3.39.2,3,3,0,0,1,2.53,2.65c1.54,17.1,3.58,34.38,10.16,50.22,6.86,16.52,19.42,31.53,36.38,37.21a79.57,79.57,0,0,0,18.85,3.34A240.07,240.07,0,0,0,324,432.44c9.28-1.36,27.39-8,37.47-30.44,5.1-11.36,8.8-23.3,13.21-34.95,1.68-4.45,3.44-9,6.71-12.49s7.5-3.81,12.21-3.81,9.58.36,12.85,3.81,5,8,6.71,12.49c4.4,11.65,8.1,23.59,13.21,34.95,10.07,22.42,28.19,29.08,37.47,30.44a240,240,0,0,0,54.37,1.75,79.48,79.48,0,0,0,18.84-3.34c17-5.68,29.53-20.69,36.39-37.21,6.58-15.84,8.62-33.12,10.16-50.22a3,3,0,0,1,2.53-2.65,18.48,18.48,0,0,1,3.39-.2,2.87,2.87,0,0,0,3-2.79c0-2.4,55.64-3.63,72.4-6.89,0-2.8-.17-4.6-.15-5.12.08-2.88-71.84-2.9-71.84-4.63C593,318.77,584.32,320.2,581.91,319.94ZM367.39,358.37c-1.33,16.35-6.06,32.87-14.38,47-5.16,8.79-13.1,17.32-22.45,21.39-4.9,2.13-10.26,3-15.57,3.6a244.59,244.59,0,0,1-33.36,1.75c-9.8-.15-19.82-.94-28.84-4.79-11.84-5.05-21.06-15.09-27.08-26.47s-9.09-24.07-11.23-36.76c-1.56-9.24-2.64-18.77-.73-28,1.05-4.78,3.29-8,8.18-11.16,9.91-6.47,22.26-7.79,34.09-8.22,28.85-1.07,57.44.8,85.41,7.94,7.51,1.91,17.44,6.14,22.18,12.28S368,350.57,367.39,358.37Zm206,5.73c-2.14,12.69-5.22,25.39-11.24,36.76s-15.24,21.42-27.07,26.47c-9,3.85-19,4.64-28.85,4.79a244.67,244.67,0,0,1-33.36-1.75c-5.31-.64-10.66-1.47-15.57-3.6-9.35-4.07-17.28-12.6-22.45-21.39-8.31-14.14-13.05-30.66-14.38-47-.63-7.8-1-15.19,3.78-21.38s14.67-10.37,22.18-12.28c28-7.14,56.57-9,85.42-7.94,11.83.43,24.17,1.75,34.09,8.22,4.89,3.2,7.12,6.38,8.18,11.16C576.05,345.33,575,354.86,573.42,364.1Z"/></g></svg>