<svg xmlns="http://www.w3.org/2000/svg" viewBox="0 0 864 864"><defs><style>.cls-1{fill:#5f474e;}.cls-2{fill:#fff;}.cls-3{fill:#3fdfc4;}.cls-4{fill:#414042;}.cls-5{fill:#ddc5b8;}.cls-6{fill:#e9d0c0;}.cls-7{fill:#211e1f;}.cls-8{fill:#ceabab;}.cls-9{fill:#442d22;}.cls-10{fill:none;stroke:#28201c;stroke-linecap:round;stroke-miterlimit:10;stroke-width:8px;}.cls-11{fill:#c1a99d;}</style></defs><g id="Chocolate_BG" data-name="Chocolate BG"><rect class="cls-1" x="-1.57" y="-0.77" width="864" height="864"/></g><g id="White"><rect class="cls-2" x="-1.57" y="-0.77" width="864" height="864"/></g><g id="Truffle-light"><rect class="cls-3" x="-0.08" y="-5" width="864" height="864"/></g><g id="Layer_48" data-name="Layer 48"><path class="cls-4" d="M-20.35,810.86s14.93-43.44,32.54-68.09,38.74-47,63.4-56.35,92.74-36.39,128-52.83,92.74-50.48,106.83-52.83,36.4,14.09,36.4,14.09L575.7,592.5s8.22-22.3,14.09-20,45.78,31.7,70.44,38.74S780,653.55,807,671.16s59.87,45.78,65.74,70.44,16.43,79.83,23.48,102.13S915,898.91,915,898.91H-20.35Z"/><path class="cls-5" d="M359.84,432s12.08,108.69,5.58,119.83c-4.71,8.08-27.92,28.81-50.25,44.92-8.51,6.14,59.45,72.79,124.69,108,49,30.92,61.32,37.47,68.36,38.06s68-51,80.27-74.41,25.19-39.85,14.06-60.35-17-25.79-19.34-57.43-1.75-112.49-1.75-112.49Z"/><path class="cls-6" d="M286.26,312s-7.47,36.76,0,54,16.75,44.22,28.19,47.1S336.79,409.91,342,427s26.42,71.07,52.26,91.74,77,36.19,86.72,36.76,48.82.57,74.66-33.88,55.11-51.67,55.13-87.86c0-13.79-.57-17.24,6.89-18.39s23.55-4.59,27-25.27,6.89-40.77,4-68.91-32.16-134.38-83.27-159.65S424.66,101.81,373,156.37,286.26,312,286.26,312Z"/><path class="cls-7" d="M334.9,375.52s4.59-6.89,3.06-42.83,9.18-57.35,30.59-81.82,27.53-33.65,39.77-49,56.59-32.12,71.88-18.35,21.21-3.47,26.09,10.41c4.77,13.59,10.27,16.62,9.5,4.39s4.94-10.21,11.82-4.09,20.65,30.58,39,38.23S593.38,248.57,598,265.4s16.82,19.11,16.82,29.05,5.63,42.55.8,70.67c-2.06,12,17.46-10.45,25-18.27,6.46-6.7,14.36-20.33,15.12-33.33s4.2-76.42-2.68-91.71c16.06,13.76,17.59,24.47,18.35,22.17s3.49-25.3-11-45.94a24.66,24.66,0,0,1,11.75,9.59s-7.6-33.45-34.05-55.23A241.31,241.31,0,0,1,666.3,154s-9.33-12.19-32.92-11.41c-13.75-11.15-24.12-13-19.45-14s18.93.26,21.78,3.11c-2.33-15.56-56.78-43-57-43.3s17.37-6,25.15,0c-17.37-19.19-75.71-25.93-75.71-25.93s-21-14.52-39.15-5.7c-6-12.71-48.49-8.56-55.75.78-7-6.49-38.89-4.41-41.22,3.63,0,0-49.79,12.7-62.23,44.33-9.08-4.66-43.08,28.27-46.82,37.86,11.82-9.08,15.45-6.74,15.45-6.74S260,172.51,266.1,227.3c2.82-11.53,11.09-18.21,16.84-16.23-8.83,4.29-10.41,27.26-11.24,65-.47,21.2,10.25,49.17,11.5,60.06,4.46-26,10.76-21.33,12.92-18.76,3.55,4.22,15.44,35.93,26.31,53.39C328.94,381.25,334.9,375.52,334.9,375.52Z"/><path class="cls-7" d="M371.22,322.68c8,1.05,20.77-8,35.15-10.11s50.46,1.06,54.25-3.2-1.53-17-26-16-45.26-2.67-54.31,9.05S359,321.09,371.22,322.68Z"/><path class="cls-8" d="M413.9,443.56c0-4.12,22.9,5.56,79.19,4.06s73.35-8.93,73-5.07c-.4,4.77-28.75,36.29-32.67,38.9s-22.65,9.15-40.07,10-42.68-7-49.22-12.63S413.9,453.2,413.9,443.56Z"/><path class="cls-7" d="M525.12,299.25c-6,7.28-5.86,11.72,0,12.25s46.32-4.26,60.17,2.66,6.39,4.43,9.58,8.61,12.78,3.11,9.06-7.54-12.78-24.62-31.95-21.9S532.57,290.2,525.12,299.25Z"/><path class="cls-7" d="M427,449.55a110.78,110.78,0,0,0,47.09,18.29c27.93,3.87,59.53-5.66,71.76-15.9s-10.8.81-17.12,2c-4.93.95-68-3.89-92-4.24C430,449.64,426,447.27,427,449.55Z"/><path class="cls-9" d="M568.58,330.89a13.27,13.27,0,0,1-1.05,5.2,188.66,188.66,0,0,1-24.53.14,13.37,13.37,0,0,1,1.65-13.47c2.44-3.17,3.56-1.31,7.87-1.31,4.48,0,11.16-1.7,13.58,1.69A13.28,13.28,0,0,1,568.58,330.89Z"/><path class="cls-9" d="M435.69,330.89a13.27,13.27,0,0,1-1.05,5.2c-5.15,1.14-19.06,1.27-24.18.88a13.21,13.21,0,0,1-1.46-6.08,13.35,13.35,0,1,1,26.69,0Z"/><path class="cls-10" d="M385.49,335.3s21.75-16.87,46.43-14.63,27.28,12.07,27.28,12.07"/><path class="cls-10" d="M590.58,335.3s-13.13-10.66-28.83-12.9-34,1.36-37.18,9.37"/><path class="cls-2" d="M436.75,449.74c-8.54,1.22,14.17,14.62,22.09,16.86,14.09,4,46.05,5.16,57,1.1s24.8-10.88,26.09-18.15c0,0-24.33,1.38-51.72,1.52C464.46,451.2,442.74,448.88,436.75,449.74Z"/><path class="cls-11" d="M460.62,419.39c4,3.9,16.78,8.35,20.29,9.38s15.61,3.63,25.75.78,18.84-8.6,22.74-12.89-3.11-1.77-8.73,1.95c-4.3,2.85-13.14,9.65-24.06,10.23s-20.43-5.63-26.67-9.53S456.6,415.49,460.62,419.39Z"/></g></svg>