<svg xmlns="http://www.w3.org/2000/svg" xmlns:xlink="http://www.w3.org/1999/xlink" viewBox="0 0 864 864"><defs><style>.cls-1{fill:#3fe0c5;}.cls-2{fill:#003d5f;}.cls-3{fill:#7cc3b7;}.cls-4{fill:url(#radial-gradient);}.cls-5{fill:#d8b19f;}.cls-6{fill:#443935;}.cls-7{fill:#9b827c;}.cls-10,.cls-8{fill:none;stroke-linecap:round;stroke-miterlimit:10;}.cls-8{stroke:#5f474e;stroke-width:10px;opacity:0.65;}.cls-9{fill:#c99795;}.cls-10{stroke:#4c3636;stroke-width:14px;}</style><radialGradient id="radial-gradient" cx="439.81" cy="658.21" fx="277.87963128524717" fy="667.4720711437943" r="292.72" gradientTransform="matrix(-0.13, 0.99, -1.27, -0.16, 1334.08, 327.86)" gradientUnits="userSpaceOnUse"><stop offset="0.22" stop-color="#322825"/><stop offset="0.25" stop-color="#443732"/><stop offset="0.33" stop-color="#786259"/><stop offset="0.4" stop-color="#a28477"/><stop offset="0.47" stop-color="#bf9d8d"/><stop offset="0.53" stop-color="#d2ac9a"/><stop offset="0.57" stop-color="#d8b19f"/></radialGradient></defs><title>kevin-truffle-bg</title><g id="Truffle-light"><rect class="cls-1" width="864" height="864"/></g><g id="Kevin"><path class="cls-2" d="M279.18,603.2s-34.76,5.52-65.65,18.21S9.37,690.37,0,700.85,0,864,0,864H864V746.09S659.86,652.85,649.38,644.58s-21-11-35.86-14.9-23.17-21-23.17-21l-92.69-48Z"/><path class="cls-3" d="M304,550.4s-13-.76-23.71,19.89c-6.88,32.13-28.3,43.6-26,59.66s15.89,84.9,24.77,101.73,18.82,43.6,39.48,65.78,58.89,61.95,76.48,76.49,51,2.29,61.83-10,60.33-44.36,75.74-64.25,60.54-81.84,65.89-101,18.34-32.12,17.6-45.89S596,607,591.37,599.36s-28-23.71-28-23.71Z"/><path class="cls-4" d="M301.66,447.28s-6.37,123.56-5.62,134.8S328.27,687,338,702.39s30,29.61,33.35,36.73,18,22.11,19.87,46.47,14.24,42.35,19.49,51,9.37,26.23,12.74,30.73,14.62.37,19.11-8.25,12.75-17.24,21-23.61,24.36-14.62,22.86-21.74-4.49-1.87-2.24-16.49,4.49-27,13.49-44.22,19.11-31.11,29.61-46.1,21.73-38.61,30.36-57.35,27.73-54,25.86-76.46-218.13-21-218.13-21Z"/><path class="cls-5" d="M290.14,330.86c-20.94-15.81-14.59-20.06-24.74-13.18s-20.3,21.72-14,46.65,7,35.08,15.22,56,14,34.25,23.48,36.15,17.12-1.9,16.49,8.88,6.34,71,24.1,95.79,50,71.68,80.85,83.73,50.46,15.86,70.13,12.69,36.48-18.39,50.91-31.08,43-25.38,55-50.75,22.2-64.7,24.74-75.49,5.08-5.07,17.76-24.1,21.57-31.72,27.91-50.11,8.25-38.41,3.81-47.43-9.57-4.93-12.4,0S645.37,350,645.37,350l2.54-141.56-78.66-72.32L440.47,111.42,319.32,155.19Z"/><path class="cls-6" d="M419,303.42c28.69,7.28,48.21,17.7,42.11,25.63s-34.79-12.82-47.6-12.82-39.06,1.22-47.61,6.72-4.27-9.77,0-14.65S380.53,293.65,419,303.42Z"/><path class="cls-6" d="M538.6,324.17c-8.52,5.42-10.38,14,11,11.59s47.6-1.83,59.81,9.16,4.88-8.59,0-14.06-18.28-15.24-34.17-12.8S545.31,319.89,538.6,324.17Z"/><path class="cls-7" d="M313,421.52s24.28,75.9,61,68.22c9.26-1.94,10.93-18.84,26.58-18.84s18.85,12,24.22,12.34c6.81.47,14.23-5.88,24.7-3.09s17.1,9.63,33.31,10.48,17.92-2.56,30.71,0c4.23.85,7.93,8.26,14.74,9.45,13.82,2.39,27.4-10.34,35.6,10.17,5.12,15.36,7.11,28.16,19.76,0s32.51-41.8,32.51-41.8l-2.8,28.18s-4.53,18-10.88,39.55c-7.39,25.14-18.25,55.39-42.64,70.61-25.9,16.17-30.85,24.12-41.05,32s-11.87,9-18.91,12.68c-11.1,5.73-26.06,10.07-43,7.16-15.53-2.68-34.68-6.91-52.29-16.07a112.93,112.93,0,0,1-35.45-29.18c-10.69-13.65-26.49-31.45-38.41-52.24C320.32,543,313.16,521.52,311.17,512c-4.26-20.46-8.09-46.46-7.24-58S313,421.52,313,421.52Z"/><path class="cls-6" d="M301.8,432c4.88,14.84,7.32,14.46,12.21,0s-3.67-59.75,3.66-83.79,8.54-48.46,14.64-71-2.44-45.77,0-61.64S358,160.6,386.63,149s75.68-18.92,111.08-11,77.51,12.21,97.65,37.84,47,55.54,44.55,87.28-1.22,93.37-4.88,108.63,4.88,32.35-1.22,51.27-16.55,40.28-17.73,57.37,12.24-10.38,14.68-19.53,5.8-24.42,9.31-37.84,3.5-29.91,12-51.88S671,324.78,675.92,293c2-13,4.11-25.15,5.57-36.76.49-4,2-7.57,8.63-1.93.31-3.87-6.89-17.5-6.83-21.3a124.94,124.94,0,0,0-1.88-24.84,243.84,243.84,0,0,0-8.54-33.56c-1.26-3.8,8.85,15.57,7.29,11.65,3-14.81-14-29.28-15.42-32.33-.5-1.1-2.21.43-1.16-.45.5-.42,20,6.69,27,17.11,4.11-11.09-20.83-21.27-19.45-21.27,5.29,0,13.79,2.43,25.65,9.85-5.15-18.56-41.62-23.5-43.17-26a158.54,158.54,0,0,0-9.68-13.69c-3.63-4.58-3.43-9.75,5.43-7.47-3.43-6.86-17.93-9.52-14-9.58,6.62-.11,17.86,2.07,17.38,1.3-.87-1.38-40.31-22.29-41.09-23.46s1.09-6.54,9.38-7.11c-6.86-5.43-15,.6-17.12-.67-.44-.28-8-11.31-9.06-16.43-1.48-7.43-9.57-11.92-10.19-12.26,6.23,12.08.79,23.54-.29,23a65.5,65.5,0,0,0-12.74-4.36c-2.19-.53,5.48-13.59,18.5-20-22.84-.56-37.46,17.26-38,16.3a16.9,16.9,0,0,1-.68-15.73c-3.34-.84-19.25,15.54-22.92,14.76-2.53-.54.26-9.08-2-17.42S516.72,26.88,505.77,25C513.51,36.88,491.44,68.4,489.09,66s6-19.63,3-19.83c-2-.14-5.52,7.39-8.14,7.49-.44,0,11.34-32.44,5.78-44.56-.16,6-8.79,22.26-8.83,19.66-.11-7.72.65-15.21,3.27-19.06-9.32.86-12.37,18.83-12.07,16,.84-8,2.23-15.39,4.32-18.74-9.73,1.59-10,18.36-11.58,13.13C462,11,457.42,3.47,449.2,2.79c10.72,14.1,1.06,30.47-1.17,36.33s-8.49,12.47-10.13,10.57c-2-1.38-21-7.56-.57-39.93-13,8.91-19,28.44-19.78,24.14a43.24,43.24,0,0,1,2.19-24.14c-18.25,16.29-8.12,46.5-11.29,46.79-1.3.13-11.74-21.81-11.09-34.19-8.47,2.61,4.66,34.86,3.41,35-3.12.36-16.06-29-19-28.49,5,13.25,5.54,30.44,3.44,30.84-3,.56-5.8,1.18-8.51,1.87-5.12,1.3,5.4-28,1.38-26.2-2.26,1-18.94,25-21.3,34.28s1,8.48-2.36,9.26c-10.19,2.34-32.27-1.86-38,3.38-2,1.82,17.6,6.51,15.48,8.52-1.95,1.85-28.44-6-30.47-4,17.82,5.22,22.33,11.88,21.24,13-2.42,2.42-27.48-10.76-29.92-8.2-2.68,2.8,22.15,14.77,14.61,24.28-6.38,7-12.6,14.32-18.22,21.55-3.54,4.56-18.77,1.09-30.71,24.12,19.76-17.38,16.42-3.64,14.56-.31-4.43,8-7.27,15.26-7.73,21.28-2.44,31.74,1.83,69.58,4.27,89.72s1.83,40.26,11,51.88S299.36,367.5,300,391.91,301.8,432,301.8,432Z"/><path class="cls-8" d="M449.51,466.47s-.19-3.06,6.47-3.06c2.78,0,17.5,13.84,27.76,14.89s15-7.29,22.35-8.06c6.14-.64,7.35,4.56,7.35,4.56"/><path class="cls-5" d="M390.73,520.65c0,10.5,38.23,60.43,39.19,79.41s54.51,29.83,63.33,10.84,24.85-44.1,35-50.18,22.37-34.09,10.79-29.65-52.61,14.39-69.21,9.49S404.63,504.83,399,504.64,390.73,510.14,390.73,520.65Z"/><path class="cls-9" d="M399,504.64c1.76-3.45,39.94,14.53,57.88,14.8,6.17.35,6.63,4.42,15.61,5.47s17.4-1.66,26.54,1.59c11.49,4.08,29,3.65,44.73,3.51,11.3-.11-43.28,23.26-68.65,18C415,538.36,422.26,514.69,399,504.64Z"/><path class="cls-7" d="M437.39,546.24c26,5.36,42.15,10,61.27,8.41,12.62,1.61-19,24.59-31.41,23.9S418.8,542.4,437.39,546.24Z"/><path class="cls-6" d="M432,347.39c0,6.08-4.53,12.09-9.26,13.25s-9.09-.05-12.44-1.35-6.53-6.9-6.53-11.9a14.12,14.12,0,1,1,28.23,0Z"/><path class="cls-6" d="M571.56,364.33a13,13,0,0,1-10.29,12.77c-1.09,0-5.11-.28-7.08-.48a13,13,0,1,1,17.37-12.29Z"/><path class="cls-10" d="M528.27,366.78a38.94,38.94,0,0,1,30.31-13.59,43.66,43.66,0,0,1,32.79,18.09"/><path class="cls-10" d="M386.52,349.38a39,39,0,0,1,30.59-12.93,43.71,43.71,0,0,1,32.4,18.81"/></g></svg>