<svg xmlns="http://www.w3.org/2000/svg" xmlns:xlink="http://www.w3.org/1999/xlink" viewBox="0 0 864 864"><defs><style>.cls-1{fill:#3fe0c5;}.cls-2{fill:#79b858;}.cls-3{fill:url(#radial-gradient);}.cls-4{fill:#e9d0c0;}.cls-5{fill:#c4ab8d;}.cls-6{fill:#d3bda9;}.cls-7{fill:#baa48c;}.cls-8{fill:url(#radial-gradient-2);}.cls-15,.cls-9{fill:none;stroke-linecap:round;stroke-miterlimit:10;}.cls-9{stroke:#a88d7b;stroke-width:9px;}.cls-10{fill:#c99795;}.cls-11{fill:#604343;}.cls-12{fill:#936969;}.cls-13{fill:#fff;}.cls-14{fill:#5d8c83;}.cls-15{stroke:#473b33;stroke-width:12px;}</style><radialGradient id="radial-gradient" cx="461.6" cy="681.23" fx="432.4992443875311" fy="618.7664054325106" r="159.75" gradientUnits="userSpaceOnUse"><stop offset="0" stop-color="#5f474e"/><stop offset="0.04" stop-color="#6d555a"/><stop offset="0.18" stop-color="#937a79"/><stop offset="0.32" stop-color="#b29992"/><stop offset="0.47" stop-color="#cab1a6"/><stop offset="0.62" stop-color="#dbc2b4"/><stop offset="0.79" stop-color="#e5ccbc"/><stop offset="1" stop-color="#e8cfbf"/></radialGradient><radialGradient id="radial-gradient-2" cx="426.06" cy="434.97" r="127.52" gradientUnits="userSpaceOnUse"><stop offset="0" stop-color="#a77c50"/><stop offset="1" stop-color="#603913"/></radialGradient></defs><title>kirsten-truffle-bg</title><g id="Truffle-light"><rect class="cls-1" width="864" height="864"/></g><g id="Kirsten"><path class="cls-2" d="M349.59,656.68c-61.77,32.55-165.83,88.42-173.69,113.5S167,822.2,165,864c122,6.9,699,0,699,0V727.92S760.66,600.31,734.76,580.2s-47.66-30.13-70.45-37-75.14-20.62-92-22.57S349.59,656.68,349.59,656.68Z"/><path class="cls-3" d="M384.56,703.08c21,26.88,30.54,40,41.5,51.79s16.15,21,29,11.15,36.53-38.68,45.32-53.76,29.32-44.4,32.39-67.87,5.9-34,5.9-50.61S384.56,703.08,384.56,703.08Z"/><path class="cls-4" d="M253.73,289.45s-8.32,91.59-12.86,101.3-13.67,49.05-3.22,71.56,16.08,41,21.71,41.39,10.45-6,12.86,14.08,21.71,80.41,33,101.31,35.16,65.93,52.55,80.4,35.11,21.71,59.62,20.9,43-5.62,62.3-29.74,38.59-45,50.65-61.11,33.77-69.14,39.4-94.87,2.41-30.49,10.45-29.72,12.86-33,17.69-47.47,26.34-71.93,0-75.57S589,307.13,589,307.13l-50.65-98.89L421.76,170.6l-141.5,57.74Z"/><path class="cls-5" d="M387.82,105.7c-8.6-16.36-41.32-42.89-26.09-33.86s33.86,18.06,36.68,26.52-5.12-28.77-20.33-37.24S401.23,64.51,408.57,91s-1.73-42.32-25.42-54.74S429.44,51.53,456,109.08,387.82,105.7,387.82,105.7Z"/><path class="cls-5" d="M427.75,83.59s20.32-8.36,9-36.58,12-3.21,15.8,23.7,12.2-18,8.07-25.39,18.45,37.81,12.24,54.74S432,114.16,432,114.16Z"/><path class="cls-6" d="M287.25,189.78s-2.83-26.52,9-37.81,48.53-24.26,66-35.55S391.07,86,408.57,91s18.05,20.88,27.08,14.67,34.42-13.54,37.24-5.64c.4,1.11,5.48-4,14-.64,18.1,7.1,47.32,25.16,49.49,31.21,1.08,3,52.61,18.28,45.92,46.37s12.82,54.11-12.48,54.84c-56.28,1.62-173.7-51.09-173.7-51.09Z"/><path class="cls-5" d="M229.8,352.19c-.65,22.18-8.48,37.83,6.52,48.27s21.52,13,23.48,5.21,2.61-71.74,7.83-88.69,11.74-58.7,26.74-71.75,54.78-30.65,108.26-27.39,73.7-2.61,91.31,13.7,25.44,41.09,4.57,66.52-24.79,44.35-20.87,62.61,0,28.05,8.47-3.26,29.35-50.22,44.35-63.26,18.92-23.48,15.66-33.92S535,240,540.25,234.8s2,71.74-3.27,85.44,30.66,63.26,51.53,68.48S572.2,375,567,348.28s7.17-55.44,3.26-80.22,18.26,159.79,13.69,179.36,21.53-52.18,22.18-78.27,5.22-86.74-6.52-108.92S574.81,221,570.9,217.45s.65-19.83-21.52-37.44-46.31-44.34-66.53-54.13-54.13-1.95-78.91,7.18-56.74,28-91.31,36.52-56.74,28-62,49.57S229.8,352.19,229.8,352.19Z"/><path class="cls-7" d="M393.55,384.5c5.56-5.64-7.36-13.4-30.86-18s-35.76-6.31-42.78-2.46S301.68,376,300.28,381.62s20.69,1.05,33-.7S388.64,389.48,393.55,384.5Z"/><path class="cls-7" d="M471.47,382.56c-4.83-6.26,8.93-12.4,32.81-14.07s36.27-1.92,42.76,2.76S563.69,385.3,564.4,391s-20.66-1.47-32.63-4.7S475.73,388.11,471.47,382.56Z"/><path class="cls-8" d="M595.44,393.13c-1.7-1.13-40-7.38-51.56-8.72s-30.91-4.17-48.35-2.08S456.86,395,456.86,395s-42.28-3.6-52.89-.57c-8.87-1-15-9.1-26.55-11.94a180.34,180.34,0,0,0-62.94-4.74c-30.14,2.84-49.71,7.6-57.46,8.92-2.07,5.87-2.46,18.95,0,23.14,4.29.23,11.45,6,12.4,17.4s12,39,25.17,49.54,22.5,15.05,44,14.57,28.83-3.85,36.78-8.35,19.53-13.46,24.83-25.22,8.89-22,9.26-29.23-.16-13.61,2.5-17.41,5.87-4.55,11.94-4.36,22,1.14,22.75,4.55A48.61,48.61,0,0,1,447,424c-.37,3.22,1.7,19.14,4.54,25.4s6.89,13.06,14.34,21.75,16.17,14.39,22.44,16.92a73.63,73.63,0,0,0,33.74,4.55c14.79-1.51,30.72-6.44,37.54-13.27s15.93-17.74,19.72-28.64A168.71,168.71,0,0,0,586,427.07c1.33-6.45,7.59-12.85,9.48-14.22S597.15,394.27,595.44,393.13ZM392.79,453.42c-6.18,13.25-14.82,20.62-25,24.73s-26.14,5.54-36.21,5-21.49-5.89-31.5-13-15.61-20-19.43-30.61-5.44-26.09,0-36.51c3.53-6.77,10.89-10.6,22.08-15s34.88-3.46,47.39-3.53,31.39,6.27,39.16,12.66S399,409.85,400.15,421,399,440.18,392.79,453.42Zm182-10.43c-3.82,10.6-9.42,23.56-19.43,30.62s-19.86,11.54-31.5,12.95-28-.2-36.21-5-19.19-15.5-25-24.73a51.93,51.93,0,0,1-7.36-32.38c1.18-11.19,5.3-19.73,10.89-23.85s21.93-11,39.16-12.66,35.92.36,47.39,3.53,18.55,8.25,22.08,15C580.25,416.91,578.64,432.4,574.81,443Z"/><path class="cls-9" d="M389.65,505.44s8.81-.11,15.76,2.43,15.7,7.52,24,7.52,14.9-2.73,21.5-3.25l15.22-1.21"/><path class="cls-10" d="M346.6,564.78c-1.91,6.68,2,26.09,11.83,40.09s23.94,32.2,34.3,36.58,34.67,5.73,45.17,0S464,624,469.4,617.59s10.81-18.45,16.86-28.31,10.24-19.78,10.5-24.5.95-12.72-15-14.32-32.39-4-42.62-4.73c-4-.31-9.71.92-15.83.46-9.52-.72-20.06-3.06-26.8-2.72-11.09.55-26.44-1.83-35,2.22S348.51,558.1,346.6,564.78Z"/><path class="cls-11" d="M363.49,557.78s-2-5-4.38-2.4c-3.14,3.47-6.69,15.22-4.88,19.58,3.18,7.64,12.73,28.32,20.36,34.68,2.33,1.94,6,6.12,11.13,7.8,11.65,3.82,27.37,4.29,27.37,4.29s24.11.61,41.44-5.49c7.4-5.17,13.54-9.33,16.14-13.28,4.09-6.21,11.36-15.83,14.79-25,3.77-10.06,3.46-19.41,2.81-20.16-1.23-1.43-10,10.28-13.15,9.8-6.36-.95-56.35-1.29-56.35-1.29Z"/><path class="cls-12" d="M368.55,561.28c-5,1.36-8.27,13.36,0,28.32s6,20,13.68,26.4,27.21,12.73,39.53,10.82,23.14-2.55,29.19-7.64,15.58-11.77,18.45-20.36,5.41-21,0-27.68-53,0-69-.63S368.55,561.28,368.55,561.28Z"/><path class="cls-13" d="M360.19,553.79c-3.5,1.29-1.48,2.58,3.32,8.85s13.45,10.68,17.32,11.42,17.32,2.58,24.33,3.69,24.51,2.76,31.88,2.39,19.35-1.66,25.43-2.58,11.24-2.58,15.11-6.63,10.69-10.32,10.69-13.09-5-2.94-8.11-1.47-18.24,3.69-26.53,4.24-22.12,2-28.57,1.1-26.17-2.94-31.51-4.42-21-4.79-24.51-4.79A48.31,48.31,0,0,0,360.19,553.79Z"/><path class="cls-14" d="M366.34,408.78c0,2.55-1.84,5.93-3,8-5.62-.32-17.42.18-22.1-.29a13.75,13.75,0,1,1,25.15-7.69Z"/><path class="cls-14" d="M514.45,411.6a14.07,14.07,0,0,1-1.54,6.41,228.18,228.18,0,0,1-24.27,1.48,14.11,14.11,0,1,1,25.81-7.89Z"/><path class="cls-15" d="M387.64,410.49s-6.61-9.74-31.46-15c-25.52-2.6-44.64,13.72-44.64,13.72"/><path class="cls-15" d="M472.65,412.59s5.56-14.91,28.78-14.91,39.36,15.48,39.36,15.48"/></g></svg>