<svg xmlns="http://www.w3.org/2000/svg" viewBox="0 0 864 864"><defs><style>.cls-1{fill:#5f474e;}.cls-2{fill:#3fdfc4;}.cls-3{fill:#003d5f;}.cls-4{fill:#d6bdb4;}.cls-5,.cls-9{fill:none;stroke-linecap:round;stroke-miterlimit:10;stroke-width:10px;}.cls-5{stroke:#9b796f;}.cls-6{fill:#211e1f;}.cls-7{fill:#d6b5a7;}.cls-8{fill:#5e4e4a;}.cls-9{stroke:#2a2100;}.cls-10{fill:#c69e9e;}.cls-11{fill:#231f20;}.cls-12{fill:#fff;}</style></defs><g id="Chocolate_BG" data-name="Chocolate BG"><rect class="cls-1" x="-1.49" y="-0.77" width="864" height="864"/></g><g id="Truffle-light"><rect class="cls-2" y="-5" width="864" height="864"/></g><g id="Lee"><path class="cls-3" d="M40.39,744.81c34.72-17.88,244-75.39,244-75.39s172.51-34.8,293.11-7.32c111.51,25.4,186,33.9,231.24,57.44,17,8.83,36.91,19.56,55.25,32.51V864.12L0,864l-1.49-86.22S5.68,762.69,40.39,744.81Z"/><path class="cls-4" d="M272.22,553.5s17.14,91.74,15.94,101.32C285.88,673,276.25,680.89,276.25,698s42.37,79.81,145,79.81S558,734,567.1,709.47s14.29-33.47,7.46-68.79S578,546.41,578,546.41Z"/><path class="cls-4" d="M357.61,107.08s-64.44,28.24-90,68.85-28.25,77.68-30.89,95.34-7.07,64.44-7.07,64.44-7.06-4.41-12.49-2-8.4,13.72-10.53,29.21c-2.15,15.66,1.44,32.64,2.72,48.57s-1.36,23.1,0,28.87,12.22,32.27,19.7,34,26.83,41.44,26.83,41.44l50.6,73,61.14,60.8,108.68,10.19,57.4-48.57,45.17-47.55,31.59-44.83,12.9-42.12s8.16-.34,11.21-3.39,0-8.84,2-14.95,3.06-25.13,3.4-35-.68-22.76,0-32.95-2.38-17-2-26.83-1-19-4.76-22.07-9.51-1-9.51-3.4-3.39-22.76-3.39-29.55-1.36-32.26-8.49-53-19-50.95-34-72.68-41.09-47.89-70-66.23-64.53-23.78-79.48-24.46S376.18,100.22,357.61,107.08Z"/><path class="cls-5" d="M391.45,450.43c15.4,4.09,23.75,6.77,30.29,9.55s10.95,9.55,23,9.55,14.46-7.19,25.64-9.55,20.57-4.64,24.42-7.64"/><path class="cls-6" d="M233.65,409.23s-5.25,41-4.2,57.77,7.35,54.1,16.8,84,25.21,49.19,46,71.68c20.59,22.29,54.52,51,68.15,60.86,15.09,10.92,60.32,28.4,88.46,26.17,26.19-2.08,68.41-24.32,87.84-50s46.22-64.58,57.25-79.81,12.72-24.4,20.3-48.16c7.32-23,12.62-38.82,15.25-53.27,1.69-9.3-.93-42.81-3.73-60.81-1.3-8.29-2.07-10.82-3-.42-.22,2.59-.54,5.35-1,8.19-2.34,14.27-4.62,40.89-11.56,53.91a72.28,72.28,0,0,1-17.4,21.23c-9.37,7.88-11.41,6.73-14.82,8.69-5.61,3.24-5.41,1.57-12.44,7.32s-7.45,5.11-8.09-6-.55-29.7-5.24-32.69-36.28-9.27-47.36-10.33c-7.42-.72-21-2-31.56-3.27-5.18-.6-9,1.61-11.59,2.06-6.09,1.06-6.64,3-17,3.12-8.14.05-10.67-2.36-15.1-3.63-3.26-.94-6.81-3.26-12.77-2.83-12,.86-26.7,2.35-34.66,3.48-11.92,1.71-25.69,5.44-30.8,5.44s-22.14,5.66-26.68,14.06,4.06,42.34-5.55,39.21c-3.72-1.21-6.63-1.71-13.45-7.64-16-5.88-22-13.47-26.59-18.7-7.45-8.52-27.26-30-33-49.19S233.65,409.23,233.65,409.23Z"/><path class="cls-7" d="M527.87,488.39s-19.86-3.79-51.06,0-60.51.47-80.37,0-55.32,0-57.68,16.07-2.36,41.13,9.93,62.88,26.95,45.39,44,47.28,73.28,6.14,101.64,0,47.28-38.3,51.06-64.3S552,490.06,527.87,488.39Z"/><path class="cls-6" d="M404.7,564.35c-7.12,4.12-6.85,24.15-2.53,33.16s7,15.18,12.17,19,61.28,12.08,69.8-.19,20.41-44,11-49-30.64-.72-42.9-.36S411.55,560.38,404.7,564.35Z"/><path class="cls-8" d="M272.94,327.36c1.25,7.49,23.05-10.07,45.18-12.22s47.5,2.87,63.18,6.11,36-.36,24-9.35-34.58-19.78-55.79-19.42-42,4-53,9.71S271.55,319.09,272.94,327.36Z"/><path class="cls-8" d="M597,327.36c-1.14,7.49-21-10.07-41.19-12.22s-43.3,2.87-57.59,6.11-32.79-.36-21.86-9.35,31.53-19.78,50.86-19.42,38.26,4,48.35,9.71S598.27,319.09,597,327.36Z"/><path class="cls-6" d="M542.52,356.11a14.41,14.41,0,0,1-1.14,5.66c-9,.34-20,1.23-26.66.34a14.55,14.55,0,1,1,27.8-6Z"/><path class="cls-6" d="M360.94,353.84a14.45,14.45,0,0,1-1.75,6.92c-9.75.2-20.72,1.35-25.73-.24a14.55,14.55,0,1,1,27.48-6.68Z"/><path class="cls-9" d="M300.14,358s10.8-13.7,41.09-16.21S386.39,358,386.39,358"/><path class="cls-9" d="M490.27,360.58s14.9-18.95,40.7-17.2,40.69,17.2,40.69,17.2"/><path class="cls-10" d="M356.93,493.84c13.06-2.95,27.3,2.1,42.17,4.76s42.83,4,80.55,0,58.58-6.92,59-1.68S528,517.49,517.82,526.69s-23.08,33.6-66.57,32.71S374,535.34,365.6,526.07s-20.89-17.55-22.33-22.15C342.32,500.88,342.31,497.14,356.93,493.84Z"/><path class="cls-11" d="M369.46,503.62c-12.38,1.09-10.51,3.5-3.77,10S384.83,531.12,391.3,533s31.45,5.66,40.8,5.39,26.61,2.18,40.9,0,29.93-9.72,35.59-14.57,18.34-18.07,14.56-20.22-3.86-.57-14.11,2.12-44.43,10.82-62,11.09S392,511,379.84,509.62,372.4,503.36,369.46,503.62Z"/><path class="cls-12" d="M370.44,503.92s3.07,10.75,5.76,12.91,19.61,4.46,27.77,6.2c7.94,1.69,26.43,3,34.52,3.51s19.31-.37,31-2.4C482,522,497.81,520.6,502.66,519a21.39,21.39,0,0,0,11.05-9.44c2.16-3.78.27-6.47-2.15-5.39s-45.57,9.43-65,10c-12.49.35-36.59-3.54-54.6-5.92C382,506.89,373.13,505.36,370.44,503.92Z"/><path class="cls-12" d="M382.3,527.86s23.56,1.1,35.16,1.91S436.77,531,451.33,531s23.29-1.39,35.15-2,13.13-.37,10.39,1.85-21.13,10-53.73,8.47c-19.71-.93-39.86-2.68-50.19-5.89C386.58,531.46,383.47,527.94,382.3,527.86Z"/></g></svg>