<svg xmlns="http://www.w3.org/2000/svg" viewBox="0 0 864 864"><defs><style>.cls-1{fill:#5f474e;}.cls-2{fill:#fff;}.cls-3{fill:#3fdfc4;}.cls-4{fill:#130f11;}.cls-5{fill:#cda08a;}.cls-6{fill:#e5b7a1;}.cls-7{fill:#3a3333;}.cls-8{fill:#c99795;}.cls-9{fill:#211e1f;}.cls-10{fill:#231f20;}.cls-11{fill:none;stroke:#211e1f;stroke-linecap:round;stroke-miterlimit:10;stroke-width:10px;}.cls-12{fill:#886a5e;}.cls-13{fill:#252223;}.cls-14{fill:#333031;}</style></defs><g id="Chocolate_BG" data-name="Chocolate BG"><rect class="cls-1" x="-1.49" y="0.19" width="874.16" height="864"/></g><g id="White"><rect class="cls-2" x="-1.49" y="0.19" width="864" height="864"/></g><g id="Truffle-light"><rect class="cls-3" y="-4.04" width="864" height="864"/></g><g id="Liang_Liang" data-name="Liang Liang"><path class="cls-4" d="M202,708.27c-7.95-63.64-13.08-96.35,48.42-165.46,18.4-20.68-24.56-76.36-13.42-170.22s43-182.44,79.55-224.86S404.93,71.9,458.55,64s79.08,23.86,98.18,28.63,72.07-6.36,110,44.55,71.35,111.36,53.85,167.05,9.54,39.15-6.36,123.78-9.54,157.94-71.58,223.17-60.47,66.68-54.11,65.09S202,708.27,202,708.27Z"/><path class="cls-5" d="M250.37,697.93s48-7.83,61.72-23.51,39.19-38.21,42.13-62.7,3.91-74.46,0-99.93,4.89-65.64,15.67-75.44,197.9,6.86,210.64,24.5S557,559.8,555.06,577.43s-1,51,5.87,54.86,46.18,28.34,68.68,38.24,37.13,1,37.13,1L659.88,741,479.62,811.58,265.06,746.92Z"/><path class="cls-2" d="M-1.49,864V830.79s31-41.41,59.85-62.57,148.1-69.78,160.26-76.08,32.86-9,44.56-7.2,33.32-1.8,27,2.25-20.7,8.55-15.75,11.25,38.71,31.07,66.62,41.87,95.44,42.31,133.25,45.92,108-12.16,135.05-40.52,44.11-58.07,42.76-65.27-26.56-6.75-22.51-9.91,27-5.85,46.82-7.65,56.27,16.21,72.48,19.36,63.92,26.11,78.77,37.36,41.87,25.66,41.87,32V866.35L4.79,869.05l-6.28-5"/><path class="cls-6" d="M335.23,449c4,16.15,10.09,67.64,38.36,103s61.91,64.36,85,70.54,62.43,6.18,85.65-15,55.53-48.45,71.68-87.83,26.67-68.58,27.68-100.88,1.81-50.57,3.25-67.55,5.78-44.43,5.78-60.68-12-68.82-44.47-97.36-69.39-39.15-109-39c-26.78.11-64.25,12.42-81.95,21.81s-53.67,36.81-67.39,76.55-17.17,60.75-18.61,74.83S333.19,428,335.23,449Z"/><path class="cls-7" d="M554,299.21c-10.54,4.71,15.62,16.3,34.64,11.55s32.59-4.5,42.1,1.83,8.15-3.19,0-7.26S598.14,279.52,554,299.21Z"/><path class="cls-7" d="M477,293.78c11.1,6.41-19.87,13.51-40.43,5.63s-35.79-9.89-47.35-5.22-8.64-4.51,1.07-7.18S430.54,266.93,477,293.78Z"/><path class="cls-8" d="M413.51,494c13-2.65,47.94.9,62.47,5.83,14,4.75,26,5.91,37.9,3.75,12.84-2.34,44.75-.59,47.48,4.16,2.2,3.84,1,10.14-4,15.54-5.6,6-30.6,39.35-65.63,35.69-43.35-4.54-55.42-14.91-66.88-35.39C416.22,508.21,406.93,495.31,413.51,494Z"/><path class="cls-9" d="M416,495.87c4,.56,12,1.45,12.72,4s54,33.79,79.94,22.53,32.69-13.81,36.42-14.26,13.35-1.36,12.08.27-11.11,11.88-18,16.13-97.51-1.78-97.51-1.78l-3.58.37S408.21,494.76,416,495.87Z"/><path class="cls-2" d="M426.42,497.72s23.74,3.33,40.4,8.74S511,513.13,525.54,511s17.08-3.33,19.58-2.91.41,10.83-4.17,15-28.12,14.34-45.19,14.75-46.2-4.45-57.68-14.75C432.21,517.85,426,507.3,426.42,497.72Z"/><path class="cls-10" d="M445.87,344a14.12,14.12,0,0,1-2.16,7.53c-11.79,3.54-19.6,1.9-24.53-.77A14.2,14.2,0,1,1,445.87,344Z"/><path class="cls-10" d="M589.62,355.59a14.16,14.16,0,0,1-4.16,10c-4.77.93-13.67-.68-22.6-3.42a14.21,14.21,0,0,1-.09-13.08c2.35-4.6,19-6.62,21.4-4.73A14.17,14.17,0,0,1,589.62,355.59Z"/><path class="cls-11" d="M390.76,346.51s10.71-9.13,20.53-11.56,26.83-2.63,39.61,4.18c7.79,4.16,10.42,12.57,10.42,12.57"/><path class="cls-11" d="M544.94,359.79s10.12-11.69,23.9-14.76c17.81-4,35.61-.36,48.14,18.23"/><path class="cls-12" d="M458.55,459.92c6.71-4.49,11.4-4.34,16.11-2.53s12.71,9.77,17,13.75,11.19,2.54,15.9,0,10.49-5.44,17.37-6,6.51,4.53,5.79,6.34-28.26,4.51-33.3,3.61S454.38,462.72,458.55,459.92Z"/><path d="M544.94,729.7c51.69-55.19,76-73.86,92.42-133.4,16.39-95.66,44.36-162.86,50.21-206.68,10.12,37-8.85,92.75-15.27,117.48-8.19,31.5-9.6,57.22-13.47,91.72C655.05,632.55,610.29,689.42,544.94,729.7Z"/><path class="cls-13" d="M544.94,681c61.12-40.25,76-73.87,92.42-133.41,16.39-95.65,44.36-162.85,50.21-206.68,10.12,37-8.85,92.75-15.27,117.49-8.19,31.49-9.6,57.21-13.47,91.71C655.05,583.83,607.18,681,544.94,681Z"/><path class="cls-14" d="M544.94,132.12c-6.58-21.77-28.2-52.71-73-50.8-49.88,2.13-88.74,23.75-108.44,50.8,31.49-25.44,53.71-32.48,88.7-36.28,22.84-2.48,37-1.24,55.45,5.93S544.94,132.12,544.94,132.12Z"/><path class="cls-14" d="M555,135.5c17.91-14,53.39-26.9,88.95.43,39.59,30.42,59,70.46,59.5,103.91-11.13-38.92-25.25-57.45-51.69-80.68-17.26-15.17-29.57-22.29-48.79-27C583.88,127.42,555,135.5,555,135.5Z"/><path class="cls-13" d="M370.1,694.72c-47-56.09-51.61-92.57-50.26-154.32C331.59,444.07,324.07,371.67,331,328,310.73,360.55,312.91,419.4,312,444.94c-1.2,32.51-7.23,57.56-13.42,91.72C292.5,570.06,310.48,676.86,370.1,694.72Z"/></g></svg> 