<svg xmlns="http://www.w3.org/2000/svg" xmlns:xlink="http://www.w3.org/1999/xlink" viewBox="0 0 864 864"><defs><style>.cls-1{fill:#3fe0c5;}.cls-2{fill:#e8cfbf;}.cls-3{fill:url(#linear-gradient);}.cls-4{fill:#161314;}.cls-5,.cls-9{fill:none;stroke-linecap:round;stroke-width:12px;}.cls-5{stroke:#5f474e;stroke-miterlimit:10;}.cls-6{fill:#5f474e;}.cls-7{fill:#b06080;}.cls-8{fill:#fff;}.cls-9{stroke:#775f67;stroke-linejoin:round;}.cls-10{fill:#2b2527;}</style><linearGradient id="linear-gradient" x1="361.89" y1="889.85" x2="361.89" y2="567.63" gradientUnits="userSpaceOnUse"><stop offset="0" stop-color="#e8cfbf"/><stop offset="0.19" stop-color="#e4cbbc"/><stop offset="0.36" stop-color="#d9c1b3"/><stop offset="0.52" stop-color="#c7aea4"/><stop offset="0.68" stop-color="#ad958f"/><stop offset="0.83" stop-color="#8c7473"/><stop offset="0.98" stop-color="#644c52"/><stop offset="1" stop-color="#5f474e"/></linearGradient></defs><title>liz-truffle-bg</title><g id="Truffle-light"><rect class="cls-1" x="-1" width="864" height="864"/></g><g id="Liz"><polygon class="cls-2" points="411.8 120.33 527.5 195.99 512.95 674.68 430.67 895.84 184.12 879.84 184.12 631.03 144.83 508.08 163.75 385.28 210.31 267.28 290.33 129.06 411.8 120.33"/><path class="cls-3" d="M239.36,644.54s26.67,12.8,60.5,9.88S390.75,628,390.75,628s55.21-17.66,67.73-39L471,567.63l42.08,76.91L452.63,797.6,431.5,888.2l-205,1.65L210.71,630.46s12.19,1.63,15.79,6.06S239.36,644.54,239.36,644.54Z"/><path class="cls-4" d="M409,135.91s58.12,20.21,74.54,43S528,251.09,523,290.26s-.7,39-17.12,106-37.47,77-34.94,136.35-20.71,67.55-8.07,105.45S383.71,739.8,383.71,739.8s-75.8,64.44-39.16,102.34,60.64,60.64,60.64,60.64L864,888.2V698.11s-64.63-84.64-74.74-185.71,0-146.56-40.43-216S668,143.49,623.76,98,542.9,42.42,511.32,29.78,431.72,12.1,402.67,18.41,352.13,28.52,318,57.58s-78.33,87.17-92.23,128.86-26.53,93.49-46.74,126.34-41.69,146.46-41.69,146.46-24.12,95.09,0,155.49c17.22,43.14,14.66,77.71,12.16,96.73-2.8,21.32-25.53,51.35-47.54,66.25C63.26,803.92,56.33,827,21,799.18s-17.6,103.6-17.6,103.6L254.85,888.2s54.33-67.54,35.37-134.5c-10.92-38.59-38.84-89.67-70.44-125-17-19.05-16.41-24.54-20.07-34s-8.71-25.2-22.12-53.45c-11.13-23.46-15.19-57.74-14.92-82s1.53-59.95,18.68-94.84,31.34-53.21,31.34-53.21,6.71-17.32,27.92-73.94c11.93-31.86,43.91-66.23,64.77-84.92C355.78,107.19,409,135.91,409,135.91Z"/><path class="cls-5" d="M236.16,302.36s18.13-11.53,45.32,3.3,35.42,32.95,35.42,32.95"/><path class="cls-6" d="M301.93,318.35a19.4,19.4,0,1,1-33.11-13.72C272.33,301.12,293.66,309,301.93,318.35Z"/><path class="cls-5" d="M473.32,387.53s-6.37-20.6-36.8-26.93S388,362.77,388,362.77"/><path class="cls-6" d="M411.86,356.36a19.47,19.47,0,1,0,34.25,11C445.7,362.42,424.27,354.59,411.86,356.36Z"/><path class="cls-6" d="M320.49,300.8c2.87-2.4,1.45-13.12-5.35-19.43s-18.17-12.64-30.95-16-29.42-4.77-36.49-4.28-16.17,4.22-16.17,4.22,4.11,2.17,14.39,2.31c10,.13,26.46,6,26.46,6s18.47,6.81,23.81,12.64S317.61,303.21,320.49,300.8Z"/><path class="cls-6" d="M391,329c3.3,2.74,13.12,3.4,26.23,3.89s38.88,8.26,38.88,8.26,14.09,5.34,23.32,12.14,18.47,13.12,18.47,13.12,10.82,6.49,7,1.83-7.38-8.43-10.12-11.2a103,103,0,0,0-25.91-18.56c-14.63-7.47-21-11.66-32.64-16.17-12.62-4.87-22.36-8.86-33.53-7.4S387.64,326.24,391,329Z"/><path class="cls-7" d="M227.49,461.85c3-2.61,42.55,7.26,42.55,7.26L290.49,481s24.74,4,39.58,12.21,62,28.06,62,28.06,4.21,3-7.81,11.4c-7.38,5.16-26.78,24.58-39,28.86s-23.75,4.24-38.93,3.25-35.29-7.91-41.89-13.85S246.29,537.06,240,526.17s-10.22-32.32-10.55-36.94S224.52,464.46,227.49,461.85Z"/><path class="cls-8" d="M242.33,471.42s16.83,3.62,20.78,6.26,18.48,11.88,23.75,15.84,24.74,7.91,35,9.56,30.67,12.21,40.57,14.85,15.17,6.26,15.17,6.26-.33,4.95-9.56,8.58-25.07,7.59-38.27,5.61-34-4-46.18-8.25A79.24,79.24,0,0,1,256.85,514c-5.94-5.28-14.52-15.51-14.52-20.12s-3-13.86-3-18.15S242.33,471.42,242.33,471.42Z"/><path class="cls-9" d="M272.1,427.42s6.93,19,23.34,23.84a36.7,36.7,0,0,0,11.6,1.33c12.32-.33,24.63-4.67,38.76,2.87"/><path class="cls-6" d="M237.26,470s2.1,23.09,7.81,30.43c-.4-10.52,4.34-27.29,4.34-27.29Z"/><path class="cls-6" d="M368,519.43a76.47,76.47,0,0,1,14.16,4.85c6.88,3.23-21,10.92-21,10.92A35.34,35.34,0,0,0,368,519.43Z"/><path class="cls-10" d="M377.57,127.32S352.36,75.25,389.79,45,465,15.7,465,15.7s59.69,12.55,88.66,55.81,35.55,132.8,52.67,194.69-4.69,105,36.88,239C688,649.42,688,681.64,744.6,728.74s-58-38.5-58-38.5S580,553.51,576,459.24s9.21-150.9-17.12-220.69S533.05,89.74,465,80.52,377.57,127.32,377.57,127.32Z"/><path class="cls-10" d="M389.79,129.27s77.52-48,115.85,19.2,49.53,138.07,45.8,193.78-58.56,141.12-38.37,202.18c24.38,73.7,64.49,129.67,93.41,167S515,636.67,505.64,617.2s-49-69.76-30.37-161.74,63.28-149.39,37.91-222.41S389.79,129.27,389.79,129.27Z"/></g></svg>