<svg xmlns="http://www.w3.org/2000/svg" xmlns:xlink="http://www.w3.org/1999/xlink" viewBox="0 0 864 864"><defs><style>.cls-1,.cls-15,.cls-16{fill:none;}.cls-2{fill:#3fe0c5;}.cls-3{fill:#878787;}.cls-4{fill:#fff;}.cls-5{fill:#9b9b9b;}.cls-6{fill:#7cc3b7;}.cls-7{fill:#8bccbf;}.cls-8{clip-path:url(#clip-path);}.cls-9{fill:#5e464d;}.cls-10{fill:url(#radial-gradient);}.cls-11{fill:#e9d0c0;}.cls-12{fill:#c69f95;}.cls-13{fill:#211e1f;}.cls-14{fill:#443636;}.cls-15{stroke:#766362;stroke-width:10px;opacity:0.65;}.cls-15,.cls-16{stroke-linecap:round;stroke-miterlimit:10;}.cls-16{stroke:#211e1f;stroke-width:14px;}.cls-17{opacity:0.42;}.cls-18{fill:#baa39d;}</style><clipPath id="clip-path"><rect class="cls-1" x="337" y="656.54" width="61.25" height="60.35"/></clipPath><radialGradient id="radial-gradient" cx="348.66" cy="584.97" fx="383.95114136010335" fy="425.18694390689177" r="163.64" gradientTransform="translate(0 -25.11) scale(1 1.04)" gradientUnits="userSpaceOnUse"><stop offset="0.19" stop-color="#5f4536"/><stop offset="0.35" stop-color="#876a5c"/><stop offset="0.65" stop-color="#d6b5a7"/></radialGradient></defs><title>seese-truffle-bg</title><g id="Truffle-light"><rect class="cls-2" width="864" height="864"/></g><g id="Seese"><g id="Suit_and_Bow_Tie" data-name="Suit and Bow Tie"><path class="cls-3" d="M211.65,456.79c-11.18,4.51-37,29.08-52.84,32.44S57.89,518,34,529.91s-47.77,14.19-47.77,16.8S-7,864-7,864l871,3.27s-4.5-226.9-15.69-238.09c-5.23-5.23-32.08-26.39-73.89-47.77-47.73-24.41-112-49.52-135.1-58.51C596,506,555,487.74,546,480.46s-34.32-32.65-34.32-32.65Z"/><polygon class="cls-4" points="227.41 502.68 209.38 649.18 227.41 874.54 501.84 874.54 510.69 521.34 430.99 371.04 227.41 502.68"/><path class="cls-5" d="M198.21,514.33c-15,23.52-56,94.69-56,99.92s41,41,35.82,44.78-44.78,32.84-53.74,36.57,37,171.67,37,171.67H281.81s-13.44-156-21.65-192.57-26.54-137.82-21.32-158.34-17.49-27.08-17.49-27.08A95.16,95.16,0,0,0,198.21,514.33Z"/><path class="cls-5" d="M489.57,522.9c2.72,30.89-14.45,190.62-27.88,224.2s-33.24,124.65-33.24,124.65,101.74,48.51,122.35,0,50.46-118.68,43-126.14-51.5-44-47-47.77,41.8-19.4,43.29-29.85S561.7,530.81,554.24,522.9,521.3,488,516.75,489.28,489.57,522.9,489.57,522.9Z"/><path class="cls-6" d="M253.66,678.27c-2.45,17.27,1.47,26.56,0,36.35s8.8,20,21,24.45-.49,9.3,15.16,5.38c7.83-2,27.31-4.24,38-11.25s12.59-18.72,22.47-21.12a109.85,109.85,0,0,0,17.11-5.82c4.82-2,10.75.5,14.3-.77s4.92-6.38,7.65-5.55c8.08,2.45,24.83,12.23,42.62,9.78s46.66-11,52.77-18.45,7.58-24.29,3.17-33.73-17.83-42.7-22.85-43.68-50.51,25.24-60.3,36.59c-4,4.64-9.58,11-15.41,13.38-8.39,3.4,0-8.88-22.8,3.94-4.46,2.51-14.33,2.53-22.69,2.63-3.69.05-4.53,3.09-8.82,1.3-4.78-2-9.09-3.43-12.33-3.55-12.72-.49-36.8-12.08-50.5-10.61s-13.39,3.76-19.41,12.08S253.66,678.27,253.66,678.27Z"/><path class="cls-7" d="M404.48,674.11c6.39-6.79,23.22,2.92,39-7.88s22.62-12.76,27.2-12.43-11.79,7.21-22.93,20.31-35,11.74-39,8.16S399.23,679.68,404.48,674.11Z"/><path class="cls-7" d="M328.55,703.8c4.79-5.86,4.8-7.3-20,4.26s-30.19,43-26.21,36.67,12.91-20,22.21-22.9S323.17,710.37,328.55,703.8Z"/><path class="cls-7" d="M332,692.07c-7.12,2.86-22.37-6.51-39.15-3.11s-25.48-5.6-29.93-6.74,14.17,6.8,26.75,1,35.81,0,39.2,2.94S337.87,689.73,332,692.07Z"/><g id="Artwork_4" data-name="Artwork 4"><g class="cls-8"><g class="cls-8"><path class="cls-9" d="M367.47,656.54a30.17,30.17,0,1,1-29.82,30.17,30,30,0,0,1,29.82-30.17"/><path class="cls-4" d="M358.1,713.47c1.21.41,5.32,1.74,5.49.44.09-.71-2.06-1.45-5-3a47,47,0,0,1-11.31-8.35,25.9,25.9,0,0,1-7.76-18c-.25-9.13,3.33-16.51,9.19-21.27A30.08,30.08,0,0,0,337,686.34a28.17,28.17,0,0,0,5.14,17.24,19.51,19.51,0,0,0,3.75,3.68,46.63,46.63,0,0,0,12.2,6.21"/><path class="cls-4" d="M397.85,679.76c-1.85-8.69-7.59-14.78-15.29-19.08,5.88,4.18,14.16,13.08,9.28,20.94-4.14,6.29-14.19,5.06-19.69,2.08-6.52-3.56-14.71-11.54-6.65-19.33,5.23-5,21.88.6,18.93,8.15-1.7,4.39-8.35,3.41-11.34,1.27-2.2-1.59-4.06-4.31-3.08-7.12.31-.91.27-2.29-1-1.27a5,5,0,0,0-1.59,3.21c-1.39,9.84,16.12,17.46,21.33,7.94,2.7-4.93-1.68-12.1-7.18-15-4.15-2.22-8.44-3.77-13.72-3.39-8.43.6-15.51,5.87-16.39,14.49s4.84,16.28,11.59,20.89c7.08,4.85,16.62,8,25.34,5.16,7.81-2.59,11-11.57,9.47-18.89"/><path class="cls-2" d="M386.71,673.13c.84-5.63-4.25-9.5-9-11.26-5.55-2.08-12.88-1.16-16.92,3.43-3,3.37-2.76,8.28-1.24,12.23a20.94,20.94,0,0,0,13.56,12.19c4.3,1.33,9.51,1.91,13.87.51,6.36-2.05,8.43-8.68,7.11-14.76a17.8,17.8,0,0,0-1.28-3.81c-.81-1.68-3.27-5.09.12-.94a15.47,15.47,0,0,1,1,1.45,16.37,16.37,0,0,1,1.65,3.67c1.84,5.67.39,12.29-4.74,15.71-3.95,2.62-8.93,2.94-13.49,2.28a25.48,25.48,0,0,1-15.89-8.59c-3.66-4.34-6.15-10.56-4.64-16.26a12.63,12.63,0,0,1,8.52-8.58,19,19,0,0,1,15.37,1.8,13.65,13.65,0,0,1,5.59,5.65,8.3,8.3,0,0,1,.85,3.53,7.39,7.39,0,0,1-.12,1.48c0,.17-.4.67-.35.26"/></g></g></g></g><path class="cls-10" d="M244.36,535.33c1.35,11.79,8.08,36.36,13.13,41.07s23.9,26.26,35.68,34.34,43.14,33.33,53.89,36,21.18,6.73,33.3,0,30.3-17.57,37-25.45S244.36,535.33,244.36,535.33Z"/><path class="cls-11" d="M234.23,115.52s-52.46,200.53-61.39,209.53-18.82,29.47-11.46,53.2,16.42,42,14.78,53.75,18.86,26.84,22.48,26.84,20.41,62,39.79,79.32,85.78,78.81,102.32,85,35.39,13.69,59.68,8.27,44.44-25.84,61.75-48.32S496,544.1,503,532.74s25.58-36.44,27.39-70.8,0-94.82,0-94.82l4.9-53.49L509.47,147.24,443.06,121.4,363.74,61.46Z"/><path class="cls-12" d="M305.81,496c7.2-3.21,48.5-8.32,62.71-7.12,12.07,1,20.08,1.28,33.15-.56s35.92-1.89,59.2-2.32c16.7-.3-21,30.77-28.87,45.26s-51.92,17.34-65.37,14.4-49.89-36.48-54.51-39.85S298.57,499.24,305.81,496Z"/><path class="cls-13" d="M435.67,495.3c6.09-2,22-8.48,21.72-5s-2.52,8.47-5.43,10.19-12.45,7.45-14.83,8S435.67,495.3,435.67,495.3Z"/><path class="cls-13" d="M331.05,501.52l-3.2-1.9s-18.39-3.66-19.32-1.41,20.36,14.72,26.47,16S331.05,501.52,331.05,501.52Z"/><path class="cls-4" d="M327.85,499.62c-.05,3.7,0,12.53,5.66,13.93,9.15,4.79,34.83,8.27,41.37,9.14s25.68-1,38.31-5.31,25.69-7.32,25.69-10.8,2.17-12.62,0-12.62-36.58,7.83-48.77,7.4S334,497,327.85,499.62Z"/><path class="cls-14" d="M240.12,330c11.78-4.32,54.37-15.31,73.38-11.61s24.78,4.4,33.56,5.42c7.86.92,11.27-13.87-10.09-21.26s-41.71-6.09-51.73-3-30.51,6.8-37.32,15.81S236.47,331.33,240.12,330Z"/><path class="cls-14" d="M515.88,325.22c-9.22-4.32-40.82-13.57-55.71-9.87s-22,3.76-28.85,4.79c-6.16.92-6.26-13.24,10.47-20.63s39-8.54,46.82-5.46,10.95,5.93,18.28,11.34S518.75,326.56,515.88,325.22Z"/><path class="cls-15" d="M356.73,450.89s6.33-2.31,15.12.83,12,11.73,25.89,10.71c5.83-.44,14.15-5.69,20.13-8.66s9.64-2.23,9.64-2.23"/><path class="cls-16" d="M263.55,355.51s10.76-19.65,44.95-19.65c26.78,0,33.5,19.65,33.5,19.65"/><path class="cls-16" d="M421.64,354.51s5.28-21.37,36.31-21.37c24.3,0,36.31,16.33,36.31,16.33"/><circle class="cls-13" cx="300.92" cy="347.38" r="15.39"/><circle class="cls-13" cx="453.53" cy="345.68" r="14.92"/><g class="cls-17"><path class="cls-18" d="M530.76,406.9c.67-18.75,0-24.93,0-24.93.19,8.49-3.5,62.1-6.68,81.53-3,18.42-22,41.61-32.81,56.93,4.84-19.41-7.61-44.8-8.53-46-3.39-4.23-20.91-11.24-36.3-13.05-10.55-1.23-26.93,7.06-49.91,7.84-10.53.36-22.44-2.94-35.8-5.76-18.16-3.83-48.52,6-70.66,20.74-18.41,12.25-12.31,44.35-17.82,50.13-5.38-4.56-10.19-8.51-14.09-11.47-20.44-15.5-50.42-113.19-62.2-148.56-3.26-9.77-4.6-1.52-4.6-1.52l9.11,88.48s21.27,57.8,32.83,71.22c6.65,7.71,34.75,33.49,57.56,53.07,16.82,14.45,30.85,25,30.85,25s9.47,9.93,28.22,16.26c3.18,1.07,8.29,2.43,12.56,3.55,2.89.75,3.88,1,7.5,1.68a77,77,0,0,0,13.56,1.18c20-.12,35.53-6.19,51.94-21,20.37-18.34,56.86-66.27,64.77-75.5S525.1,499,527.75,480.46,532.57,425.45,530.76,406.9ZM414,598c-17.81,14-33.6,6.17-46.4,6.17-7.8,0-39.92-21.56-66.21-44.51-5.3-9.23-25.14-49.88-3.38-63.7,10.61-6.74,26-12.13,40.31-15.53,26.65-8.75,35.16-3.92,52.48-3.92s33.77-4,53.79.2c17.33,3.65,28.25,8.13,32.29,15.31,3.43,6.11-5.39,45.06-7.69,54.11C450.8,565.28,425.87,588.72,414,598Z"/><path class="cls-18" d="M426.64,551.53c-5.82.27-22.68,3.29-38.32,4.23s-29.58-2.33-37.44-2.22c-3.06,0,7,5.49,15.75,10.33,7.38,4.1,12.48,7.72,21.55,7.71s15.57-4.82,23.88-9.35C422.23,556.69,432.77,551.24,426.64,551.53Z"/></g><path class="cls-14" d="M163.91,334.06c14.44,12.92,17.48,47.88,25.85,47.88,5.73.14,7.7.39,5.15-16.8.76-23.56,5.49-53.89,13.09-70.61s-12.16-17.48,0-77.53,25.08-79.05,41.8-87.41,24.33-11.4,43.33-6.08,66.88,16,89.68,16.74,75-3.27,93.29,7.37,26,18.46,30.62,53.42,5.32,65.37,12.92,80.57,10.64,55.49,10.64,64.61-1.81,26.22,5,15.58,1.81-26.77,4.82-38.5,10.22-60.75,5.11-95a181.3,181.3,0,0,0-10.4-38.46c-1.71-4.48,9.37,11.28,16,32.43-2.71-38.32-34.71-87.25-38.06-97-2.35-6.89,9.68-30.21-.16-39.91-2.6,14.35-18.79,14.69-16-4,.27-1.8,14.83-17.41,34.88,9.42.54-2.17-12.19-34.69-28.23-35.52.64-2.47,3.35-9.26,9.5-9.82,5.12-.46-7.55-16.69-45.89-10.07,9.47-5.91,29.89-8.42,26.27-8.27-39.05-1.42-49.82,9.27-56.87,10.35-11.94-.91-16-9.41-26.2-17.45-.47,9.7-11.19,16.3-15.39,16.4-2.92.07-7.49-15.39-10.41-15.22-1.74.1-12,15.86-13.74,16-4.62.38-20.35-4.53-13-18.46-5,.72-13.09,21.36-18.84,20-7.58-1.8-12.68-7-6.91-20-6.79,2-43,27-51.9,41.79-6.44-4.7,8.69-18.08,21.45-28.4-22.91,2.93-41.55,22.42-63.78,38.8-17.46,12.86-29,23-37.24,33.18-28.27,34.89-42.4,71.58-45.11,111.28S151,326.77,163.91,334.06Z"/></g></svg>