<svg xmlns="http://www.w3.org/2000/svg" xmlns:xlink="http://www.w3.org/1999/xlink" viewBox="0 0 864 864"><defs><style>.cls-1{fill:#3fe0c5;}.cls-2{fill:url(#radial-gradient);}.cls-3{fill:#251f21;}.cls-4{fill:#e8cfbf;}.cls-5{fill:#211e1f;}.cls-6,.cls-9{fill:none;stroke-linecap:round;stroke-miterlimit:10;}.cls-6{stroke:#161314;stroke-width:22px;}.cls-7{fill:#eee6cf;}.cls-8{fill:#161314;}.cls-9{stroke:#5f474e;stroke-width:10px;opacity:0.42;}.cls-10{fill:#b58d8d;}.cls-11{fill:#5f474e;}.cls-12{fill:#fff;}</style><radialGradient id="radial-gradient" cx="454.8" cy="705.45" fx="463.5904691065836" fy="456.3233201164144" r="249.28" gradientUnits="userSpaceOnUse"><stop offset="0" stop-color="#5f474e"/><stop offset="0.63" stop-color="#e8cfbf"/></radialGradient></defs><title>shay-truffle-bg</title><g id="Truffle-light"><rect class="cls-1" width="864" height="864"/></g><g id="Shay"><path class="cls-2" d="M298.8,592.14a107.55,107.55,0,0,0,2.94,17.15c6,23.91,15.47,74.55-2.81,139.71-20.8,55.55,6.22,55.41,6.22,55.41l216.72,55.31,96.67-51.6s-18.09-92.94-34.35-181.32c1.27-12.82.55-10.06,4.23-23.48C618.61,492.94,298.8,592.14,298.8,592.14Z"/><path class="cls-3" d="M211.08,483.56s-3,35.52,19.8,57S257,510.89,257,510.89s-3.79,13.32-20.08,14.89S211.08,483.56,211.08,483.56Z"/><path class="cls-3" d="M225.22,454.31s-8.14,13.57-4.75,25.09,7,21.36,13.5,24.41S250,494.92,250,494.92V457.7Z"/><path class="cls-3" d="M618.61,492.94s-15.3,29.31,7.49,50.75,39-9.58,39-9.58c-2.52-2.63-17.41,8.12-24.12,3.9C627.12,529.29,618.61,492.94,618.61,492.94Z"/><path class="cls-3" d="M670.3,455c9,4.6,11.11,20.37,11.11,20.37s-1.88,22.27-5.55,30.78-9.73,16.36-18.34,17-14.21-7.1-14.21-7.1L640.51,504l11.2-39.82,5.38-9.18S661.34,450.42,670.3,455Z"/><path class="cls-4" d="M265.47,514.67l19,57.69s20.09,32.53,49.25,54.18c29.79,22.1,39.16,25.6,59.18,36.79,23.07,12.91,35.11,22.31,50.59,21.6s35.88,0,47.14-7,53.47-38,53.47-38,30.25-20.4,44.33-36.58,31-35.19,35.88-52.07,29.66-83,29.66-83,5.67-26.05,7-45.75,4.13-104.13,4.13-104.13V274L604.6,257.15,373.82,330.32l-103.43,72Z"/><path class="cls-5" d="M576.39,401a18.33,18.33,0,0,1-3.14,10.28c-1.65,2.44-7.19,4.21-12.66,5.15s-10.89,1.05-12.3.17a18.38,18.38,0,1,1,28.1-15.6Z"/><path class="cls-5" d="M354,399.14a18.3,18.3,0,0,0,3.14,10.27c3.3,4.89,22.07,7.11,24.88,5.38a18.38,18.38,0,1,0-28-15.65Z"/><path class="cls-6" d="M521.87,404.19s11.72-12,24.88-15.19c6.43-1.55,25.08-3.52,39.93-.46,15.55,3.2,24.05,15.65,24.05,15.65"/><path class="cls-6" d="M409.51,402.31s-11.72-12-24.88-15.19c-6.43-1.56-25.08-3.53-39.93-.47-15.55,3.21-24.05,15.66-24.05,15.66"/><path class="cls-5" d="M282.56,566.59s-2.21-7.34-5.57-17.79c-6-18.77-13.72-48.07-4.59-66.34C286.62,454,308.23,422,330.74,401s59.32-12.09,59.32-12.09,32.83,4.65,70.75-17.86S559.16,313,559.16,313s47.4-27.26,64-27.26,26.07-13,34.36,5.93,0,90.05,0,90.05-1.18,51-3.55,86.51,11.13-32.64,11.13-32.64,44.09-38.54,44.09-68.33,12.51-84,10.14-110.12-4.24-72.73-16.78-99.37c-11.44-24.31-39.1-58.86-81.76-84.14s-96.55-33.18-120-36.73S398.26,42.12,365.08,51,290.18,79,257,118.39s-61.62,66.64-64,101-15.41,73.47-5.93,104.28-3.55,74.71,15.41,104.9S257,510.89,257,510.89Z"/><path class="cls-7" d="M620.78,84.31S539,53.5,464.37,67.72C411,77.88,350.36,103.8,306.7,152c-7.74,8.54,33.36-26.62,92.09-29.21-88.36,25.2-123.44,79.62-134.68,97.84-52.81,85.58-53,123.63-53,163.23,0,8.8,1.88,19.39,4.8,30.54,11.62-104.15,49.59-165.73,71.59-184.23C237,305,223,428.69,225.92,443.93c2.17-16.76,19.24-62.1,19.24-62.1s-7.2,65.56-4.45,80,8.35,37.34,8.35,37.34,15.24-76.07,62.41-114.39C298,386.63,261,380.76,247.6,367.28c39.31-17.83,106.12-44.24,154.07-98.19,23.12-26,75.35-63.61,134-70-31.09-.85-35.16-15.17-98.25,10.8,68.41-45.09,96.82-6.37,180.9-43.27,21.35-9.44,36.86-18.28,41.6-26.58C678.84,106.82,620.78,84.31,620.78,84.31Z"/><path class="cls-8" d="M528.94,353.37c9.71-9.3,44.08-22.24,56.61-25.48s18.2-9.7,29.92-5.66,24.26,23,24.26,23a8.12,8.12,0,0,1,1.78,5.35c-4,0-29.8-15.89-29.8-15.89s-14-2.4-33,8.11-34,17.2-45.83,23.38C522.31,371.75,528.94,353.37,528.94,353.37Z"/><path class="cls-9" d="M409.51,524.05s8.44-1.52,20.78,3.55c7.59,3.12,15.84,13.81,26.92,13.81,15.41,0,20.22-4,28-8.68,9.13-5.49,19.75-4.53,19.75-4.53"/><path class="cls-10" d="M366.11,563.51c0-9.34,72.29-4,88.69,5.25,20.47-8.64,88.09-16.72,88.09-6.79s-37.51,41.64-60.51,50c-14.22,5.14-47.8,4.65-65.47-1.64S366.11,572.86,366.11,563.51Z"/><path class="cls-5" d="M589.05,113.58s-136.7-7.86-192.47,50.8C494.16,109.23,589.05,113.58,589.05,113.58Z"/><path class="cls-5" d="M448.43,178.43s-127.5,49.91-153.7,126.5C352,214.22,448.43,178.43,448.43,178.43Z"/><path class="cls-3" d="M0,685c84.82-41.73,211.08-46.87,301.74-75.7,7.52,11.12,46.61,153.88,107.77,205.37,25.53,21.49,69.5,27.59,90.15,27.65,27.83-.22,62.92-5.91,74.77-24.32,26.29-40.83,9.76-162.43,9.76-191.19,24.72,6.89,275.66,66.7,279.81,82.66S864,864,864,864H0Z"/><path class="cls-11" d="M389,569.33c-19.69-3.44,19.18,17.88,36.16,21.24s66.55-.63,77.41-4.34c5.93-2,14.62-9.51,18.07-13.6,2.87-3.4,1.94-3.8-5.57-2.65-3.18.43-4.4.41-6.39.62-14.25,2.27-37.72,5.21-52.4,5.21-17.91,0-39-2.4-58-5.21C396.48,570.34,390.64,569.62,389,569.33Z"/><path class="cls-12" d="M398.24,570.6c-1.09,11.36,15.44,12.78,30,15.81,16.57,3.45,51.18,1.57,66.36-2.65,9.53-2.64,14.6-8.49,14-13.16-6.11.74-37,4.09-53.84,4.09S404.27,570.12,398.24,570.6Z"/></g></svg>