<svg xmlns="http://www.w3.org/2000/svg" xmlns:xlink="http://www.w3.org/1999/xlink" viewBox="0 0 864 864"><defs><style>.cls-1{fill:#e9d0c0;}.cls-2{fill:#3fe0c5;}.cls-3{fill:url(#radial-gradient);}.cls-4{fill:#3f3331;}.cls-5{fill:#5f474e;}.cls-6{fill:#59454b;}.cls-12,.cls-7,.cls-8{fill:none;stroke:#5f474e;stroke-linecap:round;stroke-miterlimit:10;}.cls-7{stroke-width:14px;}.cls-8{stroke-width:10px;opacity:0.42;}.cls-9{fill:#aa9085;}.cls-10{opacity:0.5;}.cls-11{clip-path:url(#clip-path);}.cls-12{stroke-width:6px;opacity:0.45;}</style><radialGradient id="radial-gradient" cx="421.48" cy="653.24" fx="429.21453229800886" fy="454.2370526087459" r="199.15" gradientUnits="userSpaceOnUse"><stop offset="0.45" stop-color="#5f474e"/><stop offset="0.74" stop-color="#e8cfbf"/></radialGradient><clipPath id="clip-path"><path class="cls-1" d="M357.73,593.85c18-3.09,29.59-1.34,43.95-1.34s11.91,2.82,21.93,2.22,6.77-2.82,15.74-2.22,30.14-1.45,49-.43-43.58,31.73-63.53,31.73S339.72,596.94,357.73,593.85Z"/></clipPath></defs><title>tim-truffle-bg</title><g id="Truffle-light"><rect class="cls-2" x="0.2" width="864" height="864"/></g><g id="Tim"><path d="M.2,620.3c0-1.94,10.5-5.07,62.36-20.82C183.34,546,274.61,546,274.61,546S520.44,595.71,565,599.45,807,714,864.2,746.36c7.43,27.42,0,117.64,0,117.64H.2Z"/><path class="cls-3" d="M274.61,546s-2.51,86.47,9.6,113.91,24,64.35,70.41,85.46,77.71,18.28,119.93,3.5,66.15-40.43,79.87-70,14.32-47,14.12-65.34S534.76,546,534.76,546Z"/><path class="cls-1" d="M216.12,415.67c.34,27.36,8.93,46.37,14.51,55.83,5,8.55,10.28,15.82,22.18,28.19,1.27,1.32,3.43.17,4.86,1.61,6.14,14.51,16.49,60,35.46,89.6s56,54.16,89,73.13,26.79,18.66,50.11,17.55,27.2.47,43.94-14,55.38-28,69.89-47.49,40.08-42.55,49.57-72.68S597.27,510,604,505.51s11.16,8.79,21.76-5.09,18.5-36.93,21.29-50.88,9.46-31.72,15.63-46.23,5.64-25.58,4.76-29.91-7.78-15.93-14.56-12.5-28.23-41.22-28.23-41.22l-40.18-115L295.92,189.1l-48,53L227.84,350.93s-18.42-2.79-21.77,3.91-3.9,19,0,26.23S216,404.92,216.12,415.67Z"/><path class="cls-4" d="M259.31,482.81c-7.86-57.27-13.47-153.85,0-189.78s20.22-59.52,33.69-71.87,3.16,26.05,139.7,28.07c105,1.56,52.33-5.61,111.85-3.37s58.39,44.92,60.64,86.47,6.73,107.81-6.74,150.48S622,477.19,622,477.19s-3.37-60.64,22.46-104.43,29.2-47.17,27-85.35-6.74-105.55-24.71-132.5S604.06,86.4,576,66.19,482.78,30.26,444.6,33.63,379.47,34.75,361.5,46,357,66.19,340.17,70.68s-48.29,3.37-61.77,22.46S257.07,145.92,227.87,174s-35.93,31.44-31.44,75.23,7.86,98.82,20.21,103.32,18,3.36,20.22,28.07-11.23,66.25,5.61,84.22Z"/><path class="cls-5" d="M288.47,415c28-12.68,60.71-15.35,69.38-14s41.37,8.67,50.71,3.33,7.33-15.34,0-17.34c-7.78-2.12-37.1-1.29-51.37-4-14-2.66-24-3.33-34,0s-26.68,20-30,22.69S288.47,415,288.47,415Z"/><path class="cls-5" d="M578.68,434.1c-27.12-22.89-57.43-30.19-66.1-28.86s-41.37,8.68-50.71,3.34-7.34-15.35,0-17.35,37.36-1.33,51.37-4,23.43,2,33.43,5.31,18.27,8.23,22,15.34S578.68,434.1,578.68,434.1Z"/><path class="cls-6" d="M369.07,427.33c0,9.62-7.8,11.06-17.42,11.06s-17.42-1.44-17.42-11.06a17.42,17.42,0,0,1,34.84,0Z"/><path class="cls-6" d="M526.9,429.33c0,9.62-7.8,12.19-17.42,12.19s-17.42-2.57-17.42-12.19a17.42,17.42,0,1,1,34.84,0Z"/><path class="cls-7" d="M306.24,433.89s2.77-20.67,41.59-20.67c27.1,0,45.92,18.78,45.92,18.78"/><path class="cls-7" d="M469.6,437.1s12.77-21.92,42.41-20.56c42.65,2,42.41,25,42.41,25"/><path class="cls-8" d="M390.25,546.2a100.64,100.64,0,0,1,13.81.45c7.06.77,4.48,5.77,18.54,5.77S436,546.91,442,547.11s15.69.16,15.69.16"/><path class="cls-9" d="M356.51,578.07c12.56-10.29,52.63-18.72,67.44-17.87s62.52,11.66,68.11,23,20.21,36.25,34.84,30.18c19.42-12.54,37.3-14.13,66-58.47-4.78,13.75-14.2,26.13-14.2,26.13s-49.22,66.57-90.39,95.75-75.1,29.82-113.94-.17-69.79-56.15-87.17-95.27-22.71-60.29-22.71-60.29,28.59,62.78,56.93,86.72C341.73,626.63,347.69,585.3,356.51,578.07Z"/><g id="Smile"><g class="cls-10"><path class="cls-1" d="M357.73,593.85c18-3.09,29.59-1.34,43.95-1.34s11.91,2.82,21.93,2.22,6.77-2.82,15.74-2.22,30.14-1.45,49-.43-43.58,31.73-63.53,31.73S339.72,596.94,357.73,593.85Z"/><g class="cls-11"><path class="cls-12" d="M355.73,592.85s18.17,8,29.29,10.19,28.26,4.58,38.06,4.19,30.08-1.57,40.58-3.58,28.7-12.41,28.7-12.41"/></g></g></g></g></svg>