<svg xmlns="http://www.w3.org/2000/svg" xmlns:xlink="http://www.w3.org/1999/xlink" viewBox="0 0 864 864"><defs><style>.cls-1{fill:#3fe0c5;}.cls-2,.cls-6{fill:#e9d0c0;}.cls-3{fill:url(#radial-gradient);}.cls-4{fill:#998482;}.cls-5{fill:#3f3331;}.cls-6{opacity:0.56;}.cls-7{fill:#003d5f;}.cls-8{fill:#c1a8a4;}.cls-9{fill:#211e1f;}.cls-10{fill:#fff;}.cls-11{fill:#5e5150;}.cls-12{fill:#3a322d;}.cls-13{fill:none;stroke:#302423;stroke-linecap:round;stroke-miterlimit:10;stroke-width:14px;}</style><radialGradient id="radial-gradient" cx="439" cy="648.01" fx="393.0248274381805" fy="438.9249434105625" r="290.4" gradientTransform="matrix(0.9, 0.44, -0.4, 0.83, 305.3, -80.84)" gradientUnits="userSpaceOnUse"><stop offset="0" stop-color="#5f474e"/><stop offset="0.65" stop-color="#e8cfbf"/></radialGradient></defs><title>tim2-truffle-bg</title><g id="Truffle-light"><rect class="cls-1" x="-0.08" width="864" height="864"/></g><g id="Tim2"><path class="cls-2" d="M295.39,159.15S271.12,196.81,263.55,237C253.3,291.41,257.89,352.42,247,349c-6.56-2-4.62-6.36-9.45-8.18-9.08-3.41-22.39-2.38-22.39,8.31,0,16.38,7.71,35.33,7.71,45.9s.64,37.71,17.16,58.94,27,41.27,35.27,37.74,21.23-7.08,20.05,7.07,47.18,82.56,47.18,82.56l110.86,83.74H506.5l90.82-83.74,24.76-36.56,10.81-46,4.53-21.26s10.61,7.08,18.87-8.25,18.05-21.23,21.58-46,10.62-43.64,11.8-51.89,7.9-40.1-11-42.46-27.13-99.07-27.13-99.07L606.75,139.1,478.2,104.9l-125,20Z"/><path class="cls-3" d="M287.14,467s32.15,127.06-.49,181c-9.83,16.26-18.22,28.73-35.26,59.86-9.15,16.72,7.31,55.91,45.73,89.12C330.24,825.63,427,818.5,427,818.5L567.83,829,629.08,757l-35.3-64.72-10.09-56.74,13.63-54.12L480.12,644,342.57,581.37Z"/><path class="cls-4" d="M483.36,484.33c-6.83,0-12.62-2.95-17.27-5.32a47.22,47.22,0,0,0-5-2.34c-5.55-1.21-12,.15-12.08.16a5,5,0,1,1-2.15-9.76c.36-.08,8.86-1.91,16.73-.08l.46.12a50.2,50.2,0,0,1,6.61,3c4.08,2.08,8.3,4.23,12.73,4.23s7.76-1.8,11.66-3.88a53.69,53.69,0,0,1,6.65-3.14c6-2.22,16-1,17.09-.82a5,5,0,0,1-1.33,9.91c-3.51-.47-9.66-.68-12.3.29a44.65,44.65,0,0,0-5.41,2.59C495.28,481.65,490.24,484.33,483.36,484.33Z"/><path class="cls-5" d="M683.5,261.56c2.85-43.17-5.14-93.5-23.63-120.21S605.41,69.42,577.67,52,509.85,27.3,467.73,26.27,359.84,27.3,330,53c-18,15.48-45,40.91-45.67,67.78-23.12,8.25-32,16.75-36.53,27.78-11.3,27.74-24.66,51.37-27.74,76s.55,77.49,11.3,105.84S268.12,396.94,271.2,432,291,542.07,312.58,566.73,396.27,657.15,432,669.48s63.47,15.41,89.16,0,53.43-47.27,73-76,36.22-52.13,39.76-84,16.75-72.18,17.78-96.84,4.09-44.58,16.44-76C674.31,320.74,681.4,293.32,683.5,261.56ZM635.41,467c-7.88,66.5-38.53,82.39-32.4,73.63s5.25-45.54,0-27.9-39.42,68.19-24.53,35.52,1.52-64.54-5.25-68.93c-13.23-8.57-31.41-9-51.68-7.78-16.8,1-24.23,10.44-38,10.44s-31.18-8.79-41.31-10.44-43.3-1.85-56.43,27.92,7.88,62.19-5.26,56.11-19.27-61.36-27.15-51.73,4.38,69.41,4.38,69.41S314,513.45,311.35,467s-28.06-41.37-35-97.16c-4.38-35,20.14-61.31,21-84.08s-1.11-108,39.35-91c15.61,6.43,25.54,11.07,35.95,11.07s34.08-3,39.89-2.6c5,.35-3.45-12.14-.79-12.37,5.1-.45,6.67,8.71,12.18,8,5.07-.64,6.32-3.67,11.83-5,2.86-.7,5.12-5.69,8.16-6.48,8.54-2.23,17.77-4.12,27-5.85,1.85-.35,11.81,3.66,13.64,3.33,7.07-1.3,12.14,8.17,16.44,5.77-8.43-10.06-7.3-19.58-2.73-20.64,24.92,30.21,75-.67,105.66,27.36s31.53,64.81,37.66,120.87S643.29,400.46,635.41,467Z"/><path class="cls-6" d="M549.72,531.35a134.63,134.63,0,0,0-15,24.19c-3.59,7.19-2.76,22.52-3.07,33.49-.22,7.61-12.29,25.61-23.29,31.8-8,4.49-15.63,4-21.2,3.73h0c-9.93-2-22.51-7.24-27-11.33C445,599.49,449.42,581.49,445.06,569c-3.39-9.75-27.7-25.66-31.32-29.28-8.32-8.32-8.44,30.43,1,60.69,6.43,20.58,47.24,26.18,67.57,26.89a5.29,5.29,0,0,0,1.4-.07c6.68.35,19.38-.7,23.79-1.83,6.68-1.71,44.53-17.81,49.07-50.33S555.55,523.69,549.72,531.35Z"/><path class="cls-7" d="M0,791.86s86.13-54.39,167-75.31c48.48-12.55,75.85-52.38,102.87-71.85,5.53-3.59,8.61-7.91,11.81-5.77,6.54,7.46,5.15,69.79,26.54,107.35C328.58,782.12,419,830.9,519.52,801.16s71-127.07,71-127.07,26.18,59,122.69,85.87c40,11.12,125.09,53.33,150.68,77.75.08,14.69,0-7.6,0,0s0,26.29,0,26.29H-.08Z"/><path class="cls-8" d="M404.29,524.36c6.54-14.91,34.74-16.61,80.56-11.07s66-17.12,71-6-8.56,37.19-21.15,48.3S503,574.71,488.37,575.22,435,565.15,420.9,551.05,400.83,532.24,404.29,524.36Z"/><path class="cls-9" d="M408.67,521.3c7.92-9.36,56-6.85,70.35-3.11s34.87,1.66,45.45-2,24.28-10.48,28-4.25-5,12.45-14.32,21.17-31.75,22.41-50.43,22.41S443.5,548.69,432,542.47,401.82,529.39,408.67,521.3Z"/><path class="cls-10" d="M422.45,516.1c0,6.24,6.72,24.15,13.73,25.38,4,2,26.63,5.66,35,6.32s22.63,1,34.28-2.66,22.64-3.91,28.63-11.94,8.33-13.36,7.66-19c-.14-1.18-.2-3-.21-3.91-2.6.47-9.33,3.1-14.36,4.83-9,2.28-21.24,5.3-33.94,4.9-6-.19-12.06-1.52-18.12-2.66-3.73-.7-7.38-1.15-11.07-1.47l-1.9-.21c-13.59-1.28-21.84-1.39-28.48-.62A72.9,72.9,0,0,0,422.45,516.1Z"/><path class="cls-5" d="M381.74,126.39s7.29,74.11,54.67,94.36c-38.07-27.14-48.19-66.82-49.41-94.36S381.74,126.39,381.74,126.39Z"/><path class="cls-5" d="M395.61,126.39s7.29,74.11,54.66,94.36c-38.06-27.14-48.18-66.82-49.4-94.36S395.61,126.39,395.61,126.39Z"/><path class="cls-5" d="M385,115s25.54,69.94,76.47,77.73c-43.63-16.78-63.33-52.68-71.38-79S385,115,385,115Z"/><path class="cls-5" d="M456.21,131.14s17.41,47.67,52.14,68.69c7.34,4.44,11.85-3.31,11.09-11.3-1.09,7.9-3,13-9.82,8.44-27.86-18.63-41.85-46-48.31-67.14C453.26,103.47,456.21,131.14,456.21,131.14Z"/><path class="cls-5" d="M490.15,138.61s-6,44.51,3,62.51c11.13,22.12-28.52-40.9-22.9-62.51S490.15,138.61,490.15,138.61Z"/><path class="cls-5" d="M415.53,134.55s22,39.16,20.22,59.23c-2.2,24.66,11.45-48.53-1.74-66.55S415.53,134.55,415.53,134.55Z"/><path class="cls-11" d="M335.8,356.69c15-9.71,35.87-18.25,53.49-18.25s56.52,10.07,61,6.92,7-14.47-4.34-17.62-34.57-6.29-50.32-6.92-43.45,0-54.15,13.84S323.67,364.53,335.8,356.69Z"/><path class="cls-11" d="M509.43,331.71c0,7.55,13.25,13.86,29.61,9.45s40.3-5.29,55.4.08,26.43,26.5,27.69,17.51-3.15-20.31-10.7-28.49-15.14-17.17-29.85-16.43c-12.72.64-46.94,6.24-56.38,8.28S509.43,324.16,509.43,331.71Z"/><path class="cls-12" d="M410.09,366a14.45,14.45,0,0,1-3.71,9.69c-2.66,2.94-19.17,2.81-21.83-.33A14.49,14.49,0,1,1,410.09,366Z"/><path class="cls-12" d="M567.86,363.25a14.46,14.46,0,0,1-4.24,10.25c-2.62,2.62-17.26,2.88-19.82.63a14.49,14.49,0,1,1,24.06-10.88Z"/><path class="cls-13" d="M436.41,369.76s-2.88-17.54-37.59-17.54-46.52,17.89-46.52,17.89"/><path class="cls-13" d="M595.62,365.82S582.78,347,554.83,349c-32.51,2.3-35.31,23-35.31,23"/></g></svg>