<svg xmlns="http://www.w3.org/2000/svg" xmlns:xlink="http://www.w3.org/1999/xlink" viewBox="0 0 864 864"><defs><style>.cls-1{fill:#3fe0c5;}.cls-2{fill:url(#radial-gradient);}.cls-3{fill:#e9d0c0;}.cls-4{fill:#001f4a;}.cls-12,.cls-5,.cls-8,.cls-9{fill:none;stroke-miterlimit:10;}.cls-5{stroke:#474141;stroke-width:18px;}.cls-12,.cls-5,.cls-8{stroke-linecap:round;}.cls-6{fill:#474141;}.cls-7{fill:#cca7a3;}.cls-8,.cls-9{stroke:#ffe77f;stroke-width:16px;}.cls-10{fill:#211e1f;}.cls-11{fill:#ffe77f;}.cls-12{stroke:#211e1f;stroke-width:12px;opacity:0.64;}</style><radialGradient id="radial-gradient" cx="439.04" cy="695.65" fy="545.6196117742883" r="264.28" gradientTransform="translate(0 -240.88) scale(1 1.35)" gradientUnits="userSpaceOnUse"><stop offset="0" stop-color="#5f474e"/><stop offset="0.12" stop-color="#846b6c"/><stop offset="0.27" stop-color="#af9690"/><stop offset="0.41" stop-color="#ceb5aa"/><stop offset="0.53" stop-color="#e1c8b9"/><stop offset="0.61" stop-color="#e8cfbf"/></radialGradient></defs><title>tyler-truffle-bg</title><g id="Truffle-light"><rect class="cls-1" width="864" height="864"/></g><g id="Tyler"><polyline class="cls-2" points="301.81 505.48 281.58 601.56 350.22 838.98 432 885.82 510.92 858.36 591.88 706.75 588.3 604.31 596.5 522.41 301.81 505.48 301.81 505.48 301.81 505.48"/><path class="cls-3" d="M231.54,302.38s17.83,110,19.06,122.94,9.23,41.26,18.45,48c7.56,10.64,15.65,21.41,26.09,17.37,0,7.28,12.2,41.55,19.91,61.25s34.42,60.13,48.56,76.73,27,29,42.71,35.9c18.41,8.08,56.66,6.13,68.7,4.49s40.31-18.89,58.14-38,36.62-42.7,52.6-72.84,12.14-42.89,19-58.67c14.15-8,21.1,2,31.41-10.28s13.53-13.53,16-30.13,4.92-40,4.92-60.27-33.83-188.18-33.83-188.18l-87.94-67L331.16,173.85Z"/><path class="cls-4" d="M-40.18,731.47,261.67,609s10.24-61.16,34.5-53.31c-2.17,19.24-2.5,33.38-2.5,33.38s-10.36,22,0,50.06,35,79.81,79.7,94.16c16,41.67,55.13,98.35,70.95,138.34C463.93,864,480.43,780.78,497.2,760s30.43-23.86,30.43-23.86,31.17.74,38-12.53c5.53-10.75,22.67-109.3,22.67-109.3s2.71-2.22,18.61,23.84c21.88,15.7,69.18,31.39,100.58,44.77S765.12,696.15,864,752.48c99.54,56.71,10.6,126.07,10.6,126.07L-23.74,864Z"/><path class="cls-5" d="M336.84,367.75s10.16-11.33,23.89-14.22c9.78-2.06,23.64-2.88,33.34,2.44s20.05,14.19,20.05,14.19"/><path class="cls-5" d="M499.67,370.16a35.15,35.15,0,0,1,29.06-12.91c8.74.39,16.69-.63,29.65,7.94,13.73,9.07,19.55,12.73,19.55,12.73"/><circle class="cls-6" cx="373.37" cy="364.64" r="15.65"/><circle class="cls-6" cx="537.58" cy="370.16" r="15.65"/><path class="cls-7" d="M377.47,522.68s38.7-17.53,81.27,2.09c22-14.74,68.89,3.52,68.89,3.52s-21.41,27.46-64.8,27.35C403.45,555.75,377.47,522.68,377.47,522.68Z"/><g id="Tyler_s_glasses" data-name="Tyler&apos;s glasses"><line class="cls-8" x1="398.76" y1="319.74" x2="530.67" y2="324"/><line class="cls-9" x1="436.87" y1="351.13" x2="498.86" y2="352.14"/><line class="cls-9" x1="293.59" y1="359.15" x2="244.51" y2="334.99"/><line class="cls-9" x1="636.4" y1="354.5" x2="579.48" y2="364.99"/><path class="cls-10" d="M344.58,437.2a59,59,0,0,1-28.09-6.58c-11.94-6.36-20.33-17.69-24.27-32.76a88.83,88.83,0,0,1-2-31.25c1-9.26,3.22-17.37,6-21.69.73-1.14,1.41-2.33,2.14-3.59,7.2-12.47,15.46-22.42,50.12-27.46a114.34,114.34,0,0,1,16.22-1.12c30.06,0,61.68,11.06,69.4,18.38l.27.26c9.47,9,16.84,20.75-5.61,57-17.8,28.73-52.39,48.8-84.12,48.8Z"/><path class="cls-11" d="M364.64,318.25c30.42,0,59.87,11.43,65.61,16.87,6.72,6.36,16.05,14.4-6.23,50.38-16.94,27.36-50.39,46.2-79.44,46.2a54,54,0,0,1-25.51-5.93c-31.84-17-25-67.4-18.28-77.89s9-22.83,48.42-28.56a107.66,107.66,0,0,1,15.43-1.07m0-11a119.7,119.7,0,0,0-17,1.18c-17.45,2.54-29.72,6.5-38.6,12.46-8.62,5.8-12.42,12.39-15.48,17.69-.7,1.21-1.35,2.34-2,3.37-3.25,5.08-5.74,13.86-6.82,24.08a94.4,94.4,0,0,0,2.19,33.23c4.34,16.59,13.68,29.11,27,36.21a64.45,64.45,0,0,0,30.68,7.23c16.07,0,33.74-5.08,49.75-14.31,16.35-9.41,29.84-22.24,39-37.1,11.1-17.91,16.07-31.33,15.64-42.21-.45-11.78-7-18-10.92-21.69l-.27-.25c-8.56-8.11-41.32-19.89-73.18-19.89Z"/><path class="cls-10" d="M560.15,439.89c-44.08,0-64.88-32.73-70.37-43.15-1.8-2.83-17.09-27.83-12.09-49.33,5.58-24,45.71-27,80.05-27,3.67,0,7.61,0,11.71.12,14.21.28,26.7,6.43,36.11,17.8,8.19,9.91,13.47,23.2,14.84,37.43,1.34,13.88-1.19,27.46-7.12,38.22a46.21,46.21,0,0,1-31.54,23.52,102.81,102.81,0,0,1-21.59,2.41Z"/><path class="cls-11" d="M557.74,325.89c3.81,0,7.69,0,11.6.12,53.12,1,64.38,94.64,11.24,106.09a96.88,96.88,0,0,1-20.43,2.29c-39.3,0-58.84-27.45-65.61-40.41,0,0-16.22-25-11.49-45.32,4.3-18.47,36.55-22.77,74.69-22.77m0-11c-23,0-39.81,1.52-52.73,4.79-18.69,4.73-29.69,13.64-32.67,26.49-5.41,23.23,9.78,48.76,12.68,53.34a91.65,91.65,0,0,0,23.27,28.13c14.77,11.78,32.22,17.75,51.86,17.75a108.43,108.43,0,0,0,22.75-2.53,51.6,51.6,0,0,0,35.2-26.24c6.46-11.73,9.22-26.43,7.78-41.41-1.48-15.32-7.19-29.66-16.08-40.4-10.47-12.65-24.38-19.49-40.24-19.8-4.13-.08-8.11-.12-11.82-.12Z"/><path class="cls-10" d="M349.56,524.35c6.84-13.24,22.52-36.27,41.07-39.86s40.06-11.11,69.4,2.57c35.58-24,82.44,12.39,89.48,53-5,32.75-9.43,6.85-41.82-9.94s-42.25-20.27-70.57-16.52-54.33,16.47-66,31.18S342.71,537.6,349.56,524.35Z"/></g><path class="cls-12" d="M412.42,473.88s5.3-3.35,19.72,1.33,10.72,11.43,26,10.73,15.52-6,26.81-7.16,16.44,1.11,16.44,1.11"/><path class="cls-6" d="M318.89,354.5s9.54-7.19,31.3-14.37c9.61-3.17,13.89-1.86,31.3-1.78,22.81.12,36.63,10.32,39.48,3.91S406,324.84,392.16,324.48s-28.1-5.34-42,0S318.89,354.5,318.89,354.5Z"/><path class="cls-6" d="M591.88,357.25s-9.55-7.2-31.3-14.37c-9.62-3.18-13.9-1.87-31.3-1.78-22.81.11-36.64,10.31-39.49,3.91s14.94-17.43,28.81-17.78,28.1-5.34,42,0S591.88,357.25,591.88,357.25Z"/><path class="cls-10" d="M286.94,438.91s-9.25-46.69-5.89-71.93c1-7.5,5.6-46.92,9.4-53.75,5.25-9.44,11.77-7,18.06-4.68,4.47,1.64,8.82,3.21,12.5.39,3.44,2.54,9.21,1.72,10.79,3.9,11.1,15.24-21.88,24.61-27.26,18.91,28.58,48.55,70.93-44.69,72.93-53.33,3.78-16.4,16.91-41.16,25.32-64.29s33.47-38.53,33.47-38.53,25.24-9.25,66.88-2.94,61,15.56,70.66,28.6,12.2,49.21,19.35,61,8.16,41.3,17,46.76,3.32,23.59,10.89,42.93,4.19,42.5,4.19,42.5.35,22.7-3.35,37.56c-4.2,16.83-4.19,17.84-4.19,17.84s23,0,36.88-26.08,28.18-60.56,37-82.86,11.14-12.61,16.82-28.18c4.85-13.28,2.47-21.67-.89-37.65-1.64-7.75,12.34-31.39-18.9-41.51.51-3.19,7.9-.73,21.65,12.08-8.81-15.65-21.2-18.3-23.73-34.28s-13.65-50.4-14.91-70.17-42.29-38.35-66.26-49.29c-14-6.36-25.06-12.15-35.71-16C562,73.19,552.42,3.22,455.09,37.14c63.41,5.41,62.77,33.73,50.57,41.72.72-14.91-3.56-22.17-7.81-24.51s-18.68-16.72-53.53-12.78c-22.71-.85-37.54,21.68-57.73,17s-85.7,18.6-74.49,17.22c10-1.23,53.85-10,51.35.1-12.12-10.1-66.27,9.33-71,14.28-6.67,6.93-13.65,10.88-19.8,18-1.94,2.23,29.55-12.93,44.85-12.81-44.85,12.81-53.84,27.44-55.33,31.85-7.57,22.3-27.76,35.34-38.7,45s-22.29,24-15.14,35.33,18.93,29,18.93,44.16S226,319,233.53,332.91s19.34-1.68,26.49,11.36.42,30.7,0,48.79,2.53,24.4,8,30.7S286.94,438.91,286.94,438.91Z"/></g></svg>