<svg xmlns="http://www.w3.org/2000/svg" viewBox="0 0 864 864"><defs><style>.cls-1{fill:#5f474e;}.cls-2{fill:#fff;}.cls-3{fill:#3fdfc4;}.cls-4{fill:#dabfb5;}.cls-5{fill:#070707;}.cls-6{fill:none;stroke:#694946;stroke-linecap:round;stroke-miterlimit:10;stroke-width:10px;}.cls-7{fill:#4c291d;}.cls-8{fill:#e8cfbf;}.cls-9{fill:#c0a7a3;}.cls-10{fill:#211e1f;}.cls-11,.cls-14{fill:#302525;}.cls-12{fill:#49321d;}.cls-13{fill:#302423;}.cls-14{opacity:0.89;}.cls-15{fill:#4b4340;}.cls-16{fill:#594f49;}</style></defs><g id="Layer_2" data-name="Layer 2"><g id="Chocolate_BG" data-name="Chocolate BG"><rect class="cls-1" width="864" height="864"/></g><g id="White"><rect class="cls-2" width="864" height="864"/></g><g id="Truffle-light"><rect class="cls-3" width="864" height="859"/></g><g id="Wes"><path class="cls-4" d="M277.59,548.86,293,654.63l81.67,59.57H555.4l19.41-69.62s14-38.75,14.06-69.61,0-61.59,0-61.59L536,575.64,437.47,598.1H349.22Z"/><path class="cls-2" d="M352.68,676c60,34.72,93.74,42.12,133.14,27.17s61.41-25,83-58.69,71.86,60,71.86,60l-125,112.76-163-6.79-110-118.94,42.1-93.48S311.06,651.93,352.68,676Z"/><path class="cls-5" d="M0,675.87s78.22-33.1,109.94-45.51,137.92-53.79,143.43-62.06,8.28-31.72,12.42-26.21,19.3,6.9,22.06,44.14,20.69,70.33,30.34,78.61,35.86,34.35,40,47.52,20.69-2,44.13,14.54,56.55,34.48,51,48.27,29-27.58,60.69-48.27,30.34-27,48.27-67.3,26.21-67.86,27.58-85.79-9.65-33.1,5.52-51,15.17,35.86,24.83,46.9,19.3,22.06,67.58,45.51,103.44,60.68,122.74,70.34S864,719.94,864,719.94V864H0Z"/><path class="cls-4" d="M245.06,408.91c0,6.6,2.47,15-4.61,26.18-1.6,2.54-4.89,6.27-4.94,10.87-1.65,12.18,9.35,17.73,11.69,26.35,2.44,9-2.19,16.42-2.09,19.53.42,12.48,14.55,59,34.51,79s45.73,54.87,58.62,66.51,54,34.09,71.51,36.59,49.88-3.33,64.85-12.47,53.22-41.16,75.67-59.87,32-27.85,34.5-41.16,12.06-39.49,14.55-57.79,4.58-20.08,3.75-33.39c-.36-5.73,29-18.82,27.9-34.69-.49-7.14.42-10.71-5.38-17.09-4.66-18.78,1.41-55,1.41-55s.48-11-3.77-35.33c-.11-6.14-4.1-14.12-13.63-11.63-2.84-14.12-14.41-58.86-25-61.11-13-28.81-34.6-117.66-64.12-115.69-38.79,2.58-120.66-39.21-161.7-9.3-25.07,18.28-56.68,18.41-76.43,55.15-22.13,41.16-30.49,126.73-33.1,139.54C246.86,336,232,322.53,232,344.52,239.13,374.66,245.06,391,245.06,408.91Z"/><path class="cls-6" d="M371.11,455.33s5.5-1.09,15.89,0c9.7,2.75,12.24,6,21.6,5.93,5.6-.14,12.11-3.65,23.4-8.52s23.15-3.34,23.15-3.34"/><path class="cls-7" d="M248.88,411.08s-4.18,68.29-3.77,80.76,14.55,59,34.51,79,45.73,54.87,58.62,66.51,54,34.09,71.51,36.59,49.88-3.33,64.85-12.47,53.22-41.16,75.67-59.87,32-27.85,34.5-41.16,12.06-39.49,14.55-57.79,5-39.49,4.16-52.8-5.82-60.28-5.82-60.28H586s11.64,57.37,4.57,69.85-22.45,18.7-36.17,29.51c-6.48,5.11-2.08,43.66-28.27,49.06-4.25-.09-15.57.94-18.67-2.71-3.29-3.87,1.72-12.6-.07-18.93C503,500.66,502.87,481,502.87,481s-2.91-15-13.3-20.78-26.19-5-26.19-5-17.47-2.5-44.49,7.48c-8.44,3.12-13.72,3.75-46.15-4.16-13.46-5.26-18.88-.38-38,14.58-9,4.31-23.1,20.35-17.7,38.64,1,3.37,8.11,8.36,8.54,18.95,2,6.85-15.06,21.85-27.95-3.8s-8-37.58-22.58-36.77C245.11,491.84,257.27,425,257.27,425Z"/><path class="cls-8" d="M340,503.34c-5.64,8.46,7.75,47.94,12.69,57.81s9.36,32.43,18.42,24.67,14-19.74,24.58-21.15,30.5-6.34,38.16-2.11,10.26,30,21.3,24.86,32.19-21.34,32.9-30.5,0-35.61,0-43.54,2.11-17.79-20.45-24.14-50.76-4.93-63.45-3.52-35.95,1.41-46.53,5.64A53,53,0,0,0,340,503.34Z"/><path class="cls-9" d="M343.65,504.56c-1.19,8.92,9.4,20.95,14.92,27.49s15.26,19,26,23.15,35.05,8,57.08.35,25.13-17.18,30.33-23.5,11.45-18.12,14.57-23.33,3.12-9.36-5.2-10.75-19.08-8-29.83-9-22.2-1.39-32.26,0-19.43-1.14-29.83-.91-29.49,3.69-35.38,7.16S344.34,499.36,343.65,504.56Z"/><path class="cls-10" d="M356.06,501.38s23.66-4.45,36.5-2.72,20.23,1.42,36.13-.5a162.61,162.61,0,0,1,37.06,0c9,.85,20.46-.19,19.08,4s-5.55,8.62-10.41,11.25S457.08,525,450.14,527.11s-48.56,6.4-55.85,4.94-21.5-10.84-28.09-15.35-22.26-11.42-17.75-13.5A56.35,56.35,0,0,1,356.06,501.38Z"/><path class="cls-2" d="M367.4,499.63s-.19,13.75,1.66,15.66,4.67,2.37,7.21,4a30.07,30.07,0,0,0,11.58,3.85c5.62.67,9.19,1,14.06,1.38s12.72-.26,16.42,0,11.38-.89,15.52-1.82A73.09,73.09,0,0,1,447,521.07c3.24,0,4.8-.81,8.13-1.91s5.75-2.71,9-4.45,4.62-3.81,4.85-8,.73-7.63.27-8.32-11.05-1.32-24.16-1.32S422,499.15,412,499.7s-15.59-1.39-24-1.39S367.4,499.63,367.4,499.63Z"/><path class="cls-11" d="M248.39,414.91s-1.5-57.91-.78-74.35c1.07-24.38,2-54.52,5.9-81.61,2.6-18.38,18.34-44.62,23.39-64.17a6.64,6.64,0,0,1-3.58-7.39c1.16-5.51,1.61-10,.94-13.07C280.65,162.6,270,144.18,292,127c4.19-3.28,26.67-8.46,26.67-8.46S333.53,88,338.32,85c27-17.42,96.62-17.32,136.83-5.58,13.81,4,38.72,22.27,48.45,26.92s28.55,26,35.74,36.54,17.5,30.14,21.73,44.53c1.32,4.47.53,4.29-3.14,7.23.45,1.24,0,0,2.33,2.48,6.89,7.36,11.4,36.55,13.87,45.7,4.23,15.65,13.68,39.91,14,55.51.39,17.1,3.88,10.12-4.16,22s-7.85,40.89-6.16,63.31,1.93,25.71,3.08,37.83c-1.57,12.15-9.58,1.57-9.58,1.57s-3-12-5.32-33.38-3.79-52-8.91-62.29c-10.24-20.61-8.09-28.9-18.61-35.53-6.66-4.2,1.27-10.16,1.27-36S549.71,204.92,545,198.67C530.15,179.21,517,177.94,490,172s-53.79-6-69.81-5.5-32.15-.85-58.38,2.12S322.85,172,308,177.52s-23.64,16.12-33,40.61-.84,66-4.65,79.54-14.29,25.18-13.95,43.18.83,45.7.83,51.59V425C257.27,430.51,248.79,430.59,248.39,414.91Z"/><path class="cls-12" d="M353.88,360.5a12.77,12.77,0,0,1-1.74,6.44c-2.22,3.8-19.38,4.12-21.68.72a12.8,12.8,0,1,1,23.42-7.16Z"/><path class="cls-12" d="M496.64,353.1a12.74,12.74,0,0,1-3.16,8.42c-2.34,2.68-15.62,3.26-17.84,1.41a12.8,12.8,0,1,1,21-9.83Z"/><path class="cls-13" d="M305.93,370.54a5.5,5.5,0,0,1-4.8-8.17c.49-.88,12.18-21.29,37-21.49,24-2.94,36.9,15,37.44,15.77a5.5,5.5,0,1,1-9,6.33,29.9,29.9,0,0,0-27.38-11.14l-.71,0c-18.53,0-27.43,15.23-27.8,15.87A5.53,5.53,0,0,1,305.93,370.54Z"/><path class="cls-13" d="M455.15,363.34a5.33,5.33,0,0,1-2.2-.46,5.49,5.49,0,0,1-2.85-7.21c.36-.81,8.8-19.77,28.65-19.77h.2c12.92-1,23.22,1,30.61,6,6,4.06,7.84,8.64,8.15,9.51,0,0,2.67,5.33-2.63,7.12s-7.73-3.44-7.73-3.44l0,.15c-.18-.42-4.64-10.27-27.81-8.39l-.27,0h-.55c-12.58,0-18.34,12.63-18.58,13.17A5.51,5.51,0,0,1,455.15,363.34Z"/><path class="cls-14" d="M281.35,352.16c4.89,5.45,8.09-.15,19.28-7.87S315.28,332,324.92,330.8s20.13-2.7,29,0,24.63,11.18,24.25,5-1.93-18.89-12.34-21.21-30.85-3.85-39.72-2.31-25.06,1.54-28.91,8.1S276,346.14,281.35,352.16Z"/><path class="cls-14" d="M539.46,344.12c-4.52,5.77-8.09.39-19.75-6.57s-15.44-11.34-25.13-11.86-20.27-1.36-28.9,1.91-23.84,12.78-23.87,6.6.68-19,10.92-22,30.52-5.88,39.47-4.93,25.11-.12,29.39,6.17S544.45,337.76,539.46,344.12Z"/><ellipse class="cls-15" cx="272.88" cy="432" rx="2.68" ry="6.17"/><path class="cls-16" d="M563.31,197.78,548,203.92s17.3,43.44,10.27,69.89,1.82,7.79,12.24,37.86,11.91,39.83,13.7,58.87,14.12-7.2,14.12-7.2-1.72-31.89,11.25-47.85c2.9-3.57-2.38-25.3-8-59.18C591.51,195.75,586.22,189.34,563.31,197.78Z"/><path class="cls-16" d="M276.9,194.78h9.58s-19.54,38.51-15.16,84.84c5,28.8-14.81,55.66-14.43,86.39s-9.41,0-9.41,0-1.27-71.55,6.82-111.71c5.51-27.36,11.51-45.07,14.78-53.57C270.61,196.75,276.9,194.78,276.9,194.78Z"/></g></g></svg>