<svg xmlns="http://www.w3.org/2000/svg" viewBox="0 0 864 864"><defs><style>.cls-1{fill:#3fe0c5;}.cls-2{fill:#dbc0b6;}.cls-3{fill:#fff;}.cls-4{fill:#070707;}.cls-12,.cls-5{fill:none;stroke-linecap:round;stroke-miterlimit:10;}.cls-5{stroke:#694946;stroke-width:10px;}.cls-6{fill:#4c291d;}.cls-7{fill:#e9d0c0;}.cls-8{fill:#c1a8a4;}.cls-9{fill:#211e1f;}.cls-10,.cls-13{fill:#302525;}.cls-11{fill:#49321d;}.cls-12{stroke:#302423;stroke-width:14px;}.cls-13{opacity:0.89;}.cls-14{fill:#4b4340;}</style></defs><title>wes-truffle-bg</title><g id="Truffle-light"><rect class="cls-1" width="864" height="864"/></g><g id="Wes"><path class="cls-2" d="M277.59,548.86,293,654.63l81.67,59.57H555.4l19.41-69.62s14-38.75,14.06-69.61,0-61.59,0-61.59L536,575.64,437.47,598.1H349.22Z"/><path class="cls-3" d="M352.68,676c60,34.72,93.74,42.12,133.14,27.17s61.41-25,83-58.69,71.86,60,71.86,60l-125,112.76-163-6.79-110-118.94,42.1-93.48S311.06,651.93,352.68,676Z"/><path class="cls-4" d="M0,675.87s78.22-33.1,109.94-45.51,137.92-53.79,143.43-62.06,8.28-31.72,12.42-26.21,19.3,6.9,22.06,44.14,20.69,70.33,30.34,78.61,35.86,34.35,40,47.52,20.69-2,44.13,14.54,56.55,34.48,51,48.27,29-27.58,60.69-48.27,30.34-27,48.27-67.3,26.21-67.86,27.58-85.79-9.65-33.1,5.52-51,15.17,35.86,24.83,46.9,19.3,22.06,67.58,45.51,103.44,60.68,122.74,70.34S864,719.94,864,719.94V864H0Z"/><path class="cls-2" d="M245.06,408.91c0,6.6,2.47,15-4.61,26.18-1.6,2.54-4.89,6.27-4.94,10.87-1.65,12.18,9.35,17.73,11.69,26.35,2.44,9-2.19,16.42-2.09,19.53.42,12.48,14.55,59,34.51,79s45.73,54.87,58.62,66.51,54,34.09,71.51,36.59,49.88-3.33,64.85-12.47,53.22-41.16,75.67-59.87,32-27.85,34.5-41.16,12.06-39.49,14.55-57.79,4.58-20.08,3.75-33.39c-.36-5.73,33.74-21.39,32.66-37.26-.49-7.14.42-10.71-5.38-17.09-4.66-18.78,1.41-55,1.41-55s5.38-11.33,1.13-35.69c-.11-6.13-5.78-11.23-15.63-15.5-2.84-14.12-22.07-52.06-32.64-54.31-13-28.81-34.6-117.66-64.12-115.69-38.79,2.58-120.66-39.21-161.7-9.3-25.07,18.28-61.46,17.51-81.21,54.25-22.12,41.17-26.31,119.73-28.91,132.54-2.42,11.9-16.35,15.74-16.73,28.34C239.13,374.66,245.06,391,245.06,408.91Z"/><path class="cls-5" d="M371.11,455.33s5.5-1.09,15.89,0c9.7,2.75,12.24,6,21.6,5.93,5.6-.14,12.11-3.65,23.4-8.52s23.15-3.34,23.15-3.34"/><path class="cls-6" d="M248.88,411.08s-4.18,68.29-3.77,80.76,14.55,59,34.51,79,45.73,54.87,58.62,66.51,54,34.09,71.51,36.59,49.88-3.33,64.85-12.47,53.22-41.16,75.67-59.87,32-27.85,34.5-41.16,12.06-39.49,14.55-57.79,5-39.49,4.16-52.8-5.82-60.28-5.82-60.28H586s11.64,57.37,4.57,69.85-22.45,18.7-36.17,29.51c-6.48,5.11-2.08,43.66-28.27,49.06-4.25-.09-15.57.94-18.67-2.71-3.29-3.87,1.72-12.6-.07-18.93C503,500.66,502.87,481,502.87,481s-2.91-15-13.3-20.78-26.19-5-26.19-5-17.47-2.5-44.49,7.48c-8.44,3.12-13.72,3.75-46.15-4.16-13.46-5.26-18.88-.38-38,14.58-9,4.31-23.1,20.35-17.7,38.64,1,3.37,8.11,8.36,8.54,18.95,2,6.85-15.06,21.85-27.95-3.8s-8-37.58-22.58-36.77C245.11,491.84,257.27,425,257.27,425Z"/><path class="cls-7" d="M340,503.34c-5.64,8.46,7.75,47.94,12.69,57.81s9.36,32.43,18.42,24.67,14-19.74,24.58-21.15,30.5-6.34,38.16-2.11,10.26,30,21.3,24.86,32.19-21.34,32.9-30.5,0-35.61,0-43.54,2.11-17.79-20.45-24.14-50.76-4.93-63.45-3.52-35.95,1.41-46.53,5.64A53,53,0,0,0,340,503.34Z"/><path class="cls-8" d="M343.65,504.56c-1.19,8.92,9.4,20.95,14.92,27.49s15.26,19,26,23.15,35.05,8,57.08.35,25.13-17.18,30.33-23.5,11.45-18.12,14.57-23.33,3.12-9.36-5.2-10.75-19.08-8-29.83-9-22.2-1.39-32.26,0-19.43-1.14-29.83-.91-29.49,3.69-35.38,7.16S344.34,499.36,343.65,504.56Z"/><path class="cls-9" d="M356.06,501.38s23.66-4.45,36.5-2.72,20.23,1.42,36.13-.5a162.61,162.61,0,0,1,37.06,0c9,.85,20.46-.19,19.08,4s-5.55,8.62-10.41,11.25S457.08,525,450.14,527.11s-48.56,6.4-55.85,4.94-21.5-10.84-28.09-15.35-22.26-11.42-17.75-13.5A56.35,56.35,0,0,1,356.06,501.38Z"/><path class="cls-3" d="M367.4,499.63s-.19,13.75,1.66,15.66,4.67,2.37,7.21,4a30.07,30.07,0,0,0,11.58,3.85c5.62.67,9.19,1,14.06,1.38s12.72-.26,16.42,0,11.38-.89,15.52-1.82A73.09,73.09,0,0,1,447,521.07c3.24,0,4.8-.81,8.13-1.91s5.75-2.71,9-4.45,4.62-3.81,4.85-8,.73-7.63.27-8.32-11.05-1.32-24.16-1.32S422,499.15,412,499.7s-15.59-1.39-24-1.39S367.4,499.63,367.4,499.63Z"/><path class="cls-10" d="M248.39,414.91s-.42-47.43-5.5-63.09-6.77-41.88-3.38-68.53.84-41.89,11.42-78.69,21.57-46.54,29.19-60.5,5.5-25.39,43.15-49.5C358.11,72.29,383.36,56.33,392.93,42c.83-.74-7,13.64-6.2,12.85a38.37,38.37,0,0,1,3.54-3.27c1.73-1.38,6.94-16.26,8.29-16.9-2.67,14.78.39,21.41,5.59,1.92,1.66,8-.52,14.13,9.33-3.89.91.6.88,16.73,1.17,15.37,1.62-7.5,2.46-5.73,2.85-12.28s4.57,6.25,5.34,13.35c4.05-.68,1.05-18.54,1.2-18,2.63,8.55,11.88,18.54,13.43,21.76s3,6.37,10.87,12c10.61,7.62,15.81,8.57,26.81,14.49S509,105.6,518.73,110.25s33.42,22,40.61,32.58,21.58,27.5,25.81,41.88,12.69,31.73,16.92,47.38,9.73,39.77,13.12,55,8,24.12,0,36-19,38.08-17.35,60.5,1.93,25.71,3.08,37.83c-1.57,12.15-9.58,1.57-9.58,1.57s-3-12-5.32-33.38-3.79-52-8.91-62.29c-10.24-20.61-8.09-28.9-18.61-35.53-6.66-4.2,1.27-10.16,1.27-36S549.71,204.92,545,198.67C530.15,179.21,517,177.94,490,172s-53.79-6-69.81-5.5-32.15-.85-58.38,2.12S322.85,172,308,177.52s-23.64,16.12-33,40.61-.84,66-4.65,79.54-7.62,22.85-13.95,43.18c.42,22.19.83,45.7.83,51.59V425C257.27,430.51,248.79,430.59,248.39,414.91Z"/><path class="cls-11" d="M353.88,360.5a12.77,12.77,0,0,1-1.74,6.44c-2.22,3.8-19.38,4.12-21.68.72a12.8,12.8,0,1,1,23.42-7.16Z"/><path class="cls-11" d="M496.64,353.1a12.74,12.74,0,0,1-3.16,8.42c-2.34,2.68-15.62,3.26-17.84,1.41a12.8,12.8,0,1,1,21-9.83Z"/><path class="cls-12" d="M305.94,365.05s10.42-18.67,32.59-18.67c21.18-2.77,32.58,13.44,32.58,13.44"/><path class="cls-12" d="M455.15,357.86s7.24-16.71,24-16.46c28.36-2.3,33.39,11.88,33.39,11.88"/><path class="cls-13" d="M281.35,352.16c4.89,5.45,8.09-.15,19.28-7.87S315.28,332,324.92,330.8s20.13-2.7,29,0,24.63,11.18,24.25,5-1.93-18.89-12.34-21.21-30.85-3.85-39.72-2.31-25.06,1.54-28.91,8.1S276,346.14,281.35,352.16Z"/><path class="cls-13" d="M539.46,344.12c-4.52,5.77-8.09.39-19.75-6.57s-15.44-11.34-25.13-11.86-20.27-1.36-28.9,1.91-23.84,12.78-23.87,6.6.68-19,10.92-22,30.52-5.88,39.47-4.93,25.11-.12,29.39,6.17S544.45,337.76,539.46,344.12Z"/><ellipse class="cls-14" cx="272.88" cy="432" rx="2.68" ry="6.17"/></g></svg>