<svg xmlns="http://www.w3.org/2000/svg" viewBox="0 0 1944.8 2279.46"><title>linux-tux-logo</title><g id="Layer_2" data-name="Layer 2"><g id="Layer_1-2" data-name="Layer 1"><path d="M636.34,376.59C628.54,118,729.38,3.86,938.86.11c209.2-4,340.38,106.33,367.25,251.09,26.58,144.47,11.27,334.88,64.72,433.71C1424,784,1458.1,860,1549.69,974.14c91.29,114.13,148.22,230.29,174.82,371.29,26.85,140.72,41.89,207.18-26.6,279.69-68.47,72.23-190.11,190.12-281.43,56.92-45.93-66.74-50.84-149.67,26.6-167.28,49.4-11.57,84.94-7.81,121.64,11.26,37,19.08,45.65,10.1,1.44-22.83-44.51-32.94-53.45-2.61-38.14-55.77s35.26-148.82-6.36-254c-19.35-48.53-84.94-181.45-146.49-214.1-5.5-3.18-21.66-9.82-10.69,3.76,16.47,20.52,105.17,151.11,130.31,228.84,26.87,83.51,30.62,163.26,16.77,213.82-13.85,50.85-38.14,71.07-67.33,71.07s-55.76,13.86-55.76-53.16c0-67.33,6.94-168.75-29.18-254.57-36.12-85.52-80-144.47-89.57-180.59-9.25-36.12-30.35-133.2-74-188.39-43.93-55.19-63-91.31-40.18-154.29,22.83-62.7,5.77-79.75-39.87-93s-106.62-32.36-121.64-63c-15.32-30.34-5.77-91.31,28.33-106.33,34.37-15.32,91.29,5.49,93.32,49.41,2,43.63-19.08,66.46-13.27,76s36.09,24.85,51.43,7.81c15-17.34,19.08-70.52,3.75-119.92s-22.83-83.8-78-95.07c-55.17-11.57-80-7.81-106.61,26.58-26.59,34.1-38.13,89.28-30.34,129.45,7.51,39.87-7.81,17-34.38,15C881.67,491,889.19,489,862.61,491c-26.59,1.74-17-15.32-19.08-43.92-1.74-28.61-5.49-87.55-45.65-110.37-39.88-22.83-108.35,3.76-106.62,99.11,2,95.07,34.38,140.71,53.46,106.33,19.07-34.1,9.53-17-9.53-32.36-19.07-15-32.36-78-11.56-96.79,21.09-19.07,45.65-19.07,59.23-7.79,13.29,11.56,34.1,49.7,30.34,74.25-3.76,24.85-5.78,26.59-30.34,43.92-24.85,17-34.38,32.36-63,51.14-28.61,19.07-39.87,63-17,74.26,22.83,11.56,24.85,9.53,43.63,38.14,19.07,28.61,51.43,41.89,131.46,28.61,79.75-13.29,112.68-32.36,173.08-53.46,43.93-15,28.6-13.29,43.93-30.34,15-17,39.87,7.51,17,22.83s-74.28,30.34-112.4,43.63c-37.86,13.58-81.77,51.44-161.53,47.68-80-3.76-24.85-2-49.7-3.76-24.56-2-36.12,1.74-9.53,20.8,26.87,19.08,24.85,24.85,47.68,32.36,22.83,7.81,53.16,7.81,89.57-5.49,36.12-13.58,127.44-53.46,156-72.53,28.33-19.07,51.14,5.78,22.83,24.85-28.6,19.07-36.41,13.29-63,30.34-26.58,17.34-76,45.65-108.35,76.28-32.36,30.34-39.87,32.36-80,34.1-39.87,2-64.72-39.87-81.77-58.93s-15.32-30.34-36.12-53.18-22.83-17.34-26.59,7.51-32.36,87.55-57.21,129.45C617.3,949.56,615.27,1001,619,1037.12s-5.77,39.87-34.08,81.76c-28.61,41.89-76.29,165.56-83.8,205.44s-17,121.93-13.29,169.32c3.76,47.68-9.53,57.21-43.92,24.85-34.1-32.36-45.67-68.48-43.63-116.16,1.74-40.74,7.22-69.35,12.43-84.37S413,1292.54,402,1311c-23.41,40.44-24.56,110.37-18.78,135.22,5.49,24.56,7.51,68.48,70.22,127.42,63,58.95,154.29,140.72,230.29,195.91,76.28,55.19,102.86,123.67-9.53,173.08,70.5,95.35,108.63,144.76,78,207.45,63-36.12,38.71-121.35,8.38-144.18-30.63-22.83-12.14-40.44,14.45-23.1,26.59,17,36.12,51.14,141,49.4,104.59-2,217.28-12.41,280.29-104,62.7-91.31,74.84-14.45,59.51,39-15,53.16-52.59,173.37,6.36,162.1,7.52-70.52,24.85-131.47,24.85-207.46,0-76.29,7.52-113,1.75-223.35-5.8-106.34,40.15-113.56,87.55-113.56,47.68,0,32.35,30.62,2,28.6-30.62-2-62.72,9.55-64.72,87.56s0,70.5,13.27,140.72c13.29,70.5,15.33,91.31,3.77,169.32-11.27,78-20.82,119.91,30.62,167.6,51.14,47.68,129.14,34.1,169.32,3.75,39.87-30.34,115.87-100.83,184.34-123.67,68.78-22.83,141-39.87,179.14-78,37.87-38.13,28.33-64.72-11.56-85.54-39.87-21.09-78-11.56-108.35-45.65-30.65-34.38-45.67-110.39-34.4-150.54,11.56-39.87,24.85-22.83,24.85,5.78s1.75,55.19,30.35,91.29,55.17,53.46,100.84,81.77c45.65,28.61,74.25,74.26,17,114.42-56.92,39.87-89.3,62.71-137,81.77-47.39,19.08-125.39,64.72-173.09,112.12-47.68,47.68-74.25,89.57-167.57,89.57-93,0-135.81-22.54-163.54-78-19.08-38.13-28.62-32.35-72.24-34.37-43.93-1.74-190.42-3.76-304.54-1.74-114.13,1.74-152.27,20.8-203.7,62.7-51.14,41.89-70.22,74.26-167.3,41.89s-148.52-68.48-293-97.08c-144.77-28.6-66.74-15.32-154.3-34.38-87.55-18.78-81.77-60.69-70.21-95.06,11.27-34.1,39.87-87.56,15-157.76-24.56-70.52-15-142.75,51.43-142.75,66.74,0,129.45,13.29,156-74.26s34.38-19.07,26.59,3.76c-7.51,22.83-11.27,85.52-70.22,95.07s-72.23-3.76-108.65-3.76c-36.11,0-51.14,24.85-32.36,66.74,19.07,41.88,40.15,85.52,36.41,121.64-4,36.11-7.81,49.41-34.38,83.78-26.59,34.1-22.83,51.44,24.85,62.71,47.38,11.57,133.2,34.38,213,53.46,80,18.77,85.82,18.77,224.51,55.19C647.63,2239.69,685.78,2175,697,2097c11.56-78-41.89-152.28-91.31-226.54s-102.6-159.75-167.34-237.77-102.86-83.8-135.22-66.74c-32.37,17.34-38.14,13.58-39.88-30.34-2-43.63-5.78-72.23,30.34-137S362.12,1263.36,400.26,1155s72.23-129.44,137-222.77c64.73-93,36.12-56.92,81.77-119.62,45.65-63,32.36-51.44,28.61-150.54-3.76-98.83-7.51-156-11.27-285.49ZM454.59,1150.38c9.83,11.85,23.7-16.17,38.14-26.86a49.53,49.53,0,0,0,15.6-45.37c-1.44-8.95-15.9-6.07-18.78-2.89-8.95,8.95-6.94,23.41-13.29,35.84-7.22,15-31.49,27.16-21.67,39.29Zm818-397.59c20.52,17.34,33.23,32.37,44.49,6.65,11.58-25.72,11.58-36.12-16.16-46.52-27.46-10.7-39.87-22-52.31-36.12-12.41-14.45-16.74,10.12-6.64,34.1,12.41,29.48,19.64,32.94,30.62,41.89ZM843.8,516.73c-14.16-2.89-31.21-1.74-40.75,9.53-3.76,3.76-2,14.45,4.62,17.34,8.66,3.76,14.45-4.9,16.19-11.56.87-2.89,2-6.64,4.92-7.51,3.76-2,9.25-.29,13.29-2,4.63-1.74,2.89-5.78,1.74-5.78Zm67.33,2.61C916.91,528,927.31,528,936,531.76c4.62,2,14.16,4.92,17-1.74,6.65-21.09-22-14.45-35.25-14.45-2.88,0-9.53-.86-6.64,3.76Zm138.71-92.18c13,.57,30.62,23.7,32.35,50.57.27,4,11.27,3.75,13.58-.29,6.08-10.69,1.75-22.54-1.14-35.25-2.33-10.4-14.75-21.09-25.15-25.72-6.94-3.48-14.16-4.62-23.41-3.48-2.31,1.17-10.39,13.29,3.77,14.16Zm-283.47-6.64c-11.85.86-7.51,10.1-6.94,17.61,16.47,9.25,17.91,30.05,21.37,46.52.29,6.36,9.82,3.48,10.69,1.45,7.22-13.29-1.74-28.31-4.9-43.92-2.89-8.09-8.38-17.34-15.9-22.83-1.14-1.15-3.18,1.15-4.32,1.15ZM1129.85,129c-11.85-9.53-30.35-13.29-35.82,2.31-5.77,13.29-3.48,26.87-6.67,41.32,0,4.62-5.77,5.77-8.94,10.1-4.63,5.49-3.48,12.43-1.17,14.45,11,11.27,31.21-11,46-18.78,11-6.94,26.85,2,39-5.77,3.45-2.31,4.6-7.81,1.14-12.14C1155.57,146.89,1142,139.09,1129.85,129Z"/></g></g></svg>