<svg xmlns="http://www.w3.org/2000/svg" xmlns:xlink="http://www.w3.org/1999/xlink" viewBox="0 0 265.39 282.11"><defs><style>.cls-1{fill:#fff;}.cls-2{fill:#5e464d; mask:none;}.cls-3{mask:url(#mask);}.cls-4{mask:url(#mask-2);}.cls-5{fill:#3fe0c5;}</style><mask id="mask" x="0" y="23.1" width="265.39" height="259.02" maskUnits="userSpaceOnUse"><g id="mask-4"><polygon id="path-3" class="cls-1" points="0 23.1 265.39 23.1 265.39 282.11 0 282.11 0 23.1"/></g></mask><mask id="mask-2" x="-6.02" y="0" width="267.03" height="260.62" maskUnits="userSpaceOnUse"><g id="mask-2-2" data-name="mask-2"><polyline id="path-1" class="cls-1" points="-6.02 0 261.01 0 261.01 260.62 -6.02 260.62"/></g></mask></defs><title>truffle-logo</title><g id="Layer_2" data-name="Layer 2"><g id="Layer_1-2" data-name="Layer 1"><polygon id="Fill-12" class="cls-2" points="0 243.25 20.95 243.25 20.95 250.36 14.05 250.36 14.05 281.16 6.73 281.16 6.73 250.36 0 250.36 0 243.25"/><path id="Fill-14" class="cls-2" d="M46.31,258.06H50.6q3.44,0,4.74-.9a3.4,3.4,0,0,0,1.3-3A3.67,3.67,0,0,0,56,252a3.57,3.57,0,0,0-1.72-1.32,13.07,13.07,0,0,0-4-.4h-4Zm-7.22-14.82h9.68q6.28,0,8.95,1.12A9.18,9.18,0,0,1,62,248.09a11.4,11.4,0,0,1,1.62,6.16,10.49,10.49,0,0,1-1.79,6.25,10.84,10.84,0,0,1-5.4,3.8l9,16.86H57.53L49,265.1H46.31v16.06H39.09Z"/><g class="cls-3"><path id="Fill-16" class="cls-2" d="M83.77,243.24H91v24.52a12.7,12.7,0,0,0,.55,4.48,4.42,4.42,0,0,0,1.83,2.1,5.74,5.74,0,0,0,3.08.79,6,6,0,0,0,3.28-.88,4.59,4.59,0,0,0,1.91-2.22,16.54,16.54,0,0,0,.53-5.17V243.24h7.25v22.6a32.63,32.63,0,0,1-.65,7.94,11.23,11.23,0,0,1-2.46,4.28,11.39,11.39,0,0,1-4.19,3.05,14.21,14.21,0,0,1-5.52,1,13.37,13.37,0,0,1-7.18-1.9,11,11,0,0,1-4.37-4.74q-1.31-2.85-1.31-9.63Z"/></g><polygon id="Fill-19" class="cls-2" points="131.28 243.25 150.1 243.25 150.1 250.28 138.45 250.28 138.45 257.16 150.1 257.16 150.1 264.1 138.45 264.1 138.45 281.16 131.28 281.16 131.28 243.25"/><polygon id="Fill-21" class="cls-2" points="170.07 243.25 188.89 243.25 188.89 250.28 177.24 250.28 177.24 257.16 188.89 257.16 188.89 264.1 177.24 264.1 177.24 281.16 170.07 281.16 170.07 243.25"/><polygon id="Fill-23" class="cls-2" points="208.8 243.25 216.02 243.25 216.02 274.28 226.53 274.28 226.53 281.16 208.8 281.16 208.8 243.25"/><polygon id="Fill-25" class="cls-2" points="244.7 243.25 265.39 243.25 265.39 250.31 251.86 250.31 251.86 257.16 265.39 257.16 265.39 264.1 251.86 264.1 251.86 274.07 265.39 274.07 265.39 281.16 244.7 281.16 244.7 243.25"/><g id="Group-5"><g class="cls-4"><path id="Fill-3" class="cls-2" d="M234.59,102.14a102.15,102.15,0,0,1-185,59.71c-12.12-16.79-16.9-37.42-16.9-59.71,0-31,11.42-58.74,33.2-77.47a102.15,102.15,0,0,1,168.72,77.47"/></g></g><path id="Fill-6" class="cls-1" d="M104.07,192c4.17,1.3,18.16,5.45,18.63,1,.25-2.42-7.09-4.72-17.17-9.71a159,159,0,0,1-39-27.24A87.83,87.83,0,0,1,38.63,95.74C37,64.88,48.47,39.58,67.91,22.95A102.2,102.2,0,0,0,49.56,161.86a142.9,142.9,0,0,0,12.67,10.24c11.46,8.21,28.11,15.65,41.84,19.92"/><path id="Fill-8" class="cls-1" d="M236,78.73c-6.27-29.44-25.73-50.05-51.75-64.61,19.9,14.17,47.92,44.3,31.4,70.86-14,21.3-48,17.12-66.65,7-22.12-12-49.83-39-22.5-65.4,17.69-17.08,74,2.07,64.09,27.61-5.78,14.84-28.28,11.55-38.4,4.28-7.46-5.36-13.74-14.57-10.42-24.08,1.07-3,.91-7.78-3.39-4.3C135.15,32.72,133.54,37,133,41c-4.71,33.29,54.6,59.1,72.19,26.89,9.13-16.72-5.66-41-24.29-50.94-14-7.5-28.58-12.77-46.44-11.49-28.55,2-52.52,19.9-55.52,49.08-3,29,16.38,55.09,39.22,70.71,24,16.4,56.26,27.21,85.78,17.43,26.46-8.77,37.39-39.14,32.07-63.93"/><path id="Fill-10" class="cls-5" d="M198.74,56.18C201.58,37.1,184.33,24,168.41,18c-18.79-7-43.59-3.94-57.27,11.62-10,11.42-9.35,28-4.2,41.41,7.8,20.27,25.41,34.93,45.91,41.25,14.57,4.5,32.18,6.46,46.95,1.71,21.53-6.92,28.54-29.38,24.09-49.95a59.25,59.25,0,0,0-4.36-12.88c-2.72-5.71-11-17.26.43-3.19a50.44,50.44,0,0,1,3.31,4.91,54.87,54.87,0,0,1,5.59,12.41c6.26,19.2,1.35,41.6-16,53.19-13.31,8.88-30.23,9.93-45.68,7.71-20.7-3-40.21-13-53.76-29.09C101,82.48,92.55,61.41,97.65,42.16c3.72-14.09,15.17-24.61,28.86-29,17.33-5.61,36.41-3,52,6.11,7.81,4.56,15,10.86,18.94,19.11a28.27,28.27,0,0,1,2.85,11.93,24.44,24.44,0,0,1-.39,5c-.11.6-1.37,2.29-1.2.9"/></g></g></svg>
