<svg xmlns="http://www.w3.org/2000/svg" xmlns:xlink="http://www.w3.org/1999/xlink" viewBox="0 0 206.99 204.29"><defs><style>.cls-1{fill:#fff;}.cls-2{mask:url(#mask);}.cls-3{fill:#5e464d;}.cls-mint{fill:#3fe0c5;}</style><mask id="mask" x="-36.33" y="0" width="267.03" height="260.62" maskUnits="userSpaceOnUse"><g id="mask-2"><polyline id="path-1" class="cls-1" points="-36.33 0 230.71 0 230.71 260.62 -36.33 260.62"/></g></mask></defs><title>truffle-logomark</title><g id="Layer_2" data-name="Layer 2"><g id="Layer_1-2" data-name="Layer 1"><g id="Group-5"><g class="cls-2"><path id="Fill-3" class="cls-3" d="M204.29,102.14a102.15,102.15,0,0,1-185,59.71c-12.12-16.79-16.9-37.42-16.9-59.71,0-31,11.42-58.74,33.2-77.47a102.15,102.15,0,0,1,168.72,77.47"/></g></g><path id="Fill-6" class="cls-1" d="M73.77,192c4.17,1.3,18.16,5.45,18.63,1,.25-2.42-7.09-4.72-17.17-9.71a159,159,0,0,1-39-27.24A87.83,87.83,0,0,1,8.33,95.74C6.67,64.88,18.17,39.58,37.61,22.95A102.2,102.2,0,0,0,19.26,161.86a142.9,142.9,0,0,0,12.67,10.24C43.39,180.31,60,187.74,73.77,192"/><path id="Fill-8" class="cls-1" d="M205.68,78.73C199.42,49.29,180,28.68,153.93,14.12c19.9,14.17,47.92,44.3,31.4,70.86-14,21.3-48,17.12-66.65,7-22.12-12-49.83-39-22.5-65.4,17.69-17.08,74,2.07,64.09,27.61-5.78,14.84-28.28,11.55-38.4,4.28-7.46-5.36-13.74-14.57-10.42-24.08,1.07-3,.91-7.78-3.39-4.3-3.21,2.6-4.83,6.88-5.39,10.86-4.71,33.29,54.6,59.1,72.19,26.89,9.13-16.72-5.66-41-24.29-50.94-14-7.5-28.58-12.77-46.44-11.49-28.55,2-52.52,19.9-55.52,49.08-3,29,16.38,55.09,39.22,70.71,24,16.4,56.26,27.21,85.78,17.43,26.46-8.77,37.39-39.14,32.07-63.93"/><path id="Fill-10" class="cls-mint" d="M168.44,56.18C171.28,37.1,154,24,138.1,18c-18.79-7-43.59-3.94-57.27,11.62-10,11.42-9.35,28-4.2,41.41C84.44,91.35,102,106,122.55,112.33c14.57,4.5,32.18,6.46,46.95,1.71C191,107.11,198,84.66,193.58,64.09a59.25,59.25,0,0,0-4.36-12.88c-2.72-5.71-11-17.26.43-3.19A50.44,50.44,0,0,1,193,52.93a54.87,54.87,0,0,1,5.59,12.41c6.26,19.2,1.35,41.6-16,53.19-13.31,8.88-30.23,9.93-45.68,7.71-20.7-3-40.21-13-53.76-29.09-12.39-14.67-20.83-35.74-15.74-55,3.72-14.09,15.17-24.61,28.86-29,17.33-5.61,36.41-3,52,6.11,7.81,4.56,15,10.86,18.94,19.11A28.27,28.27,0,0,1,170,50.27a24.44,24.44,0,0,1-.39,5c-.11.6-1.37,2.29-1.2.9"/></g></g></svg>
