<svg xmlns="http://www.w3.org/2000/svg" xmlns:xlink="http://www.w3.org/1999/xlink" viewBox="0 0 265.39 38.87"><defs><style>.cls-1{fill:#fff;}.cls-2{fill:#5e464d;}.cls-3{mask:url(#mask);}</style><mask id="mask" x="0" y="-220.15" width="265.39" height="259.02" maskUnits="userSpaceOnUse"><g id="mask-4"><polygon id="path-3" class="cls-1" points="0 -220.15 265.39 -220.15 265.39 38.87 0 38.87 0 -220.15"/></g></mask></defs><title>truffle-wordmark</title><g id="Layer_2" data-name="Layer 2"><g id="Layer_1-2" data-name="Layer 1"><polygon id="Fill-12" class="cls-2" points="0 0 20.95 0 20.95 7.11 14.05 7.11 14.05 37.91 6.73 37.91 6.73 7.11 0 7.11 0 0"/><path id="Fill-14" class="cls-2" d="M46.31,14.82H50.6q3.44,0,4.74-.9a3.4,3.4,0,0,0,1.3-3A3.67,3.67,0,0,0,56,8.76a3.57,3.57,0,0,0-1.72-1.32,13.07,13.07,0,0,0-4-.4h-4ZM39.09,0h9.68q6.28,0,8.95,1.12A9.18,9.18,0,0,1,62,4.85,11.4,11.4,0,0,1,63.63,11a10.49,10.49,0,0,1-1.79,6.25,10.84,10.84,0,0,1-5.4,3.8l9,16.86H57.53L49,21.86H46.31V37.91H39.09Z"/><g class="cls-3"><path id="Fill-16" class="cls-2" d="M83.77,0H91V24.52A12.7,12.7,0,0,0,91.57,29a4.42,4.42,0,0,0,1.83,2.1,5.74,5.74,0,0,0,3.08.79A6,6,0,0,0,99.76,31a4.59,4.59,0,0,0,1.91-2.22,16.54,16.54,0,0,0,.53-5.17V0h7.25V22.6a32.63,32.63,0,0,1-.65,7.94,11.23,11.23,0,0,1-2.46,4.28,11.39,11.39,0,0,1-4.19,3.05,14.21,14.21,0,0,1-5.52,1A13.37,13.37,0,0,1,89.45,37a11,11,0,0,1-4.37-4.74q-1.31-2.85-1.31-9.63Z"/></g><polygon id="Fill-19" class="cls-2" points="131.28 0 150.1 0 150.1 7.04 138.45 7.04 138.45 13.92 150.1 13.92 150.1 20.85 138.45 20.85 138.45 37.91 131.28 37.91 131.28 0"/><polygon id="Fill-21" class="cls-2" points="170.07 0 188.89 0 188.89 7.04 177.24 7.04 177.24 13.92 188.89 13.92 188.89 20.85 177.24 20.85 177.24 37.91 170.07 37.91 170.07 0"/><polygon id="Fill-23" class="cls-2" points="208.8 0 216.02 0 216.02 31.03 226.53 31.03 226.53 37.91 208.8 37.91 208.8 0"/><polygon id="Fill-25" class="cls-2" points="244.7 0 265.39 0 265.39 7.07 251.86 7.07 251.86 13.92 265.39 13.92 265.39 20.85 251.86 20.85 251.86 30.83 265.39 30.83 265.39 37.91 244.7 37.91 244.7 0"/></g></g></svg>