<svg xmlns="http://www.w3.org/2000/svg" viewBox="0 0 50.73 50.1"><defs><style>.cls-1{fill:#fff;}</style></defs><title>Asset 29</title><g id="Layer_2" data-name="Layer 2"><g id="scroll_nav" data-name="scroll nav"><path class="cls-1" d="M10.09,36.52c-1.55-.12-1.92-.6-1.51-2.11.1-.36-.05-.5-.29-.66a1.37,1.37,0,0,1-.48-1.92.66.66,0,0,0-.12-.89A1.43,1.43,0,0,1,7.5,29a.78.78,0,0,0,0-1,1.49,1.49,0,0,1,0-1.87c.54-.66,0-1.16-.17-1.68s-.47-.05-.7,0-.58.15-.38.56a1.9,1.9,0,0,1,.18.42A1.19,1.19,0,0,1,5.81,27a1.17,1.17,0,0,1-1.59-.48,1.11,1.11,0,0,1,.31-1.62c.5-.34.58-.58.29-1.13a1.2,1.2,0,0,1,.45-1.61.85.85,0,0,0,.45-1.05,1.38,1.38,0,0,1,.72-1.63,1,1,0,0,0,.56-1c0-.2,0-.53.13-.61,1.3-.77,1.48-2.42,2.79-3.28.9-.6,1.37-1.83,2.59-2.2.18-.05.49-.58.1-.85s-.51.16-.68.4l0,.07c-.37,1-1.72.24-2.08,1.17s-1.16,1.06-2,1v0L7.61,14l-.35-.54c-.33-1.22,0-1.78,1.2-2.05a.87.87,0,0,0,.73-.58c.06-.17.12-.44.24-.48,1.44-.46,2.34-1.93,3.93-2.12.2,0,.45.05.59-.14a2.21,2.21,0,0,1,2.33-.91A.67.67,0,0,0,16.85,7c.62-.56,1.37-.42,2.1-.54a10.45,10.45,0,0,1,3.65-.25c.14,0,.31-.17.69-.39a4.16,4.16,0,0,1-2.57-.39c-.26-.17-.57.24-.85.19a12.86,12.86,0,0,0-3.45.1c-.59.07-1.09,0-1.62.39s-1.33.2-1.91-.27c-.06-.14-.12-.27-.17-.41.14-1.44.67-1.87,2-1.56a.64.64,0,0,0,.76-.29A1.48,1.48,0,0,1,17.35,3a.88.88,0,0,0,1-.16c.09-.08.21-.19.31-.19,1.49.08,3-.39,4.46,0,.09,0,.18.15.24.13,1.33-.33,2.49.29,3.69.65.17,0,.39-.05.55,0a29.52,29.52,0,0,1,3.63,1.74,9.66,9.66,0,0,1,1.67,1.15c1.13,1.12,2.7,1.85,3.32,3.46a1.66,1.66,0,0,0,.53.72,2.64,2.64,0,0,1,1.08,2,1.77,1.77,0,0,0,.16.61,10,10,0,0,1-1,10.58,3.62,3.62,0,0,1-.36.42c-.19.19-.38.44-.7.32a.64.64,0,0,1-.31-.71c.15-2.2-.87-3.88-2.2-5.53a6.49,6.49,0,0,0-4-2.46,1.51,1.51,0,0,1-.72-.37.91.91,0,0,0-1.08-.22.63.63,0,0,1-.44.06,5.31,5.31,0,0,0-2.77,0,3.11,3.11,0,0,0-1.9.52,1.27,1.27,0,0,1-.78.2c-.44,0-.66.26-1,.48a30.67,30.67,0,0,0-2.87,2.58c-.09.08-.31.12-.31.18,0,1.11-.95,1.81-1.26,2.83-.4,1.28-.19,2.58-.53,3.83a.76.76,0,0,0,.1.69,1.85,1.85,0,0,1,.3,1.56.68.68,0,0,0,.25.73,1.88,1.88,0,0,1,.69,1.44.67.67,0,0,0,.35.6,2,2,0,0,1,1.13,1.47.63.63,0,0,0,.5.49,1.89,1.89,0,0,1,1.24,1,.63.63,0,0,0,.56.41,2.1,2.1,0,0,1,1.66.83c0,.05.09.12.13.12,1-.08,1.84.52,2.76.63a6.89,6.89,0,0,1,2,.15.62.62,0,0,0,.59-.16,1.76,1.76,0,0,1,1.74-.23c.09,0,.21.1.26.07,1-.69,2.21-.37,3.21-.89a2.52,2.52,0,0,1,1-.44,1.14,1.14,0,0,0,1-.65s.06-.12.11-.14c1.28-.44,1.8-1.78,2.89-2.44a.83.83,0,0,0,.45-.55,2,2,0,0,1,1-1.52c.13-.07.3-.23.29-.33a2.29,2.29,0,0,1,1-2.12c.07-.05.06-.23.06-.34A.63.63,0,0,0,41,26c-.37-.93.83-1.41.71-2.09s-.42-1.46.25-2.1c.32-.31.08-.52-.08-.79-.54-.92-.33-1.55.65-2.07h.71c1,.58,1.22,1.26.53,2.13-.32.39-.23.58.05.91a1.28,1.28,0,0,1,0,1.82c-.31.34-.45.63-.15,1a.87.87,0,0,1,.12.34c0,.27.1.7,0,.79-1.23.86-.18,2.58-1.33,3.44-.26.19-.64.34-.46.78s.56.15.86.14l.82,0h0c.92,1.41.79,1.88-.73,2.47a.53.53,0,0,0-.38.53c-.14,1.47-.3,1.62-1.82,1.77h0c0,1.39-.24,1.67-1.51,1.92a.73.73,0,0,0-.64.53,1.55,1.55,0,0,1-1.66,1.14c-1,0-1,1-1.51,1.36h0l-1.35-.11a.54.54,0,0,0-.59.32c-.11.27.08.4.28.48a2.6,2.6,0,0,1,.92,1h0a5.58,5.58,0,0,1-.23.69,1.16,1.16,0,0,1-1.34.71,1.09,1.09,0,0,1-1-1.25c.1-.84-.34-1-1-1.11,0,.29.21.33.33.46A1.27,1.27,0,0,1,31.54,43a1.19,1.19,0,0,1-1.79.08c-.35-.3-.56-.34-.92,0a1.3,1.3,0,0,1-1.89,0,.77.77,0,0,0-1.05-.13,1.14,1.14,0,0,1-1.45-.09,1.69,1.69,0,0,0-1.93-.48,2.36,2.36,0,0,1-.46,0h0l-.9-1a.42.42,0,0,0-.78.29c0,.41,0,.83,0,1.25h0a2.23,2.23,0,0,1-1.11.54c-1,0-1.44-.74-1.1-2,1.05-.64,1.05-.64.15-1.66a4.72,4.72,0,0,1-.14,1.67,3.45,3.45,0,0,1-1.1.35c-.91,0-1.29-.54-1.29-1.83h0c-1.53-.07-1.75-.23-2-1.65-.07-.39-.28-.49-.59-.58-.5-.13-1-.48-1-1,.1-1.14-.7-1.56-1.39-2.11,0-.39,0-.78,0-1.17s.13-.56-.22-.69-.38.15-.47.33-.43.48-.1.78l.78.74a1.89,1.89,0,0,1-.82,1.83Zm-2.51-13c.34-.35,1-.5.73-1.19-.11-.3-.33-.33-.59-.2C7,22.52,7.54,23.06,7.58,23.56Zm32.91,8.93.93-.08c.22,0,.45-.08.38-.38s-.29-.29-.5-.16S40.72,32.05,40.49,32.49Z"/><path class="cls-1" d="M7.26,13.49l.35.54.18.18v0c-.07,1.48-.52,1.85-2,1.65h0l-.38-.19h0c0-.24-.11-.48-.14-.72C5.13,13.83,5.82,13.33,7.26,13.49Z"/><path class="cls-1" d="M43.27,19h-.71c-.24-.18-.51-.34-.73-.54a1.16,1.16,0,0,1-.24-1.7,1.12,1.12,0,0,1,1.62-.28,1.17,1.17,0,0,1,.37,1.68C43.45,18.39,43,18.54,43.27,19Z"/><path class="cls-1" d="M12.72,5.41c0,.14.11.27.17.41-.48,1.57-1.14,1.79-2.55.87h0a6.71,6.71,0,0,1,0-.9C10.6,4.71,11.62,4.55,12.72,5.41Z"/><path class="cls-1" d="M10.09,36.52h0a5.7,5.7,0,0,1,.72,0,1.17,1.17,0,0,1,1,1.48,1.2,1.2,0,0,1-1.6.78,1.18,1.18,0,0,1-.57-1.67A4.27,4.27,0,0,1,10.09,36.52Z"/><path class="cls-1" d="M4.93,27.4a1.16,1.16,0,0,1,1.14,1.17,1.14,1.14,0,0,1-1.23,1.16,1.07,1.07,0,0,1-1.08-1.2A1.1,1.1,0,0,1,4.93,27.4Z"/><path class="cls-1" d="M42,13.68A1.11,1.11,0,0,1,43,14.88,1.1,1.1,0,0,1,41.9,16a1.13,1.13,0,0,1-1.14-1.17A1.11,1.11,0,0,1,42,13.68Z"/><path class="cls-1" d="M35.41,40a4.4,4.4,0,0,1,.82.06A1.14,1.14,0,0,1,37,41.58a1.12,1.12,0,0,1-1.58.58,8.87,8.87,0,0,1-.74-.51h0A2.09,2.09,0,0,1,35.43,40Z"/><path class="cls-1" d="M22.05,42.38l.37.51a1.1,1.1,0,0,1,0,1.43,1,1,0,0,1-1.22.36,1.08,1.08,0,0,1-.77-1.12c0-.21,0-.42,0-.63h0a2.92,2.92,0,0,1,1.66-.55Z"/><path class="cls-1" d="M5.77,15.84a6.93,6.93,0,0,1,.16.89,1.06,1.06,0,0,1-1.1,1.18,1,1,0,0,1-1.14-1,1.05,1.05,0,0,1,1-1.19,5.9,5.9,0,0,1,.73,0h0l.38.19Z"/><path class="cls-1" d="M12,41.22a1.08,1.08,0,0,1-1.12-1.09A1,1,0,0,1,11.89,39,1,1,0,0,1,13,40.08,1.06,1.06,0,0,1,12,41.22Z"/><path class="cls-1" d="M43.66,30.31a4.69,4.69,0,0,1-.35-.92,1,1,0,0,1,1-1.27,1,1,0,0,1,1.19,1,1,1,0,0,1-1,1.25,4.44,4.44,0,0,1-.81,0Z"/><path class="cls-1" d="M40.8,13.32a1,1,0,0,1-.95-1.07,1,1,0,0,1,1.14-1,1,1,0,0,1,1,1.11A1.05,1.05,0,0,1,40.8,13.32Z"/><path class="cls-1" d="M24,43.67c.69,0,1.11.35,1.13,1A1,1,0,0,1,24,45.77a1,1,0,0,1-1-1A1,1,0,0,1,24,43.67Z"/><path class="cls-1" d="M10.34,6.69a7.17,7.17,0,0,1-.09.81,1,1,0,0,1-1.33.88A1,1,0,0,1,8.21,7c.21-.68.76-.8,1.39-.63a6.9,6.9,0,0,1,.75.3Z"/><path class="cls-1" d="M4.86,32.36a1,1,0,0,1-1.06-1,1,1,0,0,1,1-1.1,1,1,0,0,1,1.13,1A1,1,0,0,1,4.86,32.36Z"/><path class="cls-1" d="M37.44,40.18a1,1,0,1,1,1,1A1,1,0,0,1,37.44,40.18Z"/><path class="cls-1" d="M45.42,27.79a1,1,0,0,1-1-1.09,1,1,0,0,1,1-1,1,1,0,0,1,1.06,1.11A1.06,1.06,0,0,1,45.42,27.79Z"/><path class="cls-1" d="M3.44,20.18c-.66-.1-1.08-.43-1-1.07a1,1,0,0,1,1.07-1,1,1,0,0,1,1,1A1,1,0,0,1,3.44,20.18Z"/><path class="cls-1" d="M26.64,46.48a1,1,0,0,1-1-1,.92.92,0,0,1,1-1,.91.91,0,0,1,.95,1A1,1,0,0,1,26.64,46.48Z"/><path class="cls-1" d="M14.54,42.27a1,1,0,0,1-1.06,1,.88.88,0,0,1-.93-1,.9.9,0,0,1,1-1A.94.94,0,0,1,14.54,42.27Z"/><path class="cls-1" d="M46.22,25.11c-.6-.07-1-.38-1-1a.89.89,0,0,1,1-1,.9.9,0,0,1,1,1C47.2,24.72,46.81,25,46.22,25.11Z"/><path class="cls-1" d="M40.54,9.85c0,.6-.3,1-.92,1a.91.91,0,0,1-1-.93.9.9,0,0,1,.93-1C40.16,8.89,40.47,9.26,40.54,9.85Z"/><path class="cls-1" d="M41.81,38.88a.88.88,0,0,1-.94.91,1,1,0,1,1,0-1.92C41.49,37.88,41.78,38.28,41.81,38.88Z"/><path class="cls-1" d="M5.12,35c-.6-.09-1-.42-.93-1a.87.87,0,0,1,1-.87.86.86,0,0,1,.93.92C6.1,34.62,5.71,34.92,5.12,35Z"/><path class="cls-1" d="M7.94,9c-.06.57-.35.94-.92.94A.85.85,0,0,1,6.09,9,.86.86,0,0,1,7,8.05.91.91,0,0,1,7.94,9Z"/><path class="cls-1" d="M16.35,44.28a.9.9,0,0,1-1,.88.83.83,0,0,1-.87-.94.84.84,0,0,1,.95-.88C16,43.36,16.29,43.74,16.35,44.28Z"/><path class="cls-1" d="M3.24,21.65a.87.87,0,0,1-1,.87.82.82,0,0,1-.85-.88.84.84,0,0,1,.9-.93A.88.88,0,0,1,3.24,21.65Z"/><path class="cls-1" d="M46.56,20.49c.59.07,1,.35,1,.93a.9.9,0,0,1-1.8,0A.9.9,0,0,1,46.56,20.49Z"/><path class="cls-1" d="M44,37.17c-.08.6-.38,1-1,.94a.83.83,0,0,1-.88-.86.85.85,0,0,1,.89-.93C43.6,36.29,43.86,36.68,44,37.17Z"/><path class="cls-1" d="M38.88,7.71a.87.87,0,0,1-.91.91.82.82,0,0,1-.87-.85.83.83,0,0,1,.85-1C38.52,6.78,38.81,7.15,38.88,7.71Z"/><path class="cls-1" d="M29.41,46.76c-.61,0-1-.33-1-.92a.9.9,0,1,1,1,.92Z"/><path class="cls-1" d="M6.66,36.67a.82.82,0,0,1-.89.84.8.8,0,0,1-.83-.89.79.79,0,0,1,.88-.84A.83.83,0,0,1,6.66,36.67Z"/><path class="cls-1" d="M36.14,6.58c-.53,0-.85-.28-.87-.78a.82.82,0,1,1,1.63-.11A.8.8,0,0,1,36.14,6.58Z"/><path class="cls-1" d="M17.42,45.09c.59,0,.93.29.93.84a.74.74,0,0,1-.78.82.76.76,0,0,1-.88-.73A.82.82,0,0,1,17.42,45.09Z"/><path class="cls-1" d="M32.89,45.91a.81.81,0,0,1-.85.81.75.75,0,0,1-.79-.9.73.73,0,0,1,.87-.73A.78.78,0,0,1,32.89,45.91Z"/><path class="cls-1" d="M44.93,34.53a.76.76,0,0,1,.86.74.82.82,0,1,1-1.63.08A.75.75,0,0,1,44.93,34.53Z"/><path class="cls-1" d="M1.58,23.43c.49.07.81.34.79.84a.74.74,0,0,1-.85.75.71.71,0,0,1-.73-.77C.78,23.73,1.1,23.49,1.58,23.43Z"/><path class="cls-1" d="M6.77,38.4c.49.06.78.31.78.78a.71.71,0,0,1-.74.76A.72.72,0,0,1,6,39.13.74.74,0,0,1,6.77,38.4Z"/><path class="cls-1" d="M47.47,18.73a.75.75,0,0,1-.83.75.72.72,0,0,1-.75-.83.71.71,0,0,1,.81-.75A.75.75,0,0,1,47.47,18.73Z"/><path class="cls-1" d="M35.52,45.62a.71.71,0,0,1-.76.73A.7.7,0,0,1,34,45.6a.68.68,0,0,1,.75-.73A.74.74,0,0,1,35.52,45.62Z"/><path class="cls-1" d="M20.64,47.33a.72.72,0,0,1-.75.75.67.67,0,0,1-.73-.75.66.66,0,0,1,.73-.74C20.36,46.59,20.59,46.88,20.64,47.33Z"/><path class="cls-1" d="M5.74,10.8a.73.73,0,0,1-.72.78.69.69,0,0,1-.78-.7A.72.72,0,0,1,5,10.06C5.46,10.05,5.69,10.35,5.74,10.8Z"/><path class="cls-1" d="M47.45,33.22a.73.73,0,0,1-.79.7.73.73,0,1,1,.05-1.46A.73.73,0,0,1,47.45,33.22Z"/><path class="cls-1" d="M47.1,15.89c0,.5-.25.8-.72.82a.66.66,0,0,1-.76-.7.7.7,0,0,1,.7-.78A.72.72,0,0,1,47.1,15.89Z"/><path class="cls-1" d="M34,4.81c-.49,0-.77-.28-.78-.75a.67.67,0,0,1,.64-.75.69.69,0,0,1,.8.69C34.74,4.48,34.44,4.7,34,4.81Z"/><path class="cls-1" d="M1.87,27a.65.65,0,0,1-.77.61.62.62,0,0,1-.59-.77.62.62,0,0,1,.76-.6C1.71,26.28,1.87,26.6,1.87,27Z"/><path class="cls-1" d="M8.83,41.53c0,.43-.24.7-.68.71a.69.69,0,0,1,0-1.38A.66.66,0,0,1,8.83,41.53Z"/><path class="cls-1" d="M48.75,30.83c0,.43-.21.71-.66.7a.68.68,0,1,1,.66-.7Z"/><path class="cls-1" d="M22.38,49.11q-.7-.11-.66-.75a.61.61,0,0,1,.65-.62.63.63,0,0,1,.68.69A.65.65,0,0,1,22.38,49.11Z"/><path class="cls-1" d="M31.55,2c.43,0,.68.21.71.59a.63.63,0,0,1-.63.74A.59.59,0,0,1,31,2.72.66.66,0,0,1,31.55,2Z"/><path class="cls-1" d="M37.39,45.63c-.39-.05-.64-.25-.64-.64a.63.63,0,0,1,.67-.7.6.6,0,0,1,.64.63A.66.66,0,0,1,37.39,45.63Z"/><path class="cls-1" d="M45.68,14c-.41-.05-.63-.27-.62-.65a.63.63,0,0,1,.7-.66.6.6,0,0,1,.6.65A.63.63,0,0,1,45.68,14Z"/><path class="cls-1" d="M3.85,12.88a.59.59,0,0,1-.67.6.56.56,0,0,1-.61-.64.58.58,0,0,1,.66-.6A.6.6,0,0,1,3.85,12.88Z"/><path class="cls-1" d="M25,49.77a.56.56,0,0,1-.62-.6.56.56,0,0,1,.62-.61.54.54,0,0,1,.58.55A.56.56,0,0,1,25,49.77Z"/><path class="cls-1" d="M29.16,1a.54.54,0,0,1,.54.59.53.53,0,0,1-.56.58.54.54,0,0,1-.6-.63C28.56,1.16,28.79,1,29.16,1Z"/><path class="cls-1" d="M9.73,43.17a.54.54,0,0,1,.56.59.53.53,0,0,1-.58.57.58.58,0,0,1,0-1.16Z"/><path class="cls-1" d="M45.25,10.77c0,.36-.16.6-.53.62a.52.52,0,0,1-.61-.53.53.53,0,0,1,.53-.62C45,10.21,45.19,10.43,45.25,10.77Z"/><path class="cls-1" d="M39.93,43.37c.34.05.56.23.55.58a.53.53,0,0,1-.57.56.52.52,0,0,1-.56-.56A.59.59,0,0,1,39.93,43.37Z"/><path class="cls-1" d="M1,30.21a.53.53,0,0,1-.5-.63.52.52,0,0,1,.63-.49.5.5,0,0,1,.47.57A.54.54,0,0,1,1,30.21Z"/><path class="cls-1" d="M49.76,28.42a.56.56,0,0,1-.61.53.52.52,0,0,1-.51-.62.51.51,0,0,1,.59-.53C49.6,27.83,49.75,28.06,49.76,28.42Z"/><path class="cls-1" d="M42.82,42.61c0,.35-.22.54-.54.53a.45.45,0,0,1-.49-.52.49.49,0,0,1,.53-.5A.49.49,0,0,1,42.82,42.61Z"/><path class="cls-1" d="M28.19,49.53c0,.32-.15.53-.48.55a.47.47,0,0,1-.55-.47.48.48,0,0,1,.48-.55A.49.49,0,0,1,28.19,49.53Z"/><path class="cls-1" d="M42.87,8.43c.05-.33.23-.51.55-.48a.5.5,0,0,1,0,1A.49.49,0,0,1,42.87,8.43Z"/><path class="cls-1" d="M26.43.34c.38,0,.57.17.58.5a.43.43,0,0,1-.43.48A.46.46,0,0,1,26,.88.48.48,0,0,1,26.43.34Z"/><path class="cls-1" d="M2.12,15.11a.45.45,0,0,1-.45.47.48.48,0,1,1,0-1A.45.45,0,0,1,2.12,15.11Z"/><path class="cls-1" d="M49.94,26.22a.45.45,0,0,1-.51-.42.44.44,0,0,1,.47-.53.44.44,0,0,1,.46.46A.45.45,0,0,1,49.94,26.22Z"/><path class="cls-1" d="M11.58,45.26a.46.46,0,0,1,.47.51.4.4,0,0,1-.44.45c-.33,0-.49-.18-.49-.5S11.29,45.29,11.58,45.26Z"/><path class="cls-1" d="M1.22,31.89c.28.05.46.18.45.47a.41.41,0,0,1-.46.44.41.41,0,0,1-.44-.46A.43.43,0,0,1,1.22,31.89Z"/><path class="cls-1" d="M30.43,50.1c-.26,0-.43-.13-.43-.39a.4.4,0,0,1,.47-.42.41.41,0,0,1,0,.81Z"/><path class="cls-1" d="M13.64,48a.38.38,0,0,1-.41-.39.36.36,0,0,1,.38-.4.34.34,0,0,1,.4.37A.38.38,0,0,1,13.64,48Z"/><path class="cls-1" d="M44.51,40.63c.23,0,.37.18.34.42a.34.34,0,0,1-.34.34.35.35,0,0,1-.4-.38C44.1,40.78,44.26,40.65,44.51,40.63Z"/><path class="cls-1" d="M42.12,6.22c0,.26-.14.41-.39.4a.33.33,0,0,1-.35-.34.36.36,0,0,1,.39-.4A.35.35,0,0,1,42.12,6.22Z"/><path class="cls-1" d="M24.17.48a.36.36,0,0,1-.48.28.34.34,0,0,1-.26-.4A.34.34,0,0,1,23.87,0,.35.35,0,0,1,24.17.48Z"/><path class="cls-1" d="M40.26,4.19c0,.23-.14.38-.34.38a.31.31,0,0,1-.32-.34.29.29,0,0,1,.28-.29A.36.36,0,0,1,40.26,4.19Z"/><path class="cls-1" d="M1.68,34.7c.2,0,.34.14.31.35a.3.3,0,0,1-.37.29.28.28,0,0,1-.26-.3A.3.3,0,0,1,1.68,34.7Z"/><path class="cls-1" d="M50.7,23a.35.35,0,0,1-.38.4.37.37,0,0,1,0-.73A.35.35,0,0,1,50.7,23Z"/><path class="cls-1" d="M46.84,39.16c-.05.21-.15.32-.32.32a.32.32,0,0,1,0-.63A.35.35,0,0,1,46.84,39.16Z"/><path class="cls-1" d="M21.11,0a.29.29,0,0,1,.28.29c0,.21-.14.31-.35.28S20.8.42,20.82.25A.26.26,0,0,1,21.11,0Z"/><path class="cls-1" d="M50.73,20.33a.28.28,0,0,1-.28.29.26.26,0,0,1-.3-.27.26.26,0,0,1,.28-.29A.27.27,0,0,1,50.73,20.33Z"/><path class="cls-1" d="M.56,17.47c0,.17-.14.28-.31.25A.28.28,0,0,1,0,17.41a.27.27,0,0,1,.32-.24A.25.25,0,0,1,.56,17.47Z"/><path class="cls-1" d="M33.15,49.81a.29.29,0,0,1-.32-.25.27.27,0,0,1,.24-.32.25.25,0,0,1,.3.25A.27.27,0,0,1,33.15,49.81Z"/><path class="cls-1" d="M15.84,40h0Z"/><path class="cls-1" d="M7.79,14.21,7.61,14Z"/><path class="cls-1" d="M40.73,35.06h0Z"/><path class="cls-1" d="M5.78,15.85l-.38-.19Z"/></g></g></svg>