<svg xmlns="http://www.w3.org/2000/svg" viewBox="0 0 1240 533.7"><defs><style>.cls-1,.cls-14,.cls-15,.cls-18{fill:#5e464d;}.cls-2,.cls-3{fill:#e911bd;}.cls-10,.cls-14,.cls-15,.cls-18,.cls-3{font-size:36px;font-family:VarelaRound-Regular, Varela Round;}.cls-4{letter-spacing:-0.02em;}.cls-5{letter-spacing:0em;}.cls-6{letter-spacing:0em;}.cls-7{letter-spacing:-0.01em;}.cls-8{letter-spacing:0em;}.cls-10,.cls-9{fill:#fff;}.cls-11{letter-spacing:-0.01em;}.cls-12{letter-spacing:0.02em;}.cls-13{fill:#e0dad7;}.cls-14{letter-spacing:-0.01em;}.cls-16,.cls-18{letter-spacing:-0.01em;}.cls-17{letter-spacing:-0.01em;}.cls-19{letter-spacing:-0.02em;}.cls-20{letter-spacing:0em;}</style></defs><title>drizzle-modules</title><g id="Layer_2" data-name="Layer 2"><g id="Layer_2-2" data-name="Layer 2"><rect class="cls-1" x="1" y="277.85" width="1238" height="116.42" rx="11" ry="11"/><path class="cls-2" d="M1228,278.85a10,10,0,0,1,10,10v94.42a10,10,0,0,1-10,10H12a10,10,0,0,1-10-10V288.85a10,10,0,0,1,10-10H1228m0-2H12a12,12,0,0,0-12,12v94.42a12,12,0,0,0,12,12H1228a12,12,0,0,0,12-12V288.85a12,12,0,0,0-12-12Z"/><text class="cls-3" transform="translate(30 348.2)">drizzle</text><rect class="cls-1" y="138.42" width="610" height="118.42" rx="12" ry="12"/><text class="cls-3" transform="translate(30 209.77)">drizzle-<tspan class="cls-4" x="125.35" y="0">r</tspan><tspan class="cls-5" x="138.6" y="0">eact</tspan></text><rect class="cls-1" width="610" height="118.42" rx="12" ry="12"/><text class="cls-3" transform="translate(30 71.35)">drizzle-<tspan class="cls-4" x="125.35" y="0">r</tspan><tspan class="cls-5" x="138.6" y="0">eact-</tspan><tspan class="cls-6" x="226.83" y="0">c</tspan><tspan x="245.88" y="0">ompone</tspan><tspan class="cls-7" x="387.71" y="0">n</tspan><tspan class="cls-8" x="409.21" y="0">ts</tspan></text><path class="cls-9" d="M1228,138.42h-12v1h12v-1Zm-24,0h-12v1h12v-1Zm-24,0h-12v1h12v-1Zm-24,0h-12v1h12v-1Zm-24,0h-12v1h12v-1Zm-24,0h-12v1h12v-1Zm-24,0h-12v1h12v-1Zm-24,0h-12v1h12v-1Zm-24,0h-12v1h12v-1Zm-24,0h-12v1h12v-1Zm-24,0H976v1h12v-1Zm-24,0H952v1h12v-1Zm-24,0H928v1h12v-1Zm-24,0H904v1h12v-1Zm-24,0H880v1h12v-1Zm-24,0H856v1h12v-1Zm-24,0H832v1h12v-1Zm-24,0H808v1h12v-1Zm-24,0H784v1h12v-1Zm-24,0H760v1h12v-1Zm-24,0H736v1h12v-1Zm-24,0H712v1h12v-1Zm-24,0H688v1h12v-1Zm-24,0H664v1h12v-1Zm-24,0H641.6a12.41,12.41,0,0,0-1.38.13H640l.17,1a11,11,0,0,1,1.82-.16h10v-1Zm-21,7.3a11.13,11.13,0,0,0-.59,1.71h0v.06h0v0h0v0h0v0h0v0h0v0h0v0h-.09v0h0v0h0v0h0v0h0v0h0v0h0a.43.43,0,0,1,0,.11h0v0h0v0h0v0h0v0h0v0h0v0h0v0h0v0h0v0h0v0h0v0h0v0h0v0h0v0h0v0h0v0h0v0h0v0h0v0h0v7.16h1v-7.16a10.84,10.84,0,0,1,.89-4.31l-.92-.39Zm0,23.86h-1v12h1v-12Zm0,24h-1v12h1v-12Zm0,24h-1v12h1v-12Zm0,24h-1v3.27h0v0h0v0h0v0h0v0h0v0h0v0h0v0h0v0h0v0h0v0h0v0h0v0h0v0h0v0h0v0h0v0h0v0h0v0h0v0h0v0h0v0h0v0h0v0h0v0h0v0h0v0h0v.06h0v0h0v0h0v0h0v.09h0v0h0v0h0v0h0v0h0l0,.07h0v0h0v0h0v0h0v0h0v0h0s0,.07,0,.11h0v0h0v0h0v0h0s0,.07,0,.11h0v0h0v0h0v0h0c0,.06,0,.12,0,.18h0v0h0v0h0c0,.07,0,.15.05.22h0a12.06,12.06,0,0,0,2.21,4.48h0l.09.11h0v0h.07l0,0h.12l.05.06h0v0h0v0h0l0,.05.75-.67a11,11,0,0,1-2.8-7.31v-3.27Zm24.9,14.27h-12v1h12v-1Zm24,0h-12v1h12v-1Zm24,0h-12v1h12v-1Zm24,0h-12v1h12v-1Zm24,0h-12v1h12v-1Zm24,0h-12v1h12v-1Zm24,0h-12v1h12v-1Zm24,0h-12v1h12v-1Zm24,0h-12v1h12v-1Zm24,0h-12v1h12v-1Zm24,0h-12v1h12v-1Zm24,0h-12v1h12v-1Zm24,0h-12v1h12v-1Zm24,0h-12v1h12v-1Zm24,0h-12v1h12v-1Zm24,0h-12v1h12v-1Zm24,0h-12v1h12v-1Zm24,0h-12v1h12v-1Zm24,0h-12v1h12v-1Zm24,0h-12v1h12v-1Zm24,0h-12v1h12v-1Zm24,0h-12v1h12v-1Zm24,0h-12v1h12v-1Zm24,0h-12v1h12v-1Zm23.61-.58a10.72,10.72,0,0,1-3.51.58h-8.1v1h9.37a11.57,11.57,0,0,0,2.56-.56l-.32-1Zm8.49-19.48h-1v9.06a10.91,10.91,0,0,1-.33,2.67l1,.24c0-.2.1-.41.14-.61h0v0h0v0h0v0h0v0h0v0h0v0h0v0h0v0h0v0h0v0h0v-.07h0v0h0c0-.18.05-.35.07-.53h0v-.09h0v0h0V246h0v0h0v-.1h0v-.05h0v0h0v0h0v-.07h0v0h0v0h0v0h0v0h0v0h0v0h0v0h0v0h0v0h0v0h0v0h0v0h0v0h0v0h0v0h0v0h0v0h0v0h0v-9.08Zm0-24h-1v12h1v-12Zm0-24h-1v12h1v-12Zm0-24h-1v12h1v-12Zm-4.42-22.65-.64.77a11,11,0,0,1,4.06,8.51v1.37h1v-1.37h0v0h0v0h0v0h0v0h0v0h0v0h0v0h0v0h0v0h0v0h0v0h0v0h0v0h0v0h0v0h0v0h0v0h0v0h0v0h0v0h0v-.06h0v-.07h0v0h0v-.09h0v0h0v0h0v0h0l0-.11h0v0h0a12,12,0,0,0-4.24-7.24Z"/><text class="cls-10" transform="translate(660 209.77)">drizzle-a<tspan class="cls-11" x="145.58" y="0">n</tspan><tspan class="cls-12" x="167.18" y="0">y</tspan><tspan x="187.27" y="0">thing-else</tspan></text><rect class="cls-13" y="415.27" width="400" height="118.42" rx="12" ry="12"/><text class="cls-14" transform="translate(30 486.62)">w<tspan class="cls-5" x="28.26" y="0">eb3</tspan></text><rect class="cls-13" x="420" y="415.27" width="400" height="118.42" rx="12" ry="12"/><text class="cls-15" transform="translate(450 486.62)"><tspan class="cls-16">r</tspan><tspan class="cls-5" x="13.25" y="0">ed</tspan><tspan class="cls-17" x="56.34" y="0">u</tspan><tspan x="77.8" y="0">x</tspan></text><rect class="cls-13" x="840" y="415.27" width="400" height="118.42" rx="12" ry="12"/><text class="cls-18" transform="translate(870 486.62)">r<tspan class="cls-5" x="13.25" y="0">ed</tspan><tspan class="cls-17" x="56.34" y="0">u</tspan><tspan class="cls-19" x="77.8" y="0">x</tspan><tspan class="cls-20" x="96.44" y="0">-saga</tspan></text></g></g></svg>