<svg xmlns="http://www.w3.org/2000/svg" viewBox="0 0 780.62 563"><defs><style>.cls-1{fill:#e911bd;opacity:0.3;}</style></defs><title>drizzle-accent</title><g id="Layer_2" data-name="Layer 2"><g id="scroll_nav" data-name="scroll nav"><path class="cls-1" d="M71.85,499.16c2.52-28,2-55.92.1-83.54a578.7,578.7,0,0,0-12.17-81.57c-3.08-13.31-6.59-26.46-10.71-39.36s-9.14-25.44-13.35-38.15q-3.11-9.57-6.63-19c-2.52-6.2-5-12.43-7.93-18.45A399.48,399.48,0,0,0,2.6,183.56l-.28-.48A17.55,17.55,0,0,1,22.7,157.59c12,3.7,22.51,7.66,33.44,12s21.39,9,31.87,13.93a658.59,658.59,0,0,1,61.13,32.84,605.31,605.31,0,0,1,109.92,84.88,513.57,513.57,0,0,1,85.76,110A488.73,488.73,0,0,1,396.55,541l-33.66-2.14c1.66-4.55,3.48-10.24,5-15.53s3.1-10.87,4.5-16.37c2.8-11,5.22-22.15,7.31-33.37a566.17,566.17,0,0,0,8.38-67.95,534.75,534.75,0,0,0-8.64-136.13A486.15,486.15,0,0,0,335,141.12,512.84,512.84,0,0,0,256.83,29.61l-.19-.21A17.56,17.56,0,0,1,271.85.14C280,1.19,286.76,2.47,294,4s14.2,3.11,21.2,4.9c14,3.56,27.82,7.69,41.45,12.3a619.7,619.7,0,0,1,220.81,131.2,630.69,630.69,0,0,1,109,132.84c30.25,48.77,53.74,101.4,71.77,155.52l-32.74-2c1.32-2.93,3-7.18,4.34-10.94s2.72-7.88,3.94-11.89a249,249,0,0,0,6.13-24.49c3.06-16.6,4.8-33.32,6.35-50.09a246.76,246.76,0,0,0-12.67-100.09,268.36,268.36,0,0,0-52.7-88.83c-23.29-26.33-50.9-49.38-80.93-69,32.07,16,62.94,35.4,89.94,60.13s50.18,54.48,65.85,88.67,24,71.93,24.83,109.9a206.5,206.5,0,0,1-1.09,28.46c-1.06,9.43-2.87,18.75-4.84,28s-4.32,18.45-7.09,27.55q-2.07,6.82-4.5,13.61c-1.7,4.64-3.24,8.75-5.61,14a17.55,17.55,0,0,1-32.62-1.62l-.12-.35c-17.25-51.79-39.63-101.86-68.29-148A595,595,0,0,0,553.53,178.28,584.69,584.69,0,0,0,345.36,54.6c-12.81-4.34-25.78-8.22-38.83-11.53q-9.79-2.51-19.61-4.53c-6.4-1.33-13.38-2.59-19.08-3.32l15-29.48A548.43,548.43,0,0,1,366.4,125a521.35,521.35,0,0,1,47.72,137.75,569.31,569.31,0,0,1,9.24,145.14,600.65,600.65,0,0,1-8.91,72.2q-3.33,17.91-7.8,35.63-2.26,8.87-4.86,17.7c-1.8,6-3.52,11.54-5.91,18.05a17.58,17.58,0,0,1-33.57-1.79l-.09-.35a452.69,452.69,0,0,0-48-120.4,477.83,477.83,0,0,0-79.89-102.44,569.84,569.84,0,0,0-103.52-79.9A625.61,625.61,0,0,0,73,215.49q-14.83-7-30-13.12-7.58-3.06-15.21-5.84c-5-1.81-10.38-3.67-14.9-5l20.11-26c14.88,25.19,26.88,51.91,37,79.22,5.15,13.66,7.55,28.15,10.31,42.34,2.51,14.28,4.3,28.62,5.62,42.94A508.31,508.31,0,0,1,86,415.67c-1.1,14.16-2.77,28.25-5.15,42.19A367.29,367.29,0,0,1,71.85,499.16Z"/></g></g></svg>