<svg xmlns="http://www.w3.org/2000/svg" viewBox="0 0 974.22 419.31"><defs><style>.cls-1{fill:#5e464d;}.cls-2{fill:#e911bd;}.cls-3{fill:#fff;}.cls-4{fill:#e0dad7;}</style></defs><title>drizzle-modules</title><g id="Layer_2" data-name="Layer 2"><g id="Layer_2-2" data-name="Layer 2"><rect class="cls-1" x="1" y="218.51" width="972.22" height="91.04" rx="11" ry="11"/><path class="cls-2" d="M962.22,219.51a10,10,0,0,1,10,10v69a10,10,0,0,1-10,10H12a10,10,0,0,1-10-10v-69a10,10,0,0,1,10-10H962.22m0-2H12a12,12,0,0,0-12,12v69a12,12,0,0,0,12,12H962.22a12,12,0,0,0,12-12v-69a12,12,0,0,0-12-12Z"/><path class="cls-2" d="M28.45,273.68a6.81,6.81,0,0,1-2.55-2.61,8.73,8.73,0,0,1,0-8,6.71,6.71,0,0,1,2.55-2.6,6.57,6.57,0,0,1,8.16,1.26V254.8a1.26,1.26,0,0,1,1.3-1.3,1.17,1.17,0,0,1,.9.38,1.25,1.25,0,0,1,.37.92v18.35a1.26,1.26,0,0,1-1.27,1.28,1.29,1.29,0,0,1-.92-.37,1.24,1.24,0,0,1-.38-.91v-.73a6.52,6.52,0,0,1-4.84,2.15A6.64,6.64,0,0,1,28.45,273.68Zm6.14-2.1a7,7,0,0,0,2-1.54V264.1a7.18,7.18,0,0,0-2-1.54,5.32,5.32,0,0,0-2.45-.58,4.44,4.44,0,0,0-3.37,1.33,6.2,6.2,0,0,0,0,7.52,4.44,4.44,0,0,0,3.37,1.33A5.32,5.32,0,0,0,34.59,271.58Z"/><path class="cls-2" d="M44,274.06a1.23,1.23,0,0,1-.37-.91V261a1.25,1.25,0,0,1,.37-.92,1.18,1.18,0,0,1,.9-.38,1.3,1.3,0,0,1,1.3,1.3v1.22c1.32-1.78,2.81-2.66,4.45-2.66h.14a1.21,1.21,0,0,1,.89.36,1.29,1.29,0,0,1,.35.91,1.13,1.13,0,0,1-.37.88,1.33,1.33,0,0,1-.93.34h-.14a4.83,4.83,0,0,0-2.49.66,5.78,5.78,0,0,0-1.9,1.82v8.6a1.2,1.2,0,0,1-.38.91,1.29,1.29,0,0,1-.92.37A1.25,1.25,0,0,1,44,274.06Z"/><path class="cls-2" d="M54.68,256.49a1.38,1.38,0,0,1-.42-1v-.12a1.42,1.42,0,0,1,.42-1,1.39,1.39,0,0,1,1-.42h.17a1.4,1.4,0,0,1,1,.42,1.42,1.42,0,0,1,.42,1v.12a1.45,1.45,0,0,1-1.44,1.44H55.7A1.36,1.36,0,0,1,54.68,256.49Zm.17,17.57a1.27,1.27,0,0,1-.37-.91V261a1.29,1.29,0,0,1,.37-.92,1.2,1.2,0,0,1,.91-.38,1.26,1.26,0,0,1,1.3,1.3v12.13a1.24,1.24,0,0,1-.38.91,1.33,1.33,0,0,1-.92.37A1.27,1.27,0,0,1,54.85,274.06Z"/><path class="cls-2" d="M60.93,273.89a1.33,1.33,0,0,1-.51-1.11,1.63,1.63,0,0,1,.46-1.15L69,262.26H61.87a1.16,1.16,0,0,1-1.19-1.18,1.21,1.21,0,0,1,.34-.87,1.14,1.14,0,0,1,.85-.35h8.57a1.59,1.59,0,0,1,1.18.45,1.54,1.54,0,0,1,.46,1.16,1.73,1.73,0,0,1-.4,1.13l-7.92,9.28H71a1.21,1.21,0,0,1,1.22,1.22,1.09,1.09,0,0,1-.36.84,1.17,1.17,0,0,1-.86.34H62.2A2,2,0,0,1,60.93,273.89Z"/><path class="cls-2" d="M75,273.89a1.33,1.33,0,0,1-.51-1.11,1.67,1.67,0,0,1,.45-1.15l8.15-9.37H76a1.15,1.15,0,0,1-.85-.34,1.16,1.16,0,0,1-.34-.84,1.25,1.25,0,0,1,.34-.87,1.15,1.15,0,0,1,.85-.35h8.57a1.61,1.61,0,0,1,1.19.45,1.58,1.58,0,0,1,.45,1.16,1.68,1.68,0,0,1-.4,1.13l-7.91,9.28h7.26a1.2,1.2,0,0,1,1.22,1.22,1.12,1.12,0,0,1-.35.84,1.21,1.21,0,0,1-.87.34H76.29A2,2,0,0,1,75,273.89Z"/><path class="cls-2" d="M90.06,274.06a1.26,1.26,0,0,1-.36-.91V254.8a1.28,1.28,0,0,1,.36-.92,1.2,1.2,0,0,1,.91-.38,1.25,1.25,0,0,1,1.3,1.3v18.35a1.24,1.24,0,0,1-.38.91,1.31,1.31,0,0,1-.92.37A1.27,1.27,0,0,1,90.06,274.06Z"/><path class="cls-2" d="M97.8,272.6a7.54,7.54,0,0,1-1.94-5.53,9.19,9.19,0,0,1,.74-3.7,6.32,6.32,0,0,1,2.26-2.75,7.28,7.28,0,0,1,7.38-.07,6.33,6.33,0,0,1,2.32,2.6,8,8,0,0,1,.79,3.55,1.25,1.25,0,0,1-.35.91,1.28,1.28,0,0,1-1,.37H98.46a4.65,4.65,0,0,0,1.47,3.08,5,5,0,0,0,3.48,1.1,7.85,7.85,0,0,0,3.82-.87,1.07,1.07,0,0,1,.51-.12,1.15,1.15,0,0,1,.79.31,1,1,0,0,1,.34.8,1.21,1.21,0,0,1-.73,1,10.18,10.18,0,0,1-2.18.94,10.53,10.53,0,0,1-2.77.31A7.23,7.23,0,0,1,97.8,272.6Zm9-6.72a4.64,4.64,0,0,0-.72-2.32,4,4,0,0,0-1.57-1.37,4.5,4.5,0,0,0-1.9-.44,4.43,4.43,0,0,0-1.89.44,3.86,3.86,0,0,0-1.56,1.37,4.74,4.74,0,0,0-.71,2.32Z"/><rect class="cls-1" y="108.76" width="479.25" height="93.04" rx="12" ry="12"/><path class="cls-2" d="M28.45,164.92a6.71,6.71,0,0,1-2.55-2.6,8.75,8.75,0,0,1,0-8,6.78,6.78,0,0,1,2.55-2.6,6.64,6.64,0,0,1,3.32-.89A6.52,6.52,0,0,1,36.61,153V146a1.24,1.24,0,0,1,.38-.93,1.25,1.25,0,0,1,.92-.37,1.2,1.2,0,0,1,.9.38,1.27,1.27,0,0,1,.37.92V164.4a1.26,1.26,0,0,1-1.27,1.27,1.25,1.25,0,0,1-.92-.37,1.2,1.2,0,0,1-.38-.9v-.74a6.48,6.48,0,0,1-4.84,2.15A6.64,6.64,0,0,1,28.45,164.92Zm6.14-2.09a7.18,7.18,0,0,0,2-1.54v-5.94a7,7,0,0,0-2-1.54,5.32,5.32,0,0,0-2.45-.58,4.47,4.47,0,0,0-3.37,1.32,6.22,6.22,0,0,0,0,7.53,4.47,4.47,0,0,0,3.37,1.33A5.45,5.45,0,0,0,34.59,162.83Z"/><path class="cls-2" d="M44,165.3a1.19,1.19,0,0,1-.37-.9V152.26a1.28,1.28,0,0,1,.37-.92,1.22,1.22,0,0,1,.9-.38,1.3,1.3,0,0,1,1.3,1.3v1.22c1.32-1.77,2.81-2.66,4.45-2.66h.14a1.19,1.19,0,0,1,.89.37,1.27,1.27,0,0,1,.35.9,1.13,1.13,0,0,1-.37.88,1.29,1.29,0,0,1-.93.34h-.14a4.74,4.74,0,0,0-2.49.67,5.78,5.78,0,0,0-1.9,1.82v8.6a1.17,1.17,0,0,1-.38.9,1.25,1.25,0,0,1-.92.37A1.21,1.21,0,0,1,44,165.3Z"/><path class="cls-2" d="M54.68,147.74a1.39,1.39,0,0,1-.42-1v-.11a1.45,1.45,0,0,1,1.44-1.45h.17a1.41,1.41,0,0,1,1,.43,1.39,1.39,0,0,1,.42,1v.11a1.39,1.39,0,0,1-.42,1,1.4,1.4,0,0,1-1,.42H55.7A1.39,1.39,0,0,1,54.68,147.74Zm.17,17.56a1.23,1.23,0,0,1-.37-.9V152.26a1.33,1.33,0,0,1,.37-.92,1.24,1.24,0,0,1,.91-.38,1.26,1.26,0,0,1,1.3,1.3V164.4a1.2,1.2,0,0,1-.38.9,1.28,1.28,0,0,1-.92.37A1.23,1.23,0,0,1,54.85,165.3Z"/><path class="cls-2" d="M60.93,165.13a1.31,1.31,0,0,1-.51-1.1,1.68,1.68,0,0,1,.46-1.16L69,153.51H61.87a1.13,1.13,0,0,1-.85-.34,1.15,1.15,0,0,1-.34-.85,1.17,1.17,0,0,1,.34-.86,1.11,1.11,0,0,1,.85-.36h8.57a1.6,1.6,0,0,1,1.18.46,1.54,1.54,0,0,1,.46,1.16,1.75,1.75,0,0,1-.4,1.13l-7.92,9.27H71a1.23,1.23,0,0,1,1.22,1.22,1.13,1.13,0,0,1-.36.85,1.17,1.17,0,0,1-.86.34H62.2A2,2,0,0,1,60.93,165.13Z"/><path class="cls-2" d="M75,165.13a1.31,1.31,0,0,1-.51-1.1,1.71,1.71,0,0,1,.45-1.16l8.15-9.36H76a1.15,1.15,0,0,1-.85-.34,1.19,1.19,0,0,1-.34-.85,1.21,1.21,0,0,1,.34-.86,1.13,1.13,0,0,1,.85-.36h8.57a1.62,1.62,0,0,1,1.19.46,1.58,1.58,0,0,1,.45,1.16,1.7,1.7,0,0,1-.4,1.13l-7.91,9.27h7.26a1.21,1.21,0,0,1,1.22,1.22,1.15,1.15,0,0,1-.35.85,1.21,1.21,0,0,1-.87.34H76.29A2,2,0,0,1,75,165.13Z"/><path class="cls-2" d="M90.06,165.3a1.22,1.22,0,0,1-.36-.9V146a1.3,1.3,0,0,1,.36-.92,1.29,1.29,0,0,1,2.21.92V164.4a1.2,1.2,0,0,1-.38.9,1.27,1.27,0,0,1-.92.37A1.23,1.23,0,0,1,90.06,165.3Z"/><path class="cls-2" d="M97.8,163.85a7.56,7.56,0,0,1-1.94-5.53,9.24,9.24,0,0,1,.74-3.71,6.29,6.29,0,0,1,2.26-2.74,6.48,6.48,0,0,1,3.76-1.05,6.58,6.58,0,0,1,3.62,1,6.27,6.27,0,0,1,2.32,2.6,8,8,0,0,1,.79,3.55,1.21,1.21,0,0,1-.35.9,1.24,1.24,0,0,1-1,.37H98.46a4.62,4.62,0,0,0,1.47,3.08,5,5,0,0,0,3.48,1.11,8,8,0,0,0,3.82-.88,1.19,1.19,0,0,1,.51-.11,1.11,1.11,0,0,1,.79.31,1,1,0,0,1,.34.79,1.22,1.22,0,0,1-.73,1,10.66,10.66,0,0,1-2.18.93,10.12,10.12,0,0,1-2.77.31A7.22,7.22,0,0,1,97.8,163.85Zm9-6.72a4.61,4.61,0,0,0-.72-2.32,3.94,3.94,0,0,0-1.57-1.37,4.5,4.5,0,0,0-1.9-.44,4.43,4.43,0,0,0-1.89.44,3.79,3.79,0,0,0-1.56,1.37,4.71,4.71,0,0,0-.71,2.32Z"/><path class="cls-2" d="M112.79,158.42a1.1,1.1,0,0,1-.33-.81,1.14,1.14,0,0,1,.33-.82,1.06,1.06,0,0,1,.81-.34h5.34a1.16,1.16,0,0,1,1.16,1.16,1.07,1.07,0,0,1-.34.81,1.17,1.17,0,0,1-.82.32H113.6A1.12,1.12,0,0,1,112.79,158.42Z"/><path class="cls-2" d="M124.65,165.3a1.22,1.22,0,0,1-.36-.9V152.26a1.32,1.32,0,0,1,.36-.92,1.24,1.24,0,0,1,.91-.38,1.28,1.28,0,0,1,.92.38,1.29,1.29,0,0,1,.38.92v1.22q2-2.65,4.44-2.66h.14a1.16,1.16,0,0,1,.89.37,1.24,1.24,0,0,1,.36.9,1.17,1.17,0,0,1-.37.88,1.32,1.32,0,0,1-.93.34h-.15a4.73,4.73,0,0,0-2.48.67,5.69,5.69,0,0,0-1.9,1.82v8.6a1.2,1.2,0,0,1-.38.9,1.27,1.27,0,0,1-.92.37A1.23,1.23,0,0,1,124.65,165.3Z"/><path class="cls-2" d="M135.76,163.85a7.52,7.52,0,0,1-1.94-5.53,9.23,9.23,0,0,1,.73-3.71,6.31,6.31,0,0,1,2.27-2.74,6.46,6.46,0,0,1,3.76-1.05,6.6,6.6,0,0,1,3.62,1,6.27,6.27,0,0,1,2.32,2.6,8,8,0,0,1,.79,3.55,1.23,1.23,0,0,1-1.3,1.27h-9.59a4.62,4.62,0,0,0,1.47,3.08,5,5,0,0,0,3.48,1.11,8.59,8.59,0,0,0,2.08-.23,9,9,0,0,0,1.74-.65,1.19,1.19,0,0,1,.51-.11,1.13,1.13,0,0,1,.79.31,1,1,0,0,1,.34.79,1.24,1.24,0,0,1-.74,1,10.58,10.58,0,0,1-2.17.93,10.2,10.2,0,0,1-2.78.31A7.2,7.2,0,0,1,135.76,163.85Zm9-6.72a4.43,4.43,0,0,0-.72-2.32,3.88,3.88,0,0,0-1.57-1.37,4.3,4.3,0,0,0-3.79,0,3.76,3.76,0,0,0-1.55,1.37,4.61,4.61,0,0,0-.71,2.32Z"/><path class="cls-2" d="M152.07,165.3a4.08,4.08,0,0,1-1.68-1.48,4.13,4.13,0,0,1-.62-2.25,4,4,0,0,1,1.65-3.34,8,8,0,0,1,4.86-1.24h3.42v-.23a3.47,3.47,0,0,0-.92-2.69,4.26,4.26,0,0,0-2.87-.82,9.82,9.82,0,0,0-1.91.17,18.24,18.24,0,0,0-1.85.51,1.62,1.62,0,0,1-.37.06,1,1,0,0,1-.74-.31,1.07,1.07,0,0,1-.31-.77,1.1,1.1,0,0,1,.74-1.07,12.39,12.39,0,0,1,4.89-1,6.44,6.44,0,0,1,3.29.79,4.93,4.93,0,0,1,2,2,5.9,5.9,0,0,1,.64,2.73v8a1.2,1.2,0,0,1-.38.9,1.27,1.27,0,0,1-.92.37,1.26,1.26,0,0,1-1.27-1.27v-.74a7.09,7.09,0,0,1-5.32,2.15A5.28,5.28,0,0,1,152.07,165.3Zm5.68-2.36a6.7,6.7,0,0,0,1.95-1.51v-2.38h-3.09c-2.84,0-4.27.75-4.27,2.24a2.1,2.1,0,0,0,.7,1.64,3.44,3.44,0,0,0,2.3.62A5.1,5.1,0,0,0,157.75,162.94Z"/><path class="cls-2" d="M169.51,164.91a7,7,0,0,1-2.76-2.61,8.22,8.22,0,0,1,0-8,7,7,0,0,1,2.76-2.6,8.52,8.52,0,0,1,6.35-.53,9.69,9.69,0,0,1,2,1,1.12,1.12,0,0,1,.57,1,1.13,1.13,0,0,1-.33.78,1,1,0,0,1-.75.35,1.35,1.35,0,0,1-.62-.17,10.25,10.25,0,0,0-1.6-.69,5.52,5.52,0,0,0-1.65-.21,5.12,5.12,0,0,0-3.82,1.4,5.62,5.62,0,0,0,0,7.38,5.16,5.16,0,0,0,3.82,1.4,5.52,5.52,0,0,0,1.65-.21,11.51,11.51,0,0,0,1.6-.7,1.35,1.35,0,0,1,.62-.17,1,1,0,0,1,.75.36,1.09,1.09,0,0,1,.33.77,1.12,1.12,0,0,1-.57,1,9.22,9.22,0,0,1-2,1,8.58,8.58,0,0,1-6.35-.52Z"/><path class="cls-2" d="M182.52,162.08v-8.77h-2a.51.51,0,0,1-.38-.16.52.52,0,0,1-.15-.38.58.58,0,0,1,.25-.48l3.85-3.76a.7.7,0,0,1,.48-.25.47.47,0,0,1,.38.17.57.57,0,0,1,.16.39v2.26h3.19a1.1,1.1,0,0,1,.79,1.88,1,1,0,0,1-.79.33H185.1v8.54c0,.74.17,1.2.52,1.4a2.62,2.62,0,0,0,1.31.3,4.09,4.09,0,0,0,1.14-.17l.24-.06a1.39,1.39,0,0,1,.32,0,1,1,0,0,1,.71.3,1,1,0,0,1,.31.72,1.06,1.06,0,0,1-.65,1,5.55,5.55,0,0,1-2.35.51Q182.53,165.81,182.52,162.08Z"/><rect class="cls-1" width="479.25" height="93.04" rx="12" ry="12"/><path class="cls-2" d="M28.45,55a6.71,6.71,0,0,1-2.55-2.6,8.73,8.73,0,0,1,0-8,6.71,6.71,0,0,1,2.55-2.6A6.54,6.54,0,0,1,36.61,43V36.1a1.27,1.27,0,0,1,.38-.93,1.29,1.29,0,0,1,.92-.37,1.17,1.17,0,0,1,.9.39,1.25,1.25,0,0,1,.37.91V54.46a1.25,1.25,0,0,1-1.27,1.27,1.28,1.28,0,0,1-.92-.36,1.24,1.24,0,0,1-.38-.91v-.73A6.58,6.58,0,0,1,28.45,55Zm6.14-2.09a7.18,7.18,0,0,0,2-1.54V45.41a7.18,7.18,0,0,0-2-1.54,5.32,5.32,0,0,0-2.45-.58,4.44,4.44,0,0,0-3.37,1.33,5.25,5.25,0,0,0-1.27,3.76,5.25,5.25,0,0,0,1.27,3.76,4.44,4.44,0,0,0,3.37,1.33A5.32,5.32,0,0,0,34.59,52.89Z"/><path class="cls-2" d="M44,55.37a1.23,1.23,0,0,1-.37-.91V42.33a1.25,1.25,0,0,1,.37-.92,1.18,1.18,0,0,1,.9-.38,1.3,1.3,0,0,1,1.3,1.3v1.21c1.32-1.77,2.81-2.66,4.45-2.66h.14a1.22,1.22,0,0,1,.89.37,1.29,1.29,0,0,1,.35.91,1.1,1.1,0,0,1-.37.87,1.29,1.29,0,0,1-.93.34h-.14a4.84,4.84,0,0,0-2.49.67,5.78,5.78,0,0,0-1.9,1.82v8.6a1.2,1.2,0,0,1-.38.91,1.28,1.28,0,0,1-.92.36A1.24,1.24,0,0,1,44,55.37Z"/><path class="cls-2" d="M54.68,37.8a1.39,1.39,0,0,1-.42-1v-.11a1.43,1.43,0,0,1,1.44-1.44h.17a1.4,1.4,0,0,1,1,.42,1.39,1.39,0,0,1,.42,1v.11a1.39,1.39,0,0,1-.42,1,1.41,1.41,0,0,1-1,.43H55.7A1.4,1.4,0,0,1,54.68,37.8Zm.17,17.57a1.27,1.27,0,0,1-.37-.91V42.33a1.29,1.29,0,0,1,.37-.92,1.2,1.2,0,0,1,.91-.38,1.29,1.29,0,0,1,.93.36,1.31,1.31,0,0,1,.37.94V54.46a1.24,1.24,0,0,1-.38.91,1.32,1.32,0,0,1-.92.36A1.26,1.26,0,0,1,54.85,55.37Z"/><path class="cls-2" d="M60.93,55.2a1.34,1.34,0,0,1-.51-1.11,1.68,1.68,0,0,1,.46-1.16L69,43.57H61.87a1.16,1.16,0,0,1-1.19-1.19,1.18,1.18,0,0,1,.34-.86,1.14,1.14,0,0,1,.85-.35h8.57a1.59,1.59,0,0,1,1.18.45,1.54,1.54,0,0,1,.46,1.16,1.75,1.75,0,0,1-.4,1.13l-7.92,9.28H71a1.18,1.18,0,0,1,.86.35,1.16,1.16,0,0,1,.36.86,1.11,1.11,0,0,1-.36.85,1.17,1.17,0,0,1-.86.34H62.2A2,2,0,0,1,60.93,55.2Z"/><path class="cls-2" d="M75,55.2a1.34,1.34,0,0,1-.51-1.11A1.71,1.71,0,0,1,75,52.93l8.15-9.36H76a1.15,1.15,0,0,1-.85-.34,1.17,1.17,0,0,1-.34-.85,1.23,1.23,0,0,1,.34-.86,1.15,1.15,0,0,1,.85-.35h8.57a1.61,1.61,0,0,1,1.19.45,1.58,1.58,0,0,1,.45,1.16,1.7,1.7,0,0,1-.4,1.13l-7.91,9.28h7.26a1.22,1.22,0,0,1,.87.35,1.19,1.19,0,0,1,.35.86,1.14,1.14,0,0,1-.35.85,1.21,1.21,0,0,1-.87.34H76.29A2,2,0,0,1,75,55.2Z"/><path class="cls-2" d="M90.06,55.37a1.26,1.26,0,0,1-.36-.91V36.1a1.28,1.28,0,0,1,.36-.91A1.21,1.21,0,0,1,91,34.8a1.26,1.26,0,0,1,1.3,1.3V54.46a1.24,1.24,0,0,1-.38.91,1.3,1.3,0,0,1-.92.36A1.26,1.26,0,0,1,90.06,55.37Z"/><path class="cls-2" d="M97.8,53.91a7.54,7.54,0,0,1-1.94-5.53,9.27,9.27,0,0,1,.74-3.71,6.29,6.29,0,0,1,2.26-2.74,6.48,6.48,0,0,1,3.76-1,6.58,6.58,0,0,1,3.62,1,6.33,6.33,0,0,1,2.32,2.6,8,8,0,0,1,.79,3.55,1.25,1.25,0,0,1-.35.91,1.27,1.27,0,0,1-1,.36H98.46a4.67,4.67,0,0,0,1.47,3.09,5.1,5.1,0,0,0,3.48,1.1,8,8,0,0,0,3.82-.88,1.19,1.19,0,0,1,.51-.11,1.11,1.11,0,0,1,.79.31,1,1,0,0,1,.34.79,1.21,1.21,0,0,1-.73,1.05,9.65,9.65,0,0,1-2.18.93,10.12,10.12,0,0,1-2.77.31A7.22,7.22,0,0,1,97.8,53.91Zm9-6.72a4.61,4.61,0,0,0-.72-2.32,3.94,3.94,0,0,0-1.57-1.37,4.5,4.5,0,0,0-1.9-.44,4.43,4.43,0,0,0-1.89.44,3.79,3.79,0,0,0-1.56,1.37,4.71,4.71,0,0,0-.71,2.32Z"/><path class="cls-2" d="M112.79,48.48a1.1,1.1,0,0,1-.33-.81,1.14,1.14,0,0,1,.33-.82,1.09,1.09,0,0,1,.81-.34h5.34a1.15,1.15,0,0,1,.82.34,1.11,1.11,0,0,1,.34.82,1.07,1.07,0,0,1-.34.81,1.13,1.13,0,0,1-.82.32H113.6A1.08,1.08,0,0,1,112.79,48.48Z"/><path class="cls-2" d="M124.65,55.37a1.26,1.26,0,0,1-.36-.91V42.33a1.28,1.28,0,0,1,.36-.92,1.2,1.2,0,0,1,.91-.38,1.24,1.24,0,0,1,.92.38,1.26,1.26,0,0,1,.38.92v1.21q2-2.65,4.44-2.66h.14a1.19,1.19,0,0,1,.89.37,1.26,1.26,0,0,1,.36.91,1.13,1.13,0,0,1-.37.87,1.32,1.32,0,0,1-.93.34h-.15a4.83,4.83,0,0,0-2.48.67,5.69,5.69,0,0,0-1.9,1.82v8.6a1.24,1.24,0,0,1-.38.91,1.3,1.3,0,0,1-.92.36A1.26,1.26,0,0,1,124.65,55.37Z"/><path class="cls-2" d="M135.76,53.91a7.5,7.5,0,0,1-1.94-5.53,9.27,9.27,0,0,1,.73-3.71,6.31,6.31,0,0,1,2.27-2.74,6.46,6.46,0,0,1,3.76-1,6.6,6.6,0,0,1,3.62,1,6.33,6.33,0,0,1,2.32,2.6,8,8,0,0,1,.79,3.55,1.22,1.22,0,0,1-1.3,1.27h-9.59a4.67,4.67,0,0,0,1.47,3.09,5.1,5.1,0,0,0,3.48,1.1,8.12,8.12,0,0,0,2.08-.23,8.35,8.35,0,0,0,1.74-.65,1.19,1.19,0,0,1,.51-.11,1.13,1.13,0,0,1,.79.31,1,1,0,0,1,.34.79,1.22,1.22,0,0,1-.74,1.05,9.59,9.59,0,0,1-2.17.93,10.2,10.2,0,0,1-2.78.31A7.2,7.2,0,0,1,135.76,53.91Zm9-6.72a4.43,4.43,0,0,0-.72-2.32,3.88,3.88,0,0,0-1.57-1.37,4.3,4.3,0,0,0-3.79,0,3.76,3.76,0,0,0-1.55,1.37,4.61,4.61,0,0,0-.71,2.32Z"/><path class="cls-2" d="M152.07,55.37a4,4,0,0,1-2.3-3.74,4,4,0,0,1,1.65-3.34,8,8,0,0,1,4.86-1.24h3.42v-.23a3.43,3.43,0,0,0-.92-2.68,4.2,4.2,0,0,0-2.87-.82,9.1,9.1,0,0,0-1.91.17,14.17,14.17,0,0,0-1.85.51,2.24,2.24,0,0,1-.37,0,1,1,0,0,1-.74-.31,1.07,1.07,0,0,1-.31-.76,1.1,1.1,0,0,1,.74-1.08,12.39,12.39,0,0,1,4.89-1,6.34,6.34,0,0,1,3.29.8,4.87,4.87,0,0,1,2,2,5.9,5.9,0,0,1,.64,2.73v8a1.24,1.24,0,0,1-.38.91,1.3,1.3,0,0,1-.92.36,1.25,1.25,0,0,1-1.27-1.27v-.73a7.12,7.12,0,0,1-5.32,2.14A5.27,5.27,0,0,1,152.07,55.37ZM157.75,53a6.7,6.7,0,0,0,1.95-1.51V49.11h-3.09c-2.84,0-4.27.75-4.27,2.24A2.07,2.07,0,0,0,153,53a3.44,3.44,0,0,0,2.3.62A5.1,5.1,0,0,0,157.75,53Z"/><path class="cls-2" d="M169.51,55a7,7,0,0,1-2.76-2.6,8.24,8.24,0,0,1,0-8,7,7,0,0,1,2.76-2.6,8,8,0,0,1,3.76-.91,7.67,7.67,0,0,1,2.59.39,9.66,9.66,0,0,1,2,1,1.12,1.12,0,0,1,.24,1.77,1,1,0,0,1-.75.35,1.24,1.24,0,0,1-.62-.17,10.25,10.25,0,0,0-1.6-.69,5.52,5.52,0,0,0-1.65-.21,5.16,5.16,0,0,0-3.82,1.4,5.62,5.62,0,0,0,0,7.38,5.16,5.16,0,0,0,3.82,1.4,5.52,5.52,0,0,0,1.65-.21,10.25,10.25,0,0,0,1.6-.69,1.24,1.24,0,0,1,.62-.17,1,1,0,0,1,.75.35,1.12,1.12,0,0,1,.33.78,1.14,1.14,0,0,1-.57,1,9.66,9.66,0,0,1-2,1,7.69,7.69,0,0,1-2.59.38A8,8,0,0,1,169.51,55Z"/><path class="cls-2" d="M182.52,52.14V43.37h-2a.51.51,0,0,1-.53-.53.58.58,0,0,1,.25-.48l3.85-3.77a.7.7,0,0,1,.48-.25.5.5,0,0,1,.38.17.57.57,0,0,1,.16.39v2.27h3.19a1,1,0,0,1,.79.31,1.07,1.07,0,0,1,.32.79,1.1,1.1,0,0,1-.32.78,1,1,0,0,1-.79.32H185.1v8.55c0,.73.17,1.2.52,1.4a2.73,2.73,0,0,0,1.31.29,3.75,3.75,0,0,0,1.14-.17l.24,0a1.39,1.39,0,0,1,.32,0,1,1,0,0,1,.71.29,1,1,0,0,1,.31.73,1.08,1.08,0,0,1-.65,1,5.54,5.54,0,0,1-2.35.5Q182.53,55.87,182.52,52.14Z"/><path class="cls-2" d="M192.52,48.48a1.09,1.09,0,0,1-.32-.81,1.13,1.13,0,0,1,.32-.82,1.11,1.11,0,0,1,.81-.34h5.34a1.13,1.13,0,0,1,.82.34,1.11,1.11,0,0,1,.34.82,1.07,1.07,0,0,1-.34.81,1.12,1.12,0,0,1-.82.32h-5.34A1.09,1.09,0,0,1,192.52,48.48Z"/><path class="cls-2" d="M206.93,55a7,7,0,0,1-2.76-2.6,8.24,8.24,0,0,1,0-8,7,7,0,0,1,2.76-2.6,8,8,0,0,1,3.76-.91,7.71,7.71,0,0,1,2.59.39,9.66,9.66,0,0,1,2,1,1.12,1.12,0,0,1,.24,1.77,1,1,0,0,1-.75.35,1.24,1.24,0,0,1-.62-.17,10.25,10.25,0,0,0-1.6-.69,5.52,5.52,0,0,0-1.65-.21,5.14,5.14,0,0,0-3.82,1.4,5.59,5.59,0,0,0,0,7.38,5.14,5.14,0,0,0,3.82,1.4,5.52,5.52,0,0,0,1.65-.21,10.25,10.25,0,0,0,1.6-.69,1.24,1.24,0,0,1,.62-.17,1,1,0,0,1,.75.35,1.12,1.12,0,0,1,.33.78,1.14,1.14,0,0,1-.57,1,9.66,9.66,0,0,1-2,1,7.73,7.73,0,0,1-2.59.38A8,8,0,0,1,206.93,55Z"/><path class="cls-2" d="M221.52,54.94A6.38,6.38,0,0,1,219,52.3a9.08,9.08,0,0,1,0-7.84,6.38,6.38,0,0,1,2.53-2.64,7.64,7.64,0,0,1,3.82-.94,7.53,7.53,0,0,1,3.79.94,6.43,6.43,0,0,1,2.55,2.64,9,9,0,0,1,0,7.84,6.43,6.43,0,0,1-2.55,2.64,7.52,7.52,0,0,1-3.79.93A7.64,7.64,0,0,1,221.52,54.94Zm6-1.95a4.34,4.34,0,0,0,1.76-1.7,5.66,5.66,0,0,0,.69-2.94,5.6,5.6,0,0,0-.69-2.91,4.22,4.22,0,0,0-1.76-1.68,4.9,4.9,0,0,0-2.22-.53,5,5,0,0,0-2.25.53,4.1,4.1,0,0,0-1.73,1.68,5.6,5.6,0,0,0-.68,2.91,5.66,5.66,0,0,0,.68,2.94,4.21,4.21,0,0,0,1.73,1.7,4.91,4.91,0,0,0,2.25.54A4.79,4.79,0,0,0,227.56,53Z"/><path class="cls-2" d="M236.54,55.37a1.26,1.26,0,0,1-.36-.91V42.33a1.28,1.28,0,0,1,.36-.92,1.2,1.2,0,0,1,.91-.38,1.24,1.24,0,0,1,.92.38,1.26,1.26,0,0,1,.38.92v1.16a6.93,6.93,0,0,1,1.91-1.87,5.17,5.17,0,0,1,2.9-.74,4.42,4.42,0,0,1,2.71.85,4.72,4.72,0,0,1,1.61,2.07,5.72,5.72,0,0,1,5.21-2.92,4.27,4.27,0,0,1,2.64.8,4.64,4.64,0,0,1,1.57,2,6.81,6.81,0,0,1,.51,2.6v8.15a1.24,1.24,0,0,1-.38.91,1.28,1.28,0,0,1-.92.36,1.25,1.25,0,0,1-1.27-1.27V46.82a4.55,4.55,0,0,0-.65-2.7,2.65,2.65,0,0,0-2.24-.86A3.73,3.73,0,0,0,250,44a7.16,7.16,0,0,0-1.68,2v8.48a1.24,1.24,0,0,1-.38.91,1.3,1.3,0,0,1-.92.36,1.23,1.23,0,0,1-1.27-1.27V46.82a4.55,4.55,0,0,0-.65-2.7,2.65,2.65,0,0,0-2.24-.86,3.73,3.73,0,0,0-2.39.75,7.16,7.16,0,0,0-1.68,2v8.48a1.24,1.24,0,0,1-.38.91,1.3,1.3,0,0,1-.92.36A1.26,1.26,0,0,1,236.54,55.37Z"/><path class="cls-2" d="M262.51,61.86a1.27,1.27,0,0,1-.37-.92V42.3A1.25,1.25,0,0,1,263.41,41a1.28,1.28,0,0,1,.92.36,1.2,1.2,0,0,1,.38.91V43a6.54,6.54,0,0,1,8.16-1.25,6.71,6.71,0,0,1,2.55,2.6,8.73,8.73,0,0,1,0,8,6.71,6.71,0,0,1-2.55,2.6,6.58,6.58,0,0,1-8.16-1.25v7.21a1.25,1.25,0,0,1-1.3,1.3A1.2,1.2,0,0,1,262.51,61.86Zm10-9.72a5.2,5.2,0,0,0,1.27-3.76,5.2,5.2,0,0,0-1.27-3.76,4.44,4.44,0,0,0-3.37-1.33,5.28,5.28,0,0,0-2.44.58,7.09,7.09,0,0,0-2,1.54v5.94a7.09,7.09,0,0,0,2,1.54,5.28,5.28,0,0,0,2.44.58A4.44,4.44,0,0,0,272.55,52.14Z"/><path class="cls-2" d="M282.53,54.94A6.32,6.32,0,0,1,280,52.3a9.08,9.08,0,0,1,0-7.84,6.32,6.32,0,0,1,2.53-2.64,7.64,7.64,0,0,1,3.82-.94,7.55,7.55,0,0,1,3.79.94,6.49,6.49,0,0,1,2.55,2.64,9,9,0,0,1,0,7.84,6.49,6.49,0,0,1-2.55,2.64,7.55,7.55,0,0,1-3.79.93A7.64,7.64,0,0,1,282.53,54.94Zm6-1.95a4.26,4.26,0,0,0,1.75-1.7,5.57,5.57,0,0,0,.7-2.94,5.5,5.5,0,0,0-.7-2.91,4.14,4.14,0,0,0-1.75-1.68,5,5,0,0,0-2.22-.53,5,5,0,0,0-2.25.53,4.12,4.12,0,0,0-1.74,1.68,5.7,5.7,0,0,0-.68,2.91,5.76,5.76,0,0,0,.68,2.94A4.24,4.24,0,0,0,284.1,53a4.91,4.91,0,0,0,2.25.54A4.85,4.85,0,0,0,288.57,53Z"/><path class="cls-2" d="M297.55,55.37a1.27,1.27,0,0,1-.37-.91V42.33a1.29,1.29,0,0,1,.37-.92,1.2,1.2,0,0,1,.91-.38,1.22,1.22,0,0,1,.91.38,1.23,1.23,0,0,1,.39.92v1.16a9.1,9.1,0,0,1,2.32-1.9,5.87,5.87,0,0,1,2.94-.71,4.92,4.92,0,0,1,2.7.74,4.76,4.76,0,0,1,1.75,2,6.35,6.35,0,0,1,.61,2.8v8a1.24,1.24,0,0,1-.38.91,1.3,1.3,0,0,1-.92.36,1.23,1.23,0,0,1-1.27-1.27V46.71q0-3.45-3.11-3.45a4.53,4.53,0,0,0-2.54.74,9.22,9.22,0,0,0-2.1,2v8.48a1.21,1.21,0,0,1-.39.91,1.28,1.28,0,0,1-.91.36A1.26,1.26,0,0,1,297.55,55.37Z"/><path class="cls-2" d="M315.47,53.91a7.54,7.54,0,0,1-1.94-5.53,9.27,9.27,0,0,1,.74-3.71,6.29,6.29,0,0,1,2.26-2.74,6.48,6.48,0,0,1,3.76-1,6.58,6.58,0,0,1,3.62,1,6.33,6.33,0,0,1,2.32,2.6A8,8,0,0,1,327,48a1.29,1.29,0,0,1-.35.91,1.27,1.27,0,0,1-.95.36h-9.59a4.67,4.67,0,0,0,1.47,3.09,5.1,5.1,0,0,0,3.48,1.1,8.06,8.06,0,0,0,2.08-.23,8,8,0,0,0,1.74-.65,1.19,1.19,0,0,1,.51-.11,1.11,1.11,0,0,1,.79.31,1,1,0,0,1,.34.79,1.21,1.21,0,0,1-.73,1.05,9.85,9.85,0,0,1-2.18.93,10.12,10.12,0,0,1-2.77.31A7.22,7.22,0,0,1,315.47,53.91Zm9-6.72a4.61,4.61,0,0,0-.72-2.32,3.94,3.94,0,0,0-1.57-1.37,4.5,4.5,0,0,0-1.9-.44,4.43,4.43,0,0,0-1.89.44,3.73,3.73,0,0,0-1.56,1.37,4.71,4.71,0,0,0-.71,2.32Z"/><path class="cls-2" d="M330.78,55.37a1.26,1.26,0,0,1-.36-.91V42.33a1.28,1.28,0,0,1,.36-.92,1.2,1.2,0,0,1,.91-.38,1.24,1.24,0,0,1,.92.38,1.26,1.26,0,0,1,.38.92v1.16a9.28,9.28,0,0,1,2.32-1.9,5.87,5.87,0,0,1,2.94-.71,4.88,4.88,0,0,1,2.7.74,4.78,4.78,0,0,1,1.76,2,6.48,6.48,0,0,1,.6,2.8v8a1.2,1.2,0,0,1-.38.91,1.28,1.28,0,0,1-.92.36,1.25,1.25,0,0,1-1.27-1.27V46.71q0-3.45-3.11-3.45a4.5,4.5,0,0,0-2.53.74A9.06,9.06,0,0,0,333,46v8.48a1.24,1.24,0,0,1-.38.91,1.3,1.3,0,0,1-.92.36A1.26,1.26,0,0,1,330.78,55.37Z"/><path class="cls-2" d="M348.15,52.14V43.37h-2a.52.52,0,0,1-.38-.15.55.55,0,0,1-.16-.38.59.59,0,0,1,.26-.48l3.85-3.77a.7.7,0,0,1,.48-.25.52.52,0,0,1,.38.17.56.56,0,0,1,.15.39v2.27h3.2a1.06,1.06,0,0,1,1.1,1.1,1.09,1.09,0,0,1-.31.78,1,1,0,0,1-.79.32h-3.2v8.55c0,.73.18,1.2.53,1.4a2.7,2.7,0,0,0,1.31.29,3.65,3.65,0,0,0,1.13-.17l.24,0a1.55,1.55,0,0,1,.33,0,1,1,0,0,1,.71.29,1,1,0,0,1,.31.73,1.08,1.08,0,0,1-.65,1,5.54,5.54,0,0,1-2.35.5Q348.16,55.87,348.15,52.14Z"/><path class="cls-2" d="M357.62,54.6a1.08,1.08,0,0,1-.48-.93,1.12,1.12,0,0,1,.32-.79,1,1,0,0,1,.79-.34,1.34,1.34,0,0,1,.51.11,11.39,11.39,0,0,0,1.81.62,8.4,8.4,0,0,0,2,.23c2.1,0,3.14-.67,3.14-2a1.08,1.08,0,0,0-.72-1,14.25,14.25,0,0,0-2.36-.76,23.27,23.27,0,0,1-2.76-.82A5,5,0,0,1,358,47.63a3.29,3.29,0,0,1-.77-2.28,4,4,0,0,1,1.43-3.22,6,6,0,0,1,4.08-1.25,11.82,11.82,0,0,1,4.1.71,1.06,1.06,0,0,1,.61.43,1.12,1.12,0,0,1,.21.65,1.09,1.09,0,0,1-.32.79,1.11,1.11,0,0,1-.81.34,1.48,1.48,0,0,1-.36-.06,10.87,10.87,0,0,0-3.23-.51,4.5,4.5,0,0,0-2.39.55,1.66,1.66,0,0,0-.86,1.43,1.31,1.31,0,0,0,.79,1.25,11.35,11.35,0,0,0,2.46.76,24.24,24.24,0,0,1,2.72.83,4.64,4.64,0,0,1,1.79,1.29,3.51,3.51,0,0,1,.75,2.35,3.73,3.73,0,0,1-1.43,3,6.13,6.13,0,0,1-4,1.18A10.54,10.54,0,0,1,357.62,54.6Z"/><path class="cls-3" d="M962.22,108.76h-12v1h12v-1Zm-24,0h-12v1h12v-1Zm-24,0h-12v1h12v-1Zm-24,0h-12v1h12v-1Zm-24,0h-12v1h12v-1Zm-24,0h-12v1h12v-1Zm-24,0h-12v1h12v-1Zm-24,0h-12v1h12v-1Zm-24,0h-12v1h12v-1Zm-24,0h-12v1h12v-1Zm-24,0h-12v1h12v-1Zm-24,0h-12v1h12v-1Zm-24,0h-12v1h12v-1Zm-24,0h-12v1h12v-1Zm-24,0h-12v1h12v-1Zm-24,0h-12v1h12v-1Zm-24,0h-12v1h12v-1Zm-24,0h-12v1h12v-1Zm-24,0h-12v1h12v-1Zm-24,0a12,12,0,0,0-9,4.92h0l0,.06h0v0h0l0,0h0l0,0h0v0h0l0,.06h0l0,0h0v0h0l0,0h0v0h0l0,0h0v0h0l0,0h0l0,0h0v0h0l0,0h0v0h0v0h0v0h0v0h0v0h0v0h0v0h0l.87.49a11,11,0,0,1,8.92-5.63l-.06-1ZM496,126.66h-1v12h1v-12Zm0,24h-1v12h1v-12Zm0,24h-1v12h1v-12Zm2.88,22.54-.74.67a12,12,0,0,0,5.1,3.32h0l.29.09h.08l.19.05h.15l.15,0h.19l.12,0h.23l.08,0H509v-1h-2a11.06,11.06,0,0,1-8.12-3.6ZM533,200.8H521v1h12v-1Zm24,0H545v1h12v-1Zm24,0H569v1h12v-1Zm24,0H593v1h12v-1Zm24,0H617v1h12v-1Zm24,0H641v1h12v-1Zm24,0H665v1h12v-1Zm24,0H689v1h12v-1Zm24,0H713v1h12v-1Zm24,0H737v1h12v-1Zm24,0H761v1h12v-1Zm24,0H785v1h12v-1Zm24,0H809v1h12v-1Zm24,0H833v1h12v-1Zm24,0H857v1h12v-1Zm24,0H881v1h12v-1Zm24,0H905v1h12v-1Zm24,0H929v1h12v-1Zm23.75-.3a10.66,10.66,0,0,1-2.52.3H953v1h10.09a13.27,13.27,0,0,0,1.89-.29l-.23-1Zm9.48-18.63h-1v7.93a10.78,10.78,0,0,1-.63,3.65l.94.34a2.67,2.67,0,0,0,.09-.26h0l0-.07h0v0h0v0h0v0h0v0h0v0h0v0h0v0h0v0h0v0h0v0h0l0-.07h0v0h0l0-.09h0l0-.09h0v0h0c0-.06,0-.13.05-.2h0c0-.13,0-.26.08-.4h0v-.09h0v0h0v-.09h0v0h0v-.08h0v-.1h0v-.08h0v0h0v-.06h0v0h0v-.06h0v-.06h0v0h0V191h0v0h0v0h0v0h0v0h0v0h0v0h0v0h0v0h0v0h0v-7.93Zm0-24h-1v12h1v-12Zm0-24h-1v12h1v-12Zm-4.62-22.56-.62.78a10.94,10.94,0,0,1,4.24,8.67v1.11h1v-1.11h0v0h0v0h0v0h0v0h0v0h0v0h0v0h0v0h0v0h0v0h0v0h0v0h0v0h0v0h0v0h0v0h0v0h0v0h0v0h0v0h0v0h0v0h0v0h0v0h0v0h0v0h0v-.05h0v0h0v-.07h0v0h0v0h0v0h0v0h0v0h0v0h0l0-.07h0v0h0v0h0v0h0v0h0l0-.07h0v-.08h0v0h0v-.09h0v0h0v0h0a12.09,12.09,0,0,0-2.45-4.94h0l-.09-.11h0l-.24-.27h0l-.28-.3h0l-.18-.18h0a10.9,10.9,0,0,0-1.08-1Z"/><path class="cls-3" d="M523.42,163.67a6.78,6.78,0,0,1-2.55-2.6,8.67,8.67,0,0,1,0-8,6.71,6.71,0,0,1,2.55-2.6,6.64,6.64,0,0,1,3.32-.89,6.52,6.52,0,0,1,4.84,2.15v-6.93a1.2,1.2,0,0,1,.38-.93,1.25,1.25,0,0,1,.92-.37,1.22,1.22,0,0,1,.9.38,1.25,1.25,0,0,1,.37.92v18.35a1.23,1.23,0,0,1-.37.91,1.25,1.25,0,0,1-.9.37,1.29,1.29,0,0,1-.92-.37,1.2,1.2,0,0,1-.38-.91v-.73a6.52,6.52,0,0,1-4.84,2.15A6.64,6.64,0,0,1,523.42,163.67Zm6.13-2.09a7.12,7.12,0,0,0,2-1.55v-5.94a7.09,7.09,0,0,0-2-1.54,5.41,5.41,0,0,0-2.44-.58,4.47,4.47,0,0,0-3.37,1.33,6.22,6.22,0,0,0,0,7.53,4.47,4.47,0,0,0,3.37,1.33A5.41,5.41,0,0,0,529.55,161.58Z"/><path class="cls-3" d="M539,164.05a1.23,1.23,0,0,1-.37-.91V151a1.27,1.27,0,0,1,.37-.92,1.2,1.2,0,0,1,.9-.38,1.26,1.26,0,0,1,.92.38,1.24,1.24,0,0,1,.38.92v1.22c1.32-1.78,2.8-2.66,4.44-2.66h.14a1.19,1.19,0,0,1,.9.37,1.25,1.25,0,0,1,.35.9,1.13,1.13,0,0,1-.37.88,1.35,1.35,0,0,1-.93.34h-.14a4.83,4.83,0,0,0-2.49.66,5.72,5.72,0,0,0-1.9,1.83v8.59a1.2,1.2,0,0,1-.38.91,1.29,1.29,0,0,1-.92.37A1.23,1.23,0,0,1,539,164.05Z"/><path class="cls-3" d="M549.65,146.49a1.43,1.43,0,0,1-.43-1v-.12a1.39,1.39,0,0,1,.43-1,1.36,1.36,0,0,1,1-.43h.17a1.45,1.45,0,0,1,1.44,1.44v.12a1.43,1.43,0,0,1-1.44,1.44h-.17A1.39,1.39,0,0,1,549.65,146.49Zm.17,17.56a1.23,1.23,0,0,1-.37-.91V151a1.27,1.27,0,0,1,.37-.92,1.22,1.22,0,0,1,.9-.38A1.25,1.25,0,0,1,552,151v12.13a1.2,1.2,0,0,1-.38.91,1.29,1.29,0,0,1-.92.37A1.25,1.25,0,0,1,549.82,164.05Z"/><path class="cls-3" d="M555.9,163.88a1.31,1.31,0,0,1-.51-1.1,1.69,1.69,0,0,1,.45-1.16l8.15-9.36h-7.16a1.16,1.16,0,0,1-1.19-1.19,1.25,1.25,0,0,1,.34-.87,1.15,1.15,0,0,1,.85-.35h8.57a1.61,1.61,0,0,1,1.19.45,1.59,1.59,0,0,1,.45,1.16,1.77,1.77,0,0,1-.39,1.14l-7.92,9.27H566a1.16,1.16,0,0,1,.86.36,1.18,1.18,0,0,1,.35.86,1.15,1.15,0,0,1-.35.85,1.23,1.23,0,0,1-.86.34h-8.83A2,2,0,0,1,555.9,163.88Z"/><path class="cls-3" d="M570,163.88a1.33,1.33,0,0,1-.5-1.1,1.69,1.69,0,0,1,.45-1.16l8.14-9.36h-7.15a1.19,1.19,0,0,1-.85-.34,1.15,1.15,0,0,1-.34-.85,1.21,1.21,0,0,1,.34-.87,1.15,1.15,0,0,1,.85-.35h8.57a1.63,1.63,0,0,1,1.19.45,1.59,1.59,0,0,1,.45,1.16,1.73,1.73,0,0,1-.4,1.14l-7.92,9.27h7.27a1.23,1.23,0,0,1,1.22,1.22,1.13,1.13,0,0,1-.36.85,1.21,1.21,0,0,1-.86.34h-8.82A2.06,2.06,0,0,1,570,163.88Z"/><path class="cls-3" d="M585,164.05a1.27,1.27,0,0,1-.37-.91V144.79a1.29,1.29,0,0,1,.37-.92,1.24,1.24,0,0,1,.91-.38,1.26,1.26,0,0,1,1.3,1.3v18.35a1.24,1.24,0,0,1-.38.91,1.33,1.33,0,0,1-.92.37A1.27,1.27,0,0,1,585,164.05Z"/><path class="cls-3" d="M592.77,162.59a7.5,7.5,0,0,1-1.94-5.53,9.22,9.22,0,0,1,.73-3.7,6.26,6.26,0,0,1,2.27-2.74,6.48,6.48,0,0,1,3.76-1.05,6.6,6.6,0,0,1,3.62,1,6.36,6.36,0,0,1,2.32,2.61,7.93,7.93,0,0,1,.79,3.55,1.27,1.27,0,0,1-.35.9,1.24,1.24,0,0,1-1,.37h-9.59a4.62,4.62,0,0,0,1.47,3.08,5,5,0,0,0,3.48,1.11,8.53,8.53,0,0,0,2.08-.23,9,9,0,0,0,1.74-.65,1.07,1.07,0,0,1,.51-.12,1.14,1.14,0,0,1,.79.32,1,1,0,0,1,.34.79,1.22,1.22,0,0,1-.74,1,8.7,8.7,0,0,1-5,1.25A7.21,7.21,0,0,1,592.77,162.59Zm9-6.71a4.49,4.49,0,0,0-.73-2.32,3.84,3.84,0,0,0-1.57-1.38,4.41,4.41,0,0,0-1.89-.43,4.49,4.49,0,0,0-1.9.43,3.79,3.79,0,0,0-1.55,1.38,4.58,4.58,0,0,0-.71,2.32Z"/><path class="cls-3" d="M607.76,157.16a1.06,1.06,0,0,1-.33-.8,1.12,1.12,0,0,1,.33-.82,1,1,0,0,1,.8-.34h5.35a1.11,1.11,0,0,1,.82.34,1.13,1.13,0,0,1,.34.82,1.07,1.07,0,0,1-.34.8,1.14,1.14,0,0,1-.82.33h-5.35A1.06,1.06,0,0,1,607.76,157.16Z"/><path class="cls-3" d="M620.63,164.05a4,4,0,0,1-1.69-1.48,4.18,4.18,0,0,1-.62-2.25A4,4,0,0,1,620,157a8,8,0,0,1,4.86-1.25h3.42v-.22a3.46,3.46,0,0,0-.92-2.69,4.2,4.2,0,0,0-2.87-.82,9.82,9.82,0,0,0-1.91.17,14.17,14.17,0,0,0-1.85.51,1.55,1.55,0,0,1-.37.06,1.05,1.05,0,0,1-.74-.31,1.13,1.13,0,0,1,.43-1.84,12.39,12.39,0,0,1,4.89-1,6.4,6.4,0,0,1,3.3.79,5.06,5.06,0,0,1,2,2,6,6,0,0,1,.63,2.73v8a1.24,1.24,0,0,1-.38.91,1.29,1.29,0,0,1-.92.37,1.26,1.26,0,0,1-1.27-1.28v-.73a7.13,7.13,0,0,1-5.32,2.15A5.2,5.2,0,0,1,620.63,164.05Zm5.67-2.36a6.88,6.88,0,0,0,2-1.51V157.8h-3.09c-2.84,0-4.27.74-4.27,2.23a2.07,2.07,0,0,0,.7,1.64,3.38,3.38,0,0,0,2.3.63A5.22,5.22,0,0,0,626.3,161.69Z"/><path class="cls-3" d="M635.52,164.05a1.23,1.23,0,0,1-.37-.91V151a1.27,1.27,0,0,1,.37-.92,1.2,1.2,0,0,1,.9-.38,1.26,1.26,0,0,1,.92.38,1.24,1.24,0,0,1,.38.92v1.16a9.45,9.45,0,0,1,2.32-1.89,5.77,5.77,0,0,1,2.94-.71,4.87,4.87,0,0,1,2.7.73,4.78,4.78,0,0,1,1.76,2,6.49,6.49,0,0,1,.61,2.8v8a1.21,1.21,0,0,1-.39.91,1.29,1.29,0,0,1-.91.37,1.26,1.26,0,0,1-1.28-1.28v-7.75c0-2.3-1-3.45-3.11-3.45a4.5,4.5,0,0,0-2.53.74,9.26,9.26,0,0,0-2.11,2v8.48a1.2,1.2,0,0,1-.38.91,1.29,1.29,0,0,1-.92.37A1.23,1.23,0,0,1,635.52,164.05Z"/><path class="cls-3" d="M654.48,170.55a1.22,1.22,0,0,1-.35-.87,1.42,1.42,0,0,1,.08-.45l1.84-4.73-5.32-12.95a1.58,1.58,0,0,1-.11-.54,1.27,1.27,0,0,1,.37-.92,1.25,1.25,0,0,1,1.62-.15,1.26,1.26,0,0,1,.47.56l4.36,10.81,4.44-10.75a1.26,1.26,0,0,1,2.09-.47,1.33,1.33,0,0,1,.28,1.4l-7.72,18.56a1.27,1.27,0,0,1-1.19.87A1.14,1.14,0,0,1,654.48,170.55Z"/><path class="cls-3" d="M668.75,160.83v-8.77h-2a.49.49,0,0,1-.38-.16.53.53,0,0,1-.16-.38.59.59,0,0,1,.26-.48l3.85-3.76a.72.72,0,0,1,.48-.26.52.52,0,0,1,.38.17.6.6,0,0,1,.15.4v2.26h3.2a1.1,1.1,0,0,1,.79.31,1.15,1.15,0,0,1,0,1.57,1,1,0,0,1-.79.33h-3.2v8.54c0,.73.18,1.2.53,1.4a2.59,2.59,0,0,0,1.31.3,4,4,0,0,0,1.13-.17l.24-.06a1.55,1.55,0,0,1,.33,0,1,1,0,0,1,.71.3,1,1,0,0,1,.31.72,1.08,1.08,0,0,1-.65,1,5.55,5.55,0,0,1-2.35.51C670.13,164.56,668.75,163.31,668.75,160.83Z"/><path class="cls-3" d="M679.07,164.05a1.26,1.26,0,0,1-.36-.91V144.79a1.28,1.28,0,0,1,.36-.92,1.24,1.24,0,0,1,.91-.38,1.28,1.28,0,0,1,.92.38,1.26,1.26,0,0,1,.38.92v7.38a9.45,9.45,0,0,1,2.32-1.89,5.77,5.77,0,0,1,2.94-.71,4.87,4.87,0,0,1,2.7.73,4.76,4.76,0,0,1,1.75,2,6.35,6.35,0,0,1,.61,2.8v8a1.2,1.2,0,0,1-.38.91,1.29,1.29,0,0,1-.92.37,1.26,1.26,0,0,1-1.27-1.28v-7.75q0-3.45-3.11-3.45a4.47,4.47,0,0,0-2.53.74,9.06,9.06,0,0,0-2.11,2v8.48a1.24,1.24,0,0,1-.38.91,1.31,1.31,0,0,1-.92.37A1.27,1.27,0,0,1,679.07,164.05Z"/><path class="cls-3" d="M696.13,146.49a1.43,1.43,0,0,1-.43-1v-.12a1.39,1.39,0,0,1,.43-1,1.36,1.36,0,0,1,1-.43h.17a1.47,1.47,0,0,1,1.44,1.44v.12a1.45,1.45,0,0,1-1.44,1.44h-.17A1.39,1.39,0,0,1,696.13,146.49Zm.17,17.56a1.23,1.23,0,0,1-.37-.91V151a1.27,1.27,0,0,1,.37-.92,1.2,1.2,0,0,1,.9-.38,1.25,1.25,0,0,1,1.3,1.3v12.13a1.2,1.2,0,0,1-.38.91,1.29,1.29,0,0,1-.92.37A1.23,1.23,0,0,1,696.3,164.05Z"/><path class="cls-3" d="M703.34,164.05a1.27,1.27,0,0,1-.37-.91V151a1.31,1.31,0,0,1,.37-.92,1.24,1.24,0,0,1,.91-.38,1.31,1.31,0,0,1,1.3,1.3v1.16a9.27,9.27,0,0,1,2.32-1.89,5.77,5.77,0,0,1,2.94-.71,4.92,4.92,0,0,1,2.7.73,4.76,4.76,0,0,1,1.75,2,6.35,6.35,0,0,1,.61,2.8v8a1.24,1.24,0,0,1-.38.91,1.31,1.31,0,0,1-.92.37,1.25,1.25,0,0,1-1.27-1.28v-7.75q0-3.45-3.11-3.45a4.53,4.53,0,0,0-2.54.74,9.22,9.22,0,0,0-2.1,2v8.48a1.21,1.21,0,0,1-.39.91,1.29,1.29,0,0,1-.91.37A1.27,1.27,0,0,1,703.34,164.05Z"/><path class="cls-3" d="M723.62,170.64a10.46,10.46,0,0,1-2.74-1,1.06,1.06,0,0,1-.51-1,1.16,1.16,0,0,1,.32-.8,1.06,1.06,0,0,1,.81-.36,1.34,1.34,0,0,1,.51.12,10.37,10.37,0,0,0,4.67,1.07c2.88,0,4.32-1.53,4.32-4.61v-1.89a6.39,6.39,0,0,1-4.83,2.15,6.75,6.75,0,0,1-3.24-.84,6.64,6.64,0,0,1-2.59-2.49,8.47,8.47,0,0,1,0-8.06,6.78,6.78,0,0,1,2.59-2.49,6.85,6.85,0,0,1,3.24-.83,6.39,6.39,0,0,1,4.83,2.15V151a1.27,1.27,0,0,1,.37-.92,1.22,1.22,0,0,1,.9-.38,1.26,1.26,0,0,1,.92.38,1.25,1.25,0,0,1,.39.92v12.64a7.94,7.94,0,0,1-1.73,5.49,6.27,6.27,0,0,1-4.92,1.92A13.53,13.53,0,0,1,723.62,170.64Zm5.43-9.28a8.19,8.19,0,0,0,2-1.52V154a8.51,8.51,0,0,0-2-1.53,4.72,4.72,0,0,0-2.35-.56,4.82,4.82,0,0,0-3.46,1.28,5.8,5.8,0,0,0,0,7.44,4.78,4.78,0,0,0,3.46,1.29A4.73,4.73,0,0,0,729.05,161.36Z"/><path class="cls-3" d="M738.09,157.16a1.06,1.06,0,0,1-.33-.8,1.12,1.12,0,0,1,.33-.82,1,1,0,0,1,.8-.34h5.35a1.11,1.11,0,0,1,.82.34,1.09,1.09,0,0,1,.34.82,1,1,0,0,1-.34.8,1.14,1.14,0,0,1-.82.33h-5.35A1.06,1.06,0,0,1,738.09,157.16Z"/><path class="cls-3" d="M750.64,162.59a7.54,7.54,0,0,1-1.93-5.53,9.22,9.22,0,0,1,.73-3.7,6.26,6.26,0,0,1,2.27-2.74,6.46,6.46,0,0,1,3.76-1.05,6.6,6.6,0,0,1,3.62,1,6.36,6.36,0,0,1,2.32,2.61,8.07,8.07,0,0,1,.79,3.55,1.24,1.24,0,0,1-.36.9,1.22,1.22,0,0,1-.94.37h-9.59a4.62,4.62,0,0,0,1.47,3.08,5,5,0,0,0,3.48,1.11,8.59,8.59,0,0,0,2.08-.23,9,9,0,0,0,1.74-.65,1.07,1.07,0,0,1,.51-.12,1.14,1.14,0,0,1,.79.32,1,1,0,0,1,.34.79,1.22,1.22,0,0,1-.74,1,10,10,0,0,1-2.18.94,10.07,10.07,0,0,1-2.77.31A7.24,7.24,0,0,1,750.64,162.59Zm9-6.71a4.4,4.4,0,0,0-.72-2.32,3.9,3.9,0,0,0-1.57-1.38,4.39,4.39,0,0,0-3.79,0,3.79,3.79,0,0,0-1.55,1.38,4.58,4.58,0,0,0-.71,2.32Z"/><path class="cls-3" d="M766,164.05a1.27,1.27,0,0,1-.37-.91V144.79a1.29,1.29,0,0,1,.37-.92,1.24,1.24,0,0,1,.91-.38,1.26,1.26,0,0,1,1.3,1.3v18.35a1.21,1.21,0,0,1-.39.91,1.29,1.29,0,0,1-.91.37A1.27,1.27,0,0,1,766,164.05Z"/><path class="cls-3" d="M772.15,163.29a1.09,1.09,0,0,1-.48-.94,1.17,1.17,0,0,1,.31-.79,1,1,0,0,1,.8-.34,1.34,1.34,0,0,1,.51.11,10.52,10.52,0,0,0,1.81.63,8.42,8.42,0,0,0,2,.22c2.1,0,3.14-.67,3.14-2a1.08,1.08,0,0,0-.72-1,15.29,15.29,0,0,0-2.36-.76,21.53,21.53,0,0,1-2.76-.82,4.84,4.84,0,0,1-1.87-1.29,3.29,3.29,0,0,1-.77-2.27,4.07,4.07,0,0,1,1.43-3.23,6,6,0,0,1,4.08-1.24,11.59,11.59,0,0,1,4.1.71,1,1,0,0,1,.61.42,1.14,1.14,0,0,1,.21.65,1.12,1.12,0,0,1-.32.79,1.07,1.07,0,0,1-.81.34,2.24,2.24,0,0,1-.37,0,10.76,10.76,0,0,0-3.22-.51,4.38,4.38,0,0,0-2.39.55,1.63,1.63,0,0,0-.86,1.43,1.3,1.3,0,0,0,.79,1.24,11.35,11.35,0,0,0,2.46.76,26.25,26.25,0,0,1,2.72.84A4.45,4.45,0,0,1,782,158a3.46,3.46,0,0,1,.75,2.34,3.74,3.74,0,0,1-1.43,3,6.13,6.13,0,0,1-4,1.19A10.65,10.65,0,0,1,772.15,163.29Z"/><path class="cls-3" d="M787.27,162.59a7.54,7.54,0,0,1-1.94-5.53,9.23,9.23,0,0,1,.74-3.7,6.23,6.23,0,0,1,2.26-2.74,6.48,6.48,0,0,1,3.76-1.05,6.55,6.55,0,0,1,3.62,1,6.29,6.29,0,0,1,2.32,2.61,7.94,7.94,0,0,1,.8,3.55,1.25,1.25,0,0,1-1.31,1.27h-9.58a4.62,4.62,0,0,0,1.47,3.08,5,5,0,0,0,3.48,1.11,7.93,7.93,0,0,0,3.81-.88,1.07,1.07,0,0,1,.51-.12,1.16,1.16,0,0,1,.8.32,1,1,0,0,1,.33.79,1.21,1.21,0,0,1-.73,1,10.18,10.18,0,0,1-2.18.94,10.07,10.07,0,0,1-2.77.31A7.23,7.23,0,0,1,787.27,162.59Zm9-6.71a4.58,4.58,0,0,0-.72-2.32,4,4,0,0,0-1.57-1.38,4.39,4.39,0,0,0-3.79,0,3.88,3.88,0,0,0-1.56,1.38,4.57,4.57,0,0,0-.7,2.32Z"/><rect class="cls-4" y="326.27" width="314.26" height="93.04" rx="12" ry="12"/><path class="cls-1" d="M29.08,384.84a1.79,1.79,0,0,1-.62-.85l-4-11.76a1.45,1.45,0,0,1-.09-.48,1.23,1.23,0,0,1,.37-.91,1.25,1.25,0,0,1,.9-.37,1.32,1.32,0,0,1,.73.21,1.07,1.07,0,0,1,.43.56l3.31,10.89,3.28-10.64a1.46,1.46,0,0,1,2.78,0l3.28,10.64,3.31-10.89a1.07,1.07,0,0,1,.43-.56,1.32,1.32,0,0,1,.73-.21,1.25,1.25,0,0,1,.9.37,1.23,1.23,0,0,1,.37.91,1.45,1.45,0,0,1-.09.48l-4,11.76a1.75,1.75,0,0,1-.63.85,1.69,1.69,0,0,1-2,0,1.9,1.9,0,0,1-.65-.88l-3-9.36-3,9.36a1.9,1.9,0,0,1-.65.88,1.63,1.63,0,0,1-1,.34A1.67,1.67,0,0,1,29.08,384.84Z"/><path class="cls-1" d="M49.07,383.36a7.56,7.56,0,0,1-1.94-5.53,9.24,9.24,0,0,1,.74-3.71,6.29,6.29,0,0,1,2.26-2.74,6.48,6.48,0,0,1,3.76-1.05,6.58,6.58,0,0,1,3.62,1,6.33,6.33,0,0,1,2.32,2.6,8,8,0,0,1,.79,3.55,1.23,1.23,0,0,1-1.3,1.27H49.73a4.62,4.62,0,0,0,1.47,3.08,5,5,0,0,0,3.48,1.11,8.53,8.53,0,0,0,2.08-.23A9,9,0,0,0,58.5,382a1.19,1.19,0,0,1,.51-.11,1.11,1.11,0,0,1,.79.31,1,1,0,0,1,.34.79,1.22,1.22,0,0,1-.73,1.05,10.89,10.89,0,0,1-2.18.93,10.12,10.12,0,0,1-2.77.31A7.21,7.21,0,0,1,49.07,383.36Zm9-6.72a4.52,4.52,0,0,0-.73-2.32A3.85,3.85,0,0,0,55.79,373a4.5,4.5,0,0,0-1.9-.44A4.43,4.43,0,0,0,52,373a3.73,3.73,0,0,0-1.56,1.37,4.61,4.61,0,0,0-.71,2.32Z"/><path class="cls-1" d="M66.59,383.17v.74a1.2,1.2,0,0,1-.38.9,1.27,1.27,0,0,1-.92.37A1.25,1.25,0,0,1,64,383.91V365.55a1.3,1.3,0,0,1,.36-.92,1.29,1.29,0,0,1,2.21.92v6.93a6.52,6.52,0,0,1,4.84-2.15,6.69,6.69,0,0,1,5.86,3.49,8.67,8.67,0,0,1,0,8,6.69,6.69,0,0,1-5.86,3.49A6.48,6.48,0,0,1,66.59,383.17Zm7.83-1.58a6.18,6.18,0,0,0,0-7.53,4.44,4.44,0,0,0-3.36-1.32,5.32,5.32,0,0,0-2.45.58,6.87,6.87,0,0,0-2,1.54v5.94a7,7,0,0,0,2,1.54,5.45,5.45,0,0,0,2.45.58A4.45,4.45,0,0,0,74.42,381.59Z"/><path class="cls-1" d="M82,384.19a1.3,1.3,0,0,1-.54-.41,1.09,1.09,0,0,1-.19-.66,1.19,1.19,0,0,1,.32-.84,1.08,1.08,0,0,1,.81-.35A1.58,1.58,0,0,1,83,382a11.81,11.81,0,0,0,4.49.82,8.63,8.63,0,0,0,3.72-.72,2.49,2.49,0,0,0,1.52-2.42q0-3.56-6.26-3.56H86a1.19,1.19,0,0,1,0-2.38h.17a8.86,8.86,0,0,0,4.33-.86,2.79,2.79,0,0,0,1.5-2.56,2.5,2.5,0,0,0-1.13-2.15,5.82,5.82,0,0,0-3.34-.79,10.27,10.27,0,0,0-4.38.93,1.31,1.31,0,0,1-.51.11,1,1,0,0,1-.74-.29,1,1,0,0,1-.31-.75,1,1,0,0,1,.57-1,11.69,11.69,0,0,1,5.6-1.45,8.34,8.34,0,0,1,5,1.33,4.41,4.41,0,0,1,1.78,3.76,4.49,4.49,0,0,1-1,3.07,5.84,5.84,0,0,1-2.45,1.66A6.16,6.16,0,0,1,94,376.37a4.54,4.54,0,0,1,1.26,3.49,4.61,4.61,0,0,1-2,4,9,9,0,0,1-5.28,1.43A15.58,15.58,0,0,1,82,384.19Z"/><rect class="cls-4" x="329.98" y="326.27" width="314.26" height="93.04" rx="12" ry="12"/><path class="cls-1" d="M356.15,384.81a1.19,1.19,0,0,1-.37-.9V371.77a1.28,1.28,0,0,1,.37-.92,1.22,1.22,0,0,1,.9-.38,1.31,1.31,0,0,1,1.31,1.3V373q2-2.65,4.44-2.66h.14a1.17,1.17,0,0,1,.89.37,1.27,1.27,0,0,1,.35.9,1.13,1.13,0,0,1-.37.88,1.29,1.29,0,0,1-.93.34h-.14a4.74,4.74,0,0,0-2.49.67,5.66,5.66,0,0,0-1.89,1.82v8.6a1.17,1.17,0,0,1-.39.9,1.25,1.25,0,0,1-.92.37A1.21,1.21,0,0,1,356.15,384.81Z"/><path class="cls-1" d="M367.25,383.36a7.56,7.56,0,0,1-1.94-5.53,9.24,9.24,0,0,1,.74-3.71,6.29,6.29,0,0,1,2.26-2.74,6.48,6.48,0,0,1,3.76-1.05,6.55,6.55,0,0,1,3.62,1,6.33,6.33,0,0,1,2.32,2.6,8,8,0,0,1,.79,3.55,1.21,1.21,0,0,1-.35.9,1.23,1.23,0,0,1-.95.37h-9.58a4.62,4.62,0,0,0,1.47,3.08,5,5,0,0,0,3.47,1.11,8,8,0,0,0,3.82-.88,1.19,1.19,0,0,1,.51-.11,1.11,1.11,0,0,1,.79.31,1,1,0,0,1,.34.79,1.22,1.22,0,0,1-.73,1.05,10.66,10.66,0,0,1-2.18.93,10.12,10.12,0,0,1-2.77.31A7.22,7.22,0,0,1,367.25,383.36Zm9-6.72a4.61,4.61,0,0,0-.72-2.32A3.94,3.94,0,0,0,374,373a4.3,4.3,0,0,0-3.79,0,3.85,3.85,0,0,0-1.56,1.37,4.61,4.61,0,0,0-.7,2.32Z"/><path class="cls-1" d="M384.84,384.43a6.76,6.76,0,0,1-2.54-2.6,8.67,8.67,0,0,1,0-8,6.83,6.83,0,0,1,2.54-2.6,6.7,6.7,0,0,1,3.33-.89,6.5,6.5,0,0,1,4.83,2.15v-6.93a1.21,1.21,0,0,1,.39-.93,1.29,1.29,0,0,1,1.82,0,1.31,1.31,0,0,1,.37.92v18.36a1.26,1.26,0,0,1-1.28,1.27,1.25,1.25,0,0,1-.91-.37,1.17,1.17,0,0,1-.39-.9v-.74a6.46,6.46,0,0,1-4.83,2.15A6.7,6.7,0,0,1,384.84,384.43Zm6.14-2.09a7,7,0,0,0,2-1.54v-5.94a6.87,6.87,0,0,0-2-1.54,5.29,5.29,0,0,0-2.45-.58,4.46,4.46,0,0,0-3.36,1.32,6.22,6.22,0,0,0,0,7.53,4.47,4.47,0,0,0,3.36,1.33A5.42,5.42,0,0,0,391,382.34Z"/><path class="cls-1" d="M402.27,384.59a4.78,4.78,0,0,1-1.76-2,6.49,6.49,0,0,1-.61-2.8v-8a1.21,1.21,0,0,1,.39-.91,1.29,1.29,0,0,1,.92-.37,1.26,1.26,0,0,1,.9.37,1.23,1.23,0,0,1,.37.91v7.75c0,2.3,1,3.45,3.11,3.45a4.5,4.5,0,0,0,2.53-.74,9.06,9.06,0,0,0,2.11-2v-8.48a1.24,1.24,0,0,1,.38-.91,1.29,1.29,0,0,1,.92-.37,1.26,1.26,0,0,1,1.27,1.28v12.13a1.27,1.27,0,0,1-.37.92,1.2,1.2,0,0,1-.9.38,1.26,1.26,0,0,1-.92-.38,1.28,1.28,0,0,1-.38-.92v-1.16a9.45,9.45,0,0,1-2.32,1.89,5.77,5.77,0,0,1-2.94.71A4.87,4.87,0,0,1,402.27,384.59Z"/><path class="cls-1" d="M416.44,384.83a1.34,1.34,0,0,1-.33-.95,1.31,1.31,0,0,1,.28-.79l4.39-5.18-4.39-5.34a1.38,1.38,0,0,1-.31-.82,1.23,1.23,0,0,1,.37-.92,1.26,1.26,0,0,1,.91-.36,1.15,1.15,0,0,1,1,.48l4,4.9,3.93-4.9a1.15,1.15,0,0,1,1-.48,1.29,1.29,0,0,1,.93.36,1.16,1.16,0,0,1,.37.86,1.26,1.26,0,0,1-.29.79l-4.47,5.26,4.42,5.32a1.21,1.21,0,0,1,.31.82,1.38,1.38,0,0,1-.34.92,1.24,1.24,0,0,1-1,.38,1.15,1.15,0,0,1-1-.51l-4-4.81-3.79,4.75a1.31,1.31,0,0,1-1.1.57A1.15,1.15,0,0,1,416.44,384.83Z"/><rect class="cls-4" x="659.96" y="326.27" width="314.26" height="93.04" rx="12" ry="12"/><path class="cls-1" d="M686.13,381.56a1.21,1.21,0,0,1-.37-.91V368.52a1.27,1.27,0,0,1,.37-.92,1.2,1.2,0,0,1,.9-.38,1.26,1.26,0,0,1,.92.38,1.24,1.24,0,0,1,.38.92v1.22c1.32-1.78,2.8-2.66,4.44-2.66h.15a1.19,1.19,0,0,1,.89.37,1.25,1.25,0,0,1,.35.9,1.13,1.13,0,0,1-.37.88,1.33,1.33,0,0,1-.93.34h-.14a4.83,4.83,0,0,0-2.49.66,5.72,5.72,0,0,0-1.9,1.83v8.59a1.19,1.19,0,0,1-.38.91,1.29,1.29,0,0,1-.92.37A1.23,1.23,0,0,1,686.13,381.56Z"/><path class="cls-1" d="M697.23,380.1a7.54,7.54,0,0,1-1.94-5.53,9.23,9.23,0,0,1,.74-3.7,6.23,6.23,0,0,1,2.26-2.74,6.48,6.48,0,0,1,3.76-1.05,6.57,6.57,0,0,1,3.62,1,6.36,6.36,0,0,1,2.32,2.61,7.93,7.93,0,0,1,.79,3.55,1.27,1.27,0,0,1-.35.9,1.24,1.24,0,0,1-.95.37h-9.59a4.62,4.62,0,0,0,1.47,3.08,5,5,0,0,0,3.48,1.11,8,8,0,0,0,3.82-.88,1.07,1.07,0,0,1,.51-.12,1.12,1.12,0,0,1,.79.32,1,1,0,0,1,.34.79,1.21,1.21,0,0,1-.73,1,8.76,8.76,0,0,1-5,1.25A7.23,7.23,0,0,1,697.23,380.1Zm9-6.71a4.58,4.58,0,0,0-.72-2.32,4,4,0,0,0-1.57-1.38,4.49,4.49,0,0,0-1.9-.43,4.41,4.41,0,0,0-1.89.43,3.81,3.81,0,0,0-1.56,1.38,4.68,4.68,0,0,0-.71,2.32Z"/><path class="cls-1" d="M714.82,381.18a6.83,6.83,0,0,1-2.54-2.6,8.67,8.67,0,0,1,0-8,6.69,6.69,0,0,1,5.86-3.49,6.52,6.52,0,0,1,4.84,2.15V362.3a1.24,1.24,0,0,1,.38-.93,1.27,1.27,0,0,1,.92-.37,1.24,1.24,0,0,1,.91.38,1.29,1.29,0,0,1,.37.92v18.35a1.25,1.25,0,0,1-.37.91,1.27,1.27,0,0,1-.91.37,1.31,1.31,0,0,1-.92-.37,1.22,1.22,0,0,1-.38-.91v-.73a6.52,6.52,0,0,1-4.84,2.15A6.69,6.69,0,0,1,714.82,381.18Zm6.14-2.09a7.08,7.08,0,0,0,2-1.55V371.6a7,7,0,0,0-2-1.54,5.42,5.42,0,0,0-2.45-.58,4.47,4.47,0,0,0-3.36,1.33,6.18,6.18,0,0,0,0,7.53,4.47,4.47,0,0,0,3.36,1.33A5.42,5.42,0,0,0,721,379.09Z"/><path class="cls-1" d="M732.24,381.33a4.86,4.86,0,0,1-1.75-2,6.52,6.52,0,0,1-.61-2.8v-8a1.2,1.2,0,0,1,.38-.9,1.28,1.28,0,0,1,.92-.37,1.26,1.26,0,0,1,1.28,1.27v7.75c0,2.3,1,3.45,3.11,3.45a4.51,4.51,0,0,0,2.53-.73,9.26,9.26,0,0,0,2.11-2v-8.49a1.17,1.17,0,0,1,.38-.9,1.25,1.25,0,0,1,.92-.37,1.26,1.26,0,0,1,1.27,1.27v12.14a1.28,1.28,0,0,1-.37.92,1.2,1.2,0,0,1-.9.38,1.3,1.3,0,0,1-1.3-1.3v-1.16a9.45,9.45,0,0,1-2.32,1.89,5.87,5.87,0,0,1-2.94.71A4.93,4.93,0,0,1,732.24,381.33Z"/><path class="cls-1" d="M746.41,381.57a1.35,1.35,0,0,1-.32-.94,1.28,1.28,0,0,1,.28-.8l4.39-5.17-4.39-5.35a1.27,1.27,0,0,1-.31-.82,1.22,1.22,0,0,1,.37-.92,1.27,1.27,0,0,1,.9-.35,1.15,1.15,0,0,1,1,.48l4,4.89,3.93-4.89a1.15,1.15,0,0,1,1-.48,1.33,1.33,0,0,1,.94.35,1.19,1.19,0,0,1,.36.87,1.27,1.27,0,0,1-.28.79l-4.47,5.26,4.41,5.32a1.16,1.16,0,0,1,.32.82,1.39,1.39,0,0,1-.34.92,1.24,1.24,0,0,1-1,.38,1.15,1.15,0,0,1-1-.51l-4-4.81-3.79,4.75a1.31,1.31,0,0,1-1.1.57A1.16,1.16,0,0,1,746.41,381.57Z"/><path class="cls-1" d="M761.57,374.67a1.09,1.09,0,0,1-.32-.8,1.16,1.16,0,0,1,.32-.82,1.07,1.07,0,0,1,.81-.34h5.35a1.11,1.11,0,0,1,.82.34,1.13,1.13,0,0,1,.34.82,1.07,1.07,0,0,1-.34.8,1.14,1.14,0,0,1-.82.33h-5.35A1.1,1.1,0,0,1,761.57,374.67Z"/><path class="cls-1" d="M772.59,380.8a1.09,1.09,0,0,1-.48-.94,1.13,1.13,0,0,1,.31-.79,1,1,0,0,1,.79-.34,1.34,1.34,0,0,1,.51.11,11.14,11.14,0,0,0,1.81.63,8.5,8.5,0,0,0,2,.22c2.09,0,3.14-.67,3.14-2a1.08,1.08,0,0,0-.72-1,15.29,15.29,0,0,0-2.36-.76,20.59,20.59,0,0,1-2.76-.82,4.77,4.77,0,0,1-1.87-1.29,3.24,3.24,0,0,1-.78-2.27,4.1,4.1,0,0,1,1.43-3.23,6,6,0,0,1,4.09-1.24,11.59,11.59,0,0,1,4.1.71,1,1,0,0,1,.61.42,1.14,1.14,0,0,1,.21.65,1.12,1.12,0,0,1-.32.79,1.07,1.07,0,0,1-.81.34,2,2,0,0,1-.37-.05,10.81,10.81,0,0,0-3.22-.51,4.38,4.38,0,0,0-2.39.55,1.64,1.64,0,0,0-.87,1.43,1.31,1.31,0,0,0,.8,1.24,11,11,0,0,0,2.46.76,26,26,0,0,1,2.71.84,4.41,4.41,0,0,1,1.8,1.29,3.46,3.46,0,0,1,.75,2.34,3.74,3.74,0,0,1-1.43,3,6.15,6.15,0,0,1-4,1.19A10.62,10.62,0,0,1,772.59,380.8Z"/><path class="cls-1" d="M788,381.56a4,4,0,0,1-1.68-1.48,4.09,4.09,0,0,1-.62-2.25,4,4,0,0,1,1.65-3.34,8,8,0,0,1,4.85-1.25h3.42V373a3.42,3.42,0,0,0-.92-2.69,4.2,4.2,0,0,0-2.87-.82,9.89,9.89,0,0,0-1.91.17,15.09,15.09,0,0,0-1.85.51,1.48,1.48,0,0,1-.37.06,1,1,0,0,1-.73-.31,1,1,0,0,1-.31-.77,1.07,1.07,0,0,1,.73-1.07,12.43,12.43,0,0,1,4.89-1,6.37,6.37,0,0,1,3.3.79,4.93,4.93,0,0,1,2,2.05,6,6,0,0,1,.64,2.73v8a1.2,1.2,0,0,1-.39.91,1.29,1.29,0,0,1-.91.37,1.27,1.27,0,0,1-.91-.37,1.21,1.21,0,0,1-.37-.91v-.73a7.11,7.11,0,0,1-5.32,2.15A5.27,5.27,0,0,1,788,381.56Zm5.67-2.36a6.88,6.88,0,0,0,1.95-1.51v-2.38h-3.08q-4.27,0-4.27,2.23a2.09,2.09,0,0,0,.69,1.64,3.4,3.4,0,0,0,2.31.63A5.15,5.15,0,0,0,793.69,379.2Z"/><path class="cls-1" d="M806,388.15a10.54,10.54,0,0,1-2.75-1,1.06,1.06,0,0,1-.51-1,1.13,1.13,0,0,1,.33-.8,1,1,0,0,1,.8-.36,1.26,1.26,0,0,1,.51.12,10.4,10.4,0,0,0,4.67,1.07c2.89,0,4.33-1.53,4.33-4.61v-1.89a6.4,6.4,0,0,1-4.84,2.15,6.81,6.81,0,0,1-3.24-.84,6.71,6.71,0,0,1-2.59-2.49,8.55,8.55,0,0,1,0-8.06,6.81,6.81,0,0,1,5.83-3.32,6.4,6.4,0,0,1,4.84,2.15v-.71a1.27,1.27,0,0,1,.37-.92,1.2,1.2,0,0,1,.9-.38,1.26,1.26,0,0,1,.92.38,1.28,1.28,0,0,1,.38.92v12.64a7.94,7.94,0,0,1-1.72,5.49,6.28,6.28,0,0,1-4.93,1.92A13.45,13.45,0,0,1,806,388.15Zm5.43-9.28a8.19,8.19,0,0,0,2-1.52v-5.83a8.51,8.51,0,0,0-2-1.53,4.75,4.75,0,0,0-2.35-.56,4.84,4.84,0,0,0-3.47,1.28,5.83,5.83,0,0,0,0,7.44,4.81,4.81,0,0,0,3.47,1.29A4.75,4.75,0,0,0,811.4,378.87Z"/><path class="cls-1" d="M821.76,381.56a4,4,0,0,1-1.68-1.48,4.09,4.09,0,0,1-.62-2.25,4,4,0,0,1,1.65-3.34,8,8,0,0,1,4.85-1.25h3.42V373a3.45,3.45,0,0,0-.91-2.69,4.23,4.23,0,0,0-2.88-.82,10,10,0,0,0-1.91.17,15.09,15.09,0,0,0-1.85.51,1.48,1.48,0,0,1-.36.06,1,1,0,0,1-.74-.31,1,1,0,0,1-.31-.77,1.07,1.07,0,0,1,.73-1.07,12.48,12.48,0,0,1,4.9-1,6.34,6.34,0,0,1,3.29.79,4.93,4.93,0,0,1,2,2.05,5.9,5.9,0,0,1,.64,2.73v8a1.22,1.22,0,0,1-.38.91,1.33,1.33,0,0,1-.92.37,1.27,1.27,0,0,1-.91-.37,1.25,1.25,0,0,1-.37-.91v-.73a7.09,7.09,0,0,1-5.31,2.15A5.28,5.28,0,0,1,821.76,381.56Zm5.67-2.36a6.61,6.61,0,0,0,2-1.51v-2.38H826.3q-4.27,0-4.27,2.23a2.09,2.09,0,0,0,.69,1.64,3.41,3.41,0,0,0,2.31.63A5.15,5.15,0,0,0,827.43,379.2Z"/></g></g></svg>