<svg xmlns="http://www.w3.org/2000/svg" viewBox="0 0 181.87 181.87"><defs><style>.cls-1{fill:none;stroke:#e911bd;stroke-miterlimit:10;stroke-width:2px;}.cls-2{fill:#e911bd;}</style></defs><title>drizzle-feature-2-icon</title><g id="Layer_2" data-name="Layer 2"><g id="Layer_2-2" data-name="Layer 2"><circle class="cls-1" cx="90.93" cy="90.93" r="89.93"/><path class="cls-2" d="M81.38,73.94a3.83,3.83,0,0,0-1.6,2.18,3,3,0,0,0-.1.79c0,3.24,0,6.48,0,9.71a5.72,5.72,0,0,1-.54,2.61,2.32,2.32,0,0,1-2.94,1.32,8.69,8.69,0,0,1-3.89-2.43,8.8,8.8,0,0,1-1.14-1.44c-.06-.08-.08-.17-.23-.12a3.16,3.16,0,0,1-2.32-.21,9.76,9.76,0,0,1-5.37-5.68,11.56,11.56,0,0,1-.8-4.4c0-3.09,0-6.19,0-9.29A3.51,3.51,0,0,1,64,64.09a.21.21,0,0,1,.26,0L67.63,66a4.57,4.57,0,0,0-1.07,1,3.26,3.26,0,0,0-.65,2c0,3.29,0,6.58,0,9.86a3.38,3.38,0,0,0,1.79,3.08,1.85,1.85,0,0,0,.44.18.78.78,0,0,0,1.06-.56,2.22,2.22,0,0,0,.13-.81c0-3.19,0-6.38,0-9.58a3.6,3.6,0,0,1,1.5-3,.35.35,0,0,1,.45,0c1,.59,2,1.16,3,1.73.18.1.24.15,0,.31a3.57,3.57,0,0,0-1.52,3c0,3.18,0,6.36,0,9.55a3.46,3.46,0,0,0,1.87,3.23,1.82,1.82,0,0,0,.51.18.75.75,0,0,0,.83-.39,1.88,1.88,0,0,0,.22-.93c0-3.24,0-6.48,0-9.72a3.58,3.58,0,0,1,1.46-2.93.93.93,0,0,1,.36-.21.43.43,0,0,0,.21.21Z"/><path class="cls-2" d="M81.38,73.94l-3.14-1.81a.43.43,0,0,1-.21-.21c.64-.43,1.33-.79,2-1.18,1.54-.9,3.09-1.78,4.63-2.67a10.67,10.67,0,0,1,3.79-1.26,10.16,10.16,0,0,1,5.32.54,9.42,9.42,0,0,1,3.63,2.4.79.79,0,0,1,.14.18c.16.45.54.51.94.61a11.72,11.72,0,0,1,5.63,3,2.82,2.82,0,0,1,.58.83,1.88,1.88,0,0,1-.71,2.41,22.94,22.94,0,0,1-2.19,1.3l-6.42,3.71a.76.76,0,0,1-.31.13c0-.07-.06-.09-.11-.12l-3-1.74c-.08-.05-.17-.08-.18-.19L98.6,75.9a.18.18,0,0,0,.07-.05c.89-.6.88-1.32,0-1.86a3.37,3.37,0,0,0-3.53,0c-2.2,1.23-4.37,2.5-6.55,3.77a.48.48,0,0,1-.56,0c-1-.62-2.09-1.21-3.18-1.85l.79-.47,6-3.46a2.09,2.09,0,0,0,.61-.5.8.8,0,0,0-.11-1.22,3.08,3.08,0,0,0-1.81-.72,4.63,4.63,0,0,0-2.81.87c-1.95,1.14-3.92,2.27-5.88,3.4Z"/><path class="cls-2" d="M96.86,100.75V99c0-.11,0-.26.17-.13.92.55,1.85,1.08,2.78,1.62,1.3.74,2.6,1.5,3.9,2.23a1.44,1.44,0,0,0,1.1.26.73.73,0,0,0,.55-.55,2.88,2.88,0,0,0-.23-2.08,3.93,3.93,0,0,0-1.79-1.79,12.6,12.6,0,0,1-3-2.06,12.19,12.19,0,0,1-2.17-2.73A9.6,9.6,0,0,1,97,90.52a7.2,7.2,0,0,1,.25-4,2.23,2.23,0,0,1,2-1.4,5.89,5.89,0,0,1,3.21,1l4.68,2.7,1.64.94a.24.24,0,0,1,.13.25v3.57c0,.19,0,.24-.22.13l-5.12-3L102,89.84a2.45,2.45,0,0,0-.78-.25.8.8,0,0,0-.89.69,3.29,3.29,0,0,0,.67,2.6,5.29,5.29,0,0,0,1.8,1.38c.9.53,1.83,1,2.71,1.57a6.18,6.18,0,0,1,1.89,2,9.67,9.67,0,0,1,1.34,3.86,9.2,9.2,0,0,1-.09,3.84,2.27,2.27,0,0,1-2.53,1.88,6,6,0,0,1-2.75-.93c-1.55-.91-3.12-1.8-4.68-2.7l-1.68-1a.32.32,0,0,1-.19-.34Z"/><path class="cls-2" d="M91.76,79.85c0,.11.1.14.18.19l3,1.74s.1,0,.11.12c-.13.23-.38.33-.55.52a3.43,3.43,0,0,0-1.07,2.3c0,.37,0,.74,0,1.1,0,3.14,0,6.27,0,9.41a4,4,0,0,1-.94,2.64,2.23,2.23,0,0,1-2.24.68A7.4,7.4,0,0,1,87,96.88a9.92,9.92,0,0,1-3.1-4.34,11.61,11.61,0,0,1-.73-3.09c0-.14,0-.28,0-.42s0-.21.19-.12l1.8,1c.42.24.83.49,1.25.72a.41.41,0,0,1,.24.35,3.71,3.71,0,0,0,.78,2,3,3,0,0,0,1.3,1,.89.89,0,0,0,1.29-.87c0-.36,0-.73,0-1.1V82.87a3.33,3.33,0,0,1,1.32-2.69C91.45,80.06,91.61,80,91.76,79.85Z"/><path class="cls-2" d="M86.54,84.86c0,.6,0,1.19,0,1.79,0,.17,0,.23-.21.13L83.26,85a.31.31,0,0,1-.18-.31c0-1.17,0-2.33,0-3.49,0-.17,0-.3.22-.17L86.4,82.8a.28.28,0,0,1,.14.31Z"/><path class="cls-1" d="M90.93,148.6c0-28.84,57-41.66,57-71.84A33.49,33.49,0,0,0,90.93,53a33.48,33.48,0,0,0-57,23.81C33.89,106.94,90.93,119.76,90.93,148.6Z"/></g></g></svg>