<svg xmlns="http://www.w3.org/2000/svg" viewBox="0 0 181.87 181.87"><defs><style>.cls-1,.cls-4{fill:none;stroke:#e911bd;stroke-miterlimit:10;stroke-width:2px;}.cls-2{opacity:0.5;}.cls-3{fill:#e911bd;}.cls-4{fill-rule:evenodd;}.cls-5{opacity:0.25;}.cls-6{opacity:0.13;}.cls-7{opacity:0.06;}</style></defs><title>drizzle-feature-1-icon</title><g id="Layer_2" data-name="Layer 2"><g id="Layer_2-2" data-name="Layer 2"><circle class="cls-1" cx="90.93" cy="90.93" r="89.93"/><g class="cls-2"><path class="cls-3" d="M140.94,40.92l-9.41,37.87L108.88,73,103,50.34l37.9-9.42m2.75-2.74L100.6,48.89l6.64,25.74L133,81.22l10.7-43Z"/><path class="cls-3" d="M97.91,61.58l4.3,16.64.3,1.14,1.14.29L120.27,84l-26.9,4.54,4.54-26.91M97.49,52,90.93,90.93l38.92-6.57-25.7-6.64L97.49,52Z"/><polyline class="cls-4" points="102.2 49.45 124.19 57.68 132.4 79.65"/><line class="cls-1" x1="142.11" y1="39.74" x2="108.3" y2="73.57"/><line class="cls-1" x1="104.13" y1="77.75" x2="92.12" y2="89.76"/></g><g class="cls-5"><path class="cls-3" d="M128.2,70.81l33.46,20.13-33.43,20.12L116.32,90.94,128.2,70.81m-.7-2.76L114,90.94l13.55,22.88,38-22.88-38-22.89Z"/><path class="cls-3" d="M116.62,75.12,107.9,89.93l-.6,1,.6,1,8.72,14.79L94.38,90.94l22.24-15.82m6.48-7.07L90.93,90.94l32.17,22.88L109.62,90.94,123.1,68.05Z"/><polyline class="cls-4" points="128.23 69.58 137.96 90.94 128.23 112.29"/><line class="cls-1" x1="163.32" y1="90.93" x2="115.57" y2="90.94"/><line class="cls-1" x1="109.59" y1="90.95" x2="92.6" y2="90.95"/></g><g class="cls-2"><path class="cls-3" d="M40.92,40.92l37.9,9.42L73,73,50.33,78.79,40.92,40.92m-2.74-2.74,10.7,43,25.75-6.59,6.63-25.74L38.18,38.18Z"/><path class="cls-3" d="M84,61.58l4.53,26.91L61.59,84l16.63-4.3,1.14-.29.29-1.14L84,61.58M84.37,52,77.72,77.72,52,84.36l38.92,6.57L84.37,52Z"/><polyline class="cls-4" points="79.66 49.45 57.68 57.68 49.47 79.65"/><line class="cls-1" x1="39.76" y1="39.74" x2="73.64" y2="73.65"/><line class="cls-1" x1="77.74" y1="77.75" x2="89.75" y2="89.76"/></g><g class="cls-5"><path class="cls-3" d="M53.67,70.81,65.55,90.94,53.63,111.06,20.21,90.94,53.67,70.81m.69-2.76-38,22.89,38,22.88L67.87,90.94,54.36,68.05Z"/><path class="cls-3" d="M65.24,75.12,87.48,90.94,65.25,106.75,74,92l.6-1-.6-1L65.24,75.12m-6.48-7.07L72.24,90.94,58.76,113.82,90.93,90.94,58.76,68.05Z"/><polyline class="cls-4" points="53.63 69.58 43.91 90.94 53.63 112.29"/><line class="cls-1" x1="18.55" y1="90.93" x2="66.41" y2="90.94"/><line class="cls-1" x1="72.28" y1="90.95" x2="89.27" y2="90.95"/></g><path class="cls-3" d="M90.92,20.21,111,53.63,90.92,65.55,70.79,53.67,90.92,20.21m0-3.88L68,54.36,90.92,67.87l22.87-13.54-22.87-38Z"/><path class="cls-3" d="M75.1,65.25,89.91,74l1,.59,1-.59,14.79-8.72L90.92,87.48,75.1,65.25m38.69-6.49L90.92,72.24,68,58.76,90.92,90.93l22.87-32.17Z"/><polyline class="cls-4" points="69.56 53.63 90.92 43.91 112.27 53.63"/><line class="cls-1" x1="90.91" y1="18.55" x2="90.92" y2="66.27"/><line class="cls-1" x1="90.93" y1="72.28" x2="90.93" y2="89.27"/><g class="cls-6"><path class="cls-3" d="M50.33,103.08,73,108.88l5.84,22.64-37.9,9.42,9.41-37.86m-1.45-2.44-10.7,43L81.26,133l-6.63-25.74-25.75-6.6Z"/><path class="cls-3" d="M88.49,93.37,84,120.28l-4.31-16.63-.29-1.14-1.14-.3L61.59,97.92l26.9-4.55m2.44-2.44L52,97.51l25.71,6.64,6.65,25.72,6.56-38.94Z"/><polyline class="cls-4" points="79.66 132.41 57.68 124.18 49.47 102.22"/><line class="cls-1" x1="39.76" y1="142.12" x2="73.64" y2="108.22"/><line class="cls-1" x1="77.74" y1="104.11" x2="89.75" y2="92.1"/></g><g class="cls-6"><path class="cls-3" d="M131.53,103.08l9.41,37.86L103,131.52l5.84-22.64,22.65-5.8m1.46-2.44-25.75,6.6L100.6,133l43.09,10.7-10.7-43Z"/><path class="cls-3" d="M93.37,93.37l26.9,4.55-16.62,4.29-1.14.3-.3,1.14-4.3,16.63L93.37,93.37m-2.44-2.44,6.56,38.94,6.66-25.72,25.7-6.64L90.93,90.93Z"/><polyline class="cls-4" points="102.2 132.41 124.19 124.18 132.4 102.22"/><line class="cls-1" x1="142.11" y1="142.12" x2="108.22" y2="108.22"/><line class="cls-1" x1="104.13" y1="104.11" x2="92.12" y2="92.1"/></g><g class="cls-7"><path class="cls-3" d="M90.94,116.31l20.14,11.89L90.94,161.66,70.82,128.23l20.12-11.92m0-2.32L68.07,127.54l22.87,38,22.89-38L90.94,114Z"/><path class="cls-3" d="M90.94,94.38l15.83,22.24L92,107.9l-1-.6-1,.6-14.79,8.72,15.8-22.24m0-3.45L68.07,123.1l22.87-13.48,22.89,13.48L90.94,90.93Z"/><polyline class="cls-4" points="112.3 128.23 90.94 137.96 69.6 128.23"/><line class="cls-1" x1="90.95" y1="163.32" x2="90.94" y2="115.54"/><line class="cls-1" x1="90.93" y1="109.58" x2="90.93" y2="92.6"/></g></g></g></svg>