<svg xmlns="http://www.w3.org/2000/svg" viewBox="0 0 336.05 114.27"><defs><style>.cls-1{fill:#5e464d;}.cls-2{fill:#e4a663;}.cls-3{fill:#fff;}</style></defs><title>ganache-logo-h-dark</title><g id="Layer_2" data-name="Layer 2"><g id="Layer_8" data-name="Layer 8"><path class="cls-1" d="M164.18,70a19,19,0,0,1-5.35,5,12.23,12.23,0,0,1-6.43,1.77,12.67,12.67,0,0,1-6.28-1.53,13.36,13.36,0,0,1-4.63-4.36,21.46,21.46,0,0,1-2.87-6.79,37.15,37.15,0,0,1-1-8.84,33.4,33.4,0,0,1,.78-7.06,35.78,35.78,0,0,1,2.29-7,36.42,36.42,0,0,1,3.66-6.42,27.08,27.08,0,0,1,4.9-5.27,23.1,23.1,0,0,1,6.06-3.56,19,19,0,0,1,7.1-1.32,12.2,12.2,0,0,1,3.83.59,8.75,8.75,0,0,1,3.07,1.71,8,8,0,0,1,2,2.7,8.28,8.28,0,0,1,.75,3.58,9.72,9.72,0,0,1-.71,3.65,13.75,13.75,0,0,1-1.91,3.31A16.77,16.77,0,0,1,166.67,43a21.05,21.05,0,0,1-3.34,2.22,18,18,0,0,1-3.57,1.43,13,13,0,0,1-3.5.51,3.66,3.66,0,0,1-2.36-.8,3,3,0,0,1-1-2.51c0-.25,0-.52.05-.82a6.08,6.08,0,0,1,.17-.81,2.75,2.75,0,0,1,.26-.62.42.42,0,0,1,.37-.25.69.69,0,0,1,.36.11,2.48,2.48,0,0,0,.44.24,5.34,5.34,0,0,0,.76.24,5.89,5.89,0,0,0,1.34.12,8,8,0,0,0,3.11-.71,12.5,12.5,0,0,0,3.06-1.9,10.9,10.9,0,0,0,2.35-2.72,6.15,6.15,0,0,0,.92-3.19,3.79,3.79,0,0,0-.24-1.28,3.57,3.57,0,0,0-.78-1.26,4.37,4.37,0,0,0-1.43-1,5.47,5.47,0,0,0-2.19-.39,10.67,10.67,0,0,0-4.61,1.05,15.51,15.51,0,0,0-4.16,2.89,24.32,24.32,0,0,0-3.56,4.31,30.56,30.56,0,0,0-2.76,5.3,33.76,33.76,0,0,0-1.79,5.92,30.26,30.26,0,0,0-.63,6.08,32,32,0,0,0,.65,6.74,18.69,18.69,0,0,0,1.8,5.09,9.6,9.6,0,0,0,2.73,3.23,5.78,5.78,0,0,0,3.41,1.13,8.59,8.59,0,0,0,3.56-.73,10.5,10.5,0,0,0,2.94-1.94,13.31,13.31,0,0,0,2.27-2.81,21.6,21.6,0,0,0,1.62-3.27,20.68,20.68,0,0,0,1-3.37,16,16,0,0,0,.33-3.09,11.4,11.4,0,0,0-.07-1.23,10.36,10.36,0,0,1-.07-1.07,1.22,1.22,0,0,1,.2-.77,1.3,1.3,0,0,1,.54-.41,2.49,2.49,0,0,1,.78-.17q.45,0,.93,0a4.34,4.34,0,0,1,1.19.2,6.06,6.06,0,0,1,1.28.56,3.92,3.92,0,0,1,1,.83,1.49,1.49,0,0,1,.43,1c-.2,1.87-.32,3.65-.37,5.33s-.08,3.38-.08,5.12,0,3.31,0,5.06,0,3.7,0,5.82a19.88,19.88,0,0,1,2.1-.24l2-.13c.89,0,1.47.2,1.73.75a2.67,2.67,0,0,1,.11,1.88A4.78,4.78,0,0,1,175,80.61a2.45,2.45,0,0,1-1.78.91q-.85,0-1.62,0l-1.58.1c-.07,1.31-.19,2.63-.33,4a27,27,0,0,1-.73,3.87,19.25,19.25,0,0,1-1.3,3.51,10.91,10.91,0,0,1-2,2.86,8.67,8.67,0,0,1-2.86,1.92,9.85,9.85,0,0,1-3.91.71,9.65,9.65,0,0,1-3.51-.62,7.88,7.88,0,0,1-2.69-1.73A7.28,7.28,0,0,1,151,93.55a8.57,8.57,0,0,1-.6-3.24,9.21,9.21,0,0,1,1.19-4.69A12.72,12.72,0,0,1,154.68,82a19.31,19.31,0,0,1,4.48-2.64,41.74,41.74,0,0,1,5.17-1.82v-.68c0-1.49,0-2.8-.08-4S164.18,70.8,164.18,70ZM159,93.14a3.1,3.1,0,0,0,2.18-.84,6.21,6.21,0,0,0,1.5-2.3,16,16,0,0,0,.93-3.33,36.19,36.19,0,0,0,.49-4,14,14,0,0,0-5.82,3,6,6,0,0,0-2,4.49,2.6,2.6,0,0,0,2.75,3Z"/><path class="cls-1" d="M198.3,71.35a2.87,2.87,0,0,0,2-.75,6.81,6.81,0,0,0,1.45-1.85,12.45,12.45,0,0,0,1-2.42c.26-.87.47-1.68.65-2.45a3.11,3.11,0,0,1,.76-1.57,1.52,1.52,0,0,1,1.1-.49,1.9,1.9,0,0,1,.91.25,3.59,3.59,0,0,1,1.48,1.57,2.39,2.39,0,0,1,.25,1v.17a1.11,1.11,0,0,1-.08.3,26.84,26.84,0,0,1-1.32,3.62,15.15,15.15,0,0,1-2.14,3.48,11,11,0,0,1-3.14,2.63,8.47,8.47,0,0,1-4.29,1,7.46,7.46,0,0,1-3.5-.78,6.18,6.18,0,0,1-2.34-2.06,10.44,10.44,0,0,1-2.77,2,8.15,8.15,0,0,1-3.77.83,9,9,0,0,1-3.92-.81,8.08,8.08,0,0,1-2.84-2.22,9.25,9.25,0,0,1-1.73-3.31,13.92,13.92,0,0,1-.58-4.1A18.9,18.9,0,0,1,177,57.7a18,18,0,0,1,4.05-5.87,17.69,17.69,0,0,1,5.78-3.7,18.3,18.3,0,0,1,6.74-1.28,3.88,3.88,0,0,1,2.53.78,2.54,2.54,0,0,1,1,2.12,2.62,2.62,0,0,1-.21,1.24.8.8,0,0,1-.76.35,8.15,8.15,0,0,1-1.08-.07,10.65,10.65,0,0,0-1.15-.06,11.93,11.93,0,0,0-4.38.86,11.69,11.69,0,0,0-4,2.63,13.75,13.75,0,0,0-3,4.5,16.48,16.48,0,0,0-1.16,6.47,6.7,6.7,0,0,0,1.16,4.21,3.78,3.78,0,0,0,3.16,1.47,3.5,3.5,0,0,0,2.6-1.07,8.41,8.41,0,0,0,1.67-2.51V57.09a6.58,6.58,0,0,0-.05-.85q-.06-.33-.12-.57t-.09-.42a2.47,2.47,0,0,1,0-.36,1,1,0,0,1,.58-.86,2.75,2.75,0,0,1,1.39-.32,4.74,4.74,0,0,1,3,.89,2.7,2.7,0,0,1,1.11,2.15V68.17a4.33,4.33,0,0,0,.15,1.13,3.75,3.75,0,0,0,.44,1,2.3,2.3,0,0,0,2,1Z"/><path class="cls-1" d="M203.73,50.94a4.07,4.07,0,0,0-.17-1.42,2.32,2.32,0,0,1-.16-.81,1,1,0,0,1,.59-.83,2.88,2.88,0,0,1,1.41-.32,4.64,4.64,0,0,1,3,.89,2.7,2.7,0,0,1,1.09,2.15v3.11A24.9,24.9,0,0,1,211.18,51a13.89,13.89,0,0,1,2-2.18,9.09,9.09,0,0,1,2.27-1.45,6.52,6.52,0,0,1,2.62-.52,6.7,6.7,0,0,1,3.13.64,5.33,5.33,0,0,1,1.93,1.66,6.2,6.2,0,0,1,1,2.26,10.86,10.86,0,0,1,.28,2.43V68.17c0,.16,0,.41,0,.76a4.16,4.16,0,0,0,.22,1.07,2.61,2.61,0,0,0,.58.94,1.5,1.5,0,0,0,1.13.41,2.88,2.88,0,0,0,2-.75,6.81,6.81,0,0,0,1.45-1.85,13.1,13.1,0,0,0,1-2.42c.25-.87.47-1.68.65-2.45a2.82,2.82,0,0,1,.74-1.57,1.55,1.55,0,0,1,1.08-.49,2,2,0,0,1,.93.25,3.45,3.45,0,0,1,.87.66,3.53,3.53,0,0,1,.63.91,2.38,2.38,0,0,1,.24,1v.17a1,1,0,0,1-.07.3,26.84,26.84,0,0,1-1.32,3.62,14.89,14.89,0,0,1-2.16,3.48,11.41,11.41,0,0,1-3.14,2.63,8.4,8.4,0,0,1-4.27,1,6.7,6.7,0,0,1-2.7-.52,6.28,6.28,0,0,1-2-1.41A5.78,5.78,0,0,1,219,71.92a7.42,7.42,0,0,1-.43-2.5V55.36c0-.54,0-1,0-1.52a5.52,5.52,0,0,0-.21-1.25,2,2,0,0,0-.48-.86,1.18,1.18,0,0,0-.87-.32,3.43,3.43,0,0,0-2,1,14.06,14.06,0,0,0-2.34,2.64,19.16,19.16,0,0,0-2,3.67,14.45,14.45,0,0,0-1.1,4.1V72.94c0,.33,0,.68,0,1a2.37,2.37,0,0,1-.23.94,1.78,1.78,0,0,1-.63.71,2.26,2.26,0,0,1-1.25.29,6.59,6.59,0,0,1-1.2-.12,3.4,3.4,0,0,1-1.19-.44,2.51,2.51,0,0,1-.89-.91,3,3,0,0,1-.36-1.57Z"/><path class="cls-1" d="M252.72,71.35a2.87,2.87,0,0,0,2-.75,6.81,6.81,0,0,0,1.45-1.85,12.45,12.45,0,0,0,1-2.42c.26-.87.47-1.68.65-2.45a3.11,3.11,0,0,1,.76-1.57,1.52,1.52,0,0,1,1.1-.49,1.9,1.9,0,0,1,.91.25,3.59,3.59,0,0,1,1.48,1.57,2.26,2.26,0,0,1,.25,1v.17a1.11,1.11,0,0,1-.08.3,26.84,26.84,0,0,1-1.32,3.62,15.15,15.15,0,0,1-2.14,3.48,11,11,0,0,1-3.14,2.63,8.47,8.47,0,0,1-4.29,1,7.39,7.39,0,0,1-3.49-.78,6.14,6.14,0,0,1-2.35-2.06,10.44,10.44,0,0,1-2.77,2,8.15,8.15,0,0,1-3.77.83,9,9,0,0,1-3.92-.81,8.08,8.08,0,0,1-2.84-2.22,9.25,9.25,0,0,1-1.73-3.31,13.92,13.92,0,0,1-.58-4.1,18.9,18.9,0,0,1,1.53-7.77,18,18,0,0,1,4-5.87,17.69,17.69,0,0,1,5.78-3.7A18.3,18.3,0,0,1,248,46.85a3.9,3.9,0,0,1,2.53.78,2.54,2.54,0,0,1,1,2.12,2.62,2.62,0,0,1-.21,1.24.8.8,0,0,1-.76.35,8.15,8.15,0,0,1-1.08-.07,10.65,10.65,0,0,0-1.15-.06,11.93,11.93,0,0,0-4.38.86,11.69,11.69,0,0,0-4,2.63,13.75,13.75,0,0,0-2.95,4.5,16.48,16.48,0,0,0-1.16,6.47,6.7,6.7,0,0,0,1.16,4.21,3.78,3.78,0,0,0,3.16,1.47,3.5,3.5,0,0,0,2.6-1.07,8.41,8.41,0,0,0,1.67-2.51V57.09a6.58,6.58,0,0,0-.05-.85q-.06-.33-.12-.57t-.09-.42a2.47,2.47,0,0,1,0-.36,1,1,0,0,1,.58-.86,2.75,2.75,0,0,1,1.39-.32,4.69,4.69,0,0,1,3,.89,2.68,2.68,0,0,1,1.12,2.15V68.17a4.33,4.33,0,0,0,.15,1.13,3.75,3.75,0,0,0,.44,1,2.3,2.3,0,0,0,2,1Z"/><path class="cls-1" d="M270.31,75.91a14.65,14.65,0,0,1-4.91-.84,12.52,12.52,0,0,1-4.22-2.51,12.22,12.22,0,0,1-2.94-4.09,13.61,13.61,0,0,1-1.09-5.64,18.82,18.82,0,0,1,.93-5.84,17.93,17.93,0,0,1,2.56-5.12,13.56,13.56,0,0,1,3.92-3.64,9.51,9.51,0,0,1,5-1.38,7.15,7.15,0,0,1,3.35.72,7.38,7.38,0,0,1,2.23,1.76,6.81,6.81,0,0,1,1.24,2.22,6.72,6.72,0,0,1,.39,2.09,2,2,0,0,1-.39,1.22,3.7,3.7,0,0,1-.94.91,4.43,4.43,0,0,1-1.23.56,3.8,3.8,0,0,1-1.19.15,1.29,1.29,0,0,1-.84-.34.94.94,0,0,1-.2-.91,9.19,9.19,0,0,1-.28-1.08,4.74,4.74,0,0,0-.45-1.24,3.1,3.1,0,0,0-.87-1,2.47,2.47,0,0,0-1.52-.42,3,3,0,0,0-2,.89,8.16,8.16,0,0,0-1.75,2.45,16.86,16.86,0,0,0-1.22,3.62,19.9,19.9,0,0,0-.47,4.39,10.75,10.75,0,0,0,.58,3.65,7.3,7.3,0,0,0,1.62,2.67,6.73,6.73,0,0,0,2.47,1.64,8.5,8.5,0,0,0,3.1.56,9.37,9.37,0,0,0,3.89-.76,8.84,8.84,0,0,0,2.8-2,10.57,10.57,0,0,0,1.86-2.81,14.82,14.82,0,0,0,1-3.14,2.11,2.11,0,0,1,1.06-1.54,2.34,2.34,0,0,1,1.64-.18,2.87,2.87,0,0,1,1.45.86,1.87,1.87,0,0,1,.5,1.57,17.91,17.91,0,0,1-.54,2.4,13.68,13.68,0,0,1-1.14,2.73,15.43,15.43,0,0,1-1.87,2.73,12.44,12.44,0,0,1-2.77,2.38,14.79,14.79,0,0,1-3.81,1.69A17.45,17.45,0,0,1,270.31,75.91Z"/><path class="cls-1" d="M280.75,31.34a4.26,4.26,0,0,0-.13-1.19,3.47,3.47,0,0,0-.26-.69,2,2,0,0,0-.26-.4.5.5,0,0,1-.13-.33.4.4,0,0,1,.22-.33,2.48,2.48,0,0,1,.6-.24,4.73,4.73,0,0,1,.8-.15,5.92,5.92,0,0,1,.84-.05,4.63,4.63,0,0,1,3,.89A2.7,2.7,0,0,1,286.51,31V53.71A24.9,24.9,0,0,1,288.2,51a13.47,13.47,0,0,1,2-2.18,8.86,8.86,0,0,1,2.26-1.45,6.52,6.52,0,0,1,2.62-.52,6.7,6.7,0,0,1,3.13.64,5.33,5.33,0,0,1,1.93,1.66,6.2,6.2,0,0,1,1,2.26,10.86,10.86,0,0,1,.28,2.43V68.17c0,.16,0,.41,0,.76a4.16,4.16,0,0,0,.22,1.07,2.61,2.61,0,0,0,.58.94,1.5,1.5,0,0,0,1.13.41,2.88,2.88,0,0,0,2-.75,6.81,6.81,0,0,0,1.45-1.85,13.1,13.1,0,0,0,1-2.42c.25-.87.47-1.68.65-2.45a3,3,0,0,1,.68-1.52,1.65,1.65,0,0,1,1-.53,1.93,1.93,0,0,1,1.09.26,3.24,3.24,0,0,1,1,.79,3.4,3.4,0,0,1,.61,1.1,1.91,1.91,0,0,1,.06,1.15,32.27,32.27,0,0,1-1.36,3.62,14.81,14.81,0,0,1-2.14,3.48,11,11,0,0,1-3.12,2.63,8.4,8.4,0,0,1-4.27,1,6.7,6.7,0,0,1-2.7-.52,6.28,6.28,0,0,1-2-1.41A5.93,5.93,0,0,1,296,71.92a7.42,7.42,0,0,1-.43-2.5V55.36c0-.54,0-1,0-1.52a5.52,5.52,0,0,0-.21-1.25,2,2,0,0,0-.48-.86,1.18,1.18,0,0,0-.87-.32,3.43,3.43,0,0,0-2,1,14.06,14.06,0,0,0-2.34,2.64,19.16,19.16,0,0,0-2,3.67,14.45,14.45,0,0,0-1.1,4.1V72.94c0,.33,0,.68,0,1a2.2,2.2,0,0,1-.22.94,1.78,1.78,0,0,1-.63.71,2.26,2.26,0,0,1-1.25.29,6.59,6.59,0,0,1-1.2-.12,3.4,3.4,0,0,1-1.19-.44,2.51,2.51,0,0,1-.89-.91,3,3,0,0,1-.36-1.57Z"/><path class="cls-1" d="M326.29,53.84a11.6,11.6,0,0,1-.73,4,13.39,13.39,0,0,1-2.15,3.83A15.79,15.79,0,0,1,315,67.06a7.3,7.3,0,0,0,1,1.67,6.4,6.4,0,0,0,1.47,1.37,7.44,7.44,0,0,0,2,.91,9.36,9.36,0,0,0,2.62.34,9,9,0,0,0,3.83-.76,8.36,8.36,0,0,0,2.69-2,10.77,10.77,0,0,0,1.77-2.81,16.59,16.59,0,0,0,1-3.14,2.09,2.09,0,0,1,1.06-1.54,2.34,2.34,0,0,1,1.64-.18,2.87,2.87,0,0,1,1.45.86,1.91,1.91,0,0,1,.5,1.57,23.08,23.08,0,0,1-.5,2.4,13.83,13.83,0,0,1-1.06,2.73,15,15,0,0,1-1.81,2.73A12,12,0,0,1,330,73.58a14.28,14.28,0,0,1-3.76,1.69,17.21,17.21,0,0,1-4.94.64,14.06,14.06,0,0,1-5-.93,13.23,13.23,0,0,1-4.31-2.67,13,13,0,0,1-3-4.29,14.06,14.06,0,0,1-1.13-5.8,18.11,18.11,0,0,1,1-6.1,17,17,0,0,1,2.64-4.88A12.71,12.71,0,0,1,315.14,48a8.68,8.68,0,0,1,4.27-1.16,7.91,7.91,0,0,1,2.88.5,6.11,6.11,0,0,1,2.18,1.44A6.3,6.3,0,0,1,325.82,51,8.33,8.33,0,0,1,326.29,53.84ZM314,62a4.17,4.17,0,0,0,0,.61c0,.2,0,.42,0,.64a10.54,10.54,0,0,0,2.56-1.55,9.66,9.66,0,0,0,2-2.17,10,10,0,0,0,1.27-2.65,10.25,10.25,0,0,0,.44-3,3.18,3.18,0,0,0-.43-1.79,1.32,1.32,0,0,0-1.17-.64,2.58,2.58,0,0,0-1.65.57,5.28,5.28,0,0,0-1.27,1.51,10,10,0,0,0-.89,2.09,21.72,21.72,0,0,0-.57,2.35,19.39,19.39,0,0,0-.3,2.25A16,16,0,0,0,314,62Z"/><path class="cls-2" d="M88.31,85.61a2.06,2.06,0,0,0,2.17-1.25,5.19,5.19,0,0,0,.27-3c0-.94-.37-2-.41-2.51,0-.32,0-2.37,0-3.19.72-13.26,6.4-16.42,8-16.77a4.55,4.55,0,0,1,3.17.21V38.86h0v-5.7a10.26,10.26,0,0,0-4.62-8L55.39,1.1a10.23,10.23,0,0,0-9.24,0l-41.53,24a10.26,10.26,0,0,0-4.62,8v13q.36.19.72.42c.8.51,1.6.83,2.41,1.39a36.23,36.23,0,0,1,6.38,5c.38.37,1.64,2,2,2.33a25.3,25.3,0,0,0,3.08,3.53,11,11,0,0,0,2.07,1.48,5.81,5.81,0,0,0,4.28,0c7.92-3.43,12.88-1.71,15.17-.33,5.67,3.4,7.56,8.16,8.16,13.93a15.72,15.72,0,0,1,.08,2.26c0,1.37-.05,3.58,1.4,4,2.07.53,2.57-1.69,2.88-3.17.71-3.33,5.14-5.52,8.4-3.84,2.24,1.16,3.16,1.81,5.37.84,2.78-1.23,4.21-4.34,5.17-6a10.12,10.12,0,0,1,4-3.8c4.33-2.7,15.19-2,15.59,10,0,.65,0,2.32,0,3.33s0,2.26,0,3.44c0,.79-.18,1.61-.26,2.41C86.8,83.25,86.4,85.6,88.31,85.61Z"/><path class="cls-1" d="M101.61,59.14a4.59,4.59,0,0,0-3.17-.21c-1.65.35-7.33,3.51-8,16.77,0,.82-.07,2.87,0,3.19,0,.52.36,1.57.41,2.51a5.19,5.19,0,0,1-.27,3,2.06,2.06,0,0,1-2.17,1.25c-1.91,0-1.51-2.36-1.51-2.36.08-.8.22-1.62.26-2.41.08-1.18,0-2.3,0-3.44s0-2.68,0-3.33c-.4-12-11.26-12.68-15.59-10a10.12,10.12,0,0,0-4,3.8c-1,1.65-2.39,4.76-5.17,6-2.21,1-3.13.32-5.37-.84-3.26-1.68-7.69.51-8.4,3.84-.31,1.48-.81,3.7-2.88,3.17-1.45-.37-1.4-2.58-1.4-4a15.72,15.72,0,0,0-.08-2.26c-.6-5.77-2.49-10.53-8.16-13.93-2.29-1.38-7.25-3.1-15.17.33a5.81,5.81,0,0,1-4.28,0,11,11,0,0,1-2.07-1.48,25.3,25.3,0,0,1-3.08-3.53c-.31-.37-1.57-2-2-2.33a36.23,36.23,0,0,0-6.38-5c-.81-.56-1.61-.88-2.41-1.39Q.37,46.29,0,46.1l0,35a10.26,10.26,0,0,0,4.62,8l41.58,24a10.23,10.23,0,0,0,9.24,0L97,89.19a10.24,10.24,0,0,0,4.62-8Z"/><path class="cls-3" d="M56.08,53.26a11.59,11.59,0,0,1-10.45,0L3.12,30.82c.48.48,43.11,25.25,43.11,25.25a10.23,10.23,0,0,0,9.24,0S98.05,31.38,98.53,30.9Z"/><path class="cls-3" d="M45.56,4.31A11.59,11.59,0,0,1,56,4.32l5.16,2.15c-.48-.48-5.76-3.9-5.76-3.9a10.23,10.23,0,0,0-9.24,0S37.75,7.52,37.27,8Z"/></g></g></svg>