<?xml version="1.0" encoding="utf-8"?>
<!-- Generator: Adobe Illustrator 21.1.0, SVG Export Plug-In . SVG Version: 6.00 Build 0)  -->
<svg version="1.1" id="Layer_1" xmlns="http://www.w3.org/2000/svg" xmlns:xlink="http://www.w3.org/1999/xlink" x="0px" y="0px"
	 viewBox="0 0 160 179.9" style="enable-background:new 0 0 160 179.9;" xml:space="preserve">
<style type="text/css">
	.st0{fill:#E5A663;}
	.st1{fill:none;stroke:#E5A663;stroke-width:2;stroke-miterlimit:10;}
</style>
<title>ganache-feature-1-icon</title>
<g id="Layer_2">
	<g id="Mask">
		<path class="st0" d="M79.9,2L79.9,2c2.2,0,4.3,0.5,6.3,1.5l65.4,37.8c3.7,2.4,6,6.5,6.3,10.9l0.1,75.6c-0.3,4.4-2.6,8.4-6.3,10.9
			l-65.4,37.7c-4,2-8.6,2-12.6,0L8.3,138.6c-3.7-2.4-6-6.5-6.3-10.9l0-75.6c0.3-4.4,2.6-8.4,6.3-10.9L73.6,3.5
			C75.6,2.5,77.7,2,79.9,2 M79.9,0c-2.5-0.1-5,0.5-7.3,1.7L7.3,39.5C3,42.3,0.3,47,0,52.1l0.1,75.6c0.3,5.1,3,9.8,7.3,12.6
			l65.4,37.9c4.6,2.3,10,2.3,14.6,0l65.4-37.7c4.3-2.8,7-7.5,7.3-12.6l-0.1-75.6c-0.3-5.1-3-9.8-7.3-12.6L87.2,1.7
			C85,0.5,82.4-0.1,79.9,0z"/>
		<path class="st0" d="M80,35.3l33.2,55.1L80,110L46.8,90.4L80,35.3 M80,31.4L44.1,91.1L80,112.3L115.9,91C115.9,91,80,31.4,80,31.4
			z"/>
		<path class="st0" d="M51.1,104.5L79,120.9l1,0.6l1-0.6l27.8-16.4L80,145L51.1,104.5 M115.9,98L80,119.2L44.1,98L80,148.5L115.9,98
			z"/>
		<path class="st1" d="M80,74.7"/>
		<polyline class="st1" points="46.5,89.9 80,74.7 113.5,89.9 		"/>
		<line class="st1" x1="80" y1="34.8" x2="80" y2="110"/>
		<line class="st1" x1="80" y1="119.2" x2="80" y2="145.9"/>
	</g>
</g>
</svg>
