<svg xmlns="http://www.w3.org/2000/svg" xmlns:xlink="http://www.w3.org/1999/xlink" viewBox="0 0 597.5 215.91"><defs><style>.cls-1{fill:none;}.cls-2{fill:#3fe0c5;}.cls-3{fill:#fafafa;}.cls-4{fill:#5e464d;}.cls-5{clip-path:url(#clip-path);}.cls-6{fill:url(#radial-gradient);}.cls-7{clip-path:url(#clip-path-2);}.cls-8{fill:#fff;}.cls-9{fill:#c93a95;}.cls-10{clip-path:url(#clip-path-3);}.cls-11{fill:#e4a45b;}.cls-12{fill:#563942;}.cls-13{clip-path:url(#clip-path-4);}.cls-14{fill:#5cc3b5;}</style><clipPath id="clip-path"><path class="cls-1" d="M504.15,142.48s-.95,17.38-.95,17.38c.2,5.59,18.86,10.59,37.63,10.59s37.64-5,37.64-10.59c0,0-1.11-17.24-1.11-17.43,0-18.89-17.71-34.31-36.6-34.31s-36.61,15.46-36.61,34.36"/></clipPath><radialGradient id="radial-gradient" cx="-1291.43" cy="-478.68" r="0.54" gradientTransform="matrix(63.78, 0, 0, -63.78, 82914.48, -30393.06)" gradientUnits="userSpaceOnUse"><stop offset="0" stop-color="#563a42"/><stop offset="1" stop-color="#563a42"/></radialGradient><clipPath id="clip-path-2"><rect class="cls-1" x="503.2" y="106.78" width="75.27" height="63.68"/></clipPath><clipPath id="clip-path-3"><rect class="cls-1" x="387.45" y="101.2" width="65.21" height="73.32"/></clipPath><clipPath id="clip-path-4"><rect class="cls-1" x="437.99" y="95.72" width="85.54" height="84.28"/></clipPath></defs><g id="Layer_2" data-name="Layer 2"><g id="Layer_1-2" data-name="Layer 1"><polygon class="cls-2" points="597.38 215.91 0.13 215.91 0.13 148.03 76.88 137.7 135.62 170.24 214.07 138.71 311.84 151.99 370.33 79.75 453.93 43.24 597.38 47.91 597.38 215.91"/><path class="cls-3" d="M597.38,88.33C546.75,64.12,482.77,33,403.92,81.81c-29.35,18.16-58.84,67-83.28,82.89-26.05,17-55.13-11.74-79.38-15.15S141,214.07,104.4,176C88.53,159.53,44.86,146.65.13,161c-.28-18.07,0-41.49,0-41.49L155.5,94.09l147.61,6.15L389.63,16.9h127l80.8,27.68S597.42,68.22,597.38,88.33Z"/><path class="cls-4" d="M597.38,27.33c-11.79-.71-26.19-8.3-36.4-14.22s-21-12-32.8-12.42C514.9.17,502.49,6.76,489.5,9.57c-40.94,8.88-84.83-19.93-124.12-5.39-20.49,7.58-35,25.47-49.83,41.53S282.68,77.6,260.86,78.63c-25.45,1.21-48.79-18.21-74.15-15.8C172.76,64.16,160.16,72,146.3,74,122.94,77.39,79.44,55.43,55.86,56.6,31.56,57.81,15.75,67.11.13,76.09c0,13.91-.15,48.7-.13,65a219.1,219.1,0,0,1,79.62-18c18.2-.63,34,14.5,52,15.76,37.73,2.64,72.71-26.43,110.5-24.88,19.65.8,38.87,9.93,58.42,7.52,25.26-3.13,45.23-24.56,62.4-45.48s35.16-43.62,59.75-50.8C459.74,14.47,492.84,29.7,530,39.05c32.52,8.17,48.16,7.76,67.34,11.09C597.44,40.9,597.62,34.75,597.38,27.33Z"/><g id="Artwork_10" data-name="Artwork 10"><g class="cls-5"><rect class="cls-6" x="503.2" y="108.12" width="75.27" height="62.33"/></g><g class="cls-7"><path class="cls-8" d="M520.46,145.67A43.34,43.34,0,0,0,518,133.72c-.34-.92-.68-1.83-1.08-2.7s-1.4-3.46-1.56-3.9a11.72,11.72,0,0,0-.55-1.26c-.38-.83-.81-1.65-1.27-2.44l-.06-.11a3.32,3.32,0,0,1,3.88-4.82l.4.12.34.11.66.24c.42.15.85.31,1.27.48.83.34,1.65.7,2.45,1.08a51.86,51.86,0,0,1,4.71,2.52,47.33,47.33,0,0,1,8.48,6.56,40.4,40.4,0,0,1,6.67,8.56,38,38,0,0,1,4,10.12l-6.39-.4.15-.46.17-.54c.11-.37.21-.75.31-1.13.2-.77.37-1.55.51-2.33a38.61,38.61,0,0,0,.63-4.78,37.5,37.5,0,0,0-.61-9.52,34.09,34.09,0,0,0-3.09-8.94,35.49,35.49,0,0,0-5.48-7.78l0,0a3.33,3.33,0,0,1,2.89-5.56l.3,0,.23,0,.44.07.86.16c.56.12,1.11.25,1.66.41,1.09.27,2.16.6,3.21,1a47.81,47.81,0,0,1,17,10.12,48.6,48.6,0,0,1,8.4,10.23,56.91,56.91,0,0,1,5.5,11.91l-6.22-.37.11-.26.13-.37c.08-.25.17-.51.25-.78a12.92,12.92,0,0,0,.4-1.63c.1-.55.13-1.11.21-1.67s.18-1.1.28-1.65a17,17,0,0,0-.23-6.84,17.5,17.5,0,0,0-1.21-3.36,20.84,20.84,0,0,0-1.91-3.22,27,27,0,0,0-2.5-2.94,39.25,39.25,0,0,0-2.95-2.67,27.86,27.86,0,0,1,3.69,1.68,24.6,24.6,0,0,1,3.48,2.25,21.44,21.44,0,0,1,3.1,2.92,19.7,19.7,0,0,1,2.52,3.62,21.67,21.67,0,0,1,2.54,8.68,12.62,12.62,0,0,1,0,2.3,19,19,0,0,1-.44,2.25c-.17.73-.35,1.47-.57,2.21-.11.37-.23.73-.37,1.1l-.21.56-.12.3-.16.35a3.31,3.31,0,0,1-4.37,1.7,3.35,3.35,0,0,1-1.81-2l0-.1a49.4,49.4,0,0,0-4.82-10.5,42.1,42.1,0,0,0-7.24-8.84A41.13,41.13,0,0,0,540,114.81c-.9-.3-1.81-.57-2.72-.8-.45-.12-.9-.22-1.35-.31l-.66-.13-.31-.07-.25,0,2.84-5.59a42.7,42.7,0,0,1,6.48,9.24,40.74,40.74,0,0,1,3.71,10.71,43.69,43.69,0,0,1,.71,11.24,45.3,45.3,0,0,1-.68,5.57c-.17.92-.38,1.85-.61,2.76-.12.46-.24.92-.38,1.39l-.21.7-.12.36-.15.4a3.33,3.33,0,0,1-6.37-.31l0-.1a31.16,31.16,0,0,0-3.33-8.34,33.23,33.23,0,0,0-5.55-7.1,40,40,0,0,0-7.27-5.63,45.44,45.44,0,0,0-4.07-2.18c-.7-.32-1.41-.63-2.11-.92l-1.06-.4-.52-.18-.45-.15,3.81-4.93a31.83,31.83,0,0,1,1.61,3.06c.25.51.46,1,.69,1.57s.48,1,.67,1.58c.1.27.19.54.26.8a7.94,7.94,0,0,1,.15.85c.08.57.13,1.14.18,1.71a31.84,31.84,0,0,1,.13,3.37,36.26,36.26,0,0,1-.69,6.57,31.4,31.4,0,0,1-.8,3.14,24.7,24.7,0,0,1-1.09,3"/><path class="cls-9" d="M520.46,145.67a39.59,39.59,0,0,0,0-6.16,43.63,43.63,0,0,0-.9-6c-.23-1-.49-2-.81-2.91s-.67-1.88-1-2.81c-.15-.47-.32-.94-.49-1.4a12.68,12.68,0,0,0-.59-1.36,28.5,28.5,0,0,0-1.37-2.63v0a1.3,1.3,0,0,1,.48-1.77,1.28,1.28,0,0,1,1-.11c.89.27,1.66.56,2.47.88s1.58.67,2.35,1a48.78,48.78,0,0,1,4.51,2.41,45,45,0,0,1,8.12,6.29,38,38,0,0,1,6.32,8.11,35.74,35.74,0,0,1,3.82,9.58l-2.48-.16c.12-.33.26-.75.37-1.14s.23-.81.33-1.21c.21-.8.4-1.63.54-2.46a42.46,42.46,0,0,0,.61-5,39.4,39.4,0,0,0-.64-10.05,35.75,35.75,0,0,0-3.27-9.48,38,38,0,0,0-5.77-8.23,1.3,1.3,0,0,1,.09-1.83,1.35,1.35,0,0,1,1-.33c.59.08,1.1.18,1.63.29s1,.22,1.56.36c1,.26,2.06.56,3.07.91a45.58,45.58,0,0,1,16.29,9.68,46.19,46.19,0,0,1,8,9.8,53.92,53.92,0,0,1,5.28,11.47l-2.41-.15c.1-.21.22-.53.32-.8a7.56,7.56,0,0,0,.29-.88,16.55,16.55,0,0,0,.46-1.81c.22-1.2.35-2.45.46-3.69a18,18,0,0,0-.93-7.39,19.75,19.75,0,0,0-3.89-6.56,29.38,29.38,0,0,0-6-5.09,28.15,28.15,0,0,1,6.64,4.42,19.93,19.93,0,0,1,6.7,14.65,16.47,16.47,0,0,1-.08,2.11c-.08.69-.22,1.38-.36,2.07s-.32,1.35-.52,2c-.11.33-.22.67-.34,1s-.23.65-.4,1a1.3,1.3,0,0,1-2.41-.11v0a51.5,51.5,0,0,0-5.06-10.91A43.85,43.85,0,0,0,556,122a43.21,43.21,0,0,0-15.37-9.14c-.94-.32-1.9-.61-2.86-.85-.48-.13-1-.24-1.45-.34s-1-.19-1.41-.24l1.11-2.18a40.68,40.68,0,0,1,6.15,8.8,38.22,38.22,0,0,1,3.52,10.17,41.79,41.79,0,0,1,.7,10.71,45.45,45.45,0,0,1-.65,5.32c-.17.89-.36,1.76-.58,2.63-.11.44-.23.88-.36,1.31s-.26.85-.44,1.33a1.29,1.29,0,0,1-1.66.78,1.31,1.31,0,0,1-.82-.91v0a33.25,33.25,0,0,0-3.54-8.88,35.15,35.15,0,0,0-5.9-7.56,41.49,41.49,0,0,0-7.63-5.9,47.48,47.48,0,0,0-4.27-2.3c-.73-.34-1.47-.66-2.22-1l-1.12-.43c-.38-.13-.77-.27-1.1-.37l1.48-1.91a34.87,34.87,0,0,1,2.73,5.84,17.86,17.86,0,0,1,.76,3.13,30.85,30.85,0,0,1,.4,3.17,37.05,37.05,0,0,1,0,6.32c-.08,1-.2,2.09-.38,3.11a26.21,26.21,0,0,1-.64,3"/></g><g class="cls-10"><path class="cls-11" d="M444.13,156.12a1.3,1.3,0,0,0,1.39-.8,3.48,3.48,0,0,0,.17-1.9c0-.6-.23-1.27-.26-1.61s0-1.52,0-2.05c.46-8.51,4.11-10.54,5.17-10.77a2.9,2.9,0,0,1,2,.14V122.47a6.6,6.6,0,0,0-3-5.14L423,101.91a6.6,6.6,0,0,0-5.95,0l-26.64,15.4a6.56,6.56,0,0,0-3,5.14v3.36a.06.06,0,0,0,0,.06v4.92l.46.27c.52.34,1,.53,1.55.89a23.4,23.4,0,0,1,4.11,3.18c.24.23,1.05,1.25,1.25,1.49a16.36,16.36,0,0,0,2,2.26,6.51,6.51,0,0,0,1.32.95,3.71,3.71,0,0,0,2.74,0c5.07-2.2,8.26-1.1,9.73-.21,3.64,2.18,4.85,5.23,5.24,8.94a9.9,9.9,0,0,1,0,1.44c0,.88,0,2.3.9,2.54,1.33.34,1.66-1.09,1.85-2a3.92,3.92,0,0,1,5.39-2.47c1.44.74,2,1.17,3.45.54,1.78-.79,2.7-2.78,3.32-3.85a6.6,6.6,0,0,1,2.56-2.44c2.77-1.73,9.75-1.28,10,6.41v2.14c0,.73,0,1.45,0,2.21,0,.5-.12,1-.17,1.54,0,0-.27,1.51,1,1.51"/><path class="cls-12" d="M452.66,139.14a2.88,2.88,0,0,0-2-.13c-1.06.22-4.71,2.25-5.17,10.76,0,.52,0,1.84,0,2.06s.23,1,.26,1.61a3.49,3.49,0,0,1-.17,1.9,1.31,1.31,0,0,1-1.39.8c-1.23,0-1-1.51-1-1.51,0-.52.14-1,.17-1.55,0-.76,0-1.47,0-2.21v-2.13c-.25-7.69-7.23-8.14-10-6.41a6.49,6.49,0,0,0-2.57,2.44c-.62,1.06-1.54,3.06-3.31,3.84-1.43.63-2,.21-3.45-.54a3.93,3.93,0,0,0-5.39,2.47c-.2,1-.52,2.37-1.85,2-.93-.24-.9-1.65-.9-2.53a10,10,0,0,0-.05-1.45c-.39-3.71-1.6-6.76-5.23-8.94-1.47-.88-4.66-2-9.74.21a3.71,3.71,0,0,1-2.74,0,7.76,7.76,0,0,1-1.32-1,16.44,16.44,0,0,1-2-2.27c-.19-.24-1-1.26-1.24-1.49a23.58,23.58,0,0,0-4.12-3.18c-.52-.34-1-.56-1.54-.89l-.47-.27v22.46a6.58,6.58,0,0,0,3,5.14l26.68,15.42a6.53,6.53,0,0,0,5.93,0l26.68-15.4a6.57,6.57,0,0,0,3-5.13Z"/><path class="cls-8" d="M423.45,135.37a7.48,7.48,0,0,1-6.71,0L389.46,121c.31.3,27.67,16.19,27.67,16.19a6.53,6.53,0,0,0,5.93,0s27.31-15.84,27.62-16.14Z"/><path class="cls-8" d="M416.7,104a7.48,7.48,0,0,1,6.71,0l3.3,1.37c-.31-.3-3.69-2.5-3.69-2.5a6.59,6.59,0,0,0-5.93,0s-5.4,3.18-5.71,3.48Z"/></g><g class="cls-13"><path class="cls-12" d="M480.55,95.72c23,0,41.66,18.87,41.66,42.14S503.56,180,480.55,180s-41.65-18.87-41.65-42.14,18.65-42.14,41.65-42.14"/><path class="cls-8" d="M467.46,175.23c1.69.58,7.43,2.44,7.67.62.13-1-2.88-2-7-4.19A65.68,65.68,0,0,1,452.35,160a36.22,36.22,0,0,1-10.84-25.19c-.35-12.75,4.66-23.06,12.84-29.7A42,42,0,0,0,438,137.35a39.24,39.24,0,0,0,7.18,24.07,27.09,27.09,0,0,0,5.23,5.14,65.36,65.36,0,0,0,17,8.68"/><path class="cls-8" d="M523,128.16c-2.59-12.15-10.6-20.65-21.35-26.66,8.21,5.85,19.77,18.28,13,29.25-5.79,8.78-19.83,7.06-27.51,2.9-9.1-5-20.54-16.11-9.28-27,7.3-7.05,30.55.85,26.44,11.39-2.38,6.13-11.66,4.77-15.84,1.77-3.08-2.21-5.67-6-4.3-9.94.42-1.27.38-3.2-1.4-1.77a7,7,0,0,0-2.22,4.48c-1.94,13.74,22.51,24.38,29.79,11.1,3.76-6.9-2.34-16.91-10-21-5.79-3.09-11.79-5.27-19.16-4.74-11.78.85-21.67,8.21-22.89,20.25s6.76,22.73,16.18,29.17c9.9,6.78,23.21,11.23,35.4,7.21,10.91-3.62,15.42-16.15,13.22-26.38"/><path class="cls-14" d="M507.42,118.9c1.17-7.87-5.94-13.28-12.52-15.73-7.75-2.9-18-1.63-23.62,4.79-4.15,4.71-3.86,11.55-1.74,17.08,3.22,8.37,10.49,14.41,18.94,17,6,1.86,13.28,2.67,19.37.71,8.88-2.86,11.78-12.12,9.94-20.61a24.27,24.27,0,0,0-1.8-5.31c-1.12-2.36-4.56-7.13.18-1.32a21.22,21.22,0,0,1,1.37,2,22.7,22.7,0,0,1,2.31,5.12c2.58,7.92.55,17.16-6.62,21.94-5.51,3.66-12.47,4.1-18.85,3.18a35.6,35.6,0,0,1-22.18-12c-5.11-6.05-8.59-14.74-6.49-22.7a17.66,17.66,0,0,1,11.91-12,26.57,26.57,0,0,1,21.46,2.51,19.06,19.06,0,0,1,7.82,7.89,11.71,11.71,0,0,1,1.18,4.92,10.21,10.21,0,0,1-.17,2.07c0,.25-.56.95-.49.37"/></g></g></g></g></svg>