<svg xmlns="http://www.w3.org/2000/svg" viewBox="0 0 385.17 207.16"><defs><style>.cls-1,.cls-3{fill:#fff;}.cls-1{opacity:0.42;}.cls-2{fill:#f473a5;}</style></defs><g id="Layer_2" data-name="Layer 2"><g id="Facebook"><circle class="cls-1" cx="302.49" cy="73.63" r="61.46"/><polygon class="cls-2" points="254.18 120.38 27.56 120.38 27.56 26.87 254.18 26.87 237.89 71.22 254.18 120.38"/><path class="cls-3" d="M303.46,0a72.18,72.18,0,1,0,72.18,72.18A72.19,72.19,0,0,0,303.46,0Zm-1,127a55.75,55.75,0,1,1,55.75-55.75A55.75,55.75,0,0,1,302.49,127Z"/><path d="M67.21,39.51,59.36,96.16H86L82.6,109.24H41.25L51,39.51Z"/><path d="M116.42,39.51l-9.76,69.73H90.46l9.76-69.73Z"/><path d="M180.46,39.51l-28.87,69.73H131.46L121.3,39.51h17l5,56.85,20.32-56.85Z"/><path d="M227.6,39.51l-3.42,11.78H200L197.62,68h21.13l-1.51,11.57H196.11L193.6,97.37h25.86l-1.61,11.87H175.69l9.76-69.73Z"/><polygon class="cls-3" points="385.17 207.16 0 207.16 0 120.38 259.86 120.38 304.89 129.91 353.93 120.38 385.17 120.38 385.17 207.16"/><path d="M67.5,137.78l-8.66,8.65a19.79,19.79,0,0,0-14.08-5.73,12.89,12.89,0,0,0-7.7,2.06,6.61,6.61,0,0,0-2.86,5.68,5.74,5.74,0,0,0,2.41,4.83q2.41,1.81,9.26,4.13,9,2.91,13.43,7.54t4.48,12.28A24.23,24.23,0,0,1,60.71,189,23.16,23.16,0,0,1,51,198.19q-6.69,3.57-17,3.58A36.47,36.47,0,0,1,19.25,199a31.75,31.75,0,0,1-10.61-7.4L18,182.35a21.93,21.93,0,0,0,16.4,6.84q5.73,0,9-2.52a8.26,8.26,0,0,0,3.27-6.94,7.08,7.08,0,0,0-2.36-5.53q-2.37-2.12-8.6-4.33-9.87-3.31-14.19-8a16.25,16.25,0,0,1-4.33-11.57,20,20,0,0,1,3-10.51,22,22,0,0,1,9.11-8.1q6.07-3.12,14.94-3.12Q58.54,128.62,67.5,137.78Z"/><path d="M126.17,130.33,122.65,143h-16.9l-8,57.05H81.5l8-57.05H71.74l1.81-12.68Z"/><path d="M176.24,161.52q-3.53,5.53-12.38,9.26l13.08,29.28H159.23l-10.56-26.57-6.74-.1-3.72,26.67H122l9.76-69.73H154.2q12.48,0,19,4.83t6.54,13.69A23.15,23.15,0,0,1,176.24,161.52Zm-32.7.51h7.14q6.44,0,9.36-3.68a13.58,13.58,0,0,0,2.92-8.7q0-4-2.57-5.89t-7.9-1.86h-6.14Z"/><path d="M234.4,130.33,231,142.1H206.83l-2.41,16.71h21.12L224,170.38H202.91l-2.52,17.8h25.86l-1.61,11.88H182.48l9.76-69.73Z"/><path d="M272.3,200.06l-1.41-15H250.67l-5.54,15h-16.9l30.48-69.73h19.72l10.87,69.73Zm-17.31-27h14.69l-3-31.69Z"/><path d="M364.21,200.06H348.32l2.51-27.47q1.62-17,3.83-29.58l-17.41,49.7H321.66L317,143.21q-.3,8.14-1.16,15.19t-2.36,14.79l-4.83,26.87h-15.9l15-69.73h19.82l3.72,48.4,16.3-48.4h21.13Z"/><polygon class="cls-2" points="276.66 34 276.66 109.24 345.68 73.63 276.66 34"/></g></g></svg>