<svg xmlns="http://www.w3.org/2000/svg" viewBox="0 0 281.04 112.53"><defs><style>.cls-1{fill:#e911bd;}.cls-1,.cls-2,.cls-3{fill-rule:evenodd;}.cls-2{fill:#e4a663;}.cls-3{fill:#3fe0c5;}</style></defs><title>suite-logo-light</title><g id="Layer_2" data-name="Layer 2"><g id="Layer_2-2" data-name="Layer 2"><path class="cls-1" d="M221.33,55.64c4.76-2.75,12.56-2.75,17.32,0l38.82,22.41c4.76,2.75,4.76,7.25,0,10l-38.82,22.41c-4.76,2.75-12.56,2.75-17.32,0L182.51,88.05c-4.76-2.75-4.76-7.25,0-10Z"/><path class="cls-2" d="M131.86,2.06c4.76-2.75,12.56-2.75,17.32,0L188,24.47c4.76,2.75,4.76,7.25,0,10L149.18,56.89c-4.76,2.75-12.56,2.75-17.32,0L93,34.47c-4.76-2.75-4.76-7.25,0-10Z"/><path class="cls-3" d="M42.39,55.64c4.76-2.75,12.56-2.75,17.32,0L98.53,78.05c4.76,2.75,4.76,7.25,0,10L59.71,110.46c-4.76,2.75-12.56,2.75-17.32,0L3.57,88.05c-4.76-2.75-4.76-7.25,0-10Z"/></g></g></svg>