<svg xmlns="http://www.w3.org/2000/svg" viewBox="0 0 304.69 304.69"><defs><style>.cls-1,.cls-2{fill:#3fe0c5;}.cls-2{fill-rule:evenodd;}</style></defs><title>truffle-icon-2</title><g id="Layer_2" data-name="Layer 2"><g id="Layer_2-2" data-name="Layer 2"><path class="cls-1" d="M152.35,2A150.35,150.35,0,0,1,258.66,258.66,150.35,150.35,0,1,1,46,46,149.34,149.34,0,0,1,152.35,2m0-2A152.35,152.35,0,1,0,304.69,152.35,152.35,152.35,0,0,0,152.35,0Z"/><path class="cls-1" d="M143.37,216.42H45.88V114.7L70.29,90.29h73.08Zm-95.49-2h93.49V92.29H71.12L47.88,115.53Z"/><polygon class="cls-1" points="71.71 116.12 46.88 116.12 46.88 114.12 69.71 114.12 69.71 91.29 71.71 91.29 71.71 116.12"/><rect class="cls-1" x="61.5" y="130.3" width="66.25" height="2"/><rect class="cls-1" x="61.5" y="140.3" width="66.25" height="2"/><rect class="cls-1" x="61.5" y="150.3" width="66.25" height="2"/><rect class="cls-1" x="61.5" y="168.47" width="66.25" height="2"/><rect class="cls-1" x="61.5" y="178.47" width="66.25" height="2"/><rect class="cls-1" x="61.5" y="188.47" width="48.21" height="2"/><polygon class="cls-2" points="215.74 121.03 230.53 96.47 245.3 121 230.53 129.75 215.74 121.03"/><polygon class="cls-2" points="215.74 123.87 230.53 132.57 245.3 123.87 230.53 144.65 215.74 123.87"/><polyline class="cls-2" points="216.73 120.56 230.53 114.28 244.31 120.56"/><line class="cls-1" x1="230.52" y1="97.9" x2="230.53" y2="129.75"/><line class="cls-1" x1="230.53" y1="132.6" x2="230.53" y2="143.57"/><path class="cls-1" d="M230.53,170l13.39,22.25-13.4,7.93-13.4-7.91L230.53,170m0-1.94L215.74,192.6l14.79,8.73,14.77-8.75L230.53,168Z"/><path class="cls-1" d="M219.28,198.68,230,205l.51.3.5-.3,10.73-6.33-11.23,15.81-11.25-15.81m26-3.24-14.77,8.71-14.79-8.71,14.79,20.78,14.77-20.78Z"/><polygon class="cls-1" points="216.94 192.58 216.52 191.67 230.53 185.3 244.52 191.67 244.1 192.58 230.53 186.4 216.94 192.58"/><rect class="cls-1" x="230.02" y="169.47" width="1" height="30.98"/><rect class="cls-1" x="230.03" y="204.17" width="1" height="10.97"/><path class="cls-1" d="M210.52,193.13H209l0-2h1.49Z"/><path class="cls-1" d="M205.93,193.06c-1.11,0-2.12-.11-3.09-.19l.17-2c.94.09,1.92.15,3,.19Zm-6.19-.57c-1.07-.17-2.11-.39-3.08-.64l.5-1.93c.91.23,1.89.43,2.89.59Zm-6.09-1.59a24.65,24.65,0,0,1-2.9-1.32l.95-1.76a22.21,22.21,0,0,0,2.66,1.21Zm-5.59-3a23.74,23.74,0,0,1-2.43-2.07l1.4-1.43a20.92,20.92,0,0,0,2.22,1.89Zm-4.55-4.43a24.8,24.8,0,0,1-1.81-2.59l1.7-1.05a23.77,23.77,0,0,0,1.68,2.4Zm-3.34-5.34c-.45-.9-.87-1.87-1.27-2.86l1.86-.74c.37.94.78,1.86,1.2,2.71Zm-2.33-5.74c-.36-1-.73-1.9-1.12-2.77l1.82-.82c.41.92.8,1.89,1.18,2.89Zm-2.43-5.44c-.49-.89-1-1.74-1.53-2.52l1.65-1.12a27.8,27.8,0,0,1,1.63,2.69Zm-3.31-4.84a18.54,18.54,0,0,0-2.07-2l1.27-1.55a20.14,20.14,0,0,1,2.3,2.24Zm-4.43-3.59a10.58,10.58,0,0,0-2.6-1l.43-1.95a12.69,12.69,0,0,1,3.1,1.15Zm-5.43-1.12h-3.05v-2h3.05Zm-6.1,0h-3v-2h3Zm-6.11,0H147v-2H150Z"/><polygon class="cls-1" points="143.87 157.38 141.37 157.38 141.37 155.38 142.37 155.31 143.87 155.31 143.87 157.38"/><path class="cls-1" d="M162.18,157.31h-3.05v-2h3.05Zm-6.1,0H153v-2h3.06Zm-6.11,0h-3.05v-2H150Zm15.46-.19-.42-2a10,10,0,0,0,2.61-.95l.92,1.78A12.29,12.29,0,0,1,165.43,157.12Zm5.82-2.93L170,152.64a18.42,18.42,0,0,0,2.07-2l1.5,1.32A20.07,20.07,0,0,1,171.25,154.19Zm4.25-4.74-1.66-1.12c.53-.78,1-1.63,1.54-2.52l1.75.95C176.61,147.71,176.06,148.62,175.5,149.45Zm3-5.49-1.83-.82c.39-.88.77-1.81,1.13-2.76l1.87.69C179.32,142.07,178.93,143,178.52,144Zm2.22-5.73-1.86-.74c.39-1,.82-2,1.26-2.86l1.8.88C181.52,136.37,181.11,137.28,180.74,138.23Zm2.62-5.3-1.7-1.05a29.86,29.86,0,0,1,1.81-2.6l1.57,1.24A27.05,27.05,0,0,0,183.36,132.93Zm3.63-4.59-1.4-1.42a21.52,21.52,0,0,1,2.42-2.07l1.19,1.6A22,22,0,0,0,187,128.34Zm4.66-3.45-1-1.75a22.4,22.4,0,0,1,2.89-1.33l.71,1.86A24.64,24.64,0,0,0,191.65,124.89Zm5.45-2.11-.5-1.93c1-.25,2-.47,3.08-.64l.32,2C199,122.34,198,122.55,197.1,122.78Zm5.86-1-.18-2c1-.08,2-.15,3.09-.19l.08,2C204.88,121.67,203.9,121.73,203,121.81Z"/><path class="cls-1" d="M209,121.56l0-2h1.51v2Z"/><path class="cls-1" d="M95.59,86.68h-2V83.63h2Zm0-6.11h-2v-3h2Zm0-6.1h-2v-3h2ZM93.43,68.6a10.46,10.46,0,0,0-1-2.61l1.77-.93a12.76,12.76,0,0,1,1.15,3.11Zm-2.54-5a18.54,18.54,0,0,0-2-2.07l1.32-1.5a20,20,0,0,1,2.23,2.3Zm-4.33-3.85c-.78-.53-1.63-1-2.53-1.53l1-1.75a29.07,29.07,0,0,1,2.69,1.63Zm-5.19-2.84c-.88-.39-1.81-.76-2.77-1.12l.7-1.88c1,.37,2,.77,2.88,1.18Zm-5.65-2.18c-1-.4-2-.82-2.87-1.27l.89-1.79c.86.42,1.77.83,2.71,1.2ZM70.1,52a25.75,25.75,0,0,1-2.58-1.81l1.24-1.57a23.77,23.77,0,0,0,2.4,1.68ZM65.15,48a23.64,23.64,0,0,1-2.06-2.43l1.61-1.19a20.82,20.82,0,0,0,1.88,2.22Zm-3.76-5.12A23.13,23.13,0,0,1,60.07,40l1.86-.71A22.25,22.25,0,0,0,63.15,42ZM59.11,37c-.25-1-.46-2-.63-3.08l1.82-1c.17,1,.52,2.71.75,3.62Z"/><polygon class="cls-1" points="95.66 92.29 93.66 92.29 93.59 91.29 93.59 89.79 95.66 89.79 95.66 92.29"/><path class="cls-1" d="M95.66,86.77h-2v-3h2Zm0-6h-2v-3h2Zm0-6h-2v-3h2Zm.11-5.84-2-.38a12.58,12.58,0,0,1,1.06-3.11l1.8.89A9.78,9.78,0,0,0,95.77,68.84Zm2.39-5-1.57-1.24a19.64,19.64,0,0,1,2.18-2.32l1.35,1.48A18,18,0,0,0,98.16,63.87ZM102.38,60l-1.15-1.64a30.69,30.69,0,0,1,2.65-1.65l1,1.74A26.72,26.72,0,0,0,102.38,60Zm5.1-2.87-.84-1.82c.9-.42,1.86-.82,2.85-1.19L110.2,56C109.26,56.35,108.34,56.73,107.48,57.13ZM113,55l-.71-1.87c.94-.36,1.85-.75,2.7-1.15l.86,1.8C115,54.16,114,54.57,113,55Zm5.6-2.68-1-1.72A25.41,25.41,0,0,0,120,48.94l1.2,1.6A30.68,30.68,0,0,1,118.64,52.27Zm5-3.77-1.39-1.44a19.43,19.43,0,0,0,1.93-2.14l1.58,1.24A23.21,23.21,0,0,1,123.62,48.5Zm3.89-5-1.73-1A24,24,0,0,0,127.06,40l1.84.77A25.47,25.47,0,0,1,127.51,43.54Zm2.42-5.79L128,37.21c.25-.9.47-1.86.66-2.85l2,.36C130.44,35.77,130.2,36.79,129.93,37.75Zm1.14-6.1-2-.21c.1-.93.17-1.9.22-3l2,.1C131.25,29.68,131.17,30.68,131.07,31.65Zm.33-6.13-2,0c0-.79,0-1.57,0-2.35v-.66h2v.66C131.41,23.93,131.41,24.72,131.4,25.52Zm0-6.06h-2v-3h2Zm0-6h-2v-3h2Zm0-6h-2V3h2Z"/><path class="cls-1" d="M60.53,272.76l-1.92-.58a21.37,21.37,0,0,1,.5-2.46l1.94.49C60.82,271.13,60.69,271.76,60.53,272.76Zm1.4-5.34-1.86-.72a23.66,23.66,0,0,1,1.32-2.89l1.76.95A22.25,22.25,0,0,0,61.93,267.42Zm2.77-5.12-1.61-1.18a22.62,22.62,0,0,1,2.06-2.43l1.43,1.4A20.72,20.72,0,0,0,64.7,262.3Zm4.06-4.16-1.24-1.57a27.57,27.57,0,0,1,2.58-1.82l1.06,1.7A25.57,25.57,0,0,0,68.76,258.14Zm5-3.12-.89-1.79c.91-.45,1.87-.88,2.87-1.27l.73,1.86C75.51,254.19,74.6,254.6,73.74,255Zm5.56-2.25-.7-1.87c1-.36,1.89-.74,2.77-1.13l.81,1.83C81.27,252,80.3,252.4,79.3,252.77ZM85,250.22l-1-1.76c.9-.48,1.75-1,2.53-1.52l1.12,1.65A31.43,31.43,0,0,1,85,250.22Zm5.21-3.56-1.32-1.51a17.65,17.65,0,0,0,2-2.06l1.54,1.27A20.88,20.88,0,0,1,90.2,246.66Zm4-5-1.77-.92a10.46,10.46,0,0,0,1-2.61l2,.43A12.54,12.54,0,0,1,94.24,241.65Zm1.35-6.35h-2v-3.05h2Zm0-6.1h-2v-3.06h2Zm0-6.11h-2V220h2Z"/><polygon class="cls-1" points="95.66 216.92 93.59 216.92 93.59 214.42 95.59 214.42 95.66 215.42 95.66 216.92"/><path class="cls-1" d="M131.41,302.29h-2v-2h2Zm0-5.06h-2v-3.05h2Zm0-6.1h-2v-3.05h2Zm0-6.1h-2v-3l2,0V285ZM129.34,279c0-1.07-.11-2-.19-3l2-.18c.09,1,.15,2,.2,3.1Zm-.56-5.95c-.17-1-.37-2-.61-2.89l1.94-.5c.25,1,.47,2,.64,3.07Zm-1.5-5.69a23.62,23.62,0,0,0-1.22-2.64l1.75-1a22.9,22.9,0,0,1,1.33,2.88Zm-2.79-5.09A21.86,21.86,0,0,0,122.6,260l1.42-1.4A23.63,23.63,0,0,1,126.1,261Zm-4.07-4.15a25,25,0,0,0-2.41-1.67l1-1.71a27.83,27.83,0,0,1,2.6,1.81Zm-5-3.1c-.86-.42-1.77-.82-2.72-1.19l.74-1.86c1,.39,2,.81,2.86,1.26Zm-5.56-2.24c-1-.37-2-.76-2.88-1.17l.82-1.83c.87.39,1.8.77,2.76,1.13Zm-5.68-2.56a30,30,0,0,1-2.69-1.64l1.13-1.65c.77.53,1.62,1.05,2.51,1.54ZM99,246.6a20,20,0,0,1-2.23-2.3L98.31,243a17.72,17.72,0,0,0,2,2.07Zm-4-5a12.65,12.65,0,0,1-1.12-3.11l2-.41a11,11,0,0,0,1,2.61Zm.69-6.35h-2v-3h2Zm0-6.1h-2v-3h2Zm0-6.1h-2V220h2Z"/></g></g></svg>