<svg xmlns="http://www.w3.org/2000/svg" viewBox="0 0 304.69 304.69"><defs><style>.cls-1{fill:#3fe0c5;}.cls-2{fill:none;stroke:#3fe0c5;stroke-miterlimit:10;stroke-width:2px;}</style></defs><title>truffle-icon-4</title><g id="Layer_2" data-name="Layer 2"><g id="Layer_2-2" data-name="Layer 2"><path class="cls-1" d="M152.35,2A150.35,150.35,0,0,1,258.66,258.66,150.35,150.35,0,1,1,46,46,149.34,149.34,0,0,1,152.35,2m0-2A152.35,152.35,0,1,0,304.69,152.35,152.35,152.35,0,0,0,152.35,0Z"/><ellipse class="cls-2" cx="152.35" cy="71.01" rx="75.29" ry="22.29"/><path class="cls-2" d="M77.06,71V233.69C77.06,246,110.77,256,152.35,256s75.28-10,75.28-22.28V71"/><path class="cls-1" d="M172.06,191.88a7.31,7.31,0,0,0-.78-14.57H171a7.27,7.27,0,0,0-7,7.54,7.51,7.51,0,0,0,2.08,4.82c-4.42,8.71-11.19,15.08-21.33,20.41a35.12,35.12,0,0,1-21.2,4c-5.85-.78-10.4-3.39-13.27-7.68a19.11,19.11,0,0,1-1-20.16,30.61,30.61,0,0,1,8.85-10.4c-.52-1.69-1.3-4.55-1.69-6.63-18.86,13.65-16.91,32.12-11.19,40.83,4.29,6.51,13,10.54,22.63,10.54a32.1,32.1,0,0,0,7.81-.91C152.29,216.46,164.91,206.57,172.06,191.88Z"/><path class="cls-1" d="M195,175.75c-9.88-11.58-24.45-17.95-41.1-17.95h-2.08a7.14,7.14,0,0,0-6.37-3.9h-.26a7.29,7.29,0,0,0,.26,14.57h.26A7.33,7.33,0,0,0,152,164h2.34a49.54,49.54,0,0,1,27.71,8.46,34.82,34.82,0,0,1,13.78,16.64c2.21,5.47,2.08,10.8-.26,15.35-3.64,6.89-9.75,10.67-17.82,10.67A33.25,33.25,0,0,1,165,212.43c-1.43,1.3-4,3.38-5.85,4.68a40.13,40.13,0,0,0,16.77,4c12.49,0,21.72-6.89,25.23-13.79C205,199.81,204.71,186.8,195,175.75Z"/><path class="cls-1" d="M128.88,194.09a7.3,7.3,0,0,0,7.29,7h.26a7.29,7.29,0,0,0-.26-14.57h-.26a2.28,2.28,0,0,0-.92.13,47.65,47.65,0,0,1-6.76-28.87,34.85,34.85,0,0,1,7.68-20.16c3.77-4.81,11.05-7.15,16-7.28,13.79-.26,19.64,16.91,20,23.8,1.69.39,4.55,1.3,6.5,2-1.56-21.07-14.56-32-27.05-32-11.7,0-22.5,8.45-26.79,20.94-6,16.64-2.08,32.64,5.2,45.26A5.84,5.84,0,0,0,128.88,194.09Z"/></g></g></svg>