<svg xmlns="http://www.w3.org/2000/svg" viewBox="0 0 712.41 616.26"><defs><style>.cls-1{fill:#3fe0c5;opacity:0.3;}</style></defs><title>truffle-accent</title><g id="Layer_2" data-name="Layer 2"><g id="scroll_nav" data-name="scroll nav"><path id="Fill-10" class="cls-1" d="M540.15,242.21c14.93-100.45-75.86-169.4-159.7-200.75C281.54,4.47,151,20.71,79,102.61c-52.83,60.1-49.23,147.47-22.09,218C97.91,427.35,190.64,504.49,298.55,537.79c76.69,23.68,169.41,34,247.14,9C659,510.34,695.92,392.11,672.51,283.83a311.82,311.82,0,0,0-23-67.8c-14.3-30.06-58.16-90.89,2.29-16.8,6.6,8.1,11.84,17,17.45,25.84,12.77,20.08,22.08,42.81,29.43,65.35,33,101.09,7.09,219-84.42,280C544.21,617.16,455.13,622.7,373.83,611c-108.95-15.62-211.69-68.66-283-153.15C25.58,380.66-18.86,269.75,7.94,168.4,27.54,94.22,87.8,38.86,159.88,15.52,251.13-14,351.55-.32,433.78,47.66c41.13,24,78.8,57.17,99.72,100.62a149,149,0,0,1,15,62.82,128.74,128.74,0,0,1-2,26.37c-.57,3.13-7.24,12.05-6.31,4.74"/></g></g></svg>