<svg xmlns="http://www.w3.org/2000/svg" viewBox="0 0 267.53 272.41"><defs><style>.cls-1{fill:#5e464d;}.cls-2{fill:#fff;}.cls-3{fill:#3fe0c5;}.cls-4{fill:#33262a;}.cls-5{fill:#e4a663;}.cls-6{fill:none;stroke:#e4a663;stroke-linecap:round;stroke-linejoin:round;stroke-width:5px;}</style></defs><title>truffle-u-logomark</title><g id="Layer_2" data-name="Layer 2"><g id="Layer_1-2" data-name="Layer 1"><ellipse class="cls-1" cx="156.4" cy="162.91" rx="108.22" ry="109.49"/><path id="Fill-6" class="cls-2" d="M122.37,260c4.43,1.5,19.3,6.35,19.93,1.62.34-2.59-7.46-5.26-18.13-10.89a170.56,170.56,0,0,1-41-30.28A94.18,94.18,0,0,1,55,155C54.05,121.87,67,95.08,88.3,77.81a109.18,109.18,0,0,0-42.45,83.77c-.63,24,6.07,44.15,18.65,62.52a71.27,71.27,0,0,0,13.59,13.37c12,9.13,29.69,17.57,44.28,22.53"/><path id="Fill-8" class="cls-2" d="M266.12,137.81c-6.71-31.55-27.58-53.65-55.47-69.25C232,83.75,262,116,244.31,144.51c-15,22.83-51.51,18.35-71.45,7.54-23.71-12.86-53.42-41.81-24.12-70.11,19-18.31,79.37,2.22,68.7,29.6-6.2,15.91-30.31,12.37-41.16,4.59-8-5.75-14.73-15.62-11.17-25.81,1.15-3.27,1-8.34-3.63-4.61-3.45,2.79-5.18,7.37-5.78,11.64-5,35.69,58.53,63.35,77.39,28.83,9.79-17.93-6.08-43.93-26-54.61-15-8-30.64-13.69-49.78-12.32-30.61,2.19-56.3,21.34-59.52,52.62-3.19,31,17.56,59.06,42,75.79,25.7,17.58,60.31,29.17,92,18.68,28.37-9.4,40.09-42,34.38-68.53"/><path id="Fill-10" class="cls-3" d="M226.2,113.64c3-20.45-15.45-34.49-32.52-40.87-20.14-7.53-46.73-4.23-61.39,12.45-10.76,12.24-10,30-4.5,44.39,8.36,21.73,27.24,37.44,49.21,44.22,15.62,4.82,34.5,6.93,50.33,1.83,23.07-7.42,30.59-31.49,25.82-53.54a63.52,63.52,0,0,0-4.68-13.81c-2.91-6.12-11.84-18.5.47-3.42a55,55,0,0,1,3.55,5.26,59,59,0,0,1,6,13.31c6.71,20.59,1.44,44.6-17.19,57-14.27,9.51-32.41,10.64-49,8.27-22.18-3.18-43.1-14-57.63-31.19-13.28-15.72-22.33-38.31-16.87-58.94,4-15.11,16.26-26.38,30.94-31.13,18.58-6,39-3.23,55.77,6.54,8.37,4.89,16.05,11.64,20.3,20.49a30.22,30.22,0,0,1,3.06,12.79,25.44,25.44,0,0,1-.42,5.37c-.11.64-1.47,2.45-1.28,1"/><polygon class="cls-4" points="170.84 0 105.86 84.72 0 98.63 64.98 13.91 170.84 0"/><path class="cls-4" d="M138.37,38.23l-46,26.56-46,26.57,8.2,24.6s23.64-15.65,62.07-9.16c13.59-36.52,39-49.17,39-49.17Z"/><ellipse class="cls-5" cx="85.48" cy="49.42" rx="6.35" ry="3.47" transform="matrix(0.87, -0.5, 0.5, 0.87, -13.26, 49.36)"/><polyline class="cls-6" points="85.48 49.42 54.88 91.52 54.82 98.43"/><path class="cls-5" d="M71.37,130.13c-4.83-14-7.2-12.11-9.41-21.31a8.88,8.88,0,0,0,.78-3.68c0-4.3-3-7.79-6.64-7.79s-6.64,3.49-6.64,7.79a8.8,8.8,0,0,0,1,4.07c-.81,3.12-1.83,10.65,1.91,23.24,5.11,17.16-6,20.41-6,20.41s5.56,12,11.59,12S76.47,145,71.37,130.13Z"/></g></g></svg>