<svg xmlns="http://www.w3.org/2000/svg" xmlns:xlink="http://www.w3.org/1999/xlink" viewBox="0 0 265.39 282.11"><defs><style>.cls-1{fill:#fff;}.cls-2{mask:url(#mask);}.cls-3{fill:#5e464d;}.cls-4{fill:#3fe0c5;}</style><mask id="mask" x="0" y="23.1" width="265.39" height="259.02" maskUnits="userSpaceOnUse"><g id="mask-4"><polygon id="path-3" class="cls-1" points="0 23.1 265.39 23.1 265.39 282.11 0 282.11 0 23.1"/></g></mask></defs><title>Asset 12</title><g id="Layer_2" data-name="Layer 2"><g id="Layer_1-2" data-name="Layer 1"><polygon id="Fill-12" class="cls-1" points="0 243.25 20.95 243.25 20.95 250.36 14.05 250.36 14.05 281.16 6.73 281.16 6.73 250.36 0 250.36 0 243.25"/><path id="Fill-14" class="cls-1" d="M46.31,258.06H50.6q3.45,0,4.74-.9a3.38,3.38,0,0,0,1.3-3A3.72,3.72,0,0,0,56,252a3.59,3.59,0,0,0-1.72-1.32,13,13,0,0,0-4-.4h-4Zm-7.22-14.82h9.68c4.19,0,7.17.38,8.95,1.12A9.18,9.18,0,0,1,62,248.09a11.33,11.33,0,0,1,1.63,6.16,10.47,10.47,0,0,1-1.8,6.25,10.88,10.88,0,0,1-5.39,3.8l9,16.86H57.53L49,265.1H46.31v16.06H39.09Z"/><g class="cls-2"><path id="Fill-16" class="cls-1" d="M83.77,243.24H91v24.52a12.64,12.64,0,0,0,.56,4.48,4.33,4.33,0,0,0,1.83,2.1,5.78,5.78,0,0,0,3.08.79,5.93,5.93,0,0,0,3.28-.88,4.58,4.58,0,0,0,1.91-2.22,16.69,16.69,0,0,0,.53-5.17V243.24h7.24v22.61a32.88,32.88,0,0,1-.64,7.94,11.27,11.27,0,0,1-2.46,4.27,11.45,11.45,0,0,1-4.19,3.06,14.24,14.24,0,0,1-5.52,1,13.38,13.38,0,0,1-7.18-1.89,11.11,11.11,0,0,1-4.37-4.74c-.87-1.91-1.31-5.11-1.31-9.63Z"/></g><polygon id="Fill-19" class="cls-1" points="131.28 243.25 150.1 243.25 150.1 250.28 138.45 250.28 138.45 257.16 150.1 257.16 150.1 264.1 138.45 264.1 138.45 281.16 131.28 281.16 131.28 243.25"/><polygon id="Fill-21" class="cls-1" points="170.07 243.25 188.89 243.25 188.89 250.28 177.24 250.28 177.24 257.16 188.89 257.16 188.89 264.1 177.24 264.1 177.24 281.16 170.07 281.16 170.07 243.25"/><polygon id="Fill-23" class="cls-1" points="208.8 243.25 216.02 243.25 216.02 274.28 226.53 274.28 226.53 281.16 208.8 281.16 208.8 243.25"/><polygon id="Fill-25" class="cls-1" points="244.7 243.25 265.39 243.25 265.39 250.31 251.86 250.31 251.86 257.16 265.39 257.16 265.39 264.1 251.86 264.1 251.86 274.07 265.39 274.07 265.39 281.16 244.7 281.16 244.7 243.25"/><ellipse class="cls-3" cx="132.53" cy="102.14" rx="100.96" ry="102.14"/><path id="Fill-6" class="cls-1" d="M103,192c4.17,1.3,18.16,5.45,18.63,1,.25-2.42-7.09-4.71-17.17-9.7a158.75,158.75,0,0,1-39-27.24A87.82,87.82,0,0,1,37.53,95.74C35.87,64.88,47.37,39.58,66.81,23A102.19,102.19,0,0,0,48.46,161.86a142.19,142.19,0,0,0,12.67,10.23C72.59,180.31,89.24,187.74,103,192"/><path id="Fill-8" class="cls-1" d="M234.88,78.73c-6.26-29.44-25.72-50.05-51.75-64.61C203,28.29,231.05,58.42,214.53,85c-14,21.29-48.05,17.12-66.65,7-22.12-12-49.83-39-22.5-65.4,17.69-17.08,74,2.07,64.09,27.6-5.78,14.85-28.28,11.55-38.4,4.29-7.46-5.36-13.74-14.57-10.42-24.08,1.07-3.05.92-7.78-3.39-4.3-3.21,2.6-4.83,6.88-5.39,10.86-4.71,33.29,54.6,59.1,72.19,26.89,9.14-16.72-5.66-41-24.29-50.94-14-7.5-28.58-12.77-46.43-11.49-28.56,2-52.53,19.9-55.53,49.08-3,29,16.39,55.1,39.22,70.71,24,16.4,56.26,27.21,85.78,17.43,26.46-8.77,37.39-39.14,32.07-63.93"/><path id="Fill-10" class="cls-4" d="M197.64,56.18C200.48,37.1,183.23,24,167.3,18.05c-18.78-7-43.59-3.94-57.27,11.61-10,11.42-9.35,28-4.19,41.42,7.8,20.27,25.41,34.92,45.91,41.25,14.56,4.5,32.18,6.46,46.94,1.71,21.53-6.93,28.54-29.38,24.09-49.95a59.08,59.08,0,0,0-4.36-12.88c-2.72-5.71-11-17.27.43-3.19a49.7,49.7,0,0,1,3.32,4.91,55.2,55.2,0,0,1,5.59,12.41c6.26,19.2,1.35,41.6-16,53.19-13.31,8.87-30.23,9.93-45.67,7.71-20.7-3-40.21-13-53.77-29.09-12.38-14.67-20.83-35.74-15.74-55,3.73-14.09,15.17-24.61,28.87-29,17.33-5.61,36.4-3,52,6.11,7.82,4.55,15,10.85,18.95,19.11a28.35,28.35,0,0,1,2.85,11.93,24.73,24.73,0,0,1-.39,5c-.11.6-1.38,2.29-1.2.9"/></g></g></svg>