<svg xmlns="http://www.w3.org/2000/svg" viewBox="0 0 504.71 517.69"><defs><style>.cls-1{fill:#5e464d;}.cls-2{fill:#fff;}.cls-3{fill:#3fe0c5;}.cls-4{fill:#33262a;}.cls-5{fill:none;stroke:#3fe0c5;stroke-linecap:round;stroke-linejoin:round;stroke-width:5px;}</style></defs><title>truffle-u-logomark</title><g id="Layer_2" data-name="Layer 2"><g id="Layer_1-2" data-name="Layer 1"><ellipse class="cls-1" cx="295.06" cy="311.12" rx="204.17" ry="206.57"/><path id="Fill-6" class="cls-2" d="M230.85,494.28c8.36,2.84,36.43,12,37.6,3.05.65-4.89-14.07-9.91-34.19-20.53a321.92,321.92,0,0,1-77.36-57.14c-25.5-25.47-51.65-65.59-53.23-123.49-1.7-62.49,22.74-113,62.92-145.6a206,206,0,0,0-80.09,158C85.31,353.8,98,391.89,121.69,426.54a133.67,133.67,0,0,0,25.64,25.24c22.73,17.22,56,33.13,83.52,42.5"/><path id="Fill-8" class="cls-2" d="M502.06,263.77c-12.67-59.54-52-101.22-104.66-130.66,40.24,28.66,96.9,89.58,63.51,143.3-28.33,43.07-97.17,34.62-134.8,14.22-44.73-24.27-100.78-78.88-45.49-132.26,35.77-34.55,149.72,4.18,129.6,55.83-11.7,30-57.18,23.34-77.66,8.65-15.09-10.83-27.78-29.46-21.06-48.69,2.16-6.16,1.84-15.74-6.86-8.69-6.5,5.26-9.77,13.91-10.91,22-9.52,67.33,110.43,119.52,146,54.38,18.47-33.81-11.45-82.87-49.12-103-28.38-15.17-57.8-25.82-93.91-23.24-57.74,4.12-106.22,40.25-112.29,99.26-6,58.56,33.13,111.42,79.31,143,48.49,33.16,113.78,55,173.48,35.24,53.51-17.73,75.62-79.15,64.86-129.28"/><path id="Fill-10" class="cls-3" d="M426.74,218.17c5.74-38.58-29.14-65.07-61.35-77.11-38-14.22-88.15-8-115.82,23.49-20.29,23.08-18.91,56.65-8.48,83.74,15.77,41,51.39,70.64,92.84,83.43,29.46,9.09,65.08,13.06,94.94,3.45,43.53-14,57.71-59.41,48.72-101a120,120,0,0,0-8.83-26c-5.49-11.54-22.34-34.91.88-6.45a101.6,101.6,0,0,1,6.71,9.93,110.88,110.88,0,0,1,11.3,25.1c12.66,38.84,2.72,84.14-32.43,107.57-26.92,17.95-61.14,20.08-92.37,15.6-41.86-6-81.32-26.38-108.73-58.83-25.05-29.67-42.12-72.28-31.83-111.21,7.53-28.5,30.68-49.77,58.37-58.73,35-11.35,73.63-6.08,105.22,12.35,15.8,9.21,30.27,22,38.3,38.65A57.08,57.08,0,0,1,430,206.22a49.12,49.12,0,0,1-.79,10.13c-.22,1.21-2.78,4.63-2.42,1.82"/><polygon class="cls-4" points="322.3 0 199.71 159.83 0 186.08 122.58 26.25 322.3 0"/><path class="cls-4" d="M261,72.12l-86.81,50.11L87.42,172.35l15.48,46.42S147.5,189.25,220,201.49c25.64-68.9,73.51-92.76,73.51-92.76Z"/><ellipse class="cls-3" cx="161.26" cy="93.24" rx="11.98" ry="6.54" transform="translate(-25.01 93.12) rotate(-30)"/><polyline class="cls-5" points="161.26 93.24 103.53 172.66 103.42 185.7"/><path class="cls-3" d="M134.64,245.5c-9.11-26.5-13.59-22.85-17.75-40.21a16.73,16.73,0,0,0,1.48-6.93c0-8.13-5.61-14.71-12.53-14.71s-12.53,6.58-12.53,14.71A16.56,16.56,0,0,0,95.17,206c-1.53,5.89-3.46,20.09,3.6,43.85,9.62,32.37-11.37,38.49-11.37,38.49s10.5,22.75,21.87,22.75S144.27,273.5,134.64,245.5Z"/></g></g></svg>