<svg xmlns="http://www.w3.org/2000/svg" viewBox="0 0 160.16 160.16"><title>truffle-teams-logomark</title><g id="Layer_2" data-name="Layer 2"><g id="Layer_1-2" data-name="Layer 1"><path d="M35.55,127.41a64.49,64.49,0,0,1-6.12-3.16A41,41,0,0,0,32,129.43q1.76,1.32,3.61,2.5a67.11,67.11,0,0,0,6.45,3.68c-1.91-2.18-3.74-4.43-5.46-6.73C36.24,128.4,35.91,127.9,35.55,127.41Z" fill="#e3a663"/><path d="M148.89,65.31A68,68,0,0,1,153.33,76a44.17,44.17,0,0,0,.08-6.71,36.14,36.14,0,0,0-8-20.18c.23,1.56.4,3.13.54,4.71A41.85,41.85,0,0,1,148.89,65.31Z" fill="#e3a663"/><path d="M144.59,87.63c-.43.83-.88,1.64-1.35,2.46,0,2.54-.08,5.09-.3,7.64q-.25,3-.72,6a61.42,61.42,0,0,0,5.66-9.11,59,59,0,0,0-1.78-10.33C145.65,85.42,145.15,86.53,144.59,87.63Z" fill="#e3a663"/><path d="M127.45,123.25c-1.16.7-2.33,1.36-3.53,2-.82,1-1.65,2-2.52,3,1.88-1.18,3.71-2.44,5.51-3.74.11-.23.22-.47.32-.71S127.37,123.42,127.45,123.25Z" fill="#e3a663"/><path d="M69.48,143.57q2.33,0,4.65-.12c-2.94-.71-5.84-1.54-8.7-2.51C66.76,141.87,68.1,142.75,69.48,143.57Z" fill="#e3a663"/><path d="M80.93,132.47c-.34.06-.67.13-1,.18a100.79,100.79,0,0,0,20.59,1.91c.82-.62,1.62-1.26,2.4-1.91A51.71,51.71,0,0,1,80.93,132.47Z" fill="#e3a663"/><path d="M88,130.83a61.06,61.06,0,0,0,20.41-3.18,81.3,81.3,0,0,0,9.34-11.18,117.94,117.94,0,0,1-12.11,7.36A87,87,0,0,1,88,130.83Z" fill="#e3a663"/><path d="M145.91,53.77c-.14-1.58-.31-3.15-.54-4.71l-.47-.58c.22,1.39.4,2.78.53,4.17C145.6,53,145.75,53.39,145.91,53.77Z" fill="#e3a663"/><path d="M143.6,76.75q-.4,1.69-.9,3.36c.23,2.07.36,4.15.45,6.24.57-2.29,1-4.6,1.46-6.93q-.35-1-.72-2C143.8,77.22,143.7,77,143.6,76.75Z" fill="#dae7a2"/><path d="M132.4,43.35c1.44,1.49,2.85,3,4.19,4.6,1.21,1.43,2.38,2.92,3.52,4.45a61.08,61.08,0,0,0-2.89-11.46A60.39,60.39,0,0,0,130,36c.45,1.1.88,2.22,1.26,3.39S132.07,42,132.4,43.35Z" fill="#dae7a2"/><path d="M81.53,144.94q-2.82,1-5.76,1.8a40.72,40.72,0,0,0,6.06,2c1-.16,1.93-.34,2.89-.55a68.83,68.83,0,0,0,7.28-2c-2.82-.19-5.63-.48-8.39-.88C82.91,145.18,82.22,145.05,81.53,144.94Z" fill="#dae7a2"/><path d="M129.36,92.55a88.19,88.19,0,0,1-6.93,16.38,63.42,63.42,0,0,0,11.09-16,80.82,80.82,0,0,0-1.1-12.61A117.56,117.56,0,0,1,129.36,92.55Z" fill="#dae7a2"/><path d="M128.07,25a44.76,44.76,0,0,0-4.38-4.44,35.89,35.89,0,0,0-19.08-8.47c.87.65,1.71,1.32,2.55,2a41.75,41.75,0,0,1,12.33,7.27c.21.18.41.38.62.57a78.08,78.08,0,0,1,8.37,3.55Z" fill="#dae7a2"/><path d="M118.2,115.82l-.44.65a81.3,81.3,0,0,1-9.34,11.18,77.94,77.94,0,0,0,8.45-3.27,64.32,64.32,0,0,0,13.2-8.13,74.61,74.61,0,0,0,2.79-12.52c.14-1.08.26-2.16.35-3.24A52.85,52.85,0,0,1,118.2,115.82Z" fill="#dae7a2"/><path d="M107.82,131.55c-1.61.42-3.25.79-4.91,1.1-.78.65-1.58,1.29-2.4,1.91a75.46,75.46,0,0,0,11.3-1c1.9-.32,3.79-.7,5.63-1.18,1.36-1.35,2.69-2.73,4-4.16.87-1,1.7-2,2.52-3A76,76,0,0,1,107.82,131.55Z" fill="#dae7a2"/><path d="M90.33,16.74c2.42,0,4.84.08,7.26.29q2.82.24,5.66.66a61.93,61.93,0,0,0-9.7-5.86,60.38,60.38,0,0,0-9.64,1.68c1.13.46,2.26,1,3.39,1.55S89.33,16.15,90.33,16.74Z" fill="#3fe0c5"/><path d="M128.94,40c-1.42-2.36-2.94-4.65-4.55-6.89l-.76-.35-.71-.3c.88,1.45,1.71,2.92,2.48,4.43C126.61,37.87,127.78,38.91,128.94,40Z" fill="#3fe0c5"/><path d="M130.66,72.23a60.38,60.38,0,0,0-3-19.86,81.24,81.24,0,0,0-10.62-9.14A120,120,0,0,1,123.5,54,87.09,87.09,0,0,1,130.66,72.23Z" fill="#3fe0c5"/><path d="M134.45,118.5a73.57,73.57,0,0,1-7,4.75c-.08.17-.14.34-.22.51s-.21.48-.32.71a62.6,62.6,0,0,1-3,5.74,40.48,40.48,0,0,0,6.15-3.18c.58-.82,1.15-1.64,1.7-2.48a68,68,0,0,0,4-7.07Q135.11,118,134.45,118.5Z" fill="#3fe0c5"/><path d="M75.32,6.79a44.79,44.79,0,0,0-6.24,0,36.05,36.05,0,0,0-19.93,7.84c1.06-.15,2.11-.28,3.17-.38A42.19,42.19,0,0,1,66,10.65l.71,0a80.83,80.83,0,0,1,9.46-3.74Z" fill="#3fe0c5"/><path d="M134.39,60.24c-.58-.79-1.17-1.56-1.78-2.32a51.33,51.33,0,0,1-.35,21.45c.06.33.11.65.16,1A80.82,80.82,0,0,1,133.52,93a77.07,77.07,0,0,0,3.31-7.6,64,64,0,0,0,3.63-15.46A73.32,73.32,0,0,0,134.39,60.24Z" fill="#3fe0c5"/><path d="M143.15,86.35c-.09-2.09-.22-4.17-.45-6.24a75.33,75.33,0,0,1-7.2,16.72c-.72,1.24-1.49,2.46-2.29,3.66-.09,1.08-.21,2.16-.35,3.24a74.61,74.61,0,0,1-2.79,12.52l.7-.57a67.63,67.63,0,0,0,9-8.83c1.74-6.41,3.14-13.72,2.14-2.67l.31-.42q.47-3,.72-6c.22-2.55.3-5.1.3-7.64C143.24,88.84,143.2,87.59,143.15,86.35Z" fill="#3fe0c5"/><path d="M42.08,27.89c-1.39,1.38-2.75,2.79-4,4.25a103.32,103.32,0,0,1,9.76-5.44C45.86,27,44,27.4,42.08,27.89Z" fill="#e3a663"/><path d="M145.43,52.65c-.13-1.39-.31-2.78-.53-4.17a48.41,48.41,0,0,0-5-5.25c-.87-.79-1.77-1.56-2.69-2.29a61.08,61.08,0,0,1,2.89,11.46c.63.86,1.26,1.73,1.87,2.62.44.53.9,1.09,1.4,1.72a33.46,33.46,0,0,1,2.35,3.34A70.89,70.89,0,0,0,145.43,52.65Z" fill="#e3a663"/><path d="M141.39,71.73q-.45-.92-.93-1.83a64,64,0,0,1-3.63,15.46,77.07,77.07,0,0,1-3.31,7.6,63.42,63.42,0,0,1-11.09,16c-1.3,2.37-2.72,4.67-4.23,6.89a52.85,52.85,0,0,0,15-15.33c.8-1.2,1.57-2.42,2.29-3.66a75.33,75.33,0,0,0,7.2-16.72q.5-1.67.9-3.36C142.92,75,142.19,73.37,141.39,71.73Z" fill="#e3a663"/><path d="M27,56.23a74.73,74.73,0,0,0-8.67,10.66c-.64,2-1.2,4-1.71,6Q15.55,77,14.83,81.14c.2.57.41,1.13.62,1.69.12.31.25.61.37.92.88,2.2,1.86,4.33,2.94,6.41l.24.45a72.09,72.09,0,0,0,6.09,9.63,101.4,101.4,0,0,1,2.15-21.17C28,75.18,29,71.38,30.12,67.75a87.52,87.52,0,0,1,6.93-16.38c1.3-2.37,2.72-4.67,4.23-6.89l.41-.61A100.27,100.27,0,0,0,27,56.23Z" fill="#e3a663"/><path d="M124.38,12.45a43.63,43.63,0,0,0-14.84-7.18,52.34,52.34,0,0,0-14.16-1.7c-1.7,0-3.39.12-5.08.29l-.33,0a68.27,68.27,0,0,0-13.83,3,80.83,80.83,0,0,0-9.46,3.74c-2,1-4,2-5.89,3.06l-.41.24h0q3.54,0,7,.24c2.79.19,5.56.48,8.29.87.72.1,1.44.24,2.17.36,2-.71,4-1.34,6-1.87a60.38,60.38,0,0,1,9.64-1.68c1.61-.14,3.23-.21,4.84-.2a48.36,48.36,0,0,1,5.78.37l.44.07a35.89,35.89,0,0,1,19.08,8.47A44.76,44.76,0,0,1,128.07,25l.41.49A69.48,69.48,0,0,1,138,31.12c.85.6,1.69,1.21,2.5,1.85A50.51,50.51,0,0,0,124.38,12.45Z" fill="#e3a663"/><path d="M99.06,146.39c-2.36,0-4.72-.07-7.06-.23a68.83,68.83,0,0,1-7.28,2c-1,.21-1.93.39-2.89.55a62.86,62.86,0,0,1-13.24.82,58.3,58.3,0,0,1-7.51-.86,50.22,50.22,0,0,1-7.55-2l-.59-.21a42,42,0,0,1-13-7.52,70.68,70.68,0,0,1-8.59-3.64l-.75-.37a60.17,60.17,0,0,1-9.13-5.74c-.91-.69-1.8-1.41-2.66-2.15l-.59-.5.12.3a52.74,52.74,0,0,0,4.73,8.81,45.32,45.32,0,0,0,12,12.21,52,52,0,0,0,29,8.88c1.87,0,3.74,0,5.62-.2l.36,0a59.5,59.5,0,0,0,13.22-2.71l.9-.3a67.81,67.81,0,0,0,9.26-3.82q2-1,3.9-2.2c.44-.29.89-.57,1.33-.84l.37-.24Z" fill="#e3a663"/><path d="M29.43,124.25c-.45-1.08-.87-2.2-1.25-3.36s-.74-2.5-1.06-3.77c-1.5-1.54-3-3.12-4.37-4.77-1.15-1.36-2.26-2.77-3.35-4.23-.69-.93-1.37-1.87-2-2.84q-1.9-2.77-3.62-5.73c-.16-.28-.33-.55-.49-.84v1q0,3.39.3,6.77c.15.38.31.75.47,1.11a50.5,50.5,0,0,0,5.57,9.52c1,1.41,2.16,2.77,3.34,4.09A61.09,61.09,0,0,0,32,129.43,41,41,0,0,1,29.43,124.25Z" fill="#e3a663"/><path d="M143.24,90.09c0,2.69-2,10.94-2,10.94h0c-.42,1.61-.94,3.76-1.5,5.82.52-.63,1-1.27,1.53-1.91l-.09,1.31s-.33,3,1-2.49S143.19,87.39,143.24,90.09Z" fill="#dae7a2"/><path d="M147.88,94.65a61.42,61.42,0,0,1-5.66,9.11l-.31.42c-.69.91-1.41,1.8-2.14,2.67a67.63,67.63,0,0,1-9,8.83l-.7.57a64.32,64.32,0,0,1-13.2,8.13,77.94,77.94,0,0,1-8.45,3.27A61.06,61.06,0,0,1,88,130.83q-3.51,1-7.08,1.64a51.71,51.71,0,0,0,22,.18c1.66-.31,3.3-.68,4.91-1.1a76,76,0,0,0,16.1-6.31c1.2-.63,2.37-1.29,3.53-2a73.57,73.57,0,0,0,7-4.75q.66-.5,1.29-1,2.26-1.82,4.38-3.81l.53-.48a72,72,0,0,0,5.06-5.42c.2-.5.39-1,.57-1.52a47.21,47.21,0,0,0,1.75-6.19A51.44,51.44,0,0,0,147.88,94.65Z" fill="#e86591"/><path d="M154.21,48.44a54.54,54.54,0,0,0-13.12-15l-.58-.46c-.81-.64-1.65-1.25-2.5-1.85a69.48,69.48,0,0,0-9.53-5.65,78.08,78.08,0,0,0-8.37-3.55c-2.25-.82-4.54-1.53-6.85-2.14l-.19-.05q-1.56-.42-3.12-.78c-2.23-.51-4.47-.92-6.7-1.26q-2.84-.42-5.66-.66c-2.42-.21-4.84-.29-7.26-.29-1.7,0-3.4,0-5.09.12Q90.1,18,94.82,19.67a98.9,98.9,0,0,1,20.91,10.11l.13,0a73.11,73.11,0,0,1,7.06,2.62l.71.3.76.35C126.3,34,128.19,35,130,36a60.39,60.39,0,0,1,7.18,4.92c.92.73,1.82,1.5,2.69,2.29a48.41,48.41,0,0,1,5,5.25l.47.58a36.14,36.14,0,0,1,8,20.18,44.17,44.17,0,0,1-.08,6.71c0,.13.09.26.13.39a59.9,59.9,0,0,1,2.68,12.91c0,.45.08.89.11,1.34C161.8,77,161.72,61.35,154.21,48.44Z" fill="#e86591"/><path d="M59,25.74a78.07,78.07,0,0,0-11.18,1A103.32,103.32,0,0,0,38,32.14q-2.55,1.61-5,3.38c-.59.42-1.18.82-1.76,1.26-2.12,1.58-4.2,3.26-6.22,5l-.88.76q-2.36,2.09-4.57,4.31l-.52.52a85.09,85.09,0,0,0-6.15,7,49.75,49.75,0,0,0-1.63,5.83,51.58,51.58,0,0,0,.18,5.69,59.79,59.79,0,0,0,1.82,10.29c.48-1.19,1-2.37,1.61-3.55.52-1,1.07-2,1.65-3s1.14-1.88,1.75-2.8A74.73,74.73,0,0,1,27,56.23a100.27,100.27,0,0,1,14.7-12.36,119.15,119.15,0,0,1,12.17-7.4,86.8,86.8,0,0,1,17.64-7q3.51-1,7.08-1.64l.91-.17A101.48,101.48,0,0,0,59,25.74Z" fill="#e86591"/><path d="M53.08,139.87c-1.33-.36-2.61-.74-3.66-1.12a64.3,64.3,0,0,1-7-3l-.34-.17a67.11,67.11,0,0,1-6.45-3.68q-1.86-1.19-3.61-2.5a61.09,61.09,0,0,1-9.07-8.27c-1.18-1.32-2.3-2.68-3.34-4.09A50.5,50.5,0,0,1,14,107.55c-.16-.36-.32-.73-.47-1.11a41.53,41.53,0,0,1-2.9-11.09q-.12-1-.18-2a80.1,80.1,0,0,1-4.15-10.5,68.92,68.92,0,0,1-2.7-12.54c-.14.36-.26.71-.39,1.07A52.81,52.81,0,0,0,.89,79.51c-3.62,18.09,4.11,35.38,17.36,47l.59.5c.86.74,1.75,1.46,2.66,2.15a60.17,60.17,0,0,0,9.13,5.74l.75.37A70.68,70.68,0,0,0,40,138.93,47.9,47.9,0,0,0,45,140.38l1.73.39.2,0c.86.19,1.72.37,2.59.53.68.12,1.37.23,2.06.3,1.63.17,3,.3,4.19.41C67.24,143.1,59.58,141.65,53.08,139.87Z" fill="#e86591"/><path d="M127.15,141l.7-.32-.7.32Z" fill="#e13dc2"/><path d="M127.07,141l.08,0h0Z" fill="#e13dc2"/><path d="M43.1,117.65l.06,0-.26-.38Z" fill="#e13dc2"/><path d="M125.73,141.58c-.74.3-1.49.6-2.24.87C124.24,142.17,125,141.88,125.73,141.58Z" fill="#e13dc2"/><path d="M93.28,26.45A79.18,79.18,0,0,0,85,22.81a64.34,64.34,0,0,0-15.68-3.65l-.25,0A67.22,67.22,0,0,0,56.57,19c-1.14.09-2.27.22-3.39.37-.49.06-1,.14-1.47.22a60.91,60.91,0,0,0-10.29,2.54q-1.35.46-2.67,1A50.8,50.8,0,0,0,25.84,30.6c-.4.32-.8.64-1.19,1A43.69,43.69,0,0,0,20.21,36a36,36,0,0,0-8.49,19.17c0,.35-.09.7-.13,1-.15,1.34-.24,2.7-.28,4.06a49.75,49.75,0,0,1,1.63-5.83c.17-.51.35-1,.55-1.51a41.64,41.64,0,0,1,7.45-12.49c.37-.43.75-.85,1.14-1.27a38.61,38.61,0,0,1,8-6.39A41.21,41.21,0,0,1,36,29.84c.9-.36,1.82-.7,2.76-1s2.19-.67,3.3-.95C44,27.4,45.86,27,47.79,26.7a78.07,78.07,0,0,1,11.18-1,101.48,101.48,0,0,1,20.52,1.92,118.2,118.2,0,0,1,12.43,3.11A87.22,87.22,0,0,1,110,38.68,61.34,61.34,0,0,0,93.28,26.45Z" fill="#e13dc2"/><path d="M60.41,13.92h0Z" fill="#e13dc2"/><path d="M148.29,77.28c-.14-.79-.29-1.57-.46-2.35A69.5,69.5,0,0,0,146,68.14c-.19-.59-.4-1.17-.61-1.74a61.41,61.41,0,0,0-2.48-6.05c-.6-1.27-1.45-2.8-2.33-4.31-3.15-5.42-6.63-10.64-.38-3.18,0-.16-.05-.31-.07-.46-1.14-1.53-2.31-3-3.52-4.45-1.34-1.59-2.75-3.11-4.19-4.6q-1.69-1.74-3.46-3.37c-1.16-1.07-2.33-2.11-3.54-3.11a93.38,93.38,0,0,0-9.47-7l-.2-.12A98.9,98.9,0,0,0,94.82,19.67Q90.11,18,85.24,16.86c-2.42-.59-4.87-1.07-7.33-1.48-.73-.12-1.45-.26-2.17-.36-2.73-.39-5.5-.68-8.29-.87q-3.49-.24-7-.24h0c2.16,0,4.32.19,6.48.43A74.85,74.85,0,0,1,76.27,16c1.47.36,2.92.77,4.37,1.21A76.23,76.23,0,0,1,96.5,24.14c1.42.83,2.82,1.72,4.18,2.65a51.51,51.51,0,0,1,15.56,15.86l.82.58a81.24,81.24,0,0,1,10.62,9.14c1.73,1.77,3.38,3.62,4.93,5.55.61.76,1.2,1.53,1.78,2.32a73.32,73.32,0,0,1,6.07,9.66q.48.91.93,1.83c.8,1.64,1.53,3.31,2.21,5,.1.24.2.47.29.72q.38,1,.72,2c.55,1.6,1,3.24,1.49,4.9a59,59,0,0,1,1.78,10.33,51.44,51.44,0,0,1,.15,5.41,54.35,54.35,0,0,0,1.12-8.12A61.92,61.92,0,0,0,148.29,77.28Z" fill="#e13dc2"/><path d="M156.25,90.59c0-.45-.07-.89-.11-1.34a59.9,59.9,0,0,0-2.68-12.91c0-.13-.08-.26-.13-.39a68,68,0,0,0-4.44-10.64c-.55-1-1.13-2-1.75-3l-.92-1.45c-.16-.26-.32-.51-.49-.76a33.46,33.46,0,0,0-2.35-3.34l-.85-1.05h0c-.8-2.15-10.21-12.65-9.14-11.3S137,49.83,137,49.83h0c.59,1.17,2.13,3.67,3.61,6.21.88,1.51,1.73,3,2.33,4.31a61.41,61.41,0,0,1,2.48,6.05c.21.57.42,1.15.61,1.74a69.5,69.5,0,0,1,1.85,6.79c.17.78.32,1.56.46,2.35a61.92,61.92,0,0,1,.86,14.66,54.35,54.35,0,0,1-1.12,8.12,47.21,47.21,0,0,1-1.75,6.19c-.18.51-.37,1-.57,1.52A42.11,42.11,0,0,1,139.16,119c-.36.44-.74.87-1.12,1.3a38,38,0,0,1-8,6.73,40.48,40.48,0,0,1-6.15,3.18c-1.09.46-2.2.88-3.36,1.25s-2.07.64-3.12.91c-1.84.48-3.73.86-5.63,1.18a75.46,75.46,0,0,1-11.3,1,100.79,100.79,0,0,1-20.59-1.91,120.16,120.16,0,0,1-12.5-3.12,87.14,87.14,0,0,1-18.1-7.91c-2.11-1.22-4.17-2.53-6.16-3.93l-.06,0a81.08,81.08,0,0,1-10.77-9q-2.62-2.64-5-5.52c-.77-.93-1.52-1.88-2.24-2.85A72.09,72.09,0,0,1,19,90.61l-.24-.45c-1.08-2.08-2.06-4.21-2.94-6.41-.12-.31-.25-.61-.37-.92-.21-.56-.42-1.12-.62-1.69-.57-1.61-1.08-3.26-1.52-4.92a59.79,59.79,0,0,1-1.82-10.29,51.58,51.58,0,0,1-.18-5.69c0-1.36.13-2.72.28-4.06,0-.35.09-.7.14-1A35.87,35.87,0,0,1,20.21,36a43.69,43.69,0,0,1,4.44-4.38c.39-.34.79-.66,1.19-1a50.8,50.8,0,0,1,12.91-7.47q1.32-.52,2.67-1A60.91,60.91,0,0,1,51.71,19.6c.49-.08,1-.16,1.47-.22,1.12-.15,2.25-.28,3.39-.37a67.22,67.22,0,0,1,12.53.13l.25,0A64.34,64.34,0,0,1,85,22.81a79.18,79.18,0,0,1,8.25,3.64A61.34,61.34,0,0,1,110,38.68c2.13,1.24,4.21,2.55,6.21,4a51.51,51.51,0,0,0-15.56-15.86c-1.36-.93-2.76-1.82-4.18-2.65a76.23,76.23,0,0,0-15.86-6.93c-1.45-.44-2.9-.85-4.37-1.21a74.85,74.85,0,0,0-9.38-1.65c-2.16-.24-4.32-.39-6.48-.43H58.74c-2.15,0-4.29.09-6.42.29-1.06.1-2.11.23-3.17.38a68.59,68.59,0,0,0-9.82,2.14l-.28.08c-.48.14-1,.27-1.44.42s-1,.34-1.44.51l-.31.12c-.76.26-1.5.56-2.24.86l-.11.05L32.9,19l-.62.26-.78.36A50.9,50.9,0,0,0,13.82,33.09a44.07,44.07,0,0,0-8.88,17,47.17,47.17,0,0,0-1,5,55.84,55.84,0,0,0-.4,14c0,.41.09.81.13,1.22a68.92,68.92,0,0,0,2.7,12.54,80.1,80.1,0,0,0,4.15,10.5q1.29,2.73,2.78,5.34c.16.29.33.56.49.84q1.71,3,3.62,5.73c.66,1,1.34,1.91,2,2.84,1.09,1.46,2.2,2.87,3.35,4.23,1.4,1.65,2.87,3.23,4.37,4.77s2.82,2.81,4.3,4.14q1.63,1.47,3.34,2.86a97.52,97.52,0,0,0,8.69,6.3l.89.55a99.27,99.27,0,0,0,21.09,10c2.86,1,5.76,1.8,8.7,2.51,2.44.59,4.91,1.08,7.4,1.49.69.11,1.38.24,2.08.34,2.76.4,5.57.69,8.39.88,2.34.16,4.7.24,7.06.23h1.55c2.43,0,4.85-.21,7.26-.46,1-.11,2-.23,3-.38a67.87,67.87,0,0,0,9.16-2l.27-.08c1-.29,1.93-.6,2.89-.93l.31-.11c.75-.27,1.5-.57,2.24-.87.25-.11.51-.2.77-.3l.57-.26.08,0,.7-.32a51,51,0,0,0,17.68-13.45,49.45,49.45,0,0,0,9.92-22A57.22,57.22,0,0,0,156.25,90.59Z" fill="#3fe0c5"/><path d="M16.61,72.85c.51-2,1.07-4,1.71-6-.61.92-1.2,1.85-1.75,2.8C16.56,70.74,16.57,71.8,16.61,72.85Z" fill="#dae7a2"/><path d="M33,35.52a64,64,0,0,1,3-5.68,41.21,41.21,0,0,0-5.92,2.91,38.61,38.61,0,0,0-8,6.39q-1.3,3.53-2.31,7.14c-.05.19-.1.39-.16.59q2.22-2.22,4.57-4.31l.88-.76c2-1.76,4.1-3.44,6.22-5C31.86,36.34,32.45,35.94,33,35.52Z" fill="#dae7a2"/><path d="M43.1,117.65l-.2-.34a119.55,119.55,0,0,1-6.6-11,87.09,87.09,0,0,1-7.16-18.23q-1-3.54-1.6-7.14-.16-.93-.3-1.86a101.4,101.4,0,0,0-2.15,21.17c.72,1,1.47,1.92,2.24,2.85q2.37,2.88,5,5.52A81.08,81.08,0,0,0,43.1,117.65Z" fill="#dae7a2"/><path d="M126.5,141.28c-.26.1-.52.19-.77.3-.74.3-1.49.59-2.24.87l-.31.11c-1,.33-1.92.64-2.89.93l-.27.08a67.87,67.87,0,0,1-9.16,2c-1,.15-2,.27-3,.38l-.21.09a41.9,41.9,0,0,1-14.2,3.66,67.81,67.81,0,0,1-9.26,3.82l-.9.3a59.5,59.5,0,0,1-13.22,2.71,53.76,53.76,0,0,0,9.26,2.77c15.26,3,29.94-2,41.15-11.56a58,58,0,0,0,6.66-6.73l-.08,0Z" fill="#dae7a2"/><path d="M81.83,148.71a40.72,40.72,0,0,1-6.06-2c-1.09-.45-2.18-.94-3.26-1.5s-2-1.08-3-1.67c-1.37-.82-2.71-1.7-4-2.63a99.27,99.27,0,0,1-21.09-10l-.89-.55a97.52,97.52,0,0,1-8.69-6.3q-1.71-1.4-3.34-2.86c1.29,2.1,2.68,4.14,4.13,6.15.36.49.69,1,1.06,1.47,1.72,2.3,3.55,4.55,5.46,6.73l.34.17a64.3,64.3,0,0,0,7,3c1,.38,2.33.76,3.66,1.12,6.5,1.78,14.16,3.23,2.73,2.19-1.19-.11-2.56-.24-4.19-.41-.69-.07-1.38-.18-2.06-.3-.87-.16-1.73-.34-2.59-.53,2.09,2.05,4.28,4,6.56,5.84a50.22,50.22,0,0,0,7.55,2,58.3,58.3,0,0,0,7.51.86A62.86,62.86,0,0,0,81.83,148.71Z" fill="#dae7a2"/><path d="M35.86,17.86l.31-.12c.48-.17.95-.35,1.44-.51s1-.28,1.44-.42l.28-.08a68.59,68.59,0,0,1,9.82-2.14A36.05,36.05,0,0,1,69.08,6.75a44.79,44.79,0,0,1,6.24,0l.82.08A68.27,68.27,0,0,1,90,3.89l.33,0L90,3.75C76.51-1.64,61.06-1.49,48.27,6a51.86,51.86,0,0,0-9,6.64,57.28,57.28,0,0,0-5.79,6.17h0l.11-.05C34.36,18.42,35.1,18.13,35.86,17.86Z" fill="#dae7a2"/><path d="M130.66,72.23q1,3.54,1.6,7.14a51.33,51.33,0,0,0,.35-21.45c-1.55-1.93-3.2-3.78-4.93-5.55A60.38,60.38,0,0,1,130.66,72.23Z" fill="#dae7a2"/><path d="M135.74,117.48a68,68,0,0,1-4,7.07c-.55.84-1.12,1.66-1.7,2.48a38,38,0,0,0,8-6.73c.38-.43.76-.86,1.12-1.3.4-1.29.76-2.58,1.05-3.88.14-.65.29-1.29.44-1.93l-.53.48Q138,115.67,135.74,117.48Z" fill="#dae7a2"/><path d="M110,19q1.56.36,3.12.78l.19.05-.15-.17a70.8,70.8,0,0,0-6-5.53c-.84-.69-1.68-1.36-2.55-2l-.44-.07a48.36,48.36,0,0,0-5.78-.37c-1.61,0-3.23.06-4.84.2a61.93,61.93,0,0,1,9.7,5.86C105.48,18,107.72,18.44,110,19Z" fill="#dae7a2"/><path d="M125.4,36.87c-.77-1.51-1.6-3-2.48-4.43a73.11,73.11,0,0,0-7.06-2.62l-.13,0,.2.12A93.38,93.38,0,0,1,125.4,36.87Z" fill="#dae7a2"/></g></g></svg>