<svg id="Layer_1" data-name="Layer 1" xmlns="http://www.w3.org/2000/svg" xmlns:xlink="http://www.w3.org/1999/xlink" viewBox="0 0 1860 1160"><defs><style>.cls-1{fill:none;}.cls-2{clip-path:url(#clip-path);}.cls-3{clip-path:url(#clip-path-2);}.cls-4{fill:#e0e0e0;}.cls-5{fill:#fff;}</style><clipPath id="clip-path"><rect class="cls-1" x="322.48" y="233.07" width="1152.17" height="693.87"/></clipPath><clipPath id="clip-path-2"><rect class="cls-1" x="322.48" y="233.06" width="1152.17" height="693.87"/></clipPath></defs><title>art12-tob</title><g id="Trail_of_Bits" data-name="Trail of Bits"><g class="cls-2"><g class="cls-3"><path class="cls-4" d="M828.66,440.31c19.32,0,36.34-.43,53.33.18,8.39.3,11-2.13,10.94-10.74-.19-36.06,3.23-71.95,6.23-107.86.85-10.17,3-15.42,15-10.49,14.25,5.84,33.81,5.81,42.64,15.79,9.07,10.25,2.07,29.63,1.84,45-.89,58.53-2.6,117-3.5,175.58-.15,9.37-2.1,13.35-12.45,12.76-16-.92-32-.51-48-.12-6.64.16-8.71-2.07-8.3-8.62,1-16.47,1.14-33,2.41-49.46.64-8.41-1.67-11.33-10.45-11.11q-33,.87-66.05,0c-7.95-.22-11.46,3.24-14.67,9.64C789.33,517.34,780,533.35,772.05,550c-3.86,8.09-9,10.41-17.51,10.13-18.8-.59-37.63-.18-56.45-.18-1-6.34,2.71-9.56,4.8-13.28,45.53-81,91.31-161.92,136.52-243.12,5.37-9.65,10.5-12.73,20.88-8.2s27.63,3.31,30.75,11.83c2.86,7.82-7,20.67-12,30.94-16.32,33.54-33,66.92-50.37,102.16"/><path class="cls-4" d="M935.33,762.13c-21.51,1.11-21.45,1.12-14.81-19.47,40.47-125.38,80-251,116.38-377.66,3.26-11.34,7.07-15.55,19.19-10.53a245.63,245.63,0,0,0,40,12.37c10.64,2.39,11.62,6.43,8.45,16.31Q1053,543.53,1002.42,704.21C997.75,719,993,733.7,989.27,748.7c-2,8-6.07,10-13.58,10.3-13.47.51-26.91,2-40.36,3.13"/><path class="cls-5" d="M1208.24,845.92c0-2.5-.24-4.74-.09-7.48,1.62-30.36,6.17-31.44,36.45-31.43,11.5,0,23,.27,34.5-.09,8.11-.26,9.59,2.37,6.14,9.58a55.23,55.23,0,0,0-5.57,26c.65,18.22,13.74,28.23,31.25,23.34,41.19-11.52,55-58,27-90.35-6.22-7.17-11.9-14.79-17.59-21.92,8.1-.93,19.48-2.37,30.9-3.52,11.89-1.19,23.19-1.26,35.79-2.38,6.28-.72,10.2,1,14.63,5.11,18.9,17.53,23.61,40.45,18.51,63.34-11.45,51.35-35.23,92.2-89.48,99.54-33.48,4.53-68,7.14-98.64-12.82-15-9.78-24.36-23.42-23.87-42.28,0-4.86-.42-9.15,0-14.68"/><path class="cls-4" d="M322.48,293c5.18-16.65,10-31.78,14.56-47,1.34-4.45,3.55-6.58,8.43-6.58,68.79.1,137.59.07,207.87.07-5.26,16.61-10.4,31.64-14.67,46.91-1.93,6.87-6.55,6.34-11.55,6.34-15.49,0-31,.5-46.45-.2-9-.4-13,2.49-15.64,11.42-11.59,39.21-24.38,78.06-36,117.25-2.76,9.32-6.21,11.79-15.63,8.63a365.36,365.36,0,0,0-40.48-10.73c-9.27-2-10.51-5.76-7.66-14.42,11.09-33.62,21.13-67.58,32.24-101.19,2.94-8.9,1.26-10.93-7.86-10.69-21.85.55-43.73.18-67.13.18"/><path class="cls-4" d="M1100,753.81c12.2-40.72,23.86-79.67,36-120.36h-77.77c5.21-16.59,10.12-31.19,14.27-46,1.77-6.32,5.59-7.25,11.09-7.25q98.16,0,196.33-.23c8.4,0,8.28,2.83,6.4,9.75-11.77,43.33-11.59,43.38-56.21,43.38-25.64,0-25.76,0-33.15,23.85-8.54,27.61-16.82,55.3-25.22,82.95-1.44,4.71-2.13,9.55-9,9.9-20.35,1-40.68,2.57-62.74,4"/><path class="cls-4" d="M1409,579c33.63,2.73,56.75,19.09,63,44.59,1.44,11.24.65,21.55-.32,32.93-4.78,24.65-4.78,24.65-28.7,24.65-12,0-24-.17-36,.06-6.27.12-8-2-5.66-8a77.91,77.91,0,0,0,4.84-15.71c1.63-9.91,3.53-20.81-7-27s-22.12-6-32.8.55c-17.56,10.73-25.27,40.35-14.89,58.4,4.45,7.74,11.18,14.2,15.44,22s10.9,13.6,17.73,22.09c-27.73,1.81-53.41,4.14-79.14,4.91-14.11.43-20.73-10.82-25.12-22.2-18.45-47.82,7.4-108.1,55.25-129.28,10-4.43,28.35-7.56,31.56-8.18a149.76,149.76,0,0,1,20.29-1.66A128.61,128.61,0,0,1,1409,579"/><path class="cls-4" d="M1264.67,506.79c-5.23,16.21-10.31,31.2-14.86,46.35-1.91,6.4-6.26,6.61-11.56,6.6-47-.09-93.94-.28-140.91.14-9.84.09-8.8-3.73-6.61-10.56,16.88-52.72,33.7-105.46,50-158.35,2.36-7.64,5.39-9.4,12.66-7,14.67,4.89,29.34,10,44.36,13.52,9.29,2.18,9.1,6.23,6.71,13.52-9.16,28-17.36,56.24-27.11,84-3.92,11.15-.26,12.11,9.33,11.93,25.44-.48,50.9-.16,78-.16"/><path class="cls-5" d="M1151.64,765.42c12.2-1.51,13.13,3.16,10.78,10.41-7.82,24.14-15.7,48.26-23.19,72.5-1.64,5.3-4,8.49-9.57,10.07-20.09,5.7-40.16,11.54-60,17.93-8.92,2.87-9.56.48-7-7.38,9.73-29.8,19.13-59.7,28.48-89.62,1.87-6,5.47-8.18,11.58-9.67,17.19-1.11,33.85-2.68,48.94-4.24"/><path class="cls-5" d="M1208.74,384.81c-18.19-5.7-36.25-11.18-54.18-17.08-6.17-2-4-7.63-2.86-11.48,8.73-28.51,17.9-56.88,26.79-85.35,2.25-7.23,6-8.11,12-4,14.45,9.76,28.88,19.55,43.63,28.83,5.29,3.33,5.93,6.49,4.05,12.23-7.56,23.14-14.47,46.49-21.82,69.69-1.12,3.56-2.12,8.1-7.6,7.19"/><path class="cls-5" d="M500.91,563.28c-36.16,0-36.14,0-24.87-33.66,5.84-17.45,11.75-34.89,17.3-52.43,2.16-6.85,4.9-9.58,12.81-7,14.61,4.79,29.56,8.62,44.55,12.09,8.28,1.92,8.86,5.84,6.48,12.95-5.83,17.44-12,34.86-16.19,52.71-3.06,13-9.82,17-22.13,15.45-5.9-.73-12-.13-17.95-.13"/><path class="cls-5" d="M964.06,269.76c0,9-.17,18,0,27,.26,10.63-4.57,12.93-14.18,10-26.16-8-52.53-15.28-78.6-23.56-6.32-2-17.93-1.43-16.62-10.64,1.39-9.74,6.43-20.41,18.52-23.18,11.12-2.55,22.37-4.59,33.56-6.85,13.62-2.74,27.32-5.12,40.84-8.31,11.59-2.74,18.52-1.23,16.8,13.12-.88,7.39-.15,15-.15,22.45h-.21"/><path class="cls-5" d="M389.48,542.06c-3.8-.54-6-3.34-8.4-5.88-9.88-10.57-18.91-22.11-29.76-31.56-10.68-9.3-12.52-18.93-7.67-31.5a277.16,277.16,0,0,0,10.63-32.66c2-8.22,5.68-8.67,12.85-6.41,14.7,4.62,29.64,8.57,44.62,12.18,6.55,1.58,9.58,3.24,7.05,11-8.51,26-16.31,52.25-24.4,78.4-.85,2.73-.83,6.16-4.92,6.45"/><path class="cls-5" d="M737.43,912.1c-17.28,2.77-34.53,5.76-51.84,8.25-16.72,2.41-33.51,4.39-50.28,6.4-9.08,1.08-11.7-2.53-8.52-11.34,5.42-15,10.78-30,15.1-45.35,2.76-9.76,6.83-10.24,14.86-5.71,26.5,14.94,53.27,29.4,79.93,44l.75,3.7"/><path class="cls-4" d="M631.44,678.51c9.27-30.13,18.34-59.68,27.44-89.23,1.38-4.46,3-7.94,9.09-7.75,14.34.44,28.71.14,43,.14.43,14.63-6.88,17.93-18.93,16.94-6.17-.51-13.24-3-16.78,7.34-4.18,12.17-3.44,17.24,10.86,15.59,3.59-.41,11.55-3.9,10.59,5-.57,5.29-1.44,13.54-10.25,11.46-21.08-5-25.54,8.88-28.12,24.33s-10,21.95-26.91,16.16"/><path class="cls-5" d="M1208.19,860.6q0-7.33,0-14.68"/><path class="cls-4" d="M901.56,618.63c-9.54-28.94-35.16-36.8-62.19-38.24-30.4-1.61-60.93-.54-91.39-1.44-9.31-.28-12.75,3-15.44,11.65q-38.07,122.13-77.18,243.93c-2.36,7.38-1.71,11.1,5.79,15,30.5,16,60.6,32.72,90.75,49.36a27.56,27.56,0,0,0,17.2,3.28c50.61-5.68,88.39-41.4,96.9-91.86,6.28-37.21-.68-53.18-34.32-74.44,22.43-4.16,38.23-15.28,51.55-30.69,22.1-25.57,28.74-55,18.33-86.57m-102.11,195c-13.37,32.7-25.51,40.52-63.06,40.64-22.24.07-22.25.06-15.42-21.22,6.68-20.83,13.73-41.56,19.9-62.54,2.2-7.48,5.51-11.07,13.47-10,3.92.51,8,.11,11.94.3,37.36,1.84,47.45,17.92,33.17,52.84m28.71-119.53C815.4,708,798.48,711.53,780.35,711c-21.7.14-21.67.15-15-20.59,5.48-17.08,11.17-34.1,16.2-51.31,2.1-7.17,5.16-11.49,13.35-10.1,2.42.41,5,0,7.48.07,14.39.49,31.46-1.68,37.44,15.05,6.39,17.89,1.44,35.68-11.65,50"/><path class="cls-4" d="M740.22,292.92c-6.87-32.94-34.91-52.4-78.54-53.51-27-.68-54,.2-81-.52-9.66-.25-13.57,2.69-16.44,12.18-17.46,57.8-35.8,115.33-53.78,173-9.1,29.17-9,29.22,20.92,37.14,10.11,2.68,21.9,9.56,30,6.57,9.63-3.56,7.93-18.91,12.18-28.75,1.93-4.44,1.76-10.11,8.8-10.13,11.48,0,23-1.26,34.32,1.71,10.29,2.68,15.11,9.13,14.3,19.68-.89,11.53-4.11,22.55-7.31,33.59-6.11,21.09-12.94,42-16,63.85-.82,5.84-2.68,12.17,7.57,11.88,18-.51,36-.13,54-.17,3.47,0,7.7.32,7.77-4.66.47-30.59,15.06-57.83,20.52-87.22,6.71-36.11.47-47.7-34.8-62.29,11.72-2.36,21.33-4.9,30.36-9.4,35.62-17.75,55.75-61.59,47.13-102.92m-68.84,43.74c-10.1,29.46-25,45.13-55.25,41.78-23.67,0-23.65,0-16.85-22,5.89-19.08,11.88-38.14,17.51-57.3,1.89-6.44,4.51-10.78,12.24-9.42,2.91.52,6,.08,9,.09,35.54,0,45,12.92,33.36,46.85"/><path class="cls-4" d="M605,581.73c-13.55,1.71-23.19,9-28.15,21.56-5.12,12.92-9.57,26.12-13.79,39.37-8.61,27,.12,38.67,28.47,38.49,19-.12,27.17-5.27,34-23,4.82-12.51,9.1-25.27,12.77-38.16,8.09-28.44-3.86-42-33.32-38.23m13.73,31.53c-4.61,14.64-9.42,29.23-14.75,43.61-2.46,6.63-7.87,10.29-15.36,8.81-6.16-1.21-7.21-6-7-12.43,4.37-15.71,8.89-32.47,16.33-48.17,3.28-6.91,9.44-10.64,17.21-7.32,7.55,3.23,5.32,9.94,3.57,15.5"/></g></g></g></svg>