<svg id="Layer_1" data-name="Layer 1" xmlns="http://www.w3.org/2000/svg" viewBox="0 0 1860 1160"><defs><style>.cls-1,.cls-5{fill:#fff;}.cls-1,.cls-2,.cls-3,.cls-4{fill-rule:evenodd;}.cls-2{fill:#a4a4a4;}.cls-3{fill:#fefefe;}.cls-4{fill:#d1d1d1;}</style></defs><title>art19-metamask</title><path id="path-30" class="cls-1" d="M238.77,717.59l51.07,13.58V713.41l4.17-4.18h29.18v35.52H291.92L253.36,728Z"/><path id="path-31" class="cls-1" d="M405.53,717.59l-50,13.58V713.41l-4.17-4.18H322.15v35.52h31.27L392,728Z"/><path id="path-32" class="cls-2" d="M294,678.93l-4.17,34.48,5.21-4.18h54.2l6.25,4.18-4.17-34.48L343,673.71l-41.69,1Z"/><path id="path-33" class="cls-1" d="M265.87,446l25,58.5,11.47,170.3H343l12.51-170.3L378.43,446Z"/><path id="path-34" class="cls-1" d="M156.43,574.46l-29.19,84.62,73-4.17h46.91V618.34L245,543.12l-10.42,8.36Z"/><path id="path-35" class="cls-3" d="M211.67,583.86,297.13,586l-9.38,43.88-40.64-10.44Z"/><path id="path-36" class="cls-1" d="M211.67,584.91l35.44,33.43v33.43Z"/><path id="path-37" class="cls-1" d="M247.11,619.39l41.69,10.44,13.55,44.93L293,680l-45.86-27.16Z"/><path id="path-38" class="cls-1" d="M247.11,652.82l-8.34,64.77L294,678.93Z"/><path id="path-39" class="cls-1" d="M297.13,586l5.22,88.81-15.64-45.45Z"/><path id="path-40" class="cls-3" d="M199.16,653.86l48-1-8.34,64.77Z"/><path id="path-41" class="cls-1" d="M150.17,745.8l88.6-28.21-39.61-63.73-71.92,5.22Z"/><path id="path-42" class="cls-1" d="M290.88,504.46l-44.82,37.61-34.39,41.79L297.13,587Z"/><path id="path-43" class="cls-1" d="M238.77,717.59,294,678.93l-4.17,33.44v18.8l-37.52-7.31Z"/><path id="path-44" class="cls-1" d="M405.53,717.59l-54.2-38.66,4.17,33.44v18.8L393,723.86Z"/><path id="path-45" class="cls-2" d="M274.2,604.76l11.47,24L245,618.34Z"/><path id="path-46" class="cls-1" d="M149.13,396.86l141.75,107.6-24-58.5Z"/><path id="path-47" class="cls-4" d="M149.13,396.86l-18.76,57.46L140.79,517l-7.29,4.18,10.42,9.4-8.34,7.32,11.47,10.44-7.3,6.27,16.68,20.9,78.17-24s57.32-46,56.28-47S149.13,396.86,149.13,396.86Z"/><path id="path-48" class="cls-1" d="M487.55,574.46l29.18,84.62-73-4.17h-46.9V618.34L399,543.12l10.43,8.36Z"/><path id="path-49" class="cls-3" d="M432.31,583.86,346.84,586l9.38,43.88,40.65-10.44Z"/><path id="path-50" class="cls-1" d="M432.31,584.91l-35.44,33.43v33.43Z"/><path id="path-51" class="cls-1" d="M396.87,619.39l-41.69,10.44-13.55,44.93L351,680l45.86-27.16Z"/><path id="path-52" class="cls-1" d="M396.87,652.82l8.34,64.77L351,680Z"/><path id="path-53" class="cls-1" d="M346.84,586l-5.21,88.81,15.63-45.45Z"/><path id="path-54" class="cls-3" d="M444.81,653.86l-47.94-1,8.34,64.77Z"/><path id="path-55" class="cls-1" d="M493.8,745.8l-88.59-28.21,39.6-63.73,71.92,5.22Z"/><path id="path-56" class="cls-1" d="M353.1,504.46l44.81,37.61,34.4,41.79L346.84,587Z"/><path id="path-57" class="cls-2" d="M369.77,604.76l-11.46,24L399,618.34Z"/><path id="path-58" class="cls-1" d="M494.84,396.86,353.1,504.46l24-58.5Z"/><path id="path-59" class="cls-4" d="M494.84,396.86l18.76,57.46L503.18,517l7.3,4.18-10.43,9.4,8.34,7.32-11.46,10.44,7.29,6.27-16.67,20.9-78.17-24s-57.33-46-56.28-47S494.84,396.86,494.84,396.86Z"/><path class="cls-5" d="M770.8,494.48h21.72V656.76H769.17V530.49l-49.89,62.73H715L664.5,530.49V656.76H641.27V494.48h22l53.92,66.65Z"/><path class="cls-5" d="M819.4,494.48h92v20.68H842.63v49.49h66.45v20.79H842.63v50.41h71v20.68H819.4Z"/><path class="cls-5" d="M916.44,494.25H1052v20.68H995.43V656.76H972.08V514.93H916.44Z"/><path class="cls-5" d="M1093.87,493.55h16.33L1183,656.76h-23.78l-16.39-36.44-5.23-11.65h-69.24l-4.58,10.86L1048,656.76h-23.87ZM1128,588l-26.19-58.77L1077.54,588Z"/><path class="cls-5" d="M1321.71,494.48h21.72V656.76h-23.35V530.49l-49.89,62.73h-4.3l-50.47-62.73V656.76h-23.24V494.48h22l53.92,66.65Z"/><path class="cls-5" d="M1422.12,493.55h16.33l72.77,163.21h-23.78l-21.63-48.09h-69.24l-20.27,48.09h-23.88ZM1456.26,588l-26.18-58.77L1405.8,588Z"/><path class="cls-5" d="M1561.1,588.77,1543.44,578q-16.62-10.14-23.64-20a37.77,37.77,0,0,1-7-22.59q0-19.17,13.3-31.13t34.56-12a65.39,65.39,0,0,1,37.29,11.41v26.37q-17.54-16.87-37.75-16.87-11.39,0-18.71,5.26T1534.15,532a20.74,20.74,0,0,0,5.39,13.66q5.39,6.36,17.33,13.36l17.75,10.5q29.69,17.75,29.69,45.15,0,19.51-13.07,31.72t-34,12.19a71.32,71.32,0,0,1-43.79-14.78V614.33q18.81,23.85,43.56,23.85,10.92,0,18.18-6.08a19,19,0,0,0,7.26-15.22Q1582.47,602.06,1561.1,588.77Z"/><path class="cls-5" d="M1713.55,494.48h29l-70.39,77,87.7,85.26h-31.71l-83-80.15v80.15H1622V494.48h23.23v74.23Z"/></svg>