<svg xmlns="http://www.w3.org/2000/svg" viewBox="0 0 1668.2 433.1"><defs><style>.cls-1{fill:#fff;}</style></defs><g id="Layer_2" data-name="Layer 2"><g id="Layer_1-2" data-name="Layer 1"><path class="cls-1" d="M472.1,95.6V95c0-16.2,11.2-27.6,26.2-27.6,12.4,0,22,6.2,23.2,18.9H511.3c-1.1-7.2-5.1-10.9-12.9-10.9-9.5,0-15.7,7.4-15.7,19.5v.6c0,12.2,5.8,19.3,15.8,19.3,7.5,0,12.8-3.8,13.8-11.4h9.8c-1.6,13-10.8,19.6-23.6,19.6C481.6,123,472.1,112.2,472.1,95.6Z"/><path class="cls-1" d="M532.2,95.6V95c0-15.8,11.3-27.5,27.3-27.5s27.2,11.4,27.2,27.2v.6c0,15.8-10.8,27.6-27.2,27.6S532.2,111.2,532.2,95.6Zm44.1-.1v-.6c0-11.1-6.2-19.3-16.8-19.3S542.7,83.4,542.7,95v.6c0,11.8,7.2,19.4,17,19.4,10.2-.1,16.6-7.8,16.6-19.5Z"/><path class="cls-1" d="M599,68.3h12l22.7,39v-39h9.1v54H632.4L608.1,80.9v41.4H599Z"/><path class="cls-1" d="M655.7,105.5h9.7c.7,5.4,2.9,10,12,10,6,0,10.2-3.3,10.2-8.3s-2.5-6.9-11.2-8.3c-12.9-1.7-19-5.7-19-15.8,0-8.8,7.5-15.5,18.8-15.5,11.6,0,18.6,5.3,19.6,15.6h-9.2c-1-5.7-4.2-8.1-10.4-8.1s-9.3,2.9-9.3,7.1c0,4.4,1.8,6.6,11.2,7.9,12.7,1.7,19.3,5.4,19.3,16.2,0,9.4-7.9,16.7-19.9,16.7C662.6,123,656.4,115.7,655.7,105.5Z"/><path class="cls-1" d="M710.3,68.3h33.8v7.9H720.4V91h19v7.6h-19v15.8h25v7.9h-35Z"/><path class="cls-1" d="M758.2,68.3h12l22.7,39v-39H802v54H791.6L767.3,80.9v41.4h-9.1Z"/><path class="cls-1" d="M814.9,105.5h9.7c.7,5.4,2.9,10,12,10,6,0,10.2-3.3,10.2-8.3s-2.5-6.9-11.2-8.3c-12.9-1.7-19-5.7-19-15.8,0-8.8,7.5-15.5,18.8-15.5,11.6,0,18.6,5.3,19.6,15.6h-9.2c-1-5.7-4.2-8.1-10.4-8.1s-9.3,2.9-9.3,7.1c0,4.4,1.8,6.6,11.2,7.9,12.7,1.7,19.2,5.4,19.2,16.2,0,9.4-7.9,16.7-19.8,16.7C821.8,123,815.6,115.7,814.9,105.5Z"/><path class="cls-1" d="M879.9,98.9,862,68.3h11.1l12.2,22.3,11.8-22.3h9.8L890,98.9v23.3H879.9Z"/><path class="cls-1" d="M912.5,105.5h9.7c.7,5.4,2.9,10,12,10,6,0,10.2-3.3,10.2-8.3s-2.5-6.9-11.2-8.3c-12.9-1.7-19-5.7-19-15.8,0-8.8,7.5-15.5,18.8-15.5,11.6,0,18.6,5.3,19.6,15.6h-9.2c-1-5.7-4.2-8.1-10.4-8.1s-9.3,2.9-9.3,7.1c0,4.4,1.8,6.6,11.2,7.9,12.7,1.7,19.3,5.4,19.3,16.2,0,9.4-7.9,16.7-19.9,16.7C919.5,123,913.3,115.7,912.5,105.5Z"/><path class="cls-1" d="M476.2,166.3a3.12,3.12,0,0,1,3.1-3.1h64c72,0,107.5,39,107.5,100.3v2.3c0,61.4-35.8,102.4-107.8,102.4H479.3a3.12,3.12,0,0,1-3.1-3.1h0V166.3ZM541.6,332c41.3,0,60.8-23.2,60.8-65.6v-2.3c0-42.1-18.1-64.8-61.3-64.8H522.7V332Z"/><path class="cls-1" d="M665.2,175.2c0-12.9,10.3-22.6,23.5-22.6,13.5,0,23.8,9.8,23.8,22.6s-10.3,22.6-23.8,22.6C675.5,197.9,665.2,188.1,665.2,175.2Zm6.2,43h35.1a3.12,3.12,0,0,1,3.1,3.1h0V365.1a3.12,3.12,0,0,1-3.1,3.1H671.4a3.12,3.12,0,0,1-3.1-3.1h0V221.3a3.12,3.12,0,0,1,3.1-3.1Z"/><path class="cls-1" d="M741.9,150.3H777a3.12,3.12,0,0,1,3.1,3.1h0V365.1a3.12,3.12,0,0,1-3.1,3.1H741.9a3.12,3.12,0,0,1-3.1-3.1h0V153.4a3.12,3.12,0,0,1,3.1-3.1Z"/><path class="cls-1" d="M805.9,175.2c0-12.9,10.3-22.6,23.5-22.6,13.5,0,23.8,9.8,23.8,22.6s-10.3,22.6-23.8,22.6C816.2,197.9,805.9,188.1,805.9,175.2Zm6.2,43h35.1a3.12,3.12,0,0,1,3.1,3.1h0V365.1a3.12,3.12,0,0,1-3.1,3.1H812.1a3.12,3.12,0,0,1-3.1-3.1h0V221.3a3.18,3.18,0,0,1,3.1-3.1Z"/><path class="cls-1" d="M874.9,371.3h35.2a3.09,3.09,0,0,1,3,2.3c3.2,11.9,12.8,19.5,32.7,19.5,25.2,0,37.8-13.2,37.8-36.7V333.8a56.15,56.15,0,0,1-48.2,27.8c-36.4,0-65.4-27.2-65.4-71.7v-2c0-43,28.7-73.1,65.9-73.1,24.4,0,39,10.6,47.6,25.8V221.3a3.12,3.12,0,0,1,3.1-3.1h35.1a3.12,3.12,0,0,1,3.1,3.1h0V356.4c-.3,44.4-29.8,67.1-79.1,67.1-46.5,0-68.7-19.6-74-48.5a3.08,3.08,0,0,1,2.5-3.6A2,2,0,0,1,874.9,371.3Zm109.9-82v-2c0-25.5-13.5-41-36.1-41-23.2,0-36.1,16.6-36.1,41.3v2.3c0,24.9,14.6,40.4,35.3,40.4,21.7,0,36.9-15.5,36.9-41Z"/><path class="cls-1" d="M1039.6,295.1v-2.3c0-47.3,33.5-78,77.1-78,38.7,0,73.1,22.6,73.1,76.3v8.4a3.12,3.12,0,0,1-3.1,3.1h-105c1.2,24.9,14.6,39.3,37.3,39.3,18,0,27.5-7.3,30.7-18.7a3.09,3.09,0,0,1,2.9-2.2h33.2a3.12,3.12,0,0,1,3.1,3.1,1.27,1.27,0,0,1-.1.6c-6.2,30-31.6,46.7-71,46.7C1072.5,371.3,1039.6,342.9,1039.6,295.1ZM1149.3,277c-1.4-22.6-12.9-33.5-32.7-33.5-18.6,0-31.2,12.3-34.4,33.5Z"/><path class="cls-1" d="M1208,218.2h35.4a3.12,3.12,0,0,1,3.1,3.1V242c7.4-14.9,23.8-27.2,48.7-27.2,29.5,0,50.5,17.8,50.5,57.9v92.4a3.12,3.12,0,0,1-3.1,3.1h-35.4a3.12,3.12,0,0,1-3.1-3.1h0V278.8c0-20.4-8-30.1-26.4-30.1-17.8,0-31.2,10.9-31.2,33v83.5a3.12,3.12,0,0,1-3.1,3.1H1208a3.12,3.12,0,0,1-3.1-3.1h0V221.3a3.12,3.12,0,0,1,3.1-3.1Z"/><path class="cls-1" d="M1358.9,295.1v-2.3c0-48.4,34.7-78,77.4-78,33.7,0,65,14.4,70.2,54.7a3.14,3.14,0,0,1-2.7,3.5h-33.7a3.1,3.1,0,0,1-3-2.4c-3.4-15.8-13.8-23.1-29.9-23.1-21.5,0-35.8,16.1-35.8,44.7v2.3c0,30.1,13.5,45.6,36.7,45.6,15.9,0,28.9-8.9,31.8-26.4a2.93,2.93,0,0,1,3-2.5h31.5a3.12,3.12,0,0,1,3.1,3.1v.3c-3.7,33.7-29.2,56.8-71.4,56.8C1392.2,371.3,1358.9,344.1,1358.9,295.1Z"/><path class="cls-1" d="M1518,295.1v-2.3c0-47.3,33.5-78,77.1-78,38.7,0,73.1,22.6,73.1,76.3v8.4a3.12,3.12,0,0,1-3.1,3.1h-105c1.2,24.9,14.6,39.3,37.3,39.3,18,0,27.5-7.3,30.7-18.7a3,3,0,0,1,3-2.2h33.2a3.12,3.12,0,0,1,3.1,3.1,1.27,1.27,0,0,1-.1.6c-6.2,30-31.6,46.7-71,46.7C1551,371.3,1518,342.9,1518,295.1ZM1627.8,277c-1.4-22.6-12.9-33.5-32.7-33.5-18.6,0-31.2,12.3-34.4,33.5Z"/><path class="cls-1" d="M216.5,0C97,0,0,97,0,216.5S97,433.1,216.5,433.1s216.6-97,216.6-216.6S336.1,0,216.5,0ZM160.2,335.1a2,2,0,0,1-2,2H116a2,2,0,0,1-2-2V171.4a2,2,0,0,1,2-2h42.2a2,2,0,0,1,2,2ZM137,146.6c-14.7,0-26.3-10.9-26.3-25.3S122.3,96,137,96c15.1,0,26.6,10.9,26.6,25.3S152.1,146.6,137,146.6ZM240.2,335a2,2,0,0,1-2,2H196a2,2,0,0,1-2-2V98a2,2,0,0,1,2-2h42.2a2,2,0,0,1,2,2Zm79.9.1a2,2,0,0,1-2,2H276a2,2,0,0,1-2-2V171.4a2,2,0,0,1,2-2h42.2a2,2,0,0,1,2,2V335.1Zm2.3-190.4a2,2,0,0,1-2,2H273.8a2,2,0,0,1-2-2V98a2,2,0,0,1,2-2h46.6a2,2,0,0,1,2,2Z"/></g></g></svg>