<svg xmlns="http://www.w3.org/2000/svg" xmlns:xlink="http://www.w3.org/1999/xlink" viewBox="0 0 884.44 677.95"><defs><style>.cls-1,.cls-11,.cls-5,.cls-6{fill:none;}.cls-2{fill:url(#radial-gradient);}.cls-3{fill:url(#radial-gradient-2);}.cls-4{fill:url(#radial-gradient-3);}.cls-5{stroke:#e4a663;}.cls-11,.cls-5,.cls-6{stroke-miterlimit:10;}.cls-6{stroke:#3fe0c5;}.cls-7{fill:#e911bd;}.cls-10,.cls-13,.cls-8{fill-rule:evenodd;}.cls-8{fill:url(#radial-gradient-4);}.cls-9{fill:#e4a663;}.cls-10{fill:url(#radial-gradient-5);}.cls-11{stroke:#e911bd;}.cls-12{fill:#3fe0c5;}.cls-13{fill:url(#radial-gradient-6);}.cls-14{fill:#5e464d;}.cls-15{fill:#fff;}.cls-16{fill:url(#radial-gradient-7);}.cls-17{clip-path:url(#clip-path);}</style><radialGradient id="radial-gradient" cx="664.44" cy="550.93" r="181.3" gradientTransform="translate(0 158.31) scale(1 0.71)" gradientUnits="userSpaceOnUse"><stop offset="0" stop-color="#e911bd"/><stop offset="1" stop-color="#33262a" stop-opacity="0"/></radialGradient><radialGradient id="radial-gradient-2" cx="442.22" cy="417.85" r="181.3" gradientTransform="translate(0 120.07) scale(1 0.71)" gradientUnits="userSpaceOnUse"><stop offset="0" stop-color="#e4a663"/><stop offset="1" stop-color="#33262a" stop-opacity="0"/></radialGradient><radialGradient id="radial-gradient-3" cx="220" cy="550.93" r="181.3" gradientTransform="translate(0 158.31) scale(1 0.71)" gradientUnits="userSpaceOnUse"><stop offset="0" stop-color="#3fe0c5"/><stop offset="1" stop-color="#33262a" stop-opacity="0"/></radialGradient><radialGradient id="radial-gradient-4" cx="664.44" cy="550.93" r="109.69" gradientUnits="userSpaceOnUse"><stop offset="0" stop-color="#1d1d1b"/><stop offset="0.49" stop-color="#2a2224"/><stop offset="1" stop-color="#33262a"/></radialGradient><radialGradient id="radial-gradient-5" cx="442.22" cy="417.85" r="109.69" xlink:href="#radial-gradient-4"/><radialGradient id="radial-gradient-6" cx="220" cy="550.93" r="109.69" xlink:href="#radial-gradient-4"/><radialGradient id="radial-gradient-7" cx="664.44" cy="512.14" r="62.24" gradientUnits="userSpaceOnUse"><stop offset="0" stop-color="#5e464d"/><stop offset="1" stop-color="#5e464d"/></radialGradient><clipPath id="clip-path"><path class="cls-1" d="M854.44,469.39l-180-103.92c-5.5-3.18-10-10.27-10-15.77V19.7c0-5.5,4.5-7.41,10-4.23l180,103.92c5.5,3.18,10,10.28,10,15.78v330C864.44,470.67,859.94,472.57,854.44,469.39Z"/></clipPath></defs><title>suite-header</title><g id="Layer_2" data-name="Layer 2"><g id="Layer_2-2" data-name="Layer 2"><ellipse class="cls-2" cx="664.44" cy="550.93" rx="220" ry="127.02"/><ellipse class="cls-3" cx="442.22" cy="417.85" rx="220" ry="127.02"/><ellipse class="cls-4" cx="220" cy="550.93" rx="220" ry="127.02"/><line class="cls-5" x1="511.94" y1="458.1" x2="598.87" y2="508.29"/><line class="cls-5" x1="498.28" y1="465.99" x2="585.21" y2="516.18"/><line class="cls-5" x1="525.6" y1="450.22" x2="612.53" y2="500.4"/><path class="cls-6" d="M120,135.18v348c0,5.5,3.9,12.25,8.66,15l21.62,12.48"/><path class="cls-6" d="M106,145.18v348c0,5.5,3.9,12.25,8.66,15l20,11.52"/><path class="cls-6" d="M135,125.18v348c0,5.5,3.9,12.25,8.66,15l22.78,13.15"/><line class="cls-5" x1="286.24" y1="507.91" x2="372.5" y2="458.1"/><line class="cls-5" x1="275.05" y1="498.6" x2="358.84" y2="450.22"/><line class="cls-5" x1="299.24" y1="516.18" x2="386.17" y2="465.99"/><path class="cls-7" d="M664.44,473.37a17.66,17.66,0,0,1,8.66,2.06l122.12,70.5c4.76,2.75,4.76,7.25,0,10L673.1,626.43a19.15,19.15,0,0,1-17.32,0l-122.11-70.5c-4.76-2.75-4.76-7.25,0-10l122.11-70.5a17.66,17.66,0,0,1,8.66-2.06m0-1a18.72,18.72,0,0,0-9.16,2.19L533.17,545.07c-2.63,1.51-4.07,3.59-4.07,5.86s1.44,4.35,4.07,5.87l122.11,70.5a20.17,20.17,0,0,0,18.32,0l122.12-70.5c2.62-1.52,4.07-3.6,4.07-5.87s-1.45-4.35-4.07-5.86L673.6,474.56a18.66,18.66,0,0,0-9.16-2.19Z"/><path class="cls-8" d="M533.67,545.93c-4.76,2.75-4.76,7.25,0,10l122.11,70.5c4.77,2.75,12.56,2.75,17.32,0l122.12-70.5c4.76-2.75,4.76-7.25,0-10L673.1,475.43c-4.76-2.75-12.55-2.75-17.32,0Z"/><path class="cls-9" d="M442.22,340.29a17.77,17.77,0,0,1,8.66,2.06L573,412.85c4.77,2.75,4.77,7.25,0,10l-122.11,70.5a19.15,19.15,0,0,1-17.32,0l-122.11-70.5c-4.76-2.75-4.76-7.25,0-10l122.11-70.5a17.77,17.77,0,0,1,8.66-2.06m0-1a18.69,18.69,0,0,0-9.16,2.19L311,412c-2.63,1.51-4.07,3.6-4.07,5.86s1.44,4.35,4.07,5.87l122.11,70.5a20.17,20.17,0,0,0,18.32,0l122.11-70.5c2.63-1.52,4.08-3.6,4.08-5.87s-1.45-4.35-4.08-5.86L451.38,341.48a18.66,18.66,0,0,0-9.16-2.19Z"/><path class="cls-10" d="M311.45,412.85c-4.76,2.75-4.76,7.25,0,10l122.11,70.5c4.76,2.75,12.56,2.75,17.32,0L573,422.85c4.77-2.75,4.77-7.25,0-10l-122.11-70.5c-4.76-2.75-12.56-2.75-17.32,0Z"/><path class="cls-11" d="M764.94,135.18v348c0,5.5-3.89,12.25-8.66,15l-21.87,12.62"/><path class="cls-11" d="M778.94,145.18v348c0,5.5-3.89,12.25-8.66,15l-20.21,11.67"/><path class="cls-11" d="M749.94,125.18v348c0,5.5-3.89,12.25-8.66,15l-23,13.29"/><path class="cls-12" d="M220,473.37a17.66,17.66,0,0,1,8.66,2.06l122.11,70.5c4.77,2.75,4.77,7.25,0,10l-122.11,70.5a19.15,19.15,0,0,1-17.32,0L89.23,555.93c-4.77-2.75-4.77-7.25,0-10l122.11-70.5a17.66,17.66,0,0,1,8.66-2.06m0-1a18.69,18.69,0,0,0-9.16,2.19L88.73,545.07c-2.63,1.51-4.07,3.59-4.07,5.86s1.44,4.35,4.07,5.87l122.11,70.5a20.17,20.17,0,0,0,18.32,0l122.11-70.5c2.63-1.52,4.07-3.6,4.07-5.87s-1.44-4.35-4.07-5.86L229.16,474.56a18.69,18.69,0,0,0-9.16-2.19Z"/><path class="cls-13" d="M89.23,545.93c-4.77,2.75-4.77,7.25,0,10l122.11,70.5c4.76,2.75,12.56,2.75,17.32,0l122.11-70.5c4.77-2.75,4.77-7.25,0-10l-122.11-70.5c-4.76-2.75-12.56-2.75-17.32,0Z"/><path class="cls-14" d="M30,469.39,210,365.47c5.5-3.18,10-10.27,10-15.77V19.7c0-5.5-4.5-7.41-10-4.23L30,119.39c-5.5,3.18-10,10.28-10,15.78v330C20,470.67,24.5,472.57,30,469.39Z"/><path class="cls-14" d="M854.44,469.39l-180-103.92c-5.5-3.18-10-10.27-10-15.77V19.7c0-5.5,4.5-7.41,10-4.23l180,103.92c5.5,3.18,10,10.28,10,15.78v330C864.44,470.67,859.94,472.57,854.44,469.39Z"/><ellipse class="cls-14" cx="219.83" cy="510.93" rx="67.25" ry="68.04"/><path id="Fill-6" class="cls-15" d="M198.68,571.26c2.76.94,12,4,12.39,1,.21-1.61-4.64-3.27-11.26-6.77a105.85,105.85,0,0,1-25.48-18.82A58.51,58.51,0,0,1,156.79,506c-.56-20.59,7.49-37.23,20.73-48a67.85,67.85,0,0,0-26.38,52.05A63.4,63.4,0,0,0,162.73,549a44.15,44.15,0,0,0,8.44,8.31c7.49,5.67,18.45,10.92,27.51,14"/><path id="Fill-8" class="cls-15" d="M288,495.33c-4.18-19.61-17.14-33.34-34.48-43,13.26,9.44,31.92,29.5,20.92,47.2-9.33,14.18-32,11.4-44.4,4.68-14.73-8-33.19-26-15-43.56,11.78-11.38,49.31,1.37,42.69,18.38-3.86,9.89-18.84,7.7-25.58,2.86-5-3.57-9.16-9.71-6.94-16,.71-2,.61-5.19-2.26-2.87a11.31,11.31,0,0,0-3.59,7.24c-3.14,22.18,36.37,39.37,48.09,17.91,6.08-11.14-3.78-27.3-16.18-33.93-9.35-5-19-8.51-30.94-7.65-19,1.35-35,13.25-37,32.69s10.91,36.7,26.12,47.1c16,10.92,37.48,18.13,57.14,11.61,17.63-5.84,24.91-26.07,21.37-42.59"/><path id="Fill-10" class="cls-12" d="M263.21,480.31c1.89-12.71-9.6-21.43-20.21-25.4-12.51-4.68-29-2.62-38.15,7.74-6.68,7.61-6.23,18.66-2.79,27.59,5.19,13.5,16.92,23.26,30.58,27.47,9.7,3,21.43,4.31,31.27,1.14,14.34-4.61,19-19.57,16-33.27a39.46,39.46,0,0,0-2.91-8.58c-1.81-3.8-7.36-11.5.29-2.12a33.44,33.44,0,0,1,2.21,3.27,36.62,36.62,0,0,1,3.72,8.27c4.17,12.79.9,27.71-10.68,35.43-8.87,5.91-20.14,6.61-30.43,5.13a57.5,57.5,0,0,1-35.81-19.37c-8.25-9.78-13.88-23.81-10.49-36.63,2.49-9.39,10.11-16.4,19.23-19.35a43,43,0,0,1,34.66,4.07c5.2,3,10,7.23,12.62,12.73a18.76,18.76,0,0,1,1.89,7.95,16.09,16.09,0,0,1-.25,3.33c-.08.4-.92,1.53-.8.6"/><path class="cls-9" d="M493.53,406.81a2.8,2.8,0,0,0,3-1.71c.82-1.35.4-3.47.37-4.05-.07-1.29-.5-2.72-.56-3.43,0-.44,0-3.25.07-4.36,1-18.16,8.76-22.47,11-23a6.29,6.29,0,0,1,4.33.29l0-27.75h0l0-.39V335a14.08,14.08,0,0,0-6.33-11l-56.89-32.9a14,14,0,0,0-12.65,0L379,324a14,14,0,0,0-6.32,10.95v17.81c.34.18.67.37,1,.58,1.09.69,2.19,1.13,3.29,1.89a50.31,50.31,0,0,1,8.74,6.78c.52.51,2.24,2.68,2.66,3.19a34.78,34.78,0,0,0,4.22,4.83,15.52,15.52,0,0,0,2.82,2,7.92,7.92,0,0,0,5.86.06c10.84-4.7,17.63-2.34,20.76-.46,7.76,4.66,10.34,11.17,11.17,19.07a22.17,22.17,0,0,1,.1,3.09c0,1.88-.06,4.9,1.92,5.4,2.84.72,3.52-2.31,3.95-4.33,1-4.56,7-7.56,11.49-5.26,3.06,1.58,4.32,2.48,7.35,1.15,3.8-1.68,5.75-5.93,7.08-8.2a13.84,13.84,0,0,1,5.46-5.2c5.92-3.69,20.79-2.73,21.34,13.66,0,.9,0,3.17,0,4.56,0,1.56.05,3.09-.05,4.71-.07,1.07-.26,2.2-.36,3.29C491.47,403.58,490.91,406.79,493.53,406.81Z"/><path class="cls-14" d="M511.72,370.59a6.23,6.23,0,0,0-4.32-.29c-2.26.49-10,4.8-11,23-.06,1.11-.1,3.92-.07,4.36.06.71.49,2.14.56,3.43,0,.58.45,2.7-.37,4.05a2.8,2.8,0,0,1-3,1.71c-2.62,0-2.06-3.23-2.06-3.23.1-1.09.29-2.22.36-3.29.1-1.62,0-3.15.05-4.71,0-1.39,0-3.66,0-4.56-.55-16.39-15.42-17.35-21.34-13.66a13.84,13.84,0,0,0-5.46,5.2c-1.33,2.27-3.28,6.52-7.08,8.2-3,1.33-4.29.43-7.35-1.15-4.46-2.3-10.53.7-11.49,5.26-.43,2-1.11,5.05-3.95,4.33-2-.5-1.92-3.52-1.92-5.4a22.17,22.17,0,0,0-.1-3.09c-.83-7.9-3.41-14.41-11.17-19.07-3.13-1.88-9.92-4.24-20.76.46a7.92,7.92,0,0,1-5.86-.06,15.52,15.52,0,0,1-2.82-2,34.78,34.78,0,0,1-4.22-4.83c-.42-.51-2.14-2.68-2.66-3.19a50.31,50.31,0,0,0-8.74-6.78c-1.1-.76-2.2-1.2-3.29-1.89-.33-.21-.66-.4-1-.58l0,47.91a14.07,14.07,0,0,0,6.33,11L436,444.52a14,14,0,0,0,12.65,0l56.83-32.81a14.06,14.06,0,0,0,6.32-11Z"/><path class="cls-15" d="M449.44,362.54a15.89,15.89,0,0,1-14.31,0L377,331.85c.66.65,59,34.54,59,34.54a14,14,0,0,0,12.65,0S506.86,332.6,507.51,332Z"/><path class="cls-15" d="M435,295.58a15.83,15.83,0,0,1,14.3,0l7.06,2.94c-.66-.65-7.88-5.33-7.88-5.33a14,14,0,0,0-12.64,0S424.35,300,423.7,300.6Z"/><path class="cls-16" d="M730.24,517.8c0-34-31.9-61.8-65.94-61.8s-65.94,27.85-65.94,61.89c0,.07-1.71,31.32-1.71,31.32.36,10.06,34,19.07,67.79,19.07,34,0,67.79-9,67.79-19.07C732.23,549.21,730.24,518.15,730.24,517.8Z"/><path class="cls-15" d="M627.74,523.64a80.29,80.29,0,0,0-4.36-21.53c-.61-1.65-1.23-3.28-1.94-4.86s-2.54-6.23-2.81-7-.62-1.54-1-2.28c-.67-1.51-1.48-2.95-2.29-4.38l-.11-.2a6,6,0,0,1,7-8.68l.71.22.62.2,1.18.42c.77.28,1.53.57,2.29.88,1.5.6,3,1.25,4.43,1.93a93.1,93.1,0,0,1,8.47,4.55,84.33,84.33,0,0,1,15.28,11.81,71.87,71.87,0,0,1,12,15.41,68.51,68.51,0,0,1,7.26,18.23l-11.5-.73.28-.82.3-1c.2-.67.38-1.35.56-2,.35-1.38.65-2.78.92-4.2a72.75,72.75,0,0,0,1.06-8.59A67.47,67.47,0,0,0,665,493.82a60.78,60.78,0,0,0-5.58-16.1,64.12,64.12,0,0,0-9.83-14l-.07-.09a6,6,0,0,1,5.21-10l.51.07.42.06.8.13c.53.1,1,.19,1.54.3,1,.21,2,.44,3,.69,2,.5,3.88,1.07,5.78,1.71a87,87,0,0,1,11,4.63,86,86,0,0,1,19.64,13.6,87.43,87.43,0,0,1,15.12,18.44,101.39,101.39,0,0,1,9.91,21.45L711.3,514l.2-.48.25-.66c.16-.45.32-.92.46-1.4a26.13,26.13,0,0,0,.73-2.93c.17-1,.23-2,.36-3s.34-2,.51-3a30.35,30.35,0,0,0-.42-12.28,31.91,31.91,0,0,0-2.18-6.06,37.19,37.19,0,0,0-3.45-5.76,48.56,48.56,0,0,0-4.5-5.3,64.2,64.2,0,0,0-5.31-4.8,51.89,51.89,0,0,1,6.64,3,44.31,44.31,0,0,1,6.27,4.05,39.62,39.62,0,0,1,5.59,5.27,36.21,36.21,0,0,1,4.54,6.51,38.78,38.78,0,0,1,4.56,15.64,20.37,20.37,0,0,1,0,4.13,32.35,32.35,0,0,1-.77,4c-.31,1.34-.63,2.67-1,4-.2.66-.41,1.32-.65,2l-.39,1-.21.52-.28.64a6,6,0,0,1-7.88,3.07,5.9,5.9,0,0,1-3.25-3.56l-.07-.18a89.36,89.36,0,0,0-8.71-18.9,75.21,75.21,0,0,0-13-15.91A73.85,73.85,0,0,0,662.92,468c-1.62-.55-3.25-1-4.89-1.45-.82-.21-1.63-.4-2.44-.57l-1.2-.23-.57-.09-.44-.07,5.13-10.07a76.17,76.17,0,0,1,11.67,16.66,72.61,72.61,0,0,1,6.68,19.29,79.06,79.06,0,0,1,1.29,20.23,83.05,83.05,0,0,1-1.23,10q-.46,2.49-1.09,5-.32,1.25-.69,2.49l-.39,1.27-.21.65-.27.75a6,6,0,0,1-11.47-.56l0-.18a56.64,56.64,0,0,0-6-15,59.48,59.48,0,0,0-10-12.83,71.58,71.58,0,0,0-13.1-10.11,80.89,80.89,0,0,0-7.34-3.95c-1.26-.59-2.53-1.14-3.8-1.66-.64-.25-1.28-.5-1.91-.73l-.93-.33-.82-.26,6.88-8.88c1,1.8,2,3.62,2.87,5.5.46.93.82,1.89,1.24,2.84s.86,1.87,1.22,2.84c.17.48.33,1,.46,1.47s.19,1,.26,1.53c.15,1,.24,2.05.34,3.07.16,2,.25,4.06.22,6.08a66,66,0,0,1-1.23,11.82,56.38,56.38,0,0,1-1.41,5.66A43.3,43.3,0,0,1,627.74,523.64Z"/><path class="cls-7" d="M627.74,523.64a71.05,71.05,0,0,0,0-11.11,75.16,75.16,0,0,0-1.62-10.84c-.41-1.77-.87-3.52-1.42-5.23s-1.22-3.39-1.78-5.08c-.27-.84-.56-1.69-.88-2.52s-.66-1.65-1-2.45c-.73-1.63-1.59-3.19-2.47-4.73l0-.06a2.33,2.33,0,0,1,2.71-3.39c1.6.49,3,1,4.45,1.6s2.84,1.19,4.24,1.85a86.88,86.88,0,0,1,8.12,4.37,80.55,80.55,0,0,1,14.62,11.28A68.06,68.06,0,0,1,664,512a64.69,64.69,0,0,1,6.88,17.25l-4.48-.29c.22-.6.47-1.36.67-2.06s.42-1.45.6-2.18c.37-1.46.7-2.94,1-4.43a74.4,74.4,0,0,0,1.12-9,70.83,70.83,0,0,0-1.15-18.1A64.84,64.84,0,0,0,662.73,476a68.41,68.41,0,0,0-10.4-14.83l0,0a2.33,2.33,0,0,1,.14-3.29,2.37,2.37,0,0,1,1.88-.6c1.08.14,2,.31,2.95.51s1.89.41,2.82.65c1.86.48,3.7,1,5.51,1.64A82.4,82.4,0,0,1,695,477.53a83.78,83.78,0,0,1,14.48,17.66A97.6,97.6,0,0,1,719,515.87l-4.35-.26c.18-.39.4-1,.58-1.46s.36-1,.52-1.58c.32-1.07.6-2.15.82-3.25.4-2.21.64-4.43.84-6.66a32.81,32.81,0,0,0-1.68-13.31,35.67,35.67,0,0,0-7-11.81A53,53,0,0,0,698,468.37a51.84,51.84,0,0,1,12,8,37.11,37.11,0,0,1,8.75,11.79,36.68,36.68,0,0,1,3.3,14.62,26.55,26.55,0,0,1-.14,3.78c-.14,1.25-.38,2.49-.64,3.72s-.58,2.46-.95,3.67c-.18.6-.38,1.2-.59,1.81s-.44,1.16-.75,1.86a2.34,2.34,0,0,1-4.34-.22v0a93.46,93.46,0,0,0-9.08-19.68A79.25,79.25,0,0,0,691.78,481a77.37,77.37,0,0,0-17.72-12.27,78.24,78.24,0,0,0-10-4.18c-1.7-.57-3.42-1.09-5.16-1.53q-1.31-.33-2.61-.6c-.85-.18-1.78-.34-2.53-.44l2-3.92a72.67,72.67,0,0,1,11.11,15.85,69.26,69.26,0,0,1,6.35,18.32,75.7,75.7,0,0,1,1.22,19.29,79.38,79.38,0,0,1-1.18,9.6c-.3,1.59-.64,3.17-1,4.74-.2.79-.41,1.57-.64,2.35s-.47,1.54-.79,2.4a2.33,2.33,0,0,1-4.46-.23v-.05a60.31,60.31,0,0,0-6.39-16,63.24,63.24,0,0,0-10.62-13.62,75.6,75.6,0,0,0-13.76-10.62,83.57,83.57,0,0,0-7.69-4.13c-1.32-.62-2.65-1.21-4-1.75-.68-.27-1.35-.53-2-.77s-1.38-.49-2-.67l2.68-3.46a65.11,65.11,0,0,1,4.91,10.54,33.14,33.14,0,0,1,1.37,5.62c.34,1.9.57,3.81.75,5.71a67.7,67.7,0,0,1,0,11.39c-.15,1.88-.37,3.76-.69,5.61A48.34,48.34,0,0,1,627.74,523.64Z"/><g class="cls-17"><image width="1920" height="2955" transform="matrix(0.12, 0.07, 0, 0.12, 649.89, 0)" xlink:href="/img/home/shapeshift-homepage-sm.jpg"/></g><path class="cls-9" d="M43.25,147.38a2.79,2.79,0,0,0,.57-.42,4.29,4.29,0,0,0,.5-.55,3.27,3.27,0,0,0,.35-.59,1.56,1.56,0,0,0,.13-.57l1-.6a2.71,2.71,0,0,1-.22.94,4.82,4.82,0,0,1-.57,1,6.58,6.58,0,0,1-.82.94,5.48,5.48,0,0,1-1,.73,3.29,3.29,0,0,1-1.26.47,1.29,1.29,0,0,1-1.44-.87,3.06,3.06,0,0,1-.18-1.1v-.25a5,5,0,0,1,.18-1.3,5.63,5.63,0,0,1,.54-1.33,6,6,0,0,1,.9-1.21,5.63,5.63,0,0,1,1.26-1,3.61,3.61,0,0,1,1-.41,1.61,1.61,0,0,1,.82,0,1,1,0,0,1,.53.42,1.47,1.47,0,0,1,.2.79l-1,.6a.9.9,0,0,0-.12-.48.66.66,0,0,0-.33-.26,1,1,0,0,0-.49,0,2,2,0,0,0-.61.25,3.06,3.06,0,0,0-.85.69,3.8,3.8,0,0,0-.55.84,3.88,3.88,0,0,0-.3.91,4.41,4.41,0,0,0-.09.86v.25a3.07,3.07,0,0,0,.09.77,1.16,1.16,0,0,0,.3.56.74.74,0,0,0,.55.21A1.74,1.74,0,0,0,43.25,147.38Z"/><path class="cls-9" d="M47.45,142.49a4.82,4.82,0,0,1,.2-1.39,5.7,5.7,0,0,1,.57-1.35,6.91,6.91,0,0,1,.9-1.21,5.72,5.72,0,0,1,1.2-.94,3.24,3.24,0,0,1,1.21-.45A1.31,1.31,0,0,1,53,138a2.87,2.87,0,0,1,.2,1.16v.13a4.82,4.82,0,0,1-.2,1.39,6.07,6.07,0,0,1-.57,1.35,6.49,6.49,0,0,1-.9,1.2,5.72,5.72,0,0,1-1.2.94,3.22,3.22,0,0,1-1.22.45,1.46,1.46,0,0,1-.9-.15,1.41,1.41,0,0,1-.57-.69,2.87,2.87,0,0,1-.2-1.16Zm1.08-.5a2.93,2.93,0,0,0,.11.83,1.24,1.24,0,0,0,.34.56.87.87,0,0,0,.56.18,1.89,1.89,0,0,0,.8-.27,3.17,3.17,0,0,0,.78-.64,3.9,3.9,0,0,0,.56-.83,4.69,4.69,0,0,0,.34-.95,4.47,4.47,0,0,0,.11-1v-.13A2.68,2.68,0,0,0,52,139a1.09,1.09,0,0,0-.34-.54.81.81,0,0,0-.56-.19,1.69,1.69,0,0,0-.79.26,3.07,3.07,0,0,0-.78.65A3.56,3.56,0,0,0,49,140a4.23,4.23,0,0,0-.45,1.89Z"/><path class="cls-9" d="M55.93,134.48l.07.9a5.69,5.69,0,0,1,.85-1.26,4.79,4.79,0,0,1,1.13-.94,3.3,3.3,0,0,1,.9-.38,1.09,1.09,0,0,1,.7,0,1,1,0,0,1,.44.5,2.73,2.73,0,0,1,.15,1v4l-1.08.63v-4a2,2,0,0,0-.09-.67.58.58,0,0,0-.28-.31.69.69,0,0,0-.45,0,2.84,2.84,0,0,0-.62.27,3.37,3.37,0,0,0-.95.82,4.46,4.46,0,0,0-.66,1.1v4.55l-1.09.62v-6.33Z"/><path class="cls-9" d="M64.72,127.87v1.54l2.41-1.4v.84l-2.41,1.39v3.45a1.3,1.3,0,0,0,.09.55.43.43,0,0,0,.26.24.63.63,0,0,0,.38,0,2.15,2.15,0,0,0,.45-.2l.37-.23.36-.26.34-.26.25-.2.16.68a3.42,3.42,0,0,1-.33.33,5.41,5.41,0,0,1-.43.35,5.92,5.92,0,0,1-.48.35l-.51.32a3.13,3.13,0,0,1-.78.33,1.06,1.06,0,0,1-.64,0,.8.8,0,0,1-.42-.43,2.06,2.06,0,0,1-.16-.91v-3.45l-1.66,1V131l1.66-1V128.5Z"/><path class="cls-9" d="M73.51,124.21l.32-.17a2.2,2.2,0,0,1,.31-.15l.27-.11.21-.06-.14,1.15c-.22.07-.41.16-.6.24a6,6,0,0,0-.6.32,4,4,0,0,0-1.23,1,4.14,4.14,0,0,0-.7,1.37v4.07l-1.09.63v-6.34l1-.6,0,1a6.07,6.07,0,0,1,.93-1.36A5,5,0,0,1,73.51,124.21Z"/><path class="cls-9" d="M80.72,126.51a.65.65,0,0,1-.1-.25c0-.11,0-.23-.06-.35-.1.17-.23.34-.36.52s-.29.35-.45.51a4.77,4.77,0,0,1-.52.48,4,4,0,0,1-.58.4,3.48,3.48,0,0,1-.91.38,1.34,1.34,0,0,1-.69,0,.74.74,0,0,1-.44-.33,1.18,1.18,0,0,1-.16-.65,2.72,2.72,0,0,1,.21-1,3.92,3.92,0,0,1,.59-1,6.07,6.07,0,0,1,.91-.92,9,9,0,0,1,1.2-.82l1.19-.69v-.49a.87.87,0,0,0-.11-.46.52.52,0,0,0-.3-.22,1,1,0,0,0-.47,0,2.65,2.65,0,0,0-.62.27,2.78,2.78,0,0,0-.58.42,3.05,3.05,0,0,0-.43.46,1.94,1.94,0,0,0-.27.48,1.07,1.07,0,0,0-.1.44l-1.09.63a2.08,2.08,0,0,1,.18-.79,4,4,0,0,1,.5-.89,5.76,5.76,0,0,1,.79-.88,6,6,0,0,1,1-.78,5,5,0,0,1,1-.44,1.76,1.76,0,0,1,.8-.07.85.85,0,0,1,.53.36,1.46,1.46,0,0,1,.19.82v2.95a3.55,3.55,0,0,0,.06.64,1.88,1.88,0,0,0,.16.52v.09Zm-1.91.28a3.56,3.56,0,0,0,.59-.43,5.9,5.9,0,0,0,.5-.5,4.56,4.56,0,0,0,.39-.54,3.43,3.43,0,0,0,.26-.5v-1.29l-1,.58a6.22,6.22,0,0,0-1.48,1.14,1.76,1.76,0,0,0-.52,1.19.94.94,0,0,0,.07.39.42.42,0,0,0,.24.2.77.77,0,0,0,.4,0A2.29,2.29,0,0,0,78.81,126.79Z"/><path class="cls-9" d="M86.46,122.43A3.46,3.46,0,0,0,87,122a3.71,3.71,0,0,0,.5-.55,2.72,2.72,0,0,0,.34-.59,1.4,1.4,0,0,0,.14-.57l1-.59a2.71,2.71,0,0,1-.22.93,5.32,5.32,0,0,1-.57,1,6.66,6.66,0,0,1-.82.94,5,5,0,0,1-1,.73,3.13,3.13,0,0,1-1.26.47,1.27,1.27,0,0,1-1.44-.87,3.06,3.06,0,0,1-.18-1.1v-.24a5.1,5.1,0,0,1,.18-1.31,5.74,5.74,0,0,1,.54-1.32,6.09,6.09,0,0,1,.9-1.22,5.32,5.32,0,0,1,1.26-1,3.29,3.29,0,0,1,1-.42,1.59,1.59,0,0,1,.82,0,.89.89,0,0,1,.53.42,1.44,1.44,0,0,1,.2.79l-1,.59a.84.84,0,0,0-.12-.47.66.66,0,0,0-.33-.26.88.88,0,0,0-.49,0,1.75,1.75,0,0,0-.61.24,3.06,3.06,0,0,0-.85.69,3.74,3.74,0,0,0-.55.85,3.81,3.81,0,0,0-.3.9,4.43,4.43,0,0,0-.09.87v.24a3.07,3.07,0,0,0,.09.77,1.12,1.12,0,0,0,.3.56.72.72,0,0,0,.55.21A1.65,1.65,0,0,0,86.46,122.43Z"/><path class="cls-9" d="M93.53,111.24v1.53l2.41-1.39v.84l-2.41,1.39v3.45a1.3,1.3,0,0,0,.09.55.41.41,0,0,0,.26.24.63.63,0,0,0,.38,0,2.15,2.15,0,0,0,.45-.2,3.61,3.61,0,0,0,.36-.23l.37-.26c.12-.09.23-.17.33-.26l.26-.2.15.68a2.57,2.57,0,0,1-.33.33c-.13.12-.27.23-.42.35s-.31.23-.48.35-.34.22-.51.31a2.77,2.77,0,0,1-.79.34,1,1,0,0,1-.63,0,.82.82,0,0,1-.43-.43,2.23,2.23,0,0,1-.15-.91v-3.45l-1.67,1v-.84l1.67-1v-1.53Z"/><path class="cls-15" d="M105.06,109.23a4.82,4.82,0,0,1,.2-1.39,5.7,5.7,0,0,1,.57-1.35,6.24,6.24,0,0,1,.9-1.21,5.72,5.72,0,0,1,1.2-.94,3.24,3.24,0,0,1,1.21-.45,1.41,1.41,0,0,1,.91.16,1.36,1.36,0,0,1,.57.69,2.87,2.87,0,0,1,.2,1.16V106a4.82,4.82,0,0,1-.2,1.39,5.81,5.81,0,0,1-.57,1.34,6.24,6.24,0,0,1-.9,1.21,5.72,5.72,0,0,1-1.2.94,3.24,3.24,0,0,1-1.21.45,1.41,1.41,0,0,1-.91-.16,1.32,1.32,0,0,1-.57-.69,2.82,2.82,0,0,1-.2-1.15Zm1.08-.5a3,3,0,0,0,.11.83,1.15,1.15,0,0,0,.34.55.84.84,0,0,0,.57.19A1.89,1.89,0,0,0,108,110a3.42,3.42,0,0,0,.78-.64,4,4,0,0,0,.56-.84,4.39,4.39,0,0,0,.34-.94,4.49,4.49,0,0,0,.11-1v-.12a3,3,0,0,0-.11-.83,1.26,1.26,0,0,0-.34-.55.8.8,0,0,0-.57-.18,1.73,1.73,0,0,0-.79.26,3,3,0,0,0-.78.64,4.24,4.24,0,0,0-.56.84,4.6,4.6,0,0,0-.34.94,4.54,4.54,0,0,0-.11.95Z"/><path class="cls-15" d="M113.52,105.27l.13.84.16-1,1-4.63.69-.4,1,3.46.17.89.16-1.08.7-4.45,1-.56-1.34,7.12-.86.5-1-3.32-.16-.89-.16,1.08-1,4.45-.86.49-1.34-5.56,1-.55Z"/><path class="cls-15" d="M120.74,97.06l.07.9a6.06,6.06,0,0,1,.85-1.26,4.79,4.79,0,0,1,1.13-.94,3.3,3.3,0,0,1,.9-.38,1.08,1.08,0,0,1,.7,0,.92.92,0,0,1,.44.5,2.73,2.73,0,0,1,.16,1v4l-1.09.63v-4a1.86,1.86,0,0,0-.09-.66.53.53,0,0,0-.28-.32.69.69,0,0,0-.45,0,2.79,2.79,0,0,0-.61.27,3.27,3.27,0,0,0-1,.82,4.46,4.46,0,0,0-.66,1.1v4.55l-1.08.63V97.63Z"/><path class="cls-15" d="M129.77,98.31a3.7,3.7,0,0,1-1.23.48,1.67,1.67,0,0,1-1-.09,1.31,1.31,0,0,1-.62-.61,2.4,2.4,0,0,1-.22-1.1v-.24a5,5,0,0,1,.24-1.52,6.66,6.66,0,0,1,.66-1.4,6.77,6.77,0,0,1,.92-1.18,4.69,4.69,0,0,1,1.07-.83,3.08,3.08,0,0,1,1.2-.46,1.24,1.24,0,0,1,.85.17,1.31,1.31,0,0,1,.5.69,3.16,3.16,0,0,1,.17,1.13v.49l-4.53,2.61a1.66,1.66,0,0,0,.17.72.9.9,0,0,0,.41.43,1,1,0,0,0,.62.09,2.19,2.19,0,0,0,.81-.3,4.32,4.32,0,0,0,1-.83,5.32,5.32,0,0,0,.75-1l.66.13a6.38,6.38,0,0,1-.4.69,5.71,5.71,0,0,1-.54.7,6.58,6.58,0,0,1-.71.68A5.88,5.88,0,0,1,129.77,98.31Zm-.14-5.6a2.74,2.74,0,0,0-.62.47,3.74,3.74,0,0,0-.53.66,4.27,4.27,0,0,0-.4.8,4,4,0,0,0-.22.9l3.41-2v-.09a1.69,1.69,0,0,0-.12-.56.83.83,0,0,0-.31-.38.85.85,0,0,0-.5-.11A1.81,1.81,0,0,0,129.63,92.71Z"/><path class="cls-15" d="M134,92.55a5.62,5.62,0,0,1,.18-1.41,6.22,6.22,0,0,1,.51-1.32,5.63,5.63,0,0,1,.8-1.13,4.22,4.22,0,0,1,1.05-.84,2.64,2.64,0,0,1,1-.38,1.13,1.13,0,0,1,.74.12V84.31l1.08-.63v9l-1,.58,0-.65a4.58,4.58,0,0,1-.76,1,4.78,4.78,0,0,1-1,.79,2.32,2.32,0,0,1-1,.35,1.2,1.2,0,0,1-.8-.22,1.64,1.64,0,0,1-.51-.73,3.33,3.33,0,0,1-.18-1.16Zm1.09-.51a2.88,2.88,0,0,0,.1.82,1.12,1.12,0,0,0,.3.56.71.71,0,0,0,.53.19,1.55,1.55,0,0,0,.78-.26,3,3,0,0,0,.5-.35,4,4,0,0,0,.4-.42,3,3,0,0,0,.32-.47,3.54,3.54,0,0,0,.25-.52V88.65a.9.9,0,0,0-.57-.31,1.64,1.64,0,0,0-.89.27,2.91,2.91,0,0,0-.78.64,3.58,3.58,0,0,0-.54.81,3.81,3.81,0,0,0-.3.92,4.36,4.36,0,0,0-.1.94Z"/><path class="cls-15" d="M153.28,86.76a2.33,2.33,0,0,1-.69.27,1.32,1.32,0,0,1-.56,0,.93.93,0,0,1-.42-.21,1.45,1.45,0,0,1-.3-.39,2.13,2.13,0,0,1-.18-.52,2.91,2.91,0,0,1-.06-.6v-1c0-.56-.13-.89-.4-1a1.64,1.64,0,0,0-1.23.32V82.8a3.59,3.59,0,0,0,1.23-1.09,2.55,2.55,0,0,0,.4-1.46v-1a3.85,3.85,0,0,1,.06-.66,4.92,4.92,0,0,1,.16-.72,5.46,5.46,0,0,1,.28-.73,5.64,5.64,0,0,1,.42-.7,4.91,4.91,0,0,1,.57-.65,4,4,0,0,1,.72-.54l.12.6a2.43,2.43,0,0,0-.67.59,2.57,2.57,0,0,0-.37.69,2.71,2.71,0,0,0-.16.75,6.23,6.23,0,0,0,0,.74v1a3.57,3.57,0,0,1-.32,1.43,4.52,4.52,0,0,1-1,1.38,1.09,1.09,0,0,1,1,.22,1.5,1.5,0,0,1,.32,1v1a3.85,3.85,0,0,0,.06.69,1.37,1.37,0,0,0,.2.53.62.62,0,0,0,.38.26.83.83,0,0,0,.6-.15Z"/><path class="cls-7" d="M73.52,145.07a.65.65,0,0,1-.1-.25,2,2,0,0,1-.06-.35c-.11.17-.23.34-.36.52s-.29.34-.45.51A4.77,4.77,0,0,1,72,146a4.6,4.6,0,0,1-.58.4,3.48,3.48,0,0,1-.91.38,1.37,1.37,0,0,1-.7,0,.77.77,0,0,1-.44-.33,1.29,1.29,0,0,1-.15-.66,2.71,2.71,0,0,1,.21-1,3.92,3.92,0,0,1,.59-1,6.07,6.07,0,0,1,.91-.92,8.16,8.16,0,0,1,1.2-.82l1.19-.69v-.5a.83.83,0,0,0-.11-.45.52.52,0,0,0-.3-.22,1,1,0,0,0-.47,0,2.48,2.48,0,0,0-.63.27,3.45,3.45,0,0,0-.57.41,3.06,3.06,0,0,0-.43.47,2.14,2.14,0,0,0-.28.48,1.23,1.23,0,0,0-.09.44l-1.09.62a2.07,2.07,0,0,1,.18-.78,4.42,4.42,0,0,1,.49-.89,5.9,5.9,0,0,1,.8-.88,6,6,0,0,1,1.05-.78,4.08,4.08,0,0,1,1-.44,1.52,1.52,0,0,1,.8-.07.85.85,0,0,1,.53.36,1.53,1.53,0,0,1,.19.82v2.95a3.55,3.55,0,0,0,.06.64,2,2,0,0,0,.16.52v.09Zm-1.92.27a3.59,3.59,0,0,0,.6-.42,5.9,5.9,0,0,0,.5-.5,4.56,4.56,0,0,0,.39-.54,3.51,3.51,0,0,0,.26-.51v-1.28l-1,.58a6.22,6.22,0,0,0-1.48,1.14,1.78,1.78,0,0,0-.53,1.19.86.86,0,0,0,.08.38.41.41,0,0,0,.24.21.78.78,0,0,0,.4,0A1.67,1.67,0,0,0,71.6,145.34Z"/><path class="cls-7" d="M76.35,140.21a5.68,5.68,0,0,1,.18-1.41,6.22,6.22,0,0,1,.51-1.32,5.93,5.93,0,0,1,.8-1.13,4.22,4.22,0,0,1,1-.84,2.64,2.64,0,0,1,1-.38,1.07,1.07,0,0,1,.74.13V132l1.08-.63v9l-1,.58,0-.64a4.52,4.52,0,0,1-.76,1,4.78,4.78,0,0,1-1,.79,2.32,2.32,0,0,1-1,.35,1.15,1.15,0,0,1-.8-.22,1.5,1.5,0,0,1-.51-.73,3.33,3.33,0,0,1-.18-1.16Zm1.09-.5a3,3,0,0,0,.1.82,1.08,1.08,0,0,0,.3.55.76.76,0,0,0,.53.2,1.58,1.58,0,0,0,.78-.27,2.54,2.54,0,0,0,.49-.35,3.18,3.18,0,0,0,.41-.41,3.64,3.64,0,0,0,.32-.48,3.44,3.44,0,0,0,.25-.51v-2.94a.81.81,0,0,0-.57-.31,1.52,1.52,0,0,0-.89.26,2.91,2.91,0,0,0-.78.64,3.42,3.42,0,0,0-.54.82,3.74,3.74,0,0,0-.3.91,4.36,4.36,0,0,0-.1.94Z"/><path class="cls-7" d="M83.55,136.05a5.68,5.68,0,0,1,.18-1.41,5.94,5.94,0,0,1,.51-1.31,5.36,5.36,0,0,1,.8-1.13,4.26,4.26,0,0,1,1-.85,2.83,2.83,0,0,1,1-.38,1.07,1.07,0,0,1,.74.13v-3.29l1.08-.63v9l-1,.58,0-.64a4.73,4.73,0,0,1-1.78,1.81,2.49,2.49,0,0,1-1,.36,1.26,1.26,0,0,1-.8-.22,1.77,1.77,0,0,1-.51-.73,3.39,3.39,0,0,1-.18-1.17Zm1.09-.5a2.92,2.92,0,0,0,.1.82,1.16,1.16,0,0,0,.3.55.76.76,0,0,0,.53.2,1.66,1.66,0,0,0,.78-.26,4.89,4.89,0,0,0,.5-.35,4,4,0,0,0,.4-.42,3.08,3.08,0,0,0,.32-.48,3,3,0,0,0,.25-.51v-2.94a.81.81,0,0,0-.57-.31,1.49,1.49,0,0,0-.89.27,2.73,2.73,0,0,0-.78.64,3.58,3.58,0,0,0-.54.81,4.22,4.22,0,0,0-.3.91,4.45,4.45,0,0,0-.1,1Z"/><path class="cls-7" d="M95.11,126.14l.32-.17.31-.15a2,2,0,0,1,.28-.11l.21-.06-.15,1.15a5.36,5.36,0,0,0-.6.24c-.19.09-.39.19-.6.31a4.25,4.25,0,0,0-1.23,1.06,4.31,4.31,0,0,0-.69,1.37v4.06l-1.09.63v-6.34l1-.59,0,1a7.44,7.44,0,0,1,.93-1.36A5.18,5.18,0,0,1,95.11,126.14Z"/><path class="cls-7" d="M101,129.34a3.54,3.54,0,0,1-1.23.48,1.63,1.63,0,0,1-1-.09,1.23,1.23,0,0,1-.62-.61,2.36,2.36,0,0,1-.23-1.1v-.24a4.7,4.7,0,0,1,.25-1.52,6.56,6.56,0,0,1,1.58-2.58,5.28,5.28,0,0,1,1.06-.83,3.2,3.2,0,0,1,1.2-.46,1.24,1.24,0,0,1,.85.17,1.31,1.31,0,0,1,.51.69,3.45,3.45,0,0,1,.17,1.13v.49L99,127.49a1.65,1.65,0,0,0,.16.71,1,1,0,0,0,.41.43,1.07,1.07,0,0,0,.63.09,2.15,2.15,0,0,0,.8-.3,4.13,4.13,0,0,0,1-.83,5.32,5.32,0,0,0,.75-1l.66.13a4.94,4.94,0,0,1-.39.69,5.81,5.81,0,0,1-.55.7,6.46,6.46,0,0,1-.7.68A6.59,6.59,0,0,1,101,129.34Zm-.14-5.6a2.52,2.52,0,0,0-.62.48,4.28,4.28,0,0,0-.53.65,4.24,4.24,0,0,0-.39.8,3.92,3.92,0,0,0-.23.91l3.41-2v-.09a1.58,1.58,0,0,0-.12-.55.85.85,0,0,0-.3-.39.86.86,0,0,0-.5-.11A1.91,1.91,0,0,0,100.82,123.74Z"/><path class="cls-7" d="M109.58,122.57a.57.57,0,0,0-.08-.31.34.34,0,0,0-.26-.13,1.44,1.44,0,0,0-.48,0,4.94,4.94,0,0,0-.74.23,6.41,6.41,0,0,1-1,.3,2.38,2.38,0,0,1-.76.07.74.74,0,0,1-.5-.23.83.83,0,0,1-.17-.59,2.08,2.08,0,0,1,.18-.83,4.24,4.24,0,0,1,.51-.88,6.13,6.13,0,0,1,.78-.85,5.67,5.67,0,0,1,1-.72,4.15,4.15,0,0,1,1-.46,1.72,1.72,0,0,1,.8,0,.88.88,0,0,1,.51.34,1.15,1.15,0,0,1,.17.67l-1.08.63a.53.53,0,0,0-.1-.34.51.51,0,0,0-.3-.18,1,1,0,0,0-.45,0,2.08,2.08,0,0,0-.6.25,3.49,3.49,0,0,0-.61.43,3,3,0,0,0-.43.45,1.74,1.74,0,0,0-.26.45,1.08,1.08,0,0,0-.09.4.53.53,0,0,0,.07.3.31.31,0,0,0,.24.12,1.41,1.41,0,0,0,.46-.06,7.61,7.61,0,0,0,.74-.24,9.17,9.17,0,0,1,1-.32A2.21,2.21,0,0,1,110,121a.7.7,0,0,1,.48.24.93.93,0,0,1,.17.6,2.36,2.36,0,0,1-.19.87,4.16,4.16,0,0,1-.53.9,5.44,5.44,0,0,1-.82.85,7.1,7.1,0,0,1-1,.74,4.8,4.8,0,0,1-1.15.49,1.78,1.78,0,0,1-.85,0,.85.85,0,0,1-.54-.35,1.17,1.17,0,0,1-.18-.67l1.08-.63a.7.7,0,0,0,.18.46.62.62,0,0,0,.39.15,1.48,1.48,0,0,0,.51-.1,4.67,4.67,0,0,0,.56-.26,4.09,4.09,0,0,0,1.08-.88A1.51,1.51,0,0,0,109.58,122.57Z"/><path class="cls-7" d="M116.78,118.41a.57.57,0,0,0-.08-.31.38.38,0,0,0-.26-.13,1.44,1.44,0,0,0-.48,0,4.94,4.94,0,0,0-.74.23,7.9,7.9,0,0,1-1,.31,2.63,2.63,0,0,1-.76.06.74.74,0,0,1-.5-.23.82.82,0,0,1-.17-.58A2.18,2.18,0,0,1,113,117a4.05,4.05,0,0,1,.51-.89,6.76,6.76,0,0,1,.78-.85,6.06,6.06,0,0,1,1-.72,4.54,4.54,0,0,1,1-.46,1.7,1.7,0,0,1,.8,0,.82.82,0,0,1,.51.33,1.19,1.19,0,0,1,.18.68l-1.09.62a.53.53,0,0,0-.1-.34.51.51,0,0,0-.3-.18,1,1,0,0,0-.45,0,2.08,2.08,0,0,0-.6.25,4.12,4.12,0,0,0-.61.43,3,3,0,0,0-.43.45,2.14,2.14,0,0,0-.26.45,1.08,1.08,0,0,0-.09.4.51.51,0,0,0,.07.3.31.31,0,0,0,.24.12,1.78,1.78,0,0,0,.47,0c.19,0,.44-.14.73-.25a9.17,9.17,0,0,1,1.05-.32,2.21,2.21,0,0,1,.78-.06.74.74,0,0,1,.48.24,1,1,0,0,1,.17.6,2.26,2.26,0,0,1-.19.88,3.94,3.94,0,0,1-.53.89,6.48,6.48,0,0,1-.81.86,7.74,7.74,0,0,1-1,.73,4.43,4.43,0,0,1-1.15.49,1.78,1.78,0,0,1-.85,0,.85.85,0,0,1-.54-.35,1.17,1.17,0,0,1-.18-.67l1.08-.63a.68.68,0,0,0,.18.46.59.59,0,0,0,.39.15,1.48,1.48,0,0,0,.51-.1,3.51,3.51,0,0,0,.56-.26,3.76,3.76,0,0,0,1.08-.88A1.51,1.51,0,0,0,116.78,118.41Z"/><path class="cls-9" d="M132.32,108a6,6,0,0,1-.65,2.66,5.17,5.17,0,0,1-.78,1.13,4.64,4.64,0,0,1-1.06.87,3.23,3.23,0,0,1-1,.4,1.27,1.27,0,0,1-.76-.1v3l-1.08.63v-8.78l1-.57,0,.66a4.92,4.92,0,0,1,.77-1,4.67,4.67,0,0,1,1-.81,2.56,2.56,0,0,1,1.08-.38,1.12,1.12,0,0,1,.78.21,1.58,1.58,0,0,1,.48.75,3.88,3.88,0,0,1,.17,1.21Zm-1.09.5a2.92,2.92,0,0,0-.1-.82,1.18,1.18,0,0,0-.32-.56.76.76,0,0,0-.54-.19,1.58,1.58,0,0,0-.78.27,3,3,0,0,0-.88.75,4,4,0,0,0-.57,1v3a.85.85,0,0,0,.57.29,1.61,1.61,0,0,0,.89-.28,3,3,0,0,0,.78-.64,3.48,3.48,0,0,0,.54-.83,4.15,4.15,0,0,0,.31-.92,4.42,4.42,0,0,0,.1-.94Z"/><path class="cls-9" d="M138.28,106.8a5,5,0,0,1-.79,1.19,4.52,4.52,0,0,1-1.1.89,3.24,3.24,0,0,1-.9.37,1,1,0,0,1-.69-.09,1,1,0,0,1-.44-.57,3.19,3.19,0,0,1-.16-1.13v-3.77l1.09-.63v3.78a2.88,2.88,0,0,0,.08.81.63.63,0,0,0,.25.4.48.48,0,0,0,.4,0,1.81,1.81,0,0,0,.54-.23,3.53,3.53,0,0,0,1.07-.89,3.29,3.29,0,0,0,.61-1.07v-4.55l1.09-.63v6.34l-1,.57Z"/><path class="cls-9" d="M146.74,99.69a5.84,5.84,0,0,1-.64,2.66,5.49,5.49,0,0,1-.78,1.14,4.65,4.65,0,0,1-1.07.86,2.67,2.67,0,0,1-1.06.39,1.1,1.1,0,0,1-.77-.18l0,.75-1,.58v-9l1.09-.63V99.6a5.06,5.06,0,0,1,.75-1,4.52,4.52,0,0,1,1-.8,2.65,2.65,0,0,1,1.08-.38,1.14,1.14,0,0,1,.79.21,1.58,1.58,0,0,1,.48.75,3.86,3.86,0,0,1,.16,1.21Zm-1.08.5a3.58,3.58,0,0,0-.09-.83,1.28,1.28,0,0,0-.29-.57.73.73,0,0,0-.52-.2,1.65,1.65,0,0,0-.79.27,3.25,3.25,0,0,0-.52.37,2.55,2.55,0,0,0-.42.45,4.2,4.2,0,0,0-.33.49q-.13.27-.24.54v2.77a.82.82,0,0,0,.25.24.6.6,0,0,0,.33.12,1,1,0,0,0,.42,0,2.44,2.44,0,0,0,.52-.22,3.11,3.11,0,0,0,.76-.63,3.43,3.43,0,0,0,.52-.8,3.6,3.6,0,0,0,.3-.91,4.2,4.2,0,0,0,.1-.93Z"/><path class="cls-9" d="M148.74,92.64,152,90.77v8.06l2.07-1.2v.94l-5.31,3.07v-.94l2.16-1.25V92.34l-2.16,1.24Z"/><path class="cls-9" d="M155.94,91.14l3.24-1.87v5.4l2.07-1.19v.94l-5.31,3.06v-.94l2.16-1.24V90.84l-2.16,1.24Zm2-2.83a1,1,0,0,1,.16-.54,1.24,1.24,0,0,1,.49-.47c.21-.13.37-.16.48-.1a.37.37,0,0,1,.17.36,1,1,0,0,1-.17.53,1.25,1.25,0,0,1-.48.46c-.22.13-.38.16-.49.11A.35.35,0,0,1,158,88.31Z"/><path class="cls-9" d="M165.67,91.1a3.69,3.69,0,0,0,.58-.42,4.2,4.2,0,0,0,.49-.55,3.65,3.65,0,0,0,.35-.59,1.64,1.64,0,0,0,.14-.57l1-.6a2.32,2.32,0,0,1-.22.94,4.82,4.82,0,0,1-.57,1,7.17,7.17,0,0,1-.82.94,5.48,5.48,0,0,1-1,.73,3.31,3.31,0,0,1-1.25.47,1.42,1.42,0,0,1-.91-.18,1.36,1.36,0,0,1-.54-.69,3.06,3.06,0,0,1-.18-1.1v-.25a5,5,0,0,1,.18-1.3,5.63,5.63,0,0,1,.54-1.33,6.5,6.5,0,0,1,.91-1.21,5.35,5.35,0,0,1,1.25-1,3.55,3.55,0,0,1,1-.41,1.57,1.57,0,0,1,.81,0,1,1,0,0,1,.54.42,1.47,1.47,0,0,1,.19.79l-1,.59a1,1,0,0,0-.13-.47.68.68,0,0,0-.32-.26,1,1,0,0,0-.49,0,2.31,2.31,0,0,0-.62.24,3.4,3.4,0,0,0-.84.7,3.66,3.66,0,0,0-.86,1.75,4.41,4.41,0,0,0-.09.86v.25a3.13,3.13,0,0,0,.09.77,1.16,1.16,0,0,0,.3.56.74.74,0,0,0,.55.21A1.82,1.82,0,0,0,165.67,91.1Z"/><path class="cls-15" d="M40.24,175.45a5.19,5.19,0,0,1,.2-1.39,6.67,6.67,0,0,1,.57-1.35,5.9,5.9,0,0,1,.91-1.21,5.72,5.72,0,0,1,1.2-.94,3.18,3.18,0,0,1,1.21-.45,1.41,1.41,0,0,1,.91.16,1.36,1.36,0,0,1,.57.69,3.05,3.05,0,0,1,.2,1.16v.13a5.19,5.19,0,0,1-.2,1.39,5.81,5.81,0,0,1-.57,1.34,5.9,5.9,0,0,1-.91,1.21,5.25,5.25,0,0,1-1.2.94,3.18,3.18,0,0,1-1.21.45,1.31,1.31,0,0,1-1.48-.85,3,3,0,0,1-.2-1.15Zm1.09-.5a3,3,0,0,0,.11.83,1.08,1.08,0,0,0,.34.55.83.83,0,0,0,.56.19,1.81,1.81,0,0,0,.79-.27,3.26,3.26,0,0,0,.79-.64,4,4,0,0,0,.56-.84,3.89,3.89,0,0,0,.33-.94,4,4,0,0,0,.12-1v-.12a2.64,2.64,0,0,0-.12-.83,1.18,1.18,0,0,0-.34-.55.82.82,0,0,0-.56-.18,1.66,1.66,0,0,0-.79.26,3,3,0,0,0-.78.64,3.84,3.84,0,0,0-.56.84,4.08,4.08,0,0,0-.34.94,4.54,4.54,0,0,0-.11.95Z"/><path class="cls-15" d="M48.71,171.49l.13.84.16-1,1-4.63.7-.4,1,3.46.17.89.16-1.08.7-4.45,1-.56-1.35,7.12-.85.5-1-3.32-.17-.89-.16,1.08-1,4.45-.86.49L47,168.43l1-.55Z"/><path class="cls-15" d="M55.93,163.28l.07.9a5.69,5.69,0,0,1,.85-1.26A4.79,4.79,0,0,1,58,162a3.3,3.3,0,0,1,.9-.38,1.09,1.09,0,0,1,.7,0,1,1,0,0,1,.44.5,2.76,2.76,0,0,1,.15,1v4l-1.08.63v-4a2,2,0,0,0-.09-.67.58.58,0,0,0-.28-.31.69.69,0,0,0-.45,0,2.84,2.84,0,0,0-.62.27,3.54,3.54,0,0,0-.95.82A4.46,4.46,0,0,0,56,165v4.55l-1.09.63v-6.34Z"/><path class="cls-15" d="M65,164.53a3.58,3.58,0,0,1-1.22.48,1.65,1.65,0,0,1-1-.09,1.27,1.27,0,0,1-.62-.61,2.4,2.4,0,0,1-.22-1.1V163a5,5,0,0,1,.24-1.52,6.56,6.56,0,0,1,1.58-2.58,5.2,5.2,0,0,1,1.06-.83,3.2,3.2,0,0,1,1.2-.46,1.23,1.23,0,0,1,.85.17,1.28,1.28,0,0,1,.51.69,3.4,3.4,0,0,1,.17,1.13v.49L63,162.68a1.65,1.65,0,0,0,.17.71.9.9,0,0,0,.41.43,1,1,0,0,0,.62.09,2.15,2.15,0,0,0,.8-.3,4.13,4.13,0,0,0,1-.83,5.32,5.32,0,0,0,.75-1.05l.67.13a6.38,6.38,0,0,1-.4.69,5.81,5.81,0,0,1-.55.7,5.66,5.66,0,0,1-.7.68A6,6,0,0,1,65,164.53Zm-.14-5.6a2.73,2.73,0,0,0-.62.48,3.71,3.71,0,0,0-.52.65,4.27,4.27,0,0,0-.4.8,4.57,4.57,0,0,0-.23.9l3.41-2v-.09a1.58,1.58,0,0,0-.12-.55.74.74,0,0,0-.3-.39.86.86,0,0,0-.5-.11A1.91,1.91,0,0,0,64.81,158.93Z"/><path class="cls-15" d="M73.51,153l.32-.17a2.2,2.2,0,0,1,.31-.15l.27-.11.21-.06-.14,1.15-.6.24c-.19.09-.39.2-.6.32a4,4,0,0,0-1.23,1.05,4.14,4.14,0,0,0-.7,1.37v4.07l-1.09.63V155l1-.6,0,1a6.07,6.07,0,0,1,.93-1.36A5,5,0,0,1,73.51,153Z"/><path class="cls-15" d="M80.08,155.43A2.79,2.79,0,0,1,80,156a4.35,4.35,0,0,1-.2.72,6.75,6.75,0,0,1-.32.75,6.06,6.06,0,0,1-.43.73l-.68,0a4.39,4.39,0,0,0,.4-1.11,4.57,4.57,0,0,0,.12-1v-1l1.18-.68Zm-1.4-4.78a1.13,1.13,0,0,1,.06-.36,1.64,1.64,0,0,1,.42-.69,1.72,1.72,0,0,1,.37-.28,1.24,1.24,0,0,1,.38-.15.48.48,0,0,1,.27,0,.38.38,0,0,1,.16.17.67.67,0,0,1,0,.3,1.1,1.1,0,0,1,0,.35,1.89,1.89,0,0,1-.16.36,3.92,3.92,0,0,1-.27.33,2.16,2.16,0,0,1-.38.27,1.59,1.59,0,0,1-.37.16.44.44,0,0,1-.26,0,.35.35,0,0,1-.16-.16A.65.65,0,0,1,78.68,150.65Z"/><path class="cls-15" d="M72.06,188.35a4.15,4.15,0,0,0,.57-.42,4.2,4.2,0,0,0,.49-.55,2.84,2.84,0,0,0,.35-.6,1.4,1.4,0,0,0,.14-.56l1-.6a2.32,2.32,0,0,1-.22.94,4.82,4.82,0,0,1-.57,1,6.5,6.5,0,0,1-.82.94,5.41,5.41,0,0,1-1,.73,3.29,3.29,0,0,1-1.26.47,1.29,1.29,0,0,1-1.44-.87,2.85,2.85,0,0,1-.19-1.1v-.25a4.65,4.65,0,0,1,.19-1.3,5.63,5.63,0,0,1,.54-1.33,6,6,0,0,1,.9-1.21,5.63,5.63,0,0,1,1.26-1,3.5,3.5,0,0,1,1-.41,1.57,1.57,0,0,1,.81,0,1,1,0,0,1,.54.42,1.47,1.47,0,0,1,.19.79l-1,.59a.87.87,0,0,0-.13-.47.63.63,0,0,0-.32-.26,1,1,0,0,0-.49,0,2.14,2.14,0,0,0-.61.24,3.28,3.28,0,0,0-.85.7,3.92,3.92,0,0,0-.86,1.75,4.41,4.41,0,0,0-.09.86v.25a3.13,3.13,0,0,0,.09.77,1.16,1.16,0,0,0,.3.56.74.74,0,0,0,.55.21A1.89,1.89,0,0,0,72.06,188.35Z"/><path class="cls-15" d="M76.25,183.46a5.19,5.19,0,0,1,.2-1.39,5.7,5.7,0,0,1,.57-1.35,5.9,5.9,0,0,1,.91-1.21,5.25,5.25,0,0,1,1.2-.94,3.18,3.18,0,0,1,1.21-.45,1.41,1.41,0,0,1,.91.16,1.36,1.36,0,0,1,.57.69,3.05,3.05,0,0,1,.2,1.16v.13a5.19,5.19,0,0,1-.2,1.39,6,6,0,0,1-1.48,2.55,5.25,5.25,0,0,1-1.2.94,3.18,3.18,0,0,1-1.21.45,1.41,1.41,0,0,1-.91-.16,1.32,1.32,0,0,1-.57-.69,3,3,0,0,1-.2-1.15Zm1.09-.5a2.65,2.65,0,0,0,.11.83,1.07,1.07,0,0,0,.33.55.84.84,0,0,0,.57.19,1.81,1.81,0,0,0,.79-.27,3,3,0,0,0,.78-.64,3.66,3.66,0,0,0,.57-.84,3.89,3.89,0,0,0,.33-.94,3.93,3.93,0,0,0,.11-1v-.12a2.69,2.69,0,0,0-.11-.83,1.26,1.26,0,0,0-.34-.55.82.82,0,0,0-.56-.18,1.66,1.66,0,0,0-.79.26,3.26,3.26,0,0,0-.79.64,4.24,4.24,0,0,0-.56.84,4,4,0,0,0-.33.94,4,4,0,0,0-.11,1Z"/><path class="cls-15" d="M84.73,175.45l.08.9a5.47,5.47,0,0,1,.85-1.26,4.52,4.52,0,0,1,1.12-.94,3.34,3.34,0,0,1,.91-.38,1.05,1.05,0,0,1,.69,0,.92.92,0,0,1,.44.5,2.52,2.52,0,0,1,.16,1v4l-1.09.63v-4a1.94,1.94,0,0,0-.09-.66.48.48,0,0,0-.28-.31.69.69,0,0,0-.45,0,2.08,2.08,0,0,0-.61.27,3.55,3.55,0,0,0-1,.82,5.18,5.18,0,0,0-.66,1.1v4.55l-1.08.62V176Z"/><path class="cls-15" d="M95.17,174.08a.51.51,0,0,0-.07-.3.35.35,0,0,0-.26-.14,1.77,1.77,0,0,0-.48,0,5.65,5.65,0,0,0-.75.24,8.89,8.89,0,0,1-1,.3,2.42,2.42,0,0,1-.77.07.76.76,0,0,1-.49-.23.85.85,0,0,1-.18-.59,2.18,2.18,0,0,1,.18-.83,4,4,0,0,1,.51-.88,5.21,5.21,0,0,1,.79-.85,5.5,5.5,0,0,1,1-.73,4.7,4.7,0,0,1,1.06-.45,1.59,1.59,0,0,1,.8,0,.83.83,0,0,1,.5.33,1.19,1.19,0,0,1,.18.68l-1.08.62A.58.58,0,0,0,95,171a.52.52,0,0,0-.29-.18,1,1,0,0,0-.45,0,2.25,2.25,0,0,0-.61.25,4.22,4.22,0,0,0-.6.43,2.69,2.69,0,0,0-.44.46,2.09,2.09,0,0,0-.26.45,1.23,1.23,0,0,0-.08.4.5.5,0,0,0,.07.29.28.28,0,0,0,.24.12,1.16,1.16,0,0,0,.46-.05,7.61,7.61,0,0,0,.74-.24,9.4,9.4,0,0,1,1-.33,2.18,2.18,0,0,1,.78-.06.7.7,0,0,1,.48.25.9.9,0,0,1,.17.59,2.45,2.45,0,0,1-.19.88,4.7,4.7,0,0,1-.53.9,6.49,6.49,0,0,1-.82.85,7.15,7.15,0,0,1-1,.73,4.38,4.38,0,0,1-1.14.49,2,2,0,0,1-.86,0,.88.88,0,0,1-.53-.36,1.15,1.15,0,0,1-.18-.67l1.08-.62a.63.63,0,0,0,.18.46.56.56,0,0,0,.38.14,1.29,1.29,0,0,0,.52-.1,3.42,3.42,0,0,0,.55-.26,4,4,0,0,0,1.09-.88A1.49,1.49,0,0,0,95.17,174.08Z"/><path class="cls-15" d="M100.73,164.68v1.54l2.41-1.4v.84l-2.41,1.39v3.45a1.36,1.36,0,0,0,.09.56.42.42,0,0,0,.26.23.63.63,0,0,0,.38,0,2.15,2.15,0,0,0,.45-.2,3.61,3.61,0,0,0,.36-.23c.13-.08.25-.17.37-.26l.33-.25.26-.21.15.68a3.44,3.44,0,0,1-.33.34c-.13.11-.27.23-.42.34a5.92,5.92,0,0,1-.48.35l-.51.32a3,3,0,0,1-.79.33,1,1,0,0,1-.63,0,.82.82,0,0,1-.43-.43,2.23,2.23,0,0,1-.15-.91v-3.45l-1.67,1v-.83l1.67-1v-1.54Z"/><path class="cls-15" d="M109.52,161l.31-.17.32-.15.27-.11.21-.06-.15,1.15-.6.24c-.19.09-.39.2-.59.32a4.14,4.14,0,0,0-1.24,1,4.42,4.42,0,0,0-.69,1.37v4.07l-1.09.63V163l1-.6,0,1a6.81,6.81,0,0,1,.93-1.36A5,5,0,0,1,109.52,161Z"/><path class="cls-15" d="M116.68,162.48a5.29,5.29,0,0,1-.79,1.18,4.26,4.26,0,0,1-1.1.89,2.72,2.72,0,0,1-.9.37.92.92,0,0,1-1.14-.66,3.47,3.47,0,0,1-.15-1.13v-3.77l1.08-.62v3.78a3.28,3.28,0,0,0,.08.8.68.68,0,0,0,.25.4.49.49,0,0,0,.4.06,2.24,2.24,0,0,0,.55-.24,3.79,3.79,0,0,0,1.07-.88,3.88,3.88,0,0,0,.61-1.08V157l1.09-.63v6.34l-1,.57Z"/><path class="cls-15" d="M122.47,159.24a3.46,3.46,0,0,0,.57-.42,3.64,3.64,0,0,0,.49-.55,2.78,2.78,0,0,0,.35-.59,1.58,1.58,0,0,0,.14-.57l1-.59a2.32,2.32,0,0,1-.22.93,4.58,4.58,0,0,1-.57,1,6.07,6.07,0,0,1-.82.94,5.3,5.3,0,0,1-1,.73,3.13,3.13,0,0,1-1.26.47,1.27,1.27,0,0,1-1.44-.87,2.81,2.81,0,0,1-.19-1.1v-.24a4.72,4.72,0,0,1,.19-1.31,5.74,5.74,0,0,1,.54-1.32,6.09,6.09,0,0,1,.9-1.22,5.59,5.59,0,0,1,1.26-1,3.29,3.29,0,0,1,1-.42,1.56,1.56,0,0,1,.81,0,.94.94,0,0,1,.54.42,1.45,1.45,0,0,1,.19.79l-1,.59a.93.93,0,0,0-.13-.47.68.68,0,0,0-.32-.26.88.88,0,0,0-.49,0,1.68,1.68,0,0,0-.61.24,3.06,3.06,0,0,0-.85.69,3.74,3.74,0,0,0-.55.85,3.84,3.84,0,0,0-.31.9,4.51,4.51,0,0,0-.09.87V158a3.21,3.21,0,0,0,.09.78,1.13,1.13,0,0,0,.3.55.74.74,0,0,0,.55.21A1.67,1.67,0,0,0,122.47,159.24Z"/><path class="cls-15" d="M129.53,148.05v1.54l2.42-1.4V149l-2.42,1.39v3.45a1.19,1.19,0,0,0,.1.56.4.4,0,0,0,.25.23.63.63,0,0,0,.38,0,2.21,2.21,0,0,0,.46-.2l.36-.23.37-.26c.11-.09.23-.17.33-.26s.19-.14.25-.2l.16.68a3.44,3.44,0,0,1-.33.34l-.42.34c-.15.12-.32.24-.49.35l-.5.31a2.9,2.9,0,0,1-.79.34,1.06,1.06,0,0,1-.64,0,.8.8,0,0,1-.42-.43,2.22,2.22,0,0,1-.16-.91v-3.45l-1.66,1v-.83l1.66-1v-1.54Z"/><path class="cls-15" d="M133.86,150.2a5.19,5.19,0,0,1,.2-1.39,6.67,6.67,0,0,1,.57-1.35,5.9,5.9,0,0,1,.91-1.21,5.25,5.25,0,0,1,1.2-.94,3.18,3.18,0,0,1,1.21-.45,1.41,1.41,0,0,1,.91.16,1.32,1.32,0,0,1,.57.69,3.05,3.05,0,0,1,.2,1.16V147a5.12,5.12,0,0,1-.2,1.38,5.7,5.7,0,0,1-.57,1.35,5.9,5.9,0,0,1-.91,1.21,5.54,5.54,0,0,1-1.2.94,3.36,3.36,0,0,1-1.21.45,1.31,1.31,0,0,1-1.48-.85,3,3,0,0,1-.2-1.15Zm1.09-.5a2.65,2.65,0,0,0,.11.83,1.06,1.06,0,0,0,.34.55.76.76,0,0,0,.56.18,1.66,1.66,0,0,0,.79-.26,3,3,0,0,0,.78-.64,3.9,3.9,0,0,0,.9-1.78,4,4,0,0,0,.12-1v-.13a2.62,2.62,0,0,0-.12-.82,1.2,1.2,0,0,0-.34-.55.83.83,0,0,0-.56-.19,1.69,1.69,0,0,0-.79.27,3,3,0,0,0-.78.64,3.84,3.84,0,0,0-.56.84,3.53,3.53,0,0,0-.34.94,4,4,0,0,0-.11.95Z"/><path class="cls-15" d="M145.52,140.24l.32-.18.31-.15.28-.11a1,1,0,0,1,.21-.05l-.15,1.14-.6.24c-.19.09-.39.2-.6.32a4.11,4.11,0,0,0-1.23,1.06,4.26,4.26,0,0,0-.69,1.36v4.07l-1.09.63v-6.34l1-.6.05,1a6.81,6.81,0,0,1,.93-1.36A4.74,4.74,0,0,1,145.52,140.24Z"/><path class="cls-15" d="M149.64,140.85a11.24,11.24,0,0,1,.13-1.65,12.84,12.84,0,0,1,.36-1.57,14.5,14.5,0,0,1,.51-1.45c.2-.46.4-.88.61-1.28s.43-.74.64-1.06a8.91,8.91,0,0,1,.62-.81l.23.59a8,8,0,0,0-.73,1.16,10.83,10.83,0,0,0-.64,1.53,11.8,11.8,0,0,0-.46,1.82,11.62,11.62,0,0,0-.18,2.09v.08a8.56,8.56,0,0,0,.18,1.88,4.6,4.6,0,0,0,.46,1.29,2.38,2.38,0,0,0,.64.79,1.84,1.84,0,0,0,.73.36l-.23.8a2.22,2.22,0,0,1-1.26-.42,2.71,2.71,0,0,1-.61-.57,3.2,3.2,0,0,1-.51-.85,5.76,5.76,0,0,1-.36-1.17,8.38,8.38,0,0,1-.13-1.5Z"/><path class="cls-15" d="M159.73,135.09a10,10,0,0,1-.14,1.65,11.21,11.21,0,0,1-.35,1.57,14.5,14.5,0,0,1-.51,1.45c-.2.46-.4.88-.61,1.28a11.42,11.42,0,0,1-.65,1.06c-.21.31-.42.58-.61.81l-.23-.54a8,8,0,0,0,.72-1.17,10.49,10.49,0,0,0,.65-1.54,13,13,0,0,0,.46-1.84,11.7,11.7,0,0,0,.18-2.09v-.08a8.45,8.45,0,0,0-.19-1.88,5.47,5.47,0,0,0-.48-1.31,2.8,2.8,0,0,0-.65-.79,1.88,1.88,0,0,0-.69-.35l.23-.8a1.94,1.94,0,0,1,.61.1,2.07,2.07,0,0,1,.65.32,3.21,3.21,0,0,1,.61.57,3.91,3.91,0,0,1,.51.86,5,5,0,0,1,.35,1.16,7.5,7.5,0,0,1,.14,1.5Z"/><path class="cls-9" d="M45.9,215.51a5.69,5.69,0,0,1-.17,1.36,5.54,5.54,0,0,1-.47,1.31,5.88,5.88,0,0,1-.79,1.13,4.4,4.4,0,0,1-1.06.86,3.27,3.27,0,0,1-1,.4,1.25,1.25,0,0,1-.76-.1v3.05l-1.09.62v-8.78l1-.57.06.66a4.7,4.7,0,0,1,1.8-1.85,2.65,2.65,0,0,1,1.08-.38,1.17,1.17,0,0,1,.79.21,1.49,1.49,0,0,1,.47.75,3.88,3.88,0,0,1,.17,1.21Zm-1.09.5a3,3,0,0,0-.1-.82,1.17,1.17,0,0,0-.31-.55.81.81,0,0,0-.55-.2,1.58,1.58,0,0,0-.78.27,3,3,0,0,0-.88.75,4.16,4.16,0,0,0-.56.95v3.05a.83.83,0,0,0,.56.29,1.58,1.58,0,0,0,.89-.28,2.84,2.84,0,0,0,.78-.64,3.63,3.63,0,0,0,.54-.82,4.42,4.42,0,0,0,.31-.93,4.36,4.36,0,0,0,.1-.94Z"/><path class="cls-9" d="M51.86,214.3a5,5,0,0,1-.79,1.18,4.06,4.06,0,0,1-1.09.89,2.77,2.77,0,0,1-.91.37,1.06,1.06,0,0,1-.69-.08,1.08,1.08,0,0,1-.44-.58,3.47,3.47,0,0,1-.15-1.13v-3.77l1.08-.62v3.78a3.28,3.28,0,0,0,.08.8.68.68,0,0,0,.25.4.49.49,0,0,0,.4.06,2.24,2.24,0,0,0,.55-.24,3.94,3.94,0,0,0,1.07-.88,3.61,3.61,0,0,0,.6-1.08v-4.55l1.09-.63v6.34l-1,.57Z"/><path class="cls-9" d="M60.33,207.18a5.84,5.84,0,0,1-.17,1.37,6,6,0,0,1-.48,1.3A5.42,5.42,0,0,1,58.9,211a4.45,4.45,0,0,1-1.07.86,2.71,2.71,0,0,1-1.06.4,1.18,1.18,0,0,1-.76-.18l-.06.75-1,.57v-9l1.08-.62v3.34a5.13,5.13,0,0,1,.75-1,4.81,4.81,0,0,1,1-.8,2.56,2.56,0,0,1,1.08-.38,1.08,1.08,0,0,1,.78.22,1.5,1.5,0,0,1,.48.74,3.92,3.92,0,0,1,.17,1.21Zm-1.09.51a3.46,3.46,0,0,0-.09-.83,1.27,1.27,0,0,0-.29-.58.72.72,0,0,0-.52-.2,1.65,1.65,0,0,0-.79.27,3.25,3.25,0,0,0-.52.37,4.47,4.47,0,0,0-.42.45,3.27,3.27,0,0,0-.32.5,3.65,3.65,0,0,0-.25.53V211a.94.94,0,0,0,.25.24.79.79,0,0,0,.33.13,1.25,1.25,0,0,0,.42,0,2.44,2.44,0,0,0,.52-.22,2.75,2.75,0,0,0,.76-.63,3.27,3.27,0,0,0,.53-.8,4,4,0,0,0,.29-.91,4.2,4.2,0,0,0,.1-.93Z"/><path class="cls-9" d="M62.32,200.13l3.24-1.87v8.06l2.07-1.19v.93l-5.31,3.07v-.94L64.48,207v-7.12l-2.16,1.24Z"/><path class="cls-9" d="M69.52,198.63l3.25-1.87v5.4L74.83,201v.94L69.52,205V204l2.16-1.24v-4.46l-2.16,1.25Zm2-2.83a1,1,0,0,1,.16-.54,1.31,1.31,0,0,1,.49-.47c.22-.12.38-.16.49-.1a.37.37,0,0,1,.16.36,1,1,0,0,1-.16.54,1.26,1.26,0,0,1-.49.45c-.22.13-.38.17-.49.11A.35.35,0,0,1,71.54,195.8Z"/><path class="cls-9" d="M79.26,198.59a3.46,3.46,0,0,0,.57-.42,3.64,3.64,0,0,0,.49-.55,2.41,2.41,0,0,0,.35-.59,1.4,1.4,0,0,0,.14-.57l1-.59a2.71,2.71,0,0,1-.22.93,5.94,5.94,0,0,1-.57,1,6.65,6.65,0,0,1-.83.94,5,5,0,0,1-1,.73,3.29,3.29,0,0,1-1.26.47,1.29,1.29,0,0,1-1.44-.87,2.85,2.85,0,0,1-.18-1.1v-.25a4.68,4.68,0,0,1,.18-1.3,5.81,5.81,0,0,1,.54-1.33,6.33,6.33,0,0,1,.9-1.21,5.32,5.32,0,0,1,1.26-1,3.29,3.29,0,0,1,1-.42,1.72,1.72,0,0,1,.82,0,1,1,0,0,1,.53.42,1.47,1.47,0,0,1,.2.79l-1,.6a.84.84,0,0,0-.13-.47.59.59,0,0,0-.32-.26,1,1,0,0,0-.49,0,2,2,0,0,0-.61.25,3.06,3.06,0,0,0-.85.69,3.35,3.35,0,0,0-.55.85,3.66,3.66,0,0,0-.3.9,3.79,3.79,0,0,0-.1.86v.25a2.66,2.66,0,0,0,.1.77,1.19,1.19,0,0,0,.29.56.75.75,0,0,0,.55.21A1.77,1.77,0,0,0,79.26,198.59Z"/><path class="cls-15" d="M95.67,192a2.33,2.33,0,0,1-.69.27,1.33,1.33,0,0,1-.56,0,1,1,0,0,1-.42-.22,1.45,1.45,0,0,1-.3-.39,2.13,2.13,0,0,1-.18-.52,2.91,2.91,0,0,1-.06-.6v-1c0-.56-.13-.89-.4-1a1.64,1.64,0,0,0-1.23.32v-.85A3.59,3.59,0,0,0,93.06,187a2.55,2.55,0,0,0,.4-1.46v-1a5.14,5.14,0,0,1,.05-.66,5.32,5.32,0,0,1,.17-.72,6,6,0,0,1,.28-.73,5.64,5.64,0,0,1,.42-.7,4.28,4.28,0,0,1,.57-.64,3.61,3.61,0,0,1,.72-.55l.12.6a2.43,2.43,0,0,0-.67.59,2.57,2.57,0,0,0-.37.69,2.79,2.79,0,0,0-.16.75,6.34,6.34,0,0,0,0,.74v1a3.38,3.38,0,0,1-.33,1.42,4.48,4.48,0,0,1-1,1.38,1,1,0,0,1,1,.23,1.43,1.43,0,0,1,.33,1v1a3.85,3.85,0,0,0,.06.69,1.49,1.49,0,0,0,.2.54.58.58,0,0,0,.38.25.87.87,0,0,0,.6-.14Z"/><path class="cls-15" d="M97.86,199.79a4.82,4.82,0,0,1,.2-1.39,5.7,5.7,0,0,1,.57-1.35,6.24,6.24,0,0,1,.9-1.21,5.41,5.41,0,0,1,1.2-.94,3.24,3.24,0,0,1,1.21-.45,1.41,1.41,0,0,1,.91.16,1.32,1.32,0,0,1,.57.69,3.05,3.05,0,0,1,.2,1.16v.13a5.12,5.12,0,0,1-.2,1.38,5.7,5.7,0,0,1-.57,1.35,5.88,5.88,0,0,1-.9,1.2,5.41,5.41,0,0,1-1.2.94,3.44,3.44,0,0,1-1.22.46,1.4,1.4,0,0,1-.9-.16,1.32,1.32,0,0,1-.57-.69,2.82,2.82,0,0,1-.2-1.15Zm1.08-.5a3,3,0,0,0,.11.83,1.2,1.2,0,0,0,.34.55.77.77,0,0,0,.56.18,1.73,1.73,0,0,0,.8-.26,3.7,3.7,0,0,0,.78-.64,4.24,4.24,0,0,0,.56-.84,4.39,4.39,0,0,0,.34-.94,4.64,4.64,0,0,0,.11-1v-.13a2.57,2.57,0,0,0-.12-.82,1.13,1.13,0,0,0-.34-.55.81.81,0,0,0-.56-.19,1.72,1.72,0,0,0-.79.27,3,3,0,0,0-.78.64,3.84,3.84,0,0,0-.56.84,4.39,4.39,0,0,0-.34.94,4.54,4.54,0,0,0-.11.95Z"/><path class="cls-15" d="M106.32,195.83l.13.83.16-1,1-4.62.7-.41,1,3.46.17.9.16-1.08.7-4.45,1-.56L110,196l-.85.49-1-3.31-.17-.89-.15,1.08-1,4.45-.86.49-1.35-5.56,1-.56Z"/><path class="cls-15" d="M113.54,187.62l.07.9a5.8,5.8,0,0,1,.85-1.26,4.56,4.56,0,0,1,1.13-.94,3.3,3.3,0,0,1,.9-.38,1.09,1.09,0,0,1,.7,0,.92.92,0,0,1,.44.5,2.73,2.73,0,0,1,.15,1v4l-1.08.63v-4a1.94,1.94,0,0,0-.09-.66.54.54,0,0,0-.28-.31.69.69,0,0,0-.45,0,2.24,2.24,0,0,0-.62.27,3.37,3.37,0,0,0-1,.82,4.29,4.29,0,0,0-.66,1.1v4.55l-1.09.62v-6.34Z"/><path class="cls-15" d="M122.57,188.87a4.19,4.19,0,0,1-1.23.48,1.67,1.67,0,0,1-1-.09,1.27,1.27,0,0,1-.62-.61,2.4,2.4,0,0,1-.22-1.1v-.25a4.91,4.91,0,0,1,.24-1.51,6.48,6.48,0,0,1,.66-1.41,7.09,7.09,0,0,1,.92-1.17,5.05,5.05,0,0,1,1.07-.84,3.23,3.23,0,0,1,1.19-.45,1.26,1.26,0,0,1,.86.16,1.34,1.34,0,0,1,.5.7,3.4,3.4,0,0,1,.17,1.13v.49L120.62,187a1.7,1.7,0,0,0,.17.72.9.9,0,0,0,.41.43,1,1,0,0,0,.62.09,2.15,2.15,0,0,0,.8-.3,4.63,4.63,0,0,0,1-.83,5.11,5.11,0,0,0,.75-1.06l.66.14a5.46,5.46,0,0,1-.4.68,5.9,5.9,0,0,1-.55.71,6.46,6.46,0,0,1-1.55,1.28Zm-.14-5.61a3.5,3.5,0,0,0-.63.48,4.35,4.35,0,0,0-.92,1.45,3.9,3.9,0,0,0-.22.91l3.41-2v-.08a2.42,2.42,0,0,0-.12-.56.83.83,0,0,0-.31-.38.79.79,0,0,0-.5-.11A1.77,1.77,0,0,0,122.43,183.26Z"/><path class="cls-15" d="M131.12,177.35l.32-.17.31-.15a2,2,0,0,1,.28-.11l.2-.06-.14,1.15c-.21.07-.41.16-.6.24s-.39.19-.6.31A4.11,4.11,0,0,0,129,181v4.06l-1.09.63v-6.34l1-.59.05,1a6.81,6.81,0,0,1,.93-1.36A5,5,0,0,1,131.12,177.35Z"/><path class="cls-9" d="M146.59,170.31l-5.23,3v-1l5.23-3Zm0,2.43-5.23,3v-.94l5.23-3Z"/><path class="cls-7" d="M41.05,243.87l0,.58a3.41,3.41,0,0,1,.5-.81,3.11,3.11,0,0,1,.76-.63c.59-.34,1-.33,1.17,0a3.19,3.19,0,0,1,.49-.78,3,3,0,0,1,.75-.62c.47-.27.82-.33,1.07-.19s.38.5.38,1.08v4.73l-1,.6v-4.75c0-.53-.25-.65-.74-.37a1.78,1.78,0,0,0-.33.25,1.49,1.49,0,0,0-.23.28.89.89,0,0,0-.15.29,1.11,1.11,0,0,0-.07.29v4.88l-1,.6v-4.75c0-.26-.06-.42-.17-.49s-.29,0-.54.11a1.83,1.83,0,0,0-.53.44,1.57,1.57,0,0,0-.27.51v5.05l-1,.6v-6.34Z"/><path class="cls-7" d="M52,242.23a.57.57,0,0,0-.07-.31.38.38,0,0,0-.26-.13,1.44,1.44,0,0,0-.48,0,4.94,4.94,0,0,0-.74.23,7.9,7.9,0,0,1-1,.31,2.7,2.7,0,0,1-.77.06.73.73,0,0,1-.49-.23.82.82,0,0,1-.18-.58,2,2,0,0,1,.19-.83,4.44,4.44,0,0,1,.5-.89,6.18,6.18,0,0,1,.79-.85,5.67,5.67,0,0,1,1-.72,4.15,4.15,0,0,1,1-.46,1.7,1.7,0,0,1,.8,0,.8.8,0,0,1,.5.33,1.16,1.16,0,0,1,.18.68l-1.08.62a.55.55,0,0,0-.11-.34.48.48,0,0,0-.29-.18,1,1,0,0,0-.45,0,2.08,2.08,0,0,0-.6.25,3.65,3.65,0,0,0-.61.43,3,3,0,0,0-.43.45,2.23,2.23,0,0,0-.27.45,1.29,1.29,0,0,0-.08.4.51.51,0,0,0,.07.3.31.31,0,0,0,.24.12,1.68,1.68,0,0,0,.46-.05c.2,0,.44-.14.74-.25a9.17,9.17,0,0,1,1-.32,2.21,2.21,0,0,1,.78-.06.74.74,0,0,1,.48.24,1,1,0,0,1,.17.6,2.45,2.45,0,0,1-.19.88,4.35,4.35,0,0,1-.53.89,5.44,5.44,0,0,1-.82.85,6.42,6.42,0,0,1-1,.74,4.43,4.43,0,0,1-1.15.49,1.82,1.82,0,0,1-.86,0,.83.83,0,0,1-.53-.35,1.17,1.17,0,0,1-.18-.67l1.08-.63a.68.68,0,0,0,.18.46.57.57,0,0,0,.39.15,1.48,1.48,0,0,0,.51-.1,4.67,4.67,0,0,0,.56-.26,4.06,4.06,0,0,0,1.08-.88A1.43,1.43,0,0,0,52,242.23Z"/><path class="cls-7" d="M54.75,239.08a5.68,5.68,0,0,1,.18-1.41,5.46,5.46,0,0,1,.5-1.31,5.52,5.52,0,0,1,.79-1.12,4.55,4.55,0,0,1,1.06-.86,2.85,2.85,0,0,1,1-.38,1.12,1.12,0,0,1,.76.16l0-.72,1-.57v6.21a3.89,3.89,0,0,1-.19,1.22,5.52,5.52,0,0,1-.55,1.15,5.36,5.36,0,0,1-.85,1,5.82,5.82,0,0,1-1.09.81,5.92,5.92,0,0,1-.56.27,3.83,3.83,0,0,1-.64.18,1.93,1.93,0,0,1-.63,0,.94.94,0,0,1-.52-.22l.56-1a1.12,1.12,0,0,0,.41.17,1,1,0,0,0,.43,0,1.67,1.67,0,0,0,.43-.1,4.39,4.39,0,0,0,.44-.21,4,4,0,0,0,.69-.51,3.41,3.41,0,0,0,.53-.63,2.85,2.85,0,0,0,.34-.73,2.66,2.66,0,0,0,.12-.79v-.55a4.87,4.87,0,0,1-.75,1,4.47,4.47,0,0,1-1,.76,2.2,2.2,0,0,1-1.05.36,1.12,1.12,0,0,1-.79-.22,1.54,1.54,0,0,1-.5-.73,3.43,3.43,0,0,1-.18-1.17Zm1.09-.5a3.43,3.43,0,0,0,.09.82,1.26,1.26,0,0,0,.31.56.73.73,0,0,0,.53.19,1.66,1.66,0,0,0,.77-.26,3.3,3.3,0,0,0,.51-.36,2.72,2.72,0,0,0,.4-.43,3.83,3.83,0,0,0,.57-1V235.2a.88.88,0,0,0-.25-.22,1,1,0,0,0-.32-.1,1.46,1.46,0,0,0-.4.05,1.91,1.91,0,0,0-.5.22,3,3,0,0,0-.78.64,3.53,3.53,0,0,0-.53.81,4.25,4.25,0,0,0-.31.91,5.07,5.07,0,0,0-.09.94Z"/><path class="cls-7" d="M64,236.24a1.13,1.13,0,0,1,.06-.36,1.17,1.17,0,0,1,.16-.36,2,2,0,0,1,.26-.34,2.07,2.07,0,0,1,.37-.27,1.2,1.2,0,0,1,.37-.15.47.47,0,0,1,.27,0,.35.35,0,0,1,.17.17.85.85,0,0,1,0,.3,1.48,1.48,0,0,1,0,.35,1.62,1.62,0,0,1-.17.35,1.4,1.4,0,0,1-.27.33,1.72,1.72,0,0,1-.37.28,1.2,1.2,0,0,1-.37.15.44.44,0,0,1-.26,0,.3.3,0,0,1-.16-.17A.61.61,0,0,1,64,236.24Z"/><path class="cls-7" d="M73.57,229.76a.57.57,0,0,0-.08-.31.34.34,0,0,0-.26-.13,1.44,1.44,0,0,0-.48,0,5.32,5.32,0,0,0-.74.23,6.32,6.32,0,0,1-1,.3,2.44,2.44,0,0,1-.77.07.81.81,0,0,1-.5-.23.9.9,0,0,1-.17-.59,2.22,2.22,0,0,1,.18-.83,4,4,0,0,1,.51-.88,6.13,6.13,0,0,1,.78-.85,6.06,6.06,0,0,1,1-.72,4.05,4.05,0,0,1,1.06-.46,1.67,1.67,0,0,1,.79,0,.88.88,0,0,1,.51.34,1.15,1.15,0,0,1,.18.67L73.5,227a.53.53,0,0,0-.1-.34.52.52,0,0,0-.29-.18.92.92,0,0,0-.46,0,2.08,2.08,0,0,0-.6.25,3.49,3.49,0,0,0-.61.43,3.57,3.57,0,0,0-.43.45,1.74,1.74,0,0,0-.26.45,1.08,1.08,0,0,0-.09.4.48.48,0,0,0,.07.29.32.32,0,0,0,.24.13,1.47,1.47,0,0,0,.47-.06,7.55,7.55,0,0,0,.73-.24,9.17,9.17,0,0,1,1-.32,2.21,2.21,0,0,1,.78-.06.66.66,0,0,1,.48.24.85.85,0,0,1,.17.59,2.18,2.18,0,0,1-.19.88,3.79,3.79,0,0,1-.53.9,5.83,5.83,0,0,1-.81.85,7.2,7.2,0,0,1-1,.74,4.64,4.64,0,0,1-1.15.49,1.92,1.92,0,0,1-.85,0,.83.83,0,0,1-.53-.35,1.11,1.11,0,0,1-.19-.67l1.08-.63a.7.7,0,0,0,.18.46.67.67,0,0,0,.39.15,1.44,1.44,0,0,0,.51-.1,4,4,0,0,0,.56-.26,3.93,3.93,0,0,0,1.08-.88A1.51,1.51,0,0,0,73.57,229.76Z"/><path class="cls-7" d="M79.36,228.21a3.7,3.7,0,0,1-1.23.48,1.6,1.6,0,0,1-1-.08,1.33,1.33,0,0,1-.62-.62,2.35,2.35,0,0,1-.22-1.09v-.25a4.87,4.87,0,0,1,.24-1.51,7,7,0,0,1,.66-1.41,6.69,6.69,0,0,1,.92-1.17,5.05,5.05,0,0,1,1.07-.84,3,3,0,0,1,1.2-.45,1.24,1.24,0,0,1,.85.16,1.35,1.35,0,0,1,.5.69,3.26,3.26,0,0,1,.17,1.14v.48l-4.53,2.62a1.74,1.74,0,0,0,.17.72,1,1,0,0,0,.41.43,1,1,0,0,0,.62.08,2.19,2.19,0,0,0,.81-.3,4.32,4.32,0,0,0,1-.83,5.32,5.32,0,0,0,.75-1.05l.66.13a5.55,5.55,0,0,1-.4.69,5.79,5.79,0,0,1-.54.71,7.71,7.71,0,0,1-.71.68A5.83,5.83,0,0,1,79.36,228.21Zm-.14-5.6a3.47,3.47,0,0,0-1.15,1.14,4.18,4.18,0,0,0-.4.79,3.9,3.9,0,0,0-.22.91l3.41-2v-.08a1.64,1.64,0,0,0-.12-.56.83.83,0,0,0-.3-.38.78.78,0,0,0-.51-.11A1.63,1.63,0,0,0,79.22,222.61Z"/><path class="cls-7" d="M84.73,218.65l.08.9a5.69,5.69,0,0,1,.85-1.26,4.52,4.52,0,0,1,1.12-.94,3.34,3.34,0,0,1,.91-.38,1.05,1.05,0,0,1,.69,0,.92.92,0,0,1,.44.5,2.52,2.52,0,0,1,.16,1v4l-1.09.63v-4a2,2,0,0,0-.09-.67.48.48,0,0,0-.28-.31.69.69,0,0,0-.45,0,2.79,2.79,0,0,0-.61.27,3.55,3.55,0,0,0-1,.82,5.18,5.18,0,0,0-.66,1.1v4.55l-1.08.62v-6.33Z"/><path class="cls-7" d="M90.75,218.29a5.54,5.54,0,0,1,.18-1.4,5.83,5.83,0,0,1,.51-1.32,5.63,5.63,0,0,1,.8-1.13,4.5,4.5,0,0,1,1.05-.85,3,3,0,0,1,1-.38,1.19,1.19,0,0,1,.74.13v-3.29l1.08-.62v9l-1,.57,0-.64a4.66,4.66,0,0,1-1.78,1.82,2.41,2.41,0,0,1-1,.35,1.21,1.21,0,0,1-.79-.22,1.55,1.55,0,0,1-.51-.73,3.1,3.1,0,0,1-.19-1.16Zm1.09-.5a2.92,2.92,0,0,0,.1.82,1.13,1.13,0,0,0,.31.56.72.72,0,0,0,.53.19,1.66,1.66,0,0,0,.77-.26,3.7,3.7,0,0,0,.5-.35,3.16,3.16,0,0,0,.4-.42,3.08,3.08,0,0,0,.32-.48,3,3,0,0,0,.25-.51V214.4a.81.81,0,0,0-.57-.31,1.56,1.56,0,0,0-.89.27,3,3,0,0,0-.78.64,3.23,3.23,0,0,0-.53.81,3.84,3.84,0,0,0-.31.92,4.36,4.36,0,0,0-.1.94Z"/><path class="cls-7" d="M101,215.74a3.54,3.54,0,0,1-1.23.48,1.55,1.55,0,0,1-1-.09,1.23,1.23,0,0,1-.62-.61,2.35,2.35,0,0,1-.23-1.09v-.25a4.7,4.7,0,0,1,.25-1.52,6.56,6.56,0,0,1,1.58-2.58,5.28,5.28,0,0,1,1.06-.83,3.2,3.2,0,0,1,1.2-.46,1.24,1.24,0,0,1,.85.17,1.31,1.31,0,0,1,.51.69,3.45,3.45,0,0,1,.17,1.13v.49L99,213.89a1.65,1.65,0,0,0,.16.71,1,1,0,0,0,.41.43,1.07,1.07,0,0,0,.63.09,2.15,2.15,0,0,0,.8-.3,4.13,4.13,0,0,0,1-.83,5.32,5.32,0,0,0,.75-1.05l.66.13a4.94,4.94,0,0,1-.39.69,6.8,6.8,0,0,1-.55.71,6.39,6.39,0,0,1-.7.67A6.59,6.59,0,0,1,101,215.74Zm-.14-5.6a2.79,2.79,0,0,0-.62.48,4.28,4.28,0,0,0-.53.65,4.24,4.24,0,0,0-.39.8,3.92,3.92,0,0,0-.23.91l3.41-2v-.08a1.59,1.59,0,0,0-.12-.56.85.85,0,0,0-.3-.39.79.79,0,0,0-.5-.1A1.71,1.71,0,0,0,100.82,210.14Z"/><path class="cls-7" d="M109.52,204.23l.31-.18.32-.15.27-.11a.69.69,0,0,1,.21,0l-.15,1.14-.6.24c-.19.09-.39.2-.59.32a4.14,4.14,0,0,0-1.24,1.05,4.42,4.42,0,0,0-.69,1.37v4.07l-1.09.63v-6.34l1-.6,0,1a6.81,6.81,0,0,1,.93-1.36A4.78,4.78,0,0,1,109.52,204.23Z"/><path class="cls-15" d="M116.09,206.64a3.57,3.57,0,0,1-.07.61,5.61,5.61,0,0,1-.2.72,8,8,0,0,1-.32.75,7.74,7.74,0,0,1-.43.73l-.68,0a4.91,4.91,0,0,0,.4-1.1,4.73,4.73,0,0,0,.12-1v-1.05l1.18-.68Zm-1.4-4.78a1.13,1.13,0,0,1,.06-.36,1.42,1.42,0,0,1,.16-.36,1.64,1.64,0,0,1,.26-.33,2.11,2.11,0,0,1,.37-.28,1.2,1.2,0,0,1,.37-.15.39.39,0,0,1,.27,0,.35.35,0,0,1,.17.17.84.84,0,0,1,.05.29,1.41,1.41,0,0,1-.05.35,2,2,0,0,1-.17.36,1.63,1.63,0,0,1-.27.33,2.07,2.07,0,0,1-.37.27,1.25,1.25,0,0,1-.37.16.54.54,0,0,1-.26,0,.37.37,0,0,1-.16-.17A.65.65,0,0,1,114.69,201.86Z"/><path class="cls-15" d="M70.23,249.24a2.11,2.11,0,0,0,.6-.55,3.17,3.17,0,0,0,.38-.7,4.58,4.58,0,0,0,.21-.77,5,5,0,0,0,.06-.76v-1a3.35,3.35,0,0,1,.32-1.41,4.48,4.48,0,0,1,1-1.38,1.07,1.07,0,0,1-1-.22,1.47,1.47,0,0,1-.32-1.05v-1c0-.24,0-.47,0-.7a1.48,1.48,0,0,0-.17-.56.51.51,0,0,0-.37-.26,1.07,1.07,0,0,0-.67.19l.12-.74a2.52,2.52,0,0,1,.72-.29,1.23,1.23,0,0,1,.57,0,1,1,0,0,1,.42.22,1.3,1.3,0,0,1,.28.4,2.19,2.19,0,0,1,.17.53,3.83,3.83,0,0,1,0,.6v1c0,.57.14.9.4,1a1.64,1.64,0,0,0,1.23-.32v.85A3.59,3.59,0,0,0,73,243.39a2.68,2.68,0,0,0-.4,1.46v1a4.32,4.32,0,0,1-.13,1A5.41,5.41,0,0,1,72,248a4.7,4.7,0,0,1-.69,1,4,4,0,0,1-1,.84Z"/><path class="cls-9" d="M69.85,270.44l0,.58a3.25,3.25,0,0,1,.51-.81,2.75,2.75,0,0,1,.76-.63c.58-.34,1-.34,1.16,0a3.38,3.38,0,0,1,.5-.77,2.7,2.7,0,0,1,.75-.62c.46-.27.82-.34,1.07-.19s.37.5.37,1.07v4.74l-1,.59v-4.74c0-.53-.24-.66-.73-.37a1.43,1.43,0,0,0-.33.25,1.05,1.05,0,0,0-.24.28,1.46,1.46,0,0,0-.21.58v4.88l-1,.6v-4.76c0-.25,0-.41-.17-.48s-.29,0-.53.11a1.58,1.58,0,0,0-.53.44,1.6,1.6,0,0,0-.28.51v5.05l-1,.59V271Z"/><path class="cls-9" d="M76.25,269.86a5.19,5.19,0,0,1,.2-1.39,5.7,5.7,0,0,1,.57-1.35,5.9,5.9,0,0,1,.91-1.21,5.25,5.25,0,0,1,1.2-.94,3.18,3.18,0,0,1,1.21-.45,1.41,1.41,0,0,1,.91.16,1.36,1.36,0,0,1,.57.69,3.05,3.05,0,0,1,.2,1.16v.13a5.19,5.19,0,0,1-.2,1.39,6,6,0,0,1-1.48,2.55,5.25,5.25,0,0,1-1.2.94,3.18,3.18,0,0,1-1.21.45,1.48,1.48,0,0,1-.91-.15,1.39,1.39,0,0,1-.57-.7,3,3,0,0,1-.2-1.15Zm1.09-.5a2.61,2.61,0,0,0,.11.83,1.07,1.07,0,0,0,.33.55.84.84,0,0,0,.57.19,1.81,1.81,0,0,0,.79-.27,3,3,0,0,0,.78-.64,3.66,3.66,0,0,0,.57-.84,4.4,4.4,0,0,0,.44-1.89v-.13a2.69,2.69,0,0,0-.11-.83,1.26,1.26,0,0,0-.34-.55.82.82,0,0,0-.56-.18,1.66,1.66,0,0,0-.79.26,3.08,3.08,0,0,0-.79.65,3.9,3.9,0,0,0-.56.83,4.4,4.4,0,0,0-.44,1.89Z"/><path class="cls-9" d="M83.55,265.65a5.68,5.68,0,0,1,.18-1.41,5.94,5.94,0,0,1,.51-1.31,5.36,5.36,0,0,1,.8-1.13,4.26,4.26,0,0,1,1-.85,2.83,2.83,0,0,1,1-.38,1.07,1.07,0,0,1,.74.13v-3.29l1.08-.63v9l-1,.58,0-.64a4.73,4.73,0,0,1-1.78,1.81,2.49,2.49,0,0,1-1,.36,1.26,1.26,0,0,1-.8-.22,1.77,1.77,0,0,1-.51-.73,3.39,3.39,0,0,1-.18-1.17Zm1.09-.5a2.92,2.92,0,0,0,.1.82,1.16,1.16,0,0,0,.3.55.76.76,0,0,0,.53.2,1.66,1.66,0,0,0,.78-.26,3.75,3.75,0,0,0,.5-.36,3.11,3.11,0,0,0,.72-.89,3,3,0,0,0,.25-.51v-2.94a.81.81,0,0,0-.57-.31,1.49,1.49,0,0,0-.89.27,2.7,2.7,0,0,0-.78.63,3.63,3.63,0,0,0-.54.82,4.22,4.22,0,0,0-.3.91,4.42,4.42,0,0,0-.1.94Z"/><path class="cls-9" d="M91.13,258.16l3.24-1.87v5.4l2.07-1.19v.93l-5.31,3.07v-.94l2.16-1.24v-4.46l-2.16,1.24Zm2-2.83a1.1,1.1,0,0,1,.17-.55,1.22,1.22,0,0,1,.49-.46c.21-.13.37-.16.48-.1a.37.37,0,0,1,.17.36,1,1,0,0,1-.17.53,1.33,1.33,0,0,1-.48.46c-.22.13-.39.16-.49.11A.36.36,0,0,1,93.14,255.33Z"/><path class="cls-9" d="M99.78,259.51V254L98,255v-.84l1.75-1v-.45a3.77,3.77,0,0,1,.18-1.17,4.12,4.12,0,0,1,.5-1.06,4.88,4.88,0,0,1,.78-.92,5.84,5.84,0,0,1,1.78-1.12q.36-.15.75-.27l-.13,1a5,5,0,0,0-.56.18,4.65,4.65,0,0,0-.68.33,3.37,3.37,0,0,0-1.15,1.05,2.55,2.55,0,0,0-.38,1.38v.45l2.44-1.41V252l-2.44,1.41v5.51Z"/><path class="cls-9" d="M105.54,249.84l3.24-1.87v5.4l2.07-1.19v.93l-5.31,3.07v-.94l2.15-1.24v-4.46l-2.15,1.24Zm2-2.83a1.12,1.12,0,0,1,.16-.54,1.3,1.3,0,0,1,.49-.47c.22-.13.38-.16.49-.1a.37.37,0,0,1,.16.36,1,1,0,0,1-.16.54,1.26,1.26,0,0,1-.49.45.56.56,0,0,1-.49.11A.37.37,0,0,1,107.55,247Z"/><path class="cls-9" d="M115.37,250.62a3.54,3.54,0,0,1-1.23.48,1.67,1.67,0,0,1-1-.09,1.31,1.31,0,0,1-.62-.61,2.5,2.5,0,0,1-.22-1.1v-.24a4.7,4.7,0,0,1,.25-1.52,6.56,6.56,0,0,1,1.58-2.58,5.28,5.28,0,0,1,1.06-.83,3.2,3.2,0,0,1,1.2-.46,1.24,1.24,0,0,1,.85.17,1.31,1.31,0,0,1,.51.69,3.48,3.48,0,0,1,.16,1.14v.48l-4.52,2.62a1.74,1.74,0,0,0,.16.72.93.93,0,0,0,.41.42,1.07,1.07,0,0,0,.63.09,2.15,2.15,0,0,0,.8-.3,4.13,4.13,0,0,0,1-.83,5.32,5.32,0,0,0,.75-1.05l.66.13a6.21,6.21,0,0,1-.39.69,5.81,5.81,0,0,1-.55.7,5.64,5.64,0,0,1-.7.68A6.59,6.59,0,0,1,115.37,250.62Zm-.14-5.6a2.52,2.52,0,0,0-.62.48,3.76,3.76,0,0,0-.53.65,4.24,4.24,0,0,0-.39.8,3.92,3.92,0,0,0-.23.91l3.41-2v-.09a1.64,1.64,0,0,0-.12-.55.85.85,0,0,0-.3-.39.79.79,0,0,0-.5-.1A1.71,1.71,0,0,0,115.23,245Z"/><path class="cls-9" d="M123.93,239.11l.31-.18.31-.15.28-.11a.63.63,0,0,1,.21,0l-.15,1.14c-.21.08-.41.16-.6.25a4.82,4.82,0,0,0-.59.31,4.14,4.14,0,0,0-1.24,1.05,4.42,4.42,0,0,0-.69,1.37v4.07l-1.09.63V241.1l1-.6.05,1a6.81,6.81,0,0,1,.93-1.36A4.78,4.78,0,0,1,123.93,239.11Z"/><path class="cls-15" d="M40.24,305.05a5.19,5.19,0,0,1,.2-1.39,6.67,6.67,0,0,1,.57-1.35,5.9,5.9,0,0,1,.91-1.21,5.72,5.72,0,0,1,1.2-.94,3.18,3.18,0,0,1,1.21-.45,1.41,1.41,0,0,1,.91.16,1.36,1.36,0,0,1,.57.69,3.05,3.05,0,0,1,.2,1.16v.13a5.19,5.19,0,0,1-.2,1.39,5.81,5.81,0,0,1-.57,1.34,5.9,5.9,0,0,1-.91,1.21,5.25,5.25,0,0,1-1.2.94,3.18,3.18,0,0,1-1.21.45,1.31,1.31,0,0,1-1.48-.85,3,3,0,0,1-.2-1.15Zm1.09-.5a3,3,0,0,0,.11.83,1.08,1.08,0,0,0,.34.55.83.83,0,0,0,.56.19,1.81,1.81,0,0,0,.79-.27,3.26,3.26,0,0,0,.79-.64,4,4,0,0,0,.56-.84,3.89,3.89,0,0,0,.33-.94,4,4,0,0,0,.12-1v-.13a2.62,2.62,0,0,0-.12-.82,1.18,1.18,0,0,0-.34-.55.77.77,0,0,0-.56-.18,1.66,1.66,0,0,0-.79.26,3,3,0,0,0-.78.64,3.84,3.84,0,0,0-.56.84,4.08,4.08,0,0,0-.34.94,4.54,4.54,0,0,0-.11.95Z"/><path class="cls-15" d="M48.72,297l.08.89a5.41,5.41,0,0,1,.85-1.25,4.52,4.52,0,0,1,1.12-.94,3.48,3.48,0,0,1,.91-.38,1.05,1.05,0,0,1,.69,0,.9.9,0,0,1,.45.5,2.73,2.73,0,0,1,.15,1v4l-1.08.62v-4a1.7,1.7,0,0,0-.1-.66.5.5,0,0,0-.27-.31.72.72,0,0,0-.46,0,2.2,2.2,0,0,0-.61.27,3.55,3.55,0,0,0-1,.82,4.94,4.94,0,0,0-.66,1.1v4.55l-1.08.62V297.6Z"/><path class="cls-15" d="M55.12,290.69l3.24-1.87v8.06l2.07-1.2v.94l-5.31,3.07v-.94l2.16-1.24v-7.12l-2.16,1.24Z"/><path class="cls-15" d="M64.49,292l.28.61,1.93-6,1.21-.7-3.21,9.18c-.08.2-.17.43-.29.68a5.27,5.27,0,0,1-.42.76,4.74,4.74,0,0,1-.57.72,3.16,3.16,0,0,1-.76.59l-.17.09-.18.09-.18.07-.13.05.17-1,.11-.06.15-.07.15-.08.11-.06a1.23,1.23,0,0,0,.4-.36,2.56,2.56,0,0,0,.33-.48,4.55,4.55,0,0,0,.25-.49c.07-.16.12-.29.16-.39l.43-1.1-2.73-4.46,1.22-.7Z"/><path class="cls-15" d="M74.9,284.49a6.67,6.67,0,0,1-.08,1,6.54,6.54,0,0,1-.22,1,6.79,6.79,0,0,1-.39,1,6.51,6.51,0,0,1-.57,1,5.56,5.56,0,0,1-.75.88,5.18,5.18,0,0,1-1,.7,3.18,3.18,0,0,1-1,.4,1.75,1.75,0,0,1-.76,0,1.32,1.32,0,0,1-.56-.33,1.92,1.92,0,0,1-.4-.59,3.38,3.38,0,0,1-.23-.76,4.94,4.94,0,0,1-.08-.87v-1a6.54,6.54,0,0,1,.08-1,8,8,0,0,1,.22-1,8.74,8.74,0,0,1,.4-1,5.36,5.36,0,0,1,.56-1,5.72,5.72,0,0,1,.75-.88,5.19,5.19,0,0,1,1-.71,3.13,3.13,0,0,1,.95-.39,1.62,1.62,0,0,1,.76,0,1.27,1.27,0,0,1,.56.33,2.27,2.27,0,0,1,.4.59,3,3,0,0,1,.22.77,5.14,5.14,0,0,1,.08.88Zm-1.07-.36c0-.2,0-.41,0-.62a2.71,2.71,0,0,0-.12-.58,1.84,1.84,0,0,0-.23-.49.89.89,0,0,0-.35-.32.86.86,0,0,0-.49-.07,1.8,1.8,0,0,0-.67.25,3.43,3.43,0,0,0-.67.52,3.82,3.82,0,0,0-.49.65,4,4,0,0,0-.35.72,5.37,5.37,0,0,0-.23.75,5,5,0,0,0-.12.73c0,.24,0,.46,0,.66v1c0,.2,0,.4,0,.61a2.81,2.81,0,0,0,.12.59,2.45,2.45,0,0,0,.23.49.83.83,0,0,0,.85.39,1.69,1.69,0,0,0,.67-.25,3.16,3.16,0,0,0,.67-.52,3.88,3.88,0,0,0,.5-.65,3.94,3.94,0,0,0,.34-.72,5.37,5.37,0,0,0,.23-.75,6.45,6.45,0,0,0,.11-.73c0-.23,0-.45,0-.66Z"/><path class="cls-15" d="M77.52,284.46l.13.83.15-1,1-4.63.69-.41,1,3.47.17.89.16-1.08.7-4.45,1-.56-1.34,7.12-.86.49-1-3.31-.16-.89L79,282l-1,4.45-.85.49-1.35-5.56,1-.56Z"/><path class="cls-15" d="M84.73,276.25l.08.9a5.69,5.69,0,0,1,.85-1.26,4.52,4.52,0,0,1,1.12-.94,3.34,3.34,0,0,1,.91-.38,1.05,1.05,0,0,1,.69,0,.92.92,0,0,1,.44.5,2.52,2.52,0,0,1,.16,1v4l-1.09.63v-4a1.94,1.94,0,0,0-.09-.66.48.48,0,0,0-.28-.31.69.69,0,0,0-.45,0,2.79,2.79,0,0,0-.61.27,3.55,3.55,0,0,0-1,.82,5.18,5.18,0,0,0-.66,1.1v4.55l-1.08.62v-6.34Z"/><path class="cls-15" d="M93.76,277.5a4.09,4.09,0,0,1-1.23.48,1.67,1.67,0,0,1-1-.09,1.31,1.31,0,0,1-.62-.61,2.4,2.4,0,0,1-.22-1.1v-.24a4.66,4.66,0,0,1,.25-1.52,6.17,6.17,0,0,1,.65-1.4,6.37,6.37,0,0,1,.93-1.18,5,5,0,0,1,1.06-.84,3.33,3.33,0,0,1,1.2-.45,1.17,1.17,0,0,1,1.36.86,3.42,3.42,0,0,1,.16,1.13V273l-4.53,2.61a1.82,1.82,0,0,0,.17.72,1,1,0,0,0,.41.43,1.07,1.07,0,0,0,.63.09,2.15,2.15,0,0,0,.8-.3,4.37,4.37,0,0,0,1-.83,5.11,5.11,0,0,0,.75-1.06l.66.14a5.34,5.34,0,0,1-.39.68,5.2,5.2,0,0,1-.55.71,6.46,6.46,0,0,1-.7.68A6.59,6.59,0,0,1,93.76,277.5Zm-.14-5.61a3.13,3.13,0,0,0-.62.48,4.26,4.26,0,0,0-.53.66,3.49,3.49,0,0,0-.39.8,3.84,3.84,0,0,0-.23.9l3.41-2v-.08a1.69,1.69,0,0,0-.12-.56.88.88,0,0,0-.3-.38.79.79,0,0,0-.5-.11A1.86,1.86,0,0,0,93.62,271.89Z"/><path class="cls-15" d="M102.32,266l.31-.17.31-.15.28-.11.21-.06-.15,1.15c-.21.07-.41.16-.6.24s-.39.19-.59.31a4,4,0,0,0-1.93,2.43v4.07l-1.09.63V268l1-.6.05,1a6.81,6.81,0,0,1,.93-1.36A4.86,4.86,0,0,1,102.32,266Z"/><path class="cls-15" d="M117.27,266a2.33,2.33,0,0,1-.69.27,1.27,1.27,0,0,1-.55,0,.92.92,0,0,1-.43-.21,1.35,1.35,0,0,1-.3-.4,2.05,2.05,0,0,1-.18-.51,3.83,3.83,0,0,1-.05-.6v-1c0-.56-.14-.89-.41-1a1.58,1.58,0,0,0-1.22.32V262a3.46,3.46,0,0,0,1.22-1.09,2.56,2.56,0,0,0,.41-1.46v-1a3.81,3.81,0,0,1,.05-.66,4.92,4.92,0,0,1,.16-.72,5.54,5.54,0,0,1,.29-.73,3.61,3.61,0,0,1,.42-.7,4.28,4.28,0,0,1,.56-.65,4.37,4.37,0,0,1,.72-.54l.13.6a2.29,2.29,0,0,0-.67.59,2.61,2.61,0,0,0-.38.69,3.13,3.13,0,0,0-.16.75c0,.25,0,.5,0,.74v1a3.57,3.57,0,0,1-.32,1.43,4.65,4.65,0,0,1-1,1.38,1,1,0,0,1,1,.22,1.5,1.5,0,0,1,.32,1v1a5.06,5.06,0,0,0,.06.69,1.23,1.23,0,0,0,.21.53.57.57,0,0,0,.38.26.89.89,0,0,0,.6-.15Z"/><path class="cls-12" d="M44.7,328l.32-.17.31-.15.28-.11.21-.06-.15,1.15c-.21.07-.41.16-.6.24a6,6,0,0,0-.6.32,4.22,4.22,0,0,0-1.23,1.05,4.31,4.31,0,0,0-.69,1.37v4.07l-1.09.63V330l1-.6,0,1a6.81,6.81,0,0,1,.93-1.36A5,5,0,0,1,44.7,328Z"/><path class="cls-12" d="M50.55,331.24a3.54,3.54,0,0,1-1.23.48,1.56,1.56,0,0,1-1-.08,1.25,1.25,0,0,1-.62-.62,2.35,2.35,0,0,1-.23-1.09v-.25a4.6,4.6,0,0,1,.25-1.51,6.45,6.45,0,0,1,.65-1.41,6.3,6.3,0,0,1,.93-1.17,5,5,0,0,1,1.06-.84,3.15,3.15,0,0,1,1.2-.45,1.23,1.23,0,0,1,.85.16,1.31,1.31,0,0,1,.51.69,3.51,3.51,0,0,1,.17,1.14v.48l-4.53,2.62a1.74,1.74,0,0,0,.16.72,1,1,0,0,0,.41.43,1.08,1.08,0,0,0,.63.08,2.15,2.15,0,0,0,.8-.3,4.13,4.13,0,0,0,1-.83,5.32,5.32,0,0,0,.75-1.05l.66.13a4.94,4.94,0,0,1-.39.69,6.8,6.8,0,0,1-.55.71,7.56,7.56,0,0,1-.7.68A7.66,7.66,0,0,1,50.55,331.24Zm-.14-5.6a3.13,3.13,0,0,0-.62.48,3.49,3.49,0,0,0-.53.66,4.15,4.15,0,0,0-.39.79,3.92,3.92,0,0,0-.23.91l3.41-2v-.08a1.64,1.64,0,0,0-.12-.56.78.78,0,0,0-.3-.38.73.73,0,0,0-.5-.11A1.71,1.71,0,0,0,50.41,325.64Z"/><path class="cls-12" d="M54.75,325.48a5.78,5.78,0,0,1,.67-2.72,5.57,5.57,0,0,1,.81-1.13,5,5,0,0,1,1.08-.87,3,3,0,0,1,1-.38,1.14,1.14,0,0,1,.74.12l.05-.65,1-.58v8.78l-1.09.63v-3a4.73,4.73,0,0,1-.74.93,4.22,4.22,0,0,1-1,.74,2.43,2.43,0,0,1-1.07.38,1.13,1.13,0,0,1-.8-.22,1.47,1.47,0,0,1-.5-.73,3.43,3.43,0,0,1-.18-1.17Zm1.09-.51a3,3,0,0,0,.1.83,1.21,1.21,0,0,0,.31.56.73.73,0,0,0,.54.21,1.63,1.63,0,0,0,.77-.26,3.18,3.18,0,0,0,.88-.74,4.54,4.54,0,0,0,.57-.94V321.5a.72.72,0,0,0-.25-.18.89.89,0,0,0-.32-.08,1.21,1.21,0,0,0-.4.06,2.47,2.47,0,0,0-.46.2,3.07,3.07,0,0,0-.78.65,3.48,3.48,0,0,0-.54.83,3.94,3.94,0,0,0-.32.93,4.36,4.36,0,0,0-.1.94Z"/><path class="cls-12" d="M66.27,321.18a5.29,5.29,0,0,1-.79,1.18,4.52,4.52,0,0,1-1.1.9,2.91,2.91,0,0,1-.9.36.93.93,0,0,1-.69-.08,1.05,1.05,0,0,1-.45-.58,3.43,3.43,0,0,1-.15-1.13v-3.76l1.08-.63v3.78a3.44,3.44,0,0,0,.08.81.71.71,0,0,0,.25.4.49.49,0,0,0,.4.05,2.16,2.16,0,0,0,.55-.23,3.82,3.82,0,0,0,1.07-.89,3.88,3.88,0,0,0,.61-1.08v-4.54l1.09-.63v6.34l-1,.56Z"/><path class="cls-12" d="M69.52,313.83,72.77,312v5.4l2.06-1.19v.94l-5.31,3.06v-.94L71.68,318v-4.46l-2.16,1.24Zm2-2.83a1,1,0,0,1,.16-.54,1.31,1.31,0,0,1,.49-.47c.22-.13.38-.16.49-.1a.37.37,0,0,1,.16.36,1,1,0,0,1-.16.54,1.26,1.26,0,0,1-.49.45c-.22.13-.38.17-.49.11A.35.35,0,0,1,71.54,311Z"/><path class="cls-12" d="M80.71,307.26l.32-.18.31-.15.28-.11.2-.06-.14,1.15-.6.24c-.19.09-.39.2-.6.32a4,4,0,0,0-1.23,1,4.24,4.24,0,0,0-.7,1.37V315l-1.09.63v-6.34l1-.6,0,1a6.81,6.81,0,0,1,.93-1.36A4.74,4.74,0,0,1,80.71,307.26Z"/><path class="cls-12" d="M86.56,310.45a3.7,3.7,0,0,1-1.23.48,1.6,1.6,0,0,1-1-.08,1.33,1.33,0,0,1-.62-.62,2.35,2.35,0,0,1-.22-1.09v-.25a4.6,4.6,0,0,1,.25-1.51,6.45,6.45,0,0,1,.65-1.41,7.09,7.09,0,0,1,.92-1.17,5.05,5.05,0,0,1,1.07-.84,3.1,3.1,0,0,1,1.2-.45,1.24,1.24,0,0,1,.85.16,1.37,1.37,0,0,1,.51.69,3.52,3.52,0,0,1,.16,1.14V306l-4.53,2.61a1.91,1.91,0,0,0,.17.72,1,1,0,0,0,.41.43,1.12,1.12,0,0,0,.62.09,2.62,2.62,0,0,0,.81-.3,4.58,4.58,0,0,0,1-.83,5.38,5.38,0,0,0,.75-1.06l.66.13a4.82,4.82,0,0,1-.39.69,7.13,7.13,0,0,1-.55.71,6.62,6.62,0,0,1-.71.68A5.14,5.14,0,0,1,86.56,310.45Zm-.14-5.6a3.13,3.13,0,0,0-.62.48,3.49,3.49,0,0,0-.53.66,4.18,4.18,0,0,0-.4.79,4.48,4.48,0,0,0-.22.91l3.41-2v-.08a1.64,1.64,0,0,0-.12-.56.83.83,0,0,0-.3-.38.81.81,0,0,0-.5-.11A1.67,1.67,0,0,0,86.42,304.85Z"/><path class="cls-15" d="M92,303.71a11.35,11.35,0,0,1,.13-1.65,13.28,13.28,0,0,1,.36-1.57A14.5,14.5,0,0,1,93,299c.19-.46.4-.88.61-1.28s.43-.74.64-1.06a8.66,8.66,0,0,1,.62-.8l.23.58a7.66,7.66,0,0,0-.73,1.17,10.22,10.22,0,0,0-.64,1.52,12.84,12.84,0,0,0-.47,1.83,12.51,12.51,0,0,0-.17,2.08v.08a9.28,9.28,0,0,0,.17,1.88,4.93,4.93,0,0,0,.47,1.29,2.38,2.38,0,0,0,.64.79,1.72,1.72,0,0,0,.73.36l-.23.8a2,2,0,0,1-.62-.1,2.18,2.18,0,0,1-.65-.32,2.91,2.91,0,0,1-.61-.57,3.83,3.83,0,0,1-.51-.85,6.49,6.49,0,0,1-.35-1.17,8.38,8.38,0,0,1-.13-1.5Z"/><path class="cls-7" d="M98.66,297l0,.58a3.33,3.33,0,0,1,.5-.81,2.9,2.9,0,0,1,.76-.63c.59-.34,1-.34,1.17,0a3.08,3.08,0,0,1,.5-.77,2.63,2.63,0,0,1,.74-.62c.47-.27.82-.34,1.07-.2s.38.5.38,1.08v4.74l-1,.59v-4.74c0-.54-.25-.66-.73-.37a1.72,1.72,0,0,0-.34.24,1.89,1.89,0,0,0-.23.28,1.4,1.4,0,0,0-.15.3,1.74,1.74,0,0,0-.07.29v4.88l-1,.59v-4.75a.58.58,0,0,0-.17-.49q-.16-.1-.54.12a1.68,1.68,0,0,0-.53.44,1.79,1.79,0,0,0-.27.51v5.05l-1,.59v-6.34Z"/><path class="cls-7" d="M109.58,295.37a.57.57,0,0,0-.08-.31.34.34,0,0,0-.26-.13,1.44,1.44,0,0,0-.48,0,4.94,4.94,0,0,0-.74.23,6.41,6.41,0,0,1-1,.3,2.38,2.38,0,0,1-.76.07.78.78,0,0,1-.5-.23.85.85,0,0,1-.17-.59,2,2,0,0,1,.18-.83,4.24,4.24,0,0,1,.51-.88,6.13,6.13,0,0,1,.78-.85,5.67,5.67,0,0,1,1-.72,4.15,4.15,0,0,1,1-.46,1.72,1.72,0,0,1,.8,0,.88.88,0,0,1,.51.34,1.15,1.15,0,0,1,.17.67l-1.08.63a.53.53,0,0,0-.1-.34.51.51,0,0,0-.3-.18,1,1,0,0,0-.45,0,2.47,2.47,0,0,0-.6.26,4.08,4.08,0,0,0-.61.42,3,3,0,0,0-.43.46,1.74,1.74,0,0,0-.26.45,1.08,1.08,0,0,0-.09.4.48.48,0,0,0,.07.29.29.29,0,0,0,.24.13,1.41,1.41,0,0,0,.46-.06,7.61,7.61,0,0,0,.74-.24,9.17,9.17,0,0,1,1-.32,2.21,2.21,0,0,1,.78-.06.66.66,0,0,1,.48.24.9.9,0,0,1,.17.59,2.37,2.37,0,0,1-.19.88,4.16,4.16,0,0,1-.53.9,5.92,5.92,0,0,1-.82.85,6.37,6.37,0,0,1-1,.73,4.88,4.88,0,0,1-1.15.5,1.92,1.92,0,0,1-.85,0,.85.85,0,0,1-.54-.35,1.17,1.17,0,0,1-.18-.67l1.08-.63a.7.7,0,0,0,.18.46.62.62,0,0,0,.39.15,1.48,1.48,0,0,0,.51-.1,4.67,4.67,0,0,0,.56-.26,4.09,4.09,0,0,0,1.08-.88A1.51,1.51,0,0,0,109.58,295.37Z"/><path class="cls-7" d="M112.36,292.22a5.62,5.62,0,0,1,.18-1.41,5.46,5.46,0,0,1,.5-1.31,5.26,5.26,0,0,1,.8-1.13,4.36,4.36,0,0,1,1.06-.85,2.8,2.8,0,0,1,1-.39,1.12,1.12,0,0,1,.76.17l0-.72,1-.57v6.2a4,4,0,0,1-.19,1.23,5.27,5.27,0,0,1-.55,1.15,5.71,5.71,0,0,1-.85,1,5.37,5.37,0,0,1-1.09.8,4.17,4.17,0,0,1-.56.28,3.83,3.83,0,0,1-.64.18,2.26,2.26,0,0,1-.63,0,1.06,1.06,0,0,1-.52-.22l.56-1a1.43,1.43,0,0,0,.41.17,1.25,1.25,0,0,0,.43,0,1.6,1.6,0,0,0,.43-.11,2.86,2.86,0,0,0,.44-.2,3.64,3.64,0,0,0,.7-.52,3.54,3.54,0,0,0,.53-.63,3.34,3.34,0,0,0,.33-.72,2.67,2.67,0,0,0,.12-.8v-.54a4.81,4.81,0,0,1-.75,1,4.58,4.58,0,0,1-1,.77,2.44,2.44,0,0,1-1,.36,1.18,1.18,0,0,1-.8-.22,1.57,1.57,0,0,1-.5-.74,3.33,3.33,0,0,1-.18-1.16Zm1.09-.51a3,3,0,0,0,.1.83,1.08,1.08,0,0,0,.3.55.76.76,0,0,0,.53.2,1.58,1.58,0,0,0,.77-.27,2.34,2.34,0,0,0,.51-.36,2.63,2.63,0,0,0,.4-.42,3.08,3.08,0,0,0,.32-.48,3.44,3.44,0,0,0,.25-.51v-2.91a.75.75,0,0,0-.25-.22.67.67,0,0,0-.32-.1,1.18,1.18,0,0,0-.4.05,2,2,0,0,0-.49.21,3.12,3.12,0,0,0-.79.64,4,4,0,0,0-.53.82,3.74,3.74,0,0,0-.3.91,4.36,4.36,0,0,0-.1.94Z"/><path class="cls-7" d="M121.65,289.37a1.23,1.23,0,0,1,.06-.36,1.42,1.42,0,0,1,.16-.36,2,2,0,0,1,.26-.33,2.75,2.75,0,0,1,.37-.28,1.3,1.3,0,0,1,.37-.15.39.39,0,0,1,.27,0,.31.31,0,0,1,.17.17.84.84,0,0,1,0,.29,1.56,1.56,0,0,1,0,.36,1.26,1.26,0,0,1-.17.35,1.4,1.4,0,0,1-.27.33,1.8,1.8,0,0,1-.37.28,1.2,1.2,0,0,1-.37.15.44.44,0,0,1-.26,0,.33.33,0,0,1-.16-.17A.62.62,0,0,1,121.65,289.37Z"/><path class="cls-7" d="M131.18,282.89a.51.51,0,0,0-.08-.3.33.33,0,0,0-.26-.14,1.77,1.77,0,0,0-.48,0,6.09,6.09,0,0,0-.74.24,8.89,8.89,0,0,1-1,.3,2.44,2.44,0,0,1-.77.07.76.76,0,0,1-.49-.23.85.85,0,0,1-.18-.59,2.22,2.22,0,0,1,.18-.83,4,4,0,0,1,.51-.88,5.61,5.61,0,0,1,.78-.85,6,6,0,0,1,1-.73,4.35,4.35,0,0,1,1.06-.45,1.67,1.67,0,0,1,.79,0,.84.84,0,0,1,.51.34,1.13,1.13,0,0,1,.18.67l-1.08.63a.58.58,0,0,0-.11-.35.56.56,0,0,0-.29-.17,1,1,0,0,0-.46,0,2.41,2.41,0,0,0-.6.25,5,5,0,0,0-.61.43,3.05,3.05,0,0,0-.43.46,2.09,2.09,0,0,0-.26.45,1,1,0,0,0-.09.4.59.59,0,0,0,.07.29.32.32,0,0,0,.25.12,1.16,1.16,0,0,0,.46,0,7.55,7.55,0,0,0,.73-.24,8,8,0,0,1,1.05-.32,2,2,0,0,1,.78-.07.73.73,0,0,1,.49.25.9.9,0,0,1,.16.59,2.26,2.26,0,0,1-.19.88,3.85,3.85,0,0,1-.53.9,5.34,5.34,0,0,1-.81.85,6.45,6.45,0,0,1-1,.73,4.29,4.29,0,0,1-1.15.49,1.94,1.94,0,0,1-.85,0,.91.91,0,0,1-.53-.35,1.14,1.14,0,0,1-.19-.68l1.09-.62a.67.67,0,0,0,.17.46.6.6,0,0,0,.39.14,1.08,1.08,0,0,0,.51-.1,2.57,2.57,0,0,0,.56-.26,3.6,3.6,0,0,0,1.08-.88A1.45,1.45,0,0,0,131.18,282.89Z"/><path class="cls-7" d="M137,281.35a3.7,3.7,0,0,1-1.23.48,1.67,1.67,0,0,1-1-.09,1.31,1.31,0,0,1-.62-.61,2.37,2.37,0,0,1-.22-1.1v-.24a5,5,0,0,1,.24-1.52,6.9,6.9,0,0,1,.66-1.4,6.77,6.77,0,0,1,.92-1.18,5,5,0,0,1,1.07-.83,3.08,3.08,0,0,1,1.2-.46,1.24,1.24,0,0,1,.85.17,1.37,1.37,0,0,1,.51.69,3.46,3.46,0,0,1,.16,1.13v.49L135,279.5a1.81,1.81,0,0,0,.17.71,1,1,0,0,0,.41.43,1,1,0,0,0,.62.09,2.19,2.19,0,0,0,.81-.3,4.32,4.32,0,0,0,1-.83,5.32,5.32,0,0,0,.75-1.05l.66.13a6.21,6.21,0,0,1-.39.69,8.5,8.5,0,0,1-.55.71,6.56,6.56,0,0,1-.71.67A5.88,5.88,0,0,1,137,281.35Zm-.14-5.6a2.52,2.52,0,0,0-.62.48,3.76,3.76,0,0,0-.53.65,4.27,4.27,0,0,0-.4.8,4.48,4.48,0,0,0-.22.91l3.41-2v-.09a1.58,1.58,0,0,0-.12-.55.85.85,0,0,0-.3-.39.81.81,0,0,0-.5-.1A1.67,1.67,0,0,0,136.83,275.75Z"/><path class="cls-7" d="M142.34,271.79l.08.89a5.69,5.69,0,0,1,.85-1.26,4.48,4.48,0,0,1,1.12-.93,3.34,3.34,0,0,1,.91-.38,1,1,0,0,1,.69,0,.85.85,0,0,1,.44.5,2.52,2.52,0,0,1,.16,1v4l-1.08.62v-4a1.91,1.91,0,0,0-.1-.66.48.48,0,0,0-.28-.31.75.75,0,0,0-.45,0,3,3,0,0,0-.61.27,3.59,3.59,0,0,0-1,.83,4.94,4.94,0,0,0-.66,1.1v4.55l-1.08.62v-6.34Z"/><path class="cls-7" d="M148.37,271.43a6.18,6.18,0,0,1,.17-1.41,5.94,5.94,0,0,1,.51-1.31,5.36,5.36,0,0,1,.8-1.13,4.67,4.67,0,0,1,1.05-.85,2.79,2.79,0,0,1,1-.38,1.05,1.05,0,0,1,.73.13v-3.29l1.09-.63v9l-1,.58-.05-.64a4.55,4.55,0,0,1-1.78,1.81,2.44,2.44,0,0,1-1,.36,1.18,1.18,0,0,1-.79-.23,1.52,1.52,0,0,1-.51-.72,3.39,3.39,0,0,1-.18-1.17Zm1.08-.5a2.92,2.92,0,0,0,.1.82,1.17,1.17,0,0,0,.31.55.74.74,0,0,0,.53.2,1.66,1.66,0,0,0,.77-.26,3.75,3.75,0,0,0,.5-.36,2.59,2.59,0,0,0,.4-.41,3.08,3.08,0,0,0,.32-.48,3,3,0,0,0,.25-.51v-2.94a.81.81,0,0,0-.57-.31,1.49,1.49,0,0,0-.89.27,3,3,0,0,0-.78.63,3.59,3.59,0,0,0-.53.82,4.25,4.25,0,0,0-.31.91,4.42,4.42,0,0,0-.1.94Z"/><path class="cls-7" d="M158.57,268.88a4,4,0,0,1-1.22.48,1.65,1.65,0,0,1-1-.09,1.23,1.23,0,0,1-.62-.61,2.39,2.39,0,0,1-.23-1.1v-.24a4.94,4.94,0,0,1,.25-1.52,6.17,6.17,0,0,1,.65-1.4,6.82,6.82,0,0,1,.93-1.18,5,5,0,0,1,1.06-.84,3.33,3.33,0,0,1,1.2-.45,1.28,1.28,0,0,1,.85.16,1.3,1.3,0,0,1,.51.7,3.4,3.4,0,0,1,.17,1.13v.49L156.63,267a1.87,1.87,0,0,0,.16.72,1,1,0,0,0,.41.43,1.08,1.08,0,0,0,.63.09,2.15,2.15,0,0,0,.8-.3,4.37,4.37,0,0,0,1-.83,5.11,5.11,0,0,0,.75-1.06l.67.14a5.46,5.46,0,0,1-.4.68,5.9,5.9,0,0,1-.55.71,6.46,6.46,0,0,1-.7.68A6,6,0,0,1,158.57,268.88Zm-.14-5.61a3.44,3.44,0,0,0-.62.48,4.94,4.94,0,0,0-.53.66,4.84,4.84,0,0,0-.39.79,4.49,4.49,0,0,0-.23.91l3.41-2v-.08a1.69,1.69,0,0,0-.12-.56.88.88,0,0,0-.3-.38.79.79,0,0,0-.5-.11A1.86,1.86,0,0,0,158.43,263.27Z"/><path class="cls-7" d="M167.13,257.36l.31-.17.32-.15.27-.11.21-.06-.15,1.15c-.21.07-.41.16-.6.24l-.59.31A4.11,4.11,0,0,0,165,261v4.07l-1.09.62v-6.34l1-.59.06,1a6.38,6.38,0,0,1,.92-1.36A5.23,5.23,0,0,1,167.13,257.36Z"/><path class="cls-9" d="M182.6,250.32l-5.23,3v-1l5.23-3Zm0,2.43-5.23,3v-.94l5.23-3Z"/><path class="cls-9" d="M189.8,246.16l-5.23,3v-.94l5.23-3Zm0,2.43-5.23,3v-.94l5.23-3Z"/><path class="cls-15" d="M40.24,348.25a5.19,5.19,0,0,1,.2-1.39,6.67,6.67,0,0,1,.57-1.35,5.9,5.9,0,0,1,.91-1.21,5.72,5.72,0,0,1,1.2-.94,3.18,3.18,0,0,1,1.21-.45,1.41,1.41,0,0,1,.91.16,1.32,1.32,0,0,1,.57.69,3.05,3.05,0,0,1,.2,1.16v.13a5.06,5.06,0,0,1-.2,1.38,5.7,5.7,0,0,1-.57,1.35,5.9,5.9,0,0,1-.91,1.21,5.54,5.54,0,0,1-1.2.94,3.36,3.36,0,0,1-1.21.45,1.31,1.31,0,0,1-1.48-.85,3,3,0,0,1-.2-1.15Zm1.09-.5a3,3,0,0,0,.11.83,1.08,1.08,0,0,0,.34.55.83.83,0,0,0,.56.19,1.81,1.81,0,0,0,.79-.27,3.26,3.26,0,0,0,.79-.64,4.24,4.24,0,0,0,.56-.84,3.89,3.89,0,0,0,.33-.94,4,4,0,0,0,.12-1v-.13a2.62,2.62,0,0,0-.12-.82,1.13,1.13,0,0,0-.34-.55.77.77,0,0,0-.56-.18,1.66,1.66,0,0,0-.79.26,3,3,0,0,0-.78.64,3.84,3.84,0,0,0-.56.84,3.91,3.91,0,0,0-.34.94,4.54,4.54,0,0,0-.11.95Z"/><path class="cls-15" d="M48.71,344.29l.13.83.16-1,1-4.63.7-.41,1,3.47.17.89.16-1.08.7-4.45,1-.56-1.35,7.12-.85.49-1-3.31-.17-.89-.16,1.08-1,4.45-.86.49L47,341.23l1-.56Z"/><path class="cls-15" d="M55.93,336.08l.07.9a5.69,5.69,0,0,1,.85-1.26,4.56,4.56,0,0,1,1.13-.94,3.3,3.3,0,0,1,.9-.38,1.09,1.09,0,0,1,.7,0,1,1,0,0,1,.44.5,2.73,2.73,0,0,1,.15,1v4l-1.08.63v-4a1.94,1.94,0,0,0-.09-.66.54.54,0,0,0-.28-.31.69.69,0,0,0-.45,0,2.84,2.84,0,0,0-.62.27,3.37,3.37,0,0,0-.95.82,4.46,4.46,0,0,0-.66,1.1v4.55L55,343v-6.34Z"/><path class="cls-15" d="M65,337.33a4,4,0,0,1-1.22.48,1.65,1.65,0,0,1-1-.09,1.27,1.27,0,0,1-.62-.61,2.4,2.4,0,0,1-.22-1.1v-.24a4.93,4.93,0,0,1,.24-1.52,6.63,6.63,0,0,1,.65-1.4,6.82,6.82,0,0,1,.93-1.18,5.27,5.27,0,0,1,1.06-.84,3.33,3.33,0,0,1,1.2-.45,1.28,1.28,0,0,1,.85.16,1.3,1.3,0,0,1,.51.7,3.4,3.4,0,0,1,.17,1.13v.49L63,335.47a1.66,1.66,0,0,0,.17.72.9.9,0,0,0,.41.43,1,1,0,0,0,.62.09,2.15,2.15,0,0,0,.8-.3,4.37,4.37,0,0,0,1-.83,5.11,5.11,0,0,0,.75-1.06l.67.14a5.46,5.46,0,0,1-.4.68,5.2,5.2,0,0,1-.55.71,5.66,5.66,0,0,1-.7.68A6,6,0,0,1,65,337.33Zm-.14-5.61a3.44,3.44,0,0,0-.62.48,4.2,4.2,0,0,0-.52.66,4,4,0,0,0-.4.8,4.4,4.4,0,0,0-.23.9l3.41-2v-.08a1.69,1.69,0,0,0-.12-.56.76.76,0,0,0-.3-.38.79.79,0,0,0-.5-.11A1.86,1.86,0,0,0,64.81,331.72Z"/><path class="cls-15" d="M73.51,325.81l.32-.17a2.2,2.2,0,0,1,.31-.15l.27-.11.21-.06-.14,1.15c-.22.07-.41.16-.6.24s-.39.19-.6.31a4.11,4.11,0,0,0-1.93,2.43v4.07l-1.09.63v-6.34l1-.6,0,1a6.07,6.07,0,0,1,.93-1.36A5,5,0,0,1,73.51,325.81Z"/><path class="cls-15" d="M80.51,324.82a10.23,10.23,0,0,1-.13,1.66,15.6,15.6,0,0,1-.35,1.57,11.6,11.6,0,0,1-.52,1.44,11.72,11.72,0,0,1-.61,1.28,11,11,0,0,1-.64,1.06,7.7,7.7,0,0,1-.62.81l-.23-.53a8.53,8.53,0,0,0,.73-1.17,11,11,0,0,0,.64-1.54,13.16,13.16,0,0,0,.46-1.85,11.59,11.59,0,0,0,.18-2.08v-.09a8,8,0,0,0-.19-1.88,4.78,4.78,0,0,0-.48-1.3,2.52,2.52,0,0,0-.65-.79,1.77,1.77,0,0,0-.69-.36l.23-.79a2.32,2.32,0,0,1,.62.09,2.64,2.64,0,0,1,1.25.9,3.5,3.5,0,0,1,.52.85,6.37,6.37,0,0,1,.35,1.16,7.69,7.69,0,0,1,.13,1.5Z"/><path class="cls-15" d="M87.28,324.07a2.79,2.79,0,0,1-.07.61,4.35,4.35,0,0,1-.2.72,5.27,5.27,0,0,1-.32.75,6.06,6.06,0,0,1-.43.73l-.67,0a4.86,4.86,0,0,0,.39-1.1,4.73,4.73,0,0,0,.12-1v-1l1.18-.68Zm-1.4-4.78a1.13,1.13,0,0,1,.06-.36,1.89,1.89,0,0,1,.16-.36,1.4,1.4,0,0,1,.27-.33,1.72,1.72,0,0,1,.36-.28,1.34,1.34,0,0,1,.38-.15.41.41,0,0,1,.27,0,.33.33,0,0,1,.16.17.63.63,0,0,1,0,.29,1.06,1.06,0,0,1,0,.35,1.89,1.89,0,0,1-.16.36,2.78,2.78,0,0,1-.27.33,1.84,1.84,0,0,1-.38.27,1.33,1.33,0,0,1-.36.16.57.57,0,0,1-.27,0,.44.44,0,0,1-.16-.17A.65.65,0,0,1,85.88,319.29Z"/><path class="cls-15" d="M103.42,330.29l-5.37,3.1v-.89l5.37-3.1Z"/><path class="cls-15" d="M108.88,326a3.58,3.58,0,0,1-.06.61,5.07,5.07,0,0,1-.2.71,8,8,0,0,1-.32.75,5.55,5.55,0,0,1-.44.74l-.67,0a5,5,0,0,0,.4-1.11,4.59,4.59,0,0,0,.12-1v-1.05l1.17-.67Zm-1.39-4.78a1.26,1.26,0,0,1,.22-.72,1.35,1.35,0,0,1,.26-.33,1.5,1.5,0,0,1,.37-.28,1.2,1.2,0,0,1,.37-.15.47.47,0,0,1,.27,0,.33.33,0,0,1,.16.17.67.67,0,0,1,.06.3,1.12,1.12,0,0,1-.06.35,1.42,1.42,0,0,1-.16.36,2,2,0,0,1-.27.33,2.07,2.07,0,0,1-.37.27,1.3,1.3,0,0,1-.37.15.37.37,0,0,1-.26,0,.37.37,0,0,1-.17-.16A.84.84,0,0,1,107.49,321.22Z"/><path class="cls-15" d="M70.23,364.44a2.11,2.11,0,0,0,.6-.55,3,3,0,0,0,.38-.7,4.73,4.73,0,0,0,.21-.76,5.17,5.17,0,0,0,.06-.76v-1a3.36,3.36,0,0,1,.32-1.42,4.6,4.6,0,0,1,1-1.38,1,1,0,0,1-1-.22,1.47,1.47,0,0,1-.32-1.05v-1c0-.24,0-.47,0-.7a1.48,1.48,0,0,0-.17-.56.51.51,0,0,0-.37-.26,1.07,1.07,0,0,0-.67.19l.12-.74a2.52,2.52,0,0,1,.72-.29,1.23,1.23,0,0,1,.57,0,1,1,0,0,1,.42.22,1.3,1.3,0,0,1,.28.4,2.19,2.19,0,0,1,.17.53,3.83,3.83,0,0,1,0,.6v1c0,.57.14.9.4,1a1.7,1.7,0,0,0,1.23-.33v.85A3.59,3.59,0,0,0,73,358.59a2.68,2.68,0,0,0-.4,1.46v1a4.32,4.32,0,0,1-.13,1,5.2,5.2,0,0,1-.4,1.1,4.7,4.7,0,0,1-.69,1,4,4,0,0,1-1,.84Z"/><path class="cls-9" d="M71,391.34v-5.51l-1.74,1V386L71,385v-.45a3.77,3.77,0,0,1,.18-1.17,4.15,4.15,0,0,1,.51-1.06,4.23,4.23,0,0,1,.78-.92,5.17,5.17,0,0,1,1-.75,5.77,5.77,0,0,1,.75-.37q.36-.15.75-.27l-.13,1a5.81,5.81,0,0,0-.56.18,4.65,4.65,0,0,0-.68.33,3.24,3.24,0,0,0-1.14,1.05,2.48,2.48,0,0,0-.39,1.38v.45L74.51,383v.83l-2.45,1.41v5.51Z"/><path class="cls-9" d="M80.68,384.86a5.28,5.28,0,0,1-.8,1.19,4.47,4.47,0,0,1-1.09.89,2.91,2.91,0,0,1-.9.36.93.93,0,0,1-.69-.08,1.05,1.05,0,0,1-.45-.58,3.43,3.43,0,0,1-.15-1.13v-3.76l1.08-.63v3.78a3.38,3.38,0,0,0,.08.81.71.71,0,0,0,.25.4.49.49,0,0,0,.4.05,1.85,1.85,0,0,0,.55-.23A3.82,3.82,0,0,0,80,385a3.61,3.61,0,0,0,.6-1.08v-4.54l1.09-.63v6.34l-1,.57Z"/><path class="cls-9" d="M84.74,377.05l.07.89a6.06,6.06,0,0,1,.85-1.26,4.52,4.52,0,0,1,1.13-.93,3.3,3.3,0,0,1,.9-.38,1.09,1.09,0,0,1,.7,0,.9.9,0,0,1,.44.51,2.73,2.73,0,0,1,.15,1v4l-1.08.62v-4a1.94,1.94,0,0,0-.09-.66.54.54,0,0,0-.28-.31.68.68,0,0,0-.45,0,2.79,2.79,0,0,0-.61.27,3.31,3.31,0,0,0-1,.83,4.29,4.29,0,0,0-.66,1.1v4.54l-1.09.63v-6.34Z"/><path class="cls-9" d="M93.67,377.47a3.46,3.46,0,0,0,.57-.42,3.64,3.64,0,0,0,.49-.55,2.78,2.78,0,0,0,.35-.59,1.4,1.4,0,0,0,.14-.57l1-.59a2.32,2.32,0,0,1-.22.93,4.82,4.82,0,0,1-.57,1,6,6,0,0,1-.82.94,5.3,5.3,0,0,1-1,.73,3.29,3.29,0,0,1-1.26.47A1.29,1.29,0,0,1,91,378a2.85,2.85,0,0,1-.19-1.1v-.25a4.7,4.7,0,0,1,.19-1.3,5.56,5.56,0,0,1,.54-1.32,6.09,6.09,0,0,1,.9-1.22,5.32,5.32,0,0,1,1.26-1,3.29,3.29,0,0,1,1-.42,1.68,1.68,0,0,1,.81,0,1,1,0,0,1,.54.42,1.47,1.47,0,0,1,.19.79l-1,.6a.84.84,0,0,0-.13-.47.59.59,0,0,0-.32-.26.88.88,0,0,0-.49,0,1.68,1.68,0,0,0-.61.24,3.06,3.06,0,0,0-.85.69,3.53,3.53,0,0,0-.55.85,3.69,3.69,0,0,0-.31.9,4.43,4.43,0,0,0-.09.87v.24A3.07,3.07,0,0,0,92,377a1.12,1.12,0,0,0,.3.56.75.75,0,0,0,.55.21A1.77,1.77,0,0,0,93.67,377.47Z"/><path class="cls-9" d="M100.73,366.28v1.53l2.42-1.39v.84l-2.42,1.39v3.45a1.15,1.15,0,0,0,.1.55.41.41,0,0,0,.26.24.68.68,0,0,0,.37,0,2.21,2.21,0,0,0,.46-.2l.36-.23.37-.26.33-.26.25-.2.16.68a3.42,3.42,0,0,1-.33.33l-.42.35c-.15.12-.32.23-.49.35l-.5.31a3.24,3.24,0,0,1-.79.34,1.05,1.05,0,0,1-.64,0,.77.77,0,0,1-.42-.43,2.13,2.13,0,0,1-.16-.9v-3.45l-1.66,1v-.84l1.66-1v-1.53Z"/><path class="cls-9" d="M105.54,365l3.24-1.87v5.4l2.07-1.19v.93l-5.31,3.07v-.94l2.15-1.24v-4.46L105.54,366Zm2-2.83a1.12,1.12,0,0,1,.16-.54,1.3,1.3,0,0,1,.49-.47c.22-.13.38-.16.49-.1a.37.37,0,0,1,.16.36,1,1,0,0,1-.16.53,1.21,1.21,0,0,1-.49.46.56.56,0,0,1-.49.11A.37.37,0,0,1,107.55,362.21Z"/><path class="cls-9" d="M112.26,364.27a5.19,5.19,0,0,1,.2-1.39,6.47,6.47,0,0,1,.58-1.36,6.07,6.07,0,0,1,.9-1.2,5.41,5.41,0,0,1,1.2-.94,3.18,3.18,0,0,1,1.21-.45,1.41,1.41,0,0,1,.91.16,1.32,1.32,0,0,1,.57.69,3,3,0,0,1,.2,1.16v.13a5.12,5.12,0,0,1-.2,1.38,5.7,5.7,0,0,1-.57,1.35,5.9,5.9,0,0,1-.91,1.21,5.21,5.21,0,0,1-1.2.93,3.4,3.4,0,0,1-1.21.46,1.33,1.33,0,0,1-1.48-.85,3,3,0,0,1-.2-1.15Zm1.09-.5a3,3,0,0,0,.11.83,1.13,1.13,0,0,0,.34.55.83.83,0,0,0,.56.19,1.81,1.81,0,0,0,.79-.27,3.52,3.52,0,0,0,.79-.64,4.24,4.24,0,0,0,.56-.84,4.39,4.39,0,0,0,.34-.94,4.49,4.49,0,0,0,.11-1v-.13a2.62,2.62,0,0,0-.12-.82,1.13,1.13,0,0,0-.34-.55.83.83,0,0,0-.56-.19,1.72,1.72,0,0,0-.79.27,3,3,0,0,0-.78.64,3.84,3.84,0,0,0-.56.84,3.91,3.91,0,0,0-.34.94,4.54,4.54,0,0,0-.11.95Z"/><path class="cls-9" d="M120.74,356.26l.08.89a5.69,5.69,0,0,1,.85-1.26,4.66,4.66,0,0,1,1.12-.93,3.48,3.48,0,0,1,.91-.38,1,1,0,0,1,.69,0,.86.86,0,0,1,.45.5,2.73,2.73,0,0,1,.15,1v4l-1.08.62v-4a1.7,1.7,0,0,0-.1-.66.5.5,0,0,0-.27-.31.79.79,0,0,0-.46,0,2.63,2.63,0,0,0-.61.28,3.38,3.38,0,0,0-1,.82,4.94,4.94,0,0,0-.66,1.1v4.55l-1.08.62v-6.34Z"/><path class="cls-15" d="M43.12,413.94v1.54l2.41-1.39v.83l-2.41,1.4v3.44a1.36,1.36,0,0,0,.09.56.42.42,0,0,0,.26.23.62.62,0,0,0,.38,0,2.23,2.23,0,0,0,.45-.21,3.61,3.61,0,0,0,.36-.23c.13-.08.25-.17.37-.26l.33-.25.26-.21.15.68a3.44,3.44,0,0,1-.33.34l-.42.35c-.15.11-.31.23-.48.34s-.34.22-.51.32a3,3,0,0,1-.79.33,1,1,0,0,1-.63,0,.79.79,0,0,1-.43-.43,2.2,2.2,0,0,1-.15-.91V417l-1.67,1v-.84l1.67-1v-1.54Z"/><path class="cls-15" d="M51.91,410.29l.31-.18.31-.15.28-.11a.63.63,0,0,1,.21-.05l-.15,1.14-.6.24c-.19.09-.39.2-.59.32a4.14,4.14,0,0,0-1.24,1.05,4.42,4.42,0,0,0-.69,1.37V418l-1.09.63v-6.34l1-.6.05,1a6.81,6.81,0,0,1,.93-1.36A4.62,4.62,0,0,1,51.91,410.29Z"/><path class="cls-15" d="M59.12,412.58a.65.65,0,0,1-.1-.25A1.82,1.82,0,0,1,59,412a5.56,5.56,0,0,1-.37.52,5.27,5.27,0,0,1-.44.52c-.16.16-.34.32-.52.47a4.07,4.07,0,0,1-.59.4,3.06,3.06,0,0,1-.91.38,1.35,1.35,0,0,1-.69,0,.78.78,0,0,1-.44-.34,1.28,1.28,0,0,1-.15-.65,2.91,2.91,0,0,1,.2-1,4.24,4.24,0,0,1,.59-1,6.15,6.15,0,0,1,.92-.92,10.08,10.08,0,0,1,1.2-.82l1.18-.68v-.5a.9.9,0,0,0-.1-.46.47.47,0,0,0-.3-.21,1,1,0,0,0-.47,0,2.71,2.71,0,0,0-.63.27,3.66,3.66,0,0,0-.57.42,3.74,3.74,0,0,0-.44.46,2.9,2.9,0,0,0-.27.48,1.28,1.28,0,0,0-.09.44l-1.09.63a2.25,2.25,0,0,1,.17-.78,4.73,4.73,0,0,1,.5-.89,6.39,6.39,0,0,1,.79-.89,5.54,5.54,0,0,1,1.06-.77,4.51,4.51,0,0,1,1-.45,1.63,1.63,0,0,1,.8-.06.76.76,0,0,1,.53.36,1.44,1.44,0,0,1,.2.82v2.94a3.47,3.47,0,0,0,.06.64,1.6,1.6,0,0,0,.16.52v.1Zm-1.92.28a3.51,3.51,0,0,0,.59-.42,6.13,6.13,0,0,0,.51-.51,3.49,3.49,0,0,0,.38-.53,3.08,3.08,0,0,0,.26-.51V409.6l-1,.59a5.89,5.89,0,0,0-1.47,1.13,1.8,1.8,0,0,0-.53,1.19.87.87,0,0,0,.08.39.37.37,0,0,0,.24.2.67.67,0,0,0,.4,0A2.24,2.24,0,0,0,57.2,412.86Z"/><path class="cls-15" d="M63.13,403.93l.07.89a6.06,6.06,0,0,1,.85-1.26,4.79,4.79,0,0,1,1.13-.94,3.64,3.64,0,0,1,.9-.38,1.08,1.08,0,0,1,.7,0,.9.9,0,0,1,.44.51,2.67,2.67,0,0,1,.16,1v4l-1.09.63v-4a1.9,1.9,0,0,0-.09-.66.56.56,0,0,0-.28-.32.69.69,0,0,0-.45,0,3.07,3.07,0,0,0-.62.27,3.54,3.54,0,0,0-.95.82,4.46,4.46,0,0,0-.66,1.1v4.55l-1.09.63v-6.34Z"/><path class="cls-15" d="M73.57,402.56a.57.57,0,0,0-.08-.31.34.34,0,0,0-.26-.13,1.22,1.22,0,0,0-.48,0,5.32,5.32,0,0,0-.74.23,7.62,7.62,0,0,1-1,.3,2.44,2.44,0,0,1-.77.07.81.81,0,0,1-.5-.23.9.9,0,0,1-.17-.59,2.22,2.22,0,0,1,.18-.83,4,4,0,0,1,.51-.88,5.61,5.61,0,0,1,.78-.85,6.06,6.06,0,0,1,1-.72,4.05,4.05,0,0,1,1.06-.46,1.67,1.67,0,0,1,.79,0,.88.88,0,0,1,.51.34,1.13,1.13,0,0,1,.18.67l-1.09.63a.53.53,0,0,0-.1-.34.52.52,0,0,0-.29-.18,1,1,0,0,0-.46,0,2.14,2.14,0,0,0-.6.26,4.08,4.08,0,0,0-.61.42,3.62,3.62,0,0,0-.43.46,1.74,1.74,0,0,0-.26.45,1,1,0,0,0-.09.4.48.48,0,0,0,.07.29.35.35,0,0,0,.24.13,1.47,1.47,0,0,0,.47-.06,7.55,7.55,0,0,0,.73-.24,7.52,7.52,0,0,1,1-.32A2.52,2.52,0,0,1,74,401a.7.7,0,0,1,.48.25.85.85,0,0,1,.17.59,2.22,2.22,0,0,1-.19.88,4.23,4.23,0,0,1-.53.9,5.83,5.83,0,0,1-.81.85,6.45,6.45,0,0,1-1,.73,4.29,4.29,0,0,1-1.15.49,1.8,1.8,0,0,1-.85,0,.87.87,0,0,1-.53-.35,1.13,1.13,0,0,1-.19-.67l1.08-.63a.7.7,0,0,0,.18.46.6.6,0,0,0,.39.14,1.22,1.22,0,0,0,.51-.09,4,4,0,0,0,.56-.26,3.93,3.93,0,0,0,1.08-.88A1.51,1.51,0,0,0,73.57,402.56Z"/><path class="cls-15" d="M78.17,401.58v-5.5l-1.74,1v-.83l1.74-1v-.45a3.86,3.86,0,0,1,.18-1.17,4.31,4.31,0,0,1,.51-1.06,4.48,4.48,0,0,1,.78-.92,5.6,5.6,0,0,1,1-.75,6.48,6.48,0,0,1,.75-.37c.24-.1.5-.19.75-.27l-.13,1a5.73,5.73,0,0,0-.55.18,4.73,4.73,0,0,0-.69.33,3.33,3.33,0,0,0-1.14,1,2.48,2.48,0,0,0-.39,1.38v.45l2.45-1.41V394l-2.45,1.41V401Z"/><path class="cls-15" d="M86.56,396.85a3.58,3.58,0,0,1-1.22.48,1.66,1.66,0,0,1-1-.08,1.29,1.29,0,0,1-.62-.62,2.35,2.35,0,0,1-.22-1.09v-.25a5,5,0,0,1,.24-1.52,6.56,6.56,0,0,1,1.58-2.58,5.58,5.58,0,0,1,1.06-.83,3.2,3.2,0,0,1,1.2-.46,1.23,1.23,0,0,1,.85.17,1.31,1.31,0,0,1,.51.69,3.47,3.47,0,0,1,.17,1.14v.48L84.62,395a1.74,1.74,0,0,0,.17.72.88.88,0,0,0,.41.42,1,1,0,0,0,.62.09,2.15,2.15,0,0,0,.8-.3,4.13,4.13,0,0,0,1-.83,4.61,4.61,0,0,0,.75-1.05l.67.13a6.38,6.38,0,0,1-.4.69,6.8,6.8,0,0,1-.55.71,6.49,6.49,0,0,1-.7.68A6.85,6.85,0,0,1,86.56,396.85Zm-.14-5.6a3.34,3.34,0,0,0-.62.48,3.71,3.71,0,0,0-.52.65,4.27,4.27,0,0,0-.4.8,4.49,4.49,0,0,0-.23.91l3.41-2V392a1.64,1.64,0,0,0-.12-.56.74.74,0,0,0-.3-.39.79.79,0,0,0-.5-.1A1.71,1.71,0,0,0,86.42,391.25Z"/><path class="cls-15" d="M95.12,385.34l.32-.18.31-.15.27-.11a.76.76,0,0,1,.21,0L96.09,386c-.21.08-.41.16-.6.25s-.39.19-.6.31a4,4,0,0,0-1.23,1.05A4.24,4.24,0,0,0,93,389V393l-1.09.63v-6.34l1-.6.06,1a6.42,6.42,0,0,1,.93-1.36A4.74,4.74,0,0,1,95.12,385.34Z"/><path class="cls-15" d="M103.72,383.06a8.63,8.63,0,0,1-.08,1,8,8,0,0,1-.23,1,7.21,7.21,0,0,1-.39,1,6.35,6.35,0,0,1-.56,1,5.28,5.28,0,0,1-.76.88,4.8,4.8,0,0,1-1,.71,3.41,3.41,0,0,1-1,.39,1.56,1.56,0,0,1-.75,0,1.26,1.26,0,0,1-.57-.33,1.87,1.87,0,0,1-.4-.58,3.47,3.47,0,0,1-.23-.77,4.85,4.85,0,0,1-.08-.87v-1a6.67,6.67,0,0,1,.08-1,6.59,6.59,0,0,1,.23-1,7.21,7.21,0,0,1,1-2,5.71,5.71,0,0,1,.76-.88,4.8,4.8,0,0,1,.95-.71,3.41,3.41,0,0,1,1-.39,1.75,1.75,0,0,1,.76,0,1.26,1.26,0,0,1,.57.33,2.45,2.45,0,0,1,.39.58,3.4,3.4,0,0,1,.23.78,6.12,6.12,0,0,1,.08.88Zm-1.08-.37a4.26,4.26,0,0,0,0-.61,2.81,2.81,0,0,0-.12-.59,2,2,0,0,0-.22-.49,1.06,1.06,0,0,0-.35-.32,1,1,0,0,0-.5-.07,1.91,1.91,0,0,0-.67.26,2.57,2.57,0,0,0-.66.52,3.81,3.81,0,0,0-.5.64,4.43,4.43,0,0,0-.35.73,5.37,5.37,0,0,0-.23.75,6.52,6.52,0,0,0-.12.73c0,.23,0,.45,0,.65v1c0,.19,0,.4,0,.6a3.42,3.42,0,0,0,.12.59,2.22,2.22,0,0,0,.23.49.82.82,0,0,0,.35.32.9.9,0,0,0,.5.08,1.86,1.86,0,0,0,.67-.25,3.2,3.2,0,0,0,.67-.53,3.36,3.36,0,0,0,.5-.64,4.46,4.46,0,0,0,.35-.73,5.92,5.92,0,0,0,.22-.75c.05-.24.09-.49.12-.72s0-.46,0-.66Z"/><path class="cls-15" d="M106.33,383l.13.83.16-1,1-4.63.7-.4,1,3.46.17.9.15-1.09.71-4.45,1-.55L110,383.22l-.86.49-1-3.31-.16-.89-.16,1.07-1,4.45-.85.5L104.63,380l1-.55Z"/><path class="cls-15" d="M113.54,374.82l.08.89a5.69,5.69,0,0,1,.85-1.26,4.48,4.48,0,0,1,1.12-.93,3.94,3.94,0,0,1,.91-.39,1.12,1.12,0,0,1,.69,0,.9.9,0,0,1,.44.51,2.52,2.52,0,0,1,.16,1v4l-1.08.62v-4a1.7,1.7,0,0,0-.1-.66.53.53,0,0,0-.28-.32.69.69,0,0,0-.45,0,3,3,0,0,0-.61.27,3.59,3.59,0,0,0-1,.83,4.94,4.94,0,0,0-.66,1.1v4.54l-1.08.63v-6.34Z"/><path class="cls-15" d="M122.57,376.06a3.54,3.54,0,0,1-1.23.48,1.63,1.63,0,0,1-1-.08,1.25,1.25,0,0,1-.62-.62,2.35,2.35,0,0,1-.23-1.09v-.25a4.6,4.6,0,0,1,.25-1.51,6.37,6.37,0,0,1,1.58-2.58,5,5,0,0,1,1.06-.84,3.15,3.15,0,0,1,1.2-.45,1.18,1.18,0,0,1,.85.16,1.31,1.31,0,0,1,.51.69,3.51,3.51,0,0,1,.17,1.14v.48l-4.53,2.62a1.74,1.74,0,0,0,.16.72,1,1,0,0,0,.41.43,1.17,1.17,0,0,0,.63.08,2.15,2.15,0,0,0,.8-.3,4.13,4.13,0,0,0,1-.83,5.32,5.32,0,0,0,.75-1.05l.66.13a4.94,4.94,0,0,1-.39.69,6.8,6.8,0,0,1-.55.71,7.56,7.56,0,0,1-.7.68A6.85,6.85,0,0,1,122.57,376.06Zm-.14-5.6a3.44,3.44,0,0,0-.62.48,4.28,4.28,0,0,0-.53.65,4.56,4.56,0,0,0-.39.8,3.92,3.92,0,0,0-.23.91l3.41-2v-.08a1.64,1.64,0,0,0-.12-.56.78.78,0,0,0-.3-.38.73.73,0,0,0-.5-.11A1.71,1.71,0,0,0,122.43,370.46Z"/><path class="cls-15" d="M131.13,364.55l.31-.18.32-.15.27-.11.21-.05-.15,1.14c-.21.08-.41.16-.6.25s-.39.19-.59.31a4,4,0,0,0-1.24,1.06,4.26,4.26,0,0,0-.69,1.36v4.07l-1.09.63v-6.34l1-.6.05,1a7.11,7.11,0,0,1,.93-1.36A4.78,4.78,0,0,1,131.13,364.55Z"/><path class="cls-15" d="M138.39,365.13a.51.51,0,0,0-.08-.3.39.39,0,0,0-.26-.14,1.77,1.77,0,0,0-.48,0,5.58,5.58,0,0,0-.74.24q-.56.19-1,.3a2.44,2.44,0,0,1-.77.07.78.78,0,0,1-.5-.23.9.9,0,0,1-.17-.59,2.22,2.22,0,0,1,.18-.83,4,4,0,0,1,.51-.88,6.06,6.06,0,0,1,1.78-1.58,4.46,4.46,0,0,1,1-.45,1.6,1.6,0,0,1,.8,0,.84.84,0,0,1,.51.34,1.13,1.13,0,0,1,.18.67l-1.09.62a.57.57,0,0,0-.1-.34.51.51,0,0,0-.3-.18,1.18,1.18,0,0,0-.45,0,2.41,2.41,0,0,0-.6.25,5,5,0,0,0-.61.43,2.61,2.61,0,0,0-.43.46,1.74,1.74,0,0,0-.26.45,1,1,0,0,0-.09.4.5.5,0,0,0,.07.29.31.31,0,0,0,.24.12,1.21,1.21,0,0,0,.47,0A5.8,5.8,0,0,0,137,364c.39-.14.74-.24,1-.32a2.21,2.21,0,0,1,.78-.06.7.7,0,0,1,.48.25.85.85,0,0,1,.17.59,2.22,2.22,0,0,1-.19.88,4.23,4.23,0,0,1-.53.9,6.49,6.49,0,0,1-.82.85,7.05,7.05,0,0,1-1,.73,4.29,4.29,0,0,1-1.15.49,1.94,1.94,0,0,1-.85,0,.9.9,0,0,1-.54-.36,1.15,1.15,0,0,1-.18-.67l1.08-.62a.72.72,0,0,0,.18.46.58.58,0,0,0,.39.14,1.45,1.45,0,0,0,.51-.09,4.11,4.11,0,0,0,.56-.27A3.76,3.76,0,0,0,138,366,1.51,1.51,0,0,0,138.39,365.13Z"/><path class="cls-15" d="M142.46,359.07a5.54,5.54,0,0,1,.84-1.26,4.31,4.31,0,0,1,1.12-.93,3,3,0,0,1,.9-.38,1.09,1.09,0,0,1,.7,0,1,1,0,0,1,.44.52,2.79,2.79,0,0,1,.15,1v4l-1.08.63v-4c0-.52-.12-.84-.37-.95a1.25,1.25,0,0,0-1.07.24,3.71,3.71,0,0,0-.94.8,4.3,4.3,0,0,0-.69,1.08v4.6l-1.08.63v-9l1.08-.63Z"/><path class="cls-15" d="M148.75,354.49l3.24-1.87V358l2.06-1.19v.94l-5.3,3.06v-.93l2.15-1.25v-4.46l-2.15,1.25Zm2-2.82a1.16,1.16,0,0,1,.16-.55,1.31,1.31,0,0,1,.49-.47c.22-.12.38-.16.49-.09s.16.17.16.35a1,1,0,0,1-.16.54,1.36,1.36,0,0,1-.49.46c-.22.12-.38.16-.49.1A.35.35,0,0,1,150.76,351.67Z"/><path class="cls-15" d="M161.13,350.59a6,6,0,0,1-.65,2.66,5.17,5.17,0,0,1-.78,1.13,4.4,4.4,0,0,1-1.06.86,3,3,0,0,1-1,.4,1.16,1.16,0,0,1-.75-.1v3l-1.09.62v-8.77l1-.57.06.66a4.94,4.94,0,0,1,.76-1,4.36,4.36,0,0,1,1-.8,2.5,2.5,0,0,1,1.08-.39,1.08,1.08,0,0,1,.78.22,1.5,1.5,0,0,1,.48.74,3.92,3.92,0,0,1,.17,1.21Zm-1.09.5a3,3,0,0,0-.1-.83,1.22,1.22,0,0,0-.31-.55.76.76,0,0,0-.55-.19,1.66,1.66,0,0,0-.78.26,3,3,0,0,0-.88.75,4,4,0,0,0-.56,1v3a.77.77,0,0,0,.56.29,1.61,1.61,0,0,0,.89-.28,3,3,0,0,0,.78-.63,3.69,3.69,0,0,0,.54-.83,4.33,4.33,0,0,0,.31-.92,4.52,4.52,0,0,0,.1-1Z"/><path class="cls-15" d="M164.05,348.53a10.19,10.19,0,0,1,.13-1.65,13.28,13.28,0,0,1,.36-1.57,14.5,14.5,0,0,1,.51-1.45c.19-.46.4-.88.61-1.28s.43-.74.64-1.06a8.66,8.66,0,0,1,.62-.8l.22.58a8.55,8.55,0,0,0-.72,1.17,10.22,10.22,0,0,0-.64,1.52,13.05,13.05,0,0,0-.47,1.82,11.72,11.72,0,0,0-.17,2.09V348a8.55,8.55,0,0,0,.17,1.88,4.93,4.93,0,0,0,.47,1.29,2.38,2.38,0,0,0,.64.79,1.74,1.74,0,0,0,.72.36l-.22.8a2,2,0,0,1-.62-.1,2.18,2.18,0,0,1-.65-.32,2.66,2.66,0,0,1-.6-.57,3.2,3.2,0,0,1-.51-.85,5.76,5.76,0,0,1-.36-1.17,7.55,7.55,0,0,1-.13-1.5Z"/><path class="cls-7" d="M174.35,346.05a.58.58,0,0,1-.11-.25,2.94,2.94,0,0,1-.05-.35,4.49,4.49,0,0,1-.37.52,5.27,5.27,0,0,1-.44.52,4.6,4.6,0,0,1-.52.47,4.13,4.13,0,0,1-.59.41,3.34,3.34,0,0,1-.91.38,1.34,1.34,0,0,1-.69,0,.75.75,0,0,1-.44-.34,1.25,1.25,0,0,1-.15-.65,2.66,2.66,0,0,1,.2-1,4.1,4.1,0,0,1,.59-1,6.66,6.66,0,0,1,.92-.92A10.08,10.08,0,0,1,173,343l1.18-.68v-.5a.83.83,0,0,0-.1-.45.52.52,0,0,0-.3-.22,1.09,1.09,0,0,0-.47,0,2.4,2.4,0,0,0-.63.28,3.54,3.54,0,0,0-.58.41,3.1,3.1,0,0,0-.43.47,2.48,2.48,0,0,0-.27.47,1.31,1.31,0,0,0-.1.44l-1.09.63a2.55,2.55,0,0,1,.18-.78,4.49,4.49,0,0,1,.5-.89,6.39,6.39,0,0,1,.79-.89,6,6,0,0,1,1.06-.77,4.51,4.51,0,0,1,1-.45,1.63,1.63,0,0,1,.8-.06.83.83,0,0,1,.53.36,1.44,1.44,0,0,1,.2.82v2.95a3.35,3.35,0,0,0,.05.63,1.94,1.94,0,0,0,.17.53v.09Zm-1.92.28a3.51,3.51,0,0,0,.59-.42,4,4,0,0,0,.5-.51,3.79,3.79,0,0,0,.39-.53,3.08,3.08,0,0,0,.26-.51v-1.28l-1,.58a5.89,5.89,0,0,0-1.47,1.13,1.8,1.8,0,0,0-.53,1.19.87.87,0,0,0,.08.39.42.42,0,0,0,.24.21.74.74,0,0,0,.39,0A2.29,2.29,0,0,0,172.43,346.33Z"/><path class="cls-7" d="M177.18,341.2a5.62,5.62,0,0,1,.18-1.41,5.16,5.16,0,0,1,.51-1.32,5.26,5.26,0,0,1,.8-1.13,4.36,4.36,0,0,1,1-.84,2.84,2.84,0,0,1,1-.39,1.16,1.16,0,0,1,.73.13V333l1.09-.63v9l-1,.58-.05-.65a4.49,4.49,0,0,1-1.78,1.82,2.29,2.29,0,0,1-1,.35,1.17,1.17,0,0,1-.79-.22,1.5,1.5,0,0,1-.51-.73,3.33,3.33,0,0,1-.18-1.16Zm1.08-.51a2.88,2.88,0,0,0,.1.82,1.21,1.21,0,0,0,.31.56.69.69,0,0,0,.53.19A1.55,1.55,0,0,0,180,342a2.62,2.62,0,0,0,.5-.35,3.16,3.16,0,0,0,.4-.42,3.06,3.06,0,0,0,.33-.47q.13-.25.24-.51V337.3a.84.84,0,0,0-.57-.3,1.55,1.55,0,0,0-.89.26,3.26,3.26,0,0,0-.78.64,3.53,3.53,0,0,0-.53.81,4.38,4.38,0,0,0-.41,1.86Z"/><path class="cls-7" d="M184.38,337a5.68,5.68,0,0,1,.18-1.41,6.22,6.22,0,0,1,.51-1.32,5.52,5.52,0,0,1,.8-1.13,4.22,4.22,0,0,1,1-.84,2.58,2.58,0,0,1,1-.38,1,1,0,0,1,.73.13V328.8l1.09-.63v9l-1,.58,0-.64a4.55,4.55,0,0,1-1.78,1.81,2.25,2.25,0,0,1-1,.35,1.12,1.12,0,0,1-.79-.22,1.5,1.5,0,0,1-.51-.73,3.33,3.33,0,0,1-.18-1.16Zm1.08-.5a3.41,3.41,0,0,0,.1.82,1.17,1.17,0,0,0,.31.55.74.74,0,0,0,.53.2,1.58,1.58,0,0,0,.77-.27,2.62,2.62,0,0,0,.5-.35,2.93,2.93,0,0,0,.73-.89,4.74,4.74,0,0,0,.24-.51v-2.94a.81.81,0,0,0-.56-.31,1.52,1.52,0,0,0-.89.26,3.12,3.12,0,0,0-.79.64,3.71,3.71,0,0,0-.53.82,4.25,4.25,0,0,0-.31.91,5.09,5.09,0,0,0-.1.94Z"/><path class="cls-7" d="M195.94,327.13l.32-.18.31-.15.27-.11.21-.05-.14,1.14c-.22.08-.41.16-.6.25s-.39.19-.6.31a4,4,0,0,0-1.23,1.06,4.09,4.09,0,0,0-.7,1.36v4.07l-1.09.63v-6.34l1-.6.06,1a6.68,6.68,0,0,1,.93-1.36A5,5,0,0,1,195.94,327.13Z"/></g></g></svg>