<svg id="Layer_1" data-name="Layer 1" xmlns="http://www.w3.org/2000/svg" xmlns:xlink="http://www.w3.org/1999/xlink" viewBox="0 0 1860 1160"><defs><style>.cls-1{fill:none;}.cls-2{clip-path:url(#clip-path);}.cls-3{clip-path:url(#clip-path-2);}.cls-4{fill:#d6d6d6;}.cls-5{fill:#d9d9d9;}.cls-6{fill:#fff;}</style><clipPath id="clip-path"><rect class="cls-1" x="26.09" y="464.3" width="1807.82" height="231.39"/></clipPath><clipPath id="clip-path-2"><rect class="cls-1" x="26.09" y="464.3" width="1807.82" height="231.39"/></clipPath></defs><title>art11-amberdata</title><g id="Amberdata"><g class="cls-2"><g class="cls-3"><path class="cls-4" d="M26.09,648.69c1.52-2.34,1.55-5.17,2.5-7.72,10.57-28.28,47.06-35.73,67.72-13.73a105.54,105.54,0,0,1,7.87,9.42c11.69,15.72,40.93,14.46,52.18,2,3.95-4.38,8-8.63,12.21-12.82a40.7,40.7,0,0,1,61.54,4.38c2,2.69,4.2,5.28,6.48,7.76,5.39,5.85,12.17,8.67,20.08,9.39,13.94,1.26,25.6-2.69,34.61-13.79a80.55,80.55,0,0,1,9.05-9.33C313,613,327.57,610,343.25,616.33s24.13,18.67,25.38,35.54c1.2,16.15-8.32,31.66-23.31,38.78A40.45,40.45,0,0,1,300.9,684a125,125,0,0,1-9.6-9.8c-15.12-17.29-45.3-17-60.06,3-7.88,10.71-18.23,16.89-31.6,17.79-.25,0-.49.41-.73.63h-4.34c-.23-.23-.45-.64-.7-.67-12.05-1.2-21.61-6.87-29.25-16.09-1.38-1.66-3.09-3.05-4.52-4.68-14.45-16.46-43.9-15.94-57.88,1.76-1.42,1.8-2.93,3.52-4.42,5.25A39.88,39.88,0,0,1,79.47,693.6c-2.35.76-4.73,1.4-7.1,2.1H60.08c-.87-1.23-2.33-1-3.52-1.34C42.21,690.3,32.73,681.15,28,667.09c-.83-2.45-1.26-5-1.88-7.55Z"/><path class="cls-5" d="M201.8,464.3c3.2.94,6.48,1.66,9.58,2.84a40.59,40.59,0,1,1-24.73-1.57c1.19-.31,2.69,0,3.58-1.27Z"/><path class="cls-6" d="M612.23,561.92c21-20.09,44.93-23.14,71-14.48,9,3,16.2,8.89,21.62,16.75,1.17,1.69,1.65,2.48,3.48.4,12-13.7,27.63-20.09,45.47-21.37,12.66-.91,25,.51,36.47,6.57,15.2,8.06,23.13,21.23,26.11,37.75a101.11,101.11,0,0,1,1.51,18q-.06,38.67,0,77.35c0,2.65-.42,3.72-3.44,3.64-8.92-.23-17.84-.18-26.75,0-2.56,0-3.18-.69-3.17-3.2.1-24.21,0-48.43.08-72.65,0-6.42-.47-12.76-2.53-18.89-4.06-12.06-13.43-19.08-26.18-19.69-23.86-1.12-39.61,13.88-40,38.67-.32,23.73-.22,47.47,0,71.2,0,3.94-1.18,4.69-4.77,4.58-8.43-.26-16.87-.21-25.3,0-2.76.06-3.35-.73-3.34-3.39.11-24.22.06-48.44.07-72.65a58.34,58.34,0,0,0-2.51-18.53c-4-12.24-13.51-19.33-26.41-19.87-23.82-1-39.21,13.25-39.67,37.62-.46,24.09-.25,48.19-.12,72.28,0,3.56-.69,4.71-4.46,4.57-8.66-.32-17.35-.17-26-.06-2.1,0-2.89-.38-2.89-2.73q.12-68.31,0-136.63c0-2.07.61-2.61,2.63-2.59,8.79.11,17.59.14,26.38,0,2.46,0,2.72,1,2.67,3-.11,4.68,0,9.35,0,14.44"/><path class="cls-6" d="M870.73,668.19c0,6-.09,10.95,0,15.87.05,1.93-.6,2.42-2.46,2.41q-13.38-.13-26.74,0c-1.84,0-2.73-.49-2.5-2.43a17.46,17.46,0,0,0,0-2.17q0-94,0-187.94c0-5.14-.62-4.52,4.69-4.54,8.19,0,16.39.13,24.57-.08,3-.07,4.06.54,4,3.87-.18,21.32-.09,42.65-.09,64v3.48a.88.88,0,0,0,1.35-.12c14.31-14.44,32.06-19,51.62-17.16,27.36,2.57,47.81,15.76,58.68,41.48,11.38,27,7.27,64.44-17.05,85.91-15.71,13.87-34.41,18.73-54.9,17.36-15.94-1.07-29.92-6.75-41.27-19.9m1.37-52.78a51.55,51.55,0,0,0,0,5.42c1.79,16.73,9.42,29.76,25.54,35.87,16.37,6.2,32.07,4.35,45.39-8,10.51-9.71,13.45-22.4,12.91-36.17-1.2-30.63-27.31-47.63-55.4-39.34-17.89,5.28-28.61,21.48-28.46,42.18"/><path class="cls-6" d="M1385.51,562.06v-4.31c0-21.69,0-43.38-.06-65.06,0-2.69.62-3.44,3.35-3.38,8.92.18,17.84.15,26.75,0,2.42,0,3.27.48,3.26,3.11q-.11,95.43,0,190.86c0,2.5-.59,3.25-3.16,3.2-8.67-.17-17.35-.14-26,0-2.26,0-2.87-.62-2.79-2.83.17-4.78.05-9.57.05-14.59-.56.2-1,.21-1.13.41-13.7,15.24-31.44,19.77-51,18.71-18.45-1-34.75-7.53-47.59-21.21-14.13-15.06-19.48-33.35-19-53.66.53-22.38,8-41.89,26.26-55.38,23.72-17.51,49.66-20,76.62-7.5,5.4,2.5,9.8,6.53,14.47,11.63m-42.17,97.8c19.19.28,34.85-10.8,40.44-28.77a51.23,51.23,0,0,0,1.76-22.85c-2.47-16.69-10.78-29.24-27.16-34.59-16.78-5.48-32.48-2.86-45.21,10.27-9.38,9.68-12.05,21.82-11.55,35,.89,23.63,18.14,40.64,41.72,41"/><path class="cls-6" d="M1098.78,626.22c-17.35,0-34.7.09-52-.07-3.25,0-3.79.77-2.93,3.8,4.49,15.9,18.53,27.46,36,29.6,17.33,2.11,33.07-1.15,46.18-13.43,1.18-1.1,1.82-1,2.84.16,4.94,5.76,9.88,11.52,15,17.15,1.51,1.68.8,2.61-.37,3.87a59.92,59.92,0,0,1-30.4,17.81c-25.44,6.2-50.17,4.66-72.54-10-22.94-15.07-31.9-37.51-30.54-64.27,1.18-23.11,10.9-41.94,30.17-55.24,29.1-20.1,73-15.87,96.12,9.34,15.28,16.7,19.82,36.91,18.28,58.94-.18,2.58-1.59,2.4-3.34,2.4q-26.2,0-52.41,0M1082.68,604c12.4,0,24.81-.09,37.21.06,2.92,0,3.35-.69,2.74-3.44-4.37-19.36-19.66-31.28-40.06-31-20,.25-35.19,12.45-39.27,31.23-.57,2.6-.19,3.26,2.52,3.23,12.29-.14,24.57-.06,36.86-.06"/><path class="cls-6" d="M1539.07,669.74c-13.57,16.68-31.32,19.28-50.18,18.39-10.86-.52-21.15-3.34-30.16-9.73-13.38-9.48-18.72-22.64-16.7-38.64,1.91-15.1,10.76-25.12,24.62-30.82,11.36-4.68,23.39-5.31,35.48-5.31,10.73,0,21.45-.06,32.18,0,2.32,0,3.06-.57,3-3-.23-16.34-9.84-27.32-26.06-29.32-18.38-2.26-35.45,1.29-50.7,12.11-1.67,1.18-2.08.63-2.83-.79-3.49-6.59-7-13.19-10.67-19.66-1.24-2.16-.57-3.07,1.2-4.27,10.75-7.28,22.68-11.53,35.37-13.75,15.81-2.76,31.64-3.09,47.3,1,23.26,6.15,37.11,23.09,39,47.14,1,12.16.46,24.33.54,36.49.12,17.72,0,35.43.11,53.14,0,3.08-.86,3.79-3.81,3.72-8.31-.21-16.63-.15-24.94,0-2.25,0-2.91-.68-2.83-2.87.15-4.31,0-8.63,0-13.87m-22.32-44.16v.11c-6,0-12,0-18.06,0a46.52,46.52,0,0,0-5.38.57c-12.94,1.62-19.51,8.39-18.9,19.67.44,8.07,5.3,12.86,12.37,15.76,6.54,2.69,13.45,2.9,20.28,2.06,12.74-1.56,23.17-7,29.08-19.12a9.71,9.71,0,0,0,1.19-4.47c-.08-4-.18-8,0-11.92.12-2.36-.8-2.78-2.9-2.73-5.9.12-11.8,0-17.71,0"/><path class="cls-6" d="M1802.53,669.61c-13.59,16.88-31.56,19.5-50.69,18.47-12.15-.65-23.48-4.08-32.94-12.12A39.44,39.44,0,0,1,1730,608.91c11.3-4.49,23.15-5.27,35.12-5.28,10.84,0,21.68-.07,32.52,0,2.37,0,3-.62,3-3-.11-15.88-9.11-26.84-24.92-29.16-18.57-2.72-35.93.85-51.48,11.7-1.88,1.31-2.41.9-3.32-.85-3.39-6.51-6.81-13-10.48-19.35-1.25-2.17-.59-3.06,1.15-4.24,10.74-7.31,22.67-11.56,35.35-13.77,16.42-2.85,32.83-3.22,49,1.52,21.9,6.41,35,22.44,37.21,45.1a150.11,150.11,0,0,1,.69,15.14c0,25.42-.06,50.84.07,76.25,0,2.93-.86,3.55-3.6,3.49q-12.09-.27-24.21,0c-2.69,0-3.85-.47-3.64-3.48.29-4.17.07-8.38.07-13.4m-22.53-44v0c-5.42,0-10.84-.1-16.25,0a42.67,42.67,0,0,0-15.19,2.76c-5,2.06-8.77,5.37-10.23,10.84-2.61,9.76,1.83,18.44,11.54,22.39,6.66,2.7,13.65,2.89,20.62,2.14,9.23-1,17.48-4.41,23.87-11.42,4.07-4.46,7-9.41,6.28-15.88a43,43,0,0,1,0-7.94c.16-2.3-.49-3.11-2.94-3-5.89.19-11.8.06-17.7.06"/><path class="cls-6" d="M527.94,669.41c-10.11,13.5-23.72,17.75-38.74,18.73-14.72,1-28.91-1-41.4-9.61-12.8-8.84-18.51-21.29-17.19-36.68,1.38-16.07,10.2-26.88,24.94-32.93,11.25-4.63,23.16-5.28,35.13-5.29,10.73,0,21.45-.07,32.18,0,2.5,0,3.27-.64,3.19-3.24-.57-18.32-11.25-28.75-31.2-29.7-16.43-.78-31.81,2.82-45.35,12.61-1.49,1.07-2.05,1-2.9-.62-3.57-6.81-7.2-13.6-11-20.31-1.18-2.09.11-2.71,1.4-3.6a85.09,85.09,0,0,1,31.8-13.11c17.81-3.65,35.65-4.29,53.26,1,21.24,6.39,32.92,21.06,36.24,42.75a96.7,96.7,0,0,1,.93,14.41c0,26.4,0,52.79.07,79.18,0,2.61-.5,3.52-3.32,3.45-8.43-.2-16.87-.15-25.3,0-2.22,0-2.91-.55-2.82-2.81.18-4.43.06-8.88.06-14.26m-22.36-43.83v0c-5.42,0-10.84-.09-16.25,0a41.82,41.82,0,0,0-15.52,2.85c-5.55,2.34-9.36,6.18-10.35,12.39-1.51,9.49,2.68,17,11.77,20.7,6.64,2.74,13.64,3,20.6,2.19,12.62-1.49,22.93-6.89,29-18.72a9.69,9.69,0,0,0,1.28-4.46c-.05-4.21-.1-8.42,0-12.63,0-1.9-.59-2.47-2.47-2.44-6,.11-12,0-18.05,0"/><path class="cls-6" d="M265.76,618.55c-17.14-.16-27.37-5.87-35.85-15.45-6.42-7.26-13.3-14-23.36-16.08-16.52-3.36-30.53.67-41.11,14.28-9.34,12-21.21,18.37-36.72,17.81-18.83-.69-36.1-17.66-37.73-36.46-2-22.71,14.24-41.51,34.21-44.2,16.5-2.22,29.7,3.72,39.7,16.93,5.64,7.45,12,14.11,21.77,15.48,13.5,1.91,26.23.69,36.06-10.52a155.19,155.19,0,0,1,11.64-11.87c11.71-10.78,25.41-13.92,40.47-9s24.52,15.83,27.23,31.37c4.64,26.63-16.28,48.28-36.31,47.68"/><path class="cls-6" d="M1683.82,655.46c2.82,7.19,5.51,14.37,8.47,21.44.82,2-.16,2.58-1.38,3.41a45.58,45.58,0,0,1-18.37,7,66.58,66.58,0,0,1-30-1.41c-18-5.16-29.08-19.27-29.91-38.53-1-23.48-.21-47-.42-70.46,0-5.46.62-4.71-4.86-4.74-5.3,0-10.6-.09-15.9,0-2,0-2.73-.47-2.69-2.59.12-7.11.15-14.22,0-21.32,0-2.37.85-2.8,2.94-2.76,5.9.11,11.8,0,17.7.09,2.21.05,2.91-.6,2.88-2.84-.12-8.8,0-17.59-.11-26.38,0-2.59.79-3.22,3.27-3.18,8.91.14,17.83.18,26.74,0,2.82-.06,3.38.86,3.33,3.47-.16,8.43,0,16.86-.12,25.29,0,2.76.61,3.73,3.55,3.68,10.48-.18,21,0,31.44-.13,2.58,0,3.22.76,3.16,3.24-.17,6.62-.19,13.25,0,19.87.08,2.72-.51,3.68-3.47,3.62-10.36-.2-20.72,0-31.08-.15-2.9-.05-3.61.83-3.6,3.64.12,20.84,0,41.68.09,62.52a41.38,41.38,0,0,0,.68,8.26c2.24,10.76,11.08,16,23.48,14.19a26,26,0,0,0,7.32-1.83c2.27-1.06,4.49-2.22,6.91-3.43"/><path class="cls-6" d="M1207.69,565.11c12.28-17,29.24-21.55,48-22.09,2.09-.06,2.61.61,2.58,2.62-.1,8.67-.15,17.34,0,26,.06,2.7-1,2.8-3.15,2.57a45.6,45.6,0,0,0-23.36,3c-14.13,6.06-20.59,17.64-21.91,32.25-1.49,16.45-.4,33-.61,49.47q-.15,12.1,0,24.21c0,2.39-.41,3.35-3.09,3.29q-13.55-.25-27.09,0c-2.65,0-3.14-.89-3.13-3.3q.09-67.76,0-135.49c0-2.54.68-3.24,3.2-3.19q12.83.22,25.65,0c2.52,0,3,.85,2.89,3.07-.14,5.52,0,11,0,17.54"/></g></g></g></svg>