<svg xmlns="http://www.w3.org/2000/svg" viewBox="0 0 610.4 184.73"><defs><style>.cls-1{fill:#848484;}.cls-2{fill:#c6c6c6;}.cls-3{fill:#afafaf;}.cls-4{fill:#727476;}.cls-5{fill:#dbdbdb;}</style></defs><g id="Layer_2" data-name="Layer 2"><g id="Layer_1-2" data-name="Layer 1"><path class="cls-1" d="M538.55,96.07l0-1.94c0-.82.32-1.83-.05-2.43-5.65-9.18-4.62-19.48-5-29.53C533,58.66,532,55.09,535,52.1c.84,0,1.79,0,2.16-.85a35.13,35.13,0,0,1,10-13.27c.76-.63,1.73-1.75.5-3-4.81-5.62-3.34-11.28-.09-16.94l0-1,0,.09c2.07-1.7,4.43-5.07,6.76-3.62,4.19,2.59,9.22,2.57,13.2,5.31a10.82,10.82,0,0,1,4.3,13c-.64,1.88-1.4,3.71-2,5.58-2.14,6.35-5.86,8.58-12.71,7.67-.85-.11-2-.49-2.4.94l-2.48,0c-.79,0-2-1.1-1.75,1a33.87,33.87,0,0,0,6.5,15.82c5.09,7.1,10.1,15,20.49,15.5a37,37,0,0,0,12.37-1.84c-1.27,4.63-5.34,2.42-8.57,4.44,7.28-.42,9.54,3.72,11.52,8.91,1.57,4.13,1.65,9.15,5.81,12.08a3.36,3.36,0,0,1,2,3.74c-2.58,4.19.8,7.4,2.37,10.39,4.09,7.78,4,15.89,3.57,24.2-.07,1.37-.7,1.68-1.86,1.53-.87-5.6-5.78-10.53-2.36-16.89,1-1.88-.33-4.25-1.53-6.08-5.42-8.22-12.78-15.11-16.49-25.1-2.44,6-3.21,11.46-6.6,16.19s-5.95,10-9.66,14.47a71.05,71.05,0,0,1-13.17,12c-.67-1.1-.36-2.25-.21-3.4,4.5-2.45,4.28-7.8,7-11.36,2.65,1.11,4.28.15,5.58-2.34,3.69-7.07,4.53-14.79,5.48-22.5.28-2.35-.73-3-2.9-2.26-8.23,2.66-16.78,3-25.32,3.4C542.56,97.06,541,95.14,538.55,96.07ZM555.63,69c.17,3.26,2.56,4.61,4.62,5.8,4.62,2.67,5.21,5.11.51,8.16-.1.07.07.55.17,1.31,3.32-.29,4.94-4.06,8.54-4.52Zm-4.78,12.4c-3.4-6.09-5.68-11.16.19-16,.83-.68-.31-1.8-.89-2.53s-1.31-.46-2,.21C544.41,66.84,545.51,77.78,550.85,81.39Z"/><path class="cls-2" d="M241.14,176.29c-11.75-1-23.8-4.55-32.77-15-3.44-4-5.72-8.61-5.38-14.11.22-3.49,1.74-5.71,5.67-5.23a12.73,12.73,0,0,0,5.9-.75c1.29-.46,3.4.17,3.58-1.89a5.09,5.09,0,0,0-2.26-4.69c-5.37-4-6.14-7.59-2.15-12.94,5.9-7.91,12.81-14.6,23.56-15a4.75,4.75,0,0,0,4.05-2.35,58.54,58.54,0,0,1,4.33-5.48c1.84-2.06,4.14-3.24,6.47-.94,2.07,2.05,2.64,4.62.59,7.16-.9,1.12-2.37,1.79-1.86,3.72,2.27,8.48-2.57,13.95-8.42,18.73-4.17,3.41-9.16,5.37-14.38,6.74-1.57.42-3.79.09-3.49,3.08.24,2.33.86,3.44,3.38,3.92,9.84,1.88,16.88,8.35,23.51,15.21,3.81,3.95,6.82,8.68,4.12,14.39C253,176.25,247.62,176.09,241.14,176.29Zm.21-6.57c2.56,0,4.78,0,6.14-2.14a3,3,0,0,0-.43-3.72c-6.73-8-14.22-14.92-25-16.93-3-.57-6.25-.45-7.87,2.74-1.52,3,.44,5.48,2.22,7.64C223,165.24,232,168.14,241.35,169.72ZM224,128.22c4.66-.11,12.41-4.26,15.35-8.28,1.17-1.59,2.66-3.28,1.38-5.37-1.39-2.27-3.69-1.89-5.8-1.27-6,1.77-10,6.3-13.84,10.86a2.49,2.49,0,0,0-.57,2.76C221.19,128.39,222.64,128.17,224,128.22Z"/><path class="cls-2" d="M489,118.12c0-5.82.14-11.65-.05-17.46-.1-3.15.78-4.46,4.18-4.33,6.48.24,13,0,19.46.09,10.76.22,15.62,5,15.86,15.58a130.33,130.33,0,0,1-.3,15.44c-.76,7.81-4.8,11.79-12.6,12.2s-15.63.06-23.45.23c-3,.07-3.12-1.61-3.11-3.8C489,130.09,489,124.1,489,118.12Zm11.66,0c0,2.33.15,4.66,0,7-.26,3.12.72,4.36,4.12,4.41,10.72.16,11.59-.54,11.57-11.4a67.25,67.25,0,0,0-.2-7,4.41,4.41,0,0,0-3.54-4.24c-9.12-2.31-11.92-.31-11.92,8.73Z"/><path class="cls-2" d="M484.27,117.79c.94,15.16-.95,22.88-21.93,22.41-13.37-.3-18.12-4.86-18.12-18,0-4.16-.1-8.32,0-12.48.23-6.46,3.46-10.84,9.57-12.46a40.21,40.21,0,0,1,21.22.1c5.61,1.54,8.77,5.72,9.17,11.73C484.44,112.21,484.27,115.38,484.27,117.79Zm-11.91.51h-.22a62.28,62.28,0,0,0,0-7c-.63-5.45-4.92-5-8.74-5-3.62,0-6.78.87-6.88,5.37-.09,4.32-.06,8.65,0,13a4.74,4.74,0,0,0,3.53,4.86c8,2.55,12.27-.47,12.32-8.71Z"/><path class="cls-2" d="M39.65,113.37c-.95,7.63-5.28,15-11.51,21.28A38.74,38.74,0,0,1,7.31,145.77c-4.71.86-8.16-1.65-7.12-5.69C4.35,123.93,2,107.21,4.89,91c.76-4.26,1.56-8.5,3.57-12.42,1.83-3.56,4.66-4.78,8.29-3.37,3.9,1.52,2.51,4.85,1.5,7.26-4.07,9.78-4.9,20.3-7.37,30.44-.23.93-.89,2.46.67,3s2-.85,2.73-1.7c3.59-4.19,7.3-8.27,12.5-10.51C33.91,100.6,39.78,104.42,39.65,113.37ZM14.3,136.2a7,7,0,0,0,1.85-.52,42.12,42.12,0,0,0,16.39-18.84,3.1,3.1,0,0,0-.82-4.06,4.09,4.09,0,0,0-4.71,0c-7.41,4.4-12.4,10.88-15.59,18.77C10.42,134.05,11.47,135.75,14.3,136.2Z"/><path class="cls-2" d="M172.87,104.9a38,38,0,0,0,13-5.68,25.31,25.31,0,0,1,7.94-4.1c2.28-.58,4.43-.3,5.66,1.92s-.1,3.77-1.61,5.24c-2.57,2.5-5.76,3.91-9,5.15-4,1.54-8.18,2.82-12.14,4.54-5.57,2.43-5.89,4.7-1.32,8.55a41.52,41.52,0,0,0,12.95,7.33c1.41.51,2.89.83,3.92,2,1.38,1.65,2.09,3.56,1.13,5.53-1.13,2.32-3.33,2-5.24,1.27a67.74,67.74,0,0,1-19.48-11.92c-3.45-2.92-4.57-1.68-5.4,1.82-1.1,4.67-2.13,9.37-3.35,14-.55,2.06-1.26,4.59-4.05,4.2s-2.48-3.08-2.56-5.19a43.28,43.28,0,0,1,2.15-13.74,178.85,178.85,0,0,1,15.4-37.2c1.33-2.39,2.7-6.13,6.69-3.74,3.75,2.23,2.85,5.5,1.17,8.7C177,97,175.22,100.38,172.87,104.9Z"/><path class="cls-3" d="M416.08,4.31c3.94-4.56,9.14-5.59,13.5-2.67,4.93,3.3,7.11,8,3.59,11.42-4.31,4.15-2.53,6.7-.67,10.7,1.38,3-.07,6.65-1.71,9.53-1.21,2.12-1.4,3.14.5,5.1,9.89,10.2,11.9,23,11.31,36.53l-.24,5.47c-.91.66-1.94,1.25-1.52,2.66.32,5.94-3.79,9.89-6.51,14.45-9.27,4.44-18.44,2.5-27.59-.44,1.13-2.56,3.14-1,4.7-.86,3.47.31,6.9,1.06,10.38,1.36,8,.67,13.3-2,15.46-9.57,5.11-17.79,5.56-35-9.47-49.1-1.73-1.63-2.75-3.16-.3-5.62,3.83-3.86,3.32-8.23.49-12.94A11.35,11.35,0,0,0,416.62,15c-5.46.73-11.48,2-14.37,8.63-3.12,7.21.92,12.59,4,17.68,1.57,2.55,5.31,7,10.41,3.54,1.9-1.3,4.29-2.74,6.4-.79s.81,4.65,0,6.94A55,55,0,0,1,406.64,75c-7,6-19.27,4.44-24-3.29A31.52,31.52,0,0,0,380.58,69l.08.11A9.4,9.4,0,0,0,377.58,64l.07.1c-1.07-3.19-1.32-3.52-3.11-4l.07.1c1.31-1.48-.46-2.26-.82-3.32-.71-2.07.23-2.26,1.86-1.93,3.52,6,7.05,12,10.53,18.09.69,1.21,1.45,2.26,2.93,2.41,6.46.69,12.62,1.16,18.09-4,6.52-6.12,10.62-13.54,13.91-21.59.5-1.22,1.18-2.74,0-3.72-1-.84-2.12.35-3.17.74-6.84,2.55-13.11-.35-15.5-7.13-.6-1.72-1.29-3.42-2-5.11-4-9.67,1.1-19.24,11.39-21.2,2.27-.43,4.43-.47,3.91-3.66l3.08-2.41c-.29,4.5-.24,4.44,5.37,6.63,2.22.86,4.38.93,6.05-.53A5.18,5.18,0,0,0,431.48,7c-1.55-2.89-3.82-5.16-7.7-4.45C421.18,3.05,418.87,4.73,416.08,4.31Z"/><path class="cls-2" d="M538.55,96.07c2.47-.93,4,1,5.87,1.93.45,1.13,1.48,1.09,2.44,1.23,6.43.92,12.62-.47,18.81-1.87a19.36,19.36,0,0,0-.1,3.48c.58,4-.84,5.76-5.12,5.3-3.29-.35-6.65,0-10-.1-2.84-.11-4.7.23-4.72,3.9s2,4,4.75,3.81c3-.26,5,.12,5,4.09s-2.07,4.38-5,4c-3.32-.37-4.73.71-4.71,4.36s1.74,4.17,4.64,3.92c1.32-.11,2.66-.06,4-.09-.08.64-.17,1.28-.25,1.92a8,8,0,0,0-.75,7.58c-5.13.08-10.26.08-15.38.28-2.75.11-3.83-.86-3.81-3.7.11-12.08.18-24.17,0-36.25C534.08,96.32,536.33,96.47,538.55,96.07Z"/><path class="cls-2" d="M60.85,133c-.09-9,17.21-28.15,26.24-29a6.88,6.88,0,0,1,7.07,9.89c-1.31,2.77-4,3.84-6.09,1.92-3.2-2.95-5.73-1.59-8.49,0a20.7,20.7,0,0,0-7.42,7.28c-.75,1.26-1.8,2.75-.31,4,1.26,1.09,2.55,0,3.57-.76,2.13-1.6,4.18-3.3,6.22-5,3.29-2.76,6.37-2.47,9.2.63a33.31,33.31,0,0,1,3.77,4.63c2.26,3.59,5.13,5.94,9.57,6.33,1.76.16,4.74.12,4.31,2.91s-2.9,4-5.68,3.8a11,11,0,0,1-4.21-1.43,46,46,0,0,1-5.43-3.54c-9.29-6.79-10.33-8.39-19.86.43a10.92,10.92,0,0,1-6.13,3.16C63.47,138.69,60.88,136.53,60.85,133Z"/><path class="cls-2" d="M121.72,140c-10,.07-13.15-4.43-9.11-11.17,7.23-12.05,18.24-19.54,31.55-23.72a10.08,10.08,0,0,1,3-.18,4,4,0,0,1,4.24,3.46c.36,2.24-1.74,2.54-3.28,3-8,2.29-14.81,6.74-21.12,11.95-2.48,2-6.2,4.57-4.38,8.07,2,3.72,6,1.58,9,.57,3.78-1.26,7.38-3,11.06-4.54,1.37-.56,3-1.53,4.06.06,1.24,1.88-.46,3.21-1.79,4C137.19,136.32,128.78,139.27,121.72,140Z"/><path class="cls-2" d="M44.52,127.29a224.32,224.32,0,0,1,8-42.76c1-3.51,2.27-7,5.19-9.51,2-1.72,4.5-2.55,6.93-1.15s1.56,3.81,1.09,5.88c-1,4.41-3.11,8.41-5,12.49C55.78,103,51.16,113.87,51,126c0,3.37-.35,6.72,4.72,7,2.66.13,2.09,2,.62,3.46a6.88,6.88,0,0,1-11.46-3.36A35.86,35.86,0,0,1,44.52,127.29Z"/><path class="cls-2" d="M330.52,150.88c-1.76-.23-3.65-.1-4.15-2.19-.55-2.29.94-3.47,2.84-4,3.85-1,7.77-1.79,11.63-2.75,1.91-.47,4.22-.73,4.76-3s-1.22-4.08-2.88-5.42a34.94,34.94,0,0,0-5.14-3c-4.27-2.34-5.38-6.26-3-10.48,3.69-6.42,17.87-12.16,25.17-10.24,2.51.66,4.29,2,4.38,4.73s-2.2,3.51-4.32,4c-4,1-8.13,1.71-12.13,2.79-2.09.56-4.31,1.63-4.71,4s1.89,3.29,3.47,4.41c10.43,7.41,10.14,10.79-1.41,16.57A45.63,45.63,0,0,1,330.52,150.88Z"/><path class="cls-2" d="M315.85,127c1.42-14.15,3.74-29.24,8.43-43.87,1.07-3.34,2.36-6.64,5.44-8.71,1.89-1.28,4.09-1.8,6.13-.59s1.65,3.37,1.22,5.37c-.92,4.27-2.82,8.15-4.61,12.09-5.08,11.21-10.25,22.39-10.06,35.12,0,3.29-.21,6.31,4.58,6.52,2.62.11,2.09,2,.66,3.47a6.91,6.91,0,0,1-11.15-2.39C315.73,132.13,315.84,130.13,315.85,127Z"/><path class="cls-2" d="M289.59,111.22c3.46-2.25,6.17-4.13,9-5.79a11.93,11.93,0,0,1,7.67-1.6c3.15.4,5.48,2.32,5.84,5.28.39,3.23-2.88,3.23-5,3.61a35.8,35.8,0,0,0-13.68,5.66c-4.55,3-7,7.3-8.68,12.34-.82,2.48-1.71,6.51-5.24,5.34s-1.77-4.86-.94-7.38c2.22-6.69,3.76-13.35,2.2-20.48-.72-3.29-.12-6.78,4.08-7.14,4.66-.4,4.39,3.51,4.72,6.6C289.67,108.62,289.59,109.61,289.59,111.22Z"/><path class="cls-2" d="M406.74,97.06c9.15,2.94,18.32,4.88,27.59.44,5.42,2.22,6.16,6.89,6.18,11.91a2.34,2.34,0,0,1-1.23,2.46c-2.81,1.39-9.47-.46-11.5-3.15-2.45-3.26-5.95-2.28-9.17-1.93-2.83.3-3.78,2.41-3.94,4.94s-.27,5.3-.4,8c-5.86.75-6.06-4.45-8.12-7.7-.12-4.62-2.86-9-1.33-13.77Z"/><path class="cls-3" d="M598.51,102c-4.16-2.93-4.24-8-5.81-12.08-2-5.19-4.24-9.33-11.52-8.91,3.23-2,7.3.19,8.57-4.44a37,37,0,0,1-12.37,1.84C567,77.89,562,70,556.89,62.93a33.87,33.87,0,0,1-6.5-15.82c-.23-2.14,1-1.06,1.75-1,2,12.31,8.82,21.86,18.67,28.84,6.7,4.74,15.53,1.69,19.82-5.4,2.92-4.81,5.94-9.57,8.91-14.35,1.76.4,2.35-.48,2.29-2.07.21-2.87,2-4,4.37-2.86,2.78,1.26.18,2.81-.44,3.88C601.48,61.59,597,69,592.6,76.38c-1.67,2.79-2.09,5.07-.3,8.47C595.1,90.19,597.58,95.89,598.51,102Zm-8-26.47c-.13-.12-.26-.33-.35-.32a3.08,3.08,0,0,0-.66.32c.11.11.24.33.32.31A3.49,3.49,0,0,0,590.56,75.55Z"/><path class="cls-2" d="M251.88,131.53c1.46-9.66,4-19.47,9.09-28.4,1.7-2.94,4.2-5.19,7.76-2.81,3.23,2.16,3.32,5.67,1.26,8.38a53.16,53.16,0,0,0-10.38,24.51c-.37,2.43-1.26,5.31-4.61,4.78S252.15,134.43,251.88,131.53Z"/><path class="cls-1" d="M540.46,16.9c.12,1.23.13,2.42-1,3.25-4,1.63-3.74,6.07-5.92,8.9-1.38,2.25-4,3.46-5,6.08l.06-.06c-2.68-.56-3.67,4.78-7,2,1.66-2.49,1.42-5.36,1.62-8.15,1-8.55,4.44-15.89,11-21.52,4.83-4.13,11-4.59,15.6-1.43,1.34.92,3.39,2.1,2.62,3.7s-3,1.82-4.79.67a3.62,3.62,0,0,0-3.25-2c-3.78-.16-5.08,2.58-6,5.56C537.86,15.71,537.61,17.39,540.46,16.9Z"/><path class="cls-3" d="M370.3,144a29.17,29.17,0,0,1-2.59,1.36c-3.41,1.37-4.76.68-3.26-3.16a7.46,7.46,0,0,0,.64-3.9c-2.25-10.7,2.28-19.83,6.44-29.09,3.92-8.72,6.42-18,10.78-26.54,1.29-2.53-.26-4.47-1.39-6.4-5-8.57-10.12-17.08-15.63-26.34h7.1c-.1,2.27-1.93,2.17-4.27,2.09,3.54,2.36,3.8,6.12,6.49,8.09l-.07-.1c1,3.12,1.34,3.53,3.11,4l-.07-.1c-.27,2.48.55,4.31,3.08,5.11l-.08-.11c1.2,6,3.7,10.78,10.92,11.64-5.66.32-8.1,3.67-9.6,8.34-2.32,7.22-5.56,14.11-8.4,21.13-3.9,9.63-7.68,18.92-6.22,29.68.38,2.8,1.09,3.35,3.36,3.28l-.06-.07Z"/><path class="cls-3" d="M547.7,10.35c1.81,1.15,4,1,4.79-.67S551.21,6.9,549.87,6c-4.61-3.16-10.77-2.7-15.6,1.43-6.58,5.63-10,13-11,21.52l-1.35.13c-.56-9.46,7.21-22.33,15.6-25.84,7-2.94,14.35-.43,17.69,6.4a8.58,8.58,0,0,0,6.27,5c11.79,2.94,15.6,10.28,11,21.66-1.22,3-1.8,6.13-5.35,8.69-4.64,3.36-8.09,3.37-12.5,1.13.36-1.43,1.55-1,2.4-.94,6.85.91,10.57-1.32,12.71-7.67.64-1.87,1.4-3.7,2-5.58a10.82,10.82,0,0,0-4.3-13c-4-2.74-9-2.72-13.2-5.31-2.33-1.45-4.69,1.92-6.76,3.62-1.47-1.45.74-3.18-.36-4.66C547.33,11.77,547.51,11.06,547.7,10.35Z"/><path class="cls-3" d="M553.37,139.58a8,8,0,0,1,.75-7.58c.17.35.33.71.49,1.06-.15,1.15-.46,2.3.21,3.4a71.05,71.05,0,0,0,13.17-12c3.71-4.51,6.3-9.77,9.66-14.47s4.16-10.24,6.6-16.19c3.71,10,11.07,16.88,16.49,25.1,1.2,1.83,2.54,4.2,1.53,6.08-3.42,6.36,1.49,11.29,2.36,16.89-.09.46-.19.92-.29,1.37-2.68-2.27-6.42-12.73-5-15.44,2.24-4.2.43-7.32-1.88-10.49-4.18-5.76-9.42-10.74-12.76-18.37-5.1,11.86-10.8,22.31-19.08,31.1-2.81,3.53-8.13,4.66-9.34,9.73C555.23,141.07,554.3,140.4,553.37,139.58Z"/><path class="cls-2" d="M420.19,129.9c3.81-.17,7,0,8.77-5.18,1.19-3.47,6.55-1.42,10-1.29,2.71.11,1.68,2.78,1.61,4.43-.3,7.15-4.28,11.39-11.44,12-2.64.23-5.32,0-8,0C422.94,136.32,423,133,420.19,129.9Z"/><path class="cls-3" d="M402.67,124.46c-4.39-7.31-9.24-14.37-12.47-22.34-.25-.33-.44-.86-.76-1-.63-.18-.72.36-.69.87-3.33,5.59-7.71,10.4-11.64,15.54-2.31,3-3.85,6.17-1.74,10.09a4.67,4.67,0,0,1,.2,3.84c-2.06,3.53-2.52,7.54-3.95,11.24l-1,.23.06.07a16.75,16.75,0,0,1,2.13-10.82,4.4,4.4,0,0,0,0-4.71c-1.89-3.39-.79-6.51,1.17-9.35,5.42-7.86,12.35-14.67,16-24.18,1.85,3.74,2,7.18,3.63,10.36,4.56,9.11,10.65,17.18,16.28,25.57C405.93,130.07,405.4,125.84,402.67,124.46Z"/><path class="cls-2" d="M278.63,90.19c0,5.22-2.46,8.12-6.71,8s-7-4.39-6.89-10.49c.06-4.11,2.54-6.8,6.26-6.82C275.72,80.84,278.65,84.57,278.63,90.19Z"/><path class="cls-1" d="M329.13,172.34c-1.89-.06-4.3,1.15-5.34-1.29s.47-4.52,2.29-6.1a13.24,13.24,0,0,1,4.14-2.69c1.65-.58,3.73-1.25,5.25,0s.82,3.42.35,5.15c-1.32,4.84-3,9.54-6.13,13.56a8.68,8.68,0,0,1-7.75,3.74c-.87-.06-1.83-.3-2-1.2s.75-1.34,1.64-1.43c5.28-.5,6.84-4.62,8.45-8.68l.21-1.18Zm-2.5-2.6c2.86-.53,4.66-1.55,5.53-3.71.31-.79-.54-1.24-1.18-1.13C328.6,165.29,327.36,166.88,326.63,169.74Z"/><path class="cls-1" d="M407.08,163.34c.82.33,1,.47,1.12.44,2.61-.45,6-2.7,7.46.73,1.36,3.25-2,5.18-4.44,6.87a14.26,14.26,0,0,1-4.06,1.8c-2.05.63-4.5,1.45-6.12-.22-1.79-1.84.52-3.62,1.15-5.35,1.62-4.52,3.43-9,6.49-12.76.85-1,1.91-3,3.51-1.68,1.35,1.11-.32,2.34-1,3.34C409.67,158.65,408,160.65,407.08,163.34Zm5.56,2.92c-4-.87-5.56,1.33-7.5,4.64C408.72,170.26,410.93,169.05,412.64,166.26Z"/><path class="cls-1" d="M474.67,156.61a64,64,0,0,0-5,15.76c-.19,1-1.58,1.37-1.8.64-1.42-4.63-3.46-1.34-5.32-.58s-4,1.57-5.44-.49-.5-3.91,1-5.39a20.19,20.19,0,0,1,4.69-3.64c3.51-1.76,8.06-2,8.93-7.12a1.37,1.37,0,0,1,2-.83C474.2,155.23,474.35,156,474.67,156.61ZM460,170.2c4.46-1,5.57-1.83,7.21-5.66C462.38,165.58,461.58,166.2,460,170.2Z"/><path class="cls-1" d="M416.08,4.31c2.79.42,5.1-1.26,7.7-1.74,3.88-.71,6.15,1.56,7.7,4.45a5.18,5.18,0,0,1-1.18,6.4c-1.67,1.46-3.83,1.39-6.05.53-5.61-2.19-5.66-2.13-5.37-6.63L415.8,9.73C415.65,7.91,415.15,6.07,416.08,4.31Z"/><path class="cls-1" d="M293,166c-2.81.93-4.32,3.48-6.52,5.15-.93.71-2,1.48-3.17.81s-.91-2.09-.53-3.16a54.72,54.72,0,0,1,2.37-5.45c.36-.74,1.38-1.62,1.95-1.15,4.13,3.41,9-.24,13.35,1.56,1.05.43,2.38.3,2.75,1.59a5.65,5.65,0,0,1-2,6.67c-.45-4.89-1.85-6.58-4.93-2.05a1.49,1.49,0,0,1-2.13.62C292.39,169.46,294.24,167.38,293,166Z"/><path class="cls-3" d="M420.19,129.9c2.77,3.08,2.75,6.42.95,9.94-1.33,1.73-2.66,3.07-3.93-.05-.18-2.15-1.63-3.34-3.21-4.55-1.11-.85-3.25-1.19-2.35-3.47,3.37.17,5.11,3.17,7.75,4.63a2.68,2.68,0,0,0,0-3.36,21.32,21.32,0,0,1-5.29-9.37c-.17-.55-.82-1.4-1.24-1.39-7.09.15-6.83-5.77-8.47-10.11l1.8-.19c2.06,3.25,2.26,8.45,8.12,7.7C417.44,122.4,416.55,127.46,420.19,129.9Z"/><path class="cls-1" d="M372.46,169.78l3.89.58c-1.75,2.45-4.05,2.57-6.35,2.41-3.61-.25-4.89-2.74-2.93-5.88a13,13,0,0,1,7.94-5.63c1.5-.41,3.11-.23,3.9,1.36s-.36,2.57-1.36,3.41C376.05,167.29,374.39,168.37,372.46,169.78Zm-1,.58c-.09-.09-.17-.26-.27-.26s-.2.14-.3.22c.09.09.18.25.28.26S371.33,170.43,371.42,170.36Z"/><path class="cls-1" d="M566.27,171.82c-4.89.58-5.67-1.74-4.78-5.31.48-1.91,1.65-4-2-3.53a1,1,0,0,1-1.14-1.22c.16-.56.74-1.38,1.18-1.41,4.69-.32,7.24-3.43,9.56-7a1.67,1.67,0,0,1,2.2-.65c1.18.74.54,1.66,0,2.51-.78,1.16-1.79,1.91-.18,3.66,1.39,1.5-1,1.67-2,2.12C564.71,163,563.52,167.11,566.27,171.82Z"/><path class="cls-4" d="M604.34,143.25c.1-.45.2-.91.29-1.37,1.16.15,1.79-.16,1.86-1.53.44-8.31.52-16.42-3.57-24.2-1.57-3-4.95-6.2-2.37-10.39,5,10.19,10.66,20.18,8.46,32.29-.29,1.55.27,3.26.44,4.9l-1.07,0-4,.1Z"/><path class="cls-1" d="M557.5,172c-1.82,1.56-3.12,1-4.17.22-2.48-1.84-4.74-1.86-7.24,0-1.19.91-2.94,1.34-4.07-.09-1-1.22,0-2.57.66-3.68a14.76,14.76,0,0,1,7.19-6c2.46-1,4.85.53,3.54,2.54-2.54,3.88.24,4.28,2.38,5.51A17.1,17.1,0,0,1,557.5,172Z"/><path class="cls-1" d="M534.91,170.85c-1,2-4.09,1.19-6,1.86s-2.43-2.13-2.16-4c.47-3.19,6.28-7.69,9.6-7.59a3,3,0,0,1,2.91,1.53c.51,1.23-.52,2.08-1.09,3.08C537.22,167.31,534.23,167.29,534.91,170.85Z"/><path class="cls-1" d="M587,163.9c-.4.57-.77,1.76-1.53,2.1-3.42,1.55-4.1,6.31-8.14,6.92-2.23.34-2.75-1.52-2.9-3.19-.34-3.77,6.83-9.49,10.55-8.49C586.2,161.56,587.19,162.09,587,163.9Z"/><path class="cls-2" d="M411.65,131.77c-.9,2.28,1.24,2.62,2.35,3.47,1.58,1.21,3,2.4,3.21,4.55-10.55-.13-14.85-4.65-14.54-15.33,2.73,1.38,3.26,5.61,7.16,5.46h-.15c-.35,1,0,1.34,1,1h0c-.34,1,0,1.34,1,1Z"/><path class="cls-1" d="M364.08,169.21c-.05,1.17.37,2.59-1.22,2.89-1,.19-1.25-.83-1.59-1.6-2.07-4.58-3.18-4.72-7-1.11-1.11,1-2,3.52-3.82,2.17-1.6-1.19.31-3,.68-4.52a20,20,0,0,1,1.39-3.74c.26-.54.89-.9,1.35-1.34,1.81,4.18,6.35.69,8.79,3.15C363.8,166.29,363.8,167.81,364.08,169.21Z"/><path class="cls-1" d="M509.18,163c-3.15,2.12-6.29,2.63-8.31,4.94-.63.72-1.72,1.34-.93,2.44.56.77,1.53.29,2.34.22,1.57-.14,2.8-1.88,4.94-.88-2.71,3.18-6.19,3.74-9.83,3.69a2.15,2.15,0,0,1-2.28-2.62C495.51,167.19,504.13,161.94,509.18,163Z"/><path class="cls-1" d="M446.94,168.13a44.91,44.91,0,0,1,4-13.76c.54-1.17,1.23-2.83,2.8-2.16,1.76.76.55,2.24.09,3.38-1.31,3.21-3.13,6.23-3.72,9.7-.21,1.29-.18,2.62-.32,3.93-.12,1.15,3.05,2.48.17,3.3-2.36.68-3-1.37-3-3.4Z"/><path class="cls-1" d="M525,163c-5,1.82-8.71,4.14-11.17,8-.55.86-1.43,1.58-2.49.92-.79-.48-.67-1.46-.4-2.26.79-2.34,1.65-4.67,2.47-7,.29-.83,1.38-1.86,1.6-1.55C517.59,164.72,521.19,160.65,525,163Z"/><path class="cls-2" d="M556.3,139.78c1.21-5.07,6.53-6.2,9.34-9.73C567.3,140,567.3,140,556.3,139.78Z"/><path class="cls-3" d="M533.52,62.17c.39,10-.64,20.35,5,29.53.37.6.05,1.61.05,2.43C532.37,84.19,529.17,73.78,533.52,62.17Z"/><path class="cls-3" d="M547.62,35c1.23,1.21.26,2.33-.5,3a35.13,35.13,0,0,0-10,13.27c-.37.85-1.32.85-2.16.85a32.4,32.4,0,0,1,9.65-14.56c.91-.79,1.22-1.41.82-2.46Z"/><path class="cls-1" d="M271.94,169.7a22.81,22.81,0,0,1,3.21-8.2c.57-.84,1.36-1.57,2.44-.81a1.68,1.68,0,0,1,.49,2.56,18.53,18.53,0,0,0-3.38,7c-.19,1-.48,2.29-1.57,2.18C271.6,172.31,271.94,170.81,271.94,169.7Z"/><path class="cls-1" d="M340.38,172.67c-1.59-4.51.3-8.15,2.6-11.66a1.4,1.4,0,0,1,2.16-.29,1.54,1.54,0,0,1,.52,2.17C343.37,165.84,342.46,169.52,340.38,172.67Z"/><path class="cls-1" d="M436.48,169.62a23.55,23.55,0,0,1,3-7.79c.64-1,1.45-2.06,2.78-1a1.83,1.83,0,0,1,.22,2.68,20.25,20.25,0,0,0-3.38,7.16c-.21.89-.57,2.22-1.9,1.71C436.08,171.92,436.46,170.67,436.48,169.62Z"/><path class="cls-4" d="M547.62,35l-2.15.06c-4.92-5-4.63-11.37.84-18.19l1.22,1.19C544.28,23.74,542.81,29.4,547.62,35Z"/><path class="cls-4" d="M547.7,10.35c-.19.71-.37,1.42-.55,2.12-4.62-2.6-5.64-1.93-6.69,4.43-2.85.49-2.6-1.19-2-3,.94-3,2.24-5.72,6-5.56A3.62,3.62,0,0,1,547.7,10.35Z"/><path class="cls-1" d="M374.61,60.13c-2.69-2-2.95-5.73-6.49-8.09,2.34.08,4.17.18,4.27-2.09a9.5,9.5,0,0,1,3.26,4.93c-1.63-.33-2.57-.14-1.86,1.93C374.15,57.87,375.92,58.65,374.61,60.13Z"/><path class="cls-3" d="M521.63,37.08c3.31,2.77,4.3-2.57,7-2-1.3,4.33-5.31,5.85-8.76,6.2-2.61.26-1.75-2.58-.29-4.2Z"/><path class="cls-4" d="M521.63,37.08h-2.07c-.63-3.08.68-5.59,2.34-8l1.35-.13C523.05,31.72,523.29,34.59,521.63,37.08Z"/><path class="cls-4" d="M533.51,29.05c2.18-2.83,1.94-7.27,5.92-8.9a17,17,0,0,1-4.68,10.12Z"/><path class="cls-3" d="M533.51,29.05l1.24,1.22c-1.92,1.82-2.65,5.13-6.2,4.86C529.48,32.51,532.13,31.3,533.51,29.05Z"/><path class="cls-1" d="M608.38,143l1.07,0c.81.67,1.37,1.48.54,2.41s-1.7.48-2.44-.3Z"/><path class="cls-3" d="M608.38,143l-.83,2.08c-1.22-.37-2.86-.1-3.14-2Z"/><path class="cls-3" d="M440.84,83.05c-.42-1.41.61-2,1.52-2.66C442.59,81.7,442.27,82.69,440.84,83.05Z"/><path class="cls-1" d="M601.83,53.09c.06,1.59-.53,2.47-2.29,2.07A2,2,0,0,1,601.83,53.09Z"/><path class="cls-1" d="M388.75,102c0-.51.06-1.05.69-.87.32.09.51.62.76,1Z"/><path class="cls-3" d="M547.53,18.08l-1.22-1.19c.49-.53.9-.47,1.25.15Z"/><path class="cls-1" d="M370.58,143l1-.23L370.3,144C370.39,143.68,370.49,143.33,370.58,143Z"/><path class="cls-3" d="M565.67,97.36c-6.19,1.4-12.38,2.79-18.81,1.87-1-.14-2-.1-2.44-1.23,8.54-.43,17.09-.74,25.32-3.4,2.17-.71,3.18-.09,2.9,2.26-.95,7.71-1.79,15.43-5.48,22.5-1.3,2.49-2.93,3.45-5.58,2.34l.08-.41c3.55-1.36,5.18-4.25,6-7.71.94-4,1.73-8,2.69-12C571.4,97.21,569.81,95.91,565.67,97.36Z"/><path class="cls-3" d="M555.63,69l13.84,10.75c-3.6.46-5.22,4.23-8.54,4.52-.1-.76-.27-1.24-.17-1.31,4.7-3,4.11-5.49-.51-8.16C558.19,73.6,555.8,72.25,555.63,69Z"/><path class="cls-3" d="M550.85,81.39c-5.34-3.61-6.44-14.55-2.69-18.3.68-.67,1.3-1.07,2-.21s1.72,1.85.89,2.53C545.17,70.23,547.45,75.3,550.85,81.39Z"/><path class="cls-4" d="M561.66,121.29l-.08.41c-2.69,3.56-2.47,8.91-7,11.36-.16-.35-.32-.71-.49-1.06.08-.64.17-1.28.25-1.92C557.56,127.78,556.78,122.2,561.66,121.29Z"/><path class="cls-1" d="M404.35,112.17c1.64,4.34,1.38,10.26,8.47,10.11.42,0,1.07.84,1.24,1.39a21.32,21.32,0,0,0,5.29,9.37,2.68,2.68,0,0,1,0,3.36c-2.64-1.46-4.38-4.46-7.75-4.63l0,.14c.07-.74-.26-1.07-1-1h0c.07-.74-.26-1.07-1-1h.15c-5.63-8.39-11.72-16.46-16.28-25.57-1.59-3.18-1.78-6.62-3.63-10.36-3.62,9.51-10.55,16.32-16,24.18-2,2.84-3.06,6-1.17,9.35a4.4,4.4,0,0,1,0,4.71,16.75,16.75,0,0,0-2.13,10.82c-2.27.07-3-.48-3.36-3.28-1.46-10.76,2.32-20.05,6.22-29.68,2.84-7,6.08-13.91,8.4-21.13,1.5-4.67,3.94-8,9.6-8.34-7.22-.86-9.72-5.66-10.92-11.64a31.52,31.52,0,0,1,2.07,2.69c4.72,7.73,17,9.29,24,3.29A55,55,0,0,0,423.11,51c.8-2.29,2.2-4.89,0-6.94s-4.5-.51-6.4.79c-5.1,3.5-8.84-1-10.41-3.54-3.12-5.09-7.16-10.47-4-17.68,2.89-6.68,8.91-7.9,14.37-8.63A11.35,11.35,0,0,1,428,20.33c2.83,4.71,3.34,9.08-.49,12.94-2.45,2.46-1.43,4,.3,5.62,15,14.09,14.58,31.31,9.47,49.1-2.16,7.54-7.48,10.24-15.46,9.57-3.48-.3-6.91-1-10.38-1.36-1.56-.14-3.57-1.7-4.7.86l-1.92,1.15c-.33-1.23.76-3.28-1.84-3.18-2.3.1-1.48,1.9-1.39,3C402,102.8,402.55,107.61,404.35,112.17Zm-.43-31.76a41.19,41.19,0,0,1,6.8,2.85c3.34,1.49,7.66,3.64,11.26,1.41,6.07-3.76,8.08-13.82,4.78-20.43-.9-1.82-2-3-3.35-.43-1.72,3.22-4.78,5-7.48,7.18C412.24,74,408.47,76.85,403.92,80.41Z"/><path class="cls-1" d="M380.66,69.09c-2.53-.8-3.35-2.63-3.08-5.11A9.4,9.4,0,0,1,380.66,69.09Z"/><path class="cls-1" d="M377.65,64.08c-1.77-.52-2.08-.93-3.11-4C376.33,60.56,376.58,60.89,377.65,64.08Z"/><path class="cls-5" d="M404.35,112.17c-1.8-4.56-2.32-9.37-2.76-14.18-.09-1.06-.91-2.86,1.39-3,2.6-.1,1.51,2,1.84,3.18-1.53,4.78,1.21,9.15,1.33,13.77Z"/><path class="cls-1" d="M590.56,75.55a3.49,3.49,0,0,1-.69.31c-.08,0-.21-.2-.32-.31a3.08,3.08,0,0,1,.66-.32C590.3,75.22,590.43,75.43,590.56,75.55Z"/><path class="cls-1" d="M433.15,165.29c.11-1.2.13-2.45-1.17-3s-2.17.37-3.13,1.05c-2,1.39-3.29,3.72-5.86,4.24-1.25-1.19-.23-2.25-.08-3.32s-.43-2.19-1.63-1.73c-2.07.79-2.64,2.9-3.18,4.8s-.56,3.72,1.36,4.87c1.66,1,3.22.45,4.62-.65s3-2.5,4.72-3.89c1.81,1.63.59,5.05,2.89,4.7,2.54-.39.89-3.32,1.32-5.08A13.13,13.13,0,0,0,433.15,165.29Z"/><path class="cls-1" d="M320,170.49c-1.31-1-4.39-1.05-2.83-3.92.81-1.49,1.41-2.72-.07-3.89s-2.87-.45-4.17.32a15,15,0,0,0-5.56,4.81c-.83,1.35-2.41,2.81-1.07,4.4s3.15.74,4.48-.26a4.73,4.73,0,0,1,6.32,0,13.08,13.08,0,0,0,2.47,1.18c.9,0,1.63.05,1.76-.83S320.65,171,320,170.49Zm-7.67-3-.84.31-.37-.33a5.08,5.08,0,0,1,.86-.28c.07,0,.17.1.26.21l.09.09Z"/><path class="cls-3" d="M409.68,129.91c.74-.07,1.07.26,1,1C409.67,131.25,409.33,130.92,409.68,129.91Z"/><path class="cls-3" d="M410.68,130.91c.74-.07,1.07.26,1,1C410.67,132.25,410.34,131.92,410.68,130.91Z"/><path class="cls-3" d="M403.92,80.41c4.55-3.56,8.32-6.45,12-9.42,2.7-2.16,5.76-4,7.48-7.18,1.38-2.56,2.45-1.39,3.35.43,3.3,6.61,1.29,16.67-4.78,20.43-3.6,2.23-7.92.08-11.26-1.41A41.19,41.19,0,0,0,403.92,80.41ZM424.69,67,410.35,78.41c2.77,3.36,8,5.43,10.33,4.23C425,80.43,426.71,74.13,424.69,67Z"/><path class="cls-1" d="M424.69,67c2,7.11.33,13.41-4,15.62-2.35,1.2-7.56-.87-10.33-4.23Z"/></g></g></svg>