<svg id="Layer_1" data-name="Layer 1" xmlns="http://www.w3.org/2000/svg" xmlns:xlink="http://www.w3.org/1999/xlink" viewBox="0 0 158.83 80.2"><defs><style>.cls-1{fill:none;}.cls-2{fill:#e03dc1;}.cls-3{clip-path:url(#clip-path);}.cls-4{clip-path:url(#clip-path-2);}.cls-5{fill:url(#radial-gradient);}.cls-6{fill:#fff;}.cls-7{fill:#c94297;}</style><clipPath id="clip-path"><rect class="cls-1" x="28.09" y="-7.5" width="127.48" height="107.85"/></clipPath><clipPath id="clip-path-2"><path class="cls-1" d="M29.7,53c0,.07-1.61,29.45-1.61,29.45.34,9.46,32,17.93,63.74,17.93,32,0,63.75-8.48,63.75-17.93,0,0-1.88-29.2-1.88-29.53,0-32-30-58.1-62-58.1S29.7,21,29.7,53"/></clipPath><radialGradient id="radial-gradient" cx="-181.25" cy="-371.36" r="2.84" gradientTransform="translate(3821.14 7688.32) scale(20.58)" gradientUnits="userSpaceOnUse"><stop offset="0" stop-color="#5f474e"/><stop offset="1" stop-color="#5f474e"/></radialGradient></defs><title>drizzle-1-left</title><rect class="cls-2" width="104.63" height="80.2"/><g id="Layer_2" data-name="Layer 2"><g class="cls-3"><g class="cls-4"><rect class="cls-5" x="28.09" y="-5.22" width="127.48" height="105.57"/></g><g class="cls-3"><path class="cls-6" d="M57.32,58.37A72.19,72.19,0,0,0,56,47.92a74,74,0,0,0-2.72-9.79c-.58-1.56-1.17-3.09-1.83-4.57S49,27.7,48.77,27a20.56,20.56,0,0,0-.94-2.15,46.12,46.12,0,0,0-2.16-4.12l-.1-.18a5.63,5.63,0,0,1,6.57-8.17l.68.2.58.19,1.11.4c.73.26,1.44.54,2.15.82,1.42.57,2.8,1.18,4.17,1.82a84.69,84.69,0,0,1,8,4.28A78.93,78.93,0,0,1,83.16,31.16,67.81,67.81,0,0,1,94.45,45.65a64.24,64.24,0,0,1,6.8,17.14l-10.81-.68.26-.77.28-.92c.19-.63.37-1.27.53-1.92.33-1.3.62-2.62.86-4a64.73,64.73,0,0,0,1.06-8.08,63.33,63.33,0,0,0-1-16.14A57.53,57.53,0,0,0,87.17,15.2,60,60,0,0,0,77.89,2l-.07-.09a5.64,5.64,0,0,1,.34-8,5.59,5.59,0,0,1,4.55-1.43l.52.06.39.06.75.12,1.45.28c1,.2,1.88.41,2.8.68,1.85.47,3.66,1,5.45,1.61A81.1,81.1,0,0,1,122.91,12.5a82.56,82.56,0,0,1,14.22,17.34A95.07,95.07,0,0,1,146.44,50l-10.52-.63.18-.45.21-.62c.15-.43.3-.87.44-1.32a24.16,24.16,0,0,0,.68-2.76c.16-.94.22-1.89.34-2.83s.32-1.86.48-2.8A28.73,28.73,0,0,0,137.86,27a30.34,30.34,0,0,0-2-5.71,35.49,35.49,0,0,0-3.24-5.44,45.87,45.87,0,0,0-4.24-5,60.92,60.92,0,0,0-5-4.52,48.06,48.06,0,0,1,6.25,2.83A40.55,40.55,0,0,1,135.48,13a35.73,35.73,0,0,1,5.26,5A33.3,33.3,0,0,1,145,24.11a36.8,36.8,0,0,1,4.3,14.7,19.45,19.45,0,0,1,0,3.89,33.27,33.27,0,0,1-.74,3.81c-.3,1.25-.6,2.5-1,3.75-.18.62-.39,1.23-.62,1.86l-.35,1-.21.5-.26.6a5.62,5.62,0,0,1-10.47-.46l-.05-.17a84.61,84.61,0,0,0-8.17-17.77,70.87,70.87,0,0,0-12.25-15A69.59,69.59,0,0,0,90.41,6.11c-1.53-.52-3.07-1-4.61-1.36-.76-.2-1.53-.38-2.29-.53L82.39,4l-.53-.13-.42-.06,4.81-9.47A71.85,71.85,0,0,1,97.23,10a69.1,69.1,0,0,1,6.29,18.14,75,75,0,0,1,1.21,19,78.77,78.77,0,0,1-1.17,9.44c-.29,1.56-.63,3.12-1,4.68-.19.77-.4,1.56-.64,2.34l-.36,1.19-.21.61-.25.68a5.63,5.63,0,0,1-10.78-.53l0-.16a53,53,0,0,0-5.63-14.13,56,56,0,0,0-9.41-12A68,68,0,0,0,62.9,29.73,73.63,73.63,0,0,0,56,26.05c-1.18-.55-2.38-1.08-3.57-1.56-.6-.24-1.2-.47-1.79-.68l-.88-.32L49,23.25l6.47-8.35a57.78,57.78,0,0,1,2.72,5.17c.43.88.77,1.78,1.17,2.67s.8,1.76,1.14,2.67c.16.46.31.91.43,1.36a13.1,13.1,0,0,1,.25,1.44c.13,1,.22,1.93.31,2.89.16,1.92.24,3.82.22,5.71a61,61,0,0,1-1.17,11.12,51.19,51.19,0,0,1-1.36,5.32,40.06,40.06,0,0,1-1.85,5.12"/><path class="cls-7" d="M57.32,58.37a65,65,0,0,0,0-10.44A71.64,71.64,0,0,0,55.8,37.72c-.38-1.67-.82-3.31-1.36-4.92S53.3,29.62,52.77,28c-.25-.79-.53-1.58-.83-2.37a23.42,23.42,0,0,0-1-2.3,49.42,49.42,0,0,0-2.32-4.45v-.06a2.2,2.2,0,0,1,.8-3,2.15,2.15,0,0,1,1.75-.19c1.51.46,2.81,1,4.18,1.5s2.68,1.12,4,1.74A82.45,82.45,0,0,1,67,23,75.76,75.76,0,0,1,80.73,33.64,64,64,0,0,1,91.45,47.38,61,61,0,0,1,97.91,63.6l-4.2-.26c.2-.57.43-1.28.62-1.94s.39-1.36.57-2c.35-1.37.68-2.77.91-4.18a71.45,71.45,0,0,0,1-8.5,66.93,66.93,0,0,0-1.08-17A61,61,0,0,0,90.22,13.6,64.33,64.33,0,0,0,80.45-.33a2.18,2.18,0,0,1,.16-3.1A2.18,2.18,0,0,1,82.35-4c1,.13,1.87.29,2.77.47s1.78.39,2.65.62c1.76.44,3.48,1,5.19,1.53a77.65,77.65,0,0,1,27.6,16.41,78.72,78.72,0,0,1,13.61,16.6,91.89,91.89,0,0,1,9,19.42L139,50.82c.16-.37.37-.9.54-1.36s.34-1,.49-1.49a29.77,29.77,0,0,0,.77-3.06c.38-2,.6-4.16.79-6.26a30.77,30.77,0,0,0-1.58-12.52A33.7,33.7,0,0,0,133.46,15,49.74,49.74,0,0,0,123.33,6.4a48.49,48.49,0,0,1,11.25,7.49,33.79,33.79,0,0,1,11.34,24.82,26.43,26.43,0,0,1-.14,3.56c-.13,1.18-.36,2.35-.6,3.51s-.54,2.3-.89,3.44c-.18.57-.36,1.13-.56,1.7s-.4,1.09-.68,1.75a2.21,2.21,0,0,1-4.09-.2v0a87.12,87.12,0,0,0-8.57-18.48,74.07,74.07,0,0,0-12.85-15.65,72.86,72.86,0,0,0-26-15.49c-1.61-.54-3.23-1-4.86-1.45C85.85,1.15,85,1,84.21.79S82.54.47,81.82.37L83.7-3.31A68.61,68.61,0,0,1,94.12,11.6a65.25,65.25,0,0,1,6,17.22A70.65,70.65,0,0,1,101.26,47a71.9,71.9,0,0,1-1.11,9c-.28,1.49-.6,3-1,4.45-.18.75-.39,1.48-.6,2.22s-.44,1.44-.74,2.26A2.2,2.2,0,0,1,95,66.21a2.23,2.23,0,0,1-1.38-1.54v0a56.73,56.73,0,0,0-6-15,59.38,59.38,0,0,0-10-12.81,71.25,71.25,0,0,0-12.93-10,79.7,79.7,0,0,0-7.23-3.88c-1.24-.58-2.49-1.13-3.75-1.64-.64-.25-1.27-.5-1.91-.73s-1.29-.46-1.86-.63l2.51-3.24a60.16,60.16,0,0,1,4.63,9.89,31.24,31.24,0,0,1,1.28,5.3c.32,1.78.54,3.58.68,5.37a61.79,61.79,0,0,1,0,10.71c-.13,1.76-.34,3.53-.64,5.27a45.53,45.53,0,0,1-1.1,5.16"/></g></g></g></svg>