<svg id="Layer_1" data-name="Layer 1" xmlns="http://www.w3.org/2000/svg" xmlns:xlink="http://www.w3.org/1999/xlink" viewBox="0 0 158.83 80.2"><defs><style>.cls-1{fill:none;}.cls-2{fill:#63c4b6;}.cls-3{clip-path:url(#clip-path);}.cls-4{clip-path:url(#clip-path-2);}.cls-5{fill:#5f474e;}.cls-6{fill:#fff;}.cls-7{fill:#63c4b7;}.cls-8{fill:#241f20;}.cls-9{fill:#faaf40;}</style><clipPath id="clip-path"><rect class="cls-1" x="38.92" y="-15.79" width="118.03" height="123.05"/></clipPath><clipPath id="clip-path-2"><rect class="cls-1" x="58.3" y="10.07" width="98.64" height="97.19"/></clipPath></defs><title>truffleu-1-left</title><rect class="cls-2" width="81.6" height="80.2"/><g id="Artwork_22" data-name="Artwork 22"><g class="cls-3"><g class="cls-4"><path class="cls-5" d="M107.38,10.07c26.53,0,48,21.76,48,48.6s-21.5,48.59-48,48.59-48-21.76-48-48.59,21.5-48.6,48-48.6"/><path class="cls-6" d="M92.28,101.76c2,.67,8.56,2.81,8.84.71.15-1.14-3.31-2.33-8-4.83A75.56,75.56,0,0,1,74.86,84.2,41.84,41.84,0,0,1,62.35,55.15C62,40.45,67.73,28.56,77.16,20.9A48.43,48.43,0,0,0,58.32,58.07,45.32,45.32,0,0,0,66.6,85.83a31.42,31.42,0,0,0,6,5.94c5.34,4,13.17,7.79,19.65,10"/><path class="cls-6" d="M156.3,47.48c-3-14-12.22-23.82-24.62-30.74,9.47,6.74,22.8,21.07,14.94,33.72-6.66,10.13-22.86,8.15-31.71,3.35-10.5-5.72-23.7-18.57-10.7-31.13,8.41-8.13,35.22,1,30.49,13.13-2.76,7.07-13.46,5.5-18.27,2-3.55-2.55-6.54-6.93-5-11.46.49-1.46.43-3.7-1.61-2a8.1,8.1,0,0,0-2.57,5.17c-2.24,15.84,26,28.11,34.35,12.79,4.35-8-2.7-19.49-11.56-24.23-6.67-3.57-13.6-6.08-22.09-5.47C94.41,13.59,83,22.08,81.6,36s7.79,26.21,18.65,33.64c11.41,7.82,26.77,12.94,40.81,8.31,12.59-4.18,17.79-18.63,15.26-30.42"/><path class="cls-7" d="M138.36,36.8c1.35-9.08-6.84-15.31-14.44-18.14-8.93-3.34-20.73-1.88-27.24,5.52-4.77,5.44-4.45,13.33-2,19.71,3.71,9.64,12.09,16.61,21.84,19.62,6.94,2.14,15.31,3.07,22.34.82,10.24-3.3,13.57-14,11.46-23.77a28.93,28.93,0,0,0-2.07-6.13c-1.3-2.71-5.26-8.21.2-1.51A23.24,23.24,0,0,1,150,35.25a26.17,26.17,0,0,1,2.66,5.91c3,9.13.64,19.79-7.63,25.3-6.36,4.22-14.39,4.73-21.73,3.67A41.05,41.05,0,0,1,97.75,56.29c-5.89-7-9.91-17-7.49-26.18C92,23.41,97.48,18.41,104,16.29a30.69,30.69,0,0,1,24.75,2.91,22.07,22.07,0,0,1,9,9.09A13.63,13.63,0,0,1,139.12,34a12.6,12.6,0,0,1-.19,2.38c-.05.29-.66,1.09-.57.43"/></g><g class="cls-3"><path class="cls-8" d="M89.72,31.55C92.5,19,107,10,107,10L97-1.46,80.76,12.4,57.61,18.68l4.1,15.65s18.86-6.95,28-2.78"/><polygon class="cls-8" points="113.64 -15.79 67.57 -9.4 38.92 27.38 85.38 21.57 113.64 -15.79"/><path class="cls-9" d="M60.79,30.23a4.5,4.5,0,0,1,.63-1.49l-.35-3.61,13-17.83a2.92,2.92,0,0,1,.65-2.15c.79-.8,1.55-1.19,3.47-.89a1.56,1.56,0,0,1,.95,1.84c.07,1.35-2.48,2.28-2.48,2.28L63.89,25.9l.21,2.2a2.46,2.46,0,0,1,2,1.28,4.72,4.72,0,0,1,.19,3.6c-.4.66,2.72,6.68,2.72,6.68s2.77,7.24.86,10.75c-.74,1.35-2.72,5.37-5.43,6.39-1.55.59-4.19-2.23-4.8-3.46C58,50,61.67,54,62.21,47c.3-3.81-1.16-5.47-1.42-7.62a29.65,29.65,0,0,1,0-5.07,32.56,32.56,0,0,1,0-4.12"/></g></g></g></svg>