<svg id="Layer_1" data-name="Layer 1" xmlns="http://www.w3.org/2000/svg" xmlns:xlink="http://www.w3.org/1999/xlink" viewBox="0 0 158.83 80.2"><defs><style>.cls-1{fill:none;}.cls-2{fill:#63c4b6;}.cls-3{clip-path:url(#clip-path);}.cls-4{fill:#5f474e;}.cls-5{fill:#fff;}.cls-6{fill:#63c4b7;}</style><clipPath id="clip-path"><rect class="cls-1" x="24.32" y="-9.36" width="130.86" height="128.93"/></clipPath></defs><title>truffle-1-left</title><rect class="cls-2" width="104.63" height="80.2"/><g id="Artwork_4" data-name="Artwork 4"><g class="cls-3"><g class="cls-3"><path class="cls-4" d="M89.43-9.36c35.19,0,63.72,28.86,63.72,64.46s-28.53,64.47-63.72,64.47S25.71,90.71,25.71,55.1,54.24-9.36,89.43-9.36"/><path class="cls-5" d="M69.39,112.27c2.6.88,11.37,3.73,11.74,1,.2-1.52-4.4-3.09-10.68-6.41A100.41,100.41,0,0,1,46.29,89,55.4,55.4,0,0,1,29.7,50.44C29.16,30.94,36.83,15.17,49.34,5a64.25,64.25,0,0,0-25,49.32,60.15,60.15,0,0,0,11,36.82,41.76,41.76,0,0,0,8,7.87c7.09,5.38,17.47,10.34,26.06,13.27"/><path class="cls-5" d="M154.33,40.26c-4-18.58-16.21-31.59-32.66-40.78,12.56,9,30.24,28,19.82,44.74C132.64,57.66,111.16,55,99.42,48.66,85.49,41.07,68,24,85.22,7.36,96.38-3.42,132,8.66,125.67,24.79c-3.65,9.37-17.85,7.28-24.24,2.7-4.71-3.39-8.67-9.2-6.58-15.2.65-1.94.58-4.91-2.14-2.71a10.76,10.76,0,0,0-3.4,6.85c-3,21,34.44,37.3,45.57,17,5.77-10.55-3.58-25.86-15.33-32.15-8.86-4.73-18-8.06-29.31-7.24-18,1.29-33.15,12.56-35,31S65.56,59.75,80,69.6c15.14,10.38,35.51,17.18,54.15,11,16.69-5.54,23.59-24.71,20.23-40.35"/><path class="cls-6" d="M130.52,26.09c1.79-12-9.07-20.31-19.14-24.06C99.52-2.41,83.86-.46,75.23,9.36,68.9,16.57,69.33,27,72.58,35.49c4.92,12.8,16,22,29,26,9.19,2.84,20.31,4.08,29.63,1.08,13.59-4.37,18-18.54,15.2-31.53A37.28,37.28,0,0,0,143.64,23c-1.72-3.6-7-10.89.27-2A33.74,33.74,0,0,1,146,24a35.2,35.2,0,0,1,3.53,7.84c3.94,12.11.85,26.26-10.13,33.56-8.43,5.61-19.08,6.27-28.82,4.87A54.38,54.38,0,0,1,76.65,52C68.83,42.69,63.5,29.4,66.72,17.22,69.07,8.33,76.29,1.69,84.93-1.11a40.72,40.72,0,0,1,32.84,3.85c4.93,2.88,9.45,6.86,12,12.07a17.89,17.89,0,0,1,1.8,7.53,15.92,15.92,0,0,1-.25,3.16c-.07.38-.87,1.45-.76.57"/></g></g></g></svg>