<?xml version="1.0" encoding="UTF-8"?>
<svg id="Layer_2" data-name="Layer 2" xmlns="http://www.w3.org/2000/svg" viewBox="0 0 534.53 152.92">
  <defs>
    <style>
      .cls-1 {
        fill: #fff;
      }

      .cls-2 {
        fill: #3fe0c5;
      }

      .cls-3 {
        fill: #5e464d;
      }
    </style>
  </defs>
  <g id="Layer_1-2" data-name="Layer 1">
    <g>
      <g>
        <path class="cls-3" d="M77.21,0c41.76,0,75.58,34.24,75.58,76.46s-33.82,76.46-75.58,76.46S1.63,118.7,1.63,76.46,35.47,0,77.21,0"/>
        <path class="cls-1" d="M53.45,144.27c3.08,1.05,13.49,4.43,13.92,1.13,.24-1.81-5.21-3.67-12.66-7.6-10.57-5.57-20.23-12.71-28.67-21.16-12.3-12.07-19.37-28.48-19.68-45.71-.64-23.15,8.47-41.84,23.31-53.9C11.47,31.08,.59,52.57,.03,75.54c-.44,16.76,4.24,30.83,13.03,43.68,2.72,3.52,5.91,6.67,9.47,9.34,8.42,6.38,20.73,12.27,30.92,15.74"/>
        <path class="cls-1" d="M154.2,58.86c-4.69-22.04-19.23-37.47-38.74-48.34,14.9,10.61,35.87,33.16,23.51,53.05-10.49,15.95-35.97,12.83-49.9,5.26-16.52-9.01-37.28-29.23-16.85-48.98,13.25-12.79,55.44,1.54,47.98,20.66-4.33,11.12-21.17,8.65-28.75,3.21-5.58-4.01-10.28-10.91-7.8-18.03,.77-2.31,.68-5.83-2.54-3.22-2.39,1.95-3.62,5.16-4.04,8.12-3.52,24.93,40.85,44.24,54.05,20.13,6.84-12.48-4.24-30.64-18.19-38.12-10.51-5.62-21.4-9.56-34.77-8.6-21.37,1.54-39.32,14.9-41.53,36.74-2.25,21.68,12.26,41.25,29.36,52.93,17.95,12.31,42.12,20.37,64.22,13.08,19.8-6.57,27.99-29.3,24-47.87"/>
        <path class="cls-2" d="M125.96,42.05c2.12-14.28-10.77-24.09-22.71-28.54-14.06-5.26-32.64-2.95-42.87,8.69-7.51,8.55-7,20.97-3.14,31,5.83,15.18,19.03,26.15,34.37,30.9,10.91,3.35,24.09,4.83,35.15,1.28,16.11-5.19,21.37-22.01,18.03-37.4-.72-3.33-1.81-6.57-3.26-9.65-2.04-4.27-8.28-12.9,.32-2.39,.9,1.18,1.73,2.4,2.49,3.67,1.78,2.91,3.18,6.03,4.19,9.29,4.68,14.37,1.01,31.15-12.01,39.82-10,6.64-22.63,7.44-34.19,5.78-15.51-2.22-30.11-9.77-40.25-21.78-9.28-10.99-15.6-26.76-11.78-41.19,2.79-10.56,11.35-18.42,21.61-21.74,12.97-4.2,27.24-2.26,38.95,4.57,5.85,3.42,11.21,8.12,14.18,14.34,1.36,2.78,2.09,5.83,2.14,8.93,.03,1.26-.07,2.51-.29,3.75-.09,.44-1.03,1.72-.9,.67"/>
      </g>
      <g>
        <path class="cls-3" d="M207.64,102.61c-1.94-.24-3.27-.75-4-1.53s-1.05-2.04-.96-3.78c.49-5.96,1.29-11.9,2.39-17.78,1.27-7.05,2.8-13.85,4.58-20.4,.26-1.11,1.01-2.05,2.04-2.54,1.26-.53,2.63-.78,4-.73,2.96,0,4.44,.82,4.43,2.47-.02,.79-.17,1.58-.43,2.33-1.57,5.12-2.83,10.33-3.78,15.59-1.21,6.16-2.11,12.38-2.69,18.64,1.43,.14,3.1,.22,4.95,.22,8.48,0,14.82-2.57,19.01-7.71,4.19-5.14,6.29-12,6.29-20.58,0-5.77-1.65-10.23-4.94-13.38s-7.94-4.72-13.94-4.69c-3.91,0-7.8,.62-11.53,1.82-3.63,1.12-7.09,2.73-10.29,4.78-.59,.43-1.31,.65-2.04,.65-.79,.02-1.53-.38-1.95-1.04-.5-.77-.76-1.67-.73-2.59-.03-.99,.17-1.97,.58-2.87,.47-.84,1.15-1.55,1.96-2.07,3.6-2.39,7.58-4.15,11.78-5.2,4.24-1.15,8.62-1.75,13.02-1.78,5.91,0,11.02,1.03,15.34,3.09,4.16,1.92,7.64,5.07,9.96,9.02,2.33,3.98,3.49,8.78,3.49,14.4,0,7.33-1.45,13.71-4.36,19.16-2.87,5.41-7.3,9.84-12.73,12.69-5.57,3.01-12.21,4.51-19.92,4.51-3.19-.02-6.37-.26-9.52-.71Z"/>
        <path class="cls-3" d="M259.34,100.06c-1.79-2.18-2.69-5.04-2.69-8.58,0-3.84,.91-7.62,2.69-11.02,1.67-3.33,4.14-6.2,7.17-8.36,2.75-2.03,6.07-3.14,9.49-3.16,1.07,0,1.78,.21,2.14,.62,.47,.66,.78,1.42,.91,2.22,1.05-.2,2.12-.3,3.2-.29,2.38,0,3.57,.85,3.57,2.54,0,1.02-.36,3.44-1.09,7.27-1.11,5.57-1.67,9.45-1.67,11.63-.03,.63,.16,1.25,.54,1.74,.35,.43,.88,.68,1.43,.65,.92,0,2.04-.59,3.35-1.78,1.89-1.81,3.66-3.75,5.31-5.78,.47-.62,1.19-1,1.96-1.02,.62,0,1.19,.33,1.49,.87,.4,.73,.59,1.56,.55,2.39,0,1.94-.46,3.44-1.39,4.51-1.85,2.33-3.97,4.43-6.32,6.25-2.23,1.7-4.39,2.55-6.47,2.55-1.61,0-3.17-.58-4.4-1.63-1.4-1.19-2.44-2.73-3.02-4.47-2.52,4.07-5.7,6.11-9.52,6.11-3.02,0-5.42-1.08-7.22-3.26Zm12.87-5.96c1.07-1.49,1.79-3.21,2.11-5.02l2.69-13.38c-2.09,.07-4.09,.88-5.64,2.29-1.81,1.6-3.21,3.6-4.11,5.85-1.02,2.44-1.54,5.06-1.53,7.71,0,1.5,.3,2.62,.91,3.35,.62,.73,1.55,1.14,2.51,1.09,1.07,0,2.08-.63,3.05-1.89Z"/>
        <path class="cls-3" d="M299.51,103.19c-1.33-1.17-2-2.48-2-3.93-.01-1.24,.49-2.42,1.38-3.27,.92-.92,2.28-1.38,4.07-1.38,.74,0,1.48,.07,2.22,.18,.85,.12,1.49,.21,1.91,.25-.04-1.23-.32-2.44-.84-3.56-.52-1.14-1.16-2.23-1.91-3.24-.77-1.04-1.5-1.95-2.18-2.73-1.28,2.5-2.77,4.89-4.47,7.13-1.49,1.9-3.1,3.7-4.84,5.38-.7,.8-1.7,1.27-2.76,1.31-.73,.03-1.44-.28-1.91-.84-.49-.58-.75-1.31-.73-2.07,0-.99,.37-1.94,1.02-2.69l.96-1.17c2.16-2.6,4.17-5.31,6.04-8.12,.82-1.4,1.79-3.28,2.91-5.63,1.12-2.35,2.21-4.79,3.27-7.31,.92-2.13,2.84-3.2,5.73-3.2,.96-.06,1.92,.07,2.83,.37,.49,.17,.81,.64,.8,1.16-.04,.47-.14,.94-.29,1.38-.21,.66-.47,1.3-.8,1.91-.88,1.75-1.31,3.22-1.31,4.43,.04,.85,.3,1.67,.76,2.39,.72,1.15,1.51,2.24,2.39,3.27,1.29,1.65,2.47,3.39,3.53,5.2,.8,1.43,1.21,3.05,1.2,4.69-.01,.68-.06,1.36-.14,2.04,2.37-.92,5.16-3.37,8.36-7.35,.47-.62,1.19-.99,1.96-1.02,.62,0,1.19,.33,1.49,.87,.4,.73,.59,1.56,.54,2.39,.07,1.62-.42,3.21-1.38,4.51-2.42,3.01-4.74,5.06-6.94,6.15-2.21,1.09-4.94,1.68-8.18,1.78-1.92,1.64-4.38,2.52-6.91,2.48-2.52-.01-4.45-.6-5.79-1.76Z"/>
        <path class="cls-3" d="M364.65,87.63c.4,.73,.59,1.56,.55,2.39,0,1.94-.46,3.44-1.38,4.51-2.02,2.38-4.33,4.51-6.87,6.34-2.35,1.65-5.17,2.51-8.04,2.47-2.47,0-4.34-.72-5.6-2.15s-1.9-3.5-1.91-6.21c0-1.36,.34-3.78,1.02-7.27,.64-3.06,.96-5.16,.96-6.33,0-.77-.27-1.16-.8-1.16-.64,0-1.53,.81-2.69,2.43-1.38,2.02-2.55,4.18-3.49,6.44-1.19,2.73-2.14,5.55-2.84,8.43-.92,3.87-3.2,5.81-6.83,5.82-1.43,0-2.39-.52-2.87-1.56s-.69-2.92-.69-5.63c0-1.55,0-2.79,.08-3.71l.07-5.82c.04-7.83,.8-15.65,2.29-23.34,1.53-8.1,3.78-14.89,6.76-20.4,2.98-5.5,6.55-8.25,10.72-8.26,2.18-.03,4.22,1.05,5.42,2.87,1.38,1.91,2.07,4.4,2.07,7.46,0,4.89-1.43,9.97-4.3,15.23-2.87,5.26-7.52,11.4-13.96,18.43-.15,2.52-.22,5.11-.22,7.78,1.59-4.12,3.37-7.48,5.34-10.07,1.97-2.59,3.91-4.45,5.82-5.56,1.91-1.11,3.66-1.67,5.26-1.67,3.15,0,4.73,1.58,4.73,4.73,0,1.89-.53,5.3-1.6,10.25-.92,4.21-1.38,7-1.38,8.36,0,1.94,.7,2.91,2.11,2.91,.96,0,2.12-.59,3.46-1.78,1.91-1.81,3.69-3.74,5.34-5.78,.47-.62,1.19-1,1.96-1.02,.63-.01,1.22,.32,1.51,.88Zm-25.99-42.05c-1.31,3.28-2.34,6.66-3.09,10.11-1.05,4.57-1.87,9.2-2.44,13.86,2.99-3.51,5.49-7.39,7.45-11.56,1.96-4.17,2.95-7.95,2.95-11.35,.05-1.21-.12-2.42-.51-3.56-.34-.82-.83-1.24-1.43-1.24-.89-.01-1.86,1.23-2.93,3.73h0Z"/>
        <path class="cls-3" d="M399.45,81.59c.36,.74,.54,1.56,.51,2.39,.05,.96-.12,1.92-.51,2.8-.33,.65-.91,1.13-1.6,1.34-3.09,1.05-6.33,1.64-9.6,1.74-.96,4.02-2.79,7.27-5.49,9.74-2.7,2.47-5.67,3.71-8.91,3.71-4.89,0-8.46-1.87-10.69-5.6-2.23-3.73-3.35-9.14-3.35-16.21,.07-6.86,.85-13.7,2.33-20.4,1.55-7.34,3.81-13.6,6.8-18.76,2.98-5.16,6.53-7.74,10.65-7.74,2.17-.03,4.2,1.05,5.38,2.87,1.36,1.91,2.04,4.4,2.04,7.46-.01,4.05-.78,8.07-2.26,11.85-1.5,3.93-4,8.05-7.49,12.36,3.09,.16,5.97,1.63,7.93,4.03,2.1,2.59,3.36,5.76,3.63,9.08,2.75-.23,5.47-.72,8.12-1.46,.33-.1,.67-.15,1.02-.14,.64-.01,1.22,.36,1.48,.94Zm-21.3,12.14c1.16-1.27,1.94-3.09,2.33-5.46-1.49-1-2.68-2.38-3.46-4-.8-1.64-1.21-3.44-1.2-5.26,.02-.93,.12-1.85,.29-2.76h-.22c-1.99,0-3.65,.98-4.98,2.94-1.33,1.96-2,4.6-2.01,7.91,0,2.76,.52,4.87,1.56,6.33s2.27,2.18,3.67,2.18c1.55-.02,3.01-.71,4.01-1.89h0Zm-3.38-47.59c-1.14,2.87-2.19,6.78-3.16,11.74-1.03,5.36-1.76,10.77-2.18,16.21,3.19-5.87,5.74-11.04,7.67-15.53,1.93-4.48,2.88-8.47,2.87-11.95,.06-1.22-.12-2.43-.54-3.57-.36-.82-.86-1.24-1.49-1.24-.97,0-2.03,1.44-3.16,4.33h0Z"/>
        <path class="cls-3" d="M432.24,81.59c.36,.74,.53,1.56,.51,2.39,0,2.33-.7,3.71-2.11,4.14-3.1,1.05-6.33,1.64-9.6,1.74-.92,4.07-2.74,7.33-5.45,9.78-2.49,2.36-5.8,3.67-9.23,3.67-2.64,.08-5.24-.66-7.45-2.11-2.05-1.4-3.66-3.33-4.67-5.59-1.08-2.37-1.62-4.95-1.6-7.56-.06-3.4,.66-6.78,2.11-9.85,1.29-2.74,3.3-5.08,5.82-6.76,2.44-1.61,5.3-2.46,8.21-2.43,3.68,0,6.65,1.27,8.91,3.82,2.29,2.64,3.68,5.94,3.96,9.42,2.75-.23,5.47-.72,8.12-1.46,.33-.09,.67-.14,1.02-.14,.63,0,1.2,.36,1.46,.94Zm-21.29,12.14c1.14-1.27,1.9-3.09,2.29-5.46-1.49-1-2.68-2.38-3.45-4-.8-1.64-1.21-3.44-1.2-5.26,0-.78,.07-1.56,.22-2.33h-.36c-1.94,0-3.55,.93-4.83,2.8-1.28,1.87-1.92,4.5-1.91,7.89,0,2.67,.52,4.7,1.56,6.11,1.04,1.41,2.27,2.11,3.67,2.11,1.55,0,3.02-.69,4.01-1.87Z"/>
        <path class="cls-3" d="M428.24,100.06c-1.8-2.18-2.69-5.04-2.69-8.58-.01-3.84,.91-7.62,2.69-11.02,1.67-3.33,4.14-6.2,7.17-8.36,2.75-2.03,6.07-3.14,9.49-3.16,1.07,0,1.78,.21,2.15,.62,.47,.66,.78,1.42,.91,2.22,1.05-.2,2.12-.3,3.2-.29,2.38,0,3.57,.85,3.57,2.54,0,1.02-.36,3.44-1.09,7.27-1.11,5.57-1.67,9.45-1.67,11.63-.03,.63,.16,1.25,.54,1.74,.35,.43,.88,.68,1.43,.65,.92,0,2.04-.59,3.35-1.78,1.89-1.81,3.66-3.75,5.31-5.78,.47-.62,1.19-.99,1.96-1.02,.62,0,1.19,.33,1.49,.87,.4,.73,.59,1.56,.54,2.39,0,1.94-.46,3.44-1.38,4.51-1.85,2.33-3.97,4.43-6.33,6.25-2.23,1.7-4.39,2.55-6.47,2.55-1.61,0-3.17-.58-4.4-1.63-1.4-1.19-2.44-2.73-3.02-4.47-2.52,4.07-5.7,6.11-9.52,6.11-3.02,0-5.43-1.08-7.23-3.26Zm12.87-5.96c1.07-1.5,1.79-3.21,2.11-5.02l2.69-13.38c-2.09,.07-4.09,.88-5.63,2.29-1.81,1.6-3.22,3.6-4.11,5.85-1.02,2.44-1.54,5.06-1.53,7.71,0,1.5,.3,2.62,.91,3.35,.62,.73,1.55,1.14,2.51,1.09,1.07,0,2.08-.63,3.05-1.89h0Z"/>
        <path class="cls-3" d="M461.94,100.42c-.75-1.93-1.13-5.04-1.12-9.3-.03-6.09,.87-12.15,2.69-17.96,.33-1.25,1.09-2.35,2.15-3.09,.99-.66,2.39-.98,4.18-.98,.7-.06,1.4,.07,2.04,.36,.43,.32,.65,.85,.58,1.38,0,.77-.36,2.52-1.09,5.23-.49,1.94-.88,3.64-1.17,5.09-.34,1.78-.58,3.58-.73,5.38,1.59-4.17,3.39-7.56,5.38-10.18,1.99-2.62,3.95-4.48,5.85-5.6,1.91-1.11,3.66-1.67,5.26-1.67,3.15,0,4.73,1.58,4.73,4.73-.12,1.54-.34,3.07-.65,4.58-.28,1.2-.47,2.41-.58,3.64,0,1.69,.61,2.54,1.82,2.55,1.35,0,3.1-1.07,5.26-3.2,.5-.57,1.21-.92,1.96-.96,.61,0,1.18,.31,1.49,.84,.39,.67,.58,1.44,.54,2.22,0,1.8-.49,3.2-1.46,4.22-1.4,1.44-3.01,2.65-4.78,3.6-1.77,.98-3.76,1.49-5.78,1.49-2.57,0-4.52-.65-5.85-1.96s-2-3.08-2-5.31c0-.73,.07-1.46,.22-2.18,.1-.96,.14-1.61,.14-1.96,0-.77-.27-1.16-.8-1.16-.73,0-1.69,.81-2.87,2.43-1.4,2.01-2.59,4.17-3.53,6.44-1.18,2.73-2.13,5.55-2.83,8.43-.54,2.28-1.15,3.82-1.85,4.62-.71,.8-1.81,1.2-3.31,1.2-1.85,0-3.15-.96-3.89-2.9Z"/>
        <path class="cls-3" d="M522.54,98.54c.19,.64,.29,1.3,.29,1.96,0,2.18-1.33,3.27-4,3.27-1.5,0-2.66-.41-3.46-1.23s-1.54-2.37-2.22-4.65l-.07-.29c-1.84,2.28-3.51,3.8-4.98,4.58-1.59,.8-3.35,1.2-5.12,1.17-2.81,.07-5.5-1.15-7.31-3.31-1.91-2.21-2.87-5.08-2.87-8.6-.03-3.73,.81-7.42,2.47-10.76,1.57-3.21,3.89-6,6.76-8.12,2.81-2.09,6.12-3.41,9.6-3.82,.92-9.16,2.67-17.13,5.26-23.92,2.58-6.79,6.04-10.18,10.36-10.18,2.08,0,3.82,.94,5.19,2.83,1.38,1.89,2.07,4.76,2.07,8.6,0,5.33-1.31,11.56-3.93,18.69-2.85,7.62-6.32,14.99-10.39,22.03,.54,3.97,1.32,7.9,2.34,11.77Zm-14.22-3.64c.9-.73,2.05-2.13,3.46-4.21-.49-3.64-.74-7.32-.73-10.99,0-1.5,.02-2.67,.07-3.49-2.67,.77-4.87,2.54-6.62,5.31-1.74,2.74-2.64,5.92-2.61,9.16,0,3.54,1.21,5.3,3.63,5.3,1.03-.02,2.02-.4,2.8-1.08Zm14.18-42.39c-1.3,7.75-2.14,15.57-2.51,23.42,5.38-11.63,8.07-21.08,8.07-28.36,.05-1.45-.11-2.9-.48-4.3-.32-1.02-.69-1.53-1.13-1.53-1.4,0-2.72,3.6-3.96,10.77Z"/>
      </g>
    </g>
  </g>
</svg>