<svg xmlns="http://www.w3.org/2000/svg" xmlns:xlink="http://www.w3.org/1999/xlink" viewBox="0 0 864 864"><defs><style>.cls-1{fill:#3fe0c5;}.cls-2{fill:url(#radial-gradient);}.cls-3{fill:#e9d0c0;}.cls-4{fill:#c1a8a4;opacity:0.73;}.cls-5{fill:#685e5a;}.cls-10,.cls-6{fill:#fff;}.cls-7{fill:#211e1f;}.cls-8{fill:#70665c;}.cls-9{fill:#8b7b70;opacity:0.86;}.cls-10{opacity:0.4;}.cls-11{fill:#3a3a3a;}.cls-12,.cls-14,.cls-15{fill:none;}.cls-12{stroke:#a88d7b;stroke-width:9px;}.cls-12,.cls-14{stroke-linecap:round;stroke-miterlimit:10;}.cls-13{fill:#50747f;}.cls-14{stroke:#4c3c3b;stroke-width:14px;}</style><radialGradient id="radial-gradient" cx="462.33" cy="629.29" fy="394.02451206618514" r="282.91" gradientUnits="userSpaceOnUse"><stop offset="0.19" stop-color="#5f4536"/><stop offset="0.21" stop-color="#674d3e"/><stop offset="0.39" stop-color="#ad9384"/><stop offset="0.53" stop-color="#d8bfaf"/><stop offset="0.6" stop-color="#e9d0c0"/></radialGradient></defs><title>bryan-truffle-bg</title><g id="Truffle-light"><rect class="cls-1" width="864" height="864"/></g><g id="Bryan"><path class="cls-2" d="M295.31,474.28s27.6,85.58,22.34,101.66-35.19,72.62-35.19,72.62l41.9,124L565.67,784.3l70.38-112.84,6.15-51.39s-27.37-102.22-29.05-117.3S295.31,474.28,295.31,474.28Z"/><path class="cls-3" d="M296.92,487.1c-.34-3.44-2.4,8.93-14.77,6.87s-18.22-16.15-17.88-22-4.81-9.09-6.53-21.38-9.27-39.45-12.37-48.73-7.56-27.83-2.06-38.49,10.31-11.34,18.9-9.28,4.47-47.89,4.47-47.89l8.59-124.41L343,88,479.76,75.25,608,129.55l31.61,107.57,8.6,96.64s15.12-8.25,25.43,2.4,13.74,25.78,9.62,50.86-7.9,55-13.06,65-8.61,21.62-20.28,22c-10.65.35-16.84-5.15-16.84-2.75s-10.65,26.54-17.87,44.49c-5.29,13.16-36.36,33.66-57.89,52.52-30.21,26.45-56.27,50.16-94.46,50.16-39.79,0-60.26-14.56-93.21-39.95C327.72,546.16,297.12,489,296.92,487.1Z"/><path class="cls-4" d="M375.64,459.13C387.93,453,414.59,439.22,432,442s24.38-1.67,33.6-1.67,60.66,11.63,65.79,18.8-18.45,15.37-34.84,21.52-50.2,8.19-64.55,8.19-48.16-5.19-56.36-19.39C371.75,462.72,375.64,459.13,375.64,459.13Z"/><path class="cls-5" d="M385.93,463.17c13.37-1.1,14.71.35,17.28-.05s.38,5.56,1.06,7.35-11,.59-14.2-2.17A15.76,15.76,0,0,1,385.93,463.17Z"/><path class="cls-5" d="M520.44,459.56c-19.2-3.68-9.93.11-20.51-1.51-2.56-.4,2.85,5.5,2.17,7.29s9-1.36,14.2-2.17C520.45,462.54,520.44,459.56,520.44,459.56Z"/><path class="cls-6" d="M400.55,463.07c6.68-1.21,21.79-6.55,32.67-5.49s21-2.47,32.6-2.12,36.3-.16,39.11,2.65,1.1,4.06.05,6.48-49.14,7.68-56.16,7.68-38.24.56-43.87,0S400.39,465.78,400.55,463.07Z"/><path class="cls-6" d="M312.4,592c9,26.87,7.17,84.21,78.84,117.36s146.1,7.68,177-11.84,82.84-58.94,82.84-58.94l-86,164L453,841.09,297.17,748.81,290,604.57Z"/><path class="cls-7" d="M-1.91,714.2S75.17,676,130.7,662.62s132.12-23,137.87-36.38-3.83-36.38,17.23-53.61,28.72-40.73,32.55-12.71.79,39.39-6.82,50.46-13.14,25.6-1.38,46.35,51.2,68.5,83,85.8,58.12,47.74,63,58.11,0,16.61,15.23,0,77.49-77.49,96.86-103.09,54.66-58.11,56-74.72,2.77-36,0-48.43-5.53-31.83-4.84-39.44,20.75,1.39,29.75,35.29,7.61,42.2,21.45,45,188.89,54,193.38,61.58S864,864,864,864H0Z"/><path class="cls-8" d="M267.64,362.1c6.78,3.87,6.69,27.22,12.9,27.7s8.59-8.6,7.16-22-12-33.9-9.83-48.22,16-34.38,17-44.41,6.69-24.83,3.34-47.27-8.43-27.72,1-41.57S356.93,124.77,441,130s125.71,31.1,135.13,38.68,21.46,21.51,19.55,34.4,10.5,59.69,19.1,64.46,14.82,25.79,16.73,43.45-4.77,51.57,0,56.82,9.12-19,12.9-25.54,16.71-10.75,16.71-10.75,3.1-21.86,3.1-76.59c0-73.34-8.42-111.06-22-131.59C632.12,108.12,607.68,75.24,583.64,54c-5.2-4.58-39.67-24.52-88-10.12,9.91-16.63,66.57-5.25,63.7-6.5-7.46-3.26-57-27.74-104.65,2.2,12.09-9.43,24.84-18.63,55.12-22.07-24.33-5.26-54.3-3.53-85,21.38C412.42,24.44,474.41,9.62,467.23,9.72c-61.61.88-68.34,27.16-68.34,27.16-9,.39-15.49-9.52,12.2-27.2-43.77,6.06-37.84,34.38-43.61,37.55-2.66,1.45-7.28,8.81-7.28-28.35-14.17,7.66-8.72,32.9-13.57,33.54-7.43,1-14.53-17.15-17.89-13.48,2.27,8.21,8.55,27.92,0,32.86-2,1.18-5.24-11.8-7.14-22.28-2.1-.43-4.58,21.8-7.4,20.41A127.78,127.78,0,0,1,302.34,63c4.5,6.9,8.2,22.87,6.2,25.5-.7.92-17.38-9.71-20.89-9C291,82.81,296,98,291.17,99c-6,1.25-14.82-2.73-17.61-.25,9.29,6,1.2,5.7,3.73,16.9-5.88-3.49-9.89-10.77-12.08-8.33,6.67,21.66-5.47,44.53-10.83,66.24-8.73,35.32-16.85,60-8.7,97.39,8.08,37.09,10.46,82.18,10.46,82.18A52.93,52.93,0,0,0,267.64,362.1Z"/><path class="cls-9" d="M313.11,306.07c23.51.57,46.94-19.53,60.8-18.21s32.89,8.15,32.89-1.61S389,272.43,380.08,273s-47.94,10-56.72,16.51S305.3,305.88,313.11,306.07Z"/><path class="cls-9" d="M486.83,273c-2.44,7.93,7.54,13.79,19.63,10.86s33.56-3.83,47.72.77,20.49,4.18,20.49,0S560,267.22,547.34,266.24s-37.62-4.57-49.33-.67S486.83,273,486.83,273Z"/><path class="cls-10" d="M369,354.71c6.72-.63,13.24-1.4,19.18-2.29,11.42-1.72,25.77-4.62,29.3-8.71l.12-.17c6-9.31,6.44-31.13,6.45-32.05l-2.92-.07c0,.22-.44,21.72-5.91,30.37-4.89,5.33-41.4,10.95-75.42,11.58-21.2.39-35.78-1.34-39.09-4.63-5.6-8.73-7.72-22.4-7.74-22.54l-2.89.44c.09.6,2.26,14.61,8.28,23.88l.16.21c4.88,5.2,25.18,5.94,41.35,5.64C349.21,356.19,359.32,355.61,369,354.71Z"/><path class="cls-10" d="M521.67,350c-6.92,0-13.66-.17-19.81-.51-11.83-.65-26.77-2.21-30.76-6l-.14-.16c-7-8.71-9.53-30.4-9.64-31.32l3-.33c0,.21,2.52,21.58,8.92,29.69,5.51,4.86,43.34,7.08,78.16,4.56,21.7-1.57,36.43-4.63,39.5-8.22,4.9-9.2,5.77-23,5.78-23.16l3,.18c0,.6-.93,14.75-6.2,24.53l-.14.23c-4.49,5.63-25.17,8.24-41.72,9.43C542.07,349.6,531.69,350,521.67,350Z"/><path class="cls-11" d="M291.53,327.8a2.5,2.5,0,0,1-2.48-2.19c-.1-.85-2.49-21.06,6.34-32.44,5.74-7.4,22.61-12.22,50.14-14.34,1.4-.1,3-.24,4.64-.38,9-.76,21.26-1.8,33.14-1.13,16.15.92,31.71,4.36,34.23,5.16,8.67,2.74,7.73,24.59,7.24,31.23a2.5,2.5,0,1,1-5-.37c.85-11.51-.48-25.06-3.76-26.1a190.61,190.61,0,0,0-33-4.92c-11.51-.66-23.6.37-32.42,1.11l-4.69.39c-25.33,1.94-41.87,6.35-46.57,12.42C291.76,306,294,324.81,294,325a2.51,2.51,0,0,1-2.18,2.79A1.62,1.62,0,0,1,291.53,327.8Z"/><path class="cls-11" d="M462.81,298.35a2.51,2.51,0,0,1-1.26-.34,44.13,44.13,0,0,0-19.79-5.15,64.72,64.72,0,0,0-20.17,3.37c-1.3.48-3-4.19-1.76-4.68a68.49,68.49,0,0,1,21.93-3.69,48.38,48.38,0,0,1,22.31,5.84,2.49,2.49,0,0,1-1.26,4.65Z"/><path class="cls-11" d="M598.19,318.38a2.51,2.51,0,0,1-2.45-3.05c0-.19,4.2-19.27-3.09-29-3.09-4.11-11.79-5.1-30.86-7.26l-3.55-.41c-10.65-1.22-31-.82-50.73,1-24.42,2.24-35.24,5.5-36.55,7.13-8.55,10.68-5.73,24.88-5.7,25a2.5,2.5,0,0,1-4.89,1c-.15-.67-3.36-16.61,6.68-29.17,3.8-4.74,23.85-7.5,40-9,20-1.84,40.79-2.23,51.75-1l3.54.41c21.16,2.4,29.91,3.4,34.3,9.23,8.68,11.55,4.17,32.19,4,33.07A2.5,2.5,0,0,1,598.19,318.38Z"/><path class="cls-11" d="M256.14,353.08c-1,0-1.93-9.65-.25-12.18L283,300l9.68-1.71c1.68-2.53-5.67,12.63-3.14,14.31.72.48,0,0-5.27.11-8.05,14-22.67,34-22.67,34C260.56,348.32,257.92,353.08,256.14,353.08Z"/><polygon class="cls-11" points="600.78 307.21 610.48 307.21 652.79 335.18 661.09 331.54 611.11 294.38 599.46 294.38 600.78 307.21"/><path class="cls-12" d="M411.4,401.21s4.28-3,12.11-3,10.16,4.66,18,4.66c3.93,0,10.18-5.32,20.07-6s13.89,0,13.89,0"/><path class="cls-13" d="M380.08,319.78a13.18,13.18,0,0,1-2.7,8c-2.42,3.2-16,4.38-18.17,2.87a13.28,13.28,0,1,1,20.87-10.89Z"/><path class="cls-13" d="M539.4,310.2a13.2,13.2,0,0,1-3.89,9.39c-2.4,2.41-16.38,2.41-18.78,0a13.28,13.28,0,1,1,22.67-9.39Z"/><path class="cls-14" d="M404.49,314.78S394,301.45,366,304.72a53.59,53.59,0,0,0-39.7,25"/><path class="cls-14" d="M495.56,309.83s6.78-17.45,35.31-13.48,36.93,15.32,36.93,15.32"/><line class="cls-15" x1="291.84" y1="327.78" x2="419.79" y2="313.34"/></g></svg>