<svg xmlns="http://www.w3.org/2000/svg" viewBox="0 0 869 866.77"><defs><style>.cls-1{fill:#5f474e;}.cls-2{fill:#fff;}.cls-3{fill:#3fdfc4;}.cls-4{fill:#10a89d;}</style></defs><g id="Chocolate_BG" data-name="Chocolate BG"><rect class="cls-1" x="0.93" y="0.61" width="864" height="864"/></g><g id="White"><rect class="cls-2" x="6.19" y="0.61" width="864" height="864"/></g><g id="Truffle-light"><rect class="cls-3" width="869" height="866.77"/></g><g id="Dongming_Hwang" data-name="Dongming Hwang"><path class="cls-4" d="M209.56,353.29v-.88c0-24.2,17.16-40.15,40.15-40.15,20.46,0,34.65,9.46,36.52,30.25H263c-.88-8-5.28-12.43-13.2-12.43-10.12,0-16.5,7.92-16.5,22.22v.88c0,14.19,6.05,22.22,16.83,22.22,7.92,0,13.53-4.18,14.63-12.87h22.44c-1.54,20.35-16.28,30.91-36.63,30.91C223.09,393.44,209.56,377.38,209.56,353.29Z"/><path class="cls-4" d="M292.93,353.29v-.88c0-24,18-40,41.58-40,24,0,41.69,15.07,41.69,39.49v.88c0,24.2-16.61,40.7-42,40.7S292.93,376.94,292.93,353.29Zm59.73-.22v-.88c0-14-7-22.22-18.15-22.22s-18,8-18,22.33v.88c0,14.3,7.26,22.55,18.15,22.55C345.73,375.73,352.66,367.15,352.66,353.07Z"/><path class="cls-4" d="M387.2,313.47h29.37l15.07,41.91,15.07-41.91h28.82v78.65H453.09V343.17l-19.25,48.95h-7.48l-19-48.95v48.95H387.2Z"/><path class="cls-4" d="M491.26,313.47H514v78.65H491.26Z"/><path class="cls-4" d="M529.54,313.47H555l25.19,44.33V313.47h19.69v78.65H578.05l-28.71-49.39v49.39h-19.8Z"/><path class="cls-4" d="M610.83,353.29v-.88c0-24,17.6-40.15,41.25-40.15,18.59,0,35.09,8.47,36.63,28.93H666.38c-1.1-7.37-5.83-11.22-14.19-11.22-11.11,0-17.82,8.58-17.82,22.77v.88c0,12.76,4.73,22.66,18.37,22.66,11,0,15.18-5.61,15.62-11.88H653.62V348.67h37v9.68c0,20-13.09,35.09-38.5,35.09C625.35,393.44,610.83,376.83,610.83,353.29Z"/><path class="cls-4" d="M284.13,499.15h21.45c.55,5.61,3.08,10.23,12.43,10.23,6.49,0,10.12-3.19,10.12-7.81,0-4.84-3-6.16-12.43-7.59-22.22-2.64-29.7-9.24-29.7-25.08,0-14.19,11.66-24.53,30.47-24.53s29.59,7.92,31,24.53h-20.9c-.77-5.61-4-8.47-10.12-8.47s-9.13,2.75-9.13,6.71c0,4.4,2.42,6.38,12.21,7.7,19.91,2.2,30.15,7.37,30.15,24.42,0,14.41-11.45,26.18-31.69,26.18C296,525.44,284.79,516.2,284.13,499.15Z"/><path class="cls-4" d="M356.18,485.29v-.88c0-24,18-40,41.58-40,24,0,41.69,15.07,41.69,39.49v.88c0,24.2-16.61,40.7-42,40.7S356.18,508.94,356.18,485.29Zm59.73-.22v-.88c0-14-7-22.22-18.15-22.22s-18,8-18,22.33v.88c0,14.3,7.26,22.55,18.15,22.55C409,507.73,415.91,499.15,415.91,485.07Z"/><path class="cls-4" d="M446.27,485.29v-.88c0-24,18-40,41.58-40,24,0,41.69,15.07,41.69,39.49v.88c0,24.2-16.61,40.7-42,40.7S446.27,508.94,446.27,485.29Zm59.73-.22v-.88c0-14-7-22.22-18.15-22.22s-18,8-18,22.33v.88c0,14.3,7.26,22.55,18.15,22.55C499.07,507.73,506,499.15,506,485.07Z"/><path class="cls-4" d="M540.54,445.47H566l25.19,44.33V445.47h19.69v78.65H589.05l-28.71-49.39v49.39h-19.8Z"/></g></svg> 