<svg xmlns="http://www.w3.org/2000/svg" viewBox="0 0 864 864"><defs><style>.cls-1{fill:#5f474e;}.cls-2{fill:#fff;}.cls-3{fill:#3fdfc4;}.cls-4{fill:#414042;}.cls-5{fill:#ddc5b8;}.cls-6{fill:#e9d0c0;}.cls-7{fill:#211e1f;}.cls-8{fill:#ceabab;}.cls-9{fill:#22574b;}.cls-10{fill:none;stroke:#28201c;stroke-linecap:round;stroke-miterlimit:10;stroke-width:8px;}.cls-11{fill:#c1a99d;}</style></defs><g id="Chocolate_BG" data-name="Chocolate BG"><rect class="cls-1" x="-103" y="-20.62" width="998.38" height="998.38"/></g><g id="White"><rect class="cls-2" x="-103" y="-20.62" width="998.38" height="998.38"/></g><g id="Truffle-light"><rect class="cls-3" x="-0.08" y="-5" width="864" height="864"/></g><g id="Kevin_Weaver" data-name="Kevin Weaver"><path class="cls-4" d="M-124.69,917.25s17.25-50.19,37.6-78.68,44.76-54.26,73.25-65.12S93.33,731.4,134,712.41s107.17-58.34,123.45-61,42,16.28,42,16.28l264.53-2.71s9.5-25.78,16.28-23.06,52.91,36.62,81.39,44.76,138.38,48.84,169.58,69.19,69.18,52.9,76,81.39,19,92.25,27.14,118,21.7,63.76,21.7,63.76H-124.69Z"/><path class="cls-5" d="M314.63,479.46s13.95,125.6,6.44,138.48c-5.44,9.32-32.26,33.28-58.06,51.9-9.83,7.1,68.7,84.11,144.09,124.76,56.64,35.73,70.86,43.3,79,44s78.54-58.9,92.76-86,29.11-46,16.25-69.73-19.64-29.8-22.35-66.36-2-130-2-130Z"/><path class="cls-6" d="M229.6,340.8s-8.63,42.47,0,62.38,19.36,51.1,32.57,54.42S288,453.94,294,473.69s30.53,82.12,60.39,106,88.92,41.81,100.2,42.47,56.41.66,86.27-39.15,63.68-59.7,63.71-101.53c0-15.93-.66-19.91,8-21.24s27.21-5.31,31.19-29.2,8-47.12,4.65-79.63-37.17-155.29-96.23-184.49-162.58-69-222.31-6S229.6,340.8,229.6,340.8Z"/><path class="cls-7" d="M285.81,414.19s5.3-7.95,3.54-49.48,10.6-66.28,35.34-94.55,31.81-38.89,45.95-56.56,65.39-37.11,83.07-21.21,24.51-4,30.14,12c5.51,15.7,11.87,19.21,11,5.07s5.71-11.79,13.66-4.73,23.86,35.35,45.07,44.19,30.93,18.55,36.23,38,19.44,22.09,19.44,33.57,6.5,49.17.92,81.66c-2.37,13.83,20.18-12.08,28.9-21.12,7.46-7.74,16.59-23.49,17.47-38.51s4.85-88.3-3.1-106c18.55,15.9,20.32,28.27,21.2,25.62s4-29.23-12.75-53.09a28.54,28.54,0,0,1,13.57,11.09s-8.78-38.65-39.34-63.82a279.63,279.63,0,0,1,32.66,1.8S658,144.1,630.71,145c-15.88-12.88-27.87-15-22.47-16.17s21.87.3,25.16,3.59c-2.69-18-65.61-49.73-65.91-50s20.07-6.89,29.06,0c-20.07-22.17-87.48-30-87.48-30s-24.27-16.78-45.24-6.6c-6.9-14.68-56-9.88-64.42.9-8.09-7.49-44.94-5.09-47.64,4.2,0,0-57.52,14.68-71.9,51.23-10.49-5.39-49.78,32.66-54.11,43.74,13.66-10.48,17.85-7.79,17.85-7.79s-44.37,41.51-37.31,104.82c3.26-13.31,12.83-21,19.46-18.75-10.2,5-12,31.5-13,75.15-.54,24.49,11.84,56.82,13.28,69.4,5.16-30.1,12.44-24.66,14.94-21.68,4.1,4.88,17.84,41.51,30.4,61.7C278.92,420.82,285.81,414.19,285.81,414.19Z"/><path class="cls-7" d="M327.78,353.14c9.23,1.21,24-9.23,40.61-11.69s58.32,1.23,62.69-3.69S429.31,318.07,401,319.3s-52.3-3.08-62.76,10.46S313.63,351.3,327.78,353.14Z"/><path class="cls-8" d="M377.09,492.82c0-4.76,26.47,6.43,91.51,4.7s84.77-10.33,84.39-5.87c-.47,5.52-33.22,41.93-37.75,45s-26.17,10.57-46.3,11.58-49.33-8-56.88-14.6S377.1,504,377.09,492.82Z"/><path class="cls-7" d="M505.61,326.07c-6.92,8.4-6.77,13.54,0,14.15s53.53-4.92,69.53,3.08,7.38,5.11,11.08,9.94,14.76,3.6,10.46-8.71-14.77-28.45-36.92-25.3S514.22,315.61,505.61,326.07Z"/><path class="cls-7" d="M392.23,499.74s22.15,16.66,54.42,21.14,68.78-6.54,82.92-18.38-12.49.94-19.79,2.36c-5.69,1.1-78.54-4.5-106.28-4.9C395.65,499.84,391.05,497.11,392.23,499.74Z"/><path class="cls-9" d="M555.84,362.63a15.35,15.35,0,0,1-1.22,6c-8.24.5-19.32.9-28.35.16a15.45,15.45,0,0,1,1.91-15.56c2.82-3.66,4.12-1.52,9.1-1.52,5.18,0,12.89-2,15.69,2A15.38,15.38,0,0,1,555.84,362.63Z"/><path class="cls-9" d="M402.28,362.63a15.35,15.35,0,0,1-1.22,6c-5.95,1.32-22,1.47-27.94,1a15.43,15.43,0,1,1,29.16-7Z"/><path class="cls-10" d="M344.27,367.72s25.13-19.49,53.65-16.9,31.52,13.94,31.52,13.94"/><path class="cls-10" d="M581.26,367.72s-15.18-12.32-33.32-14.9-39.26,1.57-43,10.83"/><path class="cls-2" d="M403.5,500c-9.87,1.41,16.37,16.89,25.52,19.48,16.28,4.61,53.22,6,65.83,1.27s28.65-12.56,30.14-21c0,0-28.12,1.6-59.76,1.76C435.51,501.64,410.42,499,403.5,500Z"/><path class="cls-11" d="M431.08,464.89c4.65,4.51,19.4,9.65,23.45,10.84s18,4.2,29.75.9,21.78-9.94,26.28-14.89-3.6-2.05-10.08,2.25c-5,3.29-15.19,11.15-27.82,11.83s-23.6-6.51-30.81-11S426.43,460.38,431.08,464.89Z"/></g></svg>