<svg xmlns="http://www.w3.org/2000/svg" viewBox="0 0 864 864"><defs><style>.cls-1{fill:#5f474e;}.cls-2{fill:#3fdfc4;}.cls-3{fill:#dbbfb4;}.cls-4{fill:#63686b;}.cls-5{fill:#635049;}.cls-6{fill:#51423d;}.cls-7{fill:#665651;}.cls-8{fill:#211e1f;}.cls-9{fill:#89726e;}.cls-10,.cls-12{fill:none;stroke-linecap:round;stroke-miterlimit:10;}.cls-10{stroke:#a08484;stroke-width:10px;}.cls-11{fill:#254c51;}.cls-12{stroke:#282120;stroke-width:11px;}.cls-13{fill:#cea5a5;}.cls-14{fill:#fff;}</style></defs><g id="Chocolate_BG" data-name="Chocolate BG"><rect class="cls-1" x="-1.49" y="-0.77" width="874.16" height="864"/></g><g id="Truffle-light"><rect class="cls-2" y="-5" width="864" height="864"/></g><g id="Micaiah"><path class="cls-3" d="M284.06,598.68s7.22-74,4.55-93.56-7-71.47-7-79.22,29.17,3.45,29.17,3.45l101.44,67.16s54.33,32.43,95.81-2,79-64.29,79-64.29l31.85,11.48S574,555.61,573.38,582.89s4.28,98.44,4.28,98.44L499.51,835.45l-46.57,20.38L347.49,740.17Z"/><path class="cls-4" d="M0,743.72S145,671.45,167.78,661s46.65-24.43,58.58-23.26,19.53-27.92,29.29-53.52,16.27-43,25-47.69,8.68,14,8.68,14a219.26,219.26,0,0,0,11.05,47.66c8.88,24.78,48.62,74.48,62.72,88.44s40.18,23.82,53.05,59.17c13,35.67,14.28,27.17,26.34,55.27s16.67,17.4,16.67,17.4L465.56,802s19-59.54,28.76-70,64-41.88,70.51-51.18,6.51-45.37,7.6-62.82-1.09-25.59,7.59-15.12,26,20.94,25,34.9.58,23.31,3.79,29.5,103,38.17,121.08,43c24.85,6.67,59.24,17.69,78.12,35.63,11.63,11,71,118.24,71,118.24H0Z"/><path class="cls-3" d="M300.88,230l-25.43,51.72S233.06,297,230.51,325.88c-1.71,19.37,10.69,51.87,16.43,95.57,2.81,21.44,21.91,98.6,29.46,118.45,22.93,60.3,66.12,85.88,104.34,113.06s48.24,34,87.81,31.42,59.11-22.08,65.9-28.88,41.61-53.5,56-78.13,22.08-42.46,27.18-57.74,10.19-34.33,16.13-51.56,6.28-32.91,5-49.19-6-22.77-8.61-41.26,7-32.39,7-54.83S658.2,228.58,634.44,196,582.87,146.77,516.87,149s-44-1.72-111.31,29.08S314,214.39,300.88,230Z"/><path class="cls-5" d="M319.17,331.1s22.36-14.78,33.74-16.69,43.5-3.33,71.95,8.35,27.64,15.49,21.95,18.83-46.75-14.78-67.48-10.49-37,11.79-43.9,10.9S322.42,338.73,319.17,331.1Z"/><path class="cls-5" d="M530.14,327.6c-9.93,7.26-11,19.65-2.84,19.65s46.75-8.54,60.57-4.47A136.21,136.21,0,0,1,618,355.38c8.13,4.47,13.41-22.23-1.63-27.78s-34.14-1.49-44.31-2.71S538.68,321.36,530.14,327.6Z"/><path class="cls-6" d="M634.47,386.25s-3.88-4.77-2.69-19.08,7.46-70.37,2.69-85.87c-.9-17.6-3.39-57.78-16.9-75.55-6.41-8.44-25.64-31.06-29.54-33.44-6.85-4.18-20.82-7.5-26.61-7.9-17.3-1.19-70.07-5.66-91.54,3.88s-23.17,12.82-85.31,42-71.08,31-77.64,41.74-22.06,46.82-28,71.86c-1.46,6.12-.64,17.77-3.44,25.89-7.92,22.94-10.38,53.29-10,67,.3,11.89,12.81,41.8,8.31,44s-16.47-16.39-16.47-16.39-3-44.17-4.45-55.86c-2.12-16.73-39.09-99.16-39.52-121.27-.67-34.22,4.77-73.33,18.55-106.68,13.44-32.52,76-84.51,138-102.94S494.94,42,521.87,42.88s93,22.47,114.37,49.44c9,11.41,15,24.05,7.15,38.3,18.22,0,29.64,23.56,38.46,41.71,15.29,31.47,27.87,58.44,18.88,82.71S663.54,355.46,634.47,386.25Z"/><path class="cls-7" d="M591.5,148.17c7-1.6-55-64.39-123.58-64.39S358.47,105.24,342.11,116,392.5,99.11,467,116,569,153.28,591.5,148.17Z"/><path class="cls-7" d="M428,72.54s134.91-47,180.9,5.11c13.42,16.33,20.51,42,9.27,60.48C591.66,111.55,608,102.18,582.4,79.69S428,72.54,428,72.54Z"/><path class="cls-7" d="M599.54,172.31s43.85,38.92,41.65,72.58-22.71,53.11-38,45.75c11.57,14.2,35.76,8.89,45,1.55S679.48,194.4,599.54,172.31Z"/><path class="cls-7" d="M618.48,156s55,8.94,52.23,67.31-1.22,62.59-8.58,72.58c16.3-7.36,31-58.38,26.29-81.52S646.88,145.49,618.48,156Z"/><path class="cls-7" d="M467.92,149s-32,10.93-83.35,28.24S305,212.72,294,230c21.85,0,28.23-20.95,79.23-34.61S502.63,149,485.28,149Z"/><path class="cls-7" d="M418.8,133.49S333.2,120.73,294,149s-38.25,44.63-38.25,44.63,34.6-40.09,71.94-44.63S385.07,153.76,418.8,133.49Z"/><path class="cls-8" d="M669.05,349.06c-2-3.65-5.3-11.27-7.29-11.27s-7.29.34-5,5.64-4.14.37-8.44-1.29-27.88-9.7-44.52-11.78-26.34-1.67-30.92-1.11-22.19,2.21-35.22,8.45-23,14.15-25,15-21.5-.42-28.85,0-10.67,1.39-19-5.27-22.33-14.91-36.75-18.62-27.46-5.78-45.34-5-38.14,4.57-51,8.6-19,6.51-23.72,7.07-10.67-2.78-14-4.44-45.21-17.83-46.6-18.11c-4.29-2.63-11.44,9.1-7.78,11.68,0,0,49.33,23.07,55,26.05s16.23,8.95,16.56,13.59,3.32,34.46,6.3,42.08,10,24.75,16.9,32.14c12,12.85,35.44,24.31,82.17,14.91,14-2.82,39.39-25.76,44.93-43.22,4.86-15.35,9.74-41.27,12.39-44.92s13.92-4,21.21-4S507,367,506.36,372.92s.67,19.21,3.65,29.82,7,29.82,21.53,41.08,25.19,14.91,35.46,15.91,31.14,2,46-5.64,21.21-18.22,27.84-29.65,10.93-27.67,14.58-40.92,6-17.89,11.92-20.54C672,357,671,352.7,669.05,349.06ZM428.38,445.47c-10,7.65-28.12,8.44-42.79,9.64s-24.3-2.41-31.94-5.62-14.46-10-21.37-21.18-10.76-29.59-12.3-44.18,4.75-32.47,12.3-38.42c20-15.74,44.88-15.74,53.92-16.95s28.72,1.81,42.38,5.83,23.1,14.26,28.33,19.08,7.23,15.27,7.23,23.5S457.05,423.64,428.38,445.47Zm217.75-54.12c-2.61,13.78-15.46,40.86-22.9,49.3S591.47,459.87,564,454.11s-38.56-26.52-44.39-49.58-3.17-41.8,8.44-50.66c35.55-27.12,74.32-18.48,84.57-17.07s28.32,13.05,32.54,21.29S648.74,377.58,646.13,391.35Z"/><path class="cls-9" d="M263.15,494.16c3.88,12.38,16.34,41.92,39,70.53,13.57,17.17,35.76,38,48,43.34,8.43-.35,15.58-19.75,14.13-40s-5.1-40.5.1-50.14,28.35-21.22,36.07-22.19,38.35-10.26,59.41,1.31,34,13.07,53.35,2.85c24.22-12.75,33.26-18,43.38-13.63s21.79,14.3,22.76,21.53-.34,31.82-5.48,42.43-14.29,26-8,26,31.84-11.72,40.13-29.9c-6.61,18.64-18.91,41.22-36.66,64.29-9.42,12-32.11,47.75-47.44,57.07s-28.21,30.05-80.29,24.75-64.76-24.11-86-44.36-47.16-36.54-70.37-85.61C273.48,537.61,263.15,494.16,263.15,494.16Z"/><path class="cls-9" d="M364.28,568c-1.45-20.25-5.1-40.5.1-50.14s28.35-21.22,36.07-22.19,38.35-10.26,59.41,1.31,34,13.07,53.35,2.85c24.22-12.75,33.26-18,43.38-13.63s21.79,14.3,22.76,21.53-.34,31.82-5.48,42.43-14.29,26-8,26,29.3-17.74,41-32.47c-5.74,19.15-20.12,36.66-20.12,36.66s-38,51.07-54.71,66.19c-13.32,12-36.87,34-88.95,28.69s-67.49-28.95-88.71-49.2c-9.91-9.47-43.21-42.24-46.87-54.36C363.87,608.73,365.05,578.81,364.28,568Z"/><path class="cls-6" d="M397.08,552.58c-1.44-20.25-37.9-25.06-32.7-34.7s28.35-21.22,36.07-22.19,38.35-10.26,59.41,1.31,34,13.07,53.35,2.85c24.22-12.75,33.26-18,43.38-13.63s21.52,14.34,22.76,21.53c3,17.72-34.83,17.4-40,28S398.53,572.83,397.08,552.58Z"/><path class="cls-10" d="M438.6,477.55c2.2,5.17,9.45,2.16,19.48,7.33S480.2,501,490.64,499.75,507,493.45,516.33,487s12.69-6.4,14.89-12.87"/><path class="cls-11" d="M573.87,369.05a17.14,17.14,0,0,1-2.22,8.52c-7,.1-14.41.07-21.1-.13-2.38-2.38-3-4.75-3-8.39,0-7.27,5.9-8.55,13.17-8.55S573.87,361.78,573.87,369.05Z"/><path class="cls-11" d="M405.11,364.87a17.14,17.14,0,0,1-2.22,8.52c-7,.09-14.41.06-21.1-.13-2.38-2.38-3-4.75-3-8.39a13.17,13.17,0,1,1,26.34,0Z"/><path class="cls-12" d="M346.58,371.2s17.73-17.26,42.46-17.26,43.39,9.33,48,17.26"/><path class="cls-12" d="M528.62,376.34s10.29-14.79,35-14.79,35.71,8.14,40.38,16.07"/><path class="cls-3" d="M378.77,535s-4.46,17.34,2.78,29.61,22.23,27.78,35.68,34,31.37,6.72,49,6.72,50.67,0,62.35-11.38,21-30.5,26.15-40.33,10.83-25.34,5.93-34.64-26.09-1.56-49.36,2.58-32.15,7.57-53.36,7.57c-12.85,0-49.9-7.85-63.84-6.9C385.1,522.79,379.26,531.66,378.77,535Z"/><path class="cls-13" d="M389.68,528.34s34.1,2.6,48.54,3.07,32.91,1.66,37.17,2.13,9.47-3.78,22-5.2,28.65-8.76,35.28-8.76,18.7-1.19,17.75,3.31-12.31,36-17.52,41.43-15.39,21.31-25.09,24.39-29.85,5.21-41.56,5-32.22-4.5-40.55-12.07-41.23-40-39.59-45A47,47,0,0,1,389.68,528.34Z"/><path class="cls-8" d="M387.77,531.61a11.23,11.23,0,0,0,4.17,7.07c3.62,2.6,22.72,12,29.79,14.39s17.13,7.07,32.38,8.49,40.72-.48,48.74-3.54,23.11-18.39,25.94-21,16.94-11.79,12.93-11.55a18.72,18.72,0,0,0-7.68,1.59c-6.3,3-14.88,9.1-23,13.94-13.84,8.25-29.7,6.47-43.14,6.71-11.61.22-26.23-2-42.81-4-9.23-1.1-20.54-8.19-27.41-11.13C389.68,529.18,386.88,530,387.77,531.61Z"/><path class="cls-3" d="M255.69,421.77s-.05-63.16-9-80-21.48-24.8-28.29-20-13.16,33-3.49,55.12,8.41,42.21,11.77,50.88,5.62,22.72,18.2,25.36S255.69,421.77,255.69,421.77Z"/><path class="cls-14" d="M397.7,532.62s-1.39,7.12,0,9.38,23.95,11.14,30.31,13.33S446,560.2,449.28,561s9.07,2.2,30.19,1,25.08-7,30.24-8.09,10.05-4.63,15.52-10.19,11.29-19.42,7.7-16.2-47.14,16.76-67.87,17.15S411.37,536.82,397.7,532.62Z"/></g></svg>