<svg xmlns="http://www.w3.org/2000/svg" viewBox="0 0 864 864"><defs><style>.cls-1{fill:#5f474e;}.cls-2{fill:#fff;}.cls-3{fill:#3fdfc4;}.cls-4{fill:#db9b77;}.cls-5{fill:#ff4071;}.cls-6{fill:#e8a680;}.cls-7{fill:#ef4538;}.cls-8{fill:#141312;}.cls-9{fill:#a22c4a;}.cls-10{fill:#301706;}.cls-11,.cls-13{fill:#231f20;}.cls-12{fill:#885d40;}.cls-13{opacity:0.51;}</style></defs><g id="Chocolate_BG" data-name="Chocolate BG"><rect class="cls-1" x="-1.49" y="0.19" width="864" height="864"/></g><g id="White"><rect class="cls-2" x="-1.49" y="0.19" width="864" height="864"/></g><g id="Truffle-light"><rect class="cls-3" y="-4.04" width="864" height="864"/></g><g id="Sakanya"><polygon class="cls-2" points="309.8 699.25 542.81 693.42 473.45 864.19 309.8 864.19 309.8 699.25"/><path class="cls-4" d="M335.74,484.71l-22.26-19.64s2.61,60.18,5.06,74.92,3.69,13.52.62,42.39,4.91,26.41,5.83,71.25,3.38,59,3.38,59,10.44,17.81,65.72,24S485,719.35,485,719.35s16.58-52.83,23.34-71.87,22.73-54.05,22.73-54.05V473.66L509,399.34Z"/><path class="cls-5" d="M42.67,865.68s7.49-39.94,16.64-78.22S71.79,730,75.12,716.72s9.15-15,9.15-23.3-2.49-38.28,5-50.76,14.15-25,23.3-29.13,69.9-31.62,81.55-38.28,61.27-29.77,79.89-15.81c22.21,16.64,48.27,48.27,48.27,48.27a886.07,886.07,0,0,1,7.09,122.66c-.83,67.4,2.06,52.47,3.73,133.63C264.86,866.1,42.67,865.68,42.67,865.68Z"/><path class="cls-5" d="M852.38,865.72s-5-50.38-16.64-81.17-23.31-58.26-25.8-85.72,1.35-64.38-4.48-75.2-18.38-12-20.49-12S758.46,598.32,736.16,592s-67.5-33.14-92.81-33.14-53,41.88-53,41.88l-45.8-16.87s-13.53-4.21-29.38,44.36C499.07,677.43,474.09,743,465.55,775.51c-8.62,32.84-27.46,90.21-27.46,90.21Z"/><path d="M316.74,53.05S308.55,42.13,283.07,74,216.63,184.09,213.9,230.51,197.52,337,203.89,401.6,213,517.18,217.55,539c0-62.8.91-76.45.91-76.45s12.67,80.47,2.73,140.15c-10,60.07-17.3,162.9-8.2,190.21s24.58,58.42,41.87,71.07c-5.55-28.3.91-37.4.91-37.4s6.37,15.47,14.56,20.93C272.15,823,284,825.69,282.16,792s8.19-84.64,20.93-121,21.84-32.76,23.66-71.9-1-86.2-7.28-112.84c-16.9-71.55,51.88-56.43,103.75-69.17s87.58-12.56,83.89,2.79c-12.43,51.59-8.87,53.51-5.59,85.56,3.51,34.27-6.41,78.19-4.59,100,20.53-15.47,21.85-47.32,28.22-32.76s-2.73,46.41,0,103.75,26.39,89.18,17.29,126.5-18.2,56.42-18.2,56.42,38.22-22.75,41.86-48.23c0,0,17.29,42.77,38.22,42.77,3.64-38.22,2.73-51,11.83-59.15s-22.75,0-23.66-60.07-.91-81,10.92-100.1,28.21-67.35,43.68-67.35,26.4,19.11,69.17,15.47,24.57-10,24.57-10-61.88-1.82-74.62-20S633.44,443.46,624.34,401.6,572.47,135,501.48,82.17,362.24-1.56,316.74,53.05Z"/><path class="cls-6" d="M355.87,502.62s-32.76-10.92-53.69-37.32S264,396.14,259.41,380.67s-10.92-43.68-10-60.07,6.37-27.3,7.28-48.23-.54-50.35,2.19-67.64,17.78-51,26-59.23,21-27,54.83-35.24c20.41-5,50.34-6.24,71.27,1.95s61,27.53,72.85,54.83,25,64.38,26.8,91.68S515.14,327,515.14,357s-.91,51.16-13.66,75.18-47.33,53.14-56.42,58.6S387.73,511.72,355.87,502.62Z"/><ellipse class="cls-7" cx="372.15" cy="107.93" rx="7.62" ry="4.67"/><path class="cls-8" d="M263.84,261.43s7.39-12.56,17.36-16.25,25.49-7,35.47-3.7,28.07,7.39,30.29,11.46,0,11.08-4.8,8.49-19.31-7-28.68-7.75-26.74-1.11-34.13,2.95S264.94,268.08,263.84,261.43Z"/><path class="cls-8" d="M400,246.47s-2.48,10.82,3.43,9.06,18.57-13.46,30.4-15.41,38.42-.85,47.28,8.75,9.61-3.47,3.7-8.75a48,48,0,0,0-31.12-12c-17.09-.29-30.46,2.5-37.77,6.89C407.8,239.82,403.27,242.52,400,246.47Z"/><path class="cls-9" d="M326.47,409.92c3.53,0,6.93-.76,13.95-4.66s16-9,22.26-9,7,2.28,11.85,2.12,9.81-2.14,16.08-2.12,23,4.37,30.71,4.37,18.65-.64,16.4,1.61S419.07,423,408,429.74,374.92,438.9,360.5,437C343.08,434.64,322.72,409.92,326.47,409.92Z"/><path class="cls-2" d="M337.34,413.76s14.36-4.47,21.26-5.78,12.87-.93,20.15-.93,13.61-2.05,18.83-2.24,14.74,2.24,22,1.31-10.73,5.42-15,7.31c-5.33,2.36-11.72,5.78-28.51,6.09S349.67,415,337.34,413.76Z"/><circle class="cls-10" cx="442.43" cy="277.7" r="11.53"/><circle class="cls-10" cx="313.31" cy="284.3" r="11.53"/><path class="cls-11" d="M282,294a4.64,4.64,0,0,1-1.59-.28c-2-.73-2.95-2.68-2.08-4.36a52,52,0,0,1,7.13-10.16c5.85-6.21,17.16-9,25.78-9,6.79,0,16.8.84,25.2,8,5.37,4.59,6.9,6.8,7.91,8.26a7.44,7.44,0,0,0,.84,1.09,3,3,0,0,1-.63,4.67,4.57,4.57,0,0,1-5.62-.52,14.58,14.58,0,0,1-1.53-1.93c-.86-1.25-2-3-6.71-6.94-6.22-5.32-13.67-6-19.46-6-6.46,0-15.31,2-19.48,6.44a46.41,46.41,0,0,0-6.09,8.71A4.09,4.09,0,0,1,282,294Z"/><path class="cls-11" d="M410.15,290.16a4.35,4.35,0,0,1-1.89-.43,3.45,3.45,0,0,1-1.64-4.89c.3-.52,7.52-12.61,18.67-18.77,7.43-4.12,20.79-4.34,29.59-2.47,10.46,2.23,21.44,12,22.66,13.07a3.4,3.4,0,0,1,0,5.13,4.3,4.3,0,0,1-5.65,0c-3.57-3.23-12.09-9.71-18.85-11.15-8.1-1.73-18.9-1-23.58,1.6-9.26,5.12-15.72,15.89-15.78,16A4.08,4.08,0,0,1,410.15,290.16Z"/><path class="cls-12" d="M346.09,363.58c-2.54.1,11.24,6.9,15.7,8.12a53.1,53.1,0,0,0,12.83,1.62c5.39.09,12.2-1.77,16.67-3.4s19.82-9.38,16.17-9.38-17.66,2.08-22.33,6.92a15.79,15.79,0,0,1-19.68,2C358.75,365.21,351.08,363.38,346.09,363.58Z"/><path class="cls-13" d="M316.36,295.75s19.1-2.06,22.5-5.65,6.52,1.48,5.34,2.75S325.87,296.45,316.36,295.75Z"/><path class="cls-13" d="M414.65,286.35s6.39,1.73,27.1,2.1c-17.52,1-30,3.62-32.06,1.17S414.65,286.35,414.65,286.35Z"/><path class="cls-13" d="M471.4,277s3.06,9.41-23.4,11.53c17.46-2.48,25-3.69,27.5-6.86S471.4,277,471.4,277Z"/><path class="cls-13" d="M284.69,288.8s1.73,5.76,25.45,7.11c-27.31-1.47-25.2.16-28.88-1.89S284.69,288.8,284.69,288.8Z"/></g></svg> 