<svg id="Layer_1" data-name="Layer 1" xmlns="http://www.w3.org/2000/svg" xmlns:xlink="http://www.w3.org/1999/xlink" viewBox="0 0 2000 2000"><defs><style>.cls-1{fill:none;}.cls-2{clip-path:url(#clip-path);}.cls-3{clip-path:url(#clip-path-2);}.cls-4{fill:#595959;}.cls-5{fill:#6b6b6b;}.cls-6{fill:#848484;}.cls-7{fill:#9b9b9b;}</style><clipPath id="clip-path"><rect class="cls-1" x="172.22" y="894.05" width="1655.56" height="211.9"/></clipPath><clipPath id="clip-path-2"><rect class="cls-1" x="172.22" y="894.05" width="1655.55" height="211.9"/></clipPath></defs><title>amberdata</title><g id="Amberdata"><g class="cls-2"><g class="cls-3"><path class="cls-4" d="M172.22,1062.91c1.39-2.15,1.42-4.74,2.3-7.07,9.67-25.9,43.09-32.73,62-12.58a97.49,97.49,0,0,1,7.21,8.63c10.7,14.39,37.48,13.24,47.78,1.82,3.62-4,7.37-7.91,11.18-11.74a37.28,37.28,0,0,1,56.36,4c1.85,2.46,3.84,4.84,5.93,7.11,4.94,5.36,11.15,7.94,18.39,8.6,12.77,1.15,23.45-2.47,31.7-12.63a71.9,71.9,0,0,1,8.29-8.54c11.61-10.28,24.94-13.07,39.3-7.25s22.1,17.1,23.24,32.55c1.1,14.79-7.62,29-21.34,35.51a37.06,37.06,0,0,1-40.68-6.06,114.72,114.72,0,0,1-8.8-9c-13.85-15.83-41.48-15.6-55,2.79-7.21,9.81-16.69,15.47-28.93,16.3-.24,0-.45.37-.67.57h-4c-.21-.21-.41-.58-.64-.61-11-1.09-19.79-6.29-26.79-14.73-1.26-1.53-2.82-2.8-4.13-4.29-13.24-15.07-40.21-14.59-53,1.61-1.3,1.65-2.69,3.22-4.05,4.81A36.5,36.5,0,0,1,221.1,1104c-2.15.69-4.33,1.28-6.5,1.92H203.35c-.8-1.12-2.14-.92-3.22-1.23-13.15-3.71-21.83-12.09-26.19-25-.75-2.24-1.15-4.6-1.72-6.91Z"/><path class="cls-5" d="M333.14,894.05c2.92.85,5.92,1.52,8.77,2.6a37.18,37.18,0,1,1-22.65-1.44c1.09-.29,2.46,0,3.28-1.16Z"/><path class="cls-6" d="M709,983.45c19.28-18.4,41.15-21.2,65-13.27,8.28,2.74,14.84,8.15,19.8,15.34,1.07,1.55,1.52,2.28,3.19.37,11-12.55,25.3-18.4,41.64-19.58,11.6-.83,22.93.47,33.4,6,13.92,7.38,21.18,19.43,23.91,34.57a92.44,92.44,0,0,1,1.38,16.46q0,35.42,0,70.83c0,2.43-.38,3.41-3.15,3.34-8.16-.21-16.33-.17-24.49,0-2.34,0-2.91-.63-2.9-2.93.09-22.18,0-44.35.07-66.53a53.55,53.55,0,0,0-2.31-17.3c-3.72-11-12.31-17.48-24-18-21.85-1-36.28,12.71-36.59,35.41-.29,21.73-.19,43.47,0,65.21,0,3.6-1.07,4.29-4.37,4.19-7.71-.24-15.44-.19-23.16,0-2.53.06-3.07-.67-3.06-3.11.1-22.17.06-44.35.06-66.53a53.55,53.55,0,0,0-2.29-17c-3.71-11.21-12.38-17.7-24.19-18.19-21.82-.91-35.91,12.13-36.33,34.45-.42,22.06-.23,44.13-.11,66.2,0,3.25-.63,4.31-4.08,4.18-7.93-.3-15.89-.15-23.83-.06-1.93,0-2.65-.35-2.64-2.5q.09-62.55,0-125.12c0-1.9.56-2.39,2.4-2.37,8.06.09,16.11.13,24.17,0,2.25,0,2.49.89,2.44,2.72-.1,4.28,0,8.57,0,13.23"/><path class="cls-6" d="M945.72,1080.76c0,5.53-.08,10,0,14.53,0,1.77-.55,2.23-2.25,2.21q-12.25-.12-24.5,0c-1.68,0-2.49-.45-2.28-2.23a16.33,16.33,0,0,0,0-2q0-86.05,0-172.11c0-4.71-.57-4.14,4.3-4.15,7.5,0,15,.12,22.5-.08,2.79-.07,3.72.49,3.69,3.54-.16,19.53-.08,39.06-.08,58.59v3.18a.81.81,0,0,0,1.24-.11c13.1-13.22,29.36-17.4,47.27-15.71,25.05,2.35,43.79,14.43,53.73,38,10.43,24.68,6.66,59-15.61,78.67-14.39,12.7-31.51,17.16-50.28,15.9-14.6-1-27.4-6.18-37.79-18.23m1.25-48.33a45.56,45.56,0,0,0,0,5c1.64,15.32,8.62,27.25,23.39,32.85,15,5.68,29.36,4,41.56-7.29,9.62-8.89,12.32-20.51,11.83-33.12-1.1-28-25-43.62-50.74-36-16.38,4.83-26.2,19.67-26.07,38.63"/><path class="cls-6" d="M1417.15,983.57v-4c0-19.86,0-39.72-.06-59.58,0-2.46.57-3.15,3.07-3.09,8.16.17,16.33.14,24.49,0,2.22,0,3,.44,3,2.85q-.11,87.39,0,174.78c0,2.29-.54,3-2.89,2.93-7.94-.15-15.89-.13-23.83,0-2.07,0-2.63-.56-2.56-2.59.16-4.38.05-8.77.05-13.36-.52.18-.87.19-1,.37-12.55,14-28.79,18.11-46.71,17.13-16.9-.92-31.82-6.88-43.58-19.41-12.94-13.79-17.84-30.54-17.4-49.14.48-20.5,7.32-38.37,24-50.72,21.71-16,45.47-18.3,70.16-6.87,4.95,2.29,9,6,13.26,10.65m-38.62,89.56c17.57.26,31.91-9.89,37-26.35a46.72,46.72,0,0,0,1.61-20.92c-2.26-15.29-9.87-26.77-24.87-31.67-15.37-5-29.75-2.63-41.4,9.4-8.59,8.86-11,20-10.58,32,.81,21.63,16.61,37.22,38.21,37.53"/><path class="cls-6" d="M1154.56,1042.33c-15.88,0-31.77.08-47.66-.06-3,0-3.47.7-2.69,3.47,4.12,14.56,17,25.15,33,27.11,15.87,1.93,30.29-1,42.29-12.3,1.08-1,1.67-1,2.61.14,4.51,5.29,9,10.56,13.7,15.71,1.39,1.54.74,2.39-.33,3.55a55,55,0,0,1-27.84,16.31c-23.31,5.68-46,4.26-66.44-9.2-21-13.8-29.21-34.35-28-58.85,1.08-21.16,10-38.41,27.62-50.6,26.65-18.4,66.9-14.53,88,8.57,14,15.28,18.15,33.79,16.74,54-.17,2.36-1.46,2.19-3.06,2.19q-24,0-48,0M1139.82,1022c11.36,0,22.72-.08,34.08.06,2.67,0,3.07-.63,2.5-3.15-4-17.73-18-28.65-36.68-28.41-18.27.23-32.22,11.4-36,28.6-.51,2.38-.17,3,2.32,3,11.25-.12,22.5-.06,33.75-.06"/><path class="cls-6" d="M1557.77,1082.18c-12.43,15.28-28.68,17.66-46,16.84-10-.47-19.37-3.06-27.63-8.91-12.25-8.68-17.14-20.73-15.29-35.38,1.75-13.83,9.86-23,22.55-28.23,10.41-4.28,21.42-4.86,32.5-4.86,9.82,0,19.64-.06,29.46,0,2.13,0,2.8-.53,2.77-2.77-.21-15-9-25-23.87-26.85-16.83-2.07-32.46,1.18-46.43,11.09-1.52,1.08-1.91.58-2.59-.72-3.2-6-6.38-12.08-9.77-18-1.13-2-.52-2.81,1.1-3.9,9.84-6.68,20.77-10.56,32.39-12.6,14.48-2.53,29-2.83,43.31,1,21.31,5.63,34,21.15,35.74,43.17.89,11.14.42,22.28.5,33.42.1,16.22,0,32.45.09,48.67,0,2.82-.79,3.47-3.49,3.4-7.61-.19-15.22-.13-22.84,0-2,0-2.66-.62-2.59-2.63.14-3.94,0-7.9,0-12.7m-20.43-40.44v.1c-5.52,0-11,0-16.55,0a43.39,43.39,0,0,0-4.93.52c-11.85,1.48-17.86,7.68-17.3,18,.4,7.4,4.85,11.78,11.33,14.44,6,2.46,12.31,2.65,18.56,1.88,11.68-1.43,21.23-6.39,26.64-17.51a8.84,8.84,0,0,0,1.08-4.09c-.07-3.63-.16-7.28,0-10.91.11-2.17-.73-2.55-2.65-2.51-5.4.12-10.81,0-16.21,0"/><path class="cls-6" d="M1799,1082.06c-12.45,15.46-28.9,17.86-46.42,16.92-11.13-.6-21.51-3.74-30.16-11.1a36.12,36.12,0,0,1,10.15-61.41c10.35-4.1,21.2-4.82,32.16-4.83,9.93,0,19.86-.06,29.79,0,2.16,0,2.76-.56,2.74-2.76-.1-14.54-8.34-24.58-22.82-26.7-17-2.5-32.9.77-47.14,10.71-1.72,1.2-2.21.83-3-.78-3.1-6-6.23-11.91-9.59-17.72-1.15-2-.54-2.8,1-3.88,9.83-6.69,20.76-10.59,32.37-12.61,15-2.61,30.07-3,44.88,1.39,20.06,5.87,32,20.55,34.08,41.3.46,4.62.64,9.23.64,13.87,0,23.27-.06,46.55.06,69.83,0,2.68-.79,3.25-3.3,3.19q-11.07-.24-22.17,0c-2.46,0-3.52-.43-3.33-3.19.26-3.82.06-7.67.06-12.27m-20.63-40.32v0c-5,0-9.93-.1-14.88,0a39.14,39.14,0,0,0-13.91,2.53c-4.62,1.89-8,4.92-9.38,9.92-2.39,9,1.69,16.9,10.58,20.51,6.09,2.48,12.5,2.65,18.88,2,8.46-.91,16-4,21.86-10.45,3.72-4.09,6.42-8.62,5.75-14.55a39.23,39.23,0,0,1,0-7.27c.15-2.11-.45-2.85-2.69-2.77-5.4.17-10.8,0-16.21,0"/><path class="cls-6" d="M631.8,1081.88c-9.25,12.37-21.72,16.26-35.48,17.15-13.47.88-26.47-.9-37.9-8.8-11.73-8.09-17-19.49-15.75-33.59,1.26-14.71,9.34-24.61,22.84-30.16,10.31-4.23,21.21-4.83,32.17-4.84,9.82,0,19.65-.07,29.47,0,2.29,0,3-.58,2.93-3-.53-16.78-10.31-26.33-28.57-27.2-15-.71-29.14,2.58-41.54,11.55-1.37,1-1.88.92-2.66-.57-3.27-6.24-6.59-12.46-10-18.6-1.08-1.91.1-2.48,1.28-3.3a77.89,77.89,0,0,1,29.12-12c16.31-3.34,32.65-3.93,48.77.92,19.46,5.84,30.15,19.28,33.19,39.15a87,87,0,0,1,.85,13.19c0,24.17,0,48.34.07,72.51,0,2.39-.46,3.22-3,3.16-7.72-.19-15.45-.14-23.17,0-2,0-2.67-.51-2.58-2.57.17-4.06,0-8.13,0-13.06m-20.48-40.14v0c-5,0-9.92-.09-14.87,0a38.33,38.33,0,0,0-14.21,2.61c-5.09,2.14-8.58,5.67-9.48,11.35-1.39,8.7,2.45,15.52,10.77,19,6.08,2.52,12.5,2.77,18.87,2,11.56-1.37,21-6.31,26.53-17.14a8.85,8.85,0,0,0,1.17-4.08c-.05-3.86-.09-7.72,0-11.57,0-1.74-.55-2.26-2.26-2.23-5.51.09-11,0-16.54,0"/><path class="cls-7" d="M391.71,1035.31c-15.7-.15-25.07-5.38-32.84-14.16-5.88-6.65-12.18-12.85-21.39-14.72-15.13-3.07-28,.61-37.65,13.08-8.55,11-19.42,16.82-33.62,16.3-17.25-.62-33.07-16.16-34.56-33.38-1.8-20.8,13-38,31.34-40.48,15.1-2,27.2,3.41,36.35,15.5,5.17,6.83,11,12.92,19.93,14.18,12.37,1.75,24,.63,33-9.63A142,142,0,0,1,363,971.13c10.73-9.87,23.27-12.75,37.06-8.22s22.45,14.5,24.93,28.73c4.26,24.38-14.9,44.21-33.24,43.67"/><path class="cls-6" d="M1690.33,1069.1c2.58,6.59,5.05,13.17,7.76,19.64.75,1.79-.15,2.36-1.26,3.12a41.93,41.93,0,0,1-16.83,6.43,61,61,0,0,1-27.51-1.29c-16.46-4.72-26.63-17.65-27.39-35.29-.93-21.5-.19-43-.38-64.52,0-5,.56-4.31-4.46-4.34-4.85,0-9.71-.08-14.56,0-1.82,0-2.49-.44-2.46-2.38.11-6.51.14-13,0-19.52,0-2.18.78-2.56,2.69-2.53,5.4.11,10.81,0,16.21.08,2,.05,2.66-.54,2.64-2.6-.11-8,0-16.11-.1-24.16-.05-2.37.72-2.94,3-2.91,8.16.13,16.33.17,24.49,0,2.59-.05,3.1.79,3,3.18-.14,7.72,0,15.45-.11,23.17,0,2.52.56,3.41,3.25,3.36,9.6-.16,19.2,0,28.79-.12,2.36,0,2.95.7,2.89,3-.15,6.06-.17,12.14,0,18.2.07,2.49-.47,3.36-3.18,3.31-9.49-.18-19,0-28.46-.13-2.65,0-3.31.75-3.3,3.33.11,19.08,0,38.17.09,57.25a37.51,37.51,0,0,0,.62,7.57c2,9.85,10.14,14.69,21.49,13a24.11,24.11,0,0,0,6.71-1.67c2.08-1,4.11-2,6.33-3.15"/><path class="cls-6" d="M1254.3,986.36c11.25-15.57,26.77-19.73,44-20.22,1.91-.06,2.38.56,2.36,2.39-.09,7.94-.14,15.89,0,23.82,0,2.47-.92,2.57-2.88,2.36a41.84,41.84,0,0,0-21.4,2.79c-12.94,5.55-18.86,16.15-20.06,29.53-1.37,15.07-.37,30.21-.56,45.31q-.13,11.09,0,22.17c0,2.19-.38,3.06-2.82,3q-12.4-.24-24.82,0c-2.42,0-2.87-.82-2.86-3q.09-62,0-124.08c0-2.32.62-3,2.93-2.92,7.83.14,15.66.15,23.49,0,2.31,0,2.7.78,2.65,2.81-.13,5.05,0,10.11,0,16.06"/></g></g></g></svg>