<svg id="Layer_1" data-name="Layer 1" xmlns="http://www.w3.org/2000/svg" xmlns:xlink="http://www.w3.org/1999/xlink" viewBox="0 0 1860 1160"><defs><style>.cls-1{fill:none;}.cls-2{clip-path:url(#clip-path);}.cls-3{fill:#fff;}</style><clipPath id="clip-path"><rect class="cls-1" x="90.84" y="400.8" width="1678.32" height="358.4"/></clipPath></defs><title>art01-microsoft</title><g id="Microsoft_-_Grey_Text" data-name="Microsoft - Grey Text"><g class="cls-2"><g class="cls-2"><path class="cls-3" d="M1628.31,465.77c15.72-10.24,36-11.19,53.74-6.31.15,10.52,0,21.06.07,31.6-8.42-3.71-18.32-6.13-27.18-2.49-7,2.78-11.2,10-12.29,17.2-1.32,9.15-.46,18.41-.69,27.61,18,0,36,0,53.94,0,.14-11.68-.14-23.36.16-35,12.23-3.48,24.32-7.39,36.48-11.05.11,15.38-.14,30.77.14,46.16,12.15-.17,24.32,0,36.48-.08v29.94c-12.21-.5-24.42-.13-36.63-.17,0,17.21,0,34.42,0,51.64.2,9.54-.51,19.12.61,28.63.67,5.6,2.71,11.8,8,14.7,8.8,4.93,20,2.78,28-2.63v30.24c-10.54,4.57-22.31,6-33.71,5.16-10.81-.8-22-4.73-29.07-13.33-8.15-9.72-10.25-22.88-10.41-35.19-.1-26.42,0-52.84,0-79.27q-27,0-54,0,0,62.18,0,124.38h-36.87q0-62.17,0-124.34c-8.56-.17-17.11,0-25.66-.14,0-9.84.07-19.69,0-29.54,8.51-.19,17-.11,25.56,0,.63-13.09-1.37-26.55,2.55-39.3a50.22,50.22,0,0,1,20.79-28.38"/><path class="cls-3" d="M838.83,467.92c7.44-1.13,15.49,1.41,20.41,7.22a21,21,0,0,1,2.56,24c-4.73,8.39-15.32,12.29-24.54,10.28-9.58-1.72-17.55-10.62-17.13-20.54-.27-10.45,8.46-19.76,18.7-20.92"/><path class="cls-3" d="M556.24,472.48h53.63q25,63.57,50.22,127.11c4.27,10.6,8.26,21.32,12.73,31.84,21.48-53,43.26-105.79,64.57-158.83,17.19-.27,34.39-.06,51.6-.1q-.06,107.5,0,215c-12.41,0-24.82.1-37.21-.07.13-52.89,0-105.78.05-158.68,0-2.38-.05-4.75-.22-7.13a30,30,0,0,0-1.94,3.44c-21.31,54.14-43,108.13-64.21,162.32-8.83.32-17.66,0-26.5.16-22-54.14-43.69-108.4-65.57-162.58-.57-1.12-1.19-2.22-1.85-3.28-.45,23.18-.07,46.37-.19,69.55q0,48.13,0,96.27c-11.7,0-23.4,0-35.1,0q0-107.52,0-215"/><path class="cls-3" d="M940.31,533.25a101,101,0,0,1,54.78.17,44.35,44.35,0,0,1,10.51,4.38c-.2,11.75,0,23.5-.11,35.26-11.89-9.08-27-14.84-42.09-12.94a43.31,43.31,0,0,0-30.62,17c-9.23,12-11.36,28-9.77,42.7,1.19,11.5,6,23,14.9,30.64,9.29,8.25,22.33,11.18,34.49,10.26,12-1.38,23.37-6.47,33.09-13.58.1,11.13,0,22.27.08,33.4-15.08,9-33.15,11.28-50.4,10.44-17.65-.94-35.26-7.63-48-20-13.88-13.38-21.42-32.47-22.31-51.59-.9-19.87,3.14-40.61,14.58-57.21C909,548,924,538,940.31,533.25"/><path class="cls-3" d="M1343.1,530.91c17.05-3,34.9-.8,51,5.32,0,11.3,0,22.59,0,33.89a65,65,0,0,0-38.72-11.44c-6.89.27-14.47,3.19-17.62,9.74-2.49,6.48-.76,15,5.35,18.86,10.45,7,22.93,10,33.76,16.23,8.53,4.79,16.8,11.06,21.13,20.09,8.11,16.92,4.68,39.27-9.6,51.89-13.63,12.74-33.26,16.26-51.31,15.59-12.82-.83-25.7-3.36-37.49-8.61,0-11.89-.07-23.76.06-35.64a80.76,80.76,0,0,0,33.45,14.44c8.43,1.36,17.6,1.43,25.45-2.34,7.52-3.74,8.87-14.42,4.41-20.95-4.18-5-10.32-7.81-16.1-10.54-10.87-4.88-22.28-9-31.83-16.29a38.21,38.21,0,0,1-13.77-20.92c-3-12.26-2-26.07,5.1-36.78,8.14-12.48,22.28-20,36.69-22.54"/><path class="cls-3" d="M1088.05,535.76c10.18-6.11,23.11-6.62,34.22-2.88,0,12.3,0,24.59,0,36.89a39.23,39.23,0,0,0-24.93-5.86c-10.47,1.19-18.76,9.23-23.06,18.45-4.67,9.75-5.55,20.79-5.25,31.46q0,36.85,0,73.7h-36.35q-.06-77,0-154c12.14-.15,24.27-.09,36.41,0,0,8.82,0,17.63,0,26.46,3.94-9.6,9.81-18.91,19-24.15"/><path class="cls-3" d="M823.48,533.45c12.23-.05,24.47-.17,36.69.06-.14,51.34,0,102.68-.06,154h-36.6q-.06-77,0-154.07"/><path class="cls-3" d="M1275.12,569.38a65.14,65.14,0,0,0-32.2-32.55c-16.42-7.48-35.09-8.48-52.79-6.23-18.58,2.35-36.67,11.09-48.47,25.91-10.77,13.23-16,30.23-17,47.09-1.48,19.88,1.83,41,13.51,57.56,9.94,14.32,25.64,24.16,42.6,27.78a105.87,105.87,0,0,0,43.17,0c16.58-3.41,32.06-12.58,42.33-26.12,10-12.74,15.07-28.82,16.21-44.87,1.15-16.43-.51-33.46-7.34-48.61m-35.6,70.74a33.77,33.77,0,0,1-18.12,17.8,49.78,49.78,0,0,1-30.06,1.32,36.8,36.8,0,0,1-23.11-19.07c-5.94-11.86-6.83-25.57-5.6-38.57,1.12-11.83,5.23-24,14.24-32.16,6.54-6.1,15.45-9.08,24.26-9.57,11.08-.73,22.88,2.4,30.84,10.46,8.53,8.38,11.82,20.53,12.74,32.13.65,12.68.13,25.9-5.19,37.66"/><path class="cls-3" d="M1570.43,573.84A65.74,65.74,0,0,0,1538.76,538c-16.79-8.48-36.33-9.72-54.73-7.44-14.83,1.91-29.42,7.54-40.74,17.48-13.83,11.91-21.94,29.42-24.33,47.33s-1.5,36.77,5.8,53.53a68.38,68.38,0,0,0,37.46,36.35c16.41,6.46,34.66,7.18,51.94,4.39,17.66-2.92,34.39-12.21,45.33-26.5,11.68-14.77,16.71-33.88,16.68-52.49.26-12.46-1.3-25.1-5.74-36.8m-33.26,52.24c-1.41,8.11-4.21,16.2-9.52,22.62s-13.33,10.38-21.55,11.59c-8.83,1.32-18.13.69-26.38-2.86-8.91-3.77-15.81-11.48-19.45-20.35-4.37-10.57-5.24-22.28-4.37-33.58.84-11,3.94-22.18,11.17-30.69,6.6-7.94,16.72-12.34,26.91-12.91,10.42-.73,21.54,1.68,29.55,8.71,7.38,6.13,11.47,15.3,13.34,24.54a93.41,93.41,0,0,1,.3,32.93"/><path class="cls-3" d="M90.84,400.8H261.33q0,85.24,0,170.5H90.84Z"/><path class="cls-3" d="M278.74,400.8h170.5q0,85.24,0,170.5H278.75q0-85.26,0-170.5"/><path class="cls-3" d="M90.84,588.7q85.24,0,170.49,0,0,85.24,0,170.48H90.84Z"/><path class="cls-3" d="M278.75,588.71H449.24V759.2H278.74q0-85.25,0-170.49"/></g></g></g></svg>