<svg id="Layer_1" data-name="Layer 1" xmlns="http://www.w3.org/2000/svg" xmlns:xlink="http://www.w3.org/1999/xlink" viewBox="0 0 1860 1160"><defs><style>.cls-1{fill:none;}.cls-2{clip-path:url(#clip-path);}.cls-3,.cls-4{fill:#fff;}.cls-4{fill-rule:evenodd;}</style><clipPath id="clip-path"><rect class="cls-1" x="514.11" y="118.49" width="831.79" height="694.18"/></clipPath></defs><title>art03-ey</title><g id="Ernst_Young" data-name="Ernst &amp; Young"><g id="Artwork_23" data-name="Artwork 23"><g class="cls-2"><polygon class="cls-3" points="514.11 422 1345.89 275.22 1345.89 118.49 514.11 422"/><path class="cls-3" d="M519.46,512.22V812.67H759.52V743.48H609.29V694.17H718.23V631.1H609.29V581.4H729.7L690,512.22Zm400.22,0-50.84,98.24-51.22-98.24H718.23L823,694.17v118.5H912.8V694.17l105.12-181.95Z"/></g></g><path class="cls-4" d="M1155,940.88q-12.91-10.57-33.79-10.59-28.85,0-49.72,19.21-21.72,20.09-21.71,48.58,0,20.29,13.33,32.17c8.48,7.49,19.57,11.23,33.37,11.23a73,73,0,0,0,50.89-19.76Q1169,1002,1169,972.82,1169,952.32,1155,940.88Zm-22.55,70.43q-13.58,21.59-33.36,21.58-26,0-26.05-28.91,0-21.36,12.06-41.21,14-22.42,34-22.43c8.18,0,14.55,3.17,19.16,9.49q6.23,8.64,6.23,21.36Q1144.55,992.33,1132.49,1011.31Z"/><path class="cls-4" d="M1472.57,930.3q-30.18,0-51.52,19.26-22.42,19.91-22.42,49.74,0,20.12,16.35,31.81,14.41,10.37,35,10.38,17.65,0,42.38-8l8.48-41.55a70.3,70.3,0,0,1-10.55.8,51.74,51.74,0,0,1-11.83-1.3l-6.83,35.17q-3.65,5-21.51,5-12.93,0-19.8-8.86c-4.32-5.31-6.45-12.43-6.45-21.35a71.71,71.71,0,0,1,12.71-41.44q14-20.49,35.76-20.5a35,35,0,0,1,16.15,4.11c6,3.16,9.85,7,11.41,11.65h2.16l6.9-15q-13.15-9.94-36.44-10Z"/><path class="cls-4" d="M1389.26,933c-.44,0-2.3-.2-5.59-.64l-14.62,71.21-52.32-71.21h-14l-21.09,105.94h12.28l15.1-75.51,53.94,75.51h11.66l20.71-105.94a58.25,58.25,0,0,1-6,.64Z"/><path class="cls-4" d="M1277.68,934.28a17.42,17.42,0,0,1-5.49-.86l-14,68.83a37.08,37.08,0,0,1-12.12,21,32.74,32.74,0,0,1-22.23,8.31c-7.07,0-12.71-2-17-5.94s-6.36-9.39-6.36-16.29a31.39,31.39,0,0,1,.45-6l13.45-69.7c-1.73.58-4.83.87-9.26.87-6.62,0-11.17-.29-13.6-.87l-13.06,69.7a44.6,44.6,0,0,0-.64,8.24q0,15.82,13,23.63c7.19,4.18,16.43,6.3,27.65,6.3q19.42,0,33.39-10.29t17.82-28.93l14.44-68.8a27.45,27.45,0,0,1-6.38.79Z"/><path class="cls-4" d="M1075.28,897a23.05,23.05,0,0,1-9.08-1.58q-23.35,36.43-44.33,64.19-9.6-32.07-18.94-64.22a59.18,59.18,0,0,1-15.94,2,117.34,117.34,0,0,1-20.67-2L995.25,977l-11.87,61.26h31.07l12-63.85q48.27-64.66,59.47-79A41,41,0,0,1,1075.28,897Z"/><path class="cls-4" d="M737.64,932.12a24.19,24.19,0,0,1-2.38,12.53q14.32-1.38,28.7-1.74l-18.34,95.36h22.47L786.83,943c12.72.43,21.77,1.12,27.2,2.13-.42-5.19.35-9.5,2.36-13Z"/><path class="cls-4" d="M715.6,932.27a47.88,47.88,0,0,0-12.55-2A43.8,43.8,0,0,0,673.84,941q-13,11.31-13,27.85c0,7.76,3.17,14.32,9.5,19.63l17.71,11.22q9.72,6,9.72,13.15a17.32,17.32,0,0,1-6.45,13.71,22.28,22.28,0,0,1-14.85,5.5q-19.37,0-18.93-17H655.4l-8.16,19.55q6.66,7,24.56,7,18.32,0,31.68-10.6,14.65-11.44,14.66-29.41,0-12.15-9.72-20.2-9.07-5.65-17.94-11.28-9.72-6.09-9.72-13.69a14.69,14.69,0,0,1,6.06-12.16,22,22,0,0,1,13.84-4.71,17.08,17.08,0,0,1,10.71,3.79,11.66,11.66,0,0,1,4.87,9.6h2.16l7.78-14.66q-1.48-3.46-10.58-5.88Z"/><path class="cls-4" d="M646.28,933.42a25.12,25.12,0,0,1-5.74-.64l-14.64,71.43-53-72-13.31.13-21.36,105.94h12.28L565,962.69l54.16,75.59H631.2L652,932.73a22.07,22.07,0,0,1-5.72.69Z"/><path class="cls-4" d="M379.08,895.38,351,1038.27H430.6c-1.29-6.39-.43-12,2.59-16.85q-32.85,2.18-41.93,2.19l-6.26-.23,10.63-54q29.69,0,46.82,2.64-.21-11.84,3.69-17.66-27.84,1.71-33.66,1.69-6.27,0-13.6-.42l7.91-45.17,11.77.07a242.94,242.94,0,0,1,36.17,2.9,43,43,0,0,1,3.49-18.06H379.08v0Z"/><path class="cls-4" d="M942,984.13l-6.9-8.86q-13.38,19.43-24.6,30l-19.62-30.64q26.5-15.32,26.51-29.56,0-17.49-24.53-17.49-13.55,0-22.8,8a28.22,28.22,0,0,0-9.68,22c0,6.75,2.17,14,6.52,21.79q-36.21,16.62-36.22,37.12,0,11,8,17.47,7.39,5.82,18.9,5.82,17.26,0,37.56-12.94l6,11.43h31.13L914.7,1012Q935.46,991.69,942,984.13Zm-57-44.24a12.53,12.53,0,0,1,9.83-4.32,9.47,9.47,0,0,1,6.69,2.91,8.94,8.94,0,0,1,3,6.57q0,13.38-17.08,24.16h0q-6.2-11.43-6.2-18.76A15.53,15.53,0,0,1,885,939.89Zm-12.56,88.29q-19.38,0-19.37-19.39c0-4.11,1.75-8.52,5.31-13.27s7.35-7.67,11.4-8.81L891.5,1022Q880.57,1028.19,872.42,1028.18Z"/><path class="cls-4" d="M524.9,975.44q9.11-8,9.11-21.34Q534,933,508.21,933H467l-20.84,105.29h23.32l9.48-48.16h1.93l18.76,48.16h27.14l-23.13-51.62Q518.84,981,524.9,975.44Zm-39.26,8.64h-4.77l7.85-41,9.83.07q11.79,0,11.79,12,0,12.45-5.85,20.38h0Q498,984.09,485.64,984.08Z"/></g></svg>