<svg id="Layer_1" data-name="Layer 1" xmlns="http://www.w3.org/2000/svg" xmlns:xlink="http://www.w3.org/1999/xlink" viewBox="0 0 1860 1160"><defs><style>.cls-1{fill:none;}.cls-2{clip-path:url(#clip-path);}.cls-3{clip-path:url(#clip-path-2);}.cls-4{fill:#fff;}</style><clipPath id="clip-path"><rect class="cls-1" x="309.65" y="393.36" width="1240.71" height="373.27"/></clipPath><clipPath id="clip-path-2"><rect class="cls-1" x="309.65" y="393.36" width="1240.71" height="373.27"/></clipPath></defs><title>art06-amazon</title><g id="Amazon"><g class="cls-2"><g class="cls-3"><path class="cls-4" d="M572.07,431.51c9.07-22.82,25-35.62,50-35.91,25.34-.31,40.3,13.73,50,36.24,1.44-2.87,2.51-5.11,3.66-7.3,18.13-34.38,69.4-39.16,93-8.7,7.92,10.22,10.34,22.22,10.52,34.64.33,23.61.12,47.23.12,70.85q0,39.3,0,78.61c0,7.91-2.21,10.19-10,10.23-10.68.05-21.35,0-32,0-8.3,0-10.39-2.08-10.39-10.25q0-58.23.07-116.46c0-6-.22-12-.78-17.92-1.59-17-16.06-25.6-31.91-19-10.91,4.58-15.53,13.63-16.72,24.77a172.6,172.6,0,0,0-1,17.9q-.14,55.07-.05,110.15c0,8.72-2.06,10.75-10.95,10.77q-15.29,0-30.57,0c-9,0-10.92-1.87-10.92-10.68,0-38.66.19-77.32-.07-116a104.18,104.18,0,0,0-2.81-23.47c-2.38-9.85-9.09-14.94-18.1-15.59-11.7-.84-19.62,3.16-24.16,12.39-4.17,8.48-5.16,17.67-5.2,26.91-.14,38.5-.1,77-.13,115.49,0,8.86-2,10.9-10.8,10.92-10.68,0-21.35,0-32,0-7.37,0-9.6-2.26-9.6-9.52q0-95.58,0-191.18c0-7.64,2-9.64,9.84-9.66q15.29,0,30.57,0c7.35,0,9.37,2.1,9.4,9.59,0,7.18,0,14.36,0,21.54l1.05.57"/><path class="cls-4" d="M1442.46,435.49c4-7.08,7.12-13,10.63-18.75,18.09-29.44,69.46-27.7,87,1.53,5.81,9.7,8.46,20.33,9.06,31.36.8,14.84,1.06,29.73,1.13,44.6.15,35.43,0,70.86,0,106.29,0,7.31-2.2,9.6-9.49,9.64-11.32.07-22.64.09-34,0-6.64-.06-9-2.51-9-9.18,0-39.64.12-79.27-.14-118.91a105.41,105.41,0,0,0-2.72-21.54c-1.76-8.09-6.63-14-15.14-16-9.13-2.08-17,.44-23.28,7.38-6.69,7.42-9,16.72-10.17,26.25a178.37,178.37,0,0,0-1,20.81c-.1,33.65,0,67.3-.05,101,0,7.84-2.27,10.17-10.08,10.21q-16.5.08-33,0c-7,0-9.33-2.4-9.33-9.34q0-96.11,0-192.19c0-6.49,2.25-8.77,8.71-8.81q16.26-.09,32.51,0c6.1,0,8.32,2.41,8.34,8.63,0,8.56,0,17.12,0,27"/><path class="cls-4" d="M817.17,766.64c-113.7-1.22-212-33.08-298.82-98.77-9.92-7.5-19.26-15.76-28.8-23.76-2.8-2.36-6.64-5.07-3.5-9.16,2.93-3.82,6.74-1.29,10.05.39,18.58,9.42,36.86,19.51,55.79,28.17a594.25,594.25,0,0,0,145.8,45.31c25.53,4.45,51.38,7.5,77.21,9.74a518.52,518.52,0,0,0,62.44,1.8c79-2.68,155.21-18.79,228.34-49.07,3.19-1.32,7-2.35,10.25-1.94a10.09,10.09,0,0,1,6.88,4.89c1,2,.22,6-1.3,7.81-2.73,3.28-6.45,5.81-10,8.28-39.84,27.45-83.82,45.74-130.27,58.5a499,499,0,0,1-83.67,15.38c-15.09,1.48-30.29,1.85-40.37,2.43"/><path class="cls-4" d="M1099.9,441.47H1094q-28.63,0-57.26,0c-7.69,0-9.77-2.11-9.79-9.77,0-8.09,0-16.17,0-24.26,0-5.82,2.41-8.27,8.3-8.27q61.86-.09,123.73,0c5.75,0,8.28,2.58,8.39,8.34.13,7.12.89,14.38-.25,21.31-.87,5.31-3.54,10.69-6.63,15.21-16,23.34-32.37,46.4-48.61,69.57-6.29,9-12.57,17.94-19.21,27.44,9,.56,17.27.81,25.52,1.65a120.6,120.6,0,0,1,45.18,13.58c5.1,2.73,7.66,6.84,7.72,12.48.09,9.38.21,18.77,0,28.14-.19,6.92-4.64,9.4-10.89,6.45-43.33-20.49-86.64-20.56-129.92.18-5.74,2.76-10.39.47-10.49-5.86-.18-12.12-.24-24.28.71-36.34.37-4.68,2.93-9.61,5.69-13.6,23.3-33.81,46.89-67.42,70.38-101.1,1-1.42,1.87-2.9,3.31-5.14"/><path class="cls-4" d="M1075.18,643.12,1028,647.71a13.24,13.24,0,0,1-3.86.13c-1.31-.29-3.12-.84-3.56-1.81s.16-2.92,1-3.82a26.61,26.61,0,0,1,5.56-4.58c16.81-10.53,35.4-15.15,55-17.06a146.72,146.72,0,0,1,42.36,2c1.27.24,2.52.57,3.76.92,13.37,3.77,14.28,5.6,13.48,18-2.28,35.48-13.91,67.5-39.93,93.05a16,16,0,0,1-4.54,3.56c-1.62.68-3.63.43-5.47.59-.1-1.78-.76-3.76-.21-5.32,4.76-13.55,10.19-26.89,14.5-40.58a157.46,157.46,0,0,0,6.33-28.74c1.41-11.93-2.7-15.83-12.13-18.11a54.27,54.27,0,0,0-9.5-1.71c-5.16-.28-10.34-.07-15.51-.07l-.09-1.07"/><path class="cls-4" d="M993.62,573.13C983,560.57,979.49,546.26,979.84,530c.57-26.34.32-52.73-.51-79.08-.77-24.41-13-41.65-36.05-50.22-27.69-10.3-55.57-9.46-82.87,1.45-21.77,8.69-35.34,24.9-40.37,48-1.44,6.64.3,9.47,7.07,10.31,10.91,1.35,21.85,2.47,32.79,3.51,5.47.51,7.36-1,9-6.56,4.54-15.08,13.89-22.39,29.61-23.16,13.17-.64,23.92,6,26.18,17.57,1.6,8.12,1.42,16.59,2,25.14l-5.23.71c-14.58,1.92-29.2,3.53-43.71,5.87-13.18,2.12-25.77,6.35-36.77,14.19-23.71,16.88-30.73,40.62-26.86,68.26,2.92,20.86,13.71,36.81,34.25,43,25.72,7.8,50.58,5.18,72.41-12.3,4.4-3.52,8.47-7.43,12.33-10.85,6.75,7.56,12.93,15,19.68,21.88,5.24,5.33,8.55,5,14.23.14q12.48-10.79,24.95-21.59c5.42-4.67,6.19-7.7,1.6-13.12m-71.56-22.66c-5,12.1-12.64,21.47-26.54,23.6-10.51,1.62-19.71-3.62-23.88-13.37-8.4-19.67.91-41.09,21-48.24,10.64-3.79,21.68-4.7,33.55-4.78-.15,14.85,1.5,29.19-4.09,42.79"/><path class="cls-4" d="M489.47,572.29c-9.68-11.86-13.41-25.11-13.15-40.44.46-27.64.28-55.32-.77-82.94-.89-23.29-13.25-39.65-35-47.89-29.3-11.12-58.72-10.06-87.28,2.72-20.21,9-32.39,25.15-36.87,46.9-1.27,6.11.57,8.92,6.75,9.7,10.91,1.36,21.85,2.5,32.78,3.55,5.79.56,8.2-.9,9.4-6.6,2.51-11.91,11.83-22,29.21-23.07,16.06-1,26.84,8.32,27.81,24.27.29,4.84.05,9.71.35,14.55.21,3.39-1.19,4.24-4.4,4.65-16.34,2.07-32.77,3.76-48.93,6.87-39.85,7.69-61.53,35.29-59.64,74.79,1.13,23.7,13.9,43.18,34.8,49.54,25.57,7.78,50.24,5.38,72.08-11.72,4.68-3.66,9-7.81,13-11.34,6.64,7.44,12.91,15,19.73,22,5,5.17,8.39,5,13.87.26,8.23-7,16.38-14.18,24.61-21.24,6.44-5.53,7-7.88,1.61-14.53m-71-21.76c-3.49,8.61-8.6,15.9-16.95,20.47-16.14,8.81-33.37,0-35.63-18.24-2.67-21.56,6.37-35.87,27.35-41.46,9.23-2.47,19-3.05,29.45-4.63-.45,15.9,1.33,30.21-4.22,43.86"/><path class="cls-4" d="M1348.21,439.08c-14.61-29.33-40-43.68-72.91-43.36-33.58.32-57.28,16.69-72.17,46.23-9.88,19.6-13.29,40.71-13.19,64.54a141.12,141.12,0,0,0,7.06,45.7c7.82,23.55,20.84,43.16,43.9,54.21,33.53,16.07,82.88,10.05,107.2-35.94,22.87-43.26,21.71-88,.11-131.38M1303.45,547.4c-.88,5.24-3.43,10.51-6.36,15-10.3,15.91-31.56,15.21-41.08-1.12-5.06-8.68-7.17-18.35-8.09-28.19-2.18-23.2-3.14-46.44,1.42-69.5a55.85,55.85,0,0,1,4.12-12.35c5.4-11.7,14-16.5,26.85-15.46,10.38.84,17.84,7.36,21.38,18.94,5.11,16.73,5.53,34,7,51.46-1.67,13.75-2.94,27.56-5.23,41.2"/></g></g></g></svg>