<svg id="Layer_1" data-name="Layer 1" xmlns="http://www.w3.org/2000/svg" xmlns:xlink="http://www.w3.org/1999/xlink" viewBox="0 0 1860 1160"><defs><style>.cls-1{fill:none;}.cls-2{clip-path:url(#clip-path);}.cls-3{clip-path:url(#clip-path-2);}.cls-4{fill:#848484;}</style><clipPath id="clip-path"><rect class="cls-1" x="138.78" y="341.96" width="1582.45" height="476.09"/></clipPath><clipPath id="clip-path-2"><rect class="cls-1" x="138.78" y="341.96" width="1582.44" height="476.09"/></clipPath></defs><title>art06-amazon</title><g id="Artwork_24" data-name="Artwork 24"><g class="cls-2"><g class="cls-3"><path class="cls-4" d="M473.49,390.61c11.57-29.1,31.93-45.43,63.79-45.81,32.33-.38,51.4,17.52,63.82,46.23,1.84-3.66,3.2-6.51,4.67-9.3,23.13-43.86,88.51-50,118.62-11.11,10.1,13,13.19,28.34,13.41,44.19.42,30.11.15,60.24.15,90.35q0,50.15,0,100.27c0,10.09-2.82,13-12.79,13.05-13.61.06-27.23,0-40.84,0-10.59,0-13.25-2.65-13.25-13.07q0-74.28.08-148.54c0-7.62-.28-15.27-1-22.85-2-21.71-20.49-32.66-40.7-24.19-13.91,5.84-19.8,17.39-21.32,31.59a220.53,220.53,0,0,0-1.32,22.83c-.12,46.83-.06,93.66-.07,140.49,0,11.13-2.62,13.72-14,13.74q-19.49,0-39,0c-11.49,0-13.93-2.38-13.92-13.62,0-49.3.23-98.61-.1-147.91A132.15,132.15,0,0,0,536.16,427c-3-12.57-11.59-19.07-23.08-19.89-14.91-1.07-25,4-30.82,15.81-5.31,10.81-6.58,22.53-6.62,34.32-.18,49.1-.13,98.2-.17,147.3,0,11.29-2.57,13.9-13.78,13.92-13.61,0-27.23,0-40.84,0-9.4,0-12.25-2.89-12.25-12.14q0-121.92,0-243.84c0-9.75,2.62-12.3,12.55-12.32q19.49,0,39,0c9.37,0,12,2.68,12,12.24,0,9.15,0,18.31,0,27.47l1.35.72"/><path class="cls-4" d="M1583.61,395.69c5.1-9,9.08-16.62,13.56-23.91,23.07-37.56,88.59-35.34,110.95,2,7.41,12.36,10.79,25.92,11.55,40,1,18.93,1.36,37.92,1.44,56.88.2,45.19.07,90.38.06,135.57,0,9.32-2.81,12.25-12.1,12.3q-21.66.13-43.33,0c-8.48-.06-11.45-3.2-11.45-11.7,0-50.55.16-101.11-.17-151.66a134.93,134.93,0,0,0-3.47-27.47c-2.24-10.32-8.46-17.9-19.31-20.36-11.65-2.65-21.7.55-29.69,9.41-8.54,9.47-11.52,21.32-13,33.48a230.51,230.51,0,0,0-1.32,26.55c-.12,42.91,0,85.83-.06,128.75,0,10-2.9,13-12.86,13q-21,.09-42.09,0c-8.92-.05-11.9-3.07-11.9-11.92q-.06-122.56,0-245.13c0-8.26,2.87-11.18,11.1-11.22q20.74-.12,41.48,0c7.78.05,10.61,3.08,10.63,11,0,10.92,0,21.83,0,34.48"/><path class="cls-4" d="M786.1,818c-145-1.55-270.35-42.19-381.14-126-12.65-9.56-24.57-20.1-36.72-30.3-3.58-3-8.48-6.47-4.47-11.69,3.73-4.86,8.6-1.64,12.82.5,23.7,12,47,24.89,71.16,35.94a758,758,0,0,0,186,57.78c32.57,5.67,65.53,9.57,98.48,12.43A663.69,663.69,0,0,0,811.82,759c100.75-3.42,198-24,291.24-62.59,4.06-1.68,8.85-3,13.06-2.48a13,13,0,0,1,8.79,6.25c1.22,2.58.27,7.63-1.67,10-3.48,4.18-8.23,7.41-12.79,10.56-50.82,35-106.91,58.33-166.15,74.62A637.72,637.72,0,0,1,837.58,815c-19.25,1.89-38.63,2.36-51.48,3.09"/><path class="cls-4" d="M1146.7,403.32h-7.5q-36.51,0-73,0c-9.81,0-12.46-2.7-12.48-12.47,0-10.31-.08-20.63,0-30.94.07-7.43,3.07-10.55,10.58-10.56q78.92-.09,157.81,0c7.34,0,10.56,3.3,10.7,10.64.17,9.08,1.14,18.33-.31,27.17-1.11,6.78-4.52,13.64-8.46,19.4-20.39,29.77-41.29,59.19-62,88.74-8,11.44-16,22.89-24.5,35,11.43.72,22,1,32.55,2.11a153.94,153.94,0,0,1,57.63,17.32c6.49,3.48,9.77,8.72,9.84,15.92.11,12,.27,23.94,0,35.89-.24,8.82-5.91,12-13.88,8.23-55.28-26.14-110.51-26.22-165.71.23-7.32,3.51-13.26.59-13.38-7.48-.23-15.45-.31-31,.9-46.35.48-6,3.74-12.25,7.26-17.35,29.72-43.12,59.8-86,89.76-128.94,1.26-1.81,2.39-3.7,4.23-6.55"/><path class="cls-4" d="M1115.17,660.51,1055,666.36a16.28,16.28,0,0,1-4.91.16c-1.67-.36-4-1.07-4.55-2.3s.21-3.72,1.26-4.88a33.86,33.86,0,0,1,7.1-5.84c21.43-13.43,45.14-19.32,70.09-21.75a187.1,187.1,0,0,1,54,2.59c1.62.31,3.21.73,4.79,1.18,17.05,4.81,18.21,7.14,17.2,22.94-2.91,45.25-17.74,86.1-50.93,118.68-1.76,1.72-3.61,3.63-5.79,4.54s-4.63.55-7,.76c-.12-2.28-1-4.8-.27-6.79,6.08-17.28,13-34.29,18.5-51.75a201.56,201.56,0,0,0,8.07-36.66c1.8-15.21-3.45-20.19-15.47-23.09a68.08,68.08,0,0,0-12.12-2.19c-6.57-.36-13.18-.09-19.78-.09,0-.46-.07-.91-.11-1.36"/><path class="cls-4" d="M1011.14,571.24c-13.59-16-18-34.27-17.57-55,.72-33.6.41-67.26-.65-100.86-1-31.13-16.63-53.12-46-64.05-35.31-13.15-70.87-12.06-105.69,1.84-27.77,11.09-45.07,31.76-51.49,61.21-1.84,8.46.39,12.07,9,13.14,13.91,1.72,27.86,3.15,41.82,4.47,7,.66,9.38-1.32,11.49-8.35C857.87,404.35,869.8,395,889.85,394c16.79-.82,30.5,7.69,33.4,22.41,2,10.36,1.8,21.16,2.6,32.06l-6.68.91c-18.59,2.45-37.24,4.51-55.75,7.48-16.81,2.71-32.87,8.11-46.9,18.1-30.24,21.54-39.19,51.82-34.26,87.07C786,588.67,799.75,609,826,617c32.81,9.94,64.51,6.59,92.36-15.7,5.6-4.49,10.8-9.48,15.73-13.83,8.6,9.64,16.48,19.14,25.1,27.91,6.68,6.79,10.89,6.42,18.14.17q15.93-13.75,31.82-27.54c6.92-6,7.9-9.82,2-16.73m-91.27-28.91c-6.34,15.44-16.12,27.4-33.85,30.11-13.4,2.06-25.13-4.62-30.45-17.06-10.72-25.09,1.15-52.41,26.73-61.52,13.58-4.83,27.65-6,42.79-6.1-.19,18.94,1.91,37.23-5.22,54.57"/><path class="cls-4" d="M368.13,570.17c-12.35-15.13-17.1-32-16.78-51.58.59-35.25.36-70.56-1-105.79-1.13-29.7-16.9-50.56-44.59-61.07-37.38-14.18-74.9-12.84-111.32,3.46-25.78,11.53-41.31,32.08-47,59.82-1.61,7.8.74,11.38,8.62,12.37,13.91,1.73,27.86,3.19,41.81,4.54,7.38.71,10.46-1.16,12-8.43,3.2-15.18,15.09-28.07,37.26-29.42,20.48-1.24,34.22,10.61,35.46,30.95.37,6.17.06,12.38.45,18.55.27,4.34-1.51,5.42-5.61,5.94-20.84,2.64-41.81,4.79-62.41,8.77-50.82,9.8-78.48,45-76.07,95.39,1.44,30.22,17.73,55.07,44.38,63.18,32.62,9.92,64.08,6.85,91.94-15,6-4.67,11.46-10,16.6-14.47,8.46,9.49,16.46,19.1,25.16,28,6.42,6.59,10.7,6.31,17.69.33,10.5-9,20.89-18.09,31.38-27.09,8.22-7.05,9-10.05,2.06-18.53m-90.5-27.76c-4.46,11-11,20.28-21.63,26.1-20.58,11.25-42.55,0-45.43-23.26-3.41-27.49,8.11-45.74,34.88-52.88,11.77-3.14,24.17-3.88,37.55-5.9-.56,20.28,1.7,38.53-5.37,55.94"/><path class="cls-4" d="M1463.4,400.27c-18.63-37.41-51-55.72-93-55.31-42.83.41-73.06,21.3-92.05,59-12.6,25-16.95,51.93-16.83,82.32a180.51,180.51,0,0,0,9,58.29c10,30,26.58,55,56,69.14,42.77,20.5,105.71,12.83,136.73-45.84,29.17-55.18,27.69-112.22.14-167.56m-57.09,138.15c-1.12,6.68-4.38,13.4-8.11,19.16-13.13,20.29-40.25,19.4-52.4-1.44-6.45-11.07-9.14-23.39-10.31-35.94-2.78-29.6-4-59.23,1.81-88.64a71,71,0,0,1,5.26-15.76c6.88-14.93,17.83-21,34.24-19.72,13.24,1.08,22.76,9.39,27.27,24.16,6.52,21.34,7,43.39,8.92,65.64-2.14,17.53-3.76,35.15-6.68,52.54"/></g></g></g></svg>