<svg id="Layer_1" data-name="Layer 1" xmlns="http://www.w3.org/2000/svg" viewBox="0 0 1860 1160"><defs><style>.cls-1{fill:#fff;fill-rule:evenodd;}</style></defs><title>art08-vmware</title><g id="VMware"><path class="cls-1" d="M211.93,619.77c12.73-30,24.78-58.36,36.88-86.74,5-11.7,9.81-23.49,15.18-35,26.22-56.29,95.12-61.32,134.1-22.53,7.08,7,10.36,5.14,16.48.31,30.08-23.7,63.4-31.88,100.66-20,12.11,3.86,23.06,10,31.11,19.67,5.81,7,9,5.65,15.44.58C594.12,450.48,630.23,442,669,458.61c31.79,13.66,48.83,39.36,49.33,74.24.67,45.81.29,91.64.12,137.46-.09,25.27-16.28,40.46-40.9,39-18.55-1.13-31.63-16.55-31.8-38.72-.31-37.63-.09-75.25-.1-112.88,0-3,.15-6.09-.07-9.1-1.42-19.21-13.55-32.43-31.41-34.37-20.64-2.26-36.65,7.4-42,25.31-1.66,5.6-1.61,11.38-1.61,17.14,0,37.32.06,74.64-.05,112-.06,21-9.78,35.21-26.69,39.65-21.9,5.78-41.48-6.58-45.29-28.8a91.11,91.11,0,0,1-1.18-15.38c-.1-37.63,0-75.26-.08-112.89,0-14.73-5.12-27-19.16-33.45-14.58-6.71-29-5.61-42.12,4.06C425,530,422.27,542,422.26,554.89c0,38.85.18,77.7-.08,116.54-.15,23.82-15,38.21-38.18,37.86-20.55-.31-34.46-16.08-34.55-39.87-.16-45.5,0-91,0-136.55,0-2.42,0-4.85,0-7.28.06-5.5-2.39-9.51-7.68-11-5.87-1.63-10,1.12-12.47,6.46Q318,545.41,306.92,569.8c-15.28,33.31-30.45,66.68-45.93,99.89a131.51,131.51,0,0,1-11.83,20.44c-18.59,26.21-54.91,26.46-74.38.75-9.25-12.22-14.6-26.48-20.92-40.23q-34-73.86-68-147.77c-9.61-20.95-3.28-40.46,15.79-49.06,19.89-9,39.43-.41,48.6,21.29q28.65,67.78,57.34,135.56C208.66,613.16,209.93,615.58,211.93,619.77Z"/><path class="cls-1" d="M912.35,518.26Q898.42,558,884.53,597.59,868.29,643.88,852,690.17c-4.09,11.63-10,16.64-19.79,17-10,.4-17.76-4.86-21.78-16q-37.74-104.7-75.09-209.5c-4.14-11.64,0-21.18,9.84-24.82,11.1-4.09,21.23.92,25.65,13.62q28.71,82.34,57,164.8c1.26,3.68,2.63,7.32,4.56,12.69,9.2-26.47,17.79-51.2,26.39-75.93q17.28-49.77,34.61-99.52C898,459.3,902.63,455.74,914,455.9c10.82.14,15.92,4.3,20.37,17.19q28,81.13,55.86,162.31c1.28,3.71,2.67,7.37,4.55,12.52,9.65-27.59,18.84-53.8,28-80q16.92-48.45,33.79-96.92c2.48-7.18,6-13.39,14.3-14.84,15.11-2.63,25.65,9.12,20.76,23.88-6,18.1-12.85,35.91-19.31,53.87q-27.68,76.92-55.32,153.85c-.52,1.42-1,2.85-1.62,4.24-4.35,10.34-11.64,15.51-21.42,15.22-9.46-.28-15.95-5.31-19.71-16-8.82-25.13-17.43-50.35-26.16-75.53q-15.75-45.48-31.61-90.94C915.66,522.59,915.84,519.74,912.35,518.26Z"/><path class="cls-1" d="M1272.61,668.54c-17.31,20-36.69,32.94-60.68,37.69-36.31,7.2-70.49,3.12-98.29-23.69-33.55-32.36-26-89.5,14.1-113.52,17.62-10.53,37.06-14.81,57.22-16a244.67,244.67,0,0,1,79.29,7.72c7.56,2.06,8.51-.11,8.46-6.9-.19-37.82-22.82-62.33-60.6-64.84-23.55-1.56-46.55.34-68.5,10.32-9.21,4.19-18.65,0-22.09-8.31-3.35-8.11-.55-17.24,7.8-20.74,43.07-18.08,87-21.49,130.71-3.28,29.31,12.21,43.15,37.13,46.78,67.65,3.79,32,1.1,64.24,1.63,96.37.3,18.8.19,37.62,0,56.43-.12,11.7-6.09,18.92-15.82,20-11,1.22-19.39-5.87-20-17.3C1272.36,683.77,1272.61,677.38,1272.61,668.54Zm-69-88.64c-18.47.35-37.44,2.13-53.93,13.56-25.07,17.37-26.17,54.06-2,72.56,18.66,14.28,40.19,16.37,62.33,12.08,29.07-5.65,52.23-19.43,61.26-50,2.89-9.75,1.2-19.92,1.82-29.86.36-5.87-1.61-8.56-7.55-10A298.42,298.42,0,0,0,1203.62,579.9Z"/><path class="cls-1" d="M1614,595.7c-27,0-54,.18-81-.13-6.71-.07-8.28,1.9-7,8.42,6.5,32.23,22.55,57.37,54.69,68.09,34.69,11.57,66.39,3.6,94.07-20.14,4.47-3.84,8.83-7.75,15.08-7.16,6.48.6,11.53,3.84,13.84,10.21,2.43,6.73.52,12.55-4.47,17.4-17.55,17.07-37.76,29.43-62.07,34-41.11,7.72-78.51.24-110-28.61-20.9-19.12-32.91-43.38-37.07-71.2-6.44-43.25,1.77-83.05,32.16-115.81S1590.76,448,1633.45,459s66.14,41.54,77.45,82.61a120,120,0,0,1,4.23,33.29c-.14,15-5.73,20.72-21,20.76C1667.39,595.75,1640.69,595.7,1614,595.7Zm-12.25-27.76h54.59c25.13,0,25.13,0,18.2-24.21-12.54-43.69-51.66-67.05-92.23-54.58-33.83,10.39-51.9,41.87-56.71,73.71-.95,6.2,3.57,5,7,5Q1567.13,568,1601.73,567.94Z"/><path class="cls-1" d="M1389.45,512.72c12.14-22.32,28-38.48,49.48-48.58,10.79-5.06,22-8.6,34.11-8.25,10.14.3,16.94,6.15,18,15.57,1.2,10.89-3.85,18.66-14,21.17-4.4,1.09-9,1.51-13.38,2.57-40.82,9.9-68,41.81-73,86.24-3.9,35-.91,70.26-1.76,105.38-.33,13.61-10.1,22.11-22.4,19.43-9.37-2-14.25-8.39-14.28-19.24-.09-26.67,0-53.36,0-80q0-65,0-130.06c0-13.12,7.12-21.71,17.85-21.79,11.49-.07,18.79,8.35,18.85,21.87,0,10.91,0,21.83.07,32.74C1389,510,1389.05,510.34,1389.45,512.72Z"/><path class="cls-1" d="M1778.56,485.64c0,17.56-12.86,30.62-30.2,30.64s-30.48-13.09-30.43-30.47,13.31-30.81,30.36-30.76C1765.7,455.11,1778.54,468.08,1778.56,485.64Zm-30.1-24.25A24.21,24.21,0,0,0,1724,485.33c-.34,13.33,11.39,25.34,24.53,25.12,12.6-.2,24.34-12.22,24.2-24.78A24.41,24.41,0,0,0,1748.46,461.39Z"/><path class="cls-1" d="M1745.91,470.44c14.78.11,18.2,5.25,12.15,17.21-1.61,3.2.35,4.39,1.41,6.27s2.1,4.07-.18,5.56c-2.06,1.34-4,.24-5.47-1.62-1.12-1.42-2.25-2.86-3.48-4.19-2.93-3.18-5.87-5.89-6.67,1.38-.28,2.59-.87,5.05-4.13,4.72-3.53-.37-2.8-3.37-2.86-5.65-.1-4.24.28-8.5-.1-12.7C1735.87,473.38,1737.36,467.9,1745.91,470.44Zm8.35,9.73c-1-2.9-3.26-3.66-6.21-3.7s-4.38,1-4.36,4.13c0,3.25,1.75,4.08,4.55,3.93S1753.54,483.64,1754.26,480.17Z"/><path class="cls-1" d="M1754.26,480.17c-.72,3.47-3.16,4.19-6,4.36s-4.55-.68-4.55-3.93c0-3.09,1.39-4.16,4.36-4.13S1753.28,477.27,1754.26,480.17Z"/></g></svg>