<svg id="Layer_1" data-name="Layer 1" xmlns="http://www.w3.org/2000/svg" xmlns:xlink="http://www.w3.org/1999/xlink" viewBox="0 0 1860 1160"><defs><style>.cls-1{fill:none;}.cls-2{clip-path:url(#clip-path);}.cls-3{fill:#848484;}</style><clipPath id="clip-path"><rect class="cls-1" x="376.17" y="780.25" width="1107.65" height="296.05"/></clipPath></defs><title>art10-colony</title><g id="Colony"><g class="cls-2"><path class="cls-3" d="M516.61,976.8a77.93,77.93,0,0,1-10,8.61,73.15,73.15,0,0,1-26.12,11.7,66.53,66.53,0,0,1-15.6,1.75,76.68,76.68,0,0,1-37.32-9.63,72,72,0,0,1-26.41-25.4,70.35,70.35,0,0,1-7.46-16.91,68.64,68.64,0,0,1,0-37.76,69.51,69.51,0,0,1,7.46-16.95,71.13,71.13,0,0,1,11.68-14.32,75.54,75.54,0,0,1,14.89-11,73.51,73.51,0,0,1,17.66-7.09,76.13,76.13,0,0,1,19.47-2.5,68.84,68.84,0,0,1,15.28,1.65,73.71,73.71,0,0,1,13.72,4.51,70.27,70.27,0,0,1,12.12,7,84.38,84.38,0,0,1,10.52,8.92l-19.17,20.38a39.11,39.11,0,0,0-14.43-11.34,42.7,42.7,0,0,0-48,8.62,43.41,43.41,0,0,0-9.12,13.87,46.91,46.91,0,0,0,0,34.68A42.9,42.9,0,0,0,435,959.42a41.93,41.93,0,0,0,39.25,11.7,43.8,43.8,0,0,0,8.77-3,43.94,43.94,0,0,0,14.45-11.22Z"/><path class="cls-3" d="M577.33,928A67.18,67.18,0,0,1,580,909.16a70.64,70.64,0,0,1,7.44-17,71.81,71.81,0,0,1,11.69-14.3,75.49,75.49,0,0,1,14.89-11,73.62,73.62,0,0,1,17.64-7.09,78.39,78.39,0,0,1,39.26,0,74.88,74.88,0,0,1,32.65,18.12,68.38,68.38,0,0,1,11.58,85.85,73.14,73.14,0,0,1-26.69,25.4,77.91,77.91,0,0,1-17.58,7.18,76.85,76.85,0,0,1-56.9-7.1,72.08,72.08,0,0,1-26.42-25.4,70.61,70.61,0,0,1-7.45-16.92A67.14,67.14,0,0,1,577.33,928m31.17.23a44.54,44.54,0,0,0,3.32,17.33,42.78,42.78,0,0,0,9.27,13.84,42.49,42.49,0,0,0,46.69,9.2,41.23,41.23,0,0,0,13.44-9.2,43.22,43.22,0,0,0,9.12-13.94,46.55,46.55,0,0,0,0-34.69,44.06,44.06,0,0,0-9.12-13.72,41.42,41.42,0,0,0-13.44-9.16,42.61,42.61,0,0,0-46.69,9.16A43.26,43.26,0,0,0,612,911a44.66,44.66,0,0,0-3.48,17.3"/><polygon class="cls-3" points="796.61 860.68 828.09 860.68 828.09 968.74 884.72 968.74 884.72 995.79 796.61 995.79 796.61 860.68"/><path class="cls-3" d="M942.32,928a66.54,66.54,0,0,1,2.61-18.87,70.47,70.47,0,0,1,7.43-16.94,71.92,71.92,0,0,1,11.7-14.31,76.12,76.12,0,0,1,14.65-11,73.84,73.84,0,0,1,17.66-7.09,78.28,78.28,0,0,1,39.23,0,75.32,75.32,0,0,1,17.7,7.09,76.73,76.73,0,0,1,15,11A71.14,71.14,0,0,1,1080,892.21a68.5,68.5,0,0,1,0,71.62,71.67,71.67,0,0,1-26.58,25.4,78.12,78.12,0,0,1-17.69,7.1,77.62,77.62,0,0,1-57-7.1,71.92,71.92,0,0,1-26.42-25.4,70.36,70.36,0,0,1-7.44-16.92A67,67,0,0,1,942.32,928m31.17,0a44.71,44.71,0,0,0,3.34,17.33,42.6,42.6,0,0,0,56.06,23.27,40.55,40.55,0,0,0,13.35-9.2,43.08,43.08,0,0,0,9-13.84,46.52,46.52,0,0,0,0-34.68,43.88,43.88,0,0,0-9-13.83,40.35,40.35,0,0,0-13.44-9.16,43,43,0,0,0-33.21,0,41.66,41.66,0,0,0-13.47,9.16A42.42,42.42,0,0,0,977,911a44.38,44.38,0,0,0-3.34,17.3Z"/><polygon class="cls-3" points="1284.82 995.78 1257.53 995.78 1193.05 914.8 1193.05 995.78 1161.57 995.78 1161.57 860.67 1188.83 860.67 1253.22 941.42 1253.22 860.67 1284.62 860.67 1284.82 995.78"/><polygon class="cls-3" points="1483.83 860.68 1431.65 944.62 1431.65 995.79 1400.17 995.79 1400.17 944.73 1348.29 860.68 1384.97 860.68 1415.87 916.01 1416.18 916.01 1447.05 860.68 1483.83 860.68"/></g><path class="cls-3" d="M930,83.71a86.86,86.86,0,1,1-86.88,86.86A86.86,86.86,0,0,1,930,83.71"/><path class="cls-3" d="M930,595.23a86.86,86.86,0,1,1-86.88,86.86A86.86,86.86,0,0,1,930,595.23"/><path class="cls-3" d="M1185.73,339.42a86.86,86.86,0,1,1-86.87,86.86,86.86,86.86,0,0,1,86.87-86.86"/><path class="cls-3" d="M674.27,339.42a86.86,86.86,0,1,1-86.85,86.86,86.87,86.87,0,0,1,86.85-86.86"/><rect class="cls-3" x="831.75" y="328.11" width="196.53" height="196.53" transform="translate(-29.1 782.51) rotate(-45)"/><polygon class="cls-3" points="1086.32 269.96 1086.32 121.22 1235.06 269.96 1086.32 269.96"/><polygon class="cls-3" points="773.68 269.96 624.93 269.96 773.68 121.22 773.68 269.96"/><polygon class="cls-3" points="773.68 582.68 773.68 731.43 624.93 582.68 773.68 582.68"/><polygon class="cls-3" points="1086.32 582.59 1235.06 582.59 1086.32 731.33 1086.32 582.59"/></g></svg>