<svg id="Layer_1" data-name="Layer 1" xmlns="http://www.w3.org/2000/svg" viewBox="0 0 1860 1160"><defs><style>.cls-1{fill:#fff;}</style></defs><title>art18-mythx</title><path class="cls-1" d="M870.76,504.71c-13.8.07-27.6.18-41.39.21-15.51,0-31,.11-46.53-.07-3.28,0-4,1-4,4.08.11,31.45,0,62.9.16,94.34,0,3.83-1,4.71-4.77,4.69q-42.69-.24-85.38,0c-3.22,0-4.37-.63-4.36-4.16q.22-47.38,0-94.77c0-3.56,1.18-4.17,4.37-4.15,28.46.11,56.92,0,85.38.16,3.83,0,4.66-1,4.65-4.73q-.24-46.74,0-93.49c0-3.58-1-4.46-4.54-4.44-26.32.15-52.65,0-79,.16-3.5,0-4.5-.85-4.49-4.43.15-31.31,0-62.62.17-93.92,0-3.6-1-4.46-4.52-4.44-26.89.15-53.79,0-80.68.17-3.55,0-4.48-.9-4.46-4.44q.21-45.9,0-91.79c0-3.22.68-4.36,4.18-4.36q85.59.18,171.18,0c3.49,0,4.2,1.06,4.19,4.32-.12,30.59,0,61.19-.15,91.78,0,3.55.93,4.48,4.47,4.46,27.18-.15,54.36-.05,81.54-.13,2.7,0,4,.28,4,3.55q-.18,100.76-.12,201.5Z"/><path class="cls-1" d="M1056.93,504.7c-8.23.07-16.46.21-24.69.22q-31.54,0-63.07,0c-1.55,0-3.11-.16-4.66-.24l.08.07c0-4.55.13-9.1.13-13.65q0-93.25-.08-186.51c0-3.88,1-4.94,4.88-4.91,26.88.18,53.77,0,80.66.18,3.54,0,4.5-.9,4.48-4.45-.14-30.44,0-60.89-.17-91.33,0-3.7.85-4.8,4.69-4.79q85.15.19,170.3,0c4,0,4.92,1.12,4.9,5q-.24,45.66,0,91.34c0,3.32-.81,4.3-4.23,4.28-27-.15-54.07,0-81.1-.17-3.53,0-4.46.85-4.44,4.42.15,31.3,0,62.6.17,93.89,0,3.53-.87,4.5-4.43,4.48-26.46-.15-52.93-.07-79.39-.1-2.4,0-4.28-.26-4.26,3.35.16,33,.13,66,.16,99Z"/><path class="cls-1" d="M581.31,839c1.09-5,2.24-9.9,3.29-14.86C591.78,790.06,599,756,606,722c.84-4.09,2.37-5.46,6.65-5.33,11.65.33,23.33.21,35,.05,3-.05,3.78.89,3.78,3.83q-.12,117.83,0,235.65c0,3.12-.7,4.22-4,4.06-6-.28-12-.23-17.92,0-2.87.1-3.64-.83-3.6-3.6.14-10.24,0-20.49,0-30.73l.09-177.59a2.86,2.86,0,0,0-.9-2.73c-1.88,7.6-3.77,14.95-5.52,22.32q-12.82,53.88-25.53,107.77c-.55,2.33-1.52,3-3.73,2.91-6.54-.11-13.11-.3-19.63.06-3.6.2-4.95-1-5.7-4.4-3.87-17.32-7.92-34.6-11.94-51.89q-8.49-36.51-17-73a8.72,8.72,0,0,0-1.81-3.84V749q0,103.1.1,206.19c0,4.24-1.17,5.34-5.2,5a97.47,97.47,0,0,0-14.5,0c-4,.3-5.32-.74-5.26-5,.27-17.5.11-35,.11-52.51q0-90.5-.1-181c0-4.26,1.22-5.14,5.22-5.05,12,.28,23.91.2,35.86,0,3.18-.05,4.6.58,5.33,4.13,6.56,32.28,13.4,64.5,20.16,96.74,1.49,7.08,3,14.14,4.53,21.22Z"/><path class="cls-1" d="M1258.74,812.22c6.56-11.06,12.79-21.55,19-32.06q17.77-30.1,35.51-60.24a4.12,4.12,0,0,1,4-2.44c9.53.11,19.06,0,29.08,0-1.89,5.09-5,9.14-7.55,13.42q-30.63,51-61.5,101.83c-1.38,2.27-1.26,3.76.1,6q35.83,58.8,71.45,117.71c.69,1.15,2.35,2.33,1.52,3.7s-2.6.52-3.95.53c-8.82,0-17.65-.07-26.47.09a5.25,5.25,0,0,1-5.38-3q-21.3-37.17-42.82-74.22c-4.32-7.47-8.65-14.93-13.43-23.18l-13.8,23.13q-22.26,37.37-44.48,74.75c-.94,1.59-1.88,2.54-4,2.51-9.53-.12-19.06,0-28.73,0-.39-2,1-3.27,1.82-4.61q34.69-58,69.55-115.86c2-3.34,2.1-5.66,0-9q-33.13-54.69-65.94-109.6c-.63-1.06-2-2.15-1.5-3.34.72-1.56,2.54-.7,3.84-.71,8.82-.07,17.65,0,26.47-.09,2.44,0,3.72.74,4.94,2.92q24.75,44,49.72,87.94C1256.93,809.44,1257.65,810.48,1258.74,812.22Z"/><path class="cls-1" d="M1040.64,793.22c9.7-6.52,19.92-7.27,30.39-7,8.65.27,17.33-.45,25.89,1.64,20.38,5,30.8,16.2,34.2,37a115,115,0,0,1,1.24,18.71c.05,37.27,0,74.54.12,111.82,0,4-1.15,5.06-5,4.83-5.53-.32-11.09-.08-16.64-.08-6.19,0-6.19,0-6.19-6V838.94c0-2,0-4-.07-6-.68-12.17-7.6-19.66-19.72-20.36-8.92-.51-17.89-.24-26.86.14-10.09.42-17.43,10.3-17.41,19.68.08,40.83,0,81.66.13,122.49,0,4.18-.78,5.66-5.23,5.34a163.24,163.24,0,0,0-18.77,0c-3.34.15-4.06-1.05-4-4.13.21-7,.06-13.94.06-20.91q0-106.7-.09-213.39c0-4.11,1-5.4,5.15-5.14a167.47,167.47,0,0,0,18.34,0c3.47-.17,4.54.68,4.51,4.34-.19,22.2-.1,44.39-.1,66.58Z"/><path class="cls-1" d="M762,931.25c1.33-4.9,2.43-8.65,3.35-12.44q14.36-59.17,28.66-118.38c.94-3.85,2.05-7.67,2.83-11.56.43-2.12,1.42-2.7,3.47-2.68,7.54.11,15.08.1,22.62,0,2.28,0,3,.58,2.37,2.94q-12.2,46.11-24.28,92.23C794.87,905,789,928.68,782.51,952.22c-4.09,14.89-6.81,30.21-12.8,44.55-5.8,13.88-15.72,22-31.28,22.07-6.55,0-13.09,0-19.63.19-2.43.07-3.21-.7-3.16-3.13.15-6.54.14-13.09,0-19.63,0-2.36.6-3.29,3.09-3.17,3.84.19,7.69.08,11.53,0,8.88-.11,13.44-3.26,16.06-11.77,1.88-6.09,3.16-12.37,4.71-18.57.44-1.73,0-2.92-2-2.56-3.31.59-4.24-1.18-5.11-4Q729.17,908,714.17,859.8c-7.18-23.18-14.35-46.36-21.71-69.49-1.09-3.42-.55-4.27,3-4.15,7.54.25,15.08.14,22.62,0,2.3,0,3.41.47,4.11,3q15.35,55.6,31,111.13C756,910.25,758.86,920.15,762,931.25Z"/><path class="cls-1" d="M964.51,504.68c.07,7.1.18,14.21.18,21.31,0,26,0,52,.07,78.08,0,2.87-.61,3.88-3.71,3.87q-43.31-.18-86.61,0c-3,0-3.79-.85-3.78-3.81q.17-49.71.1-99.41l-.07.07,93.9,0Z"/><path class="cls-1" d="M1056.85,504.77c29.71.05,59.43.19,89.14,0,4.17,0,5.12,1.1,5.09,5.16q-.27,46.71,0,93.42c0,3.41-.69,4.6-4.38,4.58-28.58-.16-57.16-.09-85.74-.1-2,0-4.22.64-4.21-2.93.15-33.41.15-66.82.2-100.23Z"/><path class="cls-1" d="M891.66,871.12c0-18.21-.07-36.42.07-54.64,0-3.09-.68-4.24-4-4.14-8,.23-15.94,0-23.9.13-2.57,0-3.47-.63-3.4-3.32.2-6.54.2-13.1,0-19.64-.08-2.72.89-3.37,3.41-3.32,7.4.13,14.8,0,22.2,0,5.6,0,5.61,0,5.61-5.41,0-10.81.1-21.63-.07-32.44,0-3,.76-3.9,3.78-3.8,6.82.23,13.66.2,20.49,0,2.83-.08,3.6.83,3.57,3.6-.15,11.1.14,22.21-.17,33.3-.11,4.11,1.29,4.89,5,4.82,12.81-.21,25.62.07,38.42-.17,3.66-.06,4.57,1.07,4.4,4.55-.29,5.82-.26,11.67,0,17.49.14,3.29-.73,4.37-4.19,4.32-13.09-.21-26.18,0-39.27-.15-3.21,0-4.38.6-4.36,4.16.15,34.29.07,68.58.1,102.87,0,10.85,3.37,14.25,14.36,14.39q14.71.19,29.45,0c2.88,0,4,.64,3.91,3.76-.24,6.25-.27,12.52,0,18.77.16,3.4-1.13,4-4.17,3.94-11.52-.16-23.06-.46-34.57,0-24.44,1-34.92-16.32-36.25-34.05-1.2-16.19-.28-32.43-.46-48.65C891.64,875.39,891.66,873.26,891.66,871.12Z"/></svg>