<svg id="Layer_1" data-name="Layer 1" xmlns="http://www.w3.org/2000/svg" viewBox="0 0 1860 1160"><defs><style>.cls-1{fill:#fff;}</style></defs><title>art17-daostack</title><g id="DAOstack"><path class="cls-1" d="M343.57,308.6c9.11,8.76,18.26,17.47,27.26,26.34q13.73,13.53,27.37,27.11t27.26,27.46q13.57,13.86,27.16,27.7t27.19,27.57q13.63,13.77,27.35,27.46c4.52,4.51,9,9,13.59,13.51q3.4,3.36,6.86,6.68l3.46,3.31a22.69,22.69,0,0,1,3,3.1c1.4,1.94.79,3.73-.69,5.43-2.07,2.36-4.47,4.48-6.68,6.71-4.48,4.53-8.9,9.12-13.31,13.71l-6.51,6.75c-2.19,2.26-4.58,4.42-6.62,6.82-1.57,1.85-1.87,3.89-.46,5.91a24.72,24.72,0,0,0,2.91,3.14c1.13,1.12,2.25,2.25,3.36,3.37,8.95,9,17.75,18.19,26.91,27,1.48,1.43,2.9,3.12,1.51,5.1a21.49,21.49,0,0,1-2.25,2.42l-3.4,3.45q-6.78,6.87-13.61,13.73c-4.5,4.52-9.15,8.91-13.6,13.47-1.61,1.65-2.87,3.73-1.79,6a11.14,11.14,0,0,0,2.44,3.07l3.45,3.39q13.79,13.56,27.35,27.37c1.56,1.58,2.67,3.3,1.24,5.39a24.25,24.25,0,0,1-3.17,3.32l-3.41,3.39q-6.82,6.8-13.59,13.65c-9,9.08-17.94,18.2-27,27.24s-18.3,18.2-27.46,27.29-18.31,18.16-27.37,27.34-17.81,18.31-26.73,27.45-17.95,18.15-27.13,27c-4.57,4.41-9.15,8.82-13.68,13.27S356.16,840,352,844.6c-1.86,2.07-3.68,4.6-6,6.11a4.13,4.13,0,0,1-5.08-.41c-2.41-1.79-4.41-4.24-6.5-6.37q-3.39-3.43-6.8-6.86-13.54-13.65-27.1-27.31-13.62-13.82-27.23-27.66T246,754.59c-9.08-9.05-18.21-18-27.22-27.16S200.85,709,191.83,699.77s-18.14-18.18-27.32-27.17l-6.89-6.73c-1.68-1.64-3.82-3.31-4.89-5.46a3.69,3.69,0,0,1,.69-4,54.38,54.38,0,0,1,5.93-6q7-6.72,13.84-13.52,3.45-3.39,6.88-6.8c2.17-2.15,4.6-4.21,6.56-6.55a17.34,17.34,0,0,0,1.7-2.76,7.22,7.22,0,0,0,1-1.69c.06-.47-1.23-1.43-1.65-1.83l-7-6.71q-7-6.74-14-13.5c-2.27-2.19-4.54-4.38-6.79-6.6s-4.45-4.24-6.42-6.56c-1.43-1.69-1.59-3.46-.14-5.2a44.66,44.66,0,0,1,3.32-3.28L160,572c4.49-4.46,8.91-9,13.36-13.48s8.91-8.61,13.17-13.08c1-1.1,2.48-2.52,2.39-4.17s-1.73-3.25-2.84-4.41c-4.36-4.56-8.89-9-13.3-13.46s-8.94-9.11-13.45-13.61l-3.4-3.37a18.15,18.15,0,0,1-2.92-3.21c-1.29-2.09-.27-4,1.25-5.61,4.33-4.64,9-9,13.46-13.53s9.05-9.17,13.58-13.76c9-9.17,18.08-18.34,27.23-27.41s18.35-18,27.49-27.06,18.16-18.15,27.17-27.28,18.12-18.41,27.18-27.61,18.24-18.46,27.38-27.67q6.52-6.59,13.07-13.16,3.31-3.31,6.61-6.64a38.73,38.73,0,0,1,3.18-3.1C341.56,309.68,342.61,309.22,343.57,308.6Zm0,32.58c-1.31.95-2.73,1.77-4,2.8a49.22,49.22,0,0,0-3.94,3.84l-7.95,8-16,16.07-32,32.15-32,32.13q-15.91,16-31.81,32-7.91,8-15.75,16-3.9,4-7.76,8l-4,4.14a6.6,6.6,0,0,0-2,3,8.85,8.85,0,0,0-.28,3.4,5.65,5.65,0,0,0,1.71,3c2.33,2.77,4.8,5.42,7.31,8s4.88,5.15,7.44,7.59c2.14,2,4.61,2.48,7,.55a45.59,45.59,0,0,0,3.87-3.87l3.9-4,8-8.07q7.94-8,15.9-15.94,16-16.05,32-32.13l32-32.17q16-16.1,32-32.21c1.86-1.88,4.22-5,7.25-4.42a7.34,7.34,0,0,1,3.51,2.14c1.34,1.27,2.59,2.64,3.88,4q7.94,8.11,15.91,16.17c10.55,10.67,21.14,21.3,31.63,32s20.83,21.42,31.41,32,21.37,20.87,31.86,31.49q4,4,7.91,8.06c1.29,1.32,2.58,2.65,3.88,4a23.62,23.62,0,0,0,3.66,3.48c2.86,1.91,5.14,0,7.18-2.11,2.49-2.54,5.05-5,7.6-7.49s5.15-5.07,7.61-7.72a3.65,3.65,0,0,0,1.4-2.82,7.73,7.73,0,0,0-.71-3.25,14.08,14.08,0,0,0-2.89-3.33q-2-2.07-4-4.12-3.86-4-7.75-7.94c-10.53-10.69-21.15-21.29-31.75-31.92s-21.38-21.41-32.06-32.12-21.36-21.42-32-32.16-21.28-21.5-31.92-32.24l-7.67-7.71a36.73,36.73,0,0,0-3.59-3.47C346.32,342.91,344.88,342.11,343.55,341.18ZM205.89,635.8c-4.88,5-9.66,10.16-14.6,15.14-1.16,1.16-2.33,2.29-3.49,3.44a8.37,8.37,0,0,0-2.45,3.72c-.8,3.2,2.19,5.56,4.19,7.54q15.92,15.86,31.62,31.93c10.5,10.78,21,21.6,31.6,32.24s21.32,21.06,32,31.59,21.34,21.2,32,31.85q8,8,16,16.08l3.91,4a37.39,37.39,0,0,0,4,3.86c2.37,1.76,4.81,1.41,6.95-.52,2.69-2.43,5.07-5.3,7.56-7.94s5.07-5.34,7.66-8c5.31-5.35,10.68-10.63,16-15.94q16.14-16,32.3-32t32-32.11q15.88-16.08,31.78-32.13,7.95-8,15.86-16.07,3.88-4,7.76-8c1-1,2.49-2.13,3.09-3.5a6.54,6.54,0,0,0,.51-3.24c-.15-1.36-1.49-2.28-2.39-3.21-1.25-1.3-2.52-2.6-3.79-3.88q-3.92-3.93-7.89-7.79l-3.92-3.84a13.73,13.73,0,0,0-2-1.92c-.39-.25,0-.31-.54,0a2.59,2.59,0,0,0-.42.32l-1.17.9a68.19,68.19,0,0,0-7,6.34Q457,660.78,441,676.94t-32,32.07c-10.68,10.69-21.37,21.36-31.94,32.15q-8,8.12-15.83,16.3-4,4.08-7.9,8.17c-1.3,1.34-2.59,2.68-3.89,4a13.5,13.5,0,0,1-3.65,3.14c-2.95,1.41-5.29-1.12-7.15-3.09-2.53-2.7-5.12-5.34-7.72-8-5.21-5.24-10.48-10.42-15.69-15.65Q299.06,730,283,713.83c-10.55-10.64-20.92-21.47-31.52-32.07-10.37-10.38-20.94-20.56-31.18-31.06C215.49,645.75,210.7,640.76,205.89,635.8Zm137-137.25c-10.79,10.66-21.54,21.33-32.06,32.27-10.68,11.11-21.8,21.78-32.79,32.58q-4.14,4.07-8.25,8.18c-1.34,1.33-2.68,2.65-4,4a14.69,14.69,0,0,0-2.55,3.12c-1,1.95.22,3.58,1.53,5,2.49,2.75,5.25,5.3,7.91,7.89q16.64,16.27,32.94,32.87t32.62,33.37c2,2.09,4.42,4.73,7.5,2.9a20.5,20.5,0,0,0,3.84-3.55l4.15-4.28q8.21-8.41,16.49-16.75c10.94-11,22-21.92,33-32.89,5.25-5.23,10.47-10.47,15.48-15.92l3.66-4,1.83-2,1-1.08.38-.41c.37-.4.36-.28.11-.67a13.8,13.8,0,0,0-2.12-2.06l-2.11-2.07-4.1-4-33.07-32.22L351.08,506.5Zm123,120.54-12-12-5.77-5.73-2.77-2.75-1.53-1.52c-.1-.1-.65-.77-.77-.76s-.72.66-.82.75c-3.86,3.52-7.79,7-11.62,10.53s-7.47,7.3-11.12,11c-8,8.18-15.93,16.46-24,24.62s-16.26,16.35-24.42,24.49l-12.37,12.37-6,6.06c-1.9,1.91-3.72,4-5.8,5.71-1.2,1-2.6,1.83-4.19,1.22-2.1-.82-3.76-2.95-5.32-4.48-4.08-4-8.17-8-12.27-12-16.41-16.09-32.32-32.68-48.45-49.07-7.78-7.9-15.73-15.63-23.73-23.32q-3-2.93-6.08-5.86c-.26-.25-1.29-1.56-1.61-1.56s-1.1,1.07-1.32,1.28l-3.13,3L228.57,613l-6,5.89-.27.26c-.35.17-.35.35,0,.53.11.23.46.47.64.66l1.33,1.41,2.71,2.87c3.64,3.84,7.37,7.59,11.09,11.35q12.15,12.3,24.31,24.57c16.23,16.4,32.37,32.89,48.68,49.21q12.3,12.32,24.61,24.61l2.91,2.92a15.1,15.1,0,0,0,3.25,2.83c2.11,1.14,4.12.26,5.76-1.27,2.07-1.92,4-4.06,5.93-6.09l5.94-6.1c16.12-16.54,32.47-32.85,48.81-49.17l24.61-24.57c7.65-7.64,15.4-15.19,22.85-23C459.09,626.3,462.46,622.68,465.87,619.09Zm-2.59-77.53c-.6-.94-1.09-2-1.79-2.86a41,41,0,0,0-2.85-3.05c-1.93-2-3.89-4-5.84-6q-6-6.12-11.89-12.28C433,509.19,425,501,417,492.94c-16-16-32.14-31.91-48-48.1l-12-12.25-6-6.11c-1.66-1.69-3.35-4-5.58-4.94s-4.31.1-6,1.7l-6.05,5.87c-4,3.92-8.05,7.85-12,11.84-16.07,16.24-32.05,32.56-48.12,48.8-15.26,15.42-30.88,30.49-45.93,46.12a8.87,8.87,0,0,0-2.62,4.19c-.44,2.16.8,4,2.22,5.47q5.76,6.08,11.73,12c1.65,1.62,3.37,3.72,5.77,4.16s4.29-1,5.85-2.59c4-4,8-7.92,12.08-11.85C278.6,531.45,294.19,515,310,498.87c7.93-8.07,15.86-16.16,23.87-24.15,2-2,3.91-4,5.94-5.87,1.68-1.6,3.76-2.28,5.93-1.2,2.33,1.16,4.08,3.58,5.85,5.43,1.95,2,3.91,4.06,5.88,6.08q11.76,12.1,23.9,23.82c8.06,7.78,16,15.71,23.8,23.72q12,12.25,24,24.56l6,6.14c1.69,1.72,3.41,3.74,5.94,4.11,2.33.33,4.38-1,6-2.5,2-1.89,4-3.81,5.92-5.72s3.85-3.74,5.73-5.66A43.81,43.81,0,0,0,463.28,541.56Zm-233.5,40.16-.46-1.68a5.41,5.41,0,0,0-.36-1.34,7.85,7.85,0,0,0-1.33-1.24l-1.34-1.24-5-4.58c-3.34-3.09-6.68-6.2-9.92-9.4-1.3-1.29-2.73-2.54-4.63-2.76a6,6,0,0,0-4.54,1.65,109.58,109.58,0,0,0-9.08,9.33q-2.28,2.49-4.45,5.07c-1.08,1.28-2.4,2.47-2.7,4.19a7.19,7.19,0,0,0,.39,4.18,9.37,9.37,0,0,0,1.52,1.93q1.16,1.32,2.34,2.61c2.92,3.18,6,6.25,9.12,9.22,1.23,1.16,2.48,2.73,4.11,3.32a6.47,6.47,0,0,0,4,.26,8.91,8.91,0,0,0,2.36-1.8c1-.82,1.93-1.65,2.89-2.48q2.88-2.49,5.7-5C222.27,588.54,226,585.11,229.78,581.72ZM481.08,559c-1.51.76-3.33,1.21-4.61,2.34-1.58,1.4-3,3.07-4.42,4.61-3,3.17-5.89,6.37-8.9,9.49-1.22,1.26-3.16,2.67-3.34,4.55s1.34,3,2.44,4.19c3.11,3.19,6.19,6.4,9.3,9.59,1.56,1.6,3.11,3.19,4.68,4.77,1.31,1.32,2.72,3.31,4.68,3.6s3.35-1.06,4.57-2.27q2.32-2.31,4.67-4.6c3.18-3.1,6.36-6.19,9.46-9.36,1.1-1.13,2.61-2.33,3-4s-.74-3-1.84-4c-3.33-3.18-6.38-6.58-9.45-10-1.51-1.69-3-3.45-4.66-5A55.5,55.5,0,0,0,481.08,559Z"/><path class="cls-1" d="M1630.25,487v99.35l1.39.68c5.4-4.56,10.86-9.06,16.18-13.71,12.76-11.15,25.35-22.48,38.2-33.52,5.55-4.77,12.44-3,18.91-2.67.09,0,.63,3,0,3.58-8.28,7.23-16.79,14.2-25.12,21.38-5.26,4.53-10.32,9.29-15.72,14.17l43.57,62.7c-6.47,0-11.52.37-16.46-.21-1.64-.19-3.25-2.64-4.43-4.36-9.84-14.42-19.57-28.92-29.34-43.4-3.14-4.65-4.87-4.86-9.51-.92-4.94,4.19-10,8.22-14.61,12.79a12.13,12.13,0,0,0-3.3,7.33c-.42,8-.32,16.12-.09,24.17.11,3.9-1.37,5-5.1,5-9.7.07-9.71.23-9.71-9.28V498.23C1615.12,486,1616.37,485,1630.25,487Z"/><path class="cls-1" d="M1166.92,620.65c5,1.64,9.64,3.09,14.2,4.62a51.48,51.48,0,0,0,34.8-.56c6-2.17,9.13-13.44,4.81-18.5-4.19-4.89-9.79-7.4-15.92-9.58-14.42-5.11-30.06-8.23-39.16-23-3.69-6-3-18.92,1.86-25.16,6-7.66,14.41-10.85,23.24-12.14,8.25-1.21,16.82-.82,25.2-.31,5.55.34,11.08,1.86,16.46,3.4a6.38,6.38,0,0,1,3.62,4.3c.55,3.51.16,7.16.16,11.56-3.22-.77-5.66-.94-7.71-1.92a56,56,0,0,0-30.73-5.34c-6.47.73-13.38,1.76-17.32,8.39-2.57,4.33-3.43,9.15.42,12.5a60.9,60.9,0,0,0,15.25,9.59c11.57,5.08,24.75,6.45,34.47,15.74,6.9,6.6,8.43,14.2,7,23.49-1.31,8.27-5.73,13.56-12.47,17.34a37.72,37.72,0,0,1-11,4.17c-14.74,2.87-29.39,2.34-43.5-3.13-2-.77-3.66-3.71-4.45-6-.74-2.11-.16-4.71-.05-7.08A10.74,10.74,0,0,1,1166.92,620.65Z"/><path class="cls-1" d="M1579.18,612.62c2.58,14.6-2,21.38-14.92,24-5.3,1.08-10.56,2.37-15.86,3.47-13.16,2.74-25.51-.37-36.69-6.9-6.93-4.05-12.11-10.52-16.39-17.63-7.52-12.5-7.39-26.2-5.92-39.7,1.18-10.71,7-19.84,15-27.38,14.68-13.83,32.66-14.61,50.88-12,7.35,1.06,14.33,5.34,21.2,8.71,3.33,1.63,5.28,12.19,3.07,15-.6.76-3.25.7-4.46.07-3.65-1.9-6.82-4.81-10.58-6.34a103.42,103.42,0,0,0-17.56-5.53c-15.43-3.24-34.71,5.25-40.29,22.55-5.44,16.86-3.27,32,7.7,45.64a29.66,29.66,0,0,0,20.53,10.83,51.79,51.79,0,0,0,39.44-12A42.21,42.21,0,0,1,1579.18,612.62Z"/><path class="cls-1" d="M1298.28,511.92c.18,3.77.41,7.12.47,10.48.24,14.72-2.51,14.45,14.61,14.36,5.86,0,11.72,0,17.58,0,9.21,0,9.57.25,9.58,6.44,0,6.43-.41,6.73-9.87,6.73-8.24,0-16.49.14-24.73,0-5.25-.11-7.41,1.69-7.28,7.36.36,15.93-.21,31.88.33,47.79.19,5.43,2.14,11,4.13,16.11,1.8,4.64,6.41,6.66,11.05,6.33,8.58-.62,17.11-2.09,26.45-3.3,0,2.7,1,6.68-.32,9.68-1,2.34-4.64,4.22-7.46,5-12.42,3.45-25,3.5-36.37-3a22.08,22.08,0,0,1-10.69-15.55c-3.75-20.87-1.52-41.93-2.06-62.9-.2-7.42,0-7.42-7.72-7.49a16,16,0,0,0-2.19,0c-5.53.76-6.23-2.41-6.31-6.94-.08-4.78,1.6-6.46,6.41-6.32,10.75.32,9.75.44,9.77-9.8,0-8.6.81-9.78,8.72-12.78C1294,513.47,1295.67,512.88,1298.28,511.92Z"/><path class="cls-1" d="M843.91,537.17a56,56,0,0,0-21-29.08,62.62,62.62,0,0,0-37.54-12.35c-12.81,0-25.63.1-38.43-.24-5.24-.14-7,1.56-6.92,6.88.26,21.6.11,43.21.11,64.81,0,22.15.09,44.3-.07,66.45,0,4.3,1.44,5.88,5.7,5.77,7.5-.21,15-.14,22.52,0,13.92.18,27.69-.5,40.94-5.43,14.12-5.24,25.33-14.29,31.06-28.08,4.24-10.21,6.4-21.41,8.44-32.36C851,561.05,847.63,549.13,843.91,537.17Zm-13,51c-3.29,15.68-12.06,27.58-27.94,34-9.62,3.87-19.39,2.45-29,3.73-4.13.55-8.41.16-12.62,0-4.45-.15-6.91-1.86-6.83-7.06.27-17,.1-34.06.1-51.09q0-25,0-50c0-8.13,1.84-10.28,10.08-9.79,10.91.66,22,.93,32.59,3.42,14.76,3.49,24.84,13.14,31.1,27.43C835.48,555.14,834.33,571.73,830.88,588.16Z"/><path class="cls-1" d="M1119.85,518.15c-5.78-8.93-13.42-16-23.18-19.65-11.92-4.49-24.19-6.2-37.36-3.65-14.69,2.84-26.21,9.77-34.55,21.5a74.45,74.45,0,0,0-12.93,32.11c-3.24,20.48-2.35,39.79,6.85,58.72,7,14.47,16.86,24.76,32.5,30.14,16,5.51,31.87,5.06,46.61-1.65,16.8-7.64,26.44-22.67,31.19-40.16,2.56-9.42,3-19.39,4.48-29.11C1133.27,548.9,1129.33,532.83,1119.85,518.15ZM1111,601.39c-9.25,20.79-28.21,31.93-53,23.86-14.57-4.74-22.87-15-27.74-29.17-3.93-11.37-6.27-22.87-5.2-34.82,1.06-11.76,3.45-23.6,9.53-33.63,6.44-11,19.41-19.47,35.89-20.35,16.94-.89,29.2,6.53,37.8,21.29,7,12,9.28,24.67,8.89,39A73.1,73.1,0,0,1,1111,601.39Z"/><path class="cls-1" d="M984.5,622.77c-3.23-9.38-6.43-18.78-9.83-28.1-4.86-13.35-9.95-26.6-14.83-39.94-2.34-6.42-4.28-13-6.64-19.39-3.87-10.49-8.23-20.8-11.84-31.37-2.64-7.74-2.91-8.39-10.85-8.38-1.65,0-3.56-.46-4.88.21-1.91,1-4.24,2.49-4.9,4.31-4.92,13.54-9.42,27.23-14.16,40.83-2.25,6.43-4.83,12.74-7.11,19.17-3.57,10-6.81,20.23-10.56,30.22-4.6,12.3-9.69,24.41-14.33,36.69-1.4,3.72-2,7.74-3.19,12.33,2.89,0,4.9-.17,6.86,0,4.54.47,8.23-.22,9.54-5.46a89,89,0,0,1,2.78-8.71c2.76-7.63,5.78-15.17,8.33-22.87,1.27-3.84,3.19-5.61,7.41-5.56,14.65.19,29.3.07,44,.07,9.8,0,10.63.85,13.57,10.06s6.11,18.11,9.57,27c.81,2.09,2.9,4.68,4.83,5.12,3.61.82,7.53.23,11.76.23C987.88,632.94,986.25,627.83,984.5,622.77ZM949.33,584.9c-12.62.05-25.25.07-37.87,0-5.71,0-6.33-1-4.35-6.61q7.53-21.12,15.14-42.2c2.33-6.5,4.71-13,7.07-19.47l2.49.31c2.38,7.07,4.69,14.17,7.18,21.21s5.16,14.19,7.82,21.26c2.4,6.38,5,12.67,7.3,19.1C955.69,583,954.19,584.88,949.33,584.9Z"/><path class="cls-1" d="M1467.83,631c-.06-1.15-2.93-3.22-4.25-3-8.78,1.24-12-3.85-11.86-12.11.24-17-.27-34.09.08-51.13.37-18.29-12.92-26.79-27.84-28.53-15.46-1.81-31-1.26-46.19,2.94a4.83,4.83,0,0,0-2.9,3.1,42.38,42.38,0,0,0-.23,8.21c.06,3.22,1.92,3.12,4.52,2.73,12.35-1.88,24.69-4.09,37.13-4.95,4.64-.32,10,1.83,14.18,4.37,7.79,4.78,6.39,13.19,6,20.77,0,.91-2.52,2.33-4,2.45-11.6,1-23.23,1.58-34.82,2.65-14.42,1.33-25.38,7.47-30.21,22.2-3.22,9.8.88,28.15,11.32,33.77,6.53,3.51,13.3,5.18,20.57,6.16a42.74,42.74,0,0,0,22.34-3c5.6-2.3,10.91-5.32,17.22-8.46,5.12,11.38,14.21,13.65,25.63,10.42C1469.76,638.08,1468,634.05,1467.83,631Zm-31.22-18.4c-.28,2.74-2.69,5.85-5,7.68-9.94,7.82-21.71,8.51-33.62,7.12-10.56-1.23-17.73-11.32-16.89-19.28.78-7.39,5.72-15.75,11.42-17.69,6.83-2.33,24.83-2.87,24.83-3,4,0,10.7.19,14.71,0,3.2-.15,4.79.95,4.77,4.3C1436.77,598.71,1437.31,605.71,1436.61,612.59Z"/></g></svg>