<svg id="Layer_1" data-name="Layer 1" xmlns="http://www.w3.org/2000/svg" xmlns:xlink="http://www.w3.org/1999/xlink" viewBox="0 0 1860 1160"><defs><style>.cls-1{fill:none;}.cls-2{clip-path:url(#clip-path);}.cls-3{fill:#fff;}.cls-4{fill:#f2f2f2;}.cls-5{fill:#e5e5e5;}</style><clipPath id="clip-path"><rect class="cls-1" x="229.35" y="111.69" width="1403.31" height="936.61"/></clipPath></defs><title>art16-rsk</title><g id="RSK"><g class="cls-2"><g class="cls-2"><path class="cls-3" d="M470.54,152.94h.06c58.19,53.38,89.57,105.81,91.52,155q.36,68.72-74.3,133.23V318.39a17.26,17.26,0,0,0-17.26-17.26Z"/><path class="cls-4" d="M470.56,301.13a17.26,17.26,0,0,0-17.25,17.26V441.21Q378.67,376.7,379,308c2-49.23,33.31-101.66,91.53-155Z"/><path class="cls-3" d="M791.56,593a16.23,16.23,0,0,0-10.18-7.27c-5.45-1.15-9-.55-13.13,2l-14.74,9.21c18.14-52.27,68.47-39.1,89.27-34.18Z"/><path class="cls-4" d="M842.78,562.74c-5.75,20.59-18.55,71-73.07,61.64l15.19-8.47c4.27-2.41,6.4-5.22,8.12-10.53A14.65,14.65,0,0,0,791.56,593Z"/><path class="cls-5" d="M867.48,533.9s-63.75-24.06-106.38-.83c-24.82,13.54-42.56,41.31-47.81,85.17l-20.94,12.07a56.55,56.55,0,0,0-74.79.16h-.12l-91.77-53a56.7,56.7,0,0,0-37.91-66.63V486.49l8.34-6.22h0q104.7-82.71,101.25-173.08-1.2-92.31-115.12-191a17.88,17.88,0,0,0-10-4.48h-3.32a17.83,17.83,0,0,0-10,4.48q-113.91,98.7-115.13,191Q340.17,397.57,445,480.27l8.3,6.2v24.36a56.58,56.58,0,0,0-38,66.69l-91.76,53A56.65,56.65,0,1,0,269,727v105a56.64,56.64,0,1,0,56,95.12l90.24,52.09a57.3,57.3,0,0,0-1.38,12.45,56.64,56.64,0,1,0,111.91-12.41L616,927.07A56.64,56.64,0,1,0,672,832V727a56.6,56.6,0,0,0,38.12-67.07l19.54-11.4c41.81,17.44,75.35,15.47,99.55.06C870.18,622.45,879.92,555,879.92,555c2.08-8.36-5-19.14-12.44-21.1M599.75,660.12a56.85,56.85,0,0,0-.37,23.88l-90.72,52.37a56.31,56.31,0,0,0-20.9-12.11V618.75A56.44,56.44,0,0,0,508,607.17ZM495.92,778.19a25.47,25.47,0,1,1-25.46-25.48,25.5,25.5,0,0,1,25.46,25.48M379,308c2-49.23,33.31-101.66,91.53-155h.06c58.2,53.38,89.57,105.81,91.52,155q.36,68.72-74.3,133.23V318.39a17.26,17.26,0,1,0-34.51,0V441.21Q378.61,376.7,379,308m91.51,231.35A25.47,25.47,0,1,1,445,564.8a25.49,25.49,0,0,1,25.47-25.47m-37.54,67.86a56.4,56.4,0,0,0,20.33,11.58V724.22a56.61,56.61,0,0,0-21,12.15L341.53,684a55.32,55.32,0,0,0,1.09-11.06,56.4,56.4,0,0,0-1.44-12.76Zm-172.4,65.73A25.47,25.47,0,1,1,286,698.38a25.5,25.5,0,0,1-25.46-25.46M286,911.42A25.48,25.48,0,1,1,311.45,886,25.49,25.49,0,0,1,286,911.42m37.34-68a56.51,56.51,0,0,0-19.86-11.32V726.79a56.61,56.61,0,0,0,21.32-12.62l90.3,52.11a56.84,56.84,0,0,0,.06,24.08Zm18.27,53.39a57.11,57.11,0,0,0-.47-23.8l91.37-52.77a56.18,56.18,0,0,0,20.76,11.94V937.62a56.45,56.45,0,0,0-20.56,11.77Zm128.87,120.27a25.48,25.48,0,1,1,25.46-25.46,25.5,25.5,0,0,1-25.46,25.46M599.34,896.83l-91.07,52.58a56.81,56.81,0,0,0-20.51-11.77V832.13a56.69,56.69,0,0,0,20.71-11.94l91.34,52.73a57.17,57.17,0,0,0-1.52,13,56.51,56.51,0,0,0,1.05,10.87M525.79,790.32a57,57,0,0,0,.06-24l90.3-52.13a56.28,56.28,0,0,0,21.37,12.64V832.05a56.64,56.64,0,0,0-19.91,11.32ZM680.39,886a25.46,25.46,0,1,1-25.46-25.49A25.48,25.48,0,0,1,680.39,886M655.05,698.38a25.47,25.47,0,1,1,25.47-25.46,25.51,25.51,0,0,1-25.47,25.46m114.6-74,15.19-8.48c4.27-2.41,6.4-5.21,8.12-10.52,3.16-9.68-4-18.1-11.64-19.68-5.45-1.15-9-.55-13.13,2l-14.74,9.21c18.13-52.27,68.47-39.09,89.27-34.17-5.74,20.58-18.55,71-73.07,61.63"/><path class="cls-3" d="M965.76,1043l-.55.56a19.06,19.06,0,0,1-12.19,4.54h-.46a19.63,19.63,0,0,1-12.56-4.37,16.17,16.17,0,0,1-5.65-10l4.09-.63a11.93,11.93,0,0,0,4.28,7.46,15.77,15.77,0,0,0,19.94-.28,14.69,14.69,0,0,0,4.46-11.37,12.73,12.73,0,0,0-5.37-10c-3.46-2.55-6.82-3.28-10.1-4.11-3.93-.91-8-1.82-11.65-5.55-3.48-3.55-5.37-7.82-5.2-12.11a14.88,14.88,0,0,1,4.92-10.29,18.44,18.44,0,0,1,12.57-4.55A18.81,18.81,0,0,1,964.85,987a15.42,15.42,0,0,1,4.54,6.91l-4.18.64a11.39,11.39,0,0,0-3.09-4.47,15.26,15.26,0,0,0-19.4-.26,10.62,10.62,0,0,0-3.73,7.55c-.18,3.1,1.27,6.2,4,9s5.91,3.53,9.56,4.44,7.55,1.74,11.66,4.84a17.44,17.44,0,0,1,7.09,13,18.84,18.84,0,0,1-5.55,14.38"/><polygon class="cls-3" points="1037.59 983.57 1037.59 1047.32 1033.5 1047.32 1033.5 991.31 1009.99 1020.91 985.41 991.13 985.41 1047.32 981.31 1047.32 981.31 983.57 984.58 983.57 1009.91 1014.35 1034.31 983.57 1037.59 983.57"/><path class="cls-3" d="M1073.37,983.29l25.2,64h-4.44l-4.92-12.49c-3.28,1.29-8.83,2.75-17,2.75s-14-1.56-17.13-2.83l-4.82,12.57h-4.46l24.77-64Zm14.28,47.73L1072,991.14l-15.37,39.78c.54.18,1.17.45,1.9.63a43.85,43.85,0,0,0,13.67,1.92c7.65,0,12.74-1.36,15.47-2.45"/><path class="cls-3" d="M1131.07,1024.28l13.65,23h-4.82l-13.3-22.5a53.44,53.44,0,0,1-15.66-1.54v24h-4.19V985.13l1.46-.45c.83-.28,20.41-6.31,31.61,1.89,4.9,3.66,7.37,9.39,7.37,17s-2.47,13.39-7.37,17a23.58,23.58,0,0,1-8.75,3.65m6.28-7c3.73-2.82,5.65-7.39,5.65-13.67s-1.92-10.83-5.65-13.65c-7.92-5.83-21.95-2.92-26.41-1.74V1019c4.46,1.18,18.49,4.11,26.41-1.72"/><polygon class="cls-3" points="1193.16 987.4 1174.95 987.4 1174.95 1047.32 1170.86 1047.32 1170.86 987.4 1152.64 987.4 1152.64 983.29 1193.16 983.29 1193.16 987.4"/><polygon class="cls-3" points="1237.77 1043.21 1237.77 1047.32 1200.43 1047.32 1200.43 983.49 1236.68 983.49 1236.68 987.58 1204.62 987.58 1204.62 1019.72 1229.21 1019.72 1229.21 1023.91 1204.62 1023.91 1204.62 1043.21 1237.77 1043.21"/><path class="cls-3" d="M1272.08,1024.28l13.65,23h-4.82l-13.29-22.5a53.52,53.52,0,0,1-15.67-1.54v24h-4.19V985.13l1.46-.45c.82-.28,20.39-6.31,31.6,1.89,4.91,3.66,7.38,9.39,7.38,17s-2.47,13.39-7.38,17a23.39,23.39,0,0,1-8.74,3.65m6.28-7c3.74-2.82,5.66-7.39,5.66-13.67s-1.92-10.83-5.66-13.65c-7.92-5.83-21.94-2.92-26.41-1.74V1019c4.47,1.18,18.49,4.11,26.41-1.72"/><path class="cls-3" d="M1361.3,1016a19.35,19.35,0,0,1,4.64,12.28c0,6.56-2.19,11.48-6.46,14.76s-10.29,4.29-15.77,4.29a57.4,57.4,0,0,1-14.93-2.1l-1.46-.37V985.58l1.46-.45c.73-.2,17.21-4.84,26.24,1.9,3.73,2.82,5.64,7.11,5.64,12.76,0,4.82-1.38,8.65-4.2,11.46-.08.1-.26.19-.36.37a19.59,19.59,0,0,1,5.2,4.37m-29.77-4h9.81c5.57,0,9.66-1.19,12.21-3.64a12,12,0,0,0,3-8.55c0-4.39-1.37-7.47-4-9.49-3.81-2.82-9.63-3-13.92-2.72a51.33,51.33,0,0,0-7.09,1.18Zm30.3,16.29a15.08,15.08,0,0,0-3.73-9.56,13.71,13.71,0,0,0-6.09-4.44,25.56,25.56,0,0,1-10.47,1.89h-10v25.51a69.62,69.62,0,0,0,8.83,1.36c9.18.63,14.1-1.46,16.57-3.28,3.26-2.45,4.9-6.18,4.9-11.48"/><rect class="cls-3" x="1376.85" y="983.29" width="4.19" height="64.03"/><polygon class="cls-3" points="1430.66 987.4 1412.44 987.4 1412.44 1047.32 1408.35 1047.32 1408.35 987.4 1390.14 987.4 1390.14 983.29 1430.66 983.29 1430.66 987.4"/><path class="cls-3" d="M1490.83,1033.92a27.19,27.19,0,0,1-3.81,4.75,31.44,31.44,0,0,1-21.5,9.64h-1.18a31.57,31.57,0,0,1-21.57-9.64,33.42,33.42,0,0,1,0-46.45,31.55,31.55,0,0,1,21.57-9.66h1.18a31.42,31.42,0,0,1,21.5,9.66,27.12,27.12,0,0,1,3.81,4.74l-3.81,1.72a27.74,27.74,0,0,0-22.13-11.91c-15.13.26-27.32,13-27.32,28.67s12.19,28.42,27.32,28.78a28.11,28.11,0,0,0,22.13-12Z"/><path class="cls-3" d="M1528.32,1048.31h-1.18a30.86,30.86,0,0,1-21.47-9.74,34,34,0,0,1,0-46.9,30.86,30.86,0,0,1,21.47-9.74h1.18a31.22,31.22,0,0,1,21.5,9.74,34.27,34.27,0,0,1,0,46.9,31.22,31.22,0,0,1-21.5,9.74m-.63-62.27c-15.11.35-27.22,13.29-27.22,29s12.11,28.78,27.22,29.14c15.12-.36,27.33-13.3,27.33-29.14s-12.21-28.69-27.33-29"/><rect class="cls-3" x="1570.01" y="983.29" width="4.19" height="64.03"/><polygon class="cls-3" points="1632.65 983.49 1632.65 1047.32 1629.65 1047.32 1591.05 992.12 1591.05 1047.32 1586.94 1047.32 1586.94 983.57 1590.14 983.57 1628.47 1038.49 1628.47 983.49 1632.65 983.49"/><polygon class="cls-3" points="1460.39 769.5 1620.94 613.28 1571.39 613.28 1442.92 738.15 1442.92 614.58 1407.9 614.58 1407.9 934.2 1442.92 934.2 1442.92 800.77 1573.47 932.92 1622.44 932.92 1460.39 769.5"/><path class="cls-3" d="M1109,804.41c25.31-18.73,38.15-48,38.15-87s-12.84-68.24-38.17-87c-19.85-14.51-46.64-21.86-79.63-21.86-41.29,0-77.2,11.57-77.42,11.65L939.76,624V932.84h35V820.37a265.58,265.58,0,0,0,53.49,6c3.17,0,6.29-.08,9.33-.24l63.1,106.76h40.51l-66.55-112.23a117,117,0,0,0,34.2-16Zm3.14-87c0,27.1-8,46.9-23.78,58.83-13.75,10.11-33.53,15.23-58.75,15.23-22.34,0-43.23-4-54.88-6.82V650.18c11.65-2.77,32.54-6.82,54.88-6.82,25.22,0,45,5.12,58.67,15.18,15.82,12,23.86,31.78,23.86,58.89"/><path class="cls-3" d="M1331.53,768.44c-20.65-15.59-40.46-20.17-58-24.21l-1.77-.43c-16.34-4.07-29.24-7.27-40.35-18.75-11.81-12.2-17.68-25.07-16.94-37.39.35-11.26,5.47-21.54,15.21-30.56,10.74-9,25-14,40.18-14,15.94,0,30.9,5.43,42.14,15.31a46.3,46.3,0,0,1,12.68,18.29l2.19,5.63,34.65-5.29-2.7-8.42A81.3,81.3,0,0,0,1335,632.36c-17.32-15.37-40.34-23.84-64.8-23.84-25,0-46.18,7.62-64.65,23.31l-.3.26c-15.86,14.95-24.77,33.64-25.76,54.12-.93,22,8.59,44.49,26.85,63.2,18.61,19.09,39.7,24,58.31,28.31l3.52.85c14.58,3.61,28.35,7,42.67,17.6,13.73,9.9,21.69,24.77,22.46,42,1.13,17.4-5.75,34.93-18.86,48.16-11.42,10-26.65,15.49-43,15.49-15.67,0-30.58-5.15-41.9-14.46-10-8.44-16.28-19.36-17.74-30.74l-1-7.66-34.49,5.37,1.05,7.37c2.86,20,13.31,38.56,29.53,52.41,18,14.78,40.36,22.58,64.58,22.58h2.31c23.51-.46,45.83-8.83,62.84-23.57l3-3a98.07,98.07,0,0,0,28.61-74.32c-1.92-27.48-15.37-52.09-36.76-67.44"/></g></g></g></svg>