<svg id="Layer_1" data-name="Layer 1" xmlns="http://www.w3.org/2000/svg" viewBox="0 0 1860 1160"><defs><style>.cls-1{fill:#fff;}.cls-2{fill:#d6d6d6;}.cls-3{fill:none;}</style></defs><title>art20-thundercore</title><path class="cls-1" d="M403,640.25c2.52-.26,4.08-.7,4.68-1.29a3.12,3.12,0,0,0,.9-2.3V562.05H374.24a2.79,2.79,0,0,0-2.4,1.09,10.63,10.63,0,0,0-1.19,4.49h-2.4V532.12h2.4a10.58,10.58,0,0,0,1.19,4.49,2.77,2.77,0,0,0,2.4,1.1h98.55a2.79,2.79,0,0,0,2.4-1.1,10.58,10.58,0,0,0,1.19-4.49h2.4v35.51h-2.4a10.63,10.63,0,0,0-1.19-4.49,2.81,2.81,0,0,0-2.4-1.09H438.48v74.61a3.15,3.15,0,0,0,.89,2.3c.6.59,2.17,1,4.69,1.29v2.4H403Z"/><path class="cls-1" d="M529.05,636.66c0,1.47.53,2.4,1.6,2.8a15.27,15.27,0,0,0,4,.79v2.4H496.73v-2.4a15.27,15.27,0,0,0,4-.79c1.07-.4,1.6-1.33,1.6-2.8V560.85a2.63,2.63,0,0,0-1.6-2.79,14.84,14.84,0,0,0-4-.8v-2.4h37.91v2.4a14.84,14.84,0,0,0-4,.8,2.63,2.63,0,0,0-1.6,2.79V586h44.09V560.85a2.63,2.63,0,0,0-1.59-2.79,15,15,0,0,0-4-.8v-2.4h37.9v2.4a14.84,14.84,0,0,0-4,.8,2.63,2.63,0,0,0-1.6,2.79v75.81c0,1.47.53,2.4,1.6,2.8a15.27,15.27,0,0,0,4,.79v2.4h-37.9v-2.4a15.45,15.45,0,0,0,4-.79c1.06-.4,1.59-1.33,1.59-2.8V606.34H529.05Z"/><path class="cls-1" d="M637.38,560.85a2.61,2.61,0,0,0-1.69-2.79,16.37,16.37,0,0,0-4.09-.8v-2.4h35.91v2.4a8.53,8.53,0,0,0-2.19.8q-1.2.6-1.2,2.79v48.48q0,7.59,5.49,10.87t14.46,3.3c6,0,10.8-1.1,14.46-3.3s5.49-5.81,5.49-10.87V560.85q0-2.19-1.2-2.79a8.67,8.67,0,0,0-2.19-.8v-2.4h35.91v2.4a16.28,16.28,0,0,0-4.09.8,2.62,2.62,0,0,0-1.7,2.79v43.89a46.55,46.55,0,0,1-2.39,15.06,31,31,0,0,1-7.78,12.37,35.63,35.63,0,0,1-14.36,8.18q-9,2.89-22.15,2.9t-22.15-2.9a35.63,35.63,0,0,1-14.36-8.18,30.89,30.89,0,0,1-7.78-12.37,46.55,46.55,0,0,1-2.4-15.06Z"/><path class="cls-1" d="M866.22,636.66c0,1.47.53,2.4,1.6,2.8a15.27,15.27,0,0,0,4,.79v2.4H834.9v-2.4a19.75,19.75,0,0,0,3.69-.4c1.39-.26,2.09-1,2.09-2.19s-1.46-3.42-4.39-6.68-6.68-7.28-11.27-12.07-9.74-10.14-15.46-16.06-11.37-12.21-17-18.86l-.4.4v52.27c0,1.47.5,2.4,1.5,2.8a13.44,13.44,0,0,0,3.69.79v2.4H763.27v-2.4a13,13,0,0,0,3.49-.79c1-.4,1.5-1.33,1.5-2.8V560.85a2.63,2.63,0,0,0-1.6-2.79,14.34,14.34,0,0,0-3.79-.8v-2.4h47.49v2.4a10.93,10.93,0,0,0-2.8.8c-.93.4-1.39,1.33-1.39,2.79,0,.27,1.09,1.63,3.29,4.09s5,5.55,8.48,9.28,7.31,7.85,11.57,12.37l12.77,13.56v-39.3a2.63,2.63,0,0,0-1.6-2.79,14.84,14.84,0,0,0-4-.8v-2.4h35.12v2.4a14.84,14.84,0,0,0-4,.8,2.63,2.63,0,0,0-1.6,2.79Z"/><path class="cls-1" d="M901.13,560.85c0-1.46-.5-2.39-1.49-2.79a13.14,13.14,0,0,0-3.69-.8v-2.4H955.8q11.16,0,19,3.6A36,36,0,0,1,995,582a62.18,62.18,0,0,1,0,33.51,36.08,36.08,0,0,1-20.25,23.55q-7.79,3.59-19,3.59H896v-2.4a13.52,13.52,0,0,0,3.69-.79c1-.4,1.49-1.33,1.49-2.8Zm41.1,62.65q15.56,0,22.35-5.49t6.78-19.25q0-13.77-6.78-19.26T942.23,574H927.87V623.5Z"/><path class="cls-1" d="M1106.82,625.09q4,0,5.19-5h2.39v26.14h-2c-.67-1.86-1.37-2.93-2.09-3.19a11,11,0,0,0-3.5-.4h-89v-2.4a16.3,16.3,0,0,0,3.89-.79,2.63,2.63,0,0,0,1.7-2.8V560.85a2.62,2.62,0,0,0-1.7-2.79,15.81,15.81,0,0,0-3.89-.8v-2.4h90.58a4.26,4.26,0,0,0,2.39-.79c.8-.53,1.2-1.73,1.2-3.59h2.39v26.73H1112c0-2-.4-3.29-1.2-3.89a3.94,3.94,0,0,0-2.39-.9h-58.26v16.16h37.51a3.94,3.94,0,0,0,2.39-.9q1.2-.88,1.2-3.69h2.4v25.94h-2.4q0-2.79-1.2-3.69a3.94,3.94,0,0,0-2.39-.9h-37.51v19.75Z"/><path class="cls-1" d="M1146.13,560.85c0-1.46-.47-2.39-1.4-2.79a10.9,10.9,0,0,0-3-.8v-2.4h64q15,0,23.84,7t8.88,20.75q0,10.77-6.29,17a43.7,43.7,0,0,1-15.86,9.88l17.76,26.74a9,9,0,0,0,2.89,2.79,7.58,7.58,0,0,0,4.09,1.19v2.4h-40.3v-2.4a11.09,11.09,0,0,0,3.09-.49,2.07,2.07,0,0,0,1.7-2.1q0-1-2.1-5t-4.78-8.58l-5.19-8.78q-2.51-4.18-3.09-5.38h-19.16v26.73c0,1.47.5,2.4,1.5,2.8a13.44,13.44,0,0,0,3.69.79v2.4h-34.31v-2.4a11.76,11.76,0,0,0,2.59-.79c.93-.4,1.4-1.33,1.4-2.8Zm53.46,32.32q6.39,0,10.08-2.69t3.69-8.08a10.46,10.46,0,0,0-3.09-7.69c-2.07-2.05-6.09-3.09-12.07-3.09h-26.94v21.55Z"/><path class="cls-1" d="M1361.2,575a8,8,0,0,0,.29-1.3,11.77,11.77,0,0,0,.1-1.7c0-1.06-.89-2.12-2.69-3.19a31.51,31.51,0,0,0-7.18-2.89,82.8,82.8,0,0,0-10.28-2.2,79.17,79.17,0,0,0-12.17-.89,60.67,60.67,0,0,0-12.57,1.39,40.6,40.6,0,0,0-12.07,4.59,26.67,26.67,0,0,0-9,8.48,25.41,25.41,0,0,0,0,25.74,26.54,26.54,0,0,0,9,8.47,40.33,40.33,0,0,0,12.07,4.59,60,60,0,0,0,12.57,1.4,57.61,57.61,0,0,0,8.18-.9,98,98,0,0,0,11.18-2.49,67.06,67.06,0,0,0,9.87-3.59q4.29-2,4.29-4.19a2.81,2.81,0,0,0-.4-1.6,13.2,13.2,0,0,1-.8-1.39l2.2-1.4,20.55,31.32-2.4,1.4a2.21,2.21,0,0,0-1.09-1.3,4.34,4.34,0,0,0-1.7-.3,19.74,19.74,0,0,0-5.59,1.7,108.83,108.83,0,0,1-10.87,3.59,145.62,145.62,0,0,1-15.66,3.39,123,123,0,0,1-20.15,1.5,92.66,92.66,0,0,1-23.74-3.1,64,64,0,0,1-21.15-9.77,52.17,52.17,0,0,1-15.16-16.76q-5.79-10.07-5.79-23.44t5.79-23.44A52.27,52.27,0,0,1,1282,550a68.9,68.9,0,0,1,21.15-10.08,85.35,85.35,0,0,1,23.74-3.39,141.21,141.21,0,0,1,20.65,1.3,136.29,136.29,0,0,1,14.66,2.89c3.86,1.07,6.85,2,9,2.69a16.18,16.18,0,0,0,4.79,1.1,3.59,3.59,0,0,0,3-1.6l2.2.6-18,32.92Z"/><path class="cls-1" d="M1454.36,553.67a71.06,71.06,0,0,1,18.85,2.59,53.75,53.75,0,0,1,17.16,8.08,42.44,42.44,0,0,1,12.47,14.07q4.8,8.58,4.79,20.35,0,12-4.79,20.45a41.72,41.72,0,0,1-12.47,13.86,51.5,51.5,0,0,1-17.16,7.78,75.23,75.23,0,0,1-37.7,0,51.5,51.5,0,0,1-17.16-7.78,41.72,41.72,0,0,1-12.47-13.86q-4.79-8.49-4.79-20.45,0-11.78,4.79-20.35a42.44,42.44,0,0,1,12.47-14.07,53.75,53.75,0,0,1,17.16-8.08A71.06,71.06,0,0,1,1454.36,553.67Zm0,21.15a32.61,32.61,0,0,0-10.57,1.7,27.75,27.75,0,0,0-8.78,4.81,21.56,21.56,0,0,0-5.89,7.51,25,25,0,0,0,0,20,21.56,21.56,0,0,0,5.89,7.51,27.77,27.77,0,0,0,8.78,4.82,34,34,0,0,0,21.24,0,28,28,0,0,0,8.68-4.82,21.56,21.56,0,0,0,5.89-7.51,25,25,0,0,0,0-20,21.56,21.56,0,0,0-5.89-7.51,28,28,0,0,0-8.68-4.81A32.35,32.35,0,0,0,1454.36,574.82Z"/><path class="cls-1" d="M1534,560.85c0-1.46-.46-2.39-1.39-2.79a10.9,10.9,0,0,0-3-.8v-2.4h64q15,0,23.84,7t8.88,20.75q0,10.77-6.29,17a43.78,43.78,0,0,1-15.86,9.88L1622,636.27a8.9,8.9,0,0,0,2.89,2.79,7.58,7.58,0,0,0,4.09,1.19v2.4h-40.3v-2.4a11.09,11.09,0,0,0,3.09-.49,2.07,2.07,0,0,0,1.7-2.1q0-1-2.1-5t-4.79-8.58q-2.68-4.58-5.18-8.78t-3.1-5.38H1559.1v26.73c0,1.47.5,2.4,1.5,2.8a13.52,13.52,0,0,0,3.69.79v2.4H1530v-2.4a11.67,11.67,0,0,0,2.6-.79c.93-.4,1.39-1.33,1.39-2.8Zm53.47,32.32c4.26,0,7.61-.9,10.08-2.69s3.69-4.49,3.69-8.08a10.46,10.46,0,0,0-3.09-7.69c-2.07-2.05-6.09-3.09-12.08-3.09H1559.1v21.55Z"/><path class="cls-1" d="M1738.46,625.09q4,0,5.18-5h2.4v26.14h-2c-.67-1.86-1.37-2.93-2.1-3.19a10.92,10.92,0,0,0-3.49-.4h-89v-2.4a16.41,16.41,0,0,0,3.89-.79,2.62,2.62,0,0,0,1.69-2.8V560.85a2.61,2.61,0,0,0-1.69-2.79,15.91,15.91,0,0,0-3.89-.8v-2.4h90.58a4.31,4.31,0,0,0,2.39-.79c.8-.53,1.19-1.73,1.19-3.59h2.4v26.73h-2.4c0-2-.39-3.29-1.19-3.89a4,4,0,0,0-2.39-.9H1681.8v16.16h37.51a4,4,0,0,0,2.39-.9q1.2-.88,1.2-3.69h2.39v25.94h-2.39q0-2.79-1.2-3.69a4,4,0,0,0-2.39-.9H1681.8v19.75Z"/><path class="cls-2" d="M213.37,479.66A99.41,99.41,0,1,1,114,579.05,99.51,99.51,0,0,1,213.37,479.66Zm91.72,99.39a91.72,91.72,0,1,0-91.72,91.71A91.81,91.81,0,0,0,305.09,579.05Z"/><path class="cls-1" d="M213.37,487.36a91.7,91.7,0,1,1-91.71,91.69A91.81,91.81,0,0,1,213.37,487.36Zm52.9,84.2,11.7-38h-46.3L240,520.43l-20.55,13.15H165.42l-11.6,38h40.06L188,591.23,162.9,627.68,181,613.94l-.63,2.39L172.12,641h44.27L232.32,575l4.55-3.45Z"/><path class="cls-2" d="M278,533.58l-11.7,38h-29.4L232.32,575,216.39,641H172.12l8.26-24.62.63-2.39L162.9,627.68,188,591.23l5.9-19.67H153.82l11.6-38h54.07L240,520.43l-8.37,13.15Zm-15.8,32.31,8.32-25.58h-37L223.28,557l23.29,8.78Zm-80.84,42.46,52.73-40-23.3-9.78,1.44-2.32,13.89-21.79.11-.2-39.94,25.57,20.9,10.92Zm29.58,25.2,11.81-45.08-35.07,27.32L182,633.55Zm-39.48-73,31.63-20.19-33.92-.09-7.85,25.44,22.59.14Z"/><polygon class="cls-1" points="270.49 540.31 262.17 565.89 246.57 565.77 223.28 556.99 233.49 540.31 270.49 540.31"/><polygon class="cls-1" points="234.06 568.39 181.33 608.36 207.16 570.79 186.26 559.87 226.2 534.3 226.09 534.5 212.2 556.29 210.76 558.61 234.06 568.39"/><polygon class="cls-1" points="222.72 588.48 210.91 633.55 181.96 633.55 187.65 615.79 222.72 588.48"/><polygon class="cls-1" points="203.06 540.4 171.43 560.6 183.88 565.89 161.29 565.75 169.14 540.31 203.06 540.4"/><rect class="cls-3" x="113.96" y="479.67" width="200.67" height="200.67"/></svg>