<svg id="Layer_1" data-name="Layer 1" xmlns="http://www.w3.org/2000/svg" viewBox="0 0 1860 1160"><defs><style>.cls-1{fill:#fff;}</style></defs><title>art24-citi</title><path class="cls-1" d="M743.13,613.31c-4.64-4.26-9.11-8.61-13.85-12.65-16.74-14.27-35.46-24.94-57.17-29.39-55.72-11.44-117.73,16.16-136.46,81.53-9.87,34.41-7.46,68.32,9.25,100.33,16.49,31.57,42.82,50.91,77.61,58.3,39.32,8.36,73.93-2.28,104.61-27.31,5.51-4.5,10.64-9.47,16.1-14.37q21.78,26.36,44,53.22c-4.76,5.1-9.27,10.23-14.08,15-22.46,22.53-48.75,38.46-79.93,45.86-18.3,4.34-36.84,5.39-55.58,4.36-20-1.12-39.69-4.48-58.62-11.18-62.72-22.21-103.5-65-120.59-129.64-6.13-23.19-7.64-46.88-6.26-70.79,1.6-27.79,7.79-54.41,20.25-79.41,17.25-34.57,43.27-60.61,77.29-78.71,23.73-12.62,49.13-19.91,75.83-22.75,24.45-2.61,48.7-1.87,72.57,4.58a160.26,160.26,0,0,1,67.31,37.38c7.17,6.6,13.63,14,20.44,21,.95,1,1.17,1.73.15,2.95Q765,587,744,612.41C743.71,612.74,743.39,613,743.13,613.31Z"/><path class="cls-1" d="M1121.39,500.93h79.39v71.4h-79.24c0,1-.13,1.79-.13,2.56q0,99.86,0,199.71c0,7.6.6,15.1,3.08,22.36,4.18,12.22,13,18.66,25.52,20.26,15,1.9,29.29-1.18,43-7.05,7.8-3.34,15.21-7.6,22.78-11.48,1.29-.66,2.5-1.48,4.12-2.45a19.1,19.1,0,0,1-.27,1.92q-8.82,34.53-17.63,69.06a4.93,4.93,0,0,1-2.53,3.31c-22.59,13.3-47.13,18-73,16.34-17.87-1.11-34-7.06-47.85-18.51-13.68-11.27-22.49-25.78-27.87-42.5-4.17-13-5.66-26.37-5.66-40V572.54H979.3V501H1045v-3q0-36.15,0-72.3a3.42,3.42,0,0,1,2.12-3.55q36.06-19.2,72-38.52c.62-.34,1.28-.61,2.25-1.08Z"/><path class="cls-1" d="M780.47,437.85C843,344.12,960.64,271.5,1094.17,271.39c133.24-.1,251.38,72.32,314.13,166.41-.71.06-1.32.14-1.93.14q-42.76,0-85.53-.05a4.94,4.94,0,0,1-3.18-1.36c-28-28.59-59.88-51.63-96.26-68.38A302.88,302.88,0,0,0,1141.89,344a296.8,296.8,0,0,0-52.66-3.74,303.67,303.67,0,0,0-146.3,40.47,324.6,324.6,0,0,0-71.92,56,4.15,4.15,0,0,1-2.59,1.19q-43.42.09-86.86,0C781.28,437.94,781,437.9,780.47,437.85Z"/><path class="cls-1" d="M909.69,881.32H832.1V500.78h77.59Z"/><path class="cls-1" d="M1358.16,881.33h-77.6V500.77h77.6Z"/></svg>