<?xml version="1.0" encoding="utf-8"?>
<!-- Generator: Adobe Illustrator 24.0.3, SVG Export Plug-In . SVG Version: 6.00 Build 0)  -->
<svg version="1.1" id="Layer_1" xmlns="http://www.w3.org/2000/svg" xmlns:xlink="http://www.w3.org/1999/xlink" x="0px" y="0px"
	 viewBox="0 0 311.6 793.2" style="enable-background:new 0 0 311.6 793.2;" xml:space="preserve">
<style type="text/css">
	.st0{fill:url(#SVGID_1_);}
	.st1{fill:url(#SVGID_2_);}
	.st2{fill:url(#SVGID_3_);}
	.st3{fill:url(#SVGID_4_);}
	.st4{fill:url(#SVGID_5_);}
	.st5{clip-path:url(#SVGID_7_);}
	.st6{fill:url(#SVGID_8_);}
	.st7{clip-path:url(#SVGID_10_);}
	.st8{fill:url(#SVGID_11_);}
	.st9{clip-path:url(#SVGID_13_);}
	.st10{fill:url(#SVGID_14_);}
	.st11{fill:#961B1E;}
	.st12{clip-path:url(#SVGID_16_);}
	.st13{fill:url(#SVGID_17_);}
	.st14{clip-path:url(#SVGID_19_);}
	.st15{fill:url(#SVGID_20_);}
	.st16{clip-path:url(#SVGID_22_);}
	.st17{fill:url(#SVGID_23_);}
	.st18{clip-path:url(#SVGID_25_);}
	.st19{fill:url(#SVGID_26_);}
	.st20{fill:#6FBE44;}
	.st21{clip-path:url(#SVGID_28_);}
	.st22{fill:url(#SVGID_29_);}
	.st23{clip-path:url(#SVGID_31_);}
	.st24{fill:url(#SVGID_32_);}
	.st25{fill:#25144D;}
	.st26{fill:#010101;}
	.st27{fill:url(#SVGID_33_);}
	.st28{fill:#5F474E;}
	.st29{fill:#FFFFFF;}
	.st30{fill:#64C5B7;}
</style>
<title>asset-factory1</title>
<g id="Layer_2_1_">
	<g id="Layer_1-2">
		<g id="Layer_2-2">
			<g id="Layer_37">
				
					<linearGradient id="SVGID_1_" gradientUnits="userSpaceOnUse" x1="210.83" y1="2509.9751" x2="509.02" y2="2509.9751" gradientTransform="matrix(1 0 0 1 0 -2067.9102)">
					<stop  offset="0" style="stop-color:#9E7AB6"/>
					<stop  offset="0.14" style="stop-color:#A481BA"/>
					<stop  offset="0.33" style="stop-color:#B292C4"/>
					<stop  offset="0.56" style="stop-color:#CDB0D4"/>
					<stop  offset="0.58" style="stop-color:#D0B4D6"/>
					<stop  offset="0.76" style="stop-color:#DAC3DF"/>
					<stop  offset="1" style="stop-color:#EADEED"/>
				</linearGradient>
				<polygon class="st0" points="155.8,181.5 155.8,793.2 311.2,702.6 311.2,90.9 				"/>
				
					<linearGradient id="SVGID_2_" gradientUnits="userSpaceOnUse" x1="-382.899" y1="2243.8281" x2="494.711" y2="2750.5083" gradientTransform="matrix(1 0 0 1 0 -2067.9102)">
					<stop  offset="0" style="stop-color:#9E7AB6"/>
					<stop  offset="0.14" style="stop-color:#A481BA"/>
					<stop  offset="0.33" style="stop-color:#B292C4"/>
					<stop  offset="0.56" style="stop-color:#CDB0D4"/>
					<stop  offset="0.58" style="stop-color:#D0B4D6"/>
					<stop  offset="0.76" style="stop-color:#DAC3DF"/>
					<stop  offset="1" style="stop-color:#EADEED"/>
				</linearGradient>
				<polygon class="st1" points="0,702.4 155.9,793.2 155.9,181.5 0,90.7 				"/>
				
					<linearGradient id="SVGID_3_" gradientUnits="userSpaceOnUse" x1="155.595" y1="2067.9102" x2="155.595" y2="2249.4199" gradientTransform="matrix(1 0 0 1 0 -2067.9102)">
					<stop  offset="0" style="stop-color:#D0B4D6"/>
					<stop  offset="0.44" style="stop-color:#DAC3DF"/>
					<stop  offset="1" style="stop-color:#EADEED"/>
				</linearGradient>
				<polygon class="st2" points="0,90.7 155.9,181.5 311.2,90.9 155.1,0 				"/>
				
					<linearGradient id="SVGID_4_" gradientUnits="userSpaceOnUse" x1="38.8" y1="2158.6301" x2="272.39" y2="2158.6301" gradientTransform="matrix(1 0 0 1 0 -2067.9102)">
					<stop  offset="0" style="stop-color:#64C5B7"/>
					<stop  offset="7.000000e-02" style="stop-color:#61C4B6"/>
					<stop  offset="0.18" style="stop-color:#5BC3B1"/>
					<stop  offset="0.2" style="stop-color:#5DC3B0"/>
					<stop  offset="0.34" style="stop-color:#60C4B3"/>
					<stop  offset="0.4" style="stop-color:#63C5B5"/>
					<stop  offset="0.5" style="stop-color:#5FC4B3"/>
					<stop  offset="0.6" style="stop-color:#5BC3B1"/>
					<stop  offset="0.8" style="stop-color:#62C4B4"/>
					<stop  offset="1" style="stop-color:#5BC3B1"/>
				</linearGradient>
				<polygon class="st3" points="38.8,90.7 155.8,158.8 272.4,90.8 155.2,22.6 				"/>
				
					<linearGradient id="SVGID_5_" gradientUnits="userSpaceOnUse" x1="155.595" y1="2090.51" x2="155.595" y2="2164.28" gradientTransform="matrix(1 0 0 1 0 -2067.9102)">
					<stop  offset="0" style="stop-color:#9E7AB6"/>
					<stop  offset="0.24" style="stop-color:#A481BA"/>
					<stop  offset="0.57" style="stop-color:#B292C4"/>
					<stop  offset="0.96" style="stop-color:#CDB0D4"/>
					<stop  offset="1" style="stop-color:#D0B4D6"/>
				</linearGradient>
				<polygon class="st4" points="38.8,90.7 48.5,96.4 155.8,34.3 262.9,96.4 272.4,90.8 155.2,22.6 				"/>
				<g>
					<defs>
						<path id="SVGID_6_" d="M247.8,384.9c-3.7,2.4-6.1,6.5-6.3,10.9c0,2,0.7,3.4,1.8,4l2,1.2c1.1,0.6,0.4-0.8,2.1-1.8
							c3.7-2.4,6.1-6.5,6.3-10.9c0-2,1.8-2,0.7-2.7l-2.3-1.2c-0.5-0.3-1-0.4-1.6-0.4C249.6,384.1,248.6,384.4,247.8,384.9"/>
					</defs>
					<clipPath id="SVGID_7_">
						<use xlink:href="#SVGID_6_"  style="overflow:visible;"/>
					</clipPath>
					<g class="st5">
						
							<linearGradient id="SVGID_8_" gradientUnits="userSpaceOnUse" x1="-1028.0674" y1="1682.2896" x2="-1027.4474" y2="1682.2896" gradientTransform="matrix(15.2854 -26.4857 26.4857 15.2854 -28597.3633 -52544.3789)">
							<stop  offset="0" style="stop-color:#838091"/>
							<stop  offset="0.29" style="stop-color:#838091"/>
							<stop  offset="0.47" style="stop-color:#A5A2B0"/>
							<stop  offset="0.59" style="stop-color:#B8B5C3"/>
							<stop  offset="0.81" style="stop-color:#9B98A7"/>
							<stop  offset="1" style="stop-color:#9B98A7"/>
						</linearGradient>
						<polygon class="st6" points="233.8,397.3 245,377.9 263.2,388.5 252.1,407.8 						"/>
					</g>
				</g>
				<g>
					<defs>
						<path id="SVGID_9_" d="M250,386.2c-3.7,2.4-6.1,6.5-6.3,10.9c0,4,2.8,5.6,6.3,3.6c3.7-2.4,6.1-6.5,6.3-10.9
							c0-2.8-1.4-4.5-3.5-4.5C251.8,385.3,250.9,385.6,250,386.2"/>
					</defs>
					<clipPath id="SVGID_10_">
						<use xlink:href="#SVGID_9_"  style="overflow:visible;"/>
					</clipPath>
					<g class="st7">
						
							<linearGradient id="SVGID_11_" gradientUnits="userSpaceOnUse" x1="-1038.222" y1="1562.1808" x2="-1037.592" y2="1562.1808" gradientTransform="matrix(-13.5088 -23.2852 23.2852 -13.5088 -50149.1797 -2675.23)">
							<stop  offset="0" style="stop-color:#9D9EB3"/>
							<stop  offset="4.000000e-02" style="stop-color:#9D9EB3"/>
							<stop  offset="0.58" style="stop-color:#D4D2D9"/>
							<stop  offset="1" style="stop-color:#EEEBF0"/>
						</linearGradient>
						<polygon class="st8" points="236.1,389.7 253.1,379.8 263.9,398.3 246.9,408.2 						"/>
					</g>
				</g>
				<g>
					<defs>
						<path id="SVGID_12_" d="M250.6,387.5c-3.2,2.1-5.2,5.6-5.4,9.4c-0.1,1.3,0.4,2.7,1.5,3.5l3.1,1.8c1,0.5,0.4-0.7,1.8-1.5
							c3.2-2.1,5.2-5.6,5.4-9.4c0-1.7,1.6-1.7,0.6-2.3l-3.2-1.9c-0.4-0.2-0.9-0.3-1.4-0.3C252.2,386.7,251.4,387,250.6,387.5"/>
					</defs>
					<clipPath id="SVGID_13_">
						<use xlink:href="#SVGID_12_"  style="overflow:visible;"/>
					</clipPath>
					<g class="st9">
						
							<linearGradient id="SVGID_14_" gradientUnits="userSpaceOnUse" x1="-1044.293" y1="1690.9602" x2="-1043.673" y2="1690.9602" gradientTransform="matrix(13.121 -22.7355 22.7355 13.121 -24495.7754 -45526.043)">
							<stop  offset="0" style="stop-color:#FBCD9C"/>
							<stop  offset="0.34" style="stop-color:#FBCD9C"/>
							<stop  offset="0.81" style="stop-color:#FCEBA7"/>
							<stop  offset="0.91" style="stop-color:#F8A88D"/>
							<stop  offset="1" style="stop-color:#F8A88D"/>
						</linearGradient>
						<polygon class="st10" points="238.3,398.6 248.6,380.9 265.5,390.7 255.3,408.4 						"/>
						<rect x="230.5" y="377.8" class="st11" width="46.7" height="37.3"/>
					</g>
				</g>
				<g>
					<defs>
						<path id="SVGID_15_" d="M253.9,389.3c-3.2,2.1-5.2,5.6-5.4,9.4c0,3.4,2.4,4.8,5.4,3.1c3.2-2.1,5.2-5.6,5.4-9.4
							c0-2.4-1.2-3.8-3-3.8C255.4,388.6,254.6,388.9,253.9,389.3"/>
					</defs>
					<clipPath id="SVGID_16_">
						<use xlink:href="#SVGID_15_"  style="overflow:visible;"/>
					</clipPath>
					<g class="st12">
						
							<linearGradient id="SVGID_17_" gradientUnits="userSpaceOnUse" x1="-1056.0099" y1="1551.0173" x2="-1055.3799" y2="1551.0173" gradientTransform="matrix(-11.5969 -19.9896 19.9896 -11.5969 -42992.1602 -2718.1763)">
							<stop  offset="0" style="stop-color:#7F1A17"/>
							<stop  offset="1" style="stop-color:#BE2826"/>
						</linearGradient>
						<polygon class="st13" points="241.9,392.3 256.5,383.9 265.8,399.8 251.1,408.2 						"/>
					</g>
				</g>
				<g>
					<defs>
						<path id="SVGID_18_" d="M225.4,397.9c-3.7,2.4-6.1,6.5-6.4,10.9c0,2,0.7,3.3,1.8,4l2,1.2c1.1,0.6,0.4-0.8,2.1-1.8
							c3.7-2.4,6.1-6.5,6.3-10.9c0-2,1.8-2,0.7-2.7l-2.3-1.2c-0.5-0.3-1-0.4-1.6-0.4C227.1,397,226.1,397.3,225.4,397.9"/>
					</defs>
					<clipPath id="SVGID_19_">
						<use xlink:href="#SVGID_18_"  style="overflow:visible;"/>
					</clipPath>
					<g class="st14">
						
							<linearGradient id="SVGID_20_" gradientUnits="userSpaceOnUse" x1="-1027.6274" y1="1682.5587" x2="-1027.0074" y2="1682.5587" gradientTransform="matrix(15.2854 -26.4857 26.4857 15.2854 -28633.3887 -52524.3789)">
							<stop  offset="0" style="stop-color:#838091"/>
							<stop  offset="0.29" style="stop-color:#838091"/>
							<stop  offset="0.47" style="stop-color:#A5A2B0"/>
							<stop  offset="0.59" style="stop-color:#B8B5C3"/>
							<stop  offset="0.81" style="stop-color:#9B98A7"/>
							<stop  offset="1" style="stop-color:#9B98A7"/>
						</linearGradient>
						<polygon class="st15" points="211.4,410.2 222.6,390.8 240.8,401.4 229.6,420.7 						"/>
					</g>
				</g>
				<g>
					<defs>
						<path id="SVGID_21_" d="M227.6,399.1c-3.7,2.4-6.1,6.5-6.3,10.9c0,4,2.8,5.6,6.3,3.6c3.7-2.4,6.1-6.5,6.3-10.9
							c0-2.8-1.4-4.5-3.5-4.5C229.4,398.3,228.4,398.6,227.6,399.1"/>
					</defs>
					<clipPath id="SVGID_22_">
						<use xlink:href="#SVGID_21_"  style="overflow:visible;"/>
					</clipPath>
					<g class="st16">
						
							<linearGradient id="SVGID_23_" gradientUnits="userSpaceOnUse" x1="-1038.222" y1="1562.7437" x2="-1037.6021" y2="1562.7437" gradientTransform="matrix(-13.5088 -23.2852 23.2852 -13.5088 -50184.3398 -2654.0762)">
							<stop  offset="0" style="stop-color:#9D9EB3"/>
							<stop  offset="4.000000e-02" style="stop-color:#9D9EB3"/>
							<stop  offset="0.58" style="stop-color:#D4D2D9"/>
							<stop  offset="1" style="stop-color:#EEEBF0"/>
						</linearGradient>
						<polygon class="st17" points="213.7,402.6 230.7,392.7 241.5,411.2 224.4,421.1 						"/>
					</g>
				</g>
				<g>
					<defs>
						<path id="SVGID_24_" d="M228.2,400.4c-3.2,2.1-5.2,5.6-5.4,9.4c-0.1,1.3,0.4,2.7,1.5,3.5l3.1,1.8c1,0.5,0.4-0.7,1.8-1.6
							c3.2-2.1,5.2-5.6,5.4-9.4c0-1.7,1.6-1.7,0.6-2.3l-3.3-1.9c-0.4-0.2-0.9-0.3-1.4-0.3C229.8,399.6,228.9,399.9,228.2,400.4"/>
					</defs>
					<clipPath id="SVGID_25_">
						<use xlink:href="#SVGID_24_"  style="overflow:visible;"/>
					</clipPath>
					<g class="st18">
						
							<linearGradient id="SVGID_26_" gradientUnits="userSpaceOnUse" x1="-1043.783" y1="1691.2584" x2="-1043.153" y2="1691.2584" gradientTransform="matrix(13.121 -22.7355 22.7355 13.121 -24531.7383 -45505.3711)">
							<stop  offset="0" style="stop-color:#FBCD9C"/>
							<stop  offset="0.34" style="stop-color:#FBCD9C"/>
							<stop  offset="0.81" style="stop-color:#FCEBA7"/>
							<stop  offset="0.91" style="stop-color:#F8A88D"/>
							<stop  offset="1" style="stop-color:#F8A88D"/>
						</linearGradient>
						<polygon class="st19" points="215.9,411.5 226.1,393.8 243.1,403.6 232.9,421.3 						"/>
						<rect x="208.1" y="388.2" class="st20" width="46.7" height="37.3"/>
					</g>
				</g>
				<g>
					<defs>
						<path id="SVGID_27_" d="M231.4,402.2c-3.2,2.1-5.2,5.6-5.4,9.4c0,3.5,2.4,4.8,5.4,3.1c3.2-2.1,5.2-5.6,5.4-9.4
							c0-2.4-1.2-3.8-3-3.8C233,401.5,232.1,401.8,231.4,402.2"/>
					</defs>
					<clipPath id="SVGID_28_">
						<use xlink:href="#SVGID_27_"  style="overflow:visible;"/>
					</clipPath>
					<g class="st21">
						
							<linearGradient id="SVGID_29_" gradientUnits="userSpaceOnUse" x1="-1056.1593" y1="1551.421" x2="-1055.5293" y2="1551.421" gradientTransform="matrix(-11.554 -19.8757 19.8757 -11.554 -42804.0859 -2650.9233)">
							<stop  offset="0" style="stop-color:#F8A88D"/>
							<stop  offset="4.000000e-02" style="stop-color:#F8A88D"/>
							<stop  offset="0.31" style="stop-color:#FAB792"/>
							<stop  offset="0.83" style="stop-color:#FEDEA3"/>
							<stop  offset="1" style="stop-color:#FCEBA7"/>
						</linearGradient>
						<polygon class="st22" points="217.6,403.7 232.2,395.2 241.3,411 226.8,419.5 						"/>
						<rect x="210.9" y="394.5" class="st20" width="46.7" height="37.3"/>
					</g>
				</g>
				<g>
					<defs>
						<polygon id="SVGID_30_" points="181.9,372.3 189.3,376.4 305.3,308.7 297.8,304.5 						"/>
					</defs>
					<clipPath id="SVGID_31_">
						<use xlink:href="#SVGID_30_"  style="overflow:visible;"/>
					</clipPath>
					<g class="st23">
						
							<linearGradient id="SVGID_32_" gradientUnits="userSpaceOnUse" x1="-922.4305" y1="1632.2083" x2="-921.8105" y2="1632.2083" gradientTransform="matrix(-198.3844 378.0269 378.0269 198.3844 -799672.6875 25052.4199)">
							<stop  offset="0" style="stop-color:#9D9EB3"/>
							<stop  offset="4.000000e-02" style="stop-color:#9D9EB3"/>
							<stop  offset="0.58" style="stop-color:#D4D2D9"/>
							<stop  offset="1" style="stop-color:#EEEBF0"/>
						</linearGradient>
						<path class="st24" d="M152.3,360.9l56.2-107.1c34.4,18,68.7,36.1,103.1,54.1c-1,19.1-0.1,40-0.5,57.6
							c-10.8,20.6-21.6,41.2-32.4,61.8C236.6,405.1,194.5,383,152.3,360.9z"/>
					</g>
				</g>
				<path class="st25" d="M215.9,391.6c0.2,0.2,0.4,0.3,0.7,0.3h0.2l0.7-0.2c0.1,0,0.1,0,0.2,0h0.3c0.6-0.2,1-0.7,1.1-1.3
					c2.4-11.5,10.4-23.3,19.6-28.6c2.7-1.7,5.8-2.6,8.9-2.7c5,0,8.6,3.1,10,8.4c0.2,0.5,0.7,0.8,1.2,0.7c0.1,0,0.2-0.1,0.2-0.1
					l0.2-0.2c0.2-0.2,0.4-0.4,0.5-0.7l0.7-0.6c0.4-0.3,0.5-0.8,0.4-1.3c-0.1-0.5-0.6-0.8-1.1-0.7c0,0,0,0,0,0
					c-0.2,0-0.3,0.1-0.4,0.2c-0.4-1-0.8-2-1.4-2.9l0.4-0.5c0.4-0.4,0.4-1,0.1-1.4c-0.3-0.4-1-0.5-1.4-0.2c-0.1,0-0.1,0.1-0.2,0.2
					l-0.1,0.2c-0.6-0.7-1.3-1.3-2.1-1.9l0.2-0.4c0.2-0.3,0.2-0.6,0.2-0.9c0-0.2-0.2-0.4-0.4-0.5c-0.1-0.1-0.3-0.1-0.5-0.1
					c-0.4,0-0.8,0.3-1,0.6l-0.2,0.4c-0.9-0.4-1.8-0.7-2.7-0.8l0.1-0.2c0.2-0.3,0.2-0.7,0-1c-0.1-0.2-0.4-0.4-0.6-0.4h-0.1
					c-0.5,0-0.9,0.4-1.1,0.8l-0.2,0.5h-0.3c-1,0-1.9,0.1-2.9,0.3c0.1-0.3,0-0.6-0.2-0.8c-0.2-0.2-0.4-0.3-0.7-0.3h-0.2
					c-0.5,0.1-0.9,0.5-1,1l-0.1,0.6c-1.3,0.4-2.5,0.9-3.6,1.5c-0.1-0.4-0.4-0.7-0.8-0.7h-0.2l-0.3,0.1c-0.5,0.3-0.7,0.7-0.8,1.3v0.5
					c-1.3,0.8-2.6,1.8-3.9,2.8c-0.3-0.4-0.8-0.5-1.2-0.3c0,0,0,0,0,0l-0.1,0.1c-0.4,0.3-0.6,0.8-0.5,1.4l0.1,0.4
					c-1.3,1.2-2.6,2.5-3.8,3.9c-0.4-0.3-1.1-0.2-1.4,0.2c-0.4,0.4-0.5,1-0.2,1.5l0.1,0.1c-1.2,1.5-2.3,3.1-3.3,4.8l-0.1-0.1h-0.3
					c-0.4,0-0.8,0.3-1,0.6c-0.2,0.3-0.3,0.7-0.2,1c0.1,0.2,0.2,0.4,0.4,0.5c-0.9,1.7-1.8,3.4-2.5,5.2h-0.2c-0.5,0-1,0.3-1.1,0.8
					c-0.2,0.3-0.2,0.7,0,1.1c0.1,0.2,0.3,0.3,0.5,0.3c-0.6,1.7-1.1,3.4-1.5,5.2l-0.4,0.1c-0.5,0.1-0.8,0.5-0.9,1
					C215.6,390.9,215.6,391.2,215.9,391.6"/>
				<path class="st25" d="M246.4,360.2l-6.1,23.9v0.1c0,1.2-0.7,2.2-1.7,2.9c-0.3,0.2-0.6,0.3-0.9,0.3c-0.8,0-1.4-0.7-1.4-1.5
					c0,0,0,0,0,0c0,0,0-0.1,0-0.1c0-0.8,0.3-1.5,0.8-2.1L246.4,360.2z"/>
				<polygon class="st26" points="133.7,495.9 134.1,368.7 24.1,305.9 23.6,433.2 				"/>
				
					<linearGradient id="SVGID_33_" gradientUnits="userSpaceOnUse" x1="1859.772" y1="3124.1726" x2="1859.772" y2="3195.311" gradientTransform="matrix(-0.5 -0.87 0.87 -0.5 -1757.0619 3608.856)">
					<stop  offset="0" style="stop-color:#9E7AB6"/>
					<stop  offset="0.24" style="stop-color:#A481BA"/>
					<stop  offset="0.57" style="stop-color:#B292C4"/>
					<stop  offset="0.96" style="stop-color:#CDB0D4"/>
					<stop  offset="1" style="stop-color:#D0B4D6"/>
				</linearGradient>
				<polygon class="st27" points="134.2,499.5 134.2,488.6 30.6,428.9 30.8,309.5 21.6,304.2 21.1,435 				"/>
				
					<ellipse transform="matrix(0.8048 -0.5936 0.5936 0.8048 -120.7136 86.6399)" class="st28" cx="71.4" cy="226.8" rx="34.4" ry="60.6"/>
				<path id="Fill-6" class="st29" d="M57.1,259.3c1.9,1.7,8.1,7.3,8.4,5.5c0.1-1-3.1-4-7.6-9c-6.4-7-12.1-14.6-17.2-22.6
					c-5.6-8.9-11.5-21.2-11.8-34.3c-0.4-14.1,5-22.2,14-24.3c-10.5,2.1-17.5,10.7-17.8,24.9c-0.3,9.9,2.5,20,7.8,30.8
					c1.7,3.1,3.6,6.1,5.7,8.9C44.1,246.4,50.4,253.1,57.1,259.3"/>
				<path id="Fill-8" class="st29" d="M117.4,242.9c-2.8-14.9-11.6-29.2-23.3-42.5c9,11.5,21.6,32.4,14.1,40
					c-6.3,5.9-21.6-4.8-30-14.1c-10-11.1-22.4-30.5-10.1-35.3c8-3.1,33.3,20.2,28.8,29.1c-2.6,5.2-12.7-2.1-17.3-8
					c-3.4-4.4-6.2-10.1-4.7-13.5c0.5-1.1,0.4-3.3-1.5-2.8c-1.4,0.3-2.2,1.8-2.4,3.5c-2.1,13.7,24.6,40.8,32.5,30.8
					c4.1-5.1-2.6-19.9-10.9-29.2c-6.3-7-12.9-13.2-20.9-17.2c-12.8-6.5-23.6-4.7-25,7.6s7.4,29,17.6,42
					c10.8,13.6,25.3,26.8,38.6,30.1C114.9,266.2,119.8,255.4,117.4,242.9"/>
				<path id="Fill-10" class="st30" d="M100.7,223.1c1.3-7.9-6.5-18.2-13.7-25c-8.4-8-19.6-13.1-25.8-9.6
					c-4.5,2.6-4.2,10.2-1.9,17.6c3.5,11.1,11.4,22.3,20.6,30.4c6.6,5.8,14.5,11.3,21.1,13c9.7,2.5,12.8-5.8,10.8-16.2
					c-0.5-2.4-1.1-4.7-2-6.9c-1.2-3.3-5-10.6,0.2-1.3c0.6,1,1,2,1.5,3.1c1,2.3,1.9,4.6,2.5,7c2.8,10.3,0.6,19.1-7.2,19.8
					c-6,0.5-13.6-3.4-20.5-8.4c-9.9-7.2-18.1-16.4-24.2-27c-5.6-9.8-9.4-21.5-7.1-28.8c1.7-5.4,6.8-7.1,13-5.6
					c7.8,2,16.4,8.1,23.4,16.3c3.6,4,6.5,8.6,8.5,13.5c0.8,1.9,1.2,4,1.3,6.1c0,0.7,0,1.4-0.2,2.2
					C101.2,223.3,100.6,223.7,100.7,223.1"/>
			</g>
		</g>
	</g>
</g>
</svg>
