<?xml version="1.0" encoding="utf-8"?>
<!-- Generator: Adobe Illustrator 24.0.3, SVG Export Plug-In . SVG Version: 6.00 Build 0)  -->
<svg version="1.1" id="Layer_1" xmlns="http://www.w3.org/2000/svg" xmlns:xlink="http://www.w3.org/1999/xlink" x="0px" y="0px"
	 viewBox="0 0 285.2 192.6" style="enable-background:new 0 0 285.2 192.6;" xml:space="preserve">
<style type="text/css">
	.st0{fill:#3D2475;}
	.st1{fill:#2C125B;}
	.st2{fill:#9894A4;}
	.st3{clip-path:url(#SVGID_2_);}
	.st4{fill:url(#SVGID_3_);}
	.st5{clip-path:url(#SVGID_5_);}
	.st6{fill:url(#SVGID_6_);}
	.st7{clip-path:url(#SVGID_8_);}
	.st8{fill:url(#SVGID_9_);}
	.st9{clip-path:url(#SVGID_11_);}
	.st10{fill:url(#SVGID_12_);}
	.st11{clip-path:url(#SVGID_14_);}
	.st12{fill:url(#SVGID_15_);}
	.st13{clip-path:url(#SVGID_17_);}
	.st14{fill:url(#SVGID_18_);}
	.st15{clip-path:url(#SVGID_20_);}
	.st16{fill:url(#SVGID_21_);}
	.st17{clip-path:url(#SVGID_23_);}
	.st18{fill:url(#SVGID_24_);}
	.st19{clip-path:url(#SVGID_26_);}
	.st20{fill:#563A42;}
	.st21{fill:#FFFFFF;}
	.st22{fill:#5CC3B5;}
	.st23{clip-path:url(#SVGID_28_);}
	.st24{fill:url(#SVGID_29_);}
	.st25{clip-path:url(#SVGID_31_);}
	.st26{fill:url(#SVGID_32_);}
	.st27{opacity:0.2;}
	.st28{clip-path:url(#SVGID_34_);}
	.st29{clip-path:url(#SVGID_36_);}
	.st30{fill:#080204;}
	.st31{clip-path:url(#SVGID_38_);}
	.st32{fill:url(#SVGID_39_);}
	.st33{clip-path:url(#SVGID_41_);}
	.st34{clip-path:url(#SVGID_43_);}
	.st35{clip-path:url(#SVGID_45_);}
	.st36{fill:url(#SVGID_46_);}
	.st37{clip-path:url(#SVGID_48_);}
	.st38{fill:url(#SVGID_49_);}
	.st39{clip-path:url(#SVGID_51_);}
	.st40{fill:url(#SVGID_52_);}
	.st41{clip-path:url(#SVGID_54_);}
	.st42{fill:url(#SVGID_55_);}
	.st43{clip-path:url(#SVGID_57_);}
	.st44{fill:url(#SVGID_58_);}
	.st45{clip-path:url(#SVGID_60_);}
	.st46{fill:url(#SVGID_61_);}
	.st47{clip-path:url(#SVGID_63_);}
	.st48{fill:url(#SVGID_64_);}
	.st49{clip-path:url(#SVGID_66_);}
	.st50{fill:url(#SVGID_67_);}
	.st51{clip-path:url(#SVGID_69_);}
	.st52{clip-path:url(#SVGID_71_);}
	.st53{clip-path:url(#SVGID_73_);}
	.st54{clip-path:url(#SVGID_75_);}
	.st55{clip-path:url(#SVGID_77_);}
	.st56{fill:url(#SVGID_78_);}
	.st57{clip-path:url(#SVGID_80_);}
	.st58{fill:url(#SVGID_81_);}
	.st59{clip-path:url(#SVGID_83_);}
	.st60{fill:url(#SVGID_84_);}
	.st61{clip-path:url(#SVGID_86_);}
	.st62{fill:url(#SVGID_87_);}
	.st63{clip-path:url(#SVGID_89_);}
	.st64{clip-path:url(#SVGID_91_);}
	.st65{fill:url(#SVGID_92_);}
	.st66{clip-path:url(#SVGID_94_);}
	.st67{fill:url(#SVGID_95_);}
	.st68{fill:url(#SVGID_96_);}
</style>
<title>asset-factory6</title>
<g>
	<g id="Layer_2_1_">
		<g id="Layer_1-2">
			<g id="Artwork_80">
				<g>
					<g>
						<path class="st0" d="M10.1,155.1c-0.3-0.1-0.6-0.3-0.9-0.4l0.9-1.1L10.1,155.1z M210.3,14.9l4.3,2.2c-2.4-1.2-5.6-1-9,0.9
							L19.2,123.3c-7.9,4.5-14.3,16.7-14.3,27.2c0,5.4,1.7,3.4,4.4,4.2l-2,2.7c-3.2-1.6-7.3-3.5-7.3-9.5c0-10.5,6.4-22.7,14.2-27.2
							L200.8,15.5c1.7-1.1,3.7-1.6,5.7-1.7C207.8,13.8,209.2,14.2,210.3,14.9"/>
						<path class="st0" d="M175.8,61.9c-0.3-0.1-0.6-0.3-0.9-0.4l0.8-1.1L175.8,61.9z M227.7,0.6l2.1,4l-45,25.5
							c-7.9,4.6-14.2,16.7-14.2,27.2c0,5.4,1.7,3.4,4.4,4.2l-2,2.7c-3.2-1.6-7.3-3.5-7.3-9.5c0-10.5,6.4-22.7,14.2-27.2L227.7,0.6z"
							/>
						<path class="st1" d="M219.9,28.8c0,10.5-6.4,15.6-14.3,20.1L19.2,154.2c-7.9,4.5-14.3,6.8-14.3-3.7s6.4-22.7,14.2-27.2
							L205.6,18c1.7-1.1,3.7-1.6,5.7-1.7C216.4,16.3,219.9,21,219.9,28.8"/>
						<path class="st1" d="M233.1,9.9l2.2,3.1l11.2,11l-66.7,39.8c-7.9,4.5-14.2,6.8-14.2-3.7s6.4-22.7,14.2-27.2l50.3-28.1l0.4,0.9
							l0.1,1.4L232,8L233.1,9.9z"/>
						<polygon class="st1" points="64.4,175.9 64.4,185.5 11.8,155.4 11.8,145.9 						"/>
						<polygon class="st0" points="64.4,175.9 11.8,145.9 50.2,125.9 195.7,102.2 						"/>
						<polygon class="st2" points="17.3,128.6 230.2,5 282.7,41.9 72.4,166.1 						"/>
					</g>
				</g>
				<g>
					<defs>
						<path id="SVGID_1_" d="M17.3,128.6c-4.1,2.7-6.7,7.1-7,12c0,2.1,0.7,3.7,1.9,4.4c0,0,59.7,34.5,59.7,34.5
							c1.3,0.7,0.5-0.9,2.4-2c4.1-2.7,6.7-7.1,7-12c0-2.2,2-2.2,0.8-2.9c0,0-59.9-34.5-59.9-34.5c-0.5-0.3-1.1-0.4-1.7-0.4
							C19.3,127.7,18.2,128,17.3,128.6"/>
					</defs>
					<clipPath id="SVGID_2_">
						<use xlink:href="#SVGID_1_"  style="overflow:visible;"/>
					</clipPath>
					<g class="st3">
						
							<linearGradient id="SVGID_3_" gradientUnits="userSpaceOnUse" x1="198.8845" y1="2281.6106" x2="199.8845" y2="2281.6106" gradientTransform="matrix(10.4968 -18.1884 18.1884 10.4968 -43544.4844 -20169.9102)">
							<stop  offset="0" style="stop-color:#7F7B8D"/>
							<stop  offset="0.29" style="stop-color:#7F7B8D"/>
							<stop  offset="0.48" style="stop-color:#A5A1B1"/>
							<stop  offset="0.59" style="stop-color:#B6B2C1"/>
							<stop  offset="0.81" style="stop-color:#9894A4"/>
							<stop  offset="1" style="stop-color:#9894A4"/>
						</linearGradient>
						<polygon class="st4" points="-12.4,167 28.6,96 106.1,140.7 65.1,211.8 						"/>
					</g>
				</g>
				<g>
					<g>
						<path class="st0" d="M68.5,189.7c-0.3-0.1-0.6-0.3-0.9-0.4l0.8-1.1L68.5,189.7z M282.7,41.9l-205.2,116
							c-7.9,4.5-14.2,16.7-14.2,27.2c0,5.4,1.7,3.4,4.4,4.2l-2,2.7c-3.2-1.6-7.3-3.5-7.3-9.5l0,0c0-10.5,6.4-22.7,14.3-27.2
							L279.5,38.5L282.7,41.9z"/>
						<path class="st1" d="M278.3,63.5c0,10.5-6.4,15.6-14.2,20.1L77.5,188.8c-7.9,4.5-14.2,6.8-14.2-3.7s6.4-22.7,14.2-27.2
							L264,52.3c1.7-1.1,3.7-1.2,5.7-1.3C274.7,51,278.3,55.7,278.3,63.5"/>
						<path class="st1" d="M285.2,72C283.4,66.3,285.2,72,285.2,72l-51.1,28.8c-7.9,4.5-14.2,6.8-14.2-3.7s4.4-22.7,12.2-27.3
							l18.1-9.9l32.5-18.1C282.7,41.9,285.2,64.2,285.2,72L285.2,72z"/>
					</g>
				</g>
				<g>
					<defs>
						<polygon id="SVGID_4_" points="93.4,60.2 93.4,91.9 135,116.3 135,84.2 93.4,60.2 						"/>
					</defs>
					<clipPath id="SVGID_5_">
						<use xlink:href="#SVGID_4_"  style="overflow:visible;"/>
					</clipPath>
					<g class="st5">
						
							<linearGradient id="SVGID_6_" gradientUnits="userSpaceOnUse" x1="313.8925" y1="2258.3188" x2="314.8925" y2="2258.3188" gradientTransform="matrix(102.8096 30.7857 -30.7857 102.8096 37360.3945 -241754.0938)">
							<stop  offset="0" style="stop-color:#F8A589"/>
							<stop  offset="4.000000e-02" style="stop-color:#F8A589"/>
							<stop  offset="0.29" style="stop-color:#F9B38E"/>
							<stop  offset="0.78" style="stop-color:#FCD89D"/>
							<stop  offset="1" style="stop-color:#FDEBA4"/>
						</linearGradient>
						<polygon class="st6" points="78,111.7 96.8,48.7 150.4,64.8 131.6,127.7 						"/>
					</g>
				</g>
				<g>
					<defs>
						<polygon id="SVGID_7_" points="52.2,83.6 52.2,115.7 93.5,91.9 93.5,60.2 						"/>
					</defs>
					<clipPath id="SVGID_8_">
						<use xlink:href="#SVGID_7_"  style="overflow:visible;"/>
					</clipPath>
					<g class="st7">
						
							<linearGradient id="SVGID_9_" gradientUnits="userSpaceOnUse" x1="311.7674" y1="2253.4214" x2="312.7674" y2="2253.4214" gradientTransform="matrix(134.2847 30.1146 -30.1146 134.2847 26002.4941 -311915.5)">
							<stop  offset="0" style="stop-color:#F8A589"/>
							<stop  offset="4.000000e-02" style="stop-color:#F8A589"/>
							<stop  offset="0.29" style="stop-color:#F9B38E"/>
							<stop  offset="0.78" style="stop-color:#FCD89D"/>
							<stop  offset="1" style="stop-color:#FDEBA4"/>
						</linearGradient>
						<polygon class="st8" points="40.4,113 54.2,51.4 105.3,62.8 91.5,124.5 						"/>
					</g>
				</g>
				<g>
					<defs>
						<polygon id="SVGID_10_" points="52.2,114.9 93.8,139.4 135,115.5 93.6,91.2 						"/>
					</defs>
					<clipPath id="SVGID_11_">
						<use xlink:href="#SVGID_10_"  style="overflow:visible;"/>
					</clipPath>
					<g class="st9">
						
							<linearGradient id="SVGID_12_" gradientUnits="userSpaceOnUse" x1="330.8072" y1="2249.623" x2="331.8072" y2="2249.623" gradientTransform="matrix(46.4269 88.4678 -88.4678 46.4269 183711.4688 -133675.4688)">
							<stop  offset="0" style="stop-color:#F8A589"/>
							<stop  offset="4.000000e-02" style="stop-color:#F8A589"/>
							<stop  offset="0.29" style="stop-color:#F9B38E"/>
							<stop  offset="0.78" style="stop-color:#FCD89D"/>
							<stop  offset="1" style="stop-color:#FDEBA4"/>
						</linearGradient>
						<polygon class="st10" points="32.4,101.6 117.1,57.2 154.8,129 70.1,173.4 						"/>
					</g>
				</g>
				<g>
					<defs>
						<path id="SVGID_13_" d="M72,97.2v3.7l0,0c0,0.1,0,0.1,0,0.2c0,6.8,9.4,12.2,21,12.2s21-5.5,21-12.2c0-0.1,0-0.1,0-0.2l0,0
							v-3.7H72z"/>
					</defs>
					<clipPath id="SVGID_14_">
						<use xlink:href="#SVGID_13_"  style="overflow:visible;"/>
					</clipPath>
					<g class="st11">
						
							<linearGradient id="SVGID_15_" gradientUnits="userSpaceOnUse" x1="302.7521" y1="2292.0212" x2="303.7521" y2="2292.0212" gradientTransform="matrix(44.13 0 0 44.13 -13290.0078 -101041.6094)">
							<stop  offset="0" style="stop-color:#B9552B"/>
							<stop  offset="4.000000e-02" style="stop-color:#B9552B"/>
							<stop  offset="0.29" style="stop-color:#C1623B"/>
							<stop  offset="0.8" style="stop-color:#D68466"/>
							<stop  offset="1" style="stop-color:#DF9379"/>
						</linearGradient>
						<rect x="72" y="97.2" class="st12" width="42.1" height="16.1"/>
					</g>
				</g>
				<g>
					<defs>
						<path id="SVGID_16_" d="M72,97.3c0,6.8,9.4,12.2,21,12.2s21-5.5,21-12.2s-9.4-12.2-21-12.2S72,90.5,72,97.3"/>
					</defs>
					<clipPath id="SVGID_17_">
						<use xlink:href="#SVGID_16_"  style="overflow:visible;"/>
					</clipPath>
					<g class="st13">
						
							<linearGradient id="SVGID_18_" gradientUnits="userSpaceOnUse" x1="368.5081" y1="2258.9851" x2="369.5081" y2="2258.9851" gradientTransform="matrix(10.2256 38.7846 -38.7846 10.2256 83930.125 -37327.3633)">
							<stop  offset="0" style="stop-color:#B9552B"/>
							<stop  offset="4.000000e-02" style="stop-color:#B9552B"/>
							<stop  offset="0.29" style="stop-color:#C1623B"/>
							<stop  offset="0.8" style="stop-color:#D68466"/>
							<stop  offset="1" style="stop-color:#DF9379"/>
						</linearGradient>
						<polygon class="st14" points="66,86.7 111.3,74.7 120.1,108 74.7,119.9 						"/>
					</g>
				</g>
				<g>
					<defs>
						<path id="SVGID_19_" d="M72,95.3V99l0,0c0,0.1,0,0.1,0,0.2c0,1.5,0.5,1.8,1.4,3.1c0.4,0.6,0.7,3.1,1.2,3.7
							c0.4,0.3,0.9,0.4,1.4,0.2c0.5-0.1,1-0.1,1.5,0.2c1,0.7,2.4,2.4,3.6,3c1.3,0.6,2.7,0.7,4.1,0.4c1-0.1,2-0.2,3.1-0.1
							c0.7,0,4,2.4,4.7,2.4c1.8,0,2.7-2.2,4.4-2.4c0.9,0,1.7,0.2,2.4,0.6c0.8,0.5,1.7,0.7,2.5,0.6c1.2-0.4,2.3-2.7,3.3-3.2
							c0.5-0.2,1-0.2,1.5-0.1c0.5,0.1,1,0,1.5-0.2c0.9-0.6,1.4-2.2,2.1-2.8s1.6-0.5,2.1-1.3c0.7-1.2,1.2-2.6,1.2-4
							c0-0.1,0-0.1,0-0.2l0,0v-3.7L72,95.3z"/>
					</defs>
					<clipPath id="SVGID_20_">
						<use xlink:href="#SVGID_19_"  style="overflow:visible;"/>
					</clipPath>
					<g class="st15">
						
							<linearGradient id="SVGID_21_" gradientUnits="userSpaceOnUse" x1="302.7521" y1="2292.021" x2="303.7521" y2="2292.021" gradientTransform="matrix(44.13 0 0 44.13 -13290.0078 -101043.1797)">
							<stop  offset="0" style="stop-color:#2D170B"/>
							<stop  offset="0.34" style="stop-color:#431C0E"/>
							<stop  offset="1" style="stop-color:#782716"/>
						</linearGradient>
						<rect x="72" y="95.3" class="st16" width="42.1" height="16.8"/>
					</g>
				</g>
				<g>
					<defs>
						<path id="SVGID_22_" d="M72,95.4c0,6.8,9.4,12.2,21,12.2s21-5.5,21-12.2s-9.4-12.2-21-12.2S72,88.6,72,95.4"/>
					</defs>
					<clipPath id="SVGID_23_">
						<use xlink:href="#SVGID_22_"  style="overflow:visible;"/>
					</clipPath>
					<g class="st17">
						
							<linearGradient id="SVGID_24_" gradientUnits="userSpaceOnUse" x1="368.4959" y1="2259.0227" x2="369.4959" y2="2259.0227" gradientTransform="matrix(10.4286 38.9067 -38.9067 10.4286 84133.6562 -37832.8438)">
							<stop  offset="0" style="stop-color:#2D170B"/>
							<stop  offset="0.34" style="stop-color:#431C0E"/>
							<stop  offset="1" style="stop-color:#782716"/>
						</linearGradient>
						<polygon class="st18" points="67,84.9 112.5,72.7 121.5,106.1 76,118.3 						"/>
					</g>
				</g>
				<g>
					<defs>
						<rect id="SVGID_25_" x="72" y="82.9" width="42.1" height="24.4"/>
					</defs>
					<clipPath id="SVGID_26_">
						<use xlink:href="#SVGID_25_"  style="overflow:visible;"/>
					</clipPath>
					<g class="st19">
						<path class="st20" d="M93.2,82.9c-11.3,0-20.5,5.5-20.5,12.2s9.2,12.2,20.5,12.2s20.5-5.5,20.5-12.2S104.5,82.9,93.2,82.9"/>
						<path class="st21" d="M99.6,105.9c-0.8,0.2-3.7,0.7-3.8,0.2c-0.1-0.3,1.4-0.6,3.4-1.2c2.7-0.8,5.3-2,7.8-3.4
							c3.3-1.9,5.2-4.6,5.3-7.3c0.2-3.7-2.3-6.7-6.3-8.6c4.9,2.2,7.9,5.7,8,9.3c0.1,2.7-1.2,4.9-3.5,7c-0.8,0.6-1.7,1.1-2.6,1.5
							C105.2,104.5,102.4,105.4,99.6,105.9"/>
						<path class="st21" d="M72.3,92.3c1.3-3.5,5.2-6,10.5-7.7c-4,1.7-9.7,5.3-6.4,8.5c2.8,2.5,9.8,2,13.5,0.8
							c4.5-1.4,10.1-4.7,4.6-7.8c-3.6-2-15,0.2-13,3.3c1.2,1.8,5.7,1.4,7.8,0.5c1.5-0.6,2.8-1.7,2.1-2.9c-0.2-0.4-0.2-0.9,0.7-0.5
							c0.5,0.2,0.9,0.7,1.1,1.3c1,4-11.1,7.1-14.6,3.2c-1.9-2,1.2-4.9,4.9-6.1c3-1,6.2-1.5,9.4-1.4c5.8,0.2,10.7,2.4,11.2,5.9
							s-3.3,6.6-8,8.4c-4.9,2-11.4,3.2-17.4,2.1C73.4,98.9,71.1,95.2,72.3,92.3"/>
						<path class="st22" d="M79.9,89.6c-0.6-2.3,2.9-3.9,6.2-4.6c3.8-0.8,8.8-0.5,11.6,1.4c2,1.4,1.9,3.4,0.8,4.9
							c-1.6,2.4-5.2,4.2-9.3,4.9c-3.1,0.6-6.4,0.7-9.5,0.2c-4.4-0.8-5.8-3.5-4.9-6c0.2-0.6,0.5-1.1,0.9-1.5c0.6-0.7,2.2-2.1-0.1-0.4
							c-0.2,0.2-0.5,0.4-0.7,0.6c-0.5,0.4-0.8,0.9-1.1,1.5c-1.3,2.3-0.3,5,3.2,6.4c3,1,6.1,1.3,9.3,0.9c3.9-0.2,7.6-1.4,10.9-3.4
							c2.5-1.8,4.2-4.3,3.2-6.6c-0.8-1.7-3.1-2.9-5.9-3.5c-3.5-0.6-7.2-0.4-10.6,0.7c-1.5,0.4-2.8,1.2-3.8,2.3
							c-0.3,0.4-0.6,0.9-0.6,1.4c0,0.2,0,0.4,0.1,0.6C79.7,89.6,80,89.8,79.9,89.6"/>
					</g>
				</g>
				<g>
					<defs>
						<polygon id="SVGID_27_" points="52.2,115.7 93.8,139.7 93.8,139.7 93.8,108 52.2,83.6 						"/>
					</defs>
					<clipPath id="SVGID_28_">
						<use xlink:href="#SVGID_27_"  style="overflow:visible;"/>
					</clipPath>
					<g class="st23">
						
							<linearGradient id="SVGID_29_" gradientUnits="userSpaceOnUse" x1="306.2274" y1="2211.7922" x2="307.2274" y2="2211.7922" gradientTransform="matrix(-102.8096 -30.7857 30.7857 -102.8096 -36528.1836 236934.8594)">
							<stop  offset="0" style="stop-color:#F8A589"/>
							<stop  offset="4.000000e-02" style="stop-color:#F8A589"/>
							<stop  offset="0.29" style="stop-color:#F9B38E"/>
							<stop  offset="0.78" style="stop-color:#FCD89D"/>
							<stop  offset="1" style="stop-color:#FDEBA4"/>
						</linearGradient>
						<polygon class="st24" points="36.8,135.1 55.7,72.2 109.2,88.2 90.4,151.2 						"/>
					</g>
				</g>
				<g>
					<defs>
						<polygon id="SVGID_30_" points="93.8,108 93.8,139.7 135,116.3 135,84.2 						"/>
					</defs>
					<clipPath id="SVGID_31_">
						<use xlink:href="#SVGID_30_"  style="overflow:visible;"/>
					</clipPath>
					<g class="st25">
						
							<linearGradient id="SVGID_32_" gradientUnits="userSpaceOnUse" x1="308.3628" y1="2216.8081" x2="309.3628" y2="2216.8081" gradientTransform="matrix(-134.2899 -30.0912 30.0912 -134.2899 -25116.4023 307100.6875)">
							<stop  offset="0" style="stop-color:#F8A589"/>
							<stop  offset="4.000000e-02" style="stop-color:#F8A589"/>
							<stop  offset="0.29" style="stop-color:#F9B38E"/>
							<stop  offset="0.78" style="stop-color:#FCD89D"/>
							<stop  offset="1" style="stop-color:#FDEBA4"/>
						</linearGradient>
						<polygon class="st26" points="81.9,137.1 95.7,75.4 146.8,86.9 133,148.5 						"/>
					</g>
				</g>
				<g>
					<g>
						<g class="st27">
							<g>
								<defs>
									<rect id="SVGID_33_" x="93.8" y="84.2" width="41.3" height="43.1"/>
								</defs>
								<clipPath id="SVGID_34_">
									<use xlink:href="#SVGID_33_"  style="overflow:visible;"/>
								</clipPath>
								<g class="st28">
									<g>
										<defs>
											<rect id="SVGID_35_" x="93.8" y="84.2" width="41.3" height="43.1"/>
										</defs>
										<clipPath id="SVGID_36_">
											<use xlink:href="#SVGID_35_"  style="overflow:visible;"/>
										</clipPath>
										<g class="st29">
											<polygon class="st30" points="93.8,108 99.7,127.3 135.1,107.6 135,84.2 											"/>
										</g>
									</g>
								</g>
							</g>
						</g>
					</g>
				</g>
				<g>
					<defs>
						<polygon id="SVGID_37_" points="93.8,108 104.2,123.3 145.4,99.8 135,84.2 						"/>
					</defs>
					<clipPath id="SVGID_38_">
						<use xlink:href="#SVGID_37_"  style="overflow:visible;"/>
					</clipPath>
					<g class="st31">
						
							<linearGradient id="SVGID_39_" gradientUnits="userSpaceOnUse" x1="340.0038" y1="2273.6804" x2="341.0038" y2="2273.6804" gradientTransform="matrix(36.5552 36.7856 -36.7856 36.5552 71294.3594 -95553.4688)">
							<stop  offset="0" style="stop-color:#FBB773"/>
							<stop  offset="4.000000e-02" style="stop-color:#FBB773"/>
							<stop  offset="0.37" style="stop-color:#FCC580"/>
							<stop  offset="1" style="stop-color:#FDEBA4"/>
							<stop  offset="1" style="stop-color:#FDEBA4"/>
						</linearGradient>
						<polygon class="st32" points="74.2,103.6 119.7,58.4 164.9,103.9 119.4,149.1 						"/>
					</g>
				</g>
				<g>
					<g>
						<g class="st27">
							<g>
								<defs>
									<rect id="SVGID_40_" x="52.5" y="83.7" width="41.4" height="41.5"/>
								</defs>
								<clipPath id="SVGID_41_">
									<use xlink:href="#SVGID_40_"  style="overflow:visible;"/>
								</clipPath>
								<g class="st33">
									<g>
										<defs>
											<rect id="SVGID_42_" x="52.5" y="83.7" width="41.4" height="41.5"/>
										</defs>
										<clipPath id="SVGID_43_">
											<use xlink:href="#SVGID_42_"  style="overflow:visible;"/>
										</clipPath>
										<g class="st34">
											<polygon class="st30" points="93.9,108 85.4,125.2 52.8,105.7 52.5,83.7 											"/>
										</g>
									</g>
								</g>
							</g>
						</g>
					</g>
				</g>
				<g>
					<defs>
						<polygon id="SVGID_44_" points="42,97.7 83.5,122.2 93.9,108 52.5,83.7 						"/>
					</defs>
					<clipPath id="SVGID_45_">
						<use xlink:href="#SVGID_44_"  style="overflow:visible;"/>
					</clipPath>
					<g class="st35">
						
							<linearGradient id="SVGID_46_" gradientUnits="userSpaceOnUse" x1="328.354" y1="2247.8782" x2="329.354" y2="2247.8782" gradientTransform="matrix(52.6584 100.342 -100.342 52.6584 208285.5938 -151306.5625)">
							<stop  offset="0" style="stop-color:#F8A589"/>
							<stop  offset="4.000000e-02" style="stop-color:#F8A589"/>
							<stop  offset="0.29" style="stop-color:#F9B38E"/>
							<stop  offset="0.78" style="stop-color:#FCD89D"/>
							<stop  offset="1" style="stop-color:#FDEBA4"/>
						</linearGradient>
						<polygon class="st36" points="26.2,92 82.7,62.4 109.7,113.8 53.2,143.5 						"/>
					</g>
				</g>
				<g>
					<defs>
						<polygon id="SVGID_47_" points="172.6,14.4 172.6,46.1 214.1,70.5 214.1,38.5 172.6,14.4 						"/>
					</defs>
					<clipPath id="SVGID_48_">
						<use xlink:href="#SVGID_47_"  style="overflow:visible;"/>
					</clipPath>
					<g class="st37">
						
							<linearGradient id="SVGID_49_" gradientUnits="userSpaceOnUse" x1="313.8925" y1="2258.3171" x2="314.8925" y2="2258.3171" gradientTransform="matrix(102.8096 30.7857 -30.7857 102.8096 37439.4336 -241799.6875)">
							<stop  offset="0" style="stop-color:#F8A589"/>
							<stop  offset="4.000000e-02" style="stop-color:#F8A589"/>
							<stop  offset="0.29" style="stop-color:#F9B38E"/>
							<stop  offset="0.78" style="stop-color:#FCD89D"/>
							<stop  offset="1" style="stop-color:#FDEBA4"/>
						</linearGradient>
						<polygon class="st38" points="157.1,65.9 176,3 229.5,19 210.7,82 						"/>
					</g>
				</g>
				<g>
					<defs>
						<polygon id="SVGID_50_" points="131.4,37.9 131.4,69.9 131.4,69.9 172.6,46.1 172.6,14.4 172.6,14.4 						"/>
					</defs>
					<clipPath id="SVGID_51_">
						<use xlink:href="#SVGID_50_"  style="overflow:visible;"/>
					</clipPath>
					<g class="st39">
						
							<linearGradient id="SVGID_52_" gradientUnits="userSpaceOnUse" x1="311.7674" y1="2253.4214" x2="312.7674" y2="2253.4214" gradientTransform="matrix(134.2847 30.1146 -30.1146 134.2847 26081.5703 -311961.2812)">
							<stop  offset="0" style="stop-color:#F8A589"/>
							<stop  offset="4.000000e-02" style="stop-color:#F8A589"/>
							<stop  offset="0.29" style="stop-color:#F9B38E"/>
							<stop  offset="0.78" style="stop-color:#FCD89D"/>
							<stop  offset="1" style="stop-color:#FDEBA4"/>
						</linearGradient>
						<polygon class="st40" points="119.5,67.3 133.4,5.6 184.5,17.1 170.6,78.7 						"/>
					</g>
				</g>
				<g>
					<defs>
						<polygon id="SVGID_53_" points="131.4,69.2 172.9,93.6 214.1,69.8 172.7,45.5 						"/>
					</defs>
					<clipPath id="SVGID_54_">
						<use xlink:href="#SVGID_53_"  style="overflow:visible;"/>
					</clipPath>
					<g class="st41">
						
							<linearGradient id="SVGID_55_" gradientUnits="userSpaceOnUse" x1="330.8072" y1="2249.6221" x2="331.8072" y2="2249.6221" gradientTransform="matrix(46.4269 88.4678 -88.4678 46.4269 183790.5469 -133721.0938)">
							<stop  offset="0" style="stop-color:#F8A589"/>
							<stop  offset="4.000000e-02" style="stop-color:#F8A589"/>
							<stop  offset="0.29" style="stop-color:#F9B38E"/>
							<stop  offset="0.78" style="stop-color:#FCD89D"/>
							<stop  offset="1" style="stop-color:#FDEBA4"/>
						</linearGradient>
						<polygon class="st42" points="111.6,55.9 196.2,11.4 233.9,83.2 149.2,127.6 						"/>
					</g>
				</g>
				<g>
					<defs>
						<path id="SVGID_56_" d="M151.3,46v3.7l0,0c0,0.1,0,0.1,0,0.2c0,6.8,9.4,12.2,21,12.2s21-5.5,21-12.2c0-0.1,0-0.1,0-0.2l0,0V46
							H151.3z"/>
					</defs>
					<clipPath id="SVGID_57_">
						<use xlink:href="#SVGID_56_"  style="overflow:visible;"/>
					</clipPath>
					<g class="st43">
						
							<linearGradient id="SVGID_58_" gradientUnits="userSpaceOnUse" x1="302.7521" y1="2292.0093" x2="303.7521" y2="2292.0093" gradientTransform="matrix(44.13 0 0 44.13 -13210.6465 -101092.2891)">
							<stop  offset="0" style="stop-color:#B9552B"/>
							<stop  offset="4.000000e-02" style="stop-color:#B9552B"/>
							<stop  offset="0.29" style="stop-color:#C1623B"/>
							<stop  offset="0.8" style="stop-color:#D68466"/>
							<stop  offset="1" style="stop-color:#DF9379"/>
						</linearGradient>
						<rect x="151.3" y="46" class="st44" width="42.1" height="16.1"/>
					</g>
				</g>
				<g>
					<defs>
						<path id="SVGID_59_" d="M151.3,46.1c0,6.8,9.4,12.2,21,12.2s21-5.5,21-12.2s-9.4-12.2-21-12.2S151.3,39.3,151.3,46.1"/>
					</defs>
					<clipPath id="SVGID_60_">
						<use xlink:href="#SVGID_59_"  style="overflow:visible;"/>
					</clipPath>
					<g class="st45">
						
							<linearGradient id="SVGID_61_" gradientUnits="userSpaceOnUse" x1="352.1252" y1="2204.9568" x2="353.1252" y2="2204.9568" gradientTransform="matrix(-33.3224 35.7339 -35.7339 -33.3224 90722.9219 60910.8125)">
							<stop  offset="0" style="stop-color:#B9552B"/>
							<stop  offset="4.000000e-02" style="stop-color:#B9552B"/>
							<stop  offset="0.29" style="stop-color:#C1623B"/>
							<stop  offset="0.8" style="stop-color:#D68466"/>
							<stop  offset="1" style="stop-color:#DF9379"/>
						</linearGradient>
						<polygon class="st46" points="139,46.9 170.8,12.9 205.5,45.2 173.8,79.3 						"/>
					</g>
				</g>
				<g>
					<defs>
						<polygon id="SVGID_62_" points="131.4,37.9 131.4,69.9 172.9,94 172.9,94 172.9,62.3 131.4,37.9 						"/>
					</defs>
					<clipPath id="SVGID_63_">
						<use xlink:href="#SVGID_62_"  style="overflow:visible;"/>
					</clipPath>
					<g class="st47">
						
							<linearGradient id="SVGID_64_" gradientUnits="userSpaceOnUse" x1="306.2274" y1="2211.792" x2="307.2274" y2="2211.792" gradientTransform="matrix(-102.8096 -30.7857 30.7857 -102.8096 -36448.9727 236889.1094)">
							<stop  offset="0" style="stop-color:#F8A589"/>
							<stop  offset="4.000000e-02" style="stop-color:#F8A589"/>
							<stop  offset="0.29" style="stop-color:#F9B38E"/>
							<stop  offset="0.78" style="stop-color:#FCD89D"/>
							<stop  offset="1" style="stop-color:#FDEBA4"/>
						</linearGradient>
						<polygon class="st48" points="116,89.4 134.8,26.4 188.4,42.5 169.5,105.4 						"/>
					</g>
				</g>
				<g>
					<defs>
						<polygon id="SVGID_65_" points="172.9,62.3 172.9,94 172.9,94 214.1,70.5 214.1,38.5 214.1,38.5 						"/>
					</defs>
					<clipPath id="SVGID_66_">
						<use xlink:href="#SVGID_65_"  style="overflow:visible;"/>
					</clipPath>
					<g class="st49">
						
							<linearGradient id="SVGID_67_" gradientUnits="userSpaceOnUse" x1="308.3626" y1="2216.811" x2="309.3626" y2="2216.811" gradientTransform="matrix(-134.2847 -30.1146 30.1146 -134.2847 -25090.748 307050.9688)">
							<stop  offset="0" style="stop-color:#F8A589"/>
							<stop  offset="4.000000e-02" style="stop-color:#F8A589"/>
							<stop  offset="0.29" style="stop-color:#F9B38E"/>
							<stop  offset="0.78" style="stop-color:#FCD89D"/>
							<stop  offset="1" style="stop-color:#FDEBA4"/>
						</linearGradient>
						<polygon class="st50" points="161,91.4 174.9,29.7 226,41.1 212.1,102.8 						"/>
					</g>
				</g>
				<g>
					<g>
						<g class="st27">
							<g>
								<defs>
									<rect id="SVGID_68_" x="172.9" y="38.5" width="41.3" height="43.1"/>
								</defs>
								<clipPath id="SVGID_69_">
									<use xlink:href="#SVGID_68_"  style="overflow:visible;"/>
								</clipPath>
								<g class="st51">
									<g>
										<defs>
											<rect id="SVGID_70_" x="172.9" y="38.5" width="41.3" height="43.1"/>
										</defs>
										<clipPath id="SVGID_71_">
											<use xlink:href="#SVGID_70_"  style="overflow:visible;"/>
										</clipPath>
										<g class="st52">
											<polygon class="st30" points="172.9,62.3 178.8,81.6 214.2,61.8 214.1,38.5 											"/>
										</g>
									</g>
								</g>
							</g>
						</g>
						<g class="st27">
							<g>
								<defs>
									<rect id="SVGID_72_" x="131.6" y="38" width="41.4" height="41.5"/>
								</defs>
								<clipPath id="SVGID_73_">
									<use xlink:href="#SVGID_72_"  style="overflow:visible;"/>
								</clipPath>
								<g class="st53">
									<g>
										<defs>
											<rect id="SVGID_74_" x="131.6" y="38" width="41.4" height="41.5"/>
										</defs>
										<clipPath id="SVGID_75_">
											<use xlink:href="#SVGID_74_"  style="overflow:visible;"/>
										</clipPath>
										<g class="st54">
											<polygon class="st30" points="173,62.3 164.5,79.5 131.9,59.9 131.6,38 											"/>
										</g>
									</g>
								</g>
							</g>
						</g>
					</g>
				</g>
				<g>
					<defs>
						<path id="SVGID_76_" d="M151.1,41.1v3.7l0,0c0,0,0,0.1,0,0.2c0,6.8,9.4,12.2,21,12.2s21-5.5,21-12.2c0-0.1,0-0.1,0-0.2l0,0
							v-3.7H151.1z"/>
					</defs>
					<clipPath id="SVGID_77_">
						<use xlink:href="#SVGID_76_"  style="overflow:visible;"/>
					</clipPath>
					<g class="st55">
						
							<linearGradient id="SVGID_78_" gradientUnits="userSpaceOnUse" x1="302.7521" y1="2292.0212" x2="303.7521" y2="2292.0212" gradientTransform="matrix(44.13 0 0 44.13 -13210.877 -101097.6875)">
							<stop  offset="0" style="stop-color:#B9552B"/>
							<stop  offset="4.000000e-02" style="stop-color:#B9552B"/>
							<stop  offset="0.29" style="stop-color:#C1623B"/>
							<stop  offset="0.8" style="stop-color:#D68466"/>
							<stop  offset="1" style="stop-color:#DF9379"/>
						</linearGradient>
						<rect x="151.1" y="41.1" class="st56" width="42.1" height="16.1"/>
					</g>
				</g>
				<g>
					<defs>
						<path id="SVGID_79_" d="M151.1,41.2c0,6.8,9.4,12.2,21,12.2s21-5.5,21-12.2s-9.4-12.2-21-12.2S151.1,34.5,151.1,41.2"/>
					</defs>
					<clipPath id="SVGID_80_">
						<use xlink:href="#SVGID_79_"  style="overflow:visible;"/>
					</clipPath>
					<g class="st57">
						
							<linearGradient id="SVGID_81_" gradientUnits="userSpaceOnUse" x1="368.5081" y1="2258.9878" x2="369.5081" y2="2258.9878" gradientTransform="matrix(10.2256 38.7846 -38.7846 10.2256 84009.3438 -37383.5039)">
							<stop  offset="0" style="stop-color:#B9552B"/>
							<stop  offset="4.000000e-02" style="stop-color:#B9552B"/>
							<stop  offset="0.29" style="stop-color:#C1623B"/>
							<stop  offset="0.8" style="stop-color:#D68466"/>
							<stop  offset="1" style="stop-color:#DF9379"/>
						</linearGradient>
						<polygon class="st58" points="145.1,30.6 190.5,18.6 199.2,51.9 153.9,63.9 						"/>
					</g>
				</g>
				<g>
					<defs>
						<path id="SVGID_82_" d="M151.1,39.2v3.7l0,0c0,0,0,0.1,0,0.2c0,1.5,0.5,1.8,1.4,3.1c0.4,0.7,0.6,3.1,1.2,3.7
							c0.4,0.3,0.9,0.4,1.4,0.2c0.5-0.1,1-0.1,1.5,0.2c1,0.6,2.4,2.4,3.6,3c1.3,0.6,2.7,0.7,4.1,0.4c1-0.1,2-0.2,3.1-0.1
							c0.7,0,4,2.4,4.7,2.4c1.9,0,2.7-2.2,4.4-2.4c0.9,0,1.7,0.2,2.4,0.6c0.8,0.5,1.7,0.7,2.5,0.6c1.2-0.4,2.3-2.7,3.3-3.2
							c0.5-0.2,1-0.2,1.5-0.1c0.5,0.1,1,0,1.5-0.2c0.9-0.6,1.4-2.1,2.1-2.8s1.6-0.5,2.1-1.3c0.7-1.2,1.2-2.6,1.2-4
							c0-0.1,0-0.1,0-0.2l0,0v-3.7L151.1,39.2z"/>
					</defs>
					<clipPath id="SVGID_83_">
						<use xlink:href="#SVGID_82_"  style="overflow:visible;"/>
					</clipPath>
					<g class="st59">
						
							<linearGradient id="SVGID_84_" gradientUnits="userSpaceOnUse" x1="302.7521" y1="2292.021" x2="303.7521" y2="2292.021" gradientTransform="matrix(44.13 0 0 44.13 -13210.877 -101099.2578)">
							<stop  offset="0" style="stop-color:#2D170B"/>
							<stop  offset="0.34" style="stop-color:#431C0E"/>
							<stop  offset="1" style="stop-color:#782716"/>
						</linearGradient>
						<rect x="151.1" y="39.2" class="st60" width="42.1" height="16.8"/>
					</g>
				</g>
				<g>
					<defs>
						<path id="SVGID_85_" d="M151.1,39.3c0,6.8,9.4,12.2,21,12.2s21-5.5,21-12.2s-9.4-12.2-21-12.2S151.1,32.6,151.1,39.3"/>
					</defs>
					<clipPath id="SVGID_86_">
						<use xlink:href="#SVGID_85_"  style="overflow:visible;"/>
					</clipPath>
					<g class="st61">
						
							<linearGradient id="SVGID_87_" gradientUnits="userSpaceOnUse" x1="368.5081" y1="2258.9878" x2="369.5081" y2="2258.9878" gradientTransform="matrix(10.2256 38.7846 -38.7846 10.2256 84009.3594 -37385.3789)">
							<stop  offset="0" style="stop-color:#2D170B"/>
							<stop  offset="0.34" style="stop-color:#431C0E"/>
							<stop  offset="1" style="stop-color:#782716"/>
						</linearGradient>
						<polygon class="st62" points="145.1,28.7 190.5,16.7 199.2,50 153.9,62 						"/>
					</g>
				</g>
				<g>
					<defs>
						<rect id="SVGID_88_" x="151.1" y="26.8" width="42.1" height="24.4"/>
					</defs>
					<clipPath id="SVGID_89_">
						<use xlink:href="#SVGID_88_"  style="overflow:visible;"/>
					</clipPath>
					<g class="st63">
						<path class="st20" d="M172.3,26.8c-11.3,0-20.5,5.5-20.5,12.2c0,6.7,9.2,12.2,20.5,12.2s20.5-5.5,20.5-12.2
							S183.6,26.8,172.3,26.8"/>
						<path class="st21" d="M178.7,49.8c-0.8,0.2-3.7,0.7-3.8,0.2c-0.1-0.3,1.4-0.6,3.4-1.2c2.7-0.8,5.3-2,7.8-3.4
							c3.3-1.9,5.2-4.5,5.3-7.3c0.2-3.7-2.3-6.7-6.3-8.6c4.9,2.2,7.9,5.7,8,9.3c0.1,2.7-1.1,4.9-3.5,7c-0.8,0.6-1.7,1.1-2.6,1.5
							C184.4,48.5,181.6,49.3,178.7,49.8"/>
						<path class="st21" d="M151.4,36.2c1.3-3.5,5.2-6,10.5-7.7c-4,1.7-9.7,5.3-6.4,8.5c2.8,2.5,9.8,2.1,13.5,0.8
							c4.5-1.4,10.1-4.7,4.6-7.8c-3.6-2-15,0.2-13,3.3c1.2,1.8,5.7,1.4,7.8,0.5c1.5-0.7,2.8-1.7,2.1-2.9c-0.2-0.4-0.2-0.9,0.7-0.5
							c0.5,0.2,0.9,0.7,1.1,1.3c1,4-11.1,7.1-14.6,3.2c-1.9-2,1.2-4.9,4.9-6.1c3-1,6.2-1.5,9.4-1.4c5.8,0.2,10.6,2.4,11.2,5.9
							s-3.3,6.6-8,8.5c-4.9,2-11.4,3.2-17.4,2.1C152.5,42.8,150.3,39.2,151.4,36.2"/>
						<path class="st22" d="M159.1,33.5c-0.6-2.3,2.9-3.8,6.1-4.6c3.8-0.8,8.9-0.5,11.6,1.4c2,1.4,1.9,3.3,0.9,5
							c-1.6,2.4-5.1,4.2-9.3,4.9c-3.1,0.6-6.4,0.7-9.5,0.2c-4.4-0.8-5.8-3.5-4.9-6c0.2-0.6,0.5-1.1,0.9-1.5c0.6-0.7,2.2-2.1-0.1-0.4
							c-0.2,0.2-0.5,0.4-0.7,0.6c-0.5,0.4-0.8,0.9-1.1,1.5c-1.3,2.3-0.3,5,3.3,6.3c3,1,6.1,1.3,9.3,0.9c3.9-0.2,7.6-1.4,10.9-3.5
							c2.5-1.8,4.2-4.3,3.2-6.6c-0.8-1.7-3.1-2.9-5.9-3.5c-3.5-0.6-7.2-0.4-10.6,0.7c-1.5,0.4-2.8,1.2-3.9,2.3
							c-0.3,0.4-0.6,0.9-0.6,1.4c0,0.2,0,0.4,0.1,0.6C158.8,33.5,159.1,33.7,159.1,33.5"/>
					</g>
				</g>
				<g>
					<defs>
						<polygon id="SVGID_90_" points="172.9,62.3 183.3,77.5 224.5,54.1 214.1,38.5 						"/>
					</defs>
					<clipPath id="SVGID_91_">
						<use xlink:href="#SVGID_90_"  style="overflow:visible;"/>
					</clipPath>
					<g class="st64">
						
							<linearGradient id="SVGID_92_" gradientUnits="userSpaceOnUse" x1="340.0038" y1="2273.6821" x2="341.0038" y2="2273.6821" gradientTransform="matrix(36.5552 36.7856 -36.7856 36.5552 71373.5156 -95599.3047)">
							<stop  offset="0" style="stop-color:#FBB773"/>
							<stop  offset="4.000000e-02" style="stop-color:#FBB773"/>
							<stop  offset="0.37" style="stop-color:#FCC580"/>
							<stop  offset="1" style="stop-color:#FDEBA4"/>
							<stop  offset="1" style="stop-color:#FDEBA4"/>
						</linearGradient>
						<polygon class="st65" points="153.3,57.9 198.9,12.6 244,58.1 198.5,103.3 						"/>
					</g>
				</g>
				<g>
					<defs>
						<polygon id="SVGID_93_" points="121.1,52 162.6,76.4 173,62.3 131.6,38 						"/>
					</defs>
					<clipPath id="SVGID_94_">
						<use xlink:href="#SVGID_93_"  style="overflow:visible;"/>
					</clipPath>
					<g class="st66">
						
							<linearGradient id="SVGID_95_" gradientUnits="userSpaceOnUse" x1="328.354" y1="2247.8777" x2="329.354" y2="2247.8777" gradientTransform="matrix(52.6584 100.342 -100.342 52.6584 208364.6875 -151352.25)">
							<stop  offset="0" style="stop-color:#F8A589"/>
							<stop  offset="4.000000e-02" style="stop-color:#F8A589"/>
							<stop  offset="0.29" style="stop-color:#F9B38E"/>
							<stop  offset="0.78" style="stop-color:#FCD89D"/>
							<stop  offset="1" style="stop-color:#FDEBA4"/>
						</linearGradient>
						<polygon class="st67" points="105.3,46.3 161.8,16.6 188.8,68.1 132.3,97.8 						"/>
					</g>
				</g>
			</g>
		</g>
	</g>
</g>
<linearGradient id="SVGID_96_" gradientUnits="userSpaceOnUse" x1="227.1098" y1="61.4848" x2="261.1364" y2="20.9335">
	<stop  offset="0.2962" style="stop-color:#000000;stop-opacity:0"/>
	<stop  offset="0.8549" style="stop-color:#000000"/>
</linearGradient>
<polygon class="st68" points="196.9,17.7 247,61.9 257.7,87.2 285.2,72 285.2,41.1 228.5,0 "/>
</svg>
