<svg xmlns="http://www.w3.org/2000/svg" xmlns:xlink="http://www.w3.org/1999/xlink" viewBox="0 0 796.32 762.21"><defs><style>.cls-1{fill:url(#linear-gradient);}.cls-2,.cls-24,.cls-30{fill:none;}.cls-3{clip-path:url(#clip-path);}.cls-4{fill:#e4a45b;}.cls-5{fill:#563a42;}.cls-6{fill:#fff;}.cls-7{fill:#000001;}.cls-8{clip-path:url(#clip-path-4);}.cls-9{fill:url(#linear-gradient-2);}.cls-10{fill:#3d2475;}.cls-11{fill:#250e08;}.cls-12{fill:#f47523;}.cls-13{fill:#2f2314;}.cls-14{fill:#9a5c25;}.cls-15{fill:#ffdfbc;}.cls-16{fill:#7f4d1f;}.cls-17{fill:#4d3d25;}.cls-18{fill:#abbebe;}.cls-19{fill:#babfc1;}.cls-20{fill:#ef4b23;}.cls-21{fill:#ca2027;}.cls-22{fill:#d6d3d0;}.cls-23{fill:#2a1008;}.cls-24{stroke:#150a05;stroke-width:2.49px;}.cls-24,.cls-30{stroke-linecap:round;stroke-miterlimit:10;}.cls-25{fill:#144621;}.cls-26{fill:#2b6a35;}.cls-27{opacity:0.42;}.cls-28{clip-path:url(#clip-path-6);}.cls-29{clip-path:url(#clip-path-7);}.cls-30{stroke:#5b3943;stroke-width:2.08px;}.cls-31{fill:#c18f8c;}.cls-32{fill:#070204;}.cls-33{clip-path:url(#clip-path-8);}.cls-34{fill:#2c125b;}.cls-35{fill:#9894a4;}.cls-36{clip-path:url(#clip-path-9);}.cls-37{fill:url(#linear-gradient-3);}.cls-38{clip-path:url(#clip-path-11);}.cls-39{fill:url(#linear-gradient-4);}.cls-40{clip-path:url(#clip-path-13);}.cls-41{fill:url(#linear-gradient-5);}.cls-42{clip-path:url(#clip-path-15);}.cls-43{fill:url(#linear-gradient-6);}.cls-44{clip-path:url(#clip-path-18);}.cls-45{fill:url(#linear-gradient-7);}.cls-46{clip-path:url(#clip-path-19);}.cls-47{fill:url(#linear-gradient-8);}.cls-48{clip-path:url(#clip-path-20);}.cls-49{fill:url(#linear-gradient-9);}.cls-50{clip-path:url(#clip-path-21);}.cls-51{fill:url(#linear-gradient-10);}.cls-52{clip-path:url(#clip-path-22);}.cls-53{fill:url(#linear-gradient-11);}.cls-54{clip-path:url(#clip-path-23);}.cls-55{fill:url(#linear-gradient-12);}.cls-56{clip-path:url(#clip-path-24);}.cls-57{fill:url(#linear-gradient-13);}.cls-58{clip-path:url(#clip-path-25);}.cls-59{fill:url(#linear-gradient-14);}.cls-60{clip-path:url(#clip-path-26);}.cls-61{fill:url(#linear-gradient-15);}.cls-62{clip-path:url(#clip-path-27);}.cls-63{fill:url(#linear-gradient-16);}.cls-64{clip-path:url(#clip-path-28);}.cls-65{fill:url(#linear-gradient-17);}.cls-66{clip-path:url(#clip-path-29);}.cls-67{fill:url(#linear-gradient-18);}.cls-68{clip-path:url(#clip-path-30);}.cls-69{fill:#5cc3b5;}.cls-70{clip-path:url(#clip-path-31);}.cls-71{fill:url(#linear-gradient-19);}.cls-72{clip-path:url(#clip-path-32);}.cls-73{fill:url(#linear-gradient-20);}.cls-74{clip-path:url(#clip-path-33);}.cls-75{fill:url(#linear-gradient-21);}.cls-76{clip-path:url(#clip-path-50);}.cls-77{fill:url(#linear-gradient-37);}.cls-78{clip-path:url(#clip-path-51);}.cls-79{fill:url(#linear-gradient-38);}.cls-80{clip-path:url(#clip-path-52);}.cls-81{fill:url(#linear-gradient-39);}.cls-82{clip-path:url(#clip-path-53);}.cls-83{fill:url(#linear-gradient-40);}.cls-84{clip-path:url(#clip-path-54);}.cls-85{fill:url(#linear-gradient-41);}.cls-86{clip-path:url(#clip-path-55);}.cls-87{fill:url(#linear-gradient-42);}.cls-88{clip-path:url(#clip-path-56);}.cls-89{fill:url(#linear-gradient-43);}.cls-90{clip-path:url(#clip-path-57);}.cls-91{fill:url(#linear-gradient-44);}.cls-92{clip-path:url(#clip-path-58);}.cls-93{fill:url(#linear-gradient-45);}.cls-94{clip-path:url(#clip-path-59);}.cls-95{fill:url(#linear-gradient-46);}.cls-96{clip-path:url(#clip-path-67);}.cls-97{fill:url(#linear-gradient-54);}.cls-98{fill:#3e2577;}.cls-99{clip-path:url(#clip-path-69);}.cls-100{mask:url(#mask);}.cls-101{fill:url(#linear-gradient-55);}.cls-102{clip-path:url(#clip-path-70);}.cls-103{fill:url(#linear-gradient-56);}.cls-104{clip-path:url(#clip-path-71);}.cls-105{fill:url(#linear-gradient-57);}.cls-106{clip-path:url(#clip-path-72);}.cls-107{fill:url(#linear-gradient-58);}.cls-108{clip-path:url(#clip-path-73);}.cls-109{fill:url(#linear-gradient-59);}.cls-110{clip-path:url(#clip-path-74);}.cls-111{fill:url(#linear-gradient-60);}.cls-112{clip-path:url(#clip-path-75);}.cls-113{fill:url(#linear-gradient-61);}.cls-114{clip-path:url(#clip-path-76);}.cls-115{fill:url(#linear-gradient-62);}.cls-116{clip-path:url(#clip-path-77);}.cls-117{fill:url(#linear-gradient-63);}.cls-118{clip-path:url(#clip-path-78);}.cls-119{fill:url(#linear-gradient-64);}.cls-120{clip-path:url(#clip-path-79);}.cls-121{fill:url(#linear-gradient-65);}.cls-122{clip-path:url(#clip-path-87);}.cls-123{fill:url(#linear-gradient-73);}.cls-124{clip-path:url(#clip-path-89);}.cls-125{fill:url(#linear-gradient-74);}.cls-126{clip-path:url(#clip-path-90);}.cls-127{fill:url(#linear-gradient-75);}.cls-128{clip-path:url(#clip-path-91);}.cls-129{fill:url(#linear-gradient-76);}.cls-130{clip-path:url(#clip-path-92);}.cls-131{fill:url(#linear-gradient-77);}.cls-132{clip-path:url(#clip-path-93);}.cls-133{fill:url(#linear-gradient-78);}.cls-134{clip-path:url(#clip-path-94);}.cls-135{fill:url(#linear-gradient-79);}.cls-136{clip-path:url(#clip-path-95);}.cls-137{fill:url(#linear-gradient-80);}.cls-138{clip-path:url(#clip-path-96);}.cls-139{fill:url(#linear-gradient-81);}.cls-140{clip-path:url(#clip-path-97);}.cls-141{fill:url(#linear-gradient-82);}.cls-142{clip-path:url(#clip-path-98);}.cls-143{fill:url(#linear-gradient-83);}.cls-144{clip-path:url(#clip-path-106);}.cls-145{fill:url(#linear-gradient-91);}</style><linearGradient id="linear-gradient" x1="-2307.55" y1="-1718.5" x2="-2306.13" y2="-1718.5" gradientTransform="matrix(0, 141.65, 141.65, 0, 243714.1, 327059.06)" gradientUnits="userSpaceOnUse"><stop offset="0" stop-color="#fff"/><stop offset="0.09" stop-color="#fbfbfb"/><stop offset="0.18" stop-color="#efefef"/><stop offset="0.26" stop-color="#dcdcdc"/><stop offset="0.35" stop-color="silver"/><stop offset="0.44" stop-color="#9c9c9c"/><stop offset="0.52" stop-color="#707070"/><stop offset="0.61" stop-color="#3c3c3c"/><stop offset="0.69" stop-color="#020202"/><stop offset="0.69"/><stop offset="1"/></linearGradient><clipPath id="clip-path" transform="translate(158.9 0)"><rect class="cls-2" width="638.91" height="761.45"/></clipPath><clipPath id="clip-path-4" transform="translate(158.9 0)"><polygon class="cls-2" points="222.57 326.19 341.99 394.25 342.03 382.77 232.62 319.71 232.82 193.62 223.08 188.06 222.57 326.19"/></clipPath><linearGradient id="linear-gradient-2" x1="-2307.33" y1="-1796.67" x2="-2305.91" y2="-1796.67" gradientTransform="matrix(53.07, 0, 0, -53.07, 122667.37, -95061.53)" gradientUnits="userSpaceOnUse"><stop offset="0" stop-color="#39181e"/><stop offset="0.32" stop-color="#3e1e24"/><stop offset="0.78" stop-color="#4d2e37"/><stop offset="1" stop-color="#563942"/></linearGradient><clipPath id="clip-path-6" transform="translate(158.9 0)"><rect class="cls-2" x="40.14" y="51.49" width="11.48" height="3.03"/></clipPath><clipPath id="clip-path-7" transform="translate(158.9 0)"><rect class="cls-2" x="40.51" y="51.87" width="10.74" height="2.29"/></clipPath><clipPath id="clip-path-8" transform="translate(158.9 0)"><polygon class="cls-2" points="50.79 333.52 67.3 409.39 80.96 518.92 67.3 610.54 322.77 761.45 513.14 647.74 212.64 463.09 638.91 217.34 637.39 149.56 510.39 62.02 50.79 333.52"/></clipPath><clipPath id="clip-path-9" transform="translate(158.9 0)"><path class="cls-2" d="M266.39,276.1c-5.46,3.16-9.89,10.8-9.89,17.07,0,3.06,1.05,5.23,2.77,6.28l84.86,49c1.79,1,.64-1.27,3.36-2.83,5.46-3.16,9.89-10.79,9.89-17.07,0-3.1,2.87-3.12,1.11-4.16l-85.2-49.07a5.11,5.11,0,0,0-2.46-.59,9,9,0,0,0-4.44,1.35"/></clipPath><linearGradient id="linear-gradient-3" x1="-2364.09" y1="-1890.79" x2="-2362.67" y2="-1890.79" gradientTransform="matrix(21.08, 0, 0, -21.08, 50132.2, -39547.54)" gradientUnits="userSpaceOnUse"><stop offset="0" stop-color="#7f7b8d"/><stop offset="0.29" stop-color="#7f7b8d"/><stop offset="0.48" stop-color="#a5a1b1"/><stop offset="0.59" stop-color="#b6b2c1"/><stop offset="0.81" stop-color="#9894a4"/><stop offset="1" stop-color="#9894a4"/></linearGradient><clipPath id="clip-path-11" transform="translate(158.9 0)"><path class="cls-2" d="M205.22,519.52,120,568.59c-1.76,1,1.11,1.06,1.11,4.16,0,6.27,4.42,13.91,9.89,17.06,2.71,1.57,1.57,3.84,3.36,2.84l84.86-49c1.71-1,2.77-3.22,2.77-6.29,0-6.27-4.43-13.9-9.89-17.06a9.07,9.07,0,0,0-4.44-1.36,5.19,5.19,0,0,0-2.47.6"/></clipPath><linearGradient id="linear-gradient-4" x1="-2480.59" y1="-1695.75" x2="-2479.17" y2="-1695.75" gradientTransform="matrix(0, -21.08, 21.08, 0, 35918.27, -51723.51)" xlink:href="#linear-gradient-3"/><clipPath id="clip-path-13" transform="translate(158.9 0)"><path class="cls-2" d="M423.92,643.16l-85.2,49.08c-1.76,1,1.11,1.06,1.11,4.16,0,6.27,4.43,13.9,9.89,17.06,2.72,1.57,1.57,3.83,3.36,2.83l84.86-49c1.72-1,2.77-3.22,2.77-6.28,0-6.27-4.43-13.91-9.89-17.06a9,9,0,0,0-4.44-1.36,5.11,5.11,0,0,0-2.46.59"/></clipPath><linearGradient id="linear-gradient-5" x1="-2483.61" y1="-1693.97" x2="-2482.19" y2="-1693.97" gradientTransform="translate(36099.46 -51663.48) rotate(-90) scale(21.08)" xlink:href="#linear-gradient-3"/><clipPath id="clip-path-15" transform="translate(158.9 0)"><path class="cls-2" d="M77.08,487.8l10.06,5.81c1.79,1,.65-1.27,3.36-2.83,5.47-3.16,9.9-10.8,9.9-17.07,0-3.1,2.86-3.12,1.11-4.16L72.74,453Z"/></clipPath><linearGradient id="linear-gradient-6" x1="-2367.63" y1="-1890.59" x2="-2366.22" y2="-1890.59" gradientTransform="matrix(21.08, 0, 0, -21.08, 49982.57, -39381.74)" xlink:href="#linear-gradient-3"/><clipPath id="clip-path-18" transform="translate(158.9 0)"><polygon class="cls-2" points="499.94 153.33 555.95 186.24 555.95 143.05 499.94 110.6 499.94 153.33"/></clipPath><linearGradient id="linear-gradient-7" x1="-2294.26" y1="-1750.28" x2="-2292.85" y2="-1750.28" gradientTransform="matrix(0, 102.1, 102.1, 0, 179236.94, 234389.07)" gradientUnits="userSpaceOnUse"><stop offset="0" stop-color="#f8a589"/><stop offset="0.04" stop-color="#f8a589"/><stop offset="0.29" stop-color="#f9b38e"/><stop offset="0.78" stop-color="#fcd89d"/><stop offset="1" stop-color="#fdeba4"/></linearGradient><clipPath id="clip-path-19" transform="translate(158.9 0)"><polygon class="cls-2" points="491.55 98.73 499.94 110.6 555.95 143.05 547.56 131.65 491.55 98.73"/></clipPath><linearGradient id="linear-gradient-8" x1="-2293.92" y1="-1750.39" x2="-2292.5" y2="-1750.39" gradientTransform="matrix(0, 100.82, 100.82, 0, 177004.91, 231391.84)" xlink:href="#linear-gradient-7"/><clipPath id="clip-path-20" transform="translate(158.9 0)"><polygon class="cls-2" points="444.46 142.24 444.46 185.43 444.46 185.43 500.01 153.33 500.01 110.6 444.46 142.24"/></clipPath><linearGradient id="linear-gradient-9" x1="-2301.98" y1="-1748.66" x2="-2300.56" y2="-1748.66" gradientTransform="matrix(0, 130.93, 130.93, 0, 229431.08, 301465.32)" xlink:href="#linear-gradient-7"/><clipPath id="clip-path-21" transform="translate(158.9 0)"><polygon class="cls-2" points="446.47 133.58 444.46 142.24 500.01 110.6 502.01 101.47 446.47 133.58"/></clipPath><linearGradient id="linear-gradient-10" x1="-2297.6" y1="-1751.19" x2="-2296.18" y2="-1751.19" gradientTransform="matrix(0, 109.32, 109.32, 0, 191920.16, 251229.31)" xlink:href="#linear-gradient-7"/><clipPath id="clip-path-22" transform="translate(158.9 0)"><polygon class="cls-2" points="444.46 184.42 500.41 217.34 555.95 185.23 500.12 152.48 444.46 184.42"/></clipPath><linearGradient id="linear-gradient-11" x1="-2290.63" y1="-1723.86" x2="-2289.21" y2="-1723.86" gradientTransform="matrix(0, 95.05, 95.05, 0, 164361.55, 217794.64)" xlink:href="#linear-gradient-7"/><clipPath id="clip-path-23" transform="translate(158.9 0)"><path class="cls-2" d="M471.25,153.2v5h0c0,.08,0,.15,0,.23,0,9.12,12.69,16.51,28.34,16.51s28.35-7.39,28.35-16.51c0-.08,0-.15,0-.23h0v-5Z"/></clipPath><linearGradient id="linear-gradient-12" x1="-2265.36" y1="-1790.79" x2="-2263.94" y2="-1790.79" gradientTransform="matrix(41.99, 0, 0, -41.99, 95744.27, -75025.78)" gradientUnits="userSpaceOnUse"><stop offset="0" stop-color="#b9552b"/><stop offset="0.04" stop-color="#b9552b"/><stop offset="0.29" stop-color="#c1623b"/><stop offset="0.8" stop-color="#d68466"/><stop offset="1" stop-color="#df9379"/></linearGradient><clipPath id="clip-path-24" transform="translate(158.9 0)"><path class="cls-2" d="M471.25,153.31c0,9.12,12.69,16.51,28.34,16.51s28.35-7.39,28.35-16.51-12.69-16.5-28.35-16.5-28.34,7.39-28.34,16.5"/></clipPath><linearGradient id="linear-gradient-13" x1="-2324.09" y1="-1662.62" x2="-2322.68" y2="-1662.62" gradientTransform="matrix(-46.49, 0, 0, 46.49, -107493.02, 77444.73)" xlink:href="#linear-gradient-12"/><clipPath id="clip-path-25" transform="translate(158.9 0)"><polygon class="cls-2" points="500.41 175.13 500.41 217.86 500.41 217.86 555.95 186.22 555.95 143.03 500.41 175.13"/></clipPath><linearGradient id="linear-gradient-14" x1="-2346.57" y1="-1722.31" x2="-2345.15" y2="-1722.31" gradientTransform="matrix(0, -130.94, -130.94, 0, -224982.89, -306976.54)" xlink:href="#linear-gradient-7"/><clipPath id="clip-path-26" transform="translate(158.9 0)"><path class="cls-2" d="M471.09,146.64v5h0c0,.07,0,.15,0,.22,0,9.12,12.69,16.51,28.35,16.51s28.34-7.39,28.34-16.51c0-.07,0-.15,0-.22h0v-5Z"/></clipPath><linearGradient id="linear-gradient-15" x1="-2265.36" y1="-1790.75" x2="-2263.94" y2="-1790.75" gradientTransform="matrix(41.99, 0, 0, -41.99, 95744.05, -75030.33)" xlink:href="#linear-gradient-12"/><clipPath id="clip-path-27" transform="translate(158.9 0)"><path class="cls-2" d="M471.09,146.76c0,9.12,12.69,16.5,28.35,16.5s28.34-7.38,28.34-16.5-12.69-16.51-28.34-16.51-28.35,7.39-28.35,16.51"/></clipPath><linearGradient id="linear-gradient-16" x1="-2249.14" y1="-1688.38" x2="-2247.72" y2="-1688.38" gradientTransform="matrix(0, 38.16, 38.16, 0, 64935.26, 85939.98)" xlink:href="#linear-gradient-12"/><clipPath id="clip-path-28" transform="translate(158.9 0)"><path class="cls-2" d="M471.09,144.09v5h0c0,.08,0,.15,0,.23,0,2,.69,2.39,1.83,4.18.56.89.88,4.24,1.68,5,.54.54,1.17.43,1.86.33a2.68,2.68,0,0,1,2,.23c1.4.89,3.17,3.3,4.87,4a9.05,9.05,0,0,0,5.55.55,21,21,0,0,1,4.13-.15c.91.05,5.38,3.2,6.31,3.2,2.49,0,3.69-2.93,6-3.28a6.67,6.67,0,0,1,3.28.86c1.26.55,2.49,1.1,3.43.81,1.58-.47,3.09-3.68,4.48-4.31a4,4,0,0,1,2-.18,3.19,3.19,0,0,0,2-.27c1.18-.77,1.89-2.9,2.81-3.79s2.2-.7,2.85-1.79a10.48,10.48,0,0,0,1.57-5.43c0-.08,0-.15,0-.23h0v-5Z"/></clipPath><linearGradient id="linear-gradient-17" x1="-2265.36" y1="-1790.73" x2="-2263.94" y2="-1790.73" gradientTransform="matrix(41.99, 0, 0, -41.99, 95744.05, -75031.83)" gradientUnits="userSpaceOnUse"><stop offset="0" stop-color="#2d170b"/><stop offset="0.34" stop-color="#431c0e"/><stop offset="1" stop-color="#782716"/></linearGradient><clipPath id="clip-path-29" transform="translate(158.9 0)"><path class="cls-2" d="M471.09,144.2c0,9.12,12.69,16.51,28.35,16.51s28.34-7.39,28.34-16.51-12.69-16.51-28.34-16.51-28.35,7.39-28.35,16.51"/></clipPath><linearGradient id="linear-gradient-18" x1="-2249.16" y1="-1688.38" x2="-2247.74" y2="-1688.38" gradientTransform="matrix(0, 38.16, 38.16, 0, 64935.18, 85938.28)" xlink:href="#linear-gradient-17"/><clipPath id="clip-path-30" transform="translate(158.9 0)"><rect class="cls-2" x="470.01" y="121.11" width="56.69" height="32.88"/></clipPath><clipPath id="clip-path-31" transform="translate(158.9 0)"><polygon class="cls-2" points="444.75 142.37 500.58 175.12 513.28 159.14 457.34 126.23 444.75 142.37"/></clipPath><linearGradient id="linear-gradient-19" x1="-2357.55" y1="-1740.21" x2="-2356.13" y2="-1740.21" gradientTransform="matrix(0, -100.68, -100.68, 0, -174732.84, -237123.42)" xlink:href="#linear-gradient-7"/><clipPath id="clip-path-32" transform="translate(158.9 0)"><polygon class="cls-2" points="444.46 142.22 444.46 185.41 500.47 217.86 500.47 175.13 444.46 142.22 444.46 142.22"/></clipPath><linearGradient id="linear-gradient-20" x1="-2353.67" y1="-1720.6" x2="-2352.26" y2="-1720.6" gradientTransform="matrix(0, -102.1, -102.1, 0, -175206.68, -240126.93)" xlink:href="#linear-gradient-7"/><clipPath id="clip-path-33" transform="translate(158.9 0)"><polygon class="cls-2" points="494.19 155.64 500.41 175.13 555.95 143.03 549.74 123.99 494.19 155.64"/></clipPath><linearGradient id="linear-gradient-21" x1="-2406.63" y1="-1742.45" x2="-2405.22" y2="-1742.45" gradientTransform="matrix(0, -41.07, -41.07, 0, -71044.72, -98655.75)" gradientUnits="userSpaceOnUse"><stop offset="0" stop-color="#fbb773"/><stop offset="0.04" stop-color="#fbb773"/><stop offset="0.37" stop-color="#fcc580"/><stop offset="1" stop-color="#fdeba4"/><stop offset="1" stop-color="#fdeba4"/></linearGradient><clipPath id="clip-path-50" transform="translate(158.9 0)"><polygon class="cls-2" points="299.01 601.51 299.01 644.24 355.02 611.79 355.02 568.6 355.02 568.6 299.01 601.51"/></clipPath><linearGradient id="linear-gradient-37" x1="-2308.21" y1="-1705.71" x2="-2306.8" y2="-1705.71" gradientTransform="translate(235991.47 174764.23) scale(102.1)" xlink:href="#linear-gradient-7"/><clipPath id="clip-path-51" transform="translate(158.9 0)"><polygon class="cls-2" points="245.91 613.52 299.07 644.24 299.07 601.51 245.91 570.33 245.91 613.52"/></clipPath><linearGradient id="linear-gradient-38" x1="-2309.85" y1="-1712.35" x2="-2308.43" y2="-1712.35" gradientTransform="matrix(126.04, 0, 0, 126.04, 291320.9, 216434.37)" xlink:href="#linear-gradient-7"/><clipPath id="clip-path-52" transform="translate(158.9 0)"><polygon class="cls-2" points="245.91 570.33 299.07 601.51 355.02 568.6 301.73 537.58 245.91 570.33"/></clipPath><linearGradient id="linear-gradient-39" x1="-2313.5" y1="-1769.74" x2="-2312.08" y2="-1769.74" gradientTransform="translate(-220570.63 -168484.71) rotate(180) scale(95.53)" xlink:href="#linear-gradient-7"/><clipPath id="clip-path-53" transform="translate(158.9 0)"><polygon class="cls-2" points="322.77 587.8 322.77 595.7 335.42 588.47 335.42 580.1 322.77 587.8"/></clipPath><linearGradient id="linear-gradient-40" x1="-2252.1" y1="-1600.42" x2="-2250.69" y2="-1600.42" gradientTransform="matrix(22.49, 0, 0, 22.49, 50968.7, 36575.83)" gradientUnits="userSpaceOnUse"><stop offset="0" stop-color="#c86a48"/><stop offset="0.04" stop-color="#c86a48"/><stop offset="0.32" stop-color="#d37958"/><stop offset="0.88" stop-color="#f19f82"/><stop offset="1" stop-color="#f8a88c"/></linearGradient><clipPath id="clip-path-54" transform="translate(158.9 0)"><polygon class="cls-2" points="269.67 556.62 322.84 587.8 335.42 580.1 282.14 549.08 269.67 556.62"/></clipPath><linearGradient id="linear-gradient-41" x1="-2283.42" y1="-1864.36" x2="-2282.01" y2="-1864.36" gradientTransform="translate(-57620.13 -46751.25) rotate(180) scale(25.38)" xlink:href="#linear-gradient-40"/><clipPath id="clip-path-55" transform="translate(158.9 0)"><polygon class="cls-2" points="305.22 620.99 308.1 619.32 308.1 635.71 311.21 633.91 311.21 617.52 314.09 615.86 309.65 607.24 305.22 620.99"/></clipPath><linearGradient id="linear-gradient-42" x1="-2093.3" y1="-1643.4" x2="-2091.88" y2="-1643.4" gradientTransform="matrix(13.34, 1.89, -7.19, 21.94, 16569.89, 40620.9)" xlink:href="#linear-gradient-40"/><clipPath id="clip-path-56" transform="translate(158.9 0)"><polygon class="cls-2" points="316 614.76 318.88 613.1 318.88 629.48 322 627.68 322 611.3 324.88 609.63 320.44 601.01 316 614.76"/></clipPath><linearGradient id="linear-gradient-43" x1="-2093.11" y1="-1643.5" x2="-2091.7" y2="-1643.5" gradientTransform="matrix(13.34, 1.89, -7.19, 21.94, 16577.75, 40617.08)" xlink:href="#linear-gradient-40"/><clipPath id="clip-path-57" transform="translate(158.9 0)"><polygon class="cls-2" points="303.5 541.72 303.5 545.33 307.1 543.17 307.1 539.58 303.5 541.72"/></clipPath><linearGradient id="linear-gradient-44" x1="-2649.82" y1="-1527.36" x2="-2648.41" y2="-1527.36" gradientTransform="matrix(0, -8.87, -8.87, 0, -13238.39, -22948.4)" gradientUnits="userSpaceOnUse"><stop offset="0" stop-color="#150c2c"/><stop offset="1" stop-color="#3e2577"/></linearGradient><clipPath id="clip-path-58" transform="translate(158.9 0)"><polygon class="cls-2" points="327.78 569.64 327.78 589.74 327.78 589.74 339.76 582.97 339.76 562.87 327.78 569.64"/></clipPath><linearGradient id="linear-gradient-45" x1="-2261.71" y1="-1618.74" x2="-2260.29" y2="-1618.74" gradientTransform="translate(59109.05 42644.56) scale(25.99)" xlink:href="#linear-gradient-44"/><clipPath id="clip-path-59" transform="translate(158.9 0)"><polygon class="cls-2" points="327.78 565.96 327.78 586.06 327.78 586.07 339.76 579.3 339.76 559.19 327.78 565.96"/></clipPath><linearGradient id="linear-gradient-46" x1="-2261.7" y1="-1618.77" x2="-2260.28" y2="-1618.77" gradientTransform="translate(59108.74 42641.92) scale(25.99)" gradientUnits="userSpaceOnUse"><stop offset="0" stop-color="#9a9ab0"/><stop offset="0.04" stop-color="#9a9ab0"/><stop offset="0.58" stop-color="#d3d0d8"/><stop offset="1" stop-color="#edeaf0"/></linearGradient><clipPath id="clip-path-67" transform="translate(158.9 0)"><polygon class="cls-2" points="250.49 611.62 292.71 636 292.71 614.12 250.49 589.74 250.49 611.62"/></clipPath><linearGradient id="linear-gradient-54" x1="-2243.57" y1="-1771.24" x2="-2242.16" y2="-1771.24" gradientTransform="matrix(29.81, 17.21, 0, -29.81, 67293.17, -13587.01)" gradientUnits="userSpaceOnUse"><stop offset="0" stop-color="#d3d0d8"/><stop offset="1" stop-color="#edeaf0"/></linearGradient><clipPath id="clip-path-69" transform="translate(158.9 0)"><polygon class="cls-2" points="233.27 332.29 341.99 394.25 342.5 256.26 232.82 193.62 233.27 332.29"/></clipPath><mask id="mask" x="391.72" y="193.62" width="109.68" height="200.63" maskUnits="userSpaceOnUse"><g transform="translate(158.9 0)"><rect class="cls-1" x="232.82" y="193.62" width="109.68" height="200.63"/></g></mask><linearGradient id="linear-gradient-55" x1="-2307.55" y1="-1718.5" x2="-2306.13" y2="-1718.5" gradientTransform="matrix(0, 141.65, 141.65, 0, 243873, 327059.06)" gradientUnits="userSpaceOnUse"><stop offset="0" stop-color="#000001"/><stop offset="0.69" stop-color="#000001"/><stop offset="1" stop-color="#000001"/></linearGradient><clipPath id="clip-path-70" transform="translate(158.9 0)"><polygon class="cls-2" points="223.05 331.65 223.05 374.38 223.05 374.38 279.07 341.93 279.07 298.74 223.05 331.65"/></clipPath><linearGradient id="linear-gradient-56" x1="-2308.2" y1="-1706.51" x2="-2306.78" y2="-1706.51" gradientTransform="translate(235914.13 174576.8) scale(102.1)" xlink:href="#linear-gradient-7"/><clipPath id="clip-path-71" transform="translate(158.9 0)"><polygon class="cls-2" points="169.95 343.66 223.12 374.38 223.12 331.65 169.95 300.47 169.95 343.66"/></clipPath><linearGradient id="linear-gradient-57" x1="-2309.88" y1="-1713.01" x2="-2308.47" y2="-1713.01" gradientTransform="matrix(126.04, 0, 0, 126.04, 291249.33, 216246.88)" xlink:href="#linear-gradient-7"/><clipPath id="clip-path-72" transform="translate(158.9 0)"><polygon class="cls-2" points="169.95 300.47 223.12 331.65 279.07 298.74 225.78 267.72 169.95 300.47"/></clipPath><linearGradient id="linear-gradient-58" x1="-2314.12" y1="-1769.15" x2="-2312.71" y2="-1769.15" gradientTransform="translate(-220706.44 -168697.96) rotate(-180) scale(95.53)" xlink:href="#linear-gradient-7"/><clipPath id="clip-path-73" transform="translate(158.9 0)"><polygon class="cls-2" points="246.82 317.94 246.82 325.84 246.82 325.84 259.47 318.61 259.47 310.24 259.47 310.24 246.82 317.94"/></clipPath><linearGradient id="linear-gradient-59" x1="-2252.04" y1="-1604.09" x2="-2250.63" y2="-1604.09" gradientTransform="translate(50891.34 36388.44) scale(22.49)" xlink:href="#linear-gradient-40"/><clipPath id="clip-path-74" transform="translate(158.9 0)"><polygon class="cls-2" points="193.71 286.75 246.88 317.94 259.47 310.24 206.18 279.22 193.71 286.75"/></clipPath><linearGradient id="linear-gradient-60" x1="-2285.78" y1="-1862.13" x2="-2284.37" y2="-1862.13" gradientTransform="translate(-57755.95 -46964.49) rotate(180) scale(25.38)" xlink:href="#linear-gradient-40"/><clipPath id="clip-path-75" transform="translate(158.9 0)"><polygon class="cls-2" points="229.26 351.13 232.14 349.46 232.14 365.85 235.26 364.05 235.26 347.66 238.14 346 233.7 337.38 229.26 351.13"/></clipPath><linearGradient id="linear-gradient-61" x1="-2096.76" y1="-1646.72" x2="-2095.34" y2="-1646.72" gradientTransform="matrix(13.34, 1.89, -7.19, 21.94, 16516.26, 40430.37)" xlink:href="#linear-gradient-40"/><clipPath id="clip-path-76" transform="translate(158.9 0)"><polygon class="cls-2" points="240.05 344.9 242.93 343.24 242.93 359.62 246.04 357.82 246.04 341.43 248.93 339.77 244.49 331.15 240.05 344.9"/></clipPath><linearGradient id="linear-gradient-62" x1="-2096.58" y1="-1646.82" x2="-2095.16" y2="-1646.82" gradientTransform="matrix(13.34, 1.89, -7.19, 21.94, 16524.13, 40426.55)" xlink:href="#linear-gradient-40"/><clipPath id="clip-path-77" transform="translate(158.9 0)"><polygon class="cls-2" points="227.54 271.86 227.54 275.47 231.15 273.31 231.15 269.71 227.54 271.86"/></clipPath><linearGradient id="linear-gradient-63" x1="-2645.41" y1="-1535.54" x2="-2643.99" y2="-1535.54" gradientTransform="matrix(0, -8.87, -8.87, 0, -13386.91, -23179.1)" xlink:href="#linear-gradient-44"/><clipPath id="clip-path-78" transform="translate(158.9 0)"><polygon class="cls-2" points="251.83 299.78 251.83 319.88 251.83 319.88 263.81 313.11 263.81 293.01 263.81 293.01 251.83 299.78"/></clipPath><linearGradient id="linear-gradient-64" x1="-2261.66" y1="-1621.91" x2="-2260.24" y2="-1621.91" gradientTransform="translate(59031.72 42457.12) scale(25.99)" xlink:href="#linear-gradient-44"/><clipPath id="clip-path-79" transform="translate(158.9 0)"><polygon class="cls-2" points="251.83 296.1 251.83 316.2 251.83 316.2 263.81 309.44 263.81 289.33 263.81 289.33 251.83 296.1"/></clipPath><linearGradient id="linear-gradient-65" x1="-2261.64" y1="-1621.95" x2="-2260.23" y2="-1621.95" gradientTransform="matrix(25.99, 0, 0, 25.99, 59031.41, 42454.48)" xlink:href="#linear-gradient-46"/><clipPath id="clip-path-87" transform="translate(158.9 0)"><polygon class="cls-2" points="174.54 341.76 216.76 366.13 216.76 344.26 174.54 319.88 174.54 341.76"/></clipPath><linearGradient id="linear-gradient-73" x1="-2244.32" y1="-1769.02" x2="-2242.91" y2="-1769.02" gradientTransform="matrix(29.81, 17.21, 0, -29.81, 67239.55, -13777.54)" xlink:href="#linear-gradient-54"/><clipPath id="clip-path-89" transform="translate(158.9 0)"><polygon class="cls-2" points="177.88 532.07 177.88 574.79 177.88 574.79 233.89 542.34 233.89 499.16 233.89 499.15 177.88 532.07"/></clipPath><linearGradient id="linear-gradient-74" x1="-2308.49" y1="-1706" x2="-2307.07" y2="-1706" gradientTransform="translate(235898.62 174724.53) scale(102.1)" xlink:href="#linear-gradient-7"/><clipPath id="clip-path-90" transform="translate(158.9 0)"><polygon class="cls-2" points="124.77 544.07 177.94 574.79 177.94 532.07 124.77 500.89 124.77 544.07"/></clipPath><linearGradient id="linear-gradient-75" x1="-2310.09" y1="-1712.57" x2="-2308.67" y2="-1712.57" gradientTransform="matrix(126.04, 0, 0, 126.04, 291230.11, 216392.55)" xlink:href="#linear-gradient-7"/><clipPath id="clip-path-91" transform="translate(158.9 0)"><polygon class="cls-2" points="124.77 500.89 177.94 532.07 233.89 499.15 180.6 468.13 124.77 500.89"/></clipPath><linearGradient id="linear-gradient-76" x1="-2313.51" y1="-1769.31" x2="-2312.1" y2="-1769.31" gradientTransform="translate(-220693.29 -168513.15) rotate(180) scale(95.53)" xlink:href="#linear-gradient-7"/><clipPath id="clip-path-92" transform="translate(158.9 0)"><polygon class="cls-2" points="201.64 518.35 201.64 526.25 214.29 519.02 214.29 510.65 201.64 518.35"/></clipPath><linearGradient id="linear-gradient-77" x1="-2253.36" y1="-1601.75" x2="-2251.94" y2="-1601.75" gradientTransform="matrix(22.49, 0, 0, 22.49, 50875.82, 36536.16)" xlink:href="#linear-gradient-40"/><clipPath id="clip-path-93" transform="translate(158.9 0)"><polygon class="cls-2" points="148.54 487.17 201.71 518.35 214.29 510.65 161.01 479.64 148.54 487.17"/></clipPath><linearGradient id="linear-gradient-78" x1="-2283.48" y1="-1862.74" x2="-2282.07" y2="-1862.74" gradientTransform="translate(-57742.79 -46779.69) rotate(180) scale(25.38)" xlink:href="#linear-gradient-40"/><clipPath id="clip-path-94" transform="translate(158.9 0)"><polygon class="cls-2" points="184.09 551.54 186.96 549.88 186.96 566.26 190.08 564.46 190.08 548.08 192.96 546.41 188.52 537.8 184.09 551.54"/></clipPath><linearGradient id="linear-gradient-79" x1="-2096.33" y1="-1644.07" x2="-2094.91" y2="-1644.07" gradientTransform="matrix(13.34, 1.89, -7.19, 21.94, 16484.36, 40571.87)" xlink:href="#linear-gradient-40"/><clipPath id="clip-path-95" transform="translate(158.9 0)"><polygon class="cls-2" points="194.87 545.31 197.75 543.65 197.75 560.03 200.87 558.23 200.87 541.85 203.75 540.19 199.31 531.57 194.87 545.31"/></clipPath><linearGradient id="linear-gradient-80" x1="-2096.15" y1="-1644.17" x2="-2094.73" y2="-1644.17" gradientTransform="matrix(13.34, 1.89, -7.19, 21.94, 16492.23, 40568.05)" xlink:href="#linear-gradient-40"/><clipPath id="clip-path-96" transform="translate(158.9 0)"><polygon class="cls-2" points="182.37 472.27 182.37 475.88 185.97 473.73 185.97 470.13 182.37 472.27"/></clipPath><linearGradient id="linear-gradient-81" x1="-2645.4" y1="-1528.73" x2="-2643.99" y2="-1528.73" gradientTransform="matrix(0, -8.87, -8.87, 0, -13371.68, -22978.62)" xlink:href="#linear-gradient-44"/><clipPath id="clip-path-97" transform="translate(158.9 0)"><polygon class="cls-2" points="206.65 500.19 206.65 520.29 218.63 513.52 218.63 493.42 206.65 500.19"/></clipPath><linearGradient id="linear-gradient-82" x1="-2262.8" y1="-1619.88" x2="-2261.38" y2="-1619.88" gradientTransform="translate(59016.17 42604.9) scale(25.99)" xlink:href="#linear-gradient-44"/><clipPath id="clip-path-98" transform="translate(158.9 0)"><polygon class="cls-2" points="206.65 496.51 206.65 516.62 218.63 509.85 218.63 489.74 206.65 496.51"/></clipPath><linearGradient id="linear-gradient-83" x1="-2262.78" y1="-1619.92" x2="-2261.37" y2="-1619.92" gradientTransform="matrix(25.99, 0, 0, 25.99, 59015.87, 42602.24)" xlink:href="#linear-gradient-46"/><clipPath id="clip-path-106" transform="translate(158.9 0)"><polygon class="cls-2" points="129.36 542.17 171.58 566.55 171.58 544.67 129.36 520.29 129.36 542.17"/></clipPath><linearGradient id="linear-gradient-91" x1="-2244.77" y1="-1771.25" x2="-2243.35" y2="-1771.25" gradientTransform="matrix(29.81, 17.21, 0, -29.81, 67207.65, -13636.04)" xlink:href="#linear-gradient-54"/></defs><title>Asset 5</title><g id="Layer_2" data-name="Layer 2"><g id="Layer_1-2" data-name="Layer 1"><g id="Artwork_86" data-name="Artwork 86"><g class="cls-3"><g class="cls-3"><g class="cls-3"><path class="cls-4" d="M463.12,325.56c3.48,0,4.6-.82,6.32-3.63s.85-7.38.79-8.63c-.15-2.74-1.08-5.78-1.19-7.3-.07-.94,0-6.91.14-9.28,2.09-38.65,18.64-47.83,23.45-48.88,5.91-1.28,8.4.39,9.24.63l0-59.09h0l0-.84V172.78c0-8.55-6.08-19.05-13.47-23.33l-121.13-70c-7.4-4.28-19.51-4.29-26.92,0l-121,69.85c-7.4,4.27-13.46,14.77-13.45,23.32v15.28c0,.09,0,.18,0,.27v22.37c.71.39,1.41.79,2.11,1.23,2.34,1.48,4.67,2.41,7,4,3.72,2.59,9.62,5.71,18.59,14.44,1.1,1.07,4.78,5.7,5.67,6.79,2.88,3.54,5.49,7.31,9,10.27a32.78,32.78,0,0,0,6,4.32c3.56,1.85,9.44,1.43,12.48.11,23.06-10,37.52-5,44.2-1,16.51,9.91,22,23.78,23.77,40.6a46.21,46.21,0,0,1,.22,6.57c0,4-.14,10.43,4.08,11.5,6.05,1.54,7.5-4.92,8.41-9.22,2-9.71,15-16.1,24.46-11.2,6.53,3.38,9.2,5.29,15.65,2.45,8.09-3.57,12.24-12.63,15.07-17.45a29.51,29.51,0,0,1,11.63-11.07c12.61-7.87,44.27-5.82,45.43,29.07,0,1.91-.06,6.76-.07,9.72,0,3.32.11,6.58-.1,10-.14,2.29-.55,4.69-.77,7,0,0-1.18,6.85,4.4,6.87" transform="translate(158.9 0)"/><path class="cls-5" d="M501.85,248.46c-.86-.25-3.35-1.89-9.22-.62-4.8,1-21.36,10.23-23.45,48.88-.12,2.37-.21,8.34-.14,9.28.11,1.52,1,4.56,1.19,7.3.07,1.25,1,5.76-.79,8.63s-2.84,3.65-6.32,3.63c-5.58,0-4.4-6.87-4.4-6.87.22-2.32.63-4.71.77-7,.21-3.44.1-6.7.1-10,0-3,.05-7.81.07-9.72-1.16-34.89-32.82-36.94-45.43-29.07A29.51,29.51,0,0,0,402.6,274c-2.83,4.82-7,13.88-15.07,17.45-6.45,2.84-9.12.93-15.65-2.45-9.48-4.9-22.42,1.49-24.46,11.2-.91,4.3-2.36,10.76-8.41,9.22-4.22-1.07-4.08-7.5-4.08-11.5a46.21,46.21,0,0,0-.22-6.57c-1.76-16.82-7.26-30.69-23.77-40.6-6.68-4-21.14-9-44.2,1-3,1.32-8.92,1.74-12.48-.11a33.19,33.19,0,0,1-6-4.32c-3.48-3-6.09-6.73-9-10.27-.89-1.09-4.57-5.72-5.67-6.79-9-8.73-14.87-11.85-18.59-14.44-2.36-1.62-4.69-2.55-7-4-.7-.44-1.4-.84-2.11-1.23l.07,102c0,8.55,6.07,19,13.47,23.33l121.12,70.05c7.4,4.28,19.52,4.29,26.92,0l121-69.85c7.41-4.27,13.46-14.77,13.45-23.32Z" transform="translate(158.9 0)"/><path class="cls-6" d="M369.24,231.33c-8.38,4.83-22.09,4.83-30.46,0L214.94,166c1.4,1.39,125.59,73.54,125.59,73.54,7.4,4.28,19.52,4.29,26.92,0,0,0,124-71.93,125.43-73.31Z" transform="translate(158.9 0)"/><path class="cls-6" d="M338.59,88.75c8.37-4.83,22.08-4.83,30.45,0l15,6.27c-1.4-1.39-16.76-11.35-16.76-11.35-7.4-4.28-19.52-4.29-26.92,0,0,0-24.54,14.41-25.93,15.78Z" transform="translate(158.9 0)"/><polygon class="cls-7" points="500.9 392.37 501.4 256.27 383.61 188.99 383.11 325.24 500.9 392.37"/></g><g class="cls-8"><rect class="cls-9" x="179.02" y="172" width="206.56" height="238.3" transform="translate(51.14 180.16) rotate(-30)"/></g><g class="cls-3"><polyline class="cls-10" points="219.53 378.71 243.98 391.96 247.16 499.98 247.16 528.57"/><path class="cls-11" d="M64.26,35.7V64.75s1.45,18.06-8.63,21.67-14.94,2.52-14.94,2.52L37.86,42.11,59,27.84l5.23,7.86" transform="translate(158.9 0)"/><path class="cls-4" d="M53.84,81c5.38-3,11.83,4.32,12,6.18.11,1.35.32,3,.58,4.94,1.48,11.09-2.58,47.6,16.27,44.87s25.39-10.3,25.39-10.3,0-5.58.58-7.5,5-6.19,5.59-6.51,4.92-1.63,5.92-1a1.41,1.41,0,0,1,.06,2.5c-1,.83-5,.87-5.66,2.14s-.66,4.73,3.13,3.45,9.57-3.87,10.47-3.85,1.44,1.19.76,2.66a10.78,10.78,0,0,1-2.76,3,9.2,9.2,0,0,1-.85,3.1,10.65,10.65,0,0,1-2.5,1.86,26.26,26.26,0,0,1-2,3.72c-.77,1-8.6,4.76-8.6,4.76S91.65,152.16,72.6,148.75,54.24,111.23,52.69,96.8C52.1,91.33,51.46,82.28,53.84,81" transform="translate(158.9 0)"/><path class="cls-12" d="M59.09,80.16s7.8,1.77,8.31,11.26-.81,35.46,8.21,42,31.23-10.09,31.23-10.09L115.56,139S86.77,157,69.93,150.2a24,24,0,0,1-15.61-23.11l4.77-46.93" transform="translate(158.9 0)"/><path class="cls-13" d="M22.89,336.77l6.33,20.17H39.38s1.06.38,1.06,2.34-1.49,1.57-6,1.57H27.3s-1.1.15-2.26-3.53S21.69,346,21.69,346l-3-1.39s-1.68-3.92-.43-5.64,4.65-2.15,4.65-2.15" transform="translate(158.9 0)"/><polygon class="cls-13" points="177.57 344.56 180.3 360.88 181.07 360.88 180.59 345.95 177.57 344.56"/><polygon class="cls-4" points="189.46 329.37 189.99 337.63 193.35 354.64 196.89 356.94 188.12 356.94 181.79 336.77 182.85 329.37 189.46 329.37"/><path class="cls-13" d="M40.07,336.77l6.33,20.17H56.56s1.06.38,1.06,2.34-1.49,1.57-6,1.57h-7.1s-1.1.15-2.26-3.53S38.87,346,38.87,346l-3-1.39s-1.68-3.92-.44-5.64,4.66-2.15,4.66-2.15" transform="translate(158.9 0)"/><polygon class="cls-13" points="194.75 344.56 197.48 360.88 198.25 360.88 197.77 345.95 194.75 344.56"/><polygon class="cls-4" points="206.64 329.37 207.17 337.63 210.53 354.64 214.07 356.94 205.3 356.94 198.97 336.77 200.02 329.37 206.64 329.37"/><polygon class="cls-11" points="185.75 54.89 185.75 84.72 204.85 79.64 197.7 57.06 185.75 54.89"/><path class="cls-12" d="M59.09,80.16a55.17,55.17,0,0,0-20.19-3.6,61.81,61.81,0,0,0-20.09,3.1s-1.16,26-.59,27.58,9.37,33.82,9.37,33.82H52.51l6.58-24.71s7.64-3.89,7.39-10.25-7.39-13.27-7.39-13.27V80.16" transform="translate(158.9 0)"/><path class="cls-6" d="M10.3,181.49c2.12-16.53,17.28-40.42,17.28-40.42H52.51S67.67,165,69.79,181.49,57.5,256.56,57.5,256.56L56.94,263l-8.66,72.82H40s-1.85-27.29-1.85-42.92,3.44-37.83,3.44-37.83l-.27-65.67-1.29-.11-1.3.11-3.52,67.12L35,262.47l-3.73,73.37L23,336s-3.06-27.05-3.77-42.65.62-38.24.62-38.24S8.19,198,10.3,181.49" transform="translate(158.9 0)"/><path class="cls-14" d="M46.88,64.56l1.4,13.17a6.43,6.43,0,0,1-6.46,4.51A9.85,9.85,0,0,1,33.71,78l.59-17.09Z" transform="translate(158.9 0)"/><path class="cls-12" d="M16.76,127.42s-9,48-11.64,75.26S3,243.85,3,243.85s8.89,4.17,35,5.33,39.64-6.93,39.64-6.93S73.26,197.76,70,173.78s-8.18-62.35-8.18-62.35l-45.06,16" transform="translate(158.9 0)"/><polygon class="cls-15" points="292.48 100.92 263.58 151.36 231.75 151.36 260.11 100.92 292.48 100.92"/><path class="cls-4" d="M24,81.22s-.84.41.79,11.55S22.62,140.51,42,138s26.06-10.06,26.06-10.06-.07-5.6.53-7.53,5.07-6.15,5.69-6.47,5-1.58,6.09-1a1.41,1.41,0,0,1,.09,2.52c-1,.82-5.16.82-5.82,2.08s-.51,1.68,3.38.44,9.71-.72,10.64-.69,1.49,1.21.8,2.67a10.79,10.79,0,0,1-2.81,3,9,9,0,0,1-.85,3.11,10.83,10.83,0,0,1-2.55,1.83,26.89,26.89,0,0,1-2,3.72c-.78,1-8.82,4.68-8.82,4.68s-21.07,17-40.74,13.41-19.26-37.83-21-52.32C8.11,75.43,24,81.22,24,81.22" transform="translate(158.9 0)"/><path class="cls-16" d="M61.12,247.67l-6.36-92.35c.65-.14,1.27-.28,1.88-.43l6.78,92.31-2.3.47m-6.76-98.21,0-.24c.62-.23,1.23-.47,1.83-.71v.19l-1.82.76m-1.17-17v-.12c.59-.2,1.17-.42,1.75-.64v.12c-.58.21-1.16.44-1.75.64" transform="translate(158.9 0)"/><polygon class="cls-16" points="210.88 114.93 212.55 114.33 212.12 108.39 210.38 107.62 210.88 114.93"/><path class="cls-16" d="M53.07,130.81c.59-.14,1.18-.29,1.76-.45l-1.18-16-1.67.6,1.09,15.88" transform="translate(158.9 0)"/><polygon class="cls-17" points="240.19 117.23 221.73 107.05 220.49 108.75 236.95 117.95 240.19 117.23"/><path class="cls-12" d="M67.55,126.14s-24.54,13.15-32.5,8.1S28.22,84.7,24.16,80.53,8.09,78.73,8.24,94s.76,51.91,22,57.34S74.4,137.87,74.4,137.87l-6.85-11.73" transform="translate(158.9 0)"/><path class="cls-16" d="M30.22,122.64l2.12-.75c-3.12-8.92-4.74-20.7-4.78-21,.68,7.34,1.43,15.35,2.66,21.72" transform="translate(158.9 0)"/><path class="cls-16" d="M39.76,135.34c3.84,0,8.77-1.33,13.42-3l-.11-1.55a44.59,44.59,0,0,1-10,1.48,10,10,0,0,1-5.18-1.1c-2.18-1.35-4-5-5.54-9.3l-2.12.75a36.39,36.39,0,0,0,2.64,8.86,7.26,7.26,0,0,0,3.6,3.4l.23.07h0a11,11,0,0,0,3,.37" transform="translate(158.9 0)"/><path class="cls-14" d="M64,127.9c2.22-1,3.6-1.76,3.6-1.76s-1.42.57-3.65,1.37c0,.13,0,.26.05.39" transform="translate(158.9 0)"/><path class="cls-16" d="M54.93,131.72c3.49-1.31,6.71-2.74,9-3.82,0-.13,0-.26-.05-.39-2.35.84-5.61,1.93-9.07,2.85l.1,1.36" transform="translate(158.9 0)"/><path class="cls-14" d="M53.18,132.36c.59-.2,1.17-.42,1.75-.64l-.1-1.36c-.58.16-1.17.31-1.76.45l.11,1.55" transform="translate(158.9 0)"/><path class="cls-16" d="M36.69,135l-.23-.07.23.07m-3.83-3.47c-5.19-8.81-5.3-30.58-5.3-30.58h0c.68,7.34,1.43,15.35,2.66,21.72a36,36,0,0,0,2.64,8.86" transform="translate(158.9 0)"/><path class="cls-18" d="M15,137.25l0-.11,0,.11" transform="translate(158.9 0)"/><path class="cls-16" d="M43.1,156.64a55.27,55.27,0,0,0,11.66-1.32l-.4-5.86C49.66,151.35,44.15,153,39,153a19.4,19.4,0,0,1-5.09-.63c-.66-.17-1.3-.38-1.92-.59s-1.15-.24-1.73-.39c-7.21-1.84-12-7.26-15.3-14.21h0l0,.11-.39,2.2s10.37,15.77,24.7,17c1.28.11,2.57.16,3.83.16" transform="translate(158.9 0)"/><path class="cls-18" d="M66.9,150.53l-.25-1.89c.09.63.17,1.26.25,1.89" transform="translate(158.9 0)"/><path class="cls-19" d="M66.65,148.64l-.55-4.21c.18,1.39.37,2.79.55,4.21" transform="translate(158.9 0)"/><path class="cls-16" d="M56.64,154.89A60.54,60.54,0,0,0,67,151.36l-.11-.83c-.08-.63-.16-1.26-.25-1.89-.18-1.41-.37-2.82-.55-4.21L66,143.6l-.91.54a81.27,81.27,0,0,1-8.9,4.56l.46,6.19" transform="translate(158.9 0)"/><path class="cls-14" d="M54.76,155.32c.65-.14,1.27-.28,1.88-.43l-.46-6.19-1.82.76.4,5.86" transform="translate(158.9 0)"/><path class="cls-14" d="M32,151.75c-.58-.11-1.16-.24-1.73-.39-7.21-1.84-12-7.26-15.3-14.21.11.21,5.51,10.59,17,14.6m33.06-7.61c.59-.35.91-.56.91-.56v0l-.91.53" transform="translate(158.9 0)"/><polygon class="cls-20" points="184.95 77.77 211.8 104.67 212.12 78.3 210.26 77.93 202.82 82.25 196.1 80.89 186.5 77.5 184.95 77.77"/><path class="cls-21" d="M48.16,75.83S47,81.14,43.44,81.05s-9.54-6.26-9.54-6.26l-6.3,2.72L42.36,91.25,45,83.88l5.33,7,2.17-13Z" transform="translate(158.9 0)"/><polygon class="cls-19" points="217.99 91.38 218.51 91.09 217.99 80.16 217.99 91.38"/><path class="cls-16" d="M53.22,108.39l6.4-13.78-2-2.4,1.5-.84V80.16L58.37,80V91.09l-3.57.83,3.57,2.41-5.15,12.23S37.37,99.91,37,99.63s2.65-4.82,2.65-4.82L32,94.14l-6.13-8.37c.15.87.3,1.81.43,2.83L31,95.09l6.94.59-2.89,4.71,18.16,8" transform="translate(158.9 0)"/><path class="cls-22" d="M26.28,88.6c-.13-1-.27-2-.43-2.83l-5-6.78-1.8-.28,7.2,9.89" transform="translate(158.9 0)"/><path class="cls-16" d="M21.52,220.46l-.81,0-.75-.08a11.16,11.16,0,0,1-7.52-4.12c-7.25-9-2.69-29-2.49-29.82l.07-.34,26.37,2.58V189c0,.92.25,22.54-8.76,29.4a9.87,9.87,0,0,1-6.12,2.06M10.73,186.93c-.57,2.69-4.1,20.8,2.43,28.88a10.23,10.23,0,0,0,6.91,3.79,11.36,11.36,0,0,0,1.41.09,8.93,8.93,0,0,0,5.57-1.87c8.11-6.18,8.46-25.64,8.47-28.47l-24.79-2.42" transform="translate(158.9 0)"/><path class="cls-4" d="M54.6,13.91l12.08,10.4L64,58.32a138.6,138.6,0,0,1-9.82,10.4c-3,2.83-6.14,5.28-8.26,5.81C40.26,75.93,31.72,64.46,29.76,63s-8.33-11.2-8.33-11.2l4.22-27.82L44,12.42Z" transform="translate(158.9 0)"/><path class="cls-23" d="M52.39,36.59c-1.64-.34-2.22-1.13.68-1.91s7.12-.59,7.67,0,.95,1.07-.2,1-5.28.93-6.72.93Z" transform="translate(158.9 0)"/><path class="cls-23" d="M43.2,35.21c-.46.95-2.29.58-4.62,0a35,35,0,0,0-6-.85c-1.21-.07,3.09-1.62,4.88-1.4s6.69.41,5.79,2.25" transform="translate(158.9 0)"/><path class="cls-23" d="M53.79,39.66a1.49,1.49,0,0,0,.62,1h2.17a1.82,1.82,0,0,0,.44-1,1.62,1.62,0,1,0-3.23,0" transform="translate(158.9 0)"/><path class="cls-23" d="M35.52,38.76A1.41,1.41,0,0,0,36,39.85c.42.09,1.75.14,2.07.17a1.43,1.43,0,0,0,.73-1.26,1.62,1.62,0,1,0-3.23,0" transform="translate(158.9 0)"/><path class="cls-24" d="M59.63,39.67s-.36-1.9-4.22-1.9S51,39.88,51,39.88" transform="translate(158.9 0)"/><path class="cls-24" d="M41.55,39.23s0-1.31-3.2-2a5.58,5.58,0,0,0-5,.94" transform="translate(158.9 0)"/><path class="cls-25" d="M49,16.29c-6.36.1-13.15,9-15.37,11.84-.75,1-4.32,5.74-5.48,9.64-1.24,4.14-2.91,9.26-2.9,13a22.11,22.11,0,0,0,1.63,7.58c1.9,5,7.33,10.16,6.75,13.32s3.11,9.47,0,14.05a2,2,0,0,1-1.16.86c-1.65.64.71,7-1.38,6.4-1.09-3.83-.23,4.06-1.78,5.1s-6.48-2.3-8.31.63-2.05-.55-6-1.4,2.45-2.33-3.39-2.49S9.14,91,8.66,88.92s3.07-2.56,1.33-6.2-4.45-2.33-2.87-6,3.16.48,1.58-7.1-.8-13.78,2.21-28.39C14.44,24.09,15,21.66,19.44,14.4S34.91-3.76,43,1.29C45.33,2.59,49,.1,52.44,2.37s7.52,2.72,12.67,15,6.46,21.45,4.72,32.56-6.09,28.91-2.61,31,7.45,6.47,5.51,8.79c-1,1.16,1.24,4.58-2.4,4.26s-2.22,4.46-4.44,3.57c-4.12-1.66-6.83,2.48-8.59,2.33-4.6-.4-4-10.74-4.19-12.86s-3.84-5.92-3-10.93c1.55-9.18,10.06-11.89,12.47-26.2,1.05-2.88-.77-9.57-.09-13.82A20,20,0,0,0,60.08,23c-2.39-4.08-3.93-5.5-11.12-6.7" transform="translate(158.9 0)"/><path class="cls-26" d="M51,16.56c0-2.7-1.63-15.06-5.31-14.92a10.46,10.46,0,0,1-1.19.05c2.33,5.48,5,12.55,3.65,14.66-4.54-4.67-13.57,5.29-16.58,8.75A43.08,43.08,0,0,0,23.7,42c-2.54,10.63-2.65,25.15,2,36.93-13.49-29.09-1.45-51.57,3.41-59C23.64,25.12,17.07,40,16.2,53c-.62,9.29,1.45,14.3,2.1,22.54.75,9.56-2.2,16.88-3.44,16.84-.68,0-.93,4.7-2.39,4.18s-2.15-2.37-4.3-.79.66-3.72.86-6.17c0-1.73,5-2.27,3.3-5.9s-8-4.16-6.46-7.79,2.45-4,2.56-5.42-1-14.62,2.48-29.23C15,24.2,15,21.66,19.44,14.4S36-3.55,44.06,1.5c2,.78,5-1.4,8.38.87s7.51,2.72,12.67,15,6.46,21.45,4.72,32.56-6.09,28.91-2.61,31,7.45,6.47,5.51,8.79c-.28.35,2,2.45-1,4s-2.72.4-4.2,1.08c-.82.38-3.26-2.6-7.38-13.11s7.28-21.46,6.53-37.23-3.86-18.46-5-21.19c-2-4.93-6.31-6.41-10.65-6.77" transform="translate(158.9 0)"/><g class="cls-27"><g class="cls-28"><g class="cls-29"><path class="cls-30" d="M50.58,52.65a8.13,8.13,0,0,1-3.6.84c-1,0-2.25-1-3.42-1H41.18" transform="translate(158.9 0)"/></g></g></g><path class="cls-31" d="M53.79,57.69c.12.65-1.27,2-2.78,3.23-1.22,1-2.28,2.08-4.43,2.28-4.36.42-7.25-.39-8.47-1.79s-3-3.27-3.23-4,5.32-.41,7.08,0,5,.13,6.72.09,4.31-.18,5.11.22" transform="translate(158.9 0)"/><path class="cls-32" d="M53.08,57.91c.49,0-1.35,1.7-2.57,2s.59-1.77.59-1.77a13.37,13.37,0,0,1,2-.26" transform="translate(158.9 0)"/><path class="cls-32" d="M37.94,57.55A5.44,5.44,0,0,0,36,57.37c-.71.18,1.15,1.66,1.76,1.94s.19-1.76.19-1.76" transform="translate(158.9 0)"/><path class="cls-6" d="M51.43,58.09s0,1.46-.42,1.65a15.34,15.34,0,0,1-13.26-.43,6,6,0,0,1-.3-1.86,45.27,45.27,0,0,0,6.8,1c2.33,0,6,0,7.18-.32" transform="translate(158.9 0)"/></g><g class="cls-33"><path class="cls-10" d="M256.2,313.83a7.31,7.31,0,0,0-1.24-.5l1.21-1.61ZM540.83,114.48l6.09,3.18c-3.48-1.75-7.92-1.45-12.75,1.34L269,268.6c-11.19,6.46-20.26,23.79-20.26,38.71,0,7.66,2.39,4.88,6.22,6l-2.84,3.78c-4.56-2.32-10.35-5-10.35-13.47,0-14.92,9.07-32.25,20.26-38.71L527.2,115.33a16.27,16.27,0,0,1,8-2.44,10.3,10.3,0,0,1,5.59,1.59" transform="translate(158.9 0)"/><path class="cls-34" d="M554.43,134.32c0,14.92-9.07,22.13-20.26,28.59L269,312.52c-11.19,6.46-20.26,9.72-20.26-5.2s9.07-32.26,20.26-38.72L534.17,119a16.25,16.25,0,0,1,8-2.43c7.19,0,12.22,6.64,12.22,17.75" transform="translate(158.9 0)"/><polygon class="cls-34" points="492.19 343.44 492.19 357.09 417.43 314.26 417.43 300.68 492.19 343.44"/><polygon class="cls-10" points="492.19 343.44 417.43 300.68 472.08 272.32 678.95 238.57 492.19 343.44"/><polygon class="cls-35" points="425.29 276.12 690.45 126.52 775.83 175.92 503.65 329.48 425.29 276.12"/></g><g class="cls-36"><rect class="cls-37" x="250.08" y="248.5" width="116.59" height="127.21" transform="translate(42.81 423.17) rotate(-60.01)"/></g><g class="cls-33"><path class="cls-10" d="M339.18,363.08a7.23,7.23,0,0,0-1.23-.5l1.2-1.61ZM623.81,163.73l6.1,3.18c-3.49-1.75-7.92-1.45-12.76,1.34L352,317.85c-11.19,6.46-20.27,23.79-20.27,38.72,0,7.65,2.39,4.87,6.23,6l-2.84,3.78c-4.56-2.31-10.36-5-10.36-13.47h0c0-14.92,9.08-32.25,20.27-38.72L610.18,164.58a16.27,16.27,0,0,1,8.05-2.44,10.27,10.27,0,0,1,5.58,1.59" transform="translate(158.9 0)"/><path class="cls-34" d="M637.42,183.57c0,14.92-9.08,22.13-20.27,28.59L352,361.77c-11.19,6.46-20.27,9.72-20.27-5.2s9.08-32.26,20.27-38.72l265.16-149.6a16.25,16.25,0,0,1,8.05-2.43c7.19,0,12.22,6.64,12.22,17.75" transform="translate(158.9 0)"/><path class="cls-10" d="M222.32,558a8.16,8.16,0,0,1,1.24-.49l-1.21-1.61ZM-62.31,358.66l-6.1,3.18c3.49-1.75,7.92-1.45,12.76,1.34l265.16,149.6c11.2,6.46,20.27,23.79,20.27,38.71,0,7.66-2.39,4.88-6.22,6l2.83,3.78c4.57-2.32,10.36-5,10.36-13.47,0-14.92-9.07-32.26-20.27-38.72L-48.68,359.5a16.25,16.25,0,0,0-8-2.43,10.27,10.27,0,0,0-5.58,1.59" transform="translate(158.9 0)"/><path class="cls-34" d="M-75.91,378.5c0,14.92,9.07,22.13,20.26,28.59l265.17,149.6c11.19,6.46,20.26,9.72,20.26-5.2s-9.07-32.25-20.26-38.71L-55.65,363.18a16.25,16.25,0,0,0-8.05-2.43c-7.19,0-12.21,6.64-12.21,17.75" transform="translate(158.9 0)"/><polygon class="cls-34" points="304.13 587.62 304.13 601.27 378.89 558.43 378.89 544.85 304.13 587.62"/><polygon class="cls-10" points="304.13 587.62 378.89 544.85 324.23 516.5 117.37 482.75 304.13 587.62"/><polygon class="cls-35" points="371.03 520.28 105.86 370.68 27.5 424.03 292.67 573.63 371.03 520.28"/></g><g class="cls-38"><rect class="cls-39" x="106.54" y="498" width="127.21" height="116.58" transform="translate(-96.4 159.55) rotate(-29.99)"/></g><g class="cls-33"><path class="cls-10" d="M139.33,607.26a7.31,7.31,0,0,1,1.24-.5l-1.21-1.61ZM-145.29,407.91l-6.1,3.18c3.48-1.75,7.92-1.45,12.75,1.34L126.53,562c11.19,6.46,20.26,23.79,20.26,38.71,0,7.66-2.38,4.88-6.22,6l2.84,3.78c4.56-2.32,10.35-5,10.35-13.47h0c0-14.92-9.07-32.25-20.26-38.72l-265.17-149.6a16.32,16.32,0,0,0-8-2.43,10.24,10.24,0,0,0-5.58,1.59" transform="translate(158.9 0)"/><path class="cls-34" d="M-158.9,427.75c0,14.92,9.07,22.13,20.26,28.59l265.17,149.6c11.19,6.46,20.26,9.73,20.26-5.2s-9.07-32.25-20.26-38.71l-265.17-149.6a16.22,16.22,0,0,0-8-2.43c-7.19,0-12.22,6.64-12.22,17.75" transform="translate(158.9 0)"/><path class="cls-10" d="M441,681.65a7.31,7.31,0,0,1,1.24-.5L441,679.54ZM156.38,482.3l-6.09,3.18c3.48-1.75,7.92-1.45,12.75,1.34l265.17,149.6c11.19,6.46,20.26,23.79,20.26,38.72,0,7.65-2.39,4.87-6.22,6l2.84,3.78c4.56-2.31,10.35-5,10.35-13.47,0-14.92-9.07-32.25-20.26-38.71L170,483.15a16.25,16.25,0,0,0-8-2.43,10.27,10.27,0,0,0-5.59,1.58" transform="translate(158.9 0)"/><path class="cls-34" d="M142.78,502.14c0,14.92,9.07,22.13,20.26,28.59L428.2,680.34c11.2,6.46,20.27,9.72,20.27-5.2s-9.07-32.26-20.27-38.72L163,486.82a16.25,16.25,0,0,0-8-2.43c-7.19,0-12.22,6.64-12.22,17.75" transform="translate(158.9 0)"/><polygon class="cls-34" points="522.82 711.26 522.82 724.91 597.58 682.08 597.58 668.5 522.82 711.26"/><polygon class="cls-10" points="522.82 711.26 597.58 668.5 542.92 640.14 336.06 606.39 522.82 711.26"/><polygon class="cls-35" points="589.72 643.92 286.73 472.98 246.19 547.67 511.36 697.27 589.72 643.92"/></g><g class="cls-40"><rect class="cls-41" x="325.23" y="621.64" width="127.21" height="116.58" transform="translate(-128.92 285.43) rotate(-29.99)"/></g><g class="cls-33"><path class="cls-10" d="M358,730.9a7.66,7.66,0,0,1,1.24-.5l-1.21-1.61ZM73.4,531.55l-6.1,3.18c3.49-1.75,7.92-1.45,12.76,1.34l265.16,149.6c11.19,6.46,20.27,23.8,20.27,38.72,0,7.65-2.39,4.87-6.23,6l2.84,3.79c4.56-2.32,10.36-5,10.36-13.48h0c0-14.92-9.08-32.25-20.27-38.71L87,532.4A16.25,16.25,0,0,0,79,530a10.26,10.26,0,0,0-5.58,1.58" transform="translate(158.9 0)"/><path class="cls-34" d="M59.79,551.39c0,14.92,9.07,22.14,20.27,28.6l265.16,149.6c11.19,6.46,20.27,9.72,20.27-5.2s-9.08-32.26-20.27-38.72L80.06,536.07a16.25,16.25,0,0,0-8-2.43c-7.19,0-12.22,6.64-12.22,17.75" transform="translate(158.9 0)"/><path class="cls-10" d="M-.79,459a7.23,7.23,0,0,0-1.23-.5l1.21-1.62Zm278-194.83L12,413.74C.83,420.2-8.25,437.53-8.25,452.45c0,7.66,2.39,4.88,6.23,6l-2.84,3.78c-4.56-2.32-10.35-5-10.35-13.47,0-14.92,9.07-32.26,20.26-38.72l265.16-149.6a16.25,16.25,0,0,1,8.05-2.43,10.27,10.27,0,0,1,5.58,1.59" transform="translate(158.9 0)"/><path class="cls-34" d="M297.45,279.46c0,14.92-9.08,22.13-20.27,28.59L12,457.65c-11.19,6.46-20.27,9.72-20.27-5.2S.83,420.2,12,413.74l265.16-149.6a16.25,16.25,0,0,1,8.05-2.43c7.19,0,12.22,6.64,12.22,17.75" transform="translate(158.9 0)"/><polygon class="cls-34" points="235.2 488.58 235.2 502.23 160.45 459.39 160.45 445.81 235.2 488.58"/><polygon class="cls-10" points="235.2 488.58 160.45 445.81 215.1 417.46 421.96 383.7 235.2 488.58"/><polygon class="cls-35" points="168.3 421.07 312.67 339.63 474.07 248.56 511.83 324.82 246.66 474.42 168.3 421.07"/></g><g class="cls-42"><rect class="cls-43" x="62.34" y="450.17" width="51.31" height="47.25" transform="translate(-207.44 313.17) rotate(-60.01)"/></g><g class="cls-33"><path class="cls-10" d="M82.2,508.22a7.31,7.31,0,0,0-1.24-.5l1.21-1.61Zm278-194.83L95,463c-11.19,6.46-20.26,23.79-20.26,38.71,0,7.66,2.39,4.88,6.22,6l-2.84,3.78c-4.56-2.32-10.35-5-10.35-13.47h0c0-14.92,9.07-32.25,20.26-38.72L353.2,309.71a16.25,16.25,0,0,1,8-2.43,10.28,10.28,0,0,1,5.59,1.59" transform="translate(158.9 0)"/><path class="cls-34" d="M380.43,328.71c0,14.92-9.07,22.13-20.26,28.59L95,506.91c-11.19,6.46-20.26,9.72-20.26-5.2S83.81,469.45,95,463l265.17-149.6a16.25,16.25,0,0,1,8-2.43c7.19,0,12.22,6.64,12.22,17.75" transform="translate(158.9 0)"/></g><g class="cls-3"><path class="cls-10" d="M178.45,487.91c-41.9-24.2-57.58-38.88-9.2-66.81l-5.7-4.32c-88,50.8-67.17,31.43,9,75.42Z" transform="translate(158.9 0)"/><path class="cls-34" d="M161.17,486.05s-29.94-13.11-31.65-35.18l-10.2,2.77L122,474.46l31.76,19Z" transform="translate(158.9 0)"/></g><g class="cls-44"><rect class="cls-45" x="483.68" y="110.74" width="88.53" height="75.36" transform="translate(393.22 611.61) rotate(-73.33)"/></g><g class="cls-46"><rect class="cls-47" x="493.28" y="83.69" width="60.93" height="74.41" transform="translate(416.6 587.95) rotate(-73.33)"/></g><g class="cls-48"><rect class="cls-49" x="429.65" y="112.73" width="85.17" height="70.57" transform="translate(383.4 576.44) rotate(-77.37)"/></g><g class="cls-50"><rect class="cls-51" x="447.05" y="89.32" width="52.37" height="65.08" transform="translate(409.71 556.98) rotate(-77.37)"/></g><g class="cls-52"><rect class="cls-53" x="435.77" y="130.29" width="128.86" height="109.24" transform="translate(130.26 253.59) rotate(-27.69)"/></g><g class="cls-54"><rect class="cls-55" x="630.15" y="153.2" width="56.69" height="21.72"/></g><g class="cls-56"><rect class="cls-57" x="468.19" y="121.33" width="62.81" height="63.97" transform="translate(205.63 414.11) rotate(-47)"/></g><g class="cls-58"><rect class="cls-59" x="485.59" y="145.16" width="85.17" height="70.57" transform="translate(395.47 656.36) rotate(-77.36)"/></g><g class="cls-60"><rect class="cls-61" x="629.99" y="146.65" width="56.69" height="21.71"/></g><g class="cls-62"><rect class="cls-63" x="467.82" y="123.57" width="63.23" height="46.38" transform="matrix(0.97, -0.26, 0.26, 0.97, 137.99, 132.22)"/></g><g class="cls-64"><rect class="cls-65" x="629.99" y="144.09" width="56.69" height="22.59"/></g><g class="cls-66"><rect class="cls-67" x="467.82" y="121.01" width="63.24" height="46.38" transform="translate(138.64 132.13) rotate(-14.77)"/></g><g class="cls-68"><path class="cls-5" d="M498.49,121.11c-15.24,0-27.6,7.36-27.6,16.44S483.25,154,498.49,154s27.61-7.36,27.61-16.44-12.36-16.44-27.61-16.44" transform="translate(158.9 0)"/><path class="cls-6" d="M507.17,152.12c-1.12.23-4.92,1-5.08.25-.09-.39,1.9-.79,4.62-1.64a49.51,49.51,0,0,0,10.47-4.55c4.49-2.59,7.07-6.12,7.19-9.82.23-5-3.09-9-8.51-11.59,6.64,3,10.62,7.64,10.83,12.57.16,3.61-1.55,6.63-4.76,9.4a17.25,17.25,0,0,1-3.47,2,59.43,59.43,0,0,1-11.29,3.39" transform="translate(158.9 0)"/><path class="cls-6" d="M470.38,133.76c1.71-4.74,7-8,14.15-10.4-5.44,2.28-13.11,7.13-8.59,11.41,3.83,3.43,13.14,2.76,18.22,1.13,6-1.93,13.62-6.28,6.16-10.53-4.84-2.75-20.25.33-17.53,4.45,1.58,2.38,7.73,1.85,10.5.69,2-.87,3.76-2.35,2.85-3.88-.28-.5-.25-1.25.93-.69a2.62,2.62,0,0,1,1.47,1.75c1.29,5.36-14.91,9.51-19.74,4.32-2.49-2.69,1.55-6.59,6.64-8.19a35.52,35.52,0,0,1,12.7-1.85c7.81.33,14.36,3.2,15.17,7.9s-4.48,8.86-10.72,11.37c-6.56,2.65-15.38,4.38-23.46,2.82-7.23-1.42-10.22-6.31-8.76-10.29" transform="translate(158.9 0)"/><path class="cls-69" d="M480.69,130.15c-.78-3.07,3.93-5.18,8.29-6.14,5.14-1.13,11.92-.63,15.66,1.87,2.75,1.84,2.56,4.51,1.15,6.67-2.13,3.26-7,5.62-12.55,6.64a37.41,37.41,0,0,1-12.84.27c-5.88-1.11-7.8-4.73-6.58-8a7.38,7.38,0,0,1,1.19-2.07c.74-.92,3-2.78-.12-.51a8.74,8.74,0,0,0-.91.79,7.8,7.8,0,0,0-1.53,2c-1.71,3.1-.36,6.7,4.39,8.56,3.65,1.43,8.26,1.6,12.49,1.25,5.66-.48,11-2.1,14.7-4.69,3.38-2.36,5.69-5.75,4.3-8.85-1-2.27-4.15-4-7.89-4.68a28.86,28.86,0,0,0-14.23,1,11.79,11.79,0,0,0-5.18,3.08,3.21,3.21,0,0,0-.78,1.92,2.51,2.51,0,0,0,.11.81c0,.09.38.37.33.14" transform="translate(158.9 0)"/></g><g class="cls-70"><rect class="cls-71" x="436.99" y="110.17" width="84.05" height="81.02" transform="translate(169.93 332.75) rotate(-38.72)"/></g><g class="cls-72"><rect class="cls-73" x="428.2" y="142.36" width="88.53" height="75.36" transform="translate(323.37 581) rotate(-73.33)"/></g><g class="cls-74"><rect class="cls-75" x="485.02" y="109.89" width="80.11" height="79.35" transform="translate(194.13 390.65) rotate(-42.1)"/></g><g class="cls-44"><rect class="cls-45" x="483.68" y="110.74" width="88.53" height="75.36" transform="translate(393.22 611.61) rotate(-73.33)"/></g><g class="cls-46"><rect class="cls-47" x="493.28" y="83.69" width="60.93" height="74.41" transform="translate(416.6 587.95) rotate(-73.33)"/></g><g class="cls-48"><rect class="cls-49" x="429.65" y="112.73" width="85.17" height="70.57" transform="translate(383.4 576.44) rotate(-77.37)"/></g><g class="cls-50"><rect class="cls-51" x="447.05" y="89.32" width="52.37" height="65.08" transform="translate(409.71 556.98) rotate(-77.37)"/></g><g class="cls-52"><rect class="cls-53" x="435.77" y="130.29" width="128.86" height="109.24" transform="translate(130.26 253.59) rotate(-27.69)"/></g><g class="cls-54"><rect class="cls-55" x="630.15" y="153.2" width="56.69" height="21.72"/></g><g class="cls-56"><rect class="cls-57" x="468.19" y="121.33" width="62.81" height="63.97" transform="translate(205.63 414.11) rotate(-47)"/></g><g class="cls-58"><rect class="cls-59" x="485.59" y="145.16" width="85.17" height="70.57" transform="translate(395.47 656.36) rotate(-77.36)"/></g><g class="cls-60"><rect class="cls-61" x="629.99" y="146.65" width="56.69" height="21.71"/></g><g class="cls-62"><rect class="cls-63" x="467.82" y="123.57" width="63.23" height="46.38" transform="matrix(0.97, -0.26, 0.26, 0.97, 137.99, 132.22)"/></g><g class="cls-64"><rect class="cls-65" x="629.99" y="144.09" width="56.69" height="22.59"/></g><g class="cls-66"><rect class="cls-67" x="467.82" y="121.01" width="63.24" height="46.38" transform="translate(138.64 132.13) rotate(-14.77)"/></g><g class="cls-68"><path class="cls-5" d="M498.49,121.11c-15.24,0-27.6,7.36-27.6,16.44S483.25,154,498.49,154s27.61-7.36,27.61-16.44-12.36-16.44-27.61-16.44" transform="translate(158.9 0)"/><path class="cls-6" d="M507.17,152.12c-1.12.23-4.92,1-5.08.25-.09-.39,1.9-.79,4.62-1.64a49.51,49.51,0,0,0,10.47-4.55c4.49-2.59,7.07-6.12,7.19-9.82.23-5-3.09-9-8.51-11.59,6.64,3,10.62,7.64,10.83,12.57.16,3.61-1.55,6.63-4.76,9.4a17.25,17.25,0,0,1-3.47,2,59.43,59.43,0,0,1-11.29,3.39" transform="translate(158.9 0)"/><path class="cls-6" d="M470.38,133.76c1.71-4.74,7-8,14.15-10.4-5.44,2.28-13.11,7.13-8.59,11.41,3.83,3.43,13.14,2.76,18.22,1.13,6-1.93,13.62-6.28,6.16-10.53-4.84-2.75-20.25.33-17.53,4.45,1.58,2.38,7.73,1.85,10.5.69,2-.87,3.76-2.35,2.85-3.88-.28-.5-.25-1.25.93-.69a2.62,2.62,0,0,1,1.47,1.75c1.29,5.36-14.91,9.51-19.74,4.32-2.49-2.69,1.55-6.59,6.64-8.19a35.52,35.52,0,0,1,12.7-1.85c7.81.33,14.36,3.2,15.17,7.9s-4.48,8.86-10.72,11.37c-6.56,2.65-15.38,4.38-23.46,2.82-7.23-1.42-10.22-6.31-8.76-10.29" transform="translate(158.9 0)"/><path class="cls-69" d="M480.69,130.15c-.78-3.07,3.93-5.18,8.29-6.14,5.14-1.13,11.92-.63,15.66,1.87,2.75,1.84,2.56,4.51,1.15,6.67-2.13,3.26-7,5.62-12.55,6.64a37.41,37.41,0,0,1-12.84.27c-5.88-1.11-7.8-4.73-6.58-8a7.38,7.38,0,0,1,1.19-2.07c.74-.92,3-2.78-.12-.51a8.74,8.74,0,0,0-.91.79,7.8,7.8,0,0,0-1.53,2c-1.71,3.1-.36,6.7,4.39,8.56,3.65,1.43,8.26,1.6,12.49,1.25,5.66-.48,11-2.1,14.7-4.69,3.38-2.36,5.69-5.75,4.3-8.85-1-2.27-4.15-4-7.89-4.68a28.86,28.86,0,0,0-14.23,1,11.79,11.79,0,0,0-5.18,3.08,3.21,3.21,0,0,0-.78,1.92,2.51,2.51,0,0,0,.11.81c0,.09.38.37.33.14" transform="translate(158.9 0)"/></g><g class="cls-70"><rect class="cls-71" x="436.99" y="110.17" width="84.05" height="81.02" transform="translate(169.93 332.75) rotate(-38.72)"/></g><g class="cls-72"><rect class="cls-73" x="428.2" y="142.36" width="88.53" height="75.36" transform="translate(323.37 581) rotate(-73.33)"/></g><g class="cls-74"><rect class="cls-75" x="485.02" y="109.89" width="80.11" height="79.35" transform="translate(194.13 390.65) rotate(-42.1)"/></g><g class="cls-76"><rect class="cls-77" x="289.34" y="562.16" width="75.36" height="88.53" transform="translate(-1.31 119.29) rotate(-16.67)"/></g><g class="cls-78"><rect class="cls-79" x="238.47" y="565.41" width="68.05" height="83.75" transform="translate(32.66 74.31) rotate(-12.64)"/></g><g class="cls-80"><rect class="cls-81" x="246.81" y="506.39" width="107.31" height="126.33" transform="translate(-184.58 570.98) rotate(-62.31)"/></g><g class="cls-82"><rect class="cls-83" x="320.8" y="578.62" width="16.6" height="18.57" transform="translate(4.09 119.11) rotate(-16.67)"/></g><g class="cls-84"><rect class="cls-85" x="270.13" y="530.33" width="64.83" height="76.22" transform="translate(-182.48 572.23) rotate(-62.31)"/></g><g class="cls-86"><polygon class="cls-87" points="455.2 634.45 472.6 636.91 481.91 608.5 464.51 606.04 455.2 634.45"/></g><g class="cls-88"><polygon class="cls-89" points="465.99 628.22 483.39 630.68 492.7 602.28 475.3 599.82 465.99 628.22"/></g><g class="cls-90"><rect class="cls-91" x="302.1" y="540.06" width="6.4" height="4.77" transform="translate(-131.9 721.7) rotate(-77.37)"/></g><g class="cls-92"><rect class="cls-93" x="324.18" y="561.72" width="19.18" height="29.18" transform="translate(7.61 119.96) rotate(-16.67)"/></g><g class="cls-94"><rect class="cls-95" x="324.18" y="558.04" width="19.18" height="29.18" transform="translate(8.67 119.81) rotate(-16.67)"/></g><g class="cls-76"><rect class="cls-77" x="289.34" y="562.16" width="75.36" height="88.53" transform="translate(-1.31 119.29) rotate(-16.67)"/></g><g class="cls-78"><rect class="cls-79" x="238.47" y="565.41" width="68.05" height="83.75" transform="translate(32.66 74.31) rotate(-12.64)"/></g><g class="cls-80"><rect class="cls-81" x="246.81" y="506.39" width="107.31" height="126.33" transform="translate(-184.58 570.98) rotate(-62.31)"/></g><g class="cls-82"><rect class="cls-83" x="320.8" y="578.62" width="16.6" height="18.57" transform="translate(4.09 119.11) rotate(-16.67)"/></g><g class="cls-84"><rect class="cls-85" x="270.13" y="530.33" width="64.83" height="76.22" transform="translate(-182.48 572.23) rotate(-62.31)"/></g><g class="cls-86"><polygon class="cls-87" points="455.2 634.45 472.6 636.91 481.91 608.5 464.51 606.04 455.2 634.45"/></g><g class="cls-88"><polygon class="cls-89" points="465.99 628.22 483.39 630.68 492.7 602.28 475.3 599.82 465.99 628.22"/></g><g class="cls-96"><polygon class="cls-97" points="409.39 565.37 451.61 589.74 451.61 660.37 409.39 636 409.39 565.37"/></g><g class="cls-3"><polygon class="cls-98" points="449.63 632.52 448.49 631.86 448.49 614.65 449.63 615.31 449.63 632.52"/><polygon class="cls-98" points="447.15 626.84 446.01 626.18 446.01 613.22 447.15 613.88 447.15 626.84"/><polygon class="cls-98" points="444.96 625.58 443.25 624.59 443.25 611.63 444.96 612.61 444.96 625.58"/><polygon class="cls-98" points="442.21 623.98 441.06 623.32 441.06 610.36 442.21 611.02 442.21 623.98"/><polygon class="cls-98" points="439.45 622.39 438.88 622.06 438.88 609.1 439.45 609.43 439.45 622.39"/><polygon class="cls-98" points="437.26 621.13 436.12 620.47 436.12 607.5 437.26 608.16 437.26 621.13"/><polygon class="cls-98" points="434.78 619.7 433.64 619.04 433.64 606.08 434.78 606.74 434.78 619.7"/><polygon class="cls-98" points="432.02 618.1 431.45 617.78 431.45 604.81 432.02 605.14 432.02 618.1"/><polygon class="cls-98" points="430.12 617.01 428.41 616.02 428.41 603.05 430.12 604.04 430.12 617.01"/><polygon class="cls-98" points="427.36 615.41 426.22 614.75 426.22 601.79 427.36 602.45 427.36 615.41"/><polygon class="cls-98" points="424.89 613.98 423.75 613.33 423.75 600.36 424.89 601.02 424.89 613.98"/><polygon class="cls-98" points="422.41 612.55 421.27 611.9 421.27 598.93 422.41 599.59 422.41 612.55"/><polygon class="cls-98" points="419.65 610.96 419.08 610.63 419.08 597.67 419.65 598 419.65 610.96"/><polygon class="cls-98" points="417.75 609.86 416.04 608.88 416.04 595.91 417.75 596.9 417.75 609.86"/><polygon class="cls-98" points="414.99 608.27 413.85 607.61 413.85 594.65 414.99 595.31 414.99 608.27"/><polygon class="cls-98" points="412.52 611.09 411.37 610.43 411.37 593.22 412.52 593.88 412.52 611.09"/></g><g class="cls-99"><g class="cls-100"><rect class="cls-101" x="391.72" y="193.62" width="109.68" height="200.63"/></g></g><g class="cls-102"><rect class="cls-103" x="213.38" y="292.3" width="75.36" height="88.53" transform="translate(72.91 86.16) rotate(-16.67)"/></g><g class="cls-104"><rect class="cls-105" x="162.51" y="295.55" width="68.05" height="83.75" transform="translate(89.85 51.16) rotate(-12.64)"/></g><g class="cls-106"><rect class="cls-107" x="170.85" y="236.52" width="107.31" height="126.33" transform="translate(13.72 359.25) rotate(-62.31)"/></g><g class="cls-108"><rect class="cls-109" x="244.84" y="308.75" width="16.6" height="18.57" transform="translate(78.31 85.98) rotate(-16.67)"/></g><g class="cls-110"><rect class="cls-111" x="194.17" y="260.47" width="64.83" height="76.22" transform="translate(15.82 360.5) rotate(-62.31)"/></g><g class="cls-112"><polygon class="cls-113" points="379.25 364.58 396.65 367.05 405.96 338.64 388.56 336.18 379.25 364.58"/></g><g class="cls-114"><polygon class="cls-115" points="390.03 358.36 407.43 360.82 416.74 332.42 399.34 329.95 390.03 358.36"/></g><g class="cls-116"><rect class="cls-117" x="226.14" y="270.2" width="6.4" height="4.78" transform="translate(72.09 436.76) rotate(-77.36)"/></g><g class="cls-118"><rect class="cls-119" x="248.23" y="291.85" width="19.18" height="29.18" transform="translate(81.83 86.83) rotate(-16.67)"/></g><g class="cls-120"><rect class="cls-121" x="248.23" y="288.18" width="19.18" height="29.18" transform="translate(82.89 86.68) rotate(-16.67)"/></g><g class="cls-102"><rect class="cls-103" x="213.38" y="292.3" width="75.36" height="88.53" transform="translate(72.91 86.16) rotate(-16.67)"/></g><g class="cls-104"><rect class="cls-105" x="162.51" y="295.55" width="68.05" height="83.75" transform="translate(89.85 51.16) rotate(-12.64)"/></g><g class="cls-106"><rect class="cls-107" x="170.85" y="236.52" width="107.31" height="126.33" transform="translate(13.72 359.25) rotate(-62.31)"/></g><g class="cls-108"><rect class="cls-109" x="244.84" y="308.75" width="16.6" height="18.57" transform="translate(78.31 85.98) rotate(-16.67)"/></g><g class="cls-110"><rect class="cls-111" x="194.17" y="260.47" width="64.83" height="76.22" transform="translate(15.82 360.5) rotate(-62.31)"/></g><g class="cls-112"><polygon class="cls-113" points="379.25 364.58 396.65 367.05 405.96 338.64 388.56 336.18 379.25 364.58"/></g><g class="cls-114"><polygon class="cls-115" points="390.03 358.36 407.43 360.82 416.74 332.42 399.34 329.95 390.03 358.36"/></g><g class="cls-122"><polygon class="cls-123" points="333.44 295.5 375.66 319.88 375.66 390.51 333.44 366.13 333.44 295.5"/></g><g class="cls-3"><polygon class="cls-98" points="373.68 362.66 372.53 362 372.53 344.79 373.68 345.44 373.68 362.66"/><polygon class="cls-98" points="371.2 356.98 370.06 356.32 370.06 343.36 371.2 344.02 371.2 356.98"/><polygon class="cls-98" points="369.01 355.71 367.3 354.73 367.3 341.76 369.01 342.75 369.01 355.71"/><polygon class="cls-98" points="366.25 354.12 365.11 353.46 365.11 340.5 366.25 341.16 366.25 354.12"/><polygon class="cls-98" points="363.49 352.53 362.92 352.2 362.92 339.24 363.49 339.57 363.49 352.53"/><polygon class="cls-98" points="361.3 351.26 360.16 350.61 360.16 337.64 361.3 338.3 361.3 351.26"/><polygon class="cls-98" points="358.83 349.84 357.69 349.18 357.69 336.21 358.83 336.87 358.83 349.84"/><polygon class="cls-98" points="356.07 348.24 355.5 347.91 355.5 334.95 356.07 335.28 356.07 348.24"/><polygon class="cls-98" points="354.17 347.14 352.45 346.16 352.45 333.19 354.17 334.18 354.17 347.14"/><polygon class="cls-98" points="351.41 345.55 350.26 344.89 350.26 331.93 351.41 332.59 351.41 345.55"/><polygon class="cls-98" points="348.93 344.12 347.79 343.46 347.79 330.5 348.93 331.16 348.93 344.12"/><polygon class="cls-98" points="346.46 342.69 345.32 342.03 345.32 329.07 346.46 329.73 346.46 342.69"/><polygon class="cls-98" points="343.7 341.1 343.13 340.77 343.13 327.81 343.7 328.14 343.7 341.1"/><polygon class="cls-98" points="341.8 340 340.08 339.01 340.08 326.05 341.8 327.04 341.8 340"/><polygon class="cls-98" points="339.04 338.41 337.89 337.75 337.89 324.79 339.04 325.45 339.04 338.41"/><polygon class="cls-98" points="336.56 341.23 335.42 340.57 335.42 323.36 336.56 324.02 336.56 341.23"/><path class="cls-5" d="M501.85,248.46h0l0-59.09h0l0-.84V172.78c0-8.55-6.08-19.05-13.47-23.33l-121.13-70c-7.4-4.28-19.51-4.29-26.92,0l-121,69.85c-7.4,4.28-13.46,14.77-13.45,23.32v5.62l136.61,78-.56,150.37c7.46,3.55,18.58,3.31,25.54-.71l121-69.85c7.41-4.27,13.46-14.77,13.45-23.32Z" transform="translate(158.9 0)"/><path class="cls-4" d="M463.12,325.56c3.48,0,4.6-.82,6.32-3.63s.85-7.38.79-8.63c-.15-2.74-1.08-5.78-1.19-7.3-.07-.94,0-6.91.14-9.28,2.09-38.65,18.64-47.83,23.45-48.88,5.91-1.28,8.4.39,9.24.63l0-59.09h0l0-.84V172.78c0-8.55-6.08-19.05-13.47-23.33l-121.13-70c-7.4-4.28-19.51-4.29-26.92,0l-121,69.85c-7.4,4.27-13.46,14.77-13.45,23.32v15.28c0,.09,0,.18,0,.27v22.37c.71.39,1.41.79,2.11,1.23,2.34,1.48,4.67,2.41,7,4,3.72,2.59,9.62,5.71,18.59,14.44,1.1,1.07,4.78,5.7,5.67,6.79,2.88,3.54,5.49,7.31,9,10.27a32.78,32.78,0,0,0,6,4.32c3.56,1.85,9.44,1.43,12.48.11,23.06-10,37.52-5,44.2-1,16.51,9.91,22,23.78,23.77,40.6a46.21,46.21,0,0,1,.22,6.57c0,4-.14,10.43,4.08,11.5,6.05,1.54,7.5-4.92,8.41-9.22,2-9.71,15-16.1,24.46-11.2,6.53,3.38,9.2,5.29,15.65,2.45,8.09-3.57,12.24-12.63,15.07-17.45a29.51,29.51,0,0,1,11.63-11.07c12.61-7.87,44.27-5.82,45.43,29.07,0,1.91-.06,6.76-.07,9.72,0,3.32.11,6.58-.1,10-.14,2.29-.55,4.69-.77,7,0,0-1.18,6.85,4.4,6.87" transform="translate(158.9 0)"/><path class="cls-6" d="M369.24,231.33c-8.38,4.83-22.09,4.83-30.46,0L214.94,166c1.4,1.39,125.59,73.54,125.59,73.54,7.4,4.28,19.52,4.29,26.92,0,0,0,124-71.93,125.43-73.31Z" transform="translate(158.9 0)"/><path class="cls-6" d="M338.59,88.75c8.37-4.83,22.08-4.83,30.45,0l15,6.27c-1.4-1.39-16.76-11.35-16.76-11.35-7.4-4.28-19.52-4.29-26.92,0,0,0-24.54,14.41-25.93,15.78Z" transform="translate(158.9 0)"/><path class="cls-34" d="M87,532.34c-41.9-24.19-53.66-82.05-5.27-110L60.63,379.15c-88,50.8-69.52,149.42-12.31,182.67l39.94,22.79L87,532.4Z" transform="translate(158.9 0)"/><path class="cls-35" d="M159.05,490.59c-41.91-24.19-40.85-47.66,7.53-75.59l-101-25.64c-88,50.8-46.37,103.78,29.82,147.77Z" transform="translate(158.9 0)"/><polygon class="cls-35" points="190.13 450.87 171.41 452.37 173.83 465.37 188.37 494.67 222.74 525.2 242.35 533.61 259.17 523.77 268.56 472.15 190.13 450.87"/><path class="cls-10" d="M63.36,384.77s-51,20.66-46.79,71.47C20.44,503.18,87,532.34,87,532.34l1.1,8.24S11.19,506.86,9.27,455.69c-1.95-52.19,51.36-77,51.36-77Z" transform="translate(158.9 0)"/></g><g class="cls-124"><rect class="cls-125" x="168.2" y="492.71" width="75.36" height="88.53" transform="translate(13.52 81.62) rotate(-16.67)"/></g><g class="cls-126"><rect class="cls-127" x="117.33" y="495.97" width="68.05" height="83.75" transform="translate(44.92 46.13) rotate(-12.63)"/></g><g class="cls-128"><rect class="cls-129" x="125.68" y="436.94" width="107.31" height="126.33" transform="translate(-187.93 426.53) rotate(-62.31)"/></g><g class="cls-130"><rect class="cls-131" x="199.67" y="509.17" width="16.6" height="18.57" transform="translate(18.92 81.44) rotate(-16.67)"/></g><g class="cls-132"><rect class="cls-133" x="149" y="460.89" width="64.83" height="76.21" transform="translate(-185.84 427.79) rotate(-62.31)"/></g><g class="cls-134"><polygon class="cls-135" points="334.07 565 351.47 567.46 360.78 539.06 343.38 536.6 334.07 565"/></g><g class="cls-136"><polygon class="cls-137" points="344.85 558.77 362.25 561.24 371.57 532.83 354.16 530.37 344.85 558.77"/></g><g class="cls-138"><rect class="cls-139" x="180.97" y="470.62" width="6.4" height="4.77" transform="translate(-158.77 549.25) rotate(-77.36)"/></g><g class="cls-140"><rect class="cls-141" x="203.05" y="492.27" width="19.18" height="29.18" transform="translate(22.44 82.3) rotate(-16.67)"/></g><g class="cls-142"><rect class="cls-143" x="203.05" y="488.59" width="19.18" height="29.18" transform="matrix(0.96, -0.29, 0.29, 0.96, 23.5, 82.14)"/></g><g class="cls-124"><rect class="cls-125" x="168.2" y="492.71" width="75.36" height="88.53" transform="translate(13.52 81.62) rotate(-16.67)"/></g><g class="cls-126"><rect class="cls-127" x="117.33" y="495.97" width="68.05" height="83.75" transform="translate(44.92 46.13) rotate(-12.63)"/></g><g class="cls-128"><rect class="cls-129" x="125.68" y="436.94" width="107.31" height="126.33" transform="translate(-187.93 426.53) rotate(-62.31)"/></g><g class="cls-130"><rect class="cls-131" x="199.67" y="509.17" width="16.6" height="18.57" transform="translate(18.92 81.44) rotate(-16.67)"/></g><g class="cls-132"><rect class="cls-133" x="149" y="460.89" width="64.83" height="76.21" transform="translate(-185.84 427.79) rotate(-62.31)"/></g><g class="cls-134"><polygon class="cls-135" points="334.07 565 351.47 567.46 360.78 539.06 343.38 536.6 334.07 565"/></g><g class="cls-136"><polygon class="cls-137" points="344.85 558.77 362.25 561.24 371.57 532.83 354.16 530.37 344.85 558.77"/></g><g class="cls-144"><polygon class="cls-145" points="288.26 495.92 330.48 520.29 330.48 590.93 288.26 566.55 288.26 495.92"/></g><g class="cls-3"><polygon class="cls-98" points="328.5 563.07 327.36 562.41 327.36 545.2 328.5 545.86 328.5 563.07"/><polygon class="cls-98" points="326.02 557.39 324.88 556.73 324.88 543.77 326.02 544.43 326.02 557.39"/><polygon class="cls-98" points="323.83 556.13 322.12 555.14 322.12 542.18 323.83 543.17 323.83 556.13"/><polygon class="cls-98" points="321.07 554.54 319.93 553.88 319.93 540.91 321.07 541.57 321.07 554.54"/><polygon class="cls-98" points="318.32 552.94 317.75 552.61 317.75 539.65 318.32 539.98 318.32 552.94"/><polygon class="cls-98" points="316.13 551.68 314.98 551.02 314.98 538.06 316.13 538.72 316.13 551.68"/><polygon class="cls-98" points="313.65 550.25 312.51 549.59 312.51 536.63 313.65 537.29 313.65 550.25"/><polygon class="cls-98" points="310.89 548.66 310.32 548.33 310.32 535.37 310.89 535.7 310.89 548.66"/><polygon class="cls-98" points="308.99 547.56 307.28 546.57 307.28 533.61 308.99 534.6 308.99 547.56"/><polygon class="cls-98" points="306.23 545.96 305.09 545.31 305.09 532.34 306.23 533 306.23 545.96"/><polygon class="cls-98" points="303.76 544.54 302.62 543.88 302.62 530.92 303.76 531.57 303.76 544.54"/><polygon class="cls-98" points="301.28 543.11 300.14 542.45 300.14 529.49 301.28 530.14 301.28 543.11"/><polygon class="cls-98" points="298.52 541.51 297.95 541.19 297.95 528.22 298.52 528.55 298.52 541.51"/><polygon class="cls-98" points="296.62 540.41 294.91 539.43 294.91 526.46 296.62 527.45 296.62 540.41"/><polygon class="cls-98" points="293.86 538.82 292.72 538.16 292.72 525.2 293.86 525.86 293.86 538.82"/><polygon class="cls-98" points="291.38 541.64 290.24 540.99 290.24 523.77 291.38 524.43 291.38 541.64"/></g></g></g></g></g></g></svg>