<svg xmlns="http://www.w3.org/2000/svg" xmlns:xlink="http://www.w3.org/1999/xlink" viewBox="0 0 765.02 603.91"><defs><style>.cls-1{fill:none;}.cls-2{isolation:isolate;}.cls-3{clip-path:url(#clip-path);}.cls-4{clip-path:url(#clip-path-3);}.cls-5{fill:url(#linear-gradient);}.cls-6{clip-path:url(#clip-path-4);}.cls-7{fill:url(#linear-gradient-2);}.cls-8{clip-path:url(#clip-path-5);}.cls-9{opacity:0.5;mix-blend-mode:multiply;}.cls-10{clip-path:url(#clip-path-6);}.cls-11{clip-path:url(#clip-path-7);}.cls-12{fill:#ab82ba;}.cls-13{clip-path:url(#clip-path-8);}.cls-14{fill:url(#linear-gradient-3);}.cls-15{mix-blend-mode:color-dodge;}.cls-16{clip-path:url(#clip-path-10);}.cls-17{clip-path:url(#clip-path-11);}.cls-18{fill:url(#radial-gradient);}.cls-19{clip-path:url(#clip-path-12);}.cls-20{fill:url(#linear-gradient-4);}.cls-21{clip-path:url(#clip-path-13);}.cls-22{fill:url(#linear-gradient-5);}.cls-23{clip-path:url(#clip-path-15);}.cls-24{clip-path:url(#clip-path-16);}.cls-25{clip-path:url(#clip-path-17);}.cls-26{fill:url(#linear-gradient-6);}.cls-27{clip-path:url(#clip-path-19);}.cls-28{clip-path:url(#clip-path-20);}.cls-29{fill:url(#radial-gradient-2);}.cls-30{fill:#3d2475;}.cls-31{fill:#2c125b;}.cls-32{fill:#9894a4;}.cls-33{clip-path:url(#clip-path-21);}.cls-34{fill:url(#linear-gradient-7);}.cls-35{clip-path:url(#clip-path-23);}.cls-36{fill:url(#linear-gradient-8);}.cls-37{fill:#563a42;}.cls-38{fill:#fff;}.cls-39{clip-path:url(#clip-path-25);}.cls-40{fill:url(#radial-gradient-3);}.cls-41{clip-path:url(#clip-path-26);}.cls-42{fill:url(#linear-gradient-9);}.cls-43{clip-path:url(#clip-path-27);}.cls-44{fill:url(#linear-gradient-10);}.cls-45{clip-path:url(#clip-path-28);}.cls-46{fill:url(#linear-gradient-11);}.cls-47{clip-path:url(#clip-path-29);}.cls-48{fill:url(#linear-gradient-12);}.cls-49{clip-path:url(#clip-path-30);}.cls-50{fill:url(#linear-gradient-13);}.cls-51{clip-path:url(#clip-path-31);}.cls-52{fill:url(#linear-gradient-14);}.cls-53{clip-path:url(#clip-path-32);}.cls-54{fill:url(#linear-gradient-15);}.cls-55{clip-path:url(#clip-path-33);}.cls-56{fill:url(#linear-gradient-16);}.cls-57{clip-path:url(#clip-path-34);}.cls-58{fill:url(#linear-gradient-17);}.cls-59{clip-path:url(#clip-path-35);}.cls-60{fill:url(#linear-gradient-18);}.cls-61{clip-path:url(#clip-path-36);}.cls-62{fill:url(#linear-gradient-19);}.cls-63{clip-path:url(#clip-path-37);}.cls-64{fill:url(#linear-gradient-20);}.cls-65{clip-path:url(#clip-path-38);}.cls-66{fill:url(#linear-gradient-21);}.cls-67{clip-path:url(#clip-path-39);}.cls-68{fill:url(#linear-gradient-22);}.cls-69{clip-path:url(#clip-path-40);}.cls-70{fill:url(#linear-gradient-23);}.cls-71{clip-path:url(#clip-path-41);}.cls-72{fill:url(#linear-gradient-24);}.cls-73{clip-path:url(#clip-path-42);}.cls-74{fill:url(#linear-gradient-25);}.cls-75{clip-path:url(#clip-path-43);}.cls-76{fill:url(#linear-gradient-26);}.cls-77{clip-path:url(#clip-path-44);}.cls-78{fill:url(#linear-gradient-27);}.cls-79{clip-path:url(#clip-path-45);}.cls-80{fill:url(#linear-gradient-28);}.cls-81{clip-path:url(#clip-path-47);}.cls-82{clip-path:url(#clip-path-48);}.cls-83{fill:url(#linear-gradient-29);}.cls-84{clip-path:url(#clip-path-49);}.cls-85{fill:url(#linear-gradient-30);}.cls-86{clip-path:url(#clip-path-50);}.cls-87{fill:url(#linear-gradient-31);}.cls-88{clip-path:url(#clip-path-51);}.cls-89{fill:url(#linear-gradient-32);}.cls-90{clip-path:url(#clip-path-52);}.cls-91{fill:url(#linear-gradient-33);}.cls-92{clip-path:url(#clip-path-53);}.cls-93{fill:url(#linear-gradient-34);}.cls-94{clip-path:url(#clip-path-54);}.cls-95{fill:url(#linear-gradient-35);}.cls-96{clip-path:url(#clip-path-55);}.cls-97{fill:url(#linear-gradient-36);}.cls-98{clip-path:url(#clip-path-57);}.cls-99{clip-path:url(#clip-path-58);}.cls-100{fill:url(#radial-gradient-4);}.cls-101{clip-path:url(#clip-path-59);}.cls-102{fill:url(#radial-gradient-5);}.cls-103{clip-path:url(#clip-path-60);}.cls-104{fill:url(#radial-gradient-6);}.cls-105{clip-path:url(#clip-path-61);}.cls-106{fill:url(#radial-gradient-7);}.cls-107{clip-path:url(#clip-path-63);}.cls-108{fill:url(#radial-gradient-8);}.cls-109{clip-path:url(#clip-path-64);}.cls-110{clip-path:url(#clip-path-65);}.cls-111{fill:url(#radial-gradient-9);}.cls-112{clip-path:url(#clip-path-66);}.cls-113{clip-path:url(#clip-path-68);}.cls-114{fill:url(#linear-gradient-37);}.cls-115{fill:#c93a95;}.cls-116{clip-path:url(#clip-path-70);}.cls-117{fill:url(#linear-gradient-38);}.cls-118{clip-path:url(#clip-path-71);}.cls-119{fill:url(#linear-gradient-39);}.cls-120{clip-path:url(#clip-path-72);}.cls-121{fill:url(#linear-gradient-40);}.cls-122{clip-path:url(#clip-path-73);}.cls-123{fill:url(#linear-gradient-41);}.cls-124{clip-path:url(#clip-path-74);}.cls-125{fill:url(#linear-gradient-42);}.cls-126{clip-path:url(#clip-path-75);}.cls-127{fill:url(#linear-gradient-43);}.cls-128{clip-path:url(#clip-path-76);}.cls-129{fill:url(#linear-gradient-44);}.cls-130{clip-path:url(#clip-path-77);}.cls-131{fill:url(#linear-gradient-45);}.cls-132{clip-path:url(#clip-path-78);}.cls-133{fill:url(#linear-gradient-46);}.cls-134{clip-path:url(#clip-path-79);}.cls-135{fill:url(#linear-gradient-47);}.cls-136{clip-path:url(#clip-path-80);}.cls-137{fill:url(#linear-gradient-48);}.cls-138{clip-path:url(#clip-path-81);}.cls-139{fill:url(#linear-gradient-49);}.cls-140{clip-path:url(#clip-path-82);}.cls-141{fill:url(#linear-gradient-50);}.cls-142{clip-path:url(#clip-path-83);}.cls-143{fill:url(#linear-gradient-51);}.cls-144{clip-path:url(#clip-path-84);}.cls-145{fill:url(#linear-gradient-52);}.cls-146{clip-path:url(#clip-path-85);}.cls-147{fill:url(#linear-gradient-53);}.cls-148{clip-path:url(#clip-path-86);}.cls-149{fill:url(#linear-gradient-54);}.cls-150{clip-path:url(#clip-path-87);}.cls-151{fill:url(#linear-gradient-55);}.cls-152{clip-path:url(#clip-path-88);}.cls-153{fill:url(#linear-gradient-56);}.cls-154{clip-path:url(#clip-path-89);}.cls-155{fill:url(#linear-gradient-57);}.cls-156{clip-path:url(#clip-path-90);}.cls-157{fill:url(#linear-gradient-58);}.cls-158{clip-path:url(#clip-path-91);}.cls-159{fill:url(#linear-gradient-59);}.cls-160{clip-path:url(#clip-path-92);}.cls-161{fill:url(#linear-gradient-60);}.cls-162{clip-path:url(#clip-path-93);}.cls-163{fill:url(#linear-gradient-61);}.cls-164{clip-path:url(#clip-path-94);}.cls-165{fill:url(#linear-gradient-62);}.cls-166{clip-path:url(#clip-path-95);}.cls-167{fill:url(#linear-gradient-63);}.cls-168{clip-path:url(#clip-path-96);}.cls-169{fill:url(#linear-gradient-64);}.cls-170{clip-path:url(#clip-path-97);}.cls-171{fill:url(#linear-gradient-65);}.cls-172{clip-path:url(#clip-path-99);}.cls-173{clip-path:url(#clip-path-100);}.cls-174{fill:url(#radial-gradient-10);}.cls-175{clip-path:url(#clip-path-101);}.cls-176{fill:url(#radial-gradient-11);}.cls-177{clip-path:url(#clip-path-102);}.cls-178{clip-path:url(#clip-path-103);}.cls-179{fill:url(#radial-gradient-12);}.cls-180{clip-path:url(#clip-path-104);}.cls-181{clip-path:url(#clip-path-105);}.cls-182{fill:url(#radial-gradient-13);}.cls-183{clip-path:url(#clip-path-106);}.cls-184{clip-path:url(#clip-path-107);}.cls-185{fill:url(#linear-gradient-66);}.cls-186{clip-path:url(#clip-path-108);}.cls-187{fill:url(#linear-gradient-67);}.cls-188{clip-path:url(#clip-path-109);}.cls-189{fill:url(#linear-gradient-68);}</style><clipPath id="clip-path" transform="translate(12.44 53.68)"><rect class="cls-1" width="752.57" height="531.03"/></clipPath><clipPath id="clip-path-3" transform="translate(12.44 53.68)"><polygon class="cls-1" points="419.78 21.78 419.78 252.81 419.78 252.81 448.82 235.44 448.82 4.4 448.82 4.4 419.78 21.78"/></clipPath><linearGradient id="linear-gradient" x1="-1084.11" y1="-3125.81" x2="-1083.11" y2="-3125.81" gradientTransform="translate(206550.68 594463.07) scale(190.14)" gradientUnits="userSpaceOnUse"><stop offset="0" stop-color="#9a74b3"/><stop offset="0.13" stop-color="#a07bb7"/><stop offset="0.32" stop-color="#af8dc1"/><stop offset="0.54" stop-color="#c8abd1"/><stop offset="0.58" stop-color="#ceb2d5"/><stop offset="0.76" stop-color="#d8c2de"/><stop offset="1" stop-color="#eadded"/></linearGradient><clipPath id="clip-path-4" transform="translate(12.44 53.68)"><polygon class="cls-1" points="412.25 17.42 412.25 248.41 419.82 252.81 419.83 252.81 419.83 21.78 412.25 17.42 412.25 17.42"/></clipPath><linearGradient id="linear-gradient-2" x1="-1082.67" y1="-3125.47" x2="-1081.67" y2="-3125.47" gradientTransform="translate(202305.51 583216.19) scale(186.56)" xlink:href="#linear-gradient"/><clipPath id="clip-path-5" transform="translate(12.44 53.68)"><rect class="cls-1" width="752.57" height="531.03"/></clipPath><clipPath id="clip-path-6" transform="translate(12.44 53.68)"><rect class="cls-1" x="433.14" y="30.2" width="17.65" height="189.37"/></clipPath><clipPath id="clip-path-7" transform="translate(12.44 53.68)"><rect class="cls-1" x="433.14" y="30.2" width="17.65" height="189.37"/></clipPath><clipPath id="clip-path-8" transform="translate(12.44 53.68)"><path class="cls-1" d="M443,34.67v182h0c0,1,1.34,1.76,3,1.76s3-.78,3-1.75v0h0v-182Z"/></clipPath><linearGradient id="linear-gradient-3" x1="-1261.33" y1="-3747.37" x2="-1260.33" y2="-3747.37" gradientTransform="translate(-7250.58 -22731.58) rotate(180) scale(6.11)" gradientUnits="userSpaceOnUse"><stop offset="0" stop-color="#150c2c"/><stop offset="1" stop-color="#3e2577"/></linearGradient><clipPath id="clip-path-10" transform="translate(12.44 53.68)"><rect class="cls-1" x="412.21" y="4.4" width="36.57" height="241.26"/></clipPath><clipPath id="clip-path-11" transform="translate(12.44 53.68)"><polygon class="cls-1" points="419.87 20.66 412.21 17.42 418.85 22.43 419.69 245.66 420.52 22.34 448.77 4.4 419.87 20.66"/></clipPath><radialGradient id="radial-gradient" cx="-1034.81" cy="-2979.02" r="1" gradientTransform="translate(23225.87 65676.07) scale(22.02)" gradientUnits="userSpaceOnUse"><stop offset="0" stop-color="#fff"/><stop offset="1" stop-color="#080204"/></radialGradient><clipPath id="clip-path-12" transform="translate(12.44 53.68)"><polygon class="cls-1" points="161.93 168.33 161.93 399.36 190.97 381.98 190.97 150.95 190.97 150.95 161.93 168.33"/></clipPath><linearGradient id="linear-gradient-4" x1="-1084.11" y1="-3125.81" x2="-1083.11" y2="-3125.81" gradientTransform="translate(206292.78 594609.63) scale(190.14)" xlink:href="#linear-gradient"/><clipPath id="clip-path-13" transform="translate(12.44 53.68)"><polygon class="cls-1" points="154.4 394.96 161.97 399.36 161.97 399.36 161.97 168.33 154.4 163.97 154.4 394.96"/></clipPath><linearGradient id="linear-gradient-5" x1="-1082.67" y1="-3125.47" x2="-1081.67" y2="-3125.47" gradientTransform="translate(202047.64 583362.74) scale(186.56)" xlink:href="#linear-gradient"/><clipPath id="clip-path-15" transform="translate(12.44 53.68)"><rect class="cls-1" x="175.29" y="176.75" width="17.65" height="189.37"/></clipPath><clipPath id="clip-path-16" transform="translate(12.44 53.68)"><rect class="cls-1" x="175.29" y="176.75" width="17.65" height="189.37"/></clipPath><clipPath id="clip-path-17" transform="translate(12.44 53.68)"><path class="cls-1" d="M185.12,181.21v182h0v0c0,1,1.35,1.76,3,1.76s3-.79,3-1.75v0h0v-182Z"/></clipPath><linearGradient id="linear-gradient-6" x1="-1261.33" y1="-3747.37" x2="-1260.33" y2="-3747.37" gradientTransform="translate(-7508.44 -22585.03) rotate(180) scale(6.11)" xlink:href="#linear-gradient-3"/><clipPath id="clip-path-19" transform="translate(12.44 53.68)"><rect class="cls-1" x="154.35" y="150.95" width="36.57" height="241.26"/></clipPath><clipPath id="clip-path-20" transform="translate(12.44 53.68)"><polygon class="cls-1" points="190.92 150.95 162.01 167.21 154.35 163.97 160.99 168.97 161.83 392.2 162.66 168.88 190.92 150.95 190.92 150.95"/></clipPath><radialGradient id="radial-gradient-2" cx="-1034.81" cy="-2979.02" r="1" gradientTransform="translate(22968.02 65822.61) scale(22.02)" xlink:href="#radial-gradient"/><clipPath id="clip-path-21" transform="translate(12.44 53.68)"><path class="cls-1" d="M17.38,466.72a15.35,15.35,0,0,0-7,12c0,2.16.74,3.69,2,4.44l59.91,34.61c1.26.71.45-.9,2.37-2a15.38,15.38,0,0,0,7-12c0-2.19,2-2.2.79-2.94L22.26,466.18a3.58,3.58,0,0,0-1.74-.42,6.28,6.28,0,0,0-3.14,1"/></clipPath><linearGradient id="linear-gradient-7" x1="-1209.39" y1="-3277.7" x2="-1208.39" y2="-3277.7" gradientTransform="matrix(21.08, 0, 0, -21.08, 25532.6, -68605.07)" gradientUnits="userSpaceOnUse"><stop offset="0" stop-color="#7f7b8d"/><stop offset="0.29" stop-color="#7f7b8d"/><stop offset="0.48" stop-color="#a5a1b1"/><stop offset="0.59" stop-color="#b6b2c1"/><stop offset="0.81" stop-color="#9894a4"/><stop offset="1" stop-color="#9894a4"/></linearGradient><clipPath id="clip-path-23" transform="translate(12.44 53.68)"><polygon class="cls-1" points="412.25 17.42 419.83 21.78 448.82 4.4 441.17 0 412.25 17.42"/></clipPath><linearGradient id="linear-gradient-8" x1="-1043.73" y1="-3185.04" x2="-1042.73" y2="-3185.04" gradientTransform="translate(-70796.47 -217538.33) rotate(-180) scale(68.3)" xlink:href="#linear-gradient"/><clipPath id="clip-path-25" transform="translate(12.44 53.68)"><path class="cls-1" d="M548,175.73s-.62,11.47-.62,11.47c.13,3.69,12.44,7,24.82,7s24.83-3.3,24.83-7c0,0-.73-11.37-.73-11.5,0-12.46-11.68-22.63-24.15-22.63S548,163.27,548,175.73"/></clipPath><radialGradient id="radial-gradient-3" cx="-1036.47" cy="-3307.3" r="1" gradientTransform="matrix(22.79, 0, 0, -22.79, 24208.4, -75154.59)" gradientUnits="userSpaceOnUse"><stop offset="0" stop-color="#563942"/><stop offset="1" stop-color="#563942"/></radialGradient><clipPath id="clip-path-26" transform="translate(12.44 53.68)"><path class="cls-1" d="M509.23,172.69v10.87c0,.71,1,1.28,2.21,1.28s2.2-.57,2.2-1.28V172.69Z"/></clipPath><linearGradient id="linear-gradient-9" x1="-1325.71" y1="-3965.74" x2="-1324.71" y2="-3965.74" gradientTransform="translate(-5420.38 -17555.66) rotate(180) scale(4.49)" gradientUnits="userSpaceOnUse"><stop offset="0" stop-color="#902a90"/><stop offset="0.04" stop-color="#902a90"/><stop offset="0.19" stop-color="#a03695"/><stop offset="0.49" stop-color="#c857a1"/><stop offset="0.63" stop-color="#de68a8"/><stop offset="0.87" stop-color="#c04e9d"/><stop offset="1" stop-color="#c04e9d"/></linearGradient><clipPath id="clip-path-27" transform="translate(12.44 53.68)"><path class="cls-1" d="M505.7,146.39v28.25h0v.05c0,1.85,2.57,3.34,5.74,3.34s5.74-1.49,5.74-3.34v-.05h0V146.39Z"/></clipPath><linearGradient id="linear-gradient-10" x1="-994.52" y1="-2842.36" x2="-993.52" y2="-2842.36" gradientTransform="translate(12562.23 34639.65) scale(12.11)" gradientUnits="userSpaceOnUse"><stop offset="0" stop-color="#bf9eca"/><stop offset="0.01" stop-color="#bf9eca"/><stop offset="0.08" stop-color="#d6c1dd"/><stop offset="0.17" stop-color="#f4eef6"/><stop offset="0.22" stop-color="#fff"/><stop offset="0.26" stop-color="#f9f6fa"/><stop offset="0.32" stop-color="#e9ddec"/><stop offset="0.39" stop-color="#cfb4d6"/><stop offset="0.39" stop-color="#ceb2d5"/><stop offset="0.48" stop-color="#ad90c3"/><stop offset="0.57" stop-color="#8c6fb2"/><stop offset="0.63" stop-color="#8063ab"/><stop offset="0.71" stop-color="#8265ac"/><stop offset="0.79" stop-color="#8e6eb1"/><stop offset="0.9" stop-color="#a581ba"/><stop offset="0.98" stop-color="#8c6cb0"/><stop offset="1" stop-color="#8c6cb0"/></linearGradient><clipPath id="clip-path-28" transform="translate(12.44 53.68)"><polygon class="cls-1" points="442.81 70.55 442.81 112.09 460.46 101.79 460.46 60.24 460.46 60.24 442.81 70.55"/></clipPath><linearGradient id="linear-gradient-11" x1="-1084.3" y1="-3083.12" x2="-1083.3" y2="-3083.12" gradientTransform="translate(66573.33 188111.79) scale(60.99)" gradientUnits="userSpaceOnUse"><stop offset="0" stop-color="#9a9ab0"/><stop offset="0.04" stop-color="#9a9ab0"/><stop offset="0.58" stop-color="#d3d0d8"/><stop offset="1" stop-color="#edeaf0"/></linearGradient><clipPath id="clip-path-29" transform="translate(12.44 53.68)"><polygon class="cls-1" points="437.01 67.11 437.01 108.56 442.89 112.09 442.89 70.55 437.01 67.11 437.01 67.11"/></clipPath><linearGradient id="linear-gradient-12" x1="-1078.52" y1="-3062.87" x2="-1077.52" y2="-3062.87" gradientTransform="translate(50059.15 141066.33) scale(46.03)" xlink:href="#linear-gradient-11"/><clipPath id="clip-path-30" transform="translate(12.44 53.68)"><polygon class="cls-1" points="437.01 67.11 442.89 70.55 460.46 60.24 454.42 56.71 437.01 67.11"/></clipPath><linearGradient id="linear-gradient-13" x1="-1017.22" y1="-3210.74" x2="-1016.22" y2="-3210.74" gradientTransform="translate(-41421.88 -132216.43) rotate(180) scale(41.2)" xlink:href="#linear-gradient-11"/><clipPath id="clip-path-31" transform="translate(12.44 53.68)"><polygon class="cls-1" points="569.39 102.66 569.39 119.9 569.39 119.9 584.43 111.25 584.43 94.01 584.43 94.01 569.39 102.66"/></clipPath><linearGradient id="linear-gradient-14" x1="-1084.42" y1="-3054.47" x2="-1083.42" y2="-3054.47" gradientTransform="translate(46003.15 128067.14) scale(41.89)" xlink:href="#linear-gradient"/><clipPath id="clip-path-32" transform="translate(12.44 53.68)"><polygon class="cls-1" points="425.59 37.56 569.43 119.9 569.43 102.66 425.59 20.37 425.59 37.56"/></clipPath><linearGradient id="linear-gradient-15" x1="-1083.41" y1="-3136.71" x2="-1082.41" y2="-3136.71" gradientTransform="translate(447805.44 1295705.56) scale(413.06)" xlink:href="#linear-gradient"/><clipPath id="clip-path-33" transform="translate(12.44 53.68)"><polygon class="cls-1" points="425.59 20.37 569.43 102.66 584.43 94.01 440.5 11.67 425.59 20.37"/></clipPath><linearGradient id="linear-gradient-16" x1="-1027.1" y1="-3201.17" x2="-1026.1" y2="-3201.17" gradientTransform="translate(-49103.37 -154698.3) rotate(-180) scale(48.34)" xlink:href="#linear-gradient"/><clipPath id="clip-path-34" transform="translate(12.44 53.68)"><polygon class="cls-1" points="450.91 75.59 450.91 78.69 506.33 110.29 506.33 110.29 506.33 107.19 450.91 75.59"/></clipPath><linearGradient id="linear-gradient-17" x1="-1101.33" y1="-3119.43" x2="-1100.33" y2="-3119.43" gradientTransform="matrix(0, -120.98, -120.98, 0, -376923.29, -133141.35)" xlink:href="#linear-gradient-3"/><clipPath id="clip-path-35" transform="translate(12.44 53.68)"><polygon class="cls-1" points="506.32 107.19 506.32 110.29 506.32 110.29 509.41 108.44 509.41 105.36 509.41 105.36 506.32 107.19"/></clipPath><linearGradient id="linear-gradient-18" x1="-1256.96" y1="-2834.79" x2="-1255.96" y2="-2834.79" gradientTransform="matrix(0, -10.77, -10.77, 0, -30016.88, -13421.83)" xlink:href="#linear-gradient-3"/><clipPath id="clip-path-36" transform="translate(12.44 53.68)"><polygon class="cls-1" points="450.91 75.59 506.32 107.19 509.41 105.36 454.01 73.75 450.91 75.59"/></clipPath><linearGradient id="linear-gradient-19" x1="-1054.22" y1="-3151.91" x2="-1053.22" y2="-3151.91" gradientTransform="matrix(0, 126.12, 126.12, 0, 397995.56, 132930.06)" xlink:href="#linear-gradient-3"/><clipPath id="clip-path-37" transform="translate(12.44 53.68)"><polygon class="cls-1" points="450.91 93.08 450.91 96.17 506.33 127.77 506.33 127.77 506.33 124.68 450.91 93.08"/></clipPath><linearGradient id="linear-gradient-20" x1="-1101.33" y1="-3119.43" x2="-1100.33" y2="-3119.43" gradientTransform="matrix(0, -120.98, -120.98, 0, -376923.88, -133124.21)" xlink:href="#linear-gradient-3"/><clipPath id="clip-path-38" transform="translate(12.44 53.68)"><polygon class="cls-1" points="506.32 124.68 506.32 127.77 509.41 125.93 509.41 122.84 506.32 124.68"/></clipPath><linearGradient id="linear-gradient-21" x1="-1256.96" y1="-2834.79" x2="-1255.96" y2="-2834.79" gradientTransform="matrix(0, -10.77, -10.77, 0, -30016.92, -13404.22)" xlink:href="#linear-gradient-3"/><clipPath id="clip-path-39" transform="translate(12.44 53.68)"><polygon class="cls-1" points="450.91 93.08 506.32 124.68 509.41 122.84 454.01 91.23 450.91 93.08"/></clipPath><linearGradient id="linear-gradient-22" x1="-1054.22" y1="-3151.91" x2="-1053.22" y2="-3151.91" gradientTransform="matrix(0, 126.12, 126.12, 0, 397995.9, 132947.64)" xlink:href="#linear-gradient-3"/><clipPath id="clip-path-40" transform="translate(12.44 53.68)"><polygon class="cls-1" points="511.07 132.32 511.07 164.39 511.07 164.39 531.93 152.15 531.93 120.08 511.07 132.32"/></clipPath><linearGradient id="linear-gradient-23" x1="-1084.29" y1="-3084.87" x2="-1083.29" y2="-3084.87" gradientTransform="translate(68546.78 193692.63) scale(62.74)" xlink:href="#linear-gradient-11"/><clipPath id="clip-path-41" transform="translate(12.44 53.68)"><polygon class="cls-1" points="489.18 151.68 511.12 164.39 511.12 164.39 511.12 132.32 489.18 119.67 489.18 151.68"/></clipPath><linearGradient id="linear-gradient-24" x1="-1081.01" y1="-3100.43" x2="-1080.01" y2="-3100.43" gradientTransform="translate(91256.6 260557.85) scale(83.99)" xlink:href="#linear-gradient-11"/><clipPath id="clip-path-42" transform="translate(12.44 53.68)"><polygon class="cls-1" points="489.18 119.67 511.12 132.32 531.93 120.08 509.89 107.37 489.18 119.67"/></clipPath><linearGradient id="linear-gradient-25" x1="-1029.34" y1="-3199" x2="-1028.34" y2="-3199" gradientTransform="translate(-51243.48 -160867.83) rotate(180) scale(50.32)" xlink:href="#linear-gradient-11"/><clipPath id="clip-path-43" transform="translate(12.44 53.68)"><polygon class="cls-1" points="511.19 117.63 511.19 157.26 536.97 142.14 536.97 102.51 536.97 102.51 511.19 117.63"/></clipPath><linearGradient id="linear-gradient-26" x1="-1084.24" y1="-3096.52" x2="-1083.24" y2="-3096.52" gradientTransform="translate(84571 240179.67) scale(77.52)" xlink:href="#linear-gradient-11"/><clipPath id="clip-path-44" transform="translate(12.44 53.68)"><polygon class="cls-1" points="484.14 102 484.14 141.56 511.25 157.26 511.26 157.26 511.26 117.63 484.14 102"/></clipPath><linearGradient id="linear-gradient-27" x1="-1081.59" y1="-3109.12" x2="-1080.59" y2="-3109.12" gradientTransform="translate(112694 322793.96) scale(103.78)" xlink:href="#linear-gradient-11"/><clipPath id="clip-path-45" transform="translate(12.44 53.68)"><polygon class="cls-1" points="484.14 102 511.26 117.63 536.97 102.51 509.73 86.81 484.14 102"/></clipPath><linearGradient id="linear-gradient-28" x1="-1039.77" y1="-3188.89" x2="-1038.77" y2="-3188.89" gradientTransform="translate(-64084.95 -198184.75) rotate(180) scale(62.18)" xlink:href="#linear-gradient-11"/><clipPath id="clip-path-47" transform="translate(12.44 53.68)"><polygon class="cls-1" points="493.64 101.47 511.01 111.48 527.47 101.8 510.03 91.75 493.64 101.47"/></clipPath><clipPath id="clip-path-48" transform="translate(12.44 53.68)"><polygon class="cls-1" points="525.33 118.65 525.33 121.74 585.45 156.41 585.45 153.31 525.33 118.65 525.33 118.65"/></clipPath><linearGradient id="linear-gradient-29" x1="-1099.97" y1="-3121.51" x2="-1098.97" y2="-3121.51" gradientTransform="matrix(0, -131.3, -131.3, 0, -409303.23, -144280.02)" xlink:href="#linear-gradient-3"/><clipPath id="clip-path-49" transform="translate(12.44 53.68)"><polygon class="cls-1" points="585.44 153.31 585.44 156.41 588.53 154.56 588.53 151.47 585.44 153.31"/></clipPath><linearGradient id="linear-gradient-30" x1="-1256.95" y1="-2834.79" x2="-1255.95" y2="-2834.79" gradientTransform="matrix(0, -10.77, -10.77, 0, -29938.47, -13375.77)" xlink:href="#linear-gradient-3"/><clipPath id="clip-path-50" transform="translate(12.44 53.68)"><polygon class="cls-1" points="525.33 118.65 585.44 153.31 588.53 151.47 528.43 116.81 525.33 118.65"/></clipPath><linearGradient id="linear-gradient-31" x1="-1056.7" y1="-3151.42" x2="-1055.7" y2="-3151.42" gradientTransform="matrix(0, 137.56, 137.56, 0, 434055.08, 145362.49)" xlink:href="#linear-gradient-3"/><clipPath id="clip-path-51" transform="translate(12.44 53.68)"><polygon class="cls-1" points="525.33 139.23 585.45 173.89 585.45 173.89 585.45 170.8 525.33 136.14 525.33 139.23"/></clipPath><linearGradient id="linear-gradient-32" x1="-1099.97" y1="-3121.51" x2="-1098.97" y2="-3121.51" gradientTransform="matrix(0, -131.3, -131.3, 0, -409303.29, -144262.36)" xlink:href="#linear-gradient-3"/><clipPath id="clip-path-52" transform="translate(12.44 53.68)"><polygon class="cls-1" points="585.44 170.8 585.44 173.89 588.53 172.04 588.53 168.96 585.44 170.8"/></clipPath><linearGradient id="linear-gradient-33" x1="-1256.95" y1="-2834.79" x2="-1255.95" y2="-2834.79" gradientTransform="matrix(0, -10.77, -10.77, 0, -29938.34, -13358.3)" xlink:href="#linear-gradient-3"/><clipPath id="clip-path-53" transform="translate(12.44 53.68)"><polygon class="cls-1" points="525.33 136.14 585.44 170.8 588.53 168.96 528.43 134.29 525.33 136.14"/></clipPath><linearGradient id="linear-gradient-34" x1="-1056.7" y1="-3151.42" x2="-1055.7" y2="-3151.42" gradientTransform="matrix(0, 137.56, 137.56, 0, 434056.95, 145381.23)" xlink:href="#linear-gradient-3"/><clipPath id="clip-path-54" transform="translate(12.44 53.68)"><polygon class="cls-1" points="563.38 103.86 563.38 334.85 570.96 339.25 570.96 108.22 563.38 103.86"/></clipPath><linearGradient id="linear-gradient-35" x1="-1082.67" y1="-3125.47" x2="-1081.67" y2="-3125.47" gradientTransform="translate(202455.62 583299.58) scale(186.56)" xlink:href="#linear-gradient"/><clipPath id="clip-path-55" transform="translate(12.44 53.68)"><polygon class="cls-1" points="563.38 103.86 570.96 108.22 599.95 90.84 592.3 86.44 563.38 103.86"/></clipPath><linearGradient id="linear-gradient-36" x1="-1043.73" y1="-3185.04" x2="-1042.73" y2="-3185.04" gradientTransform="translate(-70645.7 -217453.17) rotate(-180) scale(68.3)" xlink:href="#linear-gradient"/><clipPath id="clip-path-57" transform="translate(12.44 53.68)"><rect class="cls-1" x="563.38" y="90.84" width="36.57" height="241.26"/></clipPath><clipPath id="clip-path-58" transform="translate(12.44 53.68)"><polygon class="cls-1" points="571.05 107.1 563.38 103.86 570.03 108.87 570.86 332.1 571.7 108.78 599.95 90.84 571.05 107.1"/></clipPath><radialGradient id="radial-gradient-4" cx="-1048.71" cy="-3026.17" r="1" gradientTransform="translate(32772.56 93028.28) scale(30.69)" xlink:href="#radial-gradient"/><clipPath id="clip-path-59" transform="translate(12.44 53.68)"><path class="cls-1" d="M609.36,140.23s-.62,11.47-.62,11.47c.13,3.69,12.44,7,24.82,7s24.83-3.31,24.83-7h0s-.73-11.37-.73-11.5c0-12.46-11.68-22.63-24.15-22.63s-24.15,10.2-24.15,22.66"/></clipPath><radialGradient id="radial-gradient-5" cx="-1036.47" cy="-3307.3" r="1" gradientTransform="matrix(22.79, 0, 0, -22.79, 24269.8, -75190.09)" xlink:href="#radial-gradient-3"/><clipPath id="clip-path-60" transform="translate(12.44 53.68)"><path class="cls-1" d="M667.11,107.46s-.62,11.47-.62,11.47c.13,3.69,12.44,7,24.82,7s24.83-3.31,24.83-7h0s-.73-11.37-.73-11.5c0-12.46-11.68-22.63-24.15-22.63S667.11,95,667.11,107.46"/></clipPath><radialGradient id="radial-gradient-6" cx="-1036.47" cy="-3307.3" r="1" gradientTransform="matrix(22.79, 0, 0, -22.79, 24327.55, -75222.86)" xlink:href="#radial-gradient-3"/><clipPath id="clip-path-61" transform="translate(12.44 53.68)"><path class="cls-1" d="M422.89,245.16s-.62,11.46-.62,11.46c.13,3.69,12.44,7,24.82,7s24.83-3.3,24.83-7c0,0-.73-11.37-.73-11.5,0-12.45-11.68-22.63-24.15-22.63s-24.15,10.2-24.15,22.67"/></clipPath><radialGradient id="radial-gradient-7" cx="-1036.47" cy="-3307.3" r="1" gradientTransform="matrix(22.79, 0, 0, -22.79, 24083.33, -75085.16)" xlink:href="#radial-gradient-3"/><clipPath id="clip-path-63" transform="translate(12.44 53.68)"><path class="cls-1" d="M355.62,283s-.63,11.47-.63,11.47c.13,3.68,12.44,7,24.82,7s24.83-3.31,24.83-7h0s-.73-11.37-.73-11.5c0-12.46-11.68-22.63-24.14-22.63s-24.15,10.2-24.15,22.66"/></clipPath><radialGradient id="radial-gradient-8" cx="-1036.47" cy="-3307.3" r="1" gradientTransform="matrix(22.79, 0, 0, -22.79, 24016.05, -75047.32)" xlink:href="#radial-gradient-3"/><clipPath id="clip-path-64" transform="translate(12.44 53.68)"><rect class="cls-1" x="354.99" y="259.45" width="49.65" height="42.01"/></clipPath><clipPath id="clip-path-65" transform="translate(12.44 53.68)"><path class="cls-1" d="M291.52,319s-.62,11.47-.62,11.47c.13,3.68,12.44,7,24.82,7s24.83-3.31,24.83-7c0,0-.73-11.37-.73-11.5,0-12.46-11.68-22.63-24.15-22.63s-24.15,10.2-24.15,22.66"/></clipPath><radialGradient id="radial-gradient-9" cx="-1036.47" cy="-3307.3" r="1" gradientTransform="matrix(22.79, 0, 0, -22.79, 23951.96, -75011.33)" xlink:href="#radial-gradient-3"/><clipPath id="clip-path-66" transform="translate(12.44 53.68)"><rect class="cls-1" x="290.9" y="295.44" width="49.65" height="42.01"/></clipPath><clipPath id="clip-path-68" transform="translate(12.44 53.68)"><polygon class="cls-1" points="154.4 163.97 161.97 168.33 190.97 150.95 183.31 146.55 154.4 163.97"/></clipPath><linearGradient id="linear-gradient-37" x1="-1043.73" y1="-3185.04" x2="-1042.73" y2="-3185.04" gradientTransform="matrix(-68.3, 0, 0, -68.3, -71054.49, -217391.73)" xlink:href="#linear-gradient"/><clipPath id="clip-path-70" transform="translate(12.44 53.68)"><path class="cls-1" d="M251.38,319.24V330.1c0,.71,1,1.29,2.2,1.29s2.21-.58,2.21-1.29h0V319.24Z"/></clipPath><linearGradient id="linear-gradient-38" x1="-1325.71" y1="-3965.74" x2="-1324.71" y2="-3965.74" gradientTransform="translate(-5678.24 -17409.11) rotate(180) scale(4.49)" xlink:href="#linear-gradient-9"/><clipPath id="clip-path-71" transform="translate(12.44 53.68)"><path class="cls-1" d="M247.84,292.94v28.25h0v.05c0,1.84,2.57,3.34,5.74,3.34s5.74-1.5,5.74-3.34v-.05h0V292.94Z"/></clipPath><linearGradient id="linear-gradient-39" x1="-994.52" y1="-2842.36" x2="-993.52" y2="-2842.36" gradientTransform="translate(12304.37 34786.2) scale(12.11)" xlink:href="#linear-gradient-10"/><clipPath id="clip-path-72" transform="translate(12.44 53.68)"><polygon class="cls-1" points="184.95 217.1 184.95 258.64 184.95 258.64 202.6 248.33 202.6 206.79 184.95 217.1"/></clipPath><linearGradient id="linear-gradient-40" x1="-1084.3" y1="-3083.12" x2="-1083.3" y2="-3083.12" gradientTransform="matrix(60.99, 0, 0, 60.99, 66315.54, 188258.31)" xlink:href="#linear-gradient-11"/><clipPath id="clip-path-73" transform="translate(12.44 53.68)"><polygon class="cls-1" points="179.15 213.65 179.15 255.11 185.03 258.64 185.03 217.1 179.15 213.65 179.15 213.65"/></clipPath><linearGradient id="linear-gradient-41" x1="-1078.52" y1="-3062.87" x2="-1077.52" y2="-3062.87" gradientTransform="matrix(46.03, 0, 0, 46.03, 49801.43, 141212.83)" xlink:href="#linear-gradient-11"/><clipPath id="clip-path-74" transform="translate(12.44 53.68)"><polygon class="cls-1" points="179.15 213.65 185.03 217.1 202.6 206.79 196.56 203.26 179.15 213.65"/></clipPath><linearGradient id="linear-gradient-42" x1="-1017.22" y1="-3210.74" x2="-1016.22" y2="-3210.74" gradientTransform="translate(-41679.67 -132069.91) rotate(-180) scale(41.2)" xlink:href="#linear-gradient-11"/><clipPath id="clip-path-75" transform="translate(12.44 53.68)"><polygon class="cls-1" points="311.54 249.21 311.54 266.45 326.57 257.79 326.57 240.55 311.54 249.21"/></clipPath><linearGradient id="linear-gradient-43" x1="-1084.42" y1="-3054.47" x2="-1083.42" y2="-3054.47" gradientTransform="translate(45745.03 128213.78) scale(41.89)" xlink:href="#linear-gradient"/><clipPath id="clip-path-76" transform="translate(12.44 53.68)"><polygon class="cls-1" points="167.73 166.92 167.73 184.11 311.58 266.45 311.58 249.21 167.73 166.92 167.73 166.92"/></clipPath><linearGradient id="linear-gradient-44" x1="-1083.41" y1="-3136.71" x2="-1082.41" y2="-3136.71" gradientTransform="matrix(413.06, 0, 0, 413.06, 447547.71, 1295852.06)" xlink:href="#linear-gradient"/><clipPath id="clip-path-77" transform="translate(12.44 53.68)"><polygon class="cls-1" points="167.73 166.92 311.58 249.21 326.57 240.55 182.65 158.22 167.73 166.92"/></clipPath><linearGradient id="linear-gradient-45" x1="-1027.1" y1="-3201.17" x2="-1026.1" y2="-3201.17" gradientTransform="translate(-49361.25 -154551.74) rotate(180) scale(48.34)" xlink:href="#linear-gradient"/><clipPath id="clip-path-78" transform="translate(12.44 53.68)"><polygon class="cls-1" points="193.05 222.14 193.05 225.23 248.47 256.84 248.47 256.83 248.47 253.74 193.05 222.14 193.05 222.14"/></clipPath><linearGradient id="linear-gradient-46" x1="-1101.33" y1="-3119.43" x2="-1100.33" y2="-3119.43" gradientTransform="matrix(0, -120.98, -120.98, 0, -377181.11, -132994.93)" xlink:href="#linear-gradient-3"/><clipPath id="clip-path-79" transform="translate(12.44 53.68)"><polygon class="cls-1" points="248.46 253.74 248.46 256.83 248.46 256.84 251.55 254.99 251.55 251.9 251.55 251.9 248.46 253.74"/></clipPath><linearGradient id="linear-gradient-47" x1="-1256.96" y1="-2834.79" x2="-1255.96" y2="-2834.79" gradientTransform="matrix(0, -10.77, -10.77, 0, -30274.75, -13275.26)" xlink:href="#linear-gradient-3"/><clipPath id="clip-path-80" transform="translate(12.44 53.68)"><polygon class="cls-1" points="193.05 222.14 248.46 253.74 251.55 251.9 196.16 220.29 193.05 222.14"/></clipPath><linearGradient id="linear-gradient-48" x1="-1054.22" y1="-3151.91" x2="-1053.22" y2="-3151.91" gradientTransform="matrix(0, 126.12, 126.12, 0, 397737.72, 133076.55)" xlink:href="#linear-gradient-3"/><clipPath id="clip-path-81" transform="translate(12.44 53.68)"><polygon class="cls-1" points="193.05 242.72 248.47 274.32 248.47 274.32 248.47 271.23 193.05 239.63 193.05 242.72"/></clipPath><linearGradient id="linear-gradient-49" x1="-1101.33" y1="-3119.43" x2="-1100.33" y2="-3119.43" gradientTransform="matrix(0, -120.98, -120.98, 0, -377181.7, -132977.77)" xlink:href="#linear-gradient-3"/><clipPath id="clip-path-82" transform="translate(12.44 53.68)"><polygon class="cls-1" points="248.46 271.23 248.46 274.32 251.55 272.47 251.55 269.39 251.55 269.39 248.46 271.23"/></clipPath><linearGradient id="linear-gradient-50" x1="-1256.96" y1="-2834.79" x2="-1255.96" y2="-2834.79" gradientTransform="matrix(0, -10.77, -10.77, 0, -30274.78, -13257.67)" xlink:href="#linear-gradient-3"/><clipPath id="clip-path-83" transform="translate(12.44 53.68)"><polygon class="cls-1" points="193.05 239.63 248.46 271.23 251.55 269.39 196.16 237.78 193.05 239.63"/></clipPath><linearGradient id="linear-gradient-51" x1="-1054.22" y1="-3151.91" x2="-1053.22" y2="-3151.91" gradientTransform="matrix(0, 126.12, 126.12, 0, 397738.08, 133094.08)" xlink:href="#linear-gradient-3"/><clipPath id="clip-path-84" transform="translate(12.44 53.68)"><polygon class="cls-1" points="253.22 278.86 253.22 310.93 274.07 298.69 274.07 266.63 253.22 278.86"/></clipPath><linearGradient id="linear-gradient-52" x1="-1084.29" y1="-3084.87" x2="-1083.29" y2="-3084.87" gradientTransform="translate(68288.89 193839.19) scale(62.74)" xlink:href="#linear-gradient-11"/><clipPath id="clip-path-85" transform="translate(12.44 53.68)"><polygon class="cls-1" points="231.32 298.22 253.26 310.93 253.26 278.86 231.32 266.21 231.32 298.22"/></clipPath><linearGradient id="linear-gradient-53" x1="-1081.01" y1="-3100.43" x2="-1080.01" y2="-3100.43" gradientTransform="matrix(83.99, 0, 0, 83.99, 90998.95, 260704.32)" xlink:href="#linear-gradient-11"/><clipPath id="clip-path-86" transform="translate(12.44 53.68)"><polygon class="cls-1" points="231.32 266.21 253.26 278.86 274.07 266.63 252.03 253.92 231.32 266.21"/></clipPath><linearGradient id="linear-gradient-54" x1="-1029.34" y1="-3199" x2="-1028.34" y2="-3199" gradientTransform="translate(-51501.34 -160721.28) rotate(180) scale(50.32)" xlink:href="#linear-gradient-11"/><clipPath id="clip-path-87" transform="translate(12.44 53.68)"><polygon class="cls-1" points="253.34 264.18 253.34 303.8 253.34 303.81 279.11 288.68 279.11 249.06 253.34 264.18"/></clipPath><linearGradient id="linear-gradient-55" x1="-1084.24" y1="-3096.52" x2="-1083.24" y2="-3096.52" gradientTransform="translate(84313.04 240326.25) scale(77.52)" xlink:href="#linear-gradient-11"/><clipPath id="clip-path-88" transform="translate(12.44 53.68)"><polygon class="cls-1" points="226.29 248.55 226.29 288.1 253.4 303.81 253.4 264.18 226.29 248.55 226.29 248.55"/></clipPath><linearGradient id="linear-gradient-56" x1="-1081.59" y1="-3109.12" x2="-1080.59" y2="-3109.12" gradientTransform="translate(112436.1 322940.52) scale(103.78)" xlink:href="#linear-gradient-11"/><clipPath id="clip-path-89" transform="translate(12.44 53.68)"><polygon class="cls-1" points="226.29 248.55 253.4 264.18 279.11 249.06 251.88 233.36 226.29 248.55"/></clipPath><linearGradient id="linear-gradient-57" x1="-1039.77" y1="-3188.89" x2="-1038.77" y2="-3188.89" gradientTransform="translate(-64342.75 -198038.22) rotate(-180) scale(62.18)" xlink:href="#linear-gradient-11"/><clipPath id="clip-path-90" transform="translate(12.44 53.68)"><polygon class="cls-1" points="235.79 248.02 253.15 258.03 269.61 248.35 252.17 238.29 235.79 248.02"/></clipPath><linearGradient id="linear-gradient-58" x1="-1014.9" y1="-3212.99" x2="-1013.9" y2="-3212.99" gradientTransform="translate(-40119.32 -127679.43) rotate(-180) scale(39.82)" gradientUnits="userSpaceOnUse"><stop offset="0" stop-color="#902a90"/><stop offset="0.04" stop-color="#902a90"/><stop offset="0.29" stop-color="#a03695"/><stop offset="0.77" stop-color="#c857a1"/><stop offset="1" stop-color="#de68a8"/></linearGradient><clipPath id="clip-path-91" transform="translate(12.44 53.68)"><polygon class="cls-1" points="267.47 265.2 267.47 268.29 327.59 302.95 327.59 299.86 267.47 265.2"/></clipPath><linearGradient id="linear-gradient-59" x1="-1099.97" y1="-3121.51" x2="-1098.97" y2="-3121.51" gradientTransform="matrix(0, -131.3, -131.3, 0, -409561.12, -144133.39)" xlink:href="#linear-gradient-3"/><clipPath id="clip-path-92" transform="translate(12.44 53.68)"><polygon class="cls-1" points="267.47 265.2 327.58 299.86 330.67 298.02 270.58 263.35 267.47 265.2"/></clipPath><linearGradient id="linear-gradient-60" x1="-1056.7" y1="-3151.42" x2="-1055.7" y2="-3151.42" gradientTransform="matrix(0, 137.56, 137.56, 0, 433797.16, 145509.22)" xlink:href="#linear-gradient-3"/><clipPath id="clip-path-93" transform="translate(12.44 53.68)"><polygon class="cls-1" points="267.47 282.68 267.47 285.78 327.59 320.44 327.59 317.34 267.47 282.68 267.47 282.68"/></clipPath><linearGradient id="linear-gradient-61" x1="-1099.97" y1="-3121.51" x2="-1098.97" y2="-3121.51" gradientTransform="matrix(0, -131.3, -131.3, 0, -409561.09, -144115.99)" xlink:href="#linear-gradient-3"/><clipPath id="clip-path-94" transform="translate(12.44 53.68)"><polygon class="cls-1" points="267.47 282.68 327.58 317.34 330.67 315.5 270.58 280.83 267.47 282.68"/></clipPath><linearGradient id="linear-gradient-62" x1="-1056.7" y1="-3151.42" x2="-1055.7" y2="-3151.42" gradientTransform="matrix(0, 137.56, 137.56, 0, 433799.12, 145527.7)" xlink:href="#linear-gradient-3"/><clipPath id="clip-path-95" transform="translate(12.44 53.68)"><polygon class="cls-1" points="313.06 254.76 313.06 485.8 342.1 468.42 342.1 237.39 313.06 254.76"/></clipPath><linearGradient id="linear-gradient-63" x1="-1095.78" y1="-3153.72" x2="-1094.78" y2="-3153.72" gradientTransform="matrix(272.29, 0, 0, -272.29, 298696.87, -858374.72)" xlink:href="#linear-gradient"/><clipPath id="clip-path-96" transform="translate(12.44 53.68)"><polygon class="cls-1" points="305.52 250.41 305.52 481.4 313.1 485.8 313.1 254.76 305.52 250.41 305.52 250.41"/></clipPath><linearGradient id="linear-gradient-64" x1="-1082.67" y1="-3125.47" x2="-1081.67" y2="-3125.47" gradientTransform="matrix(186.56, 0, 0, 186.56, 202197.57, 583446.19)" xlink:href="#linear-gradient"/><clipPath id="clip-path-97" transform="translate(12.44 53.68)"><polygon class="cls-1" points="305.52 250.41 313.1 254.76 342.1 237.39 334.44 232.99 305.52 250.41"/></clipPath><linearGradient id="linear-gradient-65" x1="-1043.73" y1="-3185.04" x2="-1042.73" y2="-3185.04" gradientTransform="translate(-70903.75 -217306.56) rotate(180) scale(68.3)" xlink:href="#linear-gradient"/><clipPath id="clip-path-99" transform="translate(12.44 53.68)"><rect class="cls-1" x="305.52" y="237.39" width="36.57" height="241.26"/></clipPath><clipPath id="clip-path-100" transform="translate(12.44 53.68)"><polygon class="cls-1" points="342.1 237.39 313.19 253.65 305.52 250.41 312.17 255.41 313 478.65 313.84 255.32 342.1 237.39"/></clipPath><radialGradient id="radial-gradient-10" cx="-1048.71" cy="-3026.17" r="1" gradientTransform="translate(32514.7 93174.83) scale(30.69)" xlink:href="#radial-gradient"/><clipPath id="clip-path-101" transform="translate(12.44 53.68)"><path class="cls-1" d="M161,395.7s-.63,11.47-.63,11.47c.13,3.69,12.44,7,24.82,7s24.83-3.31,24.83-7h0s-.73-11.37-.73-11.5c0-12.46-11.68-22.63-24.14-22.63S161,383.24,161,395.7"/></clipPath><radialGradient id="radial-gradient-11" cx="-1036.47" cy="-3307.3" r="1" gradientTransform="matrix(22.79, 0, 0, -22.79, 23821.47, -74934.62)" xlink:href="#radial-gradient-3"/><clipPath id="clip-path-102" transform="translate(12.44 53.68)"><rect class="cls-1" x="160.41" y="372.15" width="49.65" height="42.01"/></clipPath><clipPath id="clip-path-103" transform="translate(12.44 53.68)"><path class="cls-1" d="M97.76,429.55S97.13,441,97.13,441c.13,3.68,12.44,7,24.83,7s24.83-3.3,24.83-7c0,0-.74-11.38-.74-11.5,0-12.46-11.68-22.63-24.14-22.63s-24.15,10.19-24.15,22.66"/></clipPath><radialGradient id="radial-gradient-12" cx="-1036.47" cy="-3307.3" r="1" gradientTransform="matrix(22.79, 0, 0, -22.79, 23758.19, -74900.77)" xlink:href="#radial-gradient-3"/><clipPath id="clip-path-104" transform="translate(12.44 53.68)"><rect class="cls-1" x="97.13" y="406" width="49.65" height="42.01"/></clipPath><clipPath id="clip-path-105" transform="translate(12.44 53.68)"><path class="cls-1" d="M33.67,465.54S33,477,33,477c.13,3.68,12.44,7,24.82,7s24.83-3.3,24.83-7h0S82,465.63,82,465.51c0-12.46-11.68-22.63-24.14-22.63s-24.15,10.19-24.15,22.66"/></clipPath><radialGradient id="radial-gradient-13" cx="-1036.47" cy="-3307.3" r="1" gradientTransform="matrix(22.79, 0, 0, -22.79, 23694.1, -74864.78)" xlink:href="#radial-gradient-3"/><clipPath id="clip-path-106" transform="translate(12.44 53.68)"><rect class="cls-1" x="33.04" y="441.99" width="49.65" height="42.01"/></clipPath><clipPath id="clip-path-107" transform="translate(12.44 53.68)"><polygon class="cls-1" points="229.48 285.23 234.78 288.3 234.78 260.98 229.48 257.92 229.48 285.23"/></clipPath><linearGradient id="linear-gradient-66" x1="-1205.05" y1="-3181.65" x2="-1204.05" y2="-3181.65" gradientTransform="matrix(0, -30.38, -30.38, 0, -96424.75, -36271.46)" xlink:href="#linear-gradient-58"/><clipPath id="clip-path-108" transform="translate(12.44 53.68)"><polygon class="cls-1" points="237 289.87 242.31 292.94 242.31 272.18 237 269.12 237 289.87"/></clipPath><linearGradient id="linear-gradient-67" x1="-1238.4" y1="-3191.49" x2="-1237.4" y2="-3191.49" gradientTransform="matrix(0, -23.82, -23.82, 0, -75764.04, -29150.22)" xlink:href="#linear-gradient-58"/><clipPath id="clip-path-109" transform="translate(12.44 53.68)"><polygon class="cls-1" points="570.91 108.22 570.91 339.25 599.95 321.88 599.95 90.84 570.91 108.22"/></clipPath><linearGradient id="linear-gradient-68" x1="-1095.78" y1="-3153.72" x2="-1094.78" y2="-3153.72" gradientTransform="matrix(272.29, 0, 0, -272.29, 298954.78, -858521.25)" xlink:href="#linear-gradient"/></defs><title>asset-factory3</title><g class="cls-2"><g id="Layer_2" data-name="Layer 2"><g id="Layer_1-2" data-name="Layer 1"><g id="Artwork_81" data-name="Artwork 81"><g class="cls-3"><g class="cls-3"><g class="cls-4"><rect class="cls-5" x="384.77" y="5.46" width="99.08" height="246.3" transform="translate(-6.2 183.67) rotate(-16.67)"/></g><g class="cls-6"><rect class="cls-7" x="386.6" y="19.45" width="58.88" height="231.35" transform="translate(-7.04 147.96) rotate(-12.63)"/></g><g class="cls-8"><g class="cls-9"><g class="cls-10"><g class="cls-11"><path class="cls-12" d="M450.79,58l-9.52,5.57V30.21h-6V67l-2.12,1.24v41.55l2.12-1.24V217.83c0,1,1.35,1.75,3,1.75s3-.79,3-1.75v0h0V105.08l9.52-5.56Z" transform="translate(12.44 53.68)"/></g></g></g></g><g class="cls-13"><rect class="cls-14" x="455.42" y="88.35" width="6.01" height="183.79"/></g><g class="cls-8"><g class="cls-15"><g class="cls-16"><g class="cls-17"><rect class="cls-18" x="424.65" y="58.09" width="36.57" height="241.25"/></g></g></g></g><g class="cls-19"><rect class="cls-20" x="126.91" y="152" width="99.08" height="246.3" transform="translate(-59.07 115.86) rotate(-16.67)"/></g><g class="cls-21"><rect class="cls-22" x="128.74" y="165.99" width="58.88" height="231.35" transform="translate(-45.34 95.1) rotate(-12.63)"/></g><g class="cls-8"><g class="cls-9"><g class="cls-23"><g class="cls-24"><path class="cls-12" d="M192.93,204.52l-9.52,5.56V176.75h-6v36.84l-2.12,1.24v41.54l2.12-1.23V364.35h0v0c0,1,1.34,1.75,3,1.75s3-.78,3-1.75h0V251.63l9.52-5.57Z" transform="translate(12.44 53.68)"/></g></g></g></g><g class="cls-25"><rect class="cls-26" x="197.56" y="234.9" width="6.01" height="183.79"/></g><g class="cls-8"><g class="cls-15"><g class="cls-27"><g class="cls-28"><rect class="cls-29" x="166.79" y="204.63" width="36.57" height="241.25"/></g></g></g><path class="cls-30" d="M10.19,493.35a4.47,4.47,0,0,0-.88-.35l.86-1.14ZM687,78l4.3,2.25c-2.46-1.24-5.59-1-9,.94L19.23,461.42C11.33,466,4.92,478.21,4.92,488.75c0,5.4,1.69,3.44,4.39,4.25l-2,2.67C4.09,494,0,492.13,0,486.16c0-10.54,6.41-22.78,14.31-27.34L677.39,78.58a11.54,11.54,0,0,1,5.68-1.72A7.3,7.3,0,0,1,687,78" transform="translate(12.44 53.68)"/><path class="cls-31" d="M696.61,92c0,10.53-6.4,15.63-14.3,20.19L19.23,492.42c-7.9,4.56-14.31,6.87-14.31-3.67S11.33,466,19.23,461.42L682.31,81.17A11.52,11.52,0,0,1,688,79.46c5.07,0,8.62,4.68,8.62,12.53" transform="translate(12.44 53.68)"/><polygon class="cls-31" points="77.06 567.94 77.06 577.58 24.28 547.33 24.28 537.74 77.06 567.94"/><polygon class="cls-30" points="77.06 567.94 24.28 537.74 62.86 517.72 208.91 493.89 77.06 567.94"/><polygon class="cls-32" points="29.82 520.39 699.08 139.51 754.53 177.11 85.15 558.06 29.82 520.39"/></g><g class="cls-33"><rect class="cls-34" x="5.87" y="447.23" width="82.31" height="89.81" transform="translate(-390.27 340.53) rotate(-60.01)"/></g><g class="cls-8"><path class="cls-30" d="M68.78,528.12a5.19,5.19,0,0,0-.88-.35l.86-1.14ZM743,117.61l4.3,2.25c-2.46-1.24-5.59-1-9,.94L77.82,496.19c-7.9,4.56-14.31,16.8-14.31,27.33,0,5.41,1.69,3.44,4.39,4.25l-2,2.67c-3.22-1.64-7.31-3.54-7.31-9.51h0c0-10.54,6.4-22.77,14.31-27.34L733.35,118.21a11.41,11.41,0,0,1,5.68-1.72,7.3,7.3,0,0,1,3.94,1.12" transform="translate(12.44 53.68)"/><path class="cls-31" d="M752.57,131.62c0,10.53-6.4,15.62-14.3,20.18L77.82,527.19c-7.91,4.57-14.31,6.87-14.31-3.67s6.4-22.77,14.31-27.33L738.27,120.8a11.54,11.54,0,0,1,5.68-1.72c5.07,0,8.62,4.69,8.62,12.54" transform="translate(12.44 53.68)"/></g><g class="cls-35"><rect class="cls-36" x="412.4" y="-10.36" width="36.28" height="42.5" transform="translate(233.3 440.75) rotate(-62.31)"/></g><g class="cls-8"><path class="cls-37" d="M533.33,214c0-12.47-11.68-22.64-24.15-22.64S485,201.55,485,214c0,0-.63,11.47-.63,11.47.13,3.68,12.44,7,24.82,7s24.83-3.3,24.83-7c0,0-.73-11.38-.73-11.5" transform="translate(12.44 53.68)"/><path class="cls-38" d="M510.77,219.79a1.36,1.36,0,0,1-.49-.08,1.43,1.43,0,0,1-.89-1,21.85,21.85,0,0,0-2.28-5.74,22.75,22.75,0,0,0-3.8-4.86A29.14,29.14,0,0,0,496,203l.2.52a11.86,11.86,0,0,1,.47,1.89l.05.26c.12.68.21,1.38.29,2.15a26.33,26.33,0,0,1,0,4.26c-.06.74-.15,1.44-.26,2.11a16,16,0,0,1-.46,2.07.57.57,0,0,1-.54.41h-.1a.59.59,0,0,1-.46-.61,24.88,24.88,0,0,0,0-4,28.73,28.73,0,0,0-.58-3.9c-.16-.67-.33-1.28-.51-1.86-.11-.34-.23-.66-.35-1l-.3-.86c-.1-.31-.2-.61-.32-.91s-.24-.59-.36-.85a17.63,17.63,0,0,0-.89-1.69,1.44,1.44,0,0,1-.15-1.1,1.44,1.44,0,0,1,1.37-1.05,1.52,1.52,0,0,1,.42.06c.62.2,1.17.41,1.67.61s1.06.44,1.58.69a31.43,31.43,0,0,1,3,1.62,29.86,29.86,0,0,1,5.45,4.22,25.19,25.19,0,0,1,4.27,5.47c.27.47.6,1.14.89,1.77.08-.6.13-1.2.17-1.79a25.4,25.4,0,0,0-.41-6.49,21.67,21.67,0,0,1-.26-3,13,13,0,0,0-.73-4.73c-.77-1.5-.12-5,.5-8.4.27-1.48.53-2.88.6-3.83l.18-1.29a1.32,1.32,0,0,1-.07-.55,5.22,5.22,0,0,1,.93-2.62.67.67,0,0,1,.4-.16c.63,0,.64.58.65,1.45a7.6,7.6,0,0,0,0,.87.6.6,0,0,1,.1.41c-.33,2.28-.78,5.21-.78,5.21-.24,1.76-.66,6.74.16,8.35a11.71,11.71,0,0,1,.84,4.94,19.86,19.86,0,0,0,.23,2.82,28.31,28.31,0,0,1,.46,7.21,29.32,29.32,0,0,1-.44,3.59q-.16.88-.39,1.77l-.24.88c-.09.3-.18.58-.3.91a1.42,1.42,0,0,1-1.33.93" transform="translate(12.44 53.68)"/><path class="cls-38" d="M511.77,181c.16,0,0,2.06.23,2.09-.33,2.28-.78,5.2-.78,5.2s-.87,6.58.22,8.69.56,5.3,1,7.62a27.51,27.51,0,0,1,.45,7.07,29.51,29.51,0,0,1-.43,3.51c-.11.59-.24,1.16-.38,1.74l-.24.86c-.09.29-.17.56-.29.88a.85.85,0,0,1-.8.56.79.79,0,0,1-.3,0,.84.84,0,0,1-.53-.6h0a22.42,22.42,0,0,0-2.33-5.87,23.46,23.46,0,0,0-3.89-5,27.55,27.55,0,0,0-5-3.89,32,32,0,0,0-2.82-1.52l-.9-.4a18.22,18.22,0,0,1,.75,1.83,12.13,12.13,0,0,1,.5,2.06c.12.69.21,1.39.28,2.09a24.2,24.2,0,0,1,0,4.17,20.12,20.12,0,0,1-.25,2.05,16.7,16.7,0,0,1-.44,2,25,25,0,0,0,0-4.06,28.77,28.77,0,0,0-.59-4c-.15-.65-.32-1.29-.53-1.92s-.44-1.24-.65-1.86c-.1-.31-.2-.62-.32-.92s-.24-.61-.38-.9c-.27-.6-.59-1.17-.91-1.73v0a.84.84,0,0,1,.32-1.16.8.8,0,0,1,.42-.11,1,1,0,0,1,.25,0c.59.18,1.1.38,1.63.59s1,.44,1.55.68a31.65,31.65,0,0,1,3,1.6,29.62,29.62,0,0,1,5.35,4.13,24.61,24.61,0,0,1,4.17,5.35c.64,1.1,1.63,3.43,1.63,3.43v0l.07-.41a26.25,26.25,0,0,0,.41-3.31,25.85,25.85,0,0,0-.42-6.63c-.43-2.17,0-5.93-1-7.9s.94-8.93,1.17-11.92l.19-1.43c-.32-.35.32-2.35.66-2.66l0,0m0-1.12a1.2,1.2,0,0,0-.78.31,5.08,5.08,0,0,0-1.05,3.58l-.16,1.19a.13.13,0,0,1,0,.06c-.07.92-.32,2.3-.59,3.77-.79,4.28-1.25,7.21-.45,8.76a12.8,12.8,0,0,1,.67,4.49,21.58,21.58,0,0,0,.27,3.11,24.64,24.64,0,0,1,.41,6.16l0,0a26.34,26.34,0,0,0-4.36-5.6,31,31,0,0,0-5.56-4.29,32.5,32.5,0,0,0-3.08-1.65c-.54-.25-1.08-.49-1.61-.7s-1.07-.42-1.72-.62a1.9,1.9,0,0,0-.58-.09,2,2,0,0,0-1.72,3c.29.51.61,1.08.87,1.66.13.28.24.54.34.79l0,.07c.1.26.2.55.29.85s.21.59.32.89.23.63.33,1c.18.57.35,1.16.5,1.83a28.63,28.63,0,0,1,.57,3.8,23.75,23.75,0,0,1,0,3.88,1.14,1.14,0,0,0,.92,1.21l.2,0a1.11,1.11,0,0,0,1.08-.81,16.77,16.77,0,0,0,.47-2.14c.12-.68.21-1.4.27-2.15a26.43,26.43,0,0,0,0-4.36c-.08-.79-.17-1.5-.29-2.19l-.05-.27c-.08-.38-.15-.77-.25-1.16.36.2.72.4,1.07.62a26.25,26.25,0,0,1,4.84,3.73,22.16,22.16,0,0,1,3.7,4.74,21,21,0,0,1,2.22,5.57,2,2,0,0,0,1.25,1.41,2,2,0,0,0,.68.12,2,2,0,0,0,1.86-1.3c.12-.34.21-.63.31-.95s.17-.6.25-.9c.14-.58.28-1.19.39-1.81a29.7,29.7,0,0,0,0-11,19.73,19.73,0,0,1-.22-2.73,12.05,12.05,0,0,0-.9-5.18c-.64-1.24-.44-5.44-.1-8,0,0,.45-2.92.77-5.19a1,1,0,0,0-.11-.67c0-.18,0-.5,0-.7,0-.8,0-2-1.21-2" transform="translate(12.44 53.68)"/></g><g class="cls-39"><rect class="cls-40" x="559.78" y="206.75" width="49.65" height="41.12"/></g><g class="cls-41"><rect class="cls-42" x="521.68" y="226.37" width="4.41" height="12.15"/></g><g class="cls-43"><rect class="cls-44" x="518.14" y="200.08" width="11.48" height="31.64"/></g><g class="cls-45"><rect class="cls-46" x="435.74" y="58.8" width="31.78" height="54.74" transform="matrix(0.96, -0.29, 0.29, 0.96, 6.71, 186.85)"/></g><g class="cls-47"><rect class="cls-48" x="432.16" y="67.01" width="15.58" height="45.18" transform="translate(3.5 152.09) rotate(-12.64)"/></g><g class="cls-49"><rect class="cls-50" x="437.16" y="50.03" width="23.15" height="27.2" transform="translate(196.33 485.1) rotate(-62.31)"/></g><g class="cls-51"><rect class="cls-52" x="566" y="92.4" width="21.83" height="29.12" transform="translate(6.01 223.66) rotate(-16.67)"/></g><g class="cls-53"><rect class="cls-54" x="416.45" y="5.84" width="162.13" height="128.58" transform="translate(9.15 164.21) rotate(-12.64)"/></g><g class="cls-55"><rect class="cls-56" x="427.82" y="-34.3" width="154.38" height="182.93" transform="translate(232.19 531.47) rotate(-62.31)"/></g><g class="cls-57"><rect class="cls-58" x="454.05" y="61.42" width="49.14" height="63.04" transform="translate(264.73 578.47) rotate(-73.33)"/></g><g class="cls-59"><rect class="cls-60" x="505.12" y="105.78" width="5.49" height="4.09" transform="translate(304.01 633.49) rotate(-77.37)"/></g><g class="cls-61"><rect class="cls-62" x="446.49" y="62.07" width="67.35" height="56.8" transform="translate(25.39 287.14) rotate(-27.69)"/></g><g class="cls-63"><rect class="cls-64" x="454.05" y="78.9" width="49.13" height="63.04" transform="translate(247.98 590.94) rotate(-73.33)"/></g><g class="cls-65"><rect class="cls-66" x="505.12" y="123.26" width="5.49" height="4.09" transform="translate(286.94 647.15) rotate(-77.36)"/></g><g class="cls-67"><rect class="cls-68" x="446.49" y="79.55" width="67.35" height="56.8" transform="translate(17.26 289.14) rotate(-27.69)"/></g><g class="cls-69"><rect class="cls-70" x="505.16" y="118.02" width="32.69" height="48.43" transform="translate(-6.44 209.25) rotate(-16.67)"/></g><g class="cls-71"><rect class="cls-72" x="484.56" y="117.81" width="31.19" height="48.44" transform="translate(-6.51 166.52) rotate(-12.64)"/></g><g class="cls-73"><rect class="cls-74" x="489.58" y="95.12" width="41.95" height="49.45" transform="translate(179.66 569.94) rotate(-62.31)"/></g><g class="cls-75"><rect class="cls-76" x="503.88" y="99.97" width="40.4" height="59.84" transform="translate(-2.79 209.47) rotate(-16.67)"/></g><g class="cls-77"><rect class="cls-78" x="478.43" y="99.71" width="38.54" height="59.85" transform="translate(-3.86 165.69) rotate(-12.64)"/></g><g class="cls-79"><rect class="cls-80" x="484.64" y="71.67" width="51.84" height="61.1" transform="translate(195.26 560.51) rotate(-62.31)"/></g><g class="cls-8"><polygon class="cls-38" points="506.09 155.15 523.45 165.16 539.91 155.48 522.47 145.43 506.09 155.15"/></g><g class="cls-81"><rect class="cls-38" x="493.96" y="82.05" width="33.19" height="39.12" transform="translate(195.8 560.18) rotate(-62.31)"/></g><g class="cls-82"><rect class="cls-83" x="528.68" y="103.32" width="53.41" height="68.42" transform="translate(276.77 683.81) rotate(-73.33)"/></g><g class="cls-84"><rect class="cls-85" x="584.24" y="151.89" width="5.49" height="4.09" transform="translate(320.82 746.72) rotate(-77.36)"/></g><g class="cls-86"><rect class="cls-87" x="520.47" y="104.21" width="72.92" height="61.69" transform="translate(13.46 327.92) rotate(-27.69)"/></g><g class="cls-88"><rect class="cls-89" x="528.68" y="120.8" width="53.41" height="68.42" transform="translate(260.02 696.28) rotate(-73.33)"/></g><g class="cls-90"><rect class="cls-91" x="584.24" y="169.38" width="5.49" height="4.09" transform="translate(303.76 760.38) rotate(-77.36)"/></g><g class="cls-92"><rect class="cls-93" x="520.47" y="121.7" width="72.92" height="61.69" transform="translate(5.33 329.92) rotate(-27.69)"/></g><g class="cls-94"><rect class="cls-95" x="537.73" y="105.88" width="58.88" height="231.35" transform="translate(-22.28 183.11) rotate(-12.63)"/></g><g class="cls-96"><rect class="cls-97" x="563.53" y="76.08" width="36.28" height="42.5" transform="translate(237.66 620.86) rotate(-62.31)"/></g><g class="cls-8"><g class="cls-15"><g class="cls-98"><g class="cls-99"><rect class="cls-100" x="575.83" y="144.52" width="36.57" height="241.26"/></g></g></g></g><g class="cls-101"><rect class="cls-102" x="621.18" y="171.25" width="49.65" height="41.12"/></g><g class="cls-103"><rect class="cls-104" x="678.93" y="138.48" width="49.65" height="41.12"/></g><g class="cls-105"><rect class="cls-106" x="434.71" y="276.17" width="49.65" height="41.12"/></g><g class="cls-8"><path class="cls-38" d="M433.65,247.26a26.51,26.51,0,0,0-.53-4.07,27.94,27.94,0,0,0-1.06-3.81c-.22-.61-.45-1.21-.71-1.78s-.93-2.28-1-2.57a7.86,7.86,0,0,0-.36-.84c-.26-.55-.54-1.08-.84-1.6l0-.08a2.19,2.19,0,0,1,2.55-3.18l.27.08.23.08.43.15.84.32c.55.22,1.09.46,1.62.71a33,33,0,0,1,3.1,1.67,31.21,31.21,0,0,1,5.6,4.32,26.45,26.45,0,0,1,4.39,5.65,24.59,24.59,0,0,1,2.65,6.68l-4.21-.27.1-.3.11-.36c.08-.24.14-.49.21-.75.13-.5.24-1,.33-1.54a23.83,23.83,0,0,0,.42-3.15,25,25,0,0,0-.4-6.28,22.37,22.37,0,0,0-2-5.89,23.32,23.32,0,0,0-3.62-5.13l0,0a2.19,2.19,0,0,1,1.9-3.66l.2,0,.16,0,.29.05.56.11c.37.08.73.16,1.09.26q1.08.28,2.13.63a31.62,31.62,0,0,1,11.23,6.68,32.12,32.12,0,0,1,5.54,6.75,36.6,36.6,0,0,1,3.62,7.86l-4.09-.25.07-.18.08-.24c.06-.16.12-.34.17-.51a7.94,7.94,0,0,0,.26-1.07c.07-.37.09-.74.14-1.11s.12-.72.18-1.09a11.06,11.06,0,0,0-.15-4.51,11.74,11.74,0,0,0-.79-2.22,13.83,13.83,0,0,0-1.27-2.12,17.81,17.81,0,0,0-1.65-1.94,23.15,23.15,0,0,0-1.94-1.76,17.77,17.77,0,0,1,2.43,1.11,15,15,0,0,1,2.3,1.48,14.38,14.38,0,0,1,2,1.93,13.24,13.24,0,0,1,1.66,2.39,14.37,14.37,0,0,1,1.67,5.73,7.62,7.62,0,0,1,0,1.51,12.48,12.48,0,0,1-.29,1.48c-.11.49-.23,1-.38,1.46-.07.24-.15.48-.24.73l-.14.37-.08.19-.1.24a2.19,2.19,0,0,1-4.08-.18l0-.07a32.6,32.6,0,0,0-3.18-6.92,26.92,26.92,0,0,0-14.43-11.55c-.6-.2-1.19-.38-1.79-.53l-.9-.21-.43-.08-.21-.05-.16,0,1.87-3.68a28.09,28.09,0,0,1,4.28,6.09,26.81,26.81,0,0,1,2.44,7.07,28.78,28.78,0,0,1,.48,7.41,30.58,30.58,0,0,1-.46,3.68c-.11.61-.24,1.21-.4,1.82-.07.3-.16.61-.25.91l-.14.47-.08.23-.1.27a2.2,2.2,0,0,1-4.2-.21V250a21,21,0,0,0-2.19-5.51,22.17,22.17,0,0,0-3.67-4.68,26.19,26.19,0,0,0-4.8-3.71,27.63,27.63,0,0,0-2.68-1.44c-.46-.21-.93-.42-1.39-.6l-.7-.27-.34-.12-.3-.1,2.52-3.25c.38.65.74,1.33,1.06,2,.16.35.3.7.45,1s.32.69.45,1.05c.06.17.12.35.17.53a4.68,4.68,0,0,1,.09.56c.05.37.09.75.12,1.12a20.89,20.89,0,0,1,.09,2.23,23.41,23.41,0,0,1-.46,4.33,18.47,18.47,0,0,1-.53,2.07,14.34,14.34,0,0,1-.72,2" transform="translate(12.44 53.68)"/></g><g class="cls-107"><rect class="cls-108" x="367.43" y="314.02" width="49.65" height="41.12"/></g><g class="cls-109"><path class="cls-38" d="M366.37,285.11a26.51,26.51,0,0,0-.53-4.07,28.08,28.08,0,0,0-1.06-3.82c-.22-.6-.45-1.2-.71-1.77s-.93-2.29-1-2.58a8.67,8.67,0,0,0-.36-.83,16.4,16.4,0,0,0-.84-1.61l0-.07a2.19,2.19,0,0,1,.81-3,2.23,2.23,0,0,1,1.75-.19l.26.08.23.07.43.16.84.32c.55.22,1.09.46,1.62.71a32.92,32.92,0,0,1,3.1,1.66,31.37,31.37,0,0,1,5.6,4.33,26.76,26.76,0,0,1,4.4,5.64,25.53,25.53,0,0,1,2.65,6.68l-4.22-.26.1-.31.12-.35c.07-.25.14-.5.2-.75.13-.51.24-1,.34-1.54a25.6,25.6,0,0,0,.41-3.15,24.51,24.51,0,0,0-.4-6.28,22.43,22.43,0,0,0-2-5.9,23.86,23.86,0,0,0-3.61-5.13l0,0a2.19,2.19,0,0,1,1.9-3.66l.2,0,.16,0,.29.05.56.1c.38.08.74.17,1.1.27.71.18,1.42.4,2.12.63a31.51,31.51,0,0,1,11.23,6.67,31.87,31.87,0,0,1,5.54,6.76,37,37,0,0,1,3.63,7.85l-4.1-.24.07-.18.08-.24c.06-.17.12-.34.17-.51a10.65,10.65,0,0,0,.27-1.08c.06-.36.08-.73.13-1.1s.12-.73.19-1.09a11.24,11.24,0,0,0-.16-4.51,11.5,11.5,0,0,0-.79-2.22,14.62,14.62,0,0,0-1.26-2.12,17.15,17.15,0,0,0-1.66-1.94,23.15,23.15,0,0,0-1.94-1.76,19,19,0,0,1,2.43,1.1,15.87,15.87,0,0,1,2.3,1.49,14.38,14.38,0,0,1,2.05,1.93,13,13,0,0,1,1.66,2.38,14.42,14.42,0,0,1,1.67,5.73,7.72,7.72,0,0,1,0,1.52,11,11,0,0,1-.29,1.48c-.11.48-.23,1-.38,1.46q-.11.36-.24.72l-.14.38-.07.19-.11.23a2.18,2.18,0,0,1-2.88,1.12,2.15,2.15,0,0,1-1.19-1.3l0-.06a32.19,32.19,0,0,0-3.18-6.93,27.84,27.84,0,0,0-4.77-5.83,27.07,27.07,0,0,0-9.66-5.72c-.59-.2-1.19-.38-1.79-.53l-.89-.2-.44-.09-.21-.05-.16,0,1.87-3.69a28.4,28.4,0,0,1,4.28,6.1,27.2,27.2,0,0,1,2.45,7.07,29.12,29.12,0,0,1,.47,7.4,30.08,30.08,0,0,1-.46,3.68c-.11.61-.24,1.22-.4,1.83-.07.3-.15.6-.24.91l-.15.46-.08.24-.1.26a2.19,2.19,0,0,1-4.19-.2l0-.07a20.6,20.6,0,0,0-2.19-5.5,22.23,22.23,0,0,0-3.67-4.69,26.91,26.91,0,0,0-4.79-3.71,30.07,30.07,0,0,0-2.69-1.43c-.46-.22-.92-.42-1.39-.61l-.7-.26-.34-.13-.3-.09,2.52-3.25a21.38,21.38,0,0,1,1.06,2c.17.34.3.7.45,1s.32.69.45,1c.06.18.12.36.17.53a5,5,0,0,1,.09.56c.05.38.09.75.12,1.13a20.6,20.6,0,0,1,.09,2.22,24.09,24.09,0,0,1-.45,4.33,20.93,20.93,0,0,1-.53,2.07,16,16,0,0,1-.73,2" transform="translate(12.44 53.68)"/></g><g class="cls-110"><rect class="cls-111" x="303.34" y="350.01" width="49.65" height="41.12"/></g><g class="cls-112"><path class="cls-38" d="M302.28,321.1a28.6,28.6,0,0,0-1.59-7.89c-.23-.6-.45-1.2-.71-1.78s-.93-2.28-1-2.57a7.7,7.7,0,0,0-.36-.83c-.26-.55-.54-1.09-.85-1.61l0-.07a2.19,2.19,0,0,1,.82-3,2.17,2.17,0,0,1,1.74-.19l.27.08.22.07.44.16c.28.1.56.2.83.32.55.22,1.09.45,1.63.7a34.31,34.31,0,0,1,3.1,1.67,30.85,30.85,0,0,1,5.59,4.33,26.12,26.12,0,0,1,4.4,5.64,25.18,25.18,0,0,1,2.65,6.68l-4.21-.27.1-.3.11-.36.21-.74c.13-.51.24-1,.33-1.54a27.71,27.71,0,0,0,.42-3.15,25,25,0,0,0-.4-6.28,22.43,22.43,0,0,0-2-5.9,23.56,23.56,0,0,0-3.62-5.13l0,0a2.19,2.19,0,0,1,1.9-3.66l.2,0,.15,0,.3,0,.56.11c.37.08.73.17,1.09.27.72.18,1.43.39,2.12.63a31.55,31.55,0,0,1,11.24,6.67,32.37,32.37,0,0,1,5.54,6.75,37.32,37.32,0,0,1,3.62,7.86l-4.1-.25.08-.17.08-.24c.06-.17.11-.34.17-.52a9.81,9.81,0,0,0,.26-1.07c.06-.37.09-.74.13-1.1s.13-.73.19-1.09a11.06,11.06,0,0,0-.15-4.51,11.53,11.53,0,0,0-.8-2.22,12.88,12.88,0,0,0-1.26-2.12,16.1,16.1,0,0,0-1.65-1.94,21.54,21.54,0,0,0-1.94-1.76,19.65,19.65,0,0,1,2.43,1.1,15.77,15.77,0,0,1,2.29,1.49,13.39,13.39,0,0,1,2,1.93,13.58,13.58,0,0,1,1.67,2.38,14.37,14.37,0,0,1,1.67,5.73,7.62,7.62,0,0,1,0,1.51,12.64,12.64,0,0,1-.29,1.49c-.11.48-.23,1-.38,1.46q-.1.36-.24.72l-.14.37-.08.2-.1.23a2.19,2.19,0,0,1-2.89,1.12,2.21,2.21,0,0,1-1.19-1.3l0-.07a33.34,33.34,0,0,0-3.18-6.92,27.84,27.84,0,0,0-4.77-5.83,27.15,27.15,0,0,0-9.66-5.72c-.6-.2-1.2-.38-1.8-.53-.3-.08-.59-.14-.89-.2l-.44-.09-.2-.05-.16,0,1.87-3.69a27.91,27.91,0,0,1,4.28,6.1,26.87,26.87,0,0,1,2.44,7.06,28.78,28.78,0,0,1,.47,7.41,28.23,28.23,0,0,1-.45,3.68c-.11.61-.25,1.22-.4,1.82-.08.31-.16.61-.25.92l-.14.46-.08.24-.1.26a2.19,2.19,0,0,1-4.2-.2v-.07a21,21,0,0,0-2.2-5.5,21.87,21.87,0,0,0-3.66-4.69,26.63,26.63,0,0,0-4.8-3.71,29.9,29.9,0,0,0-2.68-1.43c-.46-.22-.93-.42-1.4-.61l-.69-.26-.34-.13-.3-.09,2.51-3.26a20.48,20.48,0,0,1,1.06,2c.17.34.3.69.46,1s.31.69.44,1c.07.18.12.36.17.53a5,5,0,0,1,.1.56c.05.37.09.75.12,1.12.06.75.1,1.49.09,2.23a24.2,24.2,0,0,1-.46,4.33,18.47,18.47,0,0,1-.53,2.07,15.9,15.9,0,0,1-.72,2" transform="translate(12.44 53.68)"/></g><g class="cls-8"><polygon class="cls-38" points="499.78 192.37 505.08 195.44 505.08 168.11 499.78 165.05 499.78 192.37"/><polygon class="cls-38" points="507.31 197 512.61 200.08 512.61 179.32 507.31 176.26 507.31 197"/></g><g class="cls-113"><rect class="cls-114" x="154.54" y="136.18" width="36.28" height="42.5" transform="translate(-34.52 290.88) rotate(-62.31)"/></g><g class="cls-8"><path class="cls-37" d="M275.47,360.53c0-12.46-11.68-22.63-24.14-22.63s-24.15,10.2-24.15,22.66c0,0-.63,11.47-.63,11.47.13,3.69,12.44,7,24.83,7s24.82-3.3,24.82-7c0,0-.73-11.37-.73-11.5" transform="translate(12.44 53.68)"/><path class="cls-38" d="M237.65,362.66a27.81,27.81,0,0,0-.53-4.07,28.48,28.48,0,0,0-1.06-3.82c-.22-.6-.45-1.2-.71-1.77s-.93-2.29-1-2.57a7.86,7.86,0,0,0-.36-.84c-.26-.55-.54-1.09-.84-1.61l0-.07a2.18,2.18,0,0,1,.81-3,2.21,2.21,0,0,1,1.74-.19l.27.08.22.07.44.16.83.32c.56.22,1.09.46,1.63.71a34.21,34.21,0,0,1,3.1,1.66,31.3,31.3,0,0,1,5.59,4.33,26.12,26.12,0,0,1,4.4,5.64,25.18,25.18,0,0,1,2.65,6.68l-4.21-.26.1-.31.11-.35.21-.75c.13-.5.24-1,.33-1.54a25.62,25.62,0,0,0,.42-3.15,25,25,0,0,0-.4-6.28,22.43,22.43,0,0,0-2-5.9,23.8,23.8,0,0,0-3.62-5.13l0,0a2.19,2.19,0,0,1,.13-3.1,2.21,2.21,0,0,1,1.77-.56l.2,0,.15,0,.3.05.56.1c.37.08.73.17,1.09.27.72.18,1.43.4,2.12.63a31.69,31.69,0,0,1,11.24,6.67,32.18,32.18,0,0,1,5.54,6.76,36.52,36.52,0,0,1,3.62,7.85l-4.1-.24.08-.18.08-.24c.06-.17.12-.34.17-.51a8.08,8.08,0,0,0,.26-1.08c.06-.36.09-.73.14-1.1s.12-.73.18-1.09a11.06,11.06,0,0,0-.15-4.51,11.77,11.77,0,0,0-.8-2.22,13,13,0,0,0-1.26-2.12,16.91,16.91,0,0,0-1.65-1.94,23.15,23.15,0,0,0-1.94-1.76,19,19,0,0,1,2.43,1.1,15.25,15.25,0,0,1,2.29,1.49,13.39,13.39,0,0,1,2.05,1.93,13.58,13.58,0,0,1,1.67,2.38,14.47,14.47,0,0,1,1.67,5.73,7.72,7.72,0,0,1,0,1.52,12.48,12.48,0,0,1-.29,1.48c-.11.49-.23,1-.38,1.46q-.1.36-.24.72l-.14.38-.08.19-.1.23a2.19,2.19,0,0,1-4.08-.18l0-.06a32.37,32.37,0,0,0-3.18-6.92A27.64,27.64,0,0,0,260.2,348a27.3,27.3,0,0,0-9.66-5.72c-.6-.2-1.2-.37-1.79-.53l-.9-.2-.44-.08-.2-.05-.16,0,1.87-3.69a28.4,28.4,0,0,1,4.28,6.1,26.81,26.81,0,0,1,2.44,7.07,30.06,30.06,0,0,1,0,11.08c-.11.61-.24,1.22-.4,1.83-.07.3-.16.6-.25.91l-.14.46-.08.24-.1.26a2.19,2.19,0,0,1-2.8,1.34,2.23,2.23,0,0,1-1.4-1.54v-.07a20.62,20.62,0,0,0-2.2-5.5,21.57,21.57,0,0,0-3.66-4.68,26.24,26.24,0,0,0-4.8-3.72,29.9,29.9,0,0,0-2.68-1.43c-.46-.22-.93-.42-1.39-.61l-.7-.26-.34-.12-.3-.1,2.51-3.25a19.27,19.27,0,0,1,1.06,2c.17.34.3.7.46,1s.31.69.44,1a4,4,0,0,1,.17.53,3.45,3.45,0,0,1,.1.56c0,.38.09.75.12,1.13.06.74.1,1.49.09,2.22a24.1,24.1,0,0,1-.46,4.33,19.21,19.21,0,0,1-.53,2.08,14.34,14.34,0,0,1-.72,2" transform="translate(12.44 53.68)"/><path class="cls-115" d="M254.14,329.65c-.24,0,0-2.25-.24-2.08-.35.32-1,2.32-.67,2.66l-.19,1.43c-.23,3-2.18,10-1.17,11.93s.62,5.73,1,7.9a25.82,25.82,0,0,1,.42,6.63,26.46,26.46,0,0,1-.4,3.31c-.1.54-.08.39-.08.39s-1-2.33-1.62-3.43a25.27,25.27,0,0,0-4.18-5.36,30.08,30.08,0,0,0-5.35-4.13,32.76,32.76,0,0,0-3-1.6c-.51-.24-1-.46-1.55-.68s-1-.4-1.63-.58a.84.84,0,0,0-.67.07.86.86,0,0,0-.32,1.17v0c.33.57.64,1.14.91,1.73.14.3.26.6.38.9s.23.62.33.93c.2.62.45,1.23.65,1.85s.37,1.27.52,1.92a29.23,29.23,0,0,1,.59,4,26.33,26.33,0,0,1,0,4.07,19.44,19.44,0,0,0,.44-2c.11-.68.19-1.36.25-2.06a25.25,25.25,0,0,0,0-4.17c-.07-.69-.15-1.39-.28-2.09a12.37,12.37,0,0,0-.5-2.06,18.22,18.22,0,0,0-.75-1.83l.9.41a30.54,30.54,0,0,1,2.82,1.51,28.46,28.46,0,0,1,5,3.89,23.77,23.77,0,0,1,3.89,5,21.81,21.81,0,0,1,2.33,5.86v0a.88.88,0,0,0,.53.6.86.86,0,0,0,1.1-.51c.12-.32.2-.59.29-.88s.16-.58.24-.86c.14-.58.27-1.16.38-1.74a29.67,29.67,0,0,0,.43-3.52,27.46,27.46,0,0,0-.45-7.06c-.46-2.33.07-5.51-1-7.62s-.22-8.69-.22-8.69.46-2.93.78-5.2" transform="translate(12.44 53.68)"/></g><g class="cls-116"><rect class="cls-117" x="263.82" y="372.92" width="4.41" height="12.15"/></g><g class="cls-118"><rect class="cls-119" x="260.29" y="346.62" width="11.48" height="31.64"/></g><g class="cls-120"><rect class="cls-121" x="177.89" y="205.35" width="31.78" height="54.74" transform="translate(-46.17 119.05) rotate(-16.67)"/></g><g class="cls-122"><rect class="cls-123" x="174.3" y="213.56" width="15.58" height="45.18" transform="translate(-34.8 99.23) rotate(-12.63)"/></g><g class="cls-124"><rect class="cls-125" x="179.3" y="196.58" width="23.15" height="27.2" transform="translate(-71.48 335.22) rotate(-62.31)"/></g><g class="cls-126"><rect class="cls-127" x="308.14" y="238.94" width="21.83" height="29.12" transform="translate(-46.86 155.86) rotate(-16.67)"/></g><g class="cls-128"><rect class="cls-129" x="158.59" y="152.39" width="162.13" height="128.58" transform="translate(-29.15 111.35) rotate(-12.63)"/></g><g class="cls-130"><rect class="cls-131" x="169.96" y="112.25" width="154.38" height="182.93" transform="translate(-35.63 381.6) rotate(-62.31)"/></g><g class="cls-132"><rect class="cls-133" x="196.19" y="207.97" width="49.14" height="63.04" transform="matrix(0.29, -0.96, 0.96, 0.29, -59.54, 435.95)"/></g><g class="cls-134"><rect class="cls-135" x="247.26" y="252.32" width="5.49" height="4.09" transform="translate(-40.45 496.36) rotate(-77.37)"/></g><g class="cls-136"><rect class="cls-137" x="188.63" y="208.62" width="67.34" height="56.8" transform="translate(-72.23 184.11) rotate(-27.69)"/></g><g class="cls-138"><rect class="cls-139" x="196.19" y="225.45" width="49.13" height="63.04" transform="translate(-76.29 448.42) rotate(-73.33)"/></g><g class="cls-140"><rect class="cls-141" x="247.26" y="269.81" width="5.49" height="4.09" transform="translate(-57.51 510.02) rotate(-77.36)"/></g><g class="cls-142"><rect class="cls-143" x="188.63" y="226.1" width="67.34" height="56.8" transform="translate(-80.35 186.11) rotate(-27.69)"/></g><g class="cls-144"><rect class="cls-145" x="247.3" y="264.56" width="32.69" height="48.43" transform="translate(-59.31 141.44) rotate(-16.67)"/></g><g class="cls-146"><rect class="cls-147" x="226.7" y="264.35" width="31.19" height="48.44" transform="translate(-44.81 113.67) rotate(-12.63)"/></g><g class="cls-148"><rect class="cls-149" x="231.72" y="241.67" width="41.95" height="49.45" transform="translate(-88.16 420.06) rotate(-62.31)"/></g><g class="cls-150"><rect class="cls-151" x="246.03" y="246.51" width="40.4" height="59.84" transform="translate(-55.66 141.66) rotate(-16.67)"/></g><g class="cls-152"><rect class="cls-153" x="220.57" y="246.25" width="38.54" height="59.85" transform="translate(-42.16 112.83) rotate(-12.64)"/></g><g class="cls-154"><rect class="cls-155" x="226.78" y="218.22" width="51.84" height="61.1" transform="translate(-72.56 410.63) rotate(-62.31)"/></g><g class="cls-156"><rect class="cls-157" x="236.1" y="228.6" width="33.19" height="39.12" transform="translate(-72.02 410.3) rotate(-62.31)"/></g><g class="cls-158"><rect class="cls-159" x="270.82" y="249.87" width="53.41" height="68.42" transform="translate(-47.51 541.3) rotate(-73.33)"/></g><g class="cls-160"><rect class="cls-161" x="262.61" y="250.76" width="72.92" height="61.69" transform="translate(-84.16 224.88) rotate(-27.69)"/></g><g class="cls-162"><rect class="cls-163" x="270.82" y="267.35" width="53.41" height="68.42" transform="translate(-64.26 553.76) rotate(-73.33)"/></g><g class="cls-164"><rect class="cls-165" x="262.61" y="268.24" width="72.92" height="61.69" transform="translate(-92.28 226.89) rotate(-27.69)"/></g><g class="cls-166"><rect class="cls-167" x="204.54" y="311.44" width="246.07" height="100.3" transform="matrix(0.29, -0.96, 0.96, 0.29, -101.46, 623.01)"/></g><g class="cls-168"><rect class="cls-169" x="279.87" y="252.43" width="58.88" height="231.35" transform="translate(-60.58 130.25) rotate(-12.64)"/></g><g class="cls-170"><rect class="cls-171" x="305.67" y="222.62" width="36.28" height="42.5" transform="translate(-30.15 470.98) rotate(-62.31)"/></g><g class="cls-8"><g class="cls-15"><g class="cls-172"><g class="cls-173"><rect class="cls-174" x="317.97" y="291.07" width="36.57" height="241.26"/></g></g></g></g><g class="cls-175"><rect class="cls-176" x="172.85" y="426.72" width="49.65" height="41.12"/></g><g class="cls-177"><path class="cls-38" d="M171.79,397.81a26.51,26.51,0,0,0-.53-4.07,28.08,28.08,0,0,0-1.06-3.82c-.22-.6-.45-1.2-.71-1.77s-.93-2.29-1-2.58a8.67,8.67,0,0,0-.36-.83,16.4,16.4,0,0,0-.84-1.61l0-.07a2.19,2.19,0,0,1,.81-3,2.23,2.23,0,0,1,1.75-.19l.26.08.23.07.43.16.84.32c.55.22,1.09.46,1.62.71a32.92,32.92,0,0,1,3.1,1.66,31.37,31.37,0,0,1,5.6,4.33,26.76,26.76,0,0,1,4.4,5.64,25.53,25.53,0,0,1,2.65,6.68l-4.22-.26.1-.31.12-.35c.07-.25.14-.5.2-.75.13-.51.24-1,.34-1.54a25.6,25.6,0,0,0,.41-3.15,24.51,24.51,0,0,0-.4-6.28,22.43,22.43,0,0,0-2-5.9,23.86,23.86,0,0,0-3.61-5.13l0,0a2.19,2.19,0,0,1,1.9-3.66l.2,0,.16,0,.29,0,.56.1c.37.08.74.17,1.1.27.71.18,1.42.4,2.12.63a31.51,31.51,0,0,1,11.23,6.67,31.87,31.87,0,0,1,5.54,6.76,37,37,0,0,1,3.63,7.85l-4.1-.24.07-.18.08-.24c.06-.17.12-.34.17-.51a10.65,10.65,0,0,0,.27-1.08c.06-.36.08-.73.13-1.1s.12-.73.19-1.09a11.24,11.24,0,0,0-.16-4.51,11.5,11.5,0,0,0-.79-2.22,14.62,14.62,0,0,0-1.26-2.12,17.15,17.15,0,0,0-1.66-1.94,23.15,23.15,0,0,0-1.94-1.76,19,19,0,0,1,2.43,1.1,15.87,15.87,0,0,1,2.3,1.49,14.38,14.38,0,0,1,2,1.93,13,13,0,0,1,1.66,2.38,14.42,14.42,0,0,1,1.67,5.73,7.62,7.62,0,0,1,0,1.51,10.89,10.89,0,0,1-.29,1.49c-.11.48-.23,1-.38,1.46q-.1.36-.24.72l-.14.38-.07.19-.11.23a2.19,2.19,0,0,1-2.89,1.12,2.17,2.17,0,0,1-1.18-1.3l0-.06a32.19,32.19,0,0,0-3.18-6.93,27.84,27.84,0,0,0-4.77-5.83,27.07,27.07,0,0,0-9.66-5.72c-.59-.2-1.19-.38-1.79-.53l-.89-.2-.44-.09-.21-.05-.16,0,1.87-3.69a28.4,28.4,0,0,1,4.28,6.1,27.2,27.2,0,0,1,2.45,7.07,29.12,29.12,0,0,1,.47,7.4,30.08,30.08,0,0,1-.46,3.68c-.11.61-.24,1.22-.4,1.83-.07.3-.15.6-.24.91l-.15.46-.08.24-.1.26a2.19,2.19,0,0,1-4.19-.2l0-.07a20.6,20.6,0,0,0-2.19-5.5,22.23,22.23,0,0,0-3.67-4.69,26.91,26.91,0,0,0-4.79-3.71,30.07,30.07,0,0,0-2.69-1.43c-.46-.22-.92-.42-1.39-.61l-.7-.26-.34-.13-.3-.09,2.52-3.25a21.38,21.38,0,0,1,1.06,2c.17.34.3.69.45,1s.32.69.45,1c.06.18.12.36.17.53a5,5,0,0,1,.09.56c.05.38.09.75.12,1.13a20.6,20.6,0,0,1,.09,2.22,24.09,24.09,0,0,1-.45,4.33,20.93,20.93,0,0,1-.53,2.07,16,16,0,0,1-.73,2" transform="translate(12.44 53.68)"/><path class="cls-115" d="M171.79,397.81a25.14,25.14,0,0,0,0-4.07,28.09,28.09,0,0,0-.59-4c-.15-.64-.32-1.28-.53-1.91s-.44-1.24-.65-1.86c-.1-.31-.21-.62-.32-.92a7.19,7.19,0,0,0-.39-.9,18.91,18.91,0,0,0-.9-1.73v0a.85.85,0,0,1,.31-1.17.82.82,0,0,1,.68-.07c.59.18,1.1.37,1.63.58s1,.44,1.55.68a31.56,31.56,0,0,1,3,1.59,29.43,29.43,0,0,1,5.35,4.14,25.27,25.27,0,0,1,4.18,5.36,23.84,23.84,0,0,1,2.51,6.32l-1.63-.11c.08-.22.17-.5.24-.75s.15-.53.22-.8c.14-.53.27-1.08.36-1.62a30.82,30.82,0,0,0,.4-3.31,25.86,25.86,0,0,0-.43-6.63,23.44,23.44,0,0,0-2.15-6.26A24.64,24.64,0,0,0,180.8,375a.86.86,0,0,1,.74-1.43c.4.05.73.12,1.08.19s.7.15,1,.24c.69.17,1.36.37,2,.6a30.11,30.11,0,0,1,10.75,6.38,30.85,30.85,0,0,1,5.31,6.47,35.93,35.93,0,0,1,3.48,7.56l-1.59-.09a5.32,5.32,0,0,0,.21-.53,5.62,5.62,0,0,0,.19-.58,9.57,9.57,0,0,0,.3-1.2,24.44,24.44,0,0,0,.31-2.43,11.9,11.9,0,0,0-.61-4.88,13.08,13.08,0,0,0-2.57-4.32,19.75,19.75,0,0,0-3.94-3.36,19.08,19.08,0,0,1,4.38,2.91,13.74,13.74,0,0,1,3.2,4.32,13.35,13.35,0,0,1,1.21,5.35,9.23,9.23,0,0,1-.05,1.39,12.48,12.48,0,0,1-.24,1.36c-.09.45-.21.9-.34,1.34-.07.22-.14.45-.22.67s-.16.42-.27.68a.86.86,0,0,1-1.59-.08v0a34.13,34.13,0,0,0-3.34-7.2,28.69,28.69,0,0,0-5-6.09,28.37,28.37,0,0,0-10.14-6c-.62-.21-1.25-.4-1.89-.56l-.95-.22c-.33-.07-.65-.12-.93-.16l.73-1.43a26.64,26.64,0,0,1,4.06,5.8,25.66,25.66,0,0,1,2.32,6.71,27.41,27.41,0,0,1,.46,7.06,29.51,29.51,0,0,1-.43,3.51q-.16.87-.39,1.74c-.07.29-.15.57-.23.86s-.17.56-.29.88a.85.85,0,0,1-1.63-.09h0a22.17,22.17,0,0,0-2.34-5.86,23.2,23.2,0,0,0-3.89-5,27.9,27.9,0,0,0-5-3.89,30.37,30.37,0,0,0-2.81-1.51c-.49-.23-1-.44-1.47-.64l-.74-.29-.72-.24,1-1.26a24.12,24.12,0,0,1,1.8,3.85,13.16,13.16,0,0,1,.5,2.06c.12.7.21,1.4.26,2.09a24.2,24.2,0,0,1,0,4.17,20.32,20.32,0,0,1-.25,2.06,15.29,15.29,0,0,1-.43,2" transform="translate(12.44 53.68)"/></g><g class="cls-178"><rect class="cls-179" x="109.58" y="460.57" width="49.65" height="41.12"/></g><g class="cls-180"><path class="cls-38" d="M108.52,431.65a29.29,29.29,0,0,0-.53-4.06,29.6,29.6,0,0,0-1.06-3.82c-.23-.61-.46-1.2-.72-1.78s-.92-2.28-1-2.57a7.7,7.7,0,0,0-.36-.83A16.4,16.4,0,0,0,104,417l0-.07a2.19,2.19,0,0,1,.81-3,2.15,2.15,0,0,1,1.75-.19l.26.08.23.07.43.15.84.32c.55.23,1.09.46,1.62.71a33,33,0,0,1,3.1,1.67,30.14,30.14,0,0,1,5.6,4.33,26.12,26.12,0,0,1,4.4,5.64,25.18,25.18,0,0,1,2.65,6.68l-4.21-.27.1-.3.11-.36c.07-.24.14-.49.2-.74.13-.51.24-1,.34-1.54a25.86,25.86,0,0,0,.41-3.15,24.56,24.56,0,0,0-.4-6.29,22.37,22.37,0,0,0-2-5.89,23.51,23.51,0,0,0-3.61-5.13l0,0a2.19,2.19,0,0,1,1.91-3.66l.2,0,.15,0,.29.05.57.11c.37.08.73.16,1.09.27.72.18,1.42.39,2.12.62a31.44,31.44,0,0,1,11.23,6.68,32.06,32.06,0,0,1,5.54,6.75,37.35,37.35,0,0,1,3.63,7.86l-4.1-.25.07-.17.08-.24c.06-.17.12-.34.17-.52a9.85,9.85,0,0,0,.27-1.07c.06-.37.08-.74.13-1.1s.13-.73.19-1.1a11.37,11.37,0,0,0-.15-4.5,11.87,11.87,0,0,0-.8-2.23,14.62,14.62,0,0,0-1.26-2.12,20.36,20.36,0,0,0-1.65-1.94,24.84,24.84,0,0,0-2-1.75,18.4,18.4,0,0,1,2.44,1.1A16.27,16.27,0,0,1,139,414a14.41,14.41,0,0,1,2,1.93,12.76,12.76,0,0,1,1.66,2.39,14.06,14.06,0,0,1,1.67,5.73,7.62,7.62,0,0,1,0,1.51,12.08,12.08,0,0,1-.28,1.48c-.12.49-.24,1-.38,1.46-.08.25-.15.49-.24.73l-.14.37-.08.19-.11.24a2.19,2.19,0,0,1-4.07-.18l0-.07a32.87,32.87,0,0,0-3.19-6.92,27.53,27.53,0,0,0-4.77-5.83,27,27,0,0,0-9.66-5.72c-.59-.2-1.19-.38-1.79-.53l-.89-.21-.44-.08-.2-.05-.17,0,1.88-3.69a27.87,27.87,0,0,1,4.27,6.1,26.77,26.77,0,0,1,2.45,7.06,29.23,29.23,0,0,1,.47,7.41,32.43,32.43,0,0,1-.45,3.68c-.12.61-.25,1.22-.4,1.82-.08.3-.16.61-.25.91l-.15.47-.07.23-.1.27a2.2,2.2,0,0,1-4.2-.21l0-.06a20.6,20.6,0,0,0-2.19-5.5,21.91,21.91,0,0,0-3.67-4.69,26.46,26.46,0,0,0-4.79-3.71,30.16,30.16,0,0,0-2.69-1.44c-.46-.21-.92-.41-1.39-.6-.23-.1-.47-.19-.7-.27l-.34-.12-.3-.09,2.52-3.26c.39.66.74,1.33,1.06,2,.17.34.3.69.46,1s.31.68.44,1c.06.18.12.35.17.53a3.27,3.27,0,0,1,.09.56c.06.37.09.75.13,1.12.06.75.09,1.49.08,2.23a24.28,24.28,0,0,1-.45,4.33,20.93,20.93,0,0,1-.53,2.07,16.82,16.82,0,0,1-.72,2" transform="translate(12.44 53.68)"/><path class="cls-115" d="M108.52,431.65a25,25,0,0,0,0-4.06,29.61,29.61,0,0,0-.59-4c-.16-.65-.33-1.29-.54-1.92s-.44-1.23-.64-1.85c-.11-.31-.21-.62-.33-.93s-.24-.6-.38-.89c-.28-.59-.58-1.17-.91-1.73v0a.85.85,0,0,1,.32-1.16.83.83,0,0,1,.67-.08c.59.18,1.1.38,1.63.59s1,.44,1.55.67a32.67,32.67,0,0,1,3,1.59,29.93,29.93,0,0,1,5.35,4.15,25,25,0,0,1,4.18,5.36,23.93,23.93,0,0,1,2.52,6.31l-1.64-.1c.08-.22.17-.5.24-.76s.15-.53.22-.79c.14-.53.27-1.08.36-1.63a28.21,28.21,0,0,0,.4-3.31,26.34,26.34,0,0,0-.42-6.63,23.87,23.87,0,0,0-2.16-6.25,24.7,24.7,0,0,0-3.81-5.43.86.86,0,0,1,.07-1.21.87.87,0,0,1,.68-.21c.39.05.72.11,1.08.18l1,.24c.68.18,1.35.38,2,.6a30.22,30.22,0,0,1,10.75,6.39,30.55,30.55,0,0,1,5.3,6.47,35.48,35.48,0,0,1,3.48,7.56l-1.59-.1c.07-.14.15-.35.22-.53s.13-.38.19-.58a12.18,12.18,0,0,0,.3-1.19c.14-.79.23-1.62.3-2.44a11.84,11.84,0,0,0-.61-4.87,13.12,13.12,0,0,0-2.57-4.33,19.48,19.48,0,0,0-3.94-3.36,19.23,19.23,0,0,1,4.38,2.92,13.81,13.81,0,0,1,3.21,4.32A13.51,13.51,0,0,1,143,424a9.1,9.1,0,0,1-.05,1.38c-.05.46-.14.92-.23,1.37s-.21.9-.35,1.34c-.07.22-.14.44-.22.66s-.16.43-.26.68a.87.87,0,0,1-1.14.43.85.85,0,0,1-.45-.5v0a34.13,34.13,0,0,0-3.34-7.2,29,29,0,0,0-5-6.1,28.49,28.49,0,0,0-10.14-6c-.62-.21-1.25-.4-1.89-.56-.31-.08-.63-.16-1-.22a9.09,9.09,0,0,0-.93-.16l.73-1.44a26.6,26.6,0,0,1,4.06,5.81,25.24,25.24,0,0,1,2.32,6.7,27.49,27.49,0,0,1,.46,7.07,29.76,29.76,0,0,1-.43,3.51c-.11.58-.23,1.16-.38,1.74-.07.28-.15.57-.24.86s-.17.56-.28.88a.87.87,0,0,1-1.1.51.86.86,0,0,1-.54-.6h0a21.71,21.71,0,0,0-2.34-5.86,23,23,0,0,0-3.89-5,27.22,27.22,0,0,0-5-3.89,30.47,30.47,0,0,0-2.81-1.52c-.48-.22-1-.44-1.46-.64l-.75-.28c-.25-.09-.5-.18-.72-.24l1-1.27a23.77,23.77,0,0,1,1.8,3.86,12.13,12.13,0,0,1,.5,2.06c.12.69.21,1.39.27,2.09a26.39,26.39,0,0,1,0,4.17c-.06.69-.14,1.38-.26,2.05a17.07,17.07,0,0,1-.42,2" transform="translate(12.44 53.68)"/></g><g class="cls-181"><rect class="cls-182" x="45.48" y="496.56" width="49.65" height="41.12"/></g><g class="cls-183"><path class="cls-38" d="M44.42,467.64a26.67,26.67,0,0,0-.53-4.07,27.94,27.94,0,0,0-1.06-3.81c-.22-.61-.45-1.2-.71-1.78s-.93-2.28-1-2.57a7.86,7.86,0,0,0-.36-.84c-.26-.55-.54-1.08-.84-1.6l0-.07a2.2,2.2,0,0,1,.81-3,2.23,2.23,0,0,1,1.75-.19l.26.08.23.08.43.15.84.32c.55.23,1.09.46,1.62.71a33,33,0,0,1,3.1,1.67,30.86,30.86,0,0,1,5.6,4.32,26.7,26.7,0,0,1,4.39,5.65,24.72,24.72,0,0,1,2.65,6.68l-4.21-.27.1-.3.12-.36c.07-.24.14-.49.2-.75.13-.5.24-1,.34-1.53a25.86,25.86,0,0,0,.41-3.15,25,25,0,0,0-.4-6.29,22.37,22.37,0,0,0-2-5.89,23.32,23.32,0,0,0-3.62-5.13l0,0a2.2,2.2,0,0,1,1.9-3.67l.2,0,.16,0,.29.05.56.11c.37.08.73.16,1.1.26.71.19,1.42.4,2.12.63A31.53,31.53,0,0,1,70,449.78a32.06,32.06,0,0,1,5.54,6.75,36.82,36.82,0,0,1,3.62,7.86L75,464.14l.07-.17.08-.25c.06-.16.12-.33.17-.51a9.85,9.85,0,0,0,.27-1.07c.06-.37.08-.74.13-1.11s.12-.72.19-1.09a11.24,11.24,0,0,0-.16-4.51,11.74,11.74,0,0,0-.79-2.22,14.62,14.62,0,0,0-1.26-2.12,19.1,19.1,0,0,0-1.66-1.94,23.15,23.15,0,0,0-1.94-1.76,17.77,17.77,0,0,1,2.43,1.11,15.15,15.15,0,0,1,4.35,3.41,13.24,13.24,0,0,1,1.66,2.39A14.37,14.37,0,0,1,80.25,460a7.62,7.62,0,0,1,0,1.51A10.75,10.75,0,0,1,80,463c-.11.49-.23,1-.38,1.46-.07.24-.15.48-.24.73l-.14.37-.08.19L79,466a2.19,2.19,0,0,1-4.08-.18l0-.07a32.6,32.6,0,0,0-3.18-6.92A27.59,27.59,0,0,0,67,453a27.15,27.15,0,0,0-9.66-5.72c-.59-.2-1.19-.38-1.79-.53l-.9-.21-.43-.08-.21-.05-.16,0,1.87-3.69A28.09,28.09,0,0,1,60,448.8a27.2,27.2,0,0,1,2.45,7.07,29.23,29.23,0,0,1,.47,7.41,30.58,30.58,0,0,1-.46,3.68c-.11.61-.24,1.21-.4,1.82-.07.3-.16.61-.25.91l-.14.47-.08.23-.1.27a2.2,2.2,0,0,1-4.2-.21v-.06a20.6,20.6,0,0,0-2.19-5.5,22,22,0,0,0-3.67-4.69,26.19,26.19,0,0,0-4.8-3.71,26.51,26.51,0,0,0-2.68-1.44c-.46-.21-.93-.42-1.39-.6l-.7-.27-.34-.12-.3-.1,2.52-3.25c.38.65.74,1.33,1.06,2,.16.34.3.69.45,1s.32.69.45,1.05c.06.17.12.35.17.53a4.68,4.68,0,0,1,.09.56c0,.37.09.75.12,1.12a20.89,20.89,0,0,1,.09,2.23,23.41,23.41,0,0,1-.46,4.33,18.47,18.47,0,0,1-.53,2.07,13.89,13.89,0,0,1-.72,2" transform="translate(12.44 53.68)"/><path class="cls-115" d="M44.42,467.64a25,25,0,0,0,0-4.06,28.09,28.09,0,0,0-.59-4c-.15-.65-.32-1.29-.53-1.92s-.44-1.23-.65-1.85c-.1-.31-.21-.62-.32-.93a7.06,7.06,0,0,0-.39-.89,17.7,17.7,0,0,0-.9-1.73v0a.84.84,0,0,1,.31-1.16A.85.85,0,0,1,42,451a17.27,17.27,0,0,1,1.63.59c.53.21,1,.43,1.55.67,1,.48,2,1,3,1.59A29.93,29.93,0,0,1,53.54,458a25.47,25.47,0,0,1,4.18,5.35,24.11,24.11,0,0,1,2.51,6.32l-1.63-.1c.07-.22.17-.5.24-.76l.22-.79c.13-.53.26-1.08.35-1.63a26.23,26.23,0,0,0,.4-3.31,25.44,25.44,0,0,0-.42-6.63,23.49,23.49,0,0,0-2.15-6.25,25,25,0,0,0-3.81-5.43.85.85,0,0,1,.74-1.42c.4.05.73.11,1.08.18s.69.15,1,.24c.69.17,1.36.38,2,.6a30.13,30.13,0,0,1,10.75,6.39,30.59,30.59,0,0,1,5.31,6.47,35.48,35.48,0,0,1,3.48,7.56l-1.59-.1c.06-.14.15-.35.21-.53a4.92,4.92,0,0,0,.19-.58,12.18,12.18,0,0,0,.3-1.19c.15-.8.24-1.62.31-2.44a12.18,12.18,0,0,0-.61-4.87,13,13,0,0,0-2.57-4.33,19.53,19.53,0,0,0-4-3.36,19,19,0,0,1,4.38,2.92,13.51,13.51,0,0,1,3.21,4.32A13.35,13.35,0,0,1,78.93,460a9.1,9.1,0,0,1-.05,1.38c-.06.46-.14.92-.24,1.37s-.21.89-.34,1.34c-.07.22-.14.44-.22.66s-.16.43-.27.68a.85.85,0,0,1-1.59-.08h0a33.9,33.9,0,0,0-3.34-7.2,28.75,28.75,0,0,0-5-6.1,28.43,28.43,0,0,0-10.14-6c-.62-.21-1.25-.4-1.89-.56-.32-.08-.63-.16-1-.22s-.64-.13-.92-.17l.73-1.43a26.73,26.73,0,0,1,4,5.8,25.45,25.45,0,0,1,2.33,6.71,27.89,27.89,0,0,1,.46,7.06,29.67,29.67,0,0,1-.43,3.52c-.11.58-.24,1.16-.39,1.73-.07.29-.15.58-.23.86s-.17.57-.29.89a.85.85,0,0,1-1.63-.09h0a22.38,22.38,0,0,0-2.34-5.86,23,23,0,0,0-3.89-5,27.45,27.45,0,0,0-5-3.89,29.39,29.39,0,0,0-2.82-1.52c-.48-.22-1-.44-1.46-.64l-.74-.28-.72-.25,1-1.26a25,25,0,0,1,1.8,3.85,13.56,13.56,0,0,1,.5,2.07,20.93,20.93,0,0,1,.26,2.09,24.2,24.2,0,0,1,0,4.17,20.12,20.12,0,0,1-.25,2.05,15.29,15.29,0,0,1-.43,2" transform="translate(12.44 53.68)"/></g><g class="cls-184"><rect class="cls-185" x="241.92" y="311.6" width="5.3" height="30.38"/></g><g class="cls-186"><rect class="cls-187" x="249.45" y="322.8" width="5.3" height="23.82"/></g><g class="cls-188"><rect class="cls-189" x="462.4" y="164.9" width="246.07" height="100.3" transform="translate(221.28 765.88) rotate(-73.03)"/></g></g></g></g></g></g></g></svg>