<svg xmlns="http://www.w3.org/2000/svg" xmlns:xlink="http://www.w3.org/1999/xlink" viewBox="0 0 1064.97 837.13"><defs><style>.cls-1,.cls-144{fill:none;}.cls-2{isolation:isolate;}.cls-3{opacity:0.73;}.cls-4{clip-path:url(#clip-path);}.cls-5{clip-path:url(#clip-path-3);}.cls-6{fill:#5e474e;}.cls-57,.cls-7{fill:#fff;}.cls-8{fill:#63c5b7;}.cls-9{clip-path:url(#clip-path-4);}.cls-10{fill:#251f21;}.cls-11{clip-path:url(#clip-path-5);}.cls-12{fill:url(#linear-gradient);}.cls-13{fill:#fbb040;}.cls-14{fill:#78bc48;}.cls-15{fill:#3c3c3b;}.cls-16{fill:#fcd765;}.cls-17{fill:#e6e7e8;}.cls-18{fill:#da4a46;}.cls-19{fill:#c5423f;}.cls-20{fill:#f7a56d;}.cls-21{fill:#939699;}.cls-22{fill:#bcbec0;}.cls-23{fill:#18829f;}.cls-24{fill:#bb3f3c;}.cls-25{fill:#fab280;}.cls-26{fill:#e5e6e6;}.cls-27{fill:#cf4641;}.cls-28{fill:#c5c8c9;}.cls-29{fill:#473522;}.cls-30{fill:#efa978;}.cls-31{fill:#b3b9ba;}.cls-32{fill:#f9b789;}.cls-33{clip-path:url(#clip-path-8);}.cls-34{fill:#221e1f;}.cls-35{fill:#b55f48;}.cls-36{fill:#d37252;}.cls-37{fill:#bbb;}.cls-38{fill:#ffd800;}.cls-39{fill:#171314;}.cls-40{fill:#aa4c39;}.cls-41{fill:#df2d36;}.cls-42{fill:#e2e3e3;}.cls-43{fill:#ffc14d;}.cls-44{fill:#783800;}.cls-45{fill:#393938;}.cls-46{fill:#824300;}.cls-47{fill:#1784a1;}.cls-48{fill:#7a3c00;}.cls-49{fill:#f1f2f2;}.cls-50{fill:#d0c287;}.cls-51{fill:#d9cc94;}.cls-52{fill:#d1c48e;}.cls-53{fill:#3a3a39;}.cls-54{fill:#ffd157;}.cls-55{mix-blend-mode:overlay;}.cls-56{clip-path:url(#clip-path-10);}.cls-57{font-size:190.31px;font-family:AvenirNextCondensed-Bold, Avenir Next Condensed;font-weight:700;}.cls-58{mix-blend-mode:soft-light;}.cls-59{clip-path:url(#clip-path-11);}.cls-60{fill:#140533;}.cls-61{fill:#282f42;}.cls-62{fill:#2a2a2b;}.cls-63{fill:#214080;}.cls-64{fill:#dce8ee;}.cls-65{clip-path:url(#clip-path-12);}.cls-66{fill:#223d7a;}.cls-67{fill:#d2dce3;}.cls-68{fill:#dbdbdc;}.cls-69{fill:#262d3f;}.cls-70{fill:#f2aa79;}.cls-71{fill:#2e364d;}.cls-72{fill:#e7a173;}.cls-73{fill:#2c3349;}.cls-74{fill:#323233;}.cls-75{fill:#233a74;}.cls-76{fill:#cfd1d2;}.cls-77{fill:#dbddd9;}.cls-78{fill:#3f2e19;}.cls-79{fill:#f17e2e;}.cls-80{fill:#f4ab7a;}.cls-81{fill:#3c2c17;}.cls-82{fill:#e6782e;}.cls-83{fill:#2d2d2b;}.cls-84{fill:#177b97;}.cls-85{fill:#d8d9d9;}.cls-86{fill:#40301f;}.cls-87{fill:#eab38a;}.cls-88{fill:#f3bf94;}.cls-89{fill:#363635;}.cls-90{fill:#e5e5e5;}.cls-91{fill:#a44424;}.cls-92{fill:#d7982f;}.cls-93{fill:#e0b884;}.cls-94{fill:#232322;}.cls-95{fill:#eae4de;}.cls-96{fill:#eea573;}.cls-97{fill:#27859c;}.cls-98{fill:#d74e44;}.cls-99{fill:#4c341b;}.cls-100{fill:#f9ab77;}.cls-101{fill:#282827;}.cls-102{fill:#d24d42;}.cls-103{fill:#c74440;}.cls-104{fill:#86ceee;}.cls-105{fill:#8958a1;}.cls-106{fill:#84549a;}.cls-107{fill:#f2c99e;}.cls-108{fill:#e7be94;}.cls-109{fill:#a8def8;}.cls-110{fill:#13728d;}.cls-111{fill:#7ec0de;}.cls-112{fill:#98ceec;}.cls-113{fill:#c24640;}.cls-114{fill:#ddb790;}.cls-115{fill:#d3ad88;}.cls-116{fill:#6ca943;}.cls-117{fill:#619941;}.cls-118{fill:#f1af81;}.cls-119{fill:#e8a223;}.cls-120{fill:#e3a38c;}.cls-121{fill:#cc8e7d;}.cls-122{fill:#1b5aa9;}.cls-123{fill:#70b245;}.cls-124{fill:#1555a1;}.cls-125{fill:#13758f;}.cls-126{fill:#f1f0f0;}.cls-127{fill:#c2c4c4;}.cls-128{fill:#1c0f32;}.cls-129{clip-path:url(#clip-path-14);}.cls-130{fill:#f0d6bf;}.cls-131{fill:#613528;}.cls-132{opacity:0.42;}.cls-133{clip-path:url(#clip-path-15);}.cls-134{clip-path:url(#clip-path-16);}.cls-135{fill:#63464e;}.cls-136{fill:#b47e7f;}.cls-137{fill:#97685e;}.cls-138{fill:#44848c;}.cls-139{fill:#3c2d2a;}.cls-140{opacity:0.16;}.cls-141{opacity:0.17;}.cls-142{clip-path:url(#clip-path-17);}.cls-143{clip-path:url(#clip-path-18);}.cls-144{stroke:#572e2b;stroke-linecap:round;stroke-miterlimit:10;stroke-width:0.75px;}.cls-145{fill:#f1f1ea;}.cls-146{fill:#332618;}.cls-147{clip-path:url(#clip-path-20);}.cls-148{fill:#115199;}.cls-149{fill:#f8be84;}.cls-150{fill:#eac254;}.cls-151{fill:#104d90;}.cls-152{fill:#39385e;}.cls-153{fill:#302417;}.cls-154{fill:#e8b68c;}.cls-155{fill:#efcc60;}.cls-156{fill:#deb94f;}</style><clipPath id="clip-path"><rect class="cls-1" width="1064.97" height="837.13"/></clipPath><clipPath id="clip-path-3"><rect class="cls-1" x="309.97" y="234.94" width="437.82" height="248.07"/></clipPath><clipPath id="clip-path-4"><rect class="cls-1" x="223.94" y="120.16" width="523.85" height="362.86"/></clipPath><clipPath id="clip-path-5"><polygon class="cls-1" points="351.11 148.51 223.94 311.77 430.16 286 555.62 120.16 351.11 148.51"/></clipPath><linearGradient id="linear-gradient" x1="-3145.21" y1="70.83" x2="-3143.78" y2="70.83" gradientTransform="translate(-9086.54 -420484.59) rotate(-90) scale(133.79)" gradientUnits="userSpaceOnUse"><stop offset="0" stop-color="#4f4f51"/><stop offset="1" stop-color="#231f20"/></linearGradient><clipPath id="clip-path-8"><rect class="cls-1" x="229.41" y="367.77" width="62.1" height="59.45"/></clipPath><clipPath id="clip-path-10"><rect class="cls-1" x="59.44" y="460.59" width="889.29" height="210.1"/></clipPath><clipPath id="clip-path-11"><rect class="cls-1" x="28.31" y="621.99" width="1004.71" height="45.17"/></clipPath><clipPath id="clip-path-12"><path class="cls-1" d="M940.53,637.53a4.1,4.1,0,0,0,.31.68,3.63,3.63,0,0,1-.3-.68h0m.15-.56a2.67,2.67,0,0,1-.12.51l1.26.49a44,44,0,0,1,6.42-2,10.41,10.41,0,0,1,.37-1.56,70.15,70.15,0,0,0-7.93,2.51"/></clipPath><clipPath id="clip-path-14"><rect class="cls-1" x="160.99" y="514.24" width="68.39" height="75.83" transform="translate(-385.05 631.53) rotate(-78.32)"/></clipPath><clipPath id="clip-path-15"><rect class="cls-1" x="182.22" y="545.3" width="6.03" height="2.81"/></clipPath><clipPath id="clip-path-16"><rect class="cls-1" x="184.41" y="543.8" width="1.67" height="5.81" transform="translate(-387.65 617.4) rotate(-78.32)"/></clipPath><clipPath id="clip-path-17"><rect class="cls-1" x="165.09" y="538.36" width="4.53" height="5.43"/></clipPath><clipPath id="clip-path-18"><rect class="cls-1" x="165.09" y="539.23" width="4.53" height="3.69" transform="translate(-396.37 595.63) rotate(-78.34)"/></clipPath><clipPath id="clip-path-20"><path class="cls-1" d="M629,507.42h0m0,0h0m0,0,0,0,0,0m0,0Zm0,0Zm0,0h0Zm0,0h0Zm0,0h0m0,0h0m0,0h0Zm0,0h0m0,0Zm0,0h0m0,0h0m0,0Zm0,0Zm-23-19.12c1.25,2.88,2.62,6.49,4,10.33,4.67,2.19,8.68,3.79,10.65,4.63,3.87,1.65,7.7,2.21,8.54,3.17a40.89,40.89,0,0,0,4.93,1c1.58.11-5.68.34-8.49,2.73a30.66,30.66,0,0,1,3.28-2.59c-1.49,1.35-5.92,2.42-11.57,17.36-.2.54-.41,1.08-.63,1.61,0,2.49.15,7,.29,12.32l24.76-29.46a8.88,8.88,0,0,0,2-5.94,8.69,8.69,0,0,0-1.19-4.77c-3.3-4.43-9.85-8.51-16.48-12.16h0l0-.05c-8.13-4.47-16.36-8.31-18.88-11.43v0l-1.31-.55c-1.46,1.77-3.21,5.83.25,13.76"/></clipPath></defs><title>community-hero-1</title><g class="cls-2"><g id="Twitter"><g id="Artwork_75" data-name="Artwork 75"><g class="cls-4"><g class="cls-4"><g class="cls-5"><path class="cls-6" d="M527.81,234.94C645.55,234.94,741,331.51,741,450.62S645.55,666.3,527.81,666.3,314.62,569.74,314.62,450.62s95.45-215.68,213.19-215.68"/><path class="cls-7" d="M460.77,641.87c8.68,3,38,12.5,39.27,3.19.67-5.09-14.71-10.34-35.71-21.43A335.49,335.49,0,0,1,383.48,564,185.39,185.39,0,0,1,328,435c-1.78-65.25,23.86-118,65.71-152a215,215,0,0,0-83.63,165c-1.24,47.27,11.95,87,36.75,123.2a139.67,139.67,0,0,0,26.77,26.33c23.73,18,58.46,34.6,87.2,44.39"/><path class="cls-7" d="M744.94,401C731.71,338.8,690.7,295.27,635.67,264.52c42,29.94,101.18,93.55,66.31,149.69-29.58,45-101.46,36.17-140.75,14.86-46.59-25.4-105.17-82.43-47.5-138.17,37.35-36.07,156.34,4.34,135.32,58.29-12.21,31.35-59.7,24.39-81.09,9.05-15.75-11.32-29-30.76-22-50.85,2.17-6.51,1.93-16.42-7.16-9.07-6.76,5.49-10.19,14.54-11.39,22.93C517.48,391.56,642.63,446,679.88,378c19.28-35.3-12-86.52-51.31-107.56-29.63-15.84-60.35-27-98.05-24.25-60.29,4.33-110.9,42-117.15,103.63C407.08,411,448,466.19,496.18,499.14,546.81,533.85,615,556.61,677.32,536c55.86-18.53,78.94-82.65,67.71-135"/><path class="cls-8" d="M665.3,353.56c6-40.28-30.37-67.94-64.06-80.5-39.66-14.84-92-8.33-120.92,24.51-21.19,24.13-19.74,59.16-8.87,87.45,16.47,42.82,53.67,73.76,96.95,87.12,30.76,9.48,67.94,13.63,99.14,3.6,45.45-14.62,60.24-62,50.85-105.47a125.72,125.72,0,0,0-9.2-27.21c-5.75-12-23.34-36.44.91-6.72a110.2,110.2,0,0,1,7,10.37,116.11,116.11,0,0,1,11.8,26.21c13.21,40.54,2.84,87.86-33.86,112.3-28.21,18.75-63.85,21-96.45,16.3-43.74-6.25-85-27.56-113.53-61.44-26.16-31-44-75.45-33.23-116.19,7.85-29.76,32-52,60.94-61.33,36.59-11.84,76.88-6.36,109.85,12.89,16.51,9.63,31.61,22.93,40,40.37a59.77,59.77,0,0,1,6,25.18,52.92,52.92,0,0,1-.83,10.59c-.24,1.26-2.9,4.84-2.54,1.89"/></g><g class="cls-9"><path class="cls-10" d="M449.44,330.29c12.33-55.62,76.78-95.53,76.78-95.53l-44.58-51-72,61.54L306.92,273.13l18.21,69.49s83.7-30.85,124.31-12.33"/></g><g class="cls-11"><rect class="cls-12" x="223.94" y="120.16" width="331.68" height="191.62"/></g><g class="cls-9"><path class="cls-13" d="M321,324.42a19.52,19.52,0,0,1,2.81-6.61l-1.56-16,57.64-79.14s-.65-6,2.88-9.54,6.91-5.3,15.43-4c4.17,1.44,4.86,6.2,4.23,8.17.28,6-11,10.12-11,10.12l-56.64,77.76,1,9.77s6.54.21,9.06,5.68,2.63,13,.84,16,12.09,29.64,12.09,29.64S370,398.41,361.49,414c-3.28,6-12,23.83-24.07,28.38-6.9,2.61-18.62-9.91-21.33-15.35-7.47-14.92,8.82,2.95,11.24-28,1.33-16.92-5.15-24.27-6.31-33.84s0-22.49,0-22.49-.73-14.61,0-18.29"/></g><polygon class="cls-14" points="794.33 474.54 787.46 481.53 797.51 484.62 803.48 477.56 794.33 474.54"/><g class="cls-4"><path class="cls-15" d="M791.89,479.07c-.87-.13-4.68-4.45-4.68-4.45a3.76,3.76,0,0,0-2.16,3.41v2l-10.93,4a2.58,2.58,0,0,0,.25,4.93,32.39,32.39,0,0,0,9,1l17.63-.53a3.33,3.33,0,0,0,3.19-3.86l-.53-3.38a2,2,0,0,0-2.49-1.66c-1.58.39-3.52.87-4,.94-.76.13-5.36-2.43-5.36-2.43"/><path class="cls-16" d="M774.37,489a2.59,2.59,0,0,1-1.91-2.93,3.28,3.28,0,0,1,.23-.71,15.16,15.16,0,0,0,10.78,2.7l20.71-2.74.05.3a3.34,3.34,0,0,1-3.19,3.86l-17.63.53a32.39,32.39,0,0,1-9-1"/><path class="cls-17" d="M784.34,480.15l2.41,2.43a.38.38,0,0,0,.54-.54l-2.41-2.43a.38.38,0,0,0-.54.54"/><path class="cls-17" d="M782.08,480.88l2.19,2.21a.38.38,0,0,0,.54,0,.39.39,0,0,0,0-.54l-2.2-2.21a.39.39,0,0,0-.54,0,.38.38,0,0,0,0,.54"/><path class="cls-17" d="M780,481.82l1.86,1.87a.38.38,0,0,0,.54-.54l-1.86-1.87a.38.38,0,1,0-.54.54"/><path class="cls-17" d="M778,482.45l1.47,1.48a.38.38,0,1,0,.54-.53l-1.47-1.49a.4.4,0,0,0-.54,0,.38.38,0,0,0,0,.54"/><path class="cls-14" d="M769.73,476.23c-6.49-2.06-10.19-8.7-10.19-8.7l-.74,14.34s-.67,6.48,4.69,4.1S785,484.42,785,484.42s1.59-6.39,0-7.4-4.71-.82-7.83-.58c-2.71.21-5.47.42-7.45-.21"/><path class="cls-15" d="M763.43,475.48c0-.88,3.69-5.3,3.69-5.3a3.75,3.75,0,0,0-3.69-1.63l-2,.3-5.63-10.18a2.58,2.58,0,0,0-4.83,1,32.22,32.22,0,0,0,.36,9.09l3.2,17.35a3.33,3.33,0,0,0,4.29,2.58l3.26-1a2,2,0,0,0,1.26-2.72c-.62-1.5-1.39-3.34-1.52-3.76-.24-.74,1.59-5.67,1.59-5.67"/><path class="cls-16" d="M751,459.65a2.57,2.57,0,0,1,3.34-2.2,15.15,15.15,0,0,0-1,11.06l5.84,20.06-.29.1a3.34,3.34,0,0,1-4.3-2.58l-3.19-17.35a32.22,32.22,0,0,1-.36-9.09"/><path class="cls-17" d="M761.22,468.18l-2,2.75a.38.38,0,0,0,.08.53.39.39,0,0,0,.54-.07l2-2.76a.38.38,0,0,0-.08-.53.38.38,0,0,0-.54.08"/><path class="cls-17" d="M760.16,466.05l-1.86,2.51a.39.39,0,0,0,.08.53.38.38,0,0,0,.54-.08l1.85-2.5a.38.38,0,0,0-.08-.54.39.39,0,0,0-.53.08"/><path class="cls-17" d="M758.91,464.1l-1.56,2.12a.38.38,0,1,0,.61.45l1.57-2.12a.38.38,0,0,0-.08-.53.38.38,0,0,0-.54.08"/><path class="cls-17" d="M758,462.22l-1.24,1.68a.38.38,0,0,0,.08.53.37.37,0,0,0,.53-.08l1.25-1.68a.38.38,0,0,0-.08-.53.38.38,0,0,0-.54.08"/><path class="cls-18" d="M862.68,462.59c-22.18-20-37.15-34.08-45.59-23.81-11.14,12.2-8.66,12.56-23.28,36.46l6.76,7.6,24.34-25.91,23.65,22.44,31.69-.76,2.64-14.81s-9.88,8.09-20.21-1.21"/><path class="cls-19" d="M796,471.6c12.19-20.33,10.53-21.27,21.07-32.82a8.59,8.59,0,0,1,6.9-3.44c8.84,0,21.63,11.89,38.69,27.25l-4.76,5.35c-3.45.53-8.53.9-14.09,1.16-7.88-4-14.73-9.77-17.66-17.84-5.62,6.16-12.95,13.48-18.78,19.17-3.27.32-7.24.72-11.37,1.17m86-2.86-6-1.92a16.69,16.69,0,0,0,6.91-3l-.88,4.94"/><path class="cls-20" d="M803.32,432.51l4.8-1.79,2.29-1.57-.39-1.4a.7.7,0,0,1,1.13-.32l4.06,3.62,3,4.37,23,.59,7.72-12.58,6.86.76S851,442,846.87,445.38c-2.66,1.62-22.34-3-29.55-4.74-4.06-1-3.94,1.93-9.2-2.15-.92-.71-1.34-2-2.3-3.14-1.39-1.69-2.5-2.84-2.5-2.84"/><path class="cls-21" d="M822.4,434.56l18.48.79,8.79-18.87,10.91,7.36s-8.31,19.33-12.4,22.73c-2.66,1.63-17.44-1.51-24.65-3.27-3.32-.8-2.41-6.17-2-8.09a.84.84,0,0,1,.85-.65"/><path class="cls-15" d="M806.44,424.06l9.39,10.64a.65.65,0,0,1-.05.93l-3.22,2.84-10.27-11.63,3.22-2.84a.66.66,0,0,1,.93.06"/><path class="cls-7" d="M806.09,425a.47.47,0,0,1,.66,0l8.18,9.26a.47.47,0,0,1,0,.66l-2.1,1.85a.46.46,0,0,1-.65,0L804,427.48a.47.47,0,0,1,0-.66Z"/><path class="cls-22" d="M802.29,426.84a.41.41,0,0,1,.58,0l9.73,11a.41.41,0,0,1,0,.58l-.49.43a.41.41,0,0,1-.58,0l-9.72-11a.41.41,0,0,1,0-.58Z"/><path class="cls-7" d="M803.18,427.92l.85,1a.28.28,0,1,1-.42.37l-.85-1a.29.29,0,0,1,0-.4.28.28,0,0,1,.4,0"/><path class="cls-7" d="M805.34,430.36l2,2.29a.27.27,0,0,1,0,.4.28.28,0,0,1-.4,0l-2-2.29a.28.28,0,0,1,.43-.37"/><path class="cls-20" d="M808.5,432h0a1.05,1.05,0,0,0-1.08-1l-3.49.1a1.06,1.06,0,0,0,.06,2.11l3.49-.11a1,1,0,0,0,1-1.08"/><path class="cls-20" d="M809.83,433.75h0a1.05,1.05,0,0,0-1.08-1l-3.49.1a1.05,1.05,0,0,0,.06,2.1l3.49-.1a1.05,1.05,0,0,0,1-1.08"/><path class="cls-20" d="M811.06,435.14h0a1,1,0,0,0-1.24-.82l-3.42.69a1.05,1.05,0,0,0,.42,2.06l3.42-.69a1,1,0,0,0,.82-1.24"/><path class="cls-20" d="M811.81,436.42h0a.87.87,0,0,0-1.11-.54l-2.72.94a.87.87,0,1,0,.56,1.64l2.73-.93a.89.89,0,0,0,.54-1.11"/><path class="cls-23" d="M812.7,469.92l12.21-13,5.06,4.8-5.06-4.8-12.18,13h0"/><path class="cls-24" d="M807.39,470.43c5.83-5.7,13.16-13,18.78-19.18,2.92,8.08,9.78,13.81,17.66,17.85-1.91.09-3.88.17-5.85.23l-13.07-12.4-12.21,13-5.31.51"/><path class="cls-17" d="M846.21,415.16v10.71a.38.38,0,0,0,.76,0V415.16a.38.38,0,0,0-.76,0"/><path class="cls-17" d="M846.23,415s-2.37,7.12-2.38,12.42a14,14,0,0,0,.12,1.87.38.38,0,0,0,.43.32.38.38,0,0,0,.33-.43,12.17,12.17,0,0,1-.12-1.76,37,37,0,0,1,1.17-8c.3-1.2.59-2.25.81-3l.26-.87c.06-.2.1-.31.1-.31a.38.38,0,1,0-.72-.24"/><path class="cls-25" d="M859.44,405.8,854.85,397,856,384.28l-11.27-8.47L830,386.18l2.05,5.94,1.18,7.41a1.77,1.77,0,0,0,1.58,1.65l.91.1,2.64,4.73a4,4,0,0,0,5.6,1.51l0,0,.78-.53,4,6.87Z"/><path class="cls-18" d="M886.4,470.14v7.94c0,6.08-3.65,11-10.59,11.9-3.27.43-11.72-.22-22.13-.87-11.74-.74-26-1.47-38.08-.65-22.83,1.55-43.94-1.82-45.39-3.62s-2.9-7-.15-9.2,45.36-6,45.36-6c9.88,0,32.74-.24,42.5-1.74l4.76-5.35,23.72,7.55"/><path class="cls-23" d="M854.32,489.15h0l-.64,0-.52,0,.52,0,.64,0"/><path class="cls-26" d="M872.85,490.11c-4.1,0-10.74-.47-18.53-1,7.79.49,14.43,1,18.53,1m.31,0h0m.45,0,1.06,0-1.06,0"/><path class="cls-23" d="M853.06,489.07h0m-.23,0h0m-.26,0h0m-48.92-.18h0m0,0c3.71,0,7.56-.11,11.47-.37-3.91.26-7.76.37-11.47.37m11.75-.38h0m.39,0,.4,0-.4,0m.45,0c3.59-.23,7.37-.32,11.2-.32-3.83,0-7.61.09-11.2.32m11.22-.32h0m-57.2-3.2,0-.06,0,.06"/><path class="cls-27" d="M872.85,490.11c-4.1,0-10.74-.47-18.53-1l-.64,0-.52,0h-.63c-7.79-.48-16.58-.94-25.07-.94h0c-3.83,0-7.61.09-11.2.32h0l-.4,0h-.39l-.28,0c-3.91.26-7.76.37-11.47.37h0c-17.57,0-31.9-2.48-33.38-4l0-.06c-.52-.64,3.86-.94,10.16-.94,11.36,0,28.94,1,35.23,2.69a25.11,25.11,0,0,0,6.44.66c3.84,0,8.43-.42,13.34-.84s10.12-.84,15.22-.84a53.29,53.29,0,0,1,14.57,1.7,27.25,27.25,0,0,0,7.47,1.17c4.84,0,9.07-1.78,13-5.88-1.39,3.89-4.72,6.74-9.84,7.41a11.26,11.26,0,0,1-1.14.1l-1.06,0h-.76"/><path class="cls-28" d="M855.47,400.6c10.89.69,29.25,12.06,32.84,35.54s1.58,42.78-4.57,43.87-28.46-3.73-27.3-16.11,6.26-18.95-5-32.2c-3-3.52-5-7.82-4.82-12.44.52-11.09,6.4-18.88,8.86-18.66"/><path class="cls-29" d="M857.15,399.51s-5.84-3.36-6-4c-.1-.3-.71-2.05-1.3-3.73a3.72,3.72,0,0,0-4.56-2.34l1,4.41-1.93.68-2.63-7.45a2.18,2.18,0,0,0-3.07-1.2l-7.31,3.9-1.23-.47a7.09,7.09,0,0,1-2.92-11.1l4.59-5.59,1.63,2.82,3.49-2.33a13.51,13.51,0,0,1,12-1.5l1.2.42a13.53,13.53,0,0,1,8.8,15.31,90.41,90.41,0,0,0-1.5,10.06Z"/><path class="cls-30" d="M848.68,402.53a13.49,13.49,0,0,1-1.29,8.88L844.81,407Z"/><path class="cls-31" d="M846.76,417.29s4.86-13.38,23.82-8.23c1.55.42,3.87.6,5.14-.12,1.38-.09.65-6.63-3.81-6.63-2,0,1-2.1-2.41-4-4-2.23-10.59-2.1-15.26,1.72s-11.34,15.8-7.48,17.29"/><path class="cls-32" d="M820.07,439.61l-.5-5.47-4.35-4.28-4.72-1.16a2.67,2.67,0,0,0,1.61,2.49l2,.84-2.86.64-.94,1.87.66,3.55s3,6.39,13.11,9.08,10.27-4.51,10.27-4.51Z"/><path class="cls-31" d="M861.85,409.09c-5.59-1.46-10.47,3.38-11.74,9.14-.76,3.44-.86,23.28-.86,23.28l-26.16-1.25s-1.1,7.14.07,7.51c4.47,1.41,34.6,10.29,37.82,6.27,2.74-3.44,5.14-16.56,7.36-24.77,3.59-13.22-1.72-18.92-6.49-20.18"/></g><g class="cls-33"><path class="cls-34" d="M250.46,372.83c-.46.32-1.43-.07-1.93.28s-.56,1.51-1.13,1.9c-4.4,3-7.81,6.67-9.37,11.13-.69,2-.08,3.83-.29,6.22-.12,1.44-1.53,2.38-1.52,3.6,0,.3.46.67.47,1s-.41.66-.39,1c0,.65,1.71,2.21,1.79,2.79.72,4.94,1.1,6.67,2.82,8.78a35.73,35.73,0,0,0,6.25,5.63s4.68,3.94,15.23,4.42,17.11-2.29,17.11-2.29,5.9-3.23,7.86-9.14,3.68-15.52,1.83-21.56-10.85-14.9-12.64-15.72a15.86,15.86,0,0,0-11.24-1.56c-1.7.32-4.69,2.88-6,3.21-1.52.37-5.7-1.24-6.85-.82-1.58.57-.87.38-2,1.16"/><path class="cls-34" d="M252.5,409.31a2.18,2.18,0,0,1-1.57,2.55c-2,.79-1.65.24-1.92,1s-.22,1.22-.91.86-.93-.3-.86.58.43,1.76-.47,1.45-1.46-.84-1.19.06-.56.44-.43-.07,1-1.37,1.51-.65,0-1.66.35-1.81,1.24.38,1.42,0-.24-1.28.77-1.63a4.41,4.41,0,0,0,2.13-1.12c.43-.53,1.17-1.24,1.17-1.24"/><path class="cls-34" d="M245.46,405.16a2.2,2.2,0,0,1,.65,2.93c-.91,2-1,1.32-.67,2.07s.7,1-.06,1.26-.87.42-.21,1,1.54,1,.68,1.37-1.64.41-.81.87-.11.71-.36.25-.24-1.68.63-1.52-1.18-1.18-1-1.54,1.15-.59,1-1-1.07-.76-.58-1.71a4.51,4.51,0,0,0,.76-2.29c-.06-.68,0-1.71,0-1.71"/><path class="cls-34" d="M256.69,412.35a2.19,2.19,0,0,0-2.88.84c-1.31,1.75-.67,1.52-1.51,1.58s-1.23-.12-1.06.65,0,1-.79.67-1.59-.88-1.52.06.42,1.63-.38,1.13-.58.43-.05.44,1.59-.6,1-1.28,1.6.46,1.84.14,0-1.29.38-1.36,1.18.57,1.78-.31,1-1.49,1.64-1.76,1.52-.8,1.52-.8"/><path class="cls-34" d="M257.75,411.19a2.19,2.19,0,0,1-.53,2.95c-1.59,1.49-1.44.84-1.4,1.67s.24,1.21-.54,1.13-1,.06-.59.86,1.05,1.48.1,1.51-1.66-.24-1.08.5-.37.62-.43.09.43-1.64,1.17-1.16-.63-1.54-.34-1.81,1.29-.11,1.31-.53-.69-1.1.12-1.8a4.54,4.54,0,0,0,1.58-1.82,16.63,16.63,0,0,1,.63-1.59"/><path class="cls-34" d="M249.67,409.92a2.2,2.2,0,0,1,1.68,2.48c-.11,2.18-.46,1.61.15,2.18s1,.71.4,1.19-.65.71.17,1,1.79.34,1.13,1-1.36,1-.43,1.11.17.7-.24.36-.83-1.47,0-1.64-1.53-.67-1.51-1.06.86-1,.58-1.3-1.27-.31-1.17-1.37a4.58,4.58,0,0,0-.13-2.41c-.31-.61-.66-1.58-.66-1.58"/><path class="cls-34" d="M262.75,412.49a2.17,2.17,0,0,0-2.36,1.83c-.58,2.1-.07,1.67-.82,2s-1.19.35-.75,1,.39.89-.49.92-1.8-.24-1.39.61,1,1.36.06,1.19-.38.61.11.42,1.26-1.14.49-1.57,1.66-.15,1.77-.54-.51-1.19-.15-1.41,1.3.1,1.54-.94a4.55,4.55,0,0,1,.88-2.24,16.91,16.91,0,0,0,1.11-1.29"/><path class="cls-34" d="M264.64,412.33a2.19,2.19,0,0,1-.53,2.95c-1.6,1.49-1.44.84-1.4,1.66s.24,1.22-.54,1.14-1,.06-.59.86,1.05,1.48.1,1.51-1.66-.24-1.08.5-.37.62-.43.09.43-1.64,1.17-1.16-.63-1.54-.34-1.81,1.29-.11,1.31-.53-.69-1.1.12-1.8a4.54,4.54,0,0,0,1.58-1.82,16.63,16.63,0,0,1,.63-1.59"/><path class="cls-34" d="M256.56,411.06a2.19,2.19,0,0,1,1.68,2.48c-.11,2.18-.46,1.61.15,2.18s1,.71.4,1.19-.66.71.17,1,1.79.34,1.13,1-1.36,1-.43,1.11.17.7-.24.36-.83-1.47,0-1.64-1.53-.67-1.51-1.06.86-1,.58-1.3-1.27-.31-1.17-1.37a4.46,4.46,0,0,0-.14-2.41c-.3-.61-.65-1.58-.65-1.58"/><path class="cls-34" d="M269.64,413.62a2.18,2.18,0,0,0-2.36,1.84c-.58,2.1-.07,1.67-.82,2s-1.2.35-.76,1,.4.89-.48.92-1.8-.24-1.39.61,1,1.36.06,1.19-.38.61.11.42,1.26-1.14.49-1.57,1.66-.15,1.77-.54-.51-1.19-.15-1.41,1.3.1,1.54-.94a4.55,4.55,0,0,1,.88-2.24c.48-.49,1.11-1.3,1.11-1.3"/><path class="cls-34" d="M271.18,412.87a2.19,2.19,0,0,1-.53,2.95c-1.59,1.49-1.44.83-1.4,1.66s.24,1.22-.54,1.14-1,.06-.59.85,1.05,1.49.1,1.52-1.66-.24-1.08.5-.36.61-.42.09.42-1.64,1.16-1.16-.63-1.54-.34-1.81,1.29-.11,1.31-.53-.69-1.11.12-1.8a4.54,4.54,0,0,0,1.58-1.82,16.63,16.63,0,0,1,.63-1.59"/><path class="cls-34" d="M263.1,411.6a2.19,2.19,0,0,1,1.68,2.48c-.11,2.18-.46,1.61.15,2.18s1,.7.4,1.19-.65.71.18,1,1.78.33,1.12,1-1.36,1-.43,1.11.17.7-.24.36-.83-1.47,0-1.64-1.53-.67-1.51-1.06.86-1,.58-1.3-1.27-.31-1.17-1.37a4.58,4.58,0,0,0-.13-2.41c-.31-.61-.66-1.58-.66-1.58"/><path class="cls-34" d="M276.19,414.16a2.19,2.19,0,0,0-2.37,1.84c-.58,2.1-.07,1.66-.82,2s-1.19.35-.75,1,.39.88-.49.92-1.8-.24-1.39.61,1,1.36.06,1.19-.38.61.12.42,1.25-1.14.48-1.57,1.66-.15,1.77-.54-.51-1.19-.15-1.41,1.3.1,1.54-.94a4.55,4.55,0,0,1,.88-2.24c.49-.49,1.12-1.3,1.12-1.3"/><path class="cls-34" d="M273.8,411.9a2.18,2.18,0,0,1,1.95,2.27c.14,2.17-.27,1.64.4,2.14s1.1.58.54,1.13-.57.79.3,1,1.81.12,1.24.88-1.25,1.13-.3,1.15.24.67-.2.39-1-1.37-.17-1.64-1.59-.48-1.62-.88.74-1.06.43-1.35-1.3-.16-1.33-1.23a4.51,4.51,0,0,0-.41-2.37,16.17,16.17,0,0,1-.83-1.49"/><path class="cls-34" d="M267.71,417.35a2.19,2.19,0,0,1,3,.27c1.62,1.47,1,1.37,1.78,1.26s1.2-.34,1.18.44.14,1,.9.51,1.39-1.17,1.5-.23-.1,1.68.59,1,.65.31.13.41-1.67-.28-1.26-1.05-1.48.76-1.77.49-.21-1.28-.64-1.27-1,.79-1.8,0a4.43,4.43,0,0,0-1.95-1.41c-.67-.15-1.64-.5-1.64-.5"/><path class="cls-34" d="M278,408.83a2.2,2.2,0,0,0-.07,3c1.27,1.77,1.25,1.1,1.05,1.91s-.49,1.14.3,1.21.93.26.4,1-1.33,1.25-.4,1.47,1.68.09,1,.7.23.68.4.18-.1-1.7-.91-1.37.93-1.39.7-1.71-1.25-.36-1.19-.78.9-.94.24-1.79a4.53,4.53,0,0,1-1.18-2.1c-.07-.68-.3-1.68-.3-1.68"/><path class="cls-34" d="M243.58,381a2.18,2.18,0,0,1-1.56,2.55c-2,.79-1.66.24-1.93,1s-.22,1.22-.91.85-.92-.29-.86.59.43,1.76-.46,1.45-1.46-.84-1.19.06-.57.44-.43-.07,1-1.37,1.5-.65,0-1.67.35-1.81,1.24.37,1.42,0-.24-1.28.77-1.63a4.5,4.5,0,0,0,2.14-1.12c.43-.53,1.16-1.24,1.16-1.24"/><path class="cls-34" d="M246.28,404.4a2.18,2.18,0,0,1-1.57,2.54c-2,.8-1.66.25-1.92,1s-.23,1.22-.92.85-.92-.3-.86.59.43,1.76-.46,1.44-1.46-.84-1.19.07-.57.44-.43-.07,1-1.37,1.5-.66,0-1.66.35-1.81,1.24.38,1.42,0-.24-1.29.77-1.64a4.45,4.45,0,0,0,2.14-1.11c.43-.53,1.17-1.24,1.17-1.24"/><path class="cls-34" d="M238.39,395.21a2.18,2.18,0,0,0-1.26,2.71c.45,2.14.7,1.51.19,2.17s-.9.86-.21,1.24.76.6,0,1-1.71.61-1,1.18,1.51.76.61,1-.06.71.29.32.59-1.59-.28-1.62,1.4-.9,1.32-1.29-1-.82-.78-1.18,1.2-.51.94-1.54a4.42,4.42,0,0,1-.24-2.4c.2-.65.39-1.66.39-1.66"/><path class="cls-34" d="M248.33,385.75s.14-1.75-2-1.4-2.17.62-2.81.08-.81-.94-1.22-.27-.64.73-1-.06-.52-1.74-1.13-1-.83,1.47-1.06.55-.71-.09-.33.28,1.55.67,1.63-.2.82,1.44,1.22,1.38.87-.95,1.22-.71.45,1.22,1.49,1a4.53,4.53,0,0,1,2.41-.12c.64.24,1.64.48,1.64.48"/><path class="cls-34" d="M260.37,377.24s-2.4-2.65-3.27-2.35.17-1.36-.32-1.84-1.42-1.07-1.86-.58-.89,1.16-1.45.67-1.29-1-1.66-.68-.89-.71-1.39-.44c-1,.5-1.31,1.46-.18,1.31.79-.11-.4-1.28.36-.87s1.32.07,1.84.51,1.8,1.28,2.32.79,1.83-.78,1.74-.1-.56,1.38.67,1.87,1.68,1.64,2.35,1.93.85-.22.85-.22"/><path class="cls-34" d="M253.66,382.53s-3.11-1.78-3-2.69-1.28.46-1.86.08-1.35-1.16-1-1.69,1-1.12.34-1.56-1.23-1.05-1-1.48-.88-.72-.73-1.26,1.18-1.26,1.24-.46-1.33-.11-.77.54.36,1.27.89,1.69,1.65,1.48,1.28,2.09-.37,2,.28,1.73,1.22-.85,2,.25,2,1.28,2.4,1.88,0,.88,0,.88"/><path class="cls-34" d="M247.74,389.2s-3.11-1.78-3-2.69-1.29.46-1.86.08-1.36-1.16-1-1.69.95-1.12.35-1.56-1.24-1-1-1.47-.87-.72-.73-1.27,1.18-1.26,1.25-.46-1.33-.11-.78.55.36,1.26.9,1.68,1.64,1.48,1.27,2.1-.37,1.95.28,1.72,1.22-.85,2,.25,2,1.28,2.39,1.89,0,.87,0,.87"/><path class="cls-34" d="M254.08,379.48a2.18,2.18,0,0,1-2.92-.67c-1.4-1.67-.76-1.48-1.59-1.48s-1.23.18-1.1-.6,0-1-.83-.62-1.54,1-1.52,0,.32-1.65-.45-1.1-.59-.4-.07-.43,1.62.5,1.11,1.21,1.56-.55,1.82-.25,0,1.3.46,1.34,1.14-.63,1.79.21,1.1,1.43,1.75,1.66,1.55.71,1.55.71"/><path class="cls-34" d="M250.7,383a2.19,2.19,0,0,0-1.62-2.52c-2.05-.75-1.66-.21-1.94-1s-.25-1.22-.94-.83-.91.31-.87-.57.4-1.78-.49-1.44-1.44.87-1.19,0-.58-.43-.43.08,1,1.35,1.52.62,0,1.66.38,1.8,1.24-.4,1.42,0-.21,1.29.81,1.62a4.54,4.54,0,0,1,2.15,1.07c.44.52,1.2,1.22,1.2,1.22"/><path class="cls-34" d="M286.28,395a2.18,2.18,0,0,0,.35,3c1.52,1.58,1.4.92,1.31,1.74s-.31,1.21.48,1.16,1,.12.53.9-1.13,1.42-.19,1.51,1.68-.15,1.05.56.33.63.42.11-.33-1.66-1.09-1.22.72-1.51.45-1.79-1.29-.18-1.29-.61.76-1.06,0-1.8a4.54,4.54,0,0,1-1.47-1.91c-.17-.67-.54-1.62-.54-1.62"/><path class="cls-34" d="M284.77,400.05a2.18,2.18,0,0,0,.35,3c1.51,1.58,1.4.92,1.31,1.75s-.32,1.2.47,1.16,1,.12.53.89-1.13,1.42-.19,1.51,1.68-.15,1.06.56.33.64.42.12-.34-1.67-1.1-1.23.72-1.5.45-1.79-1.28-.18-1.28-.6.75-1.07,0-1.81a4.37,4.37,0,0,1-1.46-1.91c-.17-.66-.54-1.62-.54-1.62"/><path class="cls-34" d="M250,383.84s-3.38-.46-3.6-1.27-.12-1.51-1.1-1.69-1.47.22-1.79-.52-.81-1.89-1.53-1.72-1.36-.07-1-.18,1.53-.55,2,.17.77,1.72,1.49,1.77a2.55,2.55,0,0,1,2.22.76,10.55,10.55,0,0,0,3.1,1.95c.67.29.24.73.24.73"/><path class="cls-34" d="M239.23,400.25a2.18,2.18,0,0,1,.65,2.92c-.91,2-1,1.33-.66,2.08s.69,1-.07,1.25-.86.43-.21,1,1.54,1,.68,1.36-1.63.41-.81.88-.1.71-.36.24-.23-1.67.63-1.51-1.17-1.19-1-1.55,1.15-.59,1-1-1.06-.75-.58-1.71a4.42,4.42,0,0,0,.76-2.28c-.06-.68,0-1.71,0-1.71"/><path class="cls-34" d="M287.14,401.9a2.19,2.19,0,0,1,.65,2.92c-.91,2-1,1.33-.67,2.08s.69,1-.06,1.25-.87.43-.21,1,1.54,1,.67,1.36-1.63.41-.8.88-.11.71-.36.25-.24-1.68.63-1.52-1.18-1.18-1-1.54,1.16-.6,1-1-1.07-.75-.58-1.7a4.45,4.45,0,0,0,.75-2.29,17.07,17.07,0,0,1,0-1.71"/><path class="cls-34" d="M288.54,396.34a2.2,2.2,0,0,1,.65,2.93c-.91,2-1,1.32-.67,2.07s.7,1-.06,1.26-.87.42-.21,1,1.54,1,.68,1.37-1.64.41-.81.87-.11.71-.36.25-.24-1.68.63-1.52-1.18-1.18-1-1.54,1.16-.59,1-1-1.07-.75-.58-1.7a4.54,4.54,0,0,0,.76-2.29,15.31,15.31,0,0,1,0-1.71"/><path class="cls-34" d="M250.46,407.44a2.19,2.19,0,0,0-2.88.83c-1.3,1.75-.67,1.53-1.5,1.58s-1.24-.11-1.07.66.05,1-.79.67-1.59-.89-1.52.06.42,1.63-.38,1.13-.57.43,0,.43,1.58-.6,1-1.28,1.6.47,1.84.15,0-1.3.38-1.37,1.17.57,1.78-.3a4.45,4.45,0,0,1,1.64-1.77,16.68,16.68,0,0,0,1.51-.79"/><path class="cls-34" d="M285.27,403.7a2.19,2.19,0,0,0-.93,2.85c.71,2.06.89,1.42.46,2.13s-.79,1-.06,1.25.83.51.11,1-1.62.81-.8,1.29,1.58.56.72.95,0,.71.33.28.4-1.65-.48-1.58,1.29-1.06,1.16-1.43-1.09-.7-.91-1.09,1.13-.64.74-1.64a4.43,4.43,0,0,1-.53-2.35c.12-.67.19-1.7.19-1.7"/><path class="cls-34" d="M284.49,406.91a2.17,2.17,0,0,0-.92,2.84c.71,2.07.88,1.42.45,2.14s-.78,1,0,1.25.82.51.11,1-1.63.82-.81,1.29,1.59.57.72,1,0,.72.34.28.39-1.65-.48-1.57,1.28-1.06,1.15-1.44-1.09-.7-.91-1.08,1.13-.65.74-1.65a4.5,4.5,0,0,1-.53-2.34,16.52,16.52,0,0,0,.19-1.7"/><path class="cls-34" d="M247.62,385.78s-3.58-.24-4,.58-.82-1.09-1.51-1.09-1.77.21-1.74.87.17,1.46-.58,1.49-1.61.2-1.66.67-1.13.11-1.31.65.29,1.7.78,1.07-1.17-.64-.34-.88,1-.86,1.67-.92,2.19-.32,2.22-1,.78-1.83,1.18-1.28.56,1.38,1.78.87,2.35,0,3-.24.46-.75.46-.75"/><path class="cls-34" d="M247.55,394.36s-3.47.89-4,.16-.6,1.23-1.27,1.36-1.78.11-1.88-.54-.1-1.47-.84-1.37-1.62.11-1.76-.34-1.13.09-1.4-.4,0-1.73.57-1.2-1,.85-.18.93,1.14.67,1.82.59,2.21-.08,2.37.62,1.1,1.66,1.4,1,.29-1.46,1.58-1.19,2.31-.44,3-.31.58.65.58.65"/><path class="cls-34" d="M248,403.27s-3.48.89-4,.16-.61,1.23-1.28,1.35-1.78.11-1.88-.53-.1-1.47-.84-1.37-1.62.11-1.76-.34-1.13.09-1.4-.41,0-1.72.57-1.19-1,.85-.18.93,1.14.66,1.82.59,2.21-.08,2.37.62,1.1,1.66,1.4,1,.29-1.46,1.59-1.19,2.3-.44,3-.31.59.65.59.65"/><path class="cls-34" d="M245.74,391.88a2.19,2.19,0,0,1-2.56,1.55c-2.17-.22-1.59-.54-2.18,0s-.76,1-1.21.34-.68-.69-1,.13-.42,1.76-1.07,1.08-.92-1.42-1.09-.49-.71.13-.35-.26,1.51-.76,1.64.11.74-1.49,1.14-1.45.93.9,1.26.64.37-1.25,1.43-1.1a4.47,4.47,0,0,0,2.41,0c.62-.27,1.61-.57,1.61-.57"/><path class="cls-34" d="M245.78,396.78a2.19,2.19,0,0,0-2.92-.68c-2,.89-1.34,1-2.08.64s-1-.7-1.26.05-.43.86-1,.2-.94-1.55-1.35-.69-.43,1.62-.88.79-.71.1-.25.36,1.67.25,1.52-.61,1.17,1.19,1.53,1,.6-1.15,1-1,.75,1.07,1.7.6a4.42,4.42,0,0,1,2.3-.73,16.44,16.44,0,0,0,1.71,0"/><path class="cls-34" d="M245.84,397.85s-2.75,2-3.47,1.59-1.14-1-2-.45-.9,1.18-1.64.87-1.9-.79-2.3-.16-1,.89-.86.57.72-1.45,1.55-1.26,1.76.7,2.3.24a2.54,2.54,0,0,1,2.12-1,10.37,10.37,0,0,0,3.58-.76c.7-.26.69.36.69.36"/><path class="cls-34" d="M262.85,372.66a2.18,2.18,0,0,1-2.94.52c-2-1-1.29-1.06-2.05-.74s-1.06.65-1.25-.12-.39-.88-1-.25-1,1.5-1.39.62-.34-1.64-.84-.84-.7-.13-.23-.37,1.69-.17,1.49.69,1.23-1.13,1.58-.95.55,1.18,1,1.06.8-1,1.73-.52a4.43,4.43,0,0,0,2.26.85c.68,0,1.7.05,1.7.05"/><path class="cls-34" d="M260.32,379.68a2.17,2.17,0,0,0-.72-2.9c-1.69-1.38-1.5-.74-1.51-1.57s.16-1.23-.62-1.09-1,0-.64-.82.95-1.55,0-1.52-1.64.35-1.11-.43-.41-.59-.43-.06.53,1.61,1.24,1.08-.53,1.58-.22,1.83,1.29,0,1.35.44-.62,1.15.23,1.79,1.45,1.08,1.69,1.71a17.08,17.08,0,0,0,.74,1.54"/><path class="cls-34" d="M275.58,380.22s.38-3.56-.42-4,1.12-.77,1.15-1.46-.14-1.78-.8-1.78-1.46.12-1.47-.63-.13-1.62-.59-1.69-.07-1.14-.6-1.34-1.71.22-1.1.74.69-1.14.89-.3.82,1,.85,1.71.23,2.19.95,2.25,1.8.85,1.23,1.24-1.4.49-.94,1.74-.11,2.34.12,3.05.73.48.73.48"/><path class="cls-34" d="M267,379.81s-.75-3.51,0-4-1.2-.65-1.3-1.33,0-1.79.61-1.85,1.47-.05,1.4-.79,0-1.62.41-1.74,0-1.14.46-1.39,1.73,0,1.17.62-.8-1.07-.92-.22-.71,1.12-.66,1.8,0,2.21-.72,2.34-1.7,1-1.09,1.36,1.44.34,1.12,1.63.35,2.32.19,3-.67.56-.67.56"/><path class="cls-34" d="M260.18,381.94s-.75-3.51,0-4-1.21-.65-1.31-1.33,0-1.78.62-1.85,1.46,0,1.39-.79,0-1.62.42-1.74-.05-1.14.46-1.39,1.72,0,1.17.62-.81-1.06-.92-.21-.71,1.11-.67,1.79,0,2.21-.71,2.34-1.7,1-1.1,1.36,1.45.35,1.13,1.63.34,2.32.19,3.05-.68.56-.68.56"/><path class="cls-34" d="M269.56,378.1a2.19,2.19,0,0,1-1.45-2.62c.31-2.16.6-1.56.05-2.18s-1-.8-.29-1.22.71-.66-.09-1-1.74-.49-1-1.11,1.45-.86.53-1.07-.1-.71.28-.34.69,1.54-.18,1.63,1.46.8,1.41,1.2-.94.89-.7,1.23,1.24.43,1,1.48a4.55,4.55,0,0,0-.08,2.41c.25.63.51,1.63.51,1.63"/><path class="cls-34" d="M257.77,374a2.19,2.19,0,0,0,2.89-.78c1.34-1.72.7-1.51,1.53-1.55s1.24.14,1.09-.63,0-1,.8-.66,1.57.92,1.52,0-.39-1.63.4-1.12.58-.42.06-.43-1.6.57-1.06,1.26-1.59-.5-1.83-.19,0,1.3-.42,1.36-1.16-.6-1.78.27-1,1.47-1.68,1.73a16.71,16.71,0,0,0-1.52.77"/><path class="cls-34" d="M264.29,380.75s-1.91-2.83-1.46-3.54,1.06-1.09.54-1.94-1.15-.95-.81-1.68.87-1.86.26-2.29-.85-1.06-.54-.88,1.42.77,1.19,1.6-.76,1.72-.32,2.29a2.57,2.57,0,0,1,.91,2.16,10.63,10.63,0,0,0,.61,3.61c.24.7-.38.67-.38.67"/><path class="cls-34" d="M273.08,373.1a2.19,2.19,0,0,0,2.56,1.55c2.18-.23,1.59-.54,2.18,0s.76,1,1.21.35.68-.69,1,.12.43,1.77,1.08,1.08.91-1.42,1.08-.49.71.13.35-.26-1.51-.76-1.64.11-.74-1.49-1.13-1.45-.93.9-1.27.64-.37-1.25-1.43-1.1a4.39,4.39,0,0,1-2.41,0,16.47,16.47,0,0,0-1.61-.57"/><path class="cls-34" d="M273.19,369.91a2.19,2.19,0,0,1,2.88.81c1.32,1.74.68,1.53,1.51,1.57s1.24-.12,1.08.65,0,1,.79.67,1.58-.9,1.52.05-.41,1.63.39,1.12.58.43.05.44-1.59-.59-1-1.28-1.6.48-1.84.17,0-1.3-.39-1.37-1.17.58-1.78-.29-1-1.48-1.66-1.75a16.68,16.68,0,0,1-1.51-.79"/><path class="cls-34" d="M260.17,377.8s.93-3.47,1.84-3.6-.78-1.12-.56-1.77.77-1.61,1.38-1.37,1.33.62,1.61-.07.7-1.47,1.16-1.37.47-1,1-1,1.51.82.76,1.09-.23-1.32-.73-.61-1.13.67-1.4,1.29-1,2-1.7,1.77-2,.15-1.59.71,1.13,1,.26,2-.74,2.23-1.21,2.8-.86.2-.86.2"/><path class="cls-34" d="M268.33,379.09s1.95-3,1.43-3.77,1.36-.17,1.7-.77.68-1.65.09-1.95-1.35-.56-1-1.23.62-1.5.23-1.78.46-1,.07-1.46-1.62-.58-1.31.16,1.13-.71.94.13.26,1.29,0,1.91-.79,2.06-.18,2.44,1.22,1.58.54,1.66-1.48-.19-1.63,1.12-1.16,2.05-1.27,2.78.43.76.43.76"/><path class="cls-34" d="M276.64,382.32s1.95-3,1.44-3.77,1.36-.18,1.69-.77.68-1.66.09-1.95-1.35-.57-1-1.24.62-1.5.24-1.78.45-1,.07-1.46-1.63-.58-1.32.17,1.14-.71.94.13.27,1.29,0,1.91-.79,2.06-.18,2.44,1.22,1.57.54,1.66-1.47-.2-1.63,1.12-1.16,2-1.27,2.77.43.77.43.77"/><path class="cls-34" d="M266.56,376.58a2.19,2.19,0,0,0,2.29-1.93c.48-2.13,0-1.67.73-2s1.18-.41.71-1-.43-.87.45-.93,1.81.16,1.37-.68-1.05-1.31-.12-1.18.35-.63-.13-.42-1.21,1.19-.42,1.59-1.65.22-1.74.61.55,1.17.2,1.41-1.3,0-1.5,1a4.41,4.41,0,0,1-.79,2.28,16.4,16.4,0,0,0-1.05,1.34"/><path class="cls-34" d="M271.19,378.19a2.18,2.18,0,0,1,.29-3c1.47-1.61,1.37-.95,1.27-1.78s-.34-1.19.45-1.17,1-.13.51-.9-1.16-1.39-.22-1.5,1.68.11,1-.59.32-.64.42-.12-.3,1.67-1.07,1.25.75,1.49.49,1.78-1.28.21-1.28.63.78,1.05,0,1.8a4.66,4.66,0,0,0-1.43,1.94c-.15.67-.5,1.64-.5,1.64"/><path class="cls-34" d="M272.18,378.59s2.79-2,2.62-2.78-.59-1.4.2-2,1.41-.47,1.36-1.28-.14-2,.57-2.23,1.18-.68.83-.63-1.61.22-1.69,1.07.09,1.88-.52,2.25-1.36.6-1.63,1.69a10.25,10.25,0,0,1-1.86,3.15c-.47.57.12.77.12.77"/><path class="cls-34" d="M287,389a2.18,2.18,0,0,0,.35,3c1.52,1.57,1.4.92,1.32,1.74s-.31,1.2.47,1.16,1,.12.53.89-1.13,1.42-.18,1.51,1.67-.15,1.05.56.33.64.42.12-.33-1.67-1.09-1.23.71-1.5.44-1.79-1.28-.18-1.29-.6.76-1.07,0-1.8a4.54,4.54,0,0,1-1.47-1.91C287.33,390,287,389,287,389"/><path class="cls-34" d="M281.7,391.1a2.18,2.18,0,0,1,3-.17c1.81,1.22,1.14,1.22,1.94,1s1.13-.51,1.23.27.27.93,1,.37,1.2-1.35,1.45-.44.14,1.68.73.94.69.22.19.4-1.7,0-1.4-.87-1.35,1-1.69.74-.39-1.23-.81-1.16-.92.93-1.78.3a4.5,4.5,0,0,0-2.13-1.12c-.68-.05-1.69-.25-1.69-.25"/><path class="cls-34" d="M280,406.79a2.19,2.19,0,0,1,1.5,2.59c-.26,2.16-.57,1.57,0,2.18s1,.77.32,1.21-.7.67.1,1,1.76.46,1.06,1.1-1.43.88-.51,1.08.12.7-.26.34-.74-1.53.14-1.64-1.48-.76-1.43-1.16.91-.91.66-1.25-1.24-.4-1.07-1.45a4.56,4.56,0,0,0,0-2.41c-.26-.63-.54-1.62-.54-1.62"/><path class="cls-34" d="M273.57,378.83s3.3-1.4,4-.76.41-1.31,1.05-1.53,1.75-.38,1.94.25.32,1.42,1,1.21,1.58-.35,1.79.08,1.1-.26,1.45.19.29,1.69-.39,1.26.9-1,0-.94-1.23-.49-1.89-.31-2.17.41-2.44-.25-1.33-1.48-1.54-.82-.06,1.48-1.38,1.41-2.22.79-2.95.77-.68-.56-.68-.56"/><path class="cls-34" d="M276.46,386.22c-1.29.11,3,1.44,3.86-1.18.29-.88,1,1,1.65.85s1.72-.48,1.59-1.12-.38-1.42.35-1.57,1.56-.43,1.54-.91,1.1-.28,1.2-.84-.54-1.64-.94-.94,1.26.46.48.82-.86,1-1.52,1.16-2.11.65-2,1.37-.48,1.92-1,1.44-.76-1.28-1.89-.6-2.32.35-3,.71-.34.81-.34.81"/><path class="cls-34" d="M279.73,394.76s3.58-.31,3.86-1.19,1,1,1.65.86,1.72-.48,1.59-1.13-.38-1.41.35-1.56,1.56-.43,1.55-.91,1.1-.28,1.19-.84-.54-1.64-.93-.94,1.25.46.47.82-.86,1-1.52,1.16-2.11.65-2,1.37-.49,1.92-1,1.44-.76-1.28-1.89-.6-2.32.35-3,.71-.34.81-.34.81"/><path class="cls-34" d="M278.05,383.28a2.2,2.2,0,0,0,2.93.62c2-.93,1.32-1,2.07-.69s1,.68,1.26-.08.41-.87,1-.22,1,1.53,1.37.67.4-1.64.87-.82.71-.11.24-.36-1.68-.22-1.51.64-1.19-1.16-1.55-1-.58,1.15-1,1S283,382,282,382.5a4.44,4.44,0,0,1-2.28.79,15.86,15.86,0,0,0-1.71,0"/><path class="cls-34" d="M279.64,387.92a2.19,2.19,0,0,1,2.52-1.61c2.18.18,1.6.5,2.18-.09s.74-1,1.2-.36.7.67,1-.15.38-1.78,1.05-1.1.94,1.39,1.1.46.7-.15.35.25-1.49.79-1.64-.07-.71,1.5-1.1,1.48-.95-.88-1.28-.62-.35,1.26-1.41,1.13a4.49,4.49,0,0,0-2.41.07c-.62.29-1.59.61-1.59.61"/><path class="cls-34" d="M279.93,389s3.26,1,3.8.35.74-1.33,1.71-1.08,1.24.82,1.84.29,1.53-1.38,2.11-.92,1.26.5,1,.26-1.16-1.14-1.88-.68-1.43,1.24-2.1,1a2.58,2.58,0,0,0-2.33-.24,10.18,10.18,0,0,1-3.63.47c-.74,0-.53.57-.53.57"/><polygon class="cls-35" points="270.4 408.33 271.37 413.82 263.52 425.17 254.32 413.82 256.08 406.94 270.4 408.33"/><path class="cls-36" d="M259.18,385.05s-2.27,6.87-3.91,7.9-3.44,2.81-3.37,4.8-.21,6.39,1.58,8.86,4.67,6.87,5.7,7.42a7.8,7.8,0,0,0,3.57,1.1,9.58,9.58,0,0,0,5.49-2.89c1.24-1.51,3.85-4.46,4.53-7.34a42,42,0,0,0,1.17-9c-.13-1.51-2.74-.62-3.7-2.68s-3-6.45-3.85-7.41-1.57,3.48-7.21-.76"/><path class="cls-37" d="M260.51,403.57c-.06.48.33,1.09,1.21,1.09a1.28,1.28,0,0,0,1.38-1.2c0-.38-.12-.36-.26,0a1.14,1.14,0,0,1-1,.86c-.76,0-1-.3-1.06-.76,0-.19-.19-.34-.23,0"/><path class="cls-38" d="M247.1,410.91s3.57,2.68,5.62.53c1.45-1.52.17-4.34.17-4.34s2,2.23.36,4.52c-1.35,1.94-5.29,1.11-6.15-.71"/><path class="cls-38" d="M272.34,411.85a2.46,2.46,0,0,0,3.87.19c2-2,0-7.64,0-7.64s3,4.89.74,7.77c-1.45,1.86-3.7,1.51-4.56-.32"/><path class="cls-34" d="M254.1,393.27s4-.31,5.36.54-.61.95-.61.95a13.37,13.37,0,0,0-5.54-.31c-2.27.58.79-1.18.79-1.18"/><path class="cls-34" d="M264,394.3c-.52-.35.49-.74,1.33-.9a37.53,37.53,0,0,1,5.16-.29,9,9,0,0,1,2.22,1.42,65.18,65.18,0,0,0-7-.35c-1,.2-1.47.25-1.71.12"/><path class="cls-34" d="M268.67,397.16a1.28,1.28,0,0,1-.22.72,1.54,1.54,0,0,1-.88.36,2,2,0,0,1-.86,0,1.28,1.28,0,1,1,2-1.09"/><path class="cls-39" d="M264.78,397.57a.49.49,0,0,1-.49-.42.67.67,0,0,1,.19-.53,4.77,4.77,0,0,1,2.9-1.23,4.32,4.32,0,0,1,3.16,1.29.49.49,0,1,1-.76.62,3.32,3.32,0,0,0-2.37-.93,4,4,0,0,0-2.17.87.48.48,0,0,1-.4.33h-.06"/><path class="cls-34" d="M255.4,397a1.35,1.35,0,0,0,.21.72,2.46,2.46,0,0,0,1.74.37,1.28,1.28,0,1,0-2-1.09"/><path class="cls-39" d="M259.16,397.82a.62.62,0,0,1-.32-.09.58.58,0,0,1-.27-.43,2.37,2.37,0,0,0-1.07-.67,5.13,5.13,0,0,0-3.57.42.56.56,0,0,1-.74-.29.56.56,0,0,1,.29-.73c3.36-1.46,5.39-.25,6.06.69.33.48.17.78,0,.92a.58.58,0,0,1-.42.18"/><path class="cls-40" d="M261.91,403.88c-1.84,0-3-.16-3.3-.44a.35.35,0,0,1,0-.5.36.36,0,0,1,.46,0,15.07,15.07,0,0,0,5.68,0,.36.36,0,0,1,.46,0,.36.36,0,0,1,0,.5c-.29.28-1.46.44-3.29.44m2.8-.94h0m-5.61,0h0m5.61,0h0m-5.61,0h0m0,0h0m5.61,0h0"/><path class="cls-41" d="M256.64,404.93s4.82-.21,5.27.08c0,0,.11.13.79-.07a18,18,0,0,1,4.7-.09c1.14,0-1.07,3.56-2.76,4.47a4.72,4.72,0,0,1-5,0c-1.3-1-4.11-4.06-3-4.39"/><path class="cls-7" d="M258.07,405.81a72.26,72.26,0,0,0,7.87,0c1-.19-.66,1.93-2.39,2.12-1.32.14-3.32.13-4-.37s-1.93-1.77-1.47-1.75"/><path class="cls-37" d="M262.29,407.73a.14.14,0,0,0-.16.12,6,6,0,0,0,.05,2.66s.06.05.17,0,0-.41,0-1.37c0-.69.08-1.43,0-1.4"/><path class="cls-34" d="M261.5,382.21s-.56,3.54.22,4-1.17.71-1.23,1.39.05,1.79.7,1.82,1.47,0,1.44.72,0,1.62.51,1.72,0,1.13.53,1.36,1.72-.13,1.13-.68-.74,1.1-.91.26-.76-1.07-.75-1.76-.12-2.2-.84-2.3-1.75-.94-1.17-1.3,1.43-.42,1-1.68.23-2.34,0-3.05-.7-.53-.7-.53"/><path class="cls-34" d="M261.87,380.66s-.57,3.54.21,4-1.16.71-1.23,1.39,0,1.78.71,1.82,1.47,0,1.43.71.05,1.62.51,1.72,0,1.14.53,1.36,1.72-.13,1.14-.68-.75,1.11-.91.26-.77-1.07-.76-1.75,1.1-3.29.38-3.38-3,.14-2.38-.22,1.43-.42,1-1.69.22-2.34,0-3.05-.7-.52-.7-.52"/><path class="cls-34" d="M264.55,382.56s.57,3.54-.21,4,1.17.71,1.23,1.4-.05,1.78-.71,1.81-1.46,0-1.43.72,0,1.62-.51,1.72,0,1.13-.53,1.36-1.72-.13-1.14-.68.75,1.1.91.26.77-1.07.76-1.76.12-2.2.83-2.3,1.76-.94,1.17-1.3-1.43-.42-1-1.68-.22-2.34,0-3.06.7-.52.7-.52"/><path class="cls-34" d="M268.27,385.6s.57,3.54-.21,4,1.16.72,1.23,1.4-.05,1.78-.71,1.82-1.46,0-1.43.71,0,1.62-.51,1.72,0,1.13-.53,1.36-1.72-.13-1.14-.68.75,1.11.91.26.77-1.07.76-1.75.12-2.21.83-2.31,1.75-.94,1.17-1.29-1.43-.42-1-1.69-1-2.27-.84-3,1.51-.59,1.51-.59"/><path class="cls-34" d="M262.71,382.54a2.18,2.18,0,0,1,1.31,2.69c-.42,2.14-.68,1.53-.16,2.18s.91.84.23,1.23-.75.62,0,1,1.72.58,1,1.17-1.49.78-.58,1,.06.71-.29.32-.62-1.58.26-1.62-1.42-.88-1.34-1.27,1-.84.75-1.2-1.21-.48-1-1.52a4.56,4.56,0,0,0,.21-2.4c-.22-.65-.43-1.66-.43-1.66"/><path class="cls-34" d="M267,384.49s-2.93.27-2.23,2.33,2.15,1.94,1.72,2.65-.79.95-.06,1.25.82.51.1,1-1.63.8-.81,1.29,1.58.58.71.95,0,.72.33.28.41-1.64-.47-1.57,1.29-1.05,1.17-1.43-1.09-.71-.91-1.09,1.14-.64.76-1.64a4.53,4.53,0,0,1-.52-2.35c.13-.67.21-1.7.21-1.7"/><path class="cls-34" d="M264.74,382.54s1.75,2.92,1.26,3.6-1.11,1-.63,1.92,1.1,1,.72,1.72-1,1.81-.38,2.27.79,1.1.49.91-1.38-.85-1.11-1.66.86-1.69.45-2.27a2.54,2.54,0,0,1-.8-2.21,10.31,10.31,0,0,0-.43-3.63c-.19-.71.43-.65.43-.65"/></g><g class="cls-4"><path class="cls-35" d="M287.58,458.11c-1.43,1.5-6.92,2.22-6.73-2.37.15-3.52.14-11.21.79-14.19,3.05-.21,6.13,3.57,7.82,5.84-.17,3.22-.44,9.23-1.88,10.72"/><path class="cls-35" d="M233.16,455.16c.39,2,7.84,3.25,7.65-1.34-.15-3.52,1.77-10.22,1.13-13.2-3.05-.21-7-.7-8.66,1.57.17,3.22-.7,10-.12,13"/><path class="cls-42" d="M289.84,447.34c.37-3.53-.33-10.57-.1-15.17.57-11.59-1.26-16.75-7.75-18.07-5.09-1-7.16-1.52-11.14-3.35l-8.12,10.58-7.9-10.56a48.1,48.1,0,0,1-11.41,3.51c-5.7,1.13-9.74,11.85-10.77,32.65l9.29.52c.64-5.19,2.65-11,3.31-14.85.32.64.19,2.63,1,6.33a8.14,8.14,0,0,0,6.54,6.28l7.26,1.3.52-2.92,14.29,1a4.59,4.59,0,0,0,4.81-3.7c1.07-5.4.77-8.35,1.45-8.54.35,5.47-1.13,8.53-.28,15.85a14.57,14.57,0,0,0,9-.88"/><path class="cls-43" d="M282,414.1a27.85,27.85,0,0,0-4.21-1.37c1.9,17.57-8.77,21.85-8.77,21.85H251.75c-2.07.93-1.33-22.48-3.78-21.85a26.89,26.89,0,0,0-4.55,1.55s1.66,19.9,2.23,22.11h35c.85-3.5,1.37-22.29,1.37-22.29"/><path class="cls-43" d="M252.87,415.06c-.1-.64-.19-1.27-.28-1.9s-.13-1-.19-1.38l0-.15c-1.39.4-2.88.71-4.4,1.1.65,5.46,2.09,17.67,2.06,18.07s13,6.33,13,6.33l7.36-1.47,7.38-22.93c-1.49-.37-2.94-.66-4.32-1.05l0,.14c-.05.3-.11.69-.17,1.14-1,7.17-3.27,16.69-10.54,16.69-6.46,0-8.74-7.43-9.86-14.59"/><path class="cls-44" d="M281.16,461.7c-1,.2-10.46,4.77-18.47,4.77s-15.75-4.22-16.66-4.68c-.11-.06-2,3.25-2,3.25a.23.23,0,0,0,0,.25l15.23,19.89a29.76,29.76,0,0,0,8.51-.12L283,465.51l0-.23a25.3,25.3,0,0,0-1.85-3.58"/><path class="cls-44" d="M302.68,453c-4.15,1.46-24.35,7.56-27.83,12.18-5.63,7.46-5.89,15.43-7.05,19.84,3.16,1.37,12,0,15.23-1.54,6.39-3.08,25.66-19.73,27.58-23.81.82-1.73-1.23-9-7.93-6.67"/><path class="cls-44" d="M224.11,453c-6.7-2.36-8.74,4.94-7.93,6.67,1.92,4.08,21.19,20.73,27.58,23.81,3.19,1.54,12.07,2.91,15.23,1.54-.54-4.06-2.15-14.5-7.05-19.84C248,461,228.26,454.5,224.11,453"/><path class="cls-35" d="M280.84,481.06a84.71,84.71,0,0,1-14-1.86c-6.25-3.76-41.92-23.71-41.92-23.71-6.44-1.71-7.78,3-5.83,6.44,5.07,8.91,8.91,11.46,23.29,13.48,5.35.76,15.48,5.61,21,7.66.37,1.26,1.66,2.67,4.66,3,1.6.16,7.64,3.07,11.87,2.72,2.17-.18,4.74-3.33,4.78-4.72s1.4-2.75-3.83-3"/><path class="cls-15" d="M280.84,481.06c-1.84,8.18-11.39,3.86-17.48,2,.37,1.26,1.66,2.67,4.66,3,1.6.16,7.64,3.07,11.87,2.72,2.17-.18,4.74-3.33,4.78-4.72s1.4-2.75-3.83-3"/><path class="cls-35" d="M265.19,483.66c-.61-.21-1.2-.4-1.76-.57a3.15,3.15,0,0,0,.09-.42l1-.39c.25.48.51.94.76,1.35l-.05,0"/><path class="cls-45" d="M264,484.19l-.2-.27v0c-.05-.08-.1-.16-.14-.24l0-.05-.11-.22,0-.06-.06-.14a.3.3,0,0,0,0-.1c.56.17,1.15.37,1.76.57l-1.24.53"/><path class="cls-46" d="M216.57,461.64c5,10.05,12.37,13.72,23.82,17.27,15.15,4.8,18,4.08,19.18,3.37.48-.28.72-.56,1.36-.51a6.85,6.85,0,0,1,1.51.3,13.93,13.93,0,0,0,2.7-4.47c-11.38-6.42-42-25-42-25-6.43-1.7-8.27,5.54-6.53,9.07"/><path class="cls-47" d="M216.56,461.62h0m0,0h0m0,0h0m0,0h0m0,0h0m0,0h0m0,0h0m0,0h0m0,0v0m0,0h0m0,0h0m0,0h0m0,0h0m0,0h0m0,0h0m0,0h0m0,0h0m0,0h0m0,0h0m0,0h0m0,0h0m0,0h0m0,0h0"/><path class="cls-48" d="M247.52,481c-2-.54-4.37-1.23-7.13-2.11-11.45-3.55-18.86-7.22-23.81-17.27v0h-.08v0h0v0h0v0h0s0,0,0,0h0s0,0,0,0h0v0h0v0h0v0h0v0h0a7.92,7.92,0,0,1,.41-6c7.61,5.83,23.4,17.07,39.77,23.55a54.66,54.66,0,0,1-9.52,2.17l.51.14"/><path class="cls-49" d="M260.93,481.77a6.85,6.85,0,0,1,1.51.3,13.87,13.87,0,0,0,2.7-4.48l-1.19-.67a19.08,19.08,0,0,1-3,4.85"/><path class="cls-50" d="M263.73,476.79l-1.4-.8h0l1.4.8h0"/><path class="cls-51" d="M258.71,479.54l-2.18-.83c.92-.29,1.55-.51,1.82-.57s2.28-1.21,4-2.15l1.4.8-1.41.81v0c-1.67.92-2.94,1.59-3.62,1.91"/><path class="cls-52" d="M247.52,481l-.51-.14a54.66,54.66,0,0,0,9.52-2.17c.72.29,1.45.56,2.18.83l-.11,0A62,62,0,0,1,247.52,481"/><path class="cls-35" d="M302.62,454.37s-39.19,23-44,25.22A62.34,62.34,0,0,1,246,481.06c-5.24.06-3.85,1.59-3.82,3s2.6,4.54,4.77,4.72c4.22.35,10.27-2.56,11.87-2.72,3.32-.33,4.55-2,4.75-3.36,5.12-2.09,16.25-6.61,20.88-7.27,14.38-2,19.54-5.68,24.61-14.6,1.95-3.43.05-8.14-6.39-6.44"/><path class="cls-15" d="M246,481.06c-5.24.06-3.85,1.58-3.82,3s2.6,4.54,4.77,4.72c4.22.35,10.27-2.56,11.87-2.72,3.32-.33,4.55-2,4.75-3.36-6,1.72-17.11,7.63-17.57-1.62"/><path class="cls-46" d="M304.35,452.57s-30.66,18.61-42,25a35.77,35.77,0,0,0,3.9,7.49c.64-.18,7.6-1.89,20.85-6.18,11.44-3.55,18.86-7.22,23.81-17.27,1.75-3.53-.09-10.77-6.53-9.07"/><path class="cls-53" d="M266.2,485.07h0m0,0h0m0,0h0m0,0h0m0,0h0m0,0h0m0,0h0m0,0h0m0,0h0m0,0h0m0,0h0"/><path class="cls-47" d="M310.89,461.62h0m0,0h0m0,0h0m0,0h0m0,0h0m0,0h0m0,0h0m0,0h0m0,0h0m0,0h0m0,0v0m0,0v0m0,0h0m0,0h0m0,0v0m0,0v0m0,0h0m0,0h0m0,0s0,0,0,0,0,0,0,0m0,0v0m0,0h0m0,0h0m0,0h0m0,0h0m0,0h0m0,0h0m0,0h0m0,0h0m0,0h0m0,0h0m0,0h0m0,0h0m0,0h0m0-.06h0m0,0h0"/><path class="cls-48" d="M266.22,485.09h0l0,0h-.15a26.75,26.75,0,0,1-2.06-3.54c9.4-3.51,35.88-14.2,46.22-27a7.76,7.76,0,0,1,1,6.36h0a0,0,0,0,1,0,0s0,0,0,.05h0v0h0v0h0a0,0,0,0,1,0,0h0v0h0v0h0v0h0v0h0v0h0v0h0v0h0v0h0v0h0v0h0s0,0,0,0h0v0h0s0,0,0,0h0v0c-4.95,10.05-12.37,13.72-23.81,17.27-13.25,4.29-20.21,6-20.85,6.18"/><path class="cls-54" d="M279.2,443.45a6.48,6.48,0,0,0,2.68-3.78A11.06,11.06,0,0,0,280.7,432c-.22-6.46-.77-18.68-.77-18.68-1.66-.52-3.29-.86-4.85-1.23-.6,3.57-1.95,19.22-12.35,19.22s-11.39-15.77-12-19.27c-1.56.38-3.19.73-4.84,1.27,0,0-.74,15.43-.89,19.78a10.42,10.42,0,0,0-.68,6.57,6.42,6.42,0,0,0,2.88,3.91c.06.27.11.49.16.67.4,1.37.88,11.49-1.67,17.08,12.63,7.62,20.5,8.06,35.06-.14-1.67-3.23-2-15.24-1.83-16.29.08-.51.16-1,.25-1.45"/><path class="cls-49" d="M271.9,412.81s.64,1.44-1.11,4.89c-.78,1.56-2.23,3.85-3.2,3.85a24.57,24.57,0,0,0-1.54-2.71c-2-3.24,5.85-6,5.85-6"/><path class="cls-49" d="M262.73,423l3-6.6s5.3-4.11,4.63-2c-.31.33-5.1,9-7.61,8.64"/><path class="cls-7" d="M271,410a.2.2,0,0,1,.38,0l.56,2.79s.81,3.13-3.64,8.4a13.19,13.19,0,0,0-2.55-4.77s3.85-3.12,5.25-6.46"/><path class="cls-49" d="M253.56,412.81s-.64,1.44,1.11,4.89c.78,1.56,2.24,4.18,3.2,4.18a31.08,31.08,0,0,1,1.54-3c2-3.24-5.85-6-5.85-6"/><path class="cls-49" d="M262.73,423l-3-6.6s-5.3-4.11-4.62-2c.3.33,5.1,9,7.6,8.64"/><path class="cls-7" d="M254.84,409.9l-1.28,2.91s-.47,3.13,4,8.4a15.77,15.77,0,0,1,2.21-4.77s-3.74-3.66-4.53-6.52a.2.2,0,0,0-.38,0"/><path class="cls-35" d="M271.25,452.32c4.35,1.41,14.64-.27,16.5,1.69,1.56,1.65.51,6.72-6.5,6.73a43.31,43.31,0,0,1-13.59-3.48c-5.61-2.53-4.71-9.39,3.59-4.94"/><path class="cls-35" d="M253.79,445.42c-4.35,1.41-18,4.71-19.88,6.67-1.57,1.65-1.91,7.23,5.3,5.81s11.77-6.81,17.38-9.34,5.5-7.59-2.8-3.14"/><path class="cls-35" d="M251.39,447c2.15-1.25,3.41-4.79,4.31-6s6.2-3.45,7-3.45S267.8,441,267.8,441l-1.6,6.85-4.6-5.22s-12.36,5.58-10.21,4.34"/><path class="cls-7" d="M259.68,438h6.94a1.7,1.7,0,0,1,1.7,1.7v13.11a1.7,1.7,0,0,1-1.7,1.7h-7.36c-.94,0-1.27-.76-1.27-1.7V439.74a1.7,1.7,0,0,1,1.69-1.7"/><path class="cls-15" d="M259.68,439h6.94a1.7,1.7,0,0,1,1.7,1.69v12.65a1.7,1.7,0,0,1-1.7,1.7h-7.36c-.94,0-1.27-.76-1.27-1.7V440.66a1.69,1.69,0,0,1,1.69-1.69"/><path class="cls-7" d="M259.75,440.22c.37,0,.67.18.67.4s-.3.4-.67.4-.67-.17-.67-.4.3-.4.67-.4"/><path class="cls-35" d="M255.14,442.93a3.36,3.36,0,0,1,1.65.49c2,.89,8.46,4.64,9.94,4.51,1.67-.15,1-2.31,1-2.31-.17-1.29.25-3,1.28-3,.58,0,.31,1.44.46,2.92l1.23,4.47,1.15,4.5s-1.64,3.25-4.16,2.72-7.08-1.47-9.06-2.37c-1.29-.59-1.82-1.95-1.54-2.3a1,1,0,0,0,0-1,1.52,1.52,0,0,1,0-1.45.93.93,0,0,0,0-.95c-.46-.81-.11-1.94.93-1.74,1.35.45,2.35,1.45,2,.21-1.18-.83-5.26-3-5.5-3.76-.15-.46-.06-.83.65-.95"/><g class="cls-55"><g class="cls-56"><text class="cls-57" transform="translate(59.44 623.11)">UNIVERSITY</text></g></g><g class="cls-58"><g class="cls-59"><path class="cls-60" d="M530.67,667.16C390,667.16,282,662.31,202.85,656l-7.62-18.47L191.5,632l11.13-.4,3.51,16.25,10.14-1.25-.85-23.3.45-.1c47.14-.43,100.47-.74,156.76-.94v0H398.7v-.11l9.36,0v.13h4.66a21,21,0,0,0,6.15,1.06c.53,0,1,0,1.46,0,2.86,0,4-.69,4.4-1.11h9.38v-.2l31.25-.05.07.25h19.78l.08-.28,31.44,0v.3h13.73c0,4.63-1.45,11.83-8.28,11.83a11.74,11.74,0,0,1-1.29-.08,24.42,24.42,0,0,0,9.41,1.79c7.12,0,14-2.72,16.54-6.66a23.55,23.55,0,0,0,3-7.17l32.66,0a60.34,60.34,0,0,0,18.27,2.57h0a58.55,58.55,0,0,0,17.65-2.51c13.76,0,27.36,0,40.89.09v.12h26.17v0c22.14.07,43.86.17,64.91.28l.12,1.7A12.56,12.56,0,0,0,763,635.92h3.61l0,.06-.6,2.42-2.58,11.88a5.35,5.35,0,0,0-1.88,3l-4.12,8.46a3.1,3.1,0,0,0-.15.58c-63.37,3-138.59,4.88-226.63,4.88m9.44-27.53.06,1.21a1.27,1.27,0,0,0,1.18,1.18l28.39,1.2h0a1,1,0,0,0,1-.72l2.13-6.68a2.1,2.1,0,0,0,.15-.93l0-1.1v0a.6.6,0,0,0-.55-.7L546.38,632h0a.68.68,0,0,0-.53.24l-5.56,6.82a.67.67,0,0,0-.14.54h0m225.94,22.23,1.26-6.74a6.31,6.31,0,0,0,.37-3l5.06-11.52,2.1-4.68h.39a12.55,12.55,0,0,0,12.51-11.46l.14-1.7c37.61.25,72.59.56,103.66.93a38.48,38.48,0,0,0,8.89,4.83,111.32,111.32,0,0,0,11,7.66,3.72,3.72,0,0,0-.91,2.61c0,1.58,3.32,5.13,5.77,5.44a21.79,21.79,0,0,0,2.82.17c6.83,0,14-2.67,15.61-2.83a7.46,7.46,0,0,0,3.91-1.52c.62,0,1.31.06,2,.06s1.49,0,2.26-.08a8.66,8.66,0,0,0,2.89.75c1.71.17,11,3.48,16.09,3.48q.42,0,.81,0c8-.7,7.95-4.26,8-5.84h0v0a3.21,3.21,0,0,0-1.23-2.29,83,83,0,0,0,11-7.24,44,44,0,0,0,6.87-3.48c29.07.77,45.73,1.68,45.73,2.72,0,6-80.47,24.59-267,33.8m-580.76-7.38c-108.61-9.55-157-21.76-157-26.42,0-1.54,36.5-2.79,95.63-3.74a16.33,16.33,0,0,1-2.21,2.42,11.81,11.81,0,0,1-4.27.51c-1.33,0-2.44-.06-2.44-.06l-.18,0a39.57,39.57,0,0,0-7.63,1.57l-4.53,2.52a.59.59,0,0,0,.28,1.1s6.69-1.17,10.36-1.37c4.31,1.37-4.1,1.37-3,3.45h5.56l5.4-2.08s9.59-5,14.37-8.23q11.47-.17,23.91-.32a1.44,1.44,0,0,0,1.42,1.16l.26,0c-.59,3.81.44,7.12,3,11.16l15.71,10,5.39,8.38"/></g></g><path class="cls-61" d="M919.09,613.31a39.4,39.4,0,0,0,20.47,5.91c11.63,0,21.49-5.82,22.65-6.05a27.9,27.9,0,0,1,2.1,4.06.24.24,0,0,1,0,.26l-18.75,22.18a33.58,33.58,0,0,1-9.65.14l-18.81-22.56a.24.24,0,0,1,0-.29,40.75,40.75,0,0,1,2-3.65"/><path class="cls-62" d="M918,618.35a12.11,12.11,0,0,1,1.09-1.86,39.4,39.4,0,0,0,20.47,5.91c11.63,0,21.49-5.82,22.65-6a22,22,0,0,1,1.23,2.15l.85-1a.24.24,0,0,0,0-.26,27.9,27.9,0,0,0-2.1-4.06c-1.16.23-11,6.05-22.65,6.05a39.4,39.4,0,0,1-20.47-5.91c-.12-.06-2,3.65-2,3.65a.24.24,0,0,0,0,.29Z"/><path class="cls-61" d="M965.87,637.92c7.24-3.49,23.08-12.91,29.75-27,.93-2-1.39-10.25-9-7.57-4.71,1.66-29.15,9.91-33.1,15.15-6.38,8.47-6.68,16.18-8,21.17,3.58,1.55,16.71,0,20.33-1.75"/><path class="cls-61" d="M914.65,638c-7.24-3.5-28.22-18.61-29.19-27.07-.25-2.15-2.35-8.76,6.67-8.47,4.7,1.66,31,11.22,35.42,16.06,5.55,6.07,7.38,16.56,8,21.17-3.58,1.55-17.27.06-20.89-1.69"/><path class="cls-25" d="M962.81,634a134.45,134.45,0,0,1-17.27-1.75c-8.24-3.35-53.33-28.33-53.33-28.33-7.3-1.93-9.27,4.45-7.06,8.34,5.75,10.11,11.15,15.92,31.56,18.63,6.08.8,17.55,4.22,23.78,6.55.42,1.42,1.9,3,5.3,3.36,1.8.18,12.11,3.87,16.9,3.45,8-.7,7.95-4.26,8-5.85s-1.93-4.14-7.87-4.4"/><path class="cls-63" d="M962.81,634a134.45,134.45,0,0,1-17.27-1.75c-.2-.08-.42-.17-.65-.28l-5.56,5,1.16.43c.42,1.42,1.9,3,5.29,3.36,1.81.18,12.12,3.87,16.91,3.45,8-.7,7.95-4.26,8-5.85s-1.93-4.14-7.87-4.4"/><path class="cls-64" d="M962.69,644.23c8-.7,7.95-4.26,8-5.84,0-1.4-1.51-3.57-6-4.23-1.12.94-2.81,3.84-3,7.76-9,.35-17-2.82-21.2-4.46.44,1.42,1.91,3,5.27,3.32,1.81.18,12.12,3.87,16.91,3.45"/><path class="cls-17" d="M949.64,632.19a10.07,10.07,0,0,0-1.5,5.28v.06h0v.39a.43.43,0,0,0,.42.43.45.45,0,0,0,.44-.44v-.38h0v0a9.23,9.23,0,0,1,1.37-4.82.43.43,0,0,0-.14-.6.44.44,0,0,0-.59.14"/><path class="cls-17" d="M952,632.81h.43l-.36-.23a10,10,0,0,0-1.5,5.28v.06h0v.39a.43.43,0,0,0,.43.43.44.44,0,0,0,.43-.44v-.39h0v0A9.28,9.28,0,0,1,952.8,633l.08-.1v-.12a.44.44,0,0,0-.44-.43.43.43,0,0,0-.43.43"/><path class="cls-17" d="M954.54,632.9a10,10,0,0,0-1.5,5.27v.07h0v.38a.44.44,0,0,0,.87,0v-.39h0v-.06a9.22,9.22,0,0,1,1.36-4.82.43.43,0,1,0-.73-.45"/><path class="cls-17" d="M956.64,633.14a9.92,9.92,0,0,0-1.5,5.27v.07h0v.39a.43.43,0,0,0,.43.43.44.44,0,0,0,.43-.44v-.38h0v-.06a9.14,9.14,0,0,1,1.37-4.82.43.43,0,0,0-.15-.59.41.41,0,0,0-.58.14"/></g><g class="cls-65"><rect class="cls-66" x="940.53" y="634.46" width="8.08" height="3.75"/></g><g class="cls-4"><path class="cls-67" d="M941,638.39l-.11-.18a3.63,3.63,0,0,1-.3-.68.08.08,0,0,1,0,0l1.26.49c-.31.14-.61.27-.87.42"/><path class="cls-66" d="M949.16,635.8a10,10,0,0,1,.25-1l.6.84-.85.21"/><path class="cls-68" d="M948.24,636a10.41,10.41,0,0,1,.37-1.56l.5-.14,0,.06h0v0l.24.36a9.26,9.26,0,0,0-.25,1l-.92.22"/><path class="cls-69" d="M941,630.09l-1.54-.77.07,0,1.52.78,0,0"/><path class="cls-70" d="M932.13,633a5.81,5.81,0,0,0,.28-.53h0a2.49,2.49,0,0,0,.07-.29c1.17-.18,2.08-.31,2.33-.37.55-.25,2.73-1.47,4.61-2.51l1.54.77a40.1,40.1,0,0,1-6.12,2.45c-.67.15-1.6.32-2.71.49"/><path class="cls-71" d="M892.13,602.44s24.7,14.32,40.89,22.93a38.64,38.64,0,0,1-.61,7.12c-.56,1.29-4,5.78-5.55,7.58-5.82-3.81-8.57-5.54-12.11-6.62-23.68-7.19-25.81-10.56-31.56-20.68-2.21-3.88,1.64-12.26,8.94-10.33"/><path class="cls-72" d="M932.13,633a5.81,5.81,0,0,0,.28-.53h0a5.81,5.81,0,0,1-.28.53"/><path class="cls-73" d="M917.15,634.33a23,23,0,0,0-2.4-.88c-23.68-7.19-25.81-10.56-31.56-20.68a3.54,3.54,0,0,1-.19-.39l0-.13c0-.09-.08-.19-.11-.28l0-.17a2.76,2.76,0,0,1-.08-.27l0-.18a2.56,2.56,0,0,1-.05-.27l0-.2a2.4,2.4,0,0,1,0-.28v-.19c0-.1,0-.2,0-.29v-.2c0-.1,0-.2,0-.3v-.2a2.91,2.91,0,0,0,0-.31l0-.19.06-.32,0-.18.09-.34,0-.17c0-.11.07-.23.11-.34l.05-.16a3.65,3.65,0,0,1,.14-.35l.06-.15c.05-.12.11-.24.17-.36l.06-.13c.06-.13.13-.25.2-.38l.06-.1c.08-.13.16-.27.25-.4l0-.06c.1-.15.21-.3.32-.44h0l.46.81c6.58,12.38,40.45,24.26,47.57,26.64h0c-.06.14-.16.31-.28.53a122.24,122.24,0,0,1-15,1.3"/><path class="cls-74" d="M932.41,632.49c0-.08.05-.21.09-.36a69.91,69.91,0,0,1-14.13,2.16c-.43,0-.83,0-1.22,0,2.6,1.12,5.25,2.82,9.71,5.74,1.52-1.8,5-6.29,5.55-7.58"/><path class="cls-25" d="M988.44,604.63s-45.87,26.08-53.6,27.91a112.18,112.18,0,0,1-17.69,1.79c-5.94.08-6.7,2.88-6.66,4.46s3.32,5.13,5.77,5.44c7.54,1,16.62-2.48,18.43-2.66,3.77-.37,5.77-3.09,6-4.6,5.81-2.37,18.42-5.16,23.69-5.8,20.58-2.5,25.81-9.43,31.56-19.54,2.21-3.89-.19-8.94-7.49-7"/><path class="cls-71" d="M988.53,602.82s-24.72,14.32-40.9,22.93a39.9,39.9,0,0,0,.6,7.12,63.14,63.14,0,0,0,5.56,7.58c5.82-3.81,8.57-5.54,12.11-6.62,23.67-7.19,25.81-10.56,31.56-20.68,2.21-3.88-1.63-12.26-8.93-10.33"/><path class="cls-66" d="M953.79,640.45c-.59-.69-1.46-1.78-2.34-2.94.88,1.15,1.75,2.25,2.34,2.94l1.78-1.16-1.78,1.16"/><path class="cls-66" d="M950.67,636.49q-.34-.45-.66-.9.32.45.66.9"/><path class="cls-68" d="M951.45,637.51q-.41-.51-.78-1,.38.51.78,1"/><path class="cls-75" d="M950,635.59l-.6-.83.6.83"/><path class="cls-76" d="M949.41,634.76l-.24-.36.24.36m-.25-.38h0"/><path class="cls-73" d="M953.79,640.45c-.59-.69-1.46-1.79-2.34-2.94q-.41-.51-.78-1t-.66-.9l-.6-.84-.25-.35v0h0a10.68,10.68,0,0,1-.92-1.5h0c7.13-2.38,41-14.25,47.59-26.63.15-.29.3-.56.45-.82h0a4.48,4.48,0,0,1,.32.44l0,.06.25.41.05.1.2.37.06.13a2.92,2.92,0,0,1,.17.36l.07.15.13.35.06.16c0,.11.07.23.11.34l0,.18c0,.11.06.22.09.33l0,.18.06.32,0,.19c0,.11,0,.21,0,.31l0,.2c0,.1,0,.2,0,.3V611l0,.27,0,.2a2.51,2.51,0,0,1,0,.27l0,.18a2.13,2.13,0,0,1-.08.27l0,.17c0,.09-.07.19-.11.28l-.05.13a2.35,2.35,0,0,1-.19.39c-5.75,10.12-7.89,13.49-31.56,20.68l-1,.35-.28.1c-2.6,1-5,2.43-9,5l-1.78,1.16"/><path class="cls-74" d="M939.56,619.22c-1.35,0-2.65-.08-3.89-.2v3.12a.79.79,0,0,0,.79.8h6.21a.79.79,0,0,0,.79-.8V619a38.24,38.24,0,0,1-3.9.21"/><path class="cls-77" d="M942.63,619v2.28a.46.46,0,0,1-.46.46H937a.47.47,0,0,1-.46-.46V619h-.82v3.12a.79.79,0,0,0,.79.8h6.21a.8.8,0,0,0,.79-.8V619Z"/><path class="cls-78" d="M932.81,554.58c-2.42-1.12-6.42-5.78-7.67-15.61-.93-7.26-1.86-15.49,7-17,5.58-1.86,19.05-3.36,21.51,6,1.19,11-2.46,27.11-7.93,26.55-.19,3.48-6.08,2.58-7.57,3-3.81,1-5.34-2.92-5.34-2.92"/><path class="cls-28" d="M911.53,612l7.21,6.71,41.2.12,7.38-6.83a4.7,4.7,0,0,0,1.49-3.43H910a4.7,4.7,0,0,0,1.49,3.43"/><polygon class="cls-21" points="910.04 608.59 920.95 617.55 959.15 617.55 968.81 608.59 910.04 608.59"/><path class="cls-79" d="M980.27,593.51c-.77-4.83-5.89-27.23-13.28-32.8-10.48-7.94-31.69-10.49-53.87-.68-7.7,3.81-11.29,29-12.3,34.4-1.89,10.26,13.89,13.72,16.2,14.16,4.65.89,6.05-1.42,6.71-3.17,1.16-3-8.48-8.22-9.08-11.54,2.54-12.47.72-12,0-17.2.74,3.55-.43,5.05,3.1,12.18.69,1.38,2.06,19.84,1.31,24.45-.29,1.81,43.57,1.71,43.12-.14-1.06-4.47-.21-23.95.28-25.17,2.06-5.09,2.22-10.29,2.5-11.76-.48,3-2.13,3.43,0,16-2.51,2.39-8.85,11.1-7.79,14.16.61,1.77,2.66,4.43,5.34,2.21,2-1.68,19.39-4.69,17.73-15.08"/><path class="cls-80" d="M948.15,561.46a3.15,3.15,0,0,0,1-2.76,36.66,36.66,0,0,1-.4-9c.51-3.5-17.88-1.48-17.88-1.48s-.1,6.82-.6,10.2a3.2,3.2,0,0,0,.63,2.46,12.38,12.38,0,0,0,8.55,3.9,11.72,11.72,0,0,0,8.75-3.33"/><path class="cls-25" d="M952.51,539.65a1.42,1.42,0,0,1,1.3,1c.4,1.84-.37,5.65-1.32,6.5a4.91,4.91,0,0,1-2,.91l2.07-8.43"/><path class="cls-81" d="M951.07,545.51c-.47-.19-.73-1.19-.58-2.35s.68-2.14,1.21-2.14h0c.15,0,.26.15.34.35l-1,4.13"/><path class="cls-70" d="M951.3,545.55h-.11l-.12,0,1-4.14a6.45,6.45,0,0,1,.09,2.57c-.14,1.17-.4,1.6-.88,1.6"/><path class="cls-25" d="M926.61,539.65a1.59,1.59,0,0,0-1.42,1c-.45,1.7-.05,4.91,1.18,6.08a4.86,4.86,0,0,0,1.75,1l-1.51-8.08"/><path class="cls-81" d="M927.72,545.52l-.83-4.41a.23.23,0,0,1,.17-.08h.05c.52,0,1.06.94,1.21,2.14s-.13,2.19-.6,2.36"/><path class="cls-70" d="M927.52,545.55c-.48,0-.75-.51-.89-1.68s-.12-2.42.26-2.76l.83,4.41-.1,0h-.1"/><path class="cls-25" d="M949.39,536.45c1.38.67.78,7.19.78,8.77,0,.62.68.33,1,.32a36.08,36.08,0,0,1-.82,8.05c-.43,1.49-7,6.4-10.81,6.4s-10.89-5.8-11.26-7.31c-.51-2.11-.44-3.79-.68-7.14.52.08,1,.1,1-.36,0-.69-1-8.93,2.91-10.71,2.57,1.84,15.15,2.69,17.9,2"/><path class="cls-23" d="M918.71,596.16a43.22,43.22,0,0,0-.93-7.3,43.22,43.22,0,0,1,.93,7.3m-.93-7.3h0m-2.9-10.92s0-.06,0-.09,0-.07,0-.11l0,.2"/><path class="cls-82" d="M918.71,596.16a43,43,0,0,0-.93-7.3h0a27.31,27.31,0,0,1-2.92-11s0,.06,0,.09a1.23,1.23,0,0,1,0-.2c0-.67-.07-1-.18-1.06h0l0,0a1.1,1.1,0,0,0,.1-.48c3,12.62,11.47,13.23,14.5,13.7-5.09.63-8.55,2.21-10.54,6.22m-4-19.92h0"/><path class="cls-26" d="M961.88,595.91c.13-3.2.31-5.91.47-7.18-.16,1.27-.34,4-.47,7.18m.47-7.18v0m0,0v0m0-.06s0,0,0,0,0,0,0,0m0,0h0m0,0h0m0,0h0m.06-.33h0m0,0h0m0,0h0m0,0h0m0,0h0m0,0h0m0,0h0m0,0h0m0,0h0m0,0h0m0,0h0m0,0h0m0,0h0m0,0h0m0,0h0m0,0h0m0,0h0m0,0h0m0,0h0m0,0h0m0,0h0m0,0h0a30.68,30.68,0,0,0,1.45-4.74,30.68,30.68,0,0,1-1.45,4.74h0"/><path class="cls-82" d="M961.7,603.9c-2.49-11.31-11.2-13.33-13.47-13.74,6-.68,14.26-2.16,16.76-13.92l0,.15a69.33,69.33,0,0,1-1,6.87,29.62,29.62,0,0,1-1.45,4.74h0s0,0,0,0h0v0h0v0h0a0,0,0,0,0,0,0h0a3,3,0,0,1-.06.33h0s0,0,0,0h0v.05h0v0h0c-.16,1.27-.34,4-.47,7.18-.1,2.52-.17,5.34-.18,8"/><path class="cls-28" d="M920.94,619.5h37a3.51,3.51,0,0,0,3.51-3.51h-44a3.52,3.52,0,0,0,3.52,3.51"/><path class="cls-21" d="M961.42,615.12h-44l-6.68-24.44a2.09,2.09,0,0,1,2-2.64h53.28a2.08,2.08,0,0,1,2,2.64Z"/><path class="cls-28" d="M961.42,616h-44l-6.68-24.45a2.09,2.09,0,0,1,2-2.63h53.28a2.08,2.08,0,0,1,2,2.63Z"/><path class="cls-7" d="M943.33,605c0,1.18-1.84,2.14-4.11,2.14s-4.1-1-4.1-2.14,1.83-2.15,4.1-2.15,4.11,1,4.11,2.15"/><path class="cls-63" d="M935.88,632.22a10.47,10.47,0,0,1-1,.32,112.18,112.18,0,0,1-17.69,1.79c-5.94.08-6.7,2.88-6.66,4.46s3.32,5.13,5.77,5.44c7.54,1,16.62-2.48,18.43-2.66,3.77-.37,5.77-3.09,6-4.6,0,0-3.58,1-2.82-.78a2.87,2.87,0,0,0-1.94-3.87c-.11,0-.14-.06,0-.1"/><path class="cls-64" d="M918.67,642.59a10.61,10.61,0,0,0-.9-8.27h-.62c-5.94.08-6.7,2.88-6.66,4.46s3.32,5.13,5.77,5.44c7.54,1,16.62-2.48,18.43-2.66a7.45,7.45,0,0,0,4.21-1.77c-5.08,1.34-20.32,5.17-20.23,2.79"/><path class="cls-17" d="M930.6,633.12a9.14,9.14,0,0,1,1.37,4.82V638h0v.38a.43.43,0,0,0,.42.44.44.44,0,0,0,.44-.43V638h0v-.06a10.1,10.1,0,0,0-1.5-5.27.44.44,0,0,0-.6-.15.43.43,0,0,0-.13.6"/><path class="cls-17" d="M928.16,633.51a9.14,9.14,0,0,1,1.37,4.82v.06h0v.38a.45.45,0,0,0,.43.44.44.44,0,0,0,.44-.43v-.39h0v-.06a10.07,10.07,0,0,0-1.5-5.28.42.42,0,0,0-.59-.13.43.43,0,0,0-.14.59"/><path class="cls-17" d="M925.69,633.82a9.15,9.15,0,0,1,1.38,4.82v.45a.43.43,0,1,0,.86,0v-.38h0v-.06a10.1,10.1,0,0,0-1.5-5.27.43.43,0,0,0-.74.45"/><path class="cls-17" d="M923.6,634.06a9.23,9.23,0,0,1,1.37,4.82v.06h0v.39a.43.43,0,0,0,.43.43.43.43,0,0,0,.43-.43v-.39h0v-.06a10.09,10.09,0,0,0-1.49-5.27.43.43,0,0,0-.6-.14.42.42,0,0,0-.14.59"/><path class="cls-83" d="M598.34,610.62c17.26-3.11,23.88,14.37,16,20s-26.75,11.81-26.75,11.81-6.59,3-7.15-2.37c-.41-4-.28-6,8.82-14.1,5.17-4.63,4-13.73,9-15.29"/><path class="cls-29" d="M555.32,589.54c3.34-8-.77-28.74-18.56-22.77-10.39.76-24.21,12.23-6.75,51.91.87,2,1.62,16.64-9.12,15.36,9.5,4,22.21.83,26-4.86,7.73-11.78,2.3-35.76,8.47-39.64"/><path class="cls-84" d="M552.34,596.67h0a16.5,16.5,0,0,1,1.44-5.38h0a16.23,16.23,0,0,0-1.45,5.39"/><path class="cls-85" d="M553.78,591.28h0a4.51,4.51,0,0,1,1.48-1.7,4.51,4.51,0,0,0-1.48,1.7m1.48-1.71a0,0,0,0,0,0,0,0,0,0,0,1,0,0m0,0h0m0,0h0"/><path class="cls-84" d="M551,568.94a11.67,11.67,0,0,0-8.21-3.23,11.67,11.67,0,0,1,8.21,3.23h0"/><path class="cls-85" d="M541.42,565.76c.44,0,.86,0,1.28,0h0c-.42,0-.84,0-1.28,0"/><path class="cls-85" d="M555.33,589.5c2.11-5.09,1.2-15.33-4.32-20.56h0c5.53,5.22,6.43,15.47,4.32,20.56"/><path class="cls-86" d="M552.34,596.66l-13.07-21-2.51-8.88.46-.15a19.5,19.5,0,0,1,4.2-.86c.44,0,.86,0,1.28,0h.09a11.68,11.68,0,0,1,8.22,3.23c5.52,5.22,6.43,15.47,4.32,20.56v0h-.05a0,0,0,0,1,0,0h0a4.66,4.66,0,0,0-1.47,1.7,16.5,16.5,0,0,0-1.44,5.38"/><polygon class="cls-87" points="543.22 604.7 532.51 630.4 537.21 633.73 551.72 612.39 543.22 604.7"/><path class="cls-88" d="M538.08,632.4c1.13-2.4,2.12-31.68,2.12-31.68l2.82-3.31-10.43-8.36-1,5.7a2.05,2.05,0,0,0,.29,1.51l2.56,4.12s-4.29,19.25-5.64,24.27c-1.22,4.5,1.69,11.38,3.11,12.23s5.07-2.09,6.21-4.48"/><path class="cls-87" d="M532.33,593l.26-3.92L543,597.41l-2.82,3.31s-5.44-3.57-7-5.33a3.25,3.25,0,0,1-.83-2.42"/><path class="cls-14" d="M544.87,602.18a26.16,26.16,0,0,1,8.06-6.61c.53-.93,10-6.34,10.71-6.93,0,0,13.3-9.17,19.1,6l-1.19,1.42s3.37,15.54,16.79,14.55c-2.12,7.24-11.79,24.56-17.25,22.2L575,628.08,563.53,625l-2.07-.37a11.27,11.27,0,0,1-8.84-7.87l-.68-2.3c.25.62-10.54-6.28-10.54-6.28a18.28,18.28,0,0,1,3.47-6"/><path class="cls-28" d="M569.49,641.09l3.52-7.3,0,1.1a2.1,2.1,0,0,1-.15.93l-2.13,6.68a1,1,0,0,1-1,.72L541.35,642a1.27,1.27,0,0,1-1.18-1.18l-.06-1.21,29.38,1.46"/><path class="cls-15" d="M540.9,640.34l28.82,1.22a.47.47,0,0,0,.48-.31L573,633.9a.59.59,0,0,0-.53-.77L546.38,632a.68.68,0,0,0-.56.24l-5.56,6.82a.8.8,0,0,0,.64,1.25"/><polygon class="cls-7" points="542.12 639.07 547.26 632.76 571.22 633.78 568.79 640.2 542.12 639.07"/><polygon class="cls-89" points="545.99 634.32 545.99 634.32 546.68 633.47 545.99 634.32"/><polygon class="cls-90" points="567.95 635.25 545.99 634.32 546.68 633.47 568.3 634.39 567.95 635.25"/><polygon class="cls-89" points="542.92 638.09 542.92 638.09 543.11 637.85 542.92 638.09"/><polygon class="cls-90" points="569.17 639.2 542.92 638.09 543.11 637.85 543.64 637.2 569.51 638.3 569.17 639.2"/><polygon class="cls-90" points="556.15 636.71 544.44 636.22 544.81 635.77 545.34 635.11 556.95 635.61 556.15 636.71"/><path class="cls-91" d="M637.55,629.48s.31-1.72,3.7-2.39c2.14-.43,11.07,2.48,16.67,3.72,2.27.5,4.22,3.65,4.41,4.64s-1.68,4.94-8.05,3.5-16.49-5.68-16.49-5.68Z"/><path class="cls-88" d="M640,627.82c2.72-.46,2,.24,11.39,2.54,4.4,1.07,4.9,7.63.3,6.77-8-1.51-7.22-2.59-10.72-3.29-2.69-3.15-4.63-5.39-1-6"/><path class="cls-15" d="M642.91,634.65s2.1-.63,1.84-3.62a4.56,4.56,0,0,0-2.48-3.91s-33.57,1.66-48.62,4.53c-16.36,3.13-13.15,8.66-12.54,10.72s6.16,4.07,21.73,1.65c14-2.19,16.94-5.65,40.07-9.37"/><path class="cls-83" d="M642.27,627.12c1.48.37,2.25,2.71,2.25,2.71a3.35,3.35,0,0,0-2.28-1.4c-10.87,1.79-35.73,9.62-48.17,9.92-6.61.16-10.28-.7-12.3-1.93,1.61-1.72,5-3.46,11.88-4.77,15.05-2.87,47.14-4.9,48.62-4.53"/><path class="cls-91" d="M639.91,622.44a5.73,5.73,0,0,1,4.33-3.14c2.14-.42,12.79,3,16,4.48,3.26,2.25,4.19,5.09,4.12,6.15s-1.39,3.43-7.76,2-16.49-5.68-16.49-5.68Z"/><path class="cls-88" d="M642.35,620.79c2.72-.47,2,.24,11.38,2.54,4.41,1.07,4.91,7.62.31,6.76-8-1.5-7.24-3-12.08-2.31-3.5-1.7-3.27-6.36.39-7"/><path class="cls-15" d="M641.68,620.88a3.46,3.46,0,0,1,1.66,3.42,7.32,7.32,0,0,1-1,3.43s-33.16,8.65-48.47,9c-16.65.41-14.68-5.68-14.53-7.82s4.85-7.46,20.58-8.38c14.11-.82,18.33,1.93,41.78.33"/><path class="cls-88" d="M581.55,596.07a67.69,67.69,0,0,1,13.89,23.37c.91,2.79-6.34,3.37-8.82.37L574,604.51Z"/><path class="cls-87" d="M583.57,614.32a13.14,13.14,0,0,1,6.78.63,5.63,5.63,0,0,1,3.38,2.74c.57,1.38-1,2.81-3,4l-.1,0a6.32,6.32,0,0,1-4-1.93c-1.15-1.38-2.72-3.29-4.38-5.28Z"/><path class="cls-88" d="M546.24,594.81l3.29-8.29s3.57,5.39,14.11,2.12c0,0-.94,21.28-7.24,22.8-3.91.95-10.16-16.63-10.16-16.63"/><path class="cls-87" d="M547.51,598.13c-.78-2-1.27-3.32-1.27-3.32l1.56-3.92,2.78-3.3a9.75,9.75,0,0,0,4.74,1.95c0,3.57-.47,10.89-4.43,16-.71-1.33-1.38-2.76-2-4.12a4.84,4.84,0,0,0-1.39-3.29"/><path class="cls-88" d="M553,583c0,2.06-1.08,4.77-1.85,4.79s-1.42-1.65-1.46-3.71.55-3.75,1.32-3.76,1.95.62,2,2.68"/><path class="cls-88" d="M547.14,602.05c7.61-5.18,6.92-12.36,3.71-18-5.83,3-2.73-8.15-11.58-8.43-2.88,9.52-8.1,12.8-7.23,15.56.13.38,1.91,1,2.41,2.18.82,1.93,1.42,4.1,3.95,5.5,3.65,2,6.86,4,8.74,3.16"/><path class="cls-88" d="M595.44,619.44c.57,1.38-1,2.8-3,4a18.67,18.67,0,0,1-11.16,2.47l-18.71-1.61-.72-4.53,23.4-3.7a13.24,13.24,0,0,1,6.78.63,5.59,5.59,0,0,1,3.37,2.75"/><path class="cls-87" d="M558.55,632.77a2.79,2.79,0,0,0,1.9-1.77c.12-.33.25-.67.36-.91.3-.69-2.47-.21-2.59.18-.05.14-.11,2.61.32,2.5Z"/><path class="cls-88" d="M552,630.2l3.24-5,6.63-5.42a4.13,4.13,0,0,1,1.32,5.41,11.57,11.57,0,0,1-3.56,4.16l-.41,2.64a1,1,0,0,1-.7.81l-2.76.82a1.28,1.28,0,0,1-1.22-1.07l-.15-2.43c-.34.34-1,1.24-1,1.24s-.27.13-.73,2.37-1.87,1.76-1.87,1.76Z"/><path class="cls-18" d="M385.15,448.72c3-3.3,14.09-12,21.71-11.6s9.21,2.61,9.21,2.61l-25.52,9.55-2.72,1.5"/><path class="cls-92" d="M443.8,598.47h0a15.55,15.55,0,0,1,6.12,2.92l1.07.84a.81.81,0,0,1,.22,1c-.69,1.32-11.32,14.86-13.22,18.23s-5.64,6.58-7.58,5.07c5.65-14.26,6.42-19.18,6.42-19.18Z"/><path class="cls-93" d="M436.74,621.53c1.71-3,11.46-16.08,13.88-19.59l.37.29a.82.82,0,0,1,.22,1c-.69,1.31-11.32,14.86-13.22,18.23-1.71,3-4.88,5.91-6.92,5.39,1.93-.53,4.29-2.89,5.67-5.34"/><path class="cls-83" d="M393.57,575.23l42.78,34.21s3.66.31,7.36-3.58,4-7,4-7l-34-32.18-8.88-6Z"/><path class="cls-94" d="M400.19,562.17s46,30.85,43.52,43.69c3.69-3.89,4-7,4-7l-34-32.18-8.88-6Z"/><path class="cls-78" d="M399,399.57c-.59.45-.77-.34-1-1.13s-.47-1.39-1.11-1.25c-14.46,3.2-7,15.33-4.18,17.91,7.64,6.9,7.08,17.28,12.42,17.48,8.8.33,16.73-9.57,16-19.94.22-14.57-12.87-20.1-22.17-13.07"/><path class="cls-25" d="M417.12,421.81l-12,5.48-.36,5.09a9,9,0,0,1-3.44,7s-14,13.8-2.57,14.59,23.07-14.76,23.07-14.76c-5.3-7.64-4.66-17.37-4.66-17.37"/><path class="cls-80" d="M385.15,448.72s-7.09,7.64-9.25,13.6c-.47,1.3-7.66,18.16-11.07,20.85-.8.64,5.5,6.58,6.53,2,2.12-9.49,11.25-18.16,11.25-18.16s6.57-6.08,9.74-8.93c3.5-3.14-7.2-9.35-7.2-9.35"/><path class="cls-95" d="M387.05,461.68Zm0,0h0m0,0h0m0,0h0m0,0h0"/><path class="cls-96" d="M386.43,463.48c.25-2.28-2.05-4.82-4.24-8.83a9.77,9.77,0,0,0,5.92,3.43,10.94,10.94,0,0,0,.88,2.37c-1.11.73-1.89,1.2-1.93,1.22h0c0,.06.8-.57,0,1.22"/><path class="cls-80" d="M368.07,482.32l-10,1.05a2.71,2.71,0,0,0-1.34.53l-5.24.69a5.75,5.75,0,0,1-1.78.59l-3.13.86c0,1,.23,2.29,1.71,1.92l5.11-1,3.89,0c.21-.11.88.51,1.11.58a.89.89,0,0,1,.18,1.6l-4,2.42a1.06,1.06,0,0,0,.95,1.89l6.13-2.53,8.76-4.31Z"/><path class="cls-83" d="M393,504.12l-.83,6.75-1.43,11.4-3.9,26.07a79.5,79.5,0,0,0-.78,15.87,12.42,12.42,0,0,0,5.53,9.7l2,1.32,11.62-1.33-.72-10.73,14.86-56.48Z"/><path class="cls-94" d="M405.93,520.32,401,558.49a6.26,6.26,0,0,0,2.18,5.58l1.4,1.17,14.72-58.55Z"/><path class="cls-92" d="M414.73,617.15c.21,3.31-1.08,5.49-2.1,9.58-.67,2.71-.92,6.19,5.71,6.42,6.14.21,6.14-4.29,6.09-4.93s-.86-7.83-.86-7.83Z"/><path class="cls-93" d="M418.55,631.65a13.87,13.87,0,0,0,5.24-.79c-.73,1.23-2.26,2.4-5.44,2.29-3.85-.13-5.38-1.36-5.86-2.89a13.7,13.7,0,0,0,6.06,1.39"/><path class="cls-15" d="M397.68,505.13,399.07,517a7.65,7.65,0,0,0,3.55,5.59,5.2,5.2,0,0,1,2.33,3.27l6.18,41.54,1.13,54.64s1.13.92,6.61,1.3S425,622,425,622l2.9-25.55c.65-6.6,1.71-13.95.64-20.5l-1.2-7.35,2.17-22.33c.51-4.87,1.18-10.51.8-15.38l-.44-5.64a8.11,8.11,0,0,1,.37-3.09,23.35,23.35,0,0,0,1-9.43l-.87-8.9-32.66,1.33"/><path class="cls-83" d="M424.16,568.38a182.28,182.28,0,0,0-.61-45.58s-13.9,0-14.5-12.64l21.09-6.35h.2l.87,8.9a23.35,23.35,0,0,1-1,9.43,7.89,7.89,0,0,0-.37,3.09l.44,5.64c.38,4.87-.29,10.51-.8,15.38l-2.17,22.33,1.2,7.35c1.06,6.55,0,13.9-.64,20.5L425,622s4.84-33.61-.8-53.59"/><path class="cls-15" d="M421.9,510c.37,4.07,1.22,9.94,1.22,9.94s-8.23.85-10.44-6.46S421.9,510,421.9,510"/><path class="cls-18" d="M434,443.5l-12.2-4.32S413,450.56,402,449c-3.12-.44-3.42-7-.75-9.68a3.8,3.8,0,0,1-1.07-.13c-1.89-.31-9.32,4.7-15.06,9.5-1.14,2.09,1.35,7.63,4,12.06.47-.17,2.13-1.12,2.13-1.12v.08a42.09,42.09,0,0,0,.6,10.92c1,5,2.2,12.26,2.08,14.75-.5,10.39-4,22.43-2.87,24.42,1.64,2.86,16.16,8,40.25,2.56.46-23.18,1.9-40.67,1.9-40.67l5.52-8.56a15.5,15.5,0,0,0,2.15-12c-.78-3.25-2.67-6.48-6.95-7.68"/><path class="cls-25" d="M409.65,483.73l9.25-18.33c2.06,3.74,11.19,6.56,14.36,6.32,0,0-12.61,16.58-18,22.46-1,1.14-3.16.69-4.65.29l-25.8-8.08.93-6.55Z"/><path class="cls-28" d="M377.59,477.21l-10.51-.91-9.69-.95a2.52,2.52,0,0,1-2-1.28l-5.66-9.92a2,2,0,0,1-.21-1.35l.17-.79,24.5,2.55a2.53,2.53,0,0,1,1.92,1.15l6.73,10.3a.78.78,0,0,1-.66,1.2Z"/><path class="cls-15" d="M378,476.09l-10.51-.92-9.69-.94a2.55,2.55,0,0,1-2-1.29l-6-10.48a.78.78,0,0,1,.74-1.16l24,2.13a2.56,2.56,0,0,1,1.92,1.15l6.72,10.3a.78.78,0,0,1-.65,1.21Z"/><polygon class="cls-7" points="376.2 474.93 367.32 474.16 358.01 473.25 351.79 462.32 374.4 464.33 381.32 474.93 376.2 474.93"/><polygon class="cls-28" points="377.61 473.72 375.76 473.58 370.98 464.82 372.4 464.93 377.61 473.72"/><polygon class="cls-28" points="361.17 464.05 369.72 464.72 374.78 473.51 365.46 472.81 361.17 464.05"/><polygon class="cls-28" points="378.82 473.81 373.73 465.04 374.93 465.13 380.68 473.95 378.82 473.81"/><polygon class="cls-28" points="359 463.88 363.52 472.66 358.94 472.32 353.86 463.48 359 463.88"/><path class="cls-25" d="M367.08,476.3l10.51.91a1.75,1.75,0,0,0,1.47-2.88l-1.63-1.9c-.9-1.63-.89-2.88.34-3.52l5.92,5.48,3.08,8.09,1.36,4.38-5.73.17a19.76,19.76,0,0,1-7.82-1.85c-1.7-.2-2.08-2.26-2.08-2.26.09-.33-.91-1.12-1.08-1.42l-.39-.74a1.34,1.34,0,0,1,.06-1.39s-3.37-.56-3.63-1a1.48,1.48,0,0,1-.38-2.06"/><path class="cls-97" d="M403.28,437.2a10.24,10.24,0,0,0,1.43-4.66,10.35,10.35,0,0,1-1.42,4.66h0"/><path class="cls-98" d="M401.28,439.35h0m.8-.68,0,0a7.73,7.73,0,0,0,1.18-1.45h0a8,8,0,0,1-1.21,1.47"/><path class="cls-99" d="M404.71,432.54h0v0m0,0v0m0,0v0m0,0v0m0,0h0"/><path class="cls-100" d="M402.83,439.73a2.64,2.64,0,0,1-1.55-.38h0a3.44,3.44,0,0,0,.79-.67,7.58,7.58,0,0,0,1.2-1.47,10.12,10.12,0,0,0,1.43-4.66v0h0v0h0v0h0v0h0v0l.35-5.09,10.12-3.37c0,.08,1.35,9.14-5.43,13.62a16.79,16.79,0,0,1-6.93,2.19"/><path class="cls-25" d="M413,418.18c-1.18-6.53-4.13-4.33-5.82-6.6-3.92-5.24-8,1.06-14.43,3.52,0,.5,1.92,9.84,2.41,11.2,3.33,9.09,2.89,10.36,9.16,9s10.63-5.16,11.81-9.43c.3-1.1,1.55-6,1.55-6-1.17.09-4.24.81-4.68-1.65"/><path class="cls-25" d="M415.55,414.83c-.7.61-.33,8.49.59,8.53,2.29.1,3.33-3.66,3.59-6.12.34-3.28-2.93-3.47-4.18-2.41"/><path class="cls-101" d="M425,520c-.52,0-1-.93-1.08-2.12s.3-2.22.83-2.25h0c.53,0,1,.94,1.08,2.12S425.58,520,425,520h0"/><path class="cls-102" d="M389.18,460.78h0l-.15-.27s1.68-6.54,3.67-9.73a31,31,0,0,0-1.39,8.88s-1.66.95-2.13,1.12"/><path class="cls-18" d="M754.2,537.5c.87-3,2.73-8.29,8.14-8,6.58-4.32,15-.45,18.09,4.31,9.58,14.87-5.06,55-7.35,57-3,2.68-9.69-32-9.69-32a17.67,17.67,0,0,1-9.19-21.26"/><path class="cls-103" d="M777.19,564.52l-1.1-.26-1.83-.47a5.43,5.43,0,0,1-.34-.73h0a4.24,4.24,0,0,1-.25-.88l-1.35-7.45-4.8.16c-1.91-7.09-3.56-14.13-4.27-16.9a7.85,7.85,0,0,1,5.15-1.8c3.9,0,7.9,2.43,9.12,5.75,2.14,5.79,1,15.09-.34,22.59"/><rect class="cls-104" x="753.69" y="615.46" width="30.47" height="10.78"/><path class="cls-105" d="M772.42,563.33l3.67.93a36.44,36.44,0,0,1,9.82,3.67,11.21,11.21,0,0,1,5.65,8.54c.94,8.67.71,21.27-2.28,28.64l-9.67,10.82-7.43,4.41s-17.33-13.46-23.13-18.16-5.48-13.88-4.36-21.7,3.6-13.82,14-16.72a12.5,12.5,0,0,1,1.38-.33l3.17-.6,9.18.5"/><path class="cls-106" d="M756.91,596.12c-1.26,0-4.34-.43-2.19-4.93,2.65-5.56,2-18.37,2-18.37,2,4.57.66,23.28.66,23.28s-.2,0-.49,0"/><path class="cls-106" d="M780.31,594.22c-.37-3.81-.76-9.39-.31-12.91.75-5.78,4.24-8.11,4.24-8.11a48.87,48.87,0,0,0-2.4,8.41c-.35,2.32-.67,8.27-.87,12.41a5.53,5.53,0,0,0-.66.2"/><path class="cls-104" d="M775.23,635.92H763a12.56,12.56,0,0,1-12.53-11.68l-1.46-21,13.43,1.23L769,623.69l8.2-23,12.6-.16-2.09,23.94a12.55,12.55,0,0,1-12.51,11.46"/><path class="cls-49" d="M760.84,667.45a4.11,4.11,0,0,0,4.68-2.76l1.79-9.57c.74-2.26.73-4.29-1.53-5s-3.47.89-4.21,3.15l-4.12,8.46a4.44,4.44,0,0,0,3.39,5.75"/><polygon class="cls-107" points="758.73 660.69 763.37 650.67 766.03 638.4 772.74 640.6 767.4 652.77 765.33 663.2 758.73 660.69"/><polygon class="cls-108" points="765.34 663.2 758.73 660.68 763.37 650.67 766.03 638.4 772.74 640.6 767.4 652.77 765.34 663.2"/><path class="cls-109" d="M772.74,640.6l16.75-37.39a7.16,7.16,0,1,0-13.81-3.74L766,638.4l6.71,2.2"/><polygon class="cls-110" points="766.63 635.98 766.63 635.98 766.65 635.92 766.63 635.98"/><polygon class="cls-111" points="766.65 635.92 766.65 635.92 770.87 618.91 766.65 635.92"/><polygon class="cls-112" points="772.74 640.6 772.74 640.6 768.01 639.05 766.63 635.98 766.65 635.92 770.86 618.91 775 635.57 772.74 640.6"/><path class="cls-49" d="M777.7,667.45h0a4.11,4.11,0,0,1-4.68-2.76l-1.79-9.57c-.74-2.26-.73-4.29,1.53-5s3.47.89,4.21,3.15l4.12,8.46a4.44,4.44,0,0,1-3.39,5.75"/><polygon class="cls-107" points="779.81 660.69 775.17 650.67 772.5 638.4 765.8 640.6 771.14 652.77 773.2 663.2 779.81 660.69"/><path class="cls-109" d="M765.8,640.6l-16.75-37.39a7.16,7.16,0,1,1,13.81-3.74l9.64,38.93Z"/><path class="cls-107" d="M775.25,565.05a2.47,2.47,0,0,1-.94,4.22,24.38,24.38,0,0,1-6.27.64c-3.75,0-6.09-.54-7.53-1.25a2.46,2.46,0,0,1-.43-4.13,5.22,5.22,0,0,0,2-3.43L763,555l9.31-.31,1.35,7.45a5.13,5.13,0,0,0,1.57,2.88"/><path class="cls-113" d="M773.92,563.06a5.31,5.31,0,0,1-.24-.89,5,5,0,0,0,.25.88h0"/><path class="cls-108" d="M769,565.26a2.45,2.45,0,0,1-1-.21c-.36-.15-.75-.32-1-.46a13.85,13.85,0,0,1-4.7-4.53l.25-1.73.86.43s0-1.46.05-3.74l8.89-.3,1.35,7.45a4.5,4.5,0,0,0,.24.89,12.71,12.71,0,0,1-4.25,2.1,2.74,2.74,0,0,1-.69.1"/><path class="cls-103" d="M762.53,558.33a17.4,17.4,0,0,1-9.1-15.5,18.83,18.83,0,0,1,.77-5.33c.85-2.89,2.65-8,7.78-8h.36c1.15,4,1.16,18.62,1.1,25.57H763l-.49,3.3"/><polygon class="cls-114" points="762.53 558.33 762.53 558.33 763.02 555.03 763.44 555.02 763.02 555.03 762.53 558.33"/><path class="cls-115" d="M763.39,558.76l-.86-.43L763,555h.42c0,2.28-.05,3.74-.05,3.74"/><path class="cls-107" d="M767.91,562.69h0a2.59,2.59,0,0,1-1.67-.11c-.36-.15-.76-.33-1-.47a15.67,15.67,0,0,1-6.62-8.38,7,7,0,0,1-.27-3.18l.42-2.9c-.13-1.57-.76-3.56.27-4.75l4.24-4.92,9,7.86c.61.44,5.26,5.85,4.56,8.06l-.08.28a12.82,12.82,0,0,1-8.78,8.51"/><path class="cls-7" d="M761.53,580.48h8a.55.55,0,0,0,.55-.54V564.62a.55.55,0,0,0-.55-.54h-8a.54.54,0,0,0-.54.54v15.32a.54.54,0,0,0,.54.54"/><path class="cls-28" d="M761.53,581.77h8a.55.55,0,0,0,.55-.55V565.91a.55.55,0,0,0-.55-.55h-8a.55.55,0,0,0-.54.55v15.31a.55.55,0,0,0,.54.55"/><path class="cls-22" d="M763.34,567.15a.67.67,0,1,1-.66-.66.67.67,0,0,1,.66.66"/><path class="cls-107" d="M789,592.67,772.53,582.2l-.7-6.21a2.93,2.93,0,0,0-2.14-2.48l-8.42-2.27a.76.76,0,0,0-1,.82l.32,2.94a8.79,8.79,0,0,0,2.66,5.38L789.11,605a8.85,8.85,0,0,0,.3-11.83Z"/><path class="cls-107" d="M753.08,594.38s18.65,8.85,24.71,8.64,8-1.17,8-1.17l2.66,2.41a2.78,2.78,0,0,1,.62,3.27l-.62,1.25a4.07,4.07,0,0,1-5.27,1.94l-5.24-2.27s-26-4.68-29.45-6.75-4.09-8.39-4.09-8.39a18.71,18.71,0,0,1,8.68,1.07"/><path class="cls-14" d="M162.66,620.09l.12-.28,21.82-1.57,13.15-28.12,6.16,41.44L191.5,632l3.73,5.47L204.94,661l-4.71,10-13.86-14.89L179.9,646.1l-15.71-10c-3.59-5.65-4.16-9.87-1.53-16"/><polygon class="cls-116" points="200.23 671.05 186.37 656.16 179.9 646.1 164.19 636.11 181.78 642.07 189.03 655.32 201.77 667.77 200.23 671.05"/><path class="cls-117" d="M191.5,632l-5.84-11.65h.17a5.9,5.9,0,0,0,5.77-4.64l4.6-20.88A19.13,19.13,0,0,0,196,601l6.6,30.63-11.13.4"/><polygon class="cls-118" points="207.16 654.39 206.2 646.64 215 645.55 215.84 653.97 207.16 654.39"/><path class="cls-119" d="M207.16,652.62l1.22-.26c.07-1.39,1.49-2.65,3.37-2.88,2.05-.25,3.86.79,4.05,2.34a1.53,1.53,0,0,1,0,.37h0l5.43,8.53a3.16,3.16,0,0,1-1.54,4,24.23,24.23,0,0,1-9.81,2.4h-.37a3.14,3.14,0,0,1-3.18-2.55Z"/><path class="cls-42" d="M206.37,664.61l.2-8.28a14.09,14.09,0,0,1,.59-3.71l0,10.76c.3,1.51,1.52,1.55,2.55,1.57H210a24.38,24.38,0,0,0,9.81-2.39,3.19,3.19,0,0,0,1.5-1.58,3.13,3.13,0,0,1-1.61,3.78,24.23,24.23,0,0,1-9.81,2.4h-.37a3.14,3.14,0,0,1-3.18-2.55"/><path class="cls-14" d="M214.36,593.78a9.4,9.4,0,0,0-9.81-8.29l-3.86.19A19.31,19.31,0,0,0,196,601l10.12,46.88,10.14-1.25-1.92-52.83"/><path class="cls-120" d="M144.44,576.67l-5.61,28.39s-15.72,20.93-17.1,21.68-6.7.45-6.7.45a36.72,36.72,0,0,0-7.82,1.55l-4.53,2.52a.59.59,0,0,0,.28,1.1s6.69-1.17,10.36-1.37c4.31,1.37-4.1,1.37-3,3.45h5.55l5.41-2.08s12.59-6.5,16.1-9.52a119.71,119.71,0,0,0,9.41-10s5.74-12.74,6.9-22.78c-2.9-4.88-9.2-13.4-9.2-13.4"/><path class="cls-121" d="M224.11,592.71c0-4.92-8.91-17.3-15.14-24.59-2.64,5.32-5.62,13.13-7.22,13.23,1.77,4.44,6.77,5.81,6.77,5.81.1.72,16.87,17.1,15.59,5.55"/><path class="cls-122" d="M143.26,574.89c.62-7.7,5.86-12.89,17.09-14.64s24.81-1.68,31.75-.51,11.17,1.71,17.87,8.38c-.62,5.31-5.19,13.43-8.93,20l-4.61,5.63-4.83,21.93a5.91,5.91,0,0,1-6.42,4.61l-4.21-.28c-1.51-.09-2.86-.17-4.2-.22a22.52,22.52,0,0,0-13.17,3.52,15.59,15.59,0,0,0-1.72,1.26,1.45,1.45,0,0,1-2.39-.9s-3.5-26.64-7.65-33.59c-2-3.26-8.58-15.23-8.58-15.23"/><path class="cls-123" d="M199.13,590.5h0l1.91-2.34,0-.06,0,.06-1.91,2.34m2-2.45h0"/><path class="cls-124" d="M199.13,590.5l-.41-.41-.24-.25c-.87-.5-3.92-1-5.89-1.86-1.49-.68-2.1-2.26-1.78-2.67a1.1,1.1,0,0,0,0-1.17,1.76,1.76,0,0,1,0-1.68,1.06,1.06,0,0,0,0-1.1c-.48-.87-.18-2,.8-2l.28,0v-1.2c-1.8-1.09-3.86-2.36-4-2.91s-.1-.92.72-1.06l.26,0a3.49,3.49,0,0,1,1.34.39l1.72.85v-3.87a2,2,0,0,1,2-2h8a2,2,0,0,1,2,2v3.55a1.76,1.76,0,0,1,1.66-1.26h.1c.66,0,.36,1.67.49,2.61l.43,1.55c-1.64,3.38-3.62,6.89-5.41,10.06h0l0,.05,0,.06-1.91,2.34"/><path class="cls-23" d="M159.51,623.81a.36.36,0,0,1,0-.1s-2.77-21.1-6.31-30.64c3.54,9.54,6.31,30.64,6.31,30.64a.36.36,0,0,0,0,.1"/><path class="cls-125" d="M160.93,625a1.44,1.44,0,0,1-1.42-1.16,1.44,1.44,0,0,0,1.42,1.16,1.15,1.15,0,0,0,.26,0,1.15,1.15,0,0,1-.26,0"/><path class="cls-123" d="M161.19,625h0a1.6,1.6,0,0,0,.66-.31,1.6,1.6,0,0,1-.66.31"/><path class="cls-123" d="M161.88,624.61h0a15.59,15.59,0,0,1,1.72-1.26l.06,0-.06,0a15.59,15.59,0,0,0-1.72,1.26m1.94-1.4a22.52,22.52,0,0,1,12-3.4,22.52,22.52,0,0,0-12,3.4m21.36-2.88h0l-4.21-.28c-1.51-.09-2.86-.17-4.2-.22h0c1.34,0,2.69.13,4.2.22l4.21.28m-9.34-.52h0"/><path class="cls-23" d="M143.63,575.56h0l-.13-.22a2.36,2.36,0,0,1,.13.23m-.37-.67h0"/><path class="cls-124" d="M160.93,625a1.44,1.44,0,0,1-1.42-1.16.36.36,0,0,1,0-.1s-2.77-21.1-6.31-30.64a19.48,19.48,0,0,0-1.34-3c-1.45-2.42-5.48-9.65-7.45-13.2l-.76-1.36c.27.47,9.5,16.69,24.48,24.24,15.2,7.67-10,6.33-3.18,11.27,4.49,3.26,15.86,6.84,23,8.89a6,6,0,0,1-2.16.4l-.64,0-4.21-.28c-1.51-.09-2.86-.17-4.2-.22h-1a22.52,22.52,0,0,0-12,3.4l-.16.1-.06,0a17,17,0,0,0-1.72,1.27l0,0a1.6,1.6,0,0,1-.66.31l-.26,0M143.5,575.33l-.24-.44.24.44"/><path class="cls-121" d="M180.86,546.81l-11.38-1,0,4.23c.4,6.07-5.42,10.72-5.42,10.72,3.6,5,18,14.61,19,13.83,3.2-2.52,6.11-14.12,5.24-14.3a4,4,0,0,1-3.15-3.45l-.63-6.53a3.93,3.93,0,0,0-3.58-3.53"/><path class="cls-119" d="M199.59,672.2l-1-3.19s2.2-14.79,6.2-22-5.25,25.21-5.25,25.21"/><path class="cls-42" d="M205,675.63h0c3.67-.81,5.61-4.17,4.85-8.41a8.16,8.16,0,0,1,.75-5.46l3.88-6.83a12.55,12.55,0,0,0,1.31-8.33,11.09,11.09,0,0,0-1-3.27c-.76-1.5-3-1.61-4.6-1-2.72,1-5.23,3.16-5.87,6.14l-4.88,22.66c-.45,2.08,3.51,5,5.56,4.53"/><path class="cls-126" d="M200.92,671.45l4.88-22.66c.64-3,3.15-5.12,5.88-6.14a5.33,5.33,0,0,1,2.09-.31,4.81,4.81,0,0,0-3.54,0c-2.72,1-5.23,3.16-5.88,6.14l-4.87,22.66c-.41,1.91,2.86,4.48,5,4.56-1.9-.78-3.89-2.7-3.56-4.21"/><path class="cls-120" d="M204.94,576c3.36,4.09,8.29,6.31,11.78,8.41s6.8,7,7.39,10.12c.49,2.58-6.36,6.45-13.09,1.92s-7.59-11-12.09-15.26c-5.16-4.91,2.82-7.11,6-5.19"/><path class="cls-127" d="M194.06,557.78h8a2,2,0,0,1,2,2V574.9a2,2,0,0,1-2,2h-8.53c-1.08,0-1.46-.87-1.46-2V559.74a2,2,0,0,1,2-2"/><path class="cls-15" d="M194.06,558.85h8a2,2,0,0,1,2,2v14.63a2,2,0,0,1-2,2h-8.53c-1.08,0-1.46-.88-1.46-2V560.81a2,2,0,0,1,2-2"/><path class="cls-128" d="M194.47,560.29c.43,0,.77.21.77.47s-.34.46-.77.46-.77-.21-.77-.46.35-.47.77-.47"/><path class="cls-120" d="M188.78,565.24a2.67,2.67,0,0,1,1.59.37c2.28,1,10.44,5.59,12.15,5.44,1.94-.17,1.12-2.67,1.12-2.67a5.32,5.32,0,0,1,.29-2c.51-1.37,1.3-1.55,1.88-1.52s.35,1.67.49,2.61l1.42,5.17-2.29,7.15-6.5,1.34c-.1-.61-3.84-1.06-6.13-2.11-1.49-.68-2.1-2.25-1.78-2.66a1.09,1.09,0,0,0,0-1.18,1.76,1.76,0,0,1,0-1.68,1.06,1.06,0,0,0,0-1.1c-.53-.94-.12-2.25,1.07-2,1.56.52,2.73,1.67,2.32.24-1.36-1-6.08-3.5-6.35-4.35-.18-.53-.11-.92.72-1.06"/></g><g class="cls-129"><path class="cls-120" d="M168.62,535.16s-1.36,2.11-2.41,2-2-.24-2,1.27.47,4.83,1.33,5.66,3.28,2,3.67,1.47.79-.11.79,2.5,1.11,4.91,5,7.3,5.52,3.32,7.64,3.32,4.25-.43,5.51-2.13a23,23,0,0,0,3.53-10.26c.42-4.43.64-8.09.81-9.74a18.86,18.86,0,0,0-.91-6.88c-.69-1.66-4.39-5.91-4.39-5.91l-11.92-1.54-6.59,10Z"/><path class="cls-130" d="M170.37,543.39s-.45-3,0-4.31,1.75-1.35,2.37-3.63-1.54-3.93-.09-5.51c1.2-1.32,2.55-.26,6.13-2.36s11.28.29,12.18,1.16,1.43,4.62,1.43,4.62a4.37,4.37,0,0,1,.77-2.91c.73-1.12,1-.31,1.37-2.12,0-.21.63-1.45.63-1.72s.51-.69.44-1c-.31-1.57,0-2.94-.69-4.58-.15-.39-.66-.56-.85-.94a5.46,5.46,0,0,0-.44-.87c-.81-1.18-.63-1.44-2.14-2.06a32.79,32.79,0,0,0-4.36-1.47c-.4-.11-.7,0-1.1-.11s-.94-.4-1.28-.46-.81-.12-1.1-.17-.47,0-.89-.1a22.25,22.25,0,0,0-5.53,0,18.59,18.59,0,0,0-5.73,1.75c-.25.12-.28.17-.51.29s-.37.24-.68.39-.26.36-.56.65-1.5.38-1.74.6c-1.4,1.33-3.3,3.39-3.43,6.41s.86,5.67.85,7.33.09,4.33.78,4.89,2,0,2.68,1.61a44.14,44.14,0,0,1,1.48,4.67"/><path class="cls-131" d="M170.37,543.39s-.45-3,0-4.31,1.75-1.35,2.37-3.63-1.54-3.93-.09-5.51c1.2-1.32,2.55-.26,6.13-2.36s10.4.9,11.46,1.48c1.25.69,1.28,1.35,1.51,1.3s-.37-.72,0-1.09c.2-.21.39-2.68,2.75-3-1.06-.74-3.61.61-3.67.16s.52-1.81,3.74-3.18c-1.94-.24-4.46.89-4.55.47,1.62-3,1-5.34.65-5.6.62,3-3.48,5.64-3.48,5.64s1.77-3.07-1.84-6.51a6.31,6.31,0,0,1-.3,5c-.14.29-2.33-4.17-2.5-4,.84,1.37.6,4.67.36,4.57-.63-.27-2-4.07-3.08-4.13,1.21,3.7,0,4.61,0,4.61s-2.93-4.24-4.58-4.16c2.25,3,.05,4.12-.48,4.62s-1.78-4.42-2.64-4.45c1.3,3.34-2.63,4.69-2.71,6.6,0,.64-.07-4-1-3.63.95,2.8-3.54,6.06-3.41,6.77a20.33,20.33,0,0,1,.47,3.16c0,1.67.09,4.33.78,4.89s2,0,2.68,1.61a44.14,44.14,0,0,1,1.48,4.67"/><path class="cls-131" d="M182.55,536.77c.61.45,1.26,1.14-.54,1.05s-4.53-.84-6.79.41.08-1.75,3.62-2,3.71.49,3.71.49"/><path class="cls-131" d="M188.32,535.92c-.79.52-1,1.67,0,1.45s1.8-1.08,3-.54,1.21.15.85-.56a2,2,0,0,0-1.8-1,4.66,4.66,0,0,0-2,.61"/><g class="cls-132"><g class="cls-133"><g class="cls-134"><path class="cls-135" d="M182.64,547a.43.43,0,0,1-.34-.37.44.44,0,0,1,.38-.47,7.25,7.25,0,0,1,1.87.12c.53.11.84.2,1.11.28s.45.12.78.19a1.47,1.47,0,0,0,1.05-.3.43.43,0,0,1,.6.08.43.43,0,0,1-.07.59,2.36,2.36,0,0,1-1.76.46c-.35-.07-.58-.14-.83-.21s-.55-.15-1.05-.25a5.59,5.59,0,0,0-1.61-.11.29.29,0,0,1-.13,0"/></g></g></g><path class="cls-136" d="M180.23,550.83a20.57,20.57,0,0,1,4.36-.77c.94.15,1,.22,1.45,0a3.56,3.56,0,0,1,2.76.49c.7.54-1.05,1.88-1.47,1.95a7.54,7.54,0,0,1-4.53.2c-2.17-.88-2.81-1.49-2.57-1.91"/><path class="cls-137" d="M180.54,551.31l-.12,0a.27.27,0,0,1-.23-.29.26.26,0,0,1,.32-.18,24.07,24.07,0,0,0,5.14.37,8,8,0,0,0,2.89-.53.32.32,0,0,1,.38.08.21.21,0,0,1-.07.33,8.27,8.27,0,0,1-3.13.6,23,23,0,0,1-5.18-.36"/><path class="cls-138" d="M180.86,539.87a1.05,1.05,0,1,1-.82-1.25,1,1,0,0,1,.82,1.25"/><path class="cls-138" d="M190.14,539.71a1,1,0,1,1-.76-1.17,1,1,0,0,1,.76,1.17"/><path class="cls-139" d="M176.43,540.06a.34.34,0,0,1-.22-.15.33.33,0,0,1,.12-.47,7.31,7.31,0,0,1,3.69-1c1.68.07,2.14.9,2.18,1s0,.53-.61.3,0,0,0,0-.33-.56-1.61-.62a6.65,6.65,0,0,0-3.31.87.32.32,0,0,1-.25,0"/><path class="cls-139" d="M187,540a.35.35,0,0,1-.14-.06.34.34,0,0,1-.06-.48,3.61,3.61,0,0,1,1.85-1,2.76,2.76,0,0,1,2.48.5.34.34,0,0,1,0,.48.34.34,0,0,1-.48,0,2.1,2.1,0,0,0-1.84-.36,3.36,3.36,0,0,0-1.51.78.31.31,0,0,1-.33.12"/><g class="cls-141"><g class="cls-142"><g class="cls-143"><path class="cls-144" d="M166.17,538.73s1.69.81,2,1.81-.44,1-.37,1.8a1.33,1.33,0,0,0,.75,1.07"/></g></g></g></g><g class="cls-4"><polygon class="cls-17" points="686.41 482.82 681.8 482.93 695.75 453.79 701.4 452.77 686.41 482.82"/><polygon class="cls-145" points="682.79 481.93 695.48 455.43 699.83 454.88 686.41 481.8 682.79 481.93"/><path class="cls-21" d="M701.78,453h0a1.56,1.56,0,0,1,.7,2.1l-13.59,27.25a1.56,1.56,0,0,1-2.1.7Z"/><polygon class="cls-145" points="686.41 482.82 686.8 483.01 701.78 452.96 701.4 452.77 686.41 482.82"/><path class="cls-21" d="M688.48,482.69H653a2.26,2.26,0,0,0,2.26,2.25h31a2.26,2.26,0,0,0,2.26-2.25"/><path class="cls-145" d="M653,483.17h35.42a2,2,0,0,0,.06-.48H653a2.61,2.61,0,0,0,0,.48"/><polygon class="cls-49" points="685.36 476.57 684.72 477.9 688.28 478.05 689.01 476.57 685.36 476.57"/><polygon class="cls-49" points="694.57 457.33 698.72 457.11 699.83 454.88 695.48 455.43 694.57 457.33"/><polygon class="cls-49" points="687.05 480.5 687.8 479 684.22 478.94 683.47 480.5 687.05 480.5"/><polygon class="cls-49" points="686.54 474.1 685.93 475.36 689.62 475.36 690.27 474.04 686.54 474.1"/><polygon class="cls-22" points="694.72 458.4 689.22 469.56 691.97 469.56 697.77 458.16 694.72 458.4"/><polygon class="cls-49" points="687.73 471.61 687.13 472.87 690.86 472.87 691.51 471.56 687.73 471.61"/><path class="cls-146" d="M665,415c-6.59,5.61-.72,14.39-11.83,20-9.52,4.79-8.17,10.82-6.73,13.8-10.78,0-11.43-20-10.65-22.68S646.48,412.54,665,415"/><path class="cls-122" d="M606.46,473.21c.29,5.71,28.08,14.42,36.21,25.33,1.39,1.86,2.06,7.54-.79,10.71L612,544.83l-2.13-5.36a81.56,81.56,0,0,0,7.62-14.69c5.86-15.48,10.41-16.07,11.73-17.51,1.57-1.72-3.39-2-8.42-4.17s-23.46-9.29-32.09-18.68c-7.21-16,17.49-17.19,17.78-11.21"/></g><g class="cls-147"><rect class="cls-148" x="602.71" y="474.38" width="41.16" height="64.33"/></g><g class="cls-4"><path class="cls-149" d="M624.55,449.73a91.82,91.82,0,0,0-3.83,18L629.8,485l-3.64,1.42s-11.41-12.44-13-14.65,2.74-26.81,2.74-26.81l8.64,4.8"/><path class="cls-145" d="M624.55,449.73a91.82,91.82,0,0,0-3.83,18,23.52,23.52,0,0,0-7.88.83c.2-7.23,3.07-23.6,3.07-23.6l8.64,4.8"/><path class="cls-150" d="M624.55,449.73a91.82,91.82,0,0,0-3.83,18,23.52,23.52,0,0,0-7.88.83c.2-7.23,3.07-23.6,3.07-23.6l8.64,4.8"/><path class="cls-149" d="M629.13,484.2l7.92,3.77a1.17,1.17,0,0,1,.52.49l3,6.69a.45.45,0,0,1-.61.59,4.54,4.54,0,0,1-1.74-1.4L636.63,492a28.61,28.61,0,0,0-3.33-2.33c-2.43.61,2.26,3.58.92,4.7l-3.66-2.68-4.4-5.32Z"/><path class="cls-23" d="M629.05,507.41h0m0,0h0m0,0h0m0,0h0m0,0h0m0,0v0m0,0h0m0,0h0m0,0h0m0,0h0m0,0h0m0,0h0m0,0h0m0,0h0m0,0h0m0,0c.42-.47.31-.79-.16-1.06l.27.07a.6.6,0,0,1,.17.4.91.91,0,0,1-.28.59"/><path class="cls-151" d="M625.75,510a31.48,31.48,0,0,1,3.3-2.6h0l0,0h0v0h.07a.91.91,0,0,0,.28-.59.6.6,0,0,0-.17-.4,40.89,40.89,0,0,0,4.93,1c1.58.11-5.68.34-8.49,2.73"/><path class="cls-88" d="M609.84,539.47s-2.12.89-3.38,1.59c-2.74,1.51,5.11,18.51,5.92,13.19-.54-2.17-.41-9.42-.41-9.42Z"/><path class="cls-152" d="M612.38,554.25c-2.35,2.68-5.42-11.19-3.3-14.45-1.27-.73-3.7.36-4.25,2.17s2.33,15.29,6.06,16.88c3,.85,1.79-2.66,1.49-4.6"/><path class="cls-88" d="M611.69,572.33a2.6,2.6,0,0,1-.59,1.11c-.39.47.1,2.26,0,2.77-.87,3.32,18.54,9.95,14.94,5.29-2.14-1.22-7.72-6.57-8.71-9.25-.85.53-5.61.08-5.61.08"/><path class="cls-152" d="M626,581.5c2.08,3.38-12.14-.19-14.91-8.06-1.53.46-1.56,2.94-.55,4.75s13.89,9.72,18,8c2.92-1.71-.77-3.42-2.53-4.65"/><path class="cls-122" d="M584.8,461.73l22.44,11.48s-6.15,3.28-1.08,14.93c4.49,10.3,10.5,29.85,10.62,36.21,0,0,.93,45.46,1.92,47.08s-7,1.87-8.39,1.2c.67-8.11-5.92-24.26-6.39-31.09-.38-5.49.84-12.65.75-15.28s-9.35-16.06-12.61-21.07c-3.1-4.76-6.87-15.26-10.87-18.07a13,13,0,0,1-5-9.18c-.95-11.16,8.63-16.21,8.63-16.21"/><path class="cls-88" d="M636.05,418.4l2.57-2,5.5,7.69a15.53,15.53,0,0,0-6,4.23c-3.37,4.21-2.79,5.55-3.23,8.91a68.68,68.68,0,0,0-.39,7.38s-4.58,1.51-4.43-16.8a32.11,32.11,0,0,1,.32-4.63c-.4-.62,5.62-4.75,5.62-4.75"/><path class="cls-16" d="M596,452.72c7-12.27,7.35-14.77,13-23.33,5-7.53,15.76-12.15,18.9-10.74,1,1.16,1.92,2.25,2.73,3.27-.32,1.17,2,2.87,1.63,5.67-2.33,16.2,2.23,17,2.23,17,.17,3,0,6.14-.86,7.73-1.22,2.31-4.6,5.1-9.93,4.4-3-.4-3.46-1.65-6.34,2.43-4.81,6.82-6.11,7.86-10.18,15.79a104.63,104.63,0,0,1-22.94-13.59.94.94,0,0,1,.34-1.64c3.83-1.07,8.77-2.41,11.37-7"/><path class="cls-153" d="M636.76,432.5c.06-.85.16-1.76.31-2.75.31-.45.67-.93,1.09-1.46a13.89,13.89,0,0,1,4.53-3.57l1.25,6.39h-.61a14.86,14.86,0,0,0-6.57,1.4"/><path class="cls-154" d="M637.07,429.75c.2-1.3.47-2.73.84-4.28a12.11,12.11,0,0,1,1-2.85l3.18-.79.57,2.89a13.89,13.89,0,0,0-4.53,3.57c-.42.53-.78,1-1.09,1.46"/><path class="cls-88" d="M661.43,414.8c1,3.62-2.38,4.61-3.31,7.91-.55,2-.6,3.6-1,4.07a55.2,55.2,0,0,1-7.27,5.92c-1.37.82-4.89.21-10.69-8.66-8.82-13.51,20-17.64,22.31-9.24"/><path class="cls-23" d="M607.24,474.91h0a80.58,80.58,0,0,1,4.15-7.32,80.58,80.58,0,0,0-4.15,7.32"/><path class="cls-151" d="M607.23,474.93h0v0"/><path class="cls-155" d="M607.23,474.93h0a41,41,0,0,1-4.88-2.4c-2.81-2.82-5.25-5.48-2.45-5.48a9.24,9.24,0,0,1,1.59.18,11.21,11.21,0,0,0,2.2.21c6.7,0,11.33-5.78,12.67-6.88l-.05.13c-2.12,2.95-3.5,4.74-4.92,6.9a80.58,80.58,0,0,0-4.15,7.32v0"/><path class="cls-23" d="M623.85,456.72h0m-.2,0h0m-.16,0-.13,0,.13,0m-.19,0-.64-.12.64.12"/><path class="cls-156" d="M617.41,459.14h0c1.65-2.34,2.5-2.93,3.5-2.93-1,0-1.85.59-3.5,2.93m5.25-2.62-.45-.1.45.1m-.55-.13h0"/><path class="cls-155" d="M617.41,459.14c-1-6.78.48-16.8,2.26-22.1,1.85-5.5,7-9.56,9.67-9.56a1.55,1.55,0,0,1,1.67,1.28c.58,2.51-1.77,17.7-3.91,27.92-.25,0-.51.07-.77.09h0c-.25,0-.5,0-.76,0h-.26c-.19,0-.39,0-.6,0s-.54,0-.83-.07h-.22l-.14,0-.13,0h-.05l-.64-.12-.45-.1-.1,0h0a5.47,5.47,0,0,0-1.18-.18c-1,0-1.85.59-3.5,2.93"/><path class="cls-16" d="M630.19,426.83c1.63,3.42,1.11,34.21,2.32,38.15.87,2.83-6.31,4.49-8.09,1.17s-5.35-27.67-4.55-35.25,8.68-7.49,10.32-4.07"/><path class="cls-88" d="M632.51,465c-3.87,1.31-5.07,1.63-8.09,1.17.45,2.15,2.39,5,5.17,7a101,101,0,0,0,18.86,10.09c4.44,1.57,3.53-2.94,3.53-2.94s-13.9-9.57-19.47-15.36"/><path class="cls-78" d="M600.48,426.81a3.71,3.71,0,0,0,4.3,3.7c5.4-1.12,6.67-6.24,7.54-9.14.71-2.38.9-8.64,7-12.25,5.82-3.47,8.88-.29,14-3.58s7.57-9.32,16.36-9c10.6.4,17.58,16.66,17.58,16.66,1.31,2-3.12,4.16-7.38,3.45a9.72,9.72,0,0,0-10.29,5.62,6.74,6.74,0,0,1-1.73,2.44c-5.07,4.28-6.6-2.25-9.61-.6-4.14,2.27-2,6.73-6.15,6.54-3.25-6.27-8.54-4.5-11.13-3.18-6,3-15.34,14.15-15.4,16.45-2.35-4.78.84-8.14.82-10-4.71,1.48-8.49-4.83-5.89-7.1"/><path class="cls-146" d="M662.17,405.69s-10.94-12.74-22.83-1.56-19,5.83-19,5.83,6.47,7.69,20.73-4c10.4-8.56,21.11-.23,21.11-.23"/><path class="cls-146" d="M655.41,409.16a8.19,8.19,0,0,0-6.72,6.52c-1.48,6-4,7.57-6.45,6.37s-7.4-1.39-8.36,2c.09-4.71,4.09-4.5,8.79-4.05,4.24.4,2.42-6,5.07-8.91s4.72-3,7.67-2"/><path class="cls-146" d="M660.09,406.63s-10.62-8.29-24,7.68c-8.24,9.86-14.38,4-14.38,4s7.38,9.86,15.94-2c6.09-8.39,13.82-12.48,22.41-9.73"/><path class="cls-146" d="M632.71,414.89c-7.23-2.56-15.93-1.73-17.36,7.34-1.5,9.44-3.32,7.61-7,9.58,6,1,8.39-3.75,9.55-8.68,1.32-5.57,6.76-10.63,14.83-8.24"/><path class="cls-88" d="M663.49,479.42c-.71-.5-3.68-2.21-3.68-2.21l-5.36-.31L647.12,480a1.18,1.18,0,0,0,0,.43,3.88,3.88,0,0,0,3.93,3.19c2,0,3.84-.26,3.92-.24,1.48.47,5.35.8,5.37,0,.31-.11,2.28.24,2.5.15,1-.43.58-1.23.58-1.23l-6.33-4,2.45.33s1.7.73,2.7,1.3c.44.33,2-.06,1.23-.61"/></g></g></g></g></g></g></svg>