<svg id="Layer_1" data-name="Layer 1" xmlns="http://www.w3.org/2000/svg" xmlns:xlink="http://www.w3.org/1999/xlink" viewBox="0 0 2000 2000"><defs><style>.cls-1{fill:none;}.cls-2{clip-path:url(#clip-path);}.cls-3{fill:#848484;}</style><clipPath id="clip-path"><rect class="cls-1" x="414.96" y="431.23" width="1170.08" height="1148.27"/></clipPath></defs><title>consensys</title><g id="ConsenSys"><g class="cls-2"><g class="cls-2"><path class="cls-3" d="M669.9,742a22,22,0,1,1,22.32-22,22.15,22.15,0,0,1-22.32,22m-29.14,34.11A20.13,20.13,0,1,1,661.22,756a20.29,20.29,0,0,1-20.46,20.12M616.68,813.7a18.31,18.31,0,1,1,18.6-18.29,18.45,18.45,0,0,1-18.6,18.29m-18.59,40.36a16.47,16.47,0,1,1,16.73-16.47,16.61,16.61,0,0,1-16.73,16.47m-12.8,42.41a14.64,14.64,0,1,1,14.88-14.64,14.77,14.77,0,0,1-14.88,14.64m-7,43.65a12.81,12.81,0,1,1,13-12.82,12.92,12.92,0,0,1-13,12.82m-2,44.12a11,11,0,1,1,11.17-11,11.08,11.08,0,0,1-11.17,11m2.9,44.07a9.15,9.15,0,1,1,9.3-9.15,9.22,9.22,0,0,1-9.3,9.15M587,1071.8a7.32,7.32,0,1,1,7.45-7.32,7.37,7.37,0,0,1-7.45,7.32m12.61,42.46a5.5,5.5,0,1,1,5.59-5.5,5.53,5.53,0,0,1-5.59,5.5m17.28,40.89a3.65,3.65,0,1,1,3.72-3.65,3.68,3.68,0,0,1-3.72,3.65m21.73,38.9a1.83,1.83,0,1,1,1.86-1.83,1.84,1.84,0,0,1-1.86,1.83m342-462.7Zm337.22,127.4a23.92,23.92,0,0,1-19.41,23.34,24.94,24.94,0,0,1-8,46.83,26,26,0,0,1,8.26,19,26.51,26.51,0,0,1-24.53,26.23,26.85,26.85,0,0,1,3.41,21.16,21.09,21.09,0,1,1-2.67,10,20.75,20.75,0,0,1,.43-4.1,28,28,0,0,1-25,15l-.32,0a28.92,28.92,0,0,1,1.53,8.72,23.09,23.09,0,0,1,15.81-6.29,22.57,22.57,0,1,1,0,45.14,23,23,0,0,1-14.91-5.55,23.54,23.54,0,0,1,5.4,14.82,24,24,0,0,1-24.22,23.81,24.34,24.34,0,0,1-13.37-4,24.38,24.38,0,0,1,1.1,7.27,25.3,25.3,0,0,1-25.49,25.09,25.57,25.57,0,0,1-14.91-4.79c0,.19,0,.38,0,.58a26.53,26.53,0,0,1-26.74,26.32,26.9,26.9,0,0,1-17.3-6.25,27.5,27.5,0,0,1-12.81,17.36,21.2,21.2,0,1,1-15.46,20.31,21.19,21.19,0,0,1,9.51-17.63,28.47,28.47,0,0,1-8.51,1.3,28.12,28.12,0,0,1-20-8.32,29,29,0,0,1-5.19,7.24,22.54,22.54,0,1,1-23.32,24.06,24.19,24.19,0,0,1-47.66,2.23,25.59,25.59,0,0,1-47.6-7.88,26.87,26.87,0,0,1-19.31,8.13,26.56,26.56,0,0,1-26.64-24.14A28.46,28.46,0,0,1,905,1168a28.11,28.11,0,0,1-6.72-.83,21.19,21.19,0,0,1,11.46,18.68,21.75,21.75,0,1,1-17.49-20.88A27.52,27.52,0,0,1,877,1140.4c0-.12,0-.21,0-.32a29.54,29.54,0,0,1-8.86,1.49,22.32,22.32,0,0,1,6.38,15.55,22.94,22.94,0,0,1-45.87,0,22.12,22.12,0,0,1,5.63-14.64A24.17,24.17,0,0,1,795.05,1124a23.46,23.46,0,0,1,4.05-13.16,26,26,0,0,1-7.39,1.07,25.27,25.27,0,0,1-25.48-25.06,24.75,24.75,0,0,1,4.85-14.7c-.19,0-.38,0-.58,0a26.53,26.53,0,0,1-26.75-26.32,26,26,0,0,1,6.34-17,28,28,0,0,1-14.26-8.21c0,.57.17,1.13.17,1.72A23.79,23.79,0,0,1,719,1045a23,23,0,0,1,4.11-.41,23.09,23.09,0,1,1-6.85,1.14,25.53,25.53,0,0,1-4.4.43,24,24,0,0,1-24.19-23.79,23.67,23.67,0,0,1,13.3-21.14,25,25,0,0,1-5.91-47,26.37,26.37,0,0,1,1.34-47.69,27.74,27.74,0,0,1,8.89-47.61,28.94,28.94,0,0,1-5.85-17.39c0-.3,0-.59.05-.89a25.87,25.87,0,0,1-18.9,8.16c-.57,0-1.12,0-1.68-.09a23.5,23.5,0,0,1,7.19,16.9,24.16,24.16,0,1,1-24.15-23.78c.36,0,.71.11,1.08.13a25.08,25.08,0,0,1-8.2-18.52,25.56,25.56,0,0,1,25.76-25.35c.28,0,.53,0,.8,0a26.48,26.48,0,0,1-4.07-14.07,27.16,27.16,0,0,1,27.38-26.92c.57,0,1.13,0,1.7.08a28,28,0,0,1-1.51-9.07,28.75,28.75,0,0,1,29-28.51,28.42,28.42,0,0,1,3.35.21,29.38,29.38,0,0,1-.22-3.54c0-16.61,13.69-30.08,30.58-30.08a30.33,30.33,0,0,1,5.69.54,31.43,31.43,0,0,1,10.32-20.87c-.5,0-1,.08-1.52.08a28.09,28.09,0,0,1-14.9-4.26,25.81,25.81,0,0,1-26,24.72,26.18,26.18,0,0,1-14.22-4.18,23.33,23.33,0,0,1,.84,5.89,24.18,24.18,0,1,1-24.19-23.79,24.27,24.27,0,0,1,12.58,3.56,25.53,25.53,0,0,1-1-7.09,25.82,25.82,0,0,1,26-25.63,26.2,26.2,0,0,1,13,3.45.75.75,0,0,0,0-.11A27.69,27.69,0,0,1,782,611.08a28.17,28.17,0,0,1,14.52,4,29.6,29.6,0,0,1,29-22.71,30,30,0,0,1,16.73,5.06,31.8,31.8,0,0,1,48-11.35,33.71,33.71,0,0,1,49.52-4.94,35.54,35.54,0,0,1,20.5-9.31,31.18,31.18,0,0,1-4-5.08A31.5,31.5,0,0,1,913,559.33a29,29,0,0,1-44.26-2.05,26.61,26.61,0,0,1-45.06,3,23.72,23.72,0,1,1-4.6-17.79,26.23,26.23,0,0,1,26.24-23.09,26.51,26.51,0,0,1,20.18,9.26,29,29,0,0,1,48.61-6.21,31.49,31.49,0,0,1,49.65,1.26,33.65,33.65,0,0,1,49.53,9.08,35.59,35.59,0,0,1,47.68,16.8,37.83,37.83,0,0,1,9.34-1.2,37.3,37.3,0,0,1,35.52,25.39c.7,0,1.4-.11,2.12-.11a39.18,39.18,0,0,1,38.67,31.73,40.87,40.87,0,0,1,35,39.39,42.66,42.66,0,0,1,27.06,39.51,40.6,40.6,0,0,1-.81,8,44.07,44.07,0,0,1,17,44.4,44.58,44.58,0,0,1,3.44,14.88c1.17,8,9.44,76.71-43.35,132.69-8.69,9.2-15.48,3.18-13.93-8.77,6.23-47.87-27-83.64-41.32-98.37-.19-.19-.42-.35-.59-.55a27.13,27.13,0,0,1-7-16.49c-.86-.95-1.63-1.94-2.4-3a28.4,28.4,0,0,1-20.07-2.62h0a27.58,27.58,0,0,1-14.12-19.18,28.36,28.36,0,0,1-24.24,3.17,27.81,27.81,0,0,1-17.19-16,28.32,28.32,0,0,1-42.6-3.87A28.35,28.35,0,0,1,959,724.37a27.94,27.94,0,0,1-15.49,16,28.63,28.63,0,0,1-24-1,27.52,27.52,0,0,1-12,20.21,28.31,28.31,0,0,1-22.69,4.12A27.21,27.21,0,0,1,878,786.26a28.11,28.11,0,0,1-22.34,9.15,27.42,27.42,0,0,1-2.19,23.2,28.2,28.2,0,0,1-18.06,13,27.09,27.09,0,0,1,4.3,22.58,28,28,0,0,1-14.72,18A27.31,27.31,0,0,1,823.56,915a27.59,27.59,0,0,1,13.7,19.56,27.29,27.29,0,0,1-5.48,21.21,27.85,27.85,0,0,1,17.31,13.75,27.07,27.07,0,0,1,.88,23.84,28.1,28.1,0,0,1,22.12,11A27.11,27.11,0,0,1,877,1027.2a28.42,28.42,0,0,1,22,5.6,27.39,27.39,0,0,1,10.58,20.79,28.32,28.32,0,0,1,23.71.28,27.49,27.49,0,0,1,15.23,18.83,28.32,28.32,0,0,1,24.23-3.93,27.68,27.68,0,0,1,17.58,15.11,28.42,28.42,0,0,1,42.31,1.73,28.29,28.29,0,0,1,45.33-5.61,27.88,27.88,0,0,1,20.29-15.79,28.21,28.21,0,0,1,22.83,5.64,31.89,31.89,0,0,1,37.17-17,30.39,30.39,0,0,1,30.23-25.79,31.72,31.72,0,0,1,4.6.37c0-.66-.09-1.35-.09-2a29.06,29.06,0,0,1,29.28-28.84c.41,0,.85,0,1.26.08a27.12,27.12,0,0,1-1.21-8,27.76,27.76,0,0,1,26.52-27.49,25.92,25.92,0,0,1-3.67-13.29,26.45,26.45,0,0,1,23.14-26,24.81,24.81,0,0,1-7.41-17.67,25.2,25.2,0,0,1,21.07-24.67,23.66,23.66,0,0,1-12.58-20.76A23.93,23.93,0,0,1,1292,835.09a22.8,22.8,0,1,1,4.14.11,23.87,23.87,0,0,1,21.67,23.55m-561-263.47A21.27,21.27,0,1,1,778.37,574a21.46,21.46,0,0,1-21.61,21.28m-40.67,20.31a18.91,18.91,0,1,1,19.23-18.91,19.07,19.07,0,0,1-19.23,18.91m-37.58,25A16.55,16.55,0,1,1,695.33,624a16.7,16.7,0,0,1-16.82,16.55m-34.45,28.71a14.18,14.18,0,1,1,14.41-14.18,14.3,14.3,0,0,1-14.41,14.18m-30.95,32.12a11.83,11.83,0,1,1,12-11.84,11.91,11.91,0,0,1-12,11.84M586.05,736.5a9.46,9.46,0,1,1,9.61-9.45,9.53,9.53,0,0,1-9.61,9.45m-22.92,37.72a7.09,7.09,0,1,1,7.21-7.08,7.15,7.15,0,0,1-7.21,7.08M544.64,814.1a4.73,4.73,0,1,1,4.8-4.73,4.76,4.76,0,0,1-4.8,4.73m-13.91,41.53a2.37,2.37,0,1,1,2.4-2.37,2.38,2.38,0,0,1-2.4,2.37m758.57-67.26a21.31,21.31,0,1,1,21.66-21.3,21.48,21.48,0,0,1-21.66,21.3m-11.25-45.85a20.05,20.05,0,1,1,20.38-20.06,20.22,20.22,0,0,1-20.38,20.06m-17.12-44a18.81,18.81,0,1,1,19.11-18.8,19,19,0,0,1-19.11,18.8M1238.29,657a17.54,17.54,0,1,1,17.83-17.55A17.69,17.69,0,0,1,1238.29,657m-27.78-38.21a16.3,16.3,0,1,1,16.56-16.3,16.45,16.45,0,0,1-16.56,16.3m-32.43-34.37a15,15,0,1,1,15.28-15,15.17,15.17,0,0,1-15.28,15m-36.56-29.91a13.79,13.79,0,1,1,14-13.78,13.9,13.9,0,0,1-14,13.78m-40-25A12.54,12.54,0,1,1,1114.22,517a12.64,12.64,0,0,1-12.74,12.53M1058.57,510a11.29,11.29,0,1,1,11.48-11.29A11.37,11.37,0,0,1,1058.57,510m-45-13.87a10,10,0,1,1,10.19-10,10.11,10.11,0,0,1-10.19,10M967.39,488a8.77,8.77,0,1,1,8.91-8.76,8.84,8.84,0,0,1-8.91,8.76m-46.72-3.24a7.52,7.52,0,1,1,7.66-7.52,7.58,7.58,0,0,1-7.66,7.52M874,486.4a6.28,6.28,0,1,1,6.37-6.28A6.32,6.32,0,0,1,874,486.4M828,492.82a5,5,0,1,1,5.09-5,5.06,5.06,0,0,1-5.09,5m-45,11.14a3.76,3.76,0,1,1,3.83-3.76,3.79,3.79,0,0,1-3.83,3.76M739.5,519.7a2.5,2.5,0,1,1,2.55-2.51,2.53,2.53,0,0,1-2.55,2.51m-41.39,20.12a1.25,1.25,0,0,1-1.27-1.25,1.28,1.28,0,1,1,1.27,1.25M1320.57,986a20.05,20.05,0,1,1,20.37-20.06A20.24,20.24,0,0,1,1320.57,986m18.63-43.41a18.8,18.8,0,1,1,19.12-18.8,19,19,0,0,1-19.12,18.8m12.89-45.47a17.54,17.54,0,1,1,17.84-17.53,17.68,17.68,0,0,1-17.84,17.53m6.94-46.69a16.3,16.3,0,1,1,16.58-16.29A16.43,16.43,0,0,1,1359,850.43m.86-47.21a15.05,15.05,0,1,1,15.29-15.06,15.18,15.18,0,0,1-15.29,15.06m-5.24-47a13.8,13.8,0,1,1,14-13.8,13.91,13.91,0,0,1-14,13.8m-11.28-45.87a12.54,12.54,0,1,1,12.74-12.55,12.66,12.66,0,0,1-12.74,12.55m-17.2-44a11.29,11.29,0,1,1,11.47-11.29,11.39,11.39,0,0,1-11.47,11.29m-22.74-41.45a10,10,0,1,1,10.18-10,10.09,10.09,0,0,1-10.18,10m-27.73-38.28a8.78,8.78,0,1,1,8.91-8.76,8.84,8.84,0,0,1-8.91,8.76m-31.62-35.14a7.52,7.52,0,1,1,7.66-7.53,7.58,7.58,0,0,1-7.66,7.53m-35-31.7a6.27,6.27,0,1,1,6.37-6.26,6.31,6.31,0,0,1-6.37,6.26M1171,491.93a5,5,0,1,1,5.1-5,5.07,5.07,0,0,1-5.1,5m-40.73-23.79a3.77,3.77,0,1,1,3.81-3.77,3.8,3.8,0,0,1-3.81,3.77m-42.94-19.46a2.51,2.51,0,1,1,2.53-2.51,2.53,2.53,0,0,1-2.53,2.51m-44.63-14.94a1.26,1.26,0,1,1,1.29-1.26,1.27,1.27,0,0,1-1.29,1.26m132.94,754A20.06,20.06,0,1,1,1196,1167.7a20.23,20.23,0,0,1-20.39,20.06m43.5-18.11a18.81,18.81,0,1,1,19.11-18.8,19,19,0,0,1-19.11,18.8m40.88-23.53a17.55,17.55,0,1,1,17.83-17.56,17.68,17.68,0,0,1-17.83,17.56m37.56-28.58a16.29,16.29,0,1,1,16.56-16.29,16.44,16.44,0,0,1-16.56,16.29m33.67-33.14a15,15,0,1,1,15.28-15,15.17,15.17,0,0,1-15.28,15m29.12-37.21a13.79,13.79,0,1,1,14-13.8,13.91,13.91,0,0,1-14,13.8m24.1-40.69A12.52,12.52,0,1,1,1397.15,994a12.62,12.62,0,0,1-12.72,12.51M1403,963.07a11.29,11.29,0,1,1,11.46-11.28A11.38,11.38,0,0,1,1403,963.07m12.81-45.49a10,10,0,1,1,10.2-10,10.12,10.12,0,0,1-10.2,10m7-46.72a8.79,8.79,0,1,1,8.93-8.78,8.85,8.85,0,0,1-8.93,8.78m2-47.22a7.53,7.53,0,1,1,7.64-7.53,7.59,7.59,0,0,1-7.64,7.53m-2.9-47.15a6.27,6.27,0,1,1,6.37-6.26,6.3,6.3,0,0,1-6.37,6.26m-7.8-46.56a5,5,0,1,1,5.1-5,5.06,5.06,0,0,1-5.1,5m-12.61-45.55a3.76,3.76,0,1,1,3.81-3.77,3.79,3.79,0,0,1-3.81,3.77m-17.26-44a2.51,2.51,0,1,1,2.54-2.51,2.54,2.54,0,0,1-2.54,2.51m-21.74-42a1.28,1.28,0,0,1-1.29-1.26,1.28,1.28,0,0,1,2.56,0,1.28,1.28,0,0,1-1.27,1.26M928.12,1229.56a20.06,20.06,0,1,1,20.39-20.06,20.23,20.23,0,0,1-20.39,20.06m42.85,17.1a18.81,18.81,0,1,1,19.12-18.8,19,19,0,0,1-19.12,18.8m44.92,11.44a17.55,17.55,0,1,1,17.84-17.55,17.7,17.7,0,0,1-17.84,17.55m46.22,5.57a16.3,16.3,0,1,1,16.57-16.31,16.44,16.44,0,0,1-16.57,16.31m46.73-.41a15,15,0,1,1,15.29-15,15.18,15.18,0,0,1-15.29,15m46.43-6.42a13.8,13.8,0,1,1,14-13.78,13.9,13.9,0,0,1-14,13.78m45.35-12.37a12.53,12.53,0,1,1,12.75-12.53,12.63,12.63,0,0,1-12.75,12.53m43.49-18.15a11.28,11.28,0,1,1,11.45-11.28,11.37,11.37,0,0,1-11.45,11.28m40.83-23.64a10,10,0,1,1,10.2-10,10.1,10.1,0,0,1-10.2,10m37.64-28.53a8.78,8.78,0,1,1,8.93-8.77,8.84,8.84,0,0,1-8.93,8.77M1357,1141.8a7.53,7.53,0,1,1,7.64-7.52,7.59,7.59,0,0,1-7.64,7.52m30.94-35.72a6.27,6.27,0,1,1,6.37-6.26,6.31,6.31,0,0,1-6.37,6.26m27.07-38.72a5,5,0,1,1,5.09-5,5,5,0,0,1-5.09,5M1438,1026a3.76,3.76,0,1,1,3.82-3.76A3.78,3.78,0,0,1,1438,1026m18.5-43.46A2.51,2.51,0,1,1,1459,980a2.53,2.53,0,0,1-2.56,2.51m13.93-45.17a1.26,1.26,0,1,1,1.27-1.25,1.27,1.27,0,0,1-1.27,1.25M740.16,1130.69a21,21,0,1,1,21.33-21,21.17,21.17,0,0,1-21.33,21m22.67,38.82a19.59,19.59,0,1,1,19.91-19.6,19.75,19.75,0,0,1-19.91,19.6m27.76,35.57a18.19,18.19,0,1,1,18.48-18.2,18.36,18.36,0,0,1-18.48,18.2m32.43,31.7A16.8,16.8,0,1,1,840.09,1220,16.93,16.93,0,0,1,823,1236.78M859.56,1264a15.39,15.39,0,1,1,15.64-15.39A15.53,15.53,0,0,1,859.56,1264m40.07,22.29a14,14,0,1,1,14.21-14,14.1,14.1,0,0,1-14.21,14m42.88,16.9a12.6,12.6,0,1,1,12.8-12.59,12.7,12.7,0,0,1-12.8,12.59m45,11.2a11.2,11.2,0,1,1,11.39-11.2,11.29,11.29,0,0,1-11.39,11.2m46.23,5.48a9.8,9.8,0,1,1,10-9.79,9.89,9.89,0,0,1-10,9.79m46.72.58a8.39,8.39,0,1,1,8.53-8.38,8.46,8.46,0,0,1-8.53,8.38m46.65-4.24a7,7,0,1,1,7.11-7,7.05,7.05,0,0,1-7.11,7m46-9.07a5.6,5.6,0,1,1,5.7-5.6,5.65,5.65,0,0,1-5.7,5.6m45-13.81a4.2,4.2,0,1,1,4.27-4.19,4.21,4.21,0,0,1-4.27,4.19m43.45-18.39a2.81,2.81,0,1,1,2.86-2.8,2.84,2.84,0,0,1-2.86,2.8m41.41-22.77a1.4,1.4,0,1,1,1.41-1.4,1.41,1.41,0,0,1-1.41,1.4M649,932a22.18,22.18,0,1,1,22.54-22.19A22.38,22.38,0,0,1,649,932m-6.94,43.87A20.6,20.6,0,1,1,663,955.23a20.77,20.77,0,0,1-20.93,20.61m-.87,44.37a19,19,0,1,1,19.33-19,19.16,19.16,0,0,1-19.33,19m5.25,44.11a17.43,17.43,0,1,1,17.71-17.42,17.57,17.57,0,0,1-17.71,17.42m11.31,43a15.84,15.84,0,1,1,16.11-15.85,16,16,0,0,1-16.11,15.85m17.17,41.18a14.25,14.25,0,1,1,14.5-14.26,14.38,14.38,0,0,1-14.5,14.26m22.74,38.6a12.67,12.67,0,1,1,12.88-12.66,12.77,12.77,0,0,1-12.88,12.66m27.73,35.44a11.08,11.08,0,1,1,11.28-11.08,11.17,11.17,0,0,1-11.28,11.08M757,1254.9a9.51,9.51,0,1,1,9.66-9.51,9.6,9.6,0,0,1-9.66,9.51m35,28.86a7.92,7.92,0,1,1,8.06-7.92,8,8,0,0,1-8.06,7.92m38.1,25a6.34,6.34,0,1,1,6.45-6.34,6.37,6.37,0,0,1-6.45,6.34m40.75,21a4.75,4.75,0,1,1,4.83-4.74,4.78,4.78,0,0,1-4.83,4.74m42.93,16.63a3.18,3.18,0,1,1,3.22-3.18,3.2,3.2,0,0,1-3.22,3.18m44.63,12.09a1.6,1.6,0,0,1-1.61-1.59,1.62,1.62,0,0,1,3.23,0,1.61,1.61,0,0,1-1.62,1.59"/><path class="cls-3" d="M1576.12,1486.94a6.45,6.45,0,0,1-5-2.18,7.74,7.74,0,0,1-2.31-5.42h0a12.51,12.51,0,0,0-2.44-6.61,26,26,0,0,0-6.46-5.87,35.68,35.68,0,0,0-9.64-4,46.23,46.23,0,0,0-11.64-1.41,50.13,50.13,0,0,0-12,1.41,34.22,34.22,0,0,0-9.65,4,20.25,20.25,0,0,0-6.41,6.14,12.79,12.79,0,0,0-2.31,7.24,9.92,9.92,0,0,0,2.87,7,28.33,28.33,0,0,0,7.57,5.58,63.33,63.33,0,0,0,9.93,4.1,52.73,52.73,0,0,0,9.9,2.19,65.59,65.59,0,0,1,18.08,4.37,54.32,54.32,0,0,1,14.81,8.58,39.75,39.75,0,0,1,9.94,12.22,33.42,33.42,0,0,1,3.66,15,34.21,34.21,0,0,1-3.66,15.68,40.16,40.16,0,0,1-10.26,12.69,51,51,0,0,1-15.17,8.61,55.58,55.58,0,0,1-36.92.15,47.38,47.38,0,0,1-15.18-8.61A42.22,42.22,0,0,1,1493.6,1555a34.21,34.21,0,0,1-3.66-15.68,6.51,6.51,0,0,1,2-4.71,6.75,6.75,0,0,1,9.59,0,6.51,6.51,0,0,1,2,4.71,23.42,23.42,0,0,0,2.52,10.35,26.22,26.22,0,0,0,7.07,8.34,37.22,37.22,0,0,0,10.81,5.61,42.44,42.44,0,0,0,37.87-5.63,24.87,24.87,0,0,0,7.38-8.35,18,18,0,0,0,2.19-10.25,23.1,23.1,0,0,0-3.13-9.56,31.42,31.42,0,0,0-7.27-7.92,43.1,43.1,0,0,0-10.2-5.79,52.76,52.76,0,0,0-12.14-3.3,72.85,72.85,0,0,1-16.85-3.22,52.45,52.45,0,0,1-14.17-7,34.79,34.79,0,0,1-9.79-9.95,22.64,22.64,0,0,1-3.7-12.72,24.92,24.92,0,0,1,3.52-12.85,35.58,35.58,0,0,1,9.63-10.44,47.6,47.6,0,0,1,14.21-7,59,59,0,0,1,34.57,0,52.45,52.45,0,0,1,14.17,7,32.06,32.06,0,0,1,9.64,10.47,24.85,24.85,0,0,1,3.52,12.84,7.14,7.14,0,0,1-7.3,7m-107.94-28.23-55.49,69.2v44.56a7.31,7.31,0,0,1-2,5,6.89,6.89,0,0,1-5.15,2,7.56,7.56,0,0,1-5.09-2,6.63,6.63,0,0,1-2.06-5.07v-44.36l-54.68-69.4a6.66,6.66,0,0,1-1.62-5.19,6.16,6.16,0,0,1,2.57-4.71,7,7,0,0,1,5.28-1.6,6.91,6.91,0,0,1,4.76,2.5l50.67,64.18,51.78-64.15a7,7,0,0,1,4.79-2.53,7.22,7.22,0,0,1,5.28,1.6,7.14,7.14,0,0,1,2.58,4.7,6.93,6.93,0,0,1-1.64,5.2m-156.59,28.23a6.43,6.43,0,0,1-5-2.18,7.66,7.66,0,0,1-2.31-5.42h0a11.72,11.72,0,0,0-2.59-6.58,25.82,25.82,0,0,0-6.48-5.9,35.68,35.68,0,0,0-9.64-4,46.23,46.23,0,0,0-11.64-1.41,50.13,50.13,0,0,0-12,1.41,34.22,34.22,0,0,0-9.65,4,20.25,20.25,0,0,0-6.41,6.14,12.79,12.79,0,0,0-2.31,7.24,9.88,9.88,0,0,0,2.87,7,28.17,28.17,0,0,0,7.57,5.58,63.72,63.72,0,0,0,9.93,4.1,52.73,52.73,0,0,0,9.9,2.19,65.34,65.34,0,0,1,18.07,4.37,59.77,59.77,0,0,1,14.81,8.57,39.79,39.79,0,0,1,10,12.23,33.52,33.52,0,0,1,3.66,15,34.08,34.08,0,0,1-3.66,15.68,37.82,37.82,0,0,1-10.27,12.7,50.88,50.88,0,0,1-15.16,8.6,55.58,55.58,0,0,1-36.92.15,49.84,49.84,0,0,1-15.17-8.6,42.27,42.27,0,0,1-10.26-12.85,34.2,34.2,0,0,1-3.65-15.68,6.51,6.51,0,0,1,2-4.71,6.74,6.74,0,0,1,9.58,0,6.47,6.47,0,0,1,2,4.71,19.85,19.85,0,0,0,2.66,10.29,26.14,26.14,0,0,0,7.1,8.4,37.22,37.22,0,0,0,10.79,5.61,45,45,0,0,0,26.74,0,37.62,37.62,0,0,0,11-5.61,25.22,25.22,0,0,0,7.41-8.37,18,18,0,0,0,2.19-10.25,23,23,0,0,0-3.15-9.56,31.36,31.36,0,0,0-7.26-7.92,43.1,43.1,0,0,0-10.2-5.79,53.27,53.27,0,0,0-12.14-3.3,72.85,72.85,0,0,1-16.85-3.22,52.45,52.45,0,0,1-14.17-7,34.79,34.79,0,0,1-9.79-9.95,22.64,22.64,0,0,1-3.7-12.72,24.92,24.92,0,0,1,3.52-12.85,35.67,35.67,0,0,1,9.62-10.44,47.88,47.88,0,0,1,14.22-7,59,59,0,0,1,34.57,0,52.45,52.45,0,0,1,14.17,7,32.31,32.31,0,0,1,9.65,10.47,24.84,24.84,0,0,1,3.51,12.84,7.27,7.27,0,0,1-2,5,6.88,6.88,0,0,1-5.16,2m-120.33,90.56a6.85,6.85,0,0,1-5.12,2,7.51,7.51,0,0,1-5.07-2,6.81,6.81,0,0,1-2.23-5.07v-77.71h.47a32.89,32.89,0,0,0-2.68-12.29,36.6,36.6,0,0,0-7.45-10.76,33.19,33.19,0,0,0-11.09-7.33,35,35,0,0,0-13.33-2.65,34.49,34.49,0,0,0-13.32,2.65,37.11,37.11,0,0,0-10.94,7.33,36.65,36.65,0,0,0-7.46,10.78,30.55,30.55,0,0,0-2.69,13.07v76.91a6.75,6.75,0,0,1-2.18,5,6.84,6.84,0,0,1-5.11,2,7.56,7.56,0,0,1-5.09-2,6.8,6.8,0,0,1-2.22-5.07v-76.91a48.51,48.51,0,0,1,3.79-18.81,45,45,0,0,1,10.42-15.28,50.62,50.62,0,0,1,15.48-10.37,47.23,47.23,0,0,1,19-3.89,46.5,46.5,0,0,1,19,3.89,48.57,48.57,0,0,1,15.51,10.4,49.28,49.28,0,0,1,10.55,15.22,45.43,45.43,0,0,1,4,18.84v76.91a6.77,6.77,0,0,1-2.19,5M1062,1461.41h-66v44.36h47.23a7,7,0,0,1,5.12,2.15,6.63,6.63,0,0,1,2,5,7.28,7.28,0,0,1-2,5,6.87,6.87,0,0,1-5.15,2H995.94v45.16h66a7.56,7.56,0,0,1,5.09,2,7,7,0,0,1-5.09,12.09H988.64a7.51,7.51,0,0,1-5.08-2,6.65,6.65,0,0,1-2.06-5.07v-117h-.16v-.79a7.27,7.27,0,0,1,2-5,7.07,7.07,0,0,1,5.16-2.18H1062a7,7,0,0,1,5.12,2.15,7,7,0,0,1-5.12,12.05m-123.34,25.53a6.45,6.45,0,0,1-5-2.18c-1.4-1.06-2.27-2.92-2.47-5.42h0a11.64,11.64,0,0,0-2.58-6.58,26.28,26.28,0,0,0-6.49-5.91,34.22,34.22,0,0,0-9.64-4,46.23,46.23,0,0,0-11.64-1.41,50.1,50.1,0,0,0-12,1.41,34.28,34.28,0,0,0-9.66,4,20.32,20.32,0,0,0-6.4,6.14,12.71,12.71,0,0,0-2.31,7.24,9.91,9.91,0,0,0,2.86,7,28.39,28.39,0,0,0,7.58,5.58,63.62,63.62,0,0,0,9.92,4.1,51,51,0,0,0,10.06,2.19,65.57,65.57,0,0,1,18.09,4.37,59.89,59.89,0,0,1,14.8,8.57,39.76,39.76,0,0,1,9.94,12.23,33.44,33.44,0,0,1,3.67,15,34.21,34.21,0,0,1-3.66,15.68,37.82,37.82,0,0,1-10.27,12.7,51,51,0,0,1-15.16,8.6,55.58,55.58,0,0,1-36.92.15,47.44,47.44,0,0,1-15.19-8.61A42.34,42.34,0,0,1,856,1555a34.21,34.21,0,0,1-3.66-15.68,6.51,6.51,0,0,1,2-4.71,6.75,6.75,0,0,1,9.59,0,6.51,6.51,0,0,1,2,4.71,21.4,21.4,0,0,0,2.67,10.32,26.07,26.07,0,0,0,7.09,8.37,37.09,37.09,0,0,0,10.79,5.61,41.75,41.75,0,0,0,37.71-5.63,25,25,0,0,0,7.4-8.35,18,18,0,0,0,2.18-10.25,23,23,0,0,0-3.14-9.56,31.38,31.38,0,0,0-7.26-7.92,43.3,43.3,0,0,0-10.2-5.79,53.36,53.36,0,0,0-12.15-3.3,73,73,0,0,1-16.85-3.22,52.6,52.6,0,0,1-14.17-7,34.76,34.76,0,0,1-9.78-9.95,22.64,22.64,0,0,1-3.7-12.72,24.82,24.82,0,0,1,3.52-12.85,35.67,35.67,0,0,1,9.62-10.44,47.71,47.71,0,0,1,14.21-7,59,59,0,0,1,34.58,0,52.6,52.6,0,0,1,14.17,7,32.16,32.16,0,0,1,9.64,10.47,24.84,24.84,0,0,1,3.51,12.84,7.23,7.23,0,0,1-2,5,6.86,6.86,0,0,1-5.16,2M818.49,1577.5a6.85,6.85,0,0,1-5.12,2,7.55,7.55,0,0,1-5.08-2,6.8,6.8,0,0,1-2.22-5.07v-77.71h.15a32.89,32.89,0,0,0-2.68-12.29,36.44,36.44,0,0,0-7.46-10.76,33.19,33.19,0,0,0-11.09-7.33,34.92,34.92,0,0,0-26.64,0,37,37,0,0,0-10.94,7.33,36.49,36.49,0,0,0-7.47,10.78,33.4,33.4,0,0,0-2.68,13.07v76.91a7.14,7.14,0,0,1-7.3,7,7.53,7.53,0,0,1-5.08-2,6.64,6.64,0,0,1-2.07-5.07v-76.91a48.52,48.52,0,0,1,3.8-18.81A45,45,0,0,1,737,1461.47a50.66,50.66,0,0,1,15.49-10.37,47.23,47.23,0,0,1,19-3.89,48,48,0,0,1,19.15,3.89,49,49,0,0,1,15.52,10.4,49.6,49.6,0,0,1,10.54,15.22,45.42,45.42,0,0,1,4,18.84v76.91a6.76,6.76,0,0,1-2.18,5m-145.76-84A51,51,0,0,0,661.54,1477a53.7,53.7,0,0,0-37.23-15.08A52.92,52.92,0,0,0,587.23,1477,54.27,54.27,0,0,0,576,1493.48a52.67,52.67,0,0,0,0,40.22A49.31,49.31,0,0,0,587.22,1550a54.11,54.11,0,0,0,57.54,11,51.88,51.88,0,0,0,16.78-11,48.93,48.93,0,0,0,11.19-16.34,50.69,50.69,0,0,0,0-40.22m13.18,45.64A66.12,66.12,0,0,1,671.62,1560a68.58,68.58,0,0,1-21.35,14,67.7,67.7,0,0,1-51.92,0,66.46,66.46,0,0,1-35.48-34.89,61,61,0,0,1-5.26-25.53,63.68,63.68,0,0,1,5.25-25.53,68.36,68.36,0,0,1,14.29-21,67.29,67.29,0,0,1,21.2-14,67.76,67.76,0,0,1,51.92,0,69.19,69.19,0,0,1,21.34,14,64.64,64.64,0,0,1,14.31,21,64.62,64.62,0,0,1,0,51m-160-59.2a7.3,7.3,0,0,1-6.18-2.34,91.64,91.64,0,0,0-17.13-11.15,46.44,46.44,0,0,0-21.05-5A52.59,52.59,0,0,0,461,1465.5a50.38,50.38,0,0,0-16.61,11.15,54.25,54.25,0,0,0-11.2,16.51,55,55,0,0,0-4,20.27,48,48,0,0,0,4.15,20.1,49.15,49.15,0,0,0,11.18,16.35,52.75,52.75,0,0,0,16.65,11.17,52.06,52.06,0,0,0,20.44,4.08,52.66,52.66,0,0,0,21.26-4.24A52,52,0,0,0,520,1549a7.84,7.84,0,0,1,4.67-2.64,6.26,6.26,0,0,1,5.3.92,7.15,7.15,0,0,1,2.64,5.62,9,9,0,0,1-2,5.75,65.37,65.37,0,0,1-21.89,15.4,68.73,68.73,0,0,1-53.07.32,67.54,67.54,0,0,1-21.19-14.21,64.35,64.35,0,0,1-14.3-21,65.43,65.43,0,0,1,0-51.36,64.35,64.35,0,0,1,14.3-21,67,67,0,0,1,21.18-14.21,63.89,63.89,0,0,1,26-5.33,65.08,65.08,0,0,1,26.29,5.33,67.54,67.54,0,0,1,21.52,14.7,10.16,10.16,0,0,1,2.63,4.32,6,6,0,0,1-.76,5.29,7.2,7.2,0,0,1-5.48,3.07"/></g></g></g></svg>