<svg xmlns="http://www.w3.org/2000/svg" xmlns:xlink="http://www.w3.org/1999/xlink" viewBox="0 0 587.32 240"><defs><clipPath id="clip-path" transform="translate(0 0)"><rect width="587.32" height="240" fill="none"/></clipPath><clipPath id="clip-path-2" transform="translate(0 0)"><rect x="0.63" width="330.58" height="48.44" fill="none"/></clipPath><clipPath id="clip-path-3" transform="translate(0 0)"><rect width="587.32" height="240" fill="none"/></clipPath></defs><title>Asset 1</title><g id="Layer_2" data-name="Layer 2"><g id="Layer_1-2" data-name="Layer 1"><g id="Artwork_34" data-name="Artwork 34"><g clip-path="url(#clip-path)"><polygon points="0.63 0 0.63 8.86 9.02 8.86 9.02 47.22 18.13 47.22 18.13 8.86 26.73 8.86 26.73 0 0.63 0" fill="#5f474e"/><g clip-path="url(#clip-path-2)"><path d="M58.32,18.46h5.34c2.87,0,4.83-.37,5.9-1.12a4.21,4.21,0,0,0,1.62-3.74,4.61,4.61,0,0,0-.79-2.69,4.51,4.51,0,0,0-2.14-1.64,16.15,16.15,0,0,0-5-.5h-5ZM49.32,0H61.38q7.83,0,11.15,1.4A11.41,11.41,0,0,1,77.86,6a14.07,14.07,0,0,1,2,7.66,13,13,0,0,1-2.24,7.79,13.49,13.49,0,0,1-6.71,4.74l11.21,21H72.29l-10.62-20H58.32V47.16h-9Z" transform="translate(0 0)" fill="#5f474e"/><path d="M105,0h9V30.54a16,16,0,0,0,.71,5.58A5.47,5.47,0,0,0,117,38.74a7.15,7.15,0,0,0,3.83,1,7.38,7.38,0,0,0,4.09-1.1,5.85,5.85,0,0,0,2.38-2.77,20.82,20.82,0,0,0,.65-6.43V0h9V28.15a41,41,0,0,1-.79,9.89,15.21,15.21,0,0,1-8.29,9.14A17.73,17.73,0,0,1,121,48.43a16.64,16.64,0,0,1-9-2.34,13.81,13.81,0,0,1-5.44-5.91q-1.64-3.54-1.63-12Z" transform="translate(0 0)" fill="#5f474e"/><polygon points="164.16 0 187.6 0 187.6 8.77 173.09 8.77 173.09 17.34 187.6 17.34 187.6 25.97 173.09 25.97 173.09 47.22 164.16 47.22 164.16 0" fill="#5f474e"/><polygon points="212.48 0 235.92 0 235.92 8.77 221.41 8.77 221.41 17.34 235.92 17.34 235.92 25.97 221.41 25.97 221.41 47.22 212.48 47.22 212.48 0" fill="#5f474e"/><polygon points="260.72 0 269.71 0 269.71 38.65 282.81 38.65 282.81 47.22 260.72 47.22 260.72 0" fill="#5f474e"/><polygon points="305.44 0 331.21 0 331.21 8.81 314.36 8.81 314.36 17.34 331.21 17.34 331.21 25.97 314.36 25.97 314.36 38.4 331.21 38.4 331.21 47.22 305.44 47.22 305.44 0" fill="#5f474e"/></g><polygon points="0.13 66.83 0.13 169.12 60.87 169.12 60.87 146.59 27.77 146.59 27.77 127.28 58.42 127.28 58.42 105.1 27.77 105.1 27.77 89.01 60.87 89.01 60.87 66.83 0.13 66.83" fill="#60484f"/><polygon points="76.31 169.12 76.31 66.83 103.95 66.83 103.95 146.8 143.35 146.8 143.35 169.12 76.31 169.12" fill="#60484f"/><polygon points="217.98 169.12 157.25 169.12 157.25 66.83 217.98 66.83 217.98 89.01 184.89 89.01 184.89 105.1 215.53 105.1 215.53 127.28 184.89 127.28 184.89 146.59 217.98 146.59 217.98 169.12" fill="#60484f"/><polygon points="526.5 66.83 526.5 169.12 587.24 169.12 587.24 146.59 554.14 146.59 554.14 127.28 584.79 127.28 584.79 105.1 554.14 105.1 554.14 89.01 587.24 89.01 587.24 66.83 526.5 66.83" fill="#60484f"/><polygon points="499.14 167.95 380.8 39.98 262.45 167.95 380.8 75.77 499.14 167.95" fill="#63c4b6"/><polygon points="380.8 113.42 285.04 167.95 380.8 130.15 476.56 167.95 380.8 113.42" fill="#c94297"/><polygon points="488.96 167.95 380.8 82.95 272.64 167.95 380.8 106.85 488.96 167.95" fill="#e4a563"/><g clip-path="url(#clip-path-3)"><path d="M0,195.75H17.1q6.84,0,11.72,6.19a23.3,23.3,0,0,1,4.8,14.84,25.54,25.54,0,0,1-4.8,15.65q-4.87,6.48-11.72,6.48H0Zm17.1,40.39q5.61,0,9.61-5.67a23.15,23.15,0,0,0,4-13.69,20.78,20.78,0,0,0-4-12.88q-4-5.31-9.61-5.31H2.91v37.55Z" transform="translate(0 0)" fill="#63c4b6"/><path d="M123,235.63a13.81,13.81,0,0,1-4.73-10.55V195.75h2.91v29.33a11.26,11.26,0,0,0,3.93,8.66,13.32,13.32,0,0,0,9.39,3.57,12.7,12.7,0,0,0,9-3.57,11.57,11.57,0,0,0,3.71-8.66V195.75h2.91v29.33a14,14,0,0,1-4.58,10.55A15.48,15.48,0,0,1,134.47,240a16.5,16.5,0,0,1-11.5-4.37" transform="translate(0 0)" fill="#63c4b6"/><path d="M237.2,195.75h20.08a9,9,0,0,1,6.77,3,10.46,10.46,0,0,1,2.77,7.28,13.6,13.6,0,0,1-1.68,6.91,5.92,5.92,0,0,1-4.14,3.35,8.73,8.73,0,0,1,5.6,3.56,11.38,11.38,0,0,1,2.18,6.91,12.07,12.07,0,0,1-3.35,8.59,10.88,10.88,0,0,1-8.15,3.57H237.2Zm19.5,19.43a6.29,6.29,0,0,0,5.1-2.69,10.2,10.2,0,0,0,2.11-6.47,7.29,7.29,0,0,0-2.11-5.24,6.83,6.83,0,0,0-5.1-2.19H240.11v16.59Zm0,21a8.74,8.74,0,0,0,6.48-2.76,9.17,9.17,0,0,0,2.69-6.63,8.29,8.29,0,0,0-2.69-6.25,9,9,0,0,0-6.48-2.62H240.11v18.26Z" transform="translate(0 0)" fill="#63c4b6"/><polygon points="354.05 195.75 356.96 195.75 356.96 236.14 380.18 236.14 380.18 238.91 354.05 238.91 354.05 195.75" fill="#63c4b6"/><rect x="463.63" y="195.75" width="2.91" height="43.16" fill="#63c4b6"/><polygon points="554.36 238.91 554.36 195.75 558.36 195.75 584.41 235.34 584.41 195.75 587.32 195.75 587.32 238.91 583.32 238.91 557.27 199.9 557.27 238.91 554.36 238.91" fill="#63c4b6"/><path d="M317.87,101.44l11.34-34.62H298.28L284.07,119q-1.11,4.2-2.58,11.55t-2,12.24q-.42-6.78-4.76-24.07L260.84,66.82H229.78l31.35,96.09Z" transform="translate(0 0)" fill="#60484f"/><polygon points="436.82 66.83 436.82 89.43 461.81 89.43 461.81 120.83 489.44 150.69 489.44 89.43 514.35 89.43 514.35 66.83 436.82 66.83" fill="#60484f"/></g></g></g></g></g></svg>