<svg id="Layer_1" data-name="Layer 1" xmlns="http://www.w3.org/2000/svg" xmlns:xlink="http://www.w3.org/1999/xlink" viewBox="0 0 681.9 793.2"><defs><style>.cls-1,.cls-19{fill:none;}.cls-2{clip-path:url(#clip-path);}.cls-3{fill:#3a1612;}.cls-4{fill:#230d11;}.cls-5{fill:#5f1f1a;}.cls-6{fill:#803725;}.cls-7{fill:#dcc2b3;}.cls-8{fill:#4d1f1e;}.cls-9{fill:#9d462d;}.cls-10{fill:#863526;}.cls-11{fill:#cb2883;}.cls-12{fill:#5f2724;}.cls-13{fill:#411615;}.cls-14{fill:#a35147;}.cls-15{fill:#debba6;}.cls-16{fill:#100a12;}.cls-17{fill:#8e6c35;}.cls-18{fill:#a4372d;}.cls-19{stroke:#a4372d;stroke-linecap:round;stroke-linejoin:round;stroke-width:0;}.cls-20{fill:#8b2b26;}.cls-21{fill:#c99e8d;}.cls-22{fill:#e6c7b6;}.cls-23{fill:#957f80;}.cls-24{fill:#be9f9b;}.cls-25{fill:#221e1f;}.cls-26{fill:#fff;}.cls-27{fill:#823d3d;}.cls-28{fill:#3c322c;}.cls-29{fill:#322323;}.cls-30{fill:#d7c3d6;}.cls-31{fill:#bea9c1;}.cls-32{fill:#9c7f3e;}.cls-33{opacity:0.66;}.cls-34{fill:url(#linear-gradient);}.cls-35{fill:url(#linear-gradient-2);}.cls-36{fill:url(#linear-gradient-3);}.cls-37{fill:url(#linear-gradient-4);}.cls-38{fill:url(#linear-gradient-5);}.cls-39{clip-path:url(#clip-path-2);}.cls-40{fill:url(#linear-gradient-6);}.cls-41{clip-path:url(#clip-path-3);}.cls-42{fill:url(#linear-gradient-7);}.cls-43{clip-path:url(#clip-path-4);}.cls-44{fill:url(#linear-gradient-8);}.cls-45{fill:#961b1e;}.cls-46{clip-path:url(#clip-path-5);}.cls-47{fill:url(#linear-gradient-9);}.cls-48{clip-path:url(#clip-path-6);}.cls-49{fill:url(#linear-gradient-10);}.cls-50{clip-path:url(#clip-path-7);}.cls-51{fill:url(#linear-gradient-11);}.cls-52{clip-path:url(#clip-path-8);}.cls-53{fill:url(#linear-gradient-12);}.cls-54{fill:#6fbe44;}.cls-55{clip-path:url(#clip-path-9);}.cls-56{fill:url(#linear-gradient-13);}.cls-57{clip-path:url(#clip-path-10);}.cls-58{fill:url(#linear-gradient-14);}.cls-59{fill:#25144d;}.cls-60{fill:#010101;}.cls-61{fill:url(#linear-gradient-15);}.cls-62{fill:#5f474e;}.cls-63{fill:#64c5b7;}</style><clipPath id="clip-path"><polygon class="cls-1" points="415.67 9.85 391.66 33.61 312.2 80.07 309.47 110.13 309.47 554.09 351.62 552.3 681.9 340.68 677.23 5.72 415.67 9.85"/></clipPath><linearGradient id="linear-gradient" x1="210.83" y1="-2035.86" x2="509.02" y2="-2035.86" gradientTransform="matrix(1, 0, 0, -1, 0, -1593.81)" gradientUnits="userSpaceOnUse"><stop offset="0" stop-color="#9e7ab6"/><stop offset="0.14" stop-color="#a481ba"/><stop offset="0.33" stop-color="#b292c4"/><stop offset="0.56" stop-color="#cdb0d4"/><stop offset="0.58" stop-color="#d0b4d6"/><stop offset="0.76" stop-color="#dac3df"/><stop offset="1" stop-color="#eadeed"/></linearGradient><linearGradient id="linear-gradient-2" x1="-382.88" y1="-1769.7" x2="494.73" y2="-2276.38" xlink:href="#linear-gradient"/><linearGradient id="linear-gradient-3" x1="155.6" y1="-1593.81" x2="155.6" y2="-1775.31" gradientTransform="matrix(1, 0, 0, -1, 0, -1593.81)" gradientUnits="userSpaceOnUse"><stop offset="0" stop-color="#d0b4d6"/><stop offset="0.44" stop-color="#dac3df"/><stop offset="1" stop-color="#eadeed"/></linearGradient><linearGradient id="linear-gradient-4" x1="38.8" y1="-1684.51" x2="272.4" y2="-1684.51" gradientTransform="matrix(1, 0, 0, -1, 0, -1593.81)" gradientUnits="userSpaceOnUse"><stop offset="0" stop-color="#64c5b7"/><stop offset="0.07" stop-color="#61c4b6"/><stop offset="0.18" stop-color="#5bc3b1"/><stop offset="0.2" stop-color="#5dc3b0"/><stop offset="0.34" stop-color="#60c4b3"/><stop offset="0.4" stop-color="#63c5b5"/><stop offset="0.5" stop-color="#5fc4b3"/><stop offset="0.6" stop-color="#5bc3b1"/><stop offset="0.8" stop-color="#62c4b4"/><stop offset="1" stop-color="#5bc3b1"/></linearGradient><linearGradient id="linear-gradient-5" x1="155.6" y1="-1616.41" x2="155.6" y2="-1690.21" gradientTransform="matrix(1, 0, 0, -1, 0, -1593.81)" gradientUnits="userSpaceOnUse"><stop offset="0" stop-color="#9e7ab6"/><stop offset="0.24" stop-color="#a481ba"/><stop offset="0.57" stop-color="#b292c4"/><stop offset="0.96" stop-color="#cdb0d4"/><stop offset="1" stop-color="#d0b4d6"/></linearGradient><clipPath id="clip-path-2"><path class="cls-1" d="M247.8,384.9a13.86,13.86,0,0,0-6.3,10.9c0,2,.7,3.4,1.8,4l2,1.2c1.1.6.4-.8,2.1-1.8a13.86,13.86,0,0,0,6.3-10.9c0-2,1.8-2,.7-2.7l-2.3-1.2a2.93,2.93,0,0,0-1.6-.4,6.64,6.64,0,0,0-2.7.9"/></clipPath><linearGradient id="linear-gradient-6" x1="-106.62" y1="-1119.69" x2="-106" y2="-1119.69" gradientTransform="matrix(15.29, -26.49, -26.49, -15.29, -27781.07, -19539.6)" gradientUnits="userSpaceOnUse"><stop offset="0" stop-color="#838091"/><stop offset="0.29" stop-color="#838091"/><stop offset="0.47" stop-color="#a5a2b0"/><stop offset="0.59" stop-color="#b8b5c3"/><stop offset="0.81" stop-color="#9b98a7"/><stop offset="1" stop-color="#9b98a7"/></linearGradient><clipPath id="clip-path-3"><path class="cls-1" d="M250,386.2a13.86,13.86,0,0,0-6.3,10.9c0,4,2.8,5.6,6.3,3.6a13.86,13.86,0,0,0,6.3-10.9c0-2.8-1.4-4.5-3.5-4.5a4.9,4.9,0,0,0-2.8.9"/></clipPath><linearGradient id="linear-gradient-7" x1="-84.18" y1="-993.8" x2="-83.55" y2="-993.8" gradientTransform="matrix(-13.51, -23.29, -23.29, 13.51, -24026.33, 11861.72)" gradientUnits="userSpaceOnUse"><stop offset="0" stop-color="#9d9eb3"/><stop offset="0.04" stop-color="#9d9eb3"/><stop offset="0.58" stop-color="#d4d2d9"/><stop offset="1" stop-color="#eeebf0"/></linearGradient><clipPath id="clip-path-4"><path class="cls-1" d="M250.6,387.5a12,12,0,0,0-5.4,9.4,4,4,0,0,0,1.5,3.5l3.1,1.8c1,.5.4-.7,1.8-1.5a12,12,0,0,0,5.4-9.4c0-1.7,1.6-1.7.6-2.3l-3.2-1.9a3.19,3.19,0,0,0-1.4-.3,3.72,3.72,0,0,0-2.4.7"/></clipPath><linearGradient id="linear-gradient-8" x1="-125.67" y1="-1124.14" x2="-125.05" y2="-1124.14" gradientTransform="matrix(13.12, -22.74, -22.74, -13.12, -23662.09, -17203.48)" gradientUnits="userSpaceOnUse"><stop offset="0" stop-color="#fbcd9c"/><stop offset="0.34" stop-color="#fbcd9c"/><stop offset="0.81" stop-color="#fceba7"/><stop offset="0.91" stop-color="#f8a88d"/><stop offset="1" stop-color="#f8a88d"/></linearGradient><clipPath id="clip-path-5"><path class="cls-1" d="M253.9,389.3a12,12,0,0,0-5.4,9.4c0,3.4,2.4,4.8,5.4,3.1a12,12,0,0,0,5.4-9.4c0-2.4-1.2-3.8-3-3.8a4.81,4.81,0,0,0-2.4.7"/></clipPath><linearGradient id="linear-gradient-9" x1="-99.41" y1="-977.47" x2="-98.78" y2="-977.47" gradientTransform="matrix(-11.6, -19.99, -19.99, 11.6, -20433.66, 9752.41)" gradientUnits="userSpaceOnUse"><stop offset="0" stop-color="#7f1a17"/><stop offset="1" stop-color="#be2826"/></linearGradient><clipPath id="clip-path-6"><path class="cls-1" d="M225.4,397.9a14.24,14.24,0,0,0-6.4,10.9,4.4,4.4,0,0,0,1.8,4l2,1.2c1.1.6.4-.8,2.1-1.8a13.86,13.86,0,0,0,6.3-10.9c0-2,1.8-2,.7-2.7l-2.3-1.2a2.93,2.93,0,0,0-1.6-.4,4.11,4.11,0,0,0-2.6.9"/></clipPath><linearGradient id="linear-gradient-10" x1="-106.18" y1="-1119.96" x2="-105.56" y2="-1119.96" gradientTransform="matrix(15.29, -26.49, -26.49, -15.29, -27817.1, -19519.6)" xlink:href="#linear-gradient-6"/><clipPath id="clip-path-7"><path class="cls-1" d="M227.6,399.1a13.86,13.86,0,0,0-6.3,10.9c0,4,2.8,5.6,6.3,3.6a13.86,13.86,0,0,0,6.3-10.9c0-2.8-1.4-4.5-3.5-4.5a6.6,6.6,0,0,0-2.8.9"/></clipPath><linearGradient id="linear-gradient-11" x1="-84.18" y1="-994.36" x2="-83.56" y2="-994.36" gradientTransform="matrix(-13.51, -23.29, -23.29, 13.51, -24061.49, 11882.88)" xlink:href="#linear-gradient-7"/><clipPath id="clip-path-8"><path class="cls-1" d="M228.2,400.4a12,12,0,0,0-5.4,9.4,4,4,0,0,0,1.5,3.5l3.1,1.8c1,.5.4-.7,1.8-1.6a12,12,0,0,0,5.4-9.4c0-1.7,1.6-1.7.6-2.3l-3.3-1.9a3.19,3.19,0,0,0-1.4-.3,4.26,4.26,0,0,0-2.3.8"/></clipPath><linearGradient id="linear-gradient-12" x1="-125.16" y1="-1124.44" x2="-124.53" y2="-1124.44" gradientTransform="matrix(13.12, -22.74, -22.74, -13.12, -23698.05, -17182.81)" xlink:href="#linear-gradient-8"/><clipPath id="clip-path-9"><path class="cls-1" d="M231.4,402.2a12,12,0,0,0-5.4,9.4c0,3.5,2.4,4.8,5.4,3.1a12,12,0,0,0,5.4-9.4c0-2.4-1.2-3.8-3-3.8a5.13,5.13,0,0,0-2.4.7"/></clipPath><linearGradient id="linear-gradient-13" x1="-99.44" y1="-977.7" x2="-98.81" y2="-977.7" gradientTransform="matrix(-11.55, -19.88, -19.88, 11.55, -20347.02, 9735.8)" gradientUnits="userSpaceOnUse"><stop offset="0" stop-color="#f8a88d"/><stop offset="0.04" stop-color="#f8a88d"/><stop offset="0.31" stop-color="#fab792"/><stop offset="0.83" stop-color="#fedea3"/><stop offset="1" stop-color="#fceba7"/></linearGradient><clipPath id="clip-path-10"><polygon class="cls-1" points="181.9 372.3 189.3 376.4 305.3 308.7 297.8 304.5 181.9 372.3"/></clipPath><linearGradient id="linear-gradient-14" x1="17.29" y1="-1093.28" x2="17.91" y2="-1093.28" gradientTransform="translate(-409516.97 -223273.12) rotate(117.69) scale(426.92)" xlink:href="#linear-gradient-7"/><linearGradient id="linear-gradient-15" x1="3210.03" y1="-1744.9" x2="3210.03" y2="-1816.01" gradientTransform="matrix(-0.5, -0.87, -0.87, 0.5, 118.03, 4093.94)" xlink:href="#linear-gradient-5"/></defs><title>factory-asset1a</title><g class="cls-2"><path class="cls-1" d="M516.53,163.45l.05.1Z"/><path class="cls-1" d="M485.45,169.67a11.67,11.67,0,0,1,1.14-1h0A9.79,9.79,0,0,0,485.45,169.67Z"/><path class="cls-1" d="M326.8,267.75c-4.44,1.19-10.46,2.65-17.33,3.93v33.58c.67-1.26,1.32-2.5,1.94-3.72C316.8,290.86,322,279.18,326.8,267.75Z"/><path class="cls-1" d="M483.64,172.12l.37-.44-.37.44Z"/><polygon class="cls-1" points="466.06 198.02 466.06 198.03 466.07 198.03 466.06 198.02 466.06 198.02"/><path class="cls-3" d="M562.11,279.65c1.33-2.93,7.65-1.29,10.63-5.78s3,3.93.13,6a12.91,12.91,0,0,1-6.79,2.09s-4.48,8.7-6.34,9.22,6.38,3,5.17,12a38.56,38.56,0,0,1-1.26,6,5.63,5.63,0,0,0,1.87,2.19c3.64,2.46,7.58,1.26,8.91,2.54.85.82-6.72,5.32-12.22,8.42L565.44,357l17.87-8.66L563.48,135.26l1.68-.16h0l-20.7-3.59,14.13,151.9A13.43,13.43,0,0,0,562.11,279.65Z"/><polygon class="cls-4" points="661.93 126.1 661.93 126.1 661.93 126.1 661.93 126.1"/><polygon class="cls-4" points="565.16 135.1 661.93 126.1 649.01 121.78 544.46 131.51 565.16 135.1 565.16 135.1"/><polygon class="cls-4" points="583.31 348.37 565.44 357.03 670 347.3 681.9 340.68 681.9 340.68 681.9 340.68 583.45 349.84 583.31 348.37"/><path class="cls-5" d="M563.48,135.26l19.83,213.11.14,1.47,98.45-9.16h0l-2-21.37-4.7,3L635.72,326l-5.22-56.11L670,266.21l5.18,2.08-1.35-14.47-4.7,3-39.49,3.68-5.22-56.11,39.49-3.68,5.17,2.09L667.88,190l-4.7,3-39.49,3.68-5.22-56.11L658,136.87l5.17,2.08-1.19-12.85h0l-96.77,9Zm63.77,138h0l4.65,49.92h0l-5.7,3.64-39.49,3.68-5.22-56.11L621,270.77l6.27,2.53Zm-6.09-65.48h0l4.64,49.92h0l-5.71,3.65-39.49,3.68L575.39,209l39.49-3.68,6.28,2.54Zm-12.22-66.39,6.28,2.53h0l4.64,49.92h0l-5.7,3.64-39.49,3.68-5.22-56.11Z"/><polygon class="cls-3" points="574.67 201.21 583.24 196.45 578.67 147.36 579.48 147.28 569.45 145.1 574.67 201.21"/><polygon class="cls-4" points="615.22 143.96 615.22 143.96 608.94 141.43 569.45 145.1 579.48 147.28 615.22 143.96"/><polygon class="cls-4" points="583.32 197.28 583.24 196.45 574.67 201.21 614.16 197.53 619.86 193.88 619.86 193.88 619.86 193.88 583.32 197.28"/><polygon class="cls-6" points="578.67 147.36 583.24 196.45 583.32 197.28 619.86 193.88 619.86 193.88 615.22 143.96 615.22 143.96 579.48 147.28 578.67 147.36"/><polygon class="cls-3" points="632.25 191.89 627.69 142.8 628.5 142.72 618.47 140.54 623.68 196.65 632.25 191.89 632.25 191.89"/><polygon class="cls-4" points="632.33 192.72 632.25 191.89 632.25 191.89 623.68 196.65 663.18 192.97 667.88 189.97 668.88 189.32 668.88 189.32 668.88 189.32 632.33 192.72"/><polygon class="cls-4" points="664.23 139.4 664.23 139.4 664.23 139.4 664.23 139.4"/><polygon class="cls-4" points="657.96 136.87 618.47 140.54 628.5 142.72 664.23 139.4 663.13 138.95 657.96 136.87"/><polygon class="cls-6" points="628.5 142.72 627.69 142.8 632.25 191.89 632.33 192.72 668.88 189.32 668.88 189.32 664.23 139.4 664.23 139.4 664.23 139.4 664.23 139.4 628.5 142.72"/><polygon class="cls-3" points="589.18 260.31 584.61 211.22 585.42 211.14 575.39 208.96 580.61 265.07 589.18 260.31 589.18 260.31"/><polygon class="cls-4" points="585.42 211.14 621.16 207.82 614.88 205.28 575.39 208.96 585.42 211.14"/><polygon class="cls-4" points="589.26 261.14 589.18 260.31 589.18 260.31 580.61 265.07 620.1 261.39 625.8 257.74 625.8 257.74 625.8 257.74 589.26 261.14"/><polygon class="cls-4" points="621.16 207.82 621.16 207.82 621.16 207.82 621.16 207.82"/><polygon class="cls-6" points="621.16 207.82 585.42 211.14 584.61 211.22 589.18 260.31 589.26 261.14 625.8 257.74 625.8 257.74 621.16 207.82 621.16 207.82 621.16 207.82 621.16 207.82"/><polygon class="cls-3" points="638.2 255.75 633.63 206.66 634.44 206.58 624.41 204.4 629.63 260.51 638.2 255.75 638.2 255.75"/><polygon class="cls-4" points="638.27 256.58 638.2 255.75 638.2 255.75 629.63 260.51 669.12 256.83 673.82 253.82 674.82 253.18 674.82 253.18 674.82 253.18 638.27 256.58"/><polygon class="cls-4" points="624.41 204.4 634.44 206.58 670.17 203.26 670.17 203.26 670.17 203.26 669.07 202.81 663.9 200.72 624.41 204.4"/><polygon class="cls-6" points="634.44 206.58 633.63 206.66 638.2 255.75 638.27 256.58 674.82 253.18 674.82 253.18 670.17 203.26 670.17 203.26 634.44 206.58"/><polygon class="cls-3" points="595.27 325.79 590.71 276.7 591.52 276.63 591.52 276.62 581.49 274.44 586.71 330.55 595.27 325.79 595.27 325.79"/><polygon class="cls-4" points="591.52 276.63 627.25 273.3 620.98 270.77 581.49 274.44 591.52 276.62 591.52 276.63"/><polygon class="cls-4" points="627.25 273.3 627.25 273.3 627.25 273.3 627.25 273.3"/><polygon class="cls-4" points="595.35 326.63 595.27 325.79 595.27 325.79 586.71 330.55 626.2 326.87 631.9 323.23 631.9 323.22 631.9 323.23 595.35 326.63"/><polygon class="cls-6" points="627.25 273.3 591.52 276.63 590.71 276.7 595.27 325.79 595.35 326.63 631.9 323.23 631.9 323.22 627.25 273.3 627.25 273.3 627.25 273.3 627.25 273.3"/><polygon class="cls-3" points="644.29 321.23 639.72 272.14 640.53 272.06 640.53 272.06 630.5 269.88 635.72 325.99 644.29 321.23 644.29 321.23"/><polygon class="cls-4" points="644.37 322.06 644.29 321.23 644.29 321.23 635.72 325.99 675.21 322.31 679.91 319.31 680.91 318.66 680.91 318.66 680.91 318.66 644.37 322.06"/><polygon class="cls-4" points="676.27 268.74 676.27 268.74 676.27 268.74 676.27 268.74"/><polygon class="cls-4" points="630.5 269.88 640.53 272.06 640.53 272.06 676.27 268.74 675.16 268.29 669.99 266.2 630.5 269.88"/><polygon class="cls-6" points="640.53 272.06 639.72 272.14 644.29 321.23 644.37 322.06 680.91 318.66 680.91 318.66 676.27 268.74 676.27 268.74 676.27 268.74 676.27 268.74 640.53 272.06"/><path class="cls-7" d="M558.93,304.3c3.5-.68,3.4,2.3,4.72,4.86a38.56,38.56,0,0,0,1.26-6c1.21-9-7-11.46-5.17-12s6.34-9.22,6.34-9.22a12.91,12.91,0,0,0,6.79-2.09c2.85-2.1,2.85-10.52-.13-6s-9.3,2.85-10.63,5.78a13.43,13.43,0,0,1-3.52,3.76c-2.92,2.44-6.7,5.09-8,6.94-1.08,1.58,1.63,7.7,4.32,12.94C555.86,304.15,556.56,304.76,558.93,304.3Z"/><path class="cls-8" d="M359.15,450.9c-.77,1.22-1.69,2.64-2.71,4.25l-.36.55c-7.52,11.76-21.06,32.91-36.79,57.35,6.82,15.54,16.89,30.21,31.76,38.35l17.81-88.63h0S363.83,459.21,359.15,450.9Z"/><path class="cls-9" d="M356.08,455.7c-.54.86-1.12,1.76-1.73,2.71L333.94,438l-24.47-1.78V528.3l9.82-15.25C335,488.61,348.56,467.46,356.08,455.7Z"/><path class="cls-9" d="M359.15,450.9c-.77,1.22-1.69,2.64-2.71,4.25,1-1.61,1.94-3,2.71-4.25Z"/><path class="cls-10" d="M354.35,458.41c.61-1,1.19-1.85,1.73-2.71l.36-.55c1-1.61,1.94-3,2.71-4.25a60.68,60.68,0,0,1-6.82-20h0s-17.49.27-42.86-4.47v9.85L333.94,438Z"/><path class="cls-11" d="M562.21,322.31c5.5-3.1,13.07-7.6,12.22-8.42-1.33-1.28-5.27-.08-8.91-2.54a5.63,5.63,0,0,1-1.87-2.19c-1.32-2.56-1.22-5.54-4.72-4.86-2.37.46-3.07-.15-4-1a8.34,8.34,0,0,0-4.78-2.41c-5.86-1.16-5.65,1.38-5.65,1.38s1.19,7,1.58,12.76l12.31,9.41C559.38,323.9,560.72,323.16,562.21,322.31Z"/><path class="cls-8" d="M336.33,243.85c.18-.47.36-.94.53-1.4q.47-1.2.9-2.37c7.66-20.32,12.6-35.47,12.62-35.52h0a318.57,318.57,0,0,1-40.91,25v42.08c6.87-1.28,12.89-2.74,17.33-3.93C330.24,259.5,333.45,251.38,336.33,243.85Z"/><path class="cls-12" d="M402.09,337.31h0c-.26-2.62-.46-5.27-.62-7.93l-18.1,26.12-.32.78-30.73,74.58h0a60.68,60.68,0,0,0,6.82,20h0c4.68,8.31,9.71,11.87,9.71,11.87h0c.86-18.29,18.2-73.86,33.78-120.59-.2-1.54-.37-3.1-.52-4.67Z"/><path class="cls-12" d="M351.76,331.64l0,.1,0,0Z"/><path class="cls-12" d="M414,308.55h0c.24-.7.47-1.38.71-2.06h0C414.52,307.17,414.28,307.86,414,308.55Z"/><path class="cls-12" d="M352.33,430.86h0l7.29-72.06-.49-1.68a39.41,39.41,0,0,1-7.2,5.41,41.56,41.56,0,0,0-7.93-8.45C334,381.52,322.31,407,309.47,424.17v2.22C334.84,431.13,352.33,430.86,352.33,430.86Zm-14.87-54.8a8.17,8.17,0,1,1,4.23,10.47A8,8,0,0,1,337.46,376.06Zm1.2,47.8a7.8,7.8,0,1,1,10.65-3.74A8,8,0,0,1,338.66,423.86Z"/><path class="cls-12" d="M336.86,242.45c-.17.46-.35.93-.53,1.4C336.51,243.38,336.69,242.91,336.86,242.45Z"/><path class="cls-12" d="M350.38,204.56l17.95,15.79h0l-17.95-15.79h0c0,.05-5,15.2-12.62,35.52C345.43,219.73,350.38,204.56,350.38,204.56Z"/><path class="cls-8" d="M344,354.08a36.69,36.69,0,0,0-3.21-2.31h0c-.69-.44-1.41-.86-2.15-1.25h0a26.69,26.69,0,0,0-7.38-2.68h0a24.37,24.37,0,0,0-3.47-.44s2.41-1.2,6.19-3.44l.47-.28c1.15-.69,2.41-1.46,3.76-2.32a7.77,7.77,0,0,1-1.37-8.35,8,8,0,0,1,10.66-3.74,8.39,8.39,0,0,1,3.55,3l.69-.55,0-.1-16.61-57.38,12-6a21.87,21.87,0,0,0,3.32-7.82l-7.75-12.6,25.57-27.47-17.95-15.79s-4.95,15.17-12.62,35.52q-.43,1.17-.9,2.37c-.17.46-.35.93-.53,1.4-2.88,7.53-6.09,15.65-9.53,23.9-4.78,11.43-10,23.11-15.39,33.79-.62,1.22-1.27,2.46-1.94,3.72V424.17C322.31,407,334,381.52,344,354.08Z"/><path class="cls-13" d="M351,332.29a8.39,8.39,0,0,0-3.55-3A8,8,0,0,0,336.83,333a7.77,7.77,0,0,0,1.37,8.35c3.55-2.25,7.73-5.08,12-8.42Z"/><path class="cls-13" d="M341.69,386.53a7.8,7.8,0,1,0-4.23-10.47A8,8,0,0,0,341.69,386.53Z"/><path class="cls-14" d="M359.13,357.12l.49,1.68.24-2.36Z"/><path class="cls-14" d="M358.29,326.19c1.75-1.58,3.47-3.25,5.13-5l2.74-27c-.9.12-1.78.23-2.65.31h0a64.64,64.64,0,0,1-14.93-.3h0l-.28,0-.93-.14-.55-.09-.83-.14-.48-.09-.73-.15-.41-.08-.64-.14-.3-.07-.57-.14-.18,0-.51-.14h0l-.47-.13h0v-.05c-.14-.29-.28-.58-.41-.87h0c-.12-.26-.24-.53-.34-.79s-.14-.35-.2-.52c-.15-.38-.28-.76-.4-1.13-.06-.19-.12-.37-.17-.56-.1-.36-.19-.71-.27-1.06,0-.16-.08-.33-.11-.49-.09-.47-.16-.94-.21-1.39,0,0,0,0,0-.06,0-.48-.06-.94-.07-1.39,0-.14,0-.28,0-.43,0-.31,0-.61.05-.92,0-.15,0-.3.05-.46s.09-.58.14-.87c0-.13.05-.27.08-.4.08-.38.18-.76.29-1.13l0-.08c.12-.4.26-.79.41-1.17l.16-.37c.11-.26.22-.52.34-.78l.2-.4c.12-.26.25-.51.39-.76s.13-.24.2-.36c.17-.31.36-.63.55-.94l.08-.13c.21-.35.44-.7.67-1l.27-.4.45-.66c.11-.17.22-.33.34-.49l.39-.56,1-1.43h0c.56-.8,1.12-1.62,1.65-2.45l-12,6,16.61,57.38,0,.06C354,330,356.13,328.16,358.29,326.19Z"/><path class="cls-14" d="M414.75,306.49l-1.1-2.12c.11,1.38.24,2.77.39,4.18C414.28,307.86,414.52,307.17,414.75,306.49Z"/><path class="cls-14" d="M401.08,316.87c0-1.44,0-2.87,0-4.29l-9.68,23.49h0l-8,19.43,18.1-26.12c-.23-4.1-.36-8.23-.4-12.31h0Z"/><path class="cls-14" d="M342.76,247.82l7.75,12.6a17.63,17.63,0,0,0,.26-2.47c.2-6.38,2.27-13,4.42-18.17h0c1.18-2.88,2.39-5.34,3.33-7.12h0c1-1.93,1.72-3.06,1.72-3.06,1.8.07,3.53.23,5.22.45.11-3.89.62-6.84,1.75-8.08a11.23,11.23,0,0,1,1.43-1.31l-.33-.29h0Z"/><polygon class="cls-15" points="383.06 356.28 352.33 430.86 352.33 430.86 352.33 430.86 352.33 430.86 383.06 356.28"/><path class="cls-15" d="M402.71,274.06l-1,1.14c-.3.33-.59.67-.89,1h0c-.28.87-.58,1.8-.91,2.77l-.09.29c-.15.46-.31.92-.47,1.4-.06.2-.13.4-.2.6-.15.46-.31.92-.47,1.39l-.15.45h0c-2.12,6.19-4.86,13.74-8.13,21.73h0a1.54,1.54,0,0,0-.08.19c-.58,1.4-1.17,2.82-1.78,4.24,0,.11-.09.22-.14.33-.6,1.42-1.23,2.84-1.86,4.26,0,.07-.06.13-.08.19h0c-2.74,6.13-5.76,12.3-9,18.16h0l-.09.16c-1.69,3-3.44,6-5.25,8.76L376.69,353l14.7-16.9,9.68-23.49v-.74c.05-7.3.35-14.28.74-20.46-1,1.31-2.55,1.91-3.77,1.36-1.53-.69-2-2.94-1.08-5s2.94-3.19,4.48-2.5a2.32,2.32,0,0,1,.76.59q.07-1,.15-1.92h0v-.07c.05-.66.11-1.31.16-1.94,0-.17,0-.34.05-.51,0-.45.07-.89.11-1.33l.06-.66c0-.35.07-.7.1-1s.09-.89.13-1.32c0-.24,0-.49.07-.73s0-.23,0-.34h0c.08-.78.15-1.52.23-2.21l-.2-.16Zm-15.66,58.79c-.93,2.08-2.94,3.2-4.48,2.5s-2-2.94-1.08-5,2.95-3.2,4.48-2.5S388,330.78,387.05,332.85ZM395.13,311c-.93,2.07-2.94,3.19-4.48,2.5s-2-2.94-1.08-5,2.95-3.19,4.48-2.5S396.07,308.9,395.13,311Z"/><path class="cls-15" d="M384.46,288.48h0a57.1,57.1,0,0,1-13.63,4.86h0c-1.13.25-2.25.45-3.35.63l-.72.12-.58.09-2.74,27h0l.19-1.88.47,1.19.92-1c.39-.43.78-.86,1.16-1.3l.59-.66c.38-.45.76-.9,1.13-1.36l.56-.66c.37-.46.73-.93,1.1-1.4l.51-.67,1.06-1.44c.72-1,1.42-2,2.07-3.05,3.36-5.3,6.33-10.64,8.92-15.72.79-1.55,1.54-3.08,2.26-4.57Z"/><path class="cls-16" d="M401.44,285.22c-1.54-.69-3.54.43-4.48,2.5s-.45,4.33,1.08,5c1.22.55,2.73-.05,3.77-1.36.13-1.94.26-3.81.39-5.57A2.32,2.32,0,0,0,401.44,285.22Z"/><path class="cls-16" d="M383.06,356.28l.32-.78,8-19.43h0L376.69,353l-4.62-11.87-.07.11-.09.15h0a86.85,86.85,0,0,1-12,15.08l-.24,2.36-7.29,72.06h0Z"/><path class="cls-16" d="M363.42,321.21l.66-.69-.47-1.19Z"/><path class="cls-12" d="M427.38,254h0c.77-.17,1.57-.32,2.38-.45l.56-.09c.74-.11,1.48-.21,2.24-.28l.22,0h0a39.26,39.26,0,0,1,9.41.2c-1.67-7.16-2.66-11.71-2.66-11.71l-19.64.76c2.57,4.05,5.11,8.18,7.15,11.68Z"/><path class="cls-12" d="M445.15,302.22c0,.2,0,.41,0,.61l-.09,1c0,.14,0,.28,0,.42l-.09.9c0,.13,0,.25,0,.38,0,.41-.09.83-.15,1.24v.06c-.05.38-.11.76-.17,1.15,0,.12-.05.25-.07.37-.06.28-.11.56-.17.84l-.09.42c-.07.28-.14.56-.22.84,0,.13-.06.25-.1.37-.12.4-.24.79-.38,1.18l0,0c-.13.38-.29.75-.45,1.12l-.16.36c-.13.27-.26.54-.41.81l-.21.39c-.15.27-.32.54-.48.8l-.23.35q-.37.56-.81,1.11h0a13.3,13.3,0,0,1-.93,1.08l-.33.34c-.24.25-.5.5-.77.75l-.41.37c-.28.25-.58.49-.88.73l-.42.33-.66.48h0c-.24.18-.5.36-.76.53h0l-.26-.09-.09,0-.2-.07-.24-.09-.25-.1-.33-.13-.32-.13-.41-.18-.36-.16-.49-.23-.4-.19-.58-.29-.42-.22-.66-.35-.21-.11h0l-1.09-.63-1.5-.93-.84-.56a44.91,44.91,0,0,1-6.32-5.24h0c-.62-.61-1.23-1.27-1.83-1.95l-.45-.52c-.58-.67-1.15-1.37-1.71-2.11a.39.39,0,0,1-.08-.1h0a45.12,45.12,0,0,1-3-4.51c0,.55.08,1.1.13,1.66l1.1,2.12h0c11.62,22.22,31.25,56,45.66,61.41,15.33,5.75,98.94-42.74,98.94-42.74l-1-.73L546.09,315h0s-57.17,25.75-74,27.66c-5.52.63-14.65-29.3-21.83-56.75-.43.78-.87,1.54-1.34,2.28C446,292.82,445.53,297.57,445.15,302.22ZM543,322.39a3.71,3.71,0,1,1,1.92,4.76A3.64,3.64,0,0,1,543,322.39Z"/><path class="cls-14" d="M416,243.53a61,61,0,0,1,.3,13.92l.36.13.05,0,.19-.08c.44-.2.91-.4,1.39-.6l.23-.1h0a52.65,52.65,0,0,1,8.56-2.73c-2-3.5-4.58-7.63-7.15-11.68l-.41-.65C418.34,242.36,417.17,243,416,243.53Z"/><path class="cls-3" d="M367.23,222c-1.13,1.24-1.64,4.19-1.75,8.08q1.65.21,3.24.51h0l.19,0c1.22.23,2.4.5,3.56.8l.37.11c1,.26,2,.56,2.91.87l.41.13h0c1,.33,1.89.67,2.79,1a116,116,0,0,1-6.67-15.05,17.89,17.89,0,0,0-3.61,2.16A11.23,11.23,0,0,0,367.23,222Z"/><path class="cls-3" d="M405.68,255.47a37.53,37.53,0,0,1,10.59,2,61,61,0,0,0-.3-13.92,63.35,63.35,0,0,1-7.74,3.13Z"/><path class="cls-9" d="M338.64,350.52h0Z"/><path class="cls-9" d="M332.86,344.6,334,344c-3.78,2.24-6.19,3.44-6.19,3.44a24.37,24.37,0,0,1,3.47.44c0-.15,0-.3.07-.46A5.29,5.29,0,0,1,332.86,344.6Z"/><path class="cls-9" d="M372,341.21l.07-.11c1.81-2.8,3.56-5.73,5.25-8.76C375.61,335.41,373.83,338.38,372,341.21Z"/><path class="cls-9" d="M369.54,314.15l.51-.67Z"/><path class="cls-9" d="M384.46,288.48l-.1.22Z"/><path class="cls-9" d="M388.36,309.57c-.6,1.41-1.23,2.84-1.86,4.26C387.13,312.41,387.76,311,388.36,309.57Z"/><path class="cls-9" d="M367.88,316.21l.56-.66Z"/><path class="cls-9" d="M399.78,279.24l-.47,1.4C399.47,280.16,399.63,279.7,399.78,279.24Z"/><path class="cls-9" d="M366.16,318.23l.59-.66Z"/><path class="cls-9" d="M399.87,279c.33-1,.63-1.9.91-2.77h0C400.49,277.06,400.2,278,399.87,279Z"/><path class="cls-9" d="M390.28,305c-.58,1.4-1.17,2.82-1.78,4.24C389.11,307.82,389.7,306.4,390.28,305Z"/><path class="cls-9" d="M399.11,281.24c-.15.46-.31.92-.47,1.39C398.8,282.16,399,281.7,399.11,281.24Z"/><path class="cls-9" d="M371.9,341.36a5.36,5.36,0,0,1,3.61-10,5.19,5.19,0,0,1,1.9.8c3.25-5.86,6.27-12,9-18.16a5.16,5.16,0,0,1-.87-.1,5.36,5.36,0,1,1,4.81-9.11c3.27-8,6-15.54,8.13-21.73a5.31,5.31,0,0,1-.6-3.75c0-.13.07-.26.1-.39a58.58,58.58,0,0,1-9.57,7.32,5.26,5.26,0,0,1,.3,3.13,5.35,5.35,0,0,1-6.34,4.15c-.13,0-.25-.06-.37-.09l.09-.18c-2.59,5.08-5.56,10.42-8.92,15.72-.65,1-1.35,2-2.07,3.05.13-.19.27-.37.4-.55a5.35,5.35,0,0,1-6.69,8.24l.18-.2-.92,1-.66.69h0c-1.66,1.73-3.38,3.4-5.13,5l0,0a5.36,5.36,0,0,1-5.53,8.25,5.3,5.3,0,0,1-2.65-1.41l.08-.06c-4.31,3.34-8.49,6.17-12,8.42-1.35.86-2.61,1.63-3.76,2.32l.53-.32a5.2,5.2,0,0,1,2.69-.13,5.35,5.35,0,0,1,3.13,8.55,36.69,36.69,0,0,1,3.21,2.31,41.56,41.56,0,0,1,7.93,8.45,39.41,39.41,0,0,0,7.2-5.41l.73-.68A86.85,86.85,0,0,0,371.9,341.36Zm-16.74,11.73a5.36,5.36,0,1,1,6.34-4.16A5.36,5.36,0,0,1,355.16,353.09Z"/><path class="cls-17" d="M398.64,282.63c.16-.47.32-.93.47-1.39.07-.2.14-.4.2-.6l.47-1.4.09-.29c.33-1,.62-1.89.91-2.77h0c-.91,1-1.83,1.89-2.77,2.76,0,.13-.07.26-.1.39a5.31,5.31,0,0,0,.6,3.75h0Z"/><path class="cls-17" d="M384.46,288.48h0l-.1.22c-.72,1.49-1.47,3-2.26,4.57l-.09.18c.12,0,.24.07.37.09a5.35,5.35,0,0,0,6.34-4.15,5.26,5.26,0,0,0-.3-3.13C387.1,287.06,385.78,287.81,384.46,288.48Z"/><path class="cls-17" d="M337.66,343.22a5.2,5.2,0,0,0-2.69.13l-.53.32L334,344l-1.11.65a5.29,5.29,0,0,0-1.54,2.77c0,.16-.05.31-.07.46h0a26.69,26.69,0,0,1,7.38,2.68h0c.74.39,1.46.81,2.15,1.25h0a5.35,5.35,0,0,0-3.13-8.55Z"/><path class="cls-17" d="M386.5,313.83c.63-1.42,1.26-2.85,1.86-4.26.05-.11.1-.22.14-.33.61-1.42,1.2-2.84,1.78-4.24a1.54,1.54,0,0,1,.08-.19h0a5.36,5.36,0,1,0-4.81,9.11,5.16,5.16,0,0,0,.87.1h0C386.44,314,386.47,313.9,386.5,313.83Z"/><path class="cls-17" d="M369.54,314.15c-.37.47-.73.94-1.1,1.4l-.56.66c-.37.46-.75.91-1.13,1.36l-.59.66c-.38.44-.77.87-1.16,1.3l-.18.2a5.36,5.36,0,0,0,6.69-8.24c-.13.18-.27.36-.4.55l-1.06,1.44Z"/><path class="cls-17" d="M361.5,348.93a5.36,5.36,0,1,0-6.34,4.16A5.37,5.37,0,0,0,361.5,348.93Z"/><path class="cls-17" d="M377.32,332.34l.09-.16h0a5.19,5.19,0,0,0-1.9-.8,5.36,5.36,0,0,0-3.61,10h0l.09-.15C373.83,338.38,375.61,335.41,377.32,332.34Z"/><path class="cls-17" d="M350.16,333a5.36,5.36,0,0,0,9-2.74,5.36,5.36,0,0,0-.81-4.1l0,0c-2.16,2-4.34,3.78-6.51,5.51l0,0-.69.55-.8.64Z"/><path class="cls-9" d="M423.08,341.77l.05.11Z"/><path class="cls-9" d="M416.3,323.1l.21.84Z"/><path class="cls-9" d="M438.29,369.64c0,.15-.07.29-.11.44h0a22.47,22.47,0,0,1,3.36,1s-1.73-2.08-4.32-5.66l.78,1.07A5.35,5.35,0,0,1,438.29,369.64Z"/><path class="cls-9" d="M417,325.63c.09.3.18.6.26.9C417.13,326.23,417,325.93,417,325.63Z"/><path class="cls-9" d="M417.69,328.15l.3.91Z"/><path class="cls-9" d="M425.49,346.58c.08.16.17.32.26.48C425.66,346.9,425.57,346.74,425.49,346.58Z"/><path class="cls-9" d="M402.12,337.51c.15,1.57.32,3.13.52,4.67.24,1.88.51,3.74.81,5.56C402.9,344.43,402.46,341,402.12,337.51Z"/><path class="cls-9" d="M401.08,316.87c0-1.56,0-3.1,0-4.64v.35C401.06,314,401.07,315.43,401.08,316.87Z"/><path class="cls-9" d="M413.65,304.37c0-.56-.09-1.11-.13-1.66-.59-1-1.15-2.06-1.68-3.17a5.35,5.35,0,0,1-3-6,4.61,4.61,0,0,1,.34-1,59.57,59.57,0,0,1-2.41-14.73h0c0-.43,0-.88,0-1.32,0-.17,0-.34,0-.52a16.53,16.53,0,0,1-3.36-2.21c-.08.69-.15,1.43-.23,2.21a5.35,5.35,0,0,1-.73,7.94q-.08.93-.15,1.92c-.13,1.76-.26,3.63-.39,5.57-.39,6.18-.69,13.16-.74,20.46,0-1.61,0-3.21.07-4.79a5.29,5.29,0,0,1,3-.22,5.36,5.36,0,0,1-2.19,10.49,4.68,4.68,0,0,1-.83-.25c0,4.08.17,8.21.4,12.31.16,2.66.36,5.31.62,7.93a5.25,5.25,0,0,1,2,0,5.36,5.36,0,0,1-.67,10.59c1.85,11,4.93,20.77,9.87,27.38a41.35,41.35,0,0,1,14.51-5.42,5.28,5.28,0,0,1-.06-2.44,5.36,5.36,0,0,1,6.34-4.16,5.42,5.42,0,0,1,2.42,1.2l.46.65a161.12,161.12,0,0,1-10.33-16.34l.06.13A5.35,5.35,0,0,1,422,339.4a.36.36,0,0,0,0,.09c-1.29-2.86-2.48-5.82-3.51-8.84,0,.09.05.19.09.28a5.36,5.36,0,0,1-2.85-10.23c0,.21.1.42.14.63-.25-1.2-.49-2.4-.68-3.59-.48-3.11-.87-6.18-1.18-9.19h0C413.89,307.14,413.76,305.75,413.65,304.37Zm2.69,50.5A5.36,5.36,0,1,1,410,359,5.36,5.36,0,0,1,416.34,354.87Z"/><path class="cls-9" d="M402.57,281.37c0-.45.08-.89.11-1.33C402.64,280.48,402.61,280.92,402.57,281.37Z"/><path class="cls-9" d="M402.74,279.38c0-.35.07-.7.1-1C402.81,278.68,402.78,279,402.74,279.38Z"/><path class="cls-9" d="M402.36,283.82c.05-.66.11-1.31.16-1.94C402.47,282.51,402.41,283.16,402.36,283.82Z"/><path class="cls-9" d="M403,277c0-.24,0-.49.07-.73C403,276.53,403,276.78,403,277Z"/><path class="cls-17" d="M403,276.29c0,.24-.05.49-.07.73,0,.43-.08.87-.13,1.32s-.06.69-.1,1l-.06.66c0,.44-.07.88-.11,1.33,0,.17,0,.34-.05.51,0,.63-.11,1.28-.16,1.94v.07h0a5.35,5.35,0,0,0,.73-7.94h0C403.07,276.06,403.05,276.18,403,276.29Z"/><path class="cls-17" d="M409.14,292.53a4.61,4.61,0,0,0-.34,1,5.35,5.35,0,0,0,3,6A50.4,50.4,0,0,1,409.14,292.53Z"/><path class="cls-17" d="M434.14,363.29a5.36,5.36,0,0,0-6.34,4.16,5.28,5.28,0,0,0,.06,2.44h0a28,28,0,0,1,10.31.19h0c0-.15.08-.29.11-.44a5.35,5.35,0,0,0-.3-3.16l-.78-1.07-.19-.27-.46-.65A5.42,5.42,0,0,0,434.14,363.29Z"/><path class="cls-17" d="M401.07,312.23c0,1.54,0,3.08,0,4.64v.2h0a4.68,4.68,0,0,0,.83.25,5.36,5.36,0,0,0,2.19-10.49,5.29,5.29,0,0,0-3,.22c0,1.58-.06,3.18-.07,4.79Z"/><path class="cls-17" d="M412.63,324.53a5.36,5.36,0,0,0,6,6.4c0-.09-.06-.19-.09-.28-.19-.52-.36-1.06-.53-1.59l-.3-.91-.48-1.62c-.08-.3-.17-.6-.26-.9-.15-.56-.3-1.13-.44-1.69l-.21-.84c-.14-.59-.27-1.18-.4-1.77,0-.21-.1-.42-.14-.63A5.35,5.35,0,0,0,412.63,324.53Z"/><path class="cls-17" d="M410,359a5.36,5.36,0,1,0,6.34-4.16A5.36,5.36,0,0,0,410,359Z"/><path class="cls-17" d="M408.31,343.68a5.36,5.36,0,0,0-4.16-6.34,5.25,5.25,0,0,0-2,0h0l0,.2c.34,3.49.78,6.92,1.33,10.23l0,.19h0A5.36,5.36,0,0,0,408.31,343.68Z"/><path class="cls-17" d="M419.61,342.83a5.35,5.35,0,0,0,7.14,6.1l-.06-.13c-.32-.57-.63-1.15-.94-1.74-.09-.16-.18-.32-.26-.48-.8-1.53-1.59-3.09-2.36-4.7l-.05-.11c-.35-.75-.71-1.51-1.05-2.28a.36.36,0,0,1,0-.09A5.28,5.28,0,0,0,419.61,342.83Z"/><polygon class="cls-18" points="466.06 198.02 466.06 198.02 466.06 198.03 466.06 198.02"/><line class="cls-19" x1="516.53" y1="163.45" x2="516.58" y2="163.55"/><path class="cls-18" d="M316.51,104.39a10.8,10.8,0,0,0,6.67,4.91A10.8,10.8,0,0,1,316.51,104.39Z"/><path class="cls-18" d="M500.82,199.26l-.48.41Z"/><path class="cls-18" d="M499.75,200.18l-.38.29Z"/><path class="cls-18" d="M369.2,154.75a10.8,10.8,0,0,1-8.32-7.64c-4.41-13.67-7.81-24.17-7.81-24.17s-7.42,20,6.84,30.52a48.89,48.89,0,0,0,8,4.83,18.44,18.44,0,0,1,1-3.15A1.81,1.81,0,0,1,369.2,154.75Z"/><path class="cls-18" d="M373.92,155.18v0h0Z"/><path class="cls-18" d="M498.86,200.86l-.41.3Z"/><path class="cls-18" d="M495.87,202.73l-.41.21Z"/><path class="cls-18" d="M385.37,138a15.16,15.16,0,0,1,8.13-9.93,199.42,199.42,0,0,1-17.8-10,16.15,16.15,0,0,1-2.91,5.11c-10.2,12.31,1.22,22.74,7.8,27.3a15.19,15.19,0,0,0,4,.4A34.61,34.61,0,0,1,385.37,138Z"/><path class="cls-18" d="M496.93,202.14l-.44.26Z"/><path class="cls-18" d="M497.92,201.52l-.43.28Z"/><path class="cls-18" d="M320.23,120.67l0,0,0,0Z"/><path class="cls-18" d="M461,150.32c.08.67.18,1.39.33,2.19,1.28,7,5.37,16.17,1.2,24.55q2.19.8,4.38,1.77l5.15,1.5c-.14.27-.29.52-.43.78A165.63,165.63,0,0,1,493.21,195a18,18,0,0,0,8.11,3.79A35.18,35.18,0,0,0,508.85,188s-9.73,4.3-10.9-1.12-9.81-5.53-9.81-5.53c5.17-5.44,7.48,2.67,21.51-1.13,13.37-3.62,7.51-15.59,6.93-16.71.15.34.46,1.79-1.88,6-2.76,4.9-9.46,3.69-18.14-1.14-4.52-2.52-7.82-1.39-10,.26h0L484,171.68l-.37.44h0a11.48,11.48,0,0,1,1.81-2.45,9.79,9.79,0,0,1,1.15-1c.66-.78,1.47-1.75,2.48-2.93,5.43-6.41,6.63-.25,15.76-2.83,4.72-1.32,7-5.41,8-9.06A272.82,272.82,0,0,1,461,150.32Z"/><path class="cls-18" d="M329.56,110.46c-.12,0-.23-.09-.36-.12C329.33,110.37,329.44,110.42,329.56,110.46Z"/><path class="cls-18" d="M351,87.58l.22.17Z"/><path class="cls-18" d="M442.48,221.2h0c13.94,4.55,19.3-.35,19.93-1C461.78,220.85,456.42,225.75,442.48,221.2Z"/><path class="cls-18" d="M494.69,203.29l-.31.14Z"/><polygon class="cls-18" points="460.89 218.83 455.08 214.07 455.08 214.06 460.89 218.83"/><path class="cls-18" d="M480.45,204.14c1.38.25,2.89.46,4.54.63h0C483.34,204.6,481.83,204.39,480.45,204.14Z"/><path class="cls-18" d="M466.07,198l.15.17-.16-.18Z"/><path class="cls-18" d="M479.81,204c-.45-.09-.92-.17-1.35-.27C478.89,203.85,479.36,203.93,479.81,204Z"/><path class="cls-18" d="M476.16,203.19l-1.14-.31Z"/><path class="cls-18" d="M477.86,203.61c-.41-.09-.82-.18-1.2-.28C477,203.43,477.45,203.52,477.86,203.61Z"/><path class="cls-18" d="M468.31,199.91c-.22-.14-.43-.29-.62-.43C467.88,199.62,468.09,199.77,468.31,199.91Z"/><path class="cls-18" d="M358.47,200.39l0,0Z"/><path class="cls-18" d="M469.07,200.39l-.72-.45Z"/><path class="cls-18" d="M472.05,201.83l-1-.42Z"/><path class="cls-18" d="M493.26,203.86,493,204Z"/><path class="cls-18" d="M473.29,202.3l-1.06-.39Z"/><path class="cls-18" d="M474.64,202.75c-.37-.11-.75-.23-1.09-.35C473.89,202.52,474.27,202.64,474.64,202.75Z"/><path class="cls-18" d="M471,201.37l-1-.46Z"/><path class="cls-18" d="M488.28,204.84l-.52,0A4.53,4.53,0,0,0,488.28,204.84Z"/><path class="cls-18" d="M490.87,204.51l-.49.09Z"/><path class="cls-18" d="M489.61,204.72l-.53.06Z"/><path class="cls-18" d="M492.09,204.22l-.45.11Z"/><path class="cls-18" d="M467.63,199.44c-.17-.13-.34-.26-.49-.39C467.29,199.18,467.46,199.31,467.63,199.44Z"/><path class="cls-18" d="M466.6,198.57l-.27-.25Z"/><path class="cls-18" d="M486.86,204.88h0Z"/><path class="cls-18" d="M467.08,199l-.39-.35Z"/><path class="cls-18" d="M470,200.88c-.3-.15-.59-.31-.86-.46C469.39,200.57,469.67,200.73,470,200.88Z"/><path class="cls-18" d="M318.71,97c-3.55-2.89-4.74-8.1-4.74-8.1h0S315.16,94.08,318.71,97Z"/><path class="cls-18" d="M342.21,104.9h0s-1.85-5.93-7.16-7.41C340.37,99,342.21,104.9,342.21,104.9Z"/><path class="cls-18" d="M330.24,110.69c9.34,3.64,8.22,15.31,8.22,15.33h0S339.59,114.33,330.24,110.69Z"/><path class="cls-18" d="M350.34,87.09a16,16,0,0,0-9.67-2.8,21,21,0,0,1-7.55-1.19,21,21,0,0,0,7.55,1.19A16,16,0,0,1,350.34,87.09Z"/><path class="cls-18" d="M361.45,203.13a36,36,0,0,0,7.15,4.36h0A36,36,0,0,1,361.45,203.13Z"/><path class="cls-18" d="M336.9,123.23c-2.19-2.68-5.63-3.52-8.83-3.6C331.27,119.71,334.71,120.55,336.9,123.23Z"/><path class="cls-18" d="M330.74,87c-12-1.45-4.77-15.89-4.76-15.91h0S318.72,85.59,330.74,87a11.21,11.21,0,0,1,8.66,5.85A11.21,11.21,0,0,0,330.74,87Z"/><path class="cls-18" d="M466.06,198h0c.22.28.53.66.92,1.11-.38-.44-.7-.83-.91-1.1h0Z"/><path class="cls-18" d="M483.64,172.12h0l.37-.44,2.59-3.05h0a11.67,11.67,0,0,0-1.14,1A11.48,11.48,0,0,0,483.64,172.12Z"/><path class="cls-20" d="M471.61,181.11a62.61,62.61,0,0,1-7.84,11.2,3.22,3.22,0,0,0,1.11,1.26c3.61,2.21-.67,8.06-1.67,9.63s-4.16,4.74-7.15,9.44-5.52,5-8.61,7.36c-2.3,1.76-3.72.85-4.29.28-.23.31-.45.62-.68.92,13.94,4.55,19.3-.35,19.93-1l.06-.07-1.58-1.29-5.81-4.77h0c14,8.3,25.91-5.67,25.91-5.67-6.79-1.76-11.77-6.68-14-9.27-.39-.45-.7-.83-.92-1.11h0l.16.18.11.12.27.25.09.09.39.35.06,0c.15.13.32.26.49.39l.06,0c.19.14.4.29.62.43l0,0,.72.45.05,0c.27.15.56.31.86.46l0,0,1,.46.09,0,1,.42.18.08,1.06.39.26.1c.34.12.72.24,1.09.35l.38.13,1.14.31c.17.05.32.1.5.14.38.1.79.19,1.2.28l.6.14c.43.1.9.18,1.35.27l.64.12c1.38.25,2.89.46,4.54.63h.07c.45.05.89.08,1.33.09h1.37l.52,0c.27,0,.54,0,.8-.06l.53-.06.77-.12.49-.09.77-.18.45-.11c.29-.08.58-.17.86-.27l.31-.09c.38-.13.75-.28,1.12-.43l.31-.14.77-.35.41-.21.62-.33.44-.26c.19-.11.38-.22.56-.34l.43-.28.53-.36.41-.3.51-.39.38-.29.59-.51.48-.41.51-.47h0a18,18,0,0,1-8.11-3.79A165.63,165.63,0,0,0,471.61,181.11Z"/><path class="cls-20" d="M462.31,177.5l4.58,1.33q-2.19-1-4.38-1.77C462.44,177.2,462.39,177.35,462.31,177.5Z"/><path class="cls-20" d="M369.53,189.7a11.93,11.93,0,0,0-1.43-.11c-2,0-2.29-5.08-3.69-10.9s.95-11.38,1.92-13.53c.69-1.52,1-4.23,1.62-6.87a48.89,48.89,0,0,1-8-4.83c-14.26-10.52-6.84-30.52-6.84-30.52s3.4,10.5,7.81,24.17a10.8,10.8,0,0,0,8.32,7.64c1-1.51,3.25-.81,4.71.41h0c0-.81,0-1.6.07-2.34.23-3.7,3.35-3,6.6-2.35-6.58-4.56-18-15-7.8-27.3a16.15,16.15,0,0,0,2.91-5.11c-13.51-8.59-20-15.42-20.3-17.09a4.8,4.8,0,0,1,1.33-3.66,18.22,18.22,0,0,0-5.55-9.56l-.22-.17c-.2-.17-.41-.33-.62-.49a16,16,0,0,0-9.67-2.8,21,21,0,0,1-7.55-1.19c-8.45-3.24-7.14-12-7.14-12h0S318.73,85.59,330.74,87a11.21,11.21,0,0,1,8.66,5.85c3,5.22,2.81,12,2.81,12h0s-1.84-5.93-7.16-7.41a11.26,11.26,0,0,0-7.13.59c-4.09,1.54-7.08.63-9.21-1.11-3.55-2.89-4.73-8.08-4.74-8.1h0s-1.31,9.34,2.54,15.52a10.8,10.8,0,0,0,6.67,4.91,14.2,14.2,0,0,0,2.39.39,16.67,16.67,0,0,1,3.63.65c.13,0,.24.08.36.12l.68.23c9.35,3.64,8.22,15.33,8.22,15.33h0a8.92,8.92,0,0,0-1.56-2.79c-2.19-2.68-5.63-3.52-8.83-3.6a27.76,27.76,0,0,0-7.84,1h0l0,0c.64.51,10.81,8.83,7,17.27-3.94,8.72-5.7,16.62,12.58,23.44s7.38,7.68,13.57,30a21.49,21.49,0,0,0,5,8.93l0,0a26.74,26.74,0,0,0,3,2.74,36,36,0,0,0,7.15,4.36C367.63,203.28,368.3,196.28,369.53,189.7Z"/><path class="cls-21" d="M403.07,252.17l.12.16c.41.53.8,1,1.16,1.54h0c.38.53.73,1,1.05,1.52l.06.08h.21l2.55-8.81a34.54,34.54,0,0,1-6.56,1.55,16.46,16.46,0,0,1-1.84.1c1.21,1.33,2.29,2.63,3.24,3.86Z"/><path class="cls-18" d="M393.5,128.07a15.16,15.16,0,0,0-8.13,9.93,34.61,34.61,0,0,0-.8,12.87,3.36,3.36,0,0,0,2.75-1.57c2.3-3.77,9.36-13.43,15-17.05Q397.66,130.15,393.5,128.07Z"/><path class="cls-22" d="M447.45,220c3.09-2.36,5.62-2.66,8.61-7.36s6.15-7.88,7.15-9.44,5.28-7.42,1.67-9.63a3.22,3.22,0,0,1-1.11-1.26c-.62.68-1.21,1.31-1.74,1.83a46.7,46.7,0,0,0-10.31,13.92c-1.72,3.41-5.31,7.8-8.56,12.22C443.73,220.85,445.15,221.76,447.45,220Z"/><path class="cls-22" d="M369.2,154.75a1.81,1.81,0,0,0-.22.39,18.44,18.44,0,0,0-1,3.15c-.64,2.64-.93,5.35-1.62,6.87-1,2.15-3.33,7.71-1.92,13.53s1.69,10.86,3.69,10.9a11.93,11.93,0,0,1,1.43.11,93.53,93.53,0,0,1,3.21-12.62c2.31-6.57,1.17-15.31,1.18-21.9v0C372.45,153.94,370.24,153.24,369.2,154.75Z"/><path class="cls-22" d="M406.65,203.25l1.12,1c-.21-.26-.42-.51-.6-.69A4.52,4.52,0,0,0,406.65,203.25Z"/><path class="cls-22" d="M441.51,149.15a23.51,23.51,0,0,0,1.18,2.12c1,1.55,1.82.69,2.76-.81-.58,1.69-2.2,2.85-3.28,1.27a20.35,20.35,0,0,1-2.18-4.19,3.9,3.9,0,0,0-.4-.51,10.83,10.83,0,0,0-.62,3.58c.12,2.85-.43-.18-.56-4.29-.39-.29-1-.86-1.49-1.28-1.58-.44-3.17-.9-4.75-1.38l-1.06-.21A28.17,28.17,0,0,0,433.3,146a14.75,14.75,0,0,1-3.06-2.71h0c-.59-.1-1.34.47-1.95.56-.81,1.22-1.13,1.48-.3,0h0a11.91,11.91,0,0,0-2.28,0,25.67,25.67,0,0,0,2.75,6.76,15.58,15.58,0,0,1-3.56-7c-.86-.56-.52-2.27-1.51-2.61-.35-.13-.25,1.16-.39,2a26.19,26.19,0,0,0,2.65,6.35,15,15,0,0,1-3.22-5.76h0c-1.15-.61-6.22-2.18-8.34-3.13s-3.7-2.81-6.27-5.55a5.94,5.94,0,0,0-.52-.49l-2.75-1.2c-5.65-.13-11.17,12.75-13.07,16.55-2.27,4.54-9.66,7.62-12,15.14-3.71,12,1.92,13.25-1.81,22.92s-.33,25.82-.33,25.82,3-13.25,5.48-14.48-1.35,10.55.76,13,.82-6.07,6.22-10.91,12.1-1.75,14-.48l.14.1a1.09,1.09,0,0,1,1.2-.58,9.33,9.33,0,0,1,3.4,1.52l.08.06a9.93,9.93,0,0,1,1.07,1.22,6.61,6.61,0,0,0,2.2,2,5.43,5.43,0,0,0,2.72.29,11.12,11.12,0,0,1,1.64,0,9.82,9.82,0,0,1,3.54,1.4,1.11,1.11,0,0,1,.41,1.4c4.09,1.58,7.62,3.31,9.47,6.2,1,1.51.76,9.2-5.26,14.46s5.55-1.85,8.23-5-.51,4.44-2.56,5.66,5.63.8,13.34-12,11-17.7,14.9-29.64,7.09-19.48,3.45-28c-3.31-7.7-14.27-7.08-18-13.16l-2.4-.59A5.8,5.8,0,0,0,441.51,149.15Zm-33.32,16.79a61.24,61.24,0,0,1,9.57,6,2.22,2.22,0,0,1-.73,4c-1.2.23-8.17-5.39-11.74-7s-8.59-1.8-12.53-1.21c-3.18.48-.27-2.12,3.17-3.95S405.05,164.37,408.19,165.94Zm-.93,9.21a3.13,3.13,0,0,1-.28,1.29,3.2,3.2,0,0,1-1.65,1.63c-.8.35-4.14-1.19-4.39-2.07a3.17,3.17,0,0,1,.16-2.22,3.14,3.14,0,0,1,.6-.87c-3.78-.78-5.86.39-6,.45a1.63,1.63,0,0,1-1.73-2.77c.2-.13,4.88-3,12.63.53,8.21,3.71,7,8.71,6.92,8.92a1.62,1.62,0,0,1-1.57,1.21,1.59,1.59,0,0,1-.43-.06,1.64,1.64,0,0,1-1.17-1.95C410.51,178.49,409.94,176.82,407.26,175.15ZM444.93,195l-.29,0a1.63,1.63,0,0,1-1.6-1.34,8.23,8.23,0,0,0-3.52-4.81,3.17,3.17,0,0,1-2.08,3.14c-.77.29-3.76-1-4.07-1.69a3.22,3.22,0,0,1,.37-3.28,4.44,4.44,0,0,0-3.74,1.51,1.64,1.64,0,0,1-2.25.46,1.62,1.62,0,0,1-.5-2.22c.13-.21,3.27-5,11.23-2.09a11.8,11.8,0,0,1,7.77,8.4A1.63,1.63,0,0,1,444.93,195Zm5.74-.62c-1.08,1.71-1.44-3.61-4-6.09s-7.51-4.49-11.24-5.1-5.83-3.1-5.14-4.63,2-1,4.08-.51,9.56,2.46,12.2,3.5c3.06,1.2,3.77,3.72,4.55,6.07A8.35,8.35,0,0,1,450.67,194.42Z"/><path class="cls-23" d="M419.81,206.8a9.82,9.82,0,0,0-3.54-1.4,11.12,11.12,0,0,0-1.64,0,5.43,5.43,0,0,1-2.72-.29,6.61,6.61,0,0,1-2.2-2,9.93,9.93,0,0,0-1.07-1.22l-.08-.06a9.33,9.33,0,0,0-3.4-1.52,1.09,1.09,0,0,0-1.2.58,28.55,28.55,0,0,1,2.69,2.35,4.52,4.52,0,0,1,.52.32c.18.18.39.43.6.69a14.89,14.89,0,0,0,3.47,2.45c2.8,1.26,5.18,0,8.67,1.37.11,0,.2.08.31.12A1.11,1.11,0,0,0,419.81,206.8Z"/><path class="cls-20" d="M378.94,233.53A55.49,55.49,0,0,1,391,240.29h0l.2.16c.73.54,1.43,1.09,2.11,1.65l.48.4a60.46,60.46,0,0,1,6.05,5.81,16.46,16.46,0,0,0,1.84-.1,34.54,34.54,0,0,0,6.56-1.55,63.35,63.35,0,0,0,7.74-3.13c1.2-.57,2.37-1.17,3.52-1.8,1.37-.73,2.71-1.49,4-2.26,6.6-4,12.13-7.25,15.78-13.39.94-1.59,2.06-3.23,3.25-4.88h0c.23-.3.45-.61.68-.92,3.25-4.42,6.84-8.81,8.56-12.22A46.7,46.7,0,0,1,462,194.14c.53-.52,1.12-1.15,1.74-1.83a62.61,62.61,0,0,0,7.84-11.2c.14-.26.29-.51.43-.78l-5.15-1.5-4.58-1.33c.08-.15.13-.3.2-.44,4.17-8.38.08-17.55-1.2-24.55-.15-.8-.25-1.52-.33-2.19-5.57-.92-11.34-2.07-17.19-3.5,3.73,6.08,14.69,5.46,18,13.16,3.64,8.5.45,16.05-3.45,28s-7.2,16.87-14.9,29.64-15.38,13.18-13.34,12,5.25-8.76,2.56-5.66-14.25,10.22-8.23,5,6.23-13,5.26-14.46c-1.85-2.89-5.38-4.62-9.47-6.2-.11,0-.2-.09-.31-.12-3.49-1.35-5.87-.11-8.67-1.37a14.89,14.89,0,0,1-3.47-2.45l-1.12-1A28.55,28.55,0,0,0,404,200.9l-.14-.1c-1.91-1.27-8.62-4.35-14,.48s-4.11,13.35-6.22,10.91,1.72-14.22-.76-13-5.48,14.48-5.48,14.48-3.4-16.14.33-25.82-1.9-11,1.81-22.92c2.32-7.52,9.71-10.6,12-15.14,1.9-3.8,7.42-16.68,13.07-16.55l-2.26-1c-5.6,3.62-12.66,13.28-15,17.05a3.36,3.36,0,0,1-2.75,1.57,15.19,15.19,0,0,1-4-.4c-3.25-.63-6.37-1.35-6.6,2.35-.05.74-.06,1.53-.07,2.34v0c0,6.59,1.13,15.33-1.18,21.9a93.53,93.53,0,0,0-3.21,12.62c-1.23,6.58-1.9,13.58-.93,17.79h0c.06.25.11.51.17.73.72,2.36,2,6.11,3.5,10.26A116,116,0,0,0,378.94,233.53Zm29.69-20.35c8.79,5.33,15,2.58,15,5.29,0,1.28-1.14,2.85-2.72,4.27.6.39.31,2.39-1,5.31v0a35.13,35.13,0,0,1-2.32,4.23c-3.9,6.18-13.06,6-14.57,5.71a25.71,25.71,0,0,1-5-1.82,1,1,0,0,1-.29-.11c-4.06-2-11.83-6.89-11.24-11.66.69-5.63,3.14-11.8,4.55-12.73-.6-1.81-.66-2.79.3-3.65C394,205.61,399.84,207.86,408.63,213.18Z"/><path class="cls-20" d="M432.17,143.66l-1.19-.37.13.16Z"/><path class="cls-20" d="M430.24,143.28h0L430,143l-.95-.3c-.28.45-.53.85-.75,1.17C428.9,143.75,429.65,143.18,430.24,143.28Z"/><path class="cls-20" d="M423.39,141c1,.34.65,2.05,1.51,2.61a20.06,20.06,0,0,1-.46-2.53l-1.34-.46-.64-.24A25.24,25.24,0,0,0,423,143C423.14,142.2,423,140.91,423.39,141Z"/><path class="cls-20" d="M428,143.85h0a7.49,7.49,0,0,0,.56-1.34c-1.11-.36-2.21-.73-3.32-1.12a25,25,0,0,0,.48,2.5A11.91,11.91,0,0,1,428,143.85Z"/><path class="cls-20" d="M394.44,231.19a15.74,15.74,0,0,0,4.45,4.78h0a8.15,8.15,0,0,0,4.64,1.19c2.8-.25,6.9-2.79,7.64-4.32,1.07-2.19,2.31-5.38,3.7-6.51a18.21,18.21,0,0,1-11.2-.26c-2-.81-5.66-3.57-8.38-6.55a4.09,4.09,0,0,1,.16,1.31C395.19,223.77,392.63,227,394.44,231.19Z"/><path class="cls-20" d="M414.08,140.49c2.12.95,7.19,2.52,8.34,3.13h0a20.92,20.92,0,0,1-.77-3.49q-7.65-2.81-14.37-5.68a5.94,5.94,0,0,1,.52.49C410.38,137.68,412,139.53,414.08,140.49Z"/><path class="cls-20" d="M439.59,147a3.9,3.9,0,0,1,.4.51c-.1-.28-.21-.56-.3-.84C439.65,146.81,439.62,146.92,439.59,147Z"/><path class="cls-20" d="M441.39,146.23l-1.2-.31a23.84,23.84,0,0,0,1.32,3.23A5.8,5.8,0,0,1,441.39,146.23Z"/><path class="cls-20" d="M438.39,145.44l-1.47-.4c.49.42,1.1,1,1.49,1.28C438.4,146,438.4,145.74,438.39,145.44Z"/><path class="cls-22" d="M414.87,226.33c-1.39,1.13-2.63,4.32-3.7,6.51-.74,1.53-4.84,4.07-7.64,4.32a8.15,8.15,0,0,1-4.64-1.19h0a15.74,15.74,0,0,1-4.45-4.78c-1.81-4.18.75-7.42,1-10.36a4.09,4.09,0,0,0-.16-1.31,15.63,15.63,0,0,1-3.1-4.54c-.51-1.36-.92-2.42-1.22-3.29-1.41.93-3.86,7.1-4.55,12.73-.59,4.77,7.18,9.65,11.24,11.66a1,1,0,0,0,.29.11,25.71,25.71,0,0,0,5,1.82c1.51.26,10.67.47,14.57-5.71a35.13,35.13,0,0,0,2.32-4.23v0c1.33-2.92,1.62-4.92,1-5.31a17.63,17.63,0,0,1-6,3.59Z"/><path class="cls-24" d="M391.27,208c-1,.86-.9,1.84-.3,3.65.3.87.71,1.93,1.22,3.29a15.63,15.63,0,0,0,3.1,4.54c2.72,3,6.39,5.74,8.38,6.55a18.21,18.21,0,0,0,11.2.26h0a17.63,17.63,0,0,0,6-3.59c1.58-1.42,2.73-3,2.72-4.27,0-2.71-6.17,0-15-5.29S394,205.61,391.27,208Zm12.9,3.75.74.44h0l.66.41.44.29.26.17.16.11h0a24.38,24.38,0,0,0,3.27,2.09,27.16,27.16,0,0,0,7.34,2.12c1.18.11,2.78.2,3.36.34h0c1.13.2,2,.57,2.07,1.35.19,1.61-2.15,2.07-4.85,3s-8.5,1.64-12.29-.08a31.89,31.89,0,0,1-10.11-7.76c-1.76-2.32-4.92-5.43-2.79-6.44a5.37,5.37,0,0,1,3.27.21h0a16,16,0,0,1,2.37.81,30.29,30.29,0,0,1,5.72,2.74Z"/><path class="cls-25" d="M416.79,221.74c-2,1.08-4.2.12-6.9-.2a21.81,21.81,0,0,1-7.21-2.61,45.57,45.57,0,0,1-6.51-4.49c-1.31-.89-1-5.13-.46-6.41a5.37,5.37,0,0,0-3.27-.21c-2.13,1,1,4.12,2.79,6.44A31.89,31.89,0,0,0,405.34,222c3.79,1.72,9.6,1,12.29.08s5-1.37,4.85-3c-.09-.78-.94-1.15-2.07-1.35a8.06,8.06,0,0,0-.32.81C419.71,219.79,418.74,220.66,416.79,221.74Z"/><path class="cls-25" d="M404.91,212.23h0Z"/><path class="cls-25" d="M406.44,213.22Z"/><path class="cls-25" d="M405.58,212.65l.44.29Z"/><path class="cls-26" d="M398.08,208.84a16,16,0,0,0-2.37-.81h0c-.57,1.28-.85,5.52.46,6.41a45.57,45.57,0,0,0,6.51,4.49,21.81,21.81,0,0,0,7.21,2.61c2.7.32,4.95,1.28,6.9.2s2.92-2,3.3-3.16a8.06,8.06,0,0,1,.32-.81h0c-.58-.14-2.18-.23-3.36-.34a27.16,27.16,0,0,1-7.34-2.12,24.38,24.38,0,0,1-3.27-2.09h0l-.16-.11-.26-.17-.44-.29-.66-.41h0l-.74-.44-.37-.21A30.29,30.29,0,0,0,398.08,208.84Z"/><path class="cls-20" d="M425.65,149.38A26.19,26.19,0,0,1,423,143a25.24,25.24,0,0,1-.54-2.61l-.8-.29a20.92,20.92,0,0,0,.77,3.49A15,15,0,0,0,425.65,149.38Z"/><path class="cls-20" d="M428.46,150.65a25.67,25.67,0,0,1-2.75-6.76,25,25,0,0,1-.48-2.5l-.79-.27a20.06,20.06,0,0,0,.46,2.53A15.58,15.58,0,0,0,428.46,150.65Z"/><path class="cls-20" d="M433.3,146a28.17,28.17,0,0,1-2.19-2.54l-.13-.16-1-.32.25.31A14.75,14.75,0,0,0,433.3,146Z"/><path class="cls-20" d="M440,147.54a20.35,20.35,0,0,0,2.18,4.19c1.08,1.58,2.7.42,3.28-1.27-.94,1.5-1.8,2.36-2.76.81a23.51,23.51,0,0,1-1.18-2.12,23.84,23.84,0,0,1-1.32-3.23l-.21,0c-.1.27-.2.55-.29.83C439.78,147,439.89,147.26,440,147.54Z"/><path class="cls-20" d="M439,150.61a10.83,10.83,0,0,1,.62-3.58c0-.11.06-.22.1-.33.09-.28.19-.56.29-.83l-1.59-.43c0,.3,0,.59,0,.88C438.54,150.43,439.09,153.46,439,150.61Z"/><path class="cls-20" d="M428,143.85c-.83,1.47-.51,1.21.3,0,.22-.32.47-.72.75-1.17l-.49-.16a7.49,7.49,0,0,1-.56,1.34Z"/><path class="cls-27" d="M392.76,167.73c3.94-.59,8.95-.41,12.53,1.21s10.54,7.23,11.74,7a2.22,2.22,0,0,0,.73-4,61.24,61.24,0,0,0-9.57-6c-3.14-1.57-8.82-4-12.26-2.16S389.58,168.21,392.76,167.73Z"/><path class="cls-27" d="M446.56,181.59c-2.64-1-10.09-3-12.2-3.5s-3.38-1-4.08.51,1.42,4,5.14,4.63,8.67,2.62,11.24,5.1,2.93,7.8,4,6.09a8.35,8.35,0,0,0,.44-6.76C450.33,185.31,449.62,182.79,446.56,181.59Z"/><path class="cls-28" d="M405.28,174.1a17,17,0,0,0-3.58-1.19,3.14,3.14,0,0,0-.6.87,3.17,3.17,0,0,0-.16,2.22c.25.88,3.59,2.42,4.39,2.07a3.2,3.2,0,0,0,1.65-1.63,3.13,3.13,0,0,0,.28-1.29A15.58,15.58,0,0,0,405.28,174.1Z"/><path class="cls-28" d="M433.74,187.08a3.22,3.22,0,0,0-.37,3.28c.31.69,3.3,2,4.07,1.69a3.17,3.17,0,0,0,2.08-3.14,9.87,9.87,0,0,0-2.18-1.11A10.41,10.41,0,0,0,433.74,187.08Z"/><path class="cls-29" d="M411.55,181.19a1.59,1.59,0,0,0,.43.06,1.62,1.62,0,0,0,1.57-1.21c.06-.21,1.29-5.21-6.92-8.92-7.75-3.51-12.43-.66-12.63-.53a1.63,1.63,0,0,0,1.73,2.77c.11-.06,2.19-1.23,6-.45a17,17,0,0,1,3.58,1.19,15.58,15.58,0,0,1,2,1.05c2.68,1.67,3.25,3.34,3.12,4.09A1.64,1.64,0,0,0,411.55,181.19Z"/><path class="cls-29" d="M438.48,184.74c-8-2.94-11.1,1.88-11.23,2.09a1.62,1.62,0,0,0,.5,2.22,1.64,1.64,0,0,0,2.25-.46,4.44,4.44,0,0,1,3.74-1.51,10.41,10.41,0,0,1,3.6.72,9.87,9.87,0,0,1,2.18,1.11,8.23,8.23,0,0,1,3.52,4.81,1.63,1.63,0,0,0,1.6,1.34l.29,0a1.63,1.63,0,0,0,1.32-1.9A11.8,11.8,0,0,0,438.48,184.74Z"/><path class="cls-10" d="M441.91,10.87l1,0Z"/><path class="cls-10" d="M436.66,10.71h0Z"/><path class="cls-10" d="M417.3,48.39c.05-.41.09-.82.14-1.22C417.39,47.57,417.35,48,417.3,48.39Z"/><path class="cls-10" d="M418,41.28l.09-1.18Z"/><path class="cls-10" d="M418.21,37.94l.06-1.09Z"/><path class="cls-10" d="M416.41,55.66c0-.24.07-.49.1-.74C416.48,55.17,416.44,55.42,416.41,55.66Z"/><path class="cls-10" d="M418.39,34.77c0-.33,0-.65,0-1C418.42,34.12,418.4,34.44,418.39,34.77Z"/><path class="cls-10" d="M417.67,44.77c0-.41.08-.82.11-1.22C417.75,44,417.71,44.36,417.67,44.77Z"/><path class="cls-10" d="M416.88,52.08c0-.37.09-.74.13-1.11C417,51.33,416.92,51.71,416.88,52.08Z"/><path class="cls-10" d="M418.59,29c0-.14,0-.26,0-.4C418.59,28.71,418.59,28.83,418.59,29Z"/><path class="cls-10" d="M418.26,14.19l0-.43Z"/><path class="cls-10" d="M418.17,13.14l0-.34Z"/><path class="cls-10" d="M418.1,12.31a1.64,1.64,0,0,1,0-.22A1.8,1.8,0,0,0,418.1,12.31Z"/><path class="cls-10" d="M418.35,15.46c0-.18,0-.35,0-.51C418.33,15.11,418.34,15.28,418.35,15.46Z"/><path class="cls-10" d="M410.83,84.32l-.12.45h0C410.75,84.62,410.79,84.47,410.83,84.32Z"/><path class="cls-10" d="M418.51,18.61l0-.63C418.49,18.18,418.5,18.4,418.51,18.61Z"/><path class="cls-10" d="M418.43,17c0-.2,0-.41,0-.6C418.41,16.54,418.42,16.75,418.43,17Z"/><path class="cls-10" d="M414.54,67.27a2.07,2.07,0,0,1,0-.22A2.07,2.07,0,0,0,414.54,67.27Z"/><path class="cls-10" d="M418.61,22.21c0-.11,0-.22,0-.32C418.61,22,418.61,22.1,418.61,22.21Z"/><path class="cls-10" d="M418,11.26Z"/><path class="cls-10" d="M418,11.71v0Z"/><path class="cls-10" d="M430.25,10.71h0Z"/><path class="cls-10" d="M423.79,10.92l1.1-.05Z"/><path class="cls-10" d="M463.05,13l1,.17Z"/><path class="cls-10" d="M468.05,13.92l.62.12Z"/><path class="cls-10" d="M458,12.26l.92.13Z"/><path class="cls-10" d="M418.51,31.78l0-.8Z"/><path class="cls-10" d="M453.35,11.7l.44.05Z"/><path class="cls-10" d="M413.66,71.82c.09-.44.17-.87.25-1.31C413.83,71,413.75,71.38,413.66,71.82Z"/><path class="cls-10" d="M418.57,20.42c0-.19,0-.4,0-.58C418.56,20,418.56,20.23,418.57,20.42Z"/><path class="cls-10" d="M447.65,11.2l1,.08Z"/><path class="cls-10" d="M412.67,76.5c.12-.55.23-1.09.35-1.63C412.9,75.41,412.79,76,412.67,76.5Z"/><path class="cls-10" d="M411.56,81.32c.15-.61.29-1.21.43-1.82C411.85,80.11,411.71,80.71,411.56,81.32Z"/><path class="cls-10" d="M465.07,36.22c-8.51,6.35-13.94,25.54-13.94,25.54l-3.62,30.71,1.7.6.42.15,3,1.08.36.13,3.09,1.13.33.12,3.14,1.17.22.08c10,3.73,18.94,7.29,20.67,8C491,78.09,505.67,46.76,519.69,36.77c0,0-15.52-15.06-49-22.29C471.09,21.19,470.76,32,465.07,36.22Z"/><path class="cls-10" d="M441.56,141l-5.38-1.24-5.68-1.32c1.18.36,2.36.7,3.54,1,2.44.61,5,1.14,7.73,1.61l-.21-.05Z"/><path class="cls-5" d="M421.86,86h.05l1.74.27.22,0c1.23.2,2.51.43,3.83.68l.16,0c1.33.25,2.7.53,4.1.84l.18,0q1.28.28,2.55.6l1.69.43.19,0c.71.19,1.43.38,2.15.59h0c1.37.39,2.74.81,4.1,1.26l.13,0,3,1,.31.1,1.27.44,3.62-30.71s5.43-19.19,13.94-25.54c5.69-4.24,6-15,5.61-21.74v0l-2-.42-.62-.12c-1.3-.26-2.63-.5-4-.73l-1-.17-1.93-.31-.21,0h0l-2-.29-.92-.13c-1.38-.18-2.78-.35-4.21-.51l-.44-.05c-1.53-.16-3.09-.3-4.66-.42l-1-.08c-1.56-.12-3.15-.22-4.76-.29l-1,0c-1.64-.07-3.3-.13-5-.16h-.26c-1.74,0-3.52,0-5.32,0h-1.09c-1.76,0-3.55.08-5.36.16l-1.1.05c-1.88.09-3.79.19-5.73.33H418s0,.14,0,.4v.05c0,.11,0,.25,0,.38a1.64,1.64,0,0,0,0,.22c0,.14,0,.32,0,.49l0,.34c0,.19,0,.4.06.62l0,.43c0,.24,0,.49.05.76s0,.33,0,.51,0,.58,0,.89,0,.4,0,.6,0,.67.05,1l0,.63c0,.4,0,.8,0,1.23,0,.18,0,.39,0,.58,0,.47,0,.95,0,1.47,0,.1,0,.21,0,.32q0,2.85,0,6.36c0,.14,0,.26,0,.4,0,.65,0,1.33,0,2l0,.8c0,.66-.05,1.34-.08,2,0,.32,0,.64,0,1,0,.68-.08,1.38-.12,2.08l-.06,1.09-.15,2.16L418,41.28c-.06.75-.12,1.5-.19,2.27,0,.4-.07.81-.11,1.22-.07.79-.15,1.59-.23,2.4-.05.4-.09.81-.14,1.22-.09.85-.18,1.7-.29,2.58,0,.37-.09.74-.13,1.11-.12.94-.24,1.88-.37,2.84,0,.25-.07.5-.1.74-.5,3.62-1.1,7.42-1.83,11.39a2.07,2.07,0,0,0,0,.22q-.3,1.61-.63,3.24c-.08.44-.16.87-.25,1.31-.2,1-.42,2-.64,3.05-.12.54-.23,1.08-.35,1.63-.22,1-.45,2-.68,3-.14.61-.28,1.21-.43,1.82-.23,1-.48,2-.73,3,0,.15-.08.3-.11.45C411.81,84.84,416.1,85.17,421.86,86Z"/><path class="cls-30" d="M471,135.37s0,.07,0,.1S471,135.4,471,135.37Z"/><path class="cls-30" d="M470.6,137c0,.08-.05.18-.07.27C470.55,137.19,470.58,137.09,470.6,137Z"/><path class="cls-30" d="M470.37,137.87c0,.11-.05.22-.08.33C470.32,138.09,470.34,138,470.37,137.87Z"/><path class="cls-30" d="M399,114.73c-1.42,2.23-2.71,4.27-3,5.87h0C396.25,119,397.54,117,399,114.73Z"/><path class="cls-30" d="M406.22,96.82q.11-.42.24-.9Q406.33,96.4,406.22,96.82Z"/><path class="cls-30" d="M470.83,136.07c0,.06,0,.13-.05.19S470.81,136.13,470.83,136.07Z"/><path class="cls-30" d="M410.67,84.76h.14c1.22.09,5.44.42,11.05,1.27h0c-5.76-.86-10.05-1.19-11.14-1.26h0l-.28,0h.24Z"/><path class="cls-30" d="M471.09,134.72s0,.07,0,.11S471.09,134.76,471.09,134.72Z"/><path class="cls-30" d="M406.18,97a7.67,7.67,0,0,0-.24,1.34,8.46,8.46,0,0,1-.09.88,8.46,8.46,0,0,0,.09-.88A7.67,7.67,0,0,1,406.18,97Z"/><path class="cls-30" d="M471.27,133.19c0,.06,0,.13,0,.2S471.25,133.25,471.27,133.19Z"/><path class="cls-30" d="M471.61,132.18a2.18,2.18,0,0,0-.11.27C471.53,132.36,471.57,132.27,471.61,132.18Z"/><path class="cls-30" d="M472.13,131.07l-.36.74C471.91,131.52,472,131.27,472.13,131.07Z"/><path class="cls-30" d="M456.41,95.68l3.14,1.17Z"/><path class="cls-30" d="M453,94.43l3.09,1.13Z"/><path class="cls-30" d="M449.63,93.22l3,1.08Z"/><path class="cls-30" d="M471.21,125.37a112.86,112.86,0,0,1-11.41.39q1.17,2.55,2.27,5c4.09.16,7.48.25,10.06.29a1,1,0,0,0,.11-.38c0-.08.22-.78.58-1.91C472.33,127.66,471.78,126.53,471.21,125.37Z"/><path class="cls-30" d="M460.32,97.13l.87.33,2.72,1,1.2.45,2.25.86.64.25h0l1.31.5-1.19-.3c3,5,6.07,10.76,8.78,16.19,2-5.91,3.84-11.41,3.84-11.41l-.3-.12c-1.73-.69-10.68-4.25-20.67-8Z"/><path class="cls-30" d="M465.51,138.76c.73,1.74,1.41,3.41,2.06,5l1.06.05c.52-1.69,1.15-3.78,1.65-5.6C468.84,138.42,467.23,138.6,465.51,138.76Z"/><path class="cls-30" d="M454.82,115.55a51.43,51.43,0,0,0,10,1.51l2,.1c-2-3.5-4.1-7.06-6.26-10.53l-13.18-4.38C450,106.53,452.51,111,454.82,115.55Z"/><path class="cls-30" d="M449.21,93.07l-1.7-.6L446.24,92Z"/><path class="cls-30" d="M451.73,130.3c-.74-1.72-1.53-3.45-2.39-5.18A78.06,78.06,0,0,1,431.93,121c.81,1.62,1.61,3.24,2.4,4.84a40.14,40.14,0,0,0,16.13,4.42Z"/><path class="cls-30" d="M455.62,142c-.21-.93-.45-1.85-.71-2.78A72.89,72.89,0,0,1,440,137.61l.3.65C444.27,139.35,449.93,140.77,455.62,142Z"/><path class="cls-30" d="M423.61,86.31h0L421.91,86h0Z"/><path class="cls-30" d="M440.43,109.93c-1.25-1.87-2.54-3.73-3.86-5.55L430.08,103A59.77,59.77,0,0,0,440.43,109.93Z"/><path class="cls-30" d="M434.69,88.54q-1.28-.32-2.55-.6h0C433,88.13,433.84,88.33,434.69,88.54Z"/><path class="cls-30" d="M427.67,87h0c-1.32-.25-2.6-.48-3.83-.68h.05Q425.74,86.66,427.67,87Z"/><path class="cls-30" d="M431.61,97.79c-.28-.37-.56-.73-.85-1.09L428.52,96Z"/><path class="cls-30" d="M441.77,93.66c1,1.38,2,2.79,2.9,4.25l15.7,8.36c-2.06-3.3-4.14-6.51-6.13-9.5Z"/><path class="cls-30" d="M443,90.92l3,1Z"/><path class="cls-30" d="M432,87.9h0c-1.4-.31-2.77-.59-4.1-.84h0C429.21,87.32,430.57,87.6,432,87.9Z"/><polygon class="cls-31" points="436.18 139.76 430.5 138.45 430.5 138.45 436.18 139.76"/><path class="cls-31" d="M410.43,84.75h0l-.52,1.34Z"/><path class="cls-31" d="M401.69,110.14l-.16.32Z"/><path class="cls-31" d="M408.78,89.07l-.21.58Z"/><path class="cls-31" d="M409.11,88.18c-.06.17-.12.34-.19.51Z"/><path class="cls-31" d="M409.58,87c-.12.3-.24.62-.37,1C409.34,87.57,409.46,87.25,409.58,87Z"/><path class="cls-31" d="M409.84,86.27l-.17.45Z"/><path class="cls-31" d="M399.28,122.82l-2-5.41c.68-1.19,1.54-2.49,2.39-3.84-.25.39-.49.78-.74,1.16-1.42,2.23-2.71,4.27-3,5.87C397.07,121.35,398.16,122.09,399.28,122.82Z"/><path class="cls-31" d="M407.33,93.15c-.16.46-.3.91-.44,1.35C407,94.06,407.18,93.61,407.33,93.15Z"/><path class="cls-31" d="M407.59,92.4c-.08.23-.16.45-.23.67C407.43,92.85,407.51,92.63,407.59,92.4Z"/><path class="cls-31" d="M410.67,84.76h0Z"/><path class="cls-31" d="M402.71,107.82c3.71,6.52,8.05,15.43,12.09,24.14a100.51,100.51,0,0,0,15.1,6.3c-2.44-11-12.93-28.49-23.08-43.56-.13.43-.25.84-.36,1.22s-.17.62-.24.9a.94.94,0,0,0,0,.16,7.67,7.67,0,0,0-.24,1.34,8.46,8.46,0,0,1-.09.88c-.35,2.19-1.55,4-3.12,8.55a.58.58,0,0,1-.05.14Z"/><path class="cls-31" d="M407.92,91.43c-.07.22-.15.43-.22.65C407.77,91.86,407.85,91.65,407.92,91.43Z"/><path class="cls-31" d="M401,111.45l-.08.15Z"/><path class="cls-31" d="M400.27,112.65l-.44.72Z"/><path class="cls-31" d="M402.26,109l-.15.31Z"/><path class="cls-31" d="M408.44,90,408,91.13Z"/><path class="cls-31" d="M462.07,130.77c1.23,2.76,2.38,5.44,3.44,8,1.72-.16,3.33-.34,4.77-.53h0v0c0-.11,0-.22.08-.33s.11-.4.16-.59.05-.19.07-.27q.11-.39.18-.75c0-.06,0-.13.05-.19s.09-.41.13-.6c0,0,0-.07,0-.1,0-.2.07-.38.1-.54s0-.07,0-.11a3.28,3.28,0,0,0,0-.4,5.52,5.52,0,0,1,.1-.93c0-.07,0-.14,0-.2a5.34,5.34,0,0,1,.23-.74,2.18,2.18,0,0,1,.11-.27c.05-.13.11-.25.16-.37l.36-.74h0C469.55,131,466.16,130.93,462.07,130.77Z"/><path class="cls-31" d="M469.31,100.55l-1.31-.5.12.2Z"/><path class="cls-31" d="M465.11,98.94l2.25.86Z"/><path class="cls-31" d="M454.82,115.55c1.76,3.42,3.42,6.85,5,10.21a112.86,112.86,0,0,0,11.41-.39c-1.3-2.65-2.77-5.41-4.35-8.21l-2-.1A51.43,51.43,0,0,1,454.82,115.55Z"/><path class="cls-31" d="M461.19,97.46l2.72,1Z"/><path class="cls-31" d="M440.28,138.26l1.28,2.75.21.05c4.45.78,9.19,1.38,14.06,1.85l-.21-.93C449.93,140.77,444.27,139.35,440.28,138.26Z"/><path class="cls-31" d="M440.43,109.93A59.77,59.77,0,0,1,430.08,103l6.49,1.34c-1.62-2.25-3.28-4.45-5-6.59L428.52,96l2.24.74c-3-3.77-6-7.35-8.9-10.66-5.61-.85-9.83-1.18-11.05-1.27,6.68,8.81,14.27,22.56,21.12,36.2a78.06,78.06,0,0,0,17.41,4.15A140.48,140.48,0,0,0,440.43,109.93Z"/><path class="cls-31" d="M454.91,139.2a76.11,76.11,0,0,0-3.18-8.9l-1.27-.07a40.14,40.14,0,0,1-16.13-4.42c2,4,3.88,8,5.65,11.8A72.89,72.89,0,0,0,454.91,139.2Z"/><path class="cls-31" d="M423.61,86.31,422,86.05Z"/><path class="cls-31" d="M432,87.9c-1.38-.3-2.74-.58-4.06-.84C429.21,87.32,430.57,87.59,432,87.9Z"/><path class="cls-31" d="M436.38,89l-1.69-.43c-.85-.21-1.7-.41-2.54-.59Q434.24,88.42,436.38,89Z"/><path class="cls-31" d="M438.72,89.61c-.72-.21-1.44-.4-2.15-.59C437.28,89.21,438,89.4,438.72,89.61Z"/><path class="cls-31" d="M427.67,87q-1.94-.36-3.75-.66Q425.74,86.66,427.67,87Z"/><path class="cls-31" d="M444.67,97.91c.93,1.42,1.85,2.86,2.75,4.34l13.18,4.38c-.08-.12-.16-.24-.23-.36Z"/><path class="cls-31" d="M441.77,93.66l12.47,3.11-1.66-2.49c2.59.94,5.2,1.9,7.74,2.85l-.55-.2-.22-.08-3.14-1.17-.33-.12L453,94.43l-.36-.13-3-1.08-.42-.15-3-1-.31-.1-3-1-.13,0c-1.36-.45-2.73-.87-4.1-1.26C439.76,90.9,440.77,92.27,441.77,93.66Z"/><path class="cls-11" d="M465.51,138.76c-1.06-2.55-2.21-5.23-3.44-8q-1.1-2.46-2.27-5c-1.56-3.36-3.22-6.79-5-10.21-2.31-4.52-4.79-9-7.4-13.3-.9-1.48-1.82-2.92-2.75-4.34s-1.92-2.87-2.9-4.25-2-2.76-3-4h0c-.72-.21-1.44-.4-2.15-.59l-.19,0q-2.14-.56-4.23-1h0l-.18,0h0c-1.38-.31-2.74-.58-4.06-.84h0l-.16,0h0q-1.94-.36-3.75-.66h-.05l-.22,0h0L422,86.05h-.09c2.91,3.31,5.92,6.89,8.9,10.66.29.36.57.72.85,1.09,1.68,2.14,3.34,4.34,5,6.59,1.32,1.82,2.61,3.68,3.86,5.55a140.48,140.48,0,0,1,8.91,15.19c.86,1.73,1.65,3.46,2.39,5.18a76.11,76.11,0,0,1,3.18,8.9c.26.93.5,1.85.71,2.78l.21.93c3.87.36,7.81.65,11.74.87C466.92,142.17,466.24,140.5,465.51,138.76Z"/><path class="cls-11" d="M468.12,100.25l-.12-.2h0l-.64-.25-2.25-.86-1.2-.45-2.72-1-.87-.33c-2.54-.95-5.15-1.91-7.74-2.85l1.66,2.49c2,3,4.07,6.2,6.13,9.5.07.12.15.24.23.36,2.16,3.47,4.29,7,6.26,10.53,1.58,2.8,3.05,5.56,4.35,8.21.57,1.16,1.12,2.29,1.61,3.4h0c.85-2.65,2.51-7.62,4.09-12.33h0C474.19,111,471.14,105.29,468.12,100.25Z"/><path class="cls-11" d="M397.31,117.41l2,5.41A160,160,0,0,0,414.8,132c-4-8.71-8.38-17.62-12.09-24.14l0,.07c-.13.36-.27.71-.42,1.07l-.15.31q-.19.44-.42.87l-.16.32c-.18.33-.36.66-.55,1l-.08.15c-.2.35-.42.7-.63,1.05l-.44.72a1.37,1.37,0,0,0-.13.2C398.85,114.92,398,116.22,397.31,117.41Z"/><path class="cls-11" d="M429.9,138.26l.6.19,5.68,1.32,5.38,1.24h0l-1.28-2.75-.3-.65c-1.77-3.78-3.67-7.76-5.65-11.8-.79-1.6-1.59-3.22-2.4-4.84-6.85-13.64-14.44-27.39-21.12-36.2h-.38l-.52,1.34-.07.18-.17.45-.09.23c-.12.3-.24.62-.37,1,0,.09-.06.18-.1.27l-.19.51-.14.38-.21.58c0,.11-.08.22-.13.34L408,91.13c0,.1-.07.2-.11.3s-.15.43-.22.65-.08.21-.11.32-.16.45-.23.67l0,.08c-.15.46-.3.91-.44,1.35,0,.07-.05.14-.07.2h0C417,109.77,427.46,127.25,429.9,138.26Z"/><path class="cls-5" d="M355.4,101c.32,1.67,6.79,8.5,20.3,17.09a199.42,199.42,0,0,0,17.8,10q4.15,2.09,8.78,4.18l2.26,1,2.75,1.2q6.72,2.87,14.37,5.68l.8.29.64.24,1.34.46.79.27c1.11.39,2.21.76,3.32,1.12l.49.16.95.3,1,.32,1.19.37c1.58.48,3.17.94,4.75,1.38l1.47.4,1.59.43.21,0,1.2.31,2.4.59c5.85,1.43,11.62,2.58,17.19,3.5a272.82,272.82,0,0,0,51.89,3.49c3.15-.11,4.91-.24,4.91-.24,4.27-.32,6.36-5.86-.07-8-4.19-1.4-26.28-.52-49.08-1.73l-1.06-.05c-3.93-.22-7.87-.51-11.74-.87-4.87-.47-9.61-1.07-14.06-1.85-2.69-.47-5.29-1-7.73-1.61-1.18-.3-2.36-.64-3.54-1h0l-.6-.19a100.51,100.51,0,0,1-15.1-6.3,160,160,0,0,1-15.52-9.14c-1.12-.73-2.21-1.47-3.29-2.22h0A309.2,309.2,0,0,1,367.4,97.82c-4.78-4.13-8.7-2.78-10.67-.51A4.8,4.8,0,0,0,355.4,101Z"/><path class="cls-10" d="M457.84,263.38c-.09.45-.19.94-.29,1.46C457.65,264.32,457.75,263.83,457.84,263.38Z"/><path class="cls-10" d="M451.51,256l.75.33Z"/><path class="cls-10" d="M457.52,265c-.24,1.13-.53,2.41-.88,3.8C457,267.38,457.28,266.09,457.52,265Z"/><path class="cls-10" d="M449.64,255.21l.6.24Z"/><path class="cls-10" d="M447.31,254.44l.52.15Z"/><path class="cls-10" d="M418.73,310h0c.6.68,1.21,1.34,1.83,1.95h0C419.94,311.29,419.33,310.63,418.73,310Z"/><path class="cls-10" d="M429.22,318.64l-1.5-.93Z"/><path class="cls-10" d="M438.26,319.55c-.28.25-.58.49-.88.73C437.68,320,438,319.8,438.26,319.55Z"/><path class="cls-10" d="M406.73,277.8h0a59.57,59.57,0,0,0,2.41,14.73,50.4,50.4,0,0,0,2.7,7c.53,1.11,1.09,2.16,1.68,3.17a45.12,45.12,0,0,0,3,4.51h0C411.47,300.55,407.3,291.06,406.73,277.8Z"/><path class="cls-10" d="M440.7,317a13.3,13.3,0,0,1-.93,1.08A13.3,13.3,0,0,0,440.7,317Z"/><path class="cls-10" d="M441.52,315.89q-.37.56-.81,1.11Q441.15,316.45,441.52,315.89Z"/><path class="cls-10" d="M442.23,314.74c-.15.27-.32.54-.48.8C441.91,315.28,442.08,315,442.23,314.74Z"/><path class="cls-10" d="M416.57,307.32h0c.56.74,1.13,1.44,1.71,2.11h0C417.7,308.76,417.13,308.06,416.57,307.32Z"/><path class="cls-10" d="M436.3,321.09l.66-.48c-.2.16-.44.32-.66.47Z"/><path class="cls-10" d="M442.44,314.35c.15-.27.28-.54.41-.81C442.72,313.81,442.59,314.08,442.44,314.35Z"/><polygon class="cls-10" points="435.54 321.63 435.54 321.63 435.54 321.63 435.54 321.63"/><path class="cls-10" d="M420.56,311.91a44.91,44.91,0,0,0,6.32,5.24,44.91,44.91,0,0,1-6.32-5.24Z"/><path class="cls-10" d="M443.46,312.06c-.13.38-.29.75-.45,1.12C443.17,312.81,443.33,312.44,443.46,312.06Z"/><path class="cls-10" d="M445.1,302.83l-.09,1Z"/><path class="cls-10" d="M444.84,305.55c0,.41-.09.83-.15,1.24C444.75,306.38,444.8,306,444.84,305.55Z"/><path class="cls-10" d="M445,304.27l-.09.9Z"/><path class="cls-10" d="M430.33,253.44c.74-.11,1.48-.21,2.24-.28C431.81,253.23,431.07,253.33,430.33,253.44Z"/><path class="cls-10" d="M427.39,254c.77-.17,1.57-.32,2.38-.45C429,253.66,428.16,253.81,427.39,254Z"/><path class="cls-10" d="M444.44,308.37c-.06.28-.11.56-.17.84C444.33,308.93,444.38,308.65,444.44,308.37Z"/><path class="cls-10" d="M443.86,310.84c-.12.4-.24.79-.38,1.18C443.62,311.63,443.74,311.24,443.86,310.84Z"/><path class="cls-10" d="M444.18,309.63c-.07.28-.14.56-.22.84C444,310.19,444.11,309.91,444.18,309.63Z"/><path class="cls-10" d="M432.79,253.13a4.11,4.11,0,0,1,.18,4c-.9,2-2.94,3-4.55,2.28s-2.2-2.94-1.3-4.93c.08-.17.17-.33.26-.49l-.33.08a52.65,52.65,0,0,0-8.56,2.73,4.84,4.84,0,0,1-.39,1.39h0c4.06,1.83,2.24,5.82-.14,10.8,2,.72,4,1.48,6,2.29a2.94,2.94,0,0,1,5.14,2.31c7.05,3.48,12.12,7.52,10.94,11.7,0,0-4.16-10.3-17.16-4,0,0,17-.17,15.44,12.14-.68,5.23,2.78,7.19,6.94,7.94,0,.27-.05.54-.07.82.38-4.65.82-9.4,3.73-14,.47-.74.91-1.5,1.34-2.28a74.93,74.93,0,0,0,6.42-17.16c-.18.7-.37,1.42-.58,2.17a2.6,2.6,0,0,1-.47-.16c-1.62-.73-2.2-2.94-1.3-4.93a4,4,0,0,1,3.56-2.51c.41-2.11.58-3.4.58-3.4a37.33,37.33,0,0,0-6-3.52,3.48,3.48,0,0,1-4.2,1.64,3.37,3.37,0,0,1-1.65-3.81,35.47,35.47,0,0,0-4.42-.92A39.26,39.26,0,0,0,432.79,253.13Zm16.58,32c-.9,2-2.94,3-4.56,2.29s-2.19-2.94-1.29-4.93,2.94-3,4.56-2.29S450.27,283.18,449.37,285.17Zm-7.88-18.95c1.62.73,2.2,2.94,1.3,4.93s-2.94,3-4.56,2.28-2.2-2.93-1.3-4.93S439.87,265.49,441.49,266.22Z"/><path class="cls-10" d="M444.68,306.85c-.05.38-.11.76-.17,1.15C444.57,307.61,444.63,307.23,444.68,306.85Z"/><path class="cls-10" d="M439.44,318.43c-.24.25-.5.5-.77.75C438.94,318.93,439.2,318.68,439.44,318.43Z"/><path class="cls-10" d="M416.68,257.56l-.05,0h0Z"/><path class="cls-10" d="M416.87,257.48c.44-.2.91-.4,1.39-.6C417.78,257.08,417.31,257.28,416.87,257.48Z"/><path class="cls-10" d="M406.67,276h0c0,.18,0,.35,0,.52h0C406.68,276.29,406.67,276.13,406.67,276Z"/><path class="cls-9" d="M435.53,321.64Z"/><path class="cls-9" d="M432.58,320.43l.49.23Z"/><path class="cls-9" d="M434.16,321.13l.33.13Z"/><path class="cls-9" d="M431.6,320l.58.29Z"/><path class="cls-9" d="M430.52,319.38l.66.35Z"/><path class="cls-9" d="M434.74,321.36l.24.09Z"/><path class="cls-9" d="M416.57,307.32c.56.74,1.13,1.44,1.71,2.11C417.7,308.76,417.13,308.06,416.57,307.32Z"/><path class="cls-9" d="M420.56,311.9c-.62-.61-1.23-1.27-1.83-1.95C419.33,310.63,419.94,311.29,420.56,311.9Z"/><path class="cls-9" d="M433.43,320.82l.41.18Z"/><path class="cls-9" d="M435.18,321.52l.09,0Z"/><path class="cls-9" d="M410.79,277a3.3,3.3,0,0,1-3.71,1l-.35-.2c.57,13.26,4.74,22.75,9.76,29.42.9-2,2.94-3,4.55-2.27s2.2,2.94,1.29,4.93a4.43,4.43,0,0,1-1.77,2,44.91,44.91,0,0,0,6.32,5.24l.84.56,1.5.93,1.09.63c1-1.69,2.84-2.51,4.33-1.83a3.32,3.32,0,0,1,1.66,3.64c.22-.15.46-.31.66-.47l.42-.33c.3-.24.6-.48.88-.73l.41-.37c.27-.25.53-.5.77-.75l.33-.34a13.3,13.3,0,0,0,.93-1.08h0q.44-.56.81-1.11l.23-.35c.16-.26.33-.53.48-.8l.21-.39c.15-.27.28-.54.41-.81l.16-.36c.16-.37.32-.74.45-1.12l0,0c.14-.39.26-.78.38-1.18,0-.12.07-.24.1-.37.08-.28.15-.56.22-.84l.09-.42c.06-.28.11-.56.17-.84,0-.12,0-.25.07-.37.06-.39.12-.77.17-1.15v-.06c.06-.41.11-.83.15-1.24,0-.13,0-.25,0-.38l.09-.9c0-.14,0-.28,0-.42l.09-1c0-.2,0-.41,0-.61s0-.55.07-.82c-4.16-.75-7.62-2.71-6.94-7.94,1.6-12.31-15.44-12.14-15.44-12.14,13-6.34,17.16,4,17.16,4,1.18-4.18-3.89-8.22-10.94-11.7a4.67,4.67,0,0,1-.41,1.86c-.9,2-2.94,3-4.55,2.29s-2.2-2.94-1.3-4.94a4.59,4.59,0,0,1,1.12-1.52c-1.95-.81-4-1.57-6-2.29-.61,1.29-1.26,2.64-1.86,4C414.88,275.88,412.93,277,410.79,277Zm27.7,22.81c1.62.73,2.2,2.94,1.3,4.93s-2.94,3-4.56,2.28-2.19-2.94-1.29-4.93S436.88,299.08,438.49,299.81Zm-10.26-12.07c.9-2,2.94-3,4.56-2.28s2.2,2.94,1.3,4.93-2.95,3-4.56,2.29S427.33,289.74,428.23,287.74ZM417,294.43c-.9,2-2.94,3-4.55,2.28s-2.2-2.94-1.3-4.93,2.94-3,4.56-2.29S417.89,292.43,417,294.43Z"/><path class="cls-9" d="M406.69,276.46c0-.17,0-.34,0-.51h0C406.67,276.13,406.68,276.29,406.69,276.46Z"/><path class="cls-32" d="M438.23,273.43c1.62.74,3.66-.29,4.56-2.28s.32-4.2-1.3-4.93-3.66.29-4.56,2.28S436.61,272.7,438.23,273.43Z"/><path class="cls-32" d="M411.13,291.78c-.9,2-.32,4.2,1.3,4.93s3.65-.29,4.55-2.28.32-4.2-1.29-4.94S412,289.79,411.13,291.78Z"/><path class="cls-32" d="M429.53,292.68c1.61.73,3.65-.3,4.56-2.29s.32-4.2-1.3-4.93-3.66.29-4.56,2.28S427.91,291.94,429.53,292.68Z"/><path class="cls-32" d="M422.8,272.79c-.9,2-.32,4.2,1.3,4.94s3.65-.3,4.55-2.29a4.67,4.67,0,0,0,.41-1.86,2.94,2.94,0,0,0-5.14-2.31A4.59,4.59,0,0,0,422.8,272.79Z"/><path class="cls-32" d="M407.08,278a3.3,3.3,0,0,0,3.71-1,9.42,9.42,0,0,1-4.11-1.05c0,.17,0,.34,0,.51h0c0,.44,0,.89,0,1.32h0Z"/><path class="cls-32" d="M427.12,254.47c-.9,2-.32,4.2,1.3,4.93s3.65-.29,4.55-2.28a4.11,4.11,0,0,0-.18-4h0l-.22,0c-.76.07-1.5.17-2.24.28l-.56.09c-.81.13-1.61.28-2.38.45h0C427.29,254.14,427.2,254.3,427.12,254.47Z"/><path class="cls-32" d="M435.23,307c1.62.73,3.66-.29,4.56-2.28s.32-4.2-1.3-4.93-3.65.29-4.55,2.28S433.62,306.29,435.23,307Z"/><path class="cls-32" d="M448.27,258.06a3.48,3.48,0,0,0,4.2-1.64h0l-.22-.1-.75-.33c-.42-.19-.85-.37-1.27-.53l-.6-.24c-.61-.23-1.21-.43-1.81-.62l-.52-.15-.68-.21v0A3.37,3.37,0,0,0,448.27,258.06Z"/><path class="cls-32" d="M434.64,317.44c-1.49-.68-3.34.14-4.33,1.83h0l.21.11.66.35.42.22.58.29.4.19.49.23.36.16.41.18.32.13.33.13.25.1.24.09.2.07.09,0,.26.09h0c.26-.17.52-.35.76-.53h0A3.32,3.32,0,0,0,434.64,317.44Z"/><path class="cls-32" d="M418.1,258.18a4.84,4.84,0,0,0,.39-1.39h0l-.23.1c-.48.2-.95.4-1.39.6l-.19.08,0,0C417.14,257.77,417.63,258,418.1,258.18Z"/><path class="cls-32" d="M422.33,309.88c.91-2,.33-4.2-1.29-4.93s-3.65.29-4.55,2.27h0a.39.39,0,0,0,.08.1h0c.56.74,1.13,1.44,1.71,2.11h0l.45.52h0c.6.68,1.21,1.34,1.83,1.95h0A4.43,4.43,0,0,0,422.33,309.88Z"/><path class="cls-32" d="M448.08,280.24c-1.62-.73-3.66.29-4.56,2.29s-.32,4.2,1.29,4.93,3.66-.3,4.56-2.29S449.69,281,448.08,280.24Z"/><path class="cls-32" d="M454.29,265.85c-.9,2-.32,4.2,1.3,4.93a2.6,2.6,0,0,0,.47.16c.21-.75.4-1.47.58-2.17h0c.35-1.39.64-2.67.88-3.8l0-.12c.1-.52.2-1,.29-1.46v0h0A4,4,0,0,0,454.29,265.85Z"/><path class="cls-10" d="M348.57,294.19h0a64.64,64.64,0,0,0,14.93.3h0A64.64,64.64,0,0,1,348.57,294.19Z"/><path class="cls-10" d="M339.52,285.87c0-.48-.06-.94-.07-1.39C339.46,284.93,339.47,285.39,339.52,285.87Z"/><path class="cls-10" d="M340.12,288.87c-.1-.36-.19-.71-.27-1.06C339.93,288.16,340,288.51,340.12,288.87Z"/><path class="cls-10" d="M339.46,284.05c0-.31,0-.61.05-.92C339.49,283.44,339.47,283.74,339.46,284.05Z"/><path class="cls-10" d="M339.74,287.32c-.09-.47-.16-.94-.21-1.39C339.58,286.38,339.65,286.85,339.74,287.32Z"/><path class="cls-10" d="M340.69,290.56c-.15-.38-.28-.76-.4-1.13C340.41,289.8,340.54,290.18,340.69,290.56Z"/><path class="cls-10" d="M347.36,294h0l.93.14h0Z"/><path class="cls-10" d="M355.2,239.77c1.18-2.88,2.39-5.34,3.33-7.12C357.59,234.43,356.38,236.89,355.2,239.77Z"/><path class="cls-10" d="M341.63,292.75v0h0Z"/><path class="cls-10" d="M339.56,282.67c0-.29.09-.58.14-.87C339.65,282.09,339.6,282.38,339.56,282.67Z"/><path class="cls-10" d="M342.17,293h0l.51.14h0Z"/><path class="cls-10" d="M340.89,291.08c.1.26.22.53.34.79h0C341.12,291.61,341,291.34,340.89,291.08Z"/><path class="cls-10" d="M341.65,292.8h0l.47.13h0Z"/><path class="cls-10" d="M342.86,293.12h0l.57.14h0Z"/><path class="cls-10" d="M344.77,293.55h0l.73.15h0Z"/><path class="cls-10" d="M343.73,293.33h0l.64.14h0Z"/><path class="cls-10" d="M346,293.79h0l.83.14h0Z"/><path class="cls-10" d="M339.78,281.4c.08-.38.18-.76.29-1.13C340,280.64,339.86,281,339.78,281.4Z"/><path class="cls-10" d="M340.09,280.19c.12-.4.26-.79.41-1.17C340.35,279.4,340.21,279.79,340.09,280.19Z"/><path class="cls-10" d="M340.66,278.65c.11-.26.22-.52.34-.78C340.88,278.13,340.77,278.39,340.66,278.65Z"/><path class="cls-10" d="M345.54,270.69c4.74,2,9.6,2.64,12.45-1.92,6.74-10.75,24,.09,24,.09-8.93-13.19-20.16-7.65-20.16-7.65,1.63-4,9.55-4.06,19.08-2.39a3.93,3.93,0,0,1,6.81,1.4c4.62,1.07,9.35,2.38,13.75,3.7a46,46,0,0,1,2.27-6.72,4,4,0,0,1-1.2-3.69,3.87,3.87,0,0,1,.55-1.34c-.95-1.23-2-2.53-3.24-3.86a60.46,60.46,0,0,0-6.05-5.81c.74.62,1.46,1.24,2.14,1.87a3.33,3.33,0,0,1-.07.54,4,4,0,1,1-4.86-4.62,55.49,55.49,0,0,0-12.05-6.76c-.9-.37-1.84-.71-2.79-1a4,4,0,0,1-7.43-2q-1.59-.3-3.24-.51c-1.69-.22-3.42-.38-5.22-.45,0,0-.7,1.13-1.72,3.06a4,4,0,0,1-2.75,7.31,3.78,3.78,0,0,1-.6-.17C353,245,351,251.57,350.77,258a17.63,17.63,0,0,1-.26,2.47,21.87,21.87,0,0,1-3.32,7.82C346.66,269.07,346.1,269.89,345.54,270.69Zm23-22.41a4,4,0,1,1,3.09,4.67A4,4,0,0,1,368.57,248.28Zm-16.24,7a4,4,0,1,1,3.09,4.67A4,4,0,0,1,352.33,255.24Z"/><path class="cls-10" d="M343.36,273.83l.45-.66Z"/><path class="cls-10" d="M344.15,272.68l.39-.56Z"/><path class="cls-10" d="M342.42,275.28c.21-.35.44-.7.67-1C342.86,274.58,342.63,274.93,342.42,275.28Z"/><path class="cls-10" d="M341.79,276.35c.17-.31.36-.63.55-.94C342.15,275.72,342,276,341.79,276.35Z"/><path class="cls-10" d="M341.59,276.71c-.14.25-.27.5-.39.76C341.32,277.21,341.45,277,341.59,276.71Z"/><path class="cls-10" d="M401.68,275.19h0l1-1.14h0C402.36,274.45,402,274.81,401.68,275.19Z"/><path class="cls-10" d="M366.74,294.09c-1.1.16-2.18.3-3.23.4h0c.87-.08,1.75-.19,2.65-.31l.58-.09Z"/><path class="cls-10" d="M367.47,294h0c1.1-.18,2.22-.38,3.35-.63h0C369.67,293.59,368.56,293.79,367.47,294Z"/><path class="cls-10" d="M368.91,230.57c1.22.23,2.4.5,3.56.8C371.31,231.07,370.13,230.8,368.91,230.57Z"/><path class="cls-10" d="M372.84,231.48c1,.26,2,.56,2.91.87C374.8,232,373.83,231.74,372.84,231.48Z"/><path class="cls-10" d="M400.76,276.18h0a57.81,57.81,0,0,1-29.92,17.16h0a57.1,57.1,0,0,0,13.63-4.86c1.32-.67,2.64-1.42,4-2.22a58.58,58.58,0,0,0,9.57-7.32C398.93,278.07,399.85,277.15,400.76,276.18Z"/><path class="cls-10" d="M403.19,252.33c.41.53.8,1,1.16,1.54C404,253.37,403.6,252.86,403.19,252.33Z"/><path class="cls-10" d="M404.36,253.88c.38.53.73,1,1.05,1.52C405.09,254.91,404.74,254.41,404.36,253.88Z"/><path class="cls-10" d="M391.19,240.45c.73.54,1.43,1.09,2.11,1.65C392.62,241.54,391.92,241,391.19,240.45Z"/><path class="cls-9" d="M363.51,294.49c1.05-.1,2.13-.24,3.23-.4C365.64,294.25,364.56,294.39,363.51,294.49Z"/><path class="cls-9" d="M347.36,294l.93.13Z"/><path class="cls-9" d="M345.41,290a4,4,0,0,1,3.16,4.16,64.64,64.64,0,0,0,14.93.3,4,4,0,1,1,7.34-1.15,57.81,57.81,0,0,0,29.92-17.16l-.49-.06a4,4,0,0,1,.54-7.82,19.81,19.81,0,0,1,.64-4.38c-4.4-1.32-9.13-2.63-13.75-3.7a3.84,3.84,0,0,1,.1,1.91,4,4,0,1,1-7.76-1.58,4.07,4.07,0,0,1,.85-1.73c-9.53-1.67-17.45-1.66-19.08,2.39,0,0,11.23-5.54,20.16,7.65,0,0-17.24-10.84-24-.09-2.85,4.56-7.71,3.94-12.45,1.92h0l-1,1.43-.39.56c-.12.16-.23.32-.34.49l-.45.66-.27.4c-.23.35-.46.7-.67,1l-.08.13c-.19.31-.38.63-.55.94-.07.12-.14.24-.2.36s-.27.5-.39.76l-.2.4c-.12.26-.23.52-.34.78l-.16.37c-.15.38-.29.77-.41,1.17l0,.08c-.11.37-.21.75-.29,1.13,0,.13,0,.27-.08.4-.05.29-.1.58-.14.87s0,.31-.05.46c0,.31,0,.61-.05.92,0,.15,0,.29,0,.43,0,.45,0,.91.07,1.39,0,0,0,0,0,.06.05.45.12.92.21,1.39,0,.16.07.33.11.49.08.35.17.7.27,1.06.05.19.11.37.17.56.12.37.25.75.4,1.13.06.17.12.34.2.52s.23.53.35.79A3.93,3.93,0,0,1,345.41,290Zm36.7-2.46a4,4,0,1,1,4.67-3.09A4,4,0,0,1,382.11,287.57ZM364.35,269a4,4,0,1,1,3.09,4.67A4,4,0,0,1,364.35,269Zm-10.89,4.68a4,4,0,1,1-4.67,3.09A4,4,0,0,1,353.46,273.65Z"/><path class="cls-9" d="M343.73,293.33l.63.14Z"/><path class="cls-9" d="M342.86,293.12l.56.14Z"/><path class="cls-9" d="M344.77,293.55l.72.15Z"/><path class="cls-9" d="M341.65,292.8v0h0v0h0l.47.13Z"/><path class="cls-9" d="M342.17,293l.5.13Z"/><path class="cls-9" d="M346,293.79l.81.14Z"/><path class="cls-9" d="M401.68,275.19c.34-.38.68-.74,1-1.13C402.36,274.45,402,274.81,401.68,275.19Z"/><path class="cls-9" d="M367.47,294c1.09-.18,2.2-.38,3.33-.62C369.67,293.59,368.56,293.79,367.47,294Z"/><path class="cls-32" d="M371.66,253a4,4,0,1,0-3.09-4.67A4,4,0,0,0,371.66,253Z"/><path class="cls-32" d="M383.69,279.81a4,4,0,1,0,3.09,4.67A4,4,0,0,0,383.69,279.81Z"/><path class="cls-32" d="M367.44,273.64a4,4,0,1,0-3.09-4.67A4,4,0,0,0,367.44,273.64Z"/><path class="cls-32" d="M380,260.55a4,4,0,1,0,7.76,1.58,3.84,3.84,0,0,0-.1-1.91,3.93,3.93,0,0,0-6.81-1.4A4.07,4.07,0,0,0,380,260.55Z"/><path class="cls-32" d="M397.18,271.45a4,4,0,0,0,3.09,4.67l.49.06h0c.3-.32.59-.66.89-1h0c.34-.38.68-.74,1-1.13h0l.4-.48c-.34-.29-.67-.59-1-.9a5.89,5.89,0,0,1-1.32-4.38A4,4,0,0,0,397.18,271.45Z"/><path class="cls-32" d="M388.1,243.33a4,4,0,1,0,7.75,1.58,3.33,3.33,0,0,0,.07-.54c-.68-.63-1.4-1.25-2.14-1.87l-.48-.4c-.68-.56-1.38-1.11-2.11-1.65l-.2-.16h0A4,4,0,0,0,388.1,243.33Z"/><path class="cls-32" d="M348.79,276.74a4,4,0,1,0,4.67-3.09A4,4,0,0,0,348.79,276.74Z"/><path class="cls-32" d="M371.89,234.48a4,4,0,0,0,4.26-2h0l-.41-.13c-.95-.31-1.92-.61-2.91-.87l-.37-.11c-1.16-.3-2.34-.57-3.56-.8l-.19,0h0A4,4,0,0,0,371.89,234.48Z"/><path class="cls-32" d="M345.41,290a3.93,3.93,0,0,0-4.17,1.84h0c.13.29.27.58.41.87v.05l.47.13h.05l.5.13h0l.18,0h0l.56.14h0l.3.07h0l.63.14h0l.41.08h0l.72.15h0l.48.09h0l.81.14h0l.55.09h0l.93.13h0l.28,0h0A4,4,0,0,0,345.41,290Z"/><path class="cls-32" d="M405.47,255.48l-.06-.08c-.32-.49-.67-1-1.05-1.52h0c-.36-.5-.75-1-1.16-1.54l-.12-.16h0a3.87,3.87,0,0,0-.55,1.34,4,4,0,0,0,1.2,3.69c.41-1,.7-1.59.7-1.59A2.9,2.9,0,0,1,405.47,255.48Z"/><path class="cls-32" d="M366.74,294.09h0l.72-.12h0c1.09-.18,2.2-.38,3.33-.62h0a4,4,0,1,0-7.34,1.15h0C364.56,294.39,365.64,294.25,366.74,294.09Z"/><path class="cls-32" d="M355.42,259.91a4,4,0,1,0-3.09-4.67A4,4,0,0,0,355.42,259.91Z"/><path class="cls-32" d="M360.46,236.86a4,4,0,0,0-1.92-4.22h0c-.94,1.78-2.15,4.24-3.33,7.12h0a3.78,3.78,0,0,0,.6.17A4,4,0,0,0,360.46,236.86Z"/><path class="cls-9" d="M405.68,255.47h-.21a2.9,2.9,0,0,0-1.05.13s-.29.6-.7,1.59a46,46,0,0,0-2.27,6.72,19.81,19.81,0,0,0-.64,4.38,5.89,5.89,0,0,0,1.32,4.38c.31.31.64.61,1,.9l.2.16a16.53,16.53,0,0,0,3.36,2.21h0a9.42,9.42,0,0,0,4.11,1.05c2.14,0,4.09-1.12,5.31-4,.6-1.4,1.25-2.75,1.86-4,2.38-5,4.2-9,.14-10.8h0c-.47-.22-1-.41-1.46-.6h0l-.36-.13A37.53,37.53,0,0,0,405.68,255.47Z"/><path class="cls-16" d="M386,327.84c-1.53-.7-3.54.42-4.48,2.5s-.45,4.32,1.08,5,3.55-.42,4.48-2.5S387.51,328.53,386,327.84Z"/><path class="cls-16" d="M394.05,306c-1.53-.69-3.54.43-4.48,2.5s-.45,4.33,1.08,5,3.55-.43,4.48-2.5S395.59,306.66,394.05,306Z"/><path class="cls-13" d="M345.08,409.65a7.8,7.8,0,1,0,4.23,10.47A8,8,0,0,0,345.08,409.65Z"/><path class="cls-30" d="M544.89,327.15a3.55,3.55,0,1,0-1.92-4.76A3.63,3.63,0,0,0,544.89,327.15Z"/></g><g class="cls-33"><path class="cls-3" d="M598.34,180a13.76,13.76,0,0,1-9.46-9.5,9.16,9.16,0,0,1,8.51-11.76,12.69,12.69,0,0,1,4.43.49,13.78,13.78,0,0,1,9.47,9.5,9.16,9.16,0,0,1-8.51,11.76,12.75,12.75,0,0,1-4.44-.49"/><path class="cls-3" d="M601.73,159.5a13.49,13.49,0,0,1,9.24,9.26,8.82,8.82,0,0,1-8.22,11.35,12.15,12.15,0,0,1-4.32-.48,13.49,13.49,0,0,1-9.24-9.26A8.83,8.83,0,0,1,597.41,159a12.13,12.13,0,0,1,4.32.48m.19-.63h0a13,13,0,0,0-4.56-.5,9.47,9.47,0,0,0-8.8,12.16,14.1,14.1,0,0,0,9.69,9.73,12.9,12.9,0,0,0,4.55.5,9.48,9.48,0,0,0,8.81-12.16,14.11,14.11,0,0,0-9.69-9.73"/><path class="cls-6" d="M599,179.17c.48.11,2.1.47,2,0,0-.26-.88-.46-2.09-.92a22.11,22.11,0,0,1-4.86-2.61,11.24,11.24,0,0,1-4.44-6.1c-.9-3.18-.25-5.85,1.47-7.68a8.85,8.85,0,0,0-2.22,8.39,11.68,11.68,0,0,0,3.4,5.88,9.58,9.58,0,0,0,1.69,1.19,21.38,21.38,0,0,0,5,1.84"/><path class="cls-6" d="M610.51,166.33a13.18,13.18,0,0,0-7.27-6.26c2.51,1.31,6.32,4.2,5.24,7.07-1,2.31-4.74,2.15-7,1.26-2.7-1.07-6.39-3.63-4.13-6.58,1.46-1.9,8-.37,7.63,2.34-.24,1.58-2.75,1.42-4,.75-.94-.49-1.86-1.39-1.75-2.4,0-.33-.11-.81-.48-.42a1.48,1.48,0,0,0-.3,1.16c.36,3.48,7.44,5.67,8.49,2.21.55-1.8-1.68-4.19-3.95-5.07a10.23,10.23,0,0,0-5.31-.81c-3,.43-5.14,2.47-4.7,5.5s3.2,5.56,6.07,7,6.79,2.36,9.71,1.12c2.63-1.12,3-4.34,1.79-6.86"/><path class="cls-3" d="M605.9,164.3c-.19-2-2.39-3.21-4.27-3.69-2.21-.58-4.8-.06-5.87,1.65-.78,1.26-.28,3,.63,4.31a9.67,9.67,0,0,0,6,3.89,9.28,9.28,0,0,0,5.11-.19c2.14-.89,2.31-3.26,1.29-5.35a7.4,7.4,0,0,0-.81-1.3c-.44-.57-1.64-1.69,0-.33.17.15.32.32.48.48a6.93,6.93,0,0,1,.93,1.24c1.18,1.93,1.23,4.28-.34,5.62a6.72,6.72,0,0,1-4.72,1.16,11.62,11.62,0,0,1-6.56-2.58c-1.72-1.41-3.18-3.52-3.14-5.55a3.61,3.61,0,0,1,2.35-3.23,7.56,7.56,0,0,1,5.78.22,6.33,6.33,0,0,1,2.54,1.82,3.32,3.32,0,0,1,.62,1.21,3.15,3.15,0,0,1,.09.52c0,.06-.09.25-.11.1"/><path class="cls-3" d="M647.54,175a13.78,13.78,0,0,1-9.47-9.5,9.16,9.16,0,0,1,8.51-11.76,12.75,12.75,0,0,1,4.44.49,13.76,13.76,0,0,1,9.46,9.5,9.39,9.39,0,0,1-1.34,7.95,9.5,9.5,0,0,1-7.17,3.81,12.69,12.69,0,0,1-4.43-.49"/><path class="cls-3" d="M650.93,154.51a13.49,13.49,0,0,1,9.24,9.26A8.83,8.83,0,0,1,652,175.12a12.13,12.13,0,0,1-4.32-.48,13.49,13.49,0,0,1-9.24-9.26A8.82,8.82,0,0,1,646.61,154a12.15,12.15,0,0,1,4.32.48m.18-.63h0a12.9,12.9,0,0,0-4.55-.5,9.48,9.48,0,0,0-8.81,12.16,14.11,14.11,0,0,0,9.69,9.73,13,13,0,0,0,4.56.5,9.47,9.47,0,0,0,8.8-12.16,14.11,14.11,0,0,0-9.69-9.73"/><path class="cls-6" d="M648.22,174.18c.49.11,2.1.47,2,0,0-.26-.88-.46-2.09-.92a22.41,22.41,0,0,1-4.87-2.61,11.27,11.27,0,0,1-4.43-6.1c-.9-3.18-.25-5.85,1.47-7.68a8.89,8.89,0,0,0-2.23,8.39,11.68,11.68,0,0,0,3.4,5.88,10,10,0,0,0,1.7,1.19,21.14,21.14,0,0,0,5,1.84"/><path class="cls-6" d="M659.7,161.34a13.12,13.12,0,0,0-7.27-6.26c2.52,1.31,6.33,4.2,5.24,7.07-.95,2.31-4.73,2.15-7,1.26-2.7-1.07-6.4-3.63-4.14-6.58,1.46-1.9,8-.37,7.63,2.34-.23,1.58-2.74,1.42-4,.75-.95-.49-1.87-1.39-1.76-2.4,0-.32-.1-.81-.48-.42a1.45,1.45,0,0,0-.29,1.17c.36,3.47,7.43,5.66,8.49,2.2.54-1.8-1.69-4.19-4-5.07a10.22,10.22,0,0,0-5.31-.81c-3,.43-5.14,2.47-4.7,5.5s3.21,5.56,6.08,7,6.78,2.36,9.71,1.12c2.62-1.12,3-4.34,1.78-6.86"/><path class="cls-3" d="M655.1,159.31c-.2-2-2.4-3.2-4.27-3.69-2.21-.58-4.81-.06-5.87,1.65-.79,1.26-.28,3,.63,4.31a9.67,9.67,0,0,0,6,3.89,9.24,9.24,0,0,0,5.1-.19c2.14-.89,2.31-3.26,1.3-5.35a8,8,0,0,0-.81-1.3c-.44-.57-1.64-1.69,0-.33.18.15.33.32.49.48a6.87,6.87,0,0,1,.92,1.24c1.18,1.93,1.24,4.28-.33,5.62a6.74,6.74,0,0,1-4.73,1.16,11.64,11.64,0,0,1-6.56-2.58c-1.72-1.41-3.18-3.52-3.13-5.55a3.59,3.59,0,0,1,2.35-3.23,7.54,7.54,0,0,1,5.77.22,6.36,6.36,0,0,1,2.54,1.82,3.32,3.32,0,0,1,.62,1.21,1.89,1.89,0,0,1,.09.52c0,.06-.09.25-.1.1"/></g><g class="cls-33"><path class="cls-3" d="M603.69,244.31a13.78,13.78,0,0,1-9.46-9.5,9.15,9.15,0,0,1,8.51-11.75,12.32,12.32,0,0,1,4.44.49,13.78,13.78,0,0,1,9.46,9.5,9.15,9.15,0,0,1-8.51,11.75,12.54,12.54,0,0,1-4.44-.49"/><path class="cls-3" d="M607.09,223.86a13.49,13.49,0,0,1,9.23,9.27,8.81,8.81,0,0,1-8.21,11.34,12.2,12.2,0,0,1-4.33-.47,13.49,13.49,0,0,1-9.23-9.27,8.81,8.81,0,0,1,8.21-11.34,12.18,12.18,0,0,1,4.33.47m.18-.62h0a12.74,12.74,0,0,0-4.56-.51,9.47,9.47,0,0,0-8.8,12.16,14.11,14.11,0,0,0,9.69,9.73,12.74,12.74,0,0,0,4.56.51A9.49,9.49,0,0,0,617,233a14.1,14.1,0,0,0-9.69-9.72"/><path class="cls-6" d="M604.38,243.53c.48.11,2.1.47,2,0,0-.25-.88-.45-2.09-.91a21.59,21.59,0,0,1-4.87-2.62,11.26,11.26,0,0,1-4.44-6.09c-.89-3.18-.24-5.86,1.48-7.68a8.84,8.84,0,0,0-2.23,8.38,11.64,11.64,0,0,0,3.4,5.88,9.13,9.13,0,0,0,1.7,1.19,21.14,21.14,0,0,0,5,1.84"/><path class="cls-6" d="M615.86,230.7a13.08,13.08,0,0,0-7.27-6.26c2.52,1.3,6.33,4.19,5.24,7.06-1,2.31-4.73,2.15-7,1.26-2.7-1.06-6.4-3.63-4.14-6.57,1.46-1.91,8-.38,7.63,2.34-.23,1.58-2.75,1.42-4,.75-.94-.5-1.86-1.4-1.75-2.41,0-.32-.11-.81-.48-.41a1.47,1.47,0,0,0-.3,1.16c.37,3.47,7.44,5.67,8.49,2.2.55-1.8-1.68-4.18-4-5.06a10.22,10.22,0,0,0-5.31-.82c-3,.44-5.14,2.47-4.7,5.51s3.21,5.56,6.08,7,6.78,2.36,9.71,1.11c2.62-1.11,3-4.34,1.78-6.85"/><path class="cls-3" d="M611.26,228.67c-.2-2-2.4-3.21-4.27-3.7-2.21-.58-4.81-.06-5.88,1.66-.78,1.25-.27,3,.63,4.3a9.69,9.69,0,0,0,6,3.9,9.18,9.18,0,0,0,5.11-.2c2.14-.89,2.31-3.26,1.29-5.35a7.49,7.49,0,0,0-.8-1.29c-.45-.57-1.65-1.7,0-.33.17.14.33.31.49.47a7.24,7.24,0,0,1,.92,1.24c1.18,1.93,1.24,4.29-.33,5.62a6.71,6.71,0,0,1-4.73,1.16,11.54,11.54,0,0,1-6.56-2.58c-1.72-1.41-3.18-3.52-3.14-5.55a3.6,3.6,0,0,1,2.36-3.22,7.58,7.58,0,0,1,5.77.21,6.36,6.36,0,0,1,2.54,1.82,3.4,3.4,0,0,1,.62,1.21,2.36,2.36,0,0,1,.09.52c0,.07-.09.25-.1.11"/><path class="cls-3" d="M654.2,240.63a13.79,13.79,0,0,1-9.47-9.5,9.14,9.14,0,0,1,8.51-11.75,12.29,12.29,0,0,1,4.44.49,13.75,13.75,0,0,1,9.46,9.49,9.16,9.16,0,0,1-8.5,11.76,12.52,12.52,0,0,1-4.44-.49"/><path class="cls-3" d="M657.59,220.18a13.49,13.49,0,0,1,9.24,9.26,8.83,8.83,0,0,1-8.22,11.35,11.91,11.91,0,0,1-4.32-.48,13.49,13.49,0,0,1-9.24-9.26,8.83,8.83,0,0,1,8.22-11.35,12.39,12.39,0,0,1,4.32.48m.18-.63h0a12.9,12.9,0,0,0-4.55-.5,9.79,9.79,0,0,0-7.41,3.94,9.69,9.69,0,0,0-1.39,8.22,14.08,14.08,0,0,0,9.68,9.73,12.74,12.74,0,0,0,4.56.51,9.82,9.82,0,0,0,7.41-3.95,9.72,9.72,0,0,0,1.39-8.22,14.1,14.1,0,0,0-9.69-9.73"/><path class="cls-6" d="M654.88,239.85c.49.11,2.1.47,2,0,0-.25-.88-.45-2.09-.92a21.3,21.3,0,0,1-4.86-2.61,11.21,11.21,0,0,1-4.44-6.09c-.9-3.19-.25-5.86,1.47-7.68a8.86,8.86,0,0,0-2.23,8.38,11.59,11.59,0,0,0,3.41,5.88,9.08,9.08,0,0,0,1.69,1.19,21.14,21.14,0,0,0,5,1.84"/><path class="cls-6" d="M666.37,227a13.13,13.13,0,0,0-7.28-6.26c2.52,1.3,6.33,4.19,5.24,7.06-1,2.31-4.73,2.15-7,1.26-2.7-1.06-6.4-3.63-4.14-6.57,1.46-1.91,8-.38,7.64,2.34-.24,1.57-2.75,1.41-4,.74-.95-.49-1.87-1.39-1.76-2.4,0-.32-.1-.81-.48-.42a1.49,1.49,0,0,0-.29,1.17c.36,3.47,7.43,5.67,8.49,2.2.55-1.8-1.69-4.19-4-5.07a10.2,10.2,0,0,0-5.3-.81c-3,.44-5.15,2.47-4.71,5.51s3.21,5.55,6.08,7,6.78,2.37,9.71,1.12c2.62-1.12,3-4.34,1.79-6.85"/><path class="cls-3" d="M661.76,225c-.19-2-2.4-3.2-4.27-3.69-2.21-.58-4.81-.06-5.87,1.65-.79,1.26-.28,3,.63,4.31a9.68,9.68,0,0,0,6,3.9,9.27,9.27,0,0,0,5.11-.2c2.14-.89,2.3-3.26,1.29-5.35a7,7,0,0,0-.81-1.29c-.44-.57-1.64-1.7,0-.34.18.15.33.32.49.48a7.87,7.87,0,0,1,.93,1.24c1.17,1.93,1.23,4.28-.34,5.62a6.69,6.69,0,0,1-4.73,1.16,11.57,11.57,0,0,1-6.56-2.58c-1.72-1.41-3.18-3.52-3.13-5.55a3.6,3.6,0,0,1,2.35-3.23,7.58,7.58,0,0,1,5.77.22,6.46,6.46,0,0,1,2.55,1.82,3.54,3.54,0,0,1,.61,1.21,1.89,1.89,0,0,1,.09.52c0,.06-.08.25-.1.1"/></g><g class="cls-33"><path class="cls-3" d="M609.76,310.15a13.78,13.78,0,0,1-9.46-9.5,9.14,9.14,0,0,1,8.51-11.75,12.53,12.53,0,0,1,4.44.48,13.78,13.78,0,0,1,9.46,9.5,9.39,9.39,0,0,1-1.34,7.95,9.5,9.5,0,0,1-7.17,3.81,12.52,12.52,0,0,1-4.44-.49"/><path class="cls-3" d="M613.16,289.7a13.49,13.49,0,0,1,9.23,9.26,8.82,8.82,0,0,1-8.21,11.35,12.18,12.18,0,0,1-4.33-.48,13.48,13.48,0,0,1-9.23-9.26,8.82,8.82,0,0,1,8.21-11.35,12.21,12.21,0,0,1,4.33.48m.18-.63h0a13,13,0,0,0-4.56-.5,9.47,9.47,0,0,0-8.8,12.16,14.11,14.11,0,0,0,9.69,9.73,13,13,0,0,0,4.56.5A9.49,9.49,0,0,0,623,298.8a14.11,14.11,0,0,0-9.69-9.73"/><path class="cls-6" d="M610.45,309.37c.48.11,2.1.47,2,0,0-.26-.87-.45-2.09-.92a22.11,22.11,0,0,1-4.86-2.61,11.26,11.26,0,0,1-4.44-6.09c-.9-3.19-.25-5.86,1.48-7.69a8.86,8.86,0,0,0-2.23,8.39,11.68,11.68,0,0,0,3.4,5.88,9.63,9.63,0,0,0,1.7,1.19,21.14,21.14,0,0,0,5,1.84"/><path class="cls-6" d="M621.93,296.53a13.09,13.09,0,0,0-7.27-6.25c2.52,1.3,6.33,4.19,5.24,7.06-.95,2.31-4.73,2.15-7,1.26-2.69-1.06-6.39-3.63-4.13-6.58,1.46-1.9,8-.37,7.63,2.34-.23,1.58-2.75,1.42-4,.75-.94-.49-1.86-1.39-1.75-2.4,0-.32-.11-.81-.48-.42a1.49,1.49,0,0,0-.3,1.17c.37,3.47,7.44,5.66,8.49,2.2.55-1.8-1.68-4.19-4-5.07a10.23,10.23,0,0,0-5.31-.81c-3,.43-5.14,2.47-4.7,5.51s3.21,5.55,6.08,7,6.78,2.36,9.71,1.12c2.62-1.12,3-4.34,1.78-6.86"/><path class="cls-3" d="M617.32,294.5c-.19-2-2.39-3.2-4.27-3.69-2.21-.58-4.8-.06-5.87,1.65-.78,1.26-.27,3,.63,4.31a9.69,9.69,0,0,0,6,3.89,9.18,9.18,0,0,0,5.11-.19c2.14-.89,2.31-3.26,1.29-5.35a7.4,7.4,0,0,0-.81-1.3c-.44-.56-1.64-1.69,0-.33.17.15.33.32.49.48a7.24,7.24,0,0,1,.92,1.24c1.18,1.93,1.24,4.28-.34,5.62a6.72,6.72,0,0,1-4.72,1.16,11.54,11.54,0,0,1-6.56-2.58c-1.72-1.41-3.18-3.52-3.14-5.55a3.63,3.63,0,0,1,2.36-3.23,7.54,7.54,0,0,1,5.77.22,6.36,6.36,0,0,1,2.54,1.82,3.32,3.32,0,0,1,.62,1.21,2.36,2.36,0,0,1,.09.52c0,.06-.09.25-.11.1"/><path class="cls-3" d="M659,305.16a13.79,13.79,0,0,1-9.47-9.5A9.14,9.14,0,0,1,658,283.91a12.29,12.29,0,0,1,4.44.49,13.73,13.73,0,0,1,9.46,9.49,9.39,9.39,0,0,1-1.33,7.95,9.52,9.52,0,0,1-7.17,3.81,12.52,12.52,0,0,1-4.44-.49"/><path class="cls-3" d="M662.35,284.71a13.49,13.49,0,0,1,9.24,9.26,8.82,8.82,0,0,1-8.22,11.35,12.13,12.13,0,0,1-4.32-.48,13.49,13.49,0,0,1-9.24-9.26A8.83,8.83,0,0,1,658,284.23a12.13,12.13,0,0,1,4.32.48m.18-.63h0a12.9,12.9,0,0,0-4.55-.5,9.47,9.47,0,0,0-8.8,12.16,14.1,14.1,0,0,0,9.68,9.73,12.73,12.73,0,0,0,4.56.5,9.47,9.47,0,0,0,8.8-12.16,14.1,14.1,0,0,0-9.69-9.73"/><path class="cls-6" d="M659.65,304.38c.48.11,2.09.47,2,0,0-.26-.88-.45-2.09-.92a21.7,21.7,0,0,1-4.86-2.61,11.21,11.21,0,0,1-4.44-6.09c-.9-3.19-.25-5.86,1.47-7.69a8.89,8.89,0,0,0-2.23,8.39,11.7,11.7,0,0,0,3.41,5.88,9.58,9.58,0,0,0,1.69,1.19,21.38,21.38,0,0,0,5,1.84"/><path class="cls-6" d="M671.13,291.54a13.11,13.11,0,0,0-7.28-6.25c2.52,1.3,6.33,4.19,5.24,7.06-1,2.31-4.73,2.15-7,1.26-2.7-1.06-6.39-3.63-4.14-6.58,1.46-1.9,8-.37,7.64,2.34-.24,1.58-2.75,1.42-4,.75-.95-.49-1.87-1.39-1.76-2.4,0-.32-.1-.81-.47-.42a1.46,1.46,0,0,0-.3,1.17c.36,3.47,7.43,5.66,8.49,2.2.55-1.8-1.68-4.19-3.95-5.07a10.23,10.23,0,0,0-5.31-.81c-3,.43-5.15,2.47-4.71,5.51s3.21,5.55,6.08,7,6.78,2.36,9.71,1.12c2.62-1.12,3-4.34,1.79-6.86"/><path class="cls-3" d="M666.52,289.51c-.19-2-2.4-3.2-4.27-3.69-2.21-.58-4.8-.06-5.87,1.65-.79,1.26-.28,3,.63,4.31a9.67,9.67,0,0,0,6,3.89,9.18,9.18,0,0,0,5.11-.19c2.14-.89,2.31-3.26,1.29-5.35a7.4,7.4,0,0,0-.81-1.3c-.44-.56-1.64-1.69,0-.33.18.15.33.32.49.48a7.87,7.87,0,0,1,.93,1.24c1.18,1.93,1.23,4.28-.34,5.62A6.72,6.72,0,0,1,665,297a11.6,11.6,0,0,1-6.57-2.58c-1.71-1.41-3.18-3.52-3.13-5.55a3.6,3.6,0,0,1,2.35-3.23,7.54,7.54,0,0,1,5.77.22,6.39,6.39,0,0,1,2.55,1.82,3.57,3.57,0,0,1,.62,1.21,3.15,3.15,0,0,1,.09.52c0,.06-.09.25-.11.1"/></g><g id="Layer_2" data-name="Layer 2"><g id="Layer_1-2" data-name="Layer 1-2"><g id="Layer_2-2" data-name="Layer 2-2"><g id="Layer_37" data-name="Layer 37"><polygon class="cls-34" points="155.8 181.5 155.8 793.2 311.2 702.6 311.2 90.9 155.8 181.5"/><polygon class="cls-35" points="0 702.4 155.9 793.2 155.9 181.5 0 90.7 0 702.4"/><polygon class="cls-36" points="0 90.7 155.9 181.5 311.2 90.9 155.1 0 0 90.7"/><polygon class="cls-37" points="38.8 90.7 155.8 158.8 272.4 90.8 155.2 22.6 38.8 90.7"/><polygon class="cls-38" points="38.8 90.7 48.5 96.4 155.8 34.3 262.9 96.4 272.4 90.8 155.2 22.6 38.8 90.7"/><g class="cls-39"><polygon class="cls-40" points="233.8 397.3 245 377.9 263.2 388.5 252.1 407.8 233.8 397.3"/></g><g class="cls-41"><polygon class="cls-42" points="236.1 389.7 253.1 379.8 263.9 398.3 246.9 408.2 236.1 389.7"/></g><g class="cls-43"><polygon class="cls-44" points="238.3 398.6 248.6 380.9 265.5 390.7 255.3 408.4 238.3 398.6"/><rect class="cls-45" x="230.5" y="377.8" width="46.7" height="37.3"/></g><g class="cls-46"><polygon class="cls-47" points="241.9 392.3 256.5 383.9 265.8 399.8 251.1 408.2 241.9 392.3"/></g><g class="cls-48"><polygon class="cls-49" points="211.4 410.2 222.6 390.8 240.8 401.4 229.6 420.7 211.4 410.2"/></g><g class="cls-50"><polygon class="cls-51" points="213.7 402.6 230.7 392.7 241.5 411.2 224.4 421.1 213.7 402.6"/></g><g class="cls-52"><polygon class="cls-53" points="215.9 411.5 226.1 393.8 243.1 403.6 232.9 421.3 215.9 411.5"/><rect class="cls-54" x="208.1" y="388.2" width="46.7" height="37.3"/></g><g class="cls-55"><polygon class="cls-56" points="217.6 403.7 232.2 395.2 241.3 411 226.8 419.5 217.6 403.7"/><rect class="cls-54" x="210.9" y="394.5" width="46.7" height="37.3"/></g><g class="cls-57"><path class="cls-58" d="M152.3,360.9l56.2-107.1q51.6,27,103.1,54.1c-1,19.1-.1,40-.5,57.6l-32.4,61.8Q215.55,394,152.3,360.9Z"/></g><path class="cls-59" d="M215.9,391.6a.91.91,0,0,0,.7.3h.2l.7-.2h.5a1.63,1.63,0,0,0,1.1-1.3c2.4-11.5,10.4-23.3,19.6-28.6a17.81,17.81,0,0,1,8.9-2.7c5,0,8.6,3.1,10,8.4a1.09,1.09,0,0,0,1.2.7.35.35,0,0,0,.2-.1l.2-.2a1.79,1.79,0,0,0,.5-.7l.7-.6a1.25,1.25,0,0,0,.4-1.3.92.92,0,0,0-1.1-.7h0a.52.52,0,0,0-.4.2,15.5,15.5,0,0,0-1.4-2.9l.4-.5a1,1,0,0,0-1.3-1.6c-.1,0-.1.1-.2.2l-.1.2a12.86,12.86,0,0,0-2.1-1.9l.2-.4a1.49,1.49,0,0,0,.2-.9.66.66,0,0,0-.4-.5.75.75,0,0,0-.5-.1,1.33,1.33,0,0,0-1,.6l-.2.4a9.24,9.24,0,0,0-2.7-.8l.1-.2a.91.91,0,0,0,0-1,.82.82,0,0,0-.6-.4h-.1a1.33,1.33,0,0,0-1.1.8l-.2.5H248a14.28,14.28,0,0,0-2.9.3.78.78,0,0,0-.2-.8.91.91,0,0,0-.7-.3H244a1.28,1.28,0,0,0-1,1l-.1.6a19.43,19.43,0,0,0-3.6,1.5.85.85,0,0,0-.8-.7h-.2l-.3.1a1.65,1.65,0,0,0-.8,1.3v.5a47.31,47.31,0,0,0-3.9,2.8,1,1,0,0,0-1.2-.3h0l-.1.1a1.39,1.39,0,0,0-.5,1.4l.1.4a46.83,46.83,0,0,0-3.8,3.9,1.08,1.08,0,0,0-1.4.2,1.21,1.21,0,0,0-.2,1.5l.1.1a40.72,40.72,0,0,0-3.3,4.8l-.1-.1h-.3a1.33,1.33,0,0,0-1,.6,1.23,1.23,0,0,0-.2,1,1,1,0,0,0,.4.5,49.67,49.67,0,0,0-2.5,5.2h-.2a1.36,1.36,0,0,0-1.1,1.9.55.55,0,0,0,.5.3,44.44,44.44,0,0,0-1.5,5.2l-.4.1a1.17,1.17,0,0,0-.9,1,1.28,1.28,0,0,0,.2,1.2"/><path class="cls-59" d="M246.4,360.2l-6.1,23.9v.1a3.58,3.58,0,0,1-1.7,2.9,1.61,1.61,0,0,1-.9.3,1.45,1.45,0,0,1-1.4-1.5h0v-.1a3.23,3.23,0,0,1,.8-2.1Z"/><polygon class="cls-60" points="133.7 495.9 134.1 368.7 24.1 305.9 23.6 433.2 133.7 495.9"/><polygon class="cls-61" points="134.2 499.5 134.2 488.6 30.6 428.9 30.8 309.5 21.6 304.2 21.1 435 134.2 499.5"/><ellipse class="cls-62" cx="71.38" cy="226.79" rx="34.4" ry="60.6" transform="translate(-120.68 86.64) rotate(-36.41)"/><path id="Fill-6" class="cls-26" d="M57.1,259.3c1.9,1.7,8.1,7.3,8.4,5.5.1-1-3.1-4-7.6-9a164.24,164.24,0,0,1-17.2-22.6c-5.6-8.9-11.5-21.2-11.8-34.3-.4-14.1,5-22.2,14-24.3-10.5,2.1-17.5,10.7-17.8,24.9-.3,9.9,2.5,20,7.8,30.8a74.76,74.76,0,0,0,5.7,8.9,159.73,159.73,0,0,0,18.5,20.1"/><path id="Fill-8" class="cls-26" d="M117.4,242.9c-2.8-14.9-11.6-29.2-23.3-42.5,9,11.5,21.6,32.4,14.1,40-6.3,5.9-21.6-4.8-30-14.1-10-11.1-22.4-30.5-10.1-35.3,8-3.1,33.3,20.2,28.8,29.1-2.6,5.2-12.7-2.1-17.3-8-3.4-4.4-6.2-10.1-4.7-13.5.5-1.1.4-3.3-1.5-2.8-1.4.3-2.2,1.8-2.4,3.5-2.1,13.7,24.6,40.8,32.5,30.8,4.1-5.1-2.6-19.9-10.9-29.2-6.3-7-12.9-13.2-20.9-17.2-12.8-6.5-23.6-4.7-25,7.6s7.4,29,17.6,42c10.8,13.6,25.3,26.8,38.6,30.1,12,2.8,16.9-8,14.5-20.5"/><path id="Fill-10" class="cls-63" d="M100.7,223.1c1.3-7.9-6.5-18.2-13.7-25-8.4-8-19.6-13.1-25.8-9.6-4.5,2.6-4.2,10.2-1.9,17.6,3.5,11.1,11.4,22.3,20.6,30.4,6.6,5.8,14.5,11.3,21.1,13,9.7,2.5,12.8-5.8,10.8-16.2a39.19,39.19,0,0,0-2-6.9c-1.2-3.3-5-10.6.2-1.3a29.62,29.62,0,0,1,1.5,3.1,45,45,0,0,1,2.5,7c2.8,10.3.6,19.1-7.2,19.8-6,.5-13.6-3.4-20.5-8.4a86.9,86.9,0,0,1-24.2-27c-5.6-9.8-9.4-21.5-7.1-28.8,1.7-5.4,6.8-7.1,13-5.6,7.8,2,16.4,8.1,23.4,16.3A46.61,46.61,0,0,1,99.9,215a18,18,0,0,1,1.3,6.1,8.58,8.58,0,0,1-.2,2.2c.2,0-.4.4-.3-.2"/></g></g></g></g></svg>