<svg id="Layer_1" data-name="Layer 1" xmlns="http://www.w3.org/2000/svg" xmlns:xlink="http://www.w3.org/1999/xlink" viewBox="0 0 2000 2000"><defs><style>.cls-1{fill:none;}.cls-2{clip-path:url(#clip-path);}.cls-3{fill:#898989;}</style><clipPath id="clip-path"><rect class="cls-1" x="264.22" y="842.88" width="1471.56" height="314.24"/></clipPath></defs><title>microsoft</title><g id="Microsoft_-_Grey_Text" data-name="Microsoft - Grey Text"><g class="cls-2"><g class="cls-2"><path class="cls-3" d="M1612.28,899.84c13.79-9,31.59-9.81,47.12-5.53.14,9.23,0,18.46.06,27.7-7.38-3.25-16.06-5.36-23.82-2.18-6.16,2.44-9.83,8.77-10.79,15.09-1.16,8-.4,16.14-.6,24.2,15.77,0,31.53,0,47.3,0,.12-10.24-.13-20.48.13-30.72,10.73-3,21.33-6.47,32-9.68.09,13.48-.12,27,.12,40.47,10.66-.15,21.33,0,32-.07v26.25c-10.7-.44-21.41-.12-32.11-.15,0,15.09,0,30.19,0,45.29.17,8.36-.45,16.76.53,25.09.6,4.92,2.38,10.36,7,12.9,7.71,4.31,17.5,2.43,24.58-2.31v26.51c-9.24,4-19.56,5.24-29.56,4.53-9.48-.7-19.3-4.15-25.49-11.7-7.14-8.51-9-20-9.13-30.84-.08-23.17,0-46.33,0-69.51q-23.67,0-47.32,0,0,54.52,0,109.07h-32.33q0-54.52,0-109c-7.5-.14-15,0-22.5-.12,0-8.63.06-17.26,0-25.9,7.46-.17,14.93-.1,22.41-.05.55-11.47-1.2-23.28,2.23-34.45a44.09,44.09,0,0,1,18.23-24.89"/><path class="cls-3" d="M920.07,901.72A19.79,19.79,0,0,1,938,908.06a18.43,18.43,0,0,1,2.24,21c-4.15,7.36-13.43,10.78-21.52,9-8.39-1.51-15.39-9.31-15-18-.24-9.16,7.42-17.32,16.4-18.35"/><path class="cls-3" d="M672.29,905.73h47q21.95,55.74,44,111.45c3.74,9.29,7.24,18.69,11.17,27.91,18.82-46.44,37.92-92.75,56.6-139.25,15.08-.25,30.16-.06,45.25-.09q-.06,94.26,0,188.52c-10.88,0-21.76.09-32.63-.07.12-46.37,0-92.74,0-139.13,0-2.08,0-4.16-.19-6.25a25.64,25.64,0,0,0-1.7,3c-18.68,47.47-37.73,94.8-56.3,142.32-7.74.28-15.49,0-23.24.14-19.28-47.47-38.31-95-57.49-142.55-.5-1-1-2-1.62-2.87-.4,20.32-.06,40.65-.17,61q0,42.21,0,84.42c-10.26,0-20.52,0-30.77,0q0-94.27,0-188.55"/><path class="cls-3" d="M1009,959a88.55,88.55,0,0,1,48,.15,38.76,38.76,0,0,1,9.22,3.84c-.18,10.3,0,20.6-.1,30.91-10.43-8-23.65-13-36.9-11.34a38,38,0,0,0-26.86,14.92c-8.09,10.54-9.95,24.53-8.56,37.43,1,10.09,5.22,20.17,13.06,26.86,8.15,7.25,19.58,9.81,30.25,9,10.54-1.21,20.49-5.68,29-11.91.09,9.76,0,19.52.07,29.28-13.22,7.87-29.06,9.89-44.19,9.15-15.48-.82-30.91-6.68-42.12-17.56-12.17-11.74-18.78-28.48-19.56-45.24-.79-17.42,2.75-35.6,12.78-50.16,8.41-12.42,21.55-21.21,35.87-25.34"/><path class="cls-3" d="M1362.21,957a85.49,85.49,0,0,1,44.74,4.66c0,9.91,0,19.81,0,29.72a57,57,0,0,0-34-10c-6,.23-12.69,2.79-15.44,8.54-2.2,5.68-.68,13.13,4.68,16.54,9.17,6.13,20.1,8.73,29.6,14.23,7.48,4.2,14.74,9.69,18.53,17.61,7.11,14.83,4.1,34.44-8.42,45.5-12,11.16-29.16,14.25-45,13.66-11.24-.73-22.53-2.94-32.86-7.54,0-10.42-.07-20.84,0-31.26a70.67,70.67,0,0,0,29.34,12.66c7.39,1.2,15.42,1.26,22.31-2,6.59-3.28,7.78-12.64,3.86-18.38-3.66-4.41-9-6.84-14.11-9.23-9.53-4.28-19.54-7.87-27.91-14.29a33.44,33.44,0,0,1-12.07-18.34c-2.59-10.75-1.78-22.86,4.47-32.25,7.13-11,19.53-17.51,32.17-19.76"/><path class="cls-3" d="M1138.58,961.21c8.92-5.36,20.27-5.8,30-2.53,0,10.79,0,21.57,0,32.35a34.37,34.37,0,0,0-21.85-5.14c-9.18,1.05-16.45,8.09-20.22,16.18-4.1,8.55-4.87,18.23-4.61,27.58q0,32.32,0,64.63H1090q0-67.53,0-135.07c10.64-.13,21.28-.08,31.92,0,0,7.74,0,15.47,0,23.21,3.46-8.42,8.6-16.59,16.71-21.18"/><path class="cls-3" d="M906.61,959.18c10.72,0,21.45-.15,32.17.06-.13,45,0,90-.06,135h-32.1q0-67.54,0-135.1"/><path class="cls-3" d="M1302.61,990.69a57.17,57.17,0,0,0-28.24-28.54c-14.4-6.56-30.77-7.44-46.28-5.46-16.3,2.06-32.16,9.72-42.51,22.71-9.44,11.6-14,26.51-14.92,41.3-1.3,17.42,1.61,35.92,11.84,50.46,8.72,12.56,22.49,21.18,37.36,24.36a93,93,0,0,0,37.85,0c14.53-3,28.11-11,37.11-22.9,8.8-11.18,13.22-25.28,14.22-39.35,1-14.41-.44-29.33-6.43-42.62m-31.23,62a29.59,29.59,0,0,1-15.88,15.61,43.67,43.67,0,0,1-26.35,1.16,32.3,32.3,0,0,1-20.27-16.72c-5.21-10.4-6-22.42-4.91-33.82,1-10.37,4.59-21,12.49-28.2,5.73-5.35,13.54-8,21.27-8.39,9.71-.64,20.06,2.11,27,9.17,7.47,7.35,10.37,18,11.17,28.17.57,11.12.11,22.72-4.56,33"/><path class="cls-3" d="M1561.54,994.59a57.72,57.72,0,0,0-27.77-31.43c-14.73-7.43-31.86-8.52-48-6.52-13,1.67-25.8,6.61-35.73,15.33-12.12,10.44-19.23,25.79-21.32,41.5s-1.32,32.24,5.08,46.94a59.88,59.88,0,0,0,32.84,31.86c14.39,5.67,30.4,6.3,45.54,3.85,15.49-2.55,30.16-10.7,39.75-23.23,10.24-13,14.65-29.7,14.62-46,.23-10.92-1.13-22-5-32.27m-29.17,45.81c-1.23,7.12-3.7,14.21-8.35,19.84a30.25,30.25,0,0,1-18.89,10.16c-7.74,1.16-15.9.6-23.13-2.51a32.78,32.78,0,0,1-17-17.84c-3.84-9.27-4.6-19.53-3.84-29.44.74-9.6,3.46-19.45,9.8-26.91,5.78-7,14.65-10.82,23.59-11.32,9.14-.64,18.89,1.47,25.91,7.64,6.47,5.37,10,13.41,11.7,21.51a81.88,81.88,0,0,1,.26,28.87"/><path class="cls-3" d="M264.22,842.88H413.71q0,74.75,0,149.49H264.22Z"/><path class="cls-3" d="M429,842.88H578.46q0,74.75,0,149.49H429q0-74.74,0-149.49"/><path class="cls-3" d="M264.22,1007.62q74.75,0,149.49,0,0,74.75,0,149.48H264.22Z"/><path class="cls-3" d="M429,1007.64q74.73,0,149.48,0v149.49H429q0-74.74,0-149.48"/></g></g></g></svg>