<svg id="Layer_1" data-name="Layer 1" xmlns="http://www.w3.org/2000/svg" xmlns:xlink="http://www.w3.org/1999/xlink" viewBox="0 0 2000 2000"><defs><style>.cls-1{fill:none;}.cls-2{clip-path:url(#clip-path);}.cls-3{fill:#848484;}.cls-4{fill:#a5a5a5;}</style><clipPath id="clip-path"><rect class="cls-1" x="296.47" y="430.04" width="1407.06" height="1139.91"/></clipPath></defs><title>oraclize</title><g id="Oraclize"><g class="cls-2"><g class="cls-2"><path class="cls-3" d="M394.32,1570q-24.56,0-43-8.4a85.22,85.22,0,0,1-30.7-23.12,96.16,96.16,0,0,1-18.22-34.8,161.48,161.48,0,0,1,0-86.79,96,96,0,0,1,18.22-34.79,87.28,87.28,0,0,1,30.7-23.35q18.42-8.6,43-8.59t43,8.59a87.37,87.37,0,0,1,30.7,23.35,96,96,0,0,1,18.22,34.79,161.48,161.48,0,0,1,0,86.79,96.16,96.16,0,0,1-18.22,34.8,85.31,85.31,0,0,1-30.7,23.12q-18.42,8.4-43,8.4m0-32.35q28.23,0,41.76-20.46t13.5-56.9q0-36.45-13.5-56.7t-41.76-20.28q-28.26,0-41.56,20.28t-13.3,56.7q0,36.43,13.3,56.9t41.56,20.46"/><path class="cls-3" d="M545.38,1355c3-.55,5.86-1,8.59-1.23s5.59-.41,8.6-.41,6,.14,9,.41a64.24,64.24,0,0,1,8.19,1.23q1.22,6.13,2.45,16.17a143.29,143.29,0,0,1,1.23,17A85.17,85.17,0,0,1,606.17,1364q14.13-10.21,36.23-10.23,3.29,0,6.76.2t5.94.62a67,67,0,0,1,1.22,7.78c.27,2.73.42,5.6.42,8.6a89.28,89.28,0,0,1-.62,10.23c-.41,3.55-.9,7-1.43,10.23a28.23,28.23,0,0,0-6.76-.81H642.4a71.51,71.51,0,0,0-21.08,3.06,44,44,0,0,0-18,10.85c-5.32,5.19-9.57,12.29-12.69,21.29s-4.71,20.62-4.71,34.8V1565a94.55,94.55,0,0,1-10,1.23c-3.69.26-7,.41-10,.41s-6.35-.15-10-.41-7.17-.68-10.44-1.23Z"/><path class="cls-3" d="M804.52,1426.68q0-24.15-12.28-33.58t-35.62-9.42a152.1,152.1,0,0,0-26.81,2.26,203.22,203.22,0,0,0-24.36,5.94q-7.79-13.52-7.78-32.34a190.67,190.67,0,0,1,30.71-7,224.25,224.25,0,0,1,32.34-2.45q40.93,0,62.23,18.63t21.28,59.57v131.41q-14.34,3.29-34.8,6.77a249.72,249.72,0,0,1-41.75,3.47,163.9,163.9,0,0,1-36.24-3.69q-16.17-3.69-27.42-11.86a55,55,0,0,1-17.4-20.89q-6.15-12.68-6.15-30.7,0-17.6,7.17-30.92a64.33,64.33,0,0,1,19.45-22.09,86.26,86.26,0,0,1,28.24-13.11,128.43,128.43,0,0,1,33.57-4.3c8.73,0,15.9.22,21.5.62s10.29.89,14.12,1.42Zm0,39.71q-6.13-.83-15.56-1.64t-16-.82q-25.38,0-38.68,9.41T721,1502q0,12.29,4.5,19.24a30.94,30.94,0,0,0,11.26,10.65,38.92,38.92,0,0,0,14.94,4.5q8.19.81,15.56.81a192.23,192.23,0,0,0,19.44-1,115,115,0,0,0,17.81-3.08Z"/><path class="cls-3" d="M1045.24,1528.61a65.23,65.23,0,0,1,5.73,14.33,76.21,76.21,0,0,1,2.87,17.6q-24.16,9.42-55.27,9.42-52.41,0-79-29.68t-26.61-80a138.65,138.65,0,0,1,6.55-43.4A98.36,98.36,0,0,1,919,1382.06a91.58,91.58,0,0,1,32.13-23.35q19.24-8.6,44.63-8.59a199,199,0,0,1,30.29,2,125.64,125.64,0,0,1,25,6.55,83.52,83.52,0,0,1-1.84,16.17,69.87,69.87,0,0,1-5.12,16.17q-20.05-6.94-45.85-7-31.51,0-47.08,20.88t-15.55,55.27q0,39.29,17.6,57.51t48.31,18.22a148.53,148.53,0,0,0,22.72-1.63,103.84,103.84,0,0,0,21.08-5.74"/><path class="cls-3" d="M1100.1,1265a99.28,99.28,0,0,1,10-1.22c3.69-.27,7-.41,10-.41s6.34.14,10,.41a100.23,100.23,0,0,1,10,1.22V1501.6q0,11.45,2,18t5.53,10a16.09,16.09,0,0,0,8.18,4.5,46.67,46.67,0,0,0,10,1c2.44,0,5.25-.13,8.38-.41a49.89,49.89,0,0,0,8-1.23,124.61,124.61,0,0,1,3.69,31.12,54.39,54.39,0,0,1-13.92,2.66c-5.47.41-10.51.61-15.15.61a81.32,81.32,0,0,1-22.11-2.87,47.11,47.11,0,0,1-18-9.42A44.21,44.21,0,0,1,1104.6,1538q-4.51-11.07-4.5-27.44Z"/><path class="cls-3" d="M1235.18,1387h-26.6a50.75,50.75,0,0,1-1.23-7.57c-.28-2.87-.41-5.66-.41-8.39s.13-5.54.41-8.4a51,51,0,0,1,1.23-7.57h66.32v210a94,94,0,0,1-10,1.23c-3.69.26-7,.41-10,.41-2.74,0-5.95-.15-9.63-.41a94.11,94.11,0,0,1-10-1.23Zm-9-78.19a79.4,79.4,0,0,1-1-10.65c-.14-3.81-.21-7.23-.21-10.23s.07-6.41.21-10.23a69.2,69.2,0,0,1,1-10.24c3.56-.54,7.37-1,11.46-1.22s7.65-.42,10.65-.42,6.56.14,10.64.42,7.78.68,11.06,1.22a72,72,0,0,1,1,10.24q.21,5.73.21,10.23c0,3-.07,6.42-.21,10.23a82.82,82.82,0,0,1-1,10.65q-4.92.82-10.85,1.23c-4,.28-7.45.4-10.45.4-3.27,0-7-.12-11-.4s-7.9-.68-11.46-1.23"/><path class="cls-3" d="M1319.93,1559.32l110.54-172H1333a99.83,99.83,0,0,1-1.23-16.37,97.08,97.08,0,0,1,1.23-16h157.61l2,5.32-111.35,172.36h104.4a114.07,114.07,0,0,1,1.22,16.78,95.37,95.37,0,0,1-1.22,15.55H1322Z"/><path class="cls-3" d="M1559.42,1470.06q.81,34.39,17.8,50.36t50.15,16a151,151,0,0,0,55.28-10.23,61.62,61.62,0,0,1,5.32,14.94,97.26,97.26,0,0,1,2.44,17.4,136.12,136.12,0,0,1-29.67,8.59,206,206,0,0,1-35.82,2.87q-28.67,0-49.12-8T1542,1539.45a89.1,89.1,0,0,1-19.45-34.38,147.11,147.11,0,0,1-6.14-43.6,154.78,154.78,0,0,1,5.93-43.61,98.34,98.34,0,0,1,18.22-35.19,88.2,88.2,0,0,1,30.91-23.76q18.63-8.78,44-8.8,21.7,0,38.08,7.37a77.51,77.51,0,0,1,27.43,20.27,88.24,88.24,0,0,1,16.79,30.71,126.28,126.28,0,0,1,5.73,38.69c0,3.81-.15,7.84-.42,12.07s-.55,7.84-.82,10.84Zm104-30.29a77,77,0,0,0-3.07-21.91,55.81,55.81,0,0,0-9-18.21,43.9,43.9,0,0,0-15.15-12.48q-9.21-4.71-21.9-4.71-25,0-38.28,15.15t-16.17,42.16Z"/><path class="cls-3" d="M994,1146.83c-197.61,0-358.38-160.77-358.38-358.4a356.87,356.87,0,0,1,58.64-196.52,17.88,17.88,0,1,1,29.89,19.64,321.26,321.26,0,0,0-52.77,176.88c0,177.9,144.73,322.63,322.62,322.63a17.89,17.89,0,1,1,0,35.77"/><path class="cls-3" d="M1114.57,1124.86a17.89,17.89,0,0,1-6.34-34.62c124.61-47.21,208.35-168.49,208.35-301.81a328,328,0,0,0-2.84-43,17.88,17.88,0,0,1,35.45-4.72,361.77,361.77,0,0,1,3.16,47.73,358.52,358.52,0,0,1-231.45,335.26,17.88,17.88,0,0,1-6.33,1.17"/><path class="cls-3" d="M1303.9,665.1a17.88,17.88,0,0,1-16.28-10.46C1235.27,539.93,1120,465.81,994,465.81c-74.16,0-143.88,24.47-201.61,70.75A17.89,17.89,0,1,1,770,508.65,359.35,359.35,0,0,1,994,430c140,0,268.06,82.34,326.21,209.75a17.88,17.88,0,0,1-16.26,25.31"/><path class="cls-3" d="M994,1053.58a265.42,265.42,0,0,1-127.72-32.73,17.89,17.89,0,0,1,17.25-31.34A229.45,229.45,0,0,0,994,1017.81c126.48,0,229.38-102.9,229.38-229.37a229.36,229.36,0,0,0-120.41-201.9,17.88,17.88,0,0,1,17-31.46,265.08,265.08,0,0,1,139.18,233.36c0,146.2-118.95,265.14-265.16,265.14"/><path class="cls-3" d="M798.72,958.05a17.86,17.86,0,0,1-14.13-6.9,262.58,262.58,0,0,1-55.78-162.71c0-146.21,118.94-265.15,265.14-265.15a17.89,17.89,0,1,1,0,35.77c-126.47,0-229.37,102.9-229.37,229.38a227.14,227.14,0,0,0,48.24,140.75,17.88,17.88,0,0,1-14.1,28.86"/><path class="cls-4" d="M994,960.06c-94.63,0-171.62-77-171.62-171.62s77-171.62,171.62-171.62,171.62,77,171.62,171.62-77,171.62-171.62,171.62m0-303.45c-72.68,0-131.83,59.13-131.83,131.83S921.27,920.27,994,920.27s131.84-59.14,131.84-131.83S1066.65,656.61,994,656.61"/><path class="cls-3" d="M808.66,531a35.13,35.13,0,1,1-35.13-35.12A35.13,35.13,0,0,1,808.66,531"/><path class="cls-3" d="M1042.52,1128.94a35.13,35.13,0,1,1-35.13-35.12,35.13,35.13,0,0,1,35.13,35.12"/><path class="cls-3" d="M1364.43,740.67a35.13,35.13,0,1,1-35.12-35.13,35.13,35.13,0,0,1,35.12,35.13"/><path class="cls-3" d="M1138.32,566.09A35.13,35.13,0,1,1,1103.2,531a35.13,35.13,0,0,1,35.12,35.13"/><path class="cls-3" d="M832.29,940.17A35.13,35.13,0,1,1,797.17,905a35.13,35.13,0,0,1,35.12,35.13"/></g></g></g></svg>