<svg xmlns="http://www.w3.org/2000/svg" xmlns:xlink="http://www.w3.org/1999/xlink" viewBox="0 0 284.79 413.48"><defs><style>.cls-1,.cls-19{fill:none;}.cls-2{clip-path:url(#clip-path);}.cls-3{fill:#3a1612;}.cls-4{fill:#230d11;}.cls-5{fill:#5f1f1a;}.cls-6{fill:#803725;}.cls-7{fill:#dcc2b3;}.cls-8{fill:#4d1f1e;}.cls-9{fill:#9d462d;}.cls-10{fill:#863526;}.cls-11{fill:#cb2883;}.cls-12{fill:#5f2724;}.cls-13{fill:#411615;}.cls-14{fill:#a35147;}.cls-15{fill:#debba6;}.cls-16{fill:#100a12;}.cls-17{fill:#8e6c35;}.cls-18{fill:#a4372d;}.cls-19{stroke:#a4372d;stroke-linecap:round;stroke-linejoin:round;stroke-width:0;}.cls-20{fill:#8b2b26;}.cls-21{fill:#c99e8d;}.cls-22{fill:#e6c7b6;}.cls-23{fill:#957f80;}.cls-24{fill:#be9f9b;}.cls-25{fill:#221e1f;}.cls-26{fill:#fff;}.cls-27{fill:#823d3d;}.cls-28{fill:#3c322c;}.cls-29{fill:#322323;}.cls-30{fill:#d7c3d6;}.cls-31{fill:#bea9c1;}.cls-32{fill:#9c7f3e;}.cls-33{opacity:0.66;}</style><clipPath id="clip-path" transform="translate(0 -3.8)"><polygon class="cls-1" points="81.21 3.16 62.85 21.32 2.09 56.85 0 79.84 0 419.33 32.23 417.96 284.79 256.14 281.22 0 81.21 3.16"/></clipPath></defs><title>timmy-wonka</title><g id="Layer_2" data-name="Layer 2"><g id="Layer_1-2" data-name="Layer 1"><g class="cls-2"><path class="cls-1" d="M158.33,120.61l0,.08Z" transform="translate(0 -3.8)"/><path class="cls-1" d="M134.57,125.37a8.36,8.36,0,0,1,.87-.79h0A8.66,8.66,0,0,0,134.57,125.37Z" transform="translate(0 -3.8)"/><path class="cls-1" d="M13.25,200.37c-3.4.91-8,2-13.25,3v25.68c.51-1,1-1.91,1.48-2.84C5.61,218,9.6,209.11,13.25,200.37Z" transform="translate(0 -3.8)"/><path class="cls-1" d="M133.19,127.24l.28-.33-.28.33Z" transform="translate(0 -3.8)"/><polygon class="cls-1" points="119.74 143.25 119.75 143.26 119.75 143.26 119.74 143.25 119.74 143.25"/><path class="cls-3" d="M193.19,209.47c1-2.24,5.85-1,8.13-4.42s2.28,3,.1,4.61a9.84,9.84,0,0,1-5.19,1.6s-3.43,6.65-4.85,7.05,4.87,2.31,4,9.16a29.6,29.6,0,0,1-1,4.57,4.26,4.26,0,0,0,1.43,1.67c2.78,1.88,5.8,1,6.81,1.94.65.63-5.14,4.07-9.34,6.44l2.47,26.55L209.4,262l-15.16-163,1.28-.12h0l-15.83-2.75L190.5,212.35A10.32,10.32,0,0,0,193.19,209.47Z" transform="translate(0 -3.8)"/><polygon class="cls-4" points="269.53 88.25 269.52 88.25 269.53 88.25 269.53 88.25"/><polygon class="cls-4" points="195.53 95.14 269.52 88.25 259.64 84.95 179.69 92.39 195.52 95.14 195.53 95.14"/><polygon class="cls-4" points="209.4 258.22 195.74 264.85 275.69 257.41 284.79 252.34 284.79 252.34 284.79 252.34 209.51 259.35 209.4 258.22"/><path class="cls-5" d="M194.24,99.06,209.4,262l.11,1.12,75.28-7h0l-1.52-16.35-3.59,2.3-30.2,2.81-4-42.9,30.2-2.81,3.95,1.6-1-11.07L275,192l-30.2,2.81-4-42.91,30.2-2.81,4,1.6-.91-9.82-3.6,2.3L240.28,146l-4-42.91,30.2-2.81,4,1.6-.91-9.83h0l-74,6.89ZM243,204.61h0l3.56,38.18h0l-4.36,2.79L212,248.39l-4-42.9,30.19-2.81,4.8,1.93Zm-4.65-50.07h0l3.55,38.18h0l-4.36,2.79-30.2,2.81-4-42.91,30.19-2.81,4.81,1.94ZM229,103.77l4.8,1.94h0l3.55,38.17h0L233,146.68l-30.19,2.81-4-42.91Z" transform="translate(0 -3.8)"/><polygon class="cls-3" points="202.79 145.69 209.35 142.05 205.85 104.51 206.47 104.45 198.8 102.78 202.79 145.69"/><polygon class="cls-4" points="233.8 101.91 233.8 101.91 229 99.98 198.8 102.78 206.47 104.45 233.8 101.91"/><polygon class="cls-4" points="209.41 142.69 209.35 142.05 202.79 145.69 232.99 142.88 237.35 140.09 237.35 140.09 237.35 140.09 209.41 142.69"/><polygon class="cls-6" points="205.85 104.51 209.35 142.05 209.41 142.69 237.35 140.09 237.35 140.09 233.8 101.91 233.8 101.91 206.47 104.45 205.85 104.51"/><polygon class="cls-3" points="246.83 138.57 243.34 101.03 243.96 100.97 236.28 99.3 240.28 142.2 246.83 138.57 246.83 138.57"/><polygon class="cls-4" points="246.89 139.2 246.83 138.57 246.83 138.57 240.28 142.2 270.47 139.39 274.07 137.09 274.83 136.6 274.83 136.6 274.83 136.6 246.89 139.2"/><polygon class="cls-4" points="271.28 98.42 271.28 98.42 271.28 98.43 271.28 98.42"/><polygon class="cls-4" points="266.48 96.49 236.28 99.3 243.96 100.97 271.28 98.42 270.44 98.08 266.48 96.49"/><polygon class="cls-6" points="243.96 100.97 243.34 101.03 246.83 138.57 246.89 139.2 274.83 136.6 274.83 136.6 271.28 98.43 271.28 98.42 271.28 98.42 271.28 98.42 243.96 100.97"/><polygon class="cls-3" points="213.89 190.88 210.4 153.34 211.02 153.29 203.35 151.62 207.34 194.52 213.89 190.89 213.89 190.88"/><polygon class="cls-4" points="211.02 153.29 238.34 150.75 233.54 148.81 203.35 151.62 211.02 153.29"/><polygon class="cls-4" points="213.95 191.52 213.89 190.88 213.89 190.89 207.34 194.52 237.54 191.71 241.9 188.92 241.9 188.92 241.9 188.92 213.95 191.52"/><polygon class="cls-4" points="238.34 150.75 238.34 150.75 238.34 150.75 238.34 150.75"/><polygon class="cls-6" points="238.34 150.75 211.02 153.29 210.4 153.34 213.89 190.88 213.95 191.52 241.9 188.92 241.9 188.92 238.34 150.75 238.34 150.75 238.34 150.75 238.34 150.75"/><polygon class="cls-3" points="251.37 187.4 247.88 149.86 248.5 149.8 240.83 148.13 244.82 191.03 251.37 187.4 251.37 187.4"/><polygon class="cls-4" points="251.43 188.03 251.37 187.4 251.37 187.4 244.82 191.03 275.02 188.22 278.61 185.92 279.38 185.43 279.38 185.43 279.38 185.43 251.43 188.03"/><polygon class="cls-4" points="240.83 148.13 248.5 149.8 275.83 147.26 275.83 147.26 275.83 147.26 274.98 146.92 271.03 145.32 240.83 148.13"/><polygon class="cls-6" points="248.5 149.8 247.88 149.86 251.37 187.4 251.43 188.03 279.38 185.43 279.38 185.43 275.83 147.26 275.83 147.26 248.5 149.8"/><polygon class="cls-3" points="218.55 240.96 215.06 203.42 215.68 203.36 215.68 203.36 208.01 201.69 212 244.59 218.55 240.96 218.55 240.96"/><polygon class="cls-4" points="215.68 203.36 243 200.82 238.2 198.88 208.01 201.69 215.68 203.36 215.68 203.36"/><polygon class="cls-4" points="243 200.82 243 200.82 243 200.82 243 200.82"/><polygon class="cls-4" points="218.61 241.6 218.55 240.96 218.55 240.96 212 244.59 242.2 241.78 246.56 239 246.56 238.99 246.56 239 218.61 241.6"/><polygon class="cls-6" points="243 200.82 215.68 203.36 215.06 203.42 218.55 240.96 218.61 241.6 246.56 239 246.56 238.99 243 200.82 243 200.82 243 200.82 243 200.82"/><polygon class="cls-3" points="256.03 237.47 252.54 199.93 253.16 199.87 253.16 199.87 245.49 198.2 249.48 241.11 256.03 237.47 256.03 237.47"/><polygon class="cls-4" points="256.09 238.11 256.03 237.47 256.03 237.47 249.48 241.11 279.68 238.3 283.27 236 284.04 235.51 284.04 235.51 284.04 235.51 256.09 238.11"/><polygon class="cls-4" points="280.49 197.33 280.49 197.33 280.49 197.33 280.49 197.33"/><polygon class="cls-4" points="245.49 198.2 253.16 199.87 253.16 199.87 280.49 197.33 279.64 196.99 275.69 195.39 245.49 198.2"/><polygon class="cls-6" points="253.16 199.87 252.54 199.93 256.03 237.47 256.09 238.11 284.04 235.51 284.04 235.51 280.49 197.33 280.49 197.33 280.49 197.33 280.49 197.33 253.16 199.87"/><path class="cls-7" d="M190.76,228.32c2.68-.52,2.6,1.76,3.61,3.72a29.6,29.6,0,0,0,1-4.57c.92-6.85-5.38-8.77-4-9.16s4.85-7.05,4.85-7.05a9.84,9.84,0,0,0,5.19-1.6c2.18-1.61,2.18-8-.1-4.61s-7.11,2.18-8.13,4.42a10.32,10.32,0,0,1-2.69,2.88c-2.23,1.86-5.12,3.88-6.09,5.3-.83,1.21,1.24,5.89,3.3,9.9C188.41,228.2,189,228.67,190.76,228.32Z" transform="translate(0 -3.8)"/><path class="cls-8" d="M38,340.42l-2.08,3.25-.27.42c-5.75,9-16.1,25.17-28.13,43.86,5.21,11.88,12.91,23.1,24.28,29.33L45.41,349.5h0S41.57,346.78,38,340.42Z" transform="translate(0 -3.8)"/><path class="cls-9" d="M35.64,344.09c-.41.66-.86,1.35-1.32,2.08l-15.61-15.6L0,329.21v70.4L7.51,388C19.54,369.26,29.89,353.09,35.64,344.09Z" transform="translate(0 -3.8)"/><path class="cls-9" d="M38,340.42l-2.08,3.25L38,340.42Z" transform="translate(0 -3.8)"/><path class="cls-10" d="M34.32,346.17c.46-.73.91-1.42,1.32-2.08l.27-.42L38,340.42a46.59,46.59,0,0,1-5.22-15.32h0S19.4,325.3,0,321.68v7.53l18.71,1.36Z" transform="translate(0 -3.8)"/><path class="cls-11" d="M193.27,242.09c4.2-2.37,10-5.81,9.34-6.44-1-1-4-.06-6.81-1.94a4.26,4.26,0,0,1-1.43-1.67c-1-2-.93-4.24-3.61-3.72-1.81.35-2.35-.12-3-.77a6.36,6.36,0,0,0-3.66-1.85c-4.48-.88-4.32,1.06-4.32,1.06s.91,5.38,1.21,9.76l9.42,7.19C191.1,243.3,192.13,242.74,193.27,242.09Z" transform="translate(0 -3.8)"/><path class="cls-8" d="M20.54,182.1,21,181c.23-.61.46-1.21.68-1.81,5.86-15.54,9.64-27.12,9.65-27.16h0A244.74,244.74,0,0,1,0,171.2v32.17c5.25-1,9.85-2.09,13.25-3C15.88,194.06,18.34,187.85,20.54,182.1Z" transform="translate(0 -3.8)"/><path class="cls-12" d="M70.83,253.56h0c-.2-2-.35-4-.47-6.06l-13.84,20-.25.6-23.5,57h0A46.59,46.59,0,0,0,38,340.42h0c3.58,6.36,7.42,9.08,7.42,9.08h0c.66-14,13.92-56.48,25.83-92.21-.14-1.18-.28-2.37-.4-3.57C70.84,253.66,70.83,253.62,70.83,253.56Z" transform="translate(0 -3.8)"/><path class="cls-12" d="M32.34,249.23l0,.07,0,0Z" transform="translate(0 -3.8)"/><path class="cls-12" d="M80,231.57h0c.19-.53.37-1,.55-1.58h0C80.33,230.51,80.15,231,80,231.57Z" transform="translate(0 -3.8)"/><path class="cls-12" d="M32.77,325.1h0L38.35,270,38,268.71a30.53,30.53,0,0,1-5.51,4.14,31.6,31.6,0,0,0-6.07-6.46C18.72,287.37,9.81,306.84,0,320v1.69C19.4,325.3,32.77,325.1,32.77,325.1ZM21.4,283.19a6.25,6.25,0,0,1,11.38,5.15,6.25,6.25,0,0,1-11.38-5.15Zm.92,36.55a6,6,0,1,1,8.14-2.85A6.1,6.1,0,0,1,22.32,319.74Z" transform="translate(0 -3.8)"/><path class="cls-12" d="M21,181l-.41,1.08Z" transform="translate(0 -3.8)"/><path class="cls-12" d="M31.28,152.05,45,164.13h0L31.28,152.05h0s-3.79,11.62-9.65,27.16C27.5,163.65,31.28,152.05,31.28,152.05Z" transform="translate(0 -3.8)"/><path class="cls-8" d="M26.4,266.39A26.12,26.12,0,0,0,24,264.62h0c-.53-.34-1.08-.66-1.64-1h0a20.64,20.64,0,0,0-5.65-2h0a17.44,17.44,0,0,0-2.65-.34s1.84-.92,4.73-2.63l.36-.22q1.32-.78,2.88-1.77a5.93,5.93,0,0,1-1-6.38,6.12,6.12,0,0,1,8.15-2.86,6.43,6.43,0,0,1,2.72,2.31l.52-.42,0-.07-12.7-43.88,9.2-4.61a16.6,16.6,0,0,0,2.54-6l-5.92-9.64,19.55-21L31.28,152.05s-3.78,11.6-9.65,27.16c-.22.6-.45,1.2-.68,1.81l-.41,1.08c-2.2,5.75-4.66,12-7.29,18.27C9.6,209.11,5.61,218,1.48,226.21c-.47.93-1,1.88-1.48,2.84V320C9.81,306.84,18.72,287.37,26.4,266.39Z" transform="translate(0 -3.8)"/><path class="cls-13" d="M31.79,249.72a6.43,6.43,0,0,0-2.72-2.31,6.12,6.12,0,0,0-8.15,2.86,5.93,5.93,0,0,0,1,6.38c2.72-1.72,5.91-3.89,9.21-6.44Z" transform="translate(0 -3.8)"/><path class="cls-13" d="M24.64,291.2a6,6,0,1,0,4.91-10.86,6,6,0,1,0-4.91,10.86Z" transform="translate(0 -3.8)"/><path class="cls-14" d="M38,268.71l.37,1.28.18-1.8Z" transform="translate(0 -3.8)"/><path class="cls-14" d="M37.33,245.06q2-1.81,3.93-3.81l2.09-20.67-2,.24h0a50,50,0,0,1-11.41-.23h0l-.22,0-.71-.1-.42-.07-.63-.11-.37-.07L27,220.1l-.31-.06-.49-.11-.23-.05-.43-.11-.15,0-.38-.11h0l-.36-.11h0v0l-.31-.66h0c-.09-.21-.19-.41-.27-.61l-.15-.4c-.11-.29-.21-.58-.3-.86s-.09-.29-.13-.43-.15-.55-.21-.81-.06-.25-.08-.37a10.66,10.66,0,0,1-.16-1.07.09.09,0,0,1,0-.05,9.51,9.51,0,0,1-.05-1.06c0-.11,0-.21,0-.32s0-.48,0-.71,0-.23,0-.35.07-.45.11-.67,0-.2.05-.3c.07-.3.14-.59.23-.87,0,0,0,0,0-.06.1-.3.2-.6.32-.89l.12-.28c.08-.2.17-.41.26-.6l.15-.31.3-.58.15-.27.42-.72.06-.1c.17-.27.34-.54.52-.81l.2-.3.35-.51.26-.37.3-.43.76-1.09h0c.43-.62.86-1.24,1.26-1.88l-9.2,4.61,12.7,43.88v0C34,248,35.68,246.56,37.33,245.06Z" transform="translate(0 -3.8)"/><path class="cls-14" d="M80.51,230l-.85-1.62c.09,1.06.19,2.12.3,3.2C80.15,231,80.33,230.51,80.51,230Z" transform="translate(0 -3.8)"/><path class="cls-14" d="M70.05,237.93c0-1.1,0-2.19,0-3.28l-7.4,18h0l-6.12,14.85,13.84-20c-.18-3.14-.28-6.3-.31-9.41h0Z" transform="translate(0 -3.8)"/><path class="cls-14" d="M25.46,185.13l5.92,9.64a12.86,12.86,0,0,0,.2-1.89A41.66,41.66,0,0,1,35,179h0c.9-2.2,1.83-4.08,2.55-5.44h0c.78-1.47,1.31-2.34,1.31-2.34,1.38,0,2.7.18,4,.34.09-3,.48-5.23,1.33-6.17a9.69,9.69,0,0,1,1.1-1l-.25-.21h0Z" transform="translate(0 -3.8)"/><polygon class="cls-15" points="56.27 264.27 32.77 321.3 32.77 321.3 32.77 321.3 32.77 321.3 56.27 264.27"/><path class="cls-15" d="M71.3,205.19l-.79.88c-.23.25-.46.51-.69.75h0c-.21.66-.44,1.37-.69,2.11l-.07.22q-.18.53-.36,1.08l-.15.46-.36,1.06-.12.34h0c-1.62,4.73-3.71,10.51-6.22,16.62h0l-.06.15q-.66,1.6-1.35,3.24a1.89,1.89,0,0,0-.11.25c-.47,1.08-.94,2.17-1.43,3.26l-.06.14h0c-2.1,4.69-4.4,9.41-6.89,13.89h0a.75.75,0,0,1-.07.12c-1.29,2.32-2.63,4.56-4,6.7l3.53,9.08,11.24-12.92,7.4-18c0-.09,0-.18,0-.27v-.29c0-5.59.26-10.93.56-15.65a2.51,2.51,0,0,1-2.88,1c-1.18-.53-1.55-2.25-.83-3.84s2.25-2.44,3.43-1.91a1.82,1.82,0,0,1,.58.45q.06-.75.12-1.47h0v-.05c0-.51.08-1,.12-1.48,0-.14,0-.27,0-.4l.09-1c0-.17,0-.34,0-.5s0-.54.07-.8.07-.68.1-1,0-.38,0-.56l0-.26h0c.06-.6.12-1.16.18-1.69l-.15-.12Zm-12,45c-.72,1.59-2.26,2.45-3.43,1.92s-1.54-2.25-.83-3.84,2.25-2.44,3.43-1.91S60,248.57,59.33,250.15Zm6.18-16.72c-.72,1.58-2.26,2.44-3.43,1.91s-1.54-2.25-.83-3.84,2.25-2.44,3.43-1.91S66.22,231.84,65.51,233.43Z" transform="translate(0 -3.8)"/><path class="cls-15" d="M57.34,216.22h0a43.48,43.48,0,0,1-10.42,3.72h0c-.87.19-1.72.35-2.56.48l-.56.09-.44.07-2.09,20.67h0l.14-1.44.36.91.7-.75.89-1,.45-.51.87-1,.42-.51c.29-.35.56-.71.84-1.07l.4-.51.8-1.11c.55-.76,1.09-1.54,1.59-2.33,2.57-4.05,4.84-8.13,6.82-12,.6-1.18,1.18-2.35,1.72-3.49A1.3,1.3,0,0,0,57.34,216.22Z" transform="translate(0 -3.8)"/><path class="cls-16" d="M70.33,213.73c-1.18-.53-2.71.33-3.43,1.91s-.35,3.31.83,3.84a2.51,2.51,0,0,0,2.88-1q.15-2.24.3-4.26A1.82,1.82,0,0,0,70.33,213.73Z" transform="translate(0 -3.8)"/><path class="cls-16" d="M56.27,268.07l.25-.6,6.12-14.85h0L51.4,265.54l-3.53-9.08,0,.09a1,1,0,0,0-.08.11h0a66.25,66.25,0,0,1-9.21,11.53l-.18,1.8L32.77,325.1h0Z" transform="translate(0 -3.8)"/><path class="cls-16" d="M41.26,241.25c.17-.17.33-.35.5-.53l-.36-.91Z" transform="translate(0 -3.8)"/><path class="cls-12" d="M90.16,189.84h0c.59-.13,1.2-.24,1.82-.34l.43-.07c.56-.09,1.13-.16,1.71-.22l.17,0h0a30.55,30.55,0,0,1,7.19.15c-1.27-5.47-2-9-2-9l-15,.59c2,3.1,3.9,6.25,5.46,8.93Z" transform="translate(0 -3.8)"/><path class="cls-12" d="M103.75,226.73c0,.15,0,.31,0,.47s0,.51-.07.77l0,.33-.06.69,0,.28-.12.95v.05c0,.29-.08.58-.13.88a2.74,2.74,0,0,0-.05.28c0,.22-.09.43-.13.65s0,.21-.07.32-.11.43-.17.64l-.07.28c-.09.3-.19.61-.3.91v0c-.1.29-.22.58-.34.86l-.13.27c-.1.21-.2.42-.31.62l-.16.3c-.12.21-.24.41-.37.61l-.17.27c-.19.29-.4.57-.62.85h0c-.22.28-.46.55-.72.83l-.24.25-.59.58-.32.28c-.21.19-.44.38-.67.56l-.32.25c-.16.13-.33.25-.5.37h0l-.58.4h0l-.19-.07-.08,0-.15-.06-.18-.06-.19-.08-.25-.1-.24-.1-.32-.14-.27-.12-.38-.18-.31-.14-.44-.22-.32-.17-.5-.27-.16-.08h0c-.27-.14-.55-.3-.84-.47s-.75-.46-1.14-.72l-.65-.43a33.84,33.84,0,0,1-4.83-4h0c-.47-.47-.94-1-1.4-1.49l-.35-.4c-.44-.51-.87-1-1.3-1.61l-.07-.08h0a34.91,34.91,0,0,1-2.27-3.45c0,.42.07.85.1,1.27l.85,1.62h0c8.88,17,23.9,42.84,34.91,47,11.73,4.39,75.66-32.69,75.66-32.69l-.72-.56-9.42-7.19h0s-43.72,19.69-56.62,21.15c-4.22.48-11.2-22.41-16.69-43.4-.33.59-.67,1.18-1,1.75C104.38,219.54,104.05,223.17,103.75,226.73Zm74.8,15.42a2.85,2.85,0,1,1,1.47,3.64A2.79,2.79,0,0,1,178.55,242.15Z" transform="translate(0 -3.8)"/><path class="cls-14" d="M81.44,181.85a46.51,46.51,0,0,1,.23,10.64l.28.11,0,0,.14-.06,1.07-.46.17-.08h0a41.45,41.45,0,0,1,6.55-2.09c-1.56-2.68-3.5-5.83-5.46-8.93l-.32-.49C83.25,181,82.36,181.41,81.44,181.85Z" transform="translate(0 -3.8)"/><path class="cls-3" d="M44.16,165.35c-.85.94-1.24,3.2-1.33,6.17.84.11,1.67.24,2.48.39h0l.14,0c.93.18,1.84.38,2.72.61l.29.08c.76.21,1.49.43,2.22.67l.32.1h0c.73.25,1.44.51,2.13.79A89.69,89.69,0,0,1,48,162.69a14.4,14.4,0,0,0-2.76,1.65A9.69,9.69,0,0,0,44.16,165.35Z" transform="translate(0 -3.8)"/><path class="cls-3" d="M73.57,191a28.85,28.85,0,0,1,8.1,1.51,46.51,46.51,0,0,0-.23-10.64,49.64,49.64,0,0,1-5.92,2.4Z" transform="translate(0 -3.8)"/><path class="cls-9" d="M22.31,263.66h0Z" transform="translate(0 -3.8)"/><path class="cls-9" d="M17.89,259.13l.84-.49c-2.89,1.71-4.73,2.63-4.73,2.63a17.44,17.44,0,0,1,2.65.34l.06-.35A4.05,4.05,0,0,1,17.89,259.13Z" transform="translate(0 -3.8)"/><path class="cls-9" d="M47.82,256.55l0-.09c1.38-2.14,2.72-4.38,4-6.7C50.57,252.11,49.22,254.38,47.82,256.55Z" transform="translate(0 -3.8)"/><path class="cls-9" d="M45.93,235.85l.4-.51Z" transform="translate(0 -3.8)"/><path class="cls-9" d="M57.34,216.22a1.3,1.3,0,0,1-.08.17A1.3,1.3,0,0,0,57.34,216.22Z" transform="translate(0 -3.8)"/><path class="cls-9" d="M60.33,232.35c-.47,1.08-.94,2.17-1.43,3.26C59.39,234.52,59.86,233.43,60.33,232.35Z" transform="translate(0 -3.8)"/><path class="cls-9" d="M44.67,237.43l.42-.51Z" transform="translate(0 -3.8)"/><path class="cls-9" d="M69.06,209.15q-.18.53-.36,1.08Q68.88,209.68,69.06,209.15Z" transform="translate(0 -3.8)"/><path class="cls-9" d="M43.35,239l.45-.51Z" transform="translate(0 -3.8)"/><path class="cls-9" d="M69.13,208.93c.25-.74.48-1.45.69-2.11h0C69.6,207.49,69.38,208.19,69.13,208.93Z" transform="translate(0 -3.8)"/><path class="cls-9" d="M61.79,228.86q-.66,1.6-1.35,3.24Q61.13,230.46,61.79,228.86Z" transform="translate(0 -3.8)"/><path class="cls-9" d="M68.55,210.69c-.12.34-.24.7-.36,1.06Z" transform="translate(0 -3.8)"/><path class="cls-9" d="M47.74,256.66A4.1,4.1,0,0,1,50.5,249a4.19,4.19,0,0,1,1.45.62c2.49-4.48,4.79-9.2,6.89-13.89a3.72,3.72,0,0,1-.66-.08,4.1,4.1,0,1,1,1.67-8,4,4,0,0,1,2,1.06c2.51-6.11,4.6-11.89,6.22-16.62a4.07,4.07,0,0,1-.46-2.86,2.63,2.63,0,0,1,.08-.3,45.19,45.19,0,0,1-7.32,5.59,4,4,0,0,1,.23,2.39,4.1,4.1,0,0,1-4.85,3.18l-.28-.07.07-.14c-2,3.89-4.25,8-6.82,12-.5.79-1,1.57-1.59,2.33l.31-.41a4.09,4.09,0,0,1-3.82,6.81,4,4,0,0,1-1.3-.51l.14-.15-.7.75c-.17.18-.33.36-.5.53h0q-1.92,2-3.93,3.81l0,0a4.1,4.1,0,0,1-6.25,5.23l.06,0c-3.3,2.55-6.49,4.72-9.21,6.44q-1.56,1-2.88,1.77l.41-.24A4.1,4.1,0,0,1,24,264.62a26.12,26.12,0,0,1,2.45,1.77,31.6,31.6,0,0,1,6.07,6.46A30.53,30.53,0,0,0,38,268.71l.55-.52A66.25,66.25,0,0,0,47.74,256.66Zm-12.81,9a4.1,4.1,0,1,1,4.85-3.18A4.09,4.09,0,0,1,34.93,265.63Z" transform="translate(0 -3.8)"/><path class="cls-17" d="M68.19,211.75c.12-.36.24-.72.36-1.06l.15-.46q.18-.55.36-1.08l.07-.22c.25-.74.47-1.44.69-2.11h0c-.7.74-1.41,1.44-2.12,2.11a2.63,2.63,0,0,0-.08.3,4.07,4.07,0,0,0,.46,2.86h0Z" transform="translate(0 -3.8)"/><path class="cls-17" d="M57.34,216.22h0a1.3,1.3,0,0,1-.08.17c-.54,1.14-1.12,2.31-1.72,3.49l-.07.14.28.07a4.1,4.1,0,0,0,4.85-3.18,4,4,0,0,0-.23-2.39C59.37,215.14,58.36,215.71,57.34,216.22Z" transform="translate(0 -3.8)"/><path class="cls-17" d="M21.56,258.08a4.08,4.08,0,0,0-2.06.1l-.41.24-.36.22-.84.49a4.05,4.05,0,0,0-1.18,2.13l-.06.35h0a20.64,20.64,0,0,1,5.65,2h0c.56.3,1.11.62,1.64,1h0a4.09,4.09,0,0,0-2.39-6.54Z" transform="translate(0 -3.8)"/><path class="cls-17" d="M58.9,235.61c.49-1.09,1-2.18,1.43-3.26a1.89,1.89,0,0,1,.11-.25q.69-1.64,1.35-3.24l.06-.15h0a4,4,0,0,0-2-1.06,4.1,4.1,0,1,0-1.67,8,3.72,3.72,0,0,0,.66.08h0Z" transform="translate(0 -3.8)"/><path class="cls-17" d="M45.93,235.85c-.28.36-.55.72-.84,1.07l-.42.51-.87,1-.45.51-.89,1-.14.15a4,4,0,0,0,1.3.51,4.09,4.09,0,0,0,3.82-6.81l-.31.41-.8,1.11Z" transform="translate(0 -3.8)"/><path class="cls-17" d="M39.78,262.45a4.1,4.1,0,1,0-4.85,3.18A4.09,4.09,0,0,0,39.78,262.45Z" transform="translate(0 -3.8)"/><path class="cls-17" d="M51.88,249.76a.75.75,0,0,0,.07-.12h0A4.19,4.19,0,0,0,50.5,249a4.1,4.1,0,0,0-2.76,7.64h0a1,1,0,0,1,.08-.11C49.22,254.38,50.57,252.11,51.88,249.76Z" transform="translate(0 -3.8)"/><path class="cls-17" d="M31.12,250.26A4.1,4.1,0,0,0,37.37,245l0,0c-1.65,1.5-3.32,2.89-5,4.21l0,0-.52.42-.61.49Z" transform="translate(0 -3.8)"/><path class="cls-9" d="M86.88,257a.36.36,0,0,0,0,.09A.36.36,0,0,1,86.88,257Z" transform="translate(0 -3.8)"/><path class="cls-9" d="M81.69,242.7c0,.21.11.42.16.64C81.8,243.12,81.74,242.91,81.69,242.7Z" transform="translate(0 -3.8)"/><path class="cls-9" d="M98.51,278.28l-.09.34h0a18,18,0,0,1,2.58.76s-1.33-1.6-3.31-4.33l.6.81A4.13,4.13,0,0,1,98.51,278.28Z" transform="translate(0 -3.8)"/><path class="cls-9" d="M82.19,244.63c.06.23.13.46.2.68C82.32,245.09,82.25,244.86,82.19,244.63Z" transform="translate(0 -3.8)"/><path class="cls-9" d="M82.76,246.56c.07.23.15.46.22.69C82.91,247,82.83,246.79,82.76,246.56Z" transform="translate(0 -3.8)"/><path class="cls-9" d="M88.72,260.65l.2.37Z" transform="translate(0 -3.8)"/><path class="cls-9" d="M70.84,253.72c.12,1.2.26,2.39.4,3.57.19,1.44.39,2.85.62,4.25C71.44,259,71.11,256.38,70.84,253.72Z" transform="translate(0 -3.8)"/><path class="cls-9" d="M70.05,237.93c0-1.19,0-2.37,0-3.55,0,.09,0,.18,0,.27C70,235.74,70,236.83,70.05,237.93Z" transform="translate(0 -3.8)"/><path class="cls-9" d="M79.66,228.37c0-.42-.07-.85-.1-1.27-.44-.77-.87-1.58-1.28-2.42a4,4,0,0,1-2.07-5.36,46.07,46.07,0,0,1-1.84-11.26h0c0-.33,0-.68,0-1,0-.14,0-.26,0-.4A12.4,12.4,0,0,1,71.76,205c-.06.53-.12,1.09-.18,1.69a4.1,4.1,0,0,1-.55,6.07q-.06.72-.12,1.47-.15,2-.3,4.26c-.3,4.72-.52,10.06-.56,15.65,0-1.24,0-2.46,0-3.67a4.1,4.1,0,1,1,.59,7.86c-.22-.05-.43-.12-.64-.19,0,3.11.13,6.27.31,9.41.12,2,.27,4.06.47,6.06a4.15,4.15,0,0,1,1.57,0,4.1,4.1,0,0,1-.51,8.1c1.41,8.41,3.77,15.89,7.55,20.94a31.3,31.3,0,0,1,11.09-4.14,4.2,4.2,0,0,1,0-1.87,4.1,4.1,0,0,1,4.85-3.18,4,4,0,0,1,1.85.92l.36.49a121.42,121.42,0,0,1-7.91-12.49l.06.1a4,4,0,0,1-2.29.18A4.09,4.09,0,0,1,86,255.16l0,.07c-1-2.19-1.89-4.45-2.68-6.76l.06.21a4.35,4.35,0,0,1-1.39,0,4.1,4.1,0,0,1-.78-7.78c0,.16.07.32.11.48-.2-.92-.38-1.83-.52-2.75-.37-2.37-.67-4.72-.91-7h0C79.85,230.49,79.75,229.43,79.66,228.37ZM81.72,267a4.1,4.1,0,1,1-4.85,3.18A4.1,4.1,0,0,1,81.72,267Z" transform="translate(0 -3.8)"/><path class="cls-9" d="M71.19,210.78l.09-1Z" transform="translate(0 -3.8)"/><path class="cls-9" d="M71.33,209.27c0-.28,0-.54.07-.8C71.38,208.73,71.35,209,71.33,209.27Z" transform="translate(0 -3.8)"/><path class="cls-9" d="M71,212.66c0-.51.08-1,.12-1.48C71.11,211.66,71.07,212.15,71,212.66Z" transform="translate(0 -3.8)"/><path class="cls-9" d="M71.5,207.46c0-.19,0-.38,0-.56C71.53,207.08,71.52,207.27,71.5,207.46Z" transform="translate(0 -3.8)"/><path class="cls-17" d="M71.55,206.9c0,.18,0,.37,0,.56s-.07.66-.1,1-.05.52-.07.8,0,.33,0,.5l-.09,1c0,.13,0,.26,0,.4,0,.48-.08,1-.12,1.48v.05h0a4.1,4.1,0,0,0,.55-6.07h0Z" transform="translate(0 -3.8)"/><path class="cls-17" d="M76.21,219.32a4,4,0,0,0,2.07,5.36A38.59,38.59,0,0,1,76.21,219.32Z" transform="translate(0 -3.8)"/><path class="cls-17" d="M95.33,273.43a4.1,4.1,0,0,0-4.85,3.18,4.2,4.2,0,0,0,0,1.87h0a21.18,21.18,0,0,1,7.88.14h0l.09-.34a4.13,4.13,0,0,0-.23-2.42l-.6-.81c-.05-.07-.1-.14-.14-.21l-.36-.49A4,4,0,0,0,95.33,273.43Z" transform="translate(0 -3.8)"/><path class="cls-17" d="M70.05,234.38c0,1.18,0,2.36,0,3.55v.16h0c.21.07.42.14.64.19a4.1,4.1,0,1,0-.59-7.86c0,1.21,0,2.43,0,3.67Z" transform="translate(0 -3.8)"/><path class="cls-17" d="M78.89,243.79a4.1,4.1,0,0,0,3.17,4.85,4.35,4.35,0,0,0,1.39,0l-.06-.21c-.14-.4-.28-.81-.41-1.22-.07-.23-.15-.46-.22-.69-.13-.42-.25-.83-.37-1.25-.07-.22-.14-.45-.2-.68-.12-.43-.23-.86-.34-1.29,0-.22-.11-.43-.16-.64-.11-.45-.21-.91-.3-1.36,0-.16-.08-.32-.11-.48A4.09,4.09,0,0,0,78.89,243.79Z" transform="translate(0 -3.8)"/><path class="cls-17" d="M76.87,270.17A4.1,4.1,0,1,0,81.72,267,4.11,4.11,0,0,0,76.87,270.17Z" transform="translate(0 -3.8)"/><path class="cls-17" d="M75.58,258.43a4.1,4.1,0,0,0-3.18-4.85,4.15,4.15,0,0,0-1.57,0h0c0,.06,0,.1,0,.16.27,2.66.6,5.28,1,7.82l0,.14h0A4.09,4.09,0,0,0,75.58,258.43Z" transform="translate(0 -3.8)"/><path class="cls-17" d="M84.22,257.78a4.1,4.1,0,0,0,3.18,4.85,4,4,0,0,0,2.29-.18l-.06-.1c-.24-.44-.48-.88-.71-1.33l-.2-.37c-.62-1.17-1.22-2.36-1.8-3.59a.36.36,0,0,1,0-.09c-.28-.57-.54-1.15-.81-1.74l0-.07A4.06,4.06,0,0,0,84.22,257.78Z" transform="translate(0 -3.8)"/><polygon class="cls-18" points="119.74 143.25 119.74 143.25 119.75 143.26 119.74 143.25"/><line class="cls-19" x1="158.33" y1="116.82" x2="158.37" y2="116.89"/><path class="cls-18" d="M5.38,75.45a8.26,8.26,0,0,0,5.11,3.76A8.26,8.26,0,0,1,5.38,75.45Z" transform="translate(0 -3.8)"/><path class="cls-18" d="M146.32,148l-.36.32Z" transform="translate(0 -3.8)"/><path class="cls-18" d="M145.5,148.7l-.28.22Z" transform="translate(0 -3.8)"/><path class="cls-18" d="M45.67,114a8.28,8.28,0,0,1-6.36-5.84c-3.37-10.46-6-18.49-6-18.49s-5.67,15.3,5.23,23.34a37,37,0,0,0,6.15,3.7,13.87,13.87,0,0,1,.78-2.41A1.69,1.69,0,0,1,45.67,114Z" transform="translate(0 -3.8)"/><path class="cls-18" d="M49.29,114.29h0Z" transform="translate(0 -3.8)"/><path class="cls-18" d="M144.82,149.22l-.31.23Z" transform="translate(0 -3.8)"/><path class="cls-18" d="M142.54,150.65l-.32.16Z" transform="translate(0 -3.8)"/><path class="cls-18" d="M58,101.15a11.61,11.61,0,0,1,6.22-7.59,153.91,153.91,0,0,1-13.61-7.65,12.79,12.79,0,0,1-2.23,3.9c-7.8,9.41.93,17.39,6,20.88a11.31,11.31,0,0,0,3,.3A26.61,26.61,0,0,1,58,101.15Z" transform="translate(0 -3.8)"/><path class="cls-18" d="M143.35,150.2l-.34.19Z" transform="translate(0 -3.8)"/><path class="cls-18" d="M144.1,149.73l-.32.21Z" transform="translate(0 -3.8)"/><path class="cls-18" d="M8.23,87.9l0,0,0,0Z" transform="translate(0 -3.8)"/><path class="cls-18" d="M115.86,110.57c.06.51.14,1.07.25,1.68,1,5.35,4.11,12.36.92,18.77,1.11.4,2.23.86,3.34,1.36l3.95,1.14c-.11.21-.23.4-.34.6a125.46,125.46,0,0,1,16.52,10.62,14,14,0,0,0,6.21,2.9,26.94,26.94,0,0,0,5.75-8.22s-7.44,3.28-8.33-.86-7.51-4.23-7.51-4.23c4-4.16,5.73,2,16.46-.86,10.22-2.77,5.74-11.93,5.29-12.78.12.26.36,1.37-1.44,4.55-2.11,3.76-7.23,2.83-13.86-.87-3.46-1.92-6-1.06-7.62.2h0l-2,2.34-.28.33h0a8.44,8.44,0,0,1,1.38-1.87,8.66,8.66,0,0,1,.88-.8c.5-.6,1.13-1.33,1.89-2.23,4.16-4.91,5.08-.2,12.06-2.17,3.61-1,5.32-4.14,6.13-6.93A208.23,208.23,0,0,1,115.86,110.57Z" transform="translate(0 -3.8)"/><path class="cls-18" d="M15.36,80.09c-.09,0-.18-.07-.27-.09C15.18,80,15.27,80.06,15.36,80.09Z" transform="translate(0 -3.8)"/><path class="cls-18" d="M31.73,62.59l.17.14Z" transform="translate(0 -3.8)"/><path class="cls-18" d="M101.71,164.78h0c10.66,3.47,14.76-.27,15.24-.78C116.47,164.51,112.37,168.25,101.71,164.78Z" transform="translate(0 -3.8)"/><path class="cls-18" d="M141.63,151.08l-.23.11Z" transform="translate(0 -3.8)"/><polygon class="cls-18" points="115.79 159.16 111.35 155.52 111.34 155.52 115.79 159.16"/><path class="cls-18" d="M130.75,151.73c1.05.18,2.21.35,3.47.48h0C133,152.08,131.8,151.91,130.75,151.73Z" transform="translate(0 -3.8)"/><path class="cls-18" d="M119.75,147.05l.12.13-.13-.13Z" transform="translate(0 -3.8)"/><path class="cls-18" d="M130.26,151.63l-1-.2Z" transform="translate(0 -3.8)"/><path class="cls-18" d="M127.46,151l-.87-.24Z" transform="translate(0 -3.8)"/><path class="cls-18" d="M128.76,151.32l-.91-.21Z" transform="translate(0 -3.8)"/><path class="cls-18" d="M121.46,148.5l-.47-.33Z" transform="translate(0 -3.8)"/><path class="cls-18" d="M37.47,148.86l0,0Z" transform="translate(0 -3.8)"/><path class="cls-18" d="M122.05,148.86c-.2-.12-.39-.23-.56-.35C121.66,148.63,121.85,148.74,122.05,148.86Z" transform="translate(0 -3.8)"/><path class="cls-18" d="M124.32,150l-.76-.32Z" transform="translate(0 -3.8)"/><path class="cls-18" d="M140.54,151.51l-.23.08Z" transform="translate(0 -3.8)"/><path class="cls-18" d="M125.27,150.32l-.81-.3Z" transform="translate(0 -3.8)"/><path class="cls-18" d="M126.31,150.67l-.84-.27Z" transform="translate(0 -3.8)"/><path class="cls-18" d="M123.5,149.61l-.73-.35Z" transform="translate(0 -3.8)"/><path class="cls-18" d="M136.73,152.27l-.4,0Z" transform="translate(0 -3.8)"/><path class="cls-18" d="M138.72,152l-.38.07Z" transform="translate(0 -3.8)"/><path class="cls-18" d="M137.75,152.17l-.4.05Z" transform="translate(0 -3.8)"/><path class="cls-18" d="M139.65,151.79l-.34.08Z" transform="translate(0 -3.8)"/><path class="cls-18" d="M121,148.13l-.38-.29Z" transform="translate(0 -3.8)"/><path class="cls-18" d="M120.15,147.47l-.2-.2Z" transform="translate(0 -3.8)"/><path class="cls-18" d="M135.65,152.29h0Z" transform="translate(0 -3.8)"/><path class="cls-18" d="M120.52,147.8l-.3-.26Z" transform="translate(0 -3.8)"/><path class="cls-18" d="M122.74,149.24l-.65-.36Z" transform="translate(0 -3.8)"/><path class="cls-18" d="M7.06,69.78a12.71,12.71,0,0,1-3.62-6.2h0S4.35,67.57,7.06,69.78Z" transform="translate(0 -3.8)"/><path class="cls-18" d="M25,75.84h0s-1.42-4.54-5.48-5.67C23.63,71.31,25,75.84,25,75.84Z" transform="translate(0 -3.8)"/><path class="cls-18" d="M15.88,80.27C23,83.05,22.17,92,22.17,92h0S23,83.05,15.88,80.27Z" transform="translate(0 -3.8)"/><path class="cls-18" d="M31.25,62.22a12.27,12.27,0,0,0-7.39-2.14,16,16,0,0,1-5.78-.91,16,16,0,0,0,5.78.91A12.27,12.27,0,0,1,31.25,62.22Z" transform="translate(0 -3.8)"/><path class="cls-18" d="M39.75,151a27.74,27.74,0,0,0,5.47,3.33h0A27.74,27.74,0,0,1,39.75,151Z" transform="translate(0 -3.8)"/><path class="cls-18" d="M21,89.86c-1.68-2-4.31-2.69-6.76-2.75C16.67,87.17,19.3,87.81,21,89.86Z" transform="translate(0 -3.8)"/><path class="cls-18" d="M16.26,62.18C7.08,61.07,12.62,50,12.63,50h0S7.07,61.07,16.26,62.18a8.55,8.55,0,0,1,6.62,4.48A8.55,8.55,0,0,0,16.26,62.18Z" transform="translate(0 -3.8)"/><path class="cls-18" d="M119.74,147.05h0c.17.22.41.52.71.86-.3-.34-.54-.64-.7-.85h0Z" transform="translate(0 -3.8)"/><path class="cls-18" d="M133.19,127.24h0l.28-.33,2-2.34h0a8.36,8.36,0,0,0-.87.79A8.44,8.44,0,0,0,133.19,127.24Z" transform="translate(0 -3.8)"/><path class="cls-20" d="M124,134.12a47.93,47.93,0,0,1-6,8.56,2.64,2.64,0,0,0,.85,1c2.76,1.69-.51,6.16-1.28,7.36s-3.18,3.62-5.47,7.22-4.22,3.82-6.58,5.62c-1.76,1.35-2.85.66-3.28.22l-.52.71c10.66,3.47,14.76-.27,15.24-.78l0-.05-1.21-1-4.45-3.64h0C122,165.67,131.16,155,131.16,155c-5.2-1.35-9-5.11-10.71-7.09-.3-.34-.54-.64-.71-.86h0l.13.13.08.09.2.2.07.07.3.26,0,0,.38.29,0,0,.47.33h0c.17.12.36.23.56.35l0,0,.65.36,0,0,.73.35.06,0,.76.32.14.06.81.3.2.08.84.27.28.09.87.24.39.11.91.21.47.11,1,.2.49.1c1.05.18,2.21.35,3.47.48h.05c.34,0,.68.06,1,.07h.36c.23,0,.46,0,.68,0l.4,0,.62-.05.4-.05.59-.09.38-.07.59-.14.34-.08.66-.2.23-.08.86-.32.23-.11.59-.27.32-.16.47-.26.34-.19.43-.26.32-.21.41-.28.31-.23.4-.3.28-.22.46-.39.36-.32.39-.35h0a14,14,0,0,1-6.21-2.9A125.46,125.46,0,0,0,124,134.12Z" transform="translate(0 -3.8)"/><path class="cls-20" d="M116.87,131.36l3.5,1c-1.11-.5-2.23-1-3.34-1.36C117,131.13,116.93,131.24,116.87,131.36Z" transform="translate(0 -3.8)"/><path class="cls-20" d="M45.93,140.69a8.43,8.43,0,0,0-1.1-.09c-1.53,0-1.75-3.88-2.82-8.33s.73-8.71,1.47-10.35a40.91,40.91,0,0,0,1.24-5.25,37,37,0,0,1-6.15-3.7c-10.9-8-5.23-23.34-5.23-23.34s2.6,8,6,18.49A8.28,8.28,0,0,0,45.67,114c.8-1.15,2.49-.62,3.6.32h0c0-.63,0-1.23.05-1.8.17-2.83,2.56-2.27,5-1.79-5-3.49-13.76-11.47-6-20.88a12.79,12.79,0,0,0,2.23-3.9c-10.34-6.57-15.29-11.8-15.53-13.08a3.71,3.71,0,0,1,1-2.8,13.94,13.94,0,0,0-4.24-7.3l-.17-.14-.48-.37a12.27,12.27,0,0,0-7.39-2.14,16,16,0,0,1-5.78-.91C11.62,56.69,12.63,50,12.63,50h0s-5.55,11,3.63,12.16a8.55,8.55,0,0,1,6.62,4.48A19.59,19.59,0,0,1,25,75.84h0s-1.41-4.53-5.48-5.67a8.67,8.67,0,0,0-5.45.45c-3.13,1.18-5.42.49-7-.84-2.71-2.21-3.61-6.18-3.62-6.19h0s-1,7.14,1.94,11.87a8.26,8.26,0,0,0,5.11,3.76,10.83,10.83,0,0,0,1.82.29,13.13,13.13,0,0,1,2.78.5c.09,0,.18.06.27.09s.36.11.52.18C23,83.05,22.17,92,22.17,92h0A7,7,0,0,0,21,89.86c-1.68-2-4.31-2.69-6.76-2.75a21.12,21.12,0,0,0-6,.79h0l0,0c.49.39,8.27,6.75,5.35,13.21-3,6.67-4.36,12.7,9.62,17.92s5.65,5.88,10.38,23a16.37,16.37,0,0,0,3.85,6.82l0,0a20.71,20.71,0,0,0,2.28,2.1,27.74,27.74,0,0,0,5.47,3.33C44.47,151.07,45,145.72,45.93,140.69Z" transform="translate(0 -3.8)"/><path class="cls-21" d="M71.58,188.45l.09.13c.31.4.61.8.88,1.18h0c.29.41.56.79.81,1.16l0,.06h.16l2-6.73a26.39,26.39,0,0,1-5,1.18c-.47,0-.94.07-1.4.08.92,1,1.75,2,2.47,3Z" transform="translate(0 -3.8)"/><path class="cls-18" d="M64.26,93.56A11.61,11.61,0,0,0,58,101.15a26.61,26.61,0,0,0-.62,9.84,2.58,2.58,0,0,0,2.11-1.2c1.76-2.88,7.16-10.26,11.44-13Q67.43,95.15,64.26,93.56Z" transform="translate(0 -3.8)"/><path class="cls-22" d="M105.51,163.85c2.36-1.8,4.29-2,6.58-5.62s4.71-6,5.47-7.22,4-5.67,1.28-7.36a2.64,2.64,0,0,1-.85-1c-.47.52-.92,1-1.33,1.4a35.81,35.81,0,0,0-7.89,10.65c-1.31,2.6-4,6-6.54,9.34C102.66,164.51,103.75,165.2,105.51,163.85Z" transform="translate(0 -3.8)"/><path class="cls-22" d="M45.67,114a1.69,1.69,0,0,0-.17.3,13.87,13.87,0,0,0-.78,2.41,40.91,40.91,0,0,1-1.24,5.25c-.74,1.64-2.54,5.89-1.47,10.35s1.29,8.3,2.82,8.33a8.43,8.43,0,0,1,1.1.09A70.69,70.69,0,0,1,48.38,131c1.76-5,.9-11.71.91-16.75h0C48.16,113.34,46.47,112.81,45.67,114Z" transform="translate(0 -3.8)"/><path class="cls-22" d="M74.32,151c.27.26.56.52.85.78a6.76,6.76,0,0,0-.46-.53Z" transform="translate(0 -3.8)"/><path class="cls-22" d="M101,109.68c.27.54.56,1.08.9,1.62.74,1.19,1.39.53,2.11-.62-.44,1.29-1.68,2.18-2.51,1a15.27,15.27,0,0,1-1.66-3.21,3.68,3.68,0,0,0-.31-.38,8.55,8.55,0,0,0-.48,2.73c.1,2.18-.32-.13-.42-3.28-.3-.22-.77-.66-1.14-1-1.21-.33-2.42-.68-3.64-1l-.8-.16a19.78,19.78,0,0,0,1.67,1.94,11.09,11.09,0,0,1-2.34-2.07h0c-.45-.08-1,.35-1.49.43-.62.93-.87,1.13-.23,0h0a10.9,10.9,0,0,0-1.75,0A19.7,19.7,0,0,0,91,110.83a12,12,0,0,1-2.73-5.36c-.65-.42-.39-1.73-1.15-2-.27-.09-.19.9-.29,1.52a19.39,19.39,0,0,0,2,4.86,11.25,11.25,0,0,1-2.46-4.4h0c-.88-.47-4.76-1.67-6.37-2.4s-2.83-2.14-4.8-4.24a4.49,4.49,0,0,0-.4-.37l-2.1-.92c-4.33-.1-8.55,9.75-10,12.66-1.73,3.47-7.38,5.82-9.16,11.57-2.83,9.15,1.47,10.14-1.38,17.53S51.91,159,51.91,159,54.2,148.89,56.1,148s-1,8.07.58,9.93.62-4.64,4.75-8.34,9.26-1.34,10.72-.37l.1.08a.85.85,0,0,1,.92-.45,7.47,7.47,0,0,1,2.6,1.17l.07.05a7.39,7.39,0,0,1,.81.92,5,5,0,0,0,1.68,1.55,4.06,4.06,0,0,0,2.08.22,8.76,8.76,0,0,1,1.26,0,7.56,7.56,0,0,1,2.7,1.07.85.85,0,0,1,.32,1.07c3.12,1.21,5.82,2.54,7.24,4.74.74,1.16.58,7-4,11.06s4.24-1.42,6.29-3.79-.39,3.4-2,4.33,4.3.62,10.19-9.15,8.41-13.53,11.4-22.66,5.42-14.9,2.63-21.4c-2.53-5.89-10.91-5.41-13.76-10.06l-1.83-.46A4.35,4.35,0,0,0,101,109.68ZM75.49,122.52a47.36,47.36,0,0,1,7.32,4.6,1.7,1.7,0,0,1-.56,3c-.92.18-6.25-4.12-9-5.35a18.28,18.28,0,0,0-9.58-.92c-2.43.36-.21-1.63,2.42-3S73.09,121.31,75.49,122.52Zm-.71,7a2.33,2.33,0,0,1-.22,1,2.44,2.44,0,0,1-1.25,1.24c-.62.27-3.18-.91-3.37-1.58a2.48,2.48,0,0,1,.13-1.69,2.1,2.1,0,0,1,.46-.67,6.75,6.75,0,0,0-4.57.34,1.25,1.25,0,0,1-1.71-.42,1.23,1.23,0,0,1,.39-1.7c.15-.09,3.73-2.28,9.66.41,6.28,2.84,5.34,6.66,5.29,6.82a1.25,1.25,0,0,1-2.42-.61C77.27,132.11,76.83,130.84,74.78,129.56Zm28.8,15.21h-.22a1.24,1.24,0,0,1-1.22-1,6.34,6.34,0,0,0-2.69-3.68,2.55,2.55,0,0,1-.21,1.11,2.45,2.45,0,0,1-1.38,1.29,4.75,4.75,0,0,1-3.12-1.29,2.48,2.48,0,0,1,0-2,2.55,2.55,0,0,1,.29-.48,3.37,3.37,0,0,0-2.86,1.16,1.26,1.26,0,0,1-1.72.35,1.24,1.24,0,0,1-.39-1.7c.1-.16,2.5-3.85,8.59-1.6a9.05,9.05,0,0,1,5.95,6.43A1.26,1.26,0,0,1,103.58,144.77Zm4.39-.47c-.82,1.3-1.1-2.77-3.06-4.66a18.16,18.16,0,0,0-8.59-3.9c-2.85-.47-4.47-2.37-3.94-3.55s1.52-.72,3.12-.38,7.31,1.88,9.33,2.67c2.34.92,2.89,2.85,3.48,4.65A6.39,6.39,0,0,1,108,144.3Z" transform="translate(0 -3.8)"/><path class="cls-23" d="M84.37,153.76a7.56,7.56,0,0,0-2.7-1.07,8.76,8.76,0,0,0-1.26,0,4.06,4.06,0,0,1-2.08-.22,5,5,0,0,1-1.68-1.55,7.39,7.39,0,0,0-.81-.92l-.07-.05a7.47,7.47,0,0,0-2.6-1.17.85.85,0,0,0-.92.45A22.92,22.92,0,0,1,74.32,151l.39.25a6.76,6.76,0,0,1,.46.53,11.12,11.12,0,0,0,2.66,1.87c2.13,1,4,0,6.62,1.05l.24.09A.85.85,0,0,0,84.37,153.76Z" transform="translate(0 -3.8)"/><path class="cls-20" d="M53.12,174.2a42.3,42.3,0,0,1,9.22,5.17h0l.15.12c.56.42,1.09.84,1.61,1.26l.37.31a46.13,46.13,0,0,1,4.63,4.45c.46,0,.93,0,1.4-.08a26.39,26.39,0,0,0,5-1.18,49.64,49.64,0,0,0,5.92-2.4c.92-.44,1.81-.9,2.69-1.37,1.05-.57,2.07-1.15,3-1.73,5-3.1,9.28-5.55,12.06-10.25.72-1.21,1.58-2.46,2.49-3.72h0l.52-.71c2.49-3.38,5.23-6.74,6.54-9.34a35.81,35.81,0,0,1,7.89-10.65c.41-.4.86-.88,1.33-1.4a47.93,47.93,0,0,0,6-8.56c.11-.2.23-.39.34-.6l-3.95-1.14-3.5-1c.06-.12.1-.23.16-.34,3.19-6.41.06-13.42-.92-18.77-.11-.61-.19-1.17-.25-1.68-4.26-.7-8.67-1.58-13.15-2.67,2.85,4.65,11.23,4.17,13.76,10.06,2.79,6.5.35,12.27-2.63,21.4s-5.51,12.9-11.4,22.66-11.76,10.08-10.19,9.15,4-6.7,2-4.33-10.9,7.82-6.29,3.79,4.76-9.9,4-11.06c-1.42-2.2-4.12-3.53-7.24-4.74l-.24-.09c-2.67-1-4.49-.08-6.62-1.05a11.12,11.12,0,0,1-2.66-1.87c-.29-.26-.58-.52-.85-.78a22.92,22.92,0,0,0-2.07-1.79l-.1-.08c-1.46-1-6.59-3.33-10.72.37s-3.14,10.21-4.75,8.34S58,147,56.1,148,51.91,159,51.91,159s-2.61-12.35.25-19.75-1.45-8.38,1.38-17.53c1.78-5.75,7.43-8.1,9.16-11.57,1.45-2.91,5.67-12.76,10-12.66L71,96.75c-4.28,2.78-9.68,10.16-11.44,13a2.58,2.58,0,0,1-2.11,1.2,11.31,11.31,0,0,1-3-.3c-2.48-.48-4.87-1-5,1.79,0,.57-.05,1.17-.05,1.8h0c0,5,.85,11.72-.91,16.75a70.69,70.69,0,0,0-2.45,9.65c-1,5-1.46,10.38-.71,13.6h0c0,.19.08.39.13.56.55,1.81,1.49,4.67,2.67,7.84A89.69,89.69,0,0,0,53.12,174.2Zm22.71-15.56c6.72,4.08,11.43,2,11.44,4.05,0,1-.88,2.17-2.08,3.26.45.3.24,1.83-.79,4.06h0a27.85,27.85,0,0,1-1.77,3.24c-3,4.73-10,4.57-11.15,4.36a19.47,19.47,0,0,1-3.82-1.38.89.89,0,0,1-.22-.09c-3.11-1.54-9-5.27-8.6-8.91.53-4.31,2.4-9,3.48-9.74-.46-1.38-.5-2.13.23-2.79C64.61,152.85,69.11,154.57,75.83,158.64Z" transform="translate(0 -3.8)"/><path class="cls-20" d="M93.82,105.48l-.9-.28.1.12Z" transform="translate(0 -3.8)"/><path class="cls-20" d="M92.35,105.19h0l-.19-.24-.73-.23q-.32.52-.57.9C91.33,105.54,91.9,105.11,92.35,105.19Z" transform="translate(0 -3.8)"/><path class="cls-20" d="M87.11,103.47c.76.27.5,1.58,1.15,2a18.13,18.13,0,0,1-.34-1.93c-.35-.12-.69-.23-1-.36L86.4,103a18.11,18.11,0,0,0,.42,2C86.92,104.37,86.84,103.38,87.11,103.47Z" transform="translate(0 -3.8)"/><path class="cls-20" d="M90.63,105.62h0a5.69,5.69,0,0,0,.43-1c-.85-.27-1.69-.56-2.54-.85a18.64,18.64,0,0,0,.36,1.9A10.9,10.9,0,0,1,90.63,105.62Z" transform="translate(0 -3.8)"/><path class="cls-20" d="M65,172.41a11.92,11.92,0,0,0,3.4,3.66h0a6.21,6.21,0,0,0,3.55.91c2.14-.19,5.27-2.14,5.84-3.3.82-1.68,1.77-4.12,2.83-5a13.93,13.93,0,0,1-8.57-.2,23,23,0,0,1-6.41-5,3.19,3.19,0,0,1,.13,1C65.55,166.74,63.59,169.22,65,172.41Z" transform="translate(0 -3.8)"/><path class="cls-20" d="M80,103.05c1.61.73,5.49,1.93,6.37,2.4h0a15.35,15.35,0,0,1-.59-2.67q-5.85-2.15-11-4.34a4.49,4.49,0,0,1,.4.37C77.17,100.91,78.38,102.32,80,103.05Z" transform="translate(0 -3.8)"/><path class="cls-20" d="M99.5,108.06a3.68,3.68,0,0,1,.31.38l-.24-.64C99.55,107.89,99.52,108,99.5,108.06Z" transform="translate(0 -3.8)"/><path class="cls-20" d="M100.88,107.44l-.92-.23a18.34,18.34,0,0,0,1,2.47A4.35,4.35,0,0,1,100.88,107.44Z" transform="translate(0 -3.8)"/><path class="cls-20" d="M98.59,106.84l-1.13-.31c.37.32.84.76,1.14,1C98.59,107.29,98.59,107.07,98.59,106.84Z" transform="translate(0 -3.8)"/><path class="cls-22" d="M80.6,168.7c-1.06.86-2,3.3-2.83,5-.57,1.16-3.7,3.11-5.84,3.3a6.21,6.21,0,0,1-3.55-.91h0a11.92,11.92,0,0,1-3.4-3.66c-1.39-3.19.57-5.67.77-7.92a3.19,3.19,0,0,0-.13-1A11.81,11.81,0,0,1,63.26,160c-.4-1-.71-1.85-.94-2.52-1.08.71-3,5.43-3.48,9.74-.45,3.64,5.49,7.37,8.6,8.91a.89.89,0,0,0,.22.09,19.47,19.47,0,0,0,3.82,1.38c1.16.21,8.16.37,11.15-4.36A27.85,27.85,0,0,0,84.4,170h0c1-2.23,1.24-3.76.79-4.06a13.61,13.61,0,0,1-4.59,2.75Z" transform="translate(0 -3.8)"/><path class="cls-24" d="M62.55,154.71c-.73.66-.69,1.41-.23,2.79.23.67.54,1.48.94,2.52a11.81,11.81,0,0,0,2.36,3.47,23,23,0,0,0,6.41,5,13.93,13.93,0,0,0,8.57.2h0A13.61,13.61,0,0,0,85.19,166c1.2-1.09,2.08-2.29,2.08-3.26,0-2.08-4.72,0-11.44-4.05S64.61,152.85,62.55,154.71Zm9.86,2.87.57.34h0l.51.32.33.22.2.13.12.08h0a19.18,19.18,0,0,0,2.5,1.6,21.32,21.32,0,0,0,5.61,1.62c.91.09,2.13.15,2.57.26h0c.87.16,1.52.44,1.59,1,.14,1.23-1.65,1.59-3.71,2.28s-6.5,1.25-9.4-.06a24.17,24.17,0,0,1-7.73-5.94c-1.35-1.77-3.76-4.14-2.13-4.92a4.07,4.07,0,0,1,2.5.17h0a13.55,13.55,0,0,1,1.81.62,23.2,23.2,0,0,1,4.37,2.1Z" transform="translate(0 -3.8)"/><path class="cls-25" d="M82.07,165.19c-1.5.82-3.22.09-5.28-.16a16.69,16.69,0,0,1-5.51-2,34.18,34.18,0,0,1-5-3.44c-1-.68-.79-3.92-.35-4.89a4.07,4.07,0,0,0-2.5-.17c-1.63.78.78,3.15,2.13,4.92a24.17,24.17,0,0,0,7.73,5.94c2.9,1.31,7.34.76,9.4.06s3.85-1.05,3.71-2.28c-.07-.59-.72-.87-1.59-1-.06.15-.18.43-.24.62C84.3,163.7,83.56,164.36,82.07,165.19Z" transform="translate(0 -3.8)"/><path class="cls-25" d="M73,157.92h0Z" transform="translate(0 -3.8)"/><path class="cls-25" d="M74.15,158.67Z" transform="translate(0 -3.8)"/><path class="cls-25" d="M73.5,158.24l.33.22Z" transform="translate(0 -3.8)"/><path class="cls-26" d="M67.76,155.32A13.55,13.55,0,0,0,66,154.7h0c-.44,1-.65,4.21.35,4.89a34.18,34.18,0,0,0,5,3.44,16.69,16.69,0,0,0,5.51,2c2.06.25,3.78,1,5.28.16s2.23-1.49,2.52-2.42c.06-.19.18-.47.24-.62h0c-.44-.11-1.66-.17-2.57-.26a21.32,21.32,0,0,1-5.61-1.62,19.18,19.18,0,0,1-2.5-1.6h0l-.12-.08-.2-.13-.33-.22-.51-.32h0l-.57-.34-.28-.16A23.2,23.2,0,0,0,67.76,155.32Z" transform="translate(0 -3.8)"/><path class="cls-20" d="M88.84,109.85a19.39,19.39,0,0,1-2-4.86,18.11,18.11,0,0,1-.42-2l-.61-.22a15.35,15.35,0,0,0,.59,2.67A11.25,11.25,0,0,0,88.84,109.85Z" transform="translate(0 -3.8)"/><path class="cls-20" d="M91,110.83a19.7,19.7,0,0,1-2.11-5.18,18.64,18.64,0,0,1-.36-1.9l-.6-.21a18.13,18.13,0,0,0,.34,1.93A12,12,0,0,0,91,110.83Z" transform="translate(0 -3.8)"/><path class="cls-20" d="M94.69,107.26A19.78,19.78,0,0,1,93,105.32l-.1-.12-.76-.25.19.24A11.09,11.09,0,0,0,94.69,107.26Z" transform="translate(0 -3.8)"/><path class="cls-20" d="M99.81,108.44a15.27,15.27,0,0,0,1.66,3.21c.83,1.21,2.07.32,2.51-1-.72,1.15-1.37,1.81-2.11.62-.34-.54-.63-1.08-.9-1.62a18.34,18.34,0,0,1-1-2.47l-.16,0c-.08.21-.16.42-.23.63Z" transform="translate(0 -3.8)"/><path class="cls-20" d="M99,110.79a8.55,8.55,0,0,1,.48-2.73c0-.09,0-.17.07-.26s.15-.42.23-.63l-1.21-.33c0,.23,0,.45,0,.67C98.7,110.66,99.12,113,99,110.79Z" transform="translate(0 -3.8)"/><path class="cls-20" d="M90.63,105.62c-.64,1.13-.39.93.23,0q.26-.37.57-.9l-.37-.12a5.69,5.69,0,0,1-.43,1Z" transform="translate(0 -3.8)"/><path class="cls-27" d="M63.69,123.89a18.28,18.28,0,0,1,9.58.92c2.73,1.23,8.06,5.53,9,5.35a1.7,1.7,0,0,0,.56-3,47.36,47.36,0,0,0-7.32-4.6c-2.4-1.21-6.74-3-9.38-1.65S61.26,124.25,63.69,123.89Z" transform="translate(0 -3.8)"/><path class="cls-27" d="M104.83,134.48c-2-.79-7.72-2.32-9.33-2.67s-2.59-.79-3.12.38,1.09,3.08,3.94,3.55a18.16,18.16,0,0,1,8.59,3.9c2,1.89,2.24,6,3.06,4.66a6.39,6.39,0,0,0,.34-5.17C107.72,137.33,107.17,135.4,104.83,134.48Z" transform="translate(0 -3.8)"/><path class="cls-28" d="M73.27,128.75a13.17,13.17,0,0,0-2.74-.9,2.1,2.1,0,0,0-.46.67,2.48,2.48,0,0,0-.13,1.69c.19.67,2.75,1.85,3.37,1.58a2.44,2.44,0,0,0,1.25-1.24,2.33,2.33,0,0,0,.22-1A13.77,13.77,0,0,0,73.27,128.75Z" transform="translate(0 -3.8)"/><path class="cls-28" d="M95,138.68a2.55,2.55,0,0,0-.29.48,2.48,2.48,0,0,0,0,2,4.75,4.75,0,0,0,3.12,1.29,2.45,2.45,0,0,0,1.38-1.29,2.55,2.55,0,0,0,.21-1.11,7.9,7.9,0,0,0-1.67-.85A8.1,8.1,0,0,0,95,138.68Z" transform="translate(0 -3.8)"/><path class="cls-29" d="M78.06,134.18a1.26,1.26,0,0,0,1.53-.88c0-.16,1-4-5.29-6.82-5.93-2.69-9.51-.5-9.66-.41a1.23,1.23,0,0,0-.39,1.7,1.25,1.25,0,0,0,1.71.42,6.75,6.75,0,0,1,4.57-.34,13.17,13.17,0,0,1,2.74.9,13.77,13.77,0,0,1,1.51.81c2,1.28,2.49,2.55,2.39,3.13A1.24,1.24,0,0,0,78.06,134.18Z" transform="translate(0 -3.8)"/><path class="cls-29" d="M98.65,136.89c-6.09-2.25-8.49,1.44-8.59,1.6a1.24,1.24,0,0,0,.39,1.7,1.26,1.26,0,0,0,1.72-.35A3.37,3.37,0,0,1,95,138.68a8.1,8.1,0,0,1,2.75.55,7.9,7.9,0,0,1,1.67.85,6.34,6.34,0,0,1,2.69,3.68,1.24,1.24,0,0,0,1.22,1h.22a1.26,1.26,0,0,0,1-1.45A9.05,9.05,0,0,0,98.65,136.89Z" transform="translate(0 -3.8)"/><path class="cls-10" d="M101.28,3.93,102,4Z" transform="translate(0 -3.8)"/><path class="cls-10" d="M97.26,3.81h0Z" transform="translate(0 -3.8)"/><path class="cls-10" d="M82.46,32.63c0-.31.07-.63.1-.93C82.53,32,82.49,32.32,82.46,32.63Z" transform="translate(0 -3.8)"/><path class="cls-10" d="M83,27.19c0-.3,0-.6.07-.9C83,26.59,83,26.89,83,27.19Z" transform="translate(0 -3.8)"/><path class="cls-10" d="M83.15,24.64c0-.28,0-.56,0-.83C83.18,24.08,83.17,24.36,83.15,24.64Z" transform="translate(0 -3.8)"/><path class="cls-10" d="M81.77,38.19c0-.19.06-.38.08-.57C81.83,37.81,81.8,38,81.77,38.19Z" transform="translate(0 -3.8)"/><path class="cls-10" d="M83.29,22.21l0-.74Z" transform="translate(0 -3.8)"/><path class="cls-10" d="M82.74,29.86c0-.31.06-.63.08-.93C82.8,29.23,82.77,29.55,82.74,29.86Z" transform="translate(0 -3.8)"/><path class="cls-10" d="M82.13,35.45c0-.28.07-.57.11-.85C82.2,34.88,82.17,35.17,82.13,35.45Z" transform="translate(0 -3.8)"/><path class="cls-10" d="M83.44,17.78c0-.11,0-.2,0-.31C83.45,17.58,83.45,17.67,83.44,17.78Z" transform="translate(0 -3.8)"/><path class="cls-10" d="M83.19,6.47l0-.32Z" transform="translate(0 -3.8)"/><path class="cls-10" d="M83.12,5.67a2.28,2.28,0,0,0,0-.26A2.11,2.11,0,0,1,83.12,5.67Z" transform="translate(0 -3.8)"/><path class="cls-10" d="M83.07,5a1.11,1.11,0,0,1,0-.17A1,1,0,0,0,83.07,5Z" transform="translate(0 -3.8)"/><path class="cls-10" d="M83.26,7.44l0-.38Z" transform="translate(0 -3.8)"/><path class="cls-10" d="M77.51,60.1l-.09.34h0Z" transform="translate(0 -3.8)"/><path class="cls-10" d="M83.38,9.86c0-.17,0-.33,0-.48C83.37,9.53,83.37,9.69,83.38,9.86Z" transform="translate(0 -3.8)"/><path class="cls-10" d="M83.32,8.59c0-.16,0-.31,0-.46C83.31,8.27,83.31,8.43,83.32,8.59Z" transform="translate(0 -3.8)"/><path class="cls-10" d="M80.34,47.06l0-.16Z" transform="translate(0 -3.8)"/><path class="cls-10" d="M83.46,12.61a2.09,2.09,0,0,1,0-.25A2.09,2.09,0,0,0,83.46,12.61Z" transform="translate(0 -3.8)"/><path class="cls-10" d="M83,4.23Z" transform="translate(0 -3.8)"/><path class="cls-10" d="M83,4.58v0Z" transform="translate(0 -3.8)"/><path class="cls-10" d="M92.36,3.82h0Z" transform="translate(0 -3.8)"/><path class="cls-10" d="M87.42,4l.84,0Z" transform="translate(0 -3.8)"/><path class="cls-10" d="M117.44,5.58l.78.13Z" transform="translate(0 -3.8)"/><path class="cls-10" d="M121.27,6.27l.47.09Z" transform="translate(0 -3.8)"/><path class="cls-10" d="M113.58,5l.7.1Z" transform="translate(0 -3.8)"/><path class="cls-10" d="M83.38,19.93c0-.21,0-.41,0-.61C83.39,19.52,83.39,19.72,83.38,19.93Z" transform="translate(0 -3.8)"/><path class="cls-10" d="M110,4.57l.34,0Z" transform="translate(0 -3.8)"/><path class="cls-10" d="M79.67,50.54c.07-.33.13-.66.2-1C79.8,49.88,79.74,50.21,79.67,50.54Z" transform="translate(0 -3.8)"/><path class="cls-10" d="M83.43,11.24c0-.15,0-.3,0-.45C83.42,10.94,83.42,11.09,83.43,11.24Z" transform="translate(0 -3.8)"/><path class="cls-10" d="M105.67,4.19l.79.06Z" transform="translate(0 -3.8)"/><path class="cls-10" d="M78.91,54.13c.1-.43.18-.84.27-1.26C79.09,53.29,79,53.7,78.91,54.13Z" transform="translate(0 -3.8)"/><path class="cls-10" d="M78.07,57.81c.11-.47.22-.93.32-1.39C78.29,56.88,78.18,57.34,78.07,57.81Z" transform="translate(0 -3.8)"/><path class="cls-10" d="M119,23.32c-6.52,4.86-10.67,19.53-10.67,19.53l-2.77,23.49,1.3.46.33.11,2.29.82.28.1,2.36.87.25.09,2.41.89.17.06c7.63,2.86,14.48,5.58,15.8,6.11,8.08-20.52,19.29-44.47,30-52.11,0,0-11.86-11.52-37.47-17C123.59,11.83,123.33,20.08,119,23.32Z" transform="translate(0 -3.8)"/><path class="cls-10" d="M101,103.46l-4.11-1-4.34-1c.91.28,1.81.54,2.7.77,1.87.47,3.86.87,5.92,1.23l-.17,0Z" transform="translate(0 -3.8)"/><path class="cls-5" d="M85.94,61.41h0l1.33.21.17,0c.94.15,1.92.32,2.93.51l.12,0c1,.19,2.07.41,3.14.64l.13,0,2,.46,1.28.33.15,0c.55.14,1.09.29,1.64.45h0c1,.3,2.09.62,3.13,1l.1,0c.74.24,1.5.5,2.27.77l.24.08,1,.34,2.77-23.49S112.47,28.18,119,23.32c4.34-3.24,4.6-11.49,4.29-16.63h0l-1.54-.32-.47-.09c-1-.2-2-.38-3-.56l-.78-.13L116,5.34l-.15,0h0l-1.53-.22-.7-.1c-1.06-.14-2.13-.27-3.22-.39l-.34,0c-1.17-.12-2.36-.23-3.56-.32l-.79-.06C104.47,4.1,103.26,4,102,4l-.74,0c-1.26-.05-2.53-.09-3.82-.11h-.2c-1.33,0-2.69,0-4.07,0h-.83c-1.35,0-2.71.06-4.1.12l-.84,0C86,4,84.52,4.12,83,4.23H83l0,.31v0c0,.08,0,.19,0,.29a1.11,1.11,0,0,0,0,.17c0,.11,0,.24,0,.37a2.28,2.28,0,0,1,0,.26c0,.15,0,.31,0,.48l0,.32c0,.18,0,.38,0,.59l0,.38c0,.22,0,.45,0,.69s0,.3,0,.46,0,.51,0,.79,0,.31,0,.48,0,.61,0,.93c0,.15,0,.3,0,.45,0,.36,0,.73,0,1.12a2.09,2.09,0,0,0,0,.25c0,1.45,0,3.07,0,4.86,0,.11,0,.2,0,.31,0,.49,0,1,0,1.54,0,.2,0,.4,0,.61,0,.5,0,1-.06,1.54l0,.74c0,.52-.06,1.06-.09,1.6,0,.27,0,.55,0,.83,0,.54-.07,1.09-.11,1.65,0,.3-.05.6-.07.9,0,.57-.09,1.15-.15,1.74,0,.3,0,.62-.08.93-.06.6-.12,1.21-.18,1.84,0,.3-.07.62-.1.93-.07.65-.14,1.3-.22,2,0,.28-.07.57-.11.85-.09.72-.18,1.44-.28,2.17,0,.19,0,.38-.08.57-.38,2.77-.84,5.67-1.4,8.71l0,.16c-.15.82-.31,1.65-.47,2.49-.07.33-.13.66-.2,1-.15.77-.32,1.55-.49,2.33-.09.42-.17.83-.27,1.26-.16.75-.34,1.52-.52,2.29-.1.46-.21.92-.32,1.39-.18.76-.37,1.52-.56,2.29l-.09.34C78.26,60.5,81.53,60.75,85.94,61.41Z" transform="translate(0 -3.8)"/><path class="cls-30" d="M123.51,99.14a.24.24,0,0,0,0,.08A.24.24,0,0,1,123.51,99.14Z" transform="translate(0 -3.8)"/><path class="cls-30" d="M123.21,100.39a1.6,1.6,0,0,1,0,.21A1.6,1.6,0,0,0,123.21,100.39Z" transform="translate(0 -3.8)"/><path class="cls-30" d="M123,101.06a2.17,2.17,0,0,1-.07.24A2.17,2.17,0,0,0,123,101.06Z" transform="translate(0 -3.8)"/><path class="cls-30" d="M68.43,83.35a14.53,14.53,0,0,0-2.27,4.5h0A14.53,14.53,0,0,1,68.43,83.35Z" transform="translate(0 -3.8)"/><path class="cls-30" d="M74,69.66c0-.21.12-.44.19-.69C74.1,69.22,74,69.45,74,69.66Z" transform="translate(0 -3.8)"/><path class="cls-30" d="M123.39,99.67a.83.83,0,0,1,0,.15A.83.83,0,0,0,123.39,99.67Z" transform="translate(0 -3.8)"/><path class="cls-30" d="M77.39,60.44h.1c.94.06,4.16.32,8.45,1h0c-4.41-.66-7.68-.91-8.52-1h0Z" transform="translate(0 -3.8)"/><path class="cls-30" d="M123.59,98.64s0,.06,0,.09S123.59,98.67,123.59,98.64Z" transform="translate(0 -3.8)"/><path class="cls-30" d="M74,69.78a6,6,0,0,0-.18,1c0,.23,0,.45-.07.67,0-.22.06-.44.07-.67A6,6,0,0,1,74,69.78Z" transform="translate(0 -3.8)"/><path class="cls-30" d="M123.72,97.47l0,.16Z" transform="translate(0 -3.8)"/><path class="cls-30" d="M124,96.7l-.08.21C123.93,96.83,124,96.77,124,96.7Z" transform="translate(0 -3.8)"/><path class="cls-30" d="M124.38,95.85c-.06.15-.16.35-.27.57C124.22,96.19,124.32,96,124.38,95.85Z" transform="translate(0 -3.8)"/><path class="cls-30" d="M112.36,68.79l2.41.89Z" transform="translate(0 -3.8)"/><path class="cls-30" d="M109.75,67.83l2.36.87Z" transform="translate(0 -3.8)"/><path class="cls-30" d="M107.18,66.91l2.29.82Z" transform="translate(0 -3.8)"/><path class="cls-30" d="M123.68,91.49a85.64,85.64,0,0,1-8.73.3c.6,1.3,1.18,2.58,1.74,3.83,3.13.12,5.72.19,7.69.23a.92.92,0,0,0,.09-.29c0-.06.17-.61.44-1.47C124.53,93.25,124.12,92.38,123.68,91.49Z" transform="translate(0 -3.8)"/><path class="cls-30" d="M115.36,69.9l.66.25,2.07.78.93.36,1.71.65.49.19h0l1,.38-.9-.23c2.31,3.86,4.64,8.23,6.71,12.38L131,75.94l-.23-.09c-1.32-.53-8.17-3.25-15.8-6.11Z" transform="translate(0 -3.8)"/><path class="cls-30" d="M119.32,101.73c.56,1.34,1.08,2.61,1.58,3.84l.81,0c.4-1.3.88-2.89,1.26-4.29C121.86,101.47,120.64,101.61,119.32,101.73Z" transform="translate(0 -3.8)"/><path class="cls-30" d="M111.15,84a39.68,39.68,0,0,0,7.67,1.15l1.54.08c-1.51-2.68-3.14-5.41-4.8-8.06l-10.07-3.35C107.49,77.09,109.38,80.52,111.15,84Z" transform="translate(0 -3.8)"/><path class="cls-30" d="M106.85,66.8l-1.3-.46-1-.34C105.33,66.26,106.09,66.52,106.85,66.8Z" transform="translate(0 -3.8)"/><path class="cls-30" d="M108.78,95.26c-.56-1.32-1.17-2.64-1.82-4a60.09,60.09,0,0,1-13.32-3.18c.62,1.24,1.24,2.47,1.84,3.7a30.76,30.76,0,0,0,12.33,3.38Z" transform="translate(0 -3.8)"/><path class="cls-30" d="M111.76,104.19c-.16-.7-.35-1.41-.55-2.12a56.61,56.61,0,0,1-11.41-1.21c.07.16.15.32.23.49C103.08,102.18,107.41,103.27,111.76,104.19Z" transform="translate(0 -3.8)"/><path class="cls-30" d="M87.28,61.62h0L86,61.42h0Z" transform="translate(0 -3.8)"/><path class="cls-30" d="M100.14,79.69c-1-1.44-1.94-2.85-3-4.25l-5-1A46.33,46.33,0,0,0,100.14,79.69Z" transform="translate(0 -3.8)"/><path class="cls-30" d="M95.76,63.33l-2-.46h0Z" transform="translate(0 -3.8)"/><path class="cls-30" d="M90.39,62.17h0c-1-.19-2-.36-2.93-.51h0C88.44,61.81,89.4,62,90.39,62.17Z" transform="translate(0 -3.8)"/><path class="cls-30" d="M93.4,70.4l-.65-.83L91,69Z" transform="translate(0 -3.8)"/><path class="cls-30" d="M101.16,67.25c.76,1,1.5,2.13,2.23,3.24l12,6.4c-1.58-2.53-3.17-5-4.68-7.26Z" transform="translate(0 -3.8)"/><path class="cls-30" d="M102.08,65.15c.74.24,1.49.5,2.27.77C103.58,65.65,102.82,65.39,102.08,65.15Z" transform="translate(0 -3.8)"/><path class="cls-30" d="M93.66,62.84h0c-1.07-.23-2.12-.45-3.14-.64h0C91.56,62.39,92.6,62.61,93.66,62.84Z" transform="translate(0 -3.8)"/><polygon class="cls-31" points="96.89 98.7 92.55 97.7 92.55 97.7 96.89 98.7"/><path class="cls-31" d="M77.2,60.43h0s-.15.4-.4,1C77.05,60.83,77.2,60.43,77.2,60.43Z" transform="translate(0 -3.8)"/><path class="cls-31" d="M70.52,79.85c0,.08-.08.16-.13.24C70.44,80,70.48,79.93,70.52,79.85Z" transform="translate(0 -3.8)"/><path class="cls-31" d="M75.94,63.74c0,.14-.11.29-.16.44C75.83,64,75.89,63.88,75.94,63.74Z" transform="translate(0 -3.8)"/><path class="cls-31" d="M76.19,63.05c0,.13-.09.26-.14.4C76.1,63.31,76.15,63.18,76.19,63.05Z" transform="translate(0 -3.8)"/><path class="cls-31" d="M76.55,62.12l-.28.73C76.37,62.59,76.46,62.34,76.55,62.12Z" transform="translate(0 -3.8)"/><path class="cls-31" d="M76.75,61.59l-.13.35C76.66,61.82,76.71,61.7,76.75,61.59Z" transform="translate(0 -3.8)"/><path class="cls-31" d="M68.67,89.55l-1.5-4.14c.52-.91,1.18-1.91,1.83-2.94l-.57.88a14.53,14.53,0,0,0-2.27,4.5C67,88.42,67.82,89,68.67,89.55Z" transform="translate(0 -3.8)"/><path class="cls-31" d="M74.83,66.85l-.34,1Z" transform="translate(0 -3.8)"/><path class="cls-31" d="M75,66.28l-.18.51Z" transform="translate(0 -3.8)"/><path class="cls-31" d="M77.39,60.44h0Z" transform="translate(0 -3.8)"/><path class="cls-31" d="M71.3,78.07c2.84,5,6.15,11.8,9.24,18.46a76.05,76.05,0,0,0,11.55,4.82C90.23,92.93,82.2,79.56,74.44,68q-.15.49-.27.93c-.07.25-.14.48-.19.69l0,.12a6,6,0,0,0-.18,1c0,.23,0,.45-.07.67-.27,1.67-1.19,3.07-2.38,6.54a.49.49,0,0,0,0,.11A.14.14,0,0,1,71.3,78.07Z" transform="translate(0 -3.8)"/><path class="cls-31" d="M75.29,65.54l-.18.5Z" transform="translate(0 -3.8)"/><path class="cls-31" d="M70,80.85l-.07.11Z" transform="translate(0 -3.8)"/><path class="cls-31" d="M69.43,81.77c-.11.18-.22.36-.34.54C69.21,82.13,69.32,82,69.43,81.77Z" transform="translate(0 -3.8)"/><path class="cls-31" d="M71,78.94c0,.08-.07.16-.11.25C70.88,79.1,70.92,79,71,78.94Z" transform="translate(0 -3.8)"/><path class="cls-31" d="M75.68,64.44c-.1.28-.21.57-.31.87C75.47,65,75.58,64.72,75.68,64.44Z" transform="translate(0 -3.8)"/><path class="cls-31" d="M116.69,95.62c.94,2.11,1.82,4.16,2.63,6.11,1.32-.12,2.54-.26,3.65-.41h0v0a2.17,2.17,0,0,0,.07-.24l.12-.46a1.6,1.6,0,0,0,0-.21c.06-.2.1-.39.14-.57a.83.83,0,0,0,0-.15c0-.16.07-.31.1-.45a.24.24,0,0,1,0-.08c0-.15,0-.29.07-.41s0-.06,0-.09,0-.22,0-.3a4,4,0,0,1,.08-.71l0-.16a4.09,4.09,0,0,1,.18-.56l.08-.21.13-.28c.11-.22.21-.42.27-.57h0C122.41,95.81,119.82,95.74,116.69,95.62Z" transform="translate(0 -3.8)"/><path class="cls-31" d="M122.22,72.51l-1-.38.09.15Z" transform="translate(0 -3.8)"/><path class="cls-31" d="M119,71.29l1.71.65Z" transform="translate(0 -3.8)"/><path class="cls-31" d="M111.15,84c1.34,2.61,2.61,5.23,3.8,7.8a85.64,85.64,0,0,0,8.73-.3c-1-2-2.12-4.13-3.32-6.27l-1.54-.08A39.68,39.68,0,0,1,111.15,84Z" transform="translate(0 -3.8)"/><path class="cls-31" d="M116,70.15l2.07.78Z" transform="translate(0 -3.8)"/><path class="cls-31" d="M100,101.35c.33.71.66,1.42,1,2.11l.17,0c3.4.6,7,1.06,10.75,1.41,0-.23-.11-.47-.16-.71C107.41,103.27,103.08,102.18,100,101.35Z" transform="translate(0 -3.8)"/><path class="cls-31" d="M100.14,79.69a46.33,46.33,0,0,1-7.91-5.27l5,1c-1.24-1.72-2.51-3.4-3.79-5L91,69l1.71.57c-2.28-2.88-4.58-5.62-6.81-8.16-4.29-.64-7.51-.9-8.45-1C82.6,67.18,88.41,77.7,93.64,88.13A60.09,60.09,0,0,0,107,91.31,104.48,104.48,0,0,0,100.14,79.69Z" transform="translate(0 -3.8)"/><path class="cls-31" d="M111.21,102.07a56.24,56.24,0,0,0-2.43-6.81l-1-.05a30.76,30.76,0,0,1-12.33-3.38c1.51,3.09,3,6.13,4.32,9A56.61,56.61,0,0,0,111.21,102.07Z" transform="translate(0 -3.8)"/><path class="cls-31" d="M87.28,61.62,86,61.42Z" transform="translate(0 -3.8)"/><path class="cls-31" d="M93.66,62.84c-1.06-.23-2.1-.45-3.11-.64C91.56,62.39,92.6,62.61,93.66,62.84Z" transform="translate(0 -3.8)"/><path class="cls-31" d="M97,63.66l-1.28-.33-2-.45C94.87,63.11,96,63.37,97,63.66Z" transform="translate(0 -3.8)"/><path class="cls-31" d="M98.83,64.15c-.55-.16-1.09-.31-1.64-.45C97.74,63.84,98.28,64,98.83,64.15Z" transform="translate(0 -3.8)"/><path class="cls-31" d="M90.39,62.17c-1-.19-2-.36-2.87-.51C88.44,61.81,89.4,62,90.39,62.17Z" transform="translate(0 -3.8)"/><path class="cls-31" d="M103.39,70.49c.71,1.09,1.41,2.19,2.1,3.32l10.07,3.35c0-.09-.11-.18-.17-.27Z" transform="translate(0 -3.8)"/><path class="cls-31" d="M101.16,67.25l9.55,2.38-1.28-1.91c2,.71,4,1.45,5.93,2.18l-.42-.16-.17-.06-2.41-.89-.25-.09-2.36-.87-.28-.1-2.29-.82-.33-.11c-.76-.28-1.52-.54-2.26-.8l-.24-.08c-.78-.27-1.53-.53-2.27-.77l-.1,0c-1-.34-2.09-.66-3.13-1C99.63,65.14,100.4,66.18,101.16,67.25Z" transform="translate(0 -3.8)"/><path class="cls-11" d="M119.32,101.73c-.81-2-1.69-4-2.63-6.11-.56-1.25-1.14-2.53-1.74-3.83-1.19-2.57-2.46-5.19-3.8-7.8-1.77-3.47-3.66-6.9-5.66-10.18-.69-1.13-1.39-2.23-2.1-3.32s-1.47-2.19-2.23-3.24-1.53-2.11-2.31-3.1h0c-.55-.16-1.09-.31-1.64-.45l-.15,0c-1.08-.29-2.17-.55-3.23-.78h0l-.13,0h0c-1.06-.23-2.1-.45-3.11-.64h0l-.12,0h0c-1-.19-2-.36-2.87-.51h0l-.17,0h0L86,61.42h-.07c2.23,2.54,4.53,5.28,6.81,8.16l.65.83c1.28,1.64,2.55,3.32,3.79,5,1,1.4,2,2.81,3,4.25A104.48,104.48,0,0,1,107,91.31c.65,1.31,1.26,2.63,1.82,4a56.24,56.24,0,0,1,2.43,6.81c.2.71.39,1.42.55,2.12,0,.24.11.48.16.71,3,.28,6,.5,9,.67C120.4,104.34,119.88,103.07,119.32,101.73Z" transform="translate(0 -3.8)"/><path class="cls-11" d="M121.32,72.28l-.09-.15h0l-.49-.19L119,71.29l-.93-.36L116,70.15l-.66-.25c-2-.73-4-1.47-5.93-2.18l1.28,1.91c1.51,2.28,3.1,4.73,4.68,7.26.06.09.12.18.17.27,1.66,2.65,3.29,5.38,4.8,8.06,1.2,2.14,2.33,4.25,3.32,6.27.44.89.85,1.76,1.23,2.6h0c.65-2,1.92-5.82,3.13-9.43h0C126,80.51,123.63,76.14,121.32,72.28Z" transform="translate(0 -3.8)"/><path class="cls-11" d="M67.17,85.41l1.5,4.14a123.52,123.52,0,0,0,11.87,7c-3.09-6.66-6.4-13.47-9.24-18.46a.14.14,0,0,0,0,.06q-.15.41-.33.81c0,.08-.07.16-.11.25s-.21.44-.32.66-.08.16-.13.24l-.41.76-.07.11q-.22.41-.48.81c-.11.18-.22.36-.34.54l-.09.16C68.35,83.5,67.69,84.5,67.17,85.41Z" transform="translate(0 -3.8)"/><path class="cls-11" d="M92.09,101.35l.46.14,4.34,1,4.11,1h0c-.31-.69-.64-1.4-1-2.11-.08-.17-.16-.33-.23-.49-1.36-2.9-2.81-5.94-4.32-9-.6-1.23-1.22-2.46-1.84-3.7-5.23-10.43-11-20.95-16.15-27.68H77.2s-.15.4-.4,1l0,.13c0,.11-.09.23-.13.35l-.07.18c-.09.22-.18.47-.28.73a1.67,1.67,0,0,1-.08.2c0,.13-.09.26-.14.4s-.07.19-.11.29-.11.29-.16.44-.06.17-.1.26c-.1.28-.21.57-.31.87a2.09,2.09,0,0,0-.08.23l-.18.5c0,.08,0,.16-.08.24l-.18.51,0,.06-.34,1a.88.88,0,0,1,0,.15h0C82.2,79.56,90.23,92.93,92.09,101.35Z" transform="translate(0 -3.8)"/><path class="cls-5" d="M35.12,72.83c.24,1.28,5.19,6.51,15.53,13.08a153.91,153.91,0,0,0,13.61,7.65q3.17,1.59,6.71,3.19l1.73.77,2.1.92q5.15,2.19,11,4.34l.61.22.49.18c.34.13.68.24,1,.36l.6.21c.85.29,1.69.58,2.54.85l.37.12.73.23.76.25.9.28c1.22.37,2.43.72,3.64,1l1.13.31,1.21.33.16,0,.92.23,1.83.46c4.48,1.09,8.89,2,13.15,2.67a208.23,208.23,0,0,0,39.67,2.67c2.42-.08,3.76-.18,3.76-.18,3.27-.25,4.86-4.49-.06-6.13-3.2-1.07-20.08-.4-37.52-1.32l-.81,0c-3-.17-6-.39-9-.67-3.72-.35-7.35-.81-10.75-1.41-2.06-.36-4-.76-5.92-1.23-.89-.23-1.79-.49-2.7-.77h0l-.46-.14a76.05,76.05,0,0,1-11.55-4.82,123.52,123.52,0,0,1-11.87-7c-.85-.57-1.69-1.13-2.51-1.7h0A238.31,238.31,0,0,1,44.29,70.42c-3.65-3.16-6.65-2.12-8.15-.39A3.71,3.71,0,0,0,35.12,72.83Z" transform="translate(0 -3.8)"/><path class="cls-10" d="M113.46,197l-.23,1.11Z" transform="translate(0 -3.8)"/><path class="cls-10" d="M108.62,191.37l.57.25Z" transform="translate(0 -3.8)"/><path class="cls-10" d="M113.21,198.24c-.18.86-.4,1.84-.67,2.9C112.81,200.08,113,199.1,113.21,198.24Z" transform="translate(0 -3.8)"/><path class="cls-10" d="M107.18,190.78l.46.18Z" transform="translate(0 -3.8)"/><path class="cls-10" d="M105.41,190.19l.39.12Z" transform="translate(0 -3.8)"/><path class="cls-10" d="M83.55,232.64h0c.46.52.93,1,1.4,1.49h0C84.48,233.66,84,233.16,83.55,232.64Z" transform="translate(0 -3.8)"/><path class="cls-10" d="M91.57,239.29q-.55-.33-1.14-.72Q91,239,91.57,239.29Z" transform="translate(0 -3.8)"/><path class="cls-10" d="M98.48,240c-.21.19-.44.38-.67.56C98,240.36,98.27,240.17,98.48,240Z" transform="translate(0 -3.8)"/><path class="cls-10" d="M74.37,208.06h0a46.07,46.07,0,0,0,1.84,11.26,38.59,38.59,0,0,0,2.07,5.36c.41.84.84,1.65,1.28,2.42a34.91,34.91,0,0,0,2.27,3.45h0C78,225.45,74.81,218.19,74.37,208.06Z" transform="translate(0 -3.8)"/><path class="cls-10" d="M100.35,238c-.22.28-.46.55-.72.83C99.89,238.59,100.13,238.32,100.35,238Z" transform="translate(0 -3.8)"/><path class="cls-10" d="M101,237.18c-.19.29-.4.57-.62.85C100.58,237.75,100.79,237.47,101,237.18Z" transform="translate(0 -3.8)"/><path class="cls-10" d="M101.52,236.3c-.12.21-.24.41-.37.61C101.28,236.71,101.4,236.51,101.52,236.3Z" transform="translate(0 -3.8)"/><path class="cls-10" d="M81.9,230.63h0c.43.57.86,1.1,1.3,1.61h0C82.76,231.73,82.33,231.2,81.9,230.63Z" transform="translate(0 -3.8)"/><path class="cls-10" d="M97,241.16c.17-.12.34-.24.5-.37l-.5.36Z" transform="translate(0 -3.8)"/><path class="cls-10" d="M101.68,236c.11-.2.21-.41.31-.62C101.89,235.59,101.79,235.8,101.68,236Z" transform="translate(0 -3.8)"/><polygon class="cls-10" points="96.4 237.78 96.41 237.77 96.4 237.78 96.4 237.78"/><path class="cls-10" d="M85,234.14a33.84,33.84,0,0,0,4.83,4,33.84,33.84,0,0,1-4.83-4Z" transform="translate(0 -3.8)"/><path class="cls-10" d="M102.46,234.25c-.1.29-.22.58-.34.86C102.24,234.83,102.36,234.54,102.46,234.25Z" transform="translate(0 -3.8)"/><path class="cls-10" d="M103.71,227.2c0,.26,0,.51-.07.77C103.67,227.71,103.69,227.46,103.71,227.2Z" transform="translate(0 -3.8)"/><path class="cls-10" d="M103.52,229.27l-.12.95Z" transform="translate(0 -3.8)"/><path class="cls-10" d="M103.61,228.3l-.06.69Z" transform="translate(0 -3.8)"/><path class="cls-10" d="M92.42,189.43c.56-.09,1.13-.16,1.71-.22C93.55,189.27,93,189.34,92.42,189.43Z" transform="translate(0 -3.8)"/><path class="cls-10" d="M90.17,189.84c.59-.13,1.2-.24,1.82-.34C91.37,189.6,90.76,189.71,90.17,189.84Z" transform="translate(0 -3.8)"/><path class="cls-10" d="M103.21,231.43c0,.22-.09.43-.13.65C103.12,231.86,103.17,231.65,103.21,231.43Z" transform="translate(0 -3.8)"/><path class="cls-10" d="M102.77,233.32c-.09.3-.19.61-.3.91C102.58,233.93,102.68,233.62,102.77,233.32Z" transform="translate(0 -3.8)"/><path class="cls-10" d="M103,232.4c-.05.21-.11.43-.17.64C102.9,232.83,103,232.61,103,232.4Z" transform="translate(0 -3.8)"/><path class="cls-10" d="M94.3,189.19a3.14,3.14,0,0,1,.14,3.05,2.51,2.51,0,1,1-4.47-2,2.58,2.58,0,0,1,.19-.37l-.25.06A41.45,41.45,0,0,0,83.36,192a3.5,3.5,0,0,1-.29,1.06h0c3.1,1.4,1.71,4.45-.11,8.26,1.53.55,3.07,1.13,4.56,1.75a2.25,2.25,0,0,1,3.93,1.77c5.39,2.66,9.27,5.75,8.36,8.94,0,0-3.18-7.87-13.12-3,0,0,13-.13,11.81,9.28-.52,4,2.12,5.5,5.3,6.07,0,.21,0,.42,0,.63.3-3.56.63-7.19,2.86-10.71.35-.57.69-1.16,1-1.75a57.55,57.55,0,0,0,4.91-13.12c-.14.53-.28,1.09-.44,1.66a2.29,2.29,0,0,1-.37-.12,2.79,2.79,0,0,1-1-3.77,3.05,3.05,0,0,1,2.72-1.93c.32-1.61.45-2.59.45-2.59a29.3,29.3,0,0,0-4.56-2.7,2.67,2.67,0,0,1-3.21,1.26,2.58,2.58,0,0,1-1.26-2.92,28,28,0,0,0-3.39-.7A30.55,30.55,0,0,0,94.3,189.19ZM107,213.69a2.51,2.51,0,1,1-1-3.77A2.78,2.78,0,0,1,107,213.69Zm-6-14.49A3.1,3.1,0,1,1,97.47,201,2.79,2.79,0,0,1,101,199.2Z" transform="translate(0 -3.8)"/><path class="cls-10" d="M103.39,230.27c0,.29-.08.58-.13.88C103.31,230.85,103.35,230.56,103.39,230.27Z" transform="translate(0 -3.8)"/><path class="cls-10" d="M99.39,239.12l-.59.58Z" transform="translate(0 -3.8)"/><path class="cls-10" d="M82,192.58l0,0h0Z" transform="translate(0 -3.8)"/><path class="cls-10" d="M82.12,192.52l1.07-.46Z" transform="translate(0 -3.8)"/><path class="cls-10" d="M74.33,206.64h0c0,.14,0,.26,0,.4h0C74.34,206.9,74.33,206.77,74.33,206.64Z" transform="translate(0 -3.8)"/><path class="cls-9" d="M96.39,241.58Z" transform="translate(0 -3.8)"/><path class="cls-9" d="M94.14,240.65l.38.18Z" transform="translate(0 -3.8)"/><path class="cls-9" d="M95.35,241.19l.25.1Z" transform="translate(0 -3.8)"/><path class="cls-9" d="M93.39,240.29l.44.22Z" transform="translate(0 -3.8)"/><path class="cls-9" d="M92.57,239.85l.5.27Z" transform="translate(0 -3.8)"/><path class="cls-9" d="M95.79,241.37l.18.06Z" transform="translate(0 -3.8)"/><path class="cls-9" d="M81.9,230.63c.43.57.86,1.1,1.3,1.61C82.76,231.73,82.33,231.2,81.9,230.63Z" transform="translate(0 -3.8)"/><path class="cls-9" d="M84.94,234.13c-.46-.47-.93-1-1.39-1.49C84,233.16,84.48,233.66,84.94,234.13Z" transform="translate(0 -3.8)"/><path class="cls-9" d="M94.79,241l.32.14Z" transform="translate(0 -3.8)"/><path class="cls-9" d="M96.12,241.49l.08,0Z" transform="translate(0 -3.8)"/><path class="cls-9" d="M77.48,207.44a2.51,2.51,0,0,1-2.84.76l-.27-.14c.44,10.13,3.63,17.39,7.46,22.49a2.51,2.51,0,1,1,4.48,2A3.52,3.52,0,0,1,85,234.14a33.84,33.84,0,0,0,4.83,4l.65.43q.58.39,1.14.72c.29.17.57.33.84.47a2.7,2.7,0,0,1,3.3-1.4A2.55,2.55,0,0,1,97,241.15l.5-.36.32-.25c.23-.18.46-.37.67-.56l.32-.28.59-.58.24-.25c.26-.28.5-.55.72-.83h0c.22-.28.43-.56.62-.85l.17-.27c.13-.2.25-.4.37-.61l.16-.3c.11-.2.21-.41.31-.62l.13-.27c.12-.28.24-.57.34-.86v0c.11-.3.21-.61.3-.91l.07-.28c.06-.21.12-.43.17-.64s0-.22.07-.32.09-.43.13-.65a2.74,2.74,0,0,1,.05-.28c0-.3.09-.59.13-.88v-.05l.12-.95,0-.28.06-.69,0-.33c0-.26,0-.51.07-.77s0-.32,0-.47,0-.42,0-.63c-3.18-.57-5.82-2.07-5.3-6.07,1.22-9.41-11.81-9.28-11.81-9.28,9.94-4.85,13.12,3,13.12,3,.91-3.19-3-6.28-8.36-8.94a3.68,3.68,0,0,1-.31,1.42,2.51,2.51,0,1,1-4.48-2,3.56,3.56,0,0,1,.86-1.17c-1.49-.62-3-1.2-4.56-1.75-.47,1-1,2-1.42,3.09C80.61,206.59,79.12,207.42,77.48,207.44Zm21.18,17.44a3.1,3.1,0,1,1-3.48,1.75A2.79,2.79,0,0,1,98.66,224.88Zm-7.84-9.22a2.51,2.51,0,1,1,1,3.77A2.78,2.78,0,0,1,90.82,215.66Zm-8.61,5.11a2.51,2.51,0,1,1-1-3.77A2.78,2.78,0,0,1,82.21,220.77Z" transform="translate(0 -3.8)"/><path class="cls-9" d="M74.34,207c0-.13,0-.26,0-.39h0C74.33,206.77,74.34,206.9,74.34,207Z" transform="translate(0 -3.8)"/><path class="cls-32" d="M98.46,204.72a3.1,3.1,0,1,0-1-3.77A2.8,2.8,0,0,0,98.46,204.72Z" transform="translate(0 -3.8)"/><path class="cls-32" d="M77.74,218.74A2.51,2.51,0,1,0,81.22,217,2.78,2.78,0,0,0,77.74,218.74Z" transform="translate(0 -3.8)"/><path class="cls-32" d="M91.81,219.43a3.1,3.1,0,1,0-1-3.77A2.78,2.78,0,0,0,91.81,219.43Z" transform="translate(0 -3.8)"/><path class="cls-32" d="M86.66,204.23a2.51,2.51,0,1,0,4.48,2,3.68,3.68,0,0,0,.31-1.42,2.25,2.25,0,0,0-3.93-1.77A3.56,3.56,0,0,0,86.66,204.23Z" transform="translate(0 -3.8)"/><path class="cls-32" d="M74.64,208.2a2.51,2.51,0,0,0,2.84-.76,7.11,7.11,0,0,1-3.15-.8c0,.13,0,.26,0,.39h0c0,.33,0,.68,0,1h0Z" transform="translate(0 -3.8)"/><path class="cls-32" d="M90,190.21a2.51,2.51,0,1,0,4.47,2,3.14,3.14,0,0,0-.14-3.05h0l-.17,0c-.58.06-1.15.13-1.71.22l-.43.07c-.62.1-1.23.21-1.82.34h0A2.58,2.58,0,0,0,90,190.21Z" transform="translate(0 -3.8)"/><path class="cls-32" d="M96.17,230.4a3.1,3.1,0,1,0-1-3.77A2.78,2.78,0,0,0,96.17,230.4Z" transform="translate(0 -3.8)"/><path class="cls-32" d="M106.14,193a2.67,2.67,0,0,0,3.21-1.26h0l-.17-.08-.57-.25c-.33-.15-.65-.28-1-.41l-.46-.18c-.46-.17-.92-.33-1.38-.47l-.39-.12-.53-.16h0A2.58,2.58,0,0,0,106.14,193Z" transform="translate(0 -3.8)"/><path class="cls-32" d="M95.71,238.36a2.7,2.7,0,0,0-3.3,1.4h0l.16.08.5.27.32.17.44.22.31.14.38.18.27.12.32.14.24.1.25.1.19.08.18.06.15.06.08,0,.19.07h0l.58-.4h0A2.55,2.55,0,0,0,95.71,238.36Z" transform="translate(0 -3.8)"/><path class="cls-32" d="M83.07,193.05a3.5,3.5,0,0,0,.29-1.06h0l-.17.08-1.07.46-.14.06,0,0C82.33,192.74,82.71,192.89,83.07,193.05Z" transform="translate(0 -3.8)"/><path class="cls-32" d="M86.31,232.59a2.51,2.51,0,1,0-4.48-2h0l.07.08h0c.43.57.86,1.1,1.3,1.61h0l.35.4h0c.46.52.93,1,1.39,1.49h0A3.52,3.52,0,0,0,86.31,232.59Z" transform="translate(0 -3.8)"/><path class="cls-32" d="M106,209.92a3.1,3.1,0,1,0,1,3.77A2.78,2.78,0,0,0,106,209.92Z" transform="translate(0 -3.8)"/><path class="cls-32" d="M110.74,198.92a2.79,2.79,0,0,0,1,3.77,2.29,2.29,0,0,0,.37.12c.16-.57.3-1.13.44-1.66h0c.27-1.06.49-2,.67-2.9l0-.1.23-1.11v0h0A3.05,3.05,0,0,0,110.74,198.92Z" transform="translate(0 -3.8)"/><path class="cls-10" d="M29.9,220.59h0a50,50,0,0,0,11.41.23h0A50,50,0,0,1,29.9,220.59Z" transform="translate(0 -3.8)"/><path class="cls-10" d="M23,214.22a9.51,9.51,0,0,1-.05-1.06A9.51,9.51,0,0,0,23,214.22Z" transform="translate(0 -3.8)"/><path class="cls-10" d="M23.44,216.52q-.12-.42-.21-.81Q23.32,216.1,23.44,216.52Z" transform="translate(0 -3.8)"/><path class="cls-10" d="M22.94,212.84c0-.24,0-.48,0-.71C23,212.36,22.94,212.6,22.94,212.84Z" transform="translate(0 -3.8)"/><path class="cls-10" d="M23.15,215.34a10.66,10.66,0,0,1-.16-1.07A10.66,10.66,0,0,0,23.15,215.34Z" transform="translate(0 -3.8)"/><path class="cls-10" d="M23.87,217.81c-.11-.29-.21-.58-.3-.86C23.66,217.23,23.76,217.52,23.87,217.81Z" transform="translate(0 -3.8)"/><path class="cls-10" d="M29,220.46h0l.71.1h0Z" transform="translate(0 -3.8)"/><path class="cls-10" d="M35,179c.9-2.2,1.83-4.08,2.55-5.44C36.8,174.89,35.87,176.77,35,179Z" transform="translate(0 -3.8)"/><path class="cls-10" d="M24.59,219.49v0h0Z" transform="translate(0 -3.8)"/><path class="cls-10" d="M23,211.78c0-.22.07-.45.11-.67C23.08,211.33,23,211.56,23,211.78Z" transform="translate(0 -3.8)"/><path class="cls-10" d="M25,219.64h0l.38.11h0Z" transform="translate(0 -3.8)"/><path class="cls-10" d="M24,218.21c.08.2.18.4.27.61h0C24.2,218.61,24.1,218.41,24,218.21Z" transform="translate(0 -3.8)"/><path class="cls-10" d="M24.61,219.52h0l.36.11h0Z" transform="translate(0 -3.8)"/><path class="cls-10" d="M25.53,219.77h0l.43.11h0Z" transform="translate(0 -3.8)"/><path class="cls-10" d="M27,220.1h0l.56.11h0Z" transform="translate(0 -3.8)"/><path class="cls-10" d="M26.2,219.93h0l.49.11h0Z" transform="translate(0 -3.8)"/><path class="cls-10" d="M27.92,220.28h0l.63.11h0Z" transform="translate(0 -3.8)"/><path class="cls-10" d="M23.17,210.81c.07-.3.14-.59.23-.87C23.31,210.22,23.24,210.51,23.17,210.81Z" transform="translate(0 -3.8)"/><path class="cls-10" d="M23.41,209.88c.1-.3.2-.6.32-.89C23.61,209.28,23.51,209.58,23.41,209.88Z" transform="translate(0 -3.8)"/><path class="cls-10" d="M23.85,208.71c.08-.2.17-.41.26-.6C24,208.3,23.93,208.51,23.85,208.71Z" transform="translate(0 -3.8)"/><path class="cls-10" d="M27.58,202.62c3.63,1.54,7.34,2,9.53-1.47,5.15-8.22,18.33.06,18.33.06C48.61,191.13,40,195.37,40,195.37c1.25-3.1,7.3-3.11,14.59-1.83a3,3,0,0,1,5.21,1.07c3.53.82,7.15,1.82,10.51,2.83a36.11,36.11,0,0,1,1.74-5.14,3,3,0,0,1-.92-2.82,3.09,3.09,0,0,1,.42-1c-.72-1-1.55-1.94-2.47-3a46.13,46.13,0,0,0-4.63-4.45c.57.47,1.12.95,1.64,1.43a3,3,0,1,1-6-.79,3.05,3.05,0,0,1,2.22-2.33,42.3,42.3,0,0,0-9.22-5.17c-.69-.28-1.4-.54-2.13-.79a3,3,0,0,1-5.68-1.5c-.81-.15-1.64-.28-2.48-.39-1.3-.16-2.62-.29-4-.34,0,0-.53.87-1.31,2.34a3,3,0,0,1-2.1,5.59A3.47,3.47,0,0,1,35,179a41.66,41.66,0,0,0-3.38,13.9,12.86,12.86,0,0,1-.2,1.89,16.6,16.6,0,0,1-2.54,6C28.44,201.38,28,202,27.58,202.62Zm17.61-17.14a3,3,0,1,1,2.36,3.57A3,3,0,0,1,45.19,185.48ZM32.78,190.8a3,3,0,1,1,2.36,3.58A3,3,0,0,1,32.78,190.8Z" transform="translate(0 -3.8)"/><path class="cls-10" d="M25.91,205l.35-.51Z" transform="translate(0 -3.8)"/><path class="cls-10" d="M26.52,204.14c.1-.15.19-.29.3-.43Z" transform="translate(0 -3.8)"/><path class="cls-10" d="M25.19,206.13c.17-.27.34-.54.52-.81C25.53,205.59,25.36,205.86,25.19,206.13Z" transform="translate(0 -3.8)"/><path class="cls-10" d="M24.71,207l.42-.72Z" transform="translate(0 -3.8)"/><path class="cls-10" d="M24.56,207.22l-.3.58Z" transform="translate(0 -3.8)"/><path class="cls-10" d="M70.51,206.06h0l.79-.88h0Z" transform="translate(0 -3.8)"/><path class="cls-10" d="M43.79,220.51c-.84.12-1.66.23-2.47.31h0l2-.24.44-.07Z" transform="translate(0 -3.8)"/><path class="cls-10" d="M44.35,220.42h0c.84-.13,1.69-.29,2.56-.48h0Q45.61,220.23,44.35,220.42Z" transform="translate(0 -3.8)"/><path class="cls-10" d="M45.45,171.94c.93.18,1.84.38,2.72.61C47.29,172.32,46.38,172.12,45.45,171.94Z" transform="translate(0 -3.8)"/><path class="cls-10" d="M48.46,172.63c.76.21,1.49.43,2.22.67C50,173.06,49.22,172.84,48.46,172.63Z" transform="translate(0 -3.8)"/><path class="cls-10" d="M69.81,206.82h0a44.23,44.23,0,0,1-22.89,13.12h0a43.48,43.48,0,0,0,10.42-3.72c1-.51,2-1.08,3-1.7a45.19,45.19,0,0,0,7.32-5.59C68.4,208.26,69.11,207.56,69.81,206.82Z" transform="translate(0 -3.8)"/><path class="cls-10" d="M71.67,188.58c.31.4.61.8.88,1.18C72.28,189.38,72,189,71.67,188.58Z" transform="translate(0 -3.8)"/><path class="cls-10" d="M72.56,189.76c.29.41.56.79.81,1.16C73.12,190.55,72.85,190.17,72.56,189.76Z" transform="translate(0 -3.8)"/><path class="cls-10" d="M62.49,179.49c.56.42,1.09.84,1.61,1.26C63.58,180.33,63.05,179.91,62.49,179.49Z" transform="translate(0 -3.8)"/><path class="cls-9" d="M41.32,220.82c.81-.08,1.63-.19,2.47-.31C43,220.63,42.13,220.74,41.32,220.82Z" transform="translate(0 -3.8)"/><path class="cls-9" d="M29,220.46l.7.1Z" transform="translate(0 -3.8)"/><path class="cls-9" d="M27.48,217.41a3,3,0,0,1,2.42,3.18,50,50,0,0,0,11.41.23,3,3,0,1,1,5.61-.88,44.23,44.23,0,0,0,22.89-13.12,2.47,2.47,0,0,1-.38,0,3,3,0,0,1,.41-6,16.34,16.34,0,0,1,.49-3.35c-3.36-1-7-2-10.51-2.83a3,3,0,1,1-5.21-1.07c-7.29-1.28-13.34-1.27-14.59,1.83,0,0,8.59-4.24,15.42,5.84,0,0-13.18-8.28-18.33-.06-2.19,3.49-5.9,3-9.53,1.47h0l-.76,1.09c-.11.14-.2.28-.3.43l-.26.37-.35.51-.2.3c-.18.27-.35.54-.52.81l-.06.1-.42.72-.15.27-.3.58-.15.31c-.09.19-.18.4-.26.6l-.12.28c-.12.29-.22.59-.32.89,0,0,0,0,0,.06-.09.28-.16.57-.23.87,0,.1,0,.2-.05.3s-.08.45-.11.67,0,.24,0,.35,0,.47,0,.71,0,.21,0,.32a9.51,9.51,0,0,0,.05,1.06.09.09,0,0,0,0,.05,10.66,10.66,0,0,0,.16,1.07c0,.12.05.24.08.37s.13.53.21.81.08.28.13.43.19.57.3.86l.15.4c.08.2.18.4.27.6A3,3,0,0,1,27.48,217.41Zm28.07-1.88a3,3,0,1,1,3.57-2.36A3,3,0,0,1,55.55,215.53ZM42,201.3a3,3,0,1,1,2.36,3.57A3,3,0,0,1,42,201.3Zm-8.33,3.58a3,3,0,1,1-3.57,2.37A3,3,0,0,1,33.64,204.88Z" transform="translate(0 -3.8)"/><path class="cls-9" d="M26.2,219.93l.48.11Z" transform="translate(0 -3.8)"/><path class="cls-9" d="M25.53,219.77l.43.11Z" transform="translate(0 -3.8)"/><path class="cls-9" d="M27,220.1l.56.11Z" transform="translate(0 -3.8)"/><path class="cls-9" d="M24.61,219.52v0h0l.35.11Z" transform="translate(0 -3.8)"/><path class="cls-9" d="M25,219.64l.37.1Z" transform="translate(0 -3.8)"/><path class="cls-9" d="M27.92,220.28l.63.11Z" transform="translate(0 -3.8)"/><path class="cls-9" d="M70.51,206.06l.78-.87Z" transform="translate(0 -3.8)"/><path class="cls-9" d="M44.35,220.42q1.26-.19,2.55-.48Q45.61,220.23,44.35,220.42Z" transform="translate(0 -3.8)"/><path class="cls-32" d="M47.55,189.05a3,3,0,1,0-2.36-3.57A3,3,0,0,0,47.55,189.05Z" transform="translate(0 -3.8)"/><path class="cls-32" d="M56.76,209.59a3,3,0,1,0,2.36,3.58A3,3,0,0,0,56.76,209.59Z" transform="translate(0 -3.8)"/><path class="cls-32" d="M44.33,204.87A3,3,0,1,0,42,201.3,3,3,0,0,0,44.33,204.87Z" transform="translate(0 -3.8)"/><path class="cls-32" d="M54,194.86a3,3,0,1,0,.64-1.32A3,3,0,0,0,54,194.86Z" transform="translate(0 -3.8)"/><path class="cls-32" d="M67.07,203.2a3,3,0,0,0,2.36,3.57,2.47,2.47,0,0,0,.38,0h0c.23-.24.46-.5.69-.75h0l.78-.87h0l.31-.36c-.26-.23-.52-.45-.75-.69a4.52,4.52,0,0,1-1-3.35A3,3,0,0,0,67.07,203.2Z" transform="translate(0 -3.8)"/><path class="cls-32" d="M60.12,181.7a3,3,0,1,0,6,.79c-.52-.48-1.07-1-1.64-1.43l-.37-.31c-.52-.42-1-.84-1.61-1.26l-.15-.12h0A3.05,3.05,0,0,0,60.12,181.7Z" transform="translate(0 -3.8)"/><path class="cls-32" d="M30.07,207.25a3,3,0,1,0,3.57-2.37A3,3,0,0,0,30.07,207.25Z" transform="translate(0 -3.8)"/><path class="cls-32" d="M47.73,174.93A3,3,0,0,0,51,173.41h0l-.32-.1c-.73-.24-1.46-.46-2.22-.67l-.29-.08c-.88-.23-1.79-.43-2.72-.61l-.14,0h0A3,3,0,0,0,47.73,174.93Z" transform="translate(0 -3.8)"/><path class="cls-32" d="M27.48,217.41a3,3,0,0,0-3.19,1.4h0l.31.66h0v0l.35.11H25l.37.1h0l.15,0h0l.43.11h0l.23.05h0l.48.11h0l.31.06h0l.56.11h0l.37.07h0l.63.11h0l.42.07h0l.7.1h0l.22,0h0A3,3,0,0,0,27.48,217.41Z" transform="translate(0 -3.8)"/><path class="cls-32" d="M73.41,191l0-.06c-.25-.37-.52-.75-.81-1.16h0c-.27-.38-.57-.78-.88-1.18l-.09-.13h0a3.09,3.09,0,0,0-.42,1,3,3,0,0,0,.92,2.82c.32-.75.54-1.21.54-1.21A2.15,2.15,0,0,1,73.41,191Z" transform="translate(0 -3.8)"/><path class="cls-32" d="M43.79,220.51h0l.56-.09h0q1.26-.19,2.55-.48h0a3,3,0,1,0-5.61.88h0C42.13,220.74,43,220.63,43.79,220.51Z" transform="translate(0 -3.8)"/><path class="cls-32" d="M35.14,194.38a3,3,0,1,0-2.36-3.58A3,3,0,0,0,35.14,194.38Z" transform="translate(0 -3.8)"/><path class="cls-32" d="M39,176.75a3,3,0,0,0-1.47-3.23h0c-.72,1.36-1.65,3.24-2.55,5.44h0a3.47,3.47,0,0,0,.46.13A3,3,0,0,0,39,176.75Z" transform="translate(0 -3.8)"/><path class="cls-9" d="M73.57,191h-.16a2.15,2.15,0,0,0-.8.11s-.22.46-.54,1.21a36.11,36.11,0,0,0-1.74,5.14,16.34,16.34,0,0,0-.49,3.35,4.52,4.52,0,0,0,1,3.35c.23.24.49.46.75.69l.15.12a12.4,12.4,0,0,0,2.57,1.69h0a7.11,7.11,0,0,0,3.15.8c1.64,0,3.13-.85,4.06-3,.45-1.07.95-2.1,1.42-3.09,1.82-3.81,3.21-6.86.11-8.26h0c-.36-.16-.74-.31-1.12-.45h0l-.28-.11A28.85,28.85,0,0,0,73.57,191Z" transform="translate(0 -3.8)"/><path class="cls-16" d="M58.5,246.32c-1.18-.53-2.71.32-3.43,1.91s-.34,3.31.83,3.84,2.71-.33,3.43-1.92S59.67,246.85,58.5,246.32Z" transform="translate(0 -3.8)"/><path class="cls-16" d="M64.68,229.59c-1.18-.53-2.71.33-3.43,1.91s-.35,3.31.83,3.84,2.71-.33,3.43-1.91S65.85,230.12,64.68,229.59Z" transform="translate(0 -3.8)"/><path class="cls-13" d="M27.23,308.88a6,6,0,1,0-4.91,10.86,6,6,0,1,0,4.91-10.86Z" transform="translate(0 -3.8)"/><path class="cls-30" d="M180,245.79a2.72,2.72,0,1,0-1.47-3.64A2.78,2.78,0,0,0,180,245.79Z" transform="translate(0 -3.8)"/></g><g class="cls-33"><path class="cls-3" d="M220.9,133.23a10.51,10.51,0,0,1-7.24-7.27,7,7,0,0,1,6.51-9,9.39,9.39,0,0,1,3.39.37,10.55,10.55,0,0,1,7.24,7.26,7,7,0,0,1-6.51,9,9.61,9.61,0,0,1-3.39-.37" transform="translate(0 -3.8)"/><path class="cls-3" d="M223.49,117.59a10.3,10.3,0,0,1,7.06,7.08,6.74,6.74,0,0,1-6.28,8.68A9.44,9.44,0,0,1,221,133a10.33,10.33,0,0,1-7.07-7.09,6.74,6.74,0,0,1,6.28-8.67,9.24,9.24,0,0,1,3.31.36m.14-.48h0a9.66,9.66,0,0,0-3.48-.38,7.24,7.24,0,0,0-6.73,9.3,10.79,10.79,0,0,0,7.4,7.44,9.71,9.71,0,0,0,3.49.38,7.25,7.25,0,0,0,6.73-9.3,10.79,10.79,0,0,0-7.41-7.44" transform="translate(0 -3.8)"/><path class="cls-6" d="M221.42,132.63c.37.09,1.61.36,1.56,0,0-.2-.67-.35-1.59-.7a16.48,16.48,0,0,1-3.72-2,8.62,8.62,0,0,1-3.4-4.66,5.89,5.89,0,0,1,1.13-5.87,6.76,6.76,0,0,0-1.7,6.41,9,9,0,0,0,2.6,4.5,7.07,7.07,0,0,0,1.29.9,16,16,0,0,0,3.83,1.41" transform="translate(0 -3.8)"/><path class="cls-6" d="M230.2,122.82a10,10,0,0,0-5.56-4.79c1.92,1,4.84,3.21,4,5.4-.73,1.77-3.62,1.65-5.36,1-2.06-.81-4.89-2.77-3.16-5,1.11-1.46,6.14-.29,5.83,1.79-.18,1.21-2.1,1.08-3.08.57-.72-.38-1.42-1.07-1.34-1.84,0-.25-.08-.62-.36-.32a1.12,1.12,0,0,0-.23.89c.28,2.66,5.69,4.34,6.49,1.69.42-1.38-1.29-3.2-3-3.88a7.91,7.91,0,0,0-4.06-.62c-2.31.33-3.93,1.89-3.6,4.21s2.46,4.25,4.65,5.34,5.19,1.81,7.42.86c2-.85,2.31-3.32,1.37-5.24" transform="translate(0 -3.8)"/><path class="cls-3" d="M226.68,121.26c-.15-1.52-1.83-2.45-3.27-2.82-1.69-.44-3.67,0-4.49,1.26a3.15,3.15,0,0,0,.48,3.3,7.46,7.46,0,0,0,4.62,3,7,7,0,0,0,3.9-.16c1.64-.67,1.77-2.49,1-4.09a6.52,6.52,0,0,0-.62-1c-.34-.43-1.25-1.29,0-.25a4.4,4.4,0,0,1,.38.37,5.34,5.34,0,0,1,.7.94c.91,1.48.95,3.28-.25,4.3a5.15,5.15,0,0,1-3.62.89,8.89,8.89,0,0,1-5-2,5.9,5.9,0,0,1-2.4-4.25,2.76,2.76,0,0,1,1.8-2.47,5.75,5.75,0,0,1,4.41.17,4.86,4.86,0,0,1,1.95,1.39,2.48,2.48,0,0,1,.47.93,2.66,2.66,0,0,1,.07.39s-.07.19-.08.08" transform="translate(0 -3.8)"/><path class="cls-3" d="M258.51,129.41a10.52,10.52,0,0,1-7.23-7.26,7,7,0,0,1,6.5-9,9.64,9.64,0,0,1,3.4.37,10.51,10.51,0,0,1,7.23,7.27,7.16,7.16,0,0,1-1,6.07,7.25,7.25,0,0,1-5.48,2.92,9.7,9.7,0,0,1-3.4-.38" transform="translate(0 -3.8)"/><path class="cls-3" d="M261.11,113.77a10.32,10.32,0,0,1,7.06,7.09,6.75,6.75,0,0,1-6.28,8.68,9.51,9.51,0,0,1-3.31-.37,10.32,10.32,0,0,1-7.06-7.08,6.74,6.74,0,0,1,6.28-8.68,9.47,9.47,0,0,1,3.31.36m.14-.48h0a9.89,9.89,0,0,0-3.48-.38,7.52,7.52,0,0,0-5.67,3,7.41,7.41,0,0,0-1.06,6.29,10.76,10.76,0,0,0,7.4,7.44,10,10,0,0,0,3.49.39,7.26,7.26,0,0,0,6.73-9.3,10.82,10.82,0,0,0-7.41-7.45" transform="translate(0 -3.8)"/><path class="cls-6" d="M259,128.82c.37.08,1.6.35,1.56,0,0-.19-.67-.34-1.59-.7a16.44,16.44,0,0,1-3.72-2,8.6,8.6,0,0,1-3.4-4.67,5.89,5.89,0,0,1,1.13-5.87,6.76,6.76,0,0,0-1.7,6.41,8.91,8.91,0,0,0,2.6,4.5,7.71,7.71,0,0,0,1.29.91,16.77,16.77,0,0,0,3.83,1.41" transform="translate(0 -3.8)"/><path class="cls-6" d="M267.82,119a10.06,10.06,0,0,0-5.56-4.78c1.92,1,4.84,3.2,4,5.4-.73,1.76-3.62,1.64-5.36,1-2.06-.81-4.89-2.78-3.16-5,1.11-1.45,6.14-.28,5.83,1.79-.18,1.21-2.1,1.09-3.08.57-.72-.37-1.42-1.06-1.34-1.83,0-.25-.08-.62-.36-.32a1.1,1.1,0,0,0-.23.89c.28,2.65,5.68,4.33,6.49,1.68.42-1.37-1.29-3.2-3-3.87a7.81,7.81,0,0,0-4.06-.63c-2.32.34-3.93,1.89-3.6,4.22s2.46,4.25,4.65,5.34,5.19,1.8,7.42.85c2-.85,2.3-3.32,1.37-5.24" transform="translate(0 -3.8)"/><path class="cls-3" d="M264.3,117.45c-.15-1.53-1.84-2.45-3.27-2.83-1.69-.44-3.67,0-4.49,1.27a3.14,3.14,0,0,0,.48,3.29,7.38,7.38,0,0,0,4.61,3,7.06,7.06,0,0,0,3.91-.15c1.64-.68,1.77-2.49,1-4.09a6.06,6.06,0,0,0-.62-1c-.34-.44-1.26-1.3,0-.26.14.12.25.25.38.37a5.81,5.81,0,0,1,.7.95c.9,1.48,1,3.27-.25,4.29a5.1,5.1,0,0,1-3.62.89,8.82,8.82,0,0,1-5-2,5.85,5.85,0,0,1-2.4-4.24,2.74,2.74,0,0,1,1.8-2.47,5.79,5.79,0,0,1,4.41.16,5,5,0,0,1,1.95,1.4,2.68,2.68,0,0,1,.47.92,2.79,2.79,0,0,1,.07.4s-.07.19-.08.08" transform="translate(0 -3.8)"/></g><g class="cls-33"><path class="cls-3" d="M225,182.45a10.55,10.55,0,0,1-7.24-7.27,7,7,0,0,1,6.51-9,9.62,9.62,0,0,1,3.39.38,10.55,10.55,0,0,1,7.24,7.26,7,7,0,0,1-6.51,9,9.61,9.61,0,0,1-3.39-.37" transform="translate(0 -3.8)"/><path class="cls-3" d="M227.58,166.81a10.34,10.34,0,0,1,7.07,7.08,6.75,6.75,0,0,1-6.29,8.68,9.44,9.44,0,0,1-3.3-.36,10.35,10.35,0,0,1-7.07-7.09,6.76,6.76,0,0,1,6.29-8.68,9.45,9.45,0,0,1,3.3.37m.14-.48h0a9.9,9.9,0,0,0-3.48-.39,7.25,7.25,0,0,0-6.73,9.31,10.81,10.81,0,0,0,7.41,7.44,9.89,9.89,0,0,0,3.48.38,7.54,7.54,0,0,0,5.67-3,7.45,7.45,0,0,0,1.06-6.29,10.75,10.75,0,0,0-7.41-7.44" transform="translate(0 -3.8)"/><path class="cls-6" d="M225.51,181.85c.37.09,1.61.36,1.57,0s-.67-.35-1.6-.7a17.11,17.11,0,0,1-3.72-2,8.59,8.59,0,0,1-3.39-4.66,5.89,5.89,0,0,1,1.12-5.87,6.76,6.76,0,0,0-1.7,6.41,8.92,8.92,0,0,0,2.6,4.49,6.44,6.44,0,0,0,1.3.91,16,16,0,0,0,3.82,1.41" transform="translate(0 -3.8)"/><path class="cls-6" d="M234.29,172a10,10,0,0,0-5.56-4.79c1.93,1,4.84,3.21,4,5.4-.73,1.77-3.62,1.65-5.36,1-2.06-.81-4.89-2.77-3.16-5,1.12-1.46,6.15-.29,5.84,1.79-.18,1.2-2.1,1.08-3.08.57-.73-.38-1.43-1.07-1.34-1.84,0-.25-.08-.62-.37-.32a1.16,1.16,0,0,0-.23.89c.28,2.66,5.69,4.34,6.5,1.69.41-1.38-1.29-3.2-3-3.88a7.91,7.91,0,0,0-4.06-.62c-2.31.33-3.93,1.89-3.59,4.21s2.45,4.25,4.64,5.34,5.19,1.81,7.43.86c2-.86,2.3-3.32,1.36-5.24" transform="translate(0 -3.8)"/><path class="cls-3" d="M230.77,170.48c-.15-1.52-1.83-2.45-3.26-2.82-1.69-.44-3.68,0-4.49,1.26a3.14,3.14,0,0,0,.48,3.3,7.38,7.38,0,0,0,4.61,3A7,7,0,0,0,232,175c1.63-.67,1.76-2.49,1-4.09a5.39,5.39,0,0,0-.61-1c-.34-.43-1.26-1.29,0-.25a4.31,4.31,0,0,1,.37.37,4.94,4.94,0,0,1,.71.94c.9,1.48.94,3.28-.26,4.3a5.12,5.12,0,0,1-3.61.89,8.89,8.89,0,0,1-5-2,6,6,0,0,1-2.4-4.25,2.78,2.78,0,0,1,1.8-2.47,5.77,5.77,0,0,1,4.42.17,4.82,4.82,0,0,1,1.94,1.39,2.48,2.48,0,0,1,.47.93,1.34,1.34,0,0,1,.07.39s-.07.19-.08.08" transform="translate(0 -3.8)"/><path class="cls-3" d="M263.61,179.63a10.55,10.55,0,0,1-7.24-7.26,7,7,0,0,1,6.51-9,9.61,9.61,0,0,1,3.39.37,10.55,10.55,0,0,1,7.24,7.27,7,7,0,0,1-6.51,9,9.39,9.39,0,0,1-3.39-.37" transform="translate(0 -3.8)"/><path class="cls-3" d="M266.2,164a10.33,10.33,0,0,1,7.07,7.09,6.75,6.75,0,0,1-6.29,8.68,9.45,9.45,0,0,1-3.3-.37,10.34,10.34,0,0,1-7.07-7.08,6.75,6.75,0,0,1,6.29-8.68,9.44,9.44,0,0,1,3.3.36m.14-.48h0a9.66,9.66,0,0,0-3.48-.38,7.24,7.24,0,0,0-6.73,9.3,10.75,10.75,0,0,0,7.41,7.44,9.66,9.66,0,0,0,3.48.38,7.24,7.24,0,0,0,6.73-9.3,10.81,10.81,0,0,0-7.41-7.44" transform="translate(0 -3.8)"/><path class="cls-6" d="M264.13,179c.37.09,1.61.36,1.57,0,0-.19-.67-.34-1.6-.7a16.3,16.3,0,0,1-3.72-2,8.52,8.52,0,0,1-3.39-4.66,5.89,5.89,0,0,1,1.12-5.87,6.76,6.76,0,0,0-1.7,6.41,8.91,8.91,0,0,0,2.6,4.5,7.37,7.37,0,0,0,1.3.91,16.21,16.21,0,0,0,3.82,1.4" transform="translate(0 -3.8)"/><path class="cls-6" d="M272.91,169.22a10,10,0,0,0-5.56-4.79c1.93,1,4.84,3.21,4,5.41-.73,1.76-3.62,1.64-5.36,1-2.06-.81-4.89-2.78-3.16-5,1.12-1.45,6.15-.29,5.84,1.79-.18,1.21-2.1,1.09-3.08.57-.73-.37-1.43-1.06-1.34-1.83,0-.25-.09-.62-.37-.32a1.14,1.14,0,0,0-.23.89c.28,2.65,5.69,4.33,6.49,1.68.42-1.38-1.28-3.2-3-3.87a7.81,7.81,0,0,0-4.06-.63c-2.31.34-3.93,1.89-3.6,4.22s2.46,4.25,4.65,5.34,5.19,1.8,7.43.85c2-.85,2.3-3.32,1.36-5.24" transform="translate(0 -3.8)"/><path class="cls-3" d="M269.39,167.67c-.15-1.53-1.83-2.46-3.26-2.83-1.69-.44-3.68,0-4.5,1.27a3.14,3.14,0,0,0,.49,3.29,7.43,7.43,0,0,0,4.61,3,7,7,0,0,0,3.9-.15c1.64-.68,1.77-2.5,1-4.09a5.13,5.13,0,0,0-.62-1c-.33-.44-1.25-1.3,0-.26l.37.37a5.87,5.87,0,0,1,.71,1c.9,1.47.94,3.27-.26,4.29a5.13,5.13,0,0,1-3.61.89,8.89,8.89,0,0,1-5-2,5.92,5.92,0,0,1-2.4-4.24,2.75,2.75,0,0,1,1.8-2.47,5.79,5.79,0,0,1,4.41.16,4.81,4.81,0,0,1,1.95,1.4,2.52,2.52,0,0,1,.47.92,1.4,1.4,0,0,1,.07.4s-.07.19-.08.08" transform="translate(0 -3.8)"/></g><g class="cls-33"><path class="cls-3" d="M229.63,232.79a10.55,10.55,0,0,1-7.24-7.26,7,7,0,0,1,6.51-9,9.61,9.61,0,0,1,3.39.37,10.51,10.51,0,0,1,7.24,7.27,7,7,0,0,1-6.51,9,9.39,9.39,0,0,1-3.39-.37" transform="translate(0 -3.8)"/><path class="cls-3" d="M232.22,217.15a10.33,10.33,0,0,1,7.07,7.09,6.74,6.74,0,0,1-6.28,8.67,9.24,9.24,0,0,1-3.31-.36,10.3,10.3,0,0,1-7.06-7.08,6.74,6.74,0,0,1,6.28-8.68,9.44,9.44,0,0,1,3.3.36m.14-.48h0a9.66,9.66,0,0,0-3.48-.38,7.24,7.24,0,0,0-6.73,9.3,10.77,10.77,0,0,0,7.41,7.44,9.66,9.66,0,0,0,3.48.38,7.24,7.24,0,0,0,6.73-9.3,10.79,10.79,0,0,0-7.41-7.44" transform="translate(0 -3.8)"/><path class="cls-6" d="M230.16,232.19c.36.09,1.6.36,1.56,0,0-.19-.67-.34-1.6-.7a16.3,16.3,0,0,1-3.72-2,8.57,8.57,0,0,1-3.39-4.66,5.89,5.89,0,0,1,1.12-5.87,6.76,6.76,0,0,0-1.7,6.41,8.91,8.91,0,0,0,2.6,4.5,7.37,7.37,0,0,0,1.3.91,16.28,16.28,0,0,0,3.83,1.4" transform="translate(0 -3.8)"/><path class="cls-6" d="M238.94,222.38a10.09,10.09,0,0,0-5.57-4.79c1.93,1,4.84,3.21,4,5.41-.73,1.76-3.62,1.64-5.36,1-2.06-.81-4.88-2.78-3.16-5,1.12-1.45,6.15-.29,5.84,1.79-.18,1.21-2.1,1.08-3.08.57-.72-.37-1.43-1.06-1.34-1.83,0-.25-.08-.62-.37-.32a1.14,1.14,0,0,0-.23.89c.28,2.65,5.69,4.33,6.5,1.68.42-1.38-1.29-3.2-3-3.87a7.8,7.8,0,0,0-4.06-.63c-2.31.34-3.93,1.89-3.59,4.22s2.45,4.25,4.65,5.34,5.18,1.8,7.42.85c2-.85,2.3-3.32,1.37-5.24" transform="translate(0 -3.8)"/><path class="cls-3" d="M235.41,220.83c-.15-1.53-1.83-2.46-3.26-2.83-1.69-.44-3.68,0-4.49,1.27a3.14,3.14,0,0,0,.48,3.29,7.43,7.43,0,0,0,4.61,3,7.07,7.07,0,0,0,3.91-.15c1.63-.68,1.76-2.5,1-4.09a5.08,5.08,0,0,0-.61-1c-.34-.44-1.26-1.3,0-.26.13.12.25.25.37.37a5.34,5.34,0,0,1,.71,1c.9,1.47.94,3.27-.26,4.29a5.12,5.12,0,0,1-3.61.89,8.89,8.89,0,0,1-5-2,5.92,5.92,0,0,1-2.4-4.24,2.75,2.75,0,0,1,1.8-2.47A5.82,5.82,0,0,1,233,218a4.85,4.85,0,0,1,1.94,1.4,2.52,2.52,0,0,1,.47.92,1.4,1.4,0,0,1,.07.4c0,.05-.06.19-.08.08" transform="translate(0 -3.8)"/><path class="cls-3" d="M267.25,229a10.53,10.53,0,0,1-7.24-7.26,7,7,0,0,1,6.51-9,9.62,9.62,0,0,1,3.39.38,10.55,10.55,0,0,1,7.24,7.26,7,7,0,0,1-6.51,9,9.39,9.39,0,0,1-3.39-.38" transform="translate(0 -3.8)"/><path class="cls-3" d="M269.84,213.34a10.34,10.34,0,0,1,7.07,7.08,6.75,6.75,0,0,1-6.29,8.68,9.22,9.22,0,0,1-3.3-.37,10.34,10.34,0,0,1-7.07-7.08,6.76,6.76,0,0,1,6.29-8.68,9.22,9.22,0,0,1,3.3.37m.14-.48h0a9.9,9.9,0,0,0-3.48-.39,7.25,7.25,0,0,0-6.73,9.3,10.77,10.77,0,0,0,7.41,7.44,9.9,9.9,0,0,0,3.48.39,7.52,7.52,0,0,0,5.67-3,7.42,7.42,0,0,0,1.06-6.28,10.75,10.75,0,0,0-7.41-7.44" transform="translate(0 -3.8)"/><path class="cls-6" d="M267.77,228.38c.37.09,1.61.36,1.57,0,0-.2-.67-.35-1.6-.7a17.11,17.11,0,0,1-3.72-2,8.59,8.59,0,0,1-3.39-4.66,5.9,5.9,0,0,1,1.12-5.88,6.78,6.78,0,0,0-1.7,6.42,8.92,8.92,0,0,0,2.6,4.49,6.88,6.88,0,0,0,1.3.91,16,16,0,0,0,3.82,1.41" transform="translate(0 -3.8)"/><path class="cls-6" d="M276.55,218.56a10,10,0,0,0-5.56-4.78c1.93,1,4.84,3.21,4,5.4-.73,1.77-3.62,1.65-5.36,1-2.06-.81-4.89-2.77-3.16-5,1.12-1.46,6.15-.29,5.84,1.79-.18,1.2-2.1,1.08-3.08.57-.73-.38-1.43-1.07-1.34-1.84,0-.25-.08-.62-.37-.32a1.15,1.15,0,0,0-.23.89c.28,2.66,5.69,4.33,6.5,1.68.41-1.37-1.29-3.2-3-3.87a7.81,7.81,0,0,0-4.06-.62c-2.31.33-3.93,1.89-3.59,4.21s2.45,4.25,4.64,5.34,5.19,1.81,7.43.86c2-.86,2.3-3.32,1.36-5.25" transform="translate(0 -3.8)"/><path class="cls-3" d="M273,217c-.15-1.52-1.83-2.45-3.26-2.82-1.69-.44-3.68-.05-4.49,1.26a3.14,3.14,0,0,0,.48,3.3,7.38,7.38,0,0,0,4.61,3,7,7,0,0,0,3.91-.15c1.63-.67,1.76-2.49,1-4.09a5.39,5.39,0,0,0-.61-1c-.34-.43-1.26-1.29,0-.25.13.11.25.24.37.36a5.34,5.34,0,0,1,.71,1c.9,1.48.94,3.28-.26,4.3a5.07,5.07,0,0,1-3.61.88,8.81,8.81,0,0,1-5-2,6,6,0,0,1-2.4-4.25,2.75,2.75,0,0,1,1.8-2.47,5.77,5.77,0,0,1,4.42.17,4.82,4.82,0,0,1,1.94,1.39,2.48,2.48,0,0,1,.47.93,1.34,1.34,0,0,1,.07.39s-.07.19-.08.08" transform="translate(0 -3.8)"/></g></g></g></svg>