<svg xmlns="http://www.w3.org/2000/svg" xmlns:xlink="http://www.w3.org/1999/xlink" viewBox="0 0 22.49 32.65"><defs><style>.cls-1,.cls-19{fill:none;}.cls-2{clip-path:url(#clip-path);}.cls-3{fill:#3a1612;}.cls-4{fill:#230d11;}.cls-5{fill:#5f1f1a;}.cls-6{fill:#803725;}.cls-7{fill:#dcc2b3;}.cls-8{fill:#4d1f1e;}.cls-9{fill:#9d462d;}.cls-10{fill:#863526;}.cls-11{fill:#cb2883;}.cls-12{fill:#5f2724;}.cls-13{fill:#411615;}.cls-14{fill:#a35147;}.cls-15{fill:#debba6;}.cls-16{fill:#100a12;}.cls-17{fill:#8e6c35;}.cls-18{fill:#a4372d;}.cls-19{stroke:#a4372d;stroke-linecap:round;stroke-linejoin:round;stroke-width:0;}.cls-20{fill:#8b2b26;}.cls-21{fill:#c99e8d;}.cls-22{fill:#e6c7b6;}.cls-23{fill:#957f80;}.cls-24{fill:#be9f9b;}.cls-25{fill:#221e1f;}.cls-26{fill:#fff;}.cls-27{fill:#823d3d;}.cls-28{fill:#3c322c;}.cls-29{fill:#322323;}.cls-30{fill:#d7c3d6;}.cls-31{fill:#bea9c1;}.cls-32{fill:#9c7f3e;}.cls-33{opacity:0.66;}</style><clipPath id="clip-path" transform="translate(0 -0.3)"><polygon class="cls-1" points="6.41 0.25 4.96 1.68 0.17 4.49 0 6.3 0 33.11 2.54 33.01 22.49 20.23 22.21 0 6.41 0.25"/></clipPath></defs><title>timmy-wonka1</title><g id="Layer_2" data-name="Layer 2"><g id="Layer_1-2" data-name="Layer 1"><g class="cls-2"><path class="cls-1" d="M12.5,9.52h0Z" transform="translate(0 -0.3)"/><path class="cls-1" d="M10.63,9.9l.07-.06h0Z" transform="translate(0 -0.3)"/><path class="cls-1" d="M1.05,15.82c-.27.07-.64.16-1,.24v2l.12-.23C.44,17.22.76,16.51,1.05,15.82Z" transform="translate(0 -0.3)"/><path class="cls-1" d="M10.52,10.05l0,0,0,0Z" transform="translate(0 -0.3)"/><polygon class="cls-1" points="9.46 11.31 9.46 11.31 9.46 11.31 9.46 11.31 9.46 11.31"/><path class="cls-3" d="M15.26,16.54c.08-.18.46-.08.64-.35s.18.24,0,.37a.79.79,0,0,1-.4.12s-.28.53-.39.56.39.18.31.72a1.64,1.64,0,0,1-.07.36.36.36,0,0,0,.11.14c.22.14.46.07.54.15s-.41.32-.74.51l.2,2.09,1.08-.52L15.34,7.82h.1L14.19,7.6,15,16.77A.91.91,0,0,0,15.26,16.54Z" transform="translate(0 -0.3)"/><polygon class="cls-4" points="21.28 6.97 21.28 6.97 21.28 6.97 21.28 6.97"/><polygon class="cls-4" points="15.44 7.51 21.28 6.97 20.5 6.71 14.19 7.3 15.44 7.51 15.44 7.51"/><polygon class="cls-4" points="16.54 20.39 15.46 20.91 21.77 20.33 22.49 19.93 22.49 19.93 22.49 19.93 16.54 20.48 16.54 20.39"/><path class="cls-5" d="M15.34,7.82l1.2,12.87v.09l5.95-.55h0l-.12-1.29-.29.18-2.38.22L19.39,16l2.38-.22.31.13L22,15l-.28.18-2.39.22L19,12l2.38-.23.31.13-.07-.77-.28.18L19,11.53l-.31-3.39L21,7.92l.32.13-.08-.78h0l-5.84.54Zm3.85,8.34h0l.28,3h0l-.34.22-2.39.22-.31-3.38L18.81,16l.38.16Zm-.37-4h0l.28,3h0l-.34.22-2.39.22-.31-3.39,2.38-.22.38.15Zm-.74-4,.38.16h0l.28,3h0l-.34.22L16,11.8,15.7,8.42Z" transform="translate(0 -0.3)"/><polygon class="cls-3" points="16.01 11.5 16.53 11.22 16.25 8.25 16.3 8.25 15.7 8.12 16.01 11.5"/><polygon class="cls-4" points="18.46 8.05 18.46 8.05 18.08 7.89 15.7 8.12 16.3 8.25 18.46 8.05"/><polygon class="cls-4" points="16.54 11.27 16.53 11.22 16.01 11.5 18.4 11.28 18.74 11.06 18.74 11.06 18.74 11.06 16.54 11.27"/><polygon class="cls-6" points="16.25 8.25 16.53 11.22 16.54 11.27 18.74 11.06 18.74 11.06 18.46 8.05 18.46 8.05 16.3 8.25 16.25 8.25"/><polygon class="cls-3" points="19.49 10.94 19.21 7.98 19.26 7.97 18.66 7.84 18.97 11.23 19.49 10.94 19.49 10.94"/><polygon class="cls-4" points="19.5 10.99 19.49 10.94 19.49 10.94 18.97 11.23 21.36 11.01 21.64 10.83 21.7 10.79 21.7 10.79 21.7 10.79 19.5 10.99"/><polygon class="cls-4" points="21.42 7.77 21.42 7.77 21.42 7.77 21.42 7.77"/><polygon class="cls-4" points="21.04 7.62 18.66 7.84 19.26 7.97 21.42 7.77 21.36 7.75 21.04 7.62"/><polygon class="cls-6" points="19.26 7.97 19.21 7.98 19.49 10.94 19.5 10.99 21.7 10.79 21.7 10.79 21.42 7.77 21.42 7.77 21.42 7.77 21.42 7.77 19.26 7.97"/><polygon class="cls-3" points="16.89 15.07 16.61 12.11 16.66 12.1 16.06 11.97 16.37 15.36 16.89 15.07 16.89 15.07"/><polygon class="cls-4" points="16.66 12.1 18.82 11.9 18.44 11.75 16.06 11.97 16.66 12.1"/><polygon class="cls-4" points="16.89 15.12 16.89 15.07 16.89 15.07 16.37 15.36 18.76 15.14 19.1 14.92 19.1 14.92 19.1 14.92 16.89 15.12"/><polygon class="cls-4" points="18.82 11.9 18.82 11.9 18.82 11.9 18.82 11.9"/><polygon class="cls-6" points="18.82 11.9 16.66 12.1 16.61 12.11 16.89 15.07 16.89 15.12 19.1 14.92 19.1 14.92 18.82 11.9 18.82 11.9 18.82 11.9 18.82 11.9"/><polygon class="cls-3" points="19.85 14.8 19.57 11.83 19.62 11.83 19.02 11.7 19.33 15.09 19.85 14.8 19.85 14.8"/><polygon class="cls-4" points="19.85 14.85 19.85 14.8 19.85 14.8 19.33 15.09 21.72 14.86 22 14.68 22.06 14.64 22.06 14.64 22.06 14.64 19.85 14.85"/><polygon class="cls-4" points="19.02 11.7 19.62 11.83 21.78 11.63 21.78 11.63 21.78 11.63 21.71 11.6 21.4 11.47 19.02 11.7"/><polygon class="cls-6" points="19.62 11.83 19.57 11.83 19.85 14.8 19.85 14.85 22.06 14.64 22.06 14.64 21.78 11.63 21.78 11.63 19.62 11.83"/><polygon class="cls-3" points="17.26 19.03 16.98 16.06 17.03 16.06 17.03 16.06 16.43 15.93 16.74 19.32 17.26 19.03 17.26 19.03"/><polygon class="cls-4" points="17.03 16.06 19.19 15.86 18.81 15.71 16.43 15.93 17.03 16.06 17.03 16.06"/><polygon class="cls-4" points="19.19 15.86 19.19 15.86 19.19 15.86 19.19 15.86"/><polygon class="cls-4" points="17.26 19.08 17.26 19.03 17.26 19.03 16.74 19.32 19.13 19.09 19.47 18.87 19.47 18.87 19.47 18.87 17.26 19.08"/><polygon class="cls-6" points="19.19 15.86 17.03 16.06 16.98 16.06 17.26 19.03 17.26 19.08 19.47 18.87 19.47 18.87 19.19 15.86 19.19 15.86 19.19 15.86 19.19 15.86"/><polygon class="cls-3" points="20.22 18.75 19.94 15.79 19.99 15.78 19.99 15.78 19.39 15.65 19.7 19.04 20.22 18.75 20.22 18.75"/><polygon class="cls-4" points="20.22 18.8 20.22 18.75 20.22 18.75 19.7 19.04 22.09 18.82 22.37 18.64 22.43 18.6 22.43 18.6 22.43 18.6 20.22 18.8"/><polygon class="cls-4" points="22.15 15.58 22.15 15.58 22.15 15.58 22.15 15.58"/><polygon class="cls-4" points="19.39 15.65 19.99 15.78 19.99 15.78 22.15 15.58 22.08 15.55 21.77 15.43 19.39 15.65"/><polygon class="cls-6" points="19.99 15.78 19.94 15.79 20.22 18.75 20.22 18.8 22.43 18.6 22.43 18.6 22.15 15.58 22.15 15.58 22.15 15.58 22.15 15.58 19.99 15.78"/><path class="cls-7" d="M15.06,18c.21,0,.21.14.29.29a1.64,1.64,0,0,0,.07-.36c.08-.54-.42-.69-.31-.72s.39-.56.39-.56a.79.79,0,0,0,.4-.12c.18-.13.18-.64,0-.37s-.56.17-.64.35a.91.91,0,0,1-.22.23,4.6,4.6,0,0,0-.48.42c-.06.09.1.46.26.78A.22.22,0,0,0,15.06,18Z" transform="translate(0 -0.3)"/><path class="cls-8" d="M3,26.88l-.16.26,0,0c-.45.71-1.27,2-2.22,3.46A4.67,4.67,0,0,0,2.51,33L3.59,27.6h0A2.31,2.31,0,0,1,3,26.88Z" transform="translate(0 -0.3)"/><path class="cls-9" d="M2.81,27.17l-.1.17L1.48,26.1,0,26v5.56l.59-.93C1.54,29.16,2.36,27.88,2.81,27.17Z" transform="translate(0 -0.3)"/><path class="cls-9" d="M3,26.88l-.16.26L3,26.88Z" transform="translate(0 -0.3)"/><path class="cls-10" d="M2.71,27.34l.1-.17,0,0L3,26.88a3.48,3.48,0,0,1-.41-1.21h0A14,14,0,0,1,0,25.4V26l1.48.1Z" transform="translate(0 -0.3)"/><path class="cls-11" d="M15.26,19.12c.33-.19.79-.46.74-.51s-.32,0-.54-.15a.36.36,0,0,1-.11-.14c-.08-.15-.08-.33-.29-.29a.22.22,0,0,1-.24-.06.5.5,0,0,0-.29-.15c-.35-.07-.34.09-.34.09s.07.42.1.77l.74.56Z" transform="translate(0 -0.3)"/><path class="cls-8" d="M1.62,14.38l0-.09.06-.14c.46-1.23.76-2.14.76-2.14h0A18.65,18.65,0,0,1,0,13.52v2.54c.41-.08.78-.17,1.05-.24C1.25,15.32,1.45,14.83,1.62,14.38Z" transform="translate(0 -0.3)"/><path class="cls-12" d="M5.59,20h0l0-.48-1.1,1.58,0,.05-1.85,4.5h0A3.48,3.48,0,0,0,3,26.88H3a2.31,2.31,0,0,0,.59.72h0a46.56,46.56,0,0,1,2-7.28,2.89,2.89,0,0,1,0-.29Z" transform="translate(0 -0.3)"/><polygon class="cls-12" points="2.55 19.38 2.55 19.39 2.56 19.38 2.55 19.38"/><path class="cls-12" d="M6.31,18.29h0l.05-.13h0Z" transform="translate(0 -0.3)"/><path class="cls-12" d="M2.59,25.67h0L3,21.32l0-.1a2.66,2.66,0,0,1-.44.33A2.31,2.31,0,0,0,2.09,21,17.91,17.91,0,0,1,0,25.27v.13A14,14,0,0,0,2.59,25.67Zm-.9-3.31a.48.48,0,0,1,.64-.22.48.48,0,0,1,.26.63A.47.47,0,0,1,2,23,.48.48,0,0,1,1.69,22.36Zm.07,2.89a.47.47,0,1,1,.39-.86.47.47,0,1,1-.39.86Z" transform="translate(0 -0.3)"/><path class="cls-12" d="M1.65,14.29l0,.09Z" transform="translate(0 -0.3)"/><path class="cls-12" d="M2.47,12l1.08,1h0L2.47,12h0s-.3.91-.76,2.14C2.17,12.92,2.47,12,2.47,12Z" transform="translate(0 -0.3)"/><path class="cls-8" d="M2.09,21l-.2-.14h0a.57.57,0,0,0-.13-.08h0a1.54,1.54,0,0,0-.44-.16h0a.76.76,0,0,0-.21,0l.37-.21h0l.22-.14a.48.48,0,0,1-.08-.51.49.49,0,0,1,.65-.22.46.46,0,0,1,.21.18l0,0h0l-1-3.46.73-.37a1.24,1.24,0,0,0,.2-.47L2,14.62,3.55,13,2.47,12s-.3.91-.76,2.14l-.06.14,0,.09c-.17.45-.37.94-.57,1.44-.29.69-.61,1.4-.93,2L0,18.09v7.18A17.91,17.91,0,0,0,2.09,21Z" transform="translate(0 -0.3)"/><path class="cls-13" d="M2.51,19.72a.46.46,0,0,0-.21-.18.49.49,0,0,0-.65.22.48.48,0,0,0,.08.51c.22-.14.47-.31.73-.51Z" transform="translate(0 -0.3)"/><path class="cls-13" d="M2,23a.47.47,0,0,0,.64-.22.48.48,0,0,0-.26-.63A.47.47,0,1,0,2,23Z" transform="translate(0 -0.3)"/><path class="cls-14" d="M3,21.22l0,.1v-.14Z" transform="translate(0 -0.3)"/><path class="cls-14" d="M3,19.35c.1-.09.21-.19.31-.3l.16-1.63-.16,0h0a4.28,4.28,0,0,1-.9,0H1.94l0,0h0s0,0,0-.05l0,0a.19.19,0,0,0,0-.07v0s0-.05,0-.07v0a.19.19,0,0,1,0-.08h0v-.2a.11.11,0,0,1,0,0v0a.64.64,0,0,1,0-.07h0a.64.64,0,0,0,0-.07v0s0,0,0-.05l0,0,0-.05v0l0-.06H2l0-.07,0,0,0,0,0,0,0,0L2.18,16h0l.1-.15-.73.37,1,3.46h0A4.12,4.12,0,0,0,3,19.35Z" transform="translate(0 -0.3)"/><path class="cls-14" d="M6.36,18.16,6.29,18a2.28,2.28,0,0,1,0,.26Z" transform="translate(0 -0.3)"/><path class="cls-14" d="M5.53,18.79v-.26L5,20H5l-.49,1.17,1.1-1.58c0-.24,0-.49,0-.74h0Z" transform="translate(0 -0.3)"/><path class="cls-14" d="M2,14.62l.47.76a.76.76,0,0,0,0-.15,3.55,3.55,0,0,1,.27-1.1h0c.07-.17.15-.32.2-.43H3a1.93,1.93,0,0,1,.11-.18l.31,0a.84.84,0,0,1,.11-.48A.3.3,0,0,1,3.57,13l0,0h0Z" transform="translate(0 -0.3)"/><polygon class="cls-15" points="4.44 20.87 2.59 25.37 2.59 25.37 2.59 25.37 2.59 25.37 4.44 20.87"/><path class="cls-15" d="M5.63,16.2l-.06.07-.06.06h0a1.54,1.54,0,0,1,0,.17v0l0,.08v0l0,.08v0h0c-.13.37-.3.83-.5,1.31h0l-.11.26v0l-.11.26h0c-.17.37-.35.74-.55,1.09h0c-.1.19-.21.36-.32.53l.28.72L5,20l.58-1.42v-.05c0-.44,0-.86,0-1.23a.21.21,0,0,1-.23.08.23.23,0,0,1-.07-.3c.06-.13.18-.19.27-.15l0,0V16.8h0v-.47h0l0-.14h0Zm-1,3.55c0,.13-.17.2-.27.15s-.12-.17-.06-.3.18-.19.27-.15A.22.22,0,0,1,4.68,19.75Zm.49-1.32c0,.13-.18.2-.27.15s-.12-.17-.06-.3a.22.22,0,0,1,.27-.15A.22.22,0,0,1,5.17,18.43Z" transform="translate(0 -0.3)"/><path class="cls-15" d="M4.53,17.07h0a3.28,3.28,0,0,1-.82.3h0l-.2,0H3.42l-.16,1.63h0v-.11l0,.07L3.35,19l.07-.08,0,0,.07-.08,0,0,.07-.09,0,0,.06-.08a2.14,2.14,0,0,0,.13-.19c.2-.32.38-.64.54-.95l.13-.27Z" transform="translate(0 -0.3)"/><path class="cls-16" d="M5.55,16.88c-.09,0-.21,0-.27.15a.23.23,0,0,0,.07.3.21.21,0,0,0,.23-.08c0-.12,0-.23,0-.34Z" transform="translate(0 -0.3)"/><path class="cls-16" d="M4.44,21.17l0-.05L5,20H5l-.89,1-.28-.72h0a5.29,5.29,0,0,1-.73.91v.14l-.44,4.35h0Z" transform="translate(0 -0.3)"/><path class="cls-16" d="M3.26,19.05l0,0,0-.07Z" transform="translate(0 -0.3)"/><path class="cls-12" d="M7.12,15h0l.14,0h0l.13,0h0A2.11,2.11,0,0,1,8,15c-.1-.43-.16-.71-.16-.71l-1.18,0c.15.24.31.49.43.71Z" transform="translate(0 -0.3)"/><path class="cls-12" d="M8.19,17.9v.28h0a.15.15,0,0,1,0,.07v.17a.24.24,0,0,1,0,.08h0l0,.07v0a.17.17,0,0,1,0,.05v0l0,.05,0,0,0,.07h0l0,.06,0,0,0,.05,0,0-.06,0,0,0,0,0h0l0,0H7.46l0,0h0l0,0h0l0,0h0l-.07,0-.09-.06,0,0a3.4,3.4,0,0,1-.38-.32h0l-.11-.12,0,0a1.47,1.47,0,0,1-.1-.13h0l-.18-.28V18l.07.13h0c.7,1.34,1.88,3.38,2.75,3.71s6-2.58,6-2.58L15,19.24l-.74-.56h0a30.32,30.32,0,0,1-4.47,1.67c-.34,0-.89-1.77-1.32-3.43l-.08.14A1.77,1.77,0,0,0,8.19,17.9Zm5.91,1.22a.22.22,0,0,1,.29-.1.21.21,0,1,1-.17.39A.22.22,0,0,1,14.1,19.12Z" transform="translate(0 -0.3)"/><path class="cls-14" d="M6.43,14.36a4,4,0,0,1,0,.84h0l.08,0h0A3.19,3.19,0,0,1,7.1,15c-.12-.22-.28-.47-.43-.71l0,0Z" transform="translate(0 -0.3)"/><path class="cls-3" d="M3.49,13.06a.84.84,0,0,0-.11.48l.2,0h0l.21.05h0l.17,0H4l.17.07a6.81,6.81,0,0,1-.41-.91,1,1,0,0,0-.22.13A.3.3,0,0,0,3.49,13.06Z" transform="translate(0 -0.3)"/><path class="cls-3" d="M5.81,15.08a2.32,2.32,0,0,1,.64.12,4,4,0,0,0,0-.84,3.85,3.85,0,0,1-.47.19Z" transform="translate(0 -0.3)"/><path class="cls-9" d="M1.76,20.82Z" transform="translate(0 -0.3)"/><path class="cls-9" d="M1.41,20.46l.07,0-.37.21a.76.76,0,0,1,.21,0v0A.35.35,0,0,1,1.41,20.46Z" transform="translate(0 -0.3)"/><path class="cls-9" d="M3.78,20.26h0c.11-.17.22-.34.32-.53C4,19.91,3.89,20.09,3.78,20.26Z" transform="translate(0 -0.3)"/><path class="cls-9" d="M3.63,18.62l0,0Z" transform="translate(0 -0.3)"/><path class="cls-9" d="M4.53,17.07v0Z" transform="translate(0 -0.3)"/><path class="cls-9" d="M4.76,18.35l-.11.26Z" transform="translate(0 -0.3)"/><path class="cls-9" d="M3.53,18.75l0,0Z" transform="translate(0 -0.3)"/><path class="cls-9" d="M5.45,16.52l0,.08Z" transform="translate(0 -0.3)"/><path class="cls-9" d="M3.42,18.87l0,0Z" transform="translate(0 -0.3)"/><path class="cls-9" d="M5.46,16.5a1.54,1.54,0,0,0,0-.17h0A1.54,1.54,0,0,1,5.46,16.5Z" transform="translate(0 -0.3)"/><path class="cls-9" d="M4.88,18.07l-.11.26Z" transform="translate(0 -0.3)"/><path class="cls-9" d="M5.41,16.64l0,.08Z" transform="translate(0 -0.3)"/><path class="cls-9" d="M3.77,20.27a.33.33,0,0,1-.16-.35A.32.32,0,0,1,4,19.66l.11.05c.2-.35.38-.72.55-1.09H4.59a.33.33,0,0,1-.25-.38A.32.32,0,0,1,4.73,18a.28.28,0,0,1,.15.08c.2-.48.37-.94.5-1.31a.31.31,0,0,1,0-.23v0a4.44,4.44,0,0,1-.58.44.4.4,0,0,1,0,.19.33.33,0,0,1-.39.25h0c-.16.31-.34.63-.54.95a2.14,2.14,0,0,1-.13.19l0,0a.34.34,0,0,1,.08.29.32.32,0,0,1-.39.25l-.1,0h0L3.3,19l0,0h0c-.1.11-.21.21-.31.3H3a.31.31,0,0,1,0,.25.33.33,0,0,1-.38.25.35.35,0,0,1-.16-.09h0c-.26.2-.51.37-.73.51l-.22.14,0,0a.29.29,0,0,1,.16,0,.32.32,0,0,1,.25.38.35.35,0,0,1-.06.14l.2.14a2.31,2.31,0,0,1,.47.51A2.66,2.66,0,0,0,3,21.22l0,0A5.29,5.29,0,0,0,3.77,20.27Zm-1,.71a.32.32,0,0,1-.25-.39.33.33,0,0,1,.38-.25.32.32,0,0,1,.25.38A.33.33,0,0,1,2.76,21Z" transform="translate(0 -0.3)"/><path class="cls-17" d="M5.38,16.72l0-.08v0l0-.08v0a1.54,1.54,0,0,0,0-.17h0l-.16.17v0a.31.31,0,0,0,0,.23h0Z" transform="translate(0 -0.3)"/><path class="cls-17" d="M4.53,17.07h0v0l-.13.27h0a.33.33,0,0,0,.39-.25.4.4,0,0,0,0-.19Z" transform="translate(0 -0.3)"/><path class="cls-17" d="M1.7,20.38a.29.29,0,0,0-.16,0l0,0h0l-.07,0a.35.35,0,0,0-.09.17v0h0a1.54,1.54,0,0,1,.44.16h0a.57.57,0,0,1,.13.08h0A.35.35,0,0,0,2,20.76.32.32,0,0,0,1.7,20.38Z" transform="translate(0 -0.3)"/><path class="cls-17" d="M4.65,18.61l.11-.26v0l.11-.26h0A.28.28,0,0,0,4.73,18a.32.32,0,0,0-.39.25.33.33,0,0,0,.25.38h.06Z" transform="translate(0 -0.3)"/><path class="cls-17" d="M3.63,18.62l-.07.09,0,0-.07.08,0,0L3.35,19h0l.1,0a.32.32,0,0,0,.39-.25.34.34,0,0,0-.08-.29l0,0-.06.08Z" transform="translate(0 -0.3)"/><path class="cls-17" d="M3.14,20.72a.32.32,0,0,0-.25-.38.33.33,0,0,0-.38.25.32.32,0,0,0,.25.39A.33.33,0,0,0,3.14,20.72Z" transform="translate(0 -0.3)"/><path class="cls-17" d="M4.1,19.72h0L4,19.66a.32.32,0,0,0-.38.26.33.33,0,0,0,.16.35h0C3.89,20.09,4,19.91,4.1,19.72Z" transform="translate(0 -0.3)"/><path class="cls-17" d="M2.46,19.76a.35.35,0,0,0,.16.09A.33.33,0,0,0,3,19.6a.31.31,0,0,0,0-.25H3a4.12,4.12,0,0,1-.4.33h0l0,0,0,0Z" transform="translate(0 -0.3)"/><path class="cls-9" d="M6.86,20.29h0Z" transform="translate(0 -0.3)"/><path class="cls-9" d="M6.45,19.16v0Z" transform="translate(0 -0.3)"/><path class="cls-9" d="M7.78,22v0h0l.2.06s-.1-.12-.26-.34l0,.06A.41.41,0,0,1,7.78,22Z" transform="translate(0 -0.3)"/><path class="cls-9" d="M6.49,19.32l0,.05Z" transform="translate(0 -0.3)"/><path class="cls-9" d="M6.53,19.47l0,.05Z" transform="translate(0 -0.3)"/><path class="cls-9" d="M7,20.58v0Z" transform="translate(0 -0.3)"/><path class="cls-9" d="M5.59,20a2.89,2.89,0,0,0,0,.29c0,.11,0,.22,0,.33C5.64,20.45,5.61,20.25,5.59,20Z" transform="translate(0 -0.3)"/><path class="cls-9" d="M5.53,18.79v0Z" transform="translate(0 -0.3)"/><path class="cls-9" d="M6.29,18v-.1c0-.06-.07-.12-.1-.19A.33.33,0,0,1,6,17.38a.14.14,0,0,1,0-.06,3.84,3.84,0,0,1-.15-.89h0v-.11a.9.9,0,0,1-.2-.14l0,.14a.32.32,0,0,1,.08.28.32.32,0,0,1-.12.2v.11c0,.11,0,.22,0,.34,0,.37,0,.79,0,1.23a2.62,2.62,0,0,1,0-.28.32.32,0,1,1,0,.62l0,0c0,.25,0,.5,0,.74l0,.48h.13a.34.34,0,0,1,.25.39.32.32,0,0,1-.29.25,3.87,3.87,0,0,0,.59,1.66A2.49,2.49,0,0,1,7.15,22a.38.38,0,0,1,0-.15.34.34,0,0,1,.39-.25.37.37,0,0,1,.14.07l0,0a10.25,10.25,0,0,1-.62-1h0a.28.28,0,0,1-.18,0,.33.33,0,0,1-.25-.38.32.32,0,0,1,.14-.21h0c-.08-.17-.15-.35-.22-.53v0H6.48a.32.32,0,0,1-.25-.38A.3.3,0,0,1,6.42,19v0a1.7,1.7,0,0,1,0-.22c0-.19-.06-.37-.08-.55h0A2.28,2.28,0,0,0,6.29,18Zm.16,3a.33.33,0,0,1-.13.64.33.33,0,0,1,.13-.64Z" transform="translate(0 -0.3)"/><path class="cls-9" d="M5.62,16.64v0Z" transform="translate(0 -0.3)"/><path class="cls-9" d="M5.63,16.52v0Z" transform="translate(0 -0.3)"/><path class="cls-9" d="M5.61,16.79v0Z" transform="translate(0 -0.3)"/><path class="cls-9" d="M5.65,16.38v0Z" transform="translate(0 -0.3)"/><path class="cls-17" d="M5.65,16.34v.45h0a.32.32,0,0,0,.12-.2.32.32,0,0,0-.08-.28h0Z" transform="translate(0 -0.3)"/><path class="cls-17" d="M6,17.32a.14.14,0,0,0,0,.06.33.33,0,0,0,.18.36A2.61,2.61,0,0,1,6,17.32Z" transform="translate(0 -0.3)"/><path class="cls-17" d="M7.53,21.59a.34.34,0,0,0-.39.25.38.38,0,0,0,0,.15h0a1.62,1.62,0,0,1,.62,0h0v0a.41.41,0,0,0,0-.19l0-.06v0l0,0A.37.37,0,0,0,7.53,21.59Z" transform="translate(0 -0.3)"/><path class="cls-17" d="M5.53,18.51v.28h0l0,0A.32.32,0,0,0,6,18.56a.31.31,0,0,0-.42-.36,2.62,2.62,0,0,0,0,.28Z" transform="translate(0 -0.3)"/><path class="cls-17" d="M6.23,19.25a.32.32,0,0,0,.25.38h.11v0l0-.1,0-.05s0-.07,0-.1l0-.05,0-.1v-.06a.36.36,0,0,1,0-.1v0A.3.3,0,0,0,6.23,19.25Z" transform="translate(0 -0.3)"/><path class="cls-17" d="M6.07,21.33a.33.33,0,0,0,.25.39.33.33,0,0,0,.13-.64A.33.33,0,0,0,6.07,21.33Z" transform="translate(0 -0.3)"/><path class="cls-17" d="M6,20.41A.34.34,0,0,0,5.72,20H5.59c0,.22,0,.42.08.62h0A.32.32,0,0,0,6,20.41Z" transform="translate(0 -0.3)"/><path class="cls-17" d="M6.65,20.36a.33.33,0,0,0,.25.38.28.28,0,0,0,.18,0h0L7,20.61v0l-.15-.28h0l-.06-.14h0A.32.32,0,0,0,6.65,20.36Z" transform="translate(0 -0.3)"/><polygon class="cls-18" points="9.46 11.31 9.46 11.31 9.46 11.31 9.46 11.31"/><line class="cls-19" x1="12.5" y1="9.22" x2="12.51" y2="9.23"/><path class="cls-18" d="M.43,6a.59.59,0,0,0,.4.29A.59.59,0,0,1,.43,6Z" transform="translate(0 -0.3)"/><path class="cls-18" d="M11.55,11.69l0,0Z" transform="translate(0 -0.3)"/><path class="cls-18" d="M11.49,11.74l0,0Z" transform="translate(0 -0.3)"/><path class="cls-18" d="M3.61,9a.66.66,0,0,1-.51-.46c-.26-.83-.47-1.46-.47-1.46a1.66,1.66,0,0,0,.42,1.84,2.55,2.55,0,0,0,.48.29L3.59,9Z" transform="translate(0 -0.3)"/><polygon class="cls-18" points="3.89 8.72 3.89 8.72 3.89 8.72 3.89 8.72"/><path class="cls-18" d="M11.44,11.78l0,0Z" transform="translate(0 -0.3)"/><path class="cls-18" d="M11.26,11.9h0Z" transform="translate(0 -0.3)"/><path class="cls-18" d="M4.58,8a1,1,0,0,1,.49-.6C4.66,7.18,4.3,7,4,6.78a.9.9,0,0,1-.18.31c-.61.75.08,1.37.47,1.65a.69.69,0,0,0,.24,0A2.26,2.26,0,0,1,4.58,8Z" transform="translate(0 -0.3)"/><path class="cls-18" d="M11.32,11.86l0,0Z" transform="translate(0 -0.3)"/><path class="cls-18" d="M11.38,11.82l0,0Z" transform="translate(0 -0.3)"/><polygon class="cls-18" points="0.65 6.64 0.65 6.64 0.65 6.64 0.65 6.64"/><path class="cls-18" d="M9.15,8.73a.59.59,0,0,0,0,.13,2.28,2.28,0,0,1,.07,1.49l.27.1.31.09,0,.05a9.74,9.74,0,0,1,1.3.84,1.22,1.22,0,0,0,.49.23A2.11,2.11,0,0,0,12,11s-.59.26-.66-.07-.59-.33-.59-.33c.31-.33.45.16,1.3-.07a.66.66,0,0,0,.42-1s0,.11-.12.36-.57.22-1.09-.07a.5.5,0,0,0-.6,0h0l-.16.18,0,0h0a.54.54,0,0,1,.11-.15l.07-.06.15-.18c.32-.39.4,0,1-.17a.74.74,0,0,0,.48-.55A16.43,16.43,0,0,1,9.15,8.73Z" transform="translate(0 -0.3)"/><path class="cls-18" d="M1.21,6.32h0Z" transform="translate(0 -0.3)"/><path class="cls-18" d="M2.51,4.94h0Z" transform="translate(0 -0.3)"/><path class="cls-18" d="M8,13H8c.84.28,1.17,0,1.21-.06S8.87,13.29,8,13Z" transform="translate(0 -0.3)"/><path class="cls-18" d="M11.18,11.93h0Z" transform="translate(0 -0.3)"/><polygon class="cls-18" points="9.14 12.57 8.79 12.28 8.79 12.28 9.14 12.57"/><path class="cls-18" d="M10.32,12l.28,0h0Z" transform="translate(0 -0.3)"/><polygon class="cls-18" points="9.46 11.31 9.46 11.32 9.46 11.31 9.46 11.31"/><path class="cls-18" d="M10.29,12h0Z" transform="translate(0 -0.3)"/><path class="cls-18" d="M10.07,11.92l-.07,0Z" transform="translate(0 -0.3)"/><path class="cls-18" d="M10.17,12l-.07,0Z" transform="translate(0 -0.3)"/><path class="cls-18" d="M9.59,11.73l0,0Z" transform="translate(0 -0.3)"/><path class="cls-18" d="M3,11.75Z" transform="translate(0 -0.3)"/><path class="cls-18" d="M9.64,11.75l-.05,0Z" transform="translate(0 -0.3)"/><path class="cls-18" d="M9.82,11.84l-.06,0Z" transform="translate(0 -0.3)"/><path class="cls-18" d="M11.1,12h0Z" transform="translate(0 -0.3)"/><path class="cls-18" d="M9.89,11.87l-.06,0Z" transform="translate(0 -0.3)"/><path class="cls-18" d="M10,11.9l-.06,0Z" transform="translate(0 -0.3)"/><path class="cls-18" d="M9.75,11.81l-.06,0Z" transform="translate(0 -0.3)"/><path class="cls-18" d="M10.8,12h0Z" transform="translate(0 -0.3)"/><path class="cls-18" d="M11,12h0Z" transform="translate(0 -0.3)"/><path class="cls-18" d="M10.88,12h0Z" transform="translate(0 -0.3)"/><path class="cls-18" d="M11,12h0Z" transform="translate(0 -0.3)"/><path class="cls-18" d="M9.55,11.7l0,0Z" transform="translate(0 -0.3)"/><path class="cls-18" d="M9.49,11.65l0,0Z" transform="translate(0 -0.3)"/><path class="cls-18" d="M10.71,12h0Z" transform="translate(0 -0.3)"/><path class="cls-18" d="M9.52,11.67l0,0Z" transform="translate(0 -0.3)"/><path class="cls-18" d="M9.69,11.78l0,0Z" transform="translate(0 -0.3)"/><path class="cls-18" d="M.56,5.51A1,1,0,0,1,.27,5h0A1,1,0,0,0,.56,5.51Z" transform="translate(0 -0.3)"/><path class="cls-18" d="M2,6H2a.71.71,0,0,0-.44-.45A.71.71,0,0,1,2,6Z" transform="translate(0 -0.3)"/><path class="cls-18" d="M1.25,6.34a.91.91,0,0,1,.5.92h0A.91.91,0,0,0,1.25,6.34Z" transform="translate(0 -0.3)"/><path class="cls-18" d="M2.47,4.91a1,1,0,0,0-.59-.17,1.18,1.18,0,0,1-.45-.07,1.18,1.18,0,0,0,.45.07A1,1,0,0,1,2.47,4.91Z" transform="translate(0 -0.3)"/><path class="cls-18" d="M3.14,11.92a2.34,2.34,0,0,0,.43.26h0A2.34,2.34,0,0,1,3.14,11.92Z" transform="translate(0 -0.3)"/><path class="cls-18" d="M1.66,7.1a.66.66,0,0,0-.54-.22A.66.66,0,0,1,1.66,7.1Z" transform="translate(0 -0.3)"/><path class="cls-18" d="M1.28,4.91C.56,4.82,1,4,1,4H1s-.44.87.28,1a.69.69,0,0,1,.53.35A.69.69,0,0,0,1.28,4.91Z" transform="translate(0 -0.3)"/><path class="cls-18" d="M9.46,11.61h0l0,.07,0-.07Z" transform="translate(0 -0.3)"/><path class="cls-18" d="M10.52,10.05h0l0,0,.16-.18h0l-.07.06A.54.54,0,0,0,10.52,10.05Z" transform="translate(0 -0.3)"/><path class="cls-20" d="M9.79,10.59a4.36,4.36,0,0,1-.47.68.22.22,0,0,0,.06.07c.22.14,0,.49-.1.58s-.25.29-.43.57-.33.31-.52.45-.22.05-.26,0l0,0c.84.28,1.17,0,1.21-.06h0l-.1-.08-.35-.29h0a1.29,1.29,0,0,0,1.57-.34,1.81,1.81,0,0,1-.85-.56l0-.07h0l0,0h0l0,0h0l0,0h0l0,0h0l.05,0h0l0,0h0l.06,0h0l.06,0h0l.06,0h0l.06,0h0l.07,0h0l.07,0h.15l.28,0H11l.05,0h0l.07,0h0l.05,0h0l0,0,0,0,0,0,0,0,0,0,0,0,0,0,0,0,0,0,0,0,0,0h0a1.22,1.22,0,0,1-.49-.23A9.74,9.74,0,0,0,9.79,10.59Z" transform="translate(0 -0.3)"/><path class="cls-20" d="M9.23,10.37l.28.08-.27-.1Z" transform="translate(0 -0.3)"/><path class="cls-20" d="M3.63,11.11H3.54c-.12,0-.14-.3-.22-.66a1.24,1.24,0,0,1,.11-.81,3.78,3.78,0,0,0,.1-.42,2.55,2.55,0,0,1-.48-.29,1.66,1.66,0,0,1-.42-1.84s.21.63.47,1.46A.66.66,0,0,0,3.61,9c.06-.09.19-.05.28,0h0a.66.66,0,0,1,0-.14c0-.22.2-.18.39-.14-.39-.28-1.08-.9-.47-1.65A.9.9,0,0,0,4,6.78a3.77,3.77,0,0,1-1.23-1,.3.3,0,0,1,.08-.22A1.12,1.12,0,0,0,2.52,5h0l0,0a1,1,0,0,0-.59-.17,1.18,1.18,0,0,1-.45-.07A.67.67,0,0,1,1,4H1s-.44.87.28,1a.69.69,0,0,1,.53.35A1.62,1.62,0,0,1,2,6H2a.71.71,0,0,0-.44-.45.67.67,0,0,0-.43,0,.52.52,0,0,1-.55-.07A1,1,0,0,1,.27,5h0A1.61,1.61,0,0,0,.43,6a.59.59,0,0,0,.4.29.58.58,0,0,0,.14,0,.72.72,0,0,1,.22,0h0l0,0a.91.91,0,0,1,.5.92h0a.61.61,0,0,0-.09-.16.66.66,0,0,0-.54-.22,1.54,1.54,0,0,0-.47.06h0s.65.54.42,1S.73,9,1.83,9.4s.45.46.82,1.81a1.26,1.26,0,0,0,.31.54H3a1,1,0,0,0,.18.17,2.34,2.34,0,0,0,.43.26A2.9,2.9,0,0,1,3.63,11.11Z" transform="translate(0 -0.3)"/><path class="cls-21" d="M5.65,14.88h0l.07.09h0l.06.1h0L6,14.55a2,2,0,0,1-.39.09H5.46l.19.23Z" transform="translate(0 -0.3)"/><path class="cls-18" d="M5.07,7.39a1,1,0,0,0-.49.6,2.26,2.26,0,0,0,0,.77.2.2,0,0,0,.17-.09,4.18,4.18,0,0,1,.9-1Z" transform="translate(0 -0.3)"/><path class="cls-22" d="M8.33,12.94c.19-.14.34-.16.52-.45s.37-.47.43-.57.32-.44.1-.58a.22.22,0,0,1-.06-.07l-.11.11a2.78,2.78,0,0,0-.62.84,6.51,6.51,0,0,1-.52.74S8.19,13.05,8.33,12.94Z" transform="translate(0 -0.3)"/><path class="cls-22" d="M3.61,9l0,0-.06.19a3.78,3.78,0,0,1-.1.42,1.24,1.24,0,0,0-.11.81c.08.36.1.66.22.66h.09a5.22,5.22,0,0,1,.19-.76A4.26,4.26,0,0,0,3.89,9h0C3.8,9,3.67,8.91,3.61,9Z" transform="translate(0 -0.3)"/><path class="cls-22" d="M5.87,11.93l.07.06,0,0Z" transform="translate(0 -0.3)"/><path class="cls-22" d="M8,8.66,8,8.79c.06.09.11,0,.17,0,0,.1-.13.17-.2.08a2.1,2.1,0,0,1-.13-.26l0,0a.64.64,0,0,0,0,.22c0,.17,0,0,0-.26L7.7,8.41l-.29-.08H7.35a.87.87,0,0,0,.13.15l-.19-.16h0s-.08,0-.12,0-.06.09,0,0H7a1.43,1.43,0,0,0,.17.41A.9.9,0,0,1,7,8.33s0-.14-.09-.16,0,.07,0,.12A1.14,1.14,0,0,0,7,8.67a.85.85,0,0,1-.2-.34h0c-.07,0-.38-.13-.5-.19a1.25,1.25,0,0,1-.38-.34l0,0L5.74,7.7c-.34,0-.67.77-.79,1s-.58.46-.72.91c-.23.73.11.8-.11,1.39a3.41,3.41,0,0,0,0,1.56s.18-.8.33-.88-.08.64.05.79,0-.37.37-.66a.71.71,0,0,1,.85,0h0a.06.06,0,0,1,.07,0,.66.66,0,0,1,.2.09H6l.06.07a.32.32,0,0,0,.14.12.29.29,0,0,0,.16,0h.1a.48.48,0,0,1,.21.08.08.08,0,0,1,0,.09,1.14,1.14,0,0,1,.57.37.9.9,0,0,1-.32.87c-.36.32.34-.11.5-.3s0,.27-.16.35.34.05.81-.73A7.51,7.51,0,0,0,9,11c.23-.72.43-1.17.21-1.69s-.86-.42-1.09-.79L8,8.48A.28.28,0,0,0,8,8.66Zm-2,1a4.18,4.18,0,0,1,.58.37.13.13,0,0,1,0,.24c-.07,0-.49-.33-.7-.42A1.51,1.51,0,0,0,5,9.78c-.19,0,0-.13.19-.24S5.77,9.58,6,9.67Zm-.06.56a.22.22,0,0,1,0,.08.24.24,0,0,1-.1.1.37.37,0,0,1-.27-.13.2.2,0,0,1,0-.13.1.1,0,0,1,0-.05.57.57,0,0,0-.36,0,.1.1,0,0,1-.14,0,.1.1,0,0,1,0-.13.84.84,0,0,1,.77,0c.49.22.42.52.41.54a.1.1,0,0,1-.09.07h0a.11.11,0,0,1-.07-.12C6.1,10.43,6.07,10.33,5.9,10.23Zm2.28,1.2h0a.09.09,0,0,1-.09-.08.56.56,0,0,0-.22-.29.28.28,0,0,1,0,.09.26.26,0,0,1-.11.1.37.37,0,0,1-.25-.1.22.22,0,0,1,0-.16s0,0,0,0a.26.26,0,0,0-.22.09.1.1,0,0,1-.14,0,.1.1,0,0,1,0-.13s.2-.31.68-.13a.71.71,0,0,1,.47.51A.1.1,0,0,1,8.18,11.43Zm.35,0c-.07.11-.09-.21-.25-.36a1.43,1.43,0,0,0-.67-.31c-.23,0-.36-.19-.31-.28s.11-.06.24,0,.58.15.74.21a.47.47,0,0,1,.27.37A.5.5,0,0,1,8.53,11.39Z" transform="translate(0 -0.3)"/><path class="cls-23" d="M6.66,12.14a.48.48,0,0,0-.21-.08h-.1a.29.29,0,0,1-.16,0,.32.32,0,0,1-.14-.12L6,11.85H6a.66.66,0,0,0-.2-.09.06.06,0,0,0-.07,0l.16.14,0,0,0,0a.8.8,0,0,0,.21.15c.16.07.31,0,.52.08h0A.08.08,0,0,0,6.66,12.14Z" transform="translate(0 -0.3)"/><path class="cls-20" d="M4.2,13.76a3.54,3.54,0,0,1,.72.4h0l.13.1,0,0a3.11,3.11,0,0,1,.37.35h.11A2,2,0,0,0,6,14.55a3.85,3.85,0,0,0,.47-.19l.21-.11a1.38,1.38,0,0,0,.24-.14,2.46,2.46,0,0,0,1-.8A2.49,2.49,0,0,1,8,13H8l0,0a6.51,6.51,0,0,0,.52-.74,2.78,2.78,0,0,1,.62-.84l.11-.11a4.36,4.36,0,0,0,.47-.68l0-.05-.31-.09-.28-.08v0a2.28,2.28,0,0,0-.07-1.49.59.59,0,0,1,0-.13,10.08,10.08,0,0,1-1-.21c.23.37.89.33,1.09.79s0,1-.21,1.69a7.51,7.51,0,0,1-.9,1.79c-.47.78-.93.8-.81.73s.32-.53.16-.35-.86.62-.5.3a.9.9,0,0,0,.32-.87,1.14,1.14,0,0,0-.57-.37h0c-.21-.08-.36,0-.52-.08A.8.8,0,0,1,5.94,12l-.07-.06-.16-.14h0a.71.71,0,0,0-.85,0c-.32.29-.25.8-.37.66s.1-.86-.05-.79-.33.88-.33.88a3.41,3.41,0,0,1,0-1.56c.22-.59-.12-.66.11-1.39.14-.45.58-.64.72-.91s.45-1,.79-1L5.6,7.64a4.18,4.18,0,0,0-.9,1,.2.2,0,0,1-.17.09.69.69,0,0,1-.24,0c-.19,0-.38-.08-.39.14a.66.66,0,0,0,0,.14h0a4.26,4.26,0,0,1-.07,1.33,5.22,5.22,0,0,0-.19.76,2.9,2.9,0,0,0-.06,1.07h0s0,0,0,.05.12.37.21.62A6.81,6.81,0,0,0,4.2,13.76ZM6,12.53c.53.32.9.15.9.32a.42.42,0,0,1-.16.25s0,.15-.06.33h0a1.66,1.66,0,0,1-.14.25,1,1,0,0,1-.88.35,1.6,1.6,0,0,1-.3-.11h0c-.25-.12-.72-.42-.68-.7a1.59,1.59,0,0,1,.27-.77c0-.11,0-.17,0-.22S5.46,12.21,6,12.53Z" transform="translate(0 -0.3)"/><path class="cls-20" d="M7.41,8.33l-.07,0h.07Z" transform="translate(0 -0.3)"/><path class="cls-20" d="M7.29,8.31h0v0l-.06,0,0,.07S7.26,8.3,7.29,8.31Z" transform="translate(0 -0.3)"/><path class="cls-20" d="M6.88,8.17c.06,0,0,.13.09.16l0-.15-.08,0,0,0a.75.75,0,0,0,0,.16S6.86,8.16,6.88,8.17Z" transform="translate(0 -0.3)"/><path class="cls-20" d="M7.16,8.34h0l0-.08L7,8.19l0,.15Z" transform="translate(0 -0.3)"/><path class="cls-20" d="M5.13,13.61a.9.9,0,0,0,.27.29h0a.47.47,0,0,0,.28.08.72.72,0,0,0,.46-.27,1.75,1.75,0,0,1,.22-.39,1.09,1.09,0,0,1-.67,0,1.94,1.94,0,0,1-.51-.4.25.25,0,0,1,0,.08C5.18,13.17,5,13.36,5.13,13.61Z" transform="translate(0 -0.3)"/><path class="cls-20" d="M6.32,8.14c.12.06.43.15.5.19h0a1.6,1.6,0,0,1-.05-.21c-.3-.12-.59-.23-.86-.35l0,0A1.25,1.25,0,0,0,6.32,8.14Z" transform="translate(0 -0.3)"/><path class="cls-20" d="M7.86,8.53l0,0s0,0,0-.05Z" transform="translate(0 -0.3)"/><path class="cls-20" d="M8,8.48H7.89A1.54,1.54,0,0,0,8,8.66.28.28,0,0,1,8,8.48Z" transform="translate(0 -0.3)"/><path class="cls-20" d="M7.78,8.44l-.08,0,.09.08Z" transform="translate(0 -0.3)"/><path class="cls-22" d="M6.36,13.32a1.75,1.75,0,0,0-.22.39.72.72,0,0,1-.46.27.47.47,0,0,1-.28-.08h0a.9.9,0,0,1-.27-.29c-.11-.25,0-.44.06-.62a.25.25,0,0,0,0-.08A1,1,0,0,1,5,12.64c0-.09-.06-.15-.08-.2a1.59,1.59,0,0,0-.27.77c0,.28.43.58.68.7h0a1.6,1.6,0,0,0,.3.11,1,1,0,0,0,.88-.35,1.66,1.66,0,0,0,.14-.25h0c.08-.18.09-.3.06-.33a1,1,0,0,1-.37.22Z" transform="translate(0 -0.3)"/><path class="cls-24" d="M4.94,12.22c-.06,0-.06.11,0,.22s0,.11.08.2a1,1,0,0,0,.18.27,1.94,1.94,0,0,0,.51.4,1.09,1.09,0,0,0,.67,0h0a1,1,0,0,0,.37-.22.42.42,0,0,0,.16-.25c0-.17-.37,0-.9-.32S5.1,12.07,4.94,12.22Zm.78.22,0,0h0l0,0h.06l.19.13a1.78,1.78,0,0,0,.45.12l.2,0h0c.07,0,.12,0,.12.09s-.13.12-.29.18a1.25,1.25,0,0,1-.74,0,1.89,1.89,0,0,1-.61-.47c-.11-.14-.3-.33-.17-.39a.3.3,0,0,1,.2,0h0l.14,0a2.1,2.1,0,0,1,.35.17Z" transform="translate(0 -0.3)"/><path class="cls-25" d="M6.48,13c-.12.07-.25,0-.42,0a1.21,1.21,0,0,1-.43-.16,1.87,1.87,0,0,1-.39-.27c-.08,0-.07-.31,0-.38a.3.3,0,0,0-.2,0c-.13.06.06.25.17.39a1.89,1.89,0,0,0,.61.47,1.25,1.25,0,0,0,.74,0c.16-.06.31-.09.29-.18s-.05-.07-.12-.09l0,0C6.66,12.93,6.6,13,6.48,13Z" transform="translate(0 -0.3)"/><path class="cls-25" d="M5.76,12.47Z" transform="translate(0 -0.3)"/><path class="cls-25" d="M5.86,12.53Z" transform="translate(0 -0.3)"/><path class="cls-25" d="M5.8,12.5h0Z" transform="translate(0 -0.3)"/><path class="cls-26" d="M5.35,12.26l-.14,0h0c0,.07,0,.33,0,.38a1.87,1.87,0,0,0,.39.27,1.21,1.21,0,0,0,.43.16c.17,0,.3.08.42,0s.18-.11.2-.19l0,0h0l-.2,0a1.78,1.78,0,0,1-.45-.12l-.19-.13H5.8l0,0h0l0,0h0A2.1,2.1,0,0,0,5.35,12.26Z" transform="translate(0 -0.3)"/><path class="cls-20" d="M7,8.67a1.14,1.14,0,0,1-.16-.38.75.75,0,0,1,0-.16H6.77a1.6,1.6,0,0,0,.05.21A.85.85,0,0,0,7,8.67Z" transform="translate(0 -0.3)"/><path class="cls-20" d="M7.19,8.75A1.43,1.43,0,0,1,7,8.34l0-.15h0l0,.15A.9.9,0,0,0,7.19,8.75Z" transform="translate(0 -0.3)"/><path class="cls-20" d="M7.48,8.47a.87.87,0,0,1-.13-.15h0l-.06,0v0Z" transform="translate(0 -0.3)"/><path class="cls-20" d="M7.88,8.56A2.1,2.1,0,0,0,8,8.82c.07.09.17,0,.2-.08-.06.09-.11.14-.17,0L8,8.66a1.54,1.54,0,0,1-.08-.19h0s0,0,0,0S7.87,8.55,7.88,8.56Z" transform="translate(0 -0.3)"/><path class="cls-20" d="M7.82,8.75a.64.64,0,0,1,0-.22v0s0,0,0,0l-.1,0v.05C7.79,8.74,7.83,8.92,7.82,8.75Z" transform="translate(0 -0.3)"/><path class="cls-20" d="M7.16,8.34c0,.09,0,.07,0,0l0-.07h0l0,.08Z" transform="translate(0 -0.3)"/><path class="cls-27" d="M5,9.78a1.51,1.51,0,0,1,.76.08c.21.09.63.43.7.42a.13.13,0,0,0,0-.24A4.18,4.18,0,0,0,6,9.67c-.19-.09-.53-.24-.74-.13S4.84,9.81,5,9.78Z" transform="translate(0 -0.3)"/><path class="cls-27" d="M8.28,10.62c-.16-.06-.61-.18-.74-.21s-.2-.06-.24,0,.08.24.31.28a1.43,1.43,0,0,1,.67.31c.16.15.18.47.25.36a.5.5,0,0,0,0-.4A.47.47,0,0,0,8.28,10.62Z" transform="translate(0 -0.3)"/><path class="cls-28" d="M5.79,10.17a.79.79,0,0,0-.22-.07.1.1,0,0,0,0,.05.2.2,0,0,0,0,.13.37.37,0,0,0,.27.13.24.24,0,0,0,.1-.1.22.22,0,0,0,0-.08Z" transform="translate(0 -0.3)"/><path class="cls-28" d="M7.5,11s0,0,0,0a.22.22,0,0,0,0,.16.37.37,0,0,0,.25.1.26.26,0,0,0,.11-.1.28.28,0,0,0,0-.09L7.72,11A.69.69,0,0,0,7.5,11Z" transform="translate(0 -0.3)"/><path class="cls-29" d="M6.16,10.6h0a.1.1,0,0,0,.09-.07s.08-.32-.41-.54a.84.84,0,0,0-.77,0,.1.1,0,0,0,0,.13.1.1,0,0,0,.14,0,.57.57,0,0,1,.36,0,.79.79,0,0,1,.22.07l.11.06c.17.1.2.2.19.25A.11.11,0,0,0,6.16,10.6Z" transform="translate(0 -0.3)"/><path class="cls-29" d="M7.79,10.81c-.48-.18-.67.11-.68.13a.1.1,0,0,0,0,.13.1.1,0,0,0,.14,0A.26.26,0,0,1,7.5,11a.69.69,0,0,1,.22,0l.13.07a.56.56,0,0,1,.22.29.09.09,0,0,0,.09.08h0a.1.1,0,0,0,.08-.11A.71.71,0,0,0,7.79,10.81Z" transform="translate(0 -0.3)"/><path class="cls-10" d="M8,.31H8Z" transform="translate(0 -0.3)"/><path class="cls-10" d="M7.68.3h0Z" transform="translate(0 -0.3)"/><path class="cls-10" d="M6.51,2.58v0Z" transform="translate(0 -0.3)"/><path class="cls-10" d="M6.55,2.15v0Z" transform="translate(0 -0.3)"/><path class="cls-10" d="M6.57,2V2Z" transform="translate(0 -0.3)"/><path class="cls-10" d="M6.46,3V3Z" transform="translate(0 -0.3)"/><path class="cls-10" d="M6.58,1.75v0Z" transform="translate(0 -0.3)"/><path class="cls-10" d="M6.53,2.36v0Z" transform="translate(0 -0.3)"/><path class="cls-10" d="M6.49,2.8v0Z" transform="translate(0 -0.3)"/><path class="cls-10" d="M6.59,1.4v0Z" transform="translate(0 -0.3)"/><path class="cls-10" d="M6.57.51v0Z" transform="translate(0 -0.3)"/><path class="cls-10" d="M6.56.45v0Z" transform="translate(0 -0.3)"/><path class="cls-10" d="M6.56.4v0Z" transform="translate(0 -0.3)"/><path class="cls-10" d="M6.57.59v0Z" transform="translate(0 -0.3)"/><path class="cls-10" d="M6.12,4.75v0h0Z" transform="translate(0 -0.3)"/><path class="cls-10" d="M6.58.78v0Z" transform="translate(0 -0.3)"/><path class="cls-10" d="M6.58.68v0Z" transform="translate(0 -0.3)"/><path class="cls-10" d="M6.34,3.72v0Z" transform="translate(0 -0.3)"/><path class="cls-10" d="M6.59,1V1Z" transform="translate(0 -0.3)"/><polygon class="cls-10" points="6.55 0.04 6.55 0.04 6.56 0.03 6.55 0.04"/><path class="cls-10" d="M6.56.36Z" transform="translate(0 -0.3)"/><path class="cls-10" d="M7.29.3h0Z" transform="translate(0 -0.3)"/><path class="cls-10" d="M6.9.31h0Z" transform="translate(0 -0.3)"/><path class="cls-10" d="M9.27.44h0Z" transform="translate(0 -0.3)"/><path class="cls-10" d="M9.58.49h0Z" transform="translate(0 -0.3)"/><path class="cls-10" d="M9,.4H9Z" transform="translate(0 -0.3)"/><path class="cls-10" d="M6.58,1.57v0Z" transform="translate(0 -0.3)"/><path class="cls-10" d="M8.69.36h0Z" transform="translate(0 -0.3)"/><path class="cls-10" d="M6.29,4l0-.08Z" transform="translate(0 -0.3)"/><path class="cls-10" d="M6.59.89v0Z" transform="translate(0 -0.3)"/><path class="cls-10" d="M8.34.33h0Z" transform="translate(0 -0.3)"/><path class="cls-10" d="M6.23,4.27l0-.09Z" transform="translate(0 -0.3)"/><path class="cls-10" d="M6.16,4.57l0-.12Z" transform="translate(0 -0.3)"/><path class="cls-10" d="M9.4,1.84a3.62,3.62,0,0,0-.85,1.54L8.34,5.24l.1,0h0l.18.07h0l.18.06h0l.19.07h0c.6.22,1.14.44,1.24.48.64-1.62,1.53-3.51,2.37-4.12a6.42,6.42,0,0,0-3-1.34C9.76.93,9.74,1.59,9.4,1.84Z" transform="translate(0 -0.3)"/><path class="cls-10" d="M8,8.17l-.33-.08L7.31,8l.21.06.47.1Z" transform="translate(0 -0.3)"/><path class="cls-5" d="M6.79,4.85h0l.1,0h0l.23,0h0L7.4,5h0l.15,0,.1,0h0l.13,0h0l.24.07h0l.18.07h0l.08,0,.21-1.86A3.62,3.62,0,0,1,9.4,1.84c.34-.25.36-.91.33-1.31h0L9.61.5h0l-.24,0H9.27l-.11,0h0L9,.4H9l-.26,0h0l-.28,0H8.34l-.28,0H6.9l-.34,0h0v0h0V1.75a.62.62,0,0,0,0,.13V2a.53.53,0,0,0,0,.13v.07s0,.09,0,.13v.08c0,.05,0,.09,0,.14v.08a.77.77,0,0,1,0,.15V2.8l0,.17V3c0,.21-.07.44-.11.68v0l0,.19,0,.08a1.62,1.62,0,0,1,0,.19l0,.09c0,.06,0,.12,0,.18l0,.12a1.49,1.49,0,0,1,0,.18v0Z" transform="translate(0 -0.3)"/><path class="cls-30" d="M9.75,7.83Z" transform="translate(0 -0.3)"/><path class="cls-30" d="M9.73,7.93h0Z" transform="translate(0 -0.3)"/><path class="cls-30" d="M9.72,8V8Z" transform="translate(0 -0.3)"/><path class="cls-30" d="M5.4,6.58a1.5,1.5,0,0,0-.18.36h0A1.5,1.5,0,0,1,5.4,6.58Z" transform="translate(0 -0.3)"/><path class="cls-30" d="M5.84,5.5l0,0Z" transform="translate(0 -0.3)"/><path class="cls-30" d="M9.74,7.87h0Z" transform="translate(0 -0.3)"/><path class="cls-30" d="M6.11,4.77h0l.67.08h0l-.68-.08Z" transform="translate(0 -0.3)"/><path class="cls-30" d="M9.76,7.79h0Z" transform="translate(0 -0.3)"/><path class="cls-30" d="M5.84,5.51a.25.25,0,0,0,0,.08.11.11,0,0,0,0,0,.11.11,0,0,1,0,0A.25.25,0,0,1,5.84,5.51Z" transform="translate(0 -0.3)"/><path class="cls-30" d="M9.77,7.7h0Z" transform="translate(0 -0.3)"/><path class="cls-30" d="M9.79,7.64h0Z" transform="translate(0 -0.3)"/><path class="cls-30" d="M9.82,7.57l0,0Z" transform="translate(0 -0.3)"/><path class="cls-30" d="M8.87,5.43l.19.07Z" transform="translate(0 -0.3)"/><path class="cls-30" d="M8.67,5.36l.18.06Z" transform="translate(0 -0.3)"/><path class="cls-30" d="M8.46,5.28l.18.07Z" transform="translate(0 -0.3)"/><path class="cls-30" d="M9.77,7.22q-.3,0-.69,0l.13.3.61,0v0l0-.12Z" transform="translate(0 -0.3)"/><path class="cls-30" d="M9.11,5.52l.05,0,.17.06.07,0,.13,0,0,0h0l.08,0-.07,0c.18.3.37.65.53,1L10.34,6h0c-.1,0-.64-.26-1.24-.48Z" transform="translate(0 -0.3)"/><path class="cls-30" d="M9.42,8l.13.31h.06L9.71,8Z" transform="translate(0 -0.3)"/><path class="cls-30" d="M8.78,6.63a2.89,2.89,0,0,0,.6.09H9.5c-.12-.21-.24-.43-.37-.64l-.8-.26C8.49,6.09,8.64,6.36,8.78,6.63Z" transform="translate(0 -0.3)"/><path class="cls-30" d="M8.44,5.27l-.1,0-.08,0Z" transform="translate(0 -0.3)"/><path class="cls-30" d="M8.59,7.52c0-.1-.09-.21-.14-.31A4.73,4.73,0,0,1,7.39,7l.15.29a2.31,2.31,0,0,0,1,.27Z" transform="translate(0 -0.3)"/><path class="cls-30" d="M8.83,8.23l-.05-.17a4,4,0,0,1-.9-.1l0,0C8.14,8.07,8.48,8.15,8.83,8.23Z" transform="translate(0 -0.3)"/><path class="cls-30" d="M6.89,4.87h0l-.1,0h0Z" transform="translate(0 -0.3)"/><path class="cls-30" d="M7.91,6.29,7.67,6l-.39-.08A4.14,4.14,0,0,0,7.91,6.29Z" transform="translate(0 -0.3)"/><path class="cls-30" d="M7.56,5,7.41,5h0Z" transform="translate(0 -0.3)"/><path class="cls-30" d="M7.14,4.91h0l-.23,0h0Z" transform="translate(0 -0.3)"/><path class="cls-30" d="M7.38,5.56l-.06-.07-.13,0Z" transform="translate(0 -0.3)"/><path class="cls-30" d="M8,5.31a2.33,2.33,0,0,1,.17.26l.95.5c-.12-.2-.25-.39-.37-.57Z" transform="translate(0 -0.3)"/><path class="cls-30" d="M8.06,5.14l.18.07Z" transform="translate(0 -0.3)"/><path class="cls-30" d="M7.4,5h0l-.25,0h0Z" transform="translate(0 -0.3)"/><polygon class="cls-31" points="7.65 7.79 7.31 7.71 7.31 7.71 7.65 7.79"/><path class="cls-31" d="M6.1,4.77h0l0,.08Z" transform="translate(0 -0.3)"/><path class="cls-31" d="M5.57,6.31h0Z" transform="translate(0 -0.3)"/><path class="cls-31" d="M6,5l0,0Z" transform="translate(0 -0.3)"/><path class="cls-31" d="M6,5V5Z" transform="translate(0 -0.3)"/><path class="cls-31" d="M6,4.91,6,5Z" transform="translate(0 -0.3)"/><path class="cls-31" d="M6.06,4.86v0Z" transform="translate(0 -0.3)"/><path class="cls-31" d="M5.42,7.07,5.3,6.74l.15-.23,0,.07a1.5,1.5,0,0,0-.18.36Z" transform="translate(0 -0.3)"/><path class="cls-31" d="M5.91,5.28l0,.08Z" transform="translate(0 -0.3)"/><path class="cls-31" d="M5.92,5.23v0Z" transform="translate(0 -0.3)"/><path class="cls-31" d="M6.11,4.77Z" transform="translate(0 -0.3)"/><path class="cls-31" d="M5.63,6.16c.22.4.49.94.73,1.46A5,5,0,0,0,7.27,8,10.11,10.11,0,0,0,5.88,5.37a.24.24,0,0,0,0,.08l0,0h0a.25.25,0,0,0,0,.08.11.11,0,0,0,0,0,3.22,3.22,0,0,1-.19.52h0Z" transform="translate(0 -0.3)"/><path class="cls-31" d="M5.94,5.18v0Z" transform="translate(0 -0.3)"/><path class="cls-31" d="M5.53,6.38h0Z" transform="translate(0 -0.3)"/><path class="cls-31" d="M5.48,6.46l0,0Z" transform="translate(0 -0.3)"/><path class="cls-31" d="M5.6,6.23v0Z" transform="translate(0 -0.3)"/><path class="cls-31" d="M6,5.09l0,.07Z" transform="translate(0 -0.3)"/><path class="cls-31" d="M9.21,7.55q.12.25.21.48l.29,0h0V7.94h0v0h0v0h0v0h0v0a.13.13,0,0,1,0-.06h0s0,0,0,0h0v0l0,0h0Z" transform="translate(0 -0.3)"/><path class="cls-31" d="M9.65,5.73l-.08,0h0Z" transform="translate(0 -0.3)"/><path class="cls-31" d="M9.4,5.63l.13,0Z" transform="translate(0 -0.3)"/><path class="cls-31" d="M8.78,6.63l.3.62q.39,0,.69,0c-.08-.16-.17-.32-.27-.49H9.38A2.89,2.89,0,0,1,8.78,6.63Z" transform="translate(0 -0.3)"/><path class="cls-31" d="M9.16,5.54l.17.06Z" transform="translate(0 -0.3)"/><path class="cls-31" d="M7.9,8A.89.89,0,0,0,8,8.17H8a7.29,7.29,0,0,0,.85.11v0C8.48,8.15,8.14,8.07,7.9,8Z" transform="translate(0 -0.3)"/><path class="cls-31" d="M7.91,6.29a4.14,4.14,0,0,1-.63-.41L7.67,6c-.09-.14-.19-.27-.29-.4l-.19-.11.13,0-.53-.64-.67-.08A16.15,16.15,0,0,1,7.39,7a4.73,4.73,0,0,0,1.06.25A9.6,9.6,0,0,0,7.91,6.29Z" transform="translate(0 -0.3)"/><path class="cls-31" d="M8.78,8.06a3.86,3.86,0,0,0-.19-.54H8.51a2.31,2.31,0,0,1-1-.27L7.88,8A4,4,0,0,0,8.78,8.06Z" transform="translate(0 -0.3)"/><path class="cls-31" d="M6.89,4.87l-.1,0Z" transform="translate(0 -0.3)"/><path class="cls-31" d="M7.4,5l-.25,0Z" transform="translate(0 -0.3)"/><path class="cls-31" d="M7.66,5l-.1,0L7.41,5Z" transform="translate(0 -0.3)"/><path class="cls-31" d="M7.8,5.07,7.67,5Z" transform="translate(0 -0.3)"/><path class="cls-31" d="M7.14,4.91l-.23,0Z" transform="translate(0 -0.3)"/><path class="cls-31" d="M8.16,5.57a2.33,2.33,0,0,1,.17.26l.8.26,0,0Z" transform="translate(0 -0.3)"/><path class="cls-31" d="M8,5.31l.75.19-.1-.15.47.17h0l-.19-.07h0l-.18-.06h0l-.18-.07h0l-.18-.06h0l-.18-.07h0l-.24-.07C7.87,5.14,7.93,5.23,8,5.31Z" transform="translate(0 -0.3)"/><path class="cls-11" d="M9.42,8q-.09-.22-.21-.48l-.13-.3-.3-.62c-.14-.27-.29-.54-.45-.8a2.33,2.33,0,0,0-.17-.26A2.33,2.33,0,0,0,8,5.31c-.06-.08-.12-.17-.18-.24h0L7.67,5h0L7.41,5h0l-.25,0h0l-.23,0h0l-.1,0h0l.53.64.06.07c.1.13.2.26.29.4l.24.33a9.6,9.6,0,0,1,.54.92c.05.1.1.21.14.31a3.86,3.86,0,0,1,.19.54l.05.17v0c.23,0,.47,0,.71.06Z" transform="translate(0 -0.3)"/><path class="cls-11" d="M9.58,5.71h0l0,0-.13,0-.07,0-.17-.06-.05,0-.47-.17.1.15c.12.18.25.37.37.57l0,0c.13.21.25.43.37.64s.19.33.27.49l.09.21h0c.05-.16.15-.46.25-.74h0C10,6.36,9.76,6,9.58,5.71Z" transform="translate(0 -0.3)"/><path class="cls-11" d="M5.3,6.74l.12.33a8.87,8.87,0,0,0,.94.55c-.24-.52-.51-1.06-.73-1.46h0l0,.06v0a.14.14,0,0,1,0,.06h0l0,.06h0a.25.25,0,0,1,0,.07l0,0h0Z" transform="translate(0 -0.3)"/><path class="cls-11" d="M7.27,8h0l.34.08L8,8.17H8A.89.89,0,0,1,7.9,8l0,0-.34-.71L7.39,7A16.15,16.15,0,0,0,6.12,4.77h0l0,.08h0v0L6,5V5l0,0v0l0,.07v.11h0l0,.08h0A10.11,10.11,0,0,1,7.27,8Z" transform="translate(0 -0.3)"/><path class="cls-5" d="M2.77,5.75A3.77,3.77,0,0,0,4,6.78c.3.19.66.4,1.07.61l.53.25.14.06.17.07c.27.12.56.23.86.35h.05l0,0,.08,0H7l.2.07h0l.06,0,.06,0,.07,0,.29.08.08,0,.1,0H8l.14,0a10.08,10.08,0,0,0,1,.21,16.43,16.43,0,0,0,3.13.21h.3c.26,0,.38-.36,0-.49s-1.58,0-3-.1H9.55c-.24,0-.48,0-.71-.06A7.29,7.29,0,0,1,8,8.17l-.47-.1L7.31,8h0a5,5,0,0,1-.91-.38,8.87,8.87,0,0,1-.94-.55l-.2-.13h0A20.63,20.63,0,0,1,3.5,5.56c-.29-.25-.53-.17-.65,0A.3.3,0,0,0,2.77,5.75Z" transform="translate(0 -0.3)"/><path class="cls-10" d="M9,15.56s0,.06,0,.09S9,15.59,9,15.56Z" transform="translate(0 -0.3)"/><path class="cls-10" d="M8.58,15.11l0,0Z" transform="translate(0 -0.3)"/><path class="cls-10" d="M8.94,15.65c0,.07,0,.15,0,.23C8.91,15.8,8.93,15.72,8.94,15.65Z" transform="translate(0 -0.3)"/><path class="cls-10" d="M8.46,15.06l0,0Z" transform="translate(0 -0.3)"/><path class="cls-10" d="M8.32,15h0Z" transform="translate(0 -0.3)"/><path class="cls-10" d="M6.6,18.37h0l.11.12h0Z" transform="translate(0 -0.3)"/><path class="cls-10" d="M7.23,18.9l-.09-.06Z" transform="translate(0 -0.3)"/><path class="cls-10" d="M7.78,19l-.06,0Z" transform="translate(0 -0.3)"/><path class="cls-10" d="M5.87,16.43h0a3.84,3.84,0,0,0,.15.89,2.61,2.61,0,0,0,.16.42c0,.07.07.13.1.19l.18.28h0A3.2,3.2,0,0,1,5.87,16.43Z" transform="translate(0 -0.3)"/><path class="cls-10" d="M7.92,18.8l0,.06Z" transform="translate(0 -0.3)"/><path class="cls-10" d="M8,18.73l0,.07Z" transform="translate(0 -0.3)"/><path class="cls-10" d="M8,18.66l0,.05Z" transform="translate(0 -0.3)"/><path class="cls-10" d="M6.47,18.21h0a1.47,1.47,0,0,0,.1.13h0A1.47,1.47,0,0,1,6.47,18.21Z" transform="translate(0 -0.3)"/><path class="cls-10" d="M7.66,19l0,0,0,0Z" transform="translate(0 -0.3)"/><path class="cls-10" d="M8,18.64a.17.17,0,0,0,0-.05A.17.17,0,0,1,8,18.64Z" transform="translate(0 -0.3)"/><polygon class="cls-10" points="7.61 18.78 7.61 18.78 7.61 18.78 7.61 18.78"/><path class="cls-10" d="M6.71,18.49a3.4,3.4,0,0,0,.38.32,3.4,3.4,0,0,1-.38-.32Z" transform="translate(0 -0.3)"/><path class="cls-10" d="M8.09,18.5l0,.07Z" transform="translate(0 -0.3)"/><path class="cls-10" d="M8.19,17.94v0Z" transform="translate(0 -0.3)"/><path class="cls-10" d="M8.17,18.1v0Z" transform="translate(0 -0.3)"/><path class="cls-10" d="M8.18,18v0Z" transform="translate(0 -0.3)"/><path class="cls-10" d="M7.3,15l.13,0Z" transform="translate(0 -0.3)"/><path class="cls-10" d="M7.12,15l.14,0Z" transform="translate(0 -0.3)"/><path class="cls-10" d="M8.15,18.28v0Z" transform="translate(0 -0.3)"/><path class="cls-10" d="M8.11,18.42a.24.24,0,0,1,0,.08A.24.24,0,0,0,8.11,18.42Z" transform="translate(0 -0.3)"/><path class="cls-10" d="M8.13,18.35v0Z" transform="translate(0 -0.3)"/><path class="cls-10" d="M7.45,14.94a.25.25,0,0,1,0,.24.23.23,0,0,1-.28.14A.23.23,0,0,1,7.1,15l0,0h0a3.19,3.19,0,0,0-.52.16.19.19,0,0,1,0,.08h0c.24.11.13.36,0,.66l.36.13a.2.2,0,0,1,.21,0,.18.18,0,0,1,.1.18c.43.21.73.46.66.71,0,0-.25-.62-1-.24,0,0,1,0,.93.73,0,.32.17.44.42.48v0a1.77,1.77,0,0,1,.23-.84l.08-.14a4.46,4.46,0,0,0,.39-1s0,.09,0,.13h0A.25.25,0,0,1,9,15.56l0-.21a1.62,1.62,0,0,0-.36-.21.21.21,0,0,1-.25.1.2.2,0,0,1-.1-.23L8,15A2.11,2.11,0,0,0,7.45,14.94Zm1,1.93a.2.2,0,1,1-.36-.16.22.22,0,0,1,.28-.13A.21.21,0,0,1,8.45,16.87ZM8,15.73a.22.22,0,0,1,.08.3.23.23,0,0,1-.28.14.22.22,0,0,1-.07-.3A.22.22,0,0,1,8,15.73Z" transform="translate(0 -0.3)"/><path class="cls-10" d="M8.16,18.18a.15.15,0,0,1,0,.07A.15.15,0,0,0,8.16,18.18Z" transform="translate(0 -0.3)"/><path class="cls-10" d="M7.85,18.88l0,.05Z" transform="translate(0 -0.3)"/><polygon class="cls-10" points="6.47 14.91 6.47 14.91 6.47 14.91 6.47 14.91"/><path class="cls-10" d="M6.49,15.2l.08,0Z" transform="translate(0 -0.3)"/><path class="cls-10" d="M5.87,16.32h0v0h0Z" transform="translate(0 -0.3)"/><polygon class="cls-9" points="7.61 18.78 7.61 18.78 7.61 18.78 7.61 18.78 7.61 18.78"/><path class="cls-9" d="M7.43,19l0,0Z" transform="translate(0 -0.3)"/><path class="cls-9" d="M7.53,19.05h0Z" transform="translate(0 -0.3)"/><path class="cls-9" d="M7.37,19l0,0Z" transform="translate(0 -0.3)"/><path class="cls-9" d="M7.31,18.94l0,0Z" transform="translate(0 -0.3)"/><path class="cls-9" d="M7.56,19.06h0Z" transform="translate(0 -0.3)"/><path class="cls-9" d="M6.47,18.21a1.47,1.47,0,0,0,.1.13A1.47,1.47,0,0,1,6.47,18.21Z" transform="translate(0 -0.3)"/><path class="cls-9" d="M6.71,18.49l-.11-.12Z" transform="translate(0 -0.3)"/><path class="cls-9" d="M7.49,19h0Z" transform="translate(0 -0.3)"/><path class="cls-9" d="M7.59,19.07h0Z" transform="translate(0 -0.3)"/><path class="cls-9" d="M6.12,16.38a.2.2,0,0,1-.23.06h0a3.2,3.2,0,0,0,.59,1.78.22.22,0,0,1,.28-.14.23.23,0,0,1,.08.3.43.43,0,0,1-.11.12,3.4,3.4,0,0,0,.38.32l0,0,.09.06.07,0a.21.21,0,0,1,.26-.11.23.23,0,0,1,.1.22l0,0,0,0,.06,0,0,0,0-.05,0,0,0-.06h0l0-.07,0,0,0-.05v0a.17.17,0,0,0,0-.05v0l0-.07h0a.24.24,0,0,0,0-.08v-.17a.15.15,0,0,0,0-.07h0v-.33c-.25,0-.46-.16-.42-.48.09-.74-.93-.73-.93-.73.78-.38,1,.24,1,.24.07-.25-.23-.5-.66-.71a.5.5,0,0,1,0,.12.22.22,0,0,1-.28.13.21.21,0,0,1-.08-.29.36.36,0,0,1,.07-.1l-.36-.13a1.75,1.75,0,0,0-.11.24A.34.34,0,0,1,6.12,16.38Zm1.67,1.38a.22.22,0,0,1,.08.3.22.22,0,0,1-.28.13.24.24,0,0,1,.2-.43ZM7.17,17a.23.23,0,0,1,.28-.14.22.22,0,0,1,.07.3.22.22,0,0,1-.27.14A.23.23,0,0,1,7.17,17Zm-.68.4c0,.12-.18.19-.27.14a.22.22,0,0,1-.08-.3.21.21,0,0,1,.27-.13A.2.2,0,0,1,6.49,17.43Z" transform="translate(0 -0.3)"/><path class="cls-9" d="M5.87,16.35v0h0Z" transform="translate(0 -0.3)"/><path class="cls-32" d="M7.77,16.17A.23.23,0,0,0,8.05,16a.22.22,0,0,0-.08-.3.22.22,0,0,0-.27.14A.22.22,0,0,0,7.77,16.17Z" transform="translate(0 -0.3)"/><path class="cls-32" d="M6.14,17.27a.22.22,0,0,0,.08.3c.09.05.22,0,.27-.14a.2.2,0,0,0-.08-.29A.21.21,0,0,0,6.14,17.27Z" transform="translate(0 -0.3)"/><path class="cls-32" d="M7.25,17.33a.22.22,0,0,0,.27-.14.22.22,0,0,0-.07-.3.23.23,0,0,0-.28.14A.23.23,0,0,0,7.25,17.33Z" transform="translate(0 -0.3)"/><path class="cls-32" d="M6.84,16.13a.21.21,0,0,0,.08.29.22.22,0,0,0,.28-.13.5.5,0,0,0,0-.12.18.18,0,0,0-.1-.18.2.2,0,0,0-.21,0A.36.36,0,0,0,6.84,16.13Z" transform="translate(0 -0.3)"/><path class="cls-32" d="M5.89,16.44a.2.2,0,0,0,.23-.06.57.57,0,0,1-.25-.06v0h0v.08h0Z" transform="translate(0 -0.3)"/><path class="cls-32" d="M7.1,15a.23.23,0,0,0,.08.3.23.23,0,0,0,.28-.14.25.25,0,0,0,0-.24h0L7.3,15h0l-.14,0h0Z" transform="translate(0 -0.3)"/><path class="cls-32" d="M7.59,18.19a.22.22,0,0,0,.28-.13.22.22,0,0,0-.08-.3.24.24,0,0,0-.2.43Z" transform="translate(0 -0.3)"/><path class="cls-32" d="M8.38,15.24a.21.21,0,0,0,.25-.1h0l0,0-.08,0,0,0-.11,0H8.28A.2.2,0,0,0,8.38,15.24Z" transform="translate(0 -0.3)"/><path class="cls-32" d="M7.56,18.82a.21.21,0,0,0-.26.11h0l0,0h0l0,0h0l0,0h.15l0,0h0A.23.23,0,0,0,7.56,18.82Z" transform="translate(0 -0.3)"/><path class="cls-32" d="M6.56,15.24a.19.19,0,0,0,0-.08h0l-.08,0h0Z" transform="translate(0 -0.3)"/><path class="cls-32" d="M6.82,18.37a.23.23,0,0,0-.08-.3.22.22,0,0,0-.28.14h0a1.47,1.47,0,0,0,.1.13h0l0,0h0l.11.12h0A.43.43,0,0,0,6.82,18.37Z" transform="translate(0 -0.3)"/><path class="cls-32" d="M8.37,16.58a.22.22,0,0,0-.28.13.2.2,0,1,0,.36.16A.21.21,0,0,0,8.37,16.58Z" transform="translate(0 -0.3)"/><path class="cls-32" d="M8.74,15.71a.24.24,0,0,0,.08.3h0s0-.08,0-.13h0c0-.08,0-.16,0-.23h0s0-.06,0-.09H9A.24.24,0,0,0,8.74,15.71Z" transform="translate(0 -0.3)"/><path class="cls-10" d="M2.36,17.42h0a4.28,4.28,0,0,0,.9,0h0A4.28,4.28,0,0,1,2.36,17.42Z" transform="translate(0 -0.3)"/><path class="cls-10" d="M1.81,16.92v0Z" transform="translate(0 -0.3)"/><path class="cls-10" d="M1.85,17.1s0-.05,0-.07S1.84,17.08,1.85,17.1Z" transform="translate(0 -0.3)"/><path class="cls-10" d="M1.81,16.81v0Z" transform="translate(0 -0.3)"/><path class="cls-10" d="M1.83,17a.19.19,0,0,1,0-.08A.19.19,0,0,0,1.83,17Z" transform="translate(0 -0.3)"/><path class="cls-10" d="M1.88,17.2a.19.19,0,0,0,0-.07A.19.19,0,0,1,1.88,17.2Z" transform="translate(0 -0.3)"/><path class="cls-10" d="M2.29,17.41Z" transform="translate(0 -0.3)"/><path class="cls-10" d="M2.76,14.13c.07-.17.15-.32.2-.43C2.91,13.81,2.83,14,2.76,14.13Z" transform="translate(0 -0.3)"/><polygon class="cls-10" points="1.94 17.03 1.94 17.03 1.94 17.03 1.94 17.03"/><path class="cls-10" d="M1.82,16.72a.11.11,0,0,1,0,0A.11.11,0,0,0,1.82,16.72Z" transform="translate(0 -0.3)"/><path class="cls-10" d="M2,17.34Z" transform="translate(0 -0.3)"/><path class="cls-10" d="M1.9,17.23s0,0,0,.05h0S1.9,17.25,1.9,17.23Z" transform="translate(0 -0.3)"/><path class="cls-10" d="M1.94,17.33Z" transform="translate(0 -0.3)"/><path class="cls-10" d="M2,17.35Z" transform="translate(0 -0.3)"/><path class="cls-10" d="M2.13,17.38Z" transform="translate(0 -0.3)"/><path class="cls-10" d="M2.07,17.37Z" transform="translate(0 -0.3)"/><path class="cls-10" d="M2.2,17.39Z" transform="translate(0 -0.3)"/><path class="cls-10" d="M1.83,16.65a.64.64,0,0,1,0-.07A.64.64,0,0,0,1.83,16.65Z" transform="translate(0 -0.3)"/><path class="cls-10" d="M1.85,16.57a.64.64,0,0,0,0-.07A.64.64,0,0,1,1.85,16.57Z" transform="translate(0 -0.3)"/><path class="cls-10" d="M1.88,16.48s0,0,0-.05S1.89,16.46,1.88,16.48Z" transform="translate(0 -0.3)"/><path class="cls-10" d="M2.18,16c.28.12.58.16.75-.12.41-.65,1.45,0,1.45,0a1,1,0,0,0-1.22-.46c.1-.25.58-.25,1.15-.15a.25.25,0,0,1,.23-.08.24.24,0,0,1,.18.17c.28.06.57.14.83.22a2.56,2.56,0,0,1,.14-.4A.24.24,0,0,1,5.62,15s0-.05,0-.08l-.19-.23a3.11,3.11,0,0,0-.37-.35.69.69,0,0,1,.13.11v0a.25.25,0,0,1-.29.19.23.23,0,0,1-.18-.28.27.27,0,0,1,.17-.19,3.54,3.54,0,0,0-.72-.4L4,13.69a.25.25,0,0,1-.26.12.23.23,0,0,1-.19-.23l-.2,0-.31,0A1.93,1.93,0,0,0,3,13.7a.24.24,0,0,1,.12.26.23.23,0,0,1-.28.18h0a3.55,3.55,0,0,0-.27,1.1.76.76,0,0,1,0,.15,1.24,1.24,0,0,1-.2.47Zm1.39-1.35a.23.23,0,0,1,.28-.19.25.25,0,0,1,.19.28.25.25,0,0,1-.28.19A.24.24,0,0,1,3.57,14.65Zm-1,.42a.23.23,0,0,1,.28-.19.24.24,0,1,1-.1.47A.24.24,0,0,1,2.59,15.07Z" transform="translate(0 -0.3)"/><path class="cls-10" d="M2.05,16.19l0,0Z" transform="translate(0 -0.3)"/><path class="cls-10" d="M2.09,16.12l0,0Z" transform="translate(0 -0.3)"/><path class="cls-10" d="M2,16.28l0-.07Z" transform="translate(0 -0.3)"/><path class="cls-10" d="M2,16.34l0-.06Z" transform="translate(0 -0.3)"/><path class="cls-10" d="M1.94,16.36l0,.05Z" transform="translate(0 -0.3)"/><path class="cls-10" d="M5.57,16.27h0l.06-.07h0Z" transform="translate(0 -0.3)"/><path class="cls-10" d="M3.46,17.41l-.2,0h0l.16,0Z" transform="translate(0 -0.3)"/><path class="cls-10" d="M3.5,17.41h0l.2,0h0Z" transform="translate(0 -0.3)"/><path class="cls-10" d="M3.59,13.58l.21.05Z" transform="translate(0 -0.3)"/><path class="cls-10" d="M3.83,13.63l.17,0Z" transform="translate(0 -0.3)"/><path class="cls-10" d="M5.51,16.33h0a3.52,3.52,0,0,1-1.8,1h0a3.28,3.28,0,0,0,.82-.3l.24-.13a4.44,4.44,0,0,0,.58-.44Z" transform="translate(0 -0.3)"/><path class="cls-10" d="M5.66,14.89l.07.09Z" transform="translate(0 -0.3)"/><path class="cls-10" d="M5.73,15l.06.1Z" transform="translate(0 -0.3)"/><path class="cls-10" d="M4.93,14.17l.13.1Z" transform="translate(0 -0.3)"/><path class="cls-9" d="M3.26,17.44l.2,0Z" transform="translate(0 -0.3)"/><path class="cls-9" d="M2.29,17.41h0Z" transform="translate(0 -0.3)"/><path class="cls-9" d="M2.17,17.17a.23.23,0,0,1,.19.25,4.28,4.28,0,0,0,.9,0,.25.25,0,0,1,0-.17.23.23,0,0,1,.28-.18.24.24,0,0,1,.19.28,3.52,3.52,0,0,0,1.8-1h0a.23.23,0,0,1-.18-.28.22.22,0,0,1,.22-.19,1.24,1.24,0,0,1,0-.27c-.26-.08-.55-.16-.83-.22a.2.2,0,0,1,0,.11.24.24,0,0,1-.28.19.25.25,0,0,1-.19-.28.37.37,0,0,1,0-.11c-.57-.1-1-.1-1.15.15a1,1,0,0,1,1.22.46s-1-.66-1.45,0c-.17.28-.47.24-.75.12h0l-.06.09,0,0,0,0,0,0,0,0,0,.07H2l0,.06v0l0,.05,0,0s0,0,0,.05v0a.64.64,0,0,1,0,.07h0a.64.64,0,0,0,0,.07v0a.11.11,0,0,0,0,0v.2h0a.19.19,0,0,0,0,.08v0s0,0,0,.07v0a.19.19,0,0,1,0,.07l0,0s0,0,0,.05A.23.23,0,0,1,2.17,17.17ZM4.39,17a.24.24,0,0,1,.09-.47.25.25,0,0,1,.19.28A.24.24,0,0,1,4.39,17ZM3.31,15.9a.25.25,0,0,1,.29-.19.23.23,0,0,1,.18.28.24.24,0,0,1-.28.19A.25.25,0,0,1,3.31,15.9Zm-.65.28a.23.23,0,0,1,.18.28.24.24,0,0,1-.28.19.25.25,0,0,1-.19-.28A.25.25,0,0,1,2.66,16.18Z" transform="translate(0 -0.3)"/><path class="cls-9" d="M2.07,17.37h0Z" transform="translate(0 -0.3)"/><path class="cls-9" d="M2,17.35H2Z" transform="translate(0 -0.3)"/><path class="cls-9" d="M2.13,17.38h0Z" transform="translate(0 -0.3)"/><path class="cls-9" d="M1.94,17.33Z" transform="translate(0 -0.3)"/><path class="cls-9" d="M2,17.34H2Z" transform="translate(0 -0.3)"/><path class="cls-9" d="M2.2,17.39h0Z" transform="translate(0 -0.3)"/><path class="cls-9" d="M5.57,16.27l.06-.07Z" transform="translate(0 -0.3)"/><path class="cls-9" d="M3.5,17.41l.2,0Z" transform="translate(0 -0.3)"/><path class="cls-32" d="M3.76,14.93A.25.25,0,0,0,4,14.74a.25.25,0,0,0-.19-.28.23.23,0,0,0-.28.19A.24.24,0,0,0,3.76,14.93Z" transform="translate(0 -0.3)"/><path class="cls-32" d="M4.48,16.55a.24.24,0,1,0,.19.28A.25.25,0,0,0,4.48,16.55Z" transform="translate(0 -0.3)"/><path class="cls-32" d="M3.5,16.18A.24.24,0,0,0,3.78,16a.23.23,0,0,0-.18-.28.24.24,0,1,0-.1.47Z" transform="translate(0 -0.3)"/><path class="cls-32" d="M4.26,15.39a.25.25,0,0,0,.19.28.24.24,0,0,0,.28-.19.2.2,0,0,0,0-.11.24.24,0,0,0-.18-.17.25.25,0,0,0-.23.08A.37.37,0,0,0,4.26,15.39Z" transform="translate(0 -0.3)"/><path class="cls-32" d="M5.3,16.05a.23.23,0,0,0,.18.28h0l.06-.06h0l.06-.07h0l0,0-.05-.05a.3.3,0,0,1-.08-.26A.22.22,0,0,0,5.3,16.05Z" transform="translate(0 -0.3)"/><path class="cls-32" d="M4.75,14.35a.23.23,0,0,0,.18.28.25.25,0,0,0,.29-.19v0a.69.69,0,0,0-.13-.11l0,0-.13-.1h0A.27.27,0,0,0,4.75,14.35Z" transform="translate(0 -0.3)"/><path class="cls-32" d="M2.37,16.37a.25.25,0,0,0,.19.28.24.24,0,0,0,.28-.19.23.23,0,0,0-.18-.28A.25.25,0,0,0,2.37,16.37Z" transform="translate(0 -0.3)"/><path class="cls-32" d="M3.77,13.81A.25.25,0,0,0,4,13.69H4l-.17,0h0l-.21-.05h0A.23.23,0,0,0,3.77,13.81Z" transform="translate(0 -0.3)"/><path class="cls-32" d="M2.17,17.17a.23.23,0,0,0-.25.11h0l0,0h.42A.23.23,0,0,0,2.17,17.17Z" transform="translate(0 -0.3)"/><path class="cls-32" d="M5.8,15.08h0L5.73,15h0l-.07-.09h0s0,0,0,.08a.24.24,0,0,0,.07.23.55.55,0,0,0,0-.1Z" transform="translate(0 -0.3)"/><path class="cls-32" d="M3.46,17.41h0l.2,0h0a.24.24,0,0,0-.19-.28.23.23,0,0,0-.28.18.25.25,0,0,0,0,.17h0Z" transform="translate(0 -0.3)"/><path class="cls-32" d="M2.77,15.35a.24.24,0,1,0,.1-.47.23.23,0,0,0-.28.19A.24.24,0,0,0,2.77,15.35Z" transform="translate(0 -0.3)"/><path class="cls-32" d="M3.08,14A.24.24,0,0,0,3,13.7H3c0,.11-.13.26-.2.43h0A.23.23,0,0,0,3.08,14Z" transform="translate(0 -0.3)"/><path class="cls-9" d="M5.81,15.08H5.73a.55.55,0,0,1,0,.1,2.56,2.56,0,0,0-.14.4,1.24,1.24,0,0,0,0,.27.3.3,0,0,0,.08.26l.05.05h0a.9.9,0,0,0,.2.14h0a.57.57,0,0,0,.25.06.34.34,0,0,0,.32-.24,1.75,1.75,0,0,1,.11-.24c.14-.3.25-.55,0-.66h0l-.09,0h0A2.32,2.32,0,0,0,5.81,15.08Z" transform="translate(0 -0.3)"/><path class="cls-16" d="M4.62,19.45c-.09,0-.21,0-.27.15s0,.26.06.3.22,0,.27-.15A.22.22,0,0,0,4.62,19.45Z" transform="translate(0 -0.3)"/><path class="cls-16" d="M5.11,18.13a.22.22,0,0,0-.27.15c-.06.13,0,.26.06.3s.22,0,.27-.15A.22.22,0,0,0,5.11,18.13Z" transform="translate(0 -0.3)"/><path class="cls-13" d="M2.15,24.39a.47.47,0,1,0-.39.86.47.47,0,1,0,.39-.86Z" transform="translate(0 -0.3)"/><path class="cls-30" d="M14.22,19.41a.21.21,0,1,0,.17-.39.21.21,0,1,0-.17.39Z" transform="translate(0 -0.3)"/></g><g class="cls-33"><path class="cls-3" d="M17.44,10.52a.84.84,0,0,1-.57-.57A.6.6,0,0,1,17,9.47a.55.55,0,0,1,.44-.23.6.6,0,0,1,.26,0,.8.8,0,0,1,.57.57.53.53,0,0,1-.08.48.56.56,0,0,1-.43.23.63.63,0,0,1-.27,0" transform="translate(0 -0.3)"/><path class="cls-3" d="M17.65,9.29a.81.81,0,0,1,.56.55.54.54,0,0,1-.5.69.57.57,0,0,1-.26,0,.81.81,0,0,1-.56-.56.53.53,0,0,1,.5-.68.6.6,0,0,1,.26,0m0,0h0a.67.67,0,0,0-.28,0,.58.58,0,0,0-.44.24.59.59,0,0,0-.09.49.85.85,0,0,0,.59.59.63.63,0,0,0,.27,0,.58.58,0,0,0,.45-.24.56.56,0,0,0,.08-.49.82.82,0,0,0-.58-.59" transform="translate(0 -0.3)"/><path class="cls-6" d="M17.48,10.47s.13,0,.13,0l-.13-.05a1.18,1.18,0,0,1-.29-.16.68.68,0,0,1-.27-.37A.48.48,0,0,1,17,9.43a.56.56,0,0,0-.14.51.84.84,0,0,0,.21.35l.1.07a1.21,1.21,0,0,0,.3.11" transform="translate(0 -0.3)"/><path class="cls-6" d="M18.18,9.7a.83.83,0,0,0-.44-.38c.15.08.38.25.32.43s-.29.13-.43.07-.38-.22-.25-.39.49,0,.46.14-.16.08-.24,0a.17.17,0,0,1-.11-.14s0-.05,0,0a.07.07,0,0,0,0,.07c0,.21.45.34.51.14s-.1-.26-.24-.31a.57.57,0,0,0-.32-.05c-.18,0-.31.15-.28.33a.6.6,0,0,0,.36.42.7.7,0,0,0,.59.07.29.29,0,0,0,.11-.41" transform="translate(0 -0.3)"/><path class="cls-3" d="M17.9,9.58c0-.12-.14-.2-.26-.23a.33.33,0,0,0-.35.1.23.23,0,0,0,0,.26.56.56,0,0,0,.36.24.65.65,0,0,0,.31,0c.13-.06.14-.2.08-.33a.56.56,0,0,1,0-.08s-.1-.1,0,0l0,0,.06.08a.27.27,0,0,1,0,.34.45.45,0,0,1-.29.07.67.67,0,0,1-.39-.16.44.44,0,0,1-.19-.33.23.23,0,0,1,.14-.2.53.53,0,0,1,.35,0,.44.44,0,0,1,.15.12.16.16,0,0,1,0,.07s0,0,0,0h0" transform="translate(0 -0.3)"/><path class="cls-3" d="M20.41,10.22a.84.84,0,0,1-.57-.57.6.6,0,0,1,.08-.48.55.55,0,0,1,.44-.23.6.6,0,0,1,.26,0,.83.83,0,0,1,.58.57.58.58,0,0,1-.09.48.56.56,0,0,1-.43.23.63.63,0,0,1-.27,0" transform="translate(0 -0.3)"/><path class="cls-3" d="M20.62,9a.85.85,0,0,1,.56.56.54.54,0,0,1-.5.69.74.74,0,0,1-.26,0,.83.83,0,0,1-.56-.56.53.53,0,0,1,.5-.68.76.76,0,0,1,.26,0m0,0h0a.65.65,0,0,0-.28,0,.57.57,0,0,0-.44.23.62.62,0,0,0-.09.5.87.87,0,0,0,.59.59l.27,0a.61.61,0,0,0,.45-.24.58.58,0,0,0,.08-.5A.81.81,0,0,0,20.63,9" transform="translate(0 -0.3)"/><path class="cls-6" d="M20.46,10.17s.12,0,.12,0l-.13-.05a1.64,1.64,0,0,1-.29-.16.68.68,0,0,1-.27-.37A.48.48,0,0,1,20,9.13a.52.52,0,0,0-.13.5.72.72,0,0,0,.2.36l.1.07a1.15,1.15,0,0,0,.31.11" transform="translate(0 -0.3)"/><path class="cls-6" d="M21.15,9.4A.83.83,0,0,0,20.71,9c.15.08.38.25.32.43s-.29.13-.43.07-.38-.22-.25-.4.49,0,.46.15-.16.08-.24,0a.17.17,0,0,1-.11-.14s0-.05,0,0a.1.1,0,0,0,0,.07c0,.21.45.34.51.13s-.1-.25-.24-.3a.57.57,0,0,0-.32,0c-.18,0-.31.15-.28.33a.6.6,0,0,0,.36.42.73.73,0,0,0,.59.07.29.29,0,0,0,.11-.41" transform="translate(0 -0.3)"/><path class="cls-3" d="M20.87,9.27c0-.12-.14-.19-.26-.22a.33.33,0,0,0-.35.1.23.23,0,0,0,0,.26.6.6,0,0,0,.36.24.54.54,0,0,0,.31,0c.13-.05.14-.19.08-.32L21,9.23s-.1-.1,0,0l0,0a.16.16,0,0,1,.06.08.26.26,0,0,1,0,.34.44.44,0,0,1-.28.07.74.74,0,0,1-.4-.16.47.47,0,0,1-.19-.33.22.22,0,0,1,.14-.2.47.47,0,0,1,.35,0,.35.35,0,0,1,.15.11.3.3,0,0,1,0,.08v0h0" transform="translate(0 -0.3)"/></g><g class="cls-33"><path class="cls-3" d="M17.77,14.41a.86.86,0,0,1-.58-.58.58.58,0,0,1,.09-.48.59.59,0,0,1,.43-.23l.27,0a.85.85,0,0,1,.57.58.55.55,0,0,1-.52.71l-.26,0" transform="translate(0 -0.3)"/><path class="cls-3" d="M18,13.17a.85.85,0,0,1,.56.56.54.54,0,0,1-.5.69,1.15,1.15,0,0,1-.26,0,.85.85,0,0,1-.56-.56.54.54,0,0,1,.5-.69,1.09,1.09,0,0,1,.26,0m0,0h0a1.24,1.24,0,0,0-.27,0,.61.61,0,0,0-.45.24.58.58,0,0,0-.08.5.84.84,0,0,0,.58.59,1.27,1.27,0,0,0,.28,0,.61.61,0,0,0,.44-.24.62.62,0,0,0,.09-.5.87.87,0,0,0-.59-.59" transform="translate(0 -0.3)"/><path class="cls-6" d="M17.81,14.36s.12,0,.12,0l-.12,0a1.43,1.43,0,0,1-.3-.16.72.72,0,0,1-.27-.37.48.48,0,0,1,.09-.46.52.52,0,0,0-.13.5.72.72,0,0,0,.2.36l.11.07a1,1,0,0,0,.3.11" transform="translate(0 -0.3)"/><path class="cls-6" d="M18.5,13.58a.81.81,0,0,0-.44-.37c.15.08.38.25.32.42s-.29.13-.42.08-.39-.22-.25-.4.48,0,.46.14-.17.09-.25.05-.11-.09-.1-.15,0,0,0,0a.08.08,0,0,0,0,.07c0,.21.45.34.51.13s-.1-.25-.24-.3a.57.57,0,0,0-.32-.05.29.29,0,0,0-.28.33.62.62,0,0,0,.37.42.75.75,0,0,0,.58.07.3.3,0,0,0,.11-.42" transform="translate(0 -0.3)"/><path class="cls-3" d="M18.22,13.46c0-.12-.14-.19-.25-.22a.33.33,0,0,0-.36.1.23.23,0,0,0,0,.26.58.58,0,0,0,.36.23.47.47,0,0,0,.31,0c.13-.05.14-.19.08-.32a.35.35,0,0,0,0-.08s-.1-.1,0,0l0,0,.05.07a.26.26,0,0,1,0,.34.34.34,0,0,1-.28.07.68.68,0,0,1-.4-.15.49.49,0,0,1-.19-.34.2.2,0,0,1,.14-.19.47.47,0,0,1,.35,0,.46.46,0,0,1,.16.11.21.21,0,0,1,0,.07.06.06,0,0,1,0,0h0" transform="translate(0 -0.3)"/><path class="cls-3" d="M20.82,14.18a.83.83,0,0,1-.58-.57.58.58,0,0,1,.09-.48.56.56,0,0,1,.43-.23.63.63,0,0,1,.27,0,.84.84,0,0,1,.57.57.6.6,0,0,1-.08.48.55.55,0,0,1-.44.23.6.6,0,0,1-.26,0" transform="translate(0 -0.3)"/><path class="cls-3" d="M21,13a.83.83,0,0,1,.56.56.53.53,0,0,1-.5.68.76.76,0,0,1-.26,0,.85.85,0,0,1-.56-.56.54.54,0,0,1,.5-.69A.74.74,0,0,1,21,13m0,0h0a.83.83,0,0,0-.27,0,.61.61,0,0,0-.45.24.58.58,0,0,0-.08.5.81.81,0,0,0,.58.58.65.65,0,0,0,.28,0,.57.57,0,0,0,.44-.23.62.62,0,0,0,.09-.5.87.87,0,0,0-.59-.59" transform="translate(0 -0.3)"/><path class="cls-6" d="M20.86,14.14s.12,0,.12,0-.05,0-.13-.06a1.59,1.59,0,0,1-.29-.15.72.72,0,0,1-.27-.37.49.49,0,0,1,.09-.47.54.54,0,0,0-.13.51.69.69,0,0,0,.2.35.38.38,0,0,0,.11.08,1.33,1.33,0,0,0,.3.11" transform="translate(0 -0.3)"/><path class="cls-6" d="M21.55,13.36a.83.83,0,0,0-.44-.38c.15.08.38.26.32.43s-.29.13-.42.08-.39-.22-.25-.4.48,0,.46.14-.17.09-.25,0-.11-.09-.1-.15,0-.05,0,0,0,0,0,.07c0,.21.45.34.51.13s-.1-.25-.24-.31a.68.68,0,0,0-.32-.05.29.29,0,0,0-.28.34.64.64,0,0,0,.37.42.75.75,0,0,0,.58.07.3.3,0,0,0,.11-.42" transform="translate(0 -0.3)"/><path class="cls-3" d="M21.27,13.24c0-.12-.14-.19-.26-.22a.3.3,0,0,0-.35.1.23.23,0,0,0,0,.26.58.58,0,0,0,.36.23.54.54,0,0,0,.31,0c.13,0,.14-.2.08-.32a.22.22,0,0,0-.05-.08s-.1-.1,0,0l0,0,.05.07a.26.26,0,0,1,0,.34.38.38,0,0,1-.28.07.76.76,0,0,1-.4-.15.51.51,0,0,1-.19-.34.2.2,0,0,1,.14-.19.43.43,0,0,1,.35,0,.36.36,0,0,1,.16.11.21.21,0,0,1,0,.07,0,0,0,0,1,0,0h0" transform="translate(0 -0.3)"/></g><g class="cls-33"><path class="cls-3" d="M18.13,18.38a.82.82,0,0,1-.57-.57.6.6,0,0,1,.08-.48.55.55,0,0,1,.44-.23.6.6,0,0,1,.26,0,.82.82,0,0,1,.57.57.55.55,0,0,1-.51.71.63.63,0,0,1-.27,0" transform="translate(0 -0.3)"/><path class="cls-3" d="M18.34,17.15a.81.81,0,0,1,.56.56.53.53,0,0,1-.5.68.57.57,0,0,1-.26,0,.79.79,0,0,1-.56-.56.53.53,0,0,1,.5-.68.6.6,0,0,1,.26,0m0,0h0a.67.67,0,0,0-.28,0,.58.58,0,0,0-.44.24.6.6,0,0,0-.09.49.84.84,0,0,0,.59.59.63.63,0,0,0,.27,0,.58.58,0,0,0,.45-.24.56.56,0,0,0,.08-.49.84.84,0,0,0-.58-.59" transform="translate(0 -0.3)"/><path class="cls-6" d="M18.17,18.34s.13,0,.13,0-.06,0-.13-.06a1.18,1.18,0,0,1-.29-.16.68.68,0,0,1-.27-.37.46.46,0,0,1,.09-.46.54.54,0,0,0-.14.51.78.78,0,0,0,.21.35.3.3,0,0,0,.1.07,1.88,1.88,0,0,0,.3.12" transform="translate(0 -0.3)"/><path class="cls-6" d="M18.87,17.56a.83.83,0,0,0-.44-.38c.15.08.38.26.31.43s-.28.13-.42.07-.38-.21-.25-.39.49,0,.46.14-.16.08-.24,0a.17.17,0,0,1-.11-.14s0,0,0,0a.07.07,0,0,0,0,.07c0,.21.45.35.51.14s-.1-.26-.24-.31a.7.7,0,0,0-.32-.05c-.18,0-.31.15-.28.33a.62.62,0,0,0,.36.43.73.73,0,0,0,.59.06.29.29,0,0,0,.11-.41" transform="translate(0 -0.3)"/><path class="cls-3" d="M18.59,17.44c0-.12-.15-.2-.26-.23a.33.33,0,0,0-.35.1.23.23,0,0,0,0,.26.56.56,0,0,0,.36.24.65.65,0,0,0,.31,0c.13-.06.14-.2.08-.33l-.05-.07s-.1-.11,0,0,0,0,0,0a.2.2,0,0,1,.06.07.27.27,0,0,1,0,.34.4.4,0,0,1-.29.07.64.64,0,0,1-.39-.16.44.44,0,0,1-.19-.33.23.23,0,0,1,.14-.2.48.48,0,0,1,.35,0,.33.33,0,0,1,.15.11.16.16,0,0,1,0,.07s0,0,0,0,0,0,0,0" transform="translate(0 -0.3)"/><path class="cls-3" d="M21.1,18.08a.84.84,0,0,1-.57-.57.6.6,0,0,1,.08-.48.55.55,0,0,1,.44-.23.6.6,0,0,1,.26,0,.83.83,0,0,1,.58.57.57.57,0,0,1-.09.48.53.53,0,0,1-.43.23.63.63,0,0,1-.27,0" transform="translate(0 -0.3)"/><path class="cls-3" d="M21.31,16.85a.81.81,0,0,1,.56.56.53.53,0,0,1-.5.68.57.57,0,0,1-.26,0,.83.83,0,0,1-.56-.56.53.53,0,0,1,.5-.68.58.58,0,0,1,.26,0m0,0h0a.65.65,0,0,0-.28,0,.58.58,0,0,0-.44.24.6.6,0,0,0-.09.49.84.84,0,0,0,.59.59.63.63,0,0,0,.27,0,.58.58,0,0,0,.45-.24.56.56,0,0,0,.08-.49.81.81,0,0,0-.58-.59" transform="translate(0 -0.3)"/><path class="cls-6" d="M21.14,18s.13,0,.13,0-.05,0-.13-.05a1.18,1.18,0,0,1-.29-.16.68.68,0,0,1-.27-.37.48.48,0,0,1,.09-.46.56.56,0,0,0-.14.51.78.78,0,0,0,.21.35.46.46,0,0,0,.1.07,1.21,1.21,0,0,0,.3.11" transform="translate(0 -0.3)"/><path class="cls-6" d="M21.84,17.26a.83.83,0,0,0-.44-.38c.15.08.38.25.32.43s-.29.13-.43.07-.38-.22-.25-.39.49,0,.46.14-.16.08-.24,0a.17.17,0,0,1-.11-.14s0-.05,0,0a.1.1,0,0,0,0,.07c0,.21.45.35.51.14s-.1-.26-.24-.31a.57.57,0,0,0-.32,0c-.18,0-.31.15-.28.33a.62.62,0,0,0,.36.43.73.73,0,0,0,.59.06.29.29,0,0,0,.11-.41" transform="translate(0 -0.3)"/><path class="cls-3" d="M21.56,17.14c0-.12-.14-.2-.26-.23A.33.33,0,0,0,21,17a.23.23,0,0,0,0,.26.56.56,0,0,0,.36.24.65.65,0,0,0,.31,0c.13-.06.14-.2.08-.33l0-.07s-.1-.11,0,0a0,0,0,0,1,0,0l.06.08a.26.26,0,0,1,0,.34.45.45,0,0,1-.29.07.67.67,0,0,1-.39-.16.47.47,0,0,1-.19-.33.23.23,0,0,1,.14-.2.48.48,0,0,1,.35,0,.33.33,0,0,1,.15.11.16.16,0,0,1,0,.07v0h0" transform="translate(0 -0.3)"/></g></g></g></svg>