<svg id="Layer_1" data-name="Layer 1" xmlns="http://www.w3.org/2000/svg" xmlns:xlink="http://www.w3.org/1999/xlink" viewBox="0 0 2000 2000"><defs><style>.cls-1{fill:none;}.cls-2{clip-path:url(#clip-path);}.cls-3{clip-path:url(#clip-path-2);}.cls-4{fill:#777;}.cls-5{fill:#a6a8ab;}.cls-6{fill:#a7a9ac;}.cls-7{fill:#1c1819;}.cls-8{fill:#171214;}.cls-9{fill:#a3a4a7;}</style><clipPath id="clip-path"><rect class="cls-1" x="352.08" y="609.81" width="1295.84" height="780.39"/></clipPath><clipPath id="clip-path-2"><rect class="cls-1" x="352.08" y="609.81" width="1295.84" height="780.39"/></clipPath></defs><title>trailofbits</title><g id="Trail_of_Bits" data-name="Trail of Bits"><g class="cls-2"><g class="cls-3"><path class="cls-4" d="M921.38,842.89c21.73,0,40.87-.48,60,.2,9.43.34,12.35-2.39,12.3-12.07-.21-40.56,3.64-80.93,7-121.31,1-11.44,3.36-17.35,16.88-11.81,16,6.57,38,6.54,48,17.77,10.2,11.53,2.33,33.32,2.07,50.57-1,65.83-2.93,131.65-3.94,197.48-.16,10.53-2.37,15-14,14.35-18-1-36-.58-54-.14-7.47.19-9.8-2.33-9.33-9.69,1.17-18.53,1.28-37.13,2.7-55.63.73-9.46-1.87-12.75-11.74-12.49q-37.12,1-74.29,0c-9-.24-12.89,3.65-16.5,10.85-9.32,18.59-19.81,36.59-28.75,55.35-4.34,9.11-10.09,11.71-19.69,11.4-21.15-.67-42.33-.21-63.49-.21-1.11-7.13,3-10.75,5.39-14.93,51.21-91.13,102.7-182.11,153.55-273.44,6-10.85,11.81-14.31,23.48-9.22s31.07,3.73,34.58,13.31c3.23,8.79-7.88,23.24-13.5,34.79-18.35,37.73-37.08,75.27-56.65,114.9"/><path class="cls-4" d="M1041.35,1204.84c-24.19,1.24-24.13,1.26-16.65-21.9,45.51-141,89.92-282.35,130.89-424.75,3.66-12.75,7.94-17.49,21.58-11.84a276.29,276.29,0,0,0,45,13.91c12,2.69,13.07,7.24,9.5,18.35q-58,180.38-114.87,361.09c-5.25,16.58-10.65,33.16-14.78,50-2.21,9-6.84,11.27-15.27,11.59-15.16.57-30.27,2.28-45.4,3.52"/><path class="cls-5" d="M1348.29,1299.08c-.06-2.81-.52-5.68-.11-8.42,5.11-33.81,6.94-35.35,41-35.35,12.94,0,25.88.31,38.81-.1,9.12-.29,10.78,2.67,6.9,10.78a61.91,61.91,0,0,0-6.26,29.29c.73,20.49,15.45,31.75,35.14,26.24,46.33-13,61.91-65.25,30.39-101.61-7-8.06-13.38-16.64-19.79-24.65,9.12-1,21.92-2.67,34.76-4,13.38-1.34,27,1.14,40.26-2.67,6.61-1.91,11.46,1.12,16.45,5.74,21.25,19.71,26.55,45.49,20.81,71.23-12.87,57.76-39.62,103.7-100.63,112-37.66,5.09-76.44,8-110.94-14.42-16.9-11-27.4-26.34-26.84-47.55a22.52,22.52,0,0,0,0-16.51"/><path class="cls-4" d="M352.08,677.16c5.83-18.72,11.27-35.73,16.38-52.84,1.5-5,4-7.4,9.47-7.4,77.38.11,154.76.08,233.8.08-5.91,18.68-11.69,35.58-16.5,52.75-2.17,7.74-7.37,7.14-13,7.13-17.42,0-34.86.57-52.25-.22-10.13-.45-14.61,2.8-17.58,12.84-13,44.1-27.42,87.8-40.52,131.88-3.11,10.48-7,13.25-17.58,9.7A409.46,409.46,0,0,0,408.78,819c-10.43-2.2-11.82-6.48-8.61-16.22,12.47-37.81,23.76-76,36.25-113.81,3.31-10,1.42-12.29-8.84-12-24.58.63-49.18.2-75.5.2"/><path class="cls-4" d="M1226.55,1195.49l40.53-135.37h-87.47c5.85-18.66,11.38-35.09,16.05-51.75,2-7.11,6.28-8.16,12.47-8.16q110.4,0,220.81-.25c9.45,0,9.32,3.18,7.2,11-13.24,48.74-13,48.79-63.22,48.79-28.83,0-29,0-37.28,26.82-9.6,31.06-18.92,62.2-28.37,93.3-1.61,5.3-2.4,10.74-10.16,11.13-22.9,1.15-45.76,2.89-70.56,4.53"/><path class="cls-4" d="M1574,998.84c37.83,3.07,63.83,21.47,70.87,50.15.17,12.35-1.33,24.68-.36,37-5.38,27.73-5.38,27.73-32.28,27.73-13.5,0-27-.19-40.5.07-7.06.13-9-2.2-6.37-9,2.26-5.72,4.45-11.63,5.44-17.66,1.83-11.15,4-23.41-7.92-30.38s-24.89-6.71-36.9.62c-19.75,12.06-28.42,45.37-16.74,65.68,5,8.71,12.57,16,17.36,24.76s12.26,15.3,19.94,24.85c-31.19,2-60.07,4.65-89,5.53-15.88.48-23.32-12.18-28.26-25-20.75-53.78,8.33-121.57,62.14-145.4,11.25-5,22.7-9.88,35.49-9.19,15.69,2.35,31.39,2,47.09.15"/><path class="cls-4" d="M1411.76,917.66c-5.89,18.23-11.6,35.09-16.71,52.14-2.16,7.19-7,7.43-13,7.41-52.83-.09-105.66-.31-158.48.16-11.06.1-9.89-4.19-7.43-11.88,19-59.29,37.9-118.6,56.27-178.09,2.65-8.59,6-10.57,14.24-7.85,16.49,5.5,33,11.25,49.89,15.21,10.45,2.44,10.23,7,7.54,15.2-10.3,31.44-19.52,63.26-30.49,94.46-4.41,12.55-.29,13.62,10.49,13.42,28.62-.54,57.26-.18,87.69-.18"/><path class="cls-6" d="M1284.63,1208.54c13.73-1.7,14.77,3.55,12.12,11.71-8.79,27.15-17.65,54.28-26.08,81.54-1.84,6-4.54,9.55-10.76,11.32-22.6,6.42-45.16,13-67.52,20.17-10,3.22-10.74.53-7.86-8.3,11-33.51,21.52-67.15,32-100.8,2.1-6.72,6.16-9.19,13-10.87,19.31-4.71,39.47,1.53,55-4.77"/><path class="cls-6" d="M1348.85,780.47c-20.45-6.41-40.77-12.57-60.93-19.21-7-2.28-4.54-8.58-3.22-12.91,9.82-32.07,20.14-64,30.12-96,2.54-8.13,6.71-9.12,13.5-4.54,16.24,11,32.47,22,49.07,32.44,5.95,3.74,6.66,7.29,4.55,13.75-8.51,26-16.27,52.28-24.54,78.38-1.27,4-2.39,9.1-8.55,8.08"/><path class="cls-6" d="M552.76,981.2c-40.67,0-40.64,0-28-37.87,6.57-19.62,13.21-39.23,19.46-59,2.43-7.7,5.51-10.77,14.41-7.85,16.42,5.39,33.24,9.7,50.1,13.6,9.31,2.16,10,6.56,7.29,14.57-6.56,19.61-13.48,39.2-18.21,59.28-3.44,14.62-11.05,19.08-24.89,17.37-6.63-.82-13.45-.14-20.19-.14"/><path class="cls-6" d="M1073.66,651.08c0,10.11-.19,20.22,0,30.33.28,12-5.14,14.55-16,11.25-29.42-9-59.08-17.19-88.4-26.5-7.11-2.26-20.17-1.61-18.69-12,1.56-11,7.23-23,20.83-26.07,12.51-2.87,25.15-5.16,37.74-7.7,15.31-3.08,30.73-5.76,45.93-9.35,13-3.08,20.83-1.38,18.9,14.76-1,8.31-.17,16.83-.17,25.25h-.24"/><path class="cls-6" d="M427.44,957.33c-4.27-.6-6.79-3.76-9.45-6.61-11.11-11.9-21.26-24.87-33.47-35.5-12-10.46-14.09-21.29-8.63-35.43a311.1,311.1,0,0,0,12-36.73c2.29-9.25,6.39-9.75,14.45-7.21,16.54,5.19,33.33,9.64,50.19,13.7,7.36,1.78,10.77,3.65,7.92,12.34-9.57,29.26-18.34,58.78-27.44,88.19-1,3.07-.93,6.93-5.53,7.25"/><path class="cls-6" d="M818.77,1373.51c-19.43,3.12-38.83,6.47-58.3,9.28-18.81,2.71-37.68,4.94-56.55,7.19-10.21,1.22-13.16-2.84-9.58-12.75,6.09-16.85,12.12-33.78,17-51,3.09-11,7.67-11.5,16.7-6.41,29.81,16.8,59.91,33.06,89.91,49.54.27,1.38.55,2.77.83,4.16"/><path class="cls-4" d="M699.57,1110.79c10.42-33.89,20.63-67.12,30.86-100.35,1.55-5,3.42-8.93,10.22-8.72,16.14.5,32.3.16,48.38.16.48,16.45-7.74,20.17-21.29,19-6.94-.58-14.9-3.34-18.88,8.25-4.7,13.69-3.86,19.39,12.22,17.54,4-.46,13-4.38,11.91,5.65-.64,5.94-1.63,15.23-11.53,12.88-23.71-5.6-28.72,10-31.63,27.36s-11.24,24.7-30.26,18.18"/><path class="cls-7" d="M1644.54,1086c-4.42-12.39-5-24.74.36-37,4.76,12.39,3.32,24.72-.36,37"/><path class="cls-8" d="M1574,998.84c-15.71,4.37-31.41,4.71-47.09-.15a185.54,185.54,0,0,1,47.09.15"/><path class="cls-9" d="M1348.29,1299.08c4.34,5.52,4.39,11,0,16.51q0-8.25,0-16.51"/><path class="cls-4" d="M1003.37,1043.45c-10.73-32.55-39.55-41.39-69.94-43-34.19-1.82-68.54-.61-102.79-1.63-10.47-.31-14.34,3.41-17.36,13.11q-42.82,137.36-86.81,274.35c-2.66,8.29-1.93,12.48,6.51,16.89,34.31,18,68.16,36.8,102.07,55.52a31,31,0,0,0,19.34,3.68c56.93-6.38,99.41-46.56,109-103.31,7.06-41.85-.77-59.81-38.6-83.73,25.23-4.67,43-17.17,58-34.51,24.85-28.76,32.33-61.83,20.62-97.36M888.53,1262.74c-15,36.78-28.69,45.57-70.93,45.71-25,.07-25,.07-17.34-23.87,7.51-23.43,15.45-46.74,22.39-70.34,2.47-8.41,6.19-12.45,15.14-11.27,4.41.58,9,.12,13.43.34,42,2.06,53.37,20.16,37.31,59.43m32.28-134.44c-14.35,15.67-33.37,19.63-53.76,19-24.41.15-24.38.16-16.89-23.16,6.17-19.21,12.56-38.35,18.23-57.71,2.36-8.07,5.8-12.93,15-11.37,2.72.47,5.6,0,8.41.09,16.19.54,35.39-1.89,42.11,16.92,7.19,20.12,1.61,40.14-13.11,56.21"/><path class="cls-4" d="M821.91,677.12c-7.73-37-39.26-58.93-88.33-60.18-30.35-.77-60.74.22-91.08-.58-10.87-.29-15.27,3-18.5,13.7-19.63,65-40.27,129.71-60.49,194.53-10.23,32.81-10.17,32.86,23.53,41.78,11.37,3,24.64,10.75,33.72,7.38,10.83-4,8.92-21.26,13.7-32.33,2.16-5,2-11.37,9.9-11.39,12.91,0,25.83-1.42,38.6,1.91,11.57,3,17,10.27,16.08,22.15-1,13-4.62,25.35-8.22,37.77-6.88,23.72-14.56,47.25-18,71.82-.92,6.56-3,13.68,8.52,13.35,20.23-.57,40.48-.14,60.73-.18,3.9,0,8.66.35,8.74-5.25.53-34.4,16.93-65,23.08-98.09,7.55-40.61.52-53.65-39.14-70.06,13.18-2.65,24-5.51,34.14-10.57,40.07-20,62.71-69.28,53-115.76m-77.42,49.2c-11.36,33.13-28.13,50.76-62.14,47-26.63,0-26.6,0-19-24.75,6.63-21.46,13.37-42.89,19.7-64.44,2.13-7.24,5.07-12.12,13.76-10.59,3.28.57,6.74.09,10.11.09,40,0,50.61,14.54,37.53,52.7"/><path class="cls-4" d="M669.87,1001.94c-15.23,1.93-26.08,10.17-31.66,24.26-5.75,14.53-10.76,29.38-15.5,44.27-9.69,30.4.13,43.5,32,43.3,21.37-.14,30.55-5.94,38.26-25.91,5.42-14.07,10.24-28.42,14.36-42.92,9.1-32-4.34-47.18-37.48-43m15.45,35.46c-5.18,16.47-10.6,32.88-16.6,49.06-2.76,7.46-8.85,11.56-17.27,9.91-6.92-1.36-8.1-6.73-7.87-14,4.91-17.67,10-36.52,18.37-54.18,3.68-7.77,10.62-12,19.35-8.24,8.49,3.63,6,11.18,4,17.43"/></g></g></g></svg>