<svg id="Layer_1" data-name="Layer 1" xmlns="http://www.w3.org/2000/svg" xmlns:xlink="http://www.w3.org/1999/xlink" viewBox="0 0 2000 2000"><defs><style>.cls-1{fill:none;}.cls-2{clip-path:url(#clip-path);}.cls-3{clip-path:url(#clip-path-2);}.cls-4{fill:#848484;}</style><clipPath id="clip-path"><rect class="cls-1" x="223.9" y="807.55" width="1552.2" height="384.89"/></clipPath><clipPath id="clip-path-2"><rect class="cls-1" x="223.9" y="807.55" width="1552.19" height="384.89"/></clipPath></defs><title>wetrust</title><g id="WeTrust"><g class="cls-2"><g class="cls-3"><path class="cls-4" d="M703.34,1118.59,642,891.1h50.82l24.55,102c4.44,19.1,6.83,29.67,12.62,56.62,3.76-25.92,6.14-39.57,9.55-56.62L761,891.1H810.1l21.14,103.69c4.44,22.51,6.82,34.79,9.89,54.91,2-9.89,5.8-28.31,11.6-54.91L878,891.1h50.82l-63.44,227.49H817.6l-20.81-94.81c-5.11-23.54-9.89-48.09-11.25-59-4.44,24.56-7.16,39.23-11.6,59l-21.49,94.81Z"/><path class="cls-4" d="M973,1045.66c3.08,22.6,16.43,34.93,37.32,34.93,13,0,22.26-4.46,28.76-14.73h49.31c-9.24,32.19-40.06,52.73-79.44,52.73-51,0-84.92-34.92-84.92-87,0-51.71,34.58-87.32,84.58-87.32,34.92,0,61.29,17.47,73.62,48.63,5.82,14.38,8.22,29.79,8.22,52.73Zm67.45-34.24c-2-19.52-13.35-30.14-32.18-30.14s-31.16,10.62-34.93,30.14Z"/><polygon class="cls-4" points="1202.17 1117.21 1151.33 1117.21 1151.33 934.49 1082.85 934.49 1082.85 891.1 1270.65 891.1 1270.65 934.49 1202.17 934.49 1202.17 1117.21"/><path class="cls-4" d="M1292.64,948.74l-1.37,29.37c9.57-26.63,21.86-34.15,57-33.81v45.76a85.47,85.47,0,0,0-12.29-.68c-16.73,0-30.39,7.51-35.86,19.81-4.78,10.92-6.49,26.29-6.49,58v46.44h-48.49V948.74Z"/><path class="cls-4" d="M1505.09,1112.51h-45.28v-18.07c-11.41,16.37-23.15,22.51-42.94,22.51-16.77,0-32.2-6.14-42.93-17.06-11.07-11.25-15.43-25.23-15.43-48.76V947.79h47.63v92.76c0,16,.67,20.13,5,25.92,4.36,6.14,12.08,9.55,20.8,9.55s16.1-3.41,20.46-9.55c4.36-5.79,5-9.55,5-25.92V947.79h47.63Z"/><path class="cls-4" d="M1624.4,997.72c-2.06-12.36-12-18.89-28.16-18.89-14.09,0-23.37,5.5-23.37,13.74,0,6.19,4.81,9.28,20.27,12.71l30.58,6.53c20.27,4.12,30.57,8.59,37.79,16.15,7.9,7.55,12.36,19.92,12.36,33.32,0,35-28.51,57-74.54,57s-74.55-21.64-77.3-58.4h45.69c2.75,15.81,13.06,23,32.64,23,15.46,0,25.42-6.18,25.42-16.15,0-7.9-5.5-12-18.55-15.11l-30.23-6.87c-36.42-7.9-50.5-21.3-50.5-47.75,0-33.33,26.45-53.59,70.77-53.59,42.59,0,68.36,19.23,72.82,54.27Z"/><path class="cls-4" d="M1776.09,987H1746.3v64.36c0,26,1,28.08,12.33,28.08h17.46v36.63H1746.3c-21.22,0-31.84-3.08-39-11-7.53-8.21-9.58-17.12-9.58-42.79V987h-23.28V952.76h23.28V900.38h48.61v52.38h29.79Z"/><path class="cls-4" d="M416.35,1192.45a194.08,194.08,0,0,1-38.76-3.91,191.63,191.63,0,0,1-68.86-29A192.73,192.73,0,0,1,239,1074.92a191.48,191.48,0,0,1-11.23-36.16,194.07,194.07,0,0,1,0-77.52,191.85,191.85,0,0,1,29-68.86,193.52,193.52,0,0,1,52-51.94,191.63,191.63,0,0,1,68.86-29,194.07,194.07,0,0,1,77.52,0,191.63,191.63,0,0,1,68.86,29,192.52,192.52,0,0,1,0,319.12,191.63,191.63,0,0,1-68.86,29,194.08,194.08,0,0,1-38.76,3.91m0-333.48A140.25,140.25,0,0,0,337.51,883a141.67,141.67,0,0,0-38.12,38.12,141,141,0,0,0,17.23,178.57A143,143,0,0,0,337.51,1117a140.78,140.78,0,0,0,157.67,0,141.45,141.45,0,0,0,51.13-62.07,140.82,140.82,0,0,0-13-133.73A141.89,141.89,0,0,0,495.18,883,140.15,140.15,0,0,0,416.35,859"/><polygon class="cls-4" points="505.02 932.98 327.68 932.98 327.68 986.51 387.71 986.51 387.71 1107.68 442.26 1107.68 442.26 986.51 505.02 986.51 505.02 932.98"/></g></g></g></svg>