<svg xmlns="http://www.w3.org/2000/svg" viewBox="0 0 174.69 76.31"><defs><style>.cls-1{fill:#848484;}</style></defs><g id="Layer_2" data-name="Layer 2"><g id="Layer_1-2" data-name="Layer 1"><path class="cls-1" d="M87.29,76.22c-27.46,0-54.92-.09-82.37.09-4,0-4.94-1.15-4.91-5Q.28,38.11,0,4.91C0,.85,1.22,0,5,0Q87.41.19,169.77,0c4,0,4.93,1.17,4.9,5q-.27,33.2,0,66.39c0,4-1.21,4.92-5,4.9C142.2,76.14,114.74,76.22,87.29,76.22Zm.12-69.17c-25.3,0-50.59.06-75.89-.07C8.17,7,7,7.67,7,11.3q.28,27,0,53.93c0,3.34,1,4.15,4.22,4.14q76.14-.14,152.29,0c3.75,0,4.24-1.32,4.21-4.57-.15-17.65-.19-35.29,0-52.93.05-3.91-1-5-4.92-4.93C137.68,7.14,112.54,7.05,87.41,7.05Z"/><path class="cls-1" d="M38.82,62.92l-12-26.69c-1.47,8.08-3,14.68-3.76,21.37-.44,3.9-2.67,3.64-5.17,3.41-3.76-.35-1.67-2.94-1.38-4.48,2.48-13.22,5.1-26.42,8-41.22C29.67,26.77,34.31,37,39.19,47.79c5-10.79,9.62-20.95,14.91-32.46,2.72,15.2,5.17,28.85,7.57,42.51.26,1.43.73,3.21-1.78,3.11-2.16-.09-4.63.88-5.09-2.91a113.53,113.53,0,0,0-4.37-20.42C46.72,45.71,43,53.8,38.82,62.92Z"/><path class="cls-1" d="M106.82,39.78c0-6,.08-12,0-18,0-2.3.6-3.35,3.07-3.27,3.32.11,6.67-.1,9.92.73,7.78,2,11.12,10.13,6.59,16.77-1.42,2.09-.84,2.37.84,3.47,4.41,2.9,5.46,7.28,4.58,12.25s-4.18,7.24-8.66,8.53-9.26.44-13.88.73c-2.6.16-2.42-1.59-2.42-3.3C106.83,51.75,106.82,45.77,106.82,39.78Zm6.56,8.64c1.45,1.93-2.37,6.4,3.38,6.36s9-2.31,8.93-6.35-3.14-5.9-8.56-6.21C111.45,41.89,114.37,46.06,113.38,48.42ZM113.15,31c1.94,1.32-2,5.61,3.17,5.46,3.78-.11,5.74-2.12,5.65-6-.09-3.58-1.82-5.44-5.51-5.52C111.43,24.92,114.55,28.82,113.15,31Z"/><path class="cls-1" d="M94.29,16.93c0,8.6,0,17.2,0,25.8,0,2-.69,4.56,2.94,4.36,2.1-.11,1.59,1.71,1.6,2.93s.4,3.06-1.62,3c-3.64-.18-2.91,2.35-2.91,4.36,0,2.17,0,3.77-3.06,3.81-3.23.05-3.66-1.58-3.32-4,.45-3.25-.78-4.31-4.07-4.14-5.29.27-10.61.07-17,.07L93.17,16.73Zm-15.62,30c10.35.33,10.94-.57,8.42-11.94C84.34,38.85,81.73,42.55,78.67,46.88Z"/><path class="cls-1" d="M139.92,39.64c0-6,.13-12-.06-18-.1-3,1.47-3.1,3.72-3.13s3.25.62,3.22,3.11c-.12,9.48.11,19-.14,28.45-.09,3.6.67,5.32,4.59,4.72a52.83,52.83,0,0,1,5.49,0c2.15-.1,2.43,1.19,2.37,2.87s.22,3.44-2.38,3.4q-7.23-.11-14.48,0c-2.64,0-2.32-1.78-2.33-3.42Q139.91,48.64,139.92,39.64Z"/></g></g></svg>