<svg xmlns="http://www.w3.org/2000/svg" xmlns:xlink="http://www.w3.org/1999/xlink" viewBox="0 0 837.31 365.7"><defs><style>.cls-1{fill:#848484;}.cls-2{fill:#c6c6c6;}.cls-3{fill:#636363;}.cls-4{fill:url(#radial-gradient);}</style><radialGradient id="radial-gradient" cx="169.12" cy="112.17" fx="181.68951692301175" fy="129.0085470569746" r="23.54" gradientUnits="userSpaceOnUse"><stop offset="0" stop-color="#fff"/><stop offset="0.69" stop-color="#848484"/></radialGradient></defs><g id="Layer_2" data-name="Layer 2"><g id="Layer_1-2" data-name="Layer 1"><path class="cls-1" d="M106.61,0C100.12,4.85,94,9.63,87.68,14c-10,6.87-18.23,15.68-26.52,24.35C47.38,52.76,36,69,28.85,87.69,16,121.1,18.61,153.61,35.68,185c16.75,30.75,42,53.37,70.54,72.65,39.5,26.68,83,44.82,128.25,59a770.25,770.25,0,0,0,124.65,27.54,976,976,0,0,0,189,7.59c50.84-2.85,101.1-9.44,150.75-20.82,19.63-4.5,39.11-9.61,58.25-15.83,18.43-6,36.89-12.13,54.34-20.64,6-2.93,13-4,18-9.3,1.09-1.16,4.48-1.38,7.86-2.1-4.79,5.07-10.52,6.68-15.46,9.44-11.41,6.38-23.56,11.32-35.43,16.8-12.15,5.61-24.82,9.77-37.36,14.2-15.27,5.39-31.21,8.88-46.58,14.05-9.72,3.26-20,3.62-29.63,7.56-5.56,2.29-12.13,2-18.15,3.28-6.94,1.47-13.7,3.6-20.8,4.4-6.52.73-13,1.39-19.56,2.4-40.41,6.31-81.11,9.38-122,10.29-37.34.84-74.61-.91-111.83-3.95-10.38-.85-20.56-2.91-30.9-3.68-12-.88-23.75-3-35.58-5-13.82-2.34-27.75-4.21-41.35-7.5-18.15-4.39-36.36-8.54-54.18-14.33-11.14-3.62-22.44-6.82-33.39-11-26-9.86-51.75-20.4-75.82-34.51C84.1,270.74,60,254.36,40.05,232.68c-17.26-18.79-31.63-39.49-37.23-65a125.93,125.93,0,0,1-.55-50.36c2.55-13.87,8.2-26.29,15.2-38a181.62,181.62,0,0,1,35-42.13A220.2,220.2,0,0,1,76,18.52c8.62-5.84,17.58-11.1,26.12-17A6.18,6.18,0,0,1,106.61,0Z"/><path class="cls-1" d="M304,90.27c-1,1.74-.45,3.6-.46,5.37,0,29.32-.13,58.64.09,88,0,4.48-1.23,5.6-5.58,5.5-11.67-.26-11.67-.06-11.67-11.72,0-39.31.08-78.62-.11-117.93,0-4.59.77-6.28,5.85-6.14,14,.39,13.67.54,19.54,13.54,5.76,12.75,12.81,24.92,19.33,37.33q8.88,16.88,17.84,33.71a112,112,0,0,0,9.11,14.79v-5.18c0-29.65.09-59.3-.1-89,0-4.2,1.16-5.27,5.26-5.2,12.29.23,12.29,0,12.29,12.56,0,39.31-.06,78.62.1,117.93,0,4.18-1.28,4.86-5.26,5.35-10.27,1.28-16.22-2.07-20.64-12-7.24-16.25-16.23-31.72-24.56-47.48Q316.71,114,308.19,98.45C306.74,95.77,306.89,92.27,304,90.27Z"/><path class="cls-1" d="M432.79,149c-5.66,0-11.33.15-17-.06-3.06-.12-4.31,1-5.16,3.94-3.09,10.89-6.7,21.63-9.75,32.53-.8,2.88-2,3.79-4.74,3.65-3.66-.18-7.33-.11-11,0-2.54.06-3.35-.49-2.83-3.44,1.23-6.86,3.75-13.31,5.63-19.95,3-10.47,6.56-20.77,9.95-31.11,5.29-16.11,10.24-32.33,15.51-48.45,3-9.26,6.42-18.5,8.47-28.09.72-3.36,2.5-5.13,6.13-4.53a13.21,13.21,0,0,0,2,0c13.15,0,12.92.07,16.66,12.43,5,16.41,10.34,32.69,15.49,49,4.19,13.29,8.27,26.6,12.46,39.89,3,9.35,6.06,18.66,9,28,1.93,6.14,1.87,6.16-4.4,6.17h-6.5c-6.81,0-8.28-1.3-9.93-7.84-2.43-9.65-5.17-19.22-7.57-28.87-.65-2.62-1.85-3.45-4.48-3.37C444.78,149.09,438.78,149,432.79,149Zm-15.16-18.69h30.93c-5-17.36-9.95-34.29-14.87-51.22l-.95,0C427.73,96.08,422.71,113.07,417.63,130.28Z"/><path class="cls-1" d="M629.7,172.68c11.41-1.52,16.94-9.49,20.74-19.17a46.74,46.74,0,0,0,2.94-14.14c.17-2.7,1-3.85,3.89-3.68,3.66.22,7.34.16,11,0,2.67-.1,3.37.82,3.11,3.52A88.15,88.15,0,0,1,665,165.32c-5.16,10.53-12.12,19.22-23.56,23.51-2,.73-4.31.8-5.8,2.65-8.7.07-17.31.9-26.08-1-9.91-2.13-16.85-7.85-22.66-15.33-8.55-11-12.67-23.62-14-37.58-1.8-18.3-.73-36.1,6-53.24,6.08-15.45,16.11-27.23,32.81-32,8.5-2.41,17.12-1.3,25.72-1,.58.57,1.07,1.48,1.75,1.67C652.1,56.6,660,65.76,666,77l.75,1.63v-.11c1.19,5,2.36,10,3.58,15,.62,2.52-.09,3.86-2.9,3.56-.66-.07-1.33,0-2,0-3.82,0-8.13,1-11.33-.41-3.5-1.55-2.58-6.66-4-10.08-3.52-8.58-9.72-14-18.47-16.77s-17-1-24.35,4.44c-12.1,8.93-15.36,22.56-17.1,36.15a84.24,84.24,0,0,0,4.46,40.09c4.72,12.82,12.94,21.25,26.67,23.54C624.14,174.5,627.32,175.53,629.7,172.68Z"/><path class="cls-1" d="M491.48,121.21c0-20.83.08-41.66-.08-62.48,0-3.74.7-5.15,4.85-5.11,21.5.23,43,.18,64.49,0,3.41,0,4.85.82,4.5,4.41-.45,4.44,1.78,10.16-.87,13s-8.49.89-12.92.94q-18.74.21-37.49,0c-3.27,0-4.73.57-4.63,4.3q.39,15,0,30c-.1,3.73,1.29,4.31,4.59,4.27,13.49-.18,27,0,40.49-.16,3.37,0,4.43,1,4.14,4.22-.41,4.45,1.79,10.15-.86,13.06s-8.49.88-12.92.95c-10.33.17-20.66.2-31,0-3.5-.08-4.5.94-4.47,4.45.17,17-.05,34,.18,51,.05,4-1.19,5-5.06,5-12.94-.12-12.95,0-12.95-12.88Q491.47,148.71,491.48,121.21Z"/><path class="cls-2" d="M218.22,137.45c7.74,8,14.67,15,21.37,22.26,2.65,2.86,6,4.95,8.25,8.28,1.32,2,.64,3.21-.69,4.22-3.58,2.72-5.07,7.83-10,8.81-.55.11-1.42-1.26-2.1-2q-7.57-8-15.14-15.9c-1.15-1.21-2.12-2.75-4-.87s-.46,2.93.71,4.15c5.18,5.38,10.26,10.87,15.62,16.09,2.1,2,1.73,3.13-.08,5.12-8.8,9.67-8.66,9.66-17.77.39-7.19-7.32-14.58-14.44-22.52-22.28-.22,4.12-.32,7.66-.59,11.18-.4,5.14-3.61,8.35-8.15,8.34a8.15,8.15,0,0,1-8.22-8.3c-.2-12-.05-24-.12-35.95a5.25,5.25,0,0,1,1.69-4,12.74,12.74,0,0,0,1.77-1.75c9-13.5,21.68-17.67,37.26-15.39,4.4.65,9,0,13.47.15,5.69.23,9.25,3.89,9.14,9.06-.11,5-3.45,8.07-9.28,8.31C225.72,137.55,222.62,137.45,218.22,137.45Z"/><path class="cls-1" d="M196.85,67.23c7.73-8.41,14.39-15.77,21.19-23,8.43-8.95,9.55-8.75,16.84,1.34,1.61,2.23,1.45,3.5-.43,5.32-4.79,4.62-9.42,9.4-14.06,14.18-1.17,1.2-3.26,2.41-1.09,4.44s3.26-.39,4.35-1.49q7-7.09,13.76-14.46c1.72-1.87,3-2.42,4.64,0a16.86,16.86,0,0,0,2,2.2c6.9,7.17,6.76,7-.37,14.17S229.66,84.64,222.5,92.18c3.35,1.67,6.49,1.28,9.57,1.41,5.51.23,7.53,2.25,7.71,7.5.14,4.42-2.72,8.19-7.16,8.29-11,.26-22,.1-33,.13a3.5,3.5,0,0,1-3-1.37,7.19,7.19,0,0,0-1.4-1.41c-11.94-9.13-16.74-21-14.4-35.95.74-4.72,0-9.65.16-14.47.2-5.72,3-8.54,8.08-8.6,3.72,0,7.34,3.83,7.75,8.41.15,1.65.05,3.32.05,5C196.85,62.6,196.85,64.09,196.85,67.23Z"/><path class="cls-1" d="M150.5,165.14c-7.73,8.4-14.39,15.77-21.19,23-8.43,9-9.55,8.75-16.84-1.34-1.61-2.23-1.45-3.5.43-5.32,4.79-4.62,9.42-9.4,14.06-14.18,1.16-1.2,3.26-2.41,1.09-4.44s-3.26.39-4.35,1.49q-7,7.09-13.76,14.46c-1.72,1.88-3,2.43-4.65,0a16.73,16.73,0,0,0-2-2.2c-6.91-7.17-6.76-7,.36-14.16s14.06-14.73,21.22-22.27c-3.35-1.67-6.49-1.28-9.58-1.41-5.5-.23-7.52-2.25-7.7-7.5-.14-4.42,2.72-8.19,7.15-8.29,11-.26,22-.1,33-.12a3.46,3.46,0,0,1,3.05,1.37,7.42,7.42,0,0,0,1.4,1.4c11.94,9.13,16.74,21,14.39,36-.73,4.71,0,9.64-.15,14.47-.2,5.71-3,8.53-8.08,8.59-3.72,0-7.34-3.83-7.76-8.4-.14-1.66,0-3.33-.05-5Z"/><path class="cls-2" d="M152.24,59.59c.09-2,.16-5.31.41-8.59.38-5,3.39-8,7.81-8s7.37,3.17,7.44,8.29c.14,11,0,22,.09,33a5.84,5.84,0,0,1-1.77,4.48,29.53,29.53,0,0,0-4.17,4.28c-6.73,10-16.05,13.25-27.78,11.68-5.4-.72-11-.05-16.47-.14-5.23-.08-8.7-3.39-8.8-8.17s3.27-7.93,8.63-8.25c2.72-.16,7,1.35,7.75-.91.79-2.41-3.1-4.54-5.12-6.64-6.32-6.6-12.61-13.23-19-19.77-2-2-2.61-3.48-.36-6.12,8.16-9.56,8-9.66,16.33-.29,2.65,3,5.34,5.94,8.14,8.77,1,1,1.94,3.34,4,1.7s.58-3.16-.72-4.52c-4.49-4.68-8.8-9.53-13.5-14-2.59-2.47-2.39-4,0-6.4,7.81-7.92,7.58-7.88,15.49-.25C137.74,46.64,145.18,53.13,152.24,59.59Z"/><path class="cls-2" d="M635.61,191.48c1.49-1.85,3.83-1.92,5.8-2.65,11.44-4.29,18.4-13,23.56-23.51,8.27-5.83,11.45-14.5,12.5-23.92.53-4.78,2.16-6.32,6.76-5.74a72.66,72.66,0,0,0,9,.07c6.41,0,6.41,0,5.68,6.17C695,174.73,668.13,195.76,635.61,191.48Z"/><path class="cls-2" d="M629.7,172.68c-2.38,2.85-5.56,1.82-8.34,1.35-13.73-2.29-22-10.72-26.67-23.54a84.24,84.24,0,0,1-4.46-40.09c1.74-13.59,5-27.22,17.1-36.15,7.31-5.4,15.47-7.18,24.35-4.44-16.79,4.55-26.25,15.91-30.45,32.35a78.42,78.42,0,0,0,.95,41.93C606.29,158.2,615.65,167.84,629.7,172.68Z"/><path class="cls-2" d="M666,77c-6-11.27-13.93-20.43-26.9-24-.68-.19-1.17-1.1-1.75-1.67,24.76-2.57,49.54,8.07,59.09,34.58.1.3.06.66.13,1,2,10.15,2,10.14-8.46,10.15h-3.49c-7.75,0-7.47-.07-9.76-7.49-1.37-4.46-3.23-9-8.12-11.08v.11Z"/><path class="cls-2" d="M353.2,293.76c-5.71-4.68-10.82-.09-16.05,0-3.84.08-6.79-1.31-8.35-5a7.49,7.49,0,0,1,2.51-9.36c2.76-2.13,2.68-3.87,1.27-6.62-1.69-3.29-.63-6.31,2.49-8.1a7.15,7.15,0,0,1,9.14,1.22c2.69,2.69,2.17,5.67.13,8.54a10,10,0,0,1-1.66,1.84c-2.23,1.92-.34,3.17.7,4.54,1.76,2.33,2.13.43,2.88-.89a2.18,2.18,0,0,1,2.67-.74,1.4,1.4,0,0,1,.87,2C347.3,286.2,350.08,289.6,353.2,293.76Zm-16.62-13.61c-2.41.93-4,2.68-3.86,5.5.12,3.26,2.28,4.66,5.21,4.69,2.17,0,4.3-.77,5-3.15C343.32,286,337.92,280.1,336.58,280.15Zm5.26-9.92c0-1.91-1.25-2.6-2.88-2.62-1.93,0-3.26,1-2.91,3,.26,1.55.89,3.65,2.79,3.47S341.86,272.32,341.84,270.23Z"/><path class="cls-2" d="M380.29,293.78c-7.25,0-10.8-2.37-13.12-8.12-2.62-6.49-1.29-14.32,3.18-18.62a14.29,14.29,0,0,1,15.32-2.69,10.81,10.81,0,0,1,5.46,4.9c.61,1.08,1.63,2.64.15,3.54a2.64,2.64,0,0,1-3.91-.94c-2.19-4.6-5.86-5.69-10.37-4.35-5,1.48-6.32,5.68-6.48,10.2-.17,4.79.61,9.41,5.64,11.82,4.5,2.16,8.87.51,11-4.33.86-1.92,1.54-4.2,4.06-2.92,2.21,1.14.69,3.36,0,4.79C389,292,385,294.13,380.29,293.78Z"/><path class="cls-2" d="M577.63,293.78c-7.57,0-11.15-2.22-13.5-7.91-2.62-6.32-1.44-14.67,2.9-18.72s9.63-4.94,15.31-2.85a9.41,9.41,0,0,1,5.62,5.32c.43,1,2,2.45-.11,3.3a2.51,2.51,0,0,1-3.46-1.07,8.28,8.28,0,0,0-3.18-3.73,8.94,8.94,0,0,0-12.16,3.29,14.32,14.32,0,0,0,.19,14.77,8.08,8.08,0,0,0,8,4.18,7.61,7.61,0,0,0,7.12-5.4c.66-1.94,1.31-3.77,3.59-2.79,2.61,1.13.76,3.11.17,4.6C586.08,291.94,582.05,294,577.63,293.78Z"/><path class="cls-2" d="M497.71,279c0-3.82,0-7.63,0-11.44,0-1.38-.58-3.18,1.82-3.31s2.33,1.48,2.17,3c-.43,4,.35,5.74,5,4.35a8,8,0,0,1,9.42,3.91,13.76,13.76,0,0,1,.14,14.22c-2.05,3.73-5.6,4.29-9.47,3.95-2.19-.19-4.17-1.65-6.65-.32-1.72.92-2.56-.53-2.52-2.41C497.77,287,497.71,283,497.71,279Zm16.18,3.63c0-4.54-2.39-7.67-6-7.77s-6.23,3.14-6.3,7.52c-.09,4.64,2.6,8,6.35,8C511.52,290.4,513.86,287.34,513.89,282.65Z"/><path class="cls-2" d="M312.43,236.67c0-5.62-.08-11.24.06-16.86,0-1.55-1.1-4.09,1.93-4.18s2.16,2.4,2.18,4q.11,10.49,0,21c0,1.48.82,3.55-1.65,4.06a4,4,0,0,1-4.59-2.1A161.49,161.49,0,0,0,297,224c0,5.5.07,11-.05,16.5,0,1.57,1,4.1-2,4.11s-2-2.52-2.05-4.11q-.15-10.48,0-21c0-1.45-.86-3.51,1.72-4,2.37-.43,3.82,1,4.92,2.67,4,6.25,7.95,12.56,11.92,18.84Z"/><path class="cls-2" d="M484.41,271.35c6.47,0,8.23,1.91,8.6,8,.24,4-1.38,8.14,1.64,12,1.18,1.49-.93,3.12-2.38,2.32-3.34-1.85-6.35-.06-9.5.11-2.51.14-5.06.14-6.83-2.14a6.13,6.13,0,0,1,2.64-9.53,39,39,0,0,1,7.28-1.61c1.59-.3,3-.81,2.9-2.71s-1.6-2.48-3.14-2.71c-2.27-.35-4.48,0-5.61,2.22-.92,1.85-2.58,2-3.69,1.22-1.56-1.12-.28-2.65.51-3.88C478.71,271.62,481.8,271.61,484.41,271.35Zm1.78,12.07c-2.79.73-6.82-.26-7.13,4.21-.14,2.09,2,2.9,3.95,2.76,3-.22,5.41-1.47,5.93-4.81C489.28,283.41,488,283.12,486.19,283.42Z"/><path class="cls-2" d="M396,278.79c0-3.33-.14-6.67.06-10,.1-1.67-1.33-4.52,2.11-4.49,3.13,0,1.47,2.69,1.87,4.2a6.17,6.17,0,0,1,0,1.49c0,1.94.06,3,2.77,2.24,8.19-2.27,11.12.14,11.16,8.61q0,5,0,10c0,1.33.19,2.78-1.91,2.72-1.85-.06-2.15-1.23-2.15-2.69q0-5,0-10c0-2.82-.22-5.66-3.83-5.86s-5.61,2-5.92,5.44-.1,6.65-.16,10c0,1.44.38,3.2-2,3.11s-2-1.81-2-3.26C396,286.46,396,282.62,396,278.79Z"/><path class="cls-2" d="M273.76,276.63c2.1.65,2.17-1.52,3.11-2.38A9.86,9.86,0,0,1,288,272.17c4.22,1.73,5.36,5.61,5.88,9.71.28,2.25-1.28,2.32-2.88,2.31-3.33,0-6.65,0-10,0-2.9,0-3,1.37-1.77,3.44a5.81,5.81,0,0,0,9.37.74c1.25-1.34,2.62-2.94,4-1.57,1.6,1.61-.25,3.33-1.48,4.6-4.83,5-14.3,2.29-16.6-4.42-1.23-3.55.81-7-.64-10.42Zm10.15,4.22c1.64-1.2,5,1.53,5.11-1.8.1-2.66-2.71-4.11-5.4-4.1s-5,1.72-4.89,4.07C279,282.43,282.24,279.63,283.91,280.85Z"/><path class="cls-2" d="M435.65,283.16c.8,2.27-1.27,5.23,1.68,7.9,1.67,1.52-.84,3.41-2.33,2.54-3.41-2-6.38,0-9.52.17-6.19.23-9.55-3.91-7.26-8.89,1.33-2.88,4-3.22,6.59-3.87,1.44-.37,3-.45,4.44-.68a2.36,2.36,0,0,0,2.19-2.34,2.77,2.77,0,0,0-2.33-2.84c-2.43-.56-4.85-.39-6.17,2-1,1.72-2.51,2.28-3.62,1.44-1.63-1.24-.66-3.15.5-4.33,3.47-3.51,7.79-3.39,12.12-2.25,3.77,1,3.74,4.2,3.71,7.29C435.64,280.43,435.65,281.6,435.65,283.16Zm-8,.53c-1.49.43-5.25-.4-5.71,3.72-.24,2.19,1.76,3,3.75,3,3.13-.08,5.41-1.44,6-4.76C432,283.37,430.56,283.26,427.67,283.69Z"/><path class="cls-2" d="M541.41,284.17a9.25,9.25,0,0,0-1.49,0c-1.84.32-4.27-1-5.39,1.16-.73,1.37.53,2.78,1.79,3.71a5.65,5.65,0,0,0,6.51.62,3.8,3.8,0,0,0,1.52-1.23c.93-1.64,2.5-3,3.92-1.7,1.74,1.59-.07,3.3-1.27,4.59-2.71,2.93-6.29,2.75-9.74,2.2-5.09-.8-8.23-6.47-7.4-12.85.77-5.92,5.26-9.76,10.87-9.3,5.1.42,8.69,4.72,8.83,10.31,0,1.73-.51,2.5-2.18,2.51h-6Zm-1.83-3.32c1.66-1.16,5,1.48,5.1-1.88.09-2.61-2.58-4.14-5.28-4-2.46.1-4.95,1.61-4.84,4C534.71,282.42,538,279.66,539.58,280.85Z"/><path class="cls-2" d="M307.9,284.19c-1.33,0-2.67-.1-4,0s-3.39-.75-3.61,1.48a3.86,3.86,0,0,0,2.21,3.65c3,1.66,5.9,1.6,8-1.26,1.24-1.72,2.81-2.42,4-1.21s-.27,2.67-1.22,3.86c-3.15,3.94-7.39,3.52-11.43,2.47-4.61-1.21-7-7.09-6-13.37a9.73,9.73,0,0,1,9.59-8.48c5.22-.08,8.47,3.07,9.73,8.78.71,3.2-.13,4.38-3.35,4.07C310.58,284.08,309.24,284.19,307.9,284.19Zm-2.55-3.33c1.76-1.16,5,1.44,5.29-1.78.23-2.74-2.62-4.09-5.19-4.14s-4.93,1.35-4.92,3.88C300.55,282.58,303.9,279.54,305.35,280.86Z"/><path class="cls-2" d="M672.89,293.79c-3.28-.12-6.36-.11-8.19-3.16-.74-1.24-2.09-2.75-.55-3.92,1.23-.93,2.75-.34,3.74,1.24,1.54,2.47,4,2.73,6.62,2.25,1.33-.25,2.6-.85,2.78-2.44s-.88-2.47-2.23-2.87c-2.22-.67-4.5-1.17-6.73-1.81-2.67-.77-4.44-2.6-4.53-5.33a5.55,5.55,0,0,1,4.57-5.79c4.16-1,8.32-1.31,11.41,2.55.84,1,1.64,2.56.46,3.58a2.42,2.42,0,0,1-3.51-.56,6.73,6.73,0,0,0-2.16-2c-2.09-.95-4.67-1.29-5.75,1-1.31,2.8,1.78,3,3.37,3.65s3.25.71,4.81,1.25c3.07,1.07,5.38,2.9,4.78,6.58-.55,3.42-2.87,5.11-6.16,5.58C674.63,293.73,673.63,293.74,672.89,293.79Z"/><path class="cls-2" d="M477.47,243.77c-.81,1.63-2.44,1.13-3.64.66-.75-.29-1.28-1.44-1.68-2.3-2.79-6.11-5.51-7.46-12.11-6.27-1.86.33-2.42,1.47-3,2.9s-1.16,3.11-1.83,4.63-2.07,1.66-3.38,1.18c-1.79-.67-.55-2-.3-2.93,2.22-8.26,6.56-15.7,9.34-23.75.56-1.62,1.49-2.5,3.3-2.36,1.2.09,2.23.15,2.78,1.54,3.32,8.49,6.7,16.94,10.05,25.41C477.17,242.79,477.26,243.11,477.47,243.77Zm-13.38-23.24c-1.51,3.75-2.76,6.78-3.94,9.85-.36.94-.6,2.08,1,2.07,2.14,0,4.75.55,6.29-.46s-.32-3.29-.77-5A60.63,60.63,0,0,0,464.09,220.53Z"/><path class="cls-2" d="M611,282.63v-.5c0-10.66,1.06-11.65,11.56-10.74,3.83.33,6.3,2.26,6.49,6.22.22,4.48.09,9,.15,13.47,0,1.58-.46,2.57-2.27,2.46-1.58-.1-1.86-1.08-1.86-2.38,0-3.66,0-7.32,0-11,0-2.79-.76-5.15-4-5.19-3,0-5.21,1.59-5.52,4.66-.36,3.63-.23,7.3-.31,11,0,1.32.17,2.8-1.8,2.92-2.13.13-2.44-1.26-2.44-2.91,0-2.67,0-5.33,0-8Z"/><path class="cls-2" d="M239.39,277.7c.3-3.64-2-9.63.81-12.52s8.83-.61,13.43-.92c1-.06,2,0,3,0,1.34,0,2.29.35,2.23,1.94s-1.27,1.69-2.47,1.69c-3.16,0-6.34.18-9.49,0-3.3-.22-3.42,1.71-3.28,4.09.14,2.18-.77,4.95,3.15,4.7,2.49-.16,5,0,7.49,0,1.39,0,2.79,0,2.72,2-.06,1.62-1.24,1.67-2.47,1.76-3.44.25-7.81-1.49-10.1.77s-.55,6.64-.76,10.08c-.1,1.7-.79,2.39-2.44,2.34s-1.83-1.11-1.82-2.38Z"/><path class="cls-2" d="M583.24,222.66c6.12,0,7.78,1.87,8.2,8,.27,3.95-1.28,8,1.63,11.93,1.44,1.94-1.54,3.59-3.08,2.47-2.52-1.82-4.38-1-6.77-.19-4.75,1.63-9.15-.56-10-4.63s1.83-6.85,7-7.75a12.82,12.82,0,0,0,2-.3c1.78-.61,4.28-.14,4.81-2.73a2.44,2.44,0,0,0-1.79-2.7,6.11,6.11,0,0,0-6.15.71,4.71,4.71,0,0,0-1.16,1.6,1.93,1.93,0,0,1-2.93.87c-1.28-.78-.61-2.14-.23-3.18C575.83,224,578.74,222.65,583.24,222.66Zm-1.47,18.93c3.26-.13,5.15-1.89,5.61-5.12.22-1.57-.83-2.24-2.15-1.71-2.65,1.08-7-.75-7.61,3.82C577.25,241.33,579.61,241.56,581.77,241.59Z"/><path class="cls-2" d="M240.72,224c1.43-.39,2.52-.73,3.63-1,6.31-1.43,9.66,1,10,7.45.18,3.65.08,7.32,0,11,0,1.43.32,3.29-2,3.2s-1.86-1.95-1.88-3.37c-.06-3.32,0-6.65-.06-10,0-2.5-.63-4.73-3.71-4.93s-5.39,1.17-5.8,4.24c-.47,3.43-.27,6.95-.41,10.44-.06,1.56.48,3.64-2.12,3.64s-2.1-2.09-2.11-3.64c0-7.15-.06-14.31,0-21.46,0-1.61-.85-4,2.21-4,2.66.07,1.87,2.22,2,3.73S240.64,222.3,240.72,224Z"/><path class="cls-2" d="M338.7,234.25c.59,2.41-1.26,5.62,1.58,8.06.58.5.32,1.61-.34,2.26a2.29,2.29,0,0,1-3.17.37c-2-1.9-3.78-.93-5.86-.22-4.92,1.68-9.39-.21-10.19-4.06-.94-4.56,1.31-7.19,7-8.17a10.42,10.42,0,0,0,2-.32c1.74-.65,4.33,0,4.76-2.75a2.48,2.48,0,0,0-1.84-2.67c-2.11-.68-4.31-.83-6.13.76-1.26,1.1-1.71,3.57-4.17,2.45a1.85,1.85,0,0,1-.66-1.66c.61-2.06,1.36-3.94,3.74-4.85C334.05,220.15,338.71,223.74,338.7,234.25Zm-10.47,7.33c3.77,0,5.83-1.57,6.39-4.82.31-1.81-.76-2.49-2.38-1.93-2.7.92-7-.63-7.41,4C324.6,241.29,326.8,241.51,328.23,241.58Z"/><path class="cls-2" d="M651.5,293.77c-4.06.09-7.31-1.64-8.8-6-1.73-5.12-.42-11.7,2.87-14.35,3.06-2.48,9.42-2.73,12.73-.39,1.81,1.29,3.77,3.48,2.33,5.26s-3.39.1-4.64-1.75a4.16,4.16,0,0,0-4.48-1.51c-4.22.9-5.37,4.06-5.35,7.84,0,3.61,1.23,6.7,5.16,7.48,2.76.55,4.73-.89,5.83-3.55a2.35,2.35,0,0,1,3.39-1.12c1.48.71.45,2.1.13,3.07C659.52,292.17,656.54,293.82,651.5,293.77Z"/><path class="cls-2" d="M419.43,222.65c6.51-.09,8.41,1.9,8.76,7.85.24,4.1-1.23,8.35,1.78,12.35,1.24,1.65-1.74,3.17-3,2.23-3-2.33-5.47-.44-8.2.09-5.08,1-9.12-2.19-8.72-6.69.28-3.06,2.11-4.8,4.89-5.57,1.75-.49,3.59-.63,5.37-1s4.1-.31,3.67-3-2.69-2.64-4.72-2.57c-1.69.07-3.34.48-4.16,2.23-.68,1.44-1.87,2.1-3.22,1.39-2.05-1.08-.52-2.59-.06-3.84C413.31,222.22,417.08,223.51,419.43,222.65Zm-1.16,19c3.16-.17,5.49-1.41,6-4.84.24-1.76-.63-2.61-2.35-2-2.71,1-7-.57-7.5,4C414.14,241.09,416.26,241.64,418.27,241.61Z"/><path class="cls-2" d="M617.16,232.8c-.43-6.1,2.75-9.57,9.3-10.13,6.3-.53,10.86,3.39,11.41,9.81.63,7.39-3,12.26-9.41,12.83C621.5,245.92,617.81,241.84,617.16,232.8ZM633.81,234c0-4.43-2.52-7.54-6.11-7.61-3.83-.08-6.44,3.16-6.35,7.85.1,4.51,2.62,7.43,6.33,7.35S633.82,238.31,633.81,234Z"/><path class="cls-2" d="M641,233.78c0-1.82-.11-3.66,0-5.47.2-2.76-1.4-7.67,4.64-4,.68.41,2.33-1,3.58-1.3,5.78-1.52,9.46,1.14,9.71,7.11.15,3.47.16,7,0,10.45-.07,1.56,1,4.17-2,4.07-2.55-.07-1.71-2.39-1.77-3.87-.12-3,0-6,0-9,0-2.65-.36-5.16-3.73-5.38s-5.54,1.55-6,4.74c-.44,3.43-.26,6.94-.4,10.42-.06,1.38.51,3.19-1.91,3.24-2.26,0-2.17-1.51-2.16-3.05C641,239.09,641,236.44,641,233.78Z"/><path class="cls-2" d="M258,234.65c0-6.75,3.82-11.52,9-11.94,5.56-.44,9.51,2.92,10.63,8.92.48,2.59.13,4.17-3.09,4s-6.31-.07-9.47,0c-.93,0-2.13-.37-2.61.82-.42,1,.31,1.91.86,2.71a6,6,0,0,0,9.41.53c1.18-1.24,2.45-3.12,3.9-1.61s-.12,3.39-1.46,4.62c-3.11,2.85-6.72,3.38-10.65,2C259.47,242.8,258.26,238.64,258,234.65Zm9.86-2.39c1.76-1,5.09,1.35,5.38-1.61.23-2.45-2.38-4.2-5.22-4.28s-5.31,1.64-5.13,4.26S266.1,231.43,267.81,232.26Z"/><path class="cls-2" d="M684.72,222.65c6.3,0,10.48,4.51,10.44,11.38,0,6.53-4.14,11.14-10.08,11.32-6.42.19-10.44-4.15-10.7-11.11C674.05,225.28,679,223.08,684.72,222.65Zm6.18,11.4c0-4.57-2.31-7.58-6-7.69-3.8-.12-6.47,3.12-6.4,7.77.06,4.46,2.57,7.45,6.25,7.44S690.88,238.61,690.9,234.05Z"/><path class="cls-2" d="M519.1,234c0-6.83,4.14-11.38,10.4-11.39S540,227,540,233.91s-4.09,11.34-10.39,11.42S519.12,240.77,519.1,234Zm16.72,0c0-4.38-2.57-7.59-6.13-7.67s-6.72,3.54-6.62,7.82,3,7.44,6.52,7.39S535.82,238.37,535.82,234Z"/><path class="cls-2" d="M374.33,222.65c6.34,0,10.49,4.44,10.46,11.29,0,7.32-3.81,11.44-10.45,11.41-6.19,0-10.45-4.67-10.46-11.38S368,222.69,374.33,222.65ZM380.66,234c0-4.37-2.57-7.58-6.1-7.68s-6.65,3.47-6.54,7.83,2.92,7.45,6.45,7.4S380.68,238.34,380.66,234Z"/><path class="cls-2" d="M486.68,222.62c2.76.18,5.45.37,7.26,2.69.88,1.13,2.09,2.69.82,3.91s-2.79.43-3.79-1c-1.35-1.86-3.26-2.09-5.34-1.82-1.23.16-2.35.6-2.52,1.94A2.33,2.33,0,0,0,485,231c2.23.67,4.49,1.19,6.73,1.8,2.88.79,4.6,2.58,4.58,5.69A6,6,0,0,1,492,244.5c-4.67,1.77-10.71.65-12.76-2.62-.74-1.18-1.95-2.8-.45-3.93,1.23-.93,2.77-.47,3.63,1.27a3.4,3.4,0,0,0,2.62,2.11c2.53.19,6,1.42,6.74-2.09.66-3-2.49-3.31-4.74-3.79a17.6,17.6,0,0,1-1.94-.43c-3.35-1.12-7.11-2.07-6.49-6.75S483,223,486.68,222.62Z"/><path class="cls-2" d="M507.46,245.41c-3-.41-6.1-.68-7.79-3.7-.62-1.09-1.69-2.56-.43-3.58s2.77-.73,3.61,1.07a3.42,3.42,0,0,0,2.64,2.09c2.6.35,6,1.27,6.81-2,.73-3-2.52-3.24-4.74-3.77-.32-.08-.66-.08-1-.18-3.25-1.06-7.2-1.38-7.5-6-.17-2.73,1-5,3.74-5.82,3.93-1.22,7.9-1.62,11.23,1.54,1.16,1.09,2.61,2.69,1.09,4.21-1.15,1.15-2.86.53-3.81-.94a4.15,4.15,0,0,0-3.83-1.9c-1.64,0-3.62-.08-3.95,2.1-.28,1.93,1.49,2.38,2.89,2.85a37.8,37.8,0,0,0,4.33,1.15c3.39.7,6,2.12,6,6.12,0,4.24-2.9,5.64-6.36,6.44A29.36,29.36,0,0,1,507.46,245.41Z"/><path class="cls-2" d="M220,231.9v-4.48c0-7.16,0-7.18-7-8.24-1.17-.18-2.42-.2-2.4-1.84s1.2-1.77,2.42-1.77c6.3,0,12.6,0,18.91,0,1.09,0,2,.27,2,1.58.09,1.53-.82,1.82-2.13,2.07-2.4.46-5.77-1.7-7,1.53-.85,2.17-.24,4.91-.25,7.4,0,4.15.06,8.3,0,12.44,0,1.62.88,4-2.09,4.12-3.36.09-2.29-2.59-2.37-4.34C219.89,237.54,220,234.72,220,231.9Z"/><path class="cls-2" d="M469.75,293.51c-3.56.16-5.37-1.19-5.38-4.6,0-2.82-.12-5.63-.18-8.45,0-.67.25-1.72-.06-1.94-5.32-3.63.28-7.12.08-10.66-.07-1.27.31-2.27,1.89-2.34,1.9-.09,2.21,1.08,2.12,2.56-.14,2.34,0,4,3.15,4.44a1.54,1.54,0,0,1,0,3.07c-3.56.47-3.32,2.76-3.06,5,.42,3.64-2.23,8.58,3.91,10.08.22.05.4,1.27.21,1.81C471.89,294,470.5,293.42,469.75,293.51Z"/><path class="cls-2" d="M542.67,234c.08-8.66,6.52-13.41,14.33-10.62a6.61,6.61,0,0,1,4,3.48c.47,1,1.47,2.15.08,3.08a2.19,2.19,0,0,1-3.12-.59c-2.33-3.42-5.57-4.17-8.55-1.76-3.31,2.67-3.49,6.71-1.82,10.52,1.89,4.31,6.6,4.91,9.57,1.24,1.19-1.48,2.37-3.57,4.17-1.86,1.53,1.46-.21,3.52-1.34,4.76-3,3.28-6.86,3.89-11,2.46C544,242.89,542.53,238.86,542.67,234Z"/><path class="cls-2" d="M388.49,233.6a37.43,37.43,0,0,1,0-5c.33-2.51-1.74-7.73,4.46-4.34.28.15.89-.34,1.37-.47,9.19-2.51,12.17-.22,12.19,9.36q0,4.23,0,8.46c0,1.55,0,3.13-2.21,3-2-.09-1.79-1.6-1.81-2.89,0-3.49,0-7,0-10.46,0-2.51-.59-4.76-3.67-4.93s-5.68,1.16-6,4.54-.17,7-.26,10.44c0,1.43.31,3.2-2,3.3s-2-1.67-2.07-3.11C388.45,238.92,388.49,236.26,388.49,233.6Z"/><path class="cls-2" d="M603,244.69c-3.65.1-5.68-.93-5.57-4.53.09-2.82-.06-5.64-.1-8.47,0-.66.26-1.72,0-1.93-5.21-3.57,0-7,.09-10.41.06-1.56.51-2.58,2.3-2.45,1.54.12,1.86,1.1,1.84,2.41,0,2.16-.38,4.15,3,4.53,1.71.2,1.49,2.15-.2,3.22-3.95,2.49-4.08,12-.15,14.26,1,.58,1.65,1.13,1.27,2.26C604.89,245.06,603.54,244.64,603,244.69Z"/><path class="cls-2" d="M273.82,276.56c-4.5-1.15-6.94,1-7.55,5.2a78.71,78.71,0,0,0-.27,9c0,1.3.25,2.79-1.84,2.82-1.81,0-2.21-1-2.2-2.53,0-5.5,0-11-.09-16.48,0-1.39,1.14-2.92,1.81-2.15,3.21,3.68,7.16-3.14,9.93.95.52.77.12,2.17.15,3.29Z"/><path class="cls-2" d="M440.35,282.74a37.28,37.28,0,0,1,0-5c.34-2.57-1.81-8.09,4.67-4.2.73.44,2.54-1.09,3.92-1.51,1.07-.32,2.43-.7,2.79,1,.25,1.17.2,2.57-1.28,2.8-6.93,1.1-5.69,6.44-6.16,11.14-.22,2.21,2.05,6.34-2.12,6.28-3.61-.05-1.27-4-1.8-6.09A19.49,19.49,0,0,1,440.35,282.74Z"/><path class="cls-2" d="M349.68,244.73c-3.19.05-5.08-1.22-5-4.7.05-2.65-.05-5.32-.09-8a8.24,8.24,0,0,1,0-2.48c.93-3-5.9-2.51-2.86-5.25,1.94-1.75,3-2.94,2.87-5.38-.07-1.45.8-2.06,2.21-2s1.9.95,1.93,2.29c0,2-.65,4.07,2.79,4.64,2.16.36,1.79,2.79-.46,3.18-2.41.41-2.68,1.79-2.29,3.47.91,4-2.95,9.48,3.65,11.72.19.06.26,1.32,0,1.77C351.79,244.93,350.66,244.74,349.68,244.73Z"/><path class="cls-2" d="M705.58,215.17c1.13.09,2.47-.1,2.84,1.39.48,2-.85,2.15-2.31,2.23s-2,1.05-2.19,2.3c-.26,1.73.63,2.43,2.28,2.41a1.42,1.42,0,0,1,1.58,1.49c.07,1.11-.21,2.07-1.49,2.11-2.82.07-2.47,2.06-2.46,3.88q0,5.49,0,11c0,1.4-.13,2.72-2,2.71s-2-1.37-2-2.75c0-3.16,0-6.32,0-9.48a14.21,14.21,0,0,1,0-3c.66-2.85-5.09-2.14-3-5,1.09-1.53,3.12-2.06,3.22-4.69C700.11,216.59,702.61,215.35,705.58,215.17Z"/><path class="cls-2" d="M597.57,278.72q0,6,0,12c0,1.39-.05,2.74-2,2.75s-2-1.32-2-2.72c0-8,0-16,0-24,0-1.6.43-2.59,2.24-2.48,1.6.1,1.78,1.18,1.77,2.44C597.56,270.72,597.57,274.72,597.57,278.72Z"/><path class="cls-2" d="M525.8,279.49c0,3.84,0,7.67,0,11.5,0,1.25-.15,2.34-1.76,2.45-1.85.13-2.22-.95-2.21-2.49q0-12.24,0-24.49c0-1.42.52-2.2,2-2.2s2,.85,2,2.24C525.78,270.83,525.8,275.16,525.8,279.49Z"/><path class="cls-2" d="M637.88,282.85c0,2.82,0,5.65,0,8.48,0,1.28-.17,2.31-1.86,2.23-1.45-.06-2.14-.72-2.14-2.13q0-8.73,0-17.46c0-1.51.91-2,2.26-2,1.68,0,1.76,1.14,1.76,2.39C637.87,277.19,637.88,280,637.88,282.85Z"/><path class="cls-2" d="M437,230.36c0,3.81,0,7.62,0,11.43,0,1.26.27,2.82-1.75,2.9-1.81.07-2.17-1.08-2.17-2.58q0-11.93,0-23.85c0-1.45.23-2.68,2.1-2.65,2,0,1.83,1.54,1.84,2.82C437,222.41,437,226.38,437,230.36Z"/><path class="cls-2" d="M458.15,282.85c0,2.64,0,5.29,0,7.93,0,1.34.06,2.75-1.95,2.7-1.71-.05-1.68-1.26-1.68-2.43,0-5.63,0-11.25,0-16.87,0-1.35.35-2.26,1.92-2.19s1.74,1.19,1.74,2.42C458.14,277.22,458.15,280,458.15,282.85Z"/><path class="cls-2" d="M609.06,234v-8c0-1.46.26-2.68,2.13-2.64,1.51,0,2,.91,2,2.26q0,8.46,0,16.9c0,1.38-.59,2.21-2.06,2.21s-2-.91-2-2.24C609.06,239.65,609.07,236.82,609.06,234Z"/><path class="cls-2" d="M606.46,282.68c0,2.82,0,5.64,0,8.47,0,1.27-.34,2.29-1.94,2.29s-2-.88-2-2.19c0-5.65,0-11.3,0-16.94,0-1.36.49-2.24,2-2.27,1.88,0,2.07,1.22,2.06,2.67,0,2.65,0,5.31,0,8Z"/><path class="cls-2" d="M569.59,234.15c0,2.48,0,5,0,7.45,0,1.53.08,3.12-2.15,3.11s-1.73-1.62-1.74-2.85c0-5.3,0-10.6,0-15.9,0-1.35-.06-2.75,2-2.6s1.92,1.47,1.92,2.84C569.6,228.85,569.59,231.5,569.59,234.15Z"/><path class="cls-2" d="M356.4,233.58v-8c0-1.34.48-2.25,2-2.24s1.81,1.16,1.81,2.37q0,8.2,0,16.4c0,1.16-.05,2.42-1.68,2.49-1.86.08-2.12-1.19-2.13-2.62C356.38,239.21,356.39,236.4,356.4,233.58Z"/><path class="cls-2" d="M606.65,266.75c.14,1.5-.88,2-2.45,1.95-2,0-1.86-1.38-1.87-2.74,0-1.6.57-2.5,2.33-2.34S606.58,265.09,606.65,266.75Z"/><path class="cls-2" d="M638,267.18c.07.72-.36,1.62-2.19,1.53s-2-1.24-1.93-2.64.5-2.5,2.25-2.47C638.1,263.64,637.82,265.09,638,267.18Z"/><path class="cls-2" d="M458.15,266.14c.06,1.45-.09,2.65-2,2.56-1.78-.07-1.59-1.29-1.61-2.43,0-1.38,0-2.76,2-2.64C458.14,263.74,458.09,265,458.15,266.14Z"/><path class="cls-3" d="M611.26,215.19c1.62,0,1.91,1.09,1.92,2.55,0,1.64-.69,2.4-2.32,2.32s-1.8-1.05-1.82-2.32C609,216.28,609.33,215.16,611.26,215.19Z"/><path class="cls-3" d="M567.28,220.09c-2-.12-1.53-1.68-1.61-2.88s.34-2.17,1.9-2.11c1.79.08,2,1.17,2,2.62C569.6,219.35,568.91,220.14,567.28,220.09Z"/><circle class="cls-4" cx="170.78" cy="114.56" r="17"/><path class="cls-1" d="M170.78,98.56a16,16,0,1,1-16,16,16,16,0,0,1,16-16m0-2a18,18,0,1,0,18,18,18,18,0,0,0-18-18Z"/></g></g></svg>