<svg xmlns="http://www.w3.org/2000/svg" viewBox="0 0 767.95 156.07"><defs><style>.cls-1{fill:#848484;fill-rule:evenodd;}</style></defs><g id="Layer_2" data-name="Layer 2"><g id="Layer_1-2" data-name="Layer 1"><path class="cls-1" d="M204.64,90.25c-7.37-3.37-12-4.64-16.22-4.64-4.63,0-7.58,1.69-7.58,4.43,0,7.79,26.12,5.47,26.12,23.59,0,9.9-8.22,15.59-19.8,15.59-9.06,0-13.49-2.32-18.54-5.06V113c7.37,5.06,11.79,6.74,17.48,6.74,5.06,0,7.59-1.68,7.59-4.85,0-8.42-26.13-5.26-26.13-23.8,0-9.06,7.59-15,19.6-15,5.68,0,11,1.27,17.48,4.22v9.9Z"/><path class="cls-1" d="M244.46,121.85c-1.06,0-1.9-.64-1.9-2.32v-16c0-7.59-5.9-10.53-14.75-10.53a28.06,28.06,0,0,0-14.95,4.21v8.85a19.4,19.4,0,0,1,12.85-5.69c4.63,0,6.11,2.53,5.9,5.69-14.54,4.63-20.65,6.32-20.65,14.53,0,4.43,4.21,8.64,9.69,8.64,3.79,0,7.38-1.05,11.59-4,.63,2.95,2.52,4,6.11,4a22.39,22.39,0,0,0,10.32-3.16V120c-2.53,1.68-3.37,1.9-4.21,1.9Zm-12.85-1.69a9.86,9.86,0,0,1-5.9,2.53,3.55,3.55,0,0,1-3.58-3.58c0-3.58,3-5.06,9.48-7.38v8.43Z"/><polygon class="cls-1" points="247.19 93.62 258.99 93.62 266.37 112.79 273.95 93.62 285.54 93.62 269.52 129.22 263.42 129.22 247.19 93.62 247.19 93.62"/><path class="cls-1" d="M298.39,112.79h25.07c.42-12.64-8-19.8-18.12-19.8C294.59,93,287,100.57,287,111.31s8,17.91,20.22,17.91a25.24,25.24,0,0,0,15.59-4.63v-7c-5.26,3.79-8.63,5.06-13.06,5.06-6.74,0-10.95-3.58-11.37-9.9Zm7.79-13.27c4.21,0,7.16,2.73,7.58,7.58H298.6c.42-4.85,3.16-7.58,7.58-7.58Z"/><path class="cls-1" d="M373.59,101.2H361v14.33c0,3.37,1.9,5.68,5.27,5.68a15.86,15.86,0,0,0,7.37-2.1v8a26.27,26.27,0,0,1-10.11,2.11c-7.37,0-13.69-3.37-13.69-13.06v-15h-4.85V99.09l14.54-16.43H361v11h12.64v7.58Z"/><path class="cls-1" d="M388.76,98.88H389c3.16-4,6.74-5.89,11.17-5.89,6.32,0,12.64,3.78,12.64,13.27v22.33h-11v-20c0-5.26-2.11-7.58-5.69-7.58-2.52,0-4.63,1.69-7.37,5.27v22.33H377.81V77h10.95v21.9Z"/><path class="cls-1" d="M430.05,112.79h25.07c.42-12.64-8-19.8-18.12-19.8-10.74,0-18.33,7.58-18.33,18.32s7.8,17.91,20.23,17.91a25.25,25.25,0,0,0,15.59-4.63v-7c-5.27,3.79-8.64,5.06-13.06,5.06-7,0-11.17-3.58-11.38-9.9Zm7.79-13.27c4.22,0,7,2.73,7.59,7.58H430.26c.42-4.85,3.16-7.58,7.58-7.58Z"/><path class="cls-1" d="M529.48,124.16c-7.16,3.58-12.64,5.06-20.22,5.06-20.22,0-30.13-13.06-30.13-26.33,0-13.7,11.38-26.76,31-26.76a36.84,36.84,0,0,1,18.75,4.64V92.35c-5.69-3.16-11.37-5.47-17.69-5.47-11,0-18.75,6.53-18.75,15.8s7.58,15.8,18.32,15.8c6.75,0,11.38-2.11,18.75-5.69v11.37Z"/><path class="cls-1" d="M548,98.88h.21c3.16-4,6.74-5.89,11.17-5.89,6.32,0,12.64,3.78,12.64,13.27v22.33h-11v-20c0-5.26-2.31-7.58-5.69-7.58-2.52,0-4.63,1.69-7.37,5.27v22.33H537.07V77H548v21.9Z"/><polygon class="cls-1" points="579.83 93.62 590.79 93.62 590.79 128.59 579.83 128.59 579.83 93.62 579.83 93.62"/><path class="cls-1" d="M591.42,82.24a6.11,6.11,0,1,1-6.11-6.11,6.12,6.12,0,0,1,6.11,6.11Z"/><polygon class="cls-1" points="598.79 76.98 609.75 76.98 609.75 128.59 598.79 128.59 598.79 76.98 598.79 76.98"/><path class="cls-1" d="M641.77,77V95.09a19.76,19.76,0,0,0-9.06-2.1c-10.11,0-17.07,7.37-17.07,18.11,0,10.32,7,18.12,16.44,18.12a15.08,15.08,0,0,0,9.69-3.37v2.74h11V77Zm0,42.13c-2.32,1.89-4.22,2.74-6.53,2.74-5.06,0-8.43-4.22-8.43-10.54,0-7,3.37-11,8.85-11a13,13,0,0,1,6.11,1.89v16.86Z"/><path class="cls-1" d="M671.47,103.73h.21c3.16-7.37,7-10.74,11.17-10.74,2.1,0,4,.84,7.16,3.16l-3,9.69c-2.95-1.9-4.85-2.53-6.53-2.53-4,0-6.53,3.79-9.06,10.11v15.17h-11v-35h11v10.11Z"/><path class="cls-1" d="M702.23,112.79H727.3c.63-12.64-7.8-19.8-18.12-19.8-10.74,0-18.33,7.58-18.33,18.32s8,17.91,20.22,17.91a25.24,25.24,0,0,0,15.59-4.63v-7c-5,3.79-8.42,5.06-12.85,5.06-6.95,0-11.16-3.58-11.58-9.9ZM710,99.52c4.21,0,7.16,2.73,7.59,7.58H702.44c.42-4.85,3.37-7.58,7.58-7.58Z"/><path class="cls-1" d="M743.94,98.67c3.37-4,6.74-5.68,11.37-5.68,5.27,0,12.64,3.16,12.64,13.27v22.33H757V107.31c0-5.06-2.32-7-5.48-7-2.74,0-4.84,1.47-7.58,5.69v22.54H733v-35h11v5Z"/><path class="cls-1" d="M138.7,42.43c7-7.17,10.11-10.32,9.69-12.43-.42-1.48-1.89-2.74-4-3.8-2.32-1.05-5.69-1.68-7.37-.84-.63.21-1.69,1.27-4,3.58l-2.11,2.11h0c-1.27-1.47-2.53-2.74-3.79-4A69.37,69.37,0,0,0,93.2,8.3C88.35,2.4,81.82-.55,75.08.08A20.28,20.28,0,0,0,60.34,8.51,79.42,79.42,0,0,0,24.1,28.1h0c-1.89-.84-6.74-.21-9.69,1-1.68.85-2.74,1.9-2.95,3-.42,1,0,2.31,3.37,6.73h0A76.45,76.45,0,0,0,.09,87.51a69.81,69.81,0,0,0,20.22,46.13,65.85,65.85,0,0,0,14.32,11.17,85.92,85.92,0,0,0,79.63,2.74v-.21c2.11-.85,2.95-3.16,2.11-5.48l-.21-.63c-3.37-9.27-13.69-37.5-5.26-61.73,3.58-10.32,12.64-20.85,20.22-29.07h0a68.32,68.32,0,0,1,8.22,40,61.49,61.49,0,0,1-15,34.13h0a1.57,1.57,0,0,0-.21,1v.42l.63,1.9a1.41,1.41,0,0,0,1.47.84,1.17,1.17,0,0,0,1.06-.42h0c21.7-23.81,26.33-58.57,11.37-85.95ZM46.43,95.3c-2.1,9.27-5.27,21.91-4.63,41.29h0a67.52,67.52,0,0,1-13.69-10.53,70.2,70.2,0,0,1-20-41.5C6.62,69.81,10,54.85,18,42.85h0c2.32,2.95,5.48,6.32,8.64,9.9,7.58,8.85,16.43,18.75,20.43,25.7,2.53,4,1.27,8.85-.63,16.85ZM122.9,38.64C106.47,52.75,91.51,60.12,78.24,60.33c-10.11,0-20.64-3.79-31-11.16A109.5,109.5,0,0,1,28.11,31.68l-.43-.42h0A60.23,60.23,0,0,1,56.33,16.09h0a32.82,32.82,0,0,0-1.47,12.85,29.17,29.17,0,0,0,9.9,20.23,21,21,0,0,0,15,4.84,21.19,21.19,0,0,0,13.9-7.37,30.34,30.34,0,0,0,6.32-21.49l-.63-4.42h0a69.1,69.1,0,0,1,20,14.11,30.77,30.77,0,0,1,3.58,3.8Z"/></g></g></svg>