<svg xmlns="http://www.w3.org/2000/svg" viewBox="0 0 682.62 163.9"><defs><style>.cls-1,.cls-2{fill:#848484;}.cls-2{fill-rule:evenodd;}</style></defs><g id="Layer_2" data-name="Layer 2"><g id="Layer_1-2" data-name="Layer 1"><path class="cls-1" d="M579,4.06A60,60,0,0,0,568.65,6.7a23.51,23.51,0,0,0,2.15,2.08A66.9,66.9,0,0,1,579,4.06Zm59.09,24.75a61.29,61.29,0,0,0-10.61-11.44,54.64,54.64,0,0,1-6.3,4.71,67,67,0,0,1,7.81,12,83.25,83.25,0,0,0,9.1-5.27Zm-12.9-13.27a60.78,60.78,0,0,0-13.56-7.75,27.49,27.49,0,0,1-2.6,2.69,67.24,67.24,0,0,1,10.27,9.39,51.91,51.91,0,0,0,5.89-4.33ZM608.8,6.7a59.91,59.91,0,0,0-10.39-2.64,66.9,66.9,0,0,1,8.23,4.72A23.63,23.63,0,0,0,608.8,6.7ZM588.72,0c35.44,0,64.14,29,64.14,64.65s-28.7,64.65-64.14,64.65-64.13-29-64.13-64.65S553.29,0,588.72,0Zm10.69,13.14a26.4,26.4,0,0,0,4.8-2.53A63.48,63.48,0,0,0,593.42,5a92.26,92.26,0,0,1,6,8.15Zm-9.25,2a28.79,28.79,0,0,0,6.44-1.05,90.73,90.73,0,0,0-6.44-8.53v9.58Zm8.06,1.47A31.79,31.79,0,0,1,590.16,18V28.54a58.58,58.58,0,0,0,13.45-1.88,89.48,89.48,0,0,0-5.39-10Zm8.53-4.27A29.66,29.66,0,0,1,601,15.6a92.9,92.9,0,0,1,5.43,10.26,56.08,56.08,0,0,0,10.42-4.49,64.36,64.36,0,0,0-10.07-9ZM578,13.14A94.42,94.42,0,0,1,584,5a63.2,63.2,0,0,0-10.8,5.62,26.74,26.74,0,0,0,4.8,2.53Zm9.25-7.57a92.49,92.49,0,0,0-6.44,8.53,28.88,28.88,0,0,0,6.44,1.05V5.57ZM552.74,114.15a14,14,0,0,0,5.92,1c3.28-.2,7.59-1.84,11.69-3.38a179.72,179.72,0,0,1,17.45-4.62,4.61,4.61,0,0,0,3.79-2.77c.62-1.13.21-2.77-.1-4.72a66.52,66.52,0,0,1-.92-7.9c-.1-2.88-.21-5.44-4.72-8.31s-7.39-6.26-7.08-8.83,3.28-4.72,3.28-4.72-.72-2.15-.41-3.08,3.08-.61,3.08-.61a20.4,20.4,0,0,1-.21-3.9c.21-.82,1.65-.41,1.65-.41l1.33-.82a29.85,29.85,0,0,1-1.44-3.6,1.91,1.91,0,0,1,2.06-2.56c1.64,0,3.69-.21,8.62-1.33S603.81,43,615.4,41.15s20.63,7,20.63,7,18.47,17.34,6.36,36.94c-10.51,17-23.91,12.72-23.91,12.72s-2.36,1.13-1.23,6.06,8.21,9,8.21,9l.57.26a61.7,61.7,0,0,0,13.72-81.95,90.27,90.27,0,0,1-9.48,5.48c.86,1.89,1.64,3.84,2.33,5.82a31.34,31.34,0,0,0-3.76-1.87c-.37-.91-.76-1.82-1.16-2.71-1,.46-2,.9-3,1.33a25.89,25.89,0,0,0-6-.78c2.67-.93,5.28-2,7.81-3.14a64.41,64.41,0,0,0-7.7-11.74,58.19,58.19,0,0,1-11.18,4.93,93.79,93.79,0,0,1,3.81,11,20.93,20.93,0,0,0-2.7,1,90.34,90.34,0,0,0-3.88-11.24,60.91,60.91,0,0,1-14.62,2.09V43.46a92.14,92.14,0,0,0,16.43-1.75,20.61,20.61,0,0,0-4.05,3.62,96.75,96.75,0,0,1-12.38,1v4.15c-.65,0-1.33.06-2,.06a7.26,7.26,0,0,0-.83.05V31.41a61.76,61.76,0,0,1-6.7-.51,23.42,23.42,0,0,0-2.35-3.27,61,61,0,0,0,9,.91V18a31.87,31.87,0,0,1-8.06-1.41q-2.33,3.75-4.29,7.73c-.74-.62-1.52-1.21-2.33-1.77,1.19-2.38,2.49-4.71,3.87-7a29.29,29.29,0,0,1-5.77-3.25,63.37,63.37,0,0,0-7.22,6,26.85,26.85,0,0,0-3.43-.63,68,68,0,0,1,8.33-7.29,27.49,27.49,0,0,1-2.6-2.69,61.34,61.34,0,0,0-37.89,54.48c.37-.34,6.13-5.54,8.81-6.14s4.92-5.44,4.92-6.26-5.24-13.57,1.13-22.06c5.54-7.39,14.06-11.19,27.5-3.7s10.88,18.27,8.31,21.76-3.69,4.62-3.28,6.26,1.64,2.87,1.13,3.69S573.33,57,573.33,57a8.35,8.35,0,0,1,.51,2.36c-.1.62-1.54.51-1.54.51a3.86,3.86,0,0,1,.11,1.75c-.21.72-2.57.31-2.57.31s.51,4.41-5.34,3.69-7.08-2.56-8.82-1.23-1.44,3.08-.21,8.21,1.75,16.73,1.75,16.73l3.54,2.51s5.39.26,6.67.36,2.72.46,3.54.51,4.21-2.62,6-3,2.36.11,2.36.57a8.21,8.21,0,0,1-.51,1.74s2.87-1.07,3.9-.82,1.59,1.34.82,5-2.36,6.06-5.59,6.41-5.39-1.18-7.7-1.12-9.13,3.23-14.62,2.77-6.93-2.77-6.93-2.77a27.4,27.4,0,0,0-2.15,4.87,7.89,7.89,0,0,0,.06,2.65,60.7,60.7,0,0,0,6.13,5.19Z"/><path class="cls-1" d="M558,134.63c-3.39.62-11.75-.41-16.68-6.41-4.19-5.11-6.56-17.4-5.9-17.91s6.93,4.47,13.4,10.37S561.43,134,558,134.63Zm-15.19,1c-.51.72-9.51,3.28-19.19-2.36-9.85-5.75-14.63-16.44-14.47-16.93.31-.93,6.88.61,19.3,7.59s15.08,11,14.36,11.7Zm-8.41-12.21c-.72.3-9.55-4-12.11-15s.8-18.57,1.54-18.88c1.23-.51,5.13,6,8,15.91s3.7,17.65,2.57,18Zm-11.08-4.67c-1.08.36-10.68-3.65-17.6-12-5.91-7.13-8.67-18.93-8.11-19.29s8.62,6.62,15.19,14.06,11.59,16.88,10.52,17.24Zm-6.11-16c-1.44-.31-5.59-5-5-16.78.36-7.49,6.22-17.07,7.29-17,1.43,0,2.1,7,1.48,16.11s-2.3,18-3.74,17.7Zm-21.91-44c1.08-.82,6.06,7.69,9.19,14.78,2.65,6,6.05,18.93,4.66,19.39-.87.29-8-4.16-12-14.93-3.23-8.68-2.4-18.82-1.85-19.24Zm24.06-8.93c1,.26.57,8-2.36,16.11s-6.92,15.29-7.79,14.78-2.52-10.11.25-17.39,8.93-13.76,9.9-13.5Zm-10.31,6.41c-.77-1-1.15-9.67,4.67-17.08,5.64-7.18,10.57-9.44,11.49-9s-2.15,8.67-6,14.47-9.57,12.4-10.21,11.59ZM507.4,41.82c-1.32-.66-1.21-7.35,2.1-14.22,2.93-6.05,9.24-11.9,10.32-11.49s-1.21,9.1-3.65,14.62c-2.1,4.77-7.64,11.65-8.77,11.09Zm-5.29-9.91c1-.2,3.7,7.39,4.21,17.65s-.51,18.27-1.23,18.27-6-4.41-6.31-15.29,2.31-20.42,3.33-20.63Zm106.72,132c-1.54.51-2.05-6.16-14.88-14.88-2-1.39-4-2.56-5.71-3.53-1.49.86-3.08,1.84-4.75,3-12.83,8.73-13.34,15.4-14.88,14.88s-4-3.28-4-3.28,8.75-10.77,19.24-16.77c-6.13-2.73-9.6-2.8-9.6-2.8s-4.43,7.39-18.16,6.57-21-3.9-23.29-5.44c-.55-.37-2.88-2.77,14.57-4.41,16.38-1.54,29.32-.55,40.69,4,11.69-5,25-6.14,42-4.54,17.44,1.64,15.11,4,14.57,4.42-2.26,1.53-9.55,4.61-23.3,5.43s-18.16-6.56-18.16-6.56-3.87.08-10.68,3.29c11,5.84,20.33,17.36,20.33,17.36s-2.47,2.77-4,3.29Zm10.57-29.79c-3.38-.62,2.72-8.06,9.19-14s12.72-10.88,13.39-10.36-1.71,12.79-5.9,17.9c-4.93,6-13.29,7-16.68,6.42Zm15.19,1c-.72-.72,1.95-4.72,14.37-11.69s19-8.52,19.29-7.6c.16.5-4.62,11.19-14.47,16.93-9.68,5.65-18.68,3.08-19.19,2.36ZM643,122.9c-1.12-.31-.3-8,2.57-18s6.77-16.41,8-15.9c.74.31,4.11,7.9,1.54,18.88s-11.39,15.29-12.11,15Zm11.09-4.67c-1.08-.36,3.95-9.8,10.52-17.24s14.62-14.41,15.18-14-2.2,12.16-8.1,19.29c-6.93,8.36-16.53,12.36-17.6,12Zm6.1-16c-1.43.3-3.13-8.57-3.74-17.7s0-16.06,1.49-16.12c1.07,0,6.92,9.55,7.28,17,.56,11.74-3.59,16.47-5,16.78Zm21.91-44c.56.43,1.38,10.56-1.85,19.25-4,10.77-11.12,15.22-12,14.93-1.39-.47,2-13.39,4.67-19.4,3.13-7.08,8.1-15.6,9.18-14.78ZM658,49.33c1-.26,7.13,6.21,9.9,13.49s1.13,16.88.26,17.39-4.88-6.67-7.8-14.77S657.06,49.58,658,49.33Zm10.31,6.41c-.63.81-6.38-5.75-10.21-11.59s-6.87-14-5.95-14.47,5.85,1.79,11.49,9c5.83,7.41,5.44,16.11,4.67,17.08ZM670,41.27c-1.12.57-6.67-6.31-8.77-11.08-2.43-5.52-4.72-14.21-3.64-14.62S665,21,667.94,27.06c3.32,6.86,3.42,13.55,2.1,14.21Zm5.29-9.9c1,.2,3.64,9.75,3.33,20.63s-5.59,15.28-6.31,15.28-1.74-8-1.23-18.26,3.18-17.86,4.21-17.65Z"/><path class="cls-2" d="M66,97c0,2.35-.2,13.91-3.72,23.12-3.92,10.18-14.31,14.1-22,14.1-17.83,0-21.75-12.53-21.75-29.58V46.4H0v65.83C0,132,11.76,147.69,32.33,147.69c13.71,0,26.25-5.09,33.7-17.44h.39v14.5H84.64V46.4H66V97Z"/><path class="cls-2" d="M120.12,46.4H101.9v98.35h18.62V91.27c0-19.21,5.09-23.52,7.83-26.26a25.56,25.56,0,0,1,18-7.25c15.67,0,22.53,8.82,22.53,25.08v61.91h18.61v-68c0-31.55-30.37-33.31-37.22-33.31-9.8,0-23.51,5.09-29.78,17.44h-.4V46.4Z"/><path class="cls-2" d="M221.58,144.75V46.4H203v98.35ZM201.2,23.47h22.14V3.29H201.2V23.47Z"/><path class="cls-2" d="M316.41,77.94c-1-21.35-16.65-34.48-37.42-34.48-31.15,0-45.65,24.1-45.65,52.9,0,29,12.54,51.33,44.08,51.33,21.75,0,38.21-13.52,39.77-35.66H298.58c-1,14.11-8.62,22.14-21,22.14-17.83,0-24.69-15.47-24.69-38.59S259.79,57,277.62,57c13.32,0,19.2,8.62,20.18,21Z"/><path class="cls-2" d="M412.22,99.1V89.9c0-27.24-13.91-45.85-43.31-46.44-31.15,0-45.65,24.1-45.65,52.9,0,29,12.54,51.33,44.09,51.33,23.51,0,40.75-11.17,43.69-33.5H391.45c-2.16,14.3-9.41,20-23.91,20-19,0-26.06-17.83-24.68-35.07ZM342.86,86.17c0-16.06,9.2-29.19,24.68-29.19,18,0,25.47,12.74,25.08,29.19Z"/><path class="cls-2" d="M449.86,144.75V59.33h22.73V46.4H449.86V30.72c-.59-10.77,5.49-13.51,16.07-13.51,3.13,0,6.27.39,9.4.58V2.31C470.82,1.53,466.52.36,462,.36,448.1.36,431.84,6,431.25,27.59V46.4h-19.2V59.33h19.2v85.42Z"/></g></g></svg>