<svg xmlns="http://www.w3.org/2000/svg" viewBox="0 0 181.87 181.87"><defs><style>.cls-1{fill:#e911bd;}.cls-2,.cls-3{fill:none;stroke:#e911bd;stroke-miterlimit:10;}.cls-3{stroke-width:2px;}</style></defs><title>drizzle-feature-4-icon</title><g id="Layer_2" data-name="Layer 2"><g id="Layer_2-2" data-name="Layer 2"><path class="cls-1" d="M90.88,29.5h0a8.6,8.6,0,0,1,4.13.95l46.16,26.7a9.45,9.45,0,0,1,4.14,7.16l0,53.33a9.42,9.42,0,0,1-4.13,7.15L95.11,151.41a9.36,9.36,0,0,1-8.26,0l-46.16-26.7a9.44,9.44,0,0,1-4.13-7.16l0-53.32a9.4,9.4,0,0,1,4.12-7.16L86.75,30.45a8.63,8.63,0,0,1,4.13-.95m0-2a10.43,10.43,0,0,0-5.13,1.22L39.64,55.34a11.35,11.35,0,0,0-5.12,8.89l0,53.32a11.43,11.43,0,0,0,5.13,8.9l46.16,26.69a11.35,11.35,0,0,0,10.26,0l46.11-26.63a11.37,11.37,0,0,0,5.13-8.88l0-53.33a11.39,11.39,0,0,0-5.13-8.89L96,28.72a10.54,10.54,0,0,0-5.13-1.22Z"/><path class="cls-1" d="M109.37,91.3l-7.52,11.85v32l30.45-17.58V78.06ZM109.25,93v5.8l-5.79,3.34ZM107,124.09l-.4-.7,15-8.64.4.69Zm0-3.11-.4-.69,20.58-11.88.4.69Zm0-3.11-.4-.69,20.58-11.88.4.69Zm0-5.64-.4-.69,20.58-11.88.4.69Zm0-3.11-.4-.69,20.58-11.88.4.69Zm0-3.1-.4-.69,20.58-11.88.4.69Z"/><path class="cls-2" d="M47.86,79.37l.2.12c-.05.09,0,.19.12.29a3.42,3.42,0,0,0,.55.83q5.27,7,10.55,14.07c.89,1.17,1.72,2.39,2.68,3.5a.54.54,0,0,0,0,.11l.07.12v.12c-1,.25-1.92.52-2.89.76a24.63,24.63,0,0,1-2.93.75c-1.2-.37-2.4-.72-3.6-1.1-1.4-.43-2.77-.74-4.18-1.27L47.14,95.3c-.23-.39-.36-.7.06-.66s.29-.22.06-.56-.44-.63-.65-1-.18-.34,0-.38c.71-.17.7-.18,0-1.14,0-.06-.09-.1-.13-.16-.27-.31-.28-.51,0-.49s.4-.27.33-.66c-.25-1.54-.51-3.07-.75-4.6a4.12,4.12,0,0,1,0-2.31C46.7,82.11,47.26,80.72,47.86,79.37Z"/><path class="cls-1" d="M83.88,126.33c.14.14,0,.29.19.44v.2c-.23-.17-.18,0-.22.13-.68,2.15-1.37,4.29-2,6.45-.11.33-.23.33-.62,0-2.74-2.49-5.49-4.95-8.24-7.43-.88-1.33-1.87-2.58-2.82-3.87-.64-.87-1.23-1.77-2-2.58q0-.06,0-.09c.88.09,1.63-.09,2.48-.08a5.51,5.51,0,0,1,1.76,0l.66,6.44.16.13,3.79-3.9c.62.33,1.23.76,1.84,1.16,1.31.87,2.63,1.74,4,2.57C83.16,126.13,83.59,126.6,83.88,126.33Z"/><path class="cls-1" d="M56.87,116.9c-2.83-.74-5.66-1.48-8.48-2.19-.4-.1-.54-.2-.65-.7-.63-2.83-1.29-5.67-2-8.5a1.07,1.07,0,0,0-.21-.62s0,0,0,0l0,0v-.51l.19-.1a.66.66,0,0,0,.42.56c1,.43,2,1,3,1.47,1.27.66,2.54,1.28,3.81,1.92.87,1.92,1.74,3.85,2.64,5.77a23.21,23.21,0,0,0,1.36,2.8A.11.11,0,0,1,56.87,116.9Z"/><path class="cls-1" d="M45.7,104.3c.49-1.43,1.11-2.74,1.68-4.1.35-.85.73-1.69,1.1-2.53,1.41.53,2.78.84,4.18,1.27,1.2.38,2.4.73,3.6,1.1-.13.48-.59.55-.87.85s-.92.52-1.09,1.12c-.38,0,.09.32.11.47a1.91,1.91,0,0,0,.18.69q1,2.61,2.08,5.23c.27.68.59,1.37.88,2.06a3.65,3.65,0,0,0,.08-1.45c-.06-.54-.2-1.15.1-1.47L61.86,111l.11.1,1,4.15a.81.81,0,0,0,.14-.6c0-1.44-.12-3-.13-4.46a10.51,10.51,0,0,0-.28-2.47v-.62a9.48,9.48,0,0,0-.1-1.47c-.1-1.73-.17-3.45-.34-5.21a7.12,7.12,0,0,0-.17-1.85v-.12L62,98.29a.54.54,0,0,1,0-.11,1.31,1.31,0,0,0-.11-.55c-.38-1.14-.77-2.29-1.12-3.42a12.12,12.12,0,0,1-.8-2.75l.92.55a2,2,0,0,0,.65.45L69.31,97c.54.31.59.41.4.78-.34.69-.69,1.36-1,2.06a6.06,6.06,0,0,0-.75,1.82.1.1,0,0,1-.05,0l-.08,0v.11c-.13.09-.1.3-.11.48,0,.49,0,1,0,1.47-.15,2-.2,4-.29,6a4.64,4.64,0,0,0,.09,1c-.23,0-.19.19-.2.37-.06,2.1.08,4.31.11,6.47a.38.38,0,0,0,.15.36c.19-.92.38-1.83.54-2.77,0-.23.12-.38.33-.41,1.27.33,2.56.74,3.85,1.16l.24.17a27.33,27.33,0,0,0-.05,2.89c.22,0,.26-.13.34-.23.58-.79,1.18-1.57,1.74-2.39a5.5,5.5,0,0,0,1-1.66l.11-.14c.3,0,.06-.24,0-.4-.59-1.12-1.2-2.23-1.8-3.35-.11-.21-.32-.47-.19-.63.24.18.47.35.7.55l6.83,5.89c.93,3.24,1.84,6.48,2.68,9.7-.29.27-.72-.2-1.07-.42-1.33-.83-2.65-1.7-4-2.57-.61-.4-1.22-.83-1.84-1.16a1.58,1.58,0,0,0-.23-.22l-4.15-2.4c-.08,0-.15,0-.23,0a5.51,5.51,0,0,0-1.76,0c-.85,0-1.6.17-2.48.08a4.46,4.46,0,0,0-1.71-1.47c-.66-.34-1.32-.74-2-1.14s-1.42-.86-2-.68c-1.08-1.09-2.05-2.32-3.09-3.45a15.16,15.16,0,0,0-1.68-1.8,1.54,1.54,0,0,0-.59-.43l-4.22-2.34c-1.27-.64-2.54-1.26-3.81-1.92-1-.51-2-1-3-1.47A.66.66,0,0,1,45.7,104.3Z"/><path class="cls-1" d="M62.08,98.53a7.12,7.12,0,0,1,.17,1.85c.17,1.76.24,3.48.34,5.21a9.48,9.48,0,0,1,.1,1.47L55,102.49c-.21-.13-.43-.32-.65-.48.17-.6.74-.73,1.09-1.12s.74-.37.87-.85a24.63,24.63,0,0,0,2.93-.75C60.16,99.05,61.12,98.78,62.08,98.53Z"/><path class="cls-1" d="M59.93,91.46a12.12,12.12,0,0,0,.8,2.75c.35,1.13.74,2.28,1.12,3.42a1.31,1.31,0,0,1,.11.55c-1-1.11-1.79-2.33-2.68-3.5q-5.28-7-10.55-14.07a3.42,3.42,0,0,1-.55-.83c2.1,2.09,4.2,4.2,6.31,6.29C56.3,87.87,58.08,89.73,59.93,91.46Z"/><path class="cls-2" d="M62,98.29l.07.12Z"/><path class="cls-2" d="M67.88,101.68a.1.1,0,0,0,.05,0,1.13,1.13,0,0,0,.26,0c4.15-.68,8.31-1.36,12.45-2.06.3-.06.69,0,.86-.26.36,0,.56.17.7.68.52,1.92,1.06,3.84,1.6,5.76a1.25,1.25,0,0,1,0,.68c-.36,1.61-.69,3.24-1.07,4.82-.13.52.36.9.64,1.34-.2.19-.53.13-.77.22s-.28.18,0,.56c.57.74.55.75.07,1a1,1,0,0,1-.26.1c-.39,0-.4.25,0,.74.3.33.21.47,0,.58-.46.27-.9.58-1.34.88l-6.83-5.89c-.23-.2-.46-.37-.7-.55a11.21,11.21,0,0,1-.79-1c-1.68-2.46-3.38-4.91-5.07-7.36v-.11Z"/><path class="cls-1" d="M81.5,99.32c-.17.28-.56.2-.86.26-4.14.7-8.3,1.38-12.45,2.06a1.13,1.13,0,0,1-.26,0,6.06,6.06,0,0,1,.75-1.82c.34-.7.69-1.37,1-2.06.19-.37.14-.47-.4-.78L61.5,92.46a2,2,0,0,1-.65-.45c2.84,1.63,5.69,3.25,8.53,4.92a5.71,5.71,0,0,0,2.31.62c3.12.56,6.22,1.07,9.33,1.61A3.38,3.38,0,0,1,81.5,99.32Z"/><path class="cls-1" d="M56.87,116.9a.11.11,0,0,0,0-.08h0a18.61,18.61,0,0,0,2.29-.19c1.1-.08,2.13-.3,3.27-.3l-.33,3a39.58,39.58,0,0,1,6.4,3.6l-.31-3.28c.72.81,1.31,1.71,2,2.58,1,1.29,1.94,2.54,2.82,3.87a9.17,9.17,0,0,1-2.6.23,8.14,8.14,0,0,1-4.55-1.55,22.62,22.62,0,0,0-3-1.67,7.61,7.61,0,0,1-1.76-1.58A41.51,41.51,0,0,1,56.87,116.9Z"/><path class="cls-2" d="M68.19,119.65l.31,3.28a39.58,39.58,0,0,0-6.4-3.6l.33-3s0,0,0,0c.58-.18,1.29.24,2,.68s1.33.8,2,1.14a4.46,4.46,0,0,1,1.71,1.47S68.16,119.61,68.19,119.65Z"/><path class="cls-1" d="M72.4,119.51c.08,0,.15,0,.23,0l4.15,2.4a1.58,1.58,0,0,1,.23.22l-3.79,3.9-.16-.13Z"/><path class="cls-1" d="M52.88,108.25l4.22,2.34a1.54,1.54,0,0,1,.59.43c-.16,1-.35,2.08-.48,3.16a24.19,24.19,0,0,0-.34,2.63h0a23.21,23.21,0,0,1-1.36-2.8C54.62,112.1,53.75,110.17,52.88,108.25Z"/><path class="cls-1" d="M67.81,101.83c1.69,2.45,3.39,4.9,5.07,7.36a11.21,11.21,0,0,0,.79,1c-.13.16.08.42.19.63.6,1.12,1.21,2.23,1.8,3.35.09.16.33.43,0,.4a1.84,1.84,0,0,0-.69-.5l-7.6-4.28c.09-2,.14-4,.29-6,0-.47,0-1,0-1.47C67.71,102.13,67.68,101.92,67.81,101.83Z"/><path class="cls-1" d="M54.3,102c.22.16.44.35.65.48l7.74,4.57v.62c-.33,1-.48,2.25-.72,3.38l-.11-.1a25.7,25.7,0,0,0-1.1-3c-.11-.3-.29-.26-.43-.27l-2.63-.32a1.92,1.92,0,0,1-.53-.67l-2.76-4.2C54.39,102.33,53.92,102,54.3,102Z"/><path class="cls-1" d="M67.4,109.79l7.6,4.28a1.84,1.84,0,0,1,.69.5l-.11.14c-1,.32-2,.79-2.94,1.2-.07,0-.09.13-.13.19l-.24-.17c.06-.21-.16-.36-.3-.5-.68-.73-1.4-1.43-2.07-2.18-.43-.48-.59-.41-.75-.13a5.36,5.36,0,0,1-.91,1.34,2.61,2.61,0,0,1-.23-.89c-.18-.94-.24-1.84-.52-2.82A4.64,4.64,0,0,1,67.4,109.79Z"/><path class="cls-1" d="M56.87,116.81a24.19,24.19,0,0,1,.34-2.63c.13-1.08.32-2.11.48-3.16a15.16,15.16,0,0,1,1.68,1.8c1,1.13,2,2.36,3.09,3.45,0,0,0,.06,0,0-1.14,0-2.17.22-3.27.3A18.61,18.61,0,0,1,56.87,116.81Z"/><path class="cls-1" d="M54.41,102.48l2.76,4.2a1.92,1.92,0,0,0,.53.67l0,.19c-.3.32-.16.93-.1,1.47a3.65,3.65,0,0,1-.08,1.45c-.29-.69-.61-1.38-.88-2.06q-1.05-2.62-2.08-5.23A1.91,1.91,0,0,1,54.41,102.48Z"/><path class="cls-1" d="M72.51,116.1c0-.06.06-.16.13-.19,1-.41,1.91-.88,2.94-1.2a5.5,5.5,0,0,1-1,1.66c-.56.82-1.16,1.6-1.74,2.39-.08.1-.12.25-.34.23A27.33,27.33,0,0,1,72.51,116.1Z"/><path class="cls-1" d="M62,111.06c.24-1.13.39-2.33.72-3.38a10.51,10.51,0,0,1,.28,2.47c0,1.47.18,3,.13,4.46a.81.81,0,0,1-.14.6Z"/><path class="cls-1" d="M68.24,114.46a.34.34,0,0,0,.18.31c-.21,0-.29.18-.33.41-.16.94-.35,1.85-.54,2.77a.38.38,0,0,1-.15-.36c0-2.16-.17-4.37-.11-6.47,0-.18,0-.41.2-.37.28,1,.34,1.88.52,2.82A2.61,2.61,0,0,0,68.24,114.46Z"/><path class="cls-2" d="M67.88,101.68l-.08,0Z"/><polygon class="cls-1" points="72.52 50.84 78.24 69.19 97.96 65.53 104.34 54.15 72.52 50.84"/><polygon class="cls-1" points="106.51 55.4 100.12 66.77 80.43 70.46 109.34 72.1 106.51 55.4"/><circle class="cls-3" cx="90.93" cy="90.93" r="89.93"/></g></g></svg>