<svg xmlns="http://www.w3.org/2000/svg" viewBox="0 0 181.87 181.87"><defs><style>.cls-1{fill:none;stroke:#e911bd;stroke-miterlimit:10;stroke-width:2px;}.cls-2{fill:#e911bd;}</style></defs><title>drizzle-feature-3-icon</title><g id="Layer_2" data-name="Layer 2"><g id="Layer_2-2" data-name="Layer 2"><circle class="cls-1" cx="90.93" cy="90.93" r="89.93"/><ellipse class="cls-1" cx="90.93" cy="48.17" rx="39.58" ry="11.72"/><path class="cls-1" d="M51.35,48.17V133.7c0,6.47,17.72,11.72,39.58,11.72s39.59-5.25,39.59-11.72V48.17"/><path class="cls-2" d="M101.3,111.72a3.84,3.84,0,0,0-.41-7.66h-.14a3.82,3.82,0,0,0-3.69,4,3.94,3.94,0,0,0,1.09,2.53c-2.32,4.58-5.88,7.94-11.21,10.74a18.54,18.54,0,0,1-11.15,2.12,9.48,9.48,0,0,1-7-4,10,10,0,0,1-.55-10.59,16.16,16.16,0,0,1,4.65-5.48c-.27-.88-.68-2.39-.89-3.48-9.91,7.18-8.89,16.89-5.88,21.47,2.26,3.42,6.84,5.54,11.9,5.54a16.88,16.88,0,0,0,4.1-.48A26.26,26.26,0,0,0,101.3,111.72Z"/><path class="cls-2" d="M113.33,103.24c-5.19-6.09-12.85-9.44-21.61-9.44H90.63a3.75,3.75,0,0,0-3.35-2h-.14a3.83,3.83,0,0,0,.14,7.66h.14a3.87,3.87,0,0,0,3.35-2.33H92a26.06,26.06,0,0,1,14.56,4.45,18.27,18.27,0,0,1,7.25,8.75,9.46,9.46,0,0,1-.14,8.07,10,10,0,0,1-9.36,5.61,17.52,17.52,0,0,1-6.7-1.44c-.76.68-2.12,1.78-3.08,2.46a21.07,21.07,0,0,0,8.82,2.12c6.56,0,11.42-3.62,13.26-7.25C118.6,115.89,118.46,109.05,113.33,103.24Z"/><path class="cls-2" d="M78.6,112.88a3.83,3.83,0,0,0,3.82,3.69h.14a3.83,3.83,0,0,0-.14-7.66h-.13a1.15,1.15,0,0,0-.48.07A25.08,25.08,0,0,1,78.25,93.8a18.36,18.36,0,0,1,4-10.6c2-2.53,5.81-3.76,8.41-3.83C98,79.23,101,88.26,101.23,91.89c.89.2,2.39.68,3.42,1C103.83,81.83,97,76.09,90.43,76.09c-6.16,0-11.83,4.44-14.09,11-3.15,8.75-1.1,17.16,2.73,23.79A3.1,3.1,0,0,0,78.6,112.88Z"/></g></g></svg>