<svg xmlns="http://www.w3.org/2000/svg" xmlns:xlink="http://www.w3.org/1999/xlink" viewBox="0 0 440.86 474.1"><defs><style>.cls-1{fill:url(#linear-gradient);}.cls-2{fill:url(#linear-gradient-2);}.cls-3{fill:url(#linear-gradient-3);}.cls-4{opacity:0.75;}.cls-5{fill:url(#radial-gradient);}.cls-6{fill:none;stroke:#3fe0c5;stroke-miterlimit:10;}</style><linearGradient id="linear-gradient" x1="229.36" y1="232.03" x2="424.83" y2="119.17" gradientUnits="userSpaceOnUse"><stop offset="0" stop-color="#33262a" stop-opacity="0"/><stop offset="1" stop-color="#3fe0c5"/></linearGradient><linearGradient id="linear-gradient-2" x1="220.43" y1="472.95" x2="220.43" y2="217.76" gradientUnits="userSpaceOnUse"><stop offset="0" stop-color="#3fe0c5"/><stop offset="1" stop-color="#33262a" stop-opacity="0"/></linearGradient><linearGradient id="linear-gradient-3" x1="7.93" y1="114.49" x2="213.58" y2="233.23" xlink:href="#linear-gradient-2"/><radialGradient id="radial-gradient" cx="249.12" cy="213.18" r="202.79" xlink:href="#linear-gradient-2"/></defs><title>truffle-boxes-header</title><g id="Layer_2" data-name="Layer 2"><g id="Layer_2-2" data-name="Layer 2"><path class="cls-1" d="M219.93,0V220.51L440.28,347.73V127.22Zm88.74,182.85V140.13l42.87,24.75V207.6Zm42.87,25.9v42.72l-42.87-24.75V184Zm-43.87-26.48L264.8,157.52V114.8l42.87,24.75Zm1-43.3V96.26L351.54,121v42.72Zm43.87,26.49,42.87,24.75v42.71l-42.87-24.75Zm0-1.16V121.59l42.87,24.75v42.71Zm0-43.87V77.72l42.87,24.75v42.71Zm-1-.57L308.67,95.1V52.39l42.87,24.75ZM307.67,94.53,264.8,69.78V27.06l42.87,24.75Zm0,1.15V138.4L264.8,113.65V70.93ZM263.8,113.07,220.93,88.32V45.6L263.8,70.35Zm0,1.15v42.72l-42.87-24.75V89.47Zm-42.87,19.12,42.87,24.75v42.72l-42.87-24.75Zm43.87,25.33,42.87,24.75v42.72L264.8,201.39Zm42.87,68.62V270L264.8,245.26V202.54Zm1,.58,42.87,24.75v42.72l-42.87-24.75Zm43.87,25.33L395.41,278v42.72l-42.87-24.76Zm0-1.16V209.33l42.87,24.75v42.71Zm43.87-17.38,42.87,24.75v42.71l-42.87-24.75Zm0-1.16V190.79l42.87,24.75v42.71Zm0-43.87V146.92l42.87,24.75v42.71Zm42.87-19.12-42.87-24.75V103.05l42.87,24.75ZM263.8,26.48V69.2L220.93,44.45V1.73ZM220.93,177.21,263.8,202v42.72l-42.87-24.75Zm175.48,144V278.53l42.87,24.75V346Z"/><path class="cls-2" d="M220.43,219.64.75,346.44l-.75.43L220.43,474.1,440.11,347.3l.75-.43Zm0,152-42.89-24.76,42.89-24.75,42.88,24.75Zm43.88-24.18L307.2,372.2,264.31,397,221.43,372.2ZM219.43,372.2,176.54,397,133.66,372.2l42.88-24.75Zm-42.89-25.91-42.88-24.75,42.88-24.75,42.89,24.75Zm44.89-24.75,42.88-24.75,42.89,24.75-42.89,24.75Zm43.88-25.33,42.89-24.75,42.89,24.75L308.2,321Zm-1-.58-42.88-24.75,42.88-24.75,42.89,24.75Zm-1,.58L220.43,321l-42.89-24.75,42.89-24.75Zm-86.77-.58-42.88-24.75,42.88-24.75,42.89,24.75Zm-1,.58L132.66,321,89.77,296.21l42.89-24.75Zm-43.88,25.33L88.77,346.29,45.89,321.54l42.88-24.75Zm1,.58,42.88,24.75-42.88,24.76L89.77,346.87Zm-1,50.08L88.77,397,45.89,372.2l42.88-24.75Zm1,.58,42.88,24.75-42.88,24.76L89.77,397.53Zm43.88,25.33,42.89,24.75-42.89,24.76-42.88-24.76Zm1-.58,42.89-24.75,42.88,24.75-42.88,24.76Zm86.77.58,42.89,24.75-42.89,24.76-42.88-24.76Zm1-.58,42.89-24.75,42.89,24.75L308.2,422.29ZM309.2,372.2l42.89-24.75L395,372.2,352.09,397Zm-1-.57-42.89-24.76,42.89-24.75,42.89,24.75Zm1-50.09,42.89-24.75L395,321.54l-42.88,24.75Zm-45.89-76L220.43,270.3l-42.89-24.75,42.89-24.76ZM44.89,322.12l42.88,24.75L44.89,371.63,2,346.87ZM177.54,448.2l42.89-24.76,42.88,24.76L220.43,473ZM396,371.63l-42.88-24.76L396,322.12l42.89,24.75Z"/><path class="cls-3" d="M.58,127.22V347.73L220.93,220.51V0Zm219.35,48.84-42.87,24.75V158.09l42.87-24.75ZM1.58,171.67l42.87-24.75v42.71L1.58,214.38ZM89.32,207.6V164.88l42.87-24.75v42.72ZM132.19,184v42.72L89.32,251.47V208.75ZM88.32,208.17,45.45,232.92V190.21l42.87-24.75Zm1-44.44V121l42.87-24.75V139Zm43.87-24.18,42.87-24.75v42.72l-42.87,24.75Zm0-1.15V95.68l42.87-24.75v42.72Zm0-43.87V51.81l42.87-24.75V69.78Zm-1,.57L89.32,119.86V77.14l42.87-24.75ZM88.32,120.43,45.45,145.18V102.47L88.32,77.72Zm0,1.16V164.3L45.45,189.05V146.34ZM1.58,215.54l42.87-24.75V233.5L1.58,258.25Zm0,43.87,42.87-24.75v42.71L1.58,302.12Zm43.87-25.33,42.87-24.75V252L45.45,276.79ZM88.32,253.2v42.71L45.45,320.67V278Zm1-.58,42.87-24.75v42.72L89.32,295.34Zm43.87-25.33,42.87-24.75v42.72L133.19,270Zm0-1.15V183.42l42.87-24.75v42.72Zm86.74-93.95-42.87,24.75V114.22l42.87-24.75Zm0-43.87-42.87,24.75V70.35L219.93,45.6Zm0-43.87L177.06,69.2V26.48L219.93,1.73ZM44.45,103.05v42.71L1.58,170.51V127.8ZM1.58,303.28l42.87-24.75v42.71L1.58,346Zm175.48-58.6V202l42.87-24.75v42.72Z"/><g class="cls-4"><circle class="cls-5" cx="218.74" cy="237.2" r="127.75"/><path id="Fill-6" class="cls-5" d="M183.25,349.6c5.22,1.62,22.72,6.81,23.3,1.28.32-3-8.86-5.9-21.47-12.14a198.64,198.64,0,0,1-48.76-34.07c-16.19-15.33-33-39.71-34.92-75.48-2.07-38.6,12.31-70.25,36.62-91.05a127.81,127.81,0,0,0-23,173.74,178.1,178.1,0,0,0,15.85,12.81c14.34,10.27,35.16,19.57,52.33,24.91"/></g><path id="Fill-6-2" data-name="Fill-6" class="cls-6" d="M180.34,350.33c5.18,1.76,22.56,7.42,23.29,1.89.4-3-8.71-6.14-21.17-12.72a198.81,198.81,0,0,1-47.92-35.39c-15.8-15.77-32-40.62-33-76.49-1.06-38.7,14.08-70,39-90.18a127.63,127.63,0,0,0-49.61,97.89c-.73,28,7.1,51.58,21.8,73A83.41,83.41,0,0,0,128.61,324c14.08,10.66,34.69,20.52,51.73,26.32"/><path id="Fill-8" class="cls-6" d="M348.32,207.56c-7.85-36.88-32.22-62.7-64.82-80.93,24.92,17.75,60,55.48,39.33,88.75-17.54,26.68-60.18,21.45-83.49,8.81-27.7-15-62.42-48.85-28.18-81.92,22.16-21.39,92.74,2.59,80.28,34.58-7.25,18.59-35.42,14.46-48.1,5.36C234,175.5,226.13,164,230.29,152.06c1.34-3.82,1.15-9.75-4.25-5.39-4,3.26-6,8.62-6.75,13.6-5.9,41.71,68.39,74,90.43,33.69,11.44-21-7.1-51.33-30.43-63.81-17.57-9.4-35.79-16-58.16-14.39-35.77,2.55-65.79,24.93-69.55,61.48-3.73,36.27,20.52,69,49.12,88.56,30,20.54,70.48,34.09,107.45,21.83,33.15-11,46.84-49,40.17-80.07"/><path id="Fill-10" class="cls-6" d="M301.67,179.31c3.55-23.9-18.05-40.3-38-47.76-23.53-8.8-54.6-4.94-71.73,14.55-12.57,14.3-11.72,35.09-5.26,51.87,9.77,25.4,31.83,43.75,57.51,51.67,18.24,5.64,40.3,8.09,58.8,2.14,27-8.67,35.75-36.8,30.17-62.56a74.16,74.16,0,0,0-5.46-16.14c-3.4-7.15-13.84-21.62.54-4a61.38,61.38,0,0,1,4.16,6.15,68.84,68.84,0,0,1,7,15.55c7.84,24.05,1.69,52.11-20.09,66.62-16.67,11.12-37.87,12.43-57.21,9.66-25.93-3.72-50.37-16.34-67.34-36.44-15.52-18.37-26.1-44.76-19.72-68.88,4.66-17.65,19-30.82,36.15-36.37,21.71-7,45.61-3.77,65.17,7.64,9.79,5.71,18.75,13.61,23.73,23.94a35.44,35.44,0,0,1,3.57,14.95,30.07,30.07,0,0,1-.49,6.28c-.13.74-1.72,2.86-1.5,1.12"/></g></g></svg>