<svg xmlns="http://www.w3.org/2000/svg" viewBox="0 0 304.69 304.69"><defs><style>.cls-1{fill:#3fe0c5;}.cls-2{fill:none;}</style></defs><title>truffle-icon-3</title><g id="Layer_2" data-name="Layer 2"><g id="Layer_2-2" data-name="Layer 2"><path id="Fill-10" class="cls-1" d="M82.37,77.5c1.39-9.34-7.05-15.75-14.84-18.67-9.2-3.44-21.34-1.93-28,5.69-4.91,5.59-4.58,13.71-2.05,20.27,3.81,9.93,12.44,17.1,22.47,20.19,7.13,2.21,15.75,3.17,23,.84,10.54-3.39,14-14.38,11.79-24.45a29,29,0,0,0-2.13-6.3c-1.33-2.8-5.41-8.45.21-1.57a26,26,0,0,1,1.62,2.41A27,27,0,0,1,97.12,82c3.06,9.4.66,20.37-7.85,26-6.52,4.35-14.8,4.86-22.36,3.78A42.36,42.36,0,0,1,40.59,97.56c-6.06-7.19-10.19-17.5-7.7-26.92,1.82-6.9,7.42-12,14.13-14.22a31.54,31.54,0,0,1,25.46,3,22.68,22.68,0,0,1,9.28,9.36,13.88,13.88,0,0,1,1.39,5.84A11.85,11.85,0,0,1,83,77.06c0,.29-.67,1.12-.59.44"/><path class="cls-2" d="M134,118V108.5L119.25,100,134,91.5V82a13,13,0,0,1,13-13H277.56a151.53,151.53,0,0,0-18.9-23A150.35,150.35,0,1,0,46,258.66,150.34,150.34,0,0,0,302.69,152.35a153.21,153.21,0,0,0-1.5-21.39H147A13,13,0,0,1,134,118Z"/><path class="cls-2" d="M147,71a11,11,0,0,0-11,11V92.65L123.25,100,136,107.35V118a11,11,0,0,0,11,11H300.89a148.68,148.68,0,0,0-22-57.92Z"/><path class="cls-1" d="M300.89,129h2A151.37,151.37,0,0,0,281.2,71h-2.34A148.68,148.68,0,0,1,300.89,129Z"/><path class="cls-2" d="M239.55,216.67v2h47.8c.33-.66.66-1.33,1-2Z"/><rect class="cls-2" x="239.55" y="202.03" width="53.37" height="2"/><path class="cls-2" d="M239.55,224.73v2h43.52c.38-.66.75-1.33,1.12-2Z"/><path class="cls-2" d="M239.55,232.79v2h38.57l.26-.4v-1.6Z"/><polygon class="cls-2" points="245.97 157.11 230.19 172.89 245.97 172.89 245.97 157.11"/><rect class="cls-2" x="239.55" y="193.98" width="53.37" height="2"/><rect class="cls-2" x="239.55" y="185.92" width="53.37" height="2"/><path class="cls-1" d="M239.55,234.79v-2h38.83v1.6q2.46-3.76,4.69-7.66H239.55v-2h44.64c1.1-2,2.15-4,3.16-6.06h-47.8v-2h48.77a149.84,149.84,0,0,0,14.36-63H246.55l-19.78,19.78v82.22h34.77a151.22,151.22,0,0,0,16.58-20.9ZM292.92,204H239.55v-2h53.37Zm0-8.05H239.55v-2h53.37Zm0-10.06v2H239.55v-2Zm-47-28.81v15.78H230.19Z"/><path class="cls-1" d="M17.06,126.27A77.6,77.6,0,0,0,35.79,140.1c4.86,2.57,8.43,3.79,8.27,5-.28,2.16-7.08,0-9.1-.74a77.85,77.85,0,0,1-20.22-10.28c-.48-.37-1-.76-1.45-1.17A49,49,0,0,0,50.5,150c25.91,0,47.14-20.17,49.24-45.83-2.32,7.06-7.28,13.16-14.83,15.66-14.45,4.79-30.26-.5-42-8.53-11.18-7.64-20.66-20.44-19.2-34.61a27.66,27.66,0,0,1,.5-3.09A148.54,148.54,0,0,0,7.44,112,43.89,43.89,0,0,0,17.06,126.27Z"/><path class="cls-1" d="M50.9,52.66c8.74-.62,15.86,2,22.73,5.63C82.75,63.16,90,75,85.52,83.22,76.91,99,47.88,86.36,50.18,70.06a8.36,8.36,0,0,1,2.64-5.32c2.11-1.7,2.18.62,1.66,2.11-1.63,4.65,1.45,9.16,5.1,11.78,5,3.56,16,5.17,18.8-2.09C83.25,64,55.67,54.66,47,63,33.62,76,47.19,89.17,58,95c9.1,4.94,25.77,7,32.62-3.44,8.09-13-5.44-28.23-15.37-34.69C72.34,55.22,61.09,50,50.5,50a48.32,48.32,0,0,0-9.06.85q-3,3.23-5.71,6.58A33,33,0,0,1,50.9,52.66Z"/><path class="cls-2" d="M193,222.65V212l12.73-7.35L193,197.35V186.74a11,11,0,0,0-11-11H3.81a148.52,148.52,0,0,0,22,57.91H182A11,11,0,0,0,193,222.65Z"/><path class="cls-1" d="M182,175.74a11,11,0,0,1,11,11v10.61l12.73,7.34L193,212v10.61a11,11,0,0,1-11,11H25.83c.43.67.86,1.34,1.3,2H182a13,13,0,0,0,13-13V213.2l14.73-8.51L195,196.19v-9.45a13,13,0,0,0-13-13H3.51c.09.66.19,1.33.3,2Z"/><path class="cls-1" d="M1.79,175.74A151.38,151.38,0,0,0,23.5,233.65h2.33a148.52,148.52,0,0,1-22-57.91Z"/><path class="cls-1" d="M2,152.35A151,151,0,0,1,7.44,112q-.62-1.51-1.14-3.12A152.36,152.36,0,0,0,0,152.35a154,154,0,0,0,1.5,21.39h2A151.81,151.81,0,0,1,2,152.35Z"/><path class="cls-1" d="M261.54,255.69q-1.43,1.5-2.88,3a150.36,150.36,0,0,1-212.62,0,152.17,152.17,0,0,1-18.91-23H24.79a152.34,152.34,0,0,0,239.48,20Z"/><path class="cls-1" d="M25.83,233.65H23.5c.42.67.85,1.34,1.29,2h2.34C26.69,235,26.26,234.32,25.83,233.65Z"/><path class="cls-1" d="M3.81,175.74c-.11-.67-.21-1.34-.3-2h-2c.1.66.18,1.33.29,2Z"/><path class="cls-1" d="M24.22,73.6A150.76,150.76,0,0,1,35.73,57.43,25.22,25.22,0,0,0,24.22,73.6Z"/><path class="cls-1" d="M152.35,2A149.35,149.35,0,0,1,258.66,46a151.53,151.53,0,0,1,18.9,23h2.35A152.35,152.35,0,0,0,38.08,51.6q1.65-.43,3.36-.75c1.49-1.63,3-3.24,4.6-4.81A149.34,149.34,0,0,1,152.35,2Z"/><path class="cls-1" d="M6.3,108.9q.53,1.6,1.14,3.12A148.54,148.54,0,0,1,24.22,73.6,25.22,25.22,0,0,1,35.73,57.43q2.75-3.36,5.71-6.58-1.71.32-3.36.75A151.93,151.93,0,0,0,6.3,108.9Z"/><path class="cls-1" d="M287.35,218.67h2.18c.32-.66.63-1.33.94-2h-2.15C288,217.34,287.68,218,287.35,218.67Z"/><path class="cls-1" d="M278.38,234.79v-.4l-.26.4Z"/><path class="cls-1" d="M304.69,152.35a154,154,0,0,0-1.5-21.39h-2a153.21,153.21,0,0,1,1.5,21.39c0,.45,0,.89,0,1.34h2C304.68,153.24,304.69,152.8,304.69,152.35Z"/><path class="cls-1" d="M283.07,226.73h2.25c.37-.66.75-1.33,1.11-2h-2.24C283.82,225.4,283.45,226.07,283.07,226.73Z"/><path class="cls-1" d="M284.19,224.73h2.24q1.62-3,3.1-6.06h-2.18C286.34,220.72,285.29,222.73,284.19,224.73Z"/><path class="cls-1" d="M283.07,226.73q-2.22,3.9-4.69,7.66v.4h-.26a151.22,151.22,0,0,1-16.58,20.9h2.73a153.18,153.18,0,0,0,21.05-29Z"/><path class="cls-1" d="M290.47,216.67a151.74,151.74,0,0,0,14.21-63h-2a149.84,149.84,0,0,1-14.36,63Z"/><path class="cls-1" d="M136,118V107.35L123.25,100,136,92.65V82a11,11,0,0,1,11-11H278.86c-.43-.67-.86-1.34-1.3-2H147a13,13,0,0,0-13,13V91.5L119.25,100,134,108.5V118a13,13,0,0,0,13,13H301.19l-.3-2H147A11,11,0,0,1,136,118Z"/><path class="cls-1" d="M300.89,129l.3,2h2c-.09-.67-.18-1.34-.28-2Z"/><path class="cls-1" d="M278.86,71h2.34l-1.29-2h-2.35C278,69.7,278.43,70.37,278.86,71Z"/><path class="cls-1" d="M151.34,97V94.78l10.34,4.43v1.71l-10.34,4.44v-2.25l7.58-2.86.7-.2-.7-.22Z"/><path class="cls-1" d="M181.09,95l.06,1.19a3,3,0,0,1,1-1,3,3,0,0,1,1.52-.39A2.29,2.29,0,0,1,186,96.11a2.87,2.87,0,0,1,1-1,2.93,2.93,0,0,1,1.5-.39,2.69,2.69,0,0,1,2.14.86,3.83,3.83,0,0,1,.75,2.59v9.47h-2.06V98.18c0-1.07-.49-1.59-1.47-1.59a1.86,1.86,0,0,0-.66.11,1.29,1.29,0,0,0-.47.29,1.25,1.25,0,0,0-.3.42,2.19,2.19,0,0,0-.14.5v9.76h-2.06v-9.5a1.8,1.8,0,0,0-.34-1.18,1.31,1.31,0,0,0-1.08-.4,1.77,1.77,0,0,0-1.05.27,1.59,1.59,0,0,0-.55.72v10.09h-2.06V95Z"/><path class="cls-1" d="M199.16,103.17l.56,1.53L203.59,95H206l-6.44,14.64a8.53,8.53,0,0,1-.57,1,5.37,5.37,0,0,1-.83,1,4.48,4.48,0,0,1-1.15.78,3.46,3.46,0,0,1-1.51.32l-.34,0-.38,0-.35-.07-.27-.06.35-1.77h.22l.3,0,.29,0h.22a1.48,1.48,0,0,0,.82-.24,3.31,3.31,0,0,0,.65-.59,4.52,4.52,0,0,0,.5-.7c.13-.25.24-.44.32-.6l.87-1.69L193.25,95h2.43Z"/><path class="cls-1" d="M220,102.54a7.18,7.18,0,0,1-.61,2.17,5.47,5.47,0,0,1-1.19,1.7,5.27,5.27,0,0,1-1.73,1.1,6.16,6.16,0,0,1-2.24.39,5.76,5.76,0,0,1-1.91-.3,5.05,5.05,0,0,1-1.54-.82,5.7,5.7,0,0,1-1.16-1.24,8.22,8.22,0,0,1-.81-1.56,10,10,0,0,1-.48-1.77,13,13,0,0,1-.17-1.88V98a13,13,0,0,1,.17-1.87,10,10,0,0,1,.48-1.77,8.22,8.22,0,0,1,.81-1.56,5.31,5.31,0,0,1,2.69-2.08,5.77,5.77,0,0,1,1.92-.3,6.28,6.28,0,0,1,2.29.39,5.12,5.12,0,0,1,1.73,1.12,5.29,5.29,0,0,1,1.17,1.73,7.7,7.7,0,0,1,.58,2.22h-2.17a6.6,6.6,0,0,0-.36-1.44,4,4,0,0,0-.69-1.17,3.07,3.07,0,0,0-1.06-.79,3.9,3.9,0,0,0-2.85,0,3.06,3.06,0,0,0-1,.69,3.93,3.93,0,0,0-.72,1,6.83,6.83,0,0,0-.46,1.22,8.19,8.19,0,0,0-.25,1.31,12,12,0,0,0-.08,1.31v2.4a12,12,0,0,0,.08,1.31,8.31,8.31,0,0,0,.25,1.32,6.65,6.65,0,0,0,.46,1.23,3.83,3.83,0,0,0,.71,1,3,3,0,0,0,1,.69,3.42,3.42,0,0,0,1.37.26,3.78,3.78,0,0,0,1.49-.27,3.12,3.12,0,0,0,1.06-.76,3.67,3.67,0,0,0,.69-1.15,6.37,6.37,0,0,0,.36-1.43Z"/><path class="cls-1" d="M222.69,101.21a8.11,8.11,0,0,1,.4-2.55,6.34,6.34,0,0,1,1.14-2A5.46,5.46,0,0,1,226,95.25a5.68,5.68,0,0,1,2.41-.5,5.75,5.75,0,0,1,2.42.5,5.36,5.36,0,0,1,1.81,1.37,6.18,6.18,0,0,1,1.15,2,8.11,8.11,0,0,1,.39,2.55v.26a8,8,0,0,1-.39,2.54,6.18,6.18,0,0,1-1.15,2,5.21,5.21,0,0,1-1.81,1.36,5.63,5.63,0,0,1-2.4.49,5.69,5.69,0,0,1-2.42-.49,5.25,5.25,0,0,1-1.82-1.36,6.34,6.34,0,0,1-1.14-2,8,8,0,0,1-.4-2.54Zm2.17.26a7,7,0,0,0,.22,1.79,4.73,4.73,0,0,0,.68,1.49,3.25,3.25,0,0,0,1.13,1,3.21,3.21,0,0,0,1.58.38,3.16,3.16,0,0,0,1.56-.38,3.34,3.34,0,0,0,1.13-1,4.71,4.71,0,0,0,.67-1.49,7,7,0,0,0,.23-1.79v-.26a6.81,6.81,0,0,0-.23-1.77,4.91,4.91,0,0,0-.68-1.5,3.34,3.34,0,0,0-1.13-1,3.07,3.07,0,0,0-1.57-.38,3,3,0,0,0-1.57.38,3.31,3.31,0,0,0-1.12,1,4.68,4.68,0,0,0-.68,1.5,6.81,6.81,0,0,0-.22,1.77Z"/><path class="cls-1" d="M239.65,95l.15,1.87a5.1,5.1,0,0,1,1.7-1.54,4.7,4.7,0,0,1,2.25-.57,5.41,5.41,0,0,1,1.81.29,3.37,3.37,0,0,1,1.39.88,3.87,3.87,0,0,1,.88,1.51,6.79,6.79,0,0,1,.32,2.19v8H246v-8a4.54,4.54,0,0,0-.19-1.43,2.13,2.13,0,0,0-.56-.95,2,2,0,0,0-.9-.53,4.08,4.08,0,0,0-1.22-.17,3.43,3.43,0,0,0-1.92.55,4,4,0,0,0-1.32,1.44v9.09H237.7V95Z"/><path class="cls-1" d="M257.24,91.92V95h4.83v1.68h-4.83v6.89a3.23,3.23,0,0,0,.19,1.21,1.86,1.86,0,0,0,.51.77,1.94,1.94,0,0,0,.76.41,3.78,3.78,0,0,0,.91.11,6,6,0,0,0,.72,0c.25,0,.5-.06.74-.1l.66-.12.51-.11.31,1.53a2.9,2.9,0,0,1-.66.29,8.58,8.58,0,0,1-.84.21,9.43,9.43,0,0,1-1,.14c-.34,0-.68,0-1,0a5,5,0,0,1-1.58-.24,3.22,3.22,0,0,1-1.27-.76,3.67,3.67,0,0,1-.85-1.35,5.58,5.58,0,0,1-.31-2V96.67h-3.33V95h3.33V91.92Z"/><path class="cls-1" d="M274.82,94.75l.63,0a6.12,6.12,0,0,1,.63.06l.55.1a2.21,2.21,0,0,1,.41.13l-.29,2.12a11.54,11.54,0,0,0-1.2-.2,9.17,9.17,0,0,0-1.19-.07,4.08,4.08,0,0,0-2.47.69,4,4,0,0,0-1.39,1.94v8.13h-2.17V95h2.06l.1,2a5.92,5.92,0,0,1,1.86-1.64A5,5,0,0,1,274.82,94.75Z"/><path class="cls-1" d="M289.24,107.67a2.66,2.66,0,0,1-.2-.62,6,6,0,0,1-.11-.76,7.81,7.81,0,0,1-.74.62,5.44,5.44,0,0,1-.89.51,5.23,5.23,0,0,1-2.21.48,5.27,5.27,0,0,1-1.82-.29,4.23,4.23,0,0,1-1.38-.79,3.51,3.51,0,0,1-.88-1.18,3.55,3.55,0,0,1-.31-1.49,3.79,3.79,0,0,1,.42-1.82,3.58,3.58,0,0,1,1.17-1.31,5.41,5.41,0,0,1,1.84-.78,10.29,10.29,0,0,1,2.39-.26h2.37V99a2.48,2.48,0,0,0-.21-1,2.27,2.27,0,0,0-.6-.78,2.62,2.62,0,0,0-.94-.49,4.06,4.06,0,0,0-1.25-.18,3.71,3.71,0,0,0-1.15.17,2.57,2.57,0,0,0-.86.43,1.86,1.86,0,0,0-.55.64,1.59,1.59,0,0,0-.19.76H281a2.9,2.9,0,0,1,.36-1.35,3.88,3.88,0,0,1,1-1.21,5.42,5.42,0,0,1,1.58-.86,6.33,6.33,0,0,1,2.12-.33,7.06,7.06,0,0,1,2,.27,4.38,4.38,0,0,1,1.6.8,3.56,3.56,0,0,1,1.06,1.33,4.18,4.18,0,0,1,.39,1.86v5.89a8.14,8.14,0,0,0,.12,1.35,5.5,5.5,0,0,0,.32,1.23v.19ZM285.41,106a4.05,4.05,0,0,0,1.18-.17,4.39,4.39,0,0,0,1-.43,3.74,3.74,0,0,0,.78-.62,3.07,3.07,0,0,0,.51-.72v-2.56h-2a6.34,6.34,0,0,0-3,.56,1.86,1.86,0,0,0-1.05,1.77,2.28,2.28,0,0,0,.16.87,1.77,1.77,0,0,0,.47.68,2.29,2.29,0,0,0,.8.45A3.41,3.41,0,0,0,285.41,106Z"/><path class="cls-1" d="M25.44,203.81l.85-8.51h8.76v2.11H28.12L27.64,202a5.94,5.94,0,0,1,1.21-.52,5.88,5.88,0,0,1,3.75.19,4.58,4.58,0,0,1,1.59,1.15,5.26,5.26,0,0,1,1,1.8,7.58,7.58,0,0,1,.35,2.35,7.48,7.48,0,0,1-.33,2.26,5.08,5.08,0,0,1-1,1.8,4.52,4.52,0,0,1-1.67,1.18,5.92,5.92,0,0,1-2.36.43,6.3,6.3,0,0,1-2-.3,4.83,4.83,0,0,1-1.65-.87A4.55,4.55,0,0,1,25.4,210a5.5,5.5,0,0,1-.58-2.07h2.06a3.39,3.39,0,0,0,1.07,2.2,3.32,3.32,0,0,0,2.25.75,3.17,3.17,0,0,0,1.37-.28,2.72,2.72,0,0,0,1-.78,3.55,3.55,0,0,0,.61-1.23,6,6,0,0,0,.2-1.59,4.52,4.52,0,0,0-.23-1.49,3.5,3.5,0,0,0-.66-1.2,3,3,0,0,0-1.06-.8,3.4,3.4,0,0,0-1.46-.3,5,5,0,0,0-.93.08,3,3,0,0,0-.71.22,2.66,2.66,0,0,0-.59.34q-.27.19-.57.45Z"/><path class="cls-1" d="M42.84,211a2,2,0,0,1,.11-.66,1.67,1.67,0,0,1,.32-.53,1.55,1.55,0,0,1,.53-.36,2.17,2.17,0,0,1,1.48,0,1.5,1.5,0,0,1,.54.36,1.39,1.39,0,0,1,.33.53,2,2,0,0,1,.11.66,2,2,0,0,1-.11.64,1.43,1.43,0,0,1-.87.86,2.17,2.17,0,0,1-1.48,0,1.38,1.38,0,0,1-.53-.34,1.62,1.62,0,0,1-.32-.52A2,2,0,0,1,42.84,211Z"/><path class="cls-1" d="M62.26,206.63h2.38v1.77H62.26v4H60.09v-4H52.31v-1.27L60,195.3h2.31Zm-7.55,0h5.38v-8.45l-.35.66Z"/><path class="cls-1" d="M70.2,210.44a9.39,9.39,0,0,0,2-.2,5.61,5.61,0,0,0,1.53-.58,4.2,4.2,0,0,0,1.09-.89,4.79,4.79,0,0,0,.7-1.12,5.79,5.79,0,0,0,.41-1.3,10.91,10.91,0,0,0,.16-1.4,5,5,0,0,1-.64.66,4.31,4.31,0,0,1-.82.54,4.39,4.39,0,0,1-1,.37,5.09,5.09,0,0,1-1.21.14,4.41,4.41,0,0,1-3.7-1.81,5.55,5.55,0,0,1-.88-1.83,7.56,7.56,0,0,1-.28-2.05,7.76,7.76,0,0,1,.33-2.28,5.43,5.43,0,0,1,1-1.87,4.77,4.77,0,0,1,1.65-1.28,5.22,5.22,0,0,1,2.3-.47,5.5,5.5,0,0,1,1.78.27,4.77,4.77,0,0,1,1.39.76,5,5,0,0,1,1,1.15,6.58,6.58,0,0,1,.71,1.43,8.43,8.43,0,0,1,.4,1.61,10.56,10.56,0,0,1,.13,1.68v.78c0,.73,0,1.47-.1,2.24a11.66,11.66,0,0,1-.42,2.21,9,9,0,0,1-.87,2,6.17,6.17,0,0,1-1.47,1.64A7.05,7.05,0,0,1,73.26,212a10.26,10.26,0,0,1-3.06.41H70v-1.94Zm2.59-5.58a3.21,3.21,0,0,0,1.07-.18,3.6,3.6,0,0,0,1-.51,4.49,4.49,0,0,0,.78-.79,3.88,3.88,0,0,0,.55-1v-.7a7,7,0,0,0-.27-2,4.7,4.7,0,0,0-.71-1.51,3.22,3.22,0,0,0-1.05-.94,2.52,2.52,0,0,0-1.26-.33,2.79,2.79,0,0,0-1.34.31,2.93,2.93,0,0,0-1,.83,3.86,3.86,0,0,0-.62,1.27,5.69,5.69,0,0,0-.21,1.58,5.59,5.59,0,0,0,.19,1.47,3.91,3.91,0,0,0,.57,1.28,3,3,0,0,0,1,.91A2.59,2.59,0,0,0,72.79,204.86Z"/><path class="cls-1" d="M92.74,212.36H81.56V210.8l5.59-6.21c.5-.55.92-1,1.25-1.47a9,9,0,0,0,.81-1.19,4.54,4.54,0,0,0,.43-1,3.78,3.78,0,0,0,.13-1,3.52,3.52,0,0,0-.2-1.18,2.74,2.74,0,0,0-.6-1,2.92,2.92,0,0,0-1-.65,3.15,3.15,0,0,0-1.26-.24,4.14,4.14,0,0,0-1.48.24,2.77,2.77,0,0,0-1,.7,2.91,2.91,0,0,0-.63,1.1,5,5,0,0,0-.2,1.44H81.23a5.47,5.47,0,0,1,.38-2,4.81,4.81,0,0,1,1.08-1.67,5.11,5.11,0,0,1,1.73-1.14,6.18,6.18,0,0,1,2.34-.42,6.47,6.47,0,0,1,2.18.35,4.85,4.85,0,0,1,1.63,1,4.42,4.42,0,0,1,1,1.5A5.08,5.08,0,0,1,92,199.8a4.64,4.64,0,0,1-.25,1.51,8.91,8.91,0,0,1-.7,1.47,14.51,14.51,0,0,1-1,1.43c-.39.48-.8.95-1.23,1.42l-4.58,5h8.57Z"/><path class="cls-1" d="M107.39,205.84a10,10,0,0,1-.38,2.88,6.11,6.11,0,0,1-1.08,2.13,4.49,4.49,0,0,1-1.72,1.3,6.26,6.26,0,0,1-4.66,0,4.64,4.64,0,0,1-1.74-1.3,6.12,6.12,0,0,1-1.09-2.13,9.71,9.71,0,0,1-.38-2.88v-4a10.14,10.14,0,0,1,.37-2.89,6.11,6.11,0,0,1,1.08-2.13,4.77,4.77,0,0,1,1.74-1.31,6.13,6.13,0,0,1,4.66,0,4.69,4.69,0,0,1,1.74,1.31A6.11,6.11,0,0,1,107,199a10.12,10.12,0,0,1,.38,2.89Zm-8.87-.44,6.64-5.1a4.56,4.56,0,0,0-1-2.58,3,3,0,0,0-2.31-.88A2.87,2.87,0,0,0,99.33,198a5.84,5.84,0,0,0-.81,3.37Zm6.69-3-6.64,5.07a4.42,4.42,0,0,0,1,2.52,3,3,0,0,0,2.29.87,2.83,2.83,0,0,0,2.52-1.17,5.92,5.92,0,0,0,.81-3.38Z"/><path class="cls-1" d="M121.54,212.36H110.36V210.8l5.59-6.21q.75-.83,1.26-1.47a11.51,11.51,0,0,0,.81-1.19,5,5,0,0,0,.43-1,4.24,4.24,0,0,0,.13-1,3.29,3.29,0,0,0-.21-1.18,2.58,2.58,0,0,0-.59-1,3,3,0,0,0-1-.65,3.22,3.22,0,0,0-1.26-.24,4.19,4.19,0,0,0-1.49.24,2.94,2.94,0,0,0-1,.7,2.89,2.89,0,0,0-.62,1.1,4.64,4.64,0,0,0-.21,1.44H110a5.47,5.47,0,0,1,.38-2,4.81,4.81,0,0,1,1.08-1.67,5.16,5.16,0,0,1,1.74-1.14,6.1,6.1,0,0,1,2.34-.42,6.41,6.41,0,0,1,2.17.35,4.75,4.75,0,0,1,1.63,1,4.42,4.42,0,0,1,1,1.5,4.89,4.89,0,0,1,.36,1.89,4.66,4.66,0,0,1-.26,1.51,7.55,7.55,0,0,1-.7,1.47,11.8,11.8,0,0,1-1,1.43c-.38.48-.79.95-1.22,1.42l-4.58,5h8.56Z"/><path class="cls-1" d="M132.51,212.36h-2.17V198.07l-4.46,1.7v-2l6.46-2.49h.17Z"/><path class="cls-1" d="M142.41,202.79H144a4.29,4.29,0,0,0,1.45-.22,3,3,0,0,0,1.05-.61,2.53,2.53,0,0,0,.65-.93,2.83,2.83,0,0,0-2.76-4.18,3.87,3.87,0,0,0-1.26.2,2.92,2.92,0,0,0-1,.59,2.86,2.86,0,0,0-.62.93,3.11,3.11,0,0,0-.22,1.21h-2.18a4.43,4.43,0,0,1,.38-1.84,4.53,4.53,0,0,1,1.07-1.5,5,5,0,0,1,1.66-1,5.88,5.88,0,0,1,2.15-.37,6.7,6.7,0,0,1,2.1.31,4.31,4.31,0,0,1,1.62.92,4,4,0,0,1,1.06,1.51,5.4,5.4,0,0,1,.37,2.08,3.71,3.71,0,0,1-.15,1,3.82,3.82,0,0,1-.47,1,4.66,4.66,0,0,1-.81.94,4.51,4.51,0,0,1-1.19.73,4.53,4.53,0,0,1,1.39.7,3.72,3.72,0,0,1,.89,1,3.61,3.61,0,0,1,.47,1.13,5.42,5.42,0,0,1,.13,1.19,5.27,5.27,0,0,1-.41,2.12,4.35,4.35,0,0,1-1.14,1.56,4.79,4.79,0,0,1-1.71,1,6.49,6.49,0,0,1-2.14.34,7,7,0,0,1-2.12-.32,5,5,0,0,1-1.71-.92,4.58,4.58,0,0,1-1.16-1.49,4.63,4.63,0,0,1-.42-2h2.16a3.16,3.16,0,0,0,.23,1.22,2.6,2.6,0,0,0,.65.94,2.83,2.83,0,0,0,1,.6,4.05,4.05,0,0,0,1.34.21,4.66,4.66,0,0,0,1.34-.19,2.64,2.64,0,0,0,1-.6,2.45,2.45,0,0,0,.65-1,3.7,3.7,0,0,0,.23-1.4,3.19,3.19,0,0,0-.26-1.37,2.64,2.64,0,0,0-.74-1,3.12,3.12,0,0,0-1.15-.58,5.72,5.72,0,0,0-1.48-.18h-1.55Z"/><path class="cls-1" d="M161.32,212.36h-2.17V198.07l-4.47,1.7v-2l6.46-2.49h.18Z"/><path class="cls-1" d="M169.46,203.81l.86-8.51h8.75v2.11h-6.93l-.48,4.55a5.94,5.94,0,0,1,1.21-.52,5.36,5.36,0,0,1,1.63-.22,5.27,5.27,0,0,1,2.12.41,4.4,4.4,0,0,1,1.59,1.15,5.1,5.1,0,0,1,1,1.8,7.29,7.29,0,0,1,.35,2.35,7.81,7.81,0,0,1-.32,2.26,5.08,5.08,0,0,1-1,1.8,4.6,4.6,0,0,1-1.67,1.18,6,6,0,0,1-2.37.43,6.35,6.35,0,0,1-2-.3,4.83,4.83,0,0,1-1.65-.87,4.68,4.68,0,0,1-1.18-1.48,5.69,5.69,0,0,1-.58-2.07h2.06a3.39,3.39,0,0,0,1.07,2.2,3.34,3.34,0,0,0,2.25.75,3.17,3.17,0,0,0,1.37-.28,2.64,2.64,0,0,0,1-.78,3.55,3.55,0,0,0,.61-1.23,5.57,5.57,0,0,0,.21-1.59,4.79,4.79,0,0,0-.23-1.49,3.67,3.67,0,0,0-.66-1.2,3,3,0,0,0-1.07-.8,3.36,3.36,0,0,0-1.45-.3,5.15,5.15,0,0,0-.94.08,2.87,2.87,0,0,0-.7.22,2.73,2.73,0,0,0-.6.34,6.9,6.9,0,0,0-.56.45Z"/></g></g></svg>