<?xml version="1.0" standalone="no"?>
<!DOCTYPE svg PUBLIC "-//W3C//DTD SVG 20010904//EN"
 "http://www.w3.org/TR/2001/REC-SVG-20010904/DTD/svg10.dtd">
<svg version="1.0" xmlns="http://www.w3.org/2000/svg"
 width="372.000000pt" height="372.000000pt" viewBox="0 0 372.000000 372.000000"
 preserveAspectRatio="xMidYMid meet">
<metadata>
Created by potrace 1.11, written by Peter Selinger 2001-2013
</metadata>
<g transform="translate(0.000000,372.000000) scale(0.100000,-0.100000)"
fill="#000000" stroke="none">
<path d="M1785 3660 c-306 -29 -617 -171 -820 -375 -235 -235 -349 -524 -348
-885 1 -442 174 -768 566 -1072 125 -96 248 -170 423 -254 161 -78 184 -94
164 -119 -48 -58 -469 83 -738 246 -37 23 -95 64 -129 90 -35 27 -63 45 -63
40 0 -19 211 -209 291 -263 245 -163 499 -241 789 -241 159 0 280 17 419 59
488 148 871 570 976 1072 21 104 20 105 -27 27 -58 -97 -165 -202 -256 -249
-40 -20 -116 -49 -170 -63 -133 -36 -364 -38 -519 -5 -578 125 -1063 558
-1150 1027 -17 93 -12 249 11 333 38 139 128 280 235 369 236 194 590 253 910
151 281 -89 472 -231 576 -429 121 -230 59 -452 -153 -552 -65 -31 -72 -32
-197 -32 -117 0 -138 3 -210 28 -241 85 -414 274 -424 464 -2 41 2 94 9 119
16 58 79 130 105 121 15 -6 17 -14 9 -55 -24 -135 2 -218 98 -308 91 -87 191
-124 329 -124 127 0 201 38 244 124 71 142 -13 292 -218 394 -138 68 -219 87
-382 87 -139 0 -141 0 -207 -33 -81 -40 -144 -107 -194 -207 -86 -175 -38
-351 145 -536 174 -174 392 -287 615 -318 354 -49 616 96 666 369 27 150 -38
336 -179 512 -72 90 -189 203 -268 256 -143 97 -365 187 -533 216 -110 18
-293 26 -395 16z"/>
<path d="M0 530 l0 -50 50 0 50 0 0 -210 0 -210 50 0 50 0 0 210 0 210 50 0
50 0 0 50 0 50 -150 0 -150 0 0 -50z"/>
<path d="M540 320 l0 -260 50 0 50 0 0 110 c0 107 1 110 23 110 18 0 33 -21
82 -110 l60 -110 58 0 57 0 -32 58 c-18 31 -47 82 -65 112 -29 49 -30 56 -16
65 9 6 30 22 47 37 29 25 31 31 31 97 0 66 -2 73 -31 101 -39 39 -82 49 -211
50 l-103 0 0 -260z m238 148 c7 -7 12 -24 12 -38 0 -40 -18 -50 -87 -50 l-63
0 0 50 0 50 63 0 c36 0 68 -5 75 -12z"/>
<path d="M1170 398 c0 -101 5 -203 11 -228 34 -150 253 -178 326 -40 22 41 23
54 23 247 l0 203 -50 0 -50 0 0 -194 c0 -180 -1 -195 -21 -220 -27 -34 -86
-37 -115 -5 -17 19 -19 41 -22 220 l-3 199 -50 0 -49 0 0 -182z"/>
<path d="M1840 320 l0 -260 55 0 55 0 0 115 0 115 85 0 85 0 0 50 0 50 -85 0
-85 0 0 45 0 45 85 0 85 0 0 50 0 50 -140 0 -140 0 0 -260z"/>
<path d="M2380 320 l0 -260 55 0 55 0 0 115 0 115 85 0 85 0 0 50 0 50 -85 0
-85 0 0 45 0 45 85 0 85 0 0 50 0 50 -140 0 -140 0 0 -260z"/>
<path d="M2920 320 l0 -260 130 0 130 0 0 45 0 45 -75 0 -75 0 0 215 0 215
-55 0 -55 0 0 -260z"/>
<path d="M3420 320 l0 -260 150 0 150 0 0 50 0 50 -100 0 -100 0 0 65 0 65
100 0 100 0 0 50 0 50 -100 0 -100 0 0 45 0 45 100 0 100 0 0 50 0 50 -150 0
-150 0 0 -260z"/>
</g>
</svg>
