<svg xmlns="http://www.w3.org/2000/svg" xmlns:xlink="http://www.w3.org/1999/xlink" viewBox="0 0 187.3 158.45"><defs><style>.cls-1{fill:url(#radial-gradient);}.cls-2{fill:#fff;}.cls-3{fill:#e911bd;}</style><radialGradient id="radial-gradient" cx="93.65" cy="80.9" r="85.98" gradientUnits="userSpaceOnUse"><stop offset="0" stop-color="#5e464d"/><stop offset="1" stop-color="#5e464d"/></radialGradient></defs><title>drizzle-logomark</title><g id="Layer_2" data-name="Layer 2"><g id="Layer_8" data-name="Layer 8"><path class="cls-1" d="M184.54,88.72c0-47-44.06-85.37-91.08-85.37S2.36,41.82,2.36,88.84C2.36,88.94,0,132.1,0,132.1.49,146,46.93,158.45,93.64,158.45c47,0,93.66-12.46,93.66-26.35C187.3,132.1,184.54,89.2,184.54,88.72Z"/><path class="cls-2" d="M42.94,96.78a105.23,105.23,0,0,0-2-15.35,108.33,108.33,0,0,0-4-14.39c-.85-2.29-1.71-4.54-2.69-6.71s-3.5-8.61-3.88-9.7S29.5,48.5,29,47.48a68.36,68.36,0,0,0-3.17-6.06l-.15-.27a8.27,8.27,0,0,1,9.65-12l1,.3.85.28,1.63.58c1.07.39,2.12.79,3.16,1.21,2.08.84,4.11,1.73,6.12,2.67a125.22,125.22,0,0,1,11.7,6.29A116,116,0,0,1,80.9,56.8,99.48,99.48,0,0,1,97.49,78.09a94.57,94.57,0,0,1,10,25.19l-15.89-1,.38-1.14.42-1.35c.27-.92.53-1.86.77-2.82.49-1.9.91-3.84,1.27-5.8A98.17,98.17,0,0,0,96,79.29a93,93,0,0,0-1.51-23.7,84,84,0,0,0-7.7-22.24A88.56,88.56,0,0,0,73.16,14l-.1-.12A8.28,8.28,0,0,1,80.25.07L81,.16l.58.09,1.1.18c.72.13,1.43.26,2.13.41,1.4.29,2.76.61,4.12,1,2.71.69,5.37,1.49,8,2.37a119.05,119.05,0,0,1,42.38,25.18,121,121,0,0,1,20.89,25.47,139.78,139.78,0,0,1,13.68,29.64l-15.46-.93.27-.66L159,82c.22-.63.44-1.28.64-1.94a36.28,36.28,0,0,0,1-4.05c.23-1.38.32-2.78.5-4.16s.47-2.74.71-4.12a42.27,42.27,0,0,0-.58-17,44.31,44.31,0,0,0-3-8.38,52.16,52.16,0,0,0-4.76-8,67.63,67.63,0,0,0-6.23-7.32,89.42,89.42,0,0,0-7.33-6.63,69.78,69.78,0,0,1,9.18,4.16,59.88,59.88,0,0,1,8.65,5.6,53,53,0,0,1,7.73,7.28,49.36,49.36,0,0,1,6.27,9,54,54,0,0,1,6.31,21.61,28.67,28.67,0,0,1,0,5.71A45.77,45.77,0,0,1,177,79.35c-.43,1.84-.87,3.68-1.43,5.51-.27.91-.57,1.82-.91,2.74l-.52,1.4-.3.73-.39.88a8.26,8.26,0,0,1-15.38-.68l-.08-.25a123.83,123.83,0,0,0-12-26.11,104.27,104.27,0,0,0-18-22A102.17,102.17,0,0,0,91.55,20c-2.24-.76-4.5-1.43-6.76-2-1.13-.29-2.26-.55-3.37-.78-.56-.11-1.11-.22-1.65-.31L79,16.72l-.62-.09L85.45,2.72a105.67,105.67,0,0,1,16.13,23,101.39,101.39,0,0,1,9.23,26.65,109.86,109.86,0,0,1,1.78,27.95,115.87,115.87,0,0,1-1.71,13.88q-.64,3.44-1.51,6.87c-.29,1.14-.6,2.29-.94,3.44l-.54,1.75-.3.89-.37,1a8.28,8.28,0,0,1-15.84-.77l-.06-.24a78,78,0,0,0-8.27-20.76A82.58,82.58,0,0,0,69.22,68.7a99.52,99.52,0,0,0-18.09-14A108.85,108.85,0,0,0,41,49.29c-1.73-.81-3.49-1.58-5.25-2.29-.88-.35-1.76-.69-2.63-1l-1.29-.46-1.13-.36,9.5-12.27a83.16,83.16,0,0,1,4,7.6c.63,1.29,1.13,2.62,1.72,3.92s1.18,2.59,1.67,3.93c.24.67.46,1.34.64,2s.27,1.4.36,2.11c.2,1.41.33,2.83.46,4.24.24,2.82.36,5.62.32,8.4a90.88,90.88,0,0,1-1.71,16.33,76.36,76.36,0,0,1-2,7.82A60.34,60.34,0,0,1,42.94,96.78Z"/><path class="cls-3" d="M42.94,96.78a95.82,95.82,0,0,0,0-15.34,106.27,106.27,0,0,0-2.23-15c-.57-2.45-1.21-4.86-2-7.23s-1.68-4.67-2.45-7c-.38-1.17-.79-2.33-1.22-3.49s-.92-2.28-1.46-3.38a72.24,72.24,0,0,0-3.41-6.53l0-.09a3.22,3.22,0,0,1,3.75-4.68c2.21.68,4.13,1.41,6.14,2.21s3.93,1.65,5.85,2.55a121.15,121.15,0,0,1,11.23,6A111.05,111.05,0,0,1,77.33,60.44a94.25,94.25,0,0,1,15.75,20.2,89.62,89.62,0,0,1,9.5,23.83l-6.18-.39c.3-.84.64-1.88.92-2.85s.57-2,.83-3c.51-2,1-4.07,1.34-6.13A104.51,104.51,0,0,0,101,79.61a97.85,97.85,0,0,0-1.59-25A89.54,89.54,0,0,0,91.28,31,94.66,94.66,0,0,0,76.92,10.54l0,0a3.23,3.23,0,0,1,2.8-5.37c1.49.19,2.74.43,4.07.7s2.61.57,3.89.9c2.58.65,5.11,1.41,7.62,2.26a113.91,113.91,0,0,1,40.55,24.1,115.43,115.43,0,0,1,20,24.39A135,135,0,0,1,169,86.05l-6-.36c.24-.54.55-1.32.8-2s.5-1.45.72-2.19a44.85,44.85,0,0,0,1.13-4.5c.56-3,.88-6.11,1.16-9.19a45.22,45.22,0,0,0-2.32-18.39A49.26,49.26,0,0,0,154.8,33.1a73.1,73.1,0,0,0-14.87-12.67,71.28,71.28,0,0,1,16.52,11,51.24,51.24,0,0,1,12.1,16.29,50.62,50.62,0,0,1,4.56,20.18,38,38,0,0,1-.2,5.23c-.2,1.73-.53,3.45-.89,5.15s-.79,3.38-1.3,5.06c-.26.83-.53,1.66-.83,2.49s-.59,1.61-1,2.57a3.23,3.23,0,0,1-6-.29l0-.07A128.28,128.28,0,0,0,150.3,60.89a108.76,108.76,0,0,0-18.89-23A107.3,107.3,0,0,0,93.18,15.13c-2.36-.79-4.74-1.51-7.13-2.12-1.2-.3-2.4-.58-3.61-.83s-2.45-.47-3.5-.61L81.7,6.16A100.65,100.65,0,0,1,97,28.06a95.77,95.77,0,0,1,8.77,25.3A104.17,104.17,0,0,1,107.5,80a109.86,109.86,0,0,1-1.63,13.26c-.41,2.19-.88,4.37-1.44,6.54-.27,1.09-.57,2.17-.89,3.25s-.64,2.12-1.08,3.32a3.23,3.23,0,0,1-6.17-.33V106a83.12,83.12,0,0,0-8.82-22.11A87.51,87.51,0,0,0,72.79,65.07a104.09,104.09,0,0,0-19-14.68,114,114,0,0,0-10.62-5.71c-1.82-.85-3.66-1.66-5.51-2.41-.93-.37-1.86-.73-2.8-1.07s-1.9-.67-2.73-.92l3.69-4.77a89.38,89.38,0,0,1,6.79,14.54,46.45,46.45,0,0,1,1.89,7.78c.46,2.62.79,5.26,1,7.89a92.85,92.85,0,0,1,0,15.73c-.2,2.6-.51,5.19-.95,7.75A64.77,64.77,0,0,1,42.94,96.78Z"/></g></g></svg>