<svg xmlns="http://www.w3.org/2000/svg" xmlns:xlink="http://www.w3.org/1999/xlink" viewBox="0 0 864 864"><defs><style>.cls-1{fill:#99F4E5;}.cls-2{fill:url(#radial-gradient);}.cls-3{fill:#e9d0c0;}.cls-4{fill:#707070;}.cls-5{fill:#211e1f;}.cls-6{fill:#473d39;}.cls-12,.cls-7,.cls-9{fill:none;stroke-linecap:round;stroke-miterlimit:10;}.cls-7{stroke:#302423;stroke-width:14px;}.cls-8{fill:#302423;}.cls-9{stroke:#5f474e;opacity:0.65;}.cls-12,.cls-9{stroke-width:10px;}.cls-10{fill:#51423a;}.cls-11{fill:#c69f95;}.cls-12{stroke:#766362;}</style><radialGradient id="radial-gradient" cx="465.69" cy="645.38" fy="307.9637653740772" r="337.43" gradientUnits="userSpaceOnUse"><stop offset="0.12" stop-color="#5f4536"/><stop offset="0.17" stop-color="#806657"/><stop offset="0.24" stop-color="#a08777"/><stop offset="0.31" stop-color="#bba192"/><stop offset="0.39" stop-color="#cfb6a6"/><stop offset="0.47" stop-color="#dec5b5"/><stop offset="0.57" stop-color="#e6cdbd"/><stop offset="0.74" stop-color="#e9d0c0"/></radialGradient></defs><title>nick-truffle-bg</title><g id="Truffle-light"><rect class="cls-1" width="864" height="864.41"/></g><g id="Nick"><path class="cls-2" d="M287.64,604.6s7.74-74,4.87-93.46-7.44-71.4-7.44-79.14,31.24,3.44,31.24,3.44L425,502.53s58.2,32.4,102.64-2,84.58-64.23,84.58-64.23l34.12,11.47s-48.08,113.8-48.74,141.06,4.59,98.34,4.59,98.34l-83.72,154-49.89,20.35L355.59,746Z"/><path class="cls-3" d="M267,280.67c-11-.65-16.82,2.59-18.76,13.59s-4.53,36.23,0,44.64,6.47,35.05,11,41.78,2.59,27.44,7.76,35.2,11,12.18,18.12,16.12,3.23,27.88,23.93,52.46,77,77.64,106.75,85.4S496,584.09,516,575,606,525.87,622.78,510.34s17.46-47.88,30.4-56.29,11-23.93,14.24-34.28,11.64-41.41,11.64-49.17,7.77-49.17,3.88-57.58-5.17-16.82-11-12.94S659,280.59,659,280.59l-19.41-161-66-62.76-97-27.17L390.52,56.82,325.18,97.58,287,154.51l-7.77,119Z"/><path class="cls-4" d="M407.13,800.49s65.08,29,131.32,13.94-45.33,44.16-45.33,44.16l-38.35,5.82Z"/><path class="cls-5" d="M0,747s138.67-69.73,163.08-80.19,50-24.4,62.75-23.24,20.92-27.89,31.38-53.46,17.43-43,26.73-47.65,9.3,14,9.3,14a137.62,137.62,0,0,0,0,41.84c22.08,30.21,63.91,80.18,79,94.13s44.16,23.24,50,60.43,18.6,32.54,22.08,45.32S471,856.27,471,856.27l36-41.84s-4.65-66.24,5.81-76.7,68.57-41.83,75.54-51.13,7-45.33,8.13-62.76-1.16-25.56,8.14-15.1,27.89,20.91,26.73,34.86-3.38,49.23.05,55.41,62.7,43.37,80.14,52.67,83.86,48.81,104.09,66.74C828.15,829.45,864,864,864,864H0Z"/><path class="cls-6" d="M280.51,342.11s-6.15,88.87-6.1,101.35,11.69,92.42,32.83,113.07,47.59,51.62,61.28,63.71c2.15,1.89,36.81,19.51,43.17,18.42,0-4.58,3.27-14.34,3.27-14.34s-4.49,12,5.41,21.06c2.92-3.32,19.15,13.59,25.8,11.11,5.15-1.93.73-11.23,4-18.44-1.24,7.46-.27,16.59,4.48,21.72,2.43,2.62,9.67,1.14,10.19,4.18,2.25.37,15.12-.65,20.18-5.49,4.25-4.06.59-11.59,4.18-15.53,1.67,3.33,2.69,13,6.27,15.53s6.79.48,12.59-2,12.35-6.78,15.26-10,0-14.11,2.29-18.8c-1.32,5.32,2.87,11.63,1.52,17.68-.7,3.13,12.13-2.24,18.64-1.62,17.8-5.84,35.53-35.48,60.64-53.38S639.83,537.2,643,524s14.43-39.05,17.75-57.24-1.49-38.4-2-51.73.94-67.79.94-67.79l-9.43-.93s1,63.42-7.12,75.64-1,7.65-16.32,18c-7.24,4.87-9.69,22.86-26.44,20.7s-19.09-16.38-19.09-16.38-2.69-15.06-13.85-21.24S539,417.08,539,417.08s-13.58-4.65-43.4,4.37c-9.32,2.82-36.34-1.47-71.48-10.51-14.53-5.74-29.94,2.72-51.3,17-10,4-21.11,38.05-34.35,12s-36.83-26.19-41.18-36.33c-6-13.93-5.11-30.38-4.82-38.59.35-9.54.7-9.73.7-9.73Z"/><path class="cls-6" d="M265.18,290.72c10.35,8.53,8.53,47.5,13.4,56.63s14.61,15.22,14.61,7.91-4.26-51.14,0-71.85,9.74-32.88,12.79-45.66,1.82-45.67,6.09-54.8,7.3-35.32,18.87-47.5,45.66-62.17,141.7-65.14S611,120.84,620.78,140.93s21.31,57.85,22.53,76.11,1.21,59.07,3,73.07S650,324.82,650,339.43s3.66,29.23,7.31,16.44,11.57-42.62,12.79-59.67,6.09-76.11,6.7-90.12-11-68.85-23.75-90.72c-18.71-32-66.2-67.29-89-79.45s-46.94-19.53-78.48-19.53-59,4-82.13,11.91-53.58,17.05-79.16,38.36S269,120.19,267.73,170.72s-1.33,59.11-.72,72.51S268.23,280.37,265.18,290.72Z"/><path class="cls-7" d="M359.4,304.55s9.78-19.71,42.73-19.71,46.27,19.71,46.27,19.71"/><path class="cls-7" d="M527.14,308.25s11.12-18.11,39.64-18.11,39.64,21.54,39.64,21.54"/><circle class="cls-8" cx="402.13" cy="298.91" r="16.34"/><circle class="cls-8" cx="563.47" cy="304.55" r="16.34"/><path class="cls-9" d="M428.25,406.85s16.17.53,26.39,1.52,15.17,6.65,22.9,6.65,16-3.91,22.88-4,17.6,1,17.6,1"/><path class="cls-10" d="M338.91,288.21c18-17.33,27.41-28.2,42.54-24.89s30.73,7.56,43.49,3.78S441,261,413.59,250.56s-51.52-9.93-60.5,0-13.24,18.43-14.18,26S338.91,288.21,338.91,288.21Z"/><path class="cls-10" d="M606.42,265.57c7.13,11.46,12.33,25.91,12.33,33.34s-12.29-19.52-23.63-22.83-31.2-4.72-44.91.95-29.26-2.66-23.07-7.56c7.74-6.15,10.36-13.89,22.08-16.59,13.25-3,30.3-.9,37.86-1.85S606.42,265.57,606.42,265.57Z"/><path class="cls-11" d="M376.5,435.59c12.33-1.75,23.9.8,37.28,1.9s45.45,5.48,60.8,6.05,26.88-1.63,47.93-.25,25.73-.23,34.43,3.25,26.12,2.55-6.93,15.93c-15.19,7.84-39.46,17.71-68,15s-48.83-7.07-58.76-11-47.64-19.89-47.19-25.39Z"/><path class="cls-12" d="M379.59,439.91c24.26,5.59,64.43,15.81,100.65,16.55,31.46.65,57.25-2.74,83.31-3.34"/></g></svg>