<svg xmlns="http://www.w3.org/2000/svg" viewBox="0 0 201.33 198.85"><defs><style>.cls-1{fill:#5e464d;}.cls-2{fill:#fff;}.cls-3{fill:#3fe0c5;}</style></defs><title>truffle-logomark</title><g id="Layer_2" data-name="Layer 2"><g id="Layer_8" data-name="Layer 8"><ellipse class="cls-1" cx="100.42" cy="99.42" rx="98.27" ry="99.42"/><path id="Fill-6" class="cls-2" d="M69.51,187.58c4,1.37,17.54,5.76,18.1,1.47.31-2.35-6.77-4.77-16.45-9.88a154.8,154.8,0,0,1-37.24-27.51A85.52,85.52,0,0,1,8.3,92.23c-.82-30.08,11-54.4,30.28-70.08A99.15,99.15,0,0,0,0,98.21C-.54,120,5.55,138.3,17,155a64.72,64.72,0,0,0,12.34,12.14c11,8.29,27,15.95,40.2,20.46"/><path id="Fill-8" class="cls-2" d="M200.05,76.63C194,48,175,27.91,149.68,13.74c19.37,13.8,46.64,43.12,30.56,69-13.63,20.73-46.77,16.67-64.88,6.85-21.52-11.68-48.5-38-21.89-63.66,17.22-16.63,72.06,2,62.38,26.87-5.63,14.45-27.53,11.24-37.38,4.17-7.27-5.22-13.37-14.18-10.14-23.44,1-3,.89-7.57-3.3-4.18-3.13,2.53-4.7,6.7-5.25,10.57C95.2,72.3,152.93,97.41,170.05,66.06c8.89-16.27-5.51-39.88-23.64-49.58-13.66-7.3-27.82-12.43-45.2-11.18-27.79,2-51.12,19.37-54,47.77-2.89,28.19,16,53.63,38.18,68.82,23.33,16,54.76,26.49,83.49,17,25.76-8.54,36.4-38.1,31.22-62.23"/><path id="Fill-10" class="cls-3" d="M163.8,54.68c2.76-18.57-14-31.32-29.53-37.11C116,10.73,91.84,13.73,78.53,28.87,68.76,40,69.42,56.14,74.44,69.18c7.59,19.74,24.74,34,44.69,40.16,14.18,4.37,31.32,6.28,45.69,1.66,21-6.74,27.78-28.6,23.45-48.62A57.91,57.91,0,0,0,184,49.84c-2.65-5.55-10.76-16.8.42-3.1a48.14,48.14,0,0,1,3.22,4.78,53,53,0,0,1,5.45,12.08c6.09,18.69,1.31,40.5-15.61,51.77-13,8.64-29.43,9.67-44.46,7.51C112.9,120,93.91,110.18,80.72,94.56,68.66,80.28,60.44,59.78,65.4,41,69,27.32,80.16,17.09,93.49,12.77c16.87-5.46,35.44-2.93,50.64,5.94,7.61,4.44,14.57,10.57,18.44,18.61a27.34,27.34,0,0,1,2.77,11.61,23.46,23.46,0,0,1-.37,4.88c-.11.58-1.34,2.23-1.17.87"/></g></g></svg>