<svg xmlns="http://www.w3.org/2000/svg" xmlns:xlink="http://www.w3.org/1999/xlink" viewBox="0 0 409.5 106.18"><defs><style>.cls-1{fill:#fff;}.cls-2{fill:#5e464d;}.cls-3{mask:url(#mask);}.cls-4{fill:#3fe0c5;}</style><mask id="mask" x="144.11" y="-186.49" width="265.39" height="259.02" maskUnits="userSpaceOnUse"><g id="mask-4"><polygon id="path-3" class="cls-1" points="144.11 -186.49 409.5 -186.49 409.5 72.53 144.11 72.53 144.11 -186.49"/></g></mask></defs><title>truffle-logo-h-dark</title><g id="Layer_2" data-name="Layer 2"><g id="Layer_8" data-name="Layer 8"><polygon id="Fill-12" class="cls-2" points="144.11 33.66 165.07 33.66 165.07 40.77 158.16 40.77 158.16 71.57 150.84 71.57 150.84 40.77 144.11 40.77 144.11 33.66"/><path id="Fill-14" class="cls-2" d="M190.42,48.47h4.29c2.3,0,3.88-.3,4.75-.9a3.4,3.4,0,0,0,1.29-3,3.65,3.65,0,0,0-.64-2.16,3.59,3.59,0,0,0-1.72-1.32,13,13,0,0,0-4-.4h-4ZM183.2,33.66h9.68q6.28,0,9,1.11a9.2,9.2,0,0,1,4.29,3.73,11.41,11.41,0,0,1,1.62,6.16A10.51,10.51,0,0,1,206,50.91a10.9,10.9,0,0,1-5.4,3.8l9,16.86h-7.89l-8.53-16.06h-2.69V71.57H183.2Z"/><g class="cls-3"><path id="Fill-16" class="cls-2" d="M227.88,33.66h7.24V58.17a12.75,12.75,0,0,0,.56,4.49,4.46,4.46,0,0,0,1.83,2.09,5.69,5.69,0,0,0,3.08.79,5.91,5.91,0,0,0,3.28-.88,4.58,4.58,0,0,0,1.91-2.22,16.69,16.69,0,0,0,.53-5.17V33.66h7.24v22.6a32.88,32.88,0,0,1-.64,7.94,11.23,11.23,0,0,1-2.46,4.28,11.45,11.45,0,0,1-4.19,3,14.24,14.24,0,0,1-5.52,1,13.38,13.38,0,0,1-7.18-1.9,11.06,11.06,0,0,1-4.37-4.74q-1.31-2.85-1.31-9.63Z"/></g><polygon id="Fill-19" class="cls-2" points="275.39 33.66 294.21 33.66 294.21 40.69 282.56 40.69 282.56 47.57 294.21 47.57 294.21 54.51 282.56 54.51 282.56 71.57 275.39 71.57 275.39 33.66"/><polygon id="Fill-21" class="cls-2" points="314.19 33.66 333 33.66 333 40.69 321.35 40.69 321.35 47.57 333 47.57 333 54.51 321.35 54.51 321.35 71.57 314.19 71.57 314.19 33.66"/><polygon id="Fill-23" class="cls-2" points="352.91 33.66 360.13 33.66 360.13 64.69 370.64 64.69 370.64 71.57 352.91 71.57 352.91 33.66"/><polygon id="Fill-25" class="cls-2" points="388.81 33.66 409.5 33.66 409.5 40.72 395.97 40.72 395.97 47.57 409.5 47.57 409.5 54.51 395.97 54.51 395.97 64.48 409.5 64.48 409.5 71.57 388.81 71.57 388.81 33.66"/><ellipse class="cls-2" cx="53.62" cy="53.09" rx="52.48" ry="53.09"/><path id="Fill-6" class="cls-1" d="M37.12,100.16c2.15.73,9.36,3.08,9.66.79C47,99.69,43.17,98.4,38,95.67A82.67,82.67,0,0,1,18.11,81,45.71,45.71,0,0,1,4.43,49.25C4,33.19,10.28,20.2,20.6,11.83A52.92,52.92,0,0,0,0,52.44a49.52,49.52,0,0,0,9,30.32,34.5,34.5,0,0,0,6.59,6.48c5.85,4.43,14.4,8.52,21.47,10.92"/><path id="Fill-8" class="cls-1" d="M106.82,40.92c-3.25-15.3-13.37-26-26.89-33.58,10.34,7.36,24.9,23,16.32,36.83-7.28,11.07-25,8.9-34.65,3.65-11.49-6.23-25.9-20.27-11.69-34C59.11,5,88.39,14.91,83.22,28.18c-3,7.71-14.7,6-20,2.22-3.88-2.78-7.14-7.57-5.41-12.51.55-1.58.47-4-1.77-2.23a8.83,8.83,0,0,0-2.8,5.64C50.84,38.61,81.66,52,90.81,35.28c4.74-8.69-3-21.3-12.63-26.48C70.89,4.9,63.33,2.16,54,2.83,39.2,3.89,26.75,13.17,25.18,28.34S33.7,57,45.57,65.09C58,73.61,74.81,79.23,90.16,74.15c13.75-4.56,19.43-20.35,16.66-33.23"/><path id="Fill-10" class="cls-4" d="M87.47,29.2C88.94,19.28,80,12.48,71.7,9.38c-9.77-3.65-22.66-2.05-29.77,6C36.72,21.35,37.07,30,39.75,36.94,43.8,47.48,53,55.1,63.61,58.38c7.58,2.34,16.73,3.36,24.4.89,11.19-3.6,14.84-15.27,12.52-26a30.31,30.31,0,0,0-2.26-6.69c-1.42-3-5.75-9,.22-1.66a26,26,0,0,1,1.73,2.55,28.32,28.32,0,0,1,2.9,6.45c3.26,10,.7,21.63-8.33,27.65-6.92,4.61-15.72,5.16-23.74,4A45,45,0,0,1,43.1,50.5c-6.44-7.63-10.83-18.58-8.18-28.59,1.94-7.32,7.89-12.79,15-15.09A33.52,33.52,0,0,1,77,10a24.07,24.07,0,0,1,9.85,9.94,14.64,14.64,0,0,1,1.48,6.2,12.61,12.61,0,0,1-.2,2.6c-.06.31-.71,1.19-.62.47"/></g></g></svg>