<?xml version="1.0" encoding="utf-8"?>
<!-- Generator: Adobe Illustrator 21.1.0, SVG Export Plug-In . SVG Version: 6.00 Build 0)  -->
<svg version="1.1" id="svg2811" xmlns:svg="http://www.w3.org/2000/svg"
	 xmlns="http://www.w3.org/2000/svg" xmlns:xlink="http://www.w3.org/1999/xlink" x="0px" y="0px" viewBox="0 0 708.7 870.3"
	 style="enable-background:new 0 0 708.7 870.3;" xml:space="preserve">
<style type="text/css">
	.st0{fill:#5E464D;}
</style>
<path id="path188" class="st0" d="M591.8,462.4c-1-110.1,90-163,94.1-165.6c-51.2-74.9-130.8-85.1-159.2-86.3
	c-67.7-6.9-132.2,39.9-166.6,39.9s-87.4-38.9-143.6-37.8c-73.9,1.1-142,42.9-180.1,109.1c-76.7,133.1-19.6,330.4,55.1,438.5
	c36.6,52.8,80.1,112.3,137.4,110.1c55.2-2.2,76-35.7,142.6-35.7s85.3,35.7,143.7,34.6c59.3-1.2,96.9-54,133.2-107
	c41.9-61.3,59.2-120.7,60.2-123.8C707.3,637.9,593,594.1,591.8,462.4"/>
<path id="path190" class="st0" d="M482.3,139c30.4-36.8,50.9-88,45.3-139c-43.8,1.8-96.8,29.2-128.2,66
	c-28.1,32.5-52.8,84.6-46.1,134.6C402,204.4,451.9,175.8,482.3,139"/>
</svg>
