<svg xmlns="http://www.w3.org/2000/svg" viewBox="0 0 160.11 180.03"><defs><style>.cls-1{fill:#e5a663;}.cls-2{fill:none;stroke:#e5a663;stroke-miterlimit:10;stroke-width:2px;}</style></defs><title>ganache-feature-5-icon</title><g id="Layer_2" data-name="Layer 2"><g id="Mask"><path class="cls-1" d="M80,2h0a13,13,0,0,1,6.28,1.47l65.51,37.89a14.15,14.15,0,0,1,6.29,10.89l.06,75.68a14.09,14.09,0,0,1-6.27,10.87L86.41,176.57a14.17,14.17,0,0,1-12.56,0L8.34,138.68a14.15,14.15,0,0,1-6.29-10.89L2,52.12A14.1,14.1,0,0,1,8.28,41.24L73.71,3.46A13,13,0,0,1,80,2m0-2a14.87,14.87,0,0,0-7.27,1.73L7.28,39.51A16.14,16.14,0,0,0,0,52.12l.06,75.67a16.19,16.19,0,0,0,7.28,12.62L72.85,178.3a16.14,16.14,0,0,0,14.56,0l65.44-37.78a16.12,16.12,0,0,0,7.27-12.6l-.06-75.68a16.19,16.19,0,0,0-7.28-12.62L87.26,1.74A14.87,14.87,0,0,0,80,0Z"/><path class="cls-2" d="M92.69,81,71.43,93.27a5.27,5.27,0,0,1-4.74,0L45.43,81a5.25,5.25,0,0,1-2.37-4.1V52.41a5.25,5.25,0,0,1,2.37-4.1L66.68,36.06a5.27,5.27,0,0,1,4.74,0L92.69,48.31a5.25,5.25,0,0,1,2.37,4.1v24.5A5.25,5.25,0,0,1,92.69,81Z"/><rect class="cls-1" x="96.05" y="94.05" width="9.61" height="51.64" transform="translate(-46.42 66.49) rotate(-30)"/><rect class="cls-1" x="90.95" y="84.16" width="5.05" height="45.84" transform="translate(-41.02 61.08) rotate(-30)"/></g></g></svg>