<svg xmlns="http://www.w3.org/2000/svg" viewBox="0 0 159.96 179.87"><defs><style>.cls-1{fill:#e5a663;}.cls-2{fill:none;stroke:#e5a663;stroke-miterlimit:10;stroke-width:2px;}</style></defs><title>ganache-feature-4-icon</title><g id="Layer_2" data-name="Layer 2"><g id="Mask"><path class="cls-1" d="M79.91,2h0a13,13,0,0,1,6.28,1.47l65.44,37.85a14.14,14.14,0,0,1,6.28,10.88l.06,75.6a14.09,14.09,0,0,1-6.27,10.87L86.32,176.4a14.16,14.16,0,0,1-12.55,0L8.33,138.55a14.14,14.14,0,0,1-6.28-10.88L2,52.07A14.09,14.09,0,0,1,8.27,41.2L73.64,3.46A13,13,0,0,1,79.91,2m0-2a14.87,14.87,0,0,0-7.27,1.73L7.27,39.47A16.13,16.13,0,0,0,0,52.07l.06,75.6a16.17,16.17,0,0,0,7.28,12.61l65.45,37.85a16.12,16.12,0,0,0,14.55,0l65.37-37.74a16.13,16.13,0,0,0,7.27-12.6l-.06-75.6a16.17,16.17,0,0,0-7.28-12.61L87.19,1.74A14.87,14.87,0,0,0,79.91,0Z"/><path class="cls-1" d="M80,28.68H76.91l-3-4.86-3,4.86H68l4.26-6.63-4-6.22h3l2.77,4.62,2.72-4.62h2.94l-4,6.37Z"/><path class="cls-1" d="M81.64,28.68V15.83h2.72V28.68Z"/><path class="cls-1" d="M87.6,28.68V15.83h2.72V28.68Z"/><path class="cls-1" d="M133.7,96.68V83.83h2.72V96.68Z"/><path class="cls-1" d="M139.66,96.68V83.83h2.72V96.68Z"/><path class="cls-1" d="M145.62,96.68V83.83h2.72V96.68Z"/><path class="cls-1" d="M11.62,96.68V83.83h2.72V96.68Z"/><path class="cls-1" d="M28,96.68H24.85l-3-4.86-3,4.86H16l4.26-6.63-4-6.22h3L22,88.46l2.72-4.62h2.94l-4,6.37Z"/><path class="cls-1" d="M80.1,151.84h2.75l-4.37,12.85h-3l-4.36-12.85H73.9l2.42,7.65q.2.68.42,1.58t.27,1.25a22.51,22.51,0,0,1,.66-2.83Z"/><path class="cls-1" d="M84.46,164.69V151.84h2.72v12.85Z"/><circle class="cls-1" cx="79.98" cy="89.93" r="4.73"/><line class="cls-2" x1="79.98" y1="89.93" x2="79.98" y2="55.55"/><path class="cls-1" d="M93.49,57.34a27.31,27.31,0,0,0-27,0Z"/><rect class="cls-1" x="77.49" y="52.21" width="4.83" height="6.67"/><line class="cls-2" x1="79.91" y1="89.93" x2="118.36" y2="128.39"/><path class="cls-1" d="M107.54,136.68a27.31,27.31,0,0,0,19.11-19.11Z"/><rect class="cls-1" x="116" y="125" width="4.83" height="6.67" transform="translate(292.89 135.36) rotate(135)"/></g></g></svg>