<svg xmlns="http://www.w3.org/2000/svg" xmlns:xlink="http://www.w3.org/1999/xlink" viewBox="0 0 318.52 310.6"><defs><style>.cls-1{fill:url(#linear-gradient);}</style><linearGradient id="linear-gradient" x1="45.38" y1="44.53" x2="272.47" y2="271.61" gradientUnits="userSpaceOnUse"><stop offset="0" stop-color="#3fe0c5"/><stop offset="0.5" stop-color="#e4a663"/><stop offset="0.56" stop-color="#e49d68"/><stop offset="0.67" stop-color="#e58577"/><stop offset="0.8" stop-color="#e65d8f"/><stop offset="0.95" stop-color="#e826b0"/><stop offset="1" stop-color="#e911bd"/></linearGradient></defs><title>github-logo-gradient</title><g id="Layer_2" data-name="Layer 2"><g id="Layer_2-2" data-name="Layer 2"><path class="cls-1" d="M157.34,0a164.76,164.76,0,0,1,80.91,20.55Q275.5,41.1,296.69,76.42q21.84,36.6,21.83,80.27,0,53.31-29.86,95.37t-78,58.12c-3.43.85-6.1.42-8-1.29a8.22,8.22,0,0,1-2.89-6.42V248.53q0-20.55-10.92-29.54,23.76-2.58,35.32-6.43,18-6.42,27.62-19.26,10.92-16.7,10.91-45.6,0-12.19-4.49-21.19-3.21-6.42-12.2-16.05A51.7,51.7,0,0,0,249.17,95a72.25,72.25,0,0,0-4.5-28.25q-6.42-1.94-18,2.57a173,173,0,0,0-18,9l-8.35,5.78a145.24,145.24,0,0,0-40.78-5.78,138.65,138.65,0,0,0-40.13,5.78l-8.35-5.78a143.17,143.17,0,0,0-18.63-9q-11.55-4.5-17.33-2.57A59.37,59.37,0,0,0,70.64,95q0,9,2.57,14.77A82.46,82.46,0,0,0,62,127.47q-3.53,8-3.53,20.23,0,28.91,10.27,45,9,13.49,27,19.9,11.55,3.85,34.67,6.43-8.34,7.69-10.27,21.83Q109.17,246,98.9,244.67q-16.7-1.28-25.69-17.34a33.39,33.39,0,0,0-10.28-11.56,65.47,65.47,0,0,0-9.63-4.49l-4.49-.64q-7.06,0-7.39,2.24t2.89,4.82l3.21,2.57a31.91,31.91,0,0,1,9,8.35,41.65,41.65,0,0,1,6.42,10.27L65.5,244A26,26,0,0,0,77.7,258.8a47.73,47.73,0,0,0,18.63,5.78,68.34,68.34,0,0,0,16-.64l7.07-.64.64,39.17a8.22,8.22,0,0,1-2.89,6.42c-1.93,1.71-4.6,2.14-8,1.29q-48.81-16.06-79-58.12T0,156.69Q0,113,20.55,77.06A149.3,149.3,0,0,1,77.06,20.55Q113,0,157.34,0ZM55.23,216.42a2.53,2.53,0,0,1,3.21-.32c1.28.64,1.71,1.49,1.28,2.56s-1.39,1.18-2.89.33S54.8,217.27,55.23,216.42Zm7.06,5.13c.86-.85,1.93-.64,3.21.65s1.5,2.35.65,3.21-1.93.64-3.22-.64S61.44,222.41,62.29,221.55Zm6.42,8.35a2.54,2.54,0,0,1,3.86,1.29q1.92,2.56,0,3.85c-.43.43-1,.43-1.61,0a19,19,0,0,0-2.25-1.28Q67.44,230.55,68.71,229.9Zm7.71,9a2,2,0,0,1,1.93-.32,5,5,0,0,1,3.53,3.53,1.93,1.93,0,0,1-.32,1.93c-1.29,1.29-2.79,1.07-4.5-.64a3.72,3.72,0,0,1-1.28-2.57A2.61,2.61,0,0,1,76.42,238.89Zm10.28,8.35c.42-1.71,1.71-2.25,3.85-1.6s3.1,1.49,2.89,2.56a3,3,0,0,1-1.61,2.25,2.72,2.72,0,0,1-2.57,0,8.68,8.68,0,0,1-2.24-1.6C86.37,248.2,86.27,247.67,86.7,247.24Zm19.9,2.57c0-.43-.32-.86-1-1.28a5.24,5.24,0,0,0-2.89-.65c-2.14,0-3.21.86-3.21,2.57s1.18,2.46,3.53,2.25S106.6,251.52,106.6,249.81ZM115,246c2.14,0,3.32.64,3.53,1.92s-.75,2.36-2.89,3.21a6.92,6.92,0,0,1-2.24-.32c-.65-.21-1.07-1-1.29-2.24S112.81,246.39,115,246Z"/></g></g></svg>