<svg xmlns="http://www.w3.org/2000/svg" viewBox="0 0 380.62 253.56"><defs><style>.cls-1{fill:#ee2528;}.cls-2{fill:#fff;}.cls-3{opacity:0.5;}</style></defs><title>support-header_1</title><g id="Layer_2" data-name="Layer 2"><g id="scroll_nav" data-name="scroll nav"><path class="cls-1" d="M190.31,253.56c-47.06,0-91.91-10.93-126.29-30.78-40.68-23.49-64-58.48-64-96s23.34-72.51,64-96C98.4,10.93,143.25,0,190.31,0s91.91,10.93,126.28,30.78c40.69,23.49,64,58.48,64,96s-23.34,72.51-64,96C282.22,242.63,237.37,253.56,190.31,253.56Zm0-173.56C121.88,80,80,110.29,80,126.78s41.88,46.78,110.31,46.78,110.31-30.29,110.31-46.78S258.74,80,190.31,80Z"/><path class="cls-2" d="M316.59,222.79c35.85-20.7,58.21-50.32,63-82.73-14.08-23.78-40.73-48.22-87.41-28.35,5.51,5.45,8.41,10.73,8.41,15.07,0,9.93-15.2,24.87-42.24,35.18,34.33,19.33,36,50.1,30.31,74.12A202.72,202.72,0,0,0,316.59,222.79Z"/><g class="cls-3"><path class="cls-2" d="M329.24,152.53a135.74,135.74,0,0,1-17.79,13.92c-1.6,1-3.23,2-4.84,2.94l-2.44,1.45-2.5,1.34-5,2.66-5.13,2.43L289,178.48l-2.62,1.1-5.25,2.17c-1.76.69-3.56,1.3-5.33,1.95s-3.55,1.34-5.37,1.88l-5.42,1.7c-.91.28-1.81.59-2.72.84l-2.74.74L254,190.35c-1.84.49-3.69.87-5.54,1.31a289.32,289.32,0,0,1-90.62,5.52c-7.57-.78-15.14-1.73-22.65-3.11s-15-3-22.34-5.15a229.77,229.77,0,0,1-21.8-7.35,177.07,177.07,0,0,1-20.88-9.94A128.17,128.17,0,0,1,50.9,158.46a92.73,92.73,0,0,1-16.26-17.28L33.76,140c-.29-.42-.54-.85-.82-1.28l-1.6-2.56c-.56-.84-1-1.78-1.47-2.66s-.95-1.79-1.4-2.71a60.51,60.51,0,0,1-4-11.59,55.53,55.53,0,0,1-1.51-12.27,56.44,56.44,0,0,1,1.4-12.3c.25-1,.44-2,.75-3l1-2.93.49-1.46.59-1.41L28.32,83c.42-.94.93-1.81,1.39-2.72s.91-1.82,1.45-2.67L32.77,75l.8-1.28.88-1.22A92.59,92.59,0,0,1,50.69,55.2,132.45,132.45,0,0,1,69.94,42,169.36,169.36,0,0,1,90.8,31.9a229.2,229.2,0,0,1,21.81-7.38c7.37-2.1,14.84-3.75,22.35-5.19S150,16.91,157.61,16.1s15.2-1.16,22.81-1.3c30.41-.62,61,3.27,89.92,12.6a183.19,183.19,0,0,1,41.24,19.07,119.29,119.29,0,0,1,18,13.86,93.17,93.17,0,0,1,7.73,8.29,79.49,79.49,0,0,1,6.51,9.22,80.36,80.36,0,0,0-7.07-8.72,89.66,89.66,0,0,0-8.18-7.66,118.59,118.59,0,0,0-18.41-12.62,185.42,185.42,0,0,0-41.24-16.75,255.51,255.51,0,0,0-43.76-8.21c-7.39-.74-14.8-1.25-22.22-1.48s-14.85-.1-22.26.2a295.7,295.7,0,0,0-44,5.33c-7.23,1.5-14.42,3.21-21.47,5.34s-14,4.58-20.76,7.39C80.91,46.34,68,53.42,57,62.68A82.67,82.67,0,0,0,42.55,78.2l-.76,1.07-.69,1.11-1.37,2.21c-.46.74-.81,1.53-1.22,2.29s-.83,1.52-1.17,2.3l-1,2.37-.51,1.18L35.45,92l-.79,2.42c-.25.82-.39,1.65-.61,2.47a42.43,42.43,0,0,0,0,20.08,50.71,50.71,0,0,0,3.32,9.67c.37.77.79,1.53,1.18,2.3s.75,1.55,1.24,2.28l1.37,2.22c.24.36.45.74.7,1.1l.77,1.07a82.53,82.53,0,0,0,14.48,15.5,127.86,127.86,0,0,0,17.78,12.37,168.18,168.18,0,0,0,19.63,9.73,218.09,218.09,0,0,0,20.79,7.36,271.25,271.25,0,0,0,43.4,8.93q11,1.31,22.17,1.83c1.86.12,3.71.12,5.57.18s3.71.13,5.57.1l5.57,0c1.86,0,3.72,0,5.57-.07a281,281,0,0,0,44.34-4.6,221.3,221.3,0,0,0,42.95-12.14l5.18-2.1,5.08-2.35,2.55-1.18,2.47-1.31,5-2.63A133.4,133.4,0,0,0,329.24,152.53Z"/></g><path class="cls-2" d="M190.31,0a286.23,286.23,0,0,0-72.06,9C136,34.89,136,67.49,133.56,87.78A200.29,200.29,0,0,1,190.31,80a207.19,207.19,0,0,1,46.45,5.07c-2.12-21-1.33-53,17.07-78.15A289.86,289.86,0,0,0,190.31,0Z"/><path class="cls-2" d="M122.33,162C95.24,151.69,80,136.73,80,126.78c0-4.35,2.91-9.66,8.46-15.11C41.7,91.82,15.06,116.46,1,140.29c4.89,32.32,27.24,61.85,63,82.5a203.14,203.14,0,0,0,28.09,13.36C86.44,212.14,88,181.35,122.33,162Z"/></g></g></svg>