<svg xmlns="http://www.w3.org/2000/svg" viewBox="0 0 304.69 304.69"><defs><style>.cls-1{fill:#3fe0c5;}.cls-2{fill:none;}</style></defs><title>truffle-icon-1</title><g id="Layer_2" data-name="Layer 2"><g id="Layer_2-2" data-name="Layer 2"><path class="cls-1" d="M114.39,93.05H88.2A10.93,10.93,0,0,1,77.28,82.13V55.94A10.94,10.94,0,0,1,88.2,45h26.19a10.94,10.94,0,0,1,10.92,10.93V82.13A10.93,10.93,0,0,1,114.39,93.05ZM88.2,47a8.94,8.94,0,0,0-8.92,8.93V82.13a8.93,8.93,0,0,0,8.92,8.92h26.19a8.93,8.93,0,0,0,8.92-8.92V55.94A8.94,8.94,0,0,0,114.39,47Z"/><polygon class="cls-1" points="200.99 177.03 166.45 211.56 163.41 222.99 174.83 219.94 209.36 185.41 200.99 177.03"/><path class="cls-2" d="M237.25,169.6l-8.14-1.11-6.36,6.36c3.69,5.49,2,14.24-4.27,20.52s-15,8-20.51,4.27L189.63,208l10.47,10.47,31.84-16.75L248,171.07l-7.24-1Z"/><path class="cls-2" d="M216.31,145.6l-1-7.25-30.62,16.1L168,186.29l10.47,10.47,8.39-8.39c-3.47-5.54-1.72-14,4.47-20.19s14.65-7.94,20.19-4.47l6.43-6.43-1.12-8.13Z"/><path class="cls-2" d="M102.3,291.2v3c2.07.74,4.17,1.43,6.28,2.07A8.3,8.3,0,0,0,102.3,291.2Z"/><polygon class="cls-2" points="76.38 169.09 76.38 148.68 55.97 169.09 76.38 169.09"/><path class="cls-2" d="M100.3,125.46v-4.58h2v4.58c3.72-.52,6.68-3.91,7.08-8.17H93.21C93.61,121.55,96.57,124.94,100.3,125.46Z"/><path class="cls-2" d="M100.3,279.57V275h2v4.59c3.72-.53,6.68-3.92,7.08-8.17H93.21C93.61,275.65,96.57,279,100.3,279.57Z"/><path class="cls-2" d="M97.3,292.33c1,.39,2,.77,3,1.14V291.2A7.5,7.5,0,0,0,97.3,292.33Z"/><path class="cls-2" d="M102.3,141.68h-2V137.1c-3.73.52-6.69,3.91-7.09,8.17h16.17c-.4-4.26-3.36-7.65-7.08-8.17Z"/><path class="cls-2" d="M148,147.27H78.38v23.82H54.55v95.46Q56.25,268,58,269.4H148Z"/><path class="cls-2" d="M54.55,269.4h.29l-.29-.24Z"/><path class="cls-2" d="M148,115.29V2.07A149.19,149.19,0,0,0,54.55,38.14v77.15Z"/><path class="cls-2" d="M100.3,281.59c-4.83-.53-8.67-4.82-9.1-10.19H60.5a149.07,149.07,0,0,0,34.62,20.06,9.54,9.54,0,0,1,5.18-2.28Z"/><path class="cls-1" d="M100.3,295.79h.63l-.63-.22Z"/><path class="cls-1" d="M148,115.29H54.55V38.14l-2,1.76v77.39H91.2c.43,5.37,4.27,9.67,9.1,10.19v7.6c-4.83.52-8.67,4.82-9.1,10.19H77L52.55,169.68v95.11l2,1.76V171.09H78.38V147.27H148V269.4H58c.83.67,1.67,1.34,2.52,2H91.2c.43,5.37,4.27,9.66,9.1,10.19v7.59a9.54,9.54,0,0,0-5.18,2.28c.72.3,1.45.59,2.18.87a7.5,7.5,0,0,1,3-1.13v2.27c.66.25,1.33.49,2,.72v-3a8.3,8.3,0,0,1,6.28,5.06c.79.24,1.57.46,2.36.68a10.45,10.45,0,0,0-8.64-7.76v-7.59c4.82-.53,8.66-4.82,9.09-10.19H150V145.27H111.39c-.43-5.37-4.27-9.67-9.09-10.19v-7.6c4.82-.52,8.66-4.82,9.09-10.19H150V2l-2,0Zm-71.66,53.8H56l20.41-20.41ZM102.3,279.57V275h-2v4.59c-3.73-.53-6.69-3.92-7.09-8.17h16.17C109,275.65,106,279,102.3,279.57Zm7.08-134.3H93.21c.4-4.26,3.36-7.65,7.09-8.17v4.58h2V137.1C106,137.62,109,141,109.38,145.27Zm-7.08-19.81v-4.58h-2v4.58c-3.73-.52-6.69-3.91-7.09-8.17h16.17C109,121.55,106,124.94,102.3,125.46Z"/><path class="cls-1" d="M238.67,26.81l-1.92,1.08A151.24,151.24,0,0,1,258.66,46,150.34,150.34,0,0,1,152.35,302.69a150.91,150.91,0,0,1-41.41-5.75,11.9,11.9,0,0,1,.42,2.17A152.37,152.37,0,0,0,238.67,26.81Z"/><path class="cls-1" d="M54.55,269.16l.29.24H58q-1.74-1.39-3.43-2.85Z"/><path class="cls-1" d="M148,.06A151.71,151.71,0,0,0,54.55,35.54v2.6A149.19,149.19,0,0,1,148,2.07Z"/><path class="cls-1" d="M102.3,294.19v1.6h-1.37c2.74,1,5.52,1.89,8.33,2.71a9.86,9.86,0,0,0-.68-2.24C106.47,295.62,104.37,294.93,102.3,294.19Z"/><path class="cls-1" d="M46,258.66A150.33,150.33,0,0,1,46,46c2.11-2.12,4.29-4.16,6.51-6.14V37.23a152.36,152.36,0,0,0,0,230.23v-2.67C50.33,262.82,48.15,260.78,46,258.66Z"/><path class="cls-1" d="M95.12,291.46A149.07,149.07,0,0,1,60.5,271.4H57.29A152.56,152.56,0,0,0,93.67,293,10.45,10.45,0,0,1,95.12,291.46Z"/><path class="cls-1" d="M152.35,2a149.46,149.46,0,0,1,78.74,22.21L233,23.1A151.65,151.65,0,0,0,152.35,0L150,0V2Z"/><path class="cls-1" d="M97.3,292.33a8.84,8.84,0,0,0-1.69,1.44q2.33.93,4.69,1.8v-2.1C99.29,293.1,98.3,292.72,97.3,292.33Z"/><path class="cls-1" d="M54.55,38.14v-2.6c-.67.56-1.34,1.12-2,1.69V39.9Z"/><path class="cls-1" d="M54.55,266.55l-2-1.76v2.67l2,1.7Z"/><path class="cls-1" d="M58,269.4H54.84l2.45,2H60.5C59.65,270.74,58.81,270.07,58,269.4Z"/><path class="cls-1" d="M148,2.07l2,0V0l-2,0Z"/><path class="cls-1" d="M102.3,294.19c-.67-.23-1.34-.47-2-.72v2.1l.63.22h1.37Z"/><path class="cls-1" d="M97.3,292.33c-.73-.28-1.46-.57-2.18-.87A10.45,10.45,0,0,0,93.67,293l1.94.79A8.84,8.84,0,0,1,97.3,292.33Z"/><path class="cls-1" d="M108.58,296.26a9.86,9.86,0,0,1,.68,2.24c.7.21,1.4.42,2.1.61a11.9,11.9,0,0,0-.42-2.17C110.15,296.72,109.37,296.5,108.58,296.26Z"/><path class="cls-1" d="M193.6,62.51c.34,8.7,8.32,15.18,24.41,19.81,24.07,6.93,37.33,16.36,39.44,28,2,11.29-6.79,22.75-13.82,29.85a9.18,9.18,0,0,0-10.9.56A17.38,17.38,0,0,0,218.11,144l-1.19-8.74L183.22,153l-17.72,33.7,12.93,12.92,11-11c-4.18-4.55-2.78-12.94,3.23-19s14.41-7.41,19-3.23L220,158l-1.08-8,1.14-1.14a12.25,12.25,0,0,1,9.66-3.56,9.17,9.17,0,0,0,11.32,11.32,12.33,12.33,0,0,1-3.56,9.66l-1.14,1.14-8-1.09-8.34,8.35c4.48,4.48,3.14,13.09-3,19.23s-14.75,7.48-19.23,3l-11,11,12.92,12.92,33.69-17.72,17.72-33.69-8.73-1.19a17.35,17.35,0,0,0,3.23-14.63,9.15,9.15,0,0,0,1.66-8.61c8-7.91,18.62-21.48,16.05-35.76-2.53-14.1-17.23-25.11-43.68-32.73-9-2.6-19.8-7.18-20.08-14.29-.2-5.15,4.81-16,37.16-34.38Q234,26,231.09,24.21C205.49,39.07,193.18,51.67,193.6,62.51Zm17.88,101.2c-5.54-3.47-14-1.72-20.19,4.47s-7.94,14.65-4.47,20.19l-8.39,8.39L168,186.29l16.74-31.84,30.62-16.1,1,7.25.48,3.55,1.12,8.13ZM248,171.07l-16.1,30.62L200.1,218.44,189.63,208l8.34-8.33c5.48,3.69,14.23,2,20.51-4.27s8-15,4.27-20.52l6.36-6.36,8.14,1.11,3.55.49Z"/><path class="cls-1" d="M236.75,27.89l1.92-1.08c-1.86-1.28-3.74-2.51-5.65-3.71l-1.93,1.11Q234,26,236.75,27.89Z"/><path class="cls-1" d="M131.81,210.32a2.24,2.24,0,0,0-.65-1.65l-3.39-3.3a2,2,0,0,0-1.6-.73,2.3,2.3,0,0,0-1.69.73l-.16.15a10.92,10.92,0,0,0-9.93-6.4H88.2A10.93,10.93,0,0,0,77.28,210v26.19A10.94,10.94,0,0,0,88.2,247.16h26.19a10.94,10.94,0,0,0,10.92-10.93V217.8l5.85-5.83A2.24,2.24,0,0,0,131.81,210.32Zm-8.5,25.91a8.94,8.94,0,0,1-8.92,8.93H88.2a8.94,8.94,0,0,1-8.92-8.93V210a8.93,8.93,0,0,1,8.92-8.92h26.19a8.93,8.93,0,0,1,8.4,5.94l-20.31,20.3L92.22,217.1a2.32,2.32,0,0,0-1.69-.74,2.06,2.06,0,0,0-1.61.74l-3.39,3.3a2.43,2.43,0,0,0,0,3.29l15.31,15.22a2.22,2.22,0,0,0,3.29,0l19.18-19.12Z"/></g></g></svg>